<?xml version="1.0" encoding="UTF-8" standalone="no"?>
<!DOCTYPE svg PUBLIC "-//W3C//DTD SVG 1.1//EN"
 "http://www.w3.org/Graphics/SVG/1.1/DTD/svg11.dtd">
<!-- Generated by graphviz version 2.40.1 (20161225.0304)
 -->
<!-- Title: freeAndNull Pages: 1 -->
<svg width="606pt" height="221pt"
 viewBox="0.00 0.00 606.17 221.00" xmlns="http://www.w3.org/2000/svg" xmlns:xlink="http://www.w3.org/1999/xlink">
<g id="graph0" class="graph" transform="scale(1 1) rotate(0) translate(4 217)">
<title>freeAndNull</title>
<!-- Node1 -->
<g id="node1" class="node">
<title>Node1</title>
<g id="a_node1"><a xlink:title=" ">
<polygon fill="#bfbfbf" stroke="#000000" points="529.94,-102.5 529.94,-122.5 598.169,-122.5 598.169,-102.5 529.94,-102.5"/>
<text text-anchor="middle" x="564.0545" y="-109.5" font-family="Helvetica,sans-Serif" font-size="10.00" fill="#000000">freeAndNull</text>
</a>
</g>
</g>
<!-- Node2 -->
<g id="node2" class="node">
<title>Node2</title>
<g id="a_node2"><a xlink:href="class_l_f_s_t_k__file_dialog_class_a99d3d70ca32edc6810c817df31dfa277.xhtml#a99d3d70ca32edc6810c817df31dfa277" target="_top" xlink:title=" ">
<polygon fill="none" stroke="#000000" points="348.754,-180.5 348.754,-212.5 469.204,-212.5 469.204,-180.5 348.754,-180.5"/>
<text text-anchor="start" x="356.754" y="-199.5" font-family="Helvetica,sans-Serif" font-size="10.00" fill="#000000">LFSTK_fileDialogClass</text>
<text text-anchor="middle" x="408.979" y="-187.5" font-family="Helvetica,sans-Serif" font-size="10.00" fill="#000000">::LFSTK_setNameFilter</text>
</a>
</g>
</g>
<!-- Node1&#45;&gt;Node2 -->
<g id="edge1" class="edge">
<title>Node1&#45;&gt;Node2</title>
<path fill="none" stroke="#191970" d="M547.5273,-129.8791C534.181,-142.9978 514.3261,-160.5515 493.94,-171.5 486.3545,-175.5739 478.0221,-179.0617 469.6326,-182.025"/>
<polygon fill="#191970" stroke="#191970" points="550.0372,-132.3186 554.5881,-122.7509 545.064,-127.3924 550.0372,-132.3186"/>
</g>
<!-- Node3 -->
<g id="node3" class="node">
<title>Node3</title>
<g id="a_node3"><a xlink:href="class_l_f_s_t_k__lib_a36cbdcaf2c98443f432ca14571281463.xhtml#a36cbdcaf2c98443f432ca14571281463" target="_top" xlink:title=" ">
<polygon fill="none" stroke="#000000" points="324.018,-141.5 324.018,-161.5 493.94,-161.5 493.94,-141.5 324.018,-141.5"/>
<text text-anchor="middle" x="408.979" y="-148.5" font-family="Helvetica,sans-Serif" font-size="10.00" fill="#000000">LFSTK_lib::LFSTK_setThemePath</text>
</a>
</g>
</g>
<!-- Node1&#45;&gt;Node3 -->
<g id="edge2" class="edge">
<title>Node1&#45;&gt;Node3</title>
<path fill="none" stroke="#191970" d="M519.7204,-123.6496C497.3629,-129.2723 470.4645,-136.037 448.7763,-141.4914"/>
<polygon fill="#191970" stroke="#191970" points="520.7939,-126.9887 529.6382,-121.1554 519.0865,-120.2001 520.7939,-126.9887"/>
</g>
<!-- Node4 -->
<g id="node4" class="node">
<title>Node4</title>
<g id="a_node4"><a xlink:href="class_l_f_s_t_k__file_dialog_class_a789cade9437906181e31a243c85d52e5.xhtml#a789cade9437906181e31a243c85d52e5" target="_top" xlink:title=" ">
<polygon fill="none" stroke="#000000" points="165.623,-96.5 165.623,-128.5 284.404,-128.5 284.404,-96.5 165.623,-96.5"/>
<text text-anchor="start" x="173.623" y="-115.5" font-family="Helvetica,sans-Serif" font-size="10.00" fill="#000000">LFSTK_fileDialogClass</text>
<text text-anchor="middle" x="225.0135" y="-103.5" font-family="Helvetica,sans-Serif" font-size="10.00" fill="#000000">::select</text>
</a>
</g>
</g>
<!-- Node1&#45;&gt;Node4 -->
<g id="edge3" class="edge">
<title>Node1&#45;&gt;Node4</title>
<path fill="none" stroke="#191970" d="M519.3474,-112.5C459.0427,-112.5 351.4837,-112.5 284.4306,-112.5"/>
<polygon fill="#191970" stroke="#191970" points="519.6797,-116.0001 529.6796,-112.5 519.6796,-109.0001 519.6797,-116.0001"/>
</g>
<!-- Node6 -->
<g id="node6" class="node">
<title>Node6</title>
<g id="a_node6"><a xlink:href="class_l_f_s_t_k__file_dialog_class_a1a2380be673fe96eeb957ddd90051d05.xhtml#a1a2380be673fe96eeb957ddd90051d05" target="_top" xlink:title=" ">
<polygon fill="none" stroke="#000000" points="349.5885,-51.5 349.5885,-83.5 468.3695,-83.5 468.3695,-51.5 349.5885,-51.5"/>
<text text-anchor="start" x="357.5885" y="-70.5" font-family="Helvetica,sans-Serif" font-size="10.00" fill="#000000">LFSTK_fileDialogClass</text>
<text text-anchor="middle" x="408.979" y="-58.5" font-family="Helvetica,sans-Serif" font-size="10.00" fill="#000000">::setFileData</text>
</a>
</g>
</g>
<!-- Node1&#45;&gt;Node6 -->
<g id="edge5" class="edge">
<title>Node1&#45;&gt;Node6</title>
<path fill="none" stroke="#191970" d="M519.8128,-99.6619C502.5328,-94.6475 482.5291,-88.8429 464.3115,-83.5564"/>
<polygon fill="#191970" stroke="#191970" points="519.059,-103.0875 529.6382,-102.513 521.0098,-96.3648 519.059,-103.0875"/>
</g>
<!-- Node9 -->
<g id="node9" class="node">
<title>Node9</title>
<g id="a_node9"><a xlink:href="class_l_f_s_t_k__file_dialog_class_ae3d4b16a17a84fddc8add7998222eb96.xhtml#ae3d4b16a17a84fddc8add7998222eb96" target="_top" xlink:title=" ">
<polygon fill="none" stroke="#000000" points="343.89,-.5 343.89,-32.5 474.068,-32.5 474.068,-.5 343.89,-.5"/>
<text text-anchor="start" x="351.89" y="-19.5" font-family="Helvetica,sans-Serif" font-size="10.00" fill="#000000">LFSTK_fileDialogClass</text>
<text text-anchor="middle" x="408.979" y="-7.5" font-family="Helvetica,sans-Serif" font-size="10.00" fill="#000000">::~LFSTK_fileDialogClass</text>
</a>
</g>
</g>
<!-- Node1&#45;&gt;Node9 -->
<g id="edge9" class="edge">
<title>Node1&#45;&gt;Node9</title>
<path fill="none" stroke="#191970" d="M550.5386,-94.3156C537.6684,-78.2249 516.8976,-55.2279 493.94,-41.5 487.8698,-37.8702 481.2378,-34.7376 474.442,-32.0409"/>
<polygon fill="#191970" stroke="#191970" points="547.9459,-96.6838 556.8396,-102.4417 553.4777,-92.3943 547.9459,-96.6838"/>
</g>
<!-- Node5 -->
<g id="node5" class="node">
<title>Node5</title>
<g id="a_node5"><a xlink:href="class_l_f_s_t_k__file_dialog_class_a553ce8e885b0d60cbf515b7b3d1e8b65.xhtml#a553ce8e885b0d60cbf515b7b3d1e8b65" target="_top" xlink:title=" ">
<polygon fill="none" stroke="#000000" points=".835,-96.5 .835,-128.5 125.174,-128.5 125.174,-96.5 .835,-96.5"/>
<text text-anchor="start" x="8.835" y="-115.5" font-family="Helvetica,sans-Serif" font-size="10.00" fill="#000000">LFSTK_fileDialogClass</text>
<text text-anchor="middle" x="63.0045" y="-103.5" font-family="Helvetica,sans-Serif" font-size="10.00" fill="#000000">::LFSTK_fileDialogClass</text>
</a>
</g>
</g>
<!-- Node4&#45;&gt;Node5 -->
<g id="edge4" class="edge">
<title>Node4&#45;&gt;Node5</title>
<path fill="none" stroke="#191970" d="M155.3434,-112.5C145.3884,-112.5 135.2004,-112.5 125.397,-112.5"/>
<polygon fill="#191970" stroke="#191970" points="155.6073,-116.0001 165.6073,-112.5 155.6072,-109.0001 155.6073,-116.0001"/>
</g>
<!-- Node6&#45;&gt;Node4 -->
<g id="edge8" class="edge">
<title>Node6&#45;&gt;Node4</title>
<path fill="none" stroke="#191970" d="M339.5948,-84.4722C321.4914,-88.9004 302.1432,-93.6332 284.5979,-97.925"/>
<polygon fill="#191970" stroke="#191970" points="340.6228,-87.824 349.5047,-82.0481 338.9595,-81.0244 340.6228,-87.824"/>
</g>
<!-- Node7 -->
<g id="node7" class="node">
<title>Node7</title>
<g id="a_node7"><a xlink:href="class_l_f_s_t_k__file_dialog_class_af77972b8a46616ba4c7bec555b2b0a14.xhtml#af77972b8a46616ba4c7bec555b2b0a14" target="_top" xlink:title=" ">
<polygon fill="none" stroke="#000000" points="162.009,-45.5 162.009,-77.5 288.018,-77.5 288.018,-45.5 162.009,-45.5"/>
<text text-anchor="start" x="170.009" y="-64.5" font-family="Helvetica,sans-Serif" font-size="10.00" fill="#000000">LFSTK_fileDialogClass</text>
<text text-anchor="middle" x="225.0135" y="-52.5" font-family="Helvetica,sans-Serif" font-size="10.00" fill="#000000">::LFSTK_showFileDialog</text>
</a>
</g>
</g>
<!-- Node6&#45;&gt;Node7 -->
<g id="edge6" class="edge">
<title>Node6&#45;&gt;Node7</title>
<path fill="none" stroke="#191970" d="M339.2035,-65.2243C322.406,-64.6764 304.5577,-64.0943 288.0862,-63.5571"/>
<polygon fill="#191970" stroke="#191970" points="339.3959,-68.7323 349.5047,-65.5603 339.6242,-61.736 339.3959,-68.7323"/>
</g>
<!-- Node8 -->
<g id="node8" class="node">
<title>Node8</title>
<g id="a_node8"><a xlink:href="class_l_f_s_t_k__file_dialog_class_aacf1d4b61cbb5b40d06f591ea96f9ea7.xhtml#aacf1d4b61cbb5b40d06f591ea96f9ea7" target="_top" xlink:title=" ">
<polygon fill="none" stroke="#000000" points="0,-45.5 0,-77.5 126.009,-77.5 126.009,-45.5 0,-45.5"/>
<text text-anchor="start" x="8" y="-64.5" font-family="Helvetica,sans-Serif" font-size="10.00" fill="#000000">LFSTK_fileDialogClass</text>
<text text-anchor="middle" x="63.0045" y="-52.5" font-family="Helvetica,sans-Serif" font-size="10.00" fill="#000000">::LFSTK_showFileDialog</text>
</a>
</g>
</g>
<!-- Node7&#45;&gt;Node8 -->
<g id="edge7" class="edge">
<title>Node7&#45;&gt;Node8</title>
<path fill="none" stroke="#191970" d="M151.6358,-61.5C143.144,-61.5 134.5393,-61.5 126.1996,-61.5"/>
<polygon fill="#191970" stroke="#191970" points="151.9127,-65.0001 161.9127,-61.5 151.9127,-58.0001 151.9127,-65.0001"/>
</g>
</g>
</svg>
