<?xml version="1.0" encoding="UTF-8" standalone="no"?>
<!DOCTYPE svg PUBLIC "-//W3C//DTD SVG 1.1//EN"
 "http://www.w3.org/Graphics/SVG/1.1/DTD/svg11.dtd">
<!-- Generated by graphviz version 2.40.1 (20161225.0304)
 -->
<!-- Title: LFSTKLineEdit.h Pages: 1 -->
<svg width="140pt" height="86pt"
 viewBox="0.00 0.00 140.12 86.00" xmlns="http://www.w3.org/2000/svg" xmlns:xlink="http://www.w3.org/1999/xlink">
<g id="graph0" class="graph" transform="scale(1 1) rotate(0) translate(4 82)">
<title>LFSTKLineEdit.h</title>
<!-- Node1 -->
<g id="node1" class="node">
<title>Node1</title>
<g id="a_node1"><a xlink:title=" ">
<polygon fill="#bfbfbf" stroke="#000000" points="11.435,-57.5 11.435,-77.5 103.01,-77.5 103.01,-57.5 11.435,-57.5"/>
<text text-anchor="middle" x="57.2225" y="-64.5" font-family="Helvetica,sans-Serif" font-size="10.00" fill="#000000">LFSTKLineEdit.h</text>
</a>
</g>
</g>
<!-- Node2 -->
<g id="node2" class="node">
<title>Node2</title>
<g id="a_node2"><a xlink:title=" ">
<polygon fill="none" stroke="#bfbfbf" points="0,-.5 0,-20.5 40.445,-20.5 40.445,-.5 0,-.5"/>
<text text-anchor="middle" x="20.2225" y="-7.5" font-family="Helvetica,sans-Serif" font-size="10.00" fill="#000000">string</text>
</a>
</g>
</g>
<!-- Node1&#45;&gt;Node2 -->
<g id="edge1" class="edge">
<title>Node1&#45;&gt;Node2</title>
<path fill="none" stroke="#191970" d="M50.6076,-57.3095C45.5566,-49.5282 38.4557,-38.589 32.3885,-29.2423"/>
<polygon fill="#191970" stroke="#191970" points="35.1606,-27.0844 26.7801,-20.6022 29.2891,-30.8957 35.1606,-27.0844"/>
</g>
<!-- Node3 -->
<g id="node3" class="node">
<title>Node3</title>
<g id="a_node3"><a xlink:title=" ">
<polygon fill="none" stroke="#bfbfbf" points="58.323,-.5 58.323,-20.5 132.122,-20.5 132.122,-.5 58.323,-.5"/>
<text text-anchor="middle" x="95.2225" y="-7.5" font-family="Helvetica,sans-Serif" font-size="10.00" fill="#000000">X11/Xatom.h</text>
</a>
</g>
</g>
<!-- Node1&#45;&gt;Node3 -->
<g id="edge2" class="edge">
<title>Node1&#45;&gt;Node3</title>
<path fill="none" stroke="#191970" d="M64.0161,-57.3095C69.2577,-49.4472 76.6486,-38.3608 82.922,-28.9507"/>
<polygon fill="#191970" stroke="#191970" points="85.8528,-30.8642 88.4877,-20.6022 80.0284,-26.9813 85.8528,-30.8642"/>
</g>
</g>
</svg>
