<?xml version="1.0" encoding="UTF-8" standalone="no"?>
<!DOCTYPE svg PUBLIC "-//W3C//DTD SVG 1.1//EN"
 "http://www.w3.org/Graphics/SVG/1.1/DTD/svg11.dtd">
<!-- Generated by graphviz version 2.40.1 (20161225.0304)
 -->
<!-- Title: LFSTKToggleButton.cpp Pages: 1 -->
<svg width="186pt" height="86pt"
 viewBox="0.00 0.00 186.46 86.00" xmlns="http://www.w3.org/2000/svg" xmlns:xlink="http://www.w3.org/1999/xlink">
<g id="graph0" class="graph" transform="scale(1 1) rotate(0) translate(4 82)">
<title>LFSTKToggleButton.cpp</title>
<!-- Node1 -->
<g id="node1" class="node">
<title>Node1</title>
<g id="a_node1"><a xlink:title=" ">
<polygon fill="#bfbfbf" stroke="#000000" points="11.7665,-57.5 11.7665,-77.5 137.2465,-77.5 137.2465,-57.5 11.7665,-57.5"/>
<text text-anchor="middle" x="74.5065" y="-64.5" font-family="Helvetica,sans-Serif" font-size="10.00" fill="#000000">LFSTKToggleButton.cpp</text>
</a>
</g>
</g>
<!-- Node2 -->
<g id="node2" class="node">
<title>Node2</title>
<g id="a_node2"><a xlink:title=" ">
<polygon fill="none" stroke="#bfbfbf" points="0,-.5 0,-20.5 51.013,-20.5 51.013,-.5 0,-.5"/>
<text text-anchor="middle" x="25.5065" y="-7.5" font-family="Helvetica,sans-Serif" font-size="10.00" fill="#000000">unistd.h</text>
</a>
</g>
</g>
<!-- Node1&#45;&gt;Node2 -->
<g id="edge1" class="edge">
<title>Node1&#45;&gt;Node2</title>
<path fill="none" stroke="#191970" d="M65.7463,-57.3095C58.848,-49.2851 49.0628,-37.9022 40.8691,-28.3708"/>
<polygon fill="#191970" stroke="#191970" points="43.3639,-25.9038 34.1909,-20.6022 38.0557,-30.467 43.3639,-25.9038"/>
</g>
<!-- Node3 -->
<g id="node3" class="node">
<title>Node3</title>
<g id="a_node3"><a xlink:title=" ">
<polygon fill="none" stroke="#bfbfbf" points="68.555,-.5 68.555,-20.5 178.458,-20.5 178.458,-.5 68.555,-.5"/>
<text text-anchor="middle" x="123.5065" y="-7.5" font-family="Helvetica,sans-Serif" font-size="10.00" fill="#000000">lfstk/LFSTKGlobals.h</text>
</a>
</g>
</g>
<!-- Node1&#45;&gt;Node3 -->
<g id="edge2" class="edge">
<title>Node1&#45;&gt;Node3</title>
<path fill="none" stroke="#191970" d="M83.2667,-57.3095C90.165,-49.2851 99.9502,-37.9022 108.1439,-28.3708"/>
<polygon fill="#191970" stroke="#191970" points="110.9573,-30.467 114.8221,-20.6022 105.6491,-25.9038 110.9573,-30.467"/>
</g>
</g>
</svg>
