<?xml version="1.0" encoding="UTF-8" standalone="no"?>
<!DOCTYPE svg PUBLIC "-//W3C//DTD SVG 1.1//EN"
 "http://www.w3.org/Graphics/SVG/1.1/DTD/svg11.dtd">
<!-- Generated by graphviz version 2.40.1 (20161225.0304)
 -->
<!-- Title: LFSTKImage.h Pages: 1 -->
<svg width="356pt" height="86pt"
 viewBox="0.00 0.00 356.14 86.00" xmlns="http://www.w3.org/2000/svg" xmlns:xlink="http://www.w3.org/1999/xlink">
<g id="graph0" class="graph" transform="scale(1 1) rotate(0) translate(4 82)">
<title>LFSTKImage.h</title>
<!-- Node1 -->
<g id="node1" class="node">
<title>Node1</title>
<g id="a_node1"><a xlink:title=" ">
<polygon fill="#bfbfbf" stroke="#000000" points="106.166,-57.5 106.166,-77.5 189.404,-77.5 189.404,-57.5 106.166,-57.5"/>
<text text-anchor="middle" x="147.785" y="-64.5" font-family="Helvetica,sans-Serif" font-size="10.00" fill="#000000">LFSTKImage.h</text>
</a>
</g>
</g>
<!-- Node2 -->
<g id="node2" class="node">
<title>Node2</title>
<g id="a_node2"><a xlink:title=" ">
<polygon fill="none" stroke="#bfbfbf" points="0,-.5 0,-20.5 61.57,-20.5 61.57,-.5 0,-.5"/>
<text text-anchor="middle" x="30.785" y="-7.5" font-family="Helvetica,sans-Serif" font-size="10.00" fill="#000000">X11/Xlib.h</text>
</a>
</g>
</g>
<!-- Node1&#45;&gt;Node2 -->
<g id="edge1" class="edge">
<title>Node1&#45;&gt;Node2</title>
<path fill="none" stroke="#191970" d="M127.1371,-57.4408C108.7049,-48.461 81.4867,-35.2008 60.6762,-25.0624"/>
<polygon fill="#191970" stroke="#191970" points="62.1429,-21.8837 51.6201,-20.6504 59.0771,-28.1766 62.1429,-21.8837"/>
</g>
<!-- Node3 -->
<g id="node3" class="node">
<title>Node3</title>
<g id="a_node3"><a xlink:title=" ">
<polygon fill="none" stroke="#bfbfbf" points="79.6105,-.5 79.6105,-20.5 143.9595,-20.5 143.9595,-.5 79.6105,-.5"/>
<text text-anchor="middle" x="111.785" y="-7.5" font-family="Helvetica,sans-Serif" font-size="10.00" fill="#000000">X11/Xutil.h</text>
</a>
</g>
</g>
<!-- Node1&#45;&gt;Node3 -->
<g id="edge2" class="edge">
<title>Node1&#45;&gt;Node3</title>
<path fill="none" stroke="#191970" d="M141.3489,-57.3095C136.4344,-49.5282 129.5254,-38.589 123.6222,-29.2423"/>
<polygon fill="#191970" stroke="#191970" points="126.4646,-27.1881 118.1654,-20.6022 120.5461,-30.9261 126.4646,-27.1881"/>
</g>
<!-- Node4 -->
<g id="node4" class="node">
<title>Node4</title>
<g id="a_node4"><a xlink:title=" ">
<polygon fill="none" stroke="#bfbfbf" points="162.058,-.5 162.058,-20.5 207.512,-20.5 207.512,-.5 162.058,-.5"/>
<text text-anchor="middle" x="184.785" y="-7.5" font-family="Helvetica,sans-Serif" font-size="10.00" fill="#000000">stdio.h</text>
</a>
</g>
</g>
<!-- Node1&#45;&gt;Node4 -->
<g id="edge3" class="edge">
<title>Node1&#45;&gt;Node4</title>
<path fill="none" stroke="#191970" d="M154.3999,-57.3095C159.4509,-49.5282 166.5518,-38.589 172.619,-29.2423"/>
<polygon fill="#191970" stroke="#191970" points="175.7184,-30.8957 178.2274,-20.6022 169.8469,-27.0844 175.7184,-30.8957"/>
</g>
<!-- Node5 -->
<g id="node5" class="node">
<title>Node5</title>
<g id="a_node5"><a xlink:title=" ">
<polygon fill="none" stroke="#bfbfbf" points="225.429,-.5 225.429,-20.5 348.141,-20.5 348.141,-.5 225.429,-.5"/>
<text text-anchor="middle" x="286.785" y="-7.5" font-family="Helvetica,sans-Serif" font-size="10.00" fill="#000000">X11/extensions/shape.h</text>
</a>
</g>
</g>
<!-- Node1&#45;&gt;Node5 -->
<g id="edge4" class="edge">
<title>Node1&#45;&gt;Node5</title>
<path fill="none" stroke="#191970" d="M172.3154,-57.4408C194.6081,-48.2992 227.7183,-34.7216 252.6022,-24.5174"/>
<polygon fill="#191970" stroke="#191970" points="254.1079,-27.6829 262.0322,-20.6504 251.452,-21.2063 254.1079,-27.6829"/>
</g>
</g>
</svg>
