<?xml version="1.0" encoding="UTF-8" standalone="no"?>
<!DOCTYPE svg PUBLIC "-//W3C//DTD SVG 1.1//EN"
 "http://www.w3.org/Graphics/SVG/1.1/DTD/svg11.dtd">
<!-- Generated by graphviz version 2.40.1 (20161225.0304)
 -->
<!-- Title: select Pages: 1 -->
<svg width="876pt" height="270pt"
 viewBox="0.00 0.00 875.76 270.00" xmlns="http://www.w3.org/2000/svg" xmlns:xlink="http://www.w3.org/1999/xlink">
<g id="graph0" class="graph" transform="scale(1 1) rotate(0) translate(4 266)">
<title>select</title>
<!-- Node1 -->
<g id="node1" class="node">
<title>Node1</title>
<g id="a_node1"><a xlink:title=" ">
<polygon fill="#bfbfbf" stroke="#000000" points="0,-108.5 0,-128.5 42.116,-128.5 42.116,-108.5 0,-108.5"/>
<text text-anchor="middle" x="21.058" y="-115.5" font-family="Helvetica,sans-Serif" font-size="10.00" fill="#000000">select</text>
</a>
</g>
</g>
<!-- Node2 -->
<g id="node2" class="node">
<title>Node2</title>
<g id="a_node2"><a xlink:href="class_l_f_s_t_k__font_dialog_class_a552f817a8f926c4cb1e423ce244c0a76.xhtml#a552f817a8f926c4cb1e423ce244c0a76" target="_top" xlink:title=" ">
<polygon fill="none" stroke="#000000" points="78.116,-102.5 78.116,-134.5 200.797,-134.5 200.797,-102.5 78.116,-102.5"/>
<text text-anchor="start" x="86.116" y="-121.5" font-family="Helvetica,sans-Serif" font-size="10.00" fill="#000000">LFSTK_fontDialogClass</text>
<text text-anchor="middle" x="139.4565" y="-109.5" font-family="Helvetica,sans-Serif" font-size="10.00" fill="#000000">::LFSTK_getFontData</text>
</a>
</g>
</g>
<!-- Node1&#45;&gt;Node2 -->
<g id="edge1" class="edge">
<title>Node1&#45;&gt;Node2</title>
<path fill="none" stroke="#191970" d="M42.2253,-118.5C49.6988,-118.5 58.5748,-118.5 67.8777,-118.5"/>
<polygon fill="#191970" stroke="#191970" points="68.0938,-122.0001 78.0938,-118.5 68.0938,-115.0001 68.0938,-122.0001"/>
</g>
<!-- Node3 -->
<g id="node3" class="node">
<title>Node3</title>
<g id="a_node3"><a xlink:href="class_l_f_s_t_k__font_dialog_class_ac2b51914d426e9ff7ba57211d5639514.xhtml#ac2b51914d426e9ff7ba57211d5639514" target="_top" xlink:title=" ">
<polygon fill="none" stroke="#000000" points="236.797,-102.5 236.797,-134.5 359.478,-134.5 359.478,-102.5 236.797,-102.5"/>
<text text-anchor="start" x="244.797" y="-121.5" font-family="Helvetica,sans-Serif" font-size="10.00" fill="#000000">LFSTK_fontDialogClass</text>
<text text-anchor="middle" x="298.1375" y="-109.5" font-family="Helvetica,sans-Serif" font-size="10.00" fill="#000000">::buildFontString</text>
</a>
</g>
</g>
<!-- Node2&#45;&gt;Node3 -->
<g id="edge2" class="edge">
<title>Node2&#45;&gt;Node3</title>
<path fill="none" stroke="#191970" d="M200.8067,-118.5C209.2691,-118.5 218.0196,-118.5 226.6452,-118.5"/>
<polygon fill="#191970" stroke="#191970" points="226.6889,-122.0001 236.6888,-118.5 226.6888,-115.0001 226.6889,-122.0001"/>
</g>
<!-- Node4 -->
<g id="node4" class="node">
<title>Node4</title>
<g id="a_node4"><a xlink:href="class_l_f_s_t_k__line_edit_class_adbcfa08279eec28c5f4e2c33a056d396.xhtml#adbcfa08279eec28c5f4e2c33a056d396" target="_top" xlink:title=" ">
<polygon fill="none" stroke="#000000" points="414.9295,-204.5 414.9295,-236.5 530.3815,-236.5 530.3815,-204.5 414.9295,-204.5"/>
<text text-anchor="start" x="422.9295" y="-223.5" font-family="Helvetica,sans-Serif" font-size="10.00" fill="#000000">LFSTK_lineEditClass</text>
<text text-anchor="middle" x="472.6555" y="-211.5" font-family="Helvetica,sans-Serif" font-size="10.00" fill="#000000">::LFSTK_clearWindow</text>
</a>
</g>
</g>
<!-- Node3&#45;&gt;Node4 -->
<g id="edge3" class="edge">
<title>Node3&#45;&gt;Node4</title>
<path fill="none" stroke="#191970" d="M314.7438,-134.7272C333.134,-151.9175 364.3192,-178.8299 395.478,-195.5 398.7767,-197.2648 402.2218,-198.9326 405.7473,-200.5044"/>
<polygon fill="#191970" stroke="#191970" points="404.6448,-203.8363 415.2223,-204.4418 407.331,-197.3722 404.6448,-203.8363"/>
</g>
<!-- Node9 -->
<g id="node9" class="node">
<title>Node9</title>
<g id="a_node9"><a xlink:href="class_l_f_s_t_k__line_edit_class_adfaad6bd5ec8f4ecc3be7a6358693786.xhtml#adfaad6bd5ec8f4ecc3be7a6358693786" target="_top" xlink:title=" ">
<polygon fill="none" stroke="#000000" points="417.429,-153.5 417.429,-185.5 527.882,-185.5 527.882,-153.5 417.429,-153.5"/>
<text text-anchor="start" x="425.429" y="-172.5" font-family="Helvetica,sans-Serif" font-size="10.00" fill="#000000">LFSTK_lineEditClass</text>
<text text-anchor="middle" x="472.6555" y="-160.5" font-family="Helvetica,sans-Serif" font-size="10.00" fill="#000000">::LFSTK_getCStr</text>
</a>
</g>
</g>
<!-- Node3&#45;&gt;Node9 -->
<g id="edge8" class="edge">
<title>Node3&#45;&gt;Node9</title>
<path fill="none" stroke="#191970" d="M353.3561,-134.6367C370.713,-139.709 390.034,-145.3552 407.9853,-150.6012"/>
<polygon fill="#191970" stroke="#191970" points="407.2158,-154.0227 417.7961,-153.4683 409.1794,-147.3037 407.2158,-154.0227"/>
</g>
<!-- Node10 -->
<g id="node10" class="node">
<title>Node10</title>
<g id="a_node10"><a xlink:href="class_l_f_s_t_k__list_gadget_class_adca4f8facb3b38e8eb94cd5164c8c415.xhtml#adca4f8facb3b38e8eb94cd5164c8c415" target="_top" xlink:title=" ">
<polygon fill="none" stroke="#000000" points="402.423,-102.5 402.423,-134.5 542.888,-134.5 542.888,-102.5 402.423,-102.5"/>
<text text-anchor="start" x="410.423" y="-121.5" font-family="Helvetica,sans-Serif" font-size="10.00" fill="#000000">LFSTK_listGadgetClass</text>
<text text-anchor="middle" x="472.6555" y="-109.5" font-family="Helvetica,sans-Serif" font-size="10.00" fill="#000000">::LFSTK_getCurrentListItem</text>
</a>
</g>
</g>
<!-- Node3&#45;&gt;Node10 -->
<g id="edge9" class="edge">
<title>Node3&#45;&gt;Node10</title>
<path fill="none" stroke="#191970" d="M359.666,-118.5C370.0775,-118.5 381.0256,-118.5 391.841,-118.5"/>
<polygon fill="#191970" stroke="#191970" points="392.1479,-122.0001 402.1479,-118.5 392.1479,-115.0001 392.1479,-122.0001"/>
</g>
<!-- Node11 -->
<g id="node11" class="node">
<title>Node11</title>
<g id="a_node11"><a xlink:href="class_l_f_s_t_k__toggle_button_class_a8a076e5b5871885e04cd5f91b9607c26.xhtml#a8a076e5b5871885e04cd5f91b9607c26" target="_top" xlink:title=" ">
<polygon fill="none" stroke="#000000" points="405.751,-51.5 405.751,-83.5 539.56,-83.5 539.56,-51.5 405.751,-51.5"/>
<text text-anchor="start" x="413.751" y="-70.5" font-family="Helvetica,sans-Serif" font-size="10.00" fill="#000000">LFSTK_toggleButtonClass</text>
<text text-anchor="middle" x="472.6555" y="-58.5" font-family="Helvetica,sans-Serif" font-size="10.00" fill="#000000">::LFSTK_getValue</text>
</a>
</g>
</g>
<!-- Node3&#45;&gt;Node11 -->
<g id="edge10" class="edge">
<title>Node3&#45;&gt;Node11</title>
<path fill="none" stroke="#191970" d="M353.3561,-102.3633C370.713,-97.291 390.034,-91.6448 407.9853,-86.3988"/>
<polygon fill="#191970" stroke="#191970" points="409.1794,-89.6963 417.7961,-83.5317 407.2158,-82.9773 409.1794,-89.6963"/>
</g>
<!-- Node12 -->
<g id="node12" class="node">
<title>Node12</title>
<g id="a_node12"><a xlink:href="class_l_f_s_t_k__gadget_class_a68d08536cf6845c8c2b60a9c5f855478.xhtml#a68d08536cf6845c8c2b60a9c5f855478" target="_top" xlink:title=" ">
<polygon fill="none" stroke="#000000" points="395.478,-.5 395.478,-32.5 549.833,-32.5 549.833,-.5 395.478,-.5"/>
<text text-anchor="start" x="403.478" y="-19.5" font-family="Helvetica,sans-Serif" font-size="10.00" fill="#000000">LFSTK_gadgetClass::</text>
<text text-anchor="middle" x="472.6555" y="-7.5" font-family="Helvetica,sans-Serif" font-size="10.00" fill="#000000">LFSTK_setCairoFontDataParts</text>
</a>
</g>
</g>
<!-- Node3&#45;&gt;Node12 -->
<g id="edge11" class="edge">
<title>Node3&#45;&gt;Node12</title>
<path fill="none" stroke="#191970" d="M315.1602,-102.2571C333.6583,-85.3489 364.7074,-59.0681 395.478,-42.5 399.4364,-40.3687 403.6021,-38.3657 407.8625,-36.492"/>
<polygon fill="#191970" stroke="#191970" points="409.3893,-39.6483 417.2971,-32.5973 406.7182,-33.178 409.3893,-39.6483"/>
</g>
<!-- Node5 -->
<g id="node5" class="node">
<title>Node5</title>
<g id="a_node5"><a xlink:href="class_l_f_s_t_k__gadget_class_ab76db165a19af248b5e94e95492dc879.xhtml#ab76db165a19af248b5e94e95492dc879" target="_top" xlink:title=" ">
<polygon fill="none" stroke="#000000" points="585.833,-229.5 585.833,-261.5 699.636,-261.5 699.636,-229.5 585.833,-229.5"/>
<text text-anchor="start" x="593.833" y="-248.5" font-family="Helvetica,sans-Serif" font-size="10.00" fill="#000000">LFSTK_gadgetClass::</text>
<text text-anchor="middle" x="642.7345" y="-236.5" font-family="Helvetica,sans-Serif" font-size="10.00" fill="#000000">drawBevel</text>
</a>
</g>
</g>
<!-- Node4&#45;&gt;Node5 -->
<g id="edge4" class="edge">
<title>Node4&#45;&gt;Node5</title>
<path fill="none" stroke="#191970" d="M530.7113,-229.0337C545.1762,-231.1598 560.803,-233.4568 575.6628,-235.6411"/>
<polygon fill="#191970" stroke="#191970" points="575.4014,-239.1402 585.8041,-237.1318 576.4195,-232.2146 575.4014,-239.1402"/>
</g>
<!-- Node6 -->
<g id="node6" class="node">
<title>Node6</title>
<g id="a_node6"><a xlink:href="class_l_f_s_t_k__line_edit_class_a24da1f04ceb3b05ed9b25988e2cb5130.xhtml#a24da1f04ceb3b05ed9b25988e2cb5130" target="_top" xlink:title=" ">
<polygon fill="none" stroke="#000000" points="587.508,-178.5 587.508,-210.5 697.961,-210.5 697.961,-178.5 587.508,-178.5"/>
<text text-anchor="start" x="595.508" y="-197.5" font-family="Helvetica,sans-Serif" font-size="10.00" fill="#000000">LFSTK_lineEditClass</text>
<text text-anchor="middle" x="642.7345" y="-185.5" font-family="Helvetica,sans-Serif" font-size="10.00" fill="#000000">::drawLabel</text>
</a>
</g>
</g>
<!-- Node4&#45;&gt;Node6 -->
<g id="edge5" class="edge">
<title>Node4&#45;&gt;Node6</title>
<path fill="none" stroke="#191970" d="M530.7113,-211.625C545.7099,-209.3322 561.9579,-206.8483 577.3046,-204.5023"/>
<polygon fill="#191970" stroke="#191970" points="577.8811,-207.9549 587.2373,-202.9839 576.8232,-201.0353 577.8811,-207.9549"/>
</g>
<!-- Node7 -->
<g id="node7" class="node">
<title>Node7</title>
<g id="a_node7"><a xlink:href="class_l_f_s_t_k__gadget_class_ac233a3c3e0900ff66adb74102a56f09f.xhtml#ac233a3c3e0900ff66adb74102a56f09f" target="_top" xlink:title=" ">
<polygon fill="none" stroke="#000000" points="735.636,-204.5 735.636,-236.5 867.765,-236.5 867.765,-204.5 735.636,-204.5"/>
<text text-anchor="start" x="743.636" y="-223.5" font-family="Helvetica,sans-Serif" font-size="10.00" fill="#000000">LFSTK_gadgetClass::</text>
<text text-anchor="middle" x="801.7005" y="-211.5" font-family="Helvetica,sans-Serif" font-size="10.00" fill="#000000">LFSTK_getTextRealWidth</text>
</a>
</g>
</g>
<!-- Node6&#45;&gt;Node7 -->
<g id="edge6" class="edge">
<title>Node6&#45;&gt;Node7</title>
<path fill="none" stroke="#191970" d="M698.3331,-203.5935C707.1438,-205.0346 716.3861,-206.5462 725.5686,-208.0481"/>
<polygon fill="#191970" stroke="#191970" points="725.0522,-211.5101 735.486,-209.6702 726.1821,-204.6018 725.0522,-211.5101"/>
</g>
<!-- Node8 -->
<g id="node8" class="node">
<title>Node8</title>
<g id="a_node8"><a xlink:href="class_l_f_s_t_k__gadget_class_a23bc2dc7b8200df4dc74f1f68460eca2.xhtml#a23bc2dc7b8200df4dc74f1f68460eca2" target="_top" xlink:title=" ">
<polygon fill="none" stroke="#000000" points="744.799,-153.5 744.799,-185.5 858.602,-185.5 858.602,-153.5 744.799,-153.5"/>
<text text-anchor="start" x="752.799" y="-172.5" font-family="Helvetica,sans-Serif" font-size="10.00" fill="#000000">LFSTK_gadgetClass::</text>
<text text-anchor="middle" x="801.7005" y="-160.5" font-family="Helvetica,sans-Serif" font-size="10.00" fill="#000000">LFSTK_getTextWidth</text>
</a>
</g>
</g>
<!-- Node6&#45;&gt;Node8 -->
<g id="edge7" class="edge">
<title>Node6&#45;&gt;Node8</title>
<path fill="none" stroke="#191970" d="M698.3331,-185.7562C710.0844,-183.9081 722.6035,-181.9393 734.7246,-180.033"/>
<polygon fill="#191970" stroke="#191970" points="735.4524,-183.4617 744.7872,-178.4506 734.3648,-176.5467 735.4524,-183.4617"/>
</g>
</g>
</svg>
