<?xml version="1.0" encoding="UTF-8" standalone="no"?>
<!DOCTYPE svg PUBLIC "-//W3C//DTD SVG 1.1//EN"
 "http://www.w3.org/Graphics/SVG/1.1/DTD/svg11.dtd">
<!-- Generated by graphviz version 2.40.1 (20161225.0304)
 -->
<!-- Title: LFSTKFindClass.h Pages: 1 -->
<svg width="226pt" height="86pt"
 viewBox="0.00 0.00 225.90 86.00" xmlns="http://www.w3.org/2000/svg" xmlns:xlink="http://www.w3.org/1999/xlink">
<g id="graph0" class="graph" transform="scale(1 1) rotate(0) translate(4 82)">
<title>LFSTKFindClass.h</title>
<!-- Node1 -->
<g id="node1" class="node">
<title>Node1</title>
<g id="a_node1"><a xlink:title=" ">
<polygon fill="#bfbfbf" stroke="#000000" points="64.2795,-57.5 64.2795,-77.5 164.1755,-77.5 164.1755,-57.5 64.2795,-57.5"/>
<text text-anchor="middle" x="114.2275" y="-64.5" font-family="Helvetica,sans-Serif" font-size="10.00" fill="#000000">LFSTKFindClass.h</text>
</a>
</g>
</g>
<!-- Node2 -->
<g id="node2" class="node">
<title>Node2</title>
<g id="a_node2"><a xlink:href="_l_f_s_t_k_find_class_8cpp.xhtml" target="_top" xlink:title=" ">
<polygon fill="none" stroke="#000000" points="0,-.5 0,-20.5 110.455,-20.5 110.455,-.5 0,-.5"/>
<text text-anchor="middle" x="55.2275" y="-7.5" font-family="Helvetica,sans-Serif" font-size="10.00" fill="#000000">LFSTKFindClass.cpp</text>
</a>
</g>
</g>
<!-- Node1&#45;&gt;Node2 -->
<g id="edge1" class="edge">
<title>Node1&#45;&gt;Node2</title>
<path fill="none" stroke="#191970" d="M96.2173,-50.1004C86.2183,-40.4403 74.1319,-28.7636 65.6842,-20.6022"/>
<polygon fill="#191970" stroke="#191970" points="94.0557,-52.8786 103.6795,-57.3095 98.9194,-47.8442 94.0557,-52.8786"/>
</g>
<!-- Node3 -->
<g id="node3" class="node">
<title>Node3</title>
<g id="a_node3"><a xlink:href="_l_f_s_t_k_globals_8h.xhtml" target="_top" xlink:title=" ">
<polygon fill="none" stroke="#000000" points="128.554,-.5 128.554,-20.5 217.901,-20.5 217.901,-.5 128.554,-.5"/>
<text text-anchor="middle" x="173.2275" y="-7.5" font-family="Helvetica,sans-Serif" font-size="10.00" fill="#000000">LFSTKGlobals.h</text>
</a>
</g>
</g>
<!-- Node1&#45;&gt;Node3 -->
<g id="edge2" class="edge">
<title>Node1&#45;&gt;Node3</title>
<path fill="none" stroke="#191970" d="M132.2377,-50.1004C142.2367,-40.4403 154.3231,-28.7636 162.7708,-20.6022"/>
<polygon fill="#191970" stroke="#191970" points="129.5356,-47.8442 124.7755,-57.3095 134.3993,-52.8786 129.5356,-47.8442"/>
</g>
</g>
</svg>
