<?xml version="1.0" encoding="UTF-8" standalone="no"?>
<!DOCTYPE svg PUBLIC "-//W3C//DTD SVG 1.1//EN"
 "http://www.w3.org/Graphics/SVG/1.1/DTD/svg11.dtd">
<!-- Generated by graphviz version 2.40.1 (20161225.0304)
 -->
<!-- Title: LFSTKWindow.cpp Pages: 1 -->
<svg width="793pt" height="86pt"
 viewBox="0.00 0.00 793.46 86.00" xmlns="http://www.w3.org/2000/svg" xmlns:xlink="http://www.w3.org/1999/xlink">
<g id="graph0" class="graph" transform="scale(1 1) rotate(0) translate(4 82)">
<title>LFSTKWindow.cpp</title>
<!-- Node1 -->
<g id="node1" class="node">
<title>Node1</title>
<g id="a_node1"><a xlink:title=" ">
<polygon fill="#bfbfbf" stroke="#000000" points="292.7235,-57.5 292.7235,-77.5 394.2895,-77.5 394.2895,-57.5 292.7235,-57.5"/>
<text text-anchor="middle" x="343.5065" y="-64.5" font-family="Helvetica,sans-Serif" font-size="10.00" fill="#000000">LFSTKWindow.cpp</text>
</a>
</g>
</g>
<!-- Node2 -->
<g id="node2" class="node">
<title>Node2</title>
<g id="a_node2"><a xlink:title=" ">
<polygon fill="none" stroke="#bfbfbf" points="0,-.5 0,-20.5 51.013,-20.5 51.013,-.5 0,-.5"/>
<text text-anchor="middle" x="25.5065" y="-7.5" font-family="Helvetica,sans-Serif" font-size="10.00" fill="#000000">unistd.h</text>
</a>
</g>
</g>
<!-- Node1&#45;&gt;Node2 -->
<g id="edge1" class="edge">
<title>Node1&#45;&gt;Node2</title>
<path fill="none" stroke="#191970" d="M292.5607,-61.3038C237.5214,-54.1327 147.1397,-40.9759 60.9654,-21.1177"/>
<polygon fill="#191970" stroke="#191970" points="61.5575,-17.6618 51.0231,-18.7918 59.9629,-24.4777 61.5575,-17.6618"/>
</g>
<!-- Node3 -->
<g id="node3" class="node">
<title>Node3</title>
<g id="a_node3"><a xlink:title=" ">
<polygon fill="none" stroke="#bfbfbf" points="68.67,-.5 68.67,-20.5 116.343,-20.5 116.343,-.5 68.67,-.5"/>
<text text-anchor="middle" x="92.5065" y="-7.5" font-family="Helvetica,sans-Serif" font-size="10.00" fill="#000000">stdlib.h</text>
</a>
</g>
</g>
<!-- Node1&#45;&gt;Node3 -->
<g id="edge2" class="edge">
<title>Node1&#45;&gt;Node3</title>
<path fill="none" stroke="#191970" d="M292.5163,-58.0899C250.3765,-49.9827 188.8198,-37.3824 126.5707,-21.1029"/>
<polygon fill="#191970" stroke="#191970" points="127.1397,-17.6331 116.5771,-18.4587 125.3491,-24.4002 127.1397,-17.6331"/>
</g>
<!-- Node4 -->
<g id="node4" class="node">
<title>Node4</title>
<g id="a_node4"><a xlink:title=" ">
<polygon fill="none" stroke="#bfbfbf" points="134.7795,-.5 134.7795,-20.5 180.2335,-20.5 180.2335,-.5 134.7795,-.5"/>
<text text-anchor="middle" x="157.5065" y="-7.5" font-family="Helvetica,sans-Serif" font-size="10.00" fill="#000000">stdio.h</text>
</a>
</g>
</g>
<!-- Node1&#45;&gt;Node4 -->
<g id="edge3" class="edge">
<title>Node1&#45;&gt;Node4</title>
<path fill="none" stroke="#191970" d="M309.4861,-57.4807C280.2477,-48.8136 236.7268,-35.7801 190.2104,-21.176"/>
<polygon fill="#191970" stroke="#191970" points="191.147,-17.8015 180.5574,-18.1362 189.0443,-24.4783 191.147,-17.8015"/>
</g>
<!-- Node5 -->
<g id="node5" class="node">
<title>Node5</title>
<g id="a_node5"><a xlink:title=" ">
<polygon fill="none" stroke="#bfbfbf" points="198.273,-.5 198.273,-20.5 288.74,-20.5 288.74,-.5 198.273,-.5"/>
<text text-anchor="middle" x="243.5065" y="-7.5" font-family="Helvetica,sans-Serif" font-size="10.00" fill="#000000">X11/Xresource.h</text>
</a>
</g>
</g>
<!-- Node1&#45;&gt;Node5 -->
<g id="edge4" class="edge">
<title>Node1&#45;&gt;Node5</title>
<path fill="none" stroke="#191970" d="M325.6285,-57.3095C310.2706,-48.5556 287.9011,-35.8049 270.3857,-25.8211"/>
<polygon fill="#191970" stroke="#191970" points="271.6507,-22.5136 261.2297,-20.6022 268.1843,-28.595 271.6507,-22.5136"/>
</g>
<!-- Node6 -->
<g id="node6" class="node">
<title>Node6</title>
<g id="a_node6"><a xlink:title=" ">
<polygon fill="none" stroke="#bfbfbf" points="306.607,-.5 306.607,-20.5 380.406,-20.5 380.406,-.5 306.607,-.5"/>
<text text-anchor="middle" x="343.5065" y="-7.5" font-family="Helvetica,sans-Serif" font-size="10.00" fill="#000000">X11/Xatom.h</text>
</a>
</g>
</g>
<!-- Node1&#45;&gt;Node6 -->
<g id="edge5" class="edge">
<title>Node1&#45;&gt;Node6</title>
<path fill="none" stroke="#191970" d="M343.5065,-57.3095C343.5065,-49.9335 343.5065,-39.72 343.5065,-30.715"/>
<polygon fill="#191970" stroke="#191970" points="347.0066,-30.6022 343.5065,-20.6022 340.0066,-30.6023 347.0066,-30.6022"/>
</g>
<!-- Node7 -->
<g id="node7" class="node">
<title>Node7</title>
<g id="a_node7"><a xlink:title=" ">
<polygon fill="none" stroke="#bfbfbf" points="398.3775,-.5 398.3775,-20.5 536.6355,-20.5 536.6355,-.5 398.3775,-.5"/>
<text text-anchor="middle" x="467.5065" y="-7.5" font-family="Helvetica,sans-Serif" font-size="10.00" fill="#000000">X11/extensions/Xinerama.h</text>
</a>
</g>
</g>
<!-- Node1&#45;&gt;Node7 -->
<g id="edge6" class="edge">
<title>Node1&#45;&gt;Node7</title>
<path fill="none" stroke="#191970" d="M365.3898,-57.4408C385.0127,-48.4205 414.0315,-35.0813 436.1246,-24.9255"/>
<polygon fill="#191970" stroke="#191970" points="437.8007,-28.0072 445.4249,-20.6504 434.877,-21.647 437.8007,-28.0072"/>
</g>
<!-- Node8 -->
<g id="node8" class="node">
<title>Node8</title>
<g id="a_node8"><a xlink:title=" ">
<polygon fill="none" stroke="#bfbfbf" points="555.115,-.5 555.115,-20.5 603.898,-20.5 603.898,-.5 555.115,-.5"/>
<text text-anchor="middle" x="579.5065" y="-7.5" font-family="Helvetica,sans-Serif" font-size="10.00" fill="#000000">string.h</text>
</a>
</g>
</g>
<!-- Node1&#45;&gt;Node8 -->
<g id="edge7" class="edge">
<title>Node1&#45;&gt;Node8</title>
<path fill="none" stroke="#191970" d="M391.5034,-57.4884C430.4198,-49.1368 486.8681,-36.4956 545.2832,-20.9151"/>
<polygon fill="#191970" stroke="#191970" points="546.3076,-24.264 555.0547,-18.2859 544.4887,-17.5045 546.3076,-24.264"/>
</g>
<!-- Node9 -->
<g id="node9" class="node">
<title>Node9</title>
<g id="a_node9"><a xlink:title=" ">
<polygon fill="none" stroke="#bfbfbf" points="621.783,-.5 621.783,-20.5 657.23,-20.5 657.23,-.5 621.783,-.5"/>
<text text-anchor="middle" x="639.5065" y="-7.5" font-family="Helvetica,sans-Serif" font-size="10.00" fill="#000000">map</text>
</a>
</g>
</g>
<!-- Node1&#45;&gt;Node9 -->
<g id="edge8" class="edge">
<title>Node1&#45;&gt;Node9</title>
<path fill="none" stroke="#191970" d="M394.4951,-61.7685C446.9663,-55.1866 531.0702,-42.736 611.836,-20.7421"/>
<polygon fill="#191970" stroke="#191970" points="612.9677,-24.0604 621.6666,-18.0124 611.0947,-17.3156 612.9677,-24.0604"/>
</g>
<!-- Node10 -->
<g id="node10" class="node">
<title>Node10</title>
<g id="a_node10"><a xlink:title=" ">
<polygon fill="none" stroke="#bfbfbf" points="675.555,-.5 675.555,-20.5 785.458,-20.5 785.458,-.5 675.555,-.5"/>
<text text-anchor="middle" x="730.5065" y="-7.5" font-family="Helvetica,sans-Serif" font-size="10.00" fill="#000000">lfstk/LFSTKGlobals.h</text>
</a>
</g>
</g>
<!-- Node1&#45;&gt;Node10 -->
<g id="edge9" class="edge">
<title>Node1&#45;&gt;Node10</title>
<path fill="none" stroke="#191970" d="M394.4608,-60.4794C456.098,-51.9168 563.2868,-36.8023 665.198,-21.1802"/>
<polygon fill="#191970" stroke="#191970" points="666.0074,-24.597 675.3595,-19.6181 664.9437,-17.6782 666.0074,-24.597"/>
</g>
</g>
</svg>
