<?xml version="1.0" encoding="UTF-8" standalone="no"?>
<!DOCTYPE svg PUBLIC "-//W3C//DTD SVG 1.1//EN"
 "http://www.w3.org/Graphics/SVG/1.1/DTD/svg11.dtd">
<!-- Generated by graphviz version 2.40.1 (20161225.0304)
 -->
<!-- Title: LFSTKMultiLineEdit.h Pages: 1 -->
<svg width="202pt" height="86pt"
 viewBox="0.00 0.00 201.84 86.00" xmlns="http://www.w3.org/2000/svg" xmlns:xlink="http://www.w3.org/1999/xlink">
<g id="graph0" class="graph" transform="scale(1 1) rotate(0) translate(4 82)">
<title>LFSTKMultiLineEdit.h</title>
<!-- Node1 -->
<g id="node1" class="node">
<title>Node1</title>
<g id="a_node1"><a xlink:title=" ">
<polygon fill="#bfbfbf" stroke="#000000" points="38.8825,-57.5 38.8825,-77.5 151.5625,-77.5 151.5625,-57.5 38.8825,-57.5"/>
<text text-anchor="middle" x="95.2225" y="-64.5" font-family="Helvetica,sans-Serif" font-size="10.00" fill="#000000">LFSTKMultiLineEdit.h</text>
</a>
</g>
</g>
<!-- Node2 -->
<g id="node2" class="node">
<title>Node2</title>
<g id="a_node2"><a xlink:title=" ">
<polygon fill="none" stroke="#bfbfbf" points="0,-.5 0,-20.5 40.445,-20.5 40.445,-.5 0,-.5"/>
<text text-anchor="middle" x="20.2225" y="-7.5" font-family="Helvetica,sans-Serif" font-size="10.00" fill="#000000">string</text>
</a>
</g>
</g>
<!-- Node1&#45;&gt;Node2 -->
<g id="edge1" class="edge">
<title>Node1&#45;&gt;Node2</title>
<path fill="none" stroke="#191970" d="M81.814,-57.3095C70.6155,-48.7987 54.4464,-36.5102 41.4848,-26.6594"/>
<polygon fill="#191970" stroke="#191970" points="43.5944,-23.8665 33.5149,-20.6022 39.3587,-29.4397 43.5944,-23.8665"/>
</g>
<!-- Node3 -->
<g id="node3" class="node">
<title>Node3</title>
<g id="a_node3"><a xlink:title=" ">
<polygon fill="none" stroke="#bfbfbf" points="58.323,-.5 58.323,-20.5 132.122,-20.5 132.122,-.5 58.323,-.5"/>
<text text-anchor="middle" x="95.2225" y="-7.5" font-family="Helvetica,sans-Serif" font-size="10.00" fill="#000000">X11/Xatom.h</text>
</a>
</g>
</g>
<!-- Node1&#45;&gt;Node3 -->
<g id="edge2" class="edge">
<title>Node1&#45;&gt;Node3</title>
<path fill="none" stroke="#191970" d="M95.2225,-57.3095C95.2225,-49.9335 95.2225,-39.72 95.2225,-30.715"/>
<polygon fill="#191970" stroke="#191970" points="98.7226,-30.6022 95.2225,-20.6022 91.7226,-30.6023 98.7226,-30.6022"/>
</g>
<!-- Node4 -->
<g id="node4" class="node">
<title>Node4</title>
<g id="a_node4"><a xlink:title=" ">
<polygon fill="none" stroke="#bfbfbf" points="150.6095,-.5 150.6095,-20.5 193.8355,-20.5 193.8355,-.5 150.6095,-.5"/>
<text text-anchor="middle" x="172.2225" y="-7.5" font-family="Helvetica,sans-Serif" font-size="10.00" fill="#000000">vector</text>
</a>
</g>
</g>
<!-- Node1&#45;&gt;Node4 -->
<g id="edge3" class="edge">
<title>Node1&#45;&gt;Node4</title>
<path fill="none" stroke="#191970" d="M108.9886,-57.3095C120.4856,-48.7987 137.0859,-36.5102 150.3932,-26.6594"/>
<polygon fill="#191970" stroke="#191970" points="152.6206,-29.3652 158.5756,-20.6022 148.4557,-23.7389 152.6206,-29.3652"/>
</g>
</g>
</svg>
