<?xml version="1.0" encoding="UTF-8" standalone="no"?>
<!DOCTYPE svg PUBLIC "-//W3C//DTD SVG 1.1//EN"
 "http://www.w3.org/Graphics/SVG/1.1/DTD/svg11.dtd">
<!-- Generated by graphviz version 2.40.1 (20161225.0304)
 -->
<!-- Title: LFSTKFileDialog.cpp Pages: 1 -->
<svg width="481pt" height="86pt"
 viewBox="0.00 0.00 481.01 86.00" xmlns="http://www.w3.org/2000/svg" xmlns:xlink="http://www.w3.org/1999/xlink">
<g id="graph0" class="graph" transform="scale(1 1) rotate(0) translate(4 82)">
<title>LFSTKFileDialog.cpp</title>
<!-- Node1 -->
<g id="node1" class="node">
<title>Node1</title>
<g id="a_node1"><a xlink:title=" ">
<polygon fill="#bfbfbf" stroke="#000000" points="148.2805,-57.5 148.2805,-77.5 258.7325,-77.5 258.7325,-57.5 148.2805,-57.5"/>
<text text-anchor="middle" x="203.5065" y="-64.5" font-family="Helvetica,sans-Serif" font-size="10.00" fill="#000000">LFSTKFileDialog.cpp</text>
</a>
</g>
</g>
<!-- Node2 -->
<g id="node2" class="node">
<title>Node2</title>
<g id="a_node2"><a xlink:title=" ">
<polygon fill="none" stroke="#bfbfbf" points="0,-.5 0,-20.5 51.013,-20.5 51.013,-.5 0,-.5"/>
<text text-anchor="middle" x="25.5065" y="-7.5" font-family="Helvetica,sans-Serif" font-size="10.00" fill="#000000">unistd.h</text>
</a>
</g>
</g>
<!-- Node1&#45;&gt;Node2 -->
<g id="edge1" class="edge">
<title>Node1&#45;&gt;Node2</title>
<path fill="none" stroke="#191970" d="M172.0934,-57.4408C140.8887,-47.4482 93.1322,-32.1554 60.6752,-21.7619"/>
<polygon fill="#191970" stroke="#191970" points="61.7198,-18.4214 51.1287,-18.7049 59.5849,-25.0879 61.7198,-18.4214"/>
</g>
<!-- Node3 -->
<g id="node3" class="node">
<title>Node3</title>
<g id="a_node3"><a xlink:title=" ">
<polygon fill="none" stroke="#bfbfbf" points="68.67,-.5 68.67,-20.5 116.343,-20.5 116.343,-.5 68.67,-.5"/>
<text text-anchor="middle" x="92.5065" y="-7.5" font-family="Helvetica,sans-Serif" font-size="10.00" fill="#000000">stdlib.h</text>
</a>
</g>
</g>
<!-- Node1&#45;&gt;Node3 -->
<g id="edge2" class="edge">
<title>Node1&#45;&gt;Node3</title>
<path fill="none" stroke="#191970" d="M183.9174,-57.4408C166.588,-48.5419 141.0727,-35.4394 121.3999,-25.3371"/>
<polygon fill="#191970" stroke="#191970" points="122.7676,-22.105 112.2731,-20.6504 119.5699,-28.332 122.7676,-22.105"/>
</g>
<!-- Node4 -->
<g id="node4" class="node">
<title>Node4</title>
<g id="a_node4"><a xlink:title=" ">
<polygon fill="none" stroke="#bfbfbf" points="134.3895,-.5 134.3895,-20.5 192.6235,-20.5 192.6235,-.5 134.3895,-.5"/>
<text text-anchor="middle" x="163.5065" y="-7.5" font-family="Helvetica,sans-Serif" font-size="10.00" fill="#000000">sys/stat.h</text>
</a>
</g>
</g>
<!-- Node1&#45;&gt;Node4 -->
<g id="edge3" class="edge">
<title>Node1&#45;&gt;Node4</title>
<path fill="none" stroke="#191970" d="M196.3553,-57.3095C190.8378,-49.4472 183.0579,-38.3608 176.4544,-28.9507"/>
<polygon fill="#191970" stroke="#191970" points="179.205,-26.7773 170.5958,-20.6022 173.4751,-30.7983 179.205,-26.7773"/>
</g>
<!-- Node5 -->
<g id="node5" class="node">
<title>Node5</title>
<g id="a_node5"><a xlink:title=" ">
<polygon fill="none" stroke="#bfbfbf" points="210.4995,-.5 210.4995,-20.5 276.5135,-20.5 276.5135,-.5 210.4995,-.5"/>
<text text-anchor="middle" x="243.5065" y="-7.5" font-family="Helvetica,sans-Serif" font-size="10.00" fill="#000000">sys/types.h</text>
</a>
</g>
</g>
<!-- Node1&#45;&gt;Node5 -->
<g id="edge4" class="edge">
<title>Node1&#45;&gt;Node5</title>
<path fill="none" stroke="#191970" d="M210.6577,-57.3095C216.1752,-49.4472 223.9551,-38.3608 230.5586,-28.9507"/>
<polygon fill="#191970" stroke="#191970" points="233.5379,-30.7983 236.4172,-20.6022 227.808,-26.7773 233.5379,-30.7983"/>
</g>
<!-- Node6 -->
<g id="node6" class="node">
<title>Node6</title>
<g id="a_node6"><a xlink:title=" ">
<polygon fill="none" stroke="#bfbfbf" points="294.555,-.5 294.555,-20.5 404.458,-20.5 404.458,-.5 294.555,-.5"/>
<text text-anchor="middle" x="349.5065" y="-7.5" font-family="Helvetica,sans-Serif" font-size="10.00" fill="#000000">lfstk/LFSTKGlobals.h</text>
</a>
</g>
</g>
<!-- Node1&#45;&gt;Node6 -->
<g id="edge5" class="edge">
<title>Node1&#45;&gt;Node6</title>
<path fill="none" stroke="#191970" d="M229.2723,-57.4408C252.7912,-48.2587 287.7733,-34.6013 313.9487,-24.3822"/>
<polygon fill="#191970" stroke="#191970" points="315.4648,-27.5476 323.5072,-20.6504 312.919,-21.0269 315.4648,-27.5476"/>
</g>
<!-- Node7 -->
<g id="node7" class="node">
<title>Node7</title>
<g id="a_node7"><a xlink:title=" ">
<polygon fill="none" stroke="#bfbfbf" points="422.0005,-.5 422.0005,-20.5 473.0125,-20.5 473.0125,-.5 422.0005,-.5"/>
<text text-anchor="middle" x="447.5065" y="-7.5" font-family="Helvetica,sans-Serif" font-size="10.00" fill="#000000">libgen.h</text>
</a>
</g>
</g>
<!-- Node1&#45;&gt;Node7 -->
<g id="edge6" class="edge">
<title>Node1&#45;&gt;Node7</title>
<path fill="none" stroke="#191970" d="M254.28,-57.4685C294.7339,-49.2021 352.9969,-36.6891 412.0792,-21.2436"/>
<polygon fill="#191970" stroke="#191970" points="413.1761,-24.574 421.9513,-18.637 411.3891,-17.8059 413.1761,-24.574"/>
</g>
</g>
</svg>
