<?xml version="1.0" encoding="UTF-8" standalone="no"?>
<!DOCTYPE svg PUBLIC "-//W3C//DTD SVG 1.1//EN"
 "http://www.w3.org/Graphics/SVG/1.1/DTD/svg11.dtd">
<!-- Generated by graphviz version 2.40.1 (20161225.0304)
 -->
<!-- Title: LFSTKMultiLineEdit.cpp Pages: 1 -->
<svg width="573pt" height="86pt"
 viewBox="0.00 0.00 573.46 86.00" xmlns="http://www.w3.org/2000/svg" xmlns:xlink="http://www.w3.org/1999/xlink">
<g id="graph0" class="graph" transform="scale(1 1) rotate(0) translate(4 82)">
<title>LFSTKMultiLineEdit.cpp</title>
<!-- Node1 -->
<g id="node1" class="node">
<title>Node1</title>
<g id="a_node1"><a xlink:title=" ">
<polygon fill="#bfbfbf" stroke="#000000" points="193.887,-57.5 193.887,-77.5 317.126,-77.5 317.126,-57.5 193.887,-57.5"/>
<text text-anchor="middle" x="255.5065" y="-64.5" font-family="Helvetica,sans-Serif" font-size="10.00" fill="#000000">LFSTKMultiLineEdit.cpp</text>
</a>
</g>
</g>
<!-- Node2 -->
<g id="node2" class="node">
<title>Node2</title>
<g id="a_node2"><a xlink:title=" ">
<polygon fill="none" stroke="#bfbfbf" points="0,-.5 0,-20.5 51.013,-20.5 51.013,-.5 0,-.5"/>
<text text-anchor="middle" x="25.5065" y="-7.5" font-family="Helvetica,sans-Serif" font-size="10.00" fill="#000000">unistd.h</text>
</a>
</g>
</g>
<!-- Node1&#45;&gt;Node2 -->
<g id="edge1" class="edge">
<title>Node1&#45;&gt;Node2</title>
<path fill="none" stroke="#191970" d="M209.3488,-57.4612C171.6707,-49.0613 116.8539,-36.376 60.809,-21.2455"/>
<polygon fill="#191970" stroke="#191970" points="61.6411,-17.8448 51.0729,-18.5954 59.8026,-24.599 61.6411,-17.8448"/>
</g>
<!-- Node3 -->
<g id="node3" class="node">
<title>Node3</title>
<g id="a_node3"><a xlink:title=" ">
<polygon fill="none" stroke="#bfbfbf" points="68.67,-.5 68.67,-20.5 116.343,-20.5 116.343,-.5 68.67,-.5"/>
<text text-anchor="middle" x="92.5065" y="-7.5" font-family="Helvetica,sans-Serif" font-size="10.00" fill="#000000">stdlib.h</text>
</a>
</g>
</g>
<!-- Node1&#45;&gt;Node3 -->
<g id="edge2" class="edge">
<title>Node1&#45;&gt;Node3</title>
<path fill="none" stroke="#191970" d="M226.7406,-57.4408C198.576,-47.5918 155.687,-32.5938 126.0012,-22.2129"/>
<polygon fill="#191970" stroke="#191970" points="127.0752,-18.8807 116.4804,-18.8835 124.7645,-25.4883 127.0752,-18.8807"/>
</g>
<!-- Node4 -->
<g id="node4" class="node">
<title>Node4</title>
<g id="a_node4"><a xlink:title=" ">
<polygon fill="none" stroke="#bfbfbf" points="134.7795,-.5 134.7795,-20.5 180.2335,-20.5 180.2335,-.5 134.7795,-.5"/>
<text text-anchor="middle" x="157.5065" y="-7.5" font-family="Helvetica,sans-Serif" font-size="10.00" fill="#000000">stdio.h</text>
</a>
</g>
</g>
<!-- Node1&#45;&gt;Node4 -->
<g id="edge3" class="edge">
<title>Node1&#45;&gt;Node4</title>
<path fill="none" stroke="#191970" d="M237.9861,-57.3095C222.9353,-48.5556 201.0132,-35.8049 183.8481,-25.8211"/>
<polygon fill="#191970" stroke="#191970" points="185.2792,-22.6046 174.8753,-20.6022 181.7597,-28.6555 185.2792,-22.6046"/>
</g>
<!-- Node5 -->
<g id="node5" class="node">
<title>Node5</title>
<g id="a_node5"><a xlink:title=" ">
<polygon fill="none" stroke="#bfbfbf" points="198.115,-.5 198.115,-20.5 246.898,-20.5 246.898,-.5 198.115,-.5"/>
<text text-anchor="middle" x="222.5065" y="-7.5" font-family="Helvetica,sans-Serif" font-size="10.00" fill="#000000">string.h</text>
</a>
</g>
</g>
<!-- Node1&#45;&gt;Node5 -->
<g id="edge4" class="edge">
<title>Node1&#45;&gt;Node5</title>
<path fill="none" stroke="#191970" d="M249.6068,-57.3095C245.1487,-49.6093 238.9003,-38.8166 233.5267,-29.5349"/>
<polygon fill="#191970" stroke="#191970" points="236.3946,-27.5029 228.3552,-20.6022 230.3366,-31.0102 236.3946,-27.5029"/>
</g>
<!-- Node6 -->
<g id="node6" class="node">
<title>Node6</title>
<g id="a_node6"><a xlink:title=" ">
<polygon fill="none" stroke="#bfbfbf" points="265.2245,-.5 265.2245,-20.5 311.7885,-20.5 311.7885,-.5 265.2245,-.5"/>
<text text-anchor="middle" x="288.5065" y="-7.5" font-family="Helvetica,sans-Serif" font-size="10.00" fill="#000000">math.h</text>
</a>
</g>
</g>
<!-- Node1&#45;&gt;Node6 -->
<g id="edge5" class="edge">
<title>Node1&#45;&gt;Node6</title>
<path fill="none" stroke="#191970" d="M261.4062,-57.3095C265.8643,-49.6093 272.1127,-38.8166 277.4863,-29.5349"/>
<polygon fill="#191970" stroke="#191970" points="280.6764,-31.0102 282.6578,-20.6022 274.6184,-27.5029 280.6764,-31.0102"/>
</g>
<!-- Node7 -->
<g id="node7" class="node">
<title>Node7</title>
<g id="a_node7"><a xlink:title=" ">
<polygon fill="none" stroke="#bfbfbf" points="329.5045,-.5 329.5045,-20.5 375.5085,-20.5 375.5085,-.5 329.5045,-.5"/>
<text text-anchor="middle" x="352.5065" y="-7.5" font-family="Helvetica,sans-Serif" font-size="10.00" fill="#000000">cairo.h</text>
</a>
</g>
</g>
<!-- Node1&#45;&gt;Node7 -->
<g id="edge6" class="edge">
<title>Node1&#45;&gt;Node7</title>
<path fill="none" stroke="#191970" d="M272.8482,-57.3095C287.7453,-48.5556 309.4438,-35.8049 326.4337,-25.8211"/>
<polygon fill="#191970" stroke="#191970" points="328.4666,-28.6862 335.315,-20.6022 324.9201,-22.651 328.4666,-28.6862"/>
</g>
<!-- Node8 -->
<g id="node8" class="node">
<title>Node8</title>
<g id="a_node8"><a xlink:title=" ">
<polygon fill="none" stroke="#bfbfbf" points="393.8935,-.5 393.8935,-20.5 437.1195,-20.5 437.1195,-.5 393.8935,-.5"/>
<text text-anchor="middle" x="415.5065" y="-7.5" font-family="Helvetica,sans-Serif" font-size="10.00" fill="#000000">vector</text>
</a>
</g>
</g>
<!-- Node1&#45;&gt;Node8 -->
<g id="edge7" class="edge">
<title>Node1&#45;&gt;Node8</title>
<path fill="none" stroke="#191970" d="M283.743,-57.4408C311.8307,-47.4345 354.8374,-32.1134 384.0144,-21.719"/>
<polygon fill="#191970" stroke="#191970" points="385.4653,-24.9177 393.7108,-18.2647 383.1162,-18.3236 385.4653,-24.9177"/>
</g>
<!-- Node9 -->
<g id="node9" class="node">
<title>Node9</title>
<g id="a_node9"><a xlink:title=" ">
<polygon fill="none" stroke="#bfbfbf" points="455.555,-.5 455.555,-20.5 565.458,-20.5 565.458,-.5 455.555,-.5"/>
<text text-anchor="middle" x="510.5065" y="-7.5" font-family="Helvetica,sans-Serif" font-size="10.00" fill="#000000">lfstk/LFSTKGlobals.h</text>
</a>
</g>
</g>
<!-- Node1&#45;&gt;Node9 -->
<g id="edge8" class="edge">
<title>Node1&#45;&gt;Node9</title>
<path fill="none" stroke="#191970" d="M300.5084,-57.4408C343.8002,-47.7638 409.3298,-33.116 455.6554,-22.7608"/>
<polygon fill="#191970" stroke="#191970" points="456.5307,-26.1516 465.5263,-20.5544 455.0036,-19.3202 456.5307,-26.1516"/>
</g>
</g>
</svg>
