<?xml version="1.0" encoding="UTF-8" standalone="no"?>
<!DOCTYPE svg PUBLIC "-//W3C//DTD SVG 1.1//EN"
 "http://www.w3.org/Graphics/SVG/1.1/DTD/svg11.dtd">
<!-- Generated by graphviz version 2.40.1 (20161225.0304)
 -->
<!-- Title: LFSTKWindow.h Pages: 1 -->
<svg width="352pt" height="86pt"
 viewBox="0.00 0.00 351.51 86.00" xmlns="http://www.w3.org/2000/svg" xmlns:xlink="http://www.w3.org/1999/xlink">
<g id="graph0" class="graph" transform="scale(1 1) rotate(0) translate(4 82)">
<title>LFSTKWindow.h</title>
<!-- Node1 -->
<g id="node1" class="node">
<title>Node1</title>
<g id="a_node1"><a xlink:title=" ">
<polygon fill="#bfbfbf" stroke="#000000" points="139.2815,-57.5 139.2815,-77.5 230.2885,-77.5 230.2885,-57.5 139.2815,-57.5"/>
<text text-anchor="middle" x="184.785" y="-64.5" font-family="Helvetica,sans-Serif" font-size="10.00" fill="#000000">LFSTKWindow.h</text>
</a>
</g>
</g>
<!-- Node2 -->
<g id="node2" class="node">
<title>Node2</title>
<g id="a_node2"><a xlink:title=" ">
<polygon fill="none" stroke="#bfbfbf" points="0,-.5 0,-20.5 61.57,-20.5 61.57,-.5 0,-.5"/>
<text text-anchor="middle" x="30.785" y="-7.5" font-family="Helvetica,sans-Serif" font-size="10.00" fill="#000000">X11/Xlib.h</text>
</a>
</g>
</g>
<!-- Node1&#45;&gt;Node2 -->
<g id="edge1" class="edge">
<title>Node1&#45;&gt;Node2</title>
<path fill="none" stroke="#191970" d="M157.6074,-57.4408C132.6136,-48.1898 95.3463,-34.3961 67.6711,-24.1527"/>
<polygon fill="#191970" stroke="#191970" points="68.5426,-20.7432 57.9495,-20.5544 66.1128,-27.308 68.5426,-20.7432"/>
</g>
<!-- Node3 -->
<g id="node3" class="node">
<title>Node3</title>
<g id="a_node3"><a xlink:title=" ">
<polygon fill="none" stroke="#bfbfbf" points="79.6105,-.5 79.6105,-20.5 143.9595,-20.5 143.9595,-.5 79.6105,-.5"/>
<text text-anchor="middle" x="111.785" y="-7.5" font-family="Helvetica,sans-Serif" font-size="10.00" fill="#000000">X11/Xutil.h</text>
</a>
</g>
</g>
<!-- Node1&#45;&gt;Node3 -->
<g id="edge2" class="edge">
<title>Node1&#45;&gt;Node3</title>
<path fill="none" stroke="#191970" d="M171.7341,-57.3095C160.938,-48.8798 145.3956,-36.7439 132.8417,-26.9415"/>
<polygon fill="#191970" stroke="#191970" points="134.7589,-23.998 124.7229,-20.6022 130.4508,-29.5153 134.7589,-23.998"/>
</g>
<!-- Node4 -->
<g id="node4" class="node">
<title>Node4</title>
<g id="a_node4"><a xlink:title=" ">
<polygon fill="none" stroke="#bfbfbf" points="161.783,-.5 161.783,-20.5 207.787,-20.5 207.787,-.5 161.783,-.5"/>
<text text-anchor="middle" x="184.785" y="-7.5" font-family="Helvetica,sans-Serif" font-size="10.00" fill="#000000">cairo.h</text>
</a>
</g>
</g>
<!-- Node1&#45;&gt;Node4 -->
<g id="edge3" class="edge">
<title>Node1&#45;&gt;Node4</title>
<path fill="none" stroke="#191970" d="M184.785,-57.3095C184.785,-49.9335 184.785,-39.72 184.785,-30.715"/>
<polygon fill="#191970" stroke="#191970" points="188.2851,-30.6022 184.785,-20.6022 181.2851,-30.6023 188.2851,-30.6022"/>
</g>
<!-- Node5 -->
<g id="node5" class="node">
<title>Node5</title>
<g id="a_node5"><a xlink:title=" ">
<polygon fill="none" stroke="#bfbfbf" points="225.62,-.5 225.62,-20.5 289.95,-20.5 289.95,-.5 225.62,-.5"/>
<text text-anchor="middle" x="257.785" y="-7.5" font-family="Helvetica,sans-Serif" font-size="10.00" fill="#000000">cairo&#45;xlib.h</text>
</a>
</g>
</g>
<!-- Node1&#45;&gt;Node5 -->
<g id="edge4" class="edge">
<title>Node1&#45;&gt;Node5</title>
<path fill="none" stroke="#191970" d="M197.8359,-57.3095C208.632,-48.8798 224.1744,-36.7439 236.7283,-26.9415"/>
<polygon fill="#191970" stroke="#191970" points="239.1192,-29.5153 244.8471,-20.6022 234.8111,-23.998 239.1192,-29.5153"/>
</g>
<!-- Node6 -->
<g id="node6" class="node">
<title>Node6</title>
<g id="a_node6"><a xlink:title=" ">
<polygon fill="none" stroke="#bfbfbf" points="308.0615,-.5 308.0615,-20.5 343.5085,-20.5 343.5085,-.5 308.0615,-.5"/>
<text text-anchor="middle" x="325.785" y="-7.5" font-family="Helvetica,sans-Serif" font-size="10.00" fill="#000000">map</text>
</a>
</g>
</g>
<!-- Node1&#45;&gt;Node6 -->
<g id="edge5" class="edge">
<title>Node1&#45;&gt;Node6</title>
<path fill="none" stroke="#191970" d="M209.6684,-57.4408C234.5152,-47.3963 272.6099,-31.9963 298.3266,-21.6002"/>
<polygon fill="#191970" stroke="#191970" points="299.8941,-24.7418 307.8535,-17.7489 297.2706,-18.252 299.8941,-24.7418"/>
</g>
</g>
</svg>
