<?xml version="1.0" encoding="UTF-8" standalone="no"?>
<!DOCTYPE svg PUBLIC "-//W3C//DTD SVG 1.1//EN"
 "http://www.w3.org/Graphics/SVG/1.1/DTD/svg11.dtd">
<!-- Generated by graphviz version 2.40.1 (20161225.0304)
 -->
<!-- Title: LFSTKGadget.h Pages: 1 -->
<svg width="138pt" height="86pt"
 viewBox="0.00 0.00 138.29 86.00" xmlns="http://www.w3.org/2000/svg" xmlns:xlink="http://www.w3.org/1999/xlink">
<g id="graph0" class="graph" transform="scale(1 1) rotate(0) translate(4 82)">
<title>LFSTKGadget.h</title>
<!-- Node1 -->
<g id="node1" class="node">
<title>Node1</title>
<g id="a_node1"><a xlink:title=" ">
<polygon fill="#bfbfbf" stroke="#000000" points="23.6615,-57.5 23.6615,-77.5 111.9085,-77.5 111.9085,-57.5 23.6615,-57.5"/>
<text text-anchor="middle" x="67.785" y="-64.5" font-family="Helvetica,sans-Serif" font-size="10.00" fill="#000000">LFSTKGadget.h</text>
</a>
</g>
</g>
<!-- Node2 -->
<g id="node2" class="node">
<title>Node2</title>
<g id="a_node2"><a xlink:title=" ">
<polygon fill="none" stroke="#bfbfbf" points="0,-.5 0,-20.5 61.57,-20.5 61.57,-.5 0,-.5"/>
<text text-anchor="middle" x="30.785" y="-7.5" font-family="Helvetica,sans-Serif" font-size="10.00" fill="#000000">X11/Xlib.h</text>
</a>
</g>
</g>
<!-- Node1&#45;&gt;Node2 -->
<g id="edge1" class="edge">
<title>Node1&#45;&gt;Node2</title>
<path fill="none" stroke="#191970" d="M61.1701,-57.3095C56.1191,-49.5282 49.0182,-38.589 42.951,-29.2423"/>
<polygon fill="#191970" stroke="#191970" points="45.7231,-27.0844 37.3426,-20.6022 39.8516,-30.8957 45.7231,-27.0844"/>
</g>
<!-- Node3 -->
<g id="node3" class="node">
<title>Node3</title>
<g id="a_node3"><a xlink:title=" ">
<polygon fill="none" stroke="#bfbfbf" points="79.284,-.5 79.284,-20.5 130.286,-20.5 130.286,-.5 79.284,-.5"/>
<text text-anchor="middle" x="104.785" y="-7.5" font-family="Helvetica,sans-Serif" font-size="10.00" fill="#000000">Imlib2.h</text>
</a>
</g>
</g>
<!-- Node1&#45;&gt;Node3 -->
<g id="edge2" class="edge">
<title>Node1&#45;&gt;Node3</title>
<path fill="none" stroke="#191970" d="M74.3999,-57.3095C79.4509,-49.5282 86.5518,-38.589 92.619,-29.2423"/>
<polygon fill="#191970" stroke="#191970" points="95.7184,-30.8957 98.2274,-20.6022 89.8469,-27.0844 95.7184,-30.8957"/>
</g>
</g>
</svg>
