<?xml version="1.0" encoding="UTF-8" standalone="no"?>
<!DOCTYPE svg PUBLIC "-//W3C//DTD SVG 1.1//EN"
 "http://www.w3.org/Graphics/SVG/1.1/DTD/svg11.dtd">
<!-- Generated by graphviz version 2.40.1 (20161225.0304)
 -->
<!-- Title: LFSTKButton.cpp Pages: 1 -->
<svg width="4981pt" height="122pt"
 viewBox="0.00 0.00 4980.80 122.00" xmlns="http://www.w3.org/2000/svg" xmlns:xlink="http://www.w3.org/1999/xlink">
<g id="graph0" class="graph" transform="scale(1 1) rotate(0) translate(4 118)">
<title>LFSTKButton.cpp</title>
<!-- Node1 -->
<g id="node1" class="node">
<title>Node1</title>
<g id="a_node1"><a xlink:title=" ">
<polygon fill="#bfbfbf" stroke="#000000" points="1674.0485,-93.5 1674.0485,-113.5 1768.9645,-113.5 1768.9645,-93.5 1674.0485,-93.5"/>
<text text-anchor="middle" x="1721.5065" y="-100.5" font-family="Helvetica,sans-Serif" font-size="10.00" fill="#000000">LFSTKButton.cpp</text>
</a>
</g>
</g>
<!-- Node2 -->
<g id="node2" class="node">
<title>Node2</title>
<g id="a_node2"><a xlink:title=" ">
<polygon fill="none" stroke="#bfbfbf" points="0,-18.5 0,-38.5 51.013,-38.5 51.013,-18.5 0,-18.5"/>
<text text-anchor="middle" x="25.5065" y="-25.5" font-family="Helvetica,sans-Serif" font-size="10.00" fill="#000000">unistd.h</text>
</a>
</g>
</g>
<!-- Node1&#45;&gt;Node2 -->
<g id="edge1" class="edge">
<title>Node1&#45;&gt;Node2</title>
<path fill="none" stroke="#191970" d="M1673.8242,-103.0488C1409.8698,-100.4402 136.882,-86.3717 59.5065,-57 52.9852,-54.5245 46.8229,-50.2338 41.5817,-45.722"/>
<polygon fill="#191970" stroke="#191970" points="43.8403,-43.0398 34.1845,-38.6791 39.0135,-48.1095 43.8403,-43.0398"/>
</g>
<!-- Node3 -->
<g id="node3" class="node">
<title>Node3</title>
<g id="a_node3"><a xlink:title=" ">
<polygon fill="none" stroke="#bfbfbf" points="68.67,-18.5 68.67,-38.5 116.343,-38.5 116.343,-18.5 68.67,-18.5"/>
<text text-anchor="middle" x="92.5065" y="-25.5" font-family="Helvetica,sans-Serif" font-size="10.00" fill="#000000">stdlib.h</text>
</a>
</g>
</g>
<!-- Node1&#45;&gt;Node3 -->
<g id="edge2" class="edge">
<title>Node1&#45;&gt;Node3</title>
<path fill="none" stroke="#191970" d="M1674.0388,-103.0122C1416.8739,-100.257 199.4238,-85.733 125.5065,-57 119.1167,-54.5162 113.118,-50.223 108.0333,-45.7116"/>
<polygon fill="#191970" stroke="#191970" points="110.4558,-43.185 100.8707,-38.671 105.5488,-48.1771 110.4558,-43.185"/>
</g>
<!-- Node4 -->
<g id="node4" class="node">
<title>Node4</title>
<g id="a_node4"><a xlink:title=" ">
<polygon fill="none" stroke="#bfbfbf" points="134.555,-18.5 134.555,-38.5 244.458,-38.5 244.458,-18.5 134.555,-18.5"/>
<text text-anchor="middle" x="189.5065" y="-25.5" font-family="Helvetica,sans-Serif" font-size="10.00" fill="#000000">lfstk/LFSTKGlobals.h</text>
</a>
</g>
</g>
<!-- Node1&#45;&gt;Node4 -->
<g id="edge3" class="edge">
<title>Node1&#45;&gt;Node4</title>
<path fill="none" stroke="#191970" d="M1673.9104,-103.0823C1437.4064,-100.8604 394.4,-89.2926 253.5065,-57 240.7608,-54.0787 227.4332,-48.5848 216.2604,-43.1941"/>
<polygon fill="#191970" stroke="#191970" points="217.5693,-39.9342 207.0652,-38.5508 214.4139,-46.1828 217.5693,-39.9342"/>
</g>
<!-- Node5 -->
<g id="node5" class="node">
<title>Node5</title>
<g id="a_node5"><a xlink:title=" ">
<polygon fill="none" stroke="#bfbfbf" points="262.438,-18.5 262.438,-38.5 334.575,-38.5 334.575,-18.5 262.438,-18.5"/>
<text text-anchor="middle" x="298.5065" y="-25.5" font-family="Helvetica,sans-Serif" font-size="10.00" fill="#000000">X11/Xft/Xft.h</text>
</a>
</g>
</g>
<!-- Node1&#45;&gt;Node5 -->
<g id="edge4" class="edge">
<title>Node1&#45;&gt;Node5</title>
<path fill="none" stroke="#191970" d="M1673.7392,-103.3734C1445.596,-102.5691 472.6022,-96.8139 343.5065,-57 334.932,-54.3556 326.3927,-49.6214 319.0936,-44.7615"/>
<polygon fill="#191970" stroke="#191970" points="320.7717,-41.6585 310.6023,-38.6863 316.6985,-47.3515 320.7717,-41.6585"/>
</g>
<!-- Node6 -->
<g id="node6" class="node">
<title>Node6</title>
<g id="a_node6"><a xlink:title=" ">
<polygon fill="none" stroke="#bfbfbf" points="352.34,-18.5 352.34,-38.5 406.673,-38.5 406.673,-18.5 352.34,-18.5"/>
<text text-anchor="middle" x="379.5065" y="-25.5" font-family="Helvetica,sans-Serif" font-size="10.00" fill="#000000">iostream</text>
</a>
</g>
</g>
<!-- Node1&#45;&gt;Node6 -->
<g id="edge5" class="edge">
<title>Node1&#45;&gt;Node6</title>
<path fill="none" stroke="#191970" d="M1674.0054,-102.6388C1446.3709,-98.4067 475.6233,-79.1226 415.5065,-57 408.5702,-54.4475 401.936,-50.0054 396.2949,-45.3773"/>
<polygon fill="#191970" stroke="#191970" points="398.5988,-42.7421 388.8211,-38.662 393.9203,-47.949 398.5988,-42.7421"/>
</g>
<!-- Node7 -->
<g id="node7" class="node">
<title>Node7</title>
<g id="a_node7"><a xlink:title=" ">
<polygon fill="none" stroke="#bfbfbf" points="424.783,-18.5 424.783,-38.5 460.23,-38.5 460.23,-18.5 424.783,-18.5"/>
<text text-anchor="middle" x="442.5065" y="-25.5" font-family="Helvetica,sans-Serif" font-size="10.00" fill="#000000">map</text>
</a>
</g>
</g>
<!-- Node1&#45;&gt;Node7 -->
<g id="edge6" class="edge">
<title>Node1&#45;&gt;Node7</title>
<path fill="none" stroke="#191970" d="M1674.021,-102.7644C1451.9296,-99.1939 524.1117,-82.7826 468.5065,-57 463.3968,-54.6308 458.8386,-50.7428 455.0208,-46.5894"/>
<polygon fill="#191970" stroke="#191970" points="457.6182,-44.2331 448.6416,-38.6053 452.1494,-48.6027 457.6182,-44.2331"/>
</g>
<!-- Node8 -->
<g id="node8" class="node">
<title>Node8</title>
<g id="a_node8"><a xlink:title=" ">
<polygon fill="none" stroke="#bfbfbf" points="477.8355,-18.5 477.8355,-38.5 527.1775,-38.5 527.1775,-18.5 477.8355,-18.5"/>
<text text-anchor="middle" x="502.5065" y="-25.5" font-family="Helvetica,sans-Serif" font-size="10.00" fill="#000000">dirent.h</text>
</a>
</g>
</g>
<!-- Node1&#45;&gt;Node8 -->
<g id="edge7" class="edge">
<title>Node1&#45;&gt;Node8</title>
<path fill="none" stroke="#191970" d="M1673.8299,-102.4908C1459.1533,-97.8367 590.3466,-77.7849 536.5065,-57 529.9992,-54.4879 523.841,-50.1865 518.5992,-45.6761"/>
<polygon fill="#191970" stroke="#191970" points="520.8583,-42.9946 511.1981,-38.6435 516.0365,-48.0691 520.8583,-42.9946"/>
</g>
<!-- Node9 -->
<g id="node9" class="node">
<title>Node9</title>
<g id="a_node9"><a xlink:title=" ">
<polygon fill="none" stroke="#bfbfbf" points="545.5045,-18.5 545.5045,-38.5 591.5085,-38.5 591.5085,-18.5 545.5045,-18.5"/>
<text text-anchor="middle" x="568.5065" y="-25.5" font-family="Helvetica,sans-Serif" font-size="10.00" fill="#000000">cairo.h</text>
</a>
</g>
</g>
<!-- Node1&#45;&gt;Node9 -->
<g id="edge8" class="edge">
<title>Node1&#45;&gt;Node9</title>
<path fill="none" stroke="#191970" d="M1673.984,-102.4209C1466.8395,-97.6034 650.9225,-77.4023 600.5065,-57 594.4098,-54.5328 588.7077,-50.3708 583.8547,-45.9788"/>
<polygon fill="#191970" stroke="#191970" points="586.095,-43.2671 576.5694,-38.6287 581.1234,-48.1949 586.095,-43.2671"/>
</g>
<!-- Node10 -->
<g id="node10" class="node">
<title>Node10</title>
<g id="a_node10"><a xlink:title=" ">
<polygon fill="none" stroke="#bfbfbf" points="609.3415,-18.5 609.3415,-38.5 673.6715,-38.5 673.6715,-18.5 609.3415,-18.5"/>
<text text-anchor="middle" x="641.5065" y="-25.5" font-family="Helvetica,sans-Serif" font-size="10.00" fill="#000000">cairo&#45;xlib.h</text>
</a>
</g>
</g>
<!-- Node1&#45;&gt;Node10 -->
<g id="edge9" class="edge">
<title>Node1&#45;&gt;Node10</title>
<path fill="none" stroke="#191970" d="M1673.8533,-102.9222C1482.6668,-100.3926 777.0103,-88.957 682.5065,-57 674.7154,-54.3654 667.0678,-49.7691 660.5275,-45.0271"/>
<polygon fill="#191970" stroke="#191970" points="662.4142,-42.0587 652.3858,-38.6409 658.094,-47.5665 662.4142,-42.0587"/>
</g>
<!-- Node11 -->
<g id="node11" class="node">
<title>Node11</title>
<g id="a_node11"><a xlink:title=" ">
<polygon fill="none" stroke="#bfbfbf" points="691.4995,-18.5 691.4995,-38.5 757.5135,-38.5 757.5135,-18.5 691.4995,-18.5"/>
<text text-anchor="middle" x="724.5065" y="-25.5" font-family="Helvetica,sans-Serif" font-size="10.00" fill="#000000">sys/types.h</text>
</a>
</g>
</g>
<!-- Node1&#45;&gt;Node11 -->
<g id="edge10" class="edge">
<title>Node1&#45;&gt;Node11</title>
<path fill="none" stroke="#191970" d="M1673.7607,-102.6884C1492.5032,-99.4007 852.8532,-85.847 766.5065,-57 758.577,-54.3509 750.7563,-49.7509 744.0528,-45.0099"/>
<polygon fill="#191970" stroke="#191970" points="745.7701,-41.9173 735.699,-38.6274 741.5204,-47.4797 745.7701,-41.9173"/>
</g>
<!-- Node12 -->
<g id="node12" class="node">
<title>Node12</title>
<g id="a_node12"><a xlink:title=" ">
<polygon fill="none" stroke="#bfbfbf" points="775.059,-18.5 775.059,-38.5 829.954,-38.5 829.954,-18.5 775.059,-18.5"/>
<text text-anchor="middle" x="802.5065" y="-25.5" font-family="Helvetica,sans-Serif" font-size="10.00" fill="#000000">sys/ipc.h</text>
</a>
</g>
</g>
<!-- Node1&#45;&gt;Node12 -->
<g id="edge11" class="edge">
<title>Node1&#45;&gt;Node12</title>
<path fill="none" stroke="#191970" d="M1673.7924,-102.679C1501.3862,-99.4809 916.7288,-86.5437 838.5065,-57 831.5922,-54.3885 824.964,-49.9302 819.3217,-45.3054"/>
<polygon fill="#191970" stroke="#191970" points="821.6261,-42.6707 811.842,-38.606 816.9558,-47.885 821.6261,-42.6707"/>
</g>
<!-- Node13 -->
<g id="node13" class="node">
<title>Node13</title>
<g id="a_node13"><a xlink:title=" ">
<polygon fill="none" stroke="#bfbfbf" points="848.004,-18.5 848.004,-38.5 909.009,-38.5 909.009,-18.5 848.004,-18.5"/>
<text text-anchor="middle" x="878.5065" y="-25.5" font-family="Helvetica,sans-Serif" font-size="10.00" fill="#000000">sys/msg.h</text>
</a>
</g>
</g>
<!-- Node1&#45;&gt;Node13 -->
<g id="edge12" class="edge">
<title>Node1&#45;&gt;Node13</title>
<path fill="none" stroke="#191970" d="M1674.0291,-102.2828C1512.4014,-97.9282 989.6359,-82.0375 918.5065,-57 910.8756,-54.3139 903.4069,-49.7044 897.0282,-44.966"/>
<polygon fill="#191970" stroke="#191970" points="899.0813,-42.1259 889.0928,-38.5932 894.6982,-47.5838 899.0813,-42.1259"/>
</g>
<!-- Node14 -->
<g id="node14" class="node">
<title>Node14</title>
<g id="a_node14"><a xlink:title=" ">
<polygon fill="none" stroke="#bfbfbf" points="927.2105,-.5 927.2105,-56.5 1093.8025,-56.5 1093.8025,-.5 927.2105,-.5"/>
<text text-anchor="start" x="935.2105" y="-43.5" font-family="Helvetica,sans-Serif" font-size="10.00" fill="#000000">/media/LinuxData/Development64</text>
<text text-anchor="start" x="935.2105" y="-31.5" font-family="Helvetica,sans-Serif" font-size="10.00" fill="#000000">/Projects/LFSDesktopProject</text>
<text text-anchor="start" x="935.2105" y="-19.5" font-family="Helvetica,sans-Serif" font-size="10.00" fill="#000000">/LFSToolKit/LFSToolKit/lfstk</text>
<text text-anchor="middle" x="1010.5065" y="-7.5" font-family="Helvetica,sans-Serif" font-size="10.00" fill="#000000">/lfstk/LFSTKLib.h</text>
</a>
</g>
</g>
<!-- Node1&#45;&gt;Node14 -->
<g id="edge13" class="edge">
<title>Node1&#45;&gt;Node14</title>
<path fill="none" stroke="#191970" d="M1673.7442,-101.3072C1551.7871,-95.4912 1230.1944,-78.7381 1104.195,-57.09"/>
<polygon fill="#191970" stroke="#191970" points="1104.5045,-53.5892 1094.0411,-55.2527 1103.2581,-60.4774 1104.5045,-53.5892"/>
</g>
<!-- Node15 -->
<g id="node15" class="node">
<title>Node15</title>
<g id="a_node15"><a xlink:title=" ">
<polygon fill="none" stroke="#bfbfbf" points="1112.0055,-18.5 1112.0055,-38.5 1163.0075,-38.5 1163.0075,-18.5 1112.0055,-18.5"/>
<text text-anchor="middle" x="1137.5065" y="-25.5" font-family="Helvetica,sans-Serif" font-size="10.00" fill="#000000">Imlib2.h</text>
</a>
</g>
</g>
<!-- Node1&#45;&gt;Node15 -->
<g id="edge14" class="edge">
<title>Node1&#45;&gt;Node15</title>
<path fill="none" stroke="#191970" d="M1673.9514,-103.0474C1557.8776,-101.375 1262.9699,-93.5467 1172.5065,-57 1165.9266,-54.3418 1159.622,-49.9976 1154.2214,-45.4931"/>
<polygon fill="#191970" stroke="#191970" points="1156.3126,-42.6628 1146.5691,-38.5016 1151.591,-47.8307 1156.3126,-42.6628"/>
</g>
<!-- Node16 -->
<g id="node16" class="node">
<title>Node16</title>
<g id="a_node16"><a xlink:title=" ">
<polygon fill="none" stroke="#bfbfbf" points="1181.2105,-.5 1181.2105,-56.5 1347.8025,-56.5 1347.8025,-.5 1181.2105,-.5"/>
<text text-anchor="start" x="1189.2105" y="-43.5" font-family="Helvetica,sans-Serif" font-size="10.00" fill="#000000">/media/LinuxData/Development64</text>
<text text-anchor="start" x="1189.2105" y="-31.5" font-family="Helvetica,sans-Serif" font-size="10.00" fill="#000000">/Projects/LFSDesktopProject</text>
<text text-anchor="start" x="1189.2105" y="-19.5" font-family="Helvetica,sans-Serif" font-size="10.00" fill="#000000">/LFSToolKit/LFSToolKit/lfstk</text>
<text text-anchor="middle" x="1264.5065" y="-7.5" font-family="Helvetica,sans-Serif" font-size="10.00" fill="#000000">/lfstk/LFSTKFindClass.h</text>
</a>
</g>
</g>
<!-- Node1&#45;&gt;Node16 -->
<g id="edge15" class="edge">
<title>Node1&#45;&gt;Node16</title>
<path fill="none" stroke="#191970" d="M1673.8111,-100.0821C1605.5957,-94.6123 1476.2022,-82.0801 1357.7883,-57.137"/>
<polygon fill="#191970" stroke="#191970" points="1358.3405,-53.676 1347.8292,-55.0038 1356.8744,-60.5207 1358.3405,-53.676"/>
</g>
<!-- Node17 -->
<g id="node17" class="node">
<title>Node17</title>
<g id="a_node17"><a xlink:title=" ">
<polygon fill="none" stroke="#bfbfbf" points="1365.7795,-18.5 1365.7795,-38.5 1411.2335,-38.5 1411.2335,-18.5 1365.7795,-18.5"/>
<text text-anchor="middle" x="1388.5065" y="-25.5" font-family="Helvetica,sans-Serif" font-size="10.00" fill="#000000">stdio.h</text>
</a>
</g>
</g>
<!-- Node1&#45;&gt;Node17 -->
<g id="edge16" class="edge">
<title>Node1&#45;&gt;Node17</title>
<path fill="none" stroke="#191970" d="M1674.0151,-99.579C1600.6343,-92.9558 1463.5526,-78.173 1419.5065,-57 1413.7658,-54.2404 1408.342,-50.0582 1403.6843,-45.7412"/>
<polygon fill="#191970" stroke="#191970" points="1406.1522,-43.259 1396.6483,-38.5763 1401.1577,-48.1636 1406.1522,-43.259"/>
</g>
<!-- Node18 -->
<g id="node18" class="node">
<title>Node18</title>
<g id="a_node18"><a xlink:title=" ">
<polygon fill="none" stroke="#bfbfbf" points="1428.951,-18.5 1428.951,-38.5 1486.062,-38.5 1486.062,-18.5 1428.951,-18.5"/>
<text text-anchor="middle" x="1457.5065" y="-25.5" font-family="Helvetica,sans-Serif" font-size="10.00" fill="#000000">algorithm</text>
</a>
</g>
</g>
<!-- Node1&#45;&gt;Node18 -->
<g id="edge17" class="edge">
<title>Node1&#45;&gt;Node18</title>
<path fill="none" stroke="#191970" d="M1673.9291,-100.0415C1626.611,-95.181 1552.8506,-83.7013 1494.5065,-57 1488.023,-54.0328 1481.6278,-49.7412 1476.0254,-45.3852"/>
<polygon fill="#191970" stroke="#191970" points="1477.8959,-42.3875 1467.9753,-38.6682 1473.4111,-47.7623 1477.8959,-42.3875"/>
</g>
<!-- Node19 -->
<g id="node19" class="node">
<title>Node19</title>
<g id="a_node19"><a xlink:title=" ">
<polygon fill="none" stroke="#bfbfbf" points="1503.8935,-18.5 1503.8935,-38.5 1547.1195,-38.5 1547.1195,-18.5 1503.8935,-18.5"/>
<text text-anchor="middle" x="1525.5065" y="-25.5" font-family="Helvetica,sans-Serif" font-size="10.00" fill="#000000">vector</text>
</a>
</g>
</g>
<!-- Node1&#45;&gt;Node19 -->
<g id="edge18" class="edge">
<title>Node1&#45;&gt;Node19</title>
<path fill="none" stroke="#191970" d="M1673.6895,-96.4645C1639.1642,-89.9125 1592.3326,-77.9116 1555.5065,-57 1550.2746,-54.0291 1545.2552,-49.9518 1540.8691,-45.81"/>
<polygon fill="#191970" stroke="#191970" points="1543.237,-43.2251 1533.7491,-38.5101 1538.2259,-48.1127 1543.237,-43.2251"/>
</g>
<!-- Node20 -->
<g id="node20" class="node">
<title>Node20</title>
<g id="a_node20"><a xlink:title=" ">
<polygon fill="none" stroke="#bfbfbf" points="1564.949,-18.5 1564.949,-38.5 1602.064,-38.5 1602.064,-18.5 1564.949,-18.5"/>
<text text-anchor="middle" x="1583.5065" y="-25.5" font-family="Helvetica,sans-Serif" font-size="10.00" fill="#000000">ftw.h</text>
</a>
</g>
</g>
<!-- Node1&#45;&gt;Node20 -->
<g id="edge19" class="edge">
<title>Node1&#45;&gt;Node20</title>
<path fill="none" stroke="#191970" d="M1688.5134,-93.3934C1665.7209,-85.52 1635.3394,-73.2036 1611.5065,-57 1606.9624,-53.9106 1602.5494,-50.0041 1598.6215,-46.082"/>
<polygon fill="#191970" stroke="#191970" points="1601.1417,-43.6526 1591.7591,-38.7315 1596.025,-48.4296 1601.1417,-43.6526"/>
</g>
<!-- Node21 -->
<g id="node21" class="node">
<title>Node21</title>
<g id="a_node21"><a xlink:title=" ">
<polygon fill="none" stroke="#bfbfbf" points="1620.111,-18.5 1620.111,-38.5 1678.902,-38.5 1678.902,-18.5 1620.111,-18.5"/>
<text text-anchor="middle" x="1649.5065" y="-25.5" font-family="Helvetica,sans-Serif" font-size="10.00" fill="#000000">functional</text>
</a>
</g>
</g>
<!-- Node1&#45;&gt;Node21 -->
<g id="edge20" class="edge">
<title>Node1&#45;&gt;Node21</title>
<path fill="none" stroke="#191970" d="M1711.7963,-93.3852C1700.2665,-81.375 1680.8261,-61.1245 1666.7252,-46.4362"/>
<polygon fill="#191970" stroke="#191970" points="1668.9751,-43.7259 1659.5249,-38.9358 1663.9254,-48.5736 1668.9751,-43.7259"/>
</g>
<!-- Node22 -->
<g id="node22" class="node">
<title>Node22</title>
<g id="a_node22"><a xlink:title=" ">
<polygon fill="none" stroke="#bfbfbf" points="1697.115,-18.5 1697.115,-38.5 1745.898,-38.5 1745.898,-18.5 1697.115,-18.5"/>
<text text-anchor="middle" x="1721.5065" y="-25.5" font-family="Helvetica,sans-Serif" font-size="10.00" fill="#000000">string.h</text>
</a>
</g>
</g>
<!-- Node1&#45;&gt;Node22 -->
<g id="edge21" class="edge">
<title>Node1&#45;&gt;Node22</title>
<path fill="none" stroke="#191970" d="M1721.5065,-93.3852C1721.5065,-82.1534 1721.5065,-63.715 1721.5065,-49.3586"/>
<polygon fill="#191970" stroke="#191970" points="1725.0066,-48.9358 1721.5065,-38.9358 1718.0066,-48.9359 1725.0066,-48.9358"/>
</g>
<!-- Node23 -->
<g id="node23" class="node">
<title>Node23</title>
<g id="a_node23"><a xlink:title=" ">
<polygon fill="none" stroke="#bfbfbf" points="1764.2105,-.5 1764.2105,-56.5 1930.8025,-56.5 1930.8025,-.5 1764.2105,-.5"/>
<text text-anchor="start" x="1772.2105" y="-43.5" font-family="Helvetica,sans-Serif" font-size="10.00" fill="#000000">/media/LinuxData/Development64</text>
<text text-anchor="start" x="1772.2105" y="-31.5" font-family="Helvetica,sans-Serif" font-size="10.00" fill="#000000">/Projects/LFSDesktopProject</text>
<text text-anchor="start" x="1772.2105" y="-19.5" font-family="Helvetica,sans-Serif" font-size="10.00" fill="#000000">/LFSToolKit/LFSToolKit/lfstk</text>
<text text-anchor="middle" x="1847.5065" y="-7.5" font-family="Helvetica,sans-Serif" font-size="10.00" fill="#000000">/lfstk/LFSTKWindow.h</text>
</a>
</g>
</g>
<!-- Node1&#45;&gt;Node23 -->
<g id="edge22" class="edge">
<title>Node1&#45;&gt;Node23</title>
<path fill="none" stroke="#191970" d="M1738.4994,-93.3852C1752.2468,-85.2022 1772.4207,-73.194 1791.6869,-61.7259"/>
<polygon fill="#191970" stroke="#191970" points="1793.646,-64.633 1800.4488,-56.5105 1790.0656,-58.6179 1793.646,-64.633"/>
</g>
<!-- Node24 -->
<g id="node24" class="node">
<title>Node24</title>
<g id="a_node24"><a xlink:title=" ">
<polygon fill="none" stroke="#bfbfbf" points="1948.7215,-18.5 1948.7215,-38.5 2010.2915,-38.5 2010.2915,-18.5 1948.7215,-18.5"/>
<text text-anchor="middle" x="1979.5065" y="-25.5" font-family="Helvetica,sans-Serif" font-size="10.00" fill="#000000">X11/Xlib.h</text>
</a>
</g>
</g>
<!-- Node1&#45;&gt;Node24 -->
<g id="edge23" class="edge">
<title>Node1&#45;&gt;Node24</title>
<path fill="none" stroke="#191970" d="M1769.1481,-98.9969C1814.5035,-93.4191 1883.8974,-81.4748 1939.5065,-57 1946.5329,-53.9075 1953.5644,-49.4653 1959.7284,-45.0051"/>
<polygon fill="#191970" stroke="#191970" points="1962.2455,-47.4846 1968.0371,-38.6128 1957.9771,-41.9365 1962.2455,-47.4846"/>
</g>
<!-- Node25 -->
<g id="node25" class="node">
<title>Node25</title>
<g id="a_node25"><a xlink:title=" ">
<polygon fill="none" stroke="#bfbfbf" points="2028.332,-18.5 2028.332,-38.5 2092.681,-38.5 2092.681,-18.5 2028.332,-18.5"/>
<text text-anchor="middle" x="2060.5065" y="-25.5" font-family="Helvetica,sans-Serif" font-size="10.00" fill="#000000">X11/Xutil.h</text>
</a>
</g>
</g>
<!-- Node1&#45;&gt;Node25 -->
<g id="edge24" class="edge">
<title>Node1&#45;&gt;Node25</title>
<path fill="none" stroke="#191970" d="M1769.2366,-98.6921C1841.5001,-90.9691 1974.972,-74.8454 2019.5065,-57 2027.0303,-53.9851 2034.5274,-49.3708 2041.0137,-44.7274"/>
<polygon fill="#191970" stroke="#191970" points="2043.3142,-47.3746 2049.1397,-38.5251 2039.0671,-41.8102 2043.3142,-47.3746"/>
</g>
<!-- Node26 -->
<g id="node26" class="node">
<title>Node26</title>
<g id="a_node26"><a xlink:title=" ">
<polygon fill="none" stroke="#bfbfbf" points="2110.2105,-.5 2110.2105,-56.5 2276.8025,-56.5 2276.8025,-.5 2110.2105,-.5"/>
<text text-anchor="start" x="2118.2105" y="-43.5" font-family="Helvetica,sans-Serif" font-size="10.00" fill="#000000">/media/LinuxData/Development64</text>
<text text-anchor="start" x="2118.2105" y="-31.5" font-family="Helvetica,sans-Serif" font-size="10.00" fill="#000000">/Projects/LFSDesktopProject</text>
<text text-anchor="start" x="2118.2105" y="-19.5" font-family="Helvetica,sans-Serif" font-size="10.00" fill="#000000">/LFSToolKit/LFSToolKit/lfstk</text>
<text text-anchor="middle" x="2193.5065" y="-7.5" font-family="Helvetica,sans-Serif" font-size="10.00" fill="#000000">/lfstk/LFSTKGadget.h</text>
</a>
</g>
</g>
<!-- Node1&#45;&gt;Node26 -->
<g id="edge25" class="edge">
<title>Node1&#45;&gt;Node26</title>
<path fill="none" stroke="#191970" d="M1769.0541,-100.4214C1839.5432,-95.2596 1975.9522,-82.9802 2100.1277,-57.1507"/>
<polygon fill="#191970" stroke="#191970" points="2101.1288,-60.5164 2110.1877,-55.0222 2099.6798,-53.668 2101.1288,-60.5164"/>
</g>
<!-- Node27 -->
<g id="node27" class="node">
<title>Node27</title>
<g id="a_node27"><a xlink:title=" ">
<polygon fill="none" stroke="#bfbfbf" points="2295.2105,-.5 2295.2105,-56.5 2461.8025,-56.5 2461.8025,-.5 2295.2105,-.5"/>
<text text-anchor="start" x="2303.2105" y="-43.5" font-family="Helvetica,sans-Serif" font-size="10.00" fill="#000000">/media/LinuxData/Development64</text>
<text text-anchor="start" x="2303.2105" y="-31.5" font-family="Helvetica,sans-Serif" font-size="10.00" fill="#000000">/Projects/LFSDesktopProject</text>
<text text-anchor="start" x="2303.2105" y="-19.5" font-family="Helvetica,sans-Serif" font-size="10.00" fill="#000000">/LFSToolKit/LFSToolKit/lfstk</text>
<text text-anchor="middle" x="2378.5065" y="-7.5" font-family="Helvetica,sans-Serif" font-size="10.00" fill="#000000">/lfstk/LFSTKLabel.h</text>
</a>
</g>
</g>
<!-- Node1&#45;&gt;Node27 -->
<g id="edge26" class="edge">
<title>Node1&#45;&gt;Node27</title>
<path fill="none" stroke="#191970" d="M1769.2509,-100.8885C1883.2061,-94.4485 2169.5317,-76.9946 2285.0827,-56.8289"/>
<polygon fill="#191970" stroke="#191970" points="2285.8652,-60.2438 2295.0689,-54.9958 2284.6013,-53.3588 2285.8652,-60.2438"/>
</g>
<!-- Node28 -->
<g id="node28" class="node">
<title>Node28</title>
<g id="a_node28"><a xlink:title=" ">
<polygon fill="none" stroke="#bfbfbf" points="2480.2105,-.5 2480.2105,-56.5 2646.8025,-56.5 2646.8025,-.5 2480.2105,-.5"/>
<text text-anchor="start" x="2488.2105" y="-43.5" font-family="Helvetica,sans-Serif" font-size="10.00" fill="#000000">/media/LinuxData/Development64</text>
<text text-anchor="start" x="2488.2105" y="-31.5" font-family="Helvetica,sans-Serif" font-size="10.00" fill="#000000">/Projects/LFSDesktopProject</text>
<text text-anchor="start" x="2488.2105" y="-19.5" font-family="Helvetica,sans-Serif" font-size="10.00" fill="#000000">/LFSToolKit/LFSToolKit/lfstk</text>
<text text-anchor="middle" x="2563.5065" y="-7.5" font-family="Helvetica,sans-Serif" font-size="10.00" fill="#000000">/lfstk/LFSTKImage.h</text>
</a>
</g>
</g>
<!-- Node1&#45;&gt;Node28 -->
<g id="edge27" class="edge">
<title>Node1&#45;&gt;Node28</title>
<path fill="none" stroke="#191970" d="M1768.993,-102.0137C1908.4375,-97.4235 2315.9975,-82.3366 2469.8848,-56.8511"/>
<polygon fill="#191970" stroke="#191970" points="2470.8316,-60.2391 2480.0843,-55.0779 2469.6325,-53.3426 2470.8316,-60.2391"/>
</g>
<!-- Node29 -->
<g id="node29" class="node">
<title>Node29</title>
<g id="a_node29"><a xlink:title=" ">
<polygon fill="none" stroke="#bfbfbf" points="2665.1505,-18.5 2665.1505,-38.5 2787.8625,-38.5 2787.8625,-18.5 2665.1505,-18.5"/>
<text text-anchor="middle" x="2726.5065" y="-25.5" font-family="Helvetica,sans-Serif" font-size="10.00" fill="#000000">X11/extensions/shape.h</text>
</a>
</g>
</g>
<!-- Node1&#45;&gt;Node29 -->
<g id="edge28" class="edge">
<title>Node1&#45;&gt;Node29</title>
<path fill="none" stroke="#191970" d="M1769.0918,-103.2075C1934.5193,-101.8671 2483.8326,-94.6211 2655.5065,-57 2669.6345,-53.904 2684.5895,-48.2853 2697.1117,-42.8503"/>
<polygon fill="#191970" stroke="#191970" points="2698.8949,-45.8856 2706.5705,-38.5825 2696.0159,-39.505 2698.8949,-45.8856"/>
</g>
<!-- Node30 -->
<g id="node30" class="node">
<title>Node30</title>
<g id="a_node30"><a xlink:title=" ">
<polygon fill="none" stroke="#bfbfbf" points="2806.2105,-.5 2806.2105,-56.5 2972.8025,-56.5 2972.8025,-.5 2806.2105,-.5"/>
<text text-anchor="start" x="2814.2105" y="-43.5" font-family="Helvetica,sans-Serif" font-size="10.00" fill="#000000">/media/LinuxData/Development64</text>
<text text-anchor="start" x="2814.2105" y="-31.5" font-family="Helvetica,sans-Serif" font-size="10.00" fill="#000000">/Projects/LFSDesktopProject</text>
<text text-anchor="start" x="2814.2105" y="-19.5" font-family="Helvetica,sans-Serif" font-size="10.00" fill="#000000">/LFSToolKit/LFSToolKit/lfstk</text>
<text text-anchor="middle" x="2889.5065" y="-7.5" font-family="Helvetica,sans-Serif" font-size="10.00" fill="#000000">/lfstk/LFSTKButton.h</text>
</a>
</g>
</g>
<!-- Node1&#45;&gt;Node30 -->
<g id="edge29" class="edge">
<title>Node1&#45;&gt;Node30</title>
<path fill="none" stroke="#191970" d="M1769.1291,-103.046C1947.3114,-101.102 2575.2733,-91.9881 2796.2027,-56.7954"/>
<polygon fill="#191970" stroke="#191970" points="2796.8053,-60.2434 2806.0978,-55.1542 2795.6598,-53.3377 2796.8053,-60.2434"/>
</g>
<!-- Node31 -->
<g id="node31" class="node">
<title>Node31</title>
<g id="a_node31"><a xlink:title=" ">
<polygon fill="none" stroke="#bfbfbf" points="2991.2105,-.5 2991.2105,-56.5 3157.8025,-56.5 3157.8025,-.5 2991.2105,-.5"/>
<text text-anchor="start" x="2999.2105" y="-43.5" font-family="Helvetica,sans-Serif" font-size="10.00" fill="#000000">/media/LinuxData/Development64</text>
<text text-anchor="start" x="2999.2105" y="-31.5" font-family="Helvetica,sans-Serif" font-size="10.00" fill="#000000">/Projects/LFSDesktopProject</text>
<text text-anchor="start" x="2999.2105" y="-19.5" font-family="Helvetica,sans-Serif" font-size="10.00" fill="#000000">/LFSToolKit/LFSToolKit/lfstk</text>
<text text-anchor="middle" x="3074.5065" y="-7.5" font-family="Helvetica,sans-Serif" font-size="10.00" fill="#000000">/lfstk/LFSTKLineEdit.h</text>
</a>
</g>
</g>
<!-- Node1&#45;&gt;Node31 -->
<g id="edge30" class="edge">
<title>Node1&#45;&gt;Node31</title>
<path fill="none" stroke="#191970" d="M1769.2583,-102.4737C1979.8104,-97.851 2821.4846,-78.3199 2981.1896,-56.6752"/>
<polygon fill="#191970" stroke="#191970" points="2981.7361,-60.1324 2991.1022,-55.18 2980.692,-53.2107 2981.7361,-60.1324"/>
</g>
<!-- Node32 -->
<g id="node32" class="node">
<title>Node32</title>
<g id="a_node32"><a xlink:title=" ">
<polygon fill="none" stroke="#bfbfbf" points="3176.284,-18.5 3176.284,-38.5 3216.729,-38.5 3216.729,-18.5 3176.284,-18.5"/>
<text text-anchor="middle" x="3196.5065" y="-25.5" font-family="Helvetica,sans-Serif" font-size="10.00" fill="#000000">string</text>
</a>
</g>
</g>
<!-- Node1&#45;&gt;Node32 -->
<g id="edge31" class="edge">
<title>Node1&#45;&gt;Node32</title>
<path fill="none" stroke="#191970" d="M1769.1975,-102.9179C2011.87,-99.8357 3100.688,-84.5151 3166.5065,-57 3172.3661,-54.5504 3177.7564,-50.3938 3182.3026,-46.0014"/>
<polygon fill="#191970" stroke="#191970" points="3184.8806,-48.3687 3189.0908,-38.6463 3179.7366,-43.6212 3184.8806,-48.3687"/>
</g>
<!-- Node33 -->
<g id="node33" class="node">
<title>Node33</title>
<g id="a_node33"><a xlink:title=" ">
<polygon fill="none" stroke="#bfbfbf" points="3234.607,-18.5 3234.607,-38.5 3308.406,-38.5 3308.406,-18.5 3234.607,-18.5"/>
<text text-anchor="middle" x="3271.5065" y="-25.5" font-family="Helvetica,sans-Serif" font-size="10.00" fill="#000000">X11/Xatom.h</text>
</a>
</g>
</g>
<!-- Node1&#45;&gt;Node33 -->
<g id="edge32" class="edge">
<title>Node1&#45;&gt;Node33</title>
<path fill="none" stroke="#191970" d="M1768.989,-102.7241C2016.921,-98.5851 3154.2229,-78.4891 3225.5065,-57 3234.4283,-54.3105 3243.342,-49.4267 3250.9146,-44.4527"/>
<polygon fill="#191970" stroke="#191970" points="3252.9362,-47.3099 3259.1082,-38.6984 3248.9131,-41.5814 3252.9362,-47.3099"/>
</g>
<!-- Node34 -->
<g id="node34" class="node">
<title>Node34</title>
<g id="a_node34"><a xlink:title=" ">
<polygon fill="none" stroke="#bfbfbf" points="3326.2105,-.5 3326.2105,-56.5 3492.8025,-56.5 3492.8025,-.5 3326.2105,-.5"/>
<text text-anchor="start" x="3334.2105" y="-43.5" font-family="Helvetica,sans-Serif" font-size="10.00" fill="#000000">/media/LinuxData/Development64</text>
<text text-anchor="start" x="3334.2105" y="-31.5" font-family="Helvetica,sans-Serif" font-size="10.00" fill="#000000">/Projects/LFSDesktopProject</text>
<text text-anchor="start" x="3334.2105" y="-19.5" font-family="Helvetica,sans-Serif" font-size="10.00" fill="#000000">/LFSToolKit/LFSToolKit/lfstk</text>
<text text-anchor="middle" x="3409.5065" y="-7.5" font-family="Helvetica,sans-Serif" font-size="10.00" fill="#000000">/lfstk/LFSTKToggleButton.h</text>
</a>
</g>
</g>
<!-- Node1&#45;&gt;Node34 -->
<g id="edge33" class="edge">
<title>Node1&#45;&gt;Node34</title>
<path fill="none" stroke="#191970" d="M1769.0145,-102.883C2012.8338,-99.6154 3119.4898,-83.5291 3315.8528,-56.9398"/>
<polygon fill="#191970" stroke="#191970" points="3316.6302,-60.3625 3326.0018,-55.4205 3315.5938,-53.4397 3316.6302,-60.3625"/>
</g>
<!-- Node35 -->
<g id="node35" class="node">
<title>Node35</title>
<g id="a_node35"><a xlink:title=" ">
<polygon fill="none" stroke="#bfbfbf" points="3511.2105,-.5 3511.2105,-56.5 3677.8025,-56.5 3677.8025,-.5 3511.2105,-.5"/>
<text text-anchor="start" x="3519.2105" y="-43.5" font-family="Helvetica,sans-Serif" font-size="10.00" fill="#000000">/media/LinuxData/Development64</text>
<text text-anchor="start" x="3519.2105" y="-31.5" font-family="Helvetica,sans-Serif" font-size="10.00" fill="#000000">/Projects/LFSDesktopProject</text>
<text text-anchor="start" x="3519.2105" y="-19.5" font-family="Helvetica,sans-Serif" font-size="10.00" fill="#000000">/LFSToolKit/LFSToolKit/lfstk</text>
<text text-anchor="middle" x="3594.5065" y="-7.5" font-family="Helvetica,sans-Serif" font-size="10.00" fill="#000000">/lfstk/LFSTKScrollBar.h</text>
</a>
</g>
</g>
<!-- Node1&#45;&gt;Node35 -->
<g id="edge34" class="edge">
<title>Node1&#45;&gt;Node35</title>
<path fill="none" stroke="#191970" d="M1769.1511,-103.0265C2030.299,-100.3301 3283.849,-86.0479 3501.0072,-56.7219"/>
<polygon fill="#191970" stroke="#191970" points="3501.7311,-60.1529 3511.1094,-55.2238 3500.7042,-53.2287 3501.7311,-60.1529"/>
</g>
<!-- Node36 -->
<g id="node36" class="node">
<title>Node36</title>
<g id="a_node36"><a xlink:title=" ">
<polygon fill="none" stroke="#bfbfbf" points="3696.2105,-.5 3696.2105,-56.5 3862.8025,-56.5 3862.8025,-.5 3696.2105,-.5"/>
<text text-anchor="start" x="3704.2105" y="-43.5" font-family="Helvetica,sans-Serif" font-size="10.00" fill="#000000">/media/LinuxData/Development64</text>
<text text-anchor="start" x="3704.2105" y="-31.5" font-family="Helvetica,sans-Serif" font-size="10.00" fill="#000000">/Projects/LFSDesktopProject</text>
<text text-anchor="start" x="3704.2105" y="-19.5" font-family="Helvetica,sans-Serif" font-size="10.00" fill="#000000">/LFSToolKit/LFSToolKit/lfstk</text>
<text text-anchor="middle" x="3779.5065" y="-7.5" font-family="Helvetica,sans-Serif" font-size="10.00" fill="#000000">/lfstk/LFSTKListGadget.h</text>
</a>
</g>
</g>
<!-- Node1&#45;&gt;Node36 -->
<g id="edge35" class="edge">
<title>Node1&#45;&gt;Node36</title>
<path fill="none" stroke="#191970" d="M1769.4132,-103.1503C2047.4112,-101.0186 3448.8399,-88.8387 3686.009,-56.7285"/>
<polygon fill="#191970" stroke="#191970" points="3686.7311,-60.1599 3696.1111,-55.2338 3685.7064,-53.2353 3686.7311,-60.1599"/>
</g>
<!-- Node37 -->
<g id="node37" class="node">
<title>Node37</title>
<g id="a_node37"><a xlink:title=" ">
<polygon fill="none" stroke="#bfbfbf" points="3881.2105,-.5 3881.2105,-56.5 4047.8025,-56.5 4047.8025,-.5 3881.2105,-.5"/>
<text text-anchor="start" x="3889.2105" y="-43.5" font-family="Helvetica,sans-Serif" font-size="10.00" fill="#000000">/media/LinuxData/Development64</text>
<text text-anchor="start" x="3889.2105" y="-31.5" font-family="Helvetica,sans-Serif" font-size="10.00" fill="#000000">/Projects/LFSDesktopProject</text>
<text text-anchor="start" x="3889.2105" y="-19.5" font-family="Helvetica,sans-Serif" font-size="10.00" fill="#000000">/LFSToolKit/LFSToolKit/lfstk</text>
<text text-anchor="middle" x="3964.5065" y="-7.5" font-family="Helvetica,sans-Serif" font-size="10.00" fill="#000000">/lfstk/LFSTKFileDialog.h</text>
</a>
</g>
</g>
<!-- Node1&#45;&gt;Node37 -->
<g id="edge36" class="edge">
<title>Node1&#45;&gt;Node37</title>
<path fill="none" stroke="#191970" d="M1769.0157,-103.2574C2061.5929,-101.6605 3614.4204,-91.6699 3871.1888,-56.7103"/>
<polygon fill="#191970" stroke="#191970" points="3871.7324,-60.1681 3881.1124,-55.2421 3870.7078,-53.2434 3871.7324,-60.1681"/>
</g>
<!-- Node38 -->
<g id="node38" class="node">
<title>Node38</title>
<g id="a_node38"><a xlink:title=" ">
<polygon fill="none" stroke="#bfbfbf" points="4066.2105,-.5 4066.2105,-56.5 4232.8025,-56.5 4232.8025,-.5 4066.2105,-.5"/>
<text text-anchor="start" x="4074.2105" y="-43.5" font-family="Helvetica,sans-Serif" font-size="10.00" fill="#000000">/media/LinuxData/Development64</text>
<text text-anchor="start" x="4074.2105" y="-31.5" font-family="Helvetica,sans-Serif" font-size="10.00" fill="#000000">/Projects/LFSDesktopProject</text>
<text text-anchor="start" x="4074.2105" y="-19.5" font-family="Helvetica,sans-Serif" font-size="10.00" fill="#000000">/LFSToolKit/LFSToolKit/lfstk</text>
<text text-anchor="middle" x="4149.5065" y="-7.5" font-family="Helvetica,sans-Serif" font-size="10.00" fill="#000000">/lfstk/LFSTKFontDialog.h</text>
</a>
</g>
</g>
<!-- Node1&#45;&gt;Node38 -->
<g id="edge37" class="edge">
<title>Node1&#45;&gt;Node38</title>
<path fill="none" stroke="#191970" d="M1769.0159,-103.3449C2076.3708,-102.2383 3779.2661,-94.5104 4056.146,-56.7218"/>
<polygon fill="#191970" stroke="#191970" points="4056.7325,-60.1732 4066.1135,-55.2491 4055.7093,-53.2484 4056.7325,-60.1732"/>
</g>
<!-- Node39 -->
<g id="node39" class="node">
<title>Node39</title>
<g id="a_node39"><a xlink:title=" ">
<polygon fill="none" stroke="#bfbfbf" points="4251.2105,-.5 4251.2105,-56.5 4417.8025,-56.5 4417.8025,-.5 4251.2105,-.5"/>
<text text-anchor="start" x="4259.2105" y="-43.5" font-family="Helvetica,sans-Serif" font-size="10.00" fill="#000000">/media/LinuxData/Development64</text>
<text text-anchor="start" x="4259.2105" y="-31.5" font-family="Helvetica,sans-Serif" font-size="10.00" fill="#000000">/Projects/LFSDesktopProject</text>
<text text-anchor="start" x="4259.2105" y="-19.5" font-family="Helvetica,sans-Serif" font-size="10.00" fill="#000000">/LFSToolKit/LFSToolKit/lfstk</text>
<text text-anchor="middle" x="4334.5065" y="-7.5" font-family="Helvetica,sans-Serif" font-size="10.00" fill="#000000">/lfstk/LFSTKMultiLineEdit.h</text>
</a>
</g>
</g>
<!-- Node1&#45;&gt;Node39 -->
<g id="edge38" class="edge">
<title>Node1&#45;&gt;Node39</title>
<path fill="none" stroke="#191970" d="M1769.06,-103.4196C2090.6228,-102.7719 3942.8327,-97.3664 4240.7862,-56.776"/>
<polygon fill="#191970" stroke="#191970" points="4241.7311,-60.1747 4251.1145,-55.255 4240.7112,-53.2494 4241.7311,-60.1747"/>
</g>
<!-- Node40 -->
<g id="node40" class="node">
<title>Node40</title>
<g id="a_node40"><a xlink:title=" ">
<polygon fill="none" stroke="#bfbfbf" points="4436.2105,-.5 4436.2105,-56.5 4602.8025,-56.5 4602.8025,-.5 4436.2105,-.5"/>
<text text-anchor="start" x="4444.2105" y="-43.5" font-family="Helvetica,sans-Serif" font-size="10.00" fill="#000000">/media/LinuxData/Development64</text>
<text text-anchor="start" x="4444.2105" y="-31.5" font-family="Helvetica,sans-Serif" font-size="10.00" fill="#000000">/Projects/LFSDesktopProject</text>
<text text-anchor="start" x="4444.2105" y="-19.5" font-family="Helvetica,sans-Serif" font-size="10.00" fill="#000000">/LFSToolKit/LFSToolKit/lfstk</text>
<text text-anchor="middle" x="4519.5065" y="-7.5" font-family="Helvetica,sans-Serif" font-size="10.00" fill="#000000">/lfstk/LFSTKToolWindow.h</text>
</a>
</g>
</g>
<!-- Node1&#45;&gt;Node40 -->
<g id="edge39" class="edge">
<title>Node1&#45;&gt;Node40</title>
<path fill="none" stroke="#191970" d="M1768.9721,-103.062C2112.4798,-99.8464 4210.1169,-79.4176 4425.9182,-56.5591"/>
<polygon fill="#191970" stroke="#191970" points="4426.6377,-59.9958 4436.1153,-55.2602 4425.7531,-53.0519 4426.6377,-59.9958"/>
</g>
<!-- Node41 -->
<g id="node41" class="node">
<title>Node41</title>
<g id="a_node41"><a xlink:title=" ">
<polygon fill="none" stroke="#bfbfbf" points="4621.2105,-.5 4621.2105,-56.5 4787.8025,-56.5 4787.8025,-.5 4621.2105,-.5"/>
<text text-anchor="start" x="4629.2105" y="-43.5" font-family="Helvetica,sans-Serif" font-size="10.00" fill="#000000">/media/LinuxData/Development64</text>
<text text-anchor="start" x="4629.2105" y="-31.5" font-family="Helvetica,sans-Serif" font-size="10.00" fill="#000000">/Projects/LFSDesktopProject</text>
<text text-anchor="start" x="4629.2105" y="-19.5" font-family="Helvetica,sans-Serif" font-size="10.00" fill="#000000">/LFSToolKit/LFSToolKit/lfstk</text>
<text text-anchor="middle" x="4704.5065" y="-7.5" font-family="Helvetica,sans-Serif" font-size="10.00" fill="#000000">/lfstk/LFSTKMenu.h</text>
</a>
</g>
</g>
<!-- Node1&#45;&gt;Node41 -->
<g id="edge40" class="edge">
<title>Node1&#45;&gt;Node41</title>
<path fill="none" stroke="#191970" d="M1768.9905,-103.116C2126.1922,-100.181 4383.8888,-80.8043 4610.9032,-56.5701"/>
<polygon fill="#191970" stroke="#191970" points="4611.6405,-60.0044 4621.116,-55.2647 4610.7529,-53.0609 4611.6405,-60.0044"/>
</g>
<!-- Node42 -->
<g id="node42" class="node">
<title>Node42</title>
<g id="a_node42"><a xlink:title=" ">
<polygon fill="none" stroke="#bfbfbf" points="4806.2105,-.5 4806.2105,-56.5 4972.8025,-56.5 4972.8025,-.5 4806.2105,-.5"/>
<text text-anchor="start" x="4814.2105" y="-43.5" font-family="Helvetica,sans-Serif" font-size="10.00" fill="#000000">/media/LinuxData/Development64</text>
<text text-anchor="start" x="4814.2105" y="-31.5" font-family="Helvetica,sans-Serif" font-size="10.00" fill="#000000">/Projects/LFSDesktopProject</text>
<text text-anchor="start" x="4814.2105" y="-19.5" font-family="Helvetica,sans-Serif" font-size="10.00" fill="#000000">/LFSToolKit/LFSToolKit/lfstk</text>
<text text-anchor="middle" x="4889.5065" y="-7.5" font-family="Helvetica,sans-Serif" font-size="10.00" fill="#000000">/lfstk/LFSTKMenuItem.h</text>
</a>
</g>
</g>
<!-- Node1&#45;&gt;Node42 -->
<g id="edge41" class="edge">
<title>Node1&#45;&gt;Node42</title>
<path fill="none" stroke="#191970" d="M1769.0006,-103.1635C2139.4796,-100.4926 4558.2575,-82.1962 4795.963,-56.5725"/>
<polygon fill="#191970" stroke="#191970" points="4796.6439,-60.0139 4806.1166,-55.2686 4795.7522,-53.071 4796.6439,-60.0139"/>
</g>
</g>
</svg>
