<?xml version="1.0" encoding="UTF-8" standalone="no"?>
<!DOCTYPE svg PUBLIC "-//W3C//DTD SVG 1.1//EN"
 "http://www.w3.org/Graphics/SVG/1.1/DTD/svg11.dtd">
<!-- Generated by graphviz version 2.40.1 (20161225.0304)
 -->
<!-- Title: freeAndNull Pages: 1 -->
<svg width="606pt" height="182pt"
 viewBox="0.00 0.00 606.17 182.00" xmlns="http://www.w3.org/2000/svg" xmlns:xlink="http://www.w3.org/1999/xlink">
<g id="graph0" class="graph" transform="scale(1 1) rotate(0) translate(4 178)">
<title>freeAndNull</title>
<!-- Node1 -->
<g id="node1" class="node">
<title>Node1</title>
<g id="a_node1"><a xlink:title=" ">
<polygon fill="#bfbfbf" stroke="#000000" points="529.94,-79.5 529.94,-99.5 598.169,-99.5 598.169,-79.5 529.94,-79.5"/>
<text text-anchor="middle" x="564.0545" y="-86.5" font-family="Helvetica,sans-Serif" font-size="10.00" fill="#000000">freeAndNull</text>
</a>
</g>
</g>
<!-- Node2 -->
<g id="node2" class="node">
<title>Node2</title>
<g id="a_node2"><a xlink:href="class_l_f_s_t_k__file_dialog_class_a99d3d70ca32edc6810c817df31dfa277.xhtml#a99d3d70ca32edc6810c817df31dfa277" target="_top" xlink:title=" ">
<polygon fill="none" stroke="#000000" points="348.754,-141.5 348.754,-173.5 469.204,-173.5 469.204,-141.5 348.754,-141.5"/>
<text text-anchor="start" x="356.754" y="-160.5" font-family="Helvetica,sans-Serif" font-size="10.00" fill="#000000">LFSTK_fileDialogClass</text>
<text text-anchor="middle" x="408.979" y="-148.5" font-family="Helvetica,sans-Serif" font-size="10.00" fill="#000000">::LFSTK_setNameFilter</text>
</a>
</g>
</g>
<!-- Node1&#45;&gt;Node2 -->
<g id="edge1" class="edge">
<title>Node1&#45;&gt;Node2</title>
<path fill="none" stroke="#191970" d="M541.6417,-105.3553C528.2743,-114.2649 510.6919,-125.0562 493.94,-132.5 486.2121,-135.934 477.8831,-139.0463 469.5681,-141.8168"/>
<polygon fill="#191970" stroke="#191970" points="543.8666,-108.0747 550.1607,-99.552 539.9256,-102.2894 543.8666,-108.0747"/>
</g>
<!-- Node3 -->
<g id="node3" class="node">
<title>Node3</title>
<g id="a_node3"><a xlink:href="class_l_f_s_t_k__lib_a36cbdcaf2c98443f432ca14571281463.xhtml#a36cbdcaf2c98443f432ca14571281463" target="_top" xlink:title=" ">
<polygon fill="none" stroke="#000000" points="324.018,-102.5 324.018,-122.5 493.94,-122.5 493.94,-102.5 324.018,-102.5"/>
<text text-anchor="middle" x="408.979" y="-109.5" font-family="Helvetica,sans-Serif" font-size="10.00" fill="#000000">LFSTK_lib::LFSTK_setThemePath</text>
</a>
</g>
</g>
<!-- Node1&#45;&gt;Node3 -->
<g id="edge2" class="edge">
<title>Node1&#45;&gt;Node3</title>
<path fill="none" stroke="#191970" d="M519.7339,-96.0734C506.3196,-98.0629 491.2697,-100.2951 476.6907,-102.4573"/>
<polygon fill="#191970" stroke="#191970" points="520.2599,-99.5338 529.6382,-94.6044 519.2329,-92.6095 520.2599,-99.5338"/>
</g>
<!-- Node4 -->
<g id="node4" class="node">
<title>Node4</title>
<g id="a_node4"><a xlink:href="class_l_f_s_t_k__file_dialog_class_a1a2380be673fe96eeb957ddd90051d05.xhtml#a1a2380be673fe96eeb957ddd90051d05" target="_top" xlink:title=" ">
<polygon fill="none" stroke="#000000" points="349.5885,-51.5 349.5885,-83.5 468.3695,-83.5 468.3695,-51.5 349.5885,-51.5"/>
<text text-anchor="start" x="357.5885" y="-70.5" font-family="Helvetica,sans-Serif" font-size="10.00" fill="#000000">LFSTK_fileDialogClass</text>
<text text-anchor="middle" x="408.979" y="-58.5" font-family="Helvetica,sans-Serif" font-size="10.00" fill="#000000">::setFileData</text>
</a>
</g>
</g>
<!-- Node1&#45;&gt;Node4 -->
<g id="edge3" class="edge">
<title>Node1&#45;&gt;Node4</title>
<path fill="none" stroke="#191970" d="M519.5693,-83.189C503.693,-80.9367 485.5423,-78.3618 468.5991,-75.9581"/>
<polygon fill="#191970" stroke="#191970" points="519.2457,-86.6781 529.6382,-84.6175 520.229,-79.7475 519.2457,-86.6781"/>
</g>
<!-- Node9 -->
<g id="node9" class="node">
<title>Node9</title>
<g id="a_node9"><a xlink:href="class_l_f_s_t_k__file_dialog_class_ae3d4b16a17a84fddc8add7998222eb96.xhtml#ae3d4b16a17a84fddc8add7998222eb96" target="_top" xlink:title=" ">
<polygon fill="none" stroke="#000000" points="343.89,-.5 343.89,-32.5 474.068,-32.5 474.068,-.5 343.89,-.5"/>
<text text-anchor="start" x="351.89" y="-19.5" font-family="Helvetica,sans-Serif" font-size="10.00" fill="#000000">LFSTK_fileDialogClass</text>
<text text-anchor="middle" x="408.979" y="-7.5" font-family="Helvetica,sans-Serif" font-size="10.00" fill="#000000">::~LFSTK_fileDialogClass</text>
</a>
</g>
</g>
<!-- Node1&#45;&gt;Node9 -->
<g id="edge8" class="edge">
<title>Node1&#45;&gt;Node9</title>
<path fill="none" stroke="#191970" d="M543.2079,-73.1469C529.75,-63.2066 511.5283,-50.861 493.94,-42.5 486.1384,-38.7913 477.6845,-35.4611 469.237,-32.5211"/>
<polygon fill="#191970" stroke="#191970" points="541.2201,-76.0317 551.3093,-79.2657 545.439,-70.4458 541.2201,-76.0317"/>
</g>
<!-- Node5 -->
<g id="node5" class="node">
<title>Node5</title>
<g id="a_node5"><a xlink:href="class_l_f_s_t_k__file_dialog_class_af77972b8a46616ba4c7bec555b2b0a14.xhtml#af77972b8a46616ba4c7bec555b2b0a14" target="_top" xlink:title=" ">
<polygon fill="none" stroke="#000000" points="162.009,-76.5 162.009,-108.5 288.018,-108.5 288.018,-76.5 162.009,-76.5"/>
<text text-anchor="start" x="170.009" y="-95.5" font-family="Helvetica,sans-Serif" font-size="10.00" fill="#000000">LFSTK_fileDialogClass</text>
<text text-anchor="middle" x="225.0135" y="-83.5" font-family="Helvetica,sans-Serif" font-size="10.00" fill="#000000">::LFSTK_showFileDialog</text>
</a>
</g>
</g>
<!-- Node4&#45;&gt;Node5 -->
<g id="edge4" class="edge">
<title>Node4&#45;&gt;Node5</title>
<path fill="none" stroke="#191970" d="M339.2035,-76.9822C322.406,-79.2648 304.5577,-81.6903 288.0862,-83.9287"/>
<polygon fill="#191970" stroke="#191970" points="340.0671,-80.397 349.5047,-75.5823 339.1245,-73.4608 340.0671,-80.397"/>
</g>
<!-- Node7 -->
<g id="node7" class="node">
<title>Node7</title>
<g id="a_node7"><a xlink:href="class_l_f_s_t_k__file_dialog_class_a789cade9437906181e31a243c85d52e5.xhtml#a789cade9437906181e31a243c85d52e5" target="_top" xlink:title=" ">
<polygon fill="none" stroke="#000000" points="165.623,-25.5 165.623,-57.5 284.404,-57.5 284.404,-25.5 165.623,-25.5"/>
<text text-anchor="start" x="173.623" y="-44.5" font-family="Helvetica,sans-Serif" font-size="10.00" fill="#000000">LFSTK_fileDialogClass</text>
<text text-anchor="middle" x="225.0135" y="-32.5" font-family="Helvetica,sans-Serif" font-size="10.00" fill="#000000">::select</text>
</a>
</g>
</g>
<!-- Node4&#45;&gt;Node7 -->
<g id="edge6" class="edge">
<title>Node4&#45;&gt;Node7</title>
<path fill="none" stroke="#191970" d="M339.5948,-57.6939C321.4914,-55.1353 302.1432,-52.4008 284.5979,-49.9211"/>
<polygon fill="#191970" stroke="#191970" points="339.1133,-61.1605 349.5047,-59.0945 340.0929,-54.2294 339.1133,-61.1605"/>
</g>
<!-- Node6 -->
<g id="node6" class="node">
<title>Node6</title>
<g id="a_node6"><a xlink:href="class_l_f_s_t_k__file_dialog_class_aacf1d4b61cbb5b40d06f591ea96f9ea7.xhtml#aacf1d4b61cbb5b40d06f591ea96f9ea7" target="_top" xlink:title=" ">
<polygon fill="none" stroke="#000000" points="0,-76.5 0,-108.5 126.009,-108.5 126.009,-76.5 0,-76.5"/>
<text text-anchor="start" x="8" y="-95.5" font-family="Helvetica,sans-Serif" font-size="10.00" fill="#000000">LFSTK_fileDialogClass</text>
<text text-anchor="middle" x="63.0045" y="-83.5" font-family="Helvetica,sans-Serif" font-size="10.00" fill="#000000">::LFSTK_showFileDialog</text>
</a>
</g>
</g>
<!-- Node5&#45;&gt;Node6 -->
<g id="edge5" class="edge">
<title>Node5&#45;&gt;Node6</title>
<path fill="none" stroke="#191970" d="M151.6358,-92.5C143.144,-92.5 134.5393,-92.5 126.1996,-92.5"/>
<polygon fill="#191970" stroke="#191970" points="151.9127,-96.0001 161.9127,-92.5 151.9127,-89.0001 151.9127,-96.0001"/>
</g>
<!-- Node8 -->
<g id="node8" class="node">
<title>Node8</title>
<g id="a_node8"><a xlink:href="class_l_f_s_t_k__file_dialog_class_a553ce8e885b0d60cbf515b7b3d1e8b65.xhtml#a553ce8e885b0d60cbf515b7b3d1e8b65" target="_top" xlink:title=" ">
<polygon fill="none" stroke="#000000" points=".835,-25.5 .835,-57.5 125.174,-57.5 125.174,-25.5 .835,-25.5"/>
<text text-anchor="start" x="8.835" y="-44.5" font-family="Helvetica,sans-Serif" font-size="10.00" fill="#000000">LFSTK_fileDialogClass</text>
<text text-anchor="middle" x="63.0045" y="-32.5" font-family="Helvetica,sans-Serif" font-size="10.00" fill="#000000">::LFSTK_fileDialogClass</text>
</a>
</g>
</g>
<!-- Node7&#45;&gt;Node8 -->
<g id="edge7" class="edge">
<title>Node7&#45;&gt;Node8</title>
<path fill="none" stroke="#191970" d="M155.3434,-41.5C145.3884,-41.5 135.2004,-41.5 125.397,-41.5"/>
<polygon fill="#191970" stroke="#191970" points="155.6073,-45.0001 165.6073,-41.5 155.6072,-38.0001 155.6073,-45.0001"/>
</g>
</g>
</svg>
