<?xml version="1.0" encoding="UTF-8" standalone="no"?>
<!DOCTYPE svg PUBLIC "-//W3C//DTD SVG 1.1//EN"
 "http://www.w3.org/Graphics/SVG/1.1/DTD/svg11.dtd">
<!-- Generated by graphviz version 2.40.1 (20161225.0304)
 -->
<!-- Title: LFSTKListGadget.cpp Pages: 1 -->
<svg width="252pt" height="86pt"
 viewBox="0.00 0.00 252.46 86.00" xmlns="http://www.w3.org/2000/svg" xmlns:xlink="http://www.w3.org/1999/xlink">
<g id="graph0" class="graph" transform="scale(1 1) rotate(0) translate(4 82)">
<title>LFSTKListGadget.cpp</title>
<!-- Node1 -->
<g id="node1" class="node">
<title>Node1</title>
<g id="a_node1"><a xlink:title=" ">
<polygon fill="#bfbfbf" stroke="#000000" points="35.325,-57.5 35.325,-77.5 149.688,-77.5 149.688,-57.5 35.325,-57.5"/>
<text text-anchor="middle" x="92.5065" y="-64.5" font-family="Helvetica,sans-Serif" font-size="10.00" fill="#000000">LFSTKListGadget.cpp</text>
</a>
</g>
</g>
<!-- Node2 -->
<g id="node2" class="node">
<title>Node2</title>
<g id="a_node2"><a xlink:title=" ">
<polygon fill="none" stroke="#bfbfbf" points="0,-.5 0,-20.5 51.013,-20.5 51.013,-.5 0,-.5"/>
<text text-anchor="middle" x="25.5065" y="-7.5" font-family="Helvetica,sans-Serif" font-size="10.00" fill="#000000">unistd.h</text>
</a>
</g>
</g>
<!-- Node1&#45;&gt;Node2 -->
<g id="edge1" class="edge">
<title>Node1&#45;&gt;Node2</title>
<path fill="none" stroke="#191970" d="M80.5282,-57.3095C70.7148,-48.9608 56.6285,-36.9769 45.1656,-27.2249"/>
<polygon fill="#191970" stroke="#191970" points="47.2656,-24.4162 37.3811,-20.6022 42.7297,-29.7479 47.2656,-24.4162"/>
</g>
<!-- Node3 -->
<g id="node3" class="node">
<title>Node3</title>
<g id="a_node3"><a xlink:title=" ">
<polygon fill="none" stroke="#bfbfbf" points="68.67,-.5 68.67,-20.5 116.343,-20.5 116.343,-.5 68.67,-.5"/>
<text text-anchor="middle" x="92.5065" y="-7.5" font-family="Helvetica,sans-Serif" font-size="10.00" fill="#000000">stdlib.h</text>
</a>
</g>
</g>
<!-- Node1&#45;&gt;Node3 -->
<g id="edge2" class="edge">
<title>Node1&#45;&gt;Node3</title>
<path fill="none" stroke="#191970" d="M92.5065,-57.3095C92.5065,-49.9335 92.5065,-39.72 92.5065,-30.715"/>
<polygon fill="#191970" stroke="#191970" points="96.0066,-30.6022 92.5065,-20.6022 89.0066,-30.6023 96.0066,-30.6022"/>
</g>
<!-- Node4 -->
<g id="node4" class="node">
<title>Node4</title>
<g id="a_node4"><a xlink:title=" ">
<polygon fill="none" stroke="#bfbfbf" points="134.555,-.5 134.555,-20.5 244.458,-20.5 244.458,-.5 134.555,-.5"/>
<text text-anchor="middle" x="189.5065" y="-7.5" font-family="Helvetica,sans-Serif" font-size="10.00" fill="#000000">lfstk/LFSTKGlobals.h</text>
</a>
</g>
</g>
<!-- Node1&#45;&gt;Node4 -->
<g id="edge3" class="edge">
<title>Node1&#45;&gt;Node4</title>
<path fill="none" stroke="#191970" d="M109.8482,-57.3095C124.7453,-48.5556 146.4438,-35.8049 163.4337,-25.8211"/>
<polygon fill="#191970" stroke="#191970" points="165.4666,-28.6862 172.315,-20.6022 161.9201,-22.651 165.4666,-28.6862"/>
</g>
</g>
</svg>
