<?xml version="1.0" encoding="UTF-8" standalone="no"?>
<!DOCTYPE svg PUBLIC "-//W3C//DTD SVG 1.1//EN"
 "http://www.w3.org/Graphics/SVG/1.1/DTD/svg11.dtd">
<!-- Generated by graphviz version 2.40.1 (20161225.0304)
 -->
<!-- Title: LFSTKGlobals.h Pages: 1 -->
<!--zoomable 143 -->
<svg id="main" version="1.1" xmlns="http://www.w3.org/2000/svg" xmlns:xlink="http://www.w3.org/1999/xlink" xml:space="preserve" onload="init(evt)">
<style type="text/css"><![CDATA[
.edge:hover path { stroke: red; }
.edge:hover polygon { stroke: red; fill: red; }
]]></style>
<script type="text/javascript"><![CDATA[
var edges = document.getElementsByTagName('g');
if (edges && edges.length) {
  for (var i=0;i<edges.length;i++) {
    if (edges[i].id.substr(0,4)=='edge') {
      edges[i].setAttribute('class','edge');
    }
  }
}
]]></script>
        <defs>
                <circle id="rim" cx="0" cy="0" r="7"/>
                <circle id="rim2" cx="0" cy="0" r="3.5"/>
                <g id="zoomPlus">
                        <use xlink:href="#rim" fill="#404040">
                                <set attributeName="fill" to="#808080" begin="zoomplus.mouseover" end="zoomplus.mouseout"/>
                        </use>
                        <path d="M-4,0h8M0,-4v8" fill="none" stroke="white" stroke-width="1.5" pointer-events="none"/>
                </g>
                <g id="zoomMin">
                        <use xlink:href="#rim" fill="#404040">
                                <set attributeName="fill" to="#808080" begin="zoomminus.mouseover" end="zoomminus.mouseout"/>
                        </use>
                        <path d="M-4,0h8" fill="none" stroke="white" stroke-width="1.5" pointer-events="none"/>
                </g>
                <g id="dirArrow">
                        <path fill="none" stroke="white" stroke-width="1.5" d="M0,-3.0v7 M-2.5,-0.5L0,-3.0L2.5,-0.5"/>
                </g>
               <g id="resetDef">
                       <use xlink:href="#rim2" fill="#404040">
                               <set attributeName="fill" to="#808080" begin="reset.mouseover" end="reset.mouseout"/>
                       </use>
               </g>
        </defs>

<script type="text/javascript">
var viewWidth = 2505;
var viewHeight = 143;
var sectionId = 'dynsection-0';
</script>
<script xlink:href="svgpan.js"/>
<svg id="graph" class="graph">
<g id="viewport">
<title>LFSTKGlobals.h</title>
<!-- Node1 -->
<g id="node1" class="node">
<title>Node1</title>
<g id="a_node1"><a xlink:title=" ">
<polygon fill="#bfbfbf" stroke="#000000" points="1077.05,-114.5 1077.05,-134.5 1166.397,-134.5 1166.397,-114.5 1077.05,-114.5"/>
<text text-anchor="middle" x="1121.7235" y="-121.5" font-family="Helvetica,sans-Serif" font-size="10.00" fill="#000000">LFSTKGlobals.h</text>
</a>
</g>
</g>
<!-- Node2 -->
<g id="node2" class="node">
<title>Node2</title>
<g id="a_node2"><a xlink:title=" ">
<polygon fill="none" stroke="#bfbfbf" points="19.655,-57.5 19.655,-77.5 91.792,-77.5 91.792,-57.5 19.655,-57.5"/>
<text text-anchor="middle" x="55.7235" y="-64.5" font-family="Helvetica,sans-Serif" font-size="10.00" fill="#000000">X11/Xft/Xft.h</text>
</a>
</g>
</g>
<!-- Node1&#45;&gt;Node2 -->
<g id="edge1" class="edge">
<title>Node1&#45;&gt;Node2</title>
<path fill="none" stroke="#191970" d="M1076.7936,-123.4085C906.0903,-119.1117 297.7489,-102.3951 105.7235,-78 104.4614,-77.8397 103.1837,-77.6643 101.8962,-77.4762"/>
<polygon fill="#191970" stroke="#191970" points="102.3666,-74.0064 91.928,-75.8191 101.2186,-80.9117 102.3666,-74.0064"/>
</g>
<!-- Node3 -->
<g id="node3" class="node">
<title>Node3</title>
<g id="a_node3"><a xlink:title=" ">
<polygon fill="none" stroke="#bfbfbf" points="634.557,-.5 634.557,-20.5 688.89,-20.5 688.89,-.5 634.557,-.5"/>
<text text-anchor="middle" x="661.7235" y="-7.5" font-family="Helvetica,sans-Serif" font-size="10.00" fill="#000000">iostream</text>
</a>
</g>
</g>
<!-- Node1&#45;&gt;Node3 -->
<g id="edge2" class="edge">
<title>Node1&#45;&gt;Node3</title>
<path fill="none" stroke="#191970" d="M1076.9945,-122.1386C973.3965,-116.3189 723.4616,-100.1359 692.7235,-78 677.398,-66.9634 669.4618,-46.4632 665.476,-30.9394"/>
<polygon fill="#191970" stroke="#191970" points="668.7942,-29.7332 663.2227,-20.7216 661.9584,-31.2407 668.7942,-29.7332"/>
</g>
<!-- Node4 -->
<g id="node4" class="node">
<title>Node4</title>
<g id="a_node4"><a xlink:title=" ">
<polygon fill="none" stroke="#bfbfbf" points="0,-.5 0,-20.5 35.447,-20.5 35.447,-.5 0,-.5"/>
<text text-anchor="middle" x="17.7235" y="-7.5" font-family="Helvetica,sans-Serif" font-size="10.00" fill="#000000">map</text>
</a>
</g>
</g>
<!-- Node1&#45;&gt;Node4 -->
<g id="edge3" class="edge">
<title>Node1&#45;&gt;Node4</title>
<path fill="none" stroke="#191970" d="M1076.7495,-123.7428C895.5239,-120.5067 224.2162,-106.6763 133.7235,-78 117.1512,-72.7484 115.646,-65.9186 100.7235,-57 82.2347,-45.9499 61.0448,-34.0915 44.7033,-25.1156"/>
<polygon fill="#191970" stroke="#191970" points="46.1521,-21.9187 35.699,-20.1917 42.7936,-28.0605 46.1521,-21.9187"/>
</g>
<!-- Node5 -->
<g id="node5" class="node">
<title>Node5</title>
<g id="a_node5"><a xlink:title=" ">
<polygon fill="none" stroke="#bfbfbf" points="1059.0525,-57.5 1059.0525,-77.5 1108.3945,-77.5 1108.3945,-57.5 1059.0525,-57.5"/>
<text text-anchor="middle" x="1083.7235" y="-64.5" font-family="Helvetica,sans-Serif" font-size="10.00" fill="#000000">dirent.h</text>
</a>
</g>
</g>
<!-- Node1&#45;&gt;Node5 -->
<g id="edge4" class="edge">
<title>Node1&#45;&gt;Node5</title>
<path fill="none" stroke="#191970" d="M1114.9299,-114.3095C1109.6883,-106.4472 1102.2974,-95.3608 1096.024,-85.9507"/>
<polygon fill="#191970" stroke="#191970" points="1098.9176,-83.9813 1090.4583,-77.6022 1093.0932,-87.8642 1098.9176,-83.9813"/>
</g>
<!-- Node6 -->
<g id="node6" class="node">
<title>Node6</title>
<g id="a_node6"><a xlink:title=" ">
<polygon fill="none" stroke="#bfbfbf" points="53.7215,-.5 53.7215,-20.5 99.7255,-20.5 99.7255,-.5 53.7215,-.5"/>
<text text-anchor="middle" x="76.7235" y="-7.5" font-family="Helvetica,sans-Serif" font-size="10.00" fill="#000000">cairo.h</text>
</a>
</g>
</g>
<!-- Node1&#45;&gt;Node6 -->
<g id="edge5" class="edge">
<title>Node1&#45;&gt;Node6</title>
<path fill="none" stroke="#191970" d="M1076.9038,-123.7103C900.9084,-120.4165 262.5854,-106.5927 176.7235,-78 144.8706,-67.3927 113.7039,-43.6079 94.8504,-27.3044"/>
<polygon fill="#191970" stroke="#191970" points="97.1289,-24.6469 87.3271,-20.625 92.4814,-29.8816 97.1289,-24.6469"/>
</g>
<!-- Node7 -->
<g id="node7" class="node">
<title>Node7</title>
<g id="a_node7"><a xlink:title=" ">
<polygon fill="none" stroke="#bfbfbf" points="117.5585,-.5 117.5585,-20.5 181.8885,-20.5 181.8885,-.5 117.5585,-.5"/>
<text text-anchor="middle" x="149.7235" y="-7.5" font-family="Helvetica,sans-Serif" font-size="10.00" fill="#000000">cairo&#45;xlib.h</text>
</a>
</g>
</g>
<!-- Node1&#45;&gt;Node7 -->
<g id="edge6" class="edge">
<title>Node1&#45;&gt;Node7</title>
<path fill="none" stroke="#191970" d="M1076.6909,-123.229C934.8611,-118.9935 498.6051,-104.1302 359.7235,-78 342.7262,-74.802 245.1423,-42.5039 189.1723,-23.7687"/>
<polygon fill="#191970" stroke="#191970" points="190.1612,-20.4089 179.5673,-20.55 187.9369,-27.0461 190.1612,-20.4089"/>
</g>
<!-- Node8 -->
<g id="node8" class="node">
<title>Node8</title>
<g id="a_node8"><a xlink:title=" ">
<polygon fill="none" stroke="#bfbfbf" points="1126.7165,-57.5 1126.7165,-77.5 1192.7305,-77.5 1192.7305,-57.5 1126.7165,-57.5"/>
<text text-anchor="middle" x="1159.7235" y="-64.5" font-family="Helvetica,sans-Serif" font-size="10.00" fill="#000000">sys/types.h</text>
</a>
</g>
</g>
<!-- Node1&#45;&gt;Node8 -->
<g id="edge7" class="edge">
<title>Node1&#45;&gt;Node8</title>
<path fill="none" stroke="#191970" d="M1128.5171,-114.3095C1133.7587,-106.4472 1141.1496,-95.3608 1147.423,-85.9507"/>
<polygon fill="#191970" stroke="#191970" points="1150.3538,-87.8642 1152.9887,-77.6022 1144.5294,-83.9813 1150.3538,-87.8642"/>
</g>
<!-- Node9 -->
<g id="node9" class="node">
<title>Node9</title>
<g id="a_node9"><a xlink:title=" ">
<polygon fill="none" stroke="#bfbfbf" points="1210.276,-57.5 1210.276,-77.5 1265.171,-77.5 1265.171,-57.5 1210.276,-57.5"/>
<text text-anchor="middle" x="1237.7235" y="-64.5" font-family="Helvetica,sans-Serif" font-size="10.00" fill="#000000">sys/ipc.h</text>
</a>
</g>
</g>
<!-- Node1&#45;&gt;Node9 -->
<g id="edge8" class="edge">
<title>Node1&#45;&gt;Node9</title>
<path fill="none" stroke="#191970" d="M1142.1949,-114.4408C1160.4696,-105.461 1187.4552,-92.2008 1208.0878,-82.0624"/>
<polygon fill="#191970" stroke="#191970" points="1209.6351,-85.2019 1217.0665,-77.6504 1206.5479,-78.9193 1209.6351,-85.2019"/>
</g>
<!-- Node10 -->
<g id="node10" class="node">
<title>Node10</title>
<g id="a_node10"><a xlink:title=" ">
<polygon fill="none" stroke="#bfbfbf" points="1283.221,-57.5 1283.221,-77.5 1344.226,-77.5 1344.226,-57.5 1283.221,-57.5"/>
<text text-anchor="middle" x="1313.7235" y="-64.5" font-family="Helvetica,sans-Serif" font-size="10.00" fill="#000000">sys/msg.h</text>
</a>
</g>
</g>
<!-- Node1&#45;&gt;Node10 -->
<g id="edge9" class="edge">
<title>Node1&#45;&gt;Node10</title>
<path fill="none" stroke="#191970" d="M1155.6073,-114.4408C1188.4316,-104.696 1238.2349,-89.9107 1273.1541,-79.544"/>
<polygon fill="#191970" stroke="#191970" points="1274.4389,-82.8137 1283.0292,-76.6124 1272.4467,-76.1031 1274.4389,-82.8137"/>
</g>
<!-- Node11 -->
<g id="node11" class="node">
<title>Node11</title>
<g id="a_node11"><a xlink:href="_l_f_s_t_k_lib_8h.xhtml" target="_top" xlink:title=" ">
<polygon fill="none" stroke="#000000" points="577.3285,-57.5 577.3285,-77.5 646.1185,-77.5 646.1185,-57.5 577.3285,-57.5"/>
<text text-anchor="middle" x="611.7235" y="-64.5" font-family="Helvetica,sans-Serif" font-size="10.00" fill="#000000">LFSTKLib.h</text>
</a>
</g>
</g>
<!-- Node1&#45;&gt;Node11 -->
<g id="edge10" class="edge">
<title>Node1&#45;&gt;Node11</title>
<path fill="none" stroke="#191970" d="M1076.904,-121.7096C994.1155,-116.1742 811.7816,-102.2013 659.7235,-78 658.6283,-77.8257 657.5206,-77.642 656.4044,-77.4504"/>
<polygon fill="#191970" stroke="#191970" points="656.7146,-73.9477 646.2414,-75.5481 655.4267,-80.8282 656.7146,-73.9477"/>
</g>
<!-- Node13 -->
<g id="node13" class="node">
<title>Node13</title>
<g id="a_node13"><a xlink:href="_l_f_s_t_k_find_class_8h.xhtml" target="_top" xlink:title=" ">
<polygon fill="none" stroke="#000000" points="701.7755,-57.5 701.7755,-77.5 801.6715,-77.5 801.6715,-57.5 701.7755,-57.5"/>
<text text-anchor="middle" x="751.7235" y="-64.5" font-family="Helvetica,sans-Serif" font-size="10.00" fill="#000000">LFSTKFindClass.h</text>
</a>
</g>
</g>
<!-- Node1&#45;&gt;Node13 -->
<g id="edge12" class="edge">
<title>Node1&#45;&gt;Node13</title>
<path fill="none" stroke="#191970" d="M1076.8561,-118.1896C1018.3001,-109.8659 912.3825,-94.5097 811.9339,-78.1664"/>
<polygon fill="#191970" stroke="#191970" points="812.3528,-74.6885 801.9194,-76.5307 811.2244,-81.597 812.3528,-74.6885"/>
</g>
<!-- Node21 -->
<g id="node21" class="node">
<title>Node21</title>
<g id="a_node21"><a xlink:href="_l_f_s_t_k_window_8h.xhtml" target="_top" xlink:title=" ">
<polygon fill="none" stroke="#000000" points="186.22,-57.5 186.22,-77.5 277.227,-77.5 277.227,-57.5 186.22,-57.5"/>
<text text-anchor="middle" x="231.7235" y="-64.5" font-family="Helvetica,sans-Serif" font-size="10.00" fill="#000000">LFSTKWindow.h</text>
</a>
</g>
</g>
<!-- Node1&#45;&gt;Node21 -->
<g id="edge21" class="edge">
<title>Node1&#45;&gt;Node21</title>
<path fill="none" stroke="#191970" d="M1076.6419,-122.9551C954.1567,-118.5293 605.0101,-104.3956 315.7235,-78 306.5874,-77.1664 296.9125,-76.115 287.5046,-75.0017"/>
<polygon fill="#191970" stroke="#191970" points="287.7887,-71.5105 277.4391,-73.7766 286.9429,-78.4592 287.7887,-71.5105"/>
</g>
<!-- Node24 -->
<g id="node24" class="node">
<title>Node24</title>
<g id="a_node24"><a xlink:href="_l_f_s_t_k_gadget_8h.xhtml" target="_top" xlink:title=" ">
<polygon fill="none" stroke="#000000" points="470.6,-57.5 470.6,-77.5 558.847,-77.5 558.847,-57.5 470.6,-57.5"/>
<text text-anchor="middle" x="514.7235" y="-64.5" font-family="Helvetica,sans-Serif" font-size="10.00" fill="#000000">LFSTKGadget.h</text>
</a>
</g>
</g>
<!-- Node1&#45;&gt;Node24 -->
<g id="edge27" class="edge">
<title>Node1&#45;&gt;Node24</title>
<path fill="none" stroke="#191970" d="M1076.741,-122.37C983.8937,-117.6169 764.1618,-104.5282 569.0185,-77.8879"/>
<polygon fill="#191970" stroke="#191970" points="569.2475,-74.3864 558.8628,-76.486 568.2902,-81.3207 569.2475,-74.3864"/>
</g>
<!-- Node25 -->
<g id="node25" class="node">
<title>Node25</title>
<g id="a_node25"><a xlink:href="_l_f_s_t_k_label_8h.xhtml" target="_top" xlink:title=" ">
<polygon fill="none" stroke="#000000" points="1361.7695,-57.5 1361.7695,-77.5 1441.6775,-77.5 1441.6775,-57.5 1361.7695,-57.5"/>
<text text-anchor="middle" x="1401.7235" y="-64.5" font-family="Helvetica,sans-Serif" font-size="10.00" fill="#000000">LFSTKLabel.h</text>
</a>
</g>
</g>
<!-- Node1&#45;&gt;Node25 -->
<g id="edge30" class="edge">
<title>Node1&#45;&gt;Node25</title>
<path fill="none" stroke="#191970" d="M1166.6805,-115.7319C1211.3523,-106.9651 1282.0807,-92.939 1351.83,-78.3763"/>
<polygon fill="#191970" stroke="#191970" points="1352.5917,-81.7928 1361.6626,-76.3184 1351.1576,-74.9413 1352.5917,-81.7928"/>
</g>
<!-- Node26 -->
<g id="node26" class="node">
<title>Node26</title>
<g id="a_node26"><a xlink:href="_l_f_s_t_k_image_8h.xhtml" target="_top" xlink:title=" ">
<polygon fill="none" stroke="#000000" points="369.1045,-57.5 369.1045,-77.5 452.3425,-77.5 452.3425,-57.5 369.1045,-57.5"/>
<text text-anchor="middle" x="410.7235" y="-64.5" font-family="Helvetica,sans-Serif" font-size="10.00" fill="#000000">LFSTKImage.h</text>
</a>
</g>
</g>
<!-- Node1&#45;&gt;Node26 -->
<g id="edge31" class="edge">
<title>Node1&#45;&gt;Node26</title>
<path fill="none" stroke="#191970" d="M1076.6967,-123.3864C971.144,-120.3346 699.431,-109.9189 462.5782,-77.9401"/>
<polygon fill="#191970" stroke="#191970" points="462.776,-74.4346 452.3943,-76.5487 461.8284,-81.3702 462.776,-74.4346"/>
</g>
<!-- Node28 -->
<g id="node28" class="node">
<title>Node28</title>
<g id="a_node28"><a xlink:href="_l_f_s_t_k_button_8h.xhtml" target="_top" xlink:title=" ">
<polygon fill="none" stroke="#000000" points="1459.545,-57.5 1459.545,-77.5 1543.902,-77.5 1543.902,-57.5 1459.545,-57.5"/>
<text text-anchor="middle" x="1501.7235" y="-64.5" font-family="Helvetica,sans-Serif" font-size="10.00" fill="#000000">LFSTKButton.h</text>
</a>
</g>
</g>
<!-- Node1&#45;&gt;Node28 -->
<g id="edge36" class="edge">
<title>Node1&#45;&gt;Node28</title>
<path fill="none" stroke="#191970" d="M1166.563,-119.0669C1228.0938,-111.4122 1342.3669,-96.4855 1449.4549,-78.1413"/>
<polygon fill="#191970" stroke="#191970" points="1450.2029,-81.5641 1459.4615,-76.4134 1449.0117,-74.6661 1450.2029,-81.5641"/>
</g>
<!-- Node29 -->
<g id="node29" class="node">
<title>Node29</title>
<g id="a_node29"><a xlink:href="_l_f_s_t_k_line_edit_8h.xhtml" target="_top" xlink:title=" ">
<polygon fill="none" stroke="#000000" points="949.936,-57.5 949.936,-77.5 1041.511,-77.5 1041.511,-57.5 949.936,-57.5"/>
<text text-anchor="middle" x="995.7235" y="-64.5" font-family="Helvetica,sans-Serif" font-size="10.00" fill="#000000">LFSTKLineEdit.h</text>
</a>
</g>
</g>
<!-- Node1&#45;&gt;Node29 -->
<g id="edge37" class="edge">
<title>Node1&#45;&gt;Node29</title>
<path fill="none" stroke="#191970" d="M1099.4873,-114.4408C1079.4584,-105.3801 1049.7964,-91.9615 1027.31,-81.7891"/>
<polygon fill="#191970" stroke="#191970" points="1028.715,-78.5833 1018.1613,-77.6504 1025.8297,-84.961 1028.715,-78.5833"/>
</g>
<!-- Node32 -->
<g id="node32" class="node">
<title>Node32</title>
<g id="a_node32"><a xlink:href="_l_f_s_t_k_toggle_button_8h.xhtml" target="_top" xlink:title=" ">
<polygon fill="none" stroke="#000000" points="1562.263,-57.5 1562.263,-77.5 1677.184,-77.5 1677.184,-57.5 1562.263,-57.5"/>
<text text-anchor="middle" x="1619.7235" y="-64.5" font-family="Helvetica,sans-Serif" font-size="10.00" fill="#000000">LFSTKToggleButton.h</text>
</a>
</g>
</g>
<!-- Node1&#45;&gt;Node32 -->
<g id="edge40" class="edge">
<title>Node1&#45;&gt;Node32</title>
<path fill="none" stroke="#191970" d="M1166.4815,-120.385C1243.1167,-113.1835 1404.6151,-97.3295 1551.8782,-78.059"/>
<polygon fill="#191970" stroke="#191970" points="1552.548,-81.5011 1562.0054,-76.7254 1551.634,-74.5611 1552.548,-81.5011"/>
</g>
<!-- Node33 -->
<g id="node33" class="node">
<title>Node33</title>
<g id="a_node33"><a xlink:href="_l_f_s_t_k_scroll_bar_8h.xhtml" target="_top" xlink:title=" ">
<polygon fill="none" stroke="#000000" points="1694.721,-57.5 1694.721,-77.5 1790.726,-77.5 1790.726,-57.5 1694.721,-57.5"/>
<text text-anchor="middle" x="1742.7235" y="-64.5" font-family="Helvetica,sans-Serif" font-size="10.00" fill="#000000">LFSTKScrollBar.h</text>
</a>
</g>
</g>
<!-- Node1&#45;&gt;Node33 -->
<g id="edge41" class="edge">
<title>Node1&#45;&gt;Node33</title>
<path fill="none" stroke="#191970" d="M1166.4855,-122.3325C1260.5405,-117.4497 1485.7347,-104.0358 1684.5305,-78.0459"/>
<polygon fill="#191970" stroke="#191970" points="1685.1199,-81.4986 1694.5753,-76.7189 1684.203,-74.5589 1685.1199,-81.4986"/>
</g>
<!-- Node34 -->
<g id="node34" class="node">
<title>Node34</title>
<g id="a_node34"><a xlink:href="_l_f_s_t_k_list_gadget_8h.xhtml" target="_top" xlink:title=" ">
<polygon fill="none" stroke="#000000" points="1808.8215,-57.5 1808.8215,-77.5 1912.6255,-77.5 1912.6255,-57.5 1808.8215,-57.5"/>
<text text-anchor="middle" x="1860.7235" y="-64.5" font-family="Helvetica,sans-Serif" font-size="10.00" fill="#000000">LFSTKListGadget.h</text>
</a>
</g>
</g>
<!-- Node1&#45;&gt;Node34 -->
<g id="edge42" class="edge">
<title>Node1&#45;&gt;Node34</title>
<path fill="none" stroke="#191970" d="M1166.6961,-123.002C1274.1499,-119.0824 1554.4115,-106.8514 1798.4065,-78.0513"/>
<polygon fill="#191970" stroke="#191970" points="1799.0161,-81.5035 1808.5314,-76.8441 1798.1873,-74.5527 1799.0161,-81.5035"/>
</g>
<!-- Node35 -->
<g id="node35" class="node">
<title>Node35</title>
<g id="a_node35"><a xlink:href="_l_f_s_t_k_file_dialog_8h.xhtml" target="_top" xlink:title=" ">
<polygon fill="none" stroke="#000000" points="1930.777,-57.5 1930.777,-77.5 2030.67,-77.5 2030.67,-57.5 1930.777,-57.5"/>
<text text-anchor="middle" x="1980.7235" y="-64.5" font-family="Helvetica,sans-Serif" font-size="10.00" fill="#000000">LFSTKFileDialog.h</text>
</a>
</g>
</g>
<!-- Node1&#45;&gt;Node35 -->
<g id="edge43" class="edge">
<title>Node1&#45;&gt;Node35</title>
<path fill="none" stroke="#191970" d="M1166.5537,-123.748C1286.9701,-121.3326 1627.5986,-111.8993 1920.6061,-78.0052"/>
<polygon fill="#191970" stroke="#191970" points="1921.0451,-81.4778 1930.5712,-76.8408 1920.2326,-74.5251 1921.0451,-81.4778"/>
</g>
<!-- Node36 -->
<g id="node36" class="node">
<title>Node36</title>
<g id="a_node36"><a xlink:href="_l_f_s_t_k_font_dialog_8h.xhtml" target="_top" xlink:title=" ">
<polygon fill="none" stroke="#000000" points="2048.827,-57.5 2048.827,-77.5 2152.62,-77.5 2152.62,-57.5 2048.827,-57.5"/>
<text text-anchor="middle" x="2100.7235" y="-64.5" font-family="Helvetica,sans-Serif" font-size="10.00" fill="#000000">LFSTKFontDialog.h</text>
</a>
</g>
</g>
<!-- Node1&#45;&gt;Node36 -->
<g id="edge44" class="edge">
<title>Node1&#45;&gt;Node36</title>
<path fill="none" stroke="#191970" d="M1166.7729,-124.1271C1299.0616,-122.6263 1697.9652,-115.2019 2038.4814,-78.0148"/>
<polygon fill="#191970" stroke="#191970" points="2038.9824,-81.4809 2048.5385,-76.9059 2038.2152,-74.5231 2038.9824,-81.4809"/>
</g>
<!-- Node37 -->
<g id="node37" class="node">
<title>Node37</title>
<g id="a_node37"><a xlink:href="_l_f_s_t_k_multi_line_edit_8h.xhtml" target="_top" xlink:title=" ">
<polygon fill="none" stroke="#000000" points="819.3835,-57.5 819.3835,-77.5 932.0635,-77.5 932.0635,-57.5 819.3835,-57.5"/>
<text text-anchor="middle" x="875.7235" y="-64.5" font-family="Helvetica,sans-Serif" font-size="10.00" fill="#000000">LFSTKMultiLineEdit.h</text>
</a>
</g>
</g>
<!-- Node1&#45;&gt;Node37 -->
<g id="edge45" class="edge">
<title>Node1&#45;&gt;Node37</title>
<path fill="none" stroke="#191970" d="M1078.3099,-114.4408C1036.6337,-104.7841 973.5942,-90.1774 928.92,-79.826"/>
<polygon fill="#191970" stroke="#191970" points="929.6481,-76.4021 919.1161,-77.5544 928.068,-83.2214 929.6481,-76.4021"/>
</g>
<!-- Node38 -->
<g id="node38" class="node">
<title>Node38</title>
<g id="a_node38"><a xlink:href="_l_f_s_t_k_tool_window_8h.xhtml" target="_top" xlink:title=" ">
<polygon fill="none" stroke="#000000" points="2170.497,-57.5 2170.497,-77.5 2280.95,-77.5 2280.95,-57.5 2170.497,-57.5"/>
<text text-anchor="middle" x="2225.7235" y="-64.5" font-family="Helvetica,sans-Serif" font-size="10.00" fill="#000000">LFSTKToolWindow.h</text>
</a>
</g>
</g>
<!-- Node1&#45;&gt;Node38 -->
<g id="edge49" class="edge">
<title>Node1&#45;&gt;Node38</title>
<path fill="none" stroke="#191970" d="M1166.4957,-123.2028C1336.7614,-118.1621 1944.7927,-99.1529 2160.3116,-78.0158"/>
<polygon fill="#191970" stroke="#191970" points="2160.6775,-81.4968 2170.2744,-77.0078 2159.9728,-74.5323 2160.6775,-81.4968"/>
</g>
<!-- Node39 -->
<g id="node39" class="node">
<title>Node39</title>
<g id="a_node39"><a xlink:href="_l_f_s_t_k_menu_8h.xhtml" target="_top" xlink:title=" ">
<polygon fill="none" stroke="#000000" points="2298.494,-57.5 2298.494,-77.5 2378.953,-77.5 2378.953,-57.5 2298.494,-57.5"/>
<text text-anchor="middle" x="2338.7235" y="-64.5" font-family="Helvetica,sans-Serif" font-size="10.00" fill="#000000">LFSTKMenu.h</text>
</a>
</g>
</g>
<!-- Node1&#45;&gt;Node39 -->
<g id="edge50" class="edge">
<title>Node1&#45;&gt;Node39</title>
<path fill="none" stroke="#191970" d="M1166.5463,-123.743C1350.1726,-120.4855 2046.2555,-106.5693 2288.2948,-77.9464"/>
<polygon fill="#191970" stroke="#191970" points="2288.9402,-81.3936 2298.4405,-76.7039 2288.0892,-74.4455 2288.9402,-81.3936"/>
</g>
<!-- Node40 -->
<g id="node40" class="node">
<title>Node40</title>
<g id="a_node40"><a xlink:href="_l_f_s_t_k_menu_item_8h.xhtml" target="_top" xlink:title=" ">
<polygon fill="none" stroke="#000000" points="2396.771,-57.5 2396.771,-77.5 2496.676,-77.5 2496.676,-57.5 2396.771,-57.5"/>
<text text-anchor="middle" x="2446.7235" y="-64.5" font-family="Helvetica,sans-Serif" font-size="10.00" fill="#000000">LFSTKMenuItem.h</text>
</a>
</g>
</g>
<!-- Node1&#45;&gt;Node40 -->
<g id="edge51" class="edge">
<title>Node1&#45;&gt;Node40</title>
<path fill="none" stroke="#191970" d="M1166.5946,-123.692C1359.8797,-120.0838 2123.1097,-104.4958 2386.3013,-77.9828"/>
<polygon fill="#191970" stroke="#191970" points="2386.995,-81.4296 2396.5795,-76.9143 2386.2712,-74.4671 2386.995,-81.4296"/>
</g>
<!-- Node12 -->
<g id="node12" class="node">
<title>Node12</title>
<g id="a_node12"><a xlink:title=" ">
<polygon fill="none" stroke="#bfbfbf" points="502.2225,-.5 502.2225,-20.5 553.2245,-20.5 553.2245,-.5 502.2225,-.5"/>
<text text-anchor="middle" x="527.7235" y="-7.5" font-family="Helvetica,sans-Serif" font-size="10.00" fill="#000000">Imlib2.h</text>
</a>
</g>
</g>
<!-- Node11&#45;&gt;Node12 -->
<g id="edge11" class="edge">
<title>Node11&#45;&gt;Node12</title>
<path fill="none" stroke="#191970" d="M596.706,-57.3095C584.0443,-48.7177 565.7088,-36.2758 551.1235,-26.3786"/>
<polygon fill="#191970" stroke="#191970" points="552.851,-23.3211 542.611,-20.6022 548.9205,-29.1135 552.851,-23.3211"/>
</g>
<!-- Node13&#45;&gt;Node3 -->
<g id="edge14" class="edge">
<title>Node13&#45;&gt;Node3</title>
<path fill="none" stroke="#191970" d="M735.6333,-57.3095C721.9392,-48.6366 702.0509,-36.0407 686.3538,-26.0992"/>
<polygon fill="#191970" stroke="#191970" points="687.9953,-22.9959 677.6744,-20.6022 684.2499,-28.9097 687.9953,-22.9959"/>
</g>
<!-- Node14 -->
<g id="node14" class="node">
<title>Node14</title>
<g id="a_node14"><a xlink:title=" ">
<polygon fill="none" stroke="#bfbfbf" points="570.9965,-.5 570.9965,-20.5 616.4505,-20.5 616.4505,-.5 570.9965,-.5"/>
<text text-anchor="middle" x="593.7235" y="-7.5" font-family="Helvetica,sans-Serif" font-size="10.00" fill="#000000">stdio.h</text>
</a>
</g>
</g>
<!-- Node13&#45;&gt;Node14 -->
<g id="edge13" class="edge">
<title>Node13&#45;&gt;Node14</title>
<path fill="none" stroke="#191970" d="M723.84,-57.4408C696.5788,-47.606 655.086,-32.6371 626.3156,-22.2579"/>
<polygon fill="#191970" stroke="#191970" points="627.3083,-18.8953 616.7139,-18.794 624.9327,-25.4799 627.3083,-18.8953"/>
</g>
<!-- Node15 -->
<g id="node15" class="node">
<title>Node15</title>
<g id="a_node15"><a xlink:title=" ">
<polygon fill="none" stroke="#bfbfbf" points="707.168,-.5 707.168,-20.5 764.279,-20.5 764.279,-.5 707.168,-.5"/>
<text text-anchor="middle" x="735.7235" y="-7.5" font-family="Helvetica,sans-Serif" font-size="10.00" fill="#000000">algorithm</text>
</a>
</g>
</g>
<!-- Node13&#45;&gt;Node15 -->
<g id="edge15" class="edge">
<title>Node13&#45;&gt;Node15</title>
<path fill="none" stroke="#191970" d="M748.863,-57.3095C746.7698,-49.8524 743.8625,-39.4951 741.3147,-30.4186"/>
<polygon fill="#191970" stroke="#191970" points="744.6316,-29.2842 738.5592,-20.6022 737.8921,-31.176 744.6316,-29.2842"/>
</g>
<!-- Node16 -->
<g id="node16" class="node">
<title>Node16</title>
<g id="a_node16"><a xlink:title=" ">
<polygon fill="none" stroke="#bfbfbf" points="1046.1105,-.5 1046.1105,-20.5 1089.3365,-20.5 1089.3365,-.5 1046.1105,-.5"/>
<text text-anchor="middle" x="1067.7235" y="-7.5" font-family="Helvetica,sans-Serif" font-size="10.00" fill="#000000">vector</text>
</a>
</g>
</g>
<!-- Node13&#45;&gt;Node16 -->
<g id="edge16" class="edge">
<title>Node13&#45;&gt;Node16</title>
<path fill="none" stroke="#191970" d="M801.9248,-58.502C804.9009,-57.9884 807.8509,-57.4844 810.7235,-57 907.8843,-40.6172 936.2263,-45.0911 1035.964,-20.857"/>
<polygon fill="#191970" stroke="#191970" points="1036.9726,-24.2132 1045.8436,-18.4205 1035.2964,-17.4168 1036.9726,-24.2132"/>
</g>
<!-- Node17 -->
<g id="node17" class="node">
<title>Node17</title>
<g id="a_node17"><a xlink:title=" ">
<polygon fill="none" stroke="#bfbfbf" points="781.887,-.5 781.887,-20.5 829.56,-20.5 829.56,-.5 781.887,-.5"/>
<text text-anchor="middle" x="805.7235" y="-7.5" font-family="Helvetica,sans-Serif" font-size="10.00" fill="#000000">stdlib.h</text>
</a>
</g>
</g>
<!-- Node13&#45;&gt;Node17 -->
<g id="edge17" class="edge">
<title>Node13&#45;&gt;Node17</title>
<path fill="none" stroke="#191970" d="M761.3776,-57.3095C769.0566,-49.204 779.9817,-37.672 789.0663,-28.0826"/>
<polygon fill="#191970" stroke="#191970" points="791.8163,-30.2689 796.153,-20.6022 786.7346,-25.4547 791.8163,-30.2689"/>
</g>
<!-- Node18 -->
<g id="node18" class="node">
<title>Node18</title>
<g id="a_node18"><a xlink:title=" ">
<polygon fill="none" stroke="#bfbfbf" points="847.166,-.5 847.166,-20.5 884.281,-20.5 884.281,-.5 847.166,-.5"/>
<text text-anchor="middle" x="865.7235" y="-7.5" font-family="Helvetica,sans-Serif" font-size="10.00" fill="#000000">ftw.h</text>
</a>
</g>
</g>
<!-- Node13&#45;&gt;Node18 -->
<g id="edge18" class="edge">
<title>Node13&#45;&gt;Node18</title>
<path fill="none" stroke="#191970" d="M771.842,-57.4408C790.1621,-48.2807 817.3901,-34.6667 837.8123,-24.4556"/>
<polygon fill="#191970" stroke="#191970" points="839.5616,-27.4941 846.9406,-19.8914 836.4311,-21.2331 839.5616,-27.4941"/>
</g>
<!-- Node19 -->
<g id="node19" class="node">
<title>Node19</title>
<g id="a_node19"><a xlink:title=" ">
<polygon fill="none" stroke="#bfbfbf" points="902.328,-.5 902.328,-20.5 961.119,-20.5 961.119,-.5 902.328,-.5"/>
<text text-anchor="middle" x="931.7235" y="-7.5" font-family="Helvetica,sans-Serif" font-size="10.00" fill="#000000">functional</text>
</a>
</g>
</g>
<!-- Node13&#45;&gt;Node19 -->
<g id="edge19" class="edge">
<title>Node13&#45;&gt;Node19</title>
<path fill="none" stroke="#191970" d="M783.4895,-57.4408C813.8558,-47.8248 859.7222,-33.3004 892.3852,-22.9571"/>
<polygon fill="#191970" stroke="#191970" points="893.5896,-26.2471 902.0664,-19.8914 891.4763,-19.5737 893.5896,-26.2471"/>
</g>
<!-- Node20 -->
<g id="node20" class="node">
<title>Node20</title>
<g id="a_node20"><a xlink:title=" ">
<polygon fill="none" stroke="#bfbfbf" points="979.332,-.5 979.332,-20.5 1028.115,-20.5 1028.115,-.5 979.332,-.5"/>
<text text-anchor="middle" x="1003.7235" y="-7.5" font-family="Helvetica,sans-Serif" font-size="10.00" fill="#000000">string.h</text>
</a>
</g>
</g>
<!-- Node13&#45;&gt;Node20 -->
<g id="edge20" class="edge">
<title>Node13&#45;&gt;Node20</title>
<path fill="none" stroke="#191970" d="M801.8061,-58.1392C844.0183,-49.9512 906.1795,-37.1987 969.5224,-20.8755"/>
<polygon fill="#191970" stroke="#191970" points="970.489,-24.2406 979.2843,-18.3335 968.725,-17.4665 970.489,-24.2406"/>
</g>
<!-- Node21&#45;&gt;Node4 -->
<g id="edge26" class="edge">
<title>Node21&#45;&gt;Node4</title>
<path fill="none" stroke="#191970" d="M185.9271,-57.8227C149.9483,-49.8362 98.472,-37.5669 45.226,-20.8793"/>
<polygon fill="#191970" stroke="#191970" points="46.2094,-17.5193 35.6189,-17.8256 44.0889,-24.1905 46.2094,-17.5193"/>
</g>
<!-- Node21&#45;&gt;Node6 -->
<g id="edge24" class="edge">
<title>Node21&#45;&gt;Node6</title>
<path fill="none" stroke="#191970" d="M204.3694,-57.4408C177.7814,-47.6632 137.3938,-32.811 109.1903,-22.4394"/>
<polygon fill="#191970" stroke="#191970" points="110.3586,-19.1399 99.7651,-18.9734 107.9426,-25.7098 110.3586,-19.1399"/>
</g>
<!-- Node21&#45;&gt;Node7 -->
<g id="edge25" class="edge">
<title>Node21&#45;&gt;Node7</title>
<path fill="none" stroke="#191970" d="M217.0635,-57.3095C204.7033,-48.7177 186.8044,-36.2758 172.5664,-26.3786"/>
<polygon fill="#191970" stroke="#191970" points="174.4654,-23.4361 164.2565,-20.6022 170.4699,-29.1839 174.4654,-23.4361"/>
</g>
<!-- Node22 -->
<g id="node22" class="node">
<title>Node22</title>
<g id="a_node22"><a xlink:title=" ">
<polygon fill="none" stroke="#bfbfbf" points="281.9385,-.5 281.9385,-20.5 343.5085,-20.5 343.5085,-.5 281.9385,-.5"/>
<text text-anchor="middle" x="312.7235" y="-7.5" font-family="Helvetica,sans-Serif" font-size="10.00" fill="#000000">X11/Xlib.h</text>
</a>
</g>
</g>
<!-- Node21&#45;&gt;Node22 -->
<g id="edge22" class="edge">
<title>Node21&#45;&gt;Node22</title>
<path fill="none" stroke="#191970" d="M246.2047,-57.3095C258.4142,-48.7177 276.0948,-36.2758 290.1592,-26.3786"/>
<polygon fill="#191970" stroke="#191970" points="292.2039,-29.2195 298.3677,-20.6022 288.1754,-23.4949 292.2039,-29.2195"/>
</g>
<!-- Node23 -->
<g id="node23" class="node">
<title>Node23</title>
<g id="a_node23"><a xlink:title=" ">
<polygon fill="none" stroke="#bfbfbf" points="199.549,-.5 199.549,-20.5 263.898,-20.5 263.898,-.5 199.549,-.5"/>
<text text-anchor="middle" x="231.7235" y="-7.5" font-family="Helvetica,sans-Serif" font-size="10.00" fill="#000000">X11/Xutil.h</text>
</a>
</g>
</g>
<!-- Node21&#45;&gt;Node23 -->
<g id="edge23" class="edge">
<title>Node21&#45;&gt;Node23</title>
<path fill="none" stroke="#191970" d="M231.7235,-57.3095C231.7235,-49.9335 231.7235,-39.72 231.7235,-30.715"/>
<polygon fill="#191970" stroke="#191970" points="235.2236,-30.6022 231.7235,-20.6022 228.2236,-30.6023 235.2236,-30.6022"/>
</g>
<!-- Node24&#45;&gt;Node12 -->
<g id="edge29" class="edge">
<title>Node24&#45;&gt;Node12</title>
<path fill="none" stroke="#191970" d="M517.0476,-57.3095C518.7484,-49.8524 521.1106,-39.4951 523.1807,-30.4186"/>
<polygon fill="#191970" stroke="#191970" points="526.6082,-31.1302 525.4195,-20.6022 519.7834,-29.5736 526.6082,-31.1302"/>
</g>
<!-- Node24&#45;&gt;Node22 -->
<g id="edge28" class="edge">
<title>Node24&#45;&gt;Node22</title>
<path fill="none" stroke="#191970" d="M479.0749,-57.4408C443.9787,-47.5374 390.4327,-32.4278 353.6238,-22.0412"/>
<polygon fill="#191970" stroke="#191970" points="354.2896,-18.5924 343.7149,-19.2451 352.3886,-25.3294 354.2896,-18.5924"/>
</g>
<!-- Node26&#45;&gt;Node14 -->
<g id="edge34" class="edge">
<title>Node26&#45;&gt;Node14</title>
<path fill="none" stroke="#191970" d="M444.6212,-57.4443C473.4352,-48.827 516.1298,-35.8958 561.0993,-21.4735"/>
<polygon fill="#191970" stroke="#191970" points="562.2795,-24.7705 570.7257,-18.3743 560.1342,-18.1073 562.2795,-24.7705"/>
</g>
<!-- Node26&#45;&gt;Node22 -->
<g id="edge32" class="edge">
<title>Node26&#45;&gt;Node22</title>
<path fill="none" stroke="#191970" d="M393.2031,-57.3095C378.1523,-48.5556 356.2302,-35.8049 339.0651,-25.8211"/>
<polygon fill="#191970" stroke="#191970" points="340.4962,-22.6046 330.0923,-20.6022 336.9767,-28.6555 340.4962,-22.6046"/>
</g>
<!-- Node26&#45;&gt;Node23 -->
<g id="edge33" class="edge">
<title>Node26&#45;&gt;Node23</title>
<path fill="none" stroke="#191970" d="M379.1339,-57.4408C349.573,-48.0275 305.2413,-33.9107 272.915,-23.6169"/>
<polygon fill="#191970" stroke="#191970" points="273.8884,-20.2537 263.2978,-20.5544 271.7644,-26.9237 273.8884,-20.2537"/>
</g>
<!-- Node27 -->
<g id="node27" class="node">
<title>Node27</title>
<g id="a_node27"><a xlink:title=" ">
<polygon fill="none" stroke="#bfbfbf" points="361.3675,-.5 361.3675,-20.5 484.0795,-20.5 484.0795,-.5 361.3675,-.5"/>
<text text-anchor="middle" x="422.7235" y="-7.5" font-family="Helvetica,sans-Serif" font-size="10.00" fill="#000000">X11/extensions/shape.h</text>
</a>
</g>
</g>
<!-- Node26&#45;&gt;Node27 -->
<g id="edge35" class="edge">
<title>Node26&#45;&gt;Node27</title>
<path fill="none" stroke="#191970" d="M412.8689,-57.3095C414.4388,-49.8524 416.6193,-39.4951 418.5301,-30.4186"/>
<polygon fill="#191970" stroke="#191970" points="421.9615,-31.1088 420.5967,-20.6022 415.1116,-29.6667 421.9615,-31.1088"/>
</g>
<!-- Node30 -->
<g id="node30" class="node">
<title>Node30</title>
<g id="a_node30"><a xlink:title=" ">
<polygon fill="none" stroke="#bfbfbf" points="1107.501,-.5 1107.501,-20.5 1147.946,-20.5 1147.946,-.5 1107.501,-.5"/>
<text text-anchor="middle" x="1127.7235" y="-7.5" font-family="Helvetica,sans-Serif" font-size="10.00" fill="#000000">string</text>
</a>
</g>
</g>
<!-- Node29&#45;&gt;Node30 -->
<g id="edge38" class="edge">
<title>Node29&#45;&gt;Node30</title>
<path fill="none" stroke="#191970" d="M1019.0186,-57.4408C1041.0056,-47.9464 1074.0737,-33.6669 1097.9622,-23.3515"/>
<polygon fill="#191970" stroke="#191970" points="1099.4672,-26.514 1107.2603,-19.3364 1096.6921,-20.0876 1099.4672,-26.514"/>
</g>
<!-- Node31 -->
<g id="node31" class="node">
<title>Node31</title>
<g id="a_node31"><a xlink:title=" ">
<polygon fill="none" stroke="#bfbfbf" points="1165.824,-.5 1165.824,-20.5 1239.623,-20.5 1239.623,-.5 1165.824,-.5"/>
<text text-anchor="middle" x="1202.7235" y="-7.5" font-family="Helvetica,sans-Serif" font-size="10.00" fill="#000000">X11/Xatom.h</text>
</a>
</g>
</g>
<!-- Node29&#45;&gt;Node31 -->
<g id="edge39" class="edge">
<title>Node29&#45;&gt;Node31</title>
<path fill="none" stroke="#191970" d="M1032.2544,-57.4408C1066.8814,-47.9058 1119.0344,-33.5448 1156.5318,-23.2195"/>
<polygon fill="#191970" stroke="#191970" points="1157.4982,-26.5837 1166.2102,-20.5544 1155.6398,-19.8349 1157.4982,-26.5837"/>
</g>
<!-- Node37&#45;&gt;Node16 -->
<g id="edge48" class="edge">
<title>Node37&#45;&gt;Node16</title>
<path fill="none" stroke="#191970" d="M912.3122,-57.4433C942.9917,-48.8971 988.1622,-36.0512 1036.3994,-21.0067"/>
<polygon fill="#191970" stroke="#191970" points="1037.5901,-24.3014 1046.0843,-17.9691 1035.4952,-17.6222 1037.5901,-24.3014"/>
</g>
<!-- Node37&#45;&gt;Node30 -->
<g id="edge46" class="edge">
<title>Node37&#45;&gt;Node30</title>
<path fill="none" stroke="#191970" d="M932.1623,-58.0196C975.2626,-50.2611 1036.2223,-38.1749 1097.424,-21.1039"/>
<polygon fill="#191970" stroke="#191970" points="1098.5787,-24.4146 1107.2459,-18.3212 1096.6705,-17.6797 1098.5787,-24.4146"/>
</g>
<!-- Node37&#45;&gt;Node31 -->
<g id="edge47" class="edge">
<title>Node37&#45;&gt;Node31</title>
<path fill="none" stroke="#191970" d="M932.0734,-58.3628C1001.2141,-47.1251 1113.6151,-28.7624 1155.6972,-21.052"/>
<polygon fill="#191970" stroke="#191970" points="1156.4337,-24.4748 1165.6075,-19.1746 1155.1307,-17.5972 1156.4337,-24.4748"/>
</g>
</g>
</svg>
        <g id="navigator" transform="translate(0 0)" fill="#404254">
                <rect fill="#f2f5e9" fill-opacity="0.5" stroke="#606060" stroke-width=".5" x="0" y="0" width="60" height="60"/>
                <use id="zoomplus" xlink:href="#zoomPlus" x="17" y="9" onmousedown="handleZoom(evt,'in')"/>
                <use id="zoomminus" xlink:href="#zoomMin" x="42" y="9" onmousedown="handleZoom(evt,'out')"/>
                <use id="reset" xlink:href="#resetDef" x="30" y="36" onmousedown="handleReset()"/>
                <g id="arrowUp" xlink:href="#dirArrow" transform="translate(30 24)" onmousedown="handlePan(0,-1)">
                  <use xlink:href="#rim" fill="#404040">
                        <set attributeName="fill" to="#808080" begin="arrowUp.mouseover" end="arrowUp.mouseout"/>
                  </use>
                  <path fill="none" stroke="white" stroke-width="1.5" d="M0,-3.0v7 M-2.5,-0.5L0,-3.0L2.5,-0.5"/>
                </g>
                <g id="arrowRight" xlink:href="#dirArrow" transform="rotate(90) translate(36 -43)" onmousedown="handlePan(1,0)">
                  <use xlink:href="#rim" fill="#404040">
                        <set attributeName="fill" to="#808080" begin="arrowRight.mouseover" end="arrowRight.mouseout"/>
                  </use>
                  <path fill="none" stroke="white" stroke-width="1.5" d="M0,-3.0v7 M-2.5,-0.5L0,-3.0L2.5,-0.5"/>
                </g>
                <g id="arrowDown" xlink:href="#dirArrow" transform="rotate(180) translate(-30 -48)" onmousedown="handlePan(0,1)">
                  <use xlink:href="#rim" fill="#404040">
                        <set attributeName="fill" to="#808080" begin="arrowDown.mouseover" end="arrowDown.mouseout"/>
                  </use>
                  <path fill="none" stroke="white" stroke-width="1.5" d="M0,-3.0v7 M-2.5,-0.5L0,-3.0L2.5,-0.5"/>
                </g>
                <g id="arrowLeft" xlink:href="#dirArrow" transform="rotate(270) translate(-36 17)" onmousedown="handlePan(-1,0)">
                  <use xlink:href="#rim" fill="#404040">
                        <set attributeName="fill" to="#808080" begin="arrowLeft.mouseover" end="arrowLeft.mouseout"/>
                  </use>
                  <path fill="none" stroke="white" stroke-width="1.5" d="M0,-3.0v7 M-2.5,-0.5L0,-3.0L2.5,-0.5"/>
                </g>
        </g>
        <svg viewBox="0 0 15 15" width="100%" height="30px" preserveAspectRatio="xMaxYMin meet">
         <g id="arrow_out" transform="scale(0.3 0.3)">
          <a xlink:href="_l_f_s_t_k_globals_8h__incl_org.svg" target="_base">
           <rect id="button" ry="5" rx="5" y="6" x="6" height="38" width="38"
                fill="#f2f5e9" fill-opacity="0.5" stroke="#606060" stroke-width="1.0"/>
           <path id="arrow"
             d="M 11.500037,31.436501 C 11.940474,20.09759 22.043105,11.32322 32.158766,21.979434 L 37.068811,17.246167 C 37.068811,17.246167 37.088388,32 37.088388,32 L 22.160133,31.978069 C 22.160133,31.978069 26.997745,27.140456 26.997745,27.140456 C 18.528582,18.264221 13.291696,25.230495 11.500037,31.436501 z"
             style="fill:#404040;"/>
          </a>
         </g>
        </svg>
</svg>
