<?xml version="1.0" encoding="UTF-8" standalone="no"?>
<!DOCTYPE svg PUBLIC "-//W3C//DTD SVG 1.1//EN"
 "http://www.w3.org/Graphics/SVG/1.1/DTD/svg11.dtd">
<!-- Generated by graphviz version 2.40.1 (20161225.0304)
 -->
<!-- Title: LFSTKFindClass.h Pages: 1 -->
<svg width="526pt" height="86pt"
 viewBox="0.00 0.00 526.12 86.00" xmlns="http://www.w3.org/2000/svg" xmlns:xlink="http://www.w3.org/1999/xlink">
<g id="graph0" class="graph" transform="scale(1 1) rotate(0) translate(4 82)">
<title>LFSTKFindClass.h</title>
<!-- Node1 -->
<g id="node1" class="node">
<title>Node1</title>
<g id="a_node1"><a xlink:title=" ">
<polygon fill="#bfbfbf" stroke="#000000" points="213.779,-57.5 213.779,-77.5 313.675,-77.5 313.675,-57.5 213.779,-57.5"/>
<text text-anchor="middle" x="263.727" y="-64.5" font-family="Helvetica,sans-Serif" font-size="10.00" fill="#000000">LFSTKFindClass.h</text>
</a>
</g>
</g>
<!-- Node2 -->
<g id="node2" class="node">
<title>Node2</title>
<g id="a_node2"><a xlink:title=" ">
<polygon fill="none" stroke="#bfbfbf" points="0,-.5 0,-20.5 45.454,-20.5 45.454,-.5 0,-.5"/>
<text text-anchor="middle" x="22.727" y="-7.5" font-family="Helvetica,sans-Serif" font-size="10.00" fill="#000000">stdio.h</text>
</a>
</g>
</g>
<!-- Node1&#45;&gt;Node2 -->
<g id="edge1" class="edge">
<title>Node1&#45;&gt;Node2</title>
<path fill="none" stroke="#191970" d="M213.5581,-57.779C173.2517,-49.6441 115.0323,-37.167 55.6436,-21.0653"/>
<polygon fill="#191970" stroke="#191970" points="56.2867,-17.6125 45.7171,-18.3426 54.4351,-24.3632 56.2867,-17.6125"/>
</g>
<!-- Node3 -->
<g id="node3" class="node">
<title>Node3</title>
<g id="a_node3"><a xlink:title=" ">
<polygon fill="none" stroke="#bfbfbf" points="63.5605,-.5 63.5605,-20.5 117.8935,-20.5 117.8935,-.5 63.5605,-.5"/>
<text text-anchor="middle" x="90.727" y="-7.5" font-family="Helvetica,sans-Serif" font-size="10.00" fill="#000000">iostream</text>
</a>
</g>
</g>
<!-- Node1&#45;&gt;Node3 -->
<g id="edge2" class="edge">
<title>Node1&#45;&gt;Node3</title>
<path fill="none" stroke="#191970" d="M233.1963,-57.4408C203.7866,-47.7509 159.2497,-33.0768 127.8139,-22.7194"/>
<polygon fill="#191970" stroke="#191970" points="128.6966,-19.3252 118.1036,-19.52 126.506,-25.9736 128.6966,-19.3252"/>
</g>
<!-- Node4 -->
<g id="node4" class="node">
<title>Node4</title>
<g id="a_node4"><a xlink:title=" ">
<polygon fill="none" stroke="#bfbfbf" points="136.1715,-.5 136.1715,-20.5 193.2825,-20.5 193.2825,-.5 136.1715,-.5"/>
<text text-anchor="middle" x="164.727" y="-7.5" font-family="Helvetica,sans-Serif" font-size="10.00" fill="#000000">algorithm</text>
</a>
</g>
</g>
<!-- Node1&#45;&gt;Node4 -->
<g id="edge3" class="edge">
<title>Node1&#45;&gt;Node4</title>
<path fill="none" stroke="#191970" d="M246.0278,-57.3095C230.8235,-48.5556 208.6776,-35.8049 191.3374,-25.8211"/>
<polygon fill="#191970" stroke="#191970" points="192.6856,-22.5587 182.273,-20.6022 189.1928,-28.6251 192.6856,-22.5587"/>
</g>
<!-- Node5 -->
<g id="node5" class="node">
<title>Node5</title>
<g id="a_node5"><a xlink:title=" ">
<polygon fill="none" stroke="#bfbfbf" points="211.114,-.5 211.114,-20.5 254.34,-20.5 254.34,-.5 211.114,-.5"/>
<text text-anchor="middle" x="232.727" y="-7.5" font-family="Helvetica,sans-Serif" font-size="10.00" fill="#000000">vector</text>
</a>
</g>
</g>
<!-- Node1&#45;&gt;Node5 -->
<g id="edge4" class="edge">
<title>Node1&#45;&gt;Node5</title>
<path fill="none" stroke="#191970" d="M258.1848,-57.3095C253.997,-49.6093 248.1273,-38.8166 243.0793,-29.5349"/>
<polygon fill="#191970" stroke="#191970" points="246.0737,-27.7149 238.2212,-20.6022 239.9243,-31.0593 246.0737,-27.7149"/>
</g>
<!-- Node6 -->
<g id="node6" class="node">
<title>Node6</title>
<g id="a_node6"><a xlink:title=" ">
<polygon fill="none" stroke="#bfbfbf" points="271.8905,-.5 271.8905,-20.5 319.5635,-20.5 319.5635,-.5 271.8905,-.5"/>
<text text-anchor="middle" x="295.727" y="-7.5" font-family="Helvetica,sans-Serif" font-size="10.00" fill="#000000">stdlib.h</text>
</a>
</g>
</g>
<!-- Node1&#45;&gt;Node6 -->
<g id="edge5" class="edge">
<title>Node1&#45;&gt;Node6</title>
<path fill="none" stroke="#191970" d="M269.448,-57.3095C273.7709,-49.6093 279.83,-38.8166 285.0408,-29.5349"/>
<polygon fill="#191970" stroke="#191970" points="288.2121,-31.0355 290.0556,-20.6022 282.1082,-27.6087 288.2121,-31.0355"/>
</g>
<!-- Node7 -->
<g id="node7" class="node">
<title>Node7</title>
<g id="a_node7"><a xlink:title=" ">
<polygon fill="none" stroke="#bfbfbf" points="337.1695,-.5 337.1695,-20.5 374.2845,-20.5 374.2845,-.5 337.1695,-.5"/>
<text text-anchor="middle" x="355.727" y="-7.5" font-family="Helvetica,sans-Serif" font-size="10.00" fill="#000000">ftw.h</text>
</a>
</g>
</g>
<!-- Node1&#45;&gt;Node7 -->
<g id="edge6" class="edge">
<title>Node1&#45;&gt;Node7</title>
<path fill="none" stroke="#191970" d="M280.1748,-57.3095C294.1732,-48.6366 314.5035,-36.0407 330.5494,-26.0992"/>
<polygon fill="#191970" stroke="#191970" points="332.7643,-28.8442 339.4216,-20.6022 329.0776,-22.8938 332.7643,-28.8442"/>
</g>
<!-- Node8 -->
<g id="node8" class="node">
<title>Node8</title>
<g id="a_node8"><a xlink:title=" ">
<polygon fill="none" stroke="#bfbfbf" points="392.3315,-.5 392.3315,-20.5 451.1225,-20.5 451.1225,-.5 392.3315,-.5"/>
<text text-anchor="middle" x="421.727" y="-7.5" font-family="Helvetica,sans-Serif" font-size="10.00" fill="#000000">functional</text>
</a>
</g>
</g>
<!-- Node1&#45;&gt;Node8 -->
<g id="edge7" class="edge">
<title>Node1&#45;&gt;Node8</title>
<path fill="none" stroke="#191970" d="M291.6105,-57.4408C317.366,-48.1492 355.8244,-34.275 384.2558,-24.0181"/>
<polygon fill="#191970" stroke="#191970" points="385.6381,-27.2403 393.8569,-20.5544 383.2626,-20.6557 385.6381,-27.2403"/>
</g>
<!-- Node9 -->
<g id="node9" class="node">
<title>Node9</title>
<g id="a_node9"><a xlink:title=" ">
<polygon fill="none" stroke="#bfbfbf" points="469.3355,-.5 469.3355,-20.5 518.1185,-20.5 518.1185,-.5 469.3355,-.5"/>
<text text-anchor="middle" x="493.727" y="-7.5" font-family="Helvetica,sans-Serif" font-size="10.00" fill="#000000">string.h</text>
</a>
</g>
</g>
<!-- Node1&#45;&gt;Node9 -->
<g id="edge8" class="edge">
<title>Node1&#45;&gt;Node9</title>
<path fill="none" stroke="#191970" d="M309.8847,-57.4612C347.5628,-49.0613 402.3796,-36.376 459.3616,-20.9674"/>
<polygon fill="#191970" stroke="#191970" points="460.5426,-24.2733 469.2699,-18.2662 458.7013,-17.5197 460.5426,-24.2733"/>
</g>
</g>
</svg>
