<?xml version="1.0" encoding="UTF-8" standalone="no"?>
<!DOCTYPE svg PUBLIC "-//W3C//DTD SVG 1.1//EN"
 "http://www.w3.org/Graphics/SVG/1.1/DTD/svg11.dtd">
<!-- Generated by graphviz version 2.40.1 (20161225.0304)
 -->
<!-- Title: LFSTKLib.cpp Pages: 1 -->
<svg width="648pt" height="86pt"
 viewBox="0.00 0.00 648.46 86.00" xmlns="http://www.w3.org/2000/svg" xmlns:xlink="http://www.w3.org/1999/xlink">
<g id="graph0" class="graph" transform="scale(1 1) rotate(0) translate(4 82)">
<title>LFSTKLib.cpp</title>
<!-- Node1 -->
<g id="node1" class="node">
<title>Node1</title>
<g id="a_node1"><a xlink:title=" ">
<polygon fill="#bfbfbf" stroke="#000000" points="243.832,-57.5 243.832,-77.5 323.181,-77.5 323.181,-57.5 243.832,-57.5"/>
<text text-anchor="middle" x="283.5065" y="-64.5" font-family="Helvetica,sans-Serif" font-size="10.00" fill="#000000">LFSTKLib.cpp</text>
</a>
</g>
</g>
<!-- Node2 -->
<g id="node2" class="node">
<title>Node2</title>
<g id="a_node2"><a xlink:title=" ">
<polygon fill="none" stroke="#bfbfbf" points="0,-.5 0,-20.5 51.013,-20.5 51.013,-.5 0,-.5"/>
<text text-anchor="middle" x="25.5065" y="-7.5" font-family="Helvetica,sans-Serif" font-size="10.00" fill="#000000">unistd.h</text>
</a>
</g>
</g>
<!-- Node1&#45;&gt;Node2 -->
<g id="edge1" class="edge">
<title>Node1&#45;&gt;Node2</title>
<path fill="none" stroke="#191970" d="M243.5902,-60.3975C200.6067,-52.4878 130.0522,-38.7514 60.8107,-21.1786"/>
<polygon fill="#191970" stroke="#191970" points="61.6084,-17.77 51.0522,-18.6737 59.868,-24.5502 61.6084,-17.77"/>
</g>
<!-- Node3 -->
<g id="node3" class="node">
<title>Node3</title>
<g id="a_node3"><a xlink:title=" ">
<polygon fill="none" stroke="#bfbfbf" points="68.67,-.5 68.67,-20.5 116.343,-20.5 116.343,-.5 68.67,-.5"/>
<text text-anchor="middle" x="92.5065" y="-7.5" font-family="Helvetica,sans-Serif" font-size="10.00" fill="#000000">stdlib.h</text>
</a>
</g>
</g>
<!-- Node1&#45;&gt;Node3 -->
<g id="edge2" class="edge">
<title>Node1&#45;&gt;Node3</title>
<path fill="none" stroke="#191970" d="M248.6103,-57.467C218.6175,-48.7911 173.9695,-35.7518 126.488,-21.26"/>
<polygon fill="#191970" stroke="#191970" points="127.2246,-17.8252 116.6381,-18.2451 125.1758,-24.5187 127.2246,-17.8252"/>
</g>
<!-- Node4 -->
<g id="node4" class="node">
<title>Node4</title>
<g id="a_node4"><a xlink:title=" ">
<polygon fill="none" stroke="#bfbfbf" points="134.7795,-.5 134.7795,-20.5 180.2335,-20.5 180.2335,-.5 134.7795,-.5"/>
<text text-anchor="middle" x="157.5065" y="-7.5" font-family="Helvetica,sans-Serif" font-size="10.00" fill="#000000">stdio.h</text>
</a>
</g>
</g>
<!-- Node1&#45;&gt;Node4 -->
<g id="edge3" class="edge">
<title>Node1&#45;&gt;Node4</title>
<path fill="none" stroke="#191970" d="M261.2703,-57.4408C241.2414,-48.3801 211.5794,-34.9615 189.093,-24.7891"/>
<polygon fill="#191970" stroke="#191970" points="190.498,-21.5833 179.9443,-20.6504 187.6127,-27.961 190.498,-21.5833"/>
</g>
<!-- Node5 -->
<g id="node5" class="node">
<title>Node5</title>
<g id="a_node5"><a xlink:title=" ">
<polygon fill="none" stroke="#bfbfbf" points="198.115,-.5 198.115,-20.5 246.898,-20.5 246.898,-.5 198.115,-.5"/>
<text text-anchor="middle" x="222.5065" y="-7.5" font-family="Helvetica,sans-Serif" font-size="10.00" fill="#000000">string.h</text>
</a>
</g>
</g>
<!-- Node1&#45;&gt;Node5 -->
<g id="edge4" class="edge">
<title>Node1&#45;&gt;Node5</title>
<path fill="none" stroke="#191970" d="M272.6009,-57.3095C263.7531,-49.0419 251.0901,-37.2093 240.7097,-27.5096"/>
<polygon fill="#191970" stroke="#191970" points="243.0139,-24.8724 233.3177,-20.6022 238.2346,-29.987 243.0139,-24.8724"/>
</g>
<!-- Node6 -->
<g id="node6" class="node">
<title>Node6</title>
<g id="a_node6"><a xlink:title=" ">
<polygon fill="none" stroke="#bfbfbf" points="264.949,-.5 264.949,-20.5 302.064,-20.5 302.064,-.5 264.949,-.5"/>
<text text-anchor="middle" x="283.5065" y="-7.5" font-family="Helvetica,sans-Serif" font-size="10.00" fill="#000000">ftw.h</text>
</a>
</g>
</g>
<!-- Node1&#45;&gt;Node6 -->
<g id="edge5" class="edge">
<title>Node1&#45;&gt;Node6</title>
<path fill="none" stroke="#191970" d="M283.5065,-57.3095C283.5065,-49.9335 283.5065,-39.72 283.5065,-30.715"/>
<polygon fill="#191970" stroke="#191970" points="287.0066,-30.6022 283.5065,-20.6022 280.0066,-30.6023 287.0066,-30.6022"/>
</g>
<!-- Node7 -->
<g id="node7" class="node">
<title>Node7</title>
<g id="a_node7"><a xlink:title=" ">
<polygon fill="none" stroke="#bfbfbf" points="320.5555,-.5 320.5555,-20.5 380.4575,-20.5 380.4575,-.5 320.5555,-.5"/>
<text text-anchor="middle" x="350.5065" y="-7.5" font-family="Helvetica,sans-Serif" font-size="10.00" fill="#000000">fnmatch.h</text>
</a>
</g>
</g>
<!-- Node1&#45;&gt;Node7 -->
<g id="edge6" class="edge">
<title>Node1&#45;&gt;Node7</title>
<path fill="none" stroke="#191970" d="M295.4848,-57.3095C305.2982,-48.9608 319.3845,-36.9769 330.8474,-27.2249"/>
<polygon fill="#191970" stroke="#191970" points="333.2833,-29.7479 338.6319,-20.6022 328.7474,-24.4162 333.2833,-29.7479"/>
</g>
<!-- Node8 -->
<g id="node8" class="node">
<title>Node8</title>
<g id="a_node8"><a xlink:title=" ">
<polygon fill="none" stroke="#bfbfbf" points="398.1695,-.5 398.1695,-20.5 440.8435,-20.5 440.8435,-.5 398.1695,-.5"/>
<text text-anchor="middle" x="419.5065" y="-7.5" font-family="Helvetica,sans-Serif" font-size="10.00" fill="#000000">fcntl.h</text>
</a>
</g>
</g>
<!-- Node1&#45;&gt;Node8 -->
<g id="edge7" class="edge">
<title>Node1&#45;&gt;Node8</title>
<path fill="none" stroke="#191970" d="M307.5075,-57.4408C330.1268,-47.9606 364.1289,-33.7097 388.7325,-23.3979"/>
<polygon fill="#191970" stroke="#191970" points="390.1152,-26.6134 397.985,-19.52 387.4094,-20.1575 390.1152,-26.6134"/>
</g>
<!-- Node9 -->
<g id="node9" class="node">
<title>Node9</title>
<g id="a_node9"><a xlink:title=" ">
<polygon fill="none" stroke="#bfbfbf" points="458.891,-.5 458.891,-20.5 512.122,-20.5 512.122,-.5 458.891,-.5"/>
<text text-anchor="middle" x="485.5065" y="-7.5" font-family="Helvetica,sans-Serif" font-size="10.00" fill="#000000">jpeglib.h</text>
</a>
</g>
</g>
<!-- Node1&#45;&gt;Node9 -->
<g id="edge8" class="edge">
<title>Node1&#45;&gt;Node9</title>
<path fill="none" stroke="#191970" d="M319.8064,-57.4517C351.4203,-48.6738 398.7392,-35.4714 449.0235,-21.1184"/>
<polygon fill="#191970" stroke="#191970" points="450.1263,-24.4434 458.7793,-18.3298 448.2025,-17.713 450.1263,-24.4434"/>
</g>
<!-- Node10 -->
<g id="node10" class="node">
<title>Node10</title>
<g id="a_node10"><a xlink:title=" ">
<polygon fill="none" stroke="#bfbfbf" points="530.555,-.5 530.555,-20.5 640.458,-20.5 640.458,-.5 530.555,-.5"/>
<text text-anchor="middle" x="585.5065" y="-7.5" font-family="Helvetica,sans-Serif" font-size="10.00" fill="#000000">lfstk/LFSTKGlobals.h</text>
</a>
</g>
</g>
<!-- Node1&#45;&gt;Node10 -->
<g id="edge9" class="edge">
<title>Node1&#45;&gt;Node10</title>
<path fill="none" stroke="#191970" d="M323.2983,-59.9896C374.0203,-50.4163 462.3082,-33.7527 522.2877,-22.432"/>
<polygon fill="#191970" stroke="#191970" points="523.223,-25.8174 532.4003,-20.5233 521.9247,-18.9388 523.223,-25.8174"/>
</g>
</g>
</svg>
