<?xml version="1.0" encoding="UTF-8" standalone="no"?>
<!DOCTYPE svg PUBLIC "-//W3C//DTD SVG 1.1//EN"
 "http://www.w3.org/Graphics/SVG/1.1/DTD/svg11.dtd">
<!-- Generated by graphviz version 2.40.1 (20161225.0304)
 -->
<!-- Title: LFSTK_lineEditClass::LFSTK_setBuffer Pages: 1 -->
<svg width="603pt" height="218pt"
 viewBox="0.00 0.00 602.81 218.26" xmlns="http://www.w3.org/2000/svg" xmlns:xlink="http://www.w3.org/1999/xlink">
<g id="graph0" class="graph" transform="scale(1 1) rotate(0) translate(4 214.2551)">
<title>LFSTK_lineEditClass::LFSTK_setBuffer</title>
<!-- Node1 -->
<g id="node1" class="node">
<title>Node1</title>
<g id="a_node1"><a xlink:title=" ">
<polygon fill="#bfbfbf" stroke="#000000" points="484.357,-75.7551 484.357,-107.7551 594.81,-107.7551 594.81,-75.7551 484.357,-75.7551"/>
<text text-anchor="start" x="492.357" y="-94.7551" font-family="Helvetica,sans-Serif" font-size="10.00" fill="#000000">LFSTK_lineEditClass</text>
<text text-anchor="middle" x="539.5835" y="-82.7551" font-family="Helvetica,sans-Serif" font-size="10.00" fill="#000000">::LFSTK_setBuffer</text>
</a>
</g>
</g>
<!-- Node2 -->
<g id="node2" class="node">
<title>Node2</title>
<g id="a_node2"><a xlink:href="class_l_f_s_t_k__line_edit_class_a499c645100977efb8a63ec1695b41e2b.xhtml#a499c645100977efb8a63ec1695b41e2b" target="_top" xlink:title=" ">
<polygon fill="none" stroke="#000000" points="330.126,-177.7551 330.126,-209.7551 440.579,-209.7551 440.579,-177.7551 330.126,-177.7551"/>
<text text-anchor="start" x="338.126" y="-196.7551" font-family="Helvetica,sans-Serif" font-size="10.00" fill="#000000">LFSTK_lineEditClass</text>
<text text-anchor="middle" x="385.3525" y="-184.7551" font-family="Helvetica,sans-Serif" font-size="10.00" fill="#000000">::keyRelease</text>
</a>
</g>
</g>
<!-- Node1&#45;&gt;Node2 -->
<g id="edge1" class="edge">
<title>Node1&#45;&gt;Node2</title>
<path fill="none" stroke="#191970" d="M516.2057,-115.1996C498.6842,-131.8026 473.4935,-153.7085 448.357,-168.7551 442.9045,-172.0189 436.949,-175.0182 430.9451,-177.7193"/>
<polygon fill="#191970" stroke="#191970" points="518.917,-117.4475 523.6888,-107.988 514.0595,-112.4071 518.917,-117.4475"/>
</g>
<!-- Node3 -->
<g id="node3" class="node">
<title>Node3</title>
<g id="a_node3"><a xlink:href="class_l_f_s_t_k__line_edit_class_af610951625203a6d75bce118b2b94386.xhtml#af610951625203a6d75bce118b2b94386" target="_top" xlink:title=" ">
<polygon fill="none" stroke="#000000" points="327.347,-126.7551 327.347,-158.7551 443.358,-158.7551 443.358,-126.7551 327.347,-126.7551"/>
<text text-anchor="start" x="335.347" y="-145.7551" font-family="Helvetica,sans-Serif" font-size="10.00" fill="#000000">LFSTK_lineEditClass</text>
<text text-anchor="middle" x="385.3525" y="-133.7551" font-family="Helvetica,sans-Serif" font-size="10.00" fill="#000000">::LFSTK_lineEditClass</text>
</a>
</g>
</g>
<!-- Node1&#45;&gt;Node3 -->
<g id="edge2" class="edge">
<title>Node1&#45;&gt;Node3</title>
<path fill="none" stroke="#191970" d="M481.2187,-111.0547C465.5894,-116.2229 448.8662,-121.7528 433.8347,-126.7233"/>
<polygon fill="#191970" stroke="#191970" points="482.3883,-114.3544 490.7838,-107.8918 480.1906,-107.7084 482.3883,-114.3544"/>
</g>
<!-- Node4 -->
<g id="node4" class="node">
<title>Node4</title>
<g id="a_node4"><a xlink:href="class_l_f_s_t_k__file_dialog_class_aa8804989d381def9acb2c99d47d6dc3d.xhtml#aa8804989d381def9acb2c99d47d6dc3d" target="_top" xlink:title=" ">
<polygon fill="none" stroke="#000000" points="324.852,-24.7551 324.852,-56.7551 445.853,-56.7551 445.853,-24.7551 324.852,-24.7551"/>
<text text-anchor="start" x="332.852" y="-43.7551" font-family="Helvetica,sans-Serif" font-size="10.00" fill="#000000">LFSTK_fileDialogClass</text>
<text text-anchor="middle" x="385.3525" y="-31.7551" font-family="Helvetica,sans-Serif" font-size="10.00" fill="#000000">::LFSTK_setWorkingDir</text>
</a>
</g>
</g>
<!-- Node1&#45;&gt;Node4 -->
<g id="edge3" class="edge">
<title>Node1&#45;&gt;Node4</title>
<path fill="none" stroke="#191970" d="M481.2187,-72.4554C465.5894,-67.2873 448.8662,-61.7573 433.8347,-56.7868"/>
<polygon fill="#191970" stroke="#191970" points="480.1906,-75.8018 490.7838,-75.6184 482.3883,-69.1557 480.1906,-75.8018"/>
</g>
<!-- Node6 -->
<g id="node6" class="node">
<title>Node6</title>
<g id="a_node6"><a xlink:href="class_l_f_s_t_k__file_dialog_class_a789cade9437906181e31a243c85d52e5.xhtml#a789cade9437906181e31a243c85d52e5" target="_top" xlink:title=" ">
<polygon fill="none" stroke="#000000" points="163.953,-1.7551 163.953,-33.7551 282.734,-33.7551 282.734,-1.7551 163.953,-1.7551"/>
<text text-anchor="start" x="171.953" y="-20.7551" font-family="Helvetica,sans-Serif" font-size="10.00" fill="#000000">LFSTK_fileDialogClass</text>
<text text-anchor="middle" x="223.3435" y="-8.7551" font-family="Helvetica,sans-Serif" font-size="10.00" fill="#000000">::select</text>
</a>
</g>
</g>
<!-- Node1&#45;&gt;Node6 -->
<g id="edge9" class="edge">
<title>Node1&#45;&gt;Node6</title>
<path fill="none" stroke="#191970" d="M520.2105,-68.109C503.4181,-49.6222 477.3116,-25.3413 448.357,-14.7551 394.969,4.7643 329.5815,1.1265 283.0806,-5.6506"/>
<polygon fill="#191970" stroke="#191970" points="517.5852,-70.4238 526.8182,-75.6203 522.8411,-65.8003 517.5852,-70.4238"/>
</g>
<!-- Node8 -->
<g id="node8" class="node">
<title>Node8</title>
<g id="a_node8"><a xlink:href="class_l_f_s_t_k__file_dialog_class_af77972b8a46616ba4c7bec555b2b0a14.xhtml#af77972b8a46616ba4c7bec555b2b0a14" target="_top" xlink:title=" ">
<polygon fill="none" stroke="#000000" points="322.348,-75.7551 322.348,-107.7551 448.357,-107.7551 448.357,-75.7551 322.348,-75.7551"/>
<text text-anchor="start" x="330.348" y="-94.7551" font-family="Helvetica,sans-Serif" font-size="10.00" fill="#000000">LFSTK_fileDialogClass</text>
<text text-anchor="middle" x="385.3525" y="-82.7551" font-family="Helvetica,sans-Serif" font-size="10.00" fill="#000000">::LFSTK_showFileDialog</text>
</a>
</g>
</g>
<!-- Node1&#45;&gt;Node8 -->
<g id="edge7" class="edge">
<title>Node1&#45;&gt;Node8</title>
<path fill="none" stroke="#191970" d="M474.1425,-91.7551C465.6827,-91.7551 457.031,-91.7551 448.6074,-91.7551"/>
<polygon fill="#191970" stroke="#191970" points="474.3382,-95.2552 484.3382,-91.7551 474.3382,-88.2552 474.3382,-95.2552"/>
</g>
<!-- Node5 -->
<g id="node5" class="node">
<title>Node5</title>
<g id="a_node5"><a xlink:href="class_l_f_s_t_k__file_dialog_class_aacf1d4b61cbb5b40d06f591ea96f9ea7.xhtml#aacf1d4b61cbb5b40d06f591ea96f9ea7" target="_top" xlink:title=" ">
<polygon fill="none" stroke="#000000" points="160.339,-63.7551 160.339,-95.7551 286.348,-95.7551 286.348,-63.7551 160.339,-63.7551"/>
<text text-anchor="start" x="168.339" y="-82.7551" font-family="Helvetica,sans-Serif" font-size="10.00" fill="#000000">LFSTK_fileDialogClass</text>
<text text-anchor="middle" x="223.3435" y="-70.7551" font-family="Helvetica,sans-Serif" font-size="10.00" fill="#000000">::LFSTK_showFileDialog</text>
</a>
</g>
</g>
<!-- Node4&#45;&gt;Node5 -->
<g id="edge4" class="edge">
<title>Node4&#45;&gt;Node5</title>
<path fill="none" stroke="#191970" d="M314.7984,-57.7394C305.3376,-60.0169 295.6834,-62.3409 286.3636,-64.5844"/>
<polygon fill="#191970" stroke="#191970" points="315.6623,-61.1315 324.5654,-55.3882 314.024,-54.3259 315.6623,-61.1315"/>
</g>
<!-- Node4&#45;&gt;Node6 -->
<g id="edge5" class="edge">
<title>Node4&#45;&gt;Node6</title>
<path fill="none" stroke="#191970" d="M314.5297,-30.7005C303.9622,-29.2003 293.1598,-27.6667 282.8574,-26.2041"/>
<polygon fill="#191970" stroke="#191970" points="314.1727,-34.1849 324.5654,-32.1253 315.1567,-27.2544 314.1727,-34.1849"/>
</g>
<!-- Node7 -->
<g id="node7" class="node">
<title>Node7</title>
<g id="a_node7"><a xlink:href="class_l_f_s_t_k__file_dialog_class_a553ce8e885b0d60cbf515b7b3d1e8b65.xhtml#a553ce8e885b0d60cbf515b7b3d1e8b65" target="_top" xlink:title=" ">
<polygon fill="none" stroke="#000000" points="0,-1.7551 0,-33.7551 124.339,-33.7551 124.339,-1.7551 0,-1.7551"/>
<text text-anchor="start" x="8" y="-20.7551" font-family="Helvetica,sans-Serif" font-size="10.00" fill="#000000">LFSTK_fileDialogClass</text>
<text text-anchor="middle" x="62.1695" y="-8.7551" font-family="Helvetica,sans-Serif" font-size="10.00" fill="#000000">::LFSTK_fileDialogClass</text>
</a>
</g>
</g>
<!-- Node6&#45;&gt;Node7 -->
<g id="edge6" class="edge">
<title>Node6&#45;&gt;Node7</title>
<path fill="none" stroke="#191970" d="M153.7404,-17.7551C144.0012,-17.7551 134.044,-17.7551 124.452,-17.7551"/>
<polygon fill="#191970" stroke="#191970" points="153.7862,-21.2552 163.7862,-17.7551 153.7861,-14.2552 153.7862,-21.2552"/>
</g>
<!-- Node8&#45;&gt;Node5 -->
<g id="edge8" class="edge">
<title>Node8&#45;&gt;Node5</title>
<path fill="none" stroke="#191970" d="M312.2547,-86.3407C303.6721,-85.705 294.9699,-85.0605 286.5386,-84.4359"/>
<polygon fill="#191970" stroke="#191970" points="312.0204,-89.8329 322.2517,-87.0812 312.5376,-82.852 312.0204,-89.8329"/>
</g>
</g>
</svg>
