<?xml version="1.0" encoding="UTF-8" standalone="no"?>
<!DOCTYPE svg PUBLIC "-//W3C//DTD SVG 1.1//EN"
 "http://www.w3.org/Graphics/SVG/1.1/DTD/svg11.dtd">
<!-- Generated by graphviz version 2.40.1 (20161225.0304)
 -->
<!-- Title: LFSTK_imageClass Pages: 1 -->
<!--zoomable 344 -->
<svg id="main" version="1.1" xmlns="http://www.w3.org/2000/svg" xmlns:xlink="http://www.w3.org/1999/xlink" xml:space="preserve" onload="init(evt)">
<style type="text/css"><![CDATA[
.edge:hover path { stroke: red; }
.edge:hover polygon { stroke: red; fill: red; }
]]></style>
<script type="text/javascript"><![CDATA[
var edges = document.getElementsByTagName('g');
if (edges && edges.length) {
  for (var i=0;i<edges.length;i++) {
    if (edges[i].id.substr(0,4)=='edge') {
      edges[i].setAttribute('class','edge');
    }
  }
}
]]></script>
        <defs>
                <circle id="rim" cx="0" cy="0" r="7"/>
                <circle id="rim2" cx="0" cy="0" r="3.5"/>
                <g id="zoomPlus">
                        <use xlink:href="#rim" fill="#404040">
                                <set attributeName="fill" to="#808080" begin="zoomplus.mouseover" end="zoomplus.mouseout"/>
                        </use>
                        <path d="M-4,0h8M0,-4v8" fill="none" stroke="white" stroke-width="1.5" pointer-events="none"/>
                </g>
                <g id="zoomMin">
                        <use xlink:href="#rim" fill="#404040">
                                <set attributeName="fill" to="#808080" begin="zoomminus.mouseover" end="zoomminus.mouseout"/>
                        </use>
                        <path d="M-4,0h8" fill="none" stroke="white" stroke-width="1.5" pointer-events="none"/>
                </g>
                <g id="dirArrow">
                        <path fill="none" stroke="white" stroke-width="1.5" d="M0,-3.0v7 M-2.5,-0.5L0,-3.0L2.5,-0.5"/>
                </g>
               <g id="resetDef">
                       <use xlink:href="#rim2" fill="#404040">
                               <set attributeName="fill" to="#808080" begin="reset.mouseover" end="reset.mouseout"/>
                       </use>
               </g>
        </defs>

<script type="text/javascript">
var viewWidth = 773;
var viewHeight = 344;
var sectionId = 'dynsection-1';
</script>
<script xlink:href="svgpan.js"/>
<svg id="graph" class="graph">
<g id="viewport">
<title>LFSTK_imageClass</title>
<!-- Node1 -->
<g id="node1" class="node">
<title>Node1</title>
<g id="a_node1"><a xlink:title="Image class for LFSToolKit.">
<polygon fill="#bfbfbf" stroke="#000000" points="0,-.5 0,-20.5 104.896,-20.5 104.896,-.5 0,-.5"/>
<text text-anchor="middle" x="52.448" y="-7.5" font-family="Helvetica,sans-Serif" font-size="10.00" fill="#000000">LFSTK_imageClass</text>
</a>
</g>
</g>
<!-- Node2 -->
<g id="node2" class="node">
<title>Node2</title>
<g id="a_node2"><a xlink:href="class_l_f_s_t_k__gadget_class.xhtml" target="_top" xlink:title="Base class for LFSToolKit gadgets.">
<polygon fill="none" stroke="#000000" points="148.3255,-81.5 148.3255,-101.5 256.5705,-101.5 256.5705,-81.5 148.3255,-81.5"/>
<text text-anchor="middle" x="202.448" y="-88.5" font-family="Helvetica,sans-Serif" font-size="10.00" fill="#000000">LFSTK_gadgetClass</text>
</a>
</g>
</g>
<!-- Node2&#45;&gt;Node1 -->
<g id="edge1" class="edge">
<title>Node2&#45;&gt;Node1</title>
<path fill="none" stroke="#191970" d="M152.8532,-78.1691C140.907,-74.0722 128.4304,-69.0206 117.448,-63 96.0785,-51.2852 74.7633,-32.3362 62.6342,-20.693"/>
<polygon fill="#191970" stroke="#191970" points="152.1265,-81.6135 162.7189,-81.3863 154.2967,-74.9584 152.1265,-81.6135"/>
</g>
<!-- Node7 -->
<g id="node7" class="node">
<title>Node7</title>
<g id="a_node7"><a xlink:href="class_l_f_s_t_k__window_class.xhtml" target="_top" xlink:title="Window class for LFSToolKit.">
<polygon fill="none" stroke="#000000" points="392.9455,-.5 392.9455,-20.5 503.9505,-20.5 503.9505,-.5 392.9455,-.5"/>
<text text-anchor="middle" x="448.448" y="-7.5" font-family="Helvetica,sans-Serif" font-size="10.00" fill="#000000">LFSTK_windowClass</text>
</a>
</g>
</g>
<!-- Node2&#45;&gt;Node7 -->
<g id="edge10" class="edge">
<title>Node2&#45;&gt;Node7</title>
<path fill="none" stroke="#9a32cd" stroke-dasharray="5,2" d="M231.3,-76.704C239.2235,-72.4471 247.7503,-67.6842 255.448,-63 271.5873,-53.1789 273.0537,-46.1696 290.533,-39 323.0092,-25.679 361.7713,-18.5668 392.7643,-14.7786"/>
<polygon fill="#9a32cd" stroke="#9a32cd" points="229.5633,-73.6631 222.3614,-81.4337 232.8372,-79.8503 229.5633,-73.6631"/>
<text text-anchor="middle" x="332.4055" y="-54" font-family="Helvetica,sans-Serif" font-size="10.00" fill="#000000"> dropGadget</text>
<text text-anchor="middle" x="332.4055" y="-42" font-family="Helvetica,sans-Serif" font-size="10.00" fill="#000000">popupFromGadget</text>
</g>
<!-- Node12 -->
<g id="node12" class="node">
<title>Node12</title>
<g id="a_node12"><a xlink:href="structmapped_listener.xhtml" target="_top" xlink:title=" ">
<polygon fill="none" stroke="#000000" points="122.6045,-.5 122.6045,-20.5 210.2915,-20.5 210.2915,-.5 122.6045,-.5"/>
<text text-anchor="middle" x="166.448" y="-7.5" font-family="Helvetica,sans-Serif" font-size="10.00" fill="#000000">mappedListener</text>
</a>
</g>
</g>
<!-- Node2&#45;&gt;Node12 -->
<g id="edge16" class="edge">
<title>Node2&#45;&gt;Node12</title>
<path fill="none" stroke="#9a32cd" stroke-dasharray="5,2" d="M153.4071,-78.3558C140.4297,-73.8426 128.9484,-68.5264 125.095,-63 118.9941,-54.2503 120.1346,-48.4431 125.095,-39 129.1498,-31.281 136.3468,-25.2437 143.6123,-20.7521"/>
<polygon fill="#9a32cd" stroke="#9a32cd" points="152.4411,-81.7221 163.0335,-81.4918 154.6094,-75.0664 152.4411,-81.7221"/>
<text text-anchor="middle" x="142.1245" y="-48" font-family="Helvetica,sans-Serif" font-size="10.00" fill="#000000"> gadget</text>
</g>
<!-- Node3 -->
<g id="node3" class="node">
<title>Node3</title>
<g id="a_node3"><a xlink:href="structgadget_struct.xhtml" target="_top" xlink:title=" ">
<polygon fill="none" stroke="#000000" points="286.1035,-158 286.1035,-178 358.7925,-178 358.7925,-158 286.1035,-158"/>
<text text-anchor="middle" x="322.448" y="-165" font-family="Helvetica,sans-Serif" font-size="10.00" fill="#000000">gadgetStruct</text>
</a>
</g>
</g>
<!-- Node3&#45;&gt;Node2 -->
<g id="edge2" class="edge">
<title>Node3&#45;&gt;Node2</title>
<path fill="none" stroke="#9a32cd" stroke-dasharray="5,2" d="M298.246,-152.5712C274.3574,-137.3422 238.5344,-114.5051 218.1398,-101.5035"/>
<polygon fill="#9a32cd" stroke="#9a32cd" points="296.4463,-155.5746 306.7601,-157.999 300.2093,-149.672 296.4463,-155.5746"/>
<text text-anchor="middle" x="294.4015" y="-123" font-family="Helvetica,sans-Serif" font-size="10.00" fill="#000000"> gadgetDetails</text>
</g>
<!-- Node4 -->
<g id="node4" class="node">
<title>Node4</title>
<g id="a_node4"><a xlink:href="structgeometry_struct.xhtml" target="_top" xlink:title=" ">
<polygon fill="none" stroke="#000000" points="534.554,-246.5 534.554,-266.5 618.342,-266.5 618.342,-246.5 534.554,-246.5"/>
<text text-anchor="middle" x="576.448" y="-253.5" font-family="Helvetica,sans-Serif" font-size="10.00" fill="#000000">geometryStruct</text>
</a>
</g>
</g>
<!-- Node4&#45;&gt;Node2 -->
<g id="edge6" class="edge">
<title>Node4&#45;&gt;Node2</title>
<path fill="none" stroke="#9a32cd" stroke-dasharray="5,2" d="M577.4187,-235.8971C578.5448,-201.7306 578.5163,-135.5578 562.448,-120 541.8826,-100.088 333.9683,-104.4519 305.448,-102 289.5989,-100.6375 272.3984,-98.9621 256.675,-97.3531"/>
<polygon fill="#9a32cd" stroke="#9a32cd" points="573.9118,-236.0071 577.0141,-246.1376 580.9063,-236.2836 573.9118,-236.0071"/>
<text text-anchor="middle" x="606.7375" y="-165" font-family="Helvetica,sans-Serif" font-size="10.00" fill="#000000"> gadgetGeom</text>
</g>
<!-- Node4&#45;&gt;Node3 -->
<g id="edge3" class="edge">
<title>Node4&#45;&gt;Node3</title>
<path fill="none" stroke="#9a32cd" stroke-dasharray="5,2" d="M535.0679,-243.2872C492.7326,-229.5952 425.1652,-207.2597 367.448,-186 360.8156,-183.557 353.6907,-180.7792 347.1107,-178.1494"/>
<polygon fill="#9a32cd" stroke="#9a32cd" points="534.1536,-246.6698 544.7452,-246.4086 536.3024,-240.0078 534.1536,-246.6698"/>
<text text-anchor="middle" x="519.3415" y="-219" font-family="Helvetica,sans-Serif" font-size="10.00" fill="#000000"> indicatorGeom</text>
<text text-anchor="middle" x="519.3415" y="-207" font-family="Helvetica,sans-Serif" font-size="10.00" fill="#000000">gadgetGeom</text>
</g>
<!-- Node4&#45;&gt;Node7 -->
<g id="edge8" class="edge">
<title>Node4&#45;&gt;Node7</title>
<path fill="none" stroke="#9a32cd" stroke-dasharray="5,2" d="M622.8032,-242.9988C650.3379,-232.3233 683.0006,-214.3848 699.448,-186 714.1697,-160.5934 708.6856,-146.692 696.448,-120 675.7473,-74.8487 663.3223,-62.2854 619.448,-39 599.8417,-28.5943 546.061,-20.7183 503.9954,-15.9113"/>
<polygon fill="#9a32cd" stroke="#9a32cd" points="621.4975,-239.7497 613.3127,-246.4772 623.9064,-246.3221 621.4975,-239.7497"/>
<text text-anchor="middle" x="733.1175" y="-123" font-family="Helvetica,sans-Serif" font-size="10.00" fill="#000000"> windowGeom</text>
</g>
<!-- Node5 -->
<g id="node5" class="node">
<title>Node5</title>
<g id="a_node5"><a xlink:href="structcolour_struct.xhtml" target="_top" xlink:title=" ">
<polygon fill="none" stroke="#000000" points="287.778,-246.5 287.778,-266.5 357.118,-266.5 357.118,-246.5 287.778,-246.5"/>
<text text-anchor="middle" x="322.448" y="-253.5" font-family="Helvetica,sans-Serif" font-size="10.00" fill="#000000">colourStruct</text>
</a>
</g>
</g>
<!-- Node5&#45;&gt;Node2 -->
<g id="edge18" class="edge">
<title>Node5&#45;&gt;Node2</title>
<path fill="none" stroke="#9a32cd" stroke-dasharray="5,2" d="M278.0993,-243.7184C250.224,-233.1306 216.4628,-215.0198 199.662,-186 184.037,-159.0113 193.14,-120.0293 198.8723,-101.7232"/>
<polygon fill="#9a32cd" stroke="#9a32cd" points="277.0817,-247.0717 287.6762,-247.1552 279.4462,-240.4831 277.0817,-247.0717"/>
<text text-anchor="middle" x="239.341" y="-177" font-family="Helvetica,sans-Serif" font-size="10.00" fill="#000000"> labelBGColour</text>
<text text-anchor="middle" x="239.341" y="-165" font-family="Helvetica,sans-Serif" font-size="10.00" fill="#000000">colourNames</text>
<text text-anchor="middle" x="239.341" y="-153" font-family="Helvetica,sans-Serif" font-size="10.00" fill="#000000">fontColourNames</text>
</g>
<!-- Node5&#45;&gt;Node3 -->
<g id="edge4" class="edge">
<title>Node5&#45;&gt;Node3</title>
<path fill="none" stroke="#9a32cd" stroke-dasharray="5,2" d="M322.448,-236.1978C322.448,-218.0125 322.448,-192.1048 322.448,-178.0337"/>
<polygon fill="#9a32cd" stroke="#9a32cd" points="318.9481,-236.3479 322.448,-246.3479 325.9481,-236.348 318.9481,-236.3479"/>
<text text-anchor="middle" x="337.45" y="-213" font-family="Helvetica,sans-Serif" font-size="10.00" fill="#000000"> colour</text>
</g>
<!-- Node5&#45;&gt;Node7 -->
<g id="edge12" class="edge">
<title>Node5&#45;&gt;Node7</title>
<path fill="none" stroke="#9a32cd" stroke-dasharray="5,2" d="M367.3986,-251.0077C399.0753,-246.3156 437.9816,-238.63 450.448,-228 483.9787,-199.4086 534.2258,-76.0998 510.448,-39 505.1423,-30.7216 496.7597,-24.8154 487.8531,-20.6133"/>
<polygon fill="#9a32cd" stroke="#9a32cd" points="366.8193,-247.5547 357.4106,-252.4258 367.8034,-254.4852 366.8193,-247.5547"/>
<text text-anchor="middle" x="555.0595" y="-123" font-family="Helvetica,sans-Serif" font-size="10.00" fill="#000000"> windowColourNames</text>
</g>
<!-- Node6 -->
<g id="node6" class="node">
<title>Node6</title>
<g id="a_node6"><a xlink:href="structcairo_color.xhtml" target="_top" xlink:title=" ">
<polygon fill="none" stroke="#000000" points="291.6725,-315.5 291.6725,-335.5 353.2235,-335.5 353.2235,-315.5 291.6725,-315.5"/>
<text text-anchor="middle" x="322.448" y="-322.5" font-family="Helvetica,sans-Serif" font-size="10.00" fill="#000000">cairoColor</text>
</a>
</g>
</g>
<!-- Node6&#45;&gt;Node5 -->
<g id="edge5" class="edge">
<title>Node6&#45;&gt;Node5</title>
<path fill="none" stroke="#9a32cd" stroke-dasharray="5,2" d="M322.448,-305.2177C322.448,-292.5684 322.448,-276.8285 322.448,-266.723"/>
<polygon fill="#9a32cd" stroke="#9a32cd" points="318.9481,-305.3188 322.448,-315.3188 325.9481,-305.3188 318.9481,-305.3188"/>
<text text-anchor="middle" x="352.7275" y="-288" font-family="Helvetica,sans-Serif" font-size="10.00" fill="#000000"> RGBAColour</text>
</g>
<!-- Node7&#45;&gt;Node2 -->
<g id="edge7" class="edge">
<title>Node7&#45;&gt;Node2</title>
<path fill="none" stroke="#9a32cd" stroke-dasharray="5,2" d="M382.5183,-13.7857C314.1918,-17.8736 215.6908,-25.9527 203.776,-39 193.4469,-50.3108 196.1029,-69.386 199.1493,-81.1637"/>
<polygon fill="#9a32cd" stroke="#9a32cd" points="383.0071,-17.2632 392.7866,-13.1876 382.5999,-10.2751 383.0071,-17.2632"/>
<text text-anchor="middle" x="230.284" y="-54" font-family="Helvetica,sans-Serif" font-size="10.00" fill="#000000"> contextWC</text>
<text text-anchor="middle" x="230.284" y="-42" font-family="Helvetica,sans-Serif" font-size="10.00" fill="#000000">wc</text>
</g>
<!-- Node8 -->
<g id="node8" class="node">
<title>Node8</title>
<g id="a_node8"><a xlink:href="structmonitor_struct.xhtml" target="_top" xlink:title=" ">
<polygon fill="none" stroke="#000000" points="314.724,-81.5 314.724,-101.5 390.172,-101.5 390.172,-81.5 314.724,-81.5"/>
<text text-anchor="middle" x="352.448" y="-88.5" font-family="Helvetica,sans-Serif" font-size="10.00" fill="#000000">monitorStruct</text>
</a>
</g>
</g>
<!-- Node8&#45;&gt;Node7 -->
<g id="edge9" class="edge">
<title>Node8&#45;&gt;Node7</title>
<path fill="none" stroke="#9a32cd" stroke-dasharray="5,2" d="M367.8351,-73.5953C377.4685,-62.9219 390.46,-49.4596 403.336,-39 411.677,-32.2243 421.7214,-25.7374 430.213,-20.6688"/>
<polygon fill="#9a32cd" stroke="#9a32cd" points="365.1848,-71.3089 361.1804,-81.1178 370.4277,-75.947 365.1848,-71.3089"/>
<text text-anchor="middle" x="423.004" y="-48" font-family="Helvetica,sans-Serif" font-size="10.00" fill="#000000"> monitors</text>
</g>
<!-- Node9 -->
<g id="node9" class="node">
<title>Node9</title>
<g id="a_node9"><a xlink:href="structdrop_data_struct.xhtml" target="_top" xlink:title=" ">
<polygon fill="none" stroke="#000000" points="407.8295,-81.5 407.8295,-101.5 491.0665,-101.5 491.0665,-81.5 407.8295,-81.5"/>
<text text-anchor="middle" x="449.448" y="-88.5" font-family="Helvetica,sans-Serif" font-size="10.00" fill="#000000">dropDataStruct</text>
</a>
</g>
</g>
<!-- Node9&#45;&gt;Node7 -->
<g id="edge11" class="edge">
<title>Node9&#45;&gt;Node7</title>
<path fill="none" stroke="#9a32cd" stroke-dasharray="5,2" d="M449.1973,-71.1972C448.9987,-55.1048 448.7294,-33.2944 448.5736,-20.6754"/>
<polygon fill="#9a32cd" stroke="#9a32cd" points="445.6981,-71.2853 449.3213,-81.2413 452.6975,-71.1988 445.6981,-71.2853"/>
<text text-anchor="middle" x="478.737" y="-48" font-family="Helvetica,sans-Serif" font-size="10.00" fill="#000000"> droppedData</text>
</g>
<!-- Node10 -->
<g id="node10" class="node">
<title>Node10</title>
<g id="a_node10"><a xlink:href="class_l_f_s_t_k__lib.xhtml" target="_top" xlink:title="Library of useful routines for LFSToolKit.">
<polygon fill="none" stroke="#000000" points="574.1125,-81.5 574.1125,-101.5 636.7835,-101.5 636.7835,-81.5 574.1125,-81.5"/>
<text text-anchor="middle" x="605.448" y="-88.5" font-family="Helvetica,sans-Serif" font-size="10.00" fill="#000000">LFSTK_lib</text>
</a>
</g>
</g>
<!-- Node10&#45;&gt;Node7 -->
<g id="edge13" class="edge">
<title>Node10&#45;&gt;Node7</title>
<path fill="none" stroke="#9a32cd" stroke-dasharray="5,2" d="M587.3088,-74.3412C574.4943,-62.9922 556.4585,-48.5065 538.448,-39 523.6636,-31.1964 506.3728,-25.0868 490.92,-20.5602"/>
<polygon fill="#9a32cd" stroke="#9a32cd" points="585.169,-77.126 594.923,-81.2623 589.8774,-71.9461 585.169,-77.126"/>
<text text-anchor="middle" x="593.843" y="-48" font-family="Helvetica,sans-Serif" font-size="10.00" fill="#000000"> globalLib</text>
</g>
<!-- Node11 -->
<g id="node11" class="node">
<title>Node11</title>
<g id="a_node11"><a xlink:href="structargs.xhtml" target="_top" xlink:title=" ">
<polygon fill="none" stroke="#000000" points="654.7245,-158 654.7245,-178 690.1715,-178 690.1715,-158 654.7245,-158"/>
<text text-anchor="middle" x="672.448" y="-165" font-family="Helvetica,sans-Serif" font-size="10.00" fill="#000000">args</text>
</a>
</g>
</g>
<!-- Node11&#45;&gt;Node10 -->
<g id="edge14" class="edge">
<title>Node11&#45;&gt;Node10</title>
<path fill="none" stroke="#9a32cd" stroke-dasharray="5,2" d="M646.1147,-152.6355C634.5526,-145.4468 622.6913,-137.3177 618.664,-132 611.8767,-123.038 608.4901,-110.4405 606.8588,-101.6842"/>
<polygon fill="#9a32cd" stroke="#9a32cd" points="644.3991,-155.6885 654.7633,-157.8873 648.0324,-149.7052 644.3991,-155.6885"/>
<text text-anchor="middle" x="657.34" y="-123" font-family="Helvetica,sans-Serif" font-size="10.00" fill="#000000"> lfsToolKitGlobals</text>
</g>
<!-- Node12&#45;&gt;Node2 -->
<g id="edge15" class="edge">
<title>Node12&#45;&gt;Node2</title>
<path fill="none" stroke="#9a32cd" stroke-dasharray="5,2" d="M162.7774,-30.7673C161.8898,-40.9228 162.3223,-53.1261 167.121,-63 170.7722,-70.5128 177.4565,-76.6903 184.0361,-81.3502"/>
<polygon fill="#9a32cd" stroke="#9a32cd" points="166.2594,-31.1338 164.1145,-20.7584 159.3211,-30.2068 166.2594,-31.1338"/>
<text text-anchor="middle" x="174.1115" y="-48" font-family="Helvetica,sans-Serif" font-size="10.00" fill="#000000"> ml</text>
</g>
<!-- Node13 -->
<g id="node13" class="node">
<title>Node13</title>
<g id="a_node13"><a xlink:href="structbutton_c_b.xhtml" target="_top" xlink:title=" ">
<polygon fill="none" stroke="#000000" points="376.607,-158 376.607,-178 434.289,-178 434.289,-158 376.607,-158"/>
<text text-anchor="middle" x="405.448" y="-165" font-family="Helvetica,sans-Serif" font-size="10.00" fill="#000000">buttonCB</text>
</a>
</g>
</g>
<!-- Node13&#45;&gt;Node2 -->
<g id="edge17" class="edge">
<title>Node13&#45;&gt;Node2</title>
<path fill="none" stroke="#9a32cd" stroke-dasharray="5,2" d="M384.4588,-151.7174C370.0018,-141.24 349.9515,-128.1129 330.448,-120 307.1154,-110.2943 279.9521,-103.6472 256.6666,-99.231"/>
<polygon fill="#9a32cd" stroke="#9a32cd" points="382.5689,-154.6736 392.6826,-157.8301 386.7447,-149.0555 382.5689,-154.6736"/>
<text text-anchor="middle" x="370.895" y="-123" font-family="Helvetica,sans-Serif" font-size="10.00" fill="#000000"> callback</text>
</g>
</g>
</svg>
        <g id="navigator" transform="translate(0 0)" fill="#404254">
                <rect fill="#f2f5e9" fill-opacity="0.5" stroke="#606060" stroke-width=".5" x="0" y="0" width="60" height="60"/>
                <use id="zoomplus" xlink:href="#zoomPlus" x="17" y="9" onmousedown="handleZoom(evt,'in')"/>
                <use id="zoomminus" xlink:href="#zoomMin" x="42" y="9" onmousedown="handleZoom(evt,'out')"/>
                <use id="reset" xlink:href="#resetDef" x="30" y="36" onmousedown="handleReset()"/>
                <g id="arrowUp" xlink:href="#dirArrow" transform="translate(30 24)" onmousedown="handlePan(0,-1)">
                  <use xlink:href="#rim" fill="#404040">
                        <set attributeName="fill" to="#808080" begin="arrowUp.mouseover" end="arrowUp.mouseout"/>
                  </use>
                  <path fill="none" stroke="white" stroke-width="1.5" d="M0,-3.0v7 M-2.5,-0.5L0,-3.0L2.5,-0.5"/>
                </g>
                <g id="arrowRight" xlink:href="#dirArrow" transform="rotate(90) translate(36 -43)" onmousedown="handlePan(1,0)">
                  <use xlink:href="#rim" fill="#404040">
                        <set attributeName="fill" to="#808080" begin="arrowRight.mouseover" end="arrowRight.mouseout"/>
                  </use>
                  <path fill="none" stroke="white" stroke-width="1.5" d="M0,-3.0v7 M-2.5,-0.5L0,-3.0L2.5,-0.5"/>
                </g>
                <g id="arrowDown" xlink:href="#dirArrow" transform="rotate(180) translate(-30 -48)" onmousedown="handlePan(0,1)">
                  <use xlink:href="#rim" fill="#404040">
                        <set attributeName="fill" to="#808080" begin="arrowDown.mouseover" end="arrowDown.mouseout"/>
                  </use>
                  <path fill="none" stroke="white" stroke-width="1.5" d="M0,-3.0v7 M-2.5,-0.5L0,-3.0L2.5,-0.5"/>
                </g>
                <g id="arrowLeft" xlink:href="#dirArrow" transform="rotate(270) translate(-36 17)" onmousedown="handlePan(-1,0)">
                  <use xlink:href="#rim" fill="#404040">
                        <set attributeName="fill" to="#808080" begin="arrowLeft.mouseover" end="arrowLeft.mouseout"/>
                  </use>
                  <path fill="none" stroke="white" stroke-width="1.5" d="M0,-3.0v7 M-2.5,-0.5L0,-3.0L2.5,-0.5"/>
                </g>
        </g>
        <svg viewBox="0 0 15 15" width="100%" height="30px" preserveAspectRatio="xMaxYMin meet">
         <g id="arrow_out" transform="scale(0.3 0.3)">
          <a xlink:href="class_l_f_s_t_k__image_class__coll__graph_org.svg" target="_base">
           <rect id="button" ry="5" rx="5" y="6" x="6" height="38" width="38"
                fill="#f2f5e9" fill-opacity="0.5" stroke="#606060" stroke-width="1.0"/>
           <path id="arrow"
             d="M 11.500037,31.436501 C 11.940474,20.09759 22.043105,11.32322 32.158766,21.979434 L 37.068811,17.246167 C 37.068811,17.246167 37.088388,32 37.088388,32 L 22.160133,31.978069 C 22.160133,31.978069 26.997745,27.140456 26.997745,27.140456 C 18.528582,18.264221 13.291696,25.230495 11.500037,31.436501 z"
             style="fill:#404040;"/>
          </a>
         </g>
        </svg>
</svg>
