<?xml version="1.0" encoding="UTF-8" standalone="no"?>
<!DOCTYPE svg PUBLIC "-//W3C//DTD SVG 1.1//EN"
 "http://www.w3.org/Graphics/SVG/1.1/DTD/svg11.dtd">
<!-- Generated by graphviz version 2.40.1 (20161225.0304)
 -->
<!-- Title: LFSTK_gadgetClass::LFSTK_setColourName Pages: 1 -->
<svg width="617pt" height="558pt"
 viewBox="0.00 0.00 617.27 558.00" xmlns="http://www.w3.org/2000/svg" xmlns:xlink="http://www.w3.org/1999/xlink">
<g id="graph0" class="graph" transform="scale(1 1) rotate(0) translate(4 554)">
<title>LFSTK_gadgetClass::LFSTK_setColourName</title>
<!-- Node1 -->
<g id="node1" class="node">
<title>Node1</title>
<g id="a_node1"><a xlink:title=" ">
<polygon fill="#bfbfbf" stroke="#000000" points="487.153,-135.5 487.153,-167.5 609.275,-167.5 609.275,-135.5 487.153,-135.5"/>
<text text-anchor="start" x="495.153" y="-154.5" font-family="Helvetica,sans-Serif" font-size="10.00" fill="#000000">LFSTK_gadgetClass::</text>
<text text-anchor="middle" x="548.214" y="-142.5" font-family="Helvetica,sans-Serif" font-size="10.00" fill="#000000">LFSTK_setColourName</text>
</a>
</g>
</g>
<!-- Node2 -->
<g id="node2" class="node">
<title>Node2</title>
<g id="a_node2"><a xlink:href="class_l_f_s_t_k__gadget_class_af7a3a7b33909c6560b1cf27033548c46.xhtml#af7a3a7b33909c6560b1cf27033548c46" target="_top" xlink:title=" ">
<polygon fill="none" stroke="#000000" points="332.9105,-259.5 332.9105,-291.5 446.7135,-291.5 446.7135,-259.5 332.9105,-259.5"/>
<text text-anchor="start" x="340.9105" y="-278.5" font-family="Helvetica,sans-Serif" font-size="10.00" fill="#000000">LFSTK_gadgetClass::</text>
<text text-anchor="middle" x="389.812" y="-266.5" font-family="Helvetica,sans-Serif" font-size="10.00" fill="#000000">initGadget</text>
</a>
</g>
</g>
<!-- Node1&#45;&gt;Node2 -->
<g id="edge1" class="edge">
<title>Node1&#45;&gt;Node2</title>
<path fill="none" stroke="#191970" d="M526.1265,-174.9223C507.2881,-194.1491 478.9192,-221.387 451.153,-241.5 442.1797,-248 431.835,-254.175 422.2276,-259.4349"/>
<polygon fill="#191970" stroke="#191970" points="528.6557,-177.3417 533.1009,-167.7245 523.6286,-172.4705 528.6557,-177.3417"/>
</g>
<!-- Node8 -->
<g id="node8" class="node">
<title>Node8</title>
<g id="a_node8"><a xlink:href="class_l_f_s_t_k__line_edit_class_af610951625203a6d75bce118b2b94386.xhtml#af610951625203a6d75bce118b2b94386" target="_top" xlink:title=" ">
<polygon fill="none" stroke="#000000" points="12.779,-211.5 12.779,-243.5 128.79,-243.5 128.79,-211.5 12.779,-211.5"/>
<text text-anchor="start" x="20.779" y="-230.5" font-family="Helvetica,sans-Serif" font-size="10.00" fill="#000000">LFSTK_lineEditClass</text>
<text text-anchor="middle" x="70.7845" y="-218.5" font-family="Helvetica,sans-Serif" font-size="10.00" fill="#000000">::LFSTK_lineEditClass</text>
</a>
</g>
</g>
<!-- Node1&#45;&gt;Node8 -->
<g id="edge13" class="edge">
<title>Node1&#45;&gt;Node8</title>
<path fill="none" stroke="#191970" d="M494.3356,-170.7246C480.4109,-175.1342 465.3427,-179.4243 451.153,-182.5 338.562,-206.9046 204.1555,-218.8873 129.0279,-224.0839"/>
<polygon fill="#191970" stroke="#191970" points="495.8132,-173.9248 504.244,-167.5082 493.6519,-167.2668 495.8132,-173.9248"/>
</g>
<!-- Node9 -->
<g id="node9" class="node">
<title>Node9</title>
<g id="a_node9"><a xlink:href="class_l_f_s_t_k__list_gadget_class_ae3518016f28ec3cd261ad927c5691826.xhtml#ae3518016f28ec3cd261ad927c5691826" target="_top" xlink:title=" ">
<polygon fill="none" stroke="#000000" points="6.6645,-52.5 6.6645,-84.5 134.9045,-84.5 134.9045,-52.5 6.6645,-52.5"/>
<text text-anchor="start" x="14.6645" y="-71.5" font-family="Helvetica,sans-Serif" font-size="10.00" fill="#000000">LFSTK_listGadgetClass</text>
<text text-anchor="middle" x="70.7845" y="-59.5" font-family="Helvetica,sans-Serif" font-size="10.00" fill="#000000">::LFSTK_listGadgetClass</text>
</a>
</g>
</g>
<!-- Node1&#45;&gt;Node9 -->
<g id="edge14" class="edge">
<title>Node1&#45;&gt;Node9</title>
<path fill="none" stroke="#191970" d="M524.64,-128.2726C506.2883,-111.8531 479.2814,-91.1186 451.153,-81.5 345.0245,-45.2091 212.3991,-51.3303 135.0791,-59.5744"/>
<polygon fill="#191970" stroke="#191970" points="522.7105,-131.2541 532.4357,-135.4577 527.4545,-126.1068 522.7105,-131.2541"/>
</g>
<!-- Node11 -->
<g id="node11" class="node">
<title>Node11</title>
<g id="a_node11"><a xlink:href="class_l_f_s_t_k__multi_line_edit_class_a3319d21c84b3437e69bb87dc77531322.xhtml#a3319d21c84b3437e69bb87dc77531322" target="_top" xlink:title=" ">
<polygon fill="none" stroke="#000000" points=".5565,-160.5 .5565,-192.5 141.0125,-192.5 141.0125,-160.5 .5565,-160.5"/>
<text text-anchor="start" x="8.5565" y="-179.5" font-family="Helvetica,sans-Serif" font-size="10.00" fill="#000000">LFSTK_multiLineEditClass</text>
<text text-anchor="middle" x="70.7845" y="-167.5" font-family="Helvetica,sans-Serif" font-size="10.00" fill="#000000">::LFSTK_multiLineEditClass</text>
</a>
</g>
</g>
<!-- Node1&#45;&gt;Node11 -->
<g id="edge15" class="edge">
<title>Node1&#45;&gt;Node11</title>
<path fill="none" stroke="#191970" d="M476.8859,-162.7353C468.2333,-163.818 459.5042,-164.7793 451.153,-165.5 343.2095,-174.8149 217.4652,-176.7095 141.0275,-176.8682"/>
<polygon fill="#191970" stroke="#191970" points="477.5191,-166.1824 486.9811,-161.4157 476.6117,-159.2415 477.5191,-166.1824"/>
</g>
<!-- Node12 -->
<g id="node12" class="node">
<title>Node12</title>
<g id="a_node12"><a xlink:href="class_l_f_s_t_k__scroll_bar_class_a3da4281c24ac345ba32a4636ce2af38b.xhtml#a3da4281c24ac345ba32a4636ce2af38b" target="_top" xlink:title=" ">
<polygon fill="none" stroke="#000000" points="9.7285,-109.5 9.7285,-141.5 131.8405,-141.5 131.8405,-109.5 9.7285,-109.5"/>
<text text-anchor="start" x="17.7285" y="-128.5" font-family="Helvetica,sans-Serif" font-size="10.00" fill="#000000">LFSTK_scrollBarClass</text>
<text text-anchor="middle" x="70.7845" y="-116.5" font-family="Helvetica,sans-Serif" font-size="10.00" fill="#000000">::LFSTK_scrollBarClass</text>
</a>
</g>
</g>
<!-- Node1&#45;&gt;Node12 -->
<g id="edge18" class="edge">
<title>Node1&#45;&gt;Node12</title>
<path fill="none" stroke="#191970" d="M476.5332,-147.5964C382.8083,-142.4923 220.2148,-133.6377 131.9869,-128.833"/>
<polygon fill="#191970" stroke="#191970" points="476.6003,-151.1051 486.7758,-148.1542 476.981,-144.1155 476.6003,-151.1051"/>
</g>
<!-- Node14 -->
<g id="node14" class="node">
<title>Node14</title>
<g id="a_node14"><a xlink:href="class_l_f_s_t_k__gadget_class_a9f37719f8d8e0bc1163ea2781b6002af.xhtml#a9f37719f8d8e0bc1163ea2781b6002af" target="_top" xlink:title=" ">
<polygon fill="none" stroke="#000000" points="177.569,-.5 177.569,-32.5 292.471,-32.5 292.471,-.5 177.569,-.5"/>
<text text-anchor="start" x="185.569" y="-19.5" font-family="Helvetica,sans-Serif" font-size="10.00" fill="#000000">LFSTK_gadgetClass::</text>
<text text-anchor="middle" x="235.02" y="-7.5" font-family="Helvetica,sans-Serif" font-size="10.00" fill="#000000">LFSTK_reloadColours</text>
</a>
</g>
</g>
<!-- Node1&#45;&gt;Node14 -->
<g id="edge16" class="edge">
<title>Node1&#45;&gt;Node14</title>
<path fill="none" stroke="#191970" d="M532.6611,-126.8593C515.7771,-102.3848 486.445,-65.9263 451.153,-47.5 401.925,-21.7976 338.259,-15.3603 292.8014,-14.5558"/>
<polygon fill="#191970" stroke="#191970" points="529.8301,-128.9219 538.3063,-135.2784 535.6441,-125.0235 529.8301,-128.9219"/>
</g>
<!-- Node15 -->
<g id="node15" class="node">
<title>Node15</title>
<g id="a_node15"><a xlink:href="class_l_f_s_t_k__list_gadget_class_ad9b006620b5e9712da9b0ee3ead405de.xhtml#ad9b006620b5e9712da9b0ee3ead405de" target="_top" xlink:title=" ">
<polygon fill="none" stroke="#000000" points="328.471,-90.5 328.471,-122.5 451.153,-122.5 451.153,-90.5 328.471,-90.5"/>
<text text-anchor="start" x="336.471" y="-109.5" font-family="Helvetica,sans-Serif" font-size="10.00" fill="#000000">LFSTK_listGadgetClass</text>
<text text-anchor="middle" x="389.812" y="-97.5" font-family="Helvetica,sans-Serif" font-size="10.00" fill="#000000">::select</text>
</a>
</g>
</g>
<!-- Node1&#45;&gt;Node15 -->
<g id="edge19" class="edge">
<title>Node1&#45;&gt;Node15</title>
<path fill="none" stroke="#191970" d="M481.6655,-132.5944C469.8515,-129.2382 457.652,-125.7725 446.1552,-122.5064"/>
<polygon fill="#191970" stroke="#191970" points="480.8988,-136.015 491.4747,-135.3811 482.8118,-129.2815 480.8988,-136.015"/>
</g>
<!-- Node3 -->
<g id="node3" class="node">
<title>Node3</title>
<g id="a_node3"><a xlink:href="class_l_f_s_t_k__gadget_class_a13d0e1c40a4feae0531c0ce9188bcd62.xhtml#a13d0e1c40a4feae0531c0ce9188bcd62" target="_top" xlink:title=" ">
<polygon fill="none" stroke="#000000" points="178.1185,-262.5 178.1185,-294.5 291.9215,-294.5 291.9215,-262.5 178.1185,-262.5"/>
<text text-anchor="start" x="186.1185" y="-281.5" font-family="Helvetica,sans-Serif" font-size="10.00" fill="#000000">LFSTK_gadgetClass::</text>
<text text-anchor="middle" x="235.02" y="-269.5" font-family="Helvetica,sans-Serif" font-size="10.00" fill="#000000">LFSTK_setCommon</text>
</a>
</g>
</g>
<!-- Node2&#45;&gt;Node3 -->
<g id="edge2" class="edge">
<title>Node2&#45;&gt;Node3</title>
<path fill="none" stroke="#191970" d="M322.5331,-276.8039C312.3472,-277.0013 301.9234,-277.2034 291.9839,-277.396"/>
<polygon fill="#191970" stroke="#191970" points="322.6827,-280.3018 332.613,-276.6086 322.547,-273.3031 322.6827,-280.3018"/>
</g>
<!-- Node4 -->
<g id="node4" class="node">
<title>Node4</title>
<g id="a_node4"><a xlink:href="class_l_f_s_t_k__button_class_a2b46d2136069e61fc8c8ee88519b2a8f.xhtml#a2b46d2136069e61fc8c8ee88519b2a8f" target="_top" xlink:title=" ">
<polygon fill="none" stroke="#000000" points="15.273,-517.5 15.273,-549.5 126.296,-549.5 126.296,-517.5 15.273,-517.5"/>
<text text-anchor="start" x="23.273" y="-536.5" font-family="Helvetica,sans-Serif" font-size="10.00" fill="#000000">LFSTK_buttonClass::</text>
<text text-anchor="middle" x="70.7845" y="-524.5" font-family="Helvetica,sans-Serif" font-size="10.00" fill="#000000">LFSTK_buttonClass</text>
</a>
</g>
</g>
<!-- Node3&#45;&gt;Node4 -->
<g id="edge3" class="edge">
<title>Node3&#45;&gt;Node4</title>
<path fill="none" stroke="#191970" d="M231.4795,-304.7197C223.7438,-351.9702 201.0058,-451.7604 141.569,-508.5 137.1383,-512.7297 131.9485,-516.2489 126.4279,-519.176"/>
<polygon fill="#191970" stroke="#191970" points="234.9628,-305.0955 233.0244,-294.6795 228.0442,-304.0309 234.9628,-305.0955"/>
</g>
<!-- Node5 -->
<g id="node5" class="node">
<title>Node5</title>
<g id="a_node5"><a xlink:href="class_l_f_s_t_k__font_dialog_class_ab7b6a4bca99713646ab6ac77dc34827c.xhtml#ab7b6a4bca99713646ab6ac77dc34827c" target="_top" xlink:title=" ">
<polygon fill="none" stroke="#000000" points="6.665,-466.5 6.665,-498.5 134.904,-498.5 134.904,-466.5 6.665,-466.5"/>
<text text-anchor="start" x="14.665" y="-485.5" font-family="Helvetica,sans-Serif" font-size="10.00" fill="#000000">LFSTK_fontDialogClass</text>
<text text-anchor="middle" x="70.7845" y="-473.5" font-family="Helvetica,sans-Serif" font-size="10.00" fill="#000000">::LFSTK_fontDialogClass</text>
</a>
</g>
</g>
<!-- Node3&#45;&gt;Node5 -->
<g id="edge4" class="edge">
<title>Node3&#45;&gt;Node5</title>
<path fill="none" stroke="#191970" d="M228.0833,-304.5992C216.4995,-343.303 189.6159,-415.8183 141.569,-457.5 137.6311,-460.9162 133.1957,-463.8752 128.5144,-466.4364"/>
<polygon fill="#191970" stroke="#191970" points="231.5492,-305.211 230.9497,-294.6331 224.8219,-303.2761 231.5492,-305.211"/>
</g>
<!-- Node6 -->
<g id="node6" class="node">
<title>Node6</title>
<g id="a_node6"><a xlink:href="class_l_f_s_t_k__image_class_aff24b6452cb0a5d821b81770aa8f58d5.xhtml#aff24b6452cb0a5d821b81770aa8f58d5" target="_top" xlink:title=" ">
<polygon fill="none" stroke="#000000" points="0,-415.5 0,-447.5 141.569,-447.5 141.569,-415.5 0,-415.5"/>
<text text-anchor="start" x="8" y="-434.5" font-family="Helvetica,sans-Serif" font-size="10.00" fill="#000000">LFSTK_imageClass::LFSTK</text>
<text text-anchor="middle" x="70.7845" y="-422.5" font-family="Helvetica,sans-Serif" font-size="10.00" fill="#000000">_imageClass</text>
</a>
</g>
</g>
<!-- Node3&#45;&gt;Node6 -->
<g id="edge5" class="edge">
<title>Node3&#45;&gt;Node6</title>
<path fill="none" stroke="#191970" d="M222.6311,-303.689C207.3108,-332.3964 178.6517,-378.8998 141.569,-406.5 137.0734,-409.846 132.0909,-412.7734 126.912,-415.3282"/>
<polygon fill="#191970" stroke="#191970" points="225.8027,-305.176 227.3083,-294.6886 219.5914,-301.9481 225.8027,-305.176"/>
</g>
<!-- Node7 -->
<g id="node7" class="node">
<title>Node7</title>
<g id="a_node7"><a xlink:href="class_l_f_s_t_k__label_class_a6085feaa122a3d1060351c659889628c.xhtml#a6085feaa122a3d1060351c659889628c" target="_top" xlink:title=" ">
<polygon fill="none" stroke="#000000" points="3.055,-364.5 3.055,-396.5 138.514,-396.5 138.514,-364.5 3.055,-364.5"/>
<text text-anchor="start" x="11.055" y="-383.5" font-family="Helvetica,sans-Serif" font-size="10.00" fill="#000000">LFSTK_labelClass::LFSTK</text>
<text text-anchor="middle" x="70.7845" y="-371.5" font-family="Helvetica,sans-Serif" font-size="10.00" fill="#000000">_labelClass</text>
</a>
</g>
</g>
<!-- Node3&#45;&gt;Node7 -->
<g id="edge6" class="edge">
<title>Node3&#45;&gt;Node7</title>
<path fill="none" stroke="#191970" d="M211.4737,-301.8946C193.5481,-318.6612 167.5981,-340.7916 141.569,-355.5 135.7822,-358.77 129.4918,-361.7293 123.1281,-364.3719"/>
<polygon fill="#191970" stroke="#191970" points="214.2898,-304.046 219.1166,-294.6145 209.4618,-298.9774 214.2898,-304.046"/>
</g>
<!-- Node3&#45;&gt;Node8 -->
<g id="edge7" class="edge">
<title>Node3&#45;&gt;Node8</title>
<path fill="none" stroke="#191970" d="M173.34,-259.3465C156.5623,-254.1366 138.5692,-248.5492 122.4116,-243.5317"/>
<polygon fill="#191970" stroke="#191970" points="172.4667,-262.7402 183.0549,-262.3633 174.5427,-256.0551 172.4667,-262.7402"/>
</g>
<!-- Node3&#45;&gt;Node9 -->
<g id="edge8" class="edge">
<title>Node3&#45;&gt;Node9</title>
<path fill="none" stroke="#191970" d="M227.3963,-252.4795C215.0731,-214.5028 187.4151,-143.7235 141.569,-100.5 134.7981,-94.1164 126.5349,-88.8493 118.0756,-84.5605"/>
<polygon fill="#191970" stroke="#191970" points="224.1351,-253.777 230.4678,-262.2709 230.8142,-251.6817 224.1351,-253.777"/>
</g>
<!-- Node10 -->
<g id="node10" class="node">
<title>Node10</title>
<g id="a_node10"><a xlink:href="class_l_f_s_t_k__menu_item_class_a382a9775dff59f06606ef0b3f43382cc.xhtml#a382a9775dff59f06606ef0b3f43382cc" target="_top" xlink:title=" ">
<polygon fill="none" stroke="#000000" points="6.944,-313.5 6.944,-345.5 134.625,-345.5 134.625,-313.5 6.944,-313.5"/>
<text text-anchor="start" x="14.944" y="-332.5" font-family="Helvetica,sans-Serif" font-size="10.00" fill="#000000">LFSTK_menuItemClass</text>
<text text-anchor="middle" x="70.7845" y="-320.5" font-family="Helvetica,sans-Serif" font-size="10.00" fill="#000000">::LFSTK_menuItemClass</text>
</a>
</g>
</g>
<!-- Node3&#45;&gt;Node10 -->
<g id="edge9" class="edge">
<title>Node3&#45;&gt;Node10</title>
<path fill="none" stroke="#191970" d="M173.34,-297.6535C156.5623,-302.8634 138.5692,-308.4508 122.4116,-313.4683"/>
<polygon fill="#191970" stroke="#191970" points="174.5427,-300.9449 183.0549,-294.6367 172.4667,-294.2598 174.5427,-300.9449"/>
</g>
<!-- Node3&#45;&gt;Node11 -->
<g id="edge10" class="edge">
<title>Node3&#45;&gt;Node11</title>
<path fill="none" stroke="#191970" d="M211.0367,-255.2213C193.0706,-238.7661 167.2596,-217.1207 141.569,-202.5 135.0834,-198.809 127.9768,-195.4727 120.8471,-192.5161"/>
<polygon fill="#191970" stroke="#191970" points="209.0088,-258.1156 218.7108,-262.3726 213.7811,-252.9945 209.0088,-258.1156"/>
</g>
<!-- Node3&#45;&gt;Node12 -->
<g id="edge11" class="edge">
<title>Node3&#45;&gt;Node12</title>
<path fill="none" stroke="#191970" d="M222.5215,-253.5917C207.0981,-225.1873 178.3423,-179.1212 141.569,-151.5 136.5445,-147.726 130.9156,-144.4531 125.0857,-141.6262"/>
<polygon fill="#191970" stroke="#191970" points="219.4622,-255.2937 227.2332,-262.4952 225.6493,-252.0195 219.4622,-255.2937"/>
</g>
<!-- Node13 -->
<g id="node13" class="node">
<title>Node13</title>
<g id="a_node13"><a xlink:href="class_l_f_s_t_k__toggle_button_class_a4cc0929a4d4113b9b40a3bdc54898ab7.xhtml#a4cc0929a4d4113b9b40a3bdc54898ab7" target="_top" xlink:title=" ">
<polygon fill="none" stroke="#000000" points="1.101,-262.5 1.101,-294.5 140.468,-294.5 140.468,-262.5 1.101,-262.5"/>
<text text-anchor="start" x="9.101" y="-281.5" font-family="Helvetica,sans-Serif" font-size="10.00" fill="#000000">LFSTK_toggleButtonClass</text>
<text text-anchor="middle" x="70.7845" y="-269.5" font-family="Helvetica,sans-Serif" font-size="10.00" fill="#000000">::LFSTK_toggleButtonClass</text>
</a>
</g>
</g>
<!-- Node3&#45;&gt;Node13 -->
<g id="edge12" class="edge">
<title>Node3&#45;&gt;Node13</title>
<path fill="none" stroke="#191970" d="M168.0045,-278.5C159.0007,-278.5 149.746,-278.5 140.6938,-278.5"/>
<polygon fill="#191970" stroke="#191970" points="168.0393,-282.0001 178.0393,-278.5 168.0393,-275.0001 168.0393,-282.0001"/>
</g>
<!-- Node14&#45;&gt;Node9 -->
<g id="edge17" class="edge">
<title>Node14&#45;&gt;Node9</title>
<path fill="none" stroke="#191970" d="M174.8452,-35.5525C157.3334,-41.097 138.3849,-47.0965 121.5163,-52.4374"/>
<polygon fill="#191970" stroke="#191970" points="175.9268,-38.8813 184.4038,-32.526 173.8138,-32.2078 175.9268,-38.8813"/>
</g>
<!-- Node15&#45;&gt;Node9 -->
<g id="edge20" class="edge">
<title>Node15&#45;&gt;Node9</title>
<path fill="none" stroke="#191970" d="M318.2891,-97.9808C263.3578,-91.4378 188.1657,-82.4815 135.1165,-76.1627"/>
<polygon fill="#191970" stroke="#191970" points="317.9565,-101.4658 328.3003,-99.1732 318.7845,-94.5149 317.9565,-101.4658"/>
</g>
</g>
</svg>
