<?xml version="1.0" encoding="UTF-8" standalone="no"?>
<!DOCTYPE svg PUBLIC "-//W3C//DTD SVG 1.1//EN"
 "http://www.w3.org/Graphics/SVG/1.1/DTD/svg11.dtd">
<!-- Generated by graphviz version 2.40.1 (20161225.0304)
 -->
<!-- Title: LFSTK_listGadgetClass::freeList Pages: 1 -->
<svg width="950pt" height="187pt"
 viewBox="0.00 0.00 949.91 187.00" xmlns="http://www.w3.org/2000/svg" xmlns:xlink="http://www.w3.org/1999/xlink">
<g id="graph0" class="graph" transform="scale(1 1) rotate(0) translate(4 183)">
<title>LFSTK_listGadgetClass::freeList</title>
<!-- Node1 -->
<g id="node1" class="node">
<title>Node1</title>
<g id="a_node1"><a xlink:title=" ">
<polygon fill="#bfbfbf" stroke="#000000" points="819.225,-45.5 819.225,-77.5 941.907,-77.5 941.907,-45.5 819.225,-45.5"/>
<text text-anchor="start" x="827.225" y="-64.5" font-family="Helvetica,sans-Serif" font-size="10.00" fill="#000000">LFSTK_listGadgetClass</text>
<text text-anchor="middle" x="880.566" y="-52.5" font-family="Helvetica,sans-Serif" font-size="10.00" fill="#000000">::freeList</text>
</a>
</g>
</g>
<!-- Node2 -->
<g id="node2" class="node">
<title>Node2</title>
<g id="a_node2"><a xlink:href="class_l_f_s_t_k__list_gadget_class_abc8e7de85afdd0ddd7639668e579cd4e.xhtml#abc8e7de85afdd0ddd7639668e579cd4e" target="_top" xlink:title=" ">
<polygon fill="none" stroke="#000000" points="654.8445,-93.5 654.8445,-125.5 777.5265,-125.5 777.5265,-93.5 654.8445,-93.5"/>
<text text-anchor="start" x="662.8445" y="-112.5" font-family="Helvetica,sans-Serif" font-size="10.00" fill="#000000">LFSTK_listGadgetClass</text>
<text text-anchor="middle" x="716.1855" y="-100.5" font-family="Helvetica,sans-Serif" font-size="10.00" fill="#000000">::LFSTK_setList</text>
</a>
</g>
</g>
<!-- Node1&#45;&gt;Node2 -->
<g id="edge1" class="edge">
<title>Node1&#45;&gt;Node2</title>
<path fill="none" stroke="#191970" d="M815.3932,-80.5308C800.7706,-84.8007 785.3964,-89.29 771.2334,-93.4257"/>
<polygon fill="#191970" stroke="#191970" points="816.7543,-83.7796 825.3724,-77.6168 814.7922,-77.0602 816.7543,-83.7796"/>
</g>
<!-- Node10 -->
<g id="node10" class="node">
<title>Node10</title>
<g id="a_node10"><a xlink:href="class_l_f_s_t_k__list_gadget_class_addcdb5ba330fd8dd36beb94ea2081dd3.xhtml#addcdb5ba330fd8dd36beb94ea2081dd3" target="_top" xlink:title=" ">
<polygon fill="none" stroke="#000000" points="486.587,-44.5 486.587,-76.5 613.146,-76.5 613.146,-44.5 486.587,-44.5"/>
<text text-anchor="start" x="494.587" y="-63.5" font-family="Helvetica,sans-Serif" font-size="10.00" fill="#000000">LFSTK_listGadgetClass</text>
<text text-anchor="middle" x="549.8665" y="-51.5" font-family="Helvetica,sans-Serif" font-size="10.00" fill="#000000">::LFSTK_setListFromFile</text>
</a>
</g>
</g>
<!-- Node1&#45;&gt;Node10 -->
<g id="edge11" class="edge">
<title>Node1&#45;&gt;Node10</title>
<path fill="none" stroke="#191970" d="M808.901,-61.2833C750.6119,-61.107 669.1407,-60.8607 613.216,-60.6916"/>
<polygon fill="#191970" stroke="#191970" points="809.1284,-64.7839 819.139,-61.3143 809.1496,-57.7839 809.1284,-64.7839"/>
</g>
<!-- Node11 -->
<g id="node11" class="node">
<title>Node11</title>
<g id="a_node11"><a xlink:href="class_l_f_s_t_k__list_gadget_class_a29f6fcfb198871ecb81efe9398835bfe.xhtml#a29f6fcfb198871ecb81efe9398835bfe" target="_top" xlink:title=" ">
<polygon fill="none" stroke="#000000" points="649.146,-.5 649.146,-32.5 783.225,-32.5 783.225,-.5 649.146,-.5"/>
<text text-anchor="start" x="657.146" y="-19.5" font-family="Helvetica,sans-Serif" font-size="10.00" fill="#000000">LFSTK_listGadgetClass</text>
<text text-anchor="middle" x="716.1855" y="-7.5" font-family="Helvetica,sans-Serif" font-size="10.00" fill="#000000">::~LFSTK_listGadgetClass</text>
</a>
</g>
</g>
<!-- Node1&#45;&gt;Node11 -->
<g id="edge12" class="edge">
<title>Node1&#45;&gt;Node11</title>
<path fill="none" stroke="#191970" d="M811.8734,-42.6951C799.4992,-39.3075 786.7052,-35.8051 774.6552,-32.5064"/>
<polygon fill="#191970" stroke="#191970" points="811.1159,-46.1164 821.6852,-45.3811 812.9642,-39.3648 811.1159,-46.1164"/>
</g>
<!-- Node3 -->
<g id="node3" class="node">
<title>Node3</title>
<g id="a_node3"><a xlink:href="class_l_f_s_t_k__font_dialog_class_af866eb2b1ba8178c9cf3e751716fcc8e.xhtml#af866eb2b1ba8178c9cf3e751716fcc8e" target="_top" xlink:title=" ">
<polygon fill="none" stroke="#000000" points="488.526,-146.5 488.526,-178.5 611.207,-178.5 611.207,-146.5 488.526,-146.5"/>
<text text-anchor="start" x="496.526" y="-165.5" font-family="Helvetica,sans-Serif" font-size="10.00" fill="#000000">LFSTK_fontDialogClass</text>
<text text-anchor="middle" x="549.8665" y="-153.5" font-family="Helvetica,sans-Serif" font-size="10.00" fill="#000000">::buildDialog</text>
</a>
</g>
</g>
<!-- Node2&#45;&gt;Node3 -->
<g id="edge2" class="edge">
<title>Node2&#45;&gt;Node3</title>
<path fill="none" stroke="#191970" d="M656.1478,-128.6319C637.8508,-134.4625 617.9314,-140.8101 600.3347,-146.4176"/>
<polygon fill="#191970" stroke="#191970" points="657.3677,-131.9166 665.833,-125.5456 655.2423,-125.2471 657.3677,-131.9166"/>
</g>
<!-- Node5 -->
<g id="node5" class="node">
<title>Node5</title>
<g id="a_node5"><a xlink:href="class_l_f_s_t_k__file_dialog_class_a0a6b4f1db71031bf35a7636b736e8698.xhtml#a0a6b4f1db71031bf35a7636b736e8698" target="_top" xlink:title=" ">
<polygon fill="none" stroke="#000000" points="490.476,-95.5 490.476,-127.5 609.257,-127.5 609.257,-95.5 490.476,-95.5"/>
<text text-anchor="start" x="498.476" y="-114.5" font-family="Helvetica,sans-Serif" font-size="10.00" fill="#000000">LFSTK_fileDialogClass</text>
<text text-anchor="middle" x="549.8665" y="-102.5" font-family="Helvetica,sans-Serif" font-size="10.00" fill="#000000">::getFileList</text>
</a>
</g>
</g>
<!-- Node2&#45;&gt;Node5 -->
<g id="edge4" class="edge">
<title>Node2&#45;&gt;Node5</title>
<path fill="none" stroke="#191970" d="M644.5358,-110.3616C632.8206,-110.5025 620.7947,-110.6471 609.4124,-110.784"/>
<polygon fill="#191970" stroke="#191970" points="644.7698,-113.8591 654.727,-110.239 644.6856,-106.8596 644.7698,-113.8591"/>
</g>
<!-- Node2&#45;&gt;Node10 -->
<g id="edge10" class="edge">
<title>Node2&#45;&gt;Node10</title>
<path fill="none" stroke="#191970" d="M652.0824,-90.6143C636.3594,-85.9821 619.6759,-81.0669 604.4479,-76.5805"/>
<polygon fill="#191970" stroke="#191970" points="651.1449,-93.9868 661.7264,-93.4556 653.1232,-87.2721 651.1449,-93.9868"/>
</g>
<!-- Node4 -->
<g id="node4" class="node">
<title>Node4</title>
<g id="a_node4"><a xlink:href="class_l_f_s_t_k__font_dialog_class_ab7b6a4bca99713646ab6ac77dc34827c.xhtml#ab7b6a4bca99713646ab6ac77dc34827c" target="_top" xlink:title=" ">
<polygon fill="none" stroke="#000000" points="322.348,-146.5 322.348,-178.5 450.587,-178.5 450.587,-146.5 322.348,-146.5"/>
<text text-anchor="start" x="330.348" y="-165.5" font-family="Helvetica,sans-Serif" font-size="10.00" fill="#000000">LFSTK_fontDialogClass</text>
<text text-anchor="middle" x="386.4675" y="-153.5" font-family="Helvetica,sans-Serif" font-size="10.00" fill="#000000">::LFSTK_fontDialogClass</text>
</a>
</g>
</g>
<!-- Node3&#45;&gt;Node4 -->
<g id="edge3" class="edge">
<title>Node3&#45;&gt;Node4</title>
<path fill="none" stroke="#191970" d="M477.9666,-162.5C468.9154,-162.5 459.7015,-162.5 450.7778,-162.5"/>
<polygon fill="#191970" stroke="#191970" points="478.0924,-166.0001 488.0923,-162.5 478.0923,-159.0001 478.0924,-166.0001"/>
</g>
<!-- Node6 -->
<g id="node6" class="node">
<title>Node6</title>
<g id="a_node6"><a xlink:href="class_l_f_s_t_k__file_dialog_class_a553ce8e885b0d60cbf515b7b3d1e8b65.xhtml#a553ce8e885b0d60cbf515b7b3d1e8b65" target="_top" xlink:title=" ">
<polygon fill="none" stroke="#000000" points="0,-50.5 0,-82.5 124.339,-82.5 124.339,-50.5 0,-50.5"/>
<text text-anchor="start" x="8" y="-69.5" font-family="Helvetica,sans-Serif" font-size="10.00" fill="#000000">LFSTK_fileDialogClass</text>
<text text-anchor="middle" x="62.1695" y="-57.5" font-family="Helvetica,sans-Serif" font-size="10.00" fill="#000000">::LFSTK_fileDialogClass</text>
</a>
</g>
</g>
<!-- Node5&#45;&gt;Node6 -->
<g id="edge5" class="edge">
<title>Node5&#45;&gt;Node6</title>
<path fill="none" stroke="#191970" d="M480.1099,-113.7702C401.7549,-115.1337 271.0533,-113.8382 160.339,-95.5 142.9818,-92.625 124.3679,-87.6367 108.0651,-82.5995"/>
<polygon fill="#191970" stroke="#191970" points="480.4105,-117.2651 490.3407,-113.5718 480.2747,-110.2665 480.4105,-117.2651"/>
</g>
<!-- Node7 -->
<g id="node7" class="node">
<title>Node7</title>
<g id="a_node7"><a xlink:href="class_l_f_s_t_k__file_dialog_class_aa8804989d381def9acb2c99d47d6dc3d.xhtml#aa8804989d381def9acb2c99d47d6dc3d" target="_top" xlink:title=" ">
<polygon fill="none" stroke="#000000" points="325.967,-53.5 325.967,-85.5 446.968,-85.5 446.968,-53.5 325.967,-53.5"/>
<text text-anchor="start" x="333.967" y="-72.5" font-family="Helvetica,sans-Serif" font-size="10.00" fill="#000000">LFSTK_fileDialogClass</text>
<text text-anchor="middle" x="386.4675" y="-60.5" font-family="Helvetica,sans-Serif" font-size="10.00" fill="#000000">::LFSTK_setWorkingDir</text>
</a>
</g>
</g>
<!-- Node5&#45;&gt;Node7 -->
<g id="edge6" class="edge">
<title>Node5&#45;&gt;Node7</title>
<path fill="none" stroke="#191970" d="M480.6738,-93.7147C469.4717,-90.8353 457.9482,-87.8734 446.973,-85.0523"/>
<polygon fill="#191970" stroke="#191970" points="479.857,-97.1185 490.4135,-96.2182 481.5997,-90.3389 479.857,-97.1185"/>
</g>
<!-- Node8 -->
<g id="node8" class="node">
<title>Node8</title>
<g id="a_node8"><a xlink:href="class_l_f_s_t_k__file_dialog_class_aacf1d4b61cbb5b40d06f591ea96f9ea7.xhtml#aacf1d4b61cbb5b40d06f591ea96f9ea7" target="_top" xlink:title=" ">
<polygon fill="none" stroke="#000000" points="160.339,-53.5 160.339,-85.5 286.348,-85.5 286.348,-53.5 160.339,-53.5"/>
<text text-anchor="start" x="168.339" y="-72.5" font-family="Helvetica,sans-Serif" font-size="10.00" fill="#000000">LFSTK_fileDialogClass</text>
<text text-anchor="middle" x="223.3435" y="-60.5" font-family="Helvetica,sans-Serif" font-size="10.00" fill="#000000">::LFSTK_showFileDialog</text>
</a>
</g>
</g>
<!-- Node7&#45;&gt;Node8 -->
<g id="edge7" class="edge">
<title>Node7&#45;&gt;Node8</title>
<path fill="none" stroke="#191970" d="M315.7256,-69.5C306.0345,-69.5 296.1359,-69.5 286.5902,-69.5"/>
<polygon fill="#191970" stroke="#191970" points="315.7262,-73.0001 325.7261,-69.5 315.7261,-66.0001 315.7262,-73.0001"/>
</g>
<!-- Node9 -->
<g id="node9" class="node">
<title>Node9</title>
<g id="a_node9"><a xlink:href="class_l_f_s_t_k__file_dialog_class_a789cade9437906181e31a243c85d52e5.xhtml#a789cade9437906181e31a243c85d52e5" target="_top" xlink:title=" ">
<polygon fill="none" stroke="#000000" points="163.953,-2.5 163.953,-34.5 282.734,-34.5 282.734,-2.5 163.953,-2.5"/>
<text text-anchor="start" x="171.953" y="-21.5" font-family="Helvetica,sans-Serif" font-size="10.00" fill="#000000">LFSTK_fileDialogClass</text>
<text text-anchor="middle" x="223.3435" y="-9.5" font-family="Helvetica,sans-Serif" font-size="10.00" fill="#000000">::select</text>
</a>
</g>
</g>
<!-- Node7&#45;&gt;Node9 -->
<g id="edge8" class="edge">
<title>Node7&#45;&gt;Node9</title>
<path fill="none" stroke="#191970" d="M325.2049,-50.3465C308.5408,-45.1366 290.6694,-39.5492 274.6212,-34.5317"/>
<polygon fill="#191970" stroke="#191970" points="324.2652,-53.7197 334.854,-53.3633 326.3541,-47.0387 324.2652,-53.7197"/>
</g>
<!-- Node9&#45;&gt;Node6 -->
<g id="edge9" class="edge">
<title>Node9&#45;&gt;Node6</title>
<path fill="none" stroke="#191970" d="M159.442,-37.5308C145.1046,-41.8007 130.0303,-46.29 116.1436,-50.4257"/>
<polygon fill="#191970" stroke="#191970" points="160.6415,-40.8256 169.2265,-34.6168 158.6435,-34.1168 160.6415,-40.8256"/>
</g>
</g>
</svg>
