<?xml version="1.0" encoding="UTF-8" standalone="no"?>
<!DOCTYPE svg PUBLIC "-//W3C//DTD SVG 1.1//EN"
 "http://www.w3.org/Graphics/SVG/1.1/DTD/svg11.dtd">
<!-- Generated by graphviz version 2.40.1 (20161225.0304)
 -->
<!-- Title: LFSTK_menuItemClass::mouseEnter Pages: 1 -->
<!--zoomable 719 -->
<svg id="main" version="1.1" xmlns="http://www.w3.org/2000/svg" xmlns:xlink="http://www.w3.org/1999/xlink" xml:space="preserve" onload="init(evt)">
<style type="text/css"><![CDATA[
.edge:hover path { stroke: red; }
.edge:hover polygon { stroke: red; fill: red; }
]]></style>
<script type="text/javascript"><![CDATA[
var edges = document.getElementsByTagName('g');
if (edges && edges.length) {
  for (var i=0;i<edges.length;i++) {
    if (edges[i].id.substr(0,4)=='edge') {
      edges[i].setAttribute('class','edge');
    }
  }
}
]]></script>
        <defs>
                <circle id="rim" cx="0" cy="0" r="7"/>
                <circle id="rim2" cx="0" cy="0" r="3.5"/>
                <g id="zoomPlus">
                        <use xlink:href="#rim" fill="#404040">
                                <set attributeName="fill" to="#808080" begin="zoomplus.mouseover" end="zoomplus.mouseout"/>
                        </use>
                        <path d="M-4,0h8M0,-4v8" fill="none" stroke="white" stroke-width="1.5" pointer-events="none"/>
                </g>
                <g id="zoomMin">
                        <use xlink:href="#rim" fill="#404040">
                                <set attributeName="fill" to="#808080" begin="zoomminus.mouseover" end="zoomminus.mouseout"/>
                        </use>
                        <path d="M-4,0h8" fill="none" stroke="white" stroke-width="1.5" pointer-events="none"/>
                </g>
                <g id="dirArrow">
                        <path fill="none" stroke="white" stroke-width="1.5" d="M0,-3.0v7 M-2.5,-0.5L0,-3.0L2.5,-0.5"/>
                </g>
               <g id="resetDef">
                       <use xlink:href="#rim2" fill="#404040">
                               <set attributeName="fill" to="#808080" begin="reset.mouseover" end="reset.mouseout"/>
                       </use>
               </g>
        </defs>

<script type="text/javascript">
var viewWidth = 1323;
var viewHeight = 719;
var sectionId = 'dynsection-0';
</script>
<script xlink:href="svgpan.js"/>
<svg id="graph" class="graph">
<g id="viewport">
<title>LFSTK_menuItemClass::mouseEnter</title>
<!-- Node1 -->
<g id="node1" class="node">
<title>Node1</title>
<g id="a_node1"><a xlink:title=" ">
<polygon fill="#bfbfbf" stroke="#000000" points="0,-399.5 0,-431.5 122.123,-431.5 122.123,-399.5 0,-399.5"/>
<text text-anchor="start" x="8" y="-418.5" font-family="Helvetica,sans-Serif" font-size="10.00" fill="#000000">LFSTK_menuItemClass</text>
<text text-anchor="middle" x="61.0615" y="-406.5" font-family="Helvetica,sans-Serif" font-size="10.00" fill="#000000">::mouseEnter</text>
</a>
</g>
</g>
<!-- Node2 -->
<g id="node2" class="node">
<title>Node2</title>
<g id="a_node2"><a xlink:href="class_l_f_s_t_k__gadget_class_aa5b5f301fe9b0a4d7679f786da7462ba.xhtml#aa5b5f301fe9b0a4d7679f786da7462ba" target="_top" xlink:title=" ">
<polygon fill="none" stroke="#000000" points="711.408,-588.5 711.408,-620.5 825.211,-620.5 825.211,-588.5 711.408,-588.5"/>
<text text-anchor="start" x="719.408" y="-607.5" font-family="Helvetica,sans-Serif" font-size="10.00" fill="#000000">LFSTK_gadgetClass::</text>
<text text-anchor="middle" x="768.3095" y="-595.5" font-family="Helvetica,sans-Serif" font-size="10.00" fill="#000000">LFSTK_clearWindow</text>
</a>
</g>
</g>
<!-- Node1&#45;&gt;Node2 -->
<g id="edge1" class="edge">
<title>Node1&#45;&gt;Node2</title>
<path fill="none" stroke="#191970" d="M69.0691,-431.6666C83.4417,-459.2265 116.0798,-515.6056 158.123,-549.5 227.9402,-605.7853 255.1572,-612.1091 342.931,-630.5 467.4918,-656.5987 616.7065,-635.8878 701.2111,-619.4881"/>
<polygon fill="#191970" stroke="#191970" points="702.0597,-622.8881 711.1898,-617.5129 700.7005,-616.0213 702.0597,-622.8881"/>
</g>
<!-- Node11 -->
<g id="node11" class="node">
<title>Node11</title>
<g id="a_node11"><a xlink:href="class_l_f_s_t_k__window_class_a9e816b5a80a4022fe266445124bf429f.xhtml#a9e816b5a80a4022fe266445124bf429f" target="_top" xlink:title=" ">
<polygon fill="none" stroke="#000000" points="163.398,-348.5 163.398,-380.5 301.656,-380.5 301.656,-348.5 163.398,-348.5"/>
<text text-anchor="start" x="171.398" y="-367.5" font-family="Helvetica,sans-Serif" font-size="10.00" fill="#000000">LFSTK_windowClass::</text>
<text text-anchor="middle" x="232.527" y="-355.5" font-family="Helvetica,sans-Serif" font-size="10.00" fill="#000000">LFSTK_getMappedListener</text>
</a>
</g>
</g>
<!-- Node1&#45;&gt;Node11 -->
<g id="edge11" class="edge">
<title>Node1&#45;&gt;Node11</title>
<path fill="none" stroke="#191970" d="M115.3143,-399.3633C132.3676,-394.291 151.3506,-388.6448 168.9879,-383.3988"/>
<polygon fill="#191970" stroke="#191970" points="170.04,-386.7375 178.6272,-380.5317 168.0443,-380.028 170.04,-386.7375"/>
</g>
<!-- Node12 -->
<g id="node12" class="node">
<title>Node12</title>
<g id="a_node12"><a xlink:href="class_l_f_s_t_k__menu_class_ab0166acfb8cc61552fca162f1516ca14.xhtml#ab0166acfb8cc61552fca162f1516ca14" target="_top" xlink:title=" ">
<polygon fill="none" stroke="#000000" points="342.931,-537.5 342.931,-569.5 482.281,-569.5 482.281,-537.5 342.931,-537.5"/>
<text text-anchor="start" x="350.931" y="-556.5" font-family="Helvetica,sans-Serif" font-size="10.00" fill="#000000">LFSTK_menuClass::LFSTK</text>
<text text-anchor="middle" x="412.606" y="-544.5" font-family="Helvetica,sans-Serif" font-size="10.00" fill="#000000">_getTextWidthForFont</text>
</a>
</g>
</g>
<!-- Node1&#45;&gt;Node12 -->
<g id="edge12" class="edge">
<title>Node1&#45;&gt;Node12</title>
<path fill="none" stroke="#191970" d="M95.888,-431.5326C114.2822,-439.8467 137.302,-450.0105 158.123,-458.5 226.224,-486.2673 305.7916,-515.4584 357.5834,-534.0342"/>
<polygon fill="#191970" stroke="#191970" points="356.646,-537.4161 367.2406,-537.4903 359.0047,-530.8254 356.646,-537.4161"/>
</g>
<!-- Node14 -->
<g id="node14" class="node">
<title>Node14</title>
<g id="a_node14"><a xlink:href="class_l_f_s_t_k__window_class_a10d93c702923f9d1528b43fc5010b858.xhtml#a10d93c702923f9d1528b43fc5010b858" target="_top" xlink:title=" ">
<polygon fill="none" stroke="#000000" points="158.123,-399.5 158.123,-431.5 306.931,-431.5 306.931,-399.5 158.123,-399.5"/>
<text text-anchor="start" x="166.123" y="-418.5" font-family="Helvetica,sans-Serif" font-size="10.00" fill="#000000">LFSTK_windowClass::</text>
<text text-anchor="middle" x="232.527" y="-406.5" font-family="Helvetica,sans-Serif" font-size="10.00" fill="#000000">LFSTK_handleWindowEvents</text>
</a>
</g>
</g>
<!-- Node1&#45;&gt;Node14 -->
<g id="edge14" class="edge">
<title>Node1&#45;&gt;Node14</title>
<path fill="none" stroke="#191970" d="M122.4802,-415.5C130.7683,-415.5 139.3869,-415.5 147.9895,-415.5"/>
<polygon fill="#191970" stroke="#191970" points="148.0601,-419.0001 158.06,-415.5 148.06,-412.0001 148.0601,-419.0001"/>
</g>
<!-- Node31 -->
<g id="node31" class="node">
<title>Node31</title>
<g id="a_node31"><a xlink:href="class_l_f_s_t_k__window_class_ab03c62046f64b173b9d1138592dee8c1.xhtml#ab03c62046f64b173b9d1138592dee8c1" target="_top" xlink:title=" ">
<polygon fill="none" stroke="#000000" points="174.2455,-297.5 174.2455,-329.5 290.8085,-329.5 290.8085,-297.5 174.2455,-297.5"/>
<text text-anchor="start" x="182.2455" y="-316.5" font-family="Helvetica,sans-Serif" font-size="10.00" fill="#000000">LFSTK_windowClass::</text>
<text text-anchor="middle" x="232.527" y="-304.5" font-family="Helvetica,sans-Serif" font-size="10.00" fill="#000000">LFSTK_hideWindow</text>
</a>
</g>
</g>
<!-- Node1&#45;&gt;Node31 -->
<g id="edge37" class="edge">
<title>Node1&#45;&gt;Node31</title>
<path fill="none" stroke="#191970" d="M77.6468,-399.3353C96.0069,-382.1985 127.1219,-355.3315 158.123,-338.5 161.3677,-336.7384 164.759,-335.0696 168.2295,-333.4937"/>
<polygon fill="#191970" stroke="#191970" points="169.7147,-336.6657 177.5549,-329.5395 166.982,-330.2211 169.7147,-336.6657"/>
</g>
<!-- Node32 -->
<g id="node32" class="node">
<title>Node32</title>
<g id="a_node32"><a xlink:href="class_l_f_s_t_k__menu_item_class_ad71b8da7df81dc42bb214e8ce373a098.xhtml#ad71b8da7df81dc42bb214e8ce373a098" target="_top" xlink:title=" ">
<polygon fill="none" stroke="#000000" points="168.6865,-246.5 168.6865,-278.5 296.3675,-278.5 296.3675,-246.5 168.6865,-246.5"/>
<text text-anchor="start" x="176.6865" y="-265.5" font-family="Helvetica,sans-Serif" font-size="10.00" fill="#000000">LFSTK_menuItemClass</text>
<text text-anchor="middle" x="232.527" y="-253.5" font-family="Helvetica,sans-Serif" font-size="10.00" fill="#000000">::LFSTK_menuItemClass</text>
</a>
</g>
</g>
<!-- Node1&#45;&gt;Node32 -->
<g id="edge38" class="edge">
<title>Node1&#45;&gt;Node32</title>
<path fill="none" stroke="#191970" d="M69.1839,-399.2487C83.5022,-372.204 115.7712,-317.9327 158.123,-287.5 160.2049,-286.004 162.3825,-284.593 164.6307,-283.2623"/>
<polygon fill="#191970" stroke="#191970" points="166.3946,-286.2889 173.598,-278.5196 163.1218,-280.101 166.3946,-286.2889"/>
</g>
<!-- Node33 -->
<g id="node33" class="node">
<title>Node33</title>
<g id="a_node33"><a xlink:href="class_l_f_s_t_k__window_class_a933b11647301f675ebdbcba313ed03ab.xhtml#a933b11647301f675ebdbcba313ed03ab" target="_top" xlink:title=" ">
<polygon fill="none" stroke="#000000" points="354.3245,-396.5 354.3245,-428.5 470.8875,-428.5 470.8875,-396.5 354.3245,-396.5"/>
<text text-anchor="start" x="362.3245" y="-415.5" font-family="Helvetica,sans-Serif" font-size="10.00" fill="#000000">LFSTK_windowClass::</text>
<text text-anchor="middle" x="412.606" y="-403.5" font-family="Helvetica,sans-Serif" font-size="10.00" fill="#000000">LFSTK_moveWindow</text>
</a>
</g>
</g>
<!-- Node1&#45;&gt;Node33 -->
<g id="edge39" class="edge">
<title>Node1&#45;&gt;Node33</title>
<path fill="none" stroke="#191970" d="M113.2333,-431.5079C127.6357,-435.2201 143.3632,-438.6297 158.123,-440.5 223.7352,-448.8141 241.348,-449.0412 306.931,-440.5 321.9933,-438.5384 337.9659,-435.0667 352.8075,-431.2209"/>
<polygon fill="#191970" stroke="#191970" points="354.129,-434.4899 362.8767,-428.5126 352.3108,-427.7302 354.129,-434.4899"/>
</g>
<!-- Node34 -->
<g id="node34" class="node">
<title>Node34</title>
<g id="a_node34"><a xlink:href="class_l_f_s_t_k__window_class_a7e8039be4b889bb5eaa51c297386195b.xhtml#a7e8039be4b889bb5eaa51c297386195b" target="_top" xlink:title=" ">
<polygon fill="none" stroke="#000000" points="174.2455,-195.5 174.2455,-227.5 290.8085,-227.5 290.8085,-195.5 174.2455,-195.5"/>
<text text-anchor="start" x="182.2455" y="-214.5" font-family="Helvetica,sans-Serif" font-size="10.00" fill="#000000">LFSTK_windowClass::</text>
<text text-anchor="middle" x="232.527" y="-202.5" font-family="Helvetica,sans-Serif" font-size="10.00" fill="#000000">LFSTK_showWindow</text>
</a>
</g>
</g>
<!-- Node1&#45;&gt;Node34 -->
<g id="edge42" class="edge">
<title>Node1&#45;&gt;Node34</title>
<path fill="none" stroke="#191970" d="M65.4224,-399.2994C75.6374,-364.4045 104.4092,-281.6544 158.123,-236.5 160.3722,-234.6092 162.7703,-232.8596 165.2764,-231.2408"/>
<polygon fill="#191970" stroke="#191970" points="167.1682,-234.192 174.153,-226.2257 163.7248,-228.0974 167.1682,-234.192"/>
</g>
<!-- Node35 -->
<g id="node35" class="node">
<title>Node35</title>
<g id="a_node35"><a xlink:href="class_l_f_s_t_k__menu_item_class_a5e34cf7a5683d02f253ca508095c009b.xhtml#a5e34cf7a5683d02f253ca508095c009b" target="_top" xlink:title=" ">
<polygon fill="none" stroke="#000000" points="351.5445,-588.5 351.5445,-620.5 473.6675,-620.5 473.6675,-588.5 351.5445,-588.5"/>
<text text-anchor="start" x="359.5445" y="-607.5" font-family="Helvetica,sans-Serif" font-size="10.00" fill="#000000">LFSTK_menuItemClass</text>
<text text-anchor="middle" x="412.606" y="-595.5" font-family="Helvetica,sans-Serif" font-size="10.00" fill="#000000">::mouseExit</text>
</a>
</g>
</g>
<!-- Node1&#45;&gt;Node35 -->
<g id="edge43" class="edge">
<title>Node1&#45;&gt;Node35</title>
<path fill="none" stroke="#191970" d="M76.2769,-431.6485C94.3933,-450.1663 126.2265,-480.5331 158.123,-500.5 218.7732,-538.4664 295.6627,-567.632 348.9714,-585.284"/>
<polygon fill="#191970" stroke="#191970" points="348.049,-588.6647 358.6416,-588.4455 350.2243,-582.0112 348.049,-588.6647"/>
</g>
<!-- Node3 -->
<g id="node3" class="node">
<title>Node3</title>
<g id="a_node3"><a xlink:href="class_l_f_s_t_k__gadget_class_a66b92f213e5a7e75da3f707b511342ea.xhtml#a66b92f213e5a7e75da3f707b511342ea" target="_top" xlink:title=" ">
<polygon fill="none" stroke="#000000" points="877.592,-588.5 877.592,-620.5 991.395,-620.5 991.395,-588.5 877.592,-588.5"/>
<text text-anchor="start" x="885.592" y="-607.5" font-family="Helvetica,sans-Serif" font-size="10.00" fill="#000000">LFSTK_gadgetClass::</text>
<text text-anchor="middle" x="934.4935" y="-595.5" font-family="Helvetica,sans-Serif" font-size="10.00" fill="#000000">drawGagetDetails</text>
</a>
</g>
</g>
<!-- Node2&#45;&gt;Node3 -->
<g id="edge2" class="edge">
<title>Node2&#45;&gt;Node3</title>
<path fill="none" stroke="#191970" d="M825.5006,-604.5C838.893,-604.5 853.2827,-604.5 867.0747,-604.5"/>
<polygon fill="#191970" stroke="#191970" points="867.4786,-608.0001 877.4786,-604.5 867.4786,-601.0001 867.4786,-608.0001"/>
</g>
<!-- Node4 -->
<g id="node4" class="node">
<title>Node4</title>
<g id="a_node4"><a xlink:href="class_l_f_s_t_k__gadget_class_a37d96aab3c59cb97fca1720441e3fc8e.xhtml#a37d96aab3c59cb97fca1720441e3fc8e" target="_top" xlink:title=" ">
<polygon fill="none" stroke="#000000" points="1028.775,-678.5 1028.775,-710.5 1142.578,-710.5 1142.578,-678.5 1028.775,-678.5"/>
<text text-anchor="start" x="1036.775" y="-697.5" font-family="Helvetica,sans-Serif" font-size="10.00" fill="#000000">LFSTK_gadgetClass::</text>
<text text-anchor="middle" x="1085.6765" y="-685.5" font-family="Helvetica,sans-Serif" font-size="10.00" fill="#000000">clearBox</text>
</a>
</g>
</g>
<!-- Node3&#45;&gt;Node4 -->
<g id="edge3" class="edge">
<title>Node3&#45;&gt;Node4</title>
<path fill="none" stroke="#191970" d="M959.4521,-620.6929C978.3124,-632.7884 1004.9372,-649.5649 1028.775,-663.5 1034.3836,-666.7787 1040.3575,-670.1557 1046.2463,-673.4198"/>
<polygon fill="#191970" stroke="#191970" points="1044.9153,-676.6818 1055.3656,-678.4258 1048.2838,-670.5455 1044.9153,-676.6818"/>
</g>
<!-- Node5 -->
<g id="node5" class="node">
<title>Node5</title>
<g id="a_node5"><a xlink:href="class_l_f_s_t_k__gadget_class_ab76db165a19af248b5e94e95492dc879.xhtml#ab76db165a19af248b5e94e95492dc879" target="_top" xlink:title=" ">
<polygon fill="none" stroke="#000000" points="1189.9645,-610.5 1189.9645,-642.5 1303.7675,-642.5 1303.7675,-610.5 1189.9645,-610.5"/>
<text text-anchor="start" x="1197.9645" y="-629.5" font-family="Helvetica,sans-Serif" font-size="10.00" fill="#000000">LFSTK_gadgetClass::</text>
<text text-anchor="middle" x="1246.866" y="-617.5" font-family="Helvetica,sans-Serif" font-size="10.00" fill="#000000">drawBevel</text>
</a>
</g>
</g>
<!-- Node3&#45;&gt;Node5 -->
<g id="edge4" class="edge">
<title>Node3&#45;&gt;Node5</title>
<path fill="none" stroke="#191970" d="M982.908,-620.5334C997.4832,-624.6282 1013.6317,-628.4502 1028.775,-630.5 1078.9771,-637.2953 1136.2659,-635.8964 1179.5263,-633.0117"/>
<polygon fill="#191970" stroke="#191970" points="1179.9224,-636.4924 1189.6493,-632.2927 1179.4264,-629.51 1179.9224,-636.4924"/>
</g>
<!-- Node6 -->
<g id="node6" class="node">
<title>Node6</title>
<g id="a_node6"><a xlink:href="class_l_f_s_t_k__gadget_class_af5386ffc4699273f6c53a920fc8b2f1d.xhtml#af5386ffc4699273f6c53a920fc8b2f1d" target="_top" xlink:title=" ">
<polygon fill="none" stroke="#000000" points="1028.775,-537.5 1028.775,-569.5 1142.578,-569.5 1142.578,-537.5 1028.775,-537.5"/>
<text text-anchor="start" x="1036.775" y="-556.5" font-family="Helvetica,sans-Serif" font-size="10.00" fill="#000000">LFSTK_gadgetClass::</text>
<text text-anchor="middle" x="1085.6765" y="-544.5" font-family="Helvetica,sans-Serif" font-size="10.00" fill="#000000">drawImage</text>
</a>
</g>
</g>
<!-- Node3&#45;&gt;Node6 -->
<g id="edge5" class="edge">
<title>Node3&#45;&gt;Node6</title>
<path fill="none" stroke="#191970" d="M982.3287,-588.3633C996.9472,-583.4319 1013.1739,-577.958 1028.3548,-572.8369"/>
<polygon fill="#191970" stroke="#191970" points="1029.7958,-576.0446 1038.1524,-569.5317 1027.5583,-569.4118 1029.7958,-576.0446"/>
</g>
<!-- Node7 -->
<g id="node7" class="node">
<title>Node7</title>
<g id="a_node7"><a xlink:href="class_l_f_s_t_k__gadget_class_af77235e4dc604470c9d62f101238225b.xhtml#af77235e4dc604470c9d62f101238225b" target="_top" xlink:title=" ">
<polygon fill="none" stroke="#000000" points="1028.775,-588.5 1028.775,-620.5 1142.578,-620.5 1142.578,-588.5 1028.775,-588.5"/>
<text text-anchor="start" x="1036.775" y="-607.5" font-family="Helvetica,sans-Serif" font-size="10.00" fill="#000000">LFSTK_gadgetClass::</text>
<text text-anchor="middle" x="1085.6765" y="-595.5" font-family="Helvetica,sans-Serif" font-size="10.00" fill="#000000">drawIndicator</text>
</a>
</g>
</g>
<!-- Node3&#45;&gt;Node7 -->
<g id="edge6" class="edge">
<title>Node3&#45;&gt;Node7</title>
<path fill="none" stroke="#191970" d="M991.6493,-604.5C1000.4586,-604.5 1009.6236,-604.5 1018.625,-604.5"/>
<polygon fill="#191970" stroke="#191970" points="1018.6907,-608.0001 1028.6907,-604.5 1018.6907,-601.0001 1018.6907,-608.0001"/>
</g>
<!-- Node8 -->
<g id="node8" class="node">
<title>Node8</title>
<g id="a_node8"><a xlink:href="class_l_f_s_t_k__gadget_class_a7f44f781b167d66c5d6f4cc862a7e2db.xhtml#a7f44f781b167d66c5d6f4cc862a7e2db" target="_top" xlink:title=" ">
<polygon fill="none" stroke="#000000" points="1028.775,-486.5 1028.775,-518.5 1142.578,-518.5 1142.578,-486.5 1028.775,-486.5"/>
<text text-anchor="start" x="1036.775" y="-505.5" font-family="Helvetica,sans-Serif" font-size="10.00" fill="#000000">LFSTK_gadgetClass::</text>
<text text-anchor="middle" x="1085.6765" y="-493.5" font-family="Helvetica,sans-Serif" font-size="10.00" fill="#000000">drawLabel</text>
</a>
</g>
</g>
<!-- Node3&#45;&gt;Node8 -->
<g id="edge8" class="edge">
<title>Node3&#45;&gt;Node8</title>
<path fill="none" stroke="#191970" d="M951.4834,-588.2102C969.5776,-571.4636 999.577,-545.3775 1028.775,-527.5 1031.2337,-525.9946 1033.799,-524.531 1036.4219,-523.1171"/>
<polygon fill="#191970" stroke="#191970" points="1038.1589,-526.1605 1045.4902,-518.5118 1034.9892,-519.9192 1038.1589,-526.1605"/>
</g>
<!-- Node7&#45;&gt;Node5 -->
<g id="edge7" class="edge">
<title>Node7&#45;&gt;Node5</title>
<path fill="none" stroke="#191970" d="M1142.9597,-612.3183C1154.8365,-613.9393 1167.4521,-615.6612 1179.6475,-617.3257"/>
<polygon fill="#191970" stroke="#191970" points="1179.3857,-620.8223 1189.7672,-618.7069 1180.3324,-613.8866 1179.3857,-620.8223"/>
</g>
<!-- Node9 -->
<g id="node9" class="node">
<title>Node9</title>
<g id="a_node9"><a xlink:href="class_l_f_s_t_k__lib_ab2f14a3414f7db863682d1e2fa0cfb75.xhtml#ab2f14a3414f7db863682d1e2fa0cfb75" target="_top" xlink:title=" ">
<polygon fill="none" stroke="#000000" points="1178.578,-515.5 1178.578,-535.5 1315.154,-535.5 1315.154,-515.5 1178.578,-515.5"/>
<text text-anchor="middle" x="1246.866" y="-522.5" font-family="Helvetica,sans-Serif" font-size="10.00" fill="#000000">LFSTK_lib::bestFontColour</text>
</a>
</g>
</g>
<!-- Node8&#45;&gt;Node9 -->
<g id="edge9" class="edge">
<title>Node8&#45;&gt;Node9</title>
<path fill="none" stroke="#191970" d="M1142.9597,-510.6737C1151.2197,-511.8523 1159.8371,-513.0819 1168.422,-514.3069"/>
<polygon fill="#191970" stroke="#191970" points="1168.0673,-517.7917 1178.4615,-515.7394 1169.0562,-510.8618 1168.0673,-517.7917"/>
</g>
<!-- Node10 -->
<g id="node10" class="node">
<title>Node10</title>
<g id="a_node10"><a xlink:href="class_l_f_s_t_k__gadget_class_a091281ba03eaeb31bc7507c74b9b4f2f.xhtml#a091281ba03eaeb31bc7507c74b9b4f2f" target="_top" xlink:title=" ">
<polygon fill="none" stroke="#000000" points="1189.41,-464.5 1189.41,-496.5 1304.322,-496.5 1304.322,-464.5 1189.41,-464.5"/>
<text text-anchor="start" x="1197.41" y="-483.5" font-family="Helvetica,sans-Serif" font-size="10.00" fill="#000000">LFSTK_gadgetClass::</text>
<text text-anchor="middle" x="1246.866" y="-471.5" font-family="Helvetica,sans-Serif" font-size="10.00" fill="#000000">LFSTK_getTextHeight</text>
</a>
</g>
</g>
<!-- Node8&#45;&gt;Node10 -->
<g id="edge10" class="edge">
<title>Node8&#45;&gt;Node10</title>
<path fill="none" stroke="#191970" d="M1142.9597,-494.6817C1154.6951,-493.08 1167.1519,-491.3798 1179.2117,-489.7338"/>
<polygon fill="#191970" stroke="#191970" points="1179.7893,-493.1875 1189.2241,-488.3673 1178.8426,-486.2518 1179.7893,-493.1875"/>
</g>
<!-- Node13 -->
<g id="node13" class="node">
<title>Node13</title>
<g id="a_node13"><a xlink:href="class_l_f_s_t_k__lib_aa5e46eec51c9f1f2a86ef7e22d6cba5b.xhtml#aa5e46eec51c9f1f2a86ef7e22d6cba5b" target="_top" xlink:title=" ">
<polygon fill="none" stroke="#000000" points="518.281,-498.5 518.281,-530.5 660.407,-530.5 660.407,-498.5 518.281,-498.5"/>
<text text-anchor="start" x="526.281" y="-517.5" font-family="Helvetica,sans-Serif" font-size="10.00" fill="#000000">LFSTK_lib::LFSTK_setCairo</text>
<text text-anchor="middle" x="589.344" y="-505.5" font-family="Helvetica,sans-Serif" font-size="10.00" fill="#000000">Surface</text>
</a>
</g>
</g>
<!-- Node12&#45;&gt;Node13 -->
<g id="edge13" class="edge">
<title>Node12&#45;&gt;Node13</title>
<path fill="none" stroke="#191970" d="M482.4575,-538.0862C490.9182,-536.2192 499.616,-534.2999 508.2216,-532.4009"/>
<polygon fill="#191970" stroke="#191970" points="509.2507,-535.7581 518.2616,-530.1854 507.7423,-528.9226 509.2507,-535.7581"/>
</g>
<!-- Node14&#45;&gt;Node13 -->
<g id="edge34" class="edge">
<title>Node14&#45;&gt;Node13</title>
<path fill="none" stroke="#191970" d="M250.9333,-431.7584C271.6974,-449.0667 307.2464,-475.6893 342.931,-488.5 395.755,-507.4638 458.7392,-513.8511 507.8068,-515.5555"/>
<polygon fill="#191970" stroke="#191970" points="507.9607,-519.0613 518.0574,-515.8509 508.1624,-512.0642 507.9607,-519.0613"/>
</g>
<!-- Node15 -->
<g id="node15" class="node">
<title>Node15</title>
<g id="a_node15"><a xlink:href="class_l_f_s_t_k__window_class_ac3b5b99b3a018cce7c631df39db76be1.xhtml#ac3b5b99b3a018cce7c631df39db76be1" target="_top" xlink:title=" ">
<polygon fill="none" stroke="#000000" points="531.0625,-396.5 531.0625,-428.5 647.6255,-428.5 647.6255,-396.5 531.0625,-396.5"/>
<text text-anchor="start" x="539.0625" y="-415.5" font-family="Helvetica,sans-Serif" font-size="10.00" fill="#000000">LFSTK_windowClass::</text>
<text text-anchor="middle" x="589.344" y="-403.5" font-family="Helvetica,sans-Serif" font-size="10.00" fill="#000000">LFSTK_clearWindow</text>
</a>
</g>
</g>
<!-- Node14&#45;&gt;Node15 -->
<g id="edge15" class="edge">
<title>Node14&#45;&gt;Node15</title>
<path fill="none" stroke="#191970" d="M282.5529,-399.4535C301.2845,-394.2188 322.8836,-389.089 342.931,-386.5 404.3542,-378.5675 420.7865,-379.1401 482.281,-386.5 496.0354,-388.1462 510.576,-390.9418 524.3572,-394.1047"/>
<polygon fill="#191970" stroke="#191970" points="523.6964,-397.5452 534.2357,-396.4615 525.321,-390.7363 523.6964,-397.5452"/>
</g>
<!-- Node16 -->
<g id="node16" class="node">
<title>Node16</title>
<g id="a_node16"><a xlink:href="class_l_f_s_t_k__window_class_a0d85c225b59176302c8b25d090e08ad7.xhtml#a0d85c225b59176302c8b25d090e08ad7" target="_top" xlink:title=" ">
<polygon fill="none" stroke="#000000" points="531.0625,-306.5 531.0625,-338.5 647.6255,-338.5 647.6255,-306.5 531.0625,-306.5"/>
<text text-anchor="start" x="539.0625" y="-325.5" font-family="Helvetica,sans-Serif" font-size="10.00" fill="#000000">LFSTK_windowClass::</text>
<text text-anchor="middle" x="589.344" y="-313.5" font-family="Helvetica,sans-Serif" font-size="10.00" fill="#000000">LFSTK_getDnDAtom</text>
</a>
</g>
</g>
<!-- Node14&#45;&gt;Node16 -->
<g id="edge17" class="edge">
<title>Node14&#45;&gt;Node16</title>
<path fill="none" stroke="#191970" d="M293.6475,-399.3336C298.4761,-396.5566 302.9971,-393.3055 306.931,-389.5 338.7866,-358.6834 306.3687,-321.5529 342.931,-296.5 394.0212,-261.4924 420.7865,-289.1401 482.281,-296.5 496.0354,-298.1462 510.576,-300.9418 524.3572,-304.1047"/>
<polygon fill="#191970" stroke="#191970" points="523.6964,-307.5452 534.2357,-306.4615 525.321,-300.7363 523.6964,-307.5452"/>
</g>
<!-- Node17 -->
<g id="node17" class="node">
<title>Node17</title>
<g id="a_node17"><a xlink:href="class_l_f_s_t_k__window_class_a2cef240ff812e56a57ccb6a087edb8cd.xhtml#a2cef240ff812e56a57ccb6a087edb8cd" target="_top" xlink:title=" ">
<polygon fill="none" stroke="#000000" points="354.3245,-153.5 354.3245,-185.5 470.8875,-185.5 470.8875,-153.5 354.3245,-153.5"/>
<text text-anchor="start" x="362.3245" y="-172.5" font-family="Helvetica,sans-Serif" font-size="10.00" fill="#000000">LFSTK_windowClass::</text>
<text text-anchor="middle" x="412.606" y="-160.5" font-family="Helvetica,sans-Serif" font-size="10.00" fill="#000000">LFSTK_handleDnD</text>
</a>
</g>
</g>
<!-- Node14&#45;&gt;Node17 -->
<g id="edge18" class="edge">
<title>Node14&#45;&gt;Node17</title>
<path fill="none" stroke="#191970" d="M294.3815,-399.4923C298.9948,-396.6831 303.2683,-393.3811 306.931,-389.5 346.9046,-347.1431 317.1753,-315.7364 342.931,-263.5 355.7069,-237.5886 375.7913,-211.456 391.1208,-193.3449"/>
<polygon fill="#191970" stroke="#191970" points="393.9048,-195.476 397.7862,-185.6177 388.6043,-190.9038 393.9048,-195.476"/>
</g>
<!-- Node28 -->
<g id="node28" class="node">
<title>Node28</title>
<g id="a_node28"><a xlink:href="class_l_f_s_t_k__window_class_abec54e421d2e094da2214abfccebd361.xhtml#abec54e421d2e094da2214abfccebd361" target="_top" xlink:title=" ">
<polygon fill="none" stroke="#000000" points="354.3245,-447.5 354.3245,-479.5 470.8875,-479.5 470.8875,-447.5 354.3245,-447.5"/>
<text text-anchor="start" x="362.3245" y="-466.5" font-family="Helvetica,sans-Serif" font-size="10.00" fill="#000000">LFSTK_windowClass::</text>
<text text-anchor="middle" x="412.606" y="-454.5" font-family="Helvetica,sans-Serif" font-size="10.00" fill="#000000">LFSTK_resizeWindow</text>
</a>
</g>
</g>
<!-- Node14&#45;&gt;Node28 -->
<g id="edge30" class="edge">
<title>Node14&#45;&gt;Node28</title>
<path fill="none" stroke="#191970" d="M292.7411,-431.55C309.3226,-435.9698 327.4255,-440.7952 344.4224,-445.3257"/>
<polygon fill="#191970" stroke="#191970" points="343.7182,-448.7601 354.2823,-447.9538 345.5212,-441.9963 343.7182,-448.7601"/>
</g>
<!-- Node30 -->
<g id="node30" class="node">
<title>Node30</title>
<g id="a_node30"><a xlink:href="class_l_f_s_t_k__window_class_add088894ef8d87ac2d446e6d0b4920a5.xhtml#add088894ef8d87ac2d446e6d0b4920a5" target="_top" xlink:title=" ">
<polygon fill="none" stroke="#000000" points="354.3245,-306.5 354.3245,-338.5 470.8875,-338.5 470.8875,-306.5 354.3245,-306.5"/>
<text text-anchor="start" x="362.3245" y="-325.5" font-family="Helvetica,sans-Serif" font-size="10.00" fill="#000000">LFSTK_windowClass::</text>
<text text-anchor="middle" x="412.606" y="-313.5" font-family="Helvetica,sans-Serif" font-size="10.00" fill="#000000">sendUTF8</text>
</a>
</g>
</g>
<!-- Node14&#45;&gt;Node30 -->
<g id="edge35" class="edge">
<title>Node14&#45;&gt;Node30</title>
<path fill="none" stroke="#191970" d="M287.4897,-399.4917C294.2579,-396.604 300.9055,-393.2843 306.931,-389.5 326.0927,-377.4655 324.2815,-366.3139 342.931,-353.5 348.4297,-349.7219 354.4632,-346.2301 360.608,-343.0582"/>
<polygon fill="#191970" stroke="#191970" points="362.1933,-346.1791 369.6412,-338.6438 359.1198,-339.8899 362.1933,-346.1791"/>
</g>
<!-- Node15&#45;&gt;Node2 -->
<g id="edge16" class="edge">
<title>Node15&#45;&gt;Node2</title>
<path fill="none" stroke="#191970" d="M646.254,-428.5718C651.2829,-431.1407 656.0937,-434.0988 660.407,-437.5 708.9677,-475.7921 742.4065,-542.2784 758.1057,-578.7427"/>
<polygon fill="#191970" stroke="#191970" points="754.9685,-580.3124 762.0611,-588.183 761.4247,-577.6073 754.9685,-580.3124"/>
</g>
<!-- Node18 -->
<g id="node18" class="node">
<title>Node18</title>
<g id="a_node18"><a xlink:href="class_l_f_s_t_k__gadget_class_a5a73fbb58bdb779f2898d6fb3946f88f.xhtml#a5a73fbb58bdb779f2898d6fb3946f88f" target="_top" xlink:title=" ">
<polygon fill="none" stroke="#000000" points="532.4425,-255.5 532.4425,-287.5 646.2455,-287.5 646.2455,-255.5 532.4425,-255.5"/>
<text text-anchor="start" x="540.4425" y="-274.5" font-family="Helvetica,sans-Serif" font-size="10.00" fill="#000000">LFSTK_gadgetClass::</text>
<text text-anchor="middle" x="589.344" y="-262.5" font-family="Helvetica,sans-Serif" font-size="10.00" fill="#000000">LFSTK_dropData</text>
</a>
</g>
</g>
<!-- Node17&#45;&gt;Node18 -->
<g id="edge19" class="edge">
<title>Node17&#45;&gt;Node18</title>
<path fill="none" stroke="#191970" d="M431.8008,-185.7843C452.2055,-202.4814 485.9299,-228.364 518.281,-245.5 522.2408,-247.5975 526.407,-249.5976 530.6542,-251.489"/>
<polygon fill="#191970" stroke="#191970" points="529.4593,-254.7837 540.033,-255.4518 532.1838,-248.3356 529.4593,-254.7837"/>
</g>
<!-- Node19 -->
<g id="node19" class="node">
<title>Node19</title>
<g id="a_node19"><a xlink:href="class_l_f_s_t_k__window_class_a0e58784df7f862be4f5d425abbd28260.xhtml#a0e58784df7f862be4f5d425abbd28260" target="_top" xlink:title=" ">
<polygon fill="none" stroke="#000000" points="531.0625,-204.5 531.0625,-236.5 647.6255,-236.5 647.6255,-204.5 531.0625,-204.5"/>
<text text-anchor="start" x="539.0625" y="-223.5" font-family="Helvetica,sans-Serif" font-size="10.00" fill="#000000">LFSTK_windowClass::</text>
<text text-anchor="middle" x="589.344" y="-211.5" font-family="Helvetica,sans-Serif" font-size="10.00" fill="#000000">LFSTK_dropData</text>
</a>
</g>
</g>
<!-- Node17&#45;&gt;Node19 -->
<g id="edge20" class="edge">
<title>Node17&#45;&gt;Node19</title>
<path fill="none" stroke="#191970" d="M468.527,-185.6367C486.1861,-190.7325 505.8527,-196.4075 524.1035,-201.674"/>
<polygon fill="#191970" stroke="#191970" points="523.2084,-205.0585 533.7868,-204.4683 525.1492,-198.3329 523.2084,-205.0585"/>
</g>
<!-- Node21 -->
<g id="node21" class="node">
<title>Node21</title>
<g id="a_node21"><a xlink:href="class_l_f_s_t_k__window_class_af3af0d986d119a7362bdfc6dbfb3814f.xhtml#af3af0d986d119a7362bdfc6dbfb3814f" target="_top" xlink:title=" ">
<polygon fill="none" stroke="#000000" points="524.1035,-153.5 524.1035,-185.5 654.5845,-185.5 654.5845,-153.5 524.1035,-153.5"/>
<text text-anchor="start" x="532.1035" y="-172.5" font-family="Helvetica,sans-Serif" font-size="10.00" fill="#000000">LFSTK_windowClass::</text>
<text text-anchor="middle" x="589.344" y="-160.5" font-family="Helvetica,sans-Serif" font-size="10.00" fill="#000000">LFSTK_findGadgetByPos</text>
</a>
</g>
</g>
<!-- Node17&#45;&gt;Node21 -->
<g id="edge22" class="edge">
<title>Node17&#45;&gt;Node21</title>
<path fill="none" stroke="#191970" d="M470.9664,-169.5C484.64,-169.5 499.4013,-169.5 513.7078,-169.5"/>
<polygon fill="#191970" stroke="#191970" points="514.0227,-173.0001 524.0227,-169.5 514.0227,-166.0001 514.0227,-173.0001"/>
</g>
<!-- Node23 -->
<g id="node23" class="node">
<title>Node23</title>
<g id="a_node23"><a xlink:href="class_l_f_s_t_k__window_class_a6bf9f2a3b003d8247f6b4244fac4d8a6.xhtml#a6bf9f2a3b003d8247f6b4244fac4d8a6" target="_top" xlink:title=" ">
<polygon fill="none" stroke="#000000" points="531.0625,-102.5 531.0625,-134.5 647.6255,-134.5 647.6255,-102.5 531.0625,-102.5"/>
<text text-anchor="start" x="539.0625" y="-121.5" font-family="Helvetica,sans-Serif" font-size="10.00" fill="#000000">LFSTK_windowClass::</text>
<text text-anchor="middle" x="589.344" y="-109.5" font-family="Helvetica,sans-Serif" font-size="10.00" fill="#000000">pickTargetFromAtoms</text>
</a>
</g>
</g>
<!-- Node17&#45;&gt;Node23 -->
<g id="edge24" class="edge">
<title>Node17&#45;&gt;Node23</title>
<path fill="none" stroke="#191970" d="M468.527,-153.3633C486.1861,-148.2675 505.8527,-142.5925 524.1035,-137.326"/>
<polygon fill="#191970" stroke="#191970" points="525.1492,-140.6671 533.7868,-134.5317 523.2084,-133.9415 525.1492,-140.6671"/>
</g>
<!-- Node26 -->
<g id="node26" class="node">
<title>Node26</title>
<g id="a_node26"><a xlink:href="class_l_f_s_t_k__window_class_a851244a723058a6e0166fdbd50c16a6a.xhtml#a851244a723058a6e0166fdbd50c16a6a" target="_top" xlink:title=" ">
<polygon fill="none" stroke="#000000" points="529.398,-51.5 529.398,-83.5 649.29,-83.5 649.29,-51.5 529.398,-51.5"/>
<text text-anchor="start" x="537.398" y="-70.5" font-family="Helvetica,sans-Serif" font-size="10.00" fill="#000000">LFSTK_windowClass::</text>
<text text-anchor="middle" x="589.344" y="-58.5" font-family="Helvetica,sans-Serif" font-size="10.00" fill="#000000">pickTargetFromTargets</text>
</a>
</g>
</g>
<!-- Node17&#45;&gt;Node26 -->
<g id="edge27" class="edge">
<title>Node17&#45;&gt;Node26</title>
<path fill="none" stroke="#191970" d="M431.345,-153.214C451.6433,-136.2259 485.5296,-109.7171 518.281,-92.5 521.5405,-90.7865 524.9426,-89.1475 528.4166,-87.5874"/>
<polygon fill="#191970" stroke="#191970" points="529.8867,-90.7658 537.7315,-83.6447 527.1582,-84.3195 529.8867,-90.7658"/>
</g>
<!-- Node27 -->
<g id="node27" class="node">
<title>Node27</title>
<g id="a_node27"><a xlink:href="class_l_f_s_t_k__window_class_a3cd028bfe046d77c234aa397f12dd4b8.xhtml#a3cd028bfe046d77c234aa397f12dd4b8" target="_top" xlink:title=" ">
<polygon fill="none" stroke="#000000" points="531.0625,-.5 531.0625,-32.5 647.6255,-32.5 647.6255,-.5 531.0625,-.5"/>
<text text-anchor="start" x="539.0625" y="-19.5" font-family="Helvetica,sans-Serif" font-size="10.00" fill="#000000">LFSTK_windowClass::</text>
<text text-anchor="middle" x="589.344" y="-7.5" font-family="Helvetica,sans-Serif" font-size="10.00" fill="#000000">readProperty</text>
</a>
</g>
</g>
<!-- Node17&#45;&gt;Node27 -->
<g id="edge29" class="edge">
<title>Node17&#45;&gt;Node27</title>
<path fill="none" stroke="#191970" d="M421.8687,-153.3389C438.0757,-126.4272 474.0955,-72.3468 518.281,-41.5 520.3922,-40.0261 522.5991,-38.631 524.8742,-37.3114"/>
<polygon fill="#191970" stroke="#191970" points="526.6829,-40.3156 533.9312,-32.5882 523.4461,-34.1089 526.6829,-40.3156"/>
</g>
<!-- Node20 -->
<g id="node20" class="node">
<title>Node20</title>
<g id="a_node20"><a xlink:href="class_l_f_s_t_k__lib_ac5fce97c4bbf2a3c4e500bdc22c994a9.xhtml#ac5fce97c4bbf2a3c4e500bdc22c994a9" target="_top" xlink:title=" ">
<polygon fill="none" stroke="#000000" points="696.407,-210.5 696.407,-230.5 840.212,-230.5 840.212,-210.5 696.407,-210.5"/>
<text text-anchor="middle" x="768.3095" y="-217.5" font-family="Helvetica,sans-Serif" font-size="10.00" fill="#000000">LFSTK_lib::LFSTK_oneLiner</text>
</a>
</g>
</g>
<!-- Node19&#45;&gt;Node20 -->
<g id="edge21" class="edge">
<title>Node19&#45;&gt;Node20</title>
<path fill="none" stroke="#191970" d="M647.944,-220.5C660.0901,-220.5 673.1015,-220.5 685.9177,-220.5"/>
<polygon fill="#191970" stroke="#191970" points="686.134,-224.0001 696.1339,-220.5 686.1339,-217.0001 686.134,-224.0001"/>
</g>
<!-- Node22 -->
<g id="node22" class="node">
<title>Node22</title>
<g id="a_node22"><a xlink:href="class_l_f_s_t_k__gadget_class_a280fd2cd10bf4f67f11e9a7d43766bc5.xhtml#a280fd2cd10bf4f67f11e9a7d43766bc5" target="_top" xlink:title=" ">
<polygon fill="none" stroke="#000000" points="706.964,-153.5 706.964,-185.5 829.655,-185.5 829.655,-153.5 706.964,-153.5"/>
<text text-anchor="start" x="714.964" y="-172.5" font-family="Helvetica,sans-Serif" font-size="10.00" fill="#000000">LFSTK_gadgetClass::</text>
<text text-anchor="middle" x="768.3095" y="-160.5" font-family="Helvetica,sans-Serif" font-size="10.00" fill="#000000">LFSTK_getGlobalGeom</text>
</a>
</g>
</g>
<!-- Node21&#45;&gt;Node22 -->
<g id="edge23" class="edge">
<title>Node21&#45;&gt;Node22</title>
<path fill="none" stroke="#191970" d="M654.7143,-169.5C668.2411,-169.5 682.5622,-169.5 696.3104,-169.5"/>
<polygon fill="#191970" stroke="#191970" points="696.6894,-173.0001 706.6894,-169.5 696.6894,-166.0001 696.6894,-173.0001"/>
</g>
<!-- Node24 -->
<g id="node24" class="node">
<title>Node24</title>
<g id="a_node24"><a xlink:href="class_l_f_s_t_k__window_class_a75904179205b7c0dd78d5e9b6994bd63.xhtml#a75904179205b7c0dd78d5e9b6994bd63" target="_top" xlink:title=" ">
<polygon fill="none" stroke="#000000" points="710.028,-77.5 710.028,-109.5 826.591,-109.5 826.591,-77.5 710.028,-77.5"/>
<text text-anchor="start" x="718.028" y="-96.5" font-family="Helvetica,sans-Serif" font-size="10.00" fill="#000000">LFSTK_windowClass::</text>
<text text-anchor="middle" x="768.3095" y="-84.5" font-family="Helvetica,sans-Serif" font-size="10.00" fill="#000000">pickTargetFromList</text>
</a>
</g>
</g>
<!-- Node23&#45;&gt;Node24 -->
<g id="edge25" class="edge">
<title>Node23&#45;&gt;Node24</title>
<path fill="none" stroke="#191970" d="M647.944,-110.3141C664.5612,-107.9928 682.798,-105.4453 699.9386,-103.0508"/>
<polygon fill="#191970" stroke="#191970" points="700.4641,-106.5115 709.8836,-101.6616 699.4956,-99.5788 700.4641,-106.5115"/>
</g>
<!-- Node25 -->
<g id="node25" class="node">
<title>Node25</title>
<g id="a_node25"><a xlink:href="class_l_f_s_t_k__window_class_a4de9ac1387e659aa1c14fa947061a6e8.xhtml#a4de9ac1387e659aa1c14fa947061a6e8" target="_top" xlink:title=" ">
<polygon fill="none" stroke="#000000" points="876.212,-77.5 876.212,-109.5 992.775,-109.5 992.775,-77.5 876.212,-77.5"/>
<text text-anchor="start" x="884.212" y="-96.5" font-family="Helvetica,sans-Serif" font-size="10.00" fill="#000000">LFSTK_windowClass::</text>
<text text-anchor="middle" x="934.4935" y="-84.5" font-family="Helvetica,sans-Serif" font-size="10.00" fill="#000000">getAtomName</text>
</a>
</g>
</g>
<!-- Node24&#45;&gt;Node25 -->
<g id="edge26" class="edge">
<title>Node24&#45;&gt;Node25</title>
<path fill="none" stroke="#191970" d="M826.8998,-93.5C839.5087,-93.5 852.9442,-93.5 865.8951,-93.5"/>
<polygon fill="#191970" stroke="#191970" points="866.1525,-97.0001 876.1524,-93.5 866.1524,-90.0001 866.1525,-97.0001"/>
</g>
<!-- Node26&#45;&gt;Node24 -->
<g id="edge28" class="edge">
<title>Node26&#45;&gt;Node24</title>
<path fill="none" stroke="#191970" d="M649.4348,-76.23C665.5805,-78.5756 683.1625,-81.1299 699.7315,-83.537"/>
<polygon fill="#191970" stroke="#191970" points="699.4959,-87.0395 709.8953,-85.0136 700.5024,-80.1122 699.4959,-87.0395"/>
</g>
<!-- Node28&#45;&gt;Node13 -->
<g id="edge32" class="edge">
<title>Node28&#45;&gt;Node13</title>
<path fill="none" stroke="#191970" d="M468.527,-479.6367C486.1861,-484.7325 505.8527,-490.4075 524.1035,-495.674"/>
<polygon fill="#191970" stroke="#191970" points="523.2084,-499.0585 533.7868,-498.4683 525.1492,-492.3329 523.2084,-499.0585"/>
</g>
<!-- Node28&#45;&gt;Node15 -->
<g id="edge31" class="edge">
<title>Node28&#45;&gt;Node15</title>
<path fill="none" stroke="#191970" d="M468.527,-447.3633C486.1861,-442.2675 505.8527,-436.5925 524.1035,-431.326"/>
<polygon fill="#191970" stroke="#191970" points="525.1492,-434.6671 533.7868,-428.5317 523.2084,-427.9415 525.1492,-434.6671"/>
</g>
<!-- Node29 -->
<g id="node29" class="node">
<title>Node29</title>
<g id="a_node29"><a xlink:href="class_l_f_s_t_k__window_class_ac8c342109a0f8599f550475cef048745.xhtml#ac8c342109a0f8599f550475cef048745" target="_top" xlink:title=" ">
<polygon fill="none" stroke="#000000" points="531.0625,-447.5 531.0625,-479.5 647.6255,-479.5 647.6255,-447.5 531.0625,-447.5"/>
<text text-anchor="start" x="539.0625" y="-466.5" font-family="Helvetica,sans-Serif" font-size="10.00" fill="#000000">LFSTK_windowClass::</text>
<text text-anchor="middle" x="589.344" y="-454.5" font-family="Helvetica,sans-Serif" font-size="10.00" fill="#000000">setWindowGeom</text>
</a>
</g>
</g>
<!-- Node28&#45;&gt;Node29 -->
<g id="edge33" class="edge">
<title>Node28&#45;&gt;Node29</title>
<path fill="none" stroke="#191970" d="M470.9664,-463.5C486.9534,-463.5 504.4272,-463.5 520.9226,-463.5"/>
<polygon fill="#191970" stroke="#191970" points="521.0449,-467.0001 531.0448,-463.5 521.0448,-460.0001 521.0449,-467.0001"/>
</g>
<!-- Node30&#45;&gt;Node16 -->
<g id="edge36" class="edge">
<title>Node30&#45;&gt;Node16</title>
<path fill="none" stroke="#191970" d="M470.9664,-322.5C486.9534,-322.5 504.4272,-322.5 520.9226,-322.5"/>
<polygon fill="#191970" stroke="#191970" points="521.0449,-326.0001 531.0448,-322.5 521.0448,-319.0001 521.0449,-326.0001"/>
</g>
<!-- Node33&#45;&gt;Node15 -->
<g id="edge40" class="edge">
<title>Node33&#45;&gt;Node15</title>
<path fill="none" stroke="#191970" d="M470.9664,-412.5C486.9534,-412.5 504.4272,-412.5 520.9226,-412.5"/>
<polygon fill="#191970" stroke="#191970" points="521.0449,-416.0001 531.0448,-412.5 521.0448,-409.0001 521.0449,-416.0001"/>
</g>
<!-- Node33&#45;&gt;Node29 -->
<g id="edge41" class="edge">
<title>Node33&#45;&gt;Node29</title>
<path fill="none" stroke="#191970" d="M468.527,-428.6367C486.1861,-433.7325 505.8527,-439.4075 524.1035,-444.674"/>
<polygon fill="#191970" stroke="#191970" points="523.2084,-448.0585 533.7868,-447.4683 525.1492,-441.3329 523.2084,-448.0585"/>
</g>
<!-- Node35&#45;&gt;Node2 -->
<g id="edge44" class="edge">
<title>Node35&#45;&gt;Node2</title>
<path fill="none" stroke="#191970" d="M473.7536,-604.5C537.0113,-604.5 635.5349,-604.5 700.9805,-604.5"/>
<polygon fill="#191970" stroke="#191970" points="701.1897,-608.0001 711.1897,-604.5 701.1896,-601.0001 701.1897,-608.0001"/>
</g>
</g>
</svg>
        <g id="navigator" transform="translate(0 0)" fill="#404254">
                <rect fill="#f2f5e9" fill-opacity="0.5" stroke="#606060" stroke-width=".5" x="0" y="0" width="60" height="60"/>
                <use id="zoomplus" xlink:href="#zoomPlus" x="17" y="9" onmousedown="handleZoom(evt,'in')"/>
                <use id="zoomminus" xlink:href="#zoomMin" x="42" y="9" onmousedown="handleZoom(evt,'out')"/>
                <use id="reset" xlink:href="#resetDef" x="30" y="36" onmousedown="handleReset()"/>
                <g id="arrowUp" xlink:href="#dirArrow" transform="translate(30 24)" onmousedown="handlePan(0,-1)">
                  <use xlink:href="#rim" fill="#404040">
                        <set attributeName="fill" to="#808080" begin="arrowUp.mouseover" end="arrowUp.mouseout"/>
                  </use>
                  <path fill="none" stroke="white" stroke-width="1.5" d="M0,-3.0v7 M-2.5,-0.5L0,-3.0L2.5,-0.5"/>
                </g>
                <g id="arrowRight" xlink:href="#dirArrow" transform="rotate(90) translate(36 -43)" onmousedown="handlePan(1,0)">
                  <use xlink:href="#rim" fill="#404040">
                        <set attributeName="fill" to="#808080" begin="arrowRight.mouseover" end="arrowRight.mouseout"/>
                  </use>
                  <path fill="none" stroke="white" stroke-width="1.5" d="M0,-3.0v7 M-2.5,-0.5L0,-3.0L2.5,-0.5"/>
                </g>
                <g id="arrowDown" xlink:href="#dirArrow" transform="rotate(180) translate(-30 -48)" onmousedown="handlePan(0,1)">
                  <use xlink:href="#rim" fill="#404040">
                        <set attributeName="fill" to="#808080" begin="arrowDown.mouseover" end="arrowDown.mouseout"/>
                  </use>
                  <path fill="none" stroke="white" stroke-width="1.5" d="M0,-3.0v7 M-2.5,-0.5L0,-3.0L2.5,-0.5"/>
                </g>
                <g id="arrowLeft" xlink:href="#dirArrow" transform="rotate(270) translate(-36 17)" onmousedown="handlePan(-1,0)">
                  <use xlink:href="#rim" fill="#404040">
                        <set attributeName="fill" to="#808080" begin="arrowLeft.mouseover" end="arrowLeft.mouseout"/>
                  </use>
                  <path fill="none" stroke="white" stroke-width="1.5" d="M0,-3.0v7 M-2.5,-0.5L0,-3.0L2.5,-0.5"/>
                </g>
        </g>
        <svg viewBox="0 0 15 15" width="100%" height="30px" preserveAspectRatio="xMaxYMin meet">
         <g id="arrow_out" transform="scale(0.3 0.3)">
          <a xlink:href="class_l_f_s_t_k__menu_item_class_ad2460aa76c71cb7ea548041e1ff858cf_ad2460aa76c71cb7ea548041e1ff858cf_cgraph_org.svg" target="_base">
           <rect id="button" ry="5" rx="5" y="6" x="6" height="38" width="38"
                fill="#f2f5e9" fill-opacity="0.5" stroke="#606060" stroke-width="1.0"/>
           <path id="arrow"
             d="M 11.500037,31.436501 C 11.940474,20.09759 22.043105,11.32322 32.158766,21.979434 L 37.068811,17.246167 C 37.068811,17.246167 37.088388,32 37.088388,32 L 22.160133,31.978069 C 22.160133,31.978069 26.997745,27.140456 26.997745,27.140456 C 18.528582,18.264221 13.291696,25.230495 11.500037,31.436501 z"
             style="fill:#404040;"/>
          </a>
         </g>
        </svg>
</svg>
