<?xml version="1.0" encoding="UTF-8" standalone="no"?>
<!DOCTYPE svg PUBLIC "-//W3C//DTD SVG 1.1//EN"
 "http://www.w3.org/Graphics/SVG/1.1/DTD/svg11.dtd">
<!-- Generated by graphviz version 2.40.1 (20161225.0304)
 -->
<!-- Title: LFSTK_multiLineEditClass::LFSTK_dropData Pages: 1 -->
<!--zoomable 117 -->
<svg id="main" version="1.1" xmlns="http://www.w3.org/2000/svg" xmlns:xlink="http://www.w3.org/1999/xlink" xml:space="preserve" onload="init(evt)">
<style type="text/css"><![CDATA[
.edge:hover path { stroke: red; }
.edge:hover polygon { stroke: red; fill: red; }
]]></style>
<script type="text/javascript"><![CDATA[
var edges = document.getElementsByTagName('g');
if (edges && edges.length) {
  for (var i=0;i<edges.length;i++) {
    if (edges[i].id.substr(0,4)=='edge') {
      edges[i].setAttribute('class','edge');
    }
  }
}
]]></script>
        <defs>
                <circle id="rim" cx="0" cy="0" r="7"/>
                <circle id="rim2" cx="0" cy="0" r="3.5"/>
                <g id="zoomPlus">
                        <use xlink:href="#rim" fill="#404040">
                                <set attributeName="fill" to="#808080" begin="zoomplus.mouseover" end="zoomplus.mouseout"/>
                        </use>
                        <path d="M-4,0h8M0,-4v8" fill="none" stroke="white" stroke-width="1.5" pointer-events="none"/>
                </g>
                <g id="zoomMin">
                        <use xlink:href="#rim" fill="#404040">
                                <set attributeName="fill" to="#808080" begin="zoomminus.mouseover" end="zoomminus.mouseout"/>
                        </use>
                        <path d="M-4,0h8" fill="none" stroke="white" stroke-width="1.5" pointer-events="none"/>
                </g>
                <g id="dirArrow">
                        <path fill="none" stroke="white" stroke-width="1.5" d="M0,-3.0v7 M-2.5,-0.5L0,-3.0L2.5,-0.5"/>
                </g>
               <g id="resetDef">
                       <use xlink:href="#rim2" fill="#404040">
                               <set attributeName="fill" to="#808080" begin="reset.mouseover" end="reset.mouseout"/>
                       </use>
               </g>
        </defs>

<script type="text/javascript">
var viewWidth = 835;
var viewHeight = 117;
var sectionId = 'dynsection-0';
</script>
<script xlink:href="svgpan.js"/>
<svg id="graph" class="graph">
<g id="viewport">
<title>LFSTK_multiLineEditClass::LFSTK_dropData</title>
<!-- Node1 -->
<g id="node1" class="node">
<title>Node1</title>
<g id="a_node1"><a xlink:title=" ">
<polygon fill="#bfbfbf" stroke="#000000" points="0,-50.5 0,-82.5 134.898,-82.5 134.898,-50.5 0,-50.5"/>
<text text-anchor="start" x="8" y="-69.5" font-family="Helvetica,sans-Serif" font-size="10.00" fill="#000000">LFSTK_multiLineEditClass</text>
<text text-anchor="middle" x="67.449" y="-57.5" font-family="Helvetica,sans-Serif" font-size="10.00" fill="#000000">::LFSTK_dropData</text>
</a>
</g>
</g>
<!-- Node2 -->
<g id="node2" class="node">
<title>Node2</title>
<g id="a_node2"><a xlink:href="class_l_f_s_t_k__lib_ac5fce97c4bbf2a3c4e500bdc22c994a9.xhtml#ac5fce97c4bbf2a3c4e500bdc22c994a9" target="_top" xlink:title=" ">
<polygon fill="none" stroke="#000000" points="170.898,-79.5 170.898,-99.5 314.703,-99.5 314.703,-79.5 170.898,-79.5"/>
<text text-anchor="middle" x="242.8005" y="-86.5" font-family="Helvetica,sans-Serif" font-size="10.00" fill="#000000">LFSTK_lib::LFSTK_oneLiner</text>
</a>
</g>
</g>
<!-- Node1&#45;&gt;Node2 -->
<g id="edge1" class="edge">
<title>Node1&#45;&gt;Node2</title>
<path fill="none" stroke="#191970" d="M134.9936,-75.3595C143.3843,-76.4601 152.035,-77.5947 160.6153,-78.7202"/>
<polygon fill="#191970" stroke="#191970" points="160.2654,-82.2042 170.6356,-80.0345 161.1758,-75.2636 160.2654,-82.2042"/>
</g>
<!-- Node3 -->
<g id="node3" class="node">
<title>Node3</title>
<g id="a_node3"><a xlink:href="class_l_f_s_t_k__multi_line_edit_class_ae50305eb44baa381e0c7ce5c2e86a22e.xhtml#ae50305eb44baa381e0c7ce5c2e86a22e" target="_top" xlink:title=" ">
<polygon fill="none" stroke="#000000" points="175.3515,-28.5 175.3515,-60.5 310.2495,-60.5 310.2495,-28.5 175.3515,-28.5"/>
<text text-anchor="start" x="183.3515" y="-47.5" font-family="Helvetica,sans-Serif" font-size="10.00" fill="#000000">LFSTK_multiLineEditClass</text>
<text text-anchor="middle" x="242.8005" y="-35.5" font-family="Helvetica,sans-Serif" font-size="10.00" fill="#000000">::LFSTK_setFormatedText</text>
</a>
</g>
</g>
<!-- Node1&#45;&gt;Node3 -->
<g id="edge2" class="edge">
<title>Node1&#45;&gt;Node3</title>
<path fill="none" stroke="#191970" d="M134.9936,-58.0257C144.9069,-56.782 155.183,-55.4927 165.2772,-54.2262"/>
<polygon fill="#191970" stroke="#191970" points="165.8041,-57.6877 175.2906,-52.9699 164.9327,-50.7421 165.8041,-57.6877"/>
</g>
<!-- Node4 -->
<g id="node4" class="node">
<title>Node4</title>
<g id="a_node4"><a xlink:href="class_l_f_s_t_k__multi_line_edit_class_aada0749d2c064f7a8f2af14ab82f08a5.xhtml#aada0749d2c064f7a8f2af14ab82f08a5" target="_top" xlink:title=" ">
<polygon fill="none" stroke="#000000" points="521.601,-51.5 521.601,-83.5 656.499,-83.5 656.499,-51.5 521.601,-51.5"/>
<text text-anchor="start" x="529.601" y="-70.5" font-family="Helvetica,sans-Serif" font-size="10.00" fill="#000000">LFSTK_multiLineEditClass</text>
<text text-anchor="middle" x="589.05" y="-58.5" font-family="Helvetica,sans-Serif" font-size="10.00" fill="#000000">::LFSTK_clearWindow</text>
</a>
</g>
</g>
<!-- Node3&#45;&gt;Node4 -->
<g id="edge3" class="edge">
<title>Node3&#45;&gt;Node4</title>
<path fill="none" stroke="#191970" d="M310.3829,-48.9892C367.9634,-52.8141 450.732,-58.3121 511.1,-62.3221"/>
<polygon fill="#191970" stroke="#191970" points="511.1329,-65.8319 521.3429,-63.0025 511.5969,-58.8473 511.1329,-65.8319"/>
</g>
<!-- Node7 -->
<g id="node7" class="node">
<title>Node7</title>
<g id="a_node7"><a xlink:href="class_l_f_s_t_k__multi_line_edit_class_ae1de86c1df295bbe1bcb63b2f98fbb4d.xhtml#ae1de86c1df295bbe1bcb63b2f98fbb4d" target="_top" xlink:title=" ">
<polygon fill="none" stroke="#000000" points="350.703,-6.5 350.703,-38.5 485.601,-38.5 485.601,-6.5 350.703,-6.5"/>
<text text-anchor="start" x="358.703" y="-25.5" font-family="Helvetica,sans-Serif" font-size="10.00" fill="#000000">LFSTK_multiLineEditClass</text>
<text text-anchor="middle" x="418.152" y="-13.5" font-family="Helvetica,sans-Serif" font-size="10.00" fill="#000000">::setDisplayLines</text>
</a>
</g>
</g>
<!-- Node3&#45;&gt;Node7 -->
<g id="edge6" class="edge">
<title>Node3&#45;&gt;Node7</title>
<path fill="none" stroke="#191970" d="M310.3451,-36.0257C320.2584,-34.782 330.5345,-33.4927 340.6287,-32.2262"/>
<polygon fill="#191970" stroke="#191970" points="341.1556,-35.6877 350.6421,-30.9699 340.2842,-28.7421 341.1556,-35.6877"/>
</g>
<!-- Node5 -->
<g id="node5" class="node">
<title>Node5</title>
<g id="a_node5"><a xlink:href="class_l_f_s_t_k__gadget_class_ab76db165a19af248b5e94e95492dc879.xhtml#ab76db165a19af248b5e94e95492dc879" target="_top" xlink:title=" ">
<polygon fill="none" stroke="#000000" points="703.0465,-76.5 703.0465,-108.5 816.8495,-108.5 816.8495,-76.5 703.0465,-76.5"/>
<text text-anchor="start" x="711.0465" y="-95.5" font-family="Helvetica,sans-Serif" font-size="10.00" fill="#000000">LFSTK_gadgetClass::</text>
<text text-anchor="middle" x="759.948" y="-83.5" font-family="Helvetica,sans-Serif" font-size="10.00" fill="#000000">drawBevel</text>
</a>
</g>
</g>
<!-- Node4&#45;&gt;Node5 -->
<g id="edge4" class="edge">
<title>Node4&#45;&gt;Node5</title>
<path fill="none" stroke="#191970" d="M656.5934,-77.3807C668.4278,-79.1119 680.7419,-80.9132 692.5717,-82.6438"/>
<polygon fill="#191970" stroke="#191970" points="692.4174,-86.1584 702.8187,-84.1428 693.4306,-79.2321 692.4174,-86.1584"/>
</g>
<!-- Node6 -->
<g id="node6" class="node">
<title>Node6</title>
<g id="a_node6"><a xlink:href="class_l_f_s_t_k__multi_line_edit_class_a48999ac31ea05c85d68ef2c5fc513c0e.xhtml#a48999ac31ea05c85d68ef2c5fc513c0e" target="_top" xlink:title=" ">
<polygon fill="none" stroke="#000000" points="692.499,-25.5 692.499,-57.5 827.397,-57.5 827.397,-25.5 692.499,-25.5"/>
<text text-anchor="start" x="700.499" y="-44.5" font-family="Helvetica,sans-Serif" font-size="10.00" fill="#000000">LFSTK_multiLineEditClass</text>
<text text-anchor="middle" x="759.948" y="-32.5" font-family="Helvetica,sans-Serif" font-size="10.00" fill="#000000">::drawText</text>
</a>
</g>
</g>
<!-- Node4&#45;&gt;Node6 -->
<g id="edge5" class="edge">
<title>Node4&#45;&gt;Node6</title>
<path fill="none" stroke="#191970" d="M656.5934,-57.2241C665.0428,-55.9386 673.7367,-54.616 682.3243,-53.3095"/>
<polygon fill="#191970" stroke="#191970" points="682.9758,-56.7507 692.3356,-51.7864 681.9229,-49.8304 682.9758,-56.7507"/>
</g>
<!-- Node7&#45;&gt;Node4 -->
<g id="edge7" class="edge">
<title>Node7&#45;&gt;Node4</title>
<path fill="none" stroke="#191970" d="M479.3674,-38.6189C492.0368,-41.955 505.481,-45.495 518.454,-48.911"/>
<polygon fill="#191970" stroke="#191970" points="517.7004,-52.3318 528.262,-51.4936 519.4829,-45.5626 517.7004,-52.3318"/>
</g>
<!-- Node8 -->
<g id="node8" class="node">
<title>Node8</title>
<g id="a_node8"><a xlink:href="class_l_f_s_t_k__gadget_class_a71d34233c5db545e92d37c0e3139459b.xhtml#a71d34233c5db545e92d37c0e3139459b" target="_top" xlink:title=" ">
<polygon fill="none" stroke="#000000" points="532.1485,-.5 532.1485,-32.5 645.9515,-32.5 645.9515,-.5 532.1485,-.5"/>
<text text-anchor="start" x="540.1485" y="-19.5" font-family="Helvetica,sans-Serif" font-size="10.00" fill="#000000">LFSTK_gadgetClass::</text>
<text text-anchor="middle" x="589.05" y="-7.5" font-family="Helvetica,sans-Serif" font-size="10.00" fill="#000000">LFSTK_getGeom</text>
</a>
</g>
</g>
<!-- Node7&#45;&gt;Node8 -->
<g id="edge8" class="edge">
<title>Node7&#45;&gt;Node8</title>
<path fill="none" stroke="#191970" d="M485.6954,-20.1286C497.5298,-19.7132 509.8439,-19.2808 521.6737,-18.8655"/>
<polygon fill="#191970" stroke="#191970" points="522.0497,-22.3545 531.9207,-18.5057 521.804,-15.3589 522.0497,-22.3545"/>
</g>
</g>
</svg>
        <g id="navigator" transform="translate(0 0)" fill="#404254">
                <rect fill="#f2f5e9" fill-opacity="0.5" stroke="#606060" stroke-width=".5" x="0" y="0" width="60" height="60"/>
                <use id="zoomplus" xlink:href="#zoomPlus" x="17" y="9" onmousedown="handleZoom(evt,'in')"/>
                <use id="zoomminus" xlink:href="#zoomMin" x="42" y="9" onmousedown="handleZoom(evt,'out')"/>
                <use id="reset" xlink:href="#resetDef" x="30" y="36" onmousedown="handleReset()"/>
                <g id="arrowUp" xlink:href="#dirArrow" transform="translate(30 24)" onmousedown="handlePan(0,-1)">
                  <use xlink:href="#rim" fill="#404040">
                        <set attributeName="fill" to="#808080" begin="arrowUp.mouseover" end="arrowUp.mouseout"/>
                  </use>
                  <path fill="none" stroke="white" stroke-width="1.5" d="M0,-3.0v7 M-2.5,-0.5L0,-3.0L2.5,-0.5"/>
                </g>
                <g id="arrowRight" xlink:href="#dirArrow" transform="rotate(90) translate(36 -43)" onmousedown="handlePan(1,0)">
                  <use xlink:href="#rim" fill="#404040">
                        <set attributeName="fill" to="#808080" begin="arrowRight.mouseover" end="arrowRight.mouseout"/>
                  </use>
                  <path fill="none" stroke="white" stroke-width="1.5" d="M0,-3.0v7 M-2.5,-0.5L0,-3.0L2.5,-0.5"/>
                </g>
                <g id="arrowDown" xlink:href="#dirArrow" transform="rotate(180) translate(-30 -48)" onmousedown="handlePan(0,1)">
                  <use xlink:href="#rim" fill="#404040">
                        <set attributeName="fill" to="#808080" begin="arrowDown.mouseover" end="arrowDown.mouseout"/>
                  </use>
                  <path fill="none" stroke="white" stroke-width="1.5" d="M0,-3.0v7 M-2.5,-0.5L0,-3.0L2.5,-0.5"/>
                </g>
                <g id="arrowLeft" xlink:href="#dirArrow" transform="rotate(270) translate(-36 17)" onmousedown="handlePan(-1,0)">
                  <use xlink:href="#rim" fill="#404040">
                        <set attributeName="fill" to="#808080" begin="arrowLeft.mouseover" end="arrowLeft.mouseout"/>
                  </use>
                  <path fill="none" stroke="white" stroke-width="1.5" d="M0,-3.0v7 M-2.5,-0.5L0,-3.0L2.5,-0.5"/>
                </g>
        </g>
        <svg viewBox="0 0 15 15" width="100%" height="30px" preserveAspectRatio="xMaxYMin meet">
         <g id="arrow_out" transform="scale(0.3 0.3)">
          <a xlink:href="class_l_f_s_t_k__multi_line_edit_class_a67d883fd9590a202e35805e040604226_a67d883fd9590a202e35805e040604226_cgraph_org.svg" target="_base">
           <rect id="button" ry="5" rx="5" y="6" x="6" height="38" width="38"
                fill="#f2f5e9" fill-opacity="0.5" stroke="#606060" stroke-width="1.0"/>
           <path id="arrow"
             d="M 11.500037,31.436501 C 11.940474,20.09759 22.043105,11.32322 32.158766,21.979434 L 37.068811,17.246167 C 37.068811,17.246167 37.088388,32 37.088388,32 L 22.160133,31.978069 C 22.160133,31.978069 26.997745,27.140456 26.997745,27.140456 C 18.528582,18.264221 13.291696,25.230495 11.500037,31.436501 z"
             style="fill:#404040;"/>
          </a>
         </g>
        </svg>
</svg>
