<?xml version="1.0" encoding="UTF-8" standalone="no"?>
<!DOCTYPE svg PUBLIC "-//W3C//DTD SVG 1.1//EN"
 "http://www.w3.org/Graphics/SVG/1.1/DTD/svg11.dtd">
<!-- Generated by graphviz version 2.40.1 (20161225.0304)
 -->
<!-- Title: LFSTK_gadgetClass::LFSTK_moveGadget Pages: 1 -->
<svg width="908pt" height="245pt"
 viewBox="0.00 0.00 907.94 245.00" xmlns="http://www.w3.org/2000/svg" xmlns:xlink="http://www.w3.org/1999/xlink">
<g id="graph0" class="graph" transform="scale(1 1) rotate(0) translate(4 241)">
<title>LFSTK_gadgetClass::LFSTK_moveGadget</title>
<!-- Node1 -->
<g id="node1" class="node">
<title>Node1</title>
<g id="a_node1"><a xlink:title=" ">
<polygon fill="#bfbfbf" stroke="#000000" points="786.142,-127.5 786.142,-159.5 899.945,-159.5 899.945,-127.5 786.142,-127.5"/>
<text text-anchor="start" x="794.142" y="-146.5" font-family="Helvetica,sans-Serif" font-size="10.00" fill="#000000">LFSTK_gadgetClass::</text>
<text text-anchor="middle" x="843.0435" y="-134.5" font-family="Helvetica,sans-Serif" font-size="10.00" fill="#000000">LFSTK_moveGadget</text>
</a>
</g>
</g>
<!-- Node2 -->
<g id="node2" class="node">
<title>Node2</title>
<g id="a_node2"><a xlink:href="class_l_f_s_t_k__scroll_bar_class_a3e47c5f9944ddb2a861b80853f85ce12.xhtml#a3e47c5f9944ddb2a861b80853f85ce12" target="_top" xlink:title=" ">
<polygon fill="none" stroke="#000000" points="633.588,-127.5 633.588,-159.5 750.142,-159.5 750.142,-127.5 633.588,-127.5"/>
<text text-anchor="start" x="641.588" y="-146.5" font-family="Helvetica,sans-Serif" font-size="10.00" fill="#000000">LFSTK_scrollBarClass</text>
<text text-anchor="middle" x="691.865" y="-134.5" font-family="Helvetica,sans-Serif" font-size="10.00" fill="#000000">::setState</text>
</a>
</g>
</g>
<!-- Node1&#45;&gt;Node2 -->
<g id="edge1" class="edge">
<title>Node1&#45;&gt;Node2</title>
<path fill="none" stroke="#191970" d="M775.684,-143.5C767.2375,-143.5 758.6522,-143.5 750.3568,-143.5"/>
<polygon fill="#191970" stroke="#191970" points="775.8894,-147.0001 785.8894,-143.5 775.8894,-140.0001 775.8894,-147.0001"/>
</g>
<!-- Node3 -->
<g id="node3" class="node">
<title>Node3</title>
<g id="a_node3"><a xlink:href="class_l_f_s_t_k__scroll_bar_class_a6a4b0d2c9217779bb3bc0b4c936130ce.xhtml#a6a4b0d2c9217779bb3bc0b4c936130ce" target="_top" xlink:title=" ">
<polygon fill="none" stroke="#000000" points="481.034,-204.5 481.034,-236.5 597.588,-236.5 597.588,-204.5 481.034,-204.5"/>
<text text-anchor="start" x="489.034" y="-223.5" font-family="Helvetica,sans-Serif" font-size="10.00" fill="#000000">LFSTK_scrollBarClass</text>
<text text-anchor="middle" x="539.311" y="-211.5" font-family="Helvetica,sans-Serif" font-size="10.00" fill="#000000">::LFSTK_clearWindow</text>
</a>
</g>
</g>
<!-- Node2&#45;&gt;Node3 -->
<g id="edge2" class="edge">
<title>Node2&#45;&gt;Node3</title>
<path fill="none" stroke="#191970" d="M640.7239,-164.2306C626.8698,-171.5426 611.7771,-179.5644 597.588,-186.5 585.1255,-192.5916 570.8133,-198.743 559.4911,-204.4927"/>
<polygon fill="#191970" stroke="#191970" points="642.4069,-167.3 649.6273,-159.5466 639.1477,-161.105 642.4069,-167.3"/>
</g>
<!-- Node4 -->
<g id="node4" class="node">
<title>Node4</title>
<g id="a_node4"><a xlink:href="class_l_f_s_t_k__scroll_bar_class_a955c2789a3ce6d849a3d00a3bf4911e7.xhtml#a955c2789a3ce6d849a3d00a3bf4911e7" target="_top" xlink:title=" ">
<polygon fill="none" stroke="#000000" points="481.034,-153.5 481.034,-185.5 597.588,-185.5 597.588,-153.5 481.034,-153.5"/>
<text text-anchor="start" x="489.034" y="-172.5" font-family="Helvetica,sans-Serif" font-size="10.00" fill="#000000">LFSTK_scrollBarClass</text>
<text text-anchor="middle" x="539.311" y="-160.5" font-family="Helvetica,sans-Serif" font-size="10.00" fill="#000000">::LFSTK_setValue</text>
</a>
</g>
</g>
<!-- Node2&#45;&gt;Node4 -->
<g id="edge4" class="edge">
<title>Node2&#45;&gt;Node4</title>
<path fill="none" stroke="#191970" d="M623.3522,-155.1767C614.7872,-156.6365 606.0903,-158.1187 597.6994,-159.5488"/>
<polygon fill="#191970" stroke="#191970" points="624.0501,-158.6083 633.3199,-153.4779 622.874,-151.7078 624.0501,-158.6083"/>
</g>
<!-- Node5 -->
<g id="node5" class="node">
<title>Node5</title>
<g id="a_node5"><a xlink:href="class_l_f_s_t_k__scroll_bar_class_aa1ce7f61248cfa6eeef3e8573e327d8f.xhtml#aa1ce7f61248cfa6eeef3e8573e327d8f" target="_top" xlink:title=" ">
<polygon fill="none" stroke="#000000" points="481.034,-102.5 481.034,-134.5 597.588,-134.5 597.588,-102.5 481.034,-102.5"/>
<text text-anchor="start" x="489.034" y="-121.5" font-family="Helvetica,sans-Serif" font-size="10.00" fill="#000000">LFSTK_scrollBarClass</text>
<text text-anchor="middle" x="539.311" y="-109.5" font-family="Helvetica,sans-Serif" font-size="10.00" fill="#000000">::lineUpDown</text>
</a>
</g>
</g>
<!-- Node2&#45;&gt;Node5 -->
<g id="edge5" class="edge">
<title>Node2&#45;&gt;Node5</title>
<path fill="none" stroke="#191970" d="M623.3522,-132.2724C614.7872,-130.8688 606.0903,-129.4435 597.6994,-128.0685"/>
<polygon fill="#191970" stroke="#191970" points="622.8855,-135.7425 633.3199,-133.9058 624.0176,-128.8346 622.8855,-135.7425"/>
</g>
<!-- Node13 -->
<g id="node13" class="node">
<title>Node13</title>
<g id="a_node13"><a xlink:href="class_l_f_s_t_k__scroll_bar_class_a72b11062708e9db06d05162734b5555b.xhtml#a72b11062708e9db06d05162734b5555b" target="_top" xlink:title=" ">
<polygon fill="none" stroke="#000000" points="481.034,-.5 481.034,-32.5 597.588,-32.5 597.588,-.5 481.034,-.5"/>
<text text-anchor="start" x="489.034" y="-19.5" font-family="Helvetica,sans-Serif" font-size="10.00" fill="#000000">LFSTK_scrollBarClass</text>
<text text-anchor="middle" x="539.311" y="-7.5" font-family="Helvetica,sans-Serif" font-size="10.00" fill="#000000">::mouseUp</text>
</a>
</g>
</g>
<!-- Node2&#45;&gt;Node13 -->
<g id="edge14" class="edge">
<title>Node2&#45;&gt;Node13</title>
<path fill="none" stroke="#191970" d="M674.3287,-119.3133C656.9451,-96.7358 628.5005,-63.3354 597.588,-41.5 592.9121,-38.1971 587.7313,-35.2045 582.4436,-32.5325"/>
<polygon fill="#191970" stroke="#191970" points="671.6105,-121.5215 680.4317,-127.3897 677.1953,-117.3013 671.6105,-121.5215"/>
</g>
<!-- Node14 -->
<g id="node14" class="node">
<title>Node14</title>
<g id="a_node14"><a xlink:href="class_l_f_s_t_k__scroll_bar_class_a04c7fd897a3f2e5d496962cc7d80d4e3.xhtml#a04c7fd897a3f2e5d496962cc7d80d4e3" target="_top" xlink:title=" ">
<polygon fill="none" stroke="#000000" points="481.034,-51.5 481.034,-83.5 597.588,-83.5 597.588,-51.5 481.034,-51.5"/>
<text text-anchor="start" x="489.034" y="-70.5" font-family="Helvetica,sans-Serif" font-size="10.00" fill="#000000">LFSTK_scrollBarClass</text>
<text text-anchor="middle" x="539.311" y="-58.5" font-family="Helvetica,sans-Serif" font-size="10.00" fill="#000000">::pageUpDown</text>
</a>
</g>
</g>
<!-- Node2&#45;&gt;Node14 -->
<g id="edge15" class="edge">
<title>Node2&#45;&gt;Node14</title>
<path fill="none" stroke="#191970" d="M653.7381,-122.5224C636.6957,-113.3424 616.2759,-102.6113 597.588,-93.5 590.8164,-90.1985 583.5303,-86.8164 576.481,-83.6296"/>
<polygon fill="#191970" stroke="#191970" points="652.3659,-125.7595 662.8262,-127.4427 655.6986,-119.6037 652.3659,-125.7595"/>
</g>
<!-- Node3&#45;&gt;Node2 -->
<g id="edge3" class="edge">
<title>Node3&#45;&gt;Node2</title>
<path fill="none" stroke="#191970" d="M606.3473,-200.1352C632.1485,-187.0565 659.1658,-171.4345 675.7725,-159.5159"/>
<polygon fill="#191970" stroke="#191970" points="604.6823,-197.0544 597.2909,-204.645 607.8026,-203.3205 604.6823,-197.0544"/>
</g>
<!-- Node6 -->
<g id="node6" class="node">
<title>Node6</title>
<g id="a_node6"><a xlink:href="class_l_f_s_t_k__scroll_bar_class_a3da4281c24ac345ba32a4636ce2af38b.xhtml#a3da4281c24ac345ba32a4636ce2af38b" target="_top" xlink:title=" ">
<polygon fill="none" stroke="#000000" points="322.922,-102.5 322.922,-134.5 445.034,-134.5 445.034,-102.5 322.922,-102.5"/>
<text text-anchor="start" x="330.922" y="-121.5" font-family="Helvetica,sans-Serif" font-size="10.00" fill="#000000">LFSTK_scrollBarClass</text>
<text text-anchor="middle" x="383.978" y="-109.5" font-family="Helvetica,sans-Serif" font-size="10.00" fill="#000000">::LFSTK_scrollBarClass</text>
</a>
</g>
</g>
<!-- Node5&#45;&gt;Node6 -->
<g id="edge6" class="edge">
<title>Node5&#45;&gt;Node6</title>
<path fill="none" stroke="#191970" d="M471.0272,-118.5C462.4243,-118.5 453.6656,-118.5 445.1816,-118.5"/>
<polygon fill="#191970" stroke="#191970" points="471.0288,-122.0001 481.0288,-118.5 471.0288,-115.0001 471.0288,-122.0001"/>
</g>
<!-- Node7 -->
<g id="node7" class="node">
<title>Node7</title>
<g id="a_node7"><a xlink:href="class_l_f_s_t_k__scroll_bar_class_a690ed010fb6760b5ee112df392076df5.xhtml#a690ed010fb6760b5ee112df392076df5" target="_top" xlink:title=" ">
<polygon fill="none" stroke="#000000" points="325.701,-153.5 325.701,-185.5 442.255,-185.5 442.255,-153.5 325.701,-153.5"/>
<text text-anchor="start" x="333.701" y="-172.5" font-family="Helvetica,sans-Serif" font-size="10.00" fill="#000000">LFSTK_scrollBarClass</text>
<text text-anchor="middle" x="383.978" y="-160.5" font-family="Helvetica,sans-Serif" font-size="10.00" fill="#000000">::LFSTK_scrollByLine</text>
</a>
</g>
</g>
<!-- Node5&#45;&gt;Node7 -->
<g id="edge7" class="edge">
<title>Node5&#45;&gt;Node7</title>
<path fill="none" stroke="#191970" d="M480.5292,-137.7997C464.7882,-142.9678 447.9455,-148.4977 432.8066,-153.4683"/>
<polygon fill="#191970" stroke="#191970" points="481.7535,-141.0816 490.1627,-134.6367 479.5698,-134.4309 481.7535,-141.0816"/>
</g>
<!-- Node8 -->
<g id="node8" class="node">
<title>Node8</title>
<g id="a_node8"><a xlink:href="class_l_f_s_t_k__list_gadget_class_afd92ab070d0d68863589669cb73404cf.xhtml#afd92ab070d0d68863589669cb73404cf" target="_top" xlink:title=" ">
<polygon fill="none" stroke="#000000" points="164.24,-102.5 164.24,-134.5 286.922,-134.5 286.922,-102.5 164.24,-102.5"/>
<text text-anchor="start" x="172.24" y="-121.5" font-family="Helvetica,sans-Serif" font-size="10.00" fill="#000000">LFSTK_listGadgetClass</text>
<text text-anchor="middle" x="225.581" y="-109.5" font-family="Helvetica,sans-Serif" font-size="10.00" fill="#000000">::keyRelease</text>
</a>
</g>
</g>
<!-- Node7&#45;&gt;Node8 -->
<g id="edge8" class="edge">
<title>Node7&#45;&gt;Node8</title>
<path fill="none" stroke="#191970" d="M324.0367,-150.2003C307.9852,-145.0322 290.8103,-139.5023 275.3728,-134.5317"/>
<polygon fill="#191970" stroke="#191970" points="323.2687,-153.63 333.8602,-153.3633 325.4141,-146.9668 323.2687,-153.63"/>
</g>
<!-- Node9 -->
<g id="node9" class="node">
<title>Node9</title>
<g id="a_node9"><a xlink:href="class_l_f_s_t_k__list_gadget_class_ad54eba5a5dc2bac69eeb6a1e40b563d7.xhtml#ad54eba5a5dc2bac69eeb6a1e40b563d7" target="_top" xlink:title=" ">
<polygon fill="none" stroke="#000000" points="164.24,-153.5 164.24,-185.5 286.922,-185.5 286.922,-153.5 164.24,-153.5"/>
<text text-anchor="start" x="172.24" y="-172.5" font-family="Helvetica,sans-Serif" font-size="10.00" fill="#000000">LFSTK_listGadgetClass</text>
<text text-anchor="middle" x="225.581" y="-160.5" font-family="Helvetica,sans-Serif" font-size="10.00" fill="#000000">::mouseUp</text>
</a>
</g>
</g>
<!-- Node7&#45;&gt;Node9 -->
<g id="edge9" class="edge">
<title>Node7&#45;&gt;Node9</title>
<path fill="none" stroke="#191970" d="M315.3437,-169.5C305.936,-169.5 296.3258,-169.5 287.057,-169.5"/>
<polygon fill="#191970" stroke="#191970" points="315.4469,-173.0001 325.4468,-169.5 315.4468,-166.0001 315.4469,-173.0001"/>
</g>
<!-- Node10 -->
<g id="node10" class="node">
<title>Node10</title>
<g id="a_node10"><a xlink:href="class_l_f_s_t_k__list_gadget_class_ad9b006620b5e9712da9b0ee3ead405de.xhtml#ad9b006620b5e9712da9b0ee3ead405de" target="_top" xlink:title=" ">
<polygon fill="none" stroke="#000000" points="164.24,-204.5 164.24,-236.5 286.922,-236.5 286.922,-204.5 164.24,-204.5"/>
<text text-anchor="start" x="172.24" y="-223.5" font-family="Helvetica,sans-Serif" font-size="10.00" fill="#000000">LFSTK_listGadgetClass</text>
<text text-anchor="middle" x="225.581" y="-211.5" font-family="Helvetica,sans-Serif" font-size="10.00" fill="#000000">::select</text>
</a>
</g>
</g>
<!-- Node7&#45;&gt;Node10 -->
<g id="edge10" class="edge">
<title>Node7&#45;&gt;Node10</title>
<path fill="none" stroke="#191970" d="M324.0367,-188.7997C307.9852,-193.9678 290.8103,-199.4977 275.3728,-204.4683"/>
<polygon fill="#191970" stroke="#191970" points="325.4141,-192.0332 333.8602,-185.6367 323.2687,-185.37 325.4141,-192.0332"/>
</g>
<!-- Node12 -->
<g id="node12" class="node">
<title>Node12</title>
<g id="a_node12"><a xlink:href="class_l_f_s_t_k__list_gadget_class_acf5ccc1d522f0d8a3b23e392b7ce30a5.xhtml#acf5ccc1d522f0d8a3b23e392b7ce30a5" target="_top" xlink:title=" ">
<polygon fill="none" stroke="#000000" points="164.24,-51.5 164.24,-83.5 286.922,-83.5 286.922,-51.5 164.24,-51.5"/>
<text text-anchor="start" x="172.24" y="-70.5" font-family="Helvetica,sans-Serif" font-size="10.00" fill="#000000">LFSTK_listGadgetClass</text>
<text text-anchor="middle" x="225.581" y="-58.5" font-family="Helvetica,sans-Serif" font-size="10.00" fill="#000000">::selectKey</text>
</a>
</g>
</g>
<!-- Node7&#45;&gt;Node12 -->
<g id="edge12" class="edge">
<title>Node7&#45;&gt;Node12</title>
<path fill="none" stroke="#191970" d="M327.8586,-148.1099C326.1527,-146.9602 324.5014,-145.7574 322.922,-144.5 301.2161,-127.219 308.5215,-110.9138 286.922,-93.5 282.2396,-89.725 276.9285,-86.4108 271.4373,-83.526"/>
<polygon fill="#191970" stroke="#191970" points="326.3811,-151.304 336.7618,-153.4233 329.9684,-145.2931 326.3811,-151.304"/>
</g>
<!-- Node11 -->
<g id="node11" class="node">
<title>Node11</title>
<g id="a_node11"><a xlink:href="class_l_f_s_t_k__list_gadget_class_ae3518016f28ec3cd261ad927c5691826.xhtml#ae3518016f28ec3cd261ad927c5691826" target="_top" xlink:title=" ">
<polygon fill="none" stroke="#000000" points="0,-127.5 0,-159.5 128.24,-159.5 128.24,-127.5 0,-127.5"/>
<text text-anchor="start" x="8" y="-146.5" font-family="Helvetica,sans-Serif" font-size="10.00" fill="#000000">LFSTK_listGadgetClass</text>
<text text-anchor="middle" x="64.12" y="-134.5" font-family="Helvetica,sans-Serif" font-size="10.00" fill="#000000">::LFSTK_listGadgetClass</text>
</a>
</g>
</g>
<!-- Node10&#45;&gt;Node11 -->
<g id="edge11" class="edge">
<title>Node10&#45;&gt;Node11</title>
<path fill="none" stroke="#191970" d="M175.3546,-200.472C171.5758,-198.8304 167.8364,-197.1625 164.24,-195.5 140.0608,-184.3225 113.3155,-170.3453 93.5546,-159.6977"/>
<polygon fill="#191970" stroke="#191970" points="174.1979,-203.7835 184.7698,-204.4807 176.9401,-197.343 174.1979,-203.7835"/>
</g>
<!-- Node12&#45;&gt;Node11 -->
<g id="edge13" class="edge">
<title>Node12&#45;&gt;Node11</title>
<path fill="none" stroke="#191970" d="M177.5586,-87.5157C173.0402,-89.5008 168.5433,-91.5158 164.24,-93.5 140.7739,-104.32 114.6668,-117.3929 94.9968,-127.4575"/>
<polygon fill="#191970" stroke="#191970" points="179.0277,-90.6936 186.8082,-83.5023 176.2414,-84.272 179.0277,-90.6936"/>
</g>
<!-- Node15 -->
<g id="node15" class="node">
<title>Node15</title>
<g id="a_node15"><a xlink:href="class_l_f_s_t_k__scroll_bar_class_a1aa54518e56118cc5f92890b7269c3d1.xhtml#a1aa54518e56118cc5f92890b7269c3d1" target="_top" xlink:title=" ">
<polygon fill="none" stroke="#000000" points="325.6915,-51.5 325.6915,-83.5 442.2645,-83.5 442.2645,-51.5 325.6915,-51.5"/>
<text text-anchor="start" x="333.6915" y="-70.5" font-family="Helvetica,sans-Serif" font-size="10.00" fill="#000000">LFSTK_scrollBarClass</text>
<text text-anchor="middle" x="383.978" y="-58.5" font-family="Helvetica,sans-Serif" font-size="10.00" fill="#000000">::LFSTK_scrollByPage</text>
</a>
</g>
</g>
<!-- Node14&#45;&gt;Node15 -->
<g id="edge16" class="edge">
<title>Node14&#45;&gt;Node15</title>
<path fill="none" stroke="#191970" d="M470.8167,-67.5C461.3131,-67.5 451.6237,-67.5 442.3285,-67.5"/>
<polygon fill="#191970" stroke="#191970" points="471.0288,-71.0001 481.0288,-67.5 471.0288,-64.0001 471.0288,-71.0001"/>
</g>
<!-- Node15&#45;&gt;Node8 -->
<g id="edge17" class="edge">
<title>Node15&#45;&gt;Node8</title>
<path fill="none" stroke="#191970" d="M324.0367,-86.7997C307.9852,-91.9678 290.8103,-97.4977 275.3728,-102.4683"/>
<polygon fill="#191970" stroke="#191970" points="325.4141,-90.0332 333.8602,-83.6367 323.2687,-83.37 325.4141,-90.0332"/>
</g>
<!-- Node15&#45;&gt;Node12 -->
<g id="edge18" class="edge">
<title>Node15&#45;&gt;Node12</title>
<path fill="none" stroke="#191970" d="M315.3437,-67.5C305.936,-67.5 296.3258,-67.5 287.057,-67.5"/>
<polygon fill="#191970" stroke="#191970" points="315.4469,-71.0001 325.4468,-67.5 315.4468,-64.0001 315.4469,-71.0001"/>
</g>
</g>
</svg>
