<?xml version="1.0" encoding="UTF-8" standalone="no"?>
<!DOCTYPE svg PUBLIC "-//W3C//DTD SVG 1.1//EN"
 "http://www.w3.org/Graphics/SVG/1.1/DTD/svg11.dtd">
<!-- Generated by graphviz version 2.40.1 (20161225.0304)
 -->
<!-- Title: LFSTK_fontDialogClass::buildFontString Pages: 1 -->
<svg width="639pt" height="270pt"
 viewBox="0.00 0.00 638.97 270.00" xmlns="http://www.w3.org/2000/svg" xmlns:xlink="http://www.w3.org/1999/xlink">
<g id="graph0" class="graph" transform="scale(1 1) rotate(0) translate(4 266)">
<title>LFSTK_fontDialogClass::buildFontString</title>
<!-- Node1 -->
<g id="node1" class="node">
<title>Node1</title>
<g id="a_node1"><a xlink:title=" ">
<polygon fill="#bfbfbf" stroke="#000000" points="0,-102.5 0,-134.5 122.681,-134.5 122.681,-102.5 0,-102.5"/>
<text text-anchor="start" x="8" y="-121.5" font-family="Helvetica,sans-Serif" font-size="10.00" fill="#000000">LFSTK_fontDialogClass</text>
<text text-anchor="middle" x="61.3405" y="-109.5" font-family="Helvetica,sans-Serif" font-size="10.00" fill="#000000">::buildFontString</text>
</a>
</g>
</g>
<!-- Node2 -->
<g id="node2" class="node">
<title>Node2</title>
<g id="a_node2"><a xlink:href="class_l_f_s_t_k__line_edit_class_adbcfa08279eec28c5f4e2c33a056d396.xhtml#adbcfa08279eec28c5f4e2c33a056d396" target="_top" xlink:title=" ">
<polygon fill="none" stroke="#000000" points="178.1325,-204.5 178.1325,-236.5 293.5845,-236.5 293.5845,-204.5 178.1325,-204.5"/>
<text text-anchor="start" x="186.1325" y="-223.5" font-family="Helvetica,sans-Serif" font-size="10.00" fill="#000000">LFSTK_lineEditClass</text>
<text text-anchor="middle" x="235.8585" y="-211.5" font-family="Helvetica,sans-Serif" font-size="10.00" fill="#000000">::LFSTK_clearWindow</text>
</a>
</g>
</g>
<!-- Node1&#45;&gt;Node2 -->
<g id="edge1" class="edge">
<title>Node1&#45;&gt;Node2</title>
<path fill="none" stroke="#191970" d="M77.9468,-134.7272C96.337,-151.9175 127.5222,-178.8299 158.681,-195.5 161.9797,-197.2648 165.4248,-198.9326 168.9503,-200.5044"/>
<polygon fill="#191970" stroke="#191970" points="167.8478,-203.8363 178.4253,-204.4418 170.534,-197.3722 167.8478,-203.8363"/>
</g>
<!-- Node7 -->
<g id="node7" class="node">
<title>Node7</title>
<g id="a_node7"><a xlink:href="class_l_f_s_t_k__line_edit_class_adfaad6bd5ec8f4ecc3be7a6358693786.xhtml#adfaad6bd5ec8f4ecc3be7a6358693786" target="_top" xlink:title=" ">
<polygon fill="none" stroke="#000000" points="180.632,-153.5 180.632,-185.5 291.085,-185.5 291.085,-153.5 180.632,-153.5"/>
<text text-anchor="start" x="188.632" y="-172.5" font-family="Helvetica,sans-Serif" font-size="10.00" fill="#000000">LFSTK_lineEditClass</text>
<text text-anchor="middle" x="235.8585" y="-160.5" font-family="Helvetica,sans-Serif" font-size="10.00" fill="#000000">::LFSTK_getCStr</text>
</a>
</g>
</g>
<!-- Node1&#45;&gt;Node7 -->
<g id="edge6" class="edge">
<title>Node1&#45;&gt;Node7</title>
<path fill="none" stroke="#191970" d="M116.5591,-134.6367C133.916,-139.709 153.237,-145.3552 171.1883,-150.6012"/>
<polygon fill="#191970" stroke="#191970" points="170.4188,-154.0227 180.9991,-153.4683 172.3824,-147.3037 170.4188,-154.0227"/>
</g>
<!-- Node8 -->
<g id="node8" class="node">
<title>Node8</title>
<g id="a_node8"><a xlink:href="class_l_f_s_t_k__list_gadget_class_adca4f8facb3b38e8eb94cd5164c8c415.xhtml#adca4f8facb3b38e8eb94cd5164c8c415" target="_top" xlink:title=" ">
<polygon fill="none" stroke="#000000" points="165.626,-102.5 165.626,-134.5 306.091,-134.5 306.091,-102.5 165.626,-102.5"/>
<text text-anchor="start" x="173.626" y="-121.5" font-family="Helvetica,sans-Serif" font-size="10.00" fill="#000000">LFSTK_listGadgetClass</text>
<text text-anchor="middle" x="235.8585" y="-109.5" font-family="Helvetica,sans-Serif" font-size="10.00" fill="#000000">::LFSTK_getCurrentListItem</text>
</a>
</g>
</g>
<!-- Node1&#45;&gt;Node8 -->
<g id="edge7" class="edge">
<title>Node1&#45;&gt;Node8</title>
<path fill="none" stroke="#191970" d="M122.869,-118.5C133.2805,-118.5 144.2286,-118.5 155.044,-118.5"/>
<polygon fill="#191970" stroke="#191970" points="155.3509,-122.0001 165.3509,-118.5 155.3509,-115.0001 155.3509,-122.0001"/>
</g>
<!-- Node9 -->
<g id="node9" class="node">
<title>Node9</title>
<g id="a_node9"><a xlink:href="class_l_f_s_t_k__toggle_button_class_a8a076e5b5871885e04cd5f91b9607c26.xhtml#a8a076e5b5871885e04cd5f91b9607c26" target="_top" xlink:title=" ">
<polygon fill="none" stroke="#000000" points="168.954,-51.5 168.954,-83.5 302.763,-83.5 302.763,-51.5 168.954,-51.5"/>
<text text-anchor="start" x="176.954" y="-70.5" font-family="Helvetica,sans-Serif" font-size="10.00" fill="#000000">LFSTK_toggleButtonClass</text>
<text text-anchor="middle" x="235.8585" y="-58.5" font-family="Helvetica,sans-Serif" font-size="10.00" fill="#000000">::LFSTK_getValue</text>
</a>
</g>
</g>
<!-- Node1&#45;&gt;Node9 -->
<g id="edge8" class="edge">
<title>Node1&#45;&gt;Node9</title>
<path fill="none" stroke="#191970" d="M116.5591,-102.3633C133.916,-97.291 153.237,-91.6448 171.1883,-86.3988"/>
<polygon fill="#191970" stroke="#191970" points="172.3824,-89.6963 180.9991,-83.5317 170.4188,-82.9773 172.3824,-89.6963"/>
</g>
<!-- Node10 -->
<g id="node10" class="node">
<title>Node10</title>
<g id="a_node10"><a xlink:href="class_l_f_s_t_k__gadget_class_a68d08536cf6845c8c2b60a9c5f855478.xhtml#a68d08536cf6845c8c2b60a9c5f855478" target="_top" xlink:title=" ">
<polygon fill="none" stroke="#000000" points="158.681,-.5 158.681,-32.5 313.036,-32.5 313.036,-.5 158.681,-.5"/>
<text text-anchor="start" x="166.681" y="-19.5" font-family="Helvetica,sans-Serif" font-size="10.00" fill="#000000">LFSTK_gadgetClass::</text>
<text text-anchor="middle" x="235.8585" y="-7.5" font-family="Helvetica,sans-Serif" font-size="10.00" fill="#000000">LFSTK_setCairoFontDataParts</text>
</a>
</g>
</g>
<!-- Node1&#45;&gt;Node10 -->
<g id="edge9" class="edge">
<title>Node1&#45;&gt;Node10</title>
<path fill="none" stroke="#191970" d="M78.3632,-102.2571C96.8613,-85.3489 127.9104,-59.0681 158.681,-42.5 162.6394,-40.3687 166.8051,-38.3657 171.0655,-36.492"/>
<polygon fill="#191970" stroke="#191970" points="172.5923,-39.6483 180.5001,-32.5973 169.9212,-33.178 172.5923,-39.6483"/>
</g>
<!-- Node3 -->
<g id="node3" class="node">
<title>Node3</title>
<g id="a_node3"><a xlink:href="class_l_f_s_t_k__gadget_class_ab76db165a19af248b5e94e95492dc879.xhtml#ab76db165a19af248b5e94e95492dc879" target="_top" xlink:title=" ">
<polygon fill="none" stroke="#000000" points="349.036,-229.5 349.036,-261.5 462.839,-261.5 462.839,-229.5 349.036,-229.5"/>
<text text-anchor="start" x="357.036" y="-248.5" font-family="Helvetica,sans-Serif" font-size="10.00" fill="#000000">LFSTK_gadgetClass::</text>
<text text-anchor="middle" x="405.9375" y="-236.5" font-family="Helvetica,sans-Serif" font-size="10.00" fill="#000000">drawBevel</text>
</a>
</g>
</g>
<!-- Node2&#45;&gt;Node3 -->
<g id="edge2" class="edge">
<title>Node2&#45;&gt;Node3</title>
<path fill="none" stroke="#191970" d="M293.9143,-229.0337C308.3792,-231.1598 324.006,-233.4568 338.8658,-235.6411"/>
<polygon fill="#191970" stroke="#191970" points="338.6044,-239.1402 349.0071,-237.1318 339.6225,-232.2146 338.6044,-239.1402"/>
</g>
<!-- Node4 -->
<g id="node4" class="node">
<title>Node4</title>
<g id="a_node4"><a xlink:href="class_l_f_s_t_k__line_edit_class_a24da1f04ceb3b05ed9b25988e2cb5130.xhtml#a24da1f04ceb3b05ed9b25988e2cb5130" target="_top" xlink:title=" ">
<polygon fill="none" stroke="#000000" points="350.711,-178.5 350.711,-210.5 461.164,-210.5 461.164,-178.5 350.711,-178.5"/>
<text text-anchor="start" x="358.711" y="-197.5" font-family="Helvetica,sans-Serif" font-size="10.00" fill="#000000">LFSTK_lineEditClass</text>
<text text-anchor="middle" x="405.9375" y="-185.5" font-family="Helvetica,sans-Serif" font-size="10.00" fill="#000000">::drawLabel</text>
</a>
</g>
</g>
<!-- Node2&#45;&gt;Node4 -->
<g id="edge3" class="edge">
<title>Node2&#45;&gt;Node4</title>
<path fill="none" stroke="#191970" d="M293.9143,-211.625C308.9129,-209.3322 325.1609,-206.8483 340.5076,-204.5023"/>
<polygon fill="#191970" stroke="#191970" points="341.0841,-207.9549 350.4403,-202.9839 340.0262,-201.0353 341.0841,-207.9549"/>
</g>
<!-- Node5 -->
<g id="node5" class="node">
<title>Node5</title>
<g id="a_node5"><a xlink:href="class_l_f_s_t_k__gadget_class_ac233a3c3e0900ff66adb74102a56f09f.xhtml#ac233a3c3e0900ff66adb74102a56f09f" target="_top" xlink:title=" ">
<polygon fill="none" stroke="#000000" points="498.839,-204.5 498.839,-236.5 630.968,-236.5 630.968,-204.5 498.839,-204.5"/>
<text text-anchor="start" x="506.839" y="-223.5" font-family="Helvetica,sans-Serif" font-size="10.00" fill="#000000">LFSTK_gadgetClass::</text>
<text text-anchor="middle" x="564.9035" y="-211.5" font-family="Helvetica,sans-Serif" font-size="10.00" fill="#000000">LFSTK_getTextRealWidth</text>
</a>
</g>
</g>
<!-- Node4&#45;&gt;Node5 -->
<g id="edge4" class="edge">
<title>Node4&#45;&gt;Node5</title>
<path fill="none" stroke="#191970" d="M461.5361,-203.5935C470.3468,-205.0346 479.5891,-206.5462 488.7716,-208.0481"/>
<polygon fill="#191970" stroke="#191970" points="488.2552,-211.5101 498.689,-209.6702 489.3851,-204.6018 488.2552,-211.5101"/>
</g>
<!-- Node6 -->
<g id="node6" class="node">
<title>Node6</title>
<g id="a_node6"><a xlink:href="class_l_f_s_t_k__gadget_class_a23bc2dc7b8200df4dc74f1f68460eca2.xhtml#a23bc2dc7b8200df4dc74f1f68460eca2" target="_top" xlink:title=" ">
<polygon fill="none" stroke="#000000" points="508.002,-153.5 508.002,-185.5 621.805,-185.5 621.805,-153.5 508.002,-153.5"/>
<text text-anchor="start" x="516.002" y="-172.5" font-family="Helvetica,sans-Serif" font-size="10.00" fill="#000000">LFSTK_gadgetClass::</text>
<text text-anchor="middle" x="564.9035" y="-160.5" font-family="Helvetica,sans-Serif" font-size="10.00" fill="#000000">LFSTK_getTextWidth</text>
</a>
</g>
</g>
<!-- Node4&#45;&gt;Node6 -->
<g id="edge5" class="edge">
<title>Node4&#45;&gt;Node6</title>
<path fill="none" stroke="#191970" d="M461.5361,-185.7562C473.2874,-183.9081 485.8065,-181.9393 497.9276,-180.033"/>
<polygon fill="#191970" stroke="#191970" points="498.6554,-183.4617 507.9902,-178.4506 497.5678,-176.5467 498.6554,-183.4617"/>
</g>
</g>
</svg>
