<?xml version="1.0" encoding="UTF-8" standalone="no"?>
<!DOCTYPE svg PUBLIC "-//W3C//DTD SVG 1.1//EN"
 "http://www.w3.org/Graphics/SVG/1.1/DTD/svg11.dtd">
<!-- Generated by graphviz version 2.40.1 (20161225.0304)
 -->
<!-- Title: LFSTK_menuClass::LFSTK_freeMenus Pages: 1 -->
<svg width="329pt" height="92pt"
 viewBox="0.00 0.00 328.54 92.00" xmlns="http://www.w3.org/2000/svg" xmlns:xlink="http://www.w3.org/1999/xlink">
<g id="graph0" class="graph" transform="scale(1 1) rotate(0) translate(4 88)">
<title>LFSTK_menuClass::LFSTK_freeMenus</title>
<!-- Node1 -->
<g id="node1" class="node">
<title>Node1</title>
<g id="a_node1"><a xlink:title=" ">
<polygon fill="#bfbfbf" stroke="#000000" points="181.189,-25.5 181.189,-57.5 320.539,-57.5 320.539,-25.5 181.189,-25.5"/>
<text text-anchor="start" x="189.189" y="-44.5" font-family="Helvetica,sans-Serif" font-size="10.00" fill="#000000">LFSTK_menuClass::LFSTK</text>
<text text-anchor="middle" x="250.864" y="-32.5" font-family="Helvetica,sans-Serif" font-size="10.00" fill="#000000">_freeMenus</text>
</a>
</g>
</g>
<!-- Node2 -->
<g id="node2" class="node">
<title>Node2</title>
<g id="a_node2"><a xlink:href="class_l_f_s_t_k__menu_class_a063a1196c3267ebac0f6e2f118ad4647.xhtml#a063a1196c3267ebac0f6e2f118ad4647" target="_top" xlink:title=" ">
<polygon fill="none" stroke="#000000" points="2.9195,-51.5 2.9195,-83.5 142.2695,-83.5 142.2695,-51.5 2.9195,-51.5"/>
<text text-anchor="start" x="10.9195" y="-70.5" font-family="Helvetica,sans-Serif" font-size="10.00" fill="#000000">LFSTK_menuClass::LFSTK</text>
<text text-anchor="middle" x="72.5945" y="-58.5" font-family="Helvetica,sans-Serif" font-size="10.00" fill="#000000">_addMainMenus</text>
</a>
</g>
</g>
<!-- Node1&#45;&gt;Node2 -->
<g id="edge1" class="edge">
<title>Node1&#45;&gt;Node2</title>
<path fill="none" stroke="#191970" d="M171.2641,-53.1094C161.6844,-54.5065 151.9561,-55.9254 142.5287,-57.3003"/>
<polygon fill="#191970" stroke="#191970" points="171.7843,-56.5706 181.1744,-51.664 170.774,-49.6439 171.7843,-56.5706"/>
</g>
<!-- Node3 -->
<g id="node3" class="node">
<title>Node3</title>
<g id="a_node3"><a xlink:href="class_l_f_s_t_k__menu_class_a19f1d56bf4e53d6cabc8d5f0575303b9.xhtml#a19f1d56bf4e53d6cabc8d5f0575303b9" target="_top" xlink:title=" ">
<polygon fill="none" stroke="#000000" points="0,-.5 0,-32.5 145.189,-32.5 145.189,-.5 0,-.5"/>
<text text-anchor="start" x="8" y="-19.5" font-family="Helvetica,sans-Serif" font-size="10.00" fill="#000000">LFSTK_menuClass::~LFSTK</text>
<text text-anchor="middle" x="72.5945" y="-7.5" font-family="Helvetica,sans-Serif" font-size="10.00" fill="#000000">_menuClass</text>
</a>
</g>
</g>
<!-- Node1&#45;&gt;Node3 -->
<g id="edge2" class="edge">
<title>Node1&#45;&gt;Node3</title>
<path fill="none" stroke="#191970" d="M171.1942,-30.3273C162.6301,-29.1263 153.948,-27.9088 145.4692,-26.7197"/>
<polygon fill="#191970" stroke="#191970" points="170.7852,-33.8042 181.1744,-31.7269 171.7574,-26.872 170.7852,-33.8042"/>
</g>
</g>
</svg>
