<?xml version="1.0" encoding="UTF-8" standalone="no"?>
<!DOCTYPE svg PUBLIC "-//W3C//DTD SVG 1.1//EN"
 "http://www.w3.org/Graphics/SVG/1.1/DTD/svg11.dtd">
<!-- Generated by graphviz version 2.40.1 (20161225.0304)
 -->
<!-- Title: LFSTK_labelClass Pages: 1 -->
<svg width="767pt" height="344pt"
 viewBox="0.00 0.00 766.73 344.00" xmlns="http://www.w3.org/2000/svg" xmlns:xlink="http://www.w3.org/1999/xlink">
<g id="graph0" class="graph" transform="scale(1 1) rotate(0) translate(4 340)">
<title>LFSTK_labelClass</title>
<!-- Node1 -->
<g id="node1" class="node">
<title>Node1</title>
<g id="a_node1"><a xlink:title="Label class for LFSToolKit gadgets.">
<polygon fill="#bfbfbf" stroke="#000000" points="0,-.5 0,-20.5 98.786,-20.5 98.786,-.5 0,-.5"/>
<text text-anchor="middle" x="49.393" y="-7.5" font-family="Helvetica,sans-Serif" font-size="10.00" fill="#000000">LFSTK_labelClass</text>
</a>
</g>
</g>
<!-- Node2 -->
<g id="node2" class="node">
<title>Node2</title>
<g id="a_node2"><a xlink:href="class_l_f_s_t_k__gadget_class.xhtml" target="_top" xlink:title="Base class for LFSToolKit gadgets.">
<polygon fill="none" stroke="#000000" points="142.2705,-81.5 142.2705,-101.5 250.5155,-101.5 250.5155,-81.5 142.2705,-81.5"/>
<text text-anchor="middle" x="196.393" y="-88.5" font-family="Helvetica,sans-Serif" font-size="10.00" fill="#000000">LFSTK_gadgetClass</text>
</a>
</g>
</g>
<!-- Node2&#45;&gt;Node1 -->
<g id="edge1" class="edge">
<title>Node2&#45;&gt;Node1</title>
<path fill="none" stroke="#191970" d="M146.3506,-78.2285C134.5136,-74.1473 122.1989,-69.088 111.393,-63 90.7484,-51.369 70.4987,-32.3938 59.0164,-20.7228"/>
<polygon fill="#191970" stroke="#191970" points="145.5453,-81.6475 156.1379,-81.4278 147.7203,-74.9939 145.5453,-81.6475"/>
</g>
<!-- Node7 -->
<g id="node7" class="node">
<title>Node7</title>
<g id="a_node7"><a xlink:href="class_l_f_s_t_k__window_class.xhtml" target="_top" xlink:title="Window class for LFSToolKit.">
<polygon fill="none" stroke="#000000" points="386.8905,-.5 386.8905,-20.5 497.8955,-20.5 497.8955,-.5 386.8905,-.5"/>
<text text-anchor="middle" x="442.393" y="-7.5" font-family="Helvetica,sans-Serif" font-size="10.00" fill="#000000">LFSTK_windowClass</text>
</a>
</g>
</g>
<!-- Node2&#45;&gt;Node7 -->
<g id="edge10" class="edge">
<title>Node2&#45;&gt;Node7</title>
<path fill="none" stroke="#9a32cd" stroke-dasharray="5,2" d="M225.245,-76.704C233.1685,-72.4471 241.6953,-67.6842 249.393,-63 265.5323,-53.1789 266.9987,-46.1696 284.478,-39 316.9542,-25.679 355.7163,-18.5668 386.7093,-14.7786"/>
<polygon fill="#9a32cd" stroke="#9a32cd" points="223.5083,-73.6631 216.3064,-81.4337 226.7822,-79.8503 223.5083,-73.6631"/>
<text text-anchor="middle" x="326.3505" y="-54" font-family="Helvetica,sans-Serif" font-size="10.00" fill="#000000"> dropGadget</text>
<text text-anchor="middle" x="326.3505" y="-42" font-family="Helvetica,sans-Serif" font-size="10.00" fill="#000000">popupFromGadget</text>
</g>
<!-- Node12 -->
<g id="node12" class="node">
<title>Node12</title>
<g id="a_node12"><a xlink:href="structmapped_listener.xhtml" target="_top" xlink:title=" ">
<polygon fill="none" stroke="#000000" points="116.5495,-.5 116.5495,-20.5 204.2365,-20.5 204.2365,-.5 116.5495,-.5"/>
<text text-anchor="middle" x="160.393" y="-7.5" font-family="Helvetica,sans-Serif" font-size="10.00" fill="#000000">mappedListener</text>
</a>
</g>
</g>
<!-- Node2&#45;&gt;Node12 -->
<g id="edge16" class="edge">
<title>Node2&#45;&gt;Node12</title>
<path fill="none" stroke="#9a32cd" stroke-dasharray="5,2" d="M147.3521,-78.3558C134.3747,-73.8426 122.8934,-68.5264 119.04,-63 112.9391,-54.2503 114.0796,-48.4431 119.04,-39 123.0948,-31.281 130.2918,-25.2437 137.5573,-20.7521"/>
<polygon fill="#9a32cd" stroke="#9a32cd" points="146.3861,-81.7221 156.9785,-81.4918 148.5544,-75.0664 146.3861,-81.7221"/>
<text text-anchor="middle" x="136.0695" y="-48" font-family="Helvetica,sans-Serif" font-size="10.00" fill="#000000"> gadget</text>
</g>
<!-- Node3 -->
<g id="node3" class="node">
<title>Node3</title>
<g id="a_node3"><a xlink:href="structgadget_struct.xhtml" target="_top" xlink:title=" ">
<polygon fill="none" stroke="#000000" points="280.0485,-158 280.0485,-178 352.7375,-178 352.7375,-158 280.0485,-158"/>
<text text-anchor="middle" x="316.393" y="-165" font-family="Helvetica,sans-Serif" font-size="10.00" fill="#000000">gadgetStruct</text>
</a>
</g>
</g>
<!-- Node3&#45;&gt;Node2 -->
<g id="edge2" class="edge">
<title>Node3&#45;&gt;Node2</title>
<path fill="none" stroke="#9a32cd" stroke-dasharray="5,2" d="M292.191,-152.5712C268.3024,-137.3422 232.4794,-114.5051 212.0848,-101.5035"/>
<polygon fill="#9a32cd" stroke="#9a32cd" points="290.3913,-155.5746 300.7051,-157.999 294.1543,-149.672 290.3913,-155.5746"/>
<text text-anchor="middle" x="288.3465" y="-123" font-family="Helvetica,sans-Serif" font-size="10.00" fill="#000000"> gadgetDetails</text>
</g>
<!-- Node4 -->
<g id="node4" class="node">
<title>Node4</title>
<g id="a_node4"><a xlink:href="structgeometry_struct.xhtml" target="_top" xlink:title=" ">
<polygon fill="none" stroke="#000000" points="528.499,-246.5 528.499,-266.5 612.287,-266.5 612.287,-246.5 528.499,-246.5"/>
<text text-anchor="middle" x="570.393" y="-253.5" font-family="Helvetica,sans-Serif" font-size="10.00" fill="#000000">geometryStruct</text>
</a>
</g>
</g>
<!-- Node4&#45;&gt;Node2 -->
<g id="edge6" class="edge">
<title>Node4&#45;&gt;Node2</title>
<path fill="none" stroke="#9a32cd" stroke-dasharray="5,2" d="M571.3637,-235.8971C572.4898,-201.7306 572.4613,-135.5578 556.393,-120 535.8276,-100.088 327.9133,-104.4519 299.393,-102 283.5439,-100.6375 266.3434,-98.9621 250.62,-97.3531"/>
<polygon fill="#9a32cd" stroke="#9a32cd" points="567.8568,-236.0071 570.9591,-246.1376 574.8513,-236.2836 567.8568,-236.0071"/>
<text text-anchor="middle" x="600.6825" y="-165" font-family="Helvetica,sans-Serif" font-size="10.00" fill="#000000"> gadgetGeom</text>
</g>
<!-- Node4&#45;&gt;Node3 -->
<g id="edge3" class="edge">
<title>Node4&#45;&gt;Node3</title>
<path fill="none" stroke="#9a32cd" stroke-dasharray="5,2" d="M529.0129,-243.2872C486.6776,-229.5952 419.1102,-207.2597 361.393,-186 354.7606,-183.557 347.6357,-180.7792 341.0557,-178.1494"/>
<polygon fill="#9a32cd" stroke="#9a32cd" points="528.0986,-246.6698 538.6902,-246.4086 530.2474,-240.0078 528.0986,-246.6698"/>
<text text-anchor="middle" x="513.2865" y="-219" font-family="Helvetica,sans-Serif" font-size="10.00" fill="#000000"> indicatorGeom</text>
<text text-anchor="middle" x="513.2865" y="-207" font-family="Helvetica,sans-Serif" font-size="10.00" fill="#000000">gadgetGeom</text>
</g>
<!-- Node4&#45;&gt;Node7 -->
<g id="edge8" class="edge">
<title>Node4&#45;&gt;Node7</title>
<path fill="none" stroke="#9a32cd" stroke-dasharray="5,2" d="M616.7482,-242.9988C644.2829,-232.3233 676.9456,-214.3848 693.393,-186 708.1147,-160.5934 702.6306,-146.692 690.393,-120 669.6923,-74.8487 657.2673,-62.2854 613.393,-39 593.7867,-28.5943 540.006,-20.7183 497.9404,-15.9113"/>
<polygon fill="#9a32cd" stroke="#9a32cd" points="615.4425,-239.7497 607.2577,-246.4772 617.8514,-246.3221 615.4425,-239.7497"/>
<text text-anchor="middle" x="727.0625" y="-123" font-family="Helvetica,sans-Serif" font-size="10.00" fill="#000000"> windowGeom</text>
</g>
<!-- Node5 -->
<g id="node5" class="node">
<title>Node5</title>
<g id="a_node5"><a xlink:href="structcolour_struct.xhtml" target="_top" xlink:title=" ">
<polygon fill="none" stroke="#000000" points="281.723,-246.5 281.723,-266.5 351.063,-266.5 351.063,-246.5 281.723,-246.5"/>
<text text-anchor="middle" x="316.393" y="-253.5" font-family="Helvetica,sans-Serif" font-size="10.00" fill="#000000">colourStruct</text>
</a>
</g>
</g>
<!-- Node5&#45;&gt;Node2 -->
<g id="edge18" class="edge">
<title>Node5&#45;&gt;Node2</title>
<path fill="none" stroke="#9a32cd" stroke-dasharray="5,2" d="M272.0443,-243.7184C244.169,-233.1306 210.4078,-215.0198 193.607,-186 177.982,-159.0113 187.085,-120.0293 192.8173,-101.7232"/>
<polygon fill="#9a32cd" stroke="#9a32cd" points="271.0267,-247.0717 281.6212,-247.1552 273.3912,-240.4831 271.0267,-247.0717"/>
<text text-anchor="middle" x="233.286" y="-177" font-family="Helvetica,sans-Serif" font-size="10.00" fill="#000000"> labelBGColour</text>
<text text-anchor="middle" x="233.286" y="-165" font-family="Helvetica,sans-Serif" font-size="10.00" fill="#000000">colourNames</text>
<text text-anchor="middle" x="233.286" y="-153" font-family="Helvetica,sans-Serif" font-size="10.00" fill="#000000">fontColourNames</text>
</g>
<!-- Node5&#45;&gt;Node3 -->
<g id="edge4" class="edge">
<title>Node5&#45;&gt;Node3</title>
<path fill="none" stroke="#9a32cd" stroke-dasharray="5,2" d="M316.393,-236.1978C316.393,-218.0125 316.393,-192.1048 316.393,-178.0337"/>
<polygon fill="#9a32cd" stroke="#9a32cd" points="312.8931,-236.3479 316.393,-246.3479 319.8931,-236.348 312.8931,-236.3479"/>
<text text-anchor="middle" x="331.395" y="-213" font-family="Helvetica,sans-Serif" font-size="10.00" fill="#000000"> colour</text>
</g>
<!-- Node5&#45;&gt;Node7 -->
<g id="edge12" class="edge">
<title>Node5&#45;&gt;Node7</title>
<path fill="none" stroke="#9a32cd" stroke-dasharray="5,2" d="M361.3436,-251.0077C393.0203,-246.3156 431.9266,-238.63 444.393,-228 477.9237,-199.4086 528.1708,-76.0998 504.393,-39 499.0873,-30.7216 490.7047,-24.8154 481.7981,-20.6133"/>
<polygon fill="#9a32cd" stroke="#9a32cd" points="360.7643,-247.5547 351.3556,-252.4258 361.7484,-254.4852 360.7643,-247.5547"/>
<text text-anchor="middle" x="549.0045" y="-123" font-family="Helvetica,sans-Serif" font-size="10.00" fill="#000000"> windowColourNames</text>
</g>
<!-- Node6 -->
<g id="node6" class="node">
<title>Node6</title>
<g id="a_node6"><a xlink:href="structcairo_color.xhtml" target="_top" xlink:title=" ">
<polygon fill="none" stroke="#000000" points="285.6175,-315.5 285.6175,-335.5 347.1685,-335.5 347.1685,-315.5 285.6175,-315.5"/>
<text text-anchor="middle" x="316.393" y="-322.5" font-family="Helvetica,sans-Serif" font-size="10.00" fill="#000000">cairoColor</text>
</a>
</g>
</g>
<!-- Node6&#45;&gt;Node5 -->
<g id="edge5" class="edge">
<title>Node6&#45;&gt;Node5</title>
<path fill="none" stroke="#9a32cd" stroke-dasharray="5,2" d="M316.393,-305.2177C316.393,-292.5684 316.393,-276.8285 316.393,-266.723"/>
<polygon fill="#9a32cd" stroke="#9a32cd" points="312.8931,-305.3188 316.393,-315.3188 319.8931,-305.3188 312.8931,-305.3188"/>
<text text-anchor="middle" x="346.6725" y="-288" font-family="Helvetica,sans-Serif" font-size="10.00" fill="#000000"> RGBAColour</text>
</g>
<!-- Node7&#45;&gt;Node2 -->
<g id="edge7" class="edge">
<title>Node7&#45;&gt;Node2</title>
<path fill="none" stroke="#9a32cd" stroke-dasharray="5,2" d="M376.4633,-13.7857C308.1368,-17.8736 209.6358,-25.9527 197.721,-39 187.3919,-50.3108 190.0479,-69.386 193.0943,-81.1637"/>
<polygon fill="#9a32cd" stroke="#9a32cd" points="376.9521,-17.2632 386.7316,-13.1876 376.5449,-10.2751 376.9521,-17.2632"/>
<text text-anchor="middle" x="224.229" y="-54" font-family="Helvetica,sans-Serif" font-size="10.00" fill="#000000"> contextWC</text>
<text text-anchor="middle" x="224.229" y="-42" font-family="Helvetica,sans-Serif" font-size="10.00" fill="#000000">wc</text>
</g>
<!-- Node8 -->
<g id="node8" class="node">
<title>Node8</title>
<g id="a_node8"><a xlink:href="structmonitor_struct.xhtml" target="_top" xlink:title=" ">
<polygon fill="none" stroke="#000000" points="308.669,-81.5 308.669,-101.5 384.117,-101.5 384.117,-81.5 308.669,-81.5"/>
<text text-anchor="middle" x="346.393" y="-88.5" font-family="Helvetica,sans-Serif" font-size="10.00" fill="#000000">monitorStruct</text>
</a>
</g>
</g>
<!-- Node8&#45;&gt;Node7 -->
<g id="edge9" class="edge">
<title>Node8&#45;&gt;Node7</title>
<path fill="none" stroke="#9a32cd" stroke-dasharray="5,2" d="M361.7801,-73.5953C371.4135,-62.9219 384.405,-49.4596 397.281,-39 405.622,-32.2243 415.6664,-25.7374 424.158,-20.6688"/>
<polygon fill="#9a32cd" stroke="#9a32cd" points="359.1298,-71.3089 355.1254,-81.1178 364.3727,-75.947 359.1298,-71.3089"/>
<text text-anchor="middle" x="416.949" y="-48" font-family="Helvetica,sans-Serif" font-size="10.00" fill="#000000"> monitors</text>
</g>
<!-- Node9 -->
<g id="node9" class="node">
<title>Node9</title>
<g id="a_node9"><a xlink:href="structdrop_data_struct.xhtml" target="_top" xlink:title=" ">
<polygon fill="none" stroke="#000000" points="401.7745,-81.5 401.7745,-101.5 485.0115,-101.5 485.0115,-81.5 401.7745,-81.5"/>
<text text-anchor="middle" x="443.393" y="-88.5" font-family="Helvetica,sans-Serif" font-size="10.00" fill="#000000">dropDataStruct</text>
</a>
</g>
</g>
<!-- Node9&#45;&gt;Node7 -->
<g id="edge11" class="edge">
<title>Node9&#45;&gt;Node7</title>
<path fill="none" stroke="#9a32cd" stroke-dasharray="5,2" d="M443.1423,-71.1972C442.9437,-55.1048 442.6744,-33.2944 442.5186,-20.6754"/>
<polygon fill="#9a32cd" stroke="#9a32cd" points="439.6431,-71.2853 443.2663,-81.2413 446.6425,-71.1988 439.6431,-71.2853"/>
<text text-anchor="middle" x="472.682" y="-48" font-family="Helvetica,sans-Serif" font-size="10.00" fill="#000000"> droppedData</text>
</g>
<!-- Node10 -->
<g id="node10" class="node">
<title>Node10</title>
<g id="a_node10"><a xlink:href="class_l_f_s_t_k__lib.xhtml" target="_top" xlink:title="Library of useful routines for LFSToolKit.">
<polygon fill="none" stroke="#000000" points="568.0575,-81.5 568.0575,-101.5 630.7285,-101.5 630.7285,-81.5 568.0575,-81.5"/>
<text text-anchor="middle" x="599.393" y="-88.5" font-family="Helvetica,sans-Serif" font-size="10.00" fill="#000000">LFSTK_lib</text>
</a>
</g>
</g>
<!-- Node10&#45;&gt;Node7 -->
<g id="edge13" class="edge">
<title>Node10&#45;&gt;Node7</title>
<path fill="none" stroke="#9a32cd" stroke-dasharray="5,2" d="M581.2538,-74.3412C568.4393,-62.9922 550.4035,-48.5065 532.393,-39 517.6086,-31.1964 500.3178,-25.0868 484.865,-20.5602"/>
<polygon fill="#9a32cd" stroke="#9a32cd" points="579.114,-77.126 588.868,-81.2623 583.8224,-71.9461 579.114,-77.126"/>
<text text-anchor="middle" x="587.788" y="-48" font-family="Helvetica,sans-Serif" font-size="10.00" fill="#000000"> globalLib</text>
</g>
<!-- Node11 -->
<g id="node11" class="node">
<title>Node11</title>
<g id="a_node11"><a xlink:href="structargs.xhtml" target="_top" xlink:title=" ">
<polygon fill="none" stroke="#000000" points="648.6695,-158 648.6695,-178 684.1165,-178 684.1165,-158 648.6695,-158"/>
<text text-anchor="middle" x="666.393" y="-165" font-family="Helvetica,sans-Serif" font-size="10.00" fill="#000000">args</text>
</a>
</g>
</g>
<!-- Node11&#45;&gt;Node10 -->
<g id="edge14" class="edge">
<title>Node11&#45;&gt;Node10</title>
<path fill="none" stroke="#9a32cd" stroke-dasharray="5,2" d="M640.0597,-152.6355C628.4976,-145.4468 616.6363,-137.3177 612.609,-132 605.8217,-123.038 602.4351,-110.4405 600.8038,-101.6842"/>
<polygon fill="#9a32cd" stroke="#9a32cd" points="638.3441,-155.6885 648.7083,-157.8873 641.9774,-149.7052 638.3441,-155.6885"/>
<text text-anchor="middle" x="651.285" y="-123" font-family="Helvetica,sans-Serif" font-size="10.00" fill="#000000"> lfsToolKitGlobals</text>
</g>
<!-- Node12&#45;&gt;Node2 -->
<g id="edge15" class="edge">
<title>Node12&#45;&gt;Node2</title>
<path fill="none" stroke="#9a32cd" stroke-dasharray="5,2" d="M156.7224,-30.7673C155.8348,-40.9228 156.2673,-53.1261 161.066,-63 164.7172,-70.5128 171.4015,-76.6903 177.9811,-81.3502"/>
<polygon fill="#9a32cd" stroke="#9a32cd" points="160.2044,-31.1338 158.0595,-20.7584 153.2661,-30.2068 160.2044,-31.1338"/>
<text text-anchor="middle" x="168.0565" y="-48" font-family="Helvetica,sans-Serif" font-size="10.00" fill="#000000"> ml</text>
</g>
<!-- Node13 -->
<g id="node13" class="node">
<title>Node13</title>
<g id="a_node13"><a xlink:href="structbutton_c_b.xhtml" target="_top" xlink:title=" ">
<polygon fill="none" stroke="#000000" points="370.552,-158 370.552,-178 428.234,-178 428.234,-158 370.552,-158"/>
<text text-anchor="middle" x="399.393" y="-165" font-family="Helvetica,sans-Serif" font-size="10.00" fill="#000000">buttonCB</text>
</a>
</g>
</g>
<!-- Node13&#45;&gt;Node2 -->
<g id="edge17" class="edge">
<title>Node13&#45;&gt;Node2</title>
<path fill="none" stroke="#9a32cd" stroke-dasharray="5,2" d="M378.4038,-151.7174C363.9468,-141.24 343.8965,-128.1129 324.393,-120 301.0604,-110.2943 273.8971,-103.6472 250.6116,-99.231"/>
<polygon fill="#9a32cd" stroke="#9a32cd" points="376.5139,-154.6736 386.6276,-157.8301 380.6897,-149.0555 376.5139,-154.6736"/>
<text text-anchor="middle" x="364.84" y="-123" font-family="Helvetica,sans-Serif" font-size="10.00" fill="#000000"> callback</text>
</g>
</g>
</svg>
