<?xml version="1.0" encoding="UTF-8" standalone="no"?>
<!DOCTYPE svg PUBLIC "-//W3C//DTD SVG 1.1//EN"
 "http://www.w3.org/Graphics/SVG/1.1/DTD/svg11.dtd">
<!-- Generated by graphviz version 2.40.1 (20161225.0304)
 -->
<!-- Title: LFSTK_gadgetClass::LFSTK_setFontString Pages: 1 -->
<!--zoomable 542 -->
<svg id="main" version="1.1" xmlns="http://www.w3.org/2000/svg" xmlns:xlink="http://www.w3.org/1999/xlink" xml:space="preserve" onload="init(evt)">
<style type="text/css"><![CDATA[
.edge:hover path { stroke: red; }
.edge:hover polygon { stroke: red; fill: red; }
]]></style>
<script type="text/javascript"><![CDATA[
var edges = document.getElementsByTagName('g');
if (edges && edges.length) {
  for (var i=0;i<edges.length;i++) {
    if (edges[i].id.substr(0,4)=='edge') {
      edges[i].setAttribute('class','edge');
    }
  }
}
]]></script>
        <defs>
                <circle id="rim" cx="0" cy="0" r="7"/>
                <circle id="rim2" cx="0" cy="0" r="3.5"/>
                <g id="zoomPlus">
                        <use xlink:href="#rim" fill="#404040">
                                <set attributeName="fill" to="#808080" begin="zoomplus.mouseover" end="zoomplus.mouseout"/>
                        </use>
                        <path d="M-4,0h8M0,-4v8" fill="none" stroke="white" stroke-width="1.5" pointer-events="none"/>
                </g>
                <g id="zoomMin">
                        <use xlink:href="#rim" fill="#404040">
                                <set attributeName="fill" to="#808080" begin="zoomminus.mouseover" end="zoomminus.mouseout"/>
                        </use>
                        <path d="M-4,0h8" fill="none" stroke="white" stroke-width="1.5" pointer-events="none"/>
                </g>
                <g id="dirArrow">
                        <path fill="none" stroke="white" stroke-width="1.5" d="M0,-3.0v7 M-2.5,-0.5L0,-3.0L2.5,-0.5"/>
                </g>
               <g id="resetDef">
                       <use xlink:href="#rim2" fill="#404040">
                               <set attributeName="fill" to="#808080" begin="reset.mouseover" end="reset.mouseout"/>
                       </use>
               </g>
        </defs>

<script type="text/javascript">
var viewWidth = 611;
var viewHeight = 542;
var sectionId = 'dynsection-1';
</script>
<script xlink:href="svgpan.js"/>
<svg id="graph" class="graph">
<g id="viewport">
<title>LFSTK_gadgetClass::LFSTK_setFontString</title>
<!-- Node1 -->
<g id="node1" class="node">
<title>Node1</title>
<g id="a_node1"><a xlink:title=" ">
<polygon fill="#bfbfbf" stroke="#000000" points="488.81,-110.3079 488.81,-142.3079 602.613,-142.3079 602.613,-110.3079 488.81,-110.3079"/>
<text text-anchor="start" x="496.81" y="-129.3079" font-family="Helvetica,sans-Serif" font-size="10.00" fill="#000000">LFSTK_gadgetClass::</text>
<text text-anchor="middle" x="545.7115" y="-117.3079" font-family="Helvetica,sans-Serif" font-size="10.00" fill="#000000">LFSTK_setFontString</text>
</a>
</g>
</g>
<!-- Node2 -->
<g id="node2" class="node">
<title>Node2</title>
<g id="a_node2"><a xlink:href="class_l_f_s_t_k__gadget_class_af7a3a7b33909c6560b1cf27033548c46.xhtml#af7a3a7b33909c6560b1cf27033548c46" target="_top" xlink:title=" ">
<polygon fill="none" stroke="#000000" points="333.739,-243.3079 333.739,-275.3079 447.542,-275.3079 447.542,-243.3079 333.739,-243.3079"/>
<text text-anchor="start" x="341.739" y="-262.3079" font-family="Helvetica,sans-Serif" font-size="10.00" fill="#000000">LFSTK_gadgetClass::</text>
<text text-anchor="middle" x="390.6405" y="-250.3079" font-family="Helvetica,sans-Serif" font-size="10.00" fill="#000000">initGadget</text>
</a>
</g>
</g>
<!-- Node1&#45;&gt;Node2 -->
<g id="edge1" class="edge">
<title>Node1&#45;&gt;Node2</title>
<path fill="none" stroke="#191970" d="M525.8055,-150.1998C507.968,-170.7534 480.4287,-200.4573 452.81,-222.3079 443.1568,-229.9451 431.7836,-237.1572 421.422,-243.1505"/>
<polygon fill="#191970" stroke="#191970" points="528.5223,-152.4083 532.3735,-142.5382 523.2078,-147.8524 528.5223,-152.4083"/>
</g>
<!-- Node8 -->
<g id="node8" class="node">
<title>Node8</title>
<g id="a_node8"><a xlink:href="class_l_f_s_t_k__line_edit_class_af610951625203a6d75bce118b2b94386.xhtml#af610951625203a6d75bce118b2b94386" target="_top" xlink:title=" ">
<polygon fill="none" stroke="#000000" points="12.779,-195.3079 12.779,-227.3079 128.79,-227.3079 128.79,-195.3079 12.779,-195.3079"/>
<text text-anchor="start" x="20.779" y="-214.3079" font-family="Helvetica,sans-Serif" font-size="10.00" fill="#000000">LFSTK_lineEditClass</text>
<text text-anchor="middle" x="70.7845" y="-202.3079" font-family="Helvetica,sans-Serif" font-size="10.00" fill="#000000">::LFSTK_lineEditClass</text>
</a>
</g>
</g>
<!-- Node1&#45;&gt;Node8 -->
<g id="edge14" class="edge">
<title>Node1&#45;&gt;Node8</title>
<path fill="none" stroke="#191970" d="M482.6229,-145.0561C472.695,-147.6898 462.5091,-150.2096 452.81,-152.3079 339.1706,-176.8927 204.3758,-195.2237 129.1067,-204.5056"/>
<polygon fill="#191970" stroke="#191970" points="483.7011,-148.3902 492.4371,-142.3958 481.8697,-141.634 483.7011,-148.3902"/>
</g>
<!-- Node9 -->
<g id="node9" class="node">
<title>Node9</title>
<g id="a_node9"><a xlink:href="class_l_f_s_t_k__list_gadget_class_ae3518016f28ec3cd261ad927c5691826.xhtml#ae3518016f28ec3cd261ad927c5691826" target="_top" xlink:title=" ">
<polygon fill="none" stroke="#000000" points="6.6645,-42.3079 6.6645,-74.3079 134.9045,-74.3079 134.9045,-42.3079 6.6645,-42.3079"/>
<text text-anchor="start" x="14.6645" y="-61.3079" font-family="Helvetica,sans-Serif" font-size="10.00" fill="#000000">LFSTK_listGadgetClass</text>
<text text-anchor="middle" x="70.7845" y="-49.3079" font-family="Helvetica,sans-Serif" font-size="10.00" fill="#000000">::LFSTK_listGadgetClass</text>
</a>
</g>
</g>
<!-- Node1&#45;&gt;Node9 -->
<g id="edge15" class="edge">
<title>Node1&#45;&gt;Node9</title>
<path fill="none" stroke="#191970" d="M478.4562,-116.6783C387.099,-103.5978 224.9012,-80.3743 135.0957,-67.516"/>
<polygon fill="#191970" stroke="#191970" points="478.0291,-120.1528 488.4242,-118.1055 479.0213,-113.2234 478.0291,-120.1528"/>
</g>
<!-- Node10 -->
<g id="node10" class="node">
<title>Node10</title>
<g id="a_node10"><a xlink:href="class_l_f_s_t_k__menu_item_class_a382a9775dff59f06606ef0b3f43382cc.xhtml#a382a9775dff59f06606ef0b3f43382cc" target="_top" xlink:title=" ">
<polygon fill="none" stroke="#000000" points="6.944,-144.3079 6.944,-176.3079 134.625,-176.3079 134.625,-144.3079 6.944,-144.3079"/>
<text text-anchor="start" x="14.944" y="-163.3079" font-family="Helvetica,sans-Serif" font-size="10.00" fill="#000000">LFSTK_menuItemClass</text>
<text text-anchor="middle" x="70.7845" y="-151.3079" font-family="Helvetica,sans-Serif" font-size="10.00" fill="#000000">::LFSTK_menuItemClass</text>
</a>
</g>
</g>
<!-- Node1&#45;&gt;Node10 -->
<g id="edge16" class="edge">
<title>Node1&#45;&gt;Node10</title>
<path fill="none" stroke="#191970" d="M478.6154,-132.2298C469.9348,-132.9536 461.1627,-133.6641 452.81,-134.3079 340.9613,-142.9291 210.5725,-151.4819 134.6863,-156.3105"/>
<polygon fill="#191970" stroke="#191970" points="479.0622,-135.7047 488.7329,-131.3772 478.4743,-128.7294 479.0622,-135.7047"/>
</g>
<!-- Node11 -->
<g id="node11" class="node">
<title>Node11</title>
<g id="a_node11"><a xlink:href="class_l_f_s_t_k__multi_line_edit_class_a3319d21c84b3437e69bb87dc77531322.xhtml#a3319d21c84b3437e69bb87dc77531322" target="_top" xlink:title=" ">
<polygon fill="none" stroke="#000000" points=".5565,-93.3079 .5565,-125.3079 141.0125,-125.3079 141.0125,-93.3079 .5565,-93.3079"/>
<text text-anchor="start" x="8.5565" y="-112.3079" font-family="Helvetica,sans-Serif" font-size="10.00" fill="#000000">LFSTK_multiLineEditClass</text>
<text text-anchor="middle" x="70.7845" y="-100.3079" font-family="Helvetica,sans-Serif" font-size="10.00" fill="#000000">::LFSTK_multiLineEditClass</text>
</a>
</g>
</g>
<!-- Node1&#45;&gt;Node11 -->
<g id="edge17" class="edge">
<title>Node1&#45;&gt;Node11</title>
<path fill="none" stroke="#191970" d="M478.4123,-123.8989C389.1481,-120.7037 232.3072,-115.0896 141.4031,-111.8357"/>
<polygon fill="#191970" stroke="#191970" points="478.3054,-127.3972 488.4242,-124.2573 478.5558,-120.4017 478.3054,-127.3972"/>
</g>
<!-- Node14 -->
<g id="node14" class="node">
<title>Node14</title>
<g id="a_node14"><a xlink:href="class_l_f_s_t_k__file_dialog_class_a553ce8e885b0d60cbf515b7b3d1e8b65.xhtml#a553ce8e885b0d60cbf515b7b3d1e8b65" target="_top" xlink:title=" ">
<polygon fill="none" stroke="#000000" points="328.471,-27.3079 328.471,-59.3079 452.81,-59.3079 452.81,-27.3079 328.471,-27.3079"/>
<text text-anchor="start" x="336.471" y="-46.3079" font-family="Helvetica,sans-Serif" font-size="10.00" fill="#000000">LFSTK_fileDialogClass</text>
<text text-anchor="middle" x="390.6405" y="-34.3079" font-family="Helvetica,sans-Serif" font-size="10.00" fill="#000000">::LFSTK_fileDialogClass</text>
</a>
</g>
</g>
<!-- Node1&#45;&gt;Node14 -->
<g id="edge13" class="edge">
<title>Node1&#45;&gt;Node14</title>
<path fill="none" stroke="#191970" d="M508.8219,-105.1275C491.8635,-95.5283 471.4218,-84.1498 452.81,-74.3079 443.4276,-69.3465 433.1494,-64.133 423.6999,-59.4269"/>
<polygon fill="#191970" stroke="#191970" points="507.4273,-108.3605 517.8512,-110.2563 510.8846,-102.2739 507.4273,-108.3605"/>
</g>
<!-- Node15 -->
<g id="node15" class="node">
<title>Node15</title>
<g id="a_node15"><a xlink:href="class_l_f_s_t_k__gadget_class_a9f37719f8d8e0bc1163ea2781b6002af.xhtml#a9f37719f8d8e0bc1163ea2781b6002af" target="_top" xlink:title=" ">
<polygon fill="none" stroke="#000000" points="177.569,-5.3079 177.569,-37.3079 292.471,-37.3079 292.471,-5.3079 177.569,-5.3079"/>
<text text-anchor="start" x="185.569" y="-24.3079" font-family="Helvetica,sans-Serif" font-size="10.00" fill="#000000">LFSTK_gadgetClass::</text>
<text text-anchor="middle" x="235.02" y="-12.3079" font-family="Helvetica,sans-Serif" font-size="10.00" fill="#000000">LFSTK_reloadColours</text>
</a>
</g>
</g>
<!-- Node1&#45;&gt;Node15 -->
<g id="edge18" class="edge">
<title>Node1&#45;&gt;Node15</title>
<path fill="none" stroke="#191970" d="M532.8963,-101.1859C517.8058,-74.699 490.006,-34.4786 452.81,-17.3079 402.5089,5.9125 338.4553,1.2465 292.8625,-6.9935"/>
<polygon fill="#191970" stroke="#191970" points="529.9944,-103.173 537.8748,-110.2547 536.1306,-99.8044 529.9944,-103.173"/>
</g>
<!-- Node3 -->
<g id="node3" class="node">
<title>Node3</title>
<g id="a_node3"><a xlink:href="class_l_f_s_t_k__gadget_class_a13d0e1c40a4feae0531c0ce9188bcd62.xhtml#a13d0e1c40a4feae0531c0ce9188bcd62" target="_top" xlink:title=" ">
<polygon fill="none" stroke="#000000" points="178.1185,-246.3079 178.1185,-278.3079 291.9215,-278.3079 291.9215,-246.3079 178.1185,-246.3079"/>
<text text-anchor="start" x="186.1185" y="-265.3079" font-family="Helvetica,sans-Serif" font-size="10.00" fill="#000000">LFSTK_gadgetClass::</text>
<text text-anchor="middle" x="235.02" y="-253.3079" font-family="Helvetica,sans-Serif" font-size="10.00" fill="#000000">LFSTK_setCommon</text>
</a>
</g>
</g>
<!-- Node2&#45;&gt;Node3 -->
<g id="edge2" class="edge">
<title>Node2&#45;&gt;Node3</title>
<path fill="none" stroke="#191970" d="M323.2864,-260.6063C312.8831,-260.8069 302.2258,-261.0123 292.0768,-261.208"/>
<polygon fill="#191970" stroke="#191970" points="323.6462,-264.1001 333.5768,-260.408 323.5112,-257.1014 323.6462,-264.1001"/>
</g>
<!-- Node4 -->
<g id="node4" class="node">
<title>Node4</title>
<g id="a_node4"><a xlink:href="class_l_f_s_t_k__button_class_a2b46d2136069e61fc8c8ee88519b2a8f.xhtml#a2b46d2136069e61fc8c8ee88519b2a8f" target="_top" xlink:title=" ">
<polygon fill="none" stroke="#000000" points="15.273,-501.3079 15.273,-533.3079 126.296,-533.3079 126.296,-501.3079 15.273,-501.3079"/>
<text text-anchor="start" x="23.273" y="-520.3079" font-family="Helvetica,sans-Serif" font-size="10.00" fill="#000000">LFSTK_buttonClass::</text>
<text text-anchor="middle" x="70.7845" y="-508.3079" font-family="Helvetica,sans-Serif" font-size="10.00" fill="#000000">LFSTK_buttonClass</text>
</a>
</g>
</g>
<!-- Node3&#45;&gt;Node4 -->
<g id="edge3" class="edge">
<title>Node3&#45;&gt;Node4</title>
<path fill="none" stroke="#191970" d="M231.4795,-288.5276C223.7438,-335.7781 201.0058,-435.5683 141.569,-492.3079 137.1383,-496.5376 131.9485,-500.0568 126.4279,-502.9839"/>
<polygon fill="#191970" stroke="#191970" points="234.9628,-288.9034 233.0244,-278.4874 228.0442,-287.8388 234.9628,-288.9034"/>
</g>
<!-- Node5 -->
<g id="node5" class="node">
<title>Node5</title>
<g id="a_node5"><a xlink:href="class_l_f_s_t_k__font_dialog_class_ab7b6a4bca99713646ab6ac77dc34827c.xhtml#ab7b6a4bca99713646ab6ac77dc34827c" target="_top" xlink:title=" ">
<polygon fill="none" stroke="#000000" points="6.665,-450.3079 6.665,-482.3079 134.904,-482.3079 134.904,-450.3079 6.665,-450.3079"/>
<text text-anchor="start" x="14.665" y="-469.3079" font-family="Helvetica,sans-Serif" font-size="10.00" fill="#000000">LFSTK_fontDialogClass</text>
<text text-anchor="middle" x="70.7845" y="-457.3079" font-family="Helvetica,sans-Serif" font-size="10.00" fill="#000000">::LFSTK_fontDialogClass</text>
</a>
</g>
</g>
<!-- Node3&#45;&gt;Node5 -->
<g id="edge4" class="edge">
<title>Node3&#45;&gt;Node5</title>
<path fill="none" stroke="#191970" d="M228.0833,-288.4072C216.4995,-327.1109 189.6159,-399.6262 141.569,-441.3079 137.6311,-444.7241 133.1957,-447.6831 128.5144,-450.2443"/>
<polygon fill="#191970" stroke="#191970" points="231.5492,-289.0189 230.9497,-278.441 224.8219,-287.084 231.5492,-289.0189"/>
</g>
<!-- Node6 -->
<g id="node6" class="node">
<title>Node6</title>
<g id="a_node6"><a xlink:href="class_l_f_s_t_k__image_class_aff24b6452cb0a5d821b81770aa8f58d5.xhtml#aff24b6452cb0a5d821b81770aa8f58d5" target="_top" xlink:title=" ">
<polygon fill="none" stroke="#000000" points="0,-399.3079 0,-431.3079 141.569,-431.3079 141.569,-399.3079 0,-399.3079"/>
<text text-anchor="start" x="8" y="-418.3079" font-family="Helvetica,sans-Serif" font-size="10.00" fill="#000000">LFSTK_imageClass::LFSTK</text>
<text text-anchor="middle" x="70.7845" y="-406.3079" font-family="Helvetica,sans-Serif" font-size="10.00" fill="#000000">_imageClass</text>
</a>
</g>
</g>
<!-- Node3&#45;&gt;Node6 -->
<g id="edge5" class="edge">
<title>Node3&#45;&gt;Node6</title>
<path fill="none" stroke="#191970" d="M222.6311,-287.4969C207.3108,-316.2043 178.6517,-362.7077 141.569,-390.3079 137.0734,-393.6539 132.0909,-396.5813 126.912,-399.1361"/>
<polygon fill="#191970" stroke="#191970" points="225.8027,-288.9839 227.3083,-278.4965 219.5914,-285.756 225.8027,-288.9839"/>
</g>
<!-- Node7 -->
<g id="node7" class="node">
<title>Node7</title>
<g id="a_node7"><a xlink:href="class_l_f_s_t_k__label_class_a6085feaa122a3d1060351c659889628c.xhtml#a6085feaa122a3d1060351c659889628c" target="_top" xlink:title=" ">
<polygon fill="none" stroke="#000000" points="3.055,-348.3079 3.055,-380.3079 138.514,-380.3079 138.514,-348.3079 3.055,-348.3079"/>
<text text-anchor="start" x="11.055" y="-367.3079" font-family="Helvetica,sans-Serif" font-size="10.00" fill="#000000">LFSTK_labelClass::LFSTK</text>
<text text-anchor="middle" x="70.7845" y="-355.3079" font-family="Helvetica,sans-Serif" font-size="10.00" fill="#000000">_labelClass</text>
</a>
</g>
</g>
<!-- Node3&#45;&gt;Node7 -->
<g id="edge6" class="edge">
<title>Node3&#45;&gt;Node7</title>
<path fill="none" stroke="#191970" d="M211.4737,-285.7025C193.5481,-302.4691 167.5981,-324.5995 141.569,-339.3079 135.7822,-342.5779 129.4918,-345.5372 123.1281,-348.1798"/>
<polygon fill="#191970" stroke="#191970" points="214.2898,-287.8539 219.1166,-278.4224 209.4618,-282.7853 214.2898,-287.8539"/>
</g>
<!-- Node3&#45;&gt;Node8 -->
<g id="edge7" class="edge">
<title>Node3&#45;&gt;Node8</title>
<path fill="none" stroke="#191970" d="M173.34,-243.1544C156.5623,-237.9445 138.5692,-232.3571 122.4116,-227.3396"/>
<polygon fill="#191970" stroke="#191970" points="172.4667,-246.5481 183.0549,-246.1712 174.5427,-239.863 172.4667,-246.5481"/>
</g>
<!-- Node3&#45;&gt;Node9 -->
<g id="edge8" class="edge">
<title>Node3&#45;&gt;Node9</title>
<path fill="none" stroke="#191970" d="M228.0833,-236.2087C216.4995,-197.5049 189.6159,-124.9896 141.569,-83.3079 137.6311,-79.8917 133.1957,-76.9327 128.5144,-74.3715"/>
<polygon fill="#191970" stroke="#191970" points="224.8219,-237.5318 230.9497,-246.1748 231.5492,-235.5969 224.8219,-237.5318"/>
</g>
<!-- Node3&#45;&gt;Node10 -->
<g id="edge9" class="edge">
<title>Node3&#45;&gt;Node10</title>
<path fill="none" stroke="#191970" d="M211.0367,-239.0292C193.0706,-222.574 167.2596,-200.9286 141.569,-186.3079 135.0834,-182.6169 127.9768,-179.2806 120.8471,-176.324"/>
<polygon fill="#191970" stroke="#191970" points="209.0088,-241.9235 218.7108,-246.1806 213.7811,-236.8024 209.0088,-241.9235"/>
</g>
<!-- Node3&#45;&gt;Node11 -->
<g id="edge10" class="edge">
<title>Node3&#45;&gt;Node11</title>
<path fill="none" stroke="#191970" d="M222.5215,-237.3996C207.0981,-208.9952 178.3423,-162.9291 141.569,-135.3079 136.5445,-131.5339 130.9156,-128.261 125.0857,-125.4341"/>
<polygon fill="#191970" stroke="#191970" points="219.4622,-239.1016 227.2332,-246.3031 225.6493,-235.8274 219.4622,-239.1016"/>
</g>
<!-- Node12 -->
<g id="node12" class="node">
<title>Node12</title>
<g id="a_node12"><a xlink:href="class_l_f_s_t_k__scroll_bar_class_a3da4281c24ac345ba32a4636ce2af38b.xhtml#a3da4281c24ac345ba32a4636ce2af38b" target="_top" xlink:title=" ">
<polygon fill="none" stroke="#000000" points="9.7285,-297.3079 9.7285,-329.3079 131.8405,-329.3079 131.8405,-297.3079 9.7285,-297.3079"/>
<text text-anchor="start" x="17.7285" y="-316.3079" font-family="Helvetica,sans-Serif" font-size="10.00" fill="#000000">LFSTK_scrollBarClass</text>
<text text-anchor="middle" x="70.7845" y="-304.3079" font-family="Helvetica,sans-Serif" font-size="10.00" fill="#000000">::LFSTK_scrollBarClass</text>
</a>
</g>
</g>
<!-- Node3&#45;&gt;Node12 -->
<g id="edge11" class="edge">
<title>Node3&#45;&gt;Node12</title>
<path fill="none" stroke="#191970" d="M173.34,-281.4614C156.5623,-286.6713 138.5692,-292.2588 122.4116,-297.2762"/>
<polygon fill="#191970" stroke="#191970" points="174.5427,-284.7528 183.0549,-278.4446 172.4667,-278.0677 174.5427,-284.7528"/>
</g>
<!-- Node13 -->
<g id="node13" class="node">
<title>Node13</title>
<g id="a_node13"><a xlink:href="class_l_f_s_t_k__toggle_button_class_a4cc0929a4d4113b9b40a3bdc54898ab7.xhtml#a4cc0929a4d4113b9b40a3bdc54898ab7" target="_top" xlink:title=" ">
<polygon fill="none" stroke="#000000" points="1.101,-246.3079 1.101,-278.3079 140.468,-278.3079 140.468,-246.3079 1.101,-246.3079"/>
<text text-anchor="start" x="9.101" y="-265.3079" font-family="Helvetica,sans-Serif" font-size="10.00" fill="#000000">LFSTK_toggleButtonClass</text>
<text text-anchor="middle" x="70.7845" y="-253.3079" font-family="Helvetica,sans-Serif" font-size="10.00" fill="#000000">::LFSTK_toggleButtonClass</text>
</a>
</g>
</g>
<!-- Node3&#45;&gt;Node13 -->
<g id="edge12" class="edge">
<title>Node3&#45;&gt;Node13</title>
<path fill="none" stroke="#191970" d="M168.0045,-262.3079C159.0007,-262.3079 149.746,-262.3079 140.6938,-262.3079"/>
<polygon fill="#191970" stroke="#191970" points="168.0393,-265.808 178.0393,-262.3079 168.0393,-258.808 168.0393,-265.808"/>
</g>
<!-- Node15&#45;&gt;Node9 -->
<g id="edge19" class="edge">
<title>Node15&#45;&gt;Node9</title>
<path fill="none" stroke="#191970" d="M167.1062,-36.6079C156.5369,-38.9891 145.6437,-41.4431 135.1562,-43.8058"/>
<polygon fill="#191970" stroke="#191970" points="168.1305,-39.965 177.1167,-34.3527 166.592,-33.1361 168.1305,-39.965"/>
</g>
</g>
</svg>
        <g id="navigator" transform="translate(0 0)" fill="#404254">
                <rect fill="#f2f5e9" fill-opacity="0.5" stroke="#606060" stroke-width=".5" x="0" y="0" width="60" height="60"/>
                <use id="zoomplus" xlink:href="#zoomPlus" x="17" y="9" onmousedown="handleZoom(evt,'in')"/>
                <use id="zoomminus" xlink:href="#zoomMin" x="42" y="9" onmousedown="handleZoom(evt,'out')"/>
                <use id="reset" xlink:href="#resetDef" x="30" y="36" onmousedown="handleReset()"/>
                <g id="arrowUp" xlink:href="#dirArrow" transform="translate(30 24)" onmousedown="handlePan(0,-1)">
                  <use xlink:href="#rim" fill="#404040">
                        <set attributeName="fill" to="#808080" begin="arrowUp.mouseover" end="arrowUp.mouseout"/>
                  </use>
                  <path fill="none" stroke="white" stroke-width="1.5" d="M0,-3.0v7 M-2.5,-0.5L0,-3.0L2.5,-0.5"/>
                </g>
                <g id="arrowRight" xlink:href="#dirArrow" transform="rotate(90) translate(36 -43)" onmousedown="handlePan(1,0)">
                  <use xlink:href="#rim" fill="#404040">
                        <set attributeName="fill" to="#808080" begin="arrowRight.mouseover" end="arrowRight.mouseout"/>
                  </use>
                  <path fill="none" stroke="white" stroke-width="1.5" d="M0,-3.0v7 M-2.5,-0.5L0,-3.0L2.5,-0.5"/>
                </g>
                <g id="arrowDown" xlink:href="#dirArrow" transform="rotate(180) translate(-30 -48)" onmousedown="handlePan(0,1)">
                  <use xlink:href="#rim" fill="#404040">
                        <set attributeName="fill" to="#808080" begin="arrowDown.mouseover" end="arrowDown.mouseout"/>
                  </use>
                  <path fill="none" stroke="white" stroke-width="1.5" d="M0,-3.0v7 M-2.5,-0.5L0,-3.0L2.5,-0.5"/>
                </g>
                <g id="arrowLeft" xlink:href="#dirArrow" transform="rotate(270) translate(-36 17)" onmousedown="handlePan(-1,0)">
                  <use xlink:href="#rim" fill="#404040">
                        <set attributeName="fill" to="#808080" begin="arrowLeft.mouseover" end="arrowLeft.mouseout"/>
                  </use>
                  <path fill="none" stroke="white" stroke-width="1.5" d="M0,-3.0v7 M-2.5,-0.5L0,-3.0L2.5,-0.5"/>
                </g>
        </g>
        <svg viewBox="0 0 15 15" width="100%" height="30px" preserveAspectRatio="xMaxYMin meet">
         <g id="arrow_out" transform="scale(0.3 0.3)">
          <a xlink:href="class_l_f_s_t_k__gadget_class_a94b109b103654941f59dd614f03cede1_a94b109b103654941f59dd614f03cede1_icgraph_org.svg" target="_base">
           <rect id="button" ry="5" rx="5" y="6" x="6" height="38" width="38"
                fill="#f2f5e9" fill-opacity="0.5" stroke="#606060" stroke-width="1.0"/>
           <path id="arrow"
             d="M 11.500037,31.436501 C 11.940474,20.09759 22.043105,11.32322 32.158766,21.979434 L 37.068811,17.246167 C 37.068811,17.246167 37.088388,32 37.088388,32 L 22.160133,31.978069 C 22.160133,31.978069 26.997745,27.140456 26.997745,27.140456 C 18.528582,18.264221 13.291696,25.230495 11.500037,31.436501 z"
             style="fill:#404040;"/>
          </a>
         </g>
        </svg>
</svg>
