<?xml version="1.0" encoding="UTF-8" standalone="no"?>
<!DOCTYPE svg PUBLIC "-//W3C//DTD SVG 1.1//EN"
 "http://www.w3.org/Graphics/SVG/1.1/DTD/svg11.dtd">
<!-- Generated by graphviz version 2.40.1 (20161225.0304)
 -->
<!-- Title: LFSTK_fontDialogClass::LFSTK_getFontData Pages: 1 -->
<svg width="612pt" height="125pt"
 viewBox="0.00 0.00 612.28 125.00" xmlns="http://www.w3.org/2000/svg" xmlns:xlink="http://www.w3.org/1999/xlink">
<g id="graph0" class="graph" transform="scale(1 1) rotate(0) translate(4 121)">
<title>LFSTK_fontDialogClass::LFSTK_getFontData</title>
<!-- Node1 -->
<g id="node1" class="node">
<title>Node1</title>
<g id="a_node1"><a xlink:title=" ">
<polygon fill="#bfbfbf" stroke="#000000" points="481.601,-45.5 481.601,-77.5 604.282,-77.5 604.282,-45.5 481.601,-45.5"/>
<text text-anchor="start" x="489.601" y="-64.5" font-family="Helvetica,sans-Serif" font-size="10.00" fill="#000000">LFSTK_fontDialogClass</text>
<text text-anchor="middle" x="542.9415" y="-52.5" font-family="Helvetica,sans-Serif" font-size="10.00" fill="#000000">::LFSTK_getFontData</text>
</a>
</g>
</g>
<!-- Node2 -->
<g id="node2" class="node">
<title>Node2</title>
<g id="a_node2"><a xlink:href="_l_f_s_t_k_font_dialog_8cpp_aafd549c8125eb6d28fe5be736bce5806.xhtml#aafd549c8125eb6d28fe5be736bce5806" target="_top" xlink:title=" ">
<polygon fill="none" stroke="#000000" points="356.2575,-96.5 356.2575,-116.5 412.2635,-116.5 412.2635,-96.5 356.2575,-96.5"/>
<text text-anchor="middle" x="384.2605" y="-103.5" font-family="Helvetica,sans-Serif" font-size="10.00" fill="#000000">checkCB</text>
</a>
</g>
</g>
<!-- Node1&#45;&gt;Node2 -->
<g id="edge1" class="edge">
<title>Node1&#45;&gt;Node2</title>
<path fill="none" stroke="#191970" d="M476.2651,-80.4086C453.8477,-86.7659 430.0457,-93.5159 412.2685,-98.5573"/>
<polygon fill="#191970" stroke="#191970" points="477.4365,-83.7145 486.1022,-77.6189 475.5267,-76.9801 477.4365,-83.7145"/>
</g>
<!-- Node3 -->
<g id="node3" class="node">
<title>Node3</title>
<g id="a_node3"><a xlink:href="class_l_f_s_t_k__font_dialog_class_a14c5f93b43c729a1bcb8bebe141415f2.xhtml#a14c5f93b43c729a1bcb8bebe141415f2" target="_top" xlink:title=" ">
<polygon fill="none" stroke="#000000" points="322.92,-45.5 322.92,-77.5 445.601,-77.5 445.601,-45.5 322.92,-45.5"/>
<text text-anchor="start" x="330.92" y="-64.5" font-family="Helvetica,sans-Serif" font-size="10.00" fill="#000000">LFSTK_fontDialogClass</text>
<text text-anchor="middle" x="384.2605" y="-52.5" font-family="Helvetica,sans-Serif" font-size="10.00" fill="#000000">::LFSTK_showDialog</text>
</a>
</g>
</g>
<!-- Node1&#45;&gt;Node3 -->
<g id="edge2" class="edge">
<title>Node1&#45;&gt;Node3</title>
<path fill="none" stroke="#191970" d="M471.5496,-61.5C462.9249,-61.5 454.1737,-61.5 445.7092,-61.5"/>
<polygon fill="#191970" stroke="#191970" points="471.5913,-65.0001 481.5913,-61.5 471.5912,-58.0001 471.5913,-65.0001"/>
</g>
<!-- Node4 -->
<g id="node4" class="node">
<title>Node4</title>
<g id="a_node4"><a xlink:href="_l_f_s_t_k_font_dialog_8cpp_a5c76f9930f86875dfa22fb71e9b6adcb.xhtml#a5c76f9930f86875dfa22fb71e9b6adcb" target="_top" xlink:title=" ">
<polygon fill="none" stroke="#000000" points="363.2025,-6.5 363.2025,-26.5 405.3185,-26.5 405.3185,-6.5 363.2025,-6.5"/>
<text text-anchor="middle" x="384.2605" y="-13.5" font-family="Helvetica,sans-Serif" font-size="10.00" fill="#000000">select</text>
</a>
</g>
</g>
<!-- Node1&#45;&gt;Node4 -->
<g id="edge3" class="edge">
<title>Node1&#45;&gt;Node4</title>
<path fill="none" stroke="#191970" d="M476.4789,-42.652C451.08,-35.4492 423.8721,-27.7334 405.6442,-22.5642"/>
<polygon fill="#191970" stroke="#191970" points="475.5267,-46.0199 486.1022,-45.3811 477.4365,-39.2855 475.5267,-46.0199"/>
</g>
<!-- Node5 -->
<g id="node5" class="node">
<title>Node5</title>
<g id="a_node5"><a xlink:href="class_l_f_s_t_k__font_dialog_class_af866eb2b1ba8178c9cf3e751716fcc8e.xhtml#af866eb2b1ba8178c9cf3e751716fcc8e" target="_top" xlink:title=" ">
<polygon fill="none" stroke="#000000" points="164.239,-.5 164.239,-32.5 286.92,-32.5 286.92,-.5 164.239,-.5"/>
<text text-anchor="start" x="172.239" y="-19.5" font-family="Helvetica,sans-Serif" font-size="10.00" fill="#000000">LFSTK_fontDialogClass</text>
<text text-anchor="middle" x="225.5795" y="-7.5" font-family="Helvetica,sans-Serif" font-size="10.00" fill="#000000">::buildDialog</text>
</a>
</g>
</g>
<!-- Node4&#45;&gt;Node5 -->
<g id="edge4" class="edge">
<title>Node4&#45;&gt;Node5</title>
<path fill="none" stroke="#191970" d="M353.1305,-16.5C334.3464,-16.5 309.7556,-16.5 287.1835,-16.5"/>
<polygon fill="#191970" stroke="#191970" points="353.1889,-20.0001 363.1889,-16.5 353.1889,-13.0001 353.1889,-20.0001"/>
</g>
<!-- Node6 -->
<g id="node6" class="node">
<title>Node6</title>
<g id="a_node6"><a xlink:href="class_l_f_s_t_k__font_dialog_class_ab7b6a4bca99713646ab6ac77dc34827c.xhtml#ab7b6a4bca99713646ab6ac77dc34827c" target="_top" xlink:title=" ">
<polygon fill="none" stroke="#000000" points="0,-.5 0,-32.5 128.239,-32.5 128.239,-.5 0,-.5"/>
<text text-anchor="start" x="8" y="-19.5" font-family="Helvetica,sans-Serif" font-size="10.00" fill="#000000">LFSTK_fontDialogClass</text>
<text text-anchor="middle" x="64.1195" y="-7.5" font-family="Helvetica,sans-Serif" font-size="10.00" fill="#000000">::LFSTK_fontDialogClass</text>
</a>
</g>
</g>
<!-- Node5&#45;&gt;Node6 -->
<g id="edge5" class="edge">
<title>Node5&#45;&gt;Node6</title>
<path fill="none" stroke="#191970" d="M153.8365,-16.5C145.3653,-16.5 136.7604,-16.5 128.4012,-16.5"/>
<polygon fill="#191970" stroke="#191970" points="154.0778,-20.0001 164.0778,-16.5 154.0778,-13.0001 154.0778,-20.0001"/>
</g>
</g>
</svg>
