<?xml version="1.0" encoding="UTF-8" standalone="no"?>
<!DOCTYPE svg PUBLIC "-//W3C//DTD SVG 1.1//EN"
 "http://www.w3.org/Graphics/SVG/1.1/DTD/svg11.dtd">
<!-- Generated by graphviz version 2.40.1 (20161225.0304)
 -->
<!-- Title: LFSTK_windowClass::pickTargetFromTargets Pages: 1 -->
<svg width="433pt" height="41pt"
 viewBox="0.00 0.00 433.02 41.00" xmlns="http://www.w3.org/2000/svg" xmlns:xlink="http://www.w3.org/1999/xlink">
<g id="graph0" class="graph" transform="scale(1 1) rotate(0) translate(4 37)">
<title>LFSTK_windowClass::pickTargetFromTargets</title>
<!-- Node1 -->
<g id="node1" class="node">
<title>Node1</title>
<g id="a_node1"><a xlink:title=" ">
<polygon fill="#bfbfbf" stroke="#000000" points="0,-.5 0,-32.5 119.892,-32.5 119.892,-.5 0,-.5"/>
<text text-anchor="start" x="8" y="-19.5" font-family="Helvetica,sans-Serif" font-size="10.00" fill="#000000">LFSTK_windowClass::</text>
<text text-anchor="middle" x="59.946" y="-7.5" font-family="Helvetica,sans-Serif" font-size="10.00" fill="#000000">pickTargetFromTargets</text>
</a>
</g>
</g>
<!-- Node2 -->
<g id="node2" class="node">
<title>Node2</title>
<g id="a_node2"><a xlink:href="class_l_f_s_t_k__window_class_a75904179205b7c0dd78d5e9b6994bd63.xhtml#a75904179205b7c0dd78d5e9b6994bd63" target="_top" xlink:title=" ">
<polygon fill="none" stroke="#000000" points="155.892,-.5 155.892,-32.5 272.455,-32.5 272.455,-.5 155.892,-.5"/>
<text text-anchor="start" x="163.892" y="-19.5" font-family="Helvetica,sans-Serif" font-size="10.00" fill="#000000">LFSTK_windowClass::</text>
<text text-anchor="middle" x="214.1735" y="-7.5" font-family="Helvetica,sans-Serif" font-size="10.00" fill="#000000">pickTargetFromList</text>
</a>
</g>
</g>
<!-- Node1&#45;&gt;Node2 -->
<g id="edge1" class="edge">
<title>Node1&#45;&gt;Node2</title>
<path fill="none" stroke="#191970" d="M120.016,-16.5C128.3741,-16.5 137.0135,-16.5 145.5141,-16.5"/>
<polygon fill="#191970" stroke="#191970" points="145.786,-20.0001 155.786,-16.5 145.7859,-13.0001 145.786,-20.0001"/>
</g>
<!-- Node3 -->
<g id="node3" class="node">
<title>Node3</title>
<g id="a_node3"><a xlink:href="class_l_f_s_t_k__window_class_a4de9ac1387e659aa1c14fa947061a6e8.xhtml#a4de9ac1387e659aa1c14fa947061a6e8" target="_top" xlink:title=" ">
<polygon fill="none" stroke="#000000" points="308.455,-.5 308.455,-32.5 425.018,-32.5 425.018,-.5 308.455,-.5"/>
<text text-anchor="start" x="316.455" y="-19.5" font-family="Helvetica,sans-Serif" font-size="10.00" fill="#000000">LFSTK_windowClass::</text>
<text text-anchor="middle" x="366.7365" y="-7.5" font-family="Helvetica,sans-Serif" font-size="10.00" fill="#000000">getAtomName</text>
</a>
</g>
</g>
<!-- Node2&#45;&gt;Node3 -->
<g id="edge2" class="edge">
<title>Node2&#45;&gt;Node3</title>
<path fill="none" stroke="#191970" d="M272.722,-16.5C281.0259,-16.5 289.6266,-16.5 298.1002,-16.5"/>
<polygon fill="#191970" stroke="#191970" points="298.3447,-20.0001 308.3447,-16.5 298.3446,-13.0001 298.3447,-20.0001"/>
</g>
</g>
</svg>
