<?xml version="1.0" encoding="UTF-8" standalone="no"?>
<!DOCTYPE svg PUBLIC "-//W3C//DTD SVG 1.1//EN"
 "http://www.w3.org/Graphics/SVG/1.1/DTD/svg11.dtd">
<!-- Generated by graphviz version 2.40.1 (20161225.0304)
 -->
<!-- Title: LFSTK_lib::cairo_image_surface_create_from_jpeg_mem Pages: 1 -->
<!--zoomable 466 -->
<svg id="main" version="1.1" xmlns="http://www.w3.org/2000/svg" xmlns:xlink="http://www.w3.org/1999/xlink" xml:space="preserve" onload="init(evt)">
<style type="text/css"><![CDATA[
.edge:hover path { stroke: red; }
.edge:hover polygon { stroke: red; fill: red; }
]]></style>
<script type="text/javascript"><![CDATA[
var edges = document.getElementsByTagName('g');
if (edges && edges.length) {
  for (var i=0;i<edges.length;i++) {
    if (edges[i].id.substr(0,4)=='edge') {
      edges[i].setAttribute('class','edge');
    }
  }
}
]]></script>
        <defs>
                <circle id="rim" cx="0" cy="0" r="7"/>
                <circle id="rim2" cx="0" cy="0" r="3.5"/>
                <g id="zoomPlus">
                        <use xlink:href="#rim" fill="#404040">
                                <set attributeName="fill" to="#808080" begin="zoomplus.mouseover" end="zoomplus.mouseout"/>
                        </use>
                        <path d="M-4,0h8M0,-4v8" fill="none" stroke="white" stroke-width="1.5" pointer-events="none"/>
                </g>
                <g id="zoomMin">
                        <use xlink:href="#rim" fill="#404040">
                                <set attributeName="fill" to="#808080" begin="zoomminus.mouseover" end="zoomminus.mouseout"/>
                        </use>
                        <path d="M-4,0h8" fill="none" stroke="white" stroke-width="1.5" pointer-events="none"/>
                </g>
                <g id="dirArrow">
                        <path fill="none" stroke="white" stroke-width="1.5" d="M0,-3.0v7 M-2.5,-0.5L0,-3.0L2.5,-0.5"/>
                </g>
               <g id="resetDef">
                       <use xlink:href="#rim2" fill="#404040">
                               <set attributeName="fill" to="#808080" begin="reset.mouseover" end="reset.mouseout"/>
                       </use>
               </g>
        </defs>

<script type="text/javascript">
var viewWidth = 1374;
var viewHeight = 466;
var sectionId = 'dynsection-0';
</script>
<script xlink:href="svgpan.js"/>
<svg id="graph" class="graph">
<g id="viewport">
<title>LFSTK_lib::cairo_image_surface_create_from_jpeg_mem</title>
<!-- Node1 -->
<g id="node1" class="node">
<title>Node1</title>
<g id="a_node1"><a xlink:title=" ">
<polygon fill="#bfbfbf" stroke="#000000" points="1200.766,-217.5 1200.766,-249.5 1366.24,-249.5 1366.24,-217.5 1200.766,-217.5"/>
<text text-anchor="start" x="1208.766" y="-236.5" font-family="Helvetica,sans-Serif" font-size="10.00" fill="#000000">LFSTK_lib::cairo_image</text>
<text text-anchor="middle" x="1283.503" y="-224.5" font-family="Helvetica,sans-Serif" font-size="10.00" fill="#000000">_surface_create_from_jpeg_mem</text>
</a>
</g>
</g>
<!-- Node2 -->
<g id="node2" class="node">
<title>Node2</title>
<g id="a_node2"><a xlink:href="class_l_f_s_t_k__lib_ad794f7ab3a4ca5a03adbb0472fa93788.xhtml#ad794f7ab3a4ca5a03adbb0472fa93788" target="_top" xlink:title=" ">
<polygon fill="none" stroke="#000000" points="1038.197,-211.5 1038.197,-255.5 1164.766,-255.5 1164.766,-211.5 1038.197,-211.5"/>
<text text-anchor="start" x="1046.197" y="-242.5" font-family="Helvetica,sans-Serif" font-size="10.00" fill="#000000">LFSTK_lib::LFSTK_cairo</text>
<text text-anchor="start" x="1046.197" y="-230.5" font-family="Helvetica,sans-Serif" font-size="10.00" fill="#000000">_image_surface_create</text>
<text text-anchor="middle" x="1101.4815" y="-218.5" font-family="Helvetica,sans-Serif" font-size="10.00" fill="#000000">_from_jpeg</text>
</a>
</g>
</g>
<!-- Node1&#45;&gt;Node2 -->
<g id="edge1" class="edge">
<title>Node1&#45;&gt;Node2</title>
<path fill="none" stroke="#191970" d="M1190.578,-233.5C1181.9079,-233.5 1173.261,-233.5 1164.9521,-233.5"/>
<polygon fill="#191970" stroke="#191970" points="1190.7478,-237.0001 1200.7478,-233.5 1190.7477,-230.0001 1190.7478,-237.0001"/>
</g>
<!-- Node3 -->
<g id="node3" class="node">
<title>Node3</title>
<g id="a_node3"><a xlink:href="class_l_f_s_t_k__lib_ac790969a4087da73833e609654f4aded.xhtml#ac790969a4087da73833e609654f4aded" target="_top" xlink:title=" ">
<polygon fill="none" stroke="#000000" points="835.055,-396.5 835.055,-428.5 1002.197,-428.5 1002.197,-396.5 835.055,-396.5"/>
<text text-anchor="start" x="843.055" y="-415.5" font-family="Helvetica,sans-Serif" font-size="10.00" fill="#000000">LFSTK_lib::LFSTK_createSurface</text>
<text text-anchor="middle" x="918.626" y="-403.5" font-family="Helvetica,sans-Serif" font-size="10.00" fill="#000000">FromPath</text>
</a>
</g>
</g>
<!-- Node2&#45;&gt;Node3 -->
<g id="edge2" class="edge">
<title>Node2&#45;&gt;Node3</title>
<path fill="none" stroke="#191970" d="M1071.2885,-263.0563C1032.3469,-301.1769 965.9741,-366.1503 935.1998,-396.2757"/>
<polygon fill="#191970" stroke="#191970" points="1073.9948,-265.305 1078.6924,-255.8085 1069.098,-260.3028 1073.9948,-265.305"/>
</g>
<!-- Node6 -->
<g id="node6" class="node">
<title>Node6</title>
<g id="a_node6"><a xlink:href="class_l_f_s_t_k__gadget_class_a5cef46cb93c76a87220f82242fc1ffc3.xhtml#a5cef46cb93c76a87220f82242fc1ffc3" target="_top" xlink:title=" ">
<polygon fill="none" stroke="#000000" points="849.7815,-217.5 849.7815,-249.5 987.4705,-249.5 987.4705,-217.5 849.7815,-217.5"/>
<text text-anchor="start" x="857.7815" y="-236.5" font-family="Helvetica,sans-Serif" font-size="10.00" fill="#000000">LFSTK_gadgetClass::</text>
<text text-anchor="middle" x="918.626" y="-224.5" font-family="Helvetica,sans-Serif" font-size="10.00" fill="#000000">LFSTK_setImageFromPath</text>
</a>
</g>
</g>
<!-- Node2&#45;&gt;Node6 -->
<g id="edge5" class="edge">
<title>Node2&#45;&gt;Node6</title>
<path fill="none" stroke="#191970" d="M1027.9665,-233.5C1014.6318,-233.5 1000.768,-233.5 987.5706,-233.5"/>
<polygon fill="#191970" stroke="#191970" points="1028.0407,-237.0001 1038.0407,-233.5 1028.0407,-230.0001 1028.0407,-237.0001"/>
</g>
<!-- Node21 -->
<g id="node21" class="node">
<title>Node21</title>
<g id="a_node21"><a xlink:href="class_l_f_s_t_k__window_class_a636fbd200e6a7f105c67443254872aed.xhtml#a636fbd200e6a7f105c67443254872aed" target="_top" xlink:title=" ">
<polygon fill="none" stroke="#000000" points="860.3445,-51.5 860.3445,-83.5 976.9075,-83.5 976.9075,-51.5 860.3445,-51.5"/>
<text text-anchor="start" x="868.3445" y="-70.5" font-family="Helvetica,sans-Serif" font-size="10.00" fill="#000000">LFSTK_windowClass::</text>
<text text-anchor="middle" x="918.626" y="-58.5" font-family="Helvetica,sans-Serif" font-size="10.00" fill="#000000">LFSTK_setTile</text>
</a>
</g>
</g>
<!-- Node2&#45;&gt;Node21 -->
<g id="edge23" class="edge">
<title>Node2&#45;&gt;Node21</title>
<path fill="none" stroke="#191970" d="M1069.3488,-204.3293C1030.691,-169.235 967.1619,-111.5619 936.4084,-83.6432"/>
<polygon fill="#191970" stroke="#191970" points="1067.443,-207.3263 1077.1997,-211.4565 1072.1482,-202.1434 1067.443,-207.3263"/>
</g>
<!-- Node4 -->
<g id="node4" class="node">
<title>Node4</title>
<g id="a_node4"><a xlink:href="class_l_f_s_t_k__file_dialog_class_a553ce8e885b0d60cbf515b7b3d1e8b65.xhtml#a553ce8e885b0d60cbf515b7b3d1e8b65" target="_top" xlink:title=" ">
<polygon fill="none" stroke="#000000" points="0,-246.5 0,-278.5 124.339,-278.5 124.339,-246.5 0,-246.5"/>
<text text-anchor="start" x="8" y="-265.5" font-family="Helvetica,sans-Serif" font-size="10.00" fill="#000000">LFSTK_fileDialogClass</text>
<text text-anchor="middle" x="62.1695" y="-253.5" font-family="Helvetica,sans-Serif" font-size="10.00" fill="#000000">::LFSTK_fileDialogClass</text>
</a>
</g>
</g>
<!-- Node3&#45;&gt;Node4 -->
<g id="edge3" class="edge">
<title>Node3&#45;&gt;Node4</title>
<path fill="none" stroke="#191970" d="M842.6466,-430.6513C828.2336,-433.6306 813.2295,-436.4193 799.055,-438.5 690.9891,-454.3632 663.2605,-457.5 554.0365,-457.5 554.0365,-457.5 554.0365,-457.5 386.4675,-457.5 248.177,-457.5 118.0449,-325.6565 76.1556,-278.7902"/>
<polygon fill="#191970" stroke="#191970" points="843.4536,-434.0581 852.513,-428.5646 842.0051,-427.2096 843.4536,-434.0581"/>
</g>
<!-- Node5 -->
<g id="node5" class="node">
<title>Node5</title>
<g id="a_node5"><a xlink:href="class_l_f_s_t_k__toggle_button_class_a4cc0929a4d4113b9b40a3bdc54898ab7.xhtml#a4cc0929a4d4113b9b40a3bdc54898ab7" target="_top" xlink:title=" ">
<polygon fill="none" stroke="#000000" points="658.587,-396.5 658.587,-428.5 797.954,-428.5 797.954,-396.5 658.587,-396.5"/>
<text text-anchor="start" x="666.587" y="-415.5" font-family="Helvetica,sans-Serif" font-size="10.00" fill="#000000">LFSTK_toggleButtonClass</text>
<text text-anchor="middle" x="728.2705" y="-403.5" font-family="Helvetica,sans-Serif" font-size="10.00" fill="#000000">::LFSTK_toggleButtonClass</text>
</a>
</g>
</g>
<!-- Node3&#45;&gt;Node5 -->
<g id="edge4" class="edge">
<title>Node3&#45;&gt;Node5</title>
<path fill="none" stroke="#191970" d="M824.7515,-412.5C815.7807,-412.5 806.7944,-412.5 798.1116,-412.5"/>
<polygon fill="#191970" stroke="#191970" points="824.8563,-416.0001 834.8563,-412.5 824.8563,-409.0001 824.8563,-416.0001"/>
</g>
<!-- Node7 -->
<g id="node7" class="node">
<title>Node7</title>
<g id="a_node7"><a xlink:href="class_l_f_s_t_k__menu_class_a063a1196c3267ebac0f6e2f118ad4647.xhtml#a063a1196c3267ebac0f6e2f118ad4647" target="_top" xlink:title=" ">
<polygon fill="none" stroke="#000000" points="658.5955,-345.5 658.5955,-377.5 797.9455,-377.5 797.9455,-345.5 658.5955,-345.5"/>
<text text-anchor="start" x="666.5955" y="-364.5" font-family="Helvetica,sans-Serif" font-size="10.00" fill="#000000">LFSTK_menuClass::LFSTK</text>
<text text-anchor="middle" x="728.2705" y="-352.5" font-family="Helvetica,sans-Serif" font-size="10.00" fill="#000000">_addMainMenus</text>
</a>
</g>
</g>
<!-- Node6&#45;&gt;Node7 -->
<g id="edge6" class="edge">
<title>Node6&#45;&gt;Node7</title>
<path fill="none" stroke="#191970" d="M896.7606,-256.8492C874.1718,-279.812 836.9641,-314.5273 799.055,-336.5 793.3044,-339.8332 787.0357,-342.8305 780.6836,-345.4934"/>
<polygon fill="#191970" stroke="#191970" points="899.3919,-259.1634 903.8406,-249.5478 894.3665,-254.2904 899.3919,-259.1634"/>
</g>
<!-- Node8 -->
<g id="node8" class="node">
<title>Node8</title>
<g id="a_node8"><a xlink:href="class_l_f_s_t_k__image_class_aff24b6452cb0a5d821b81770aa8f58d5.xhtml#aff24b6452cb0a5d821b81770aa8f58d5" target="_top" xlink:title=" ">
<polygon fill="none" stroke="#000000" points="657.486,-294.5 657.486,-326.5 799.055,-326.5 799.055,-294.5 657.486,-294.5"/>
<text text-anchor="start" x="665.486" y="-313.5" font-family="Helvetica,sans-Serif" font-size="10.00" fill="#000000">LFSTK_imageClass::LFSTK</text>
<text text-anchor="middle" x="728.2705" y="-301.5" font-family="Helvetica,sans-Serif" font-size="10.00" fill="#000000">_imageClass</text>
</a>
</g>
</g>
<!-- Node6&#45;&gt;Node8 -->
<g id="edge7" class="edge">
<title>Node6&#45;&gt;Node8</title>
<path fill="none" stroke="#191970" d="M874.3291,-253.6539C851.9247,-263.6194 824.2145,-275.6006 799.055,-285.5 791.4144,-288.5063 783.2476,-291.547 775.2762,-294.4231"/>
<polygon fill="#191970" stroke="#191970" points="875.8814,-256.7938 883.5832,-249.5182 873.0253,-250.4029 875.8814,-256.7938"/>
</g>
<!-- Node9 -->
<g id="node9" class="node">
<title>Node9</title>
<g id="a_node9"><a xlink:href="class_l_f_s_t_k__scroll_bar_class_a3da4281c24ac345ba32a4636ce2af38b.xhtml#a3da4281c24ac345ba32a4636ce2af38b" target="_top" xlink:title=" ">
<polygon fill="none" stroke="#000000" points="667.2145,-243.5 667.2145,-275.5 789.3265,-275.5 789.3265,-243.5 667.2145,-243.5"/>
<text text-anchor="start" x="675.2145" y="-262.5" font-family="Helvetica,sans-Serif" font-size="10.00" fill="#000000">LFSTK_scrollBarClass</text>
<text text-anchor="middle" x="728.2705" y="-250.5" font-family="Helvetica,sans-Serif" font-size="10.00" fill="#000000">::LFSTK_scrollBarClass</text>
</a>
</g>
</g>
<!-- Node6&#45;&gt;Node9 -->
<g id="edge8" class="edge">
<title>Node6&#45;&gt;Node9</title>
<path fill="none" stroke="#191970" d="M839.3601,-244.3267C822.6896,-246.6036 805.3489,-248.9721 789.4624,-251.142"/>
<polygon fill="#191970" stroke="#191970" points="840.1998,-247.7445 849.6342,-242.9234 839.2525,-240.8089 840.1998,-247.7445"/>
</g>
<!-- Node10 -->
<g id="node10" class="node">
<title>Node10</title>
<g id="a_node10"><a xlink:href="class_l_f_s_t_k__list_gadget_class_abc8e7de85afdd0ddd7639668e579cd4e.xhtml#abc8e7de85afdd0ddd7639668e579cd4e" target="_top" xlink:title=" ">
<polygon fill="none" stroke="#000000" points="666.9295,-192.5 666.9295,-224.5 789.6115,-224.5 789.6115,-192.5 666.9295,-192.5"/>
<text text-anchor="start" x="674.9295" y="-211.5" font-family="Helvetica,sans-Serif" font-size="10.00" fill="#000000">LFSTK_listGadgetClass</text>
<text text-anchor="middle" x="728.2705" y="-199.5" font-family="Helvetica,sans-Serif" font-size="10.00" fill="#000000">::LFSTK_setList</text>
</a>
</g>
</g>
<!-- Node6&#45;&gt;Node10 -->
<g id="edge9" class="edge">
<title>Node6&#45;&gt;Node10</title>
<path fill="none" stroke="#191970" d="M839.4162,-223.0971C822.8373,-220.9198 805.5931,-218.655 789.7737,-216.5774"/>
<polygon fill="#191970" stroke="#191970" points="839.2635,-226.607 849.6342,-224.4391 840.1751,-219.6666 839.2635,-226.607"/>
</g>
<!-- Node18 -->
<g id="node18" class="node">
<title>Node18</title>
<g id="a_node18"><a xlink:href="class_l_f_s_t_k__list_gadget_class_a14695831a2f9362b99cdda134f551d83.xhtml#a14695831a2f9362b99cdda134f551d83" target="_top" xlink:title=" ">
<polygon fill="none" stroke="#000000" points="666.9295,-141.5 666.9295,-173.5 789.6115,-173.5 789.6115,-141.5 666.9295,-141.5"/>
<text text-anchor="start" x="674.9295" y="-160.5" font-family="Helvetica,sans-Serif" font-size="10.00" fill="#000000">LFSTK_listGadgetClass</text>
<text text-anchor="middle" x="728.2705" y="-148.5" font-family="Helvetica,sans-Serif" font-size="10.00" fill="#000000">::scrollCB</text>
</a>
</g>
</g>
<!-- Node6&#45;&gt;Node18 -->
<g id="edge19" class="edge">
<title>Node6&#45;&gt;Node18</title>
<path fill="none" stroke="#191970" d="M871.9252,-213.4107C849.9113,-204.0853 823.2297,-192.989 799.055,-183.5 790.6463,-180.1994 781.6281,-176.7892 772.9398,-173.5683"/>
<polygon fill="#191970" stroke="#191970" points="870.7959,-216.7336 881.3683,-217.4234 873.5336,-210.2912 870.7959,-216.7336"/>
</g>
<!-- Node20 -->
<g id="node20" class="node">
<title>Node20</title>
<g id="a_node20"><a xlink:href="class_l_f_s_t_k__file_dialog_class_ac7703591352d5105def9c5293fbeed62.xhtml#ac7703591352d5105def9c5293fbeed62" target="_top" xlink:title=" ">
<polygon fill="none" stroke="#000000" points="327.077,-122.5 327.077,-154.5 445.858,-154.5 445.858,-122.5 327.077,-122.5"/>
<text text-anchor="start" x="335.077" y="-141.5" font-family="Helvetica,sans-Serif" font-size="10.00" fill="#000000">LFSTK_fileDialogClass</text>
<text text-anchor="middle" x="386.4675" y="-129.5" font-family="Helvetica,sans-Serif" font-size="10.00" fill="#000000">::setPreviewData</text>
</a>
</g>
</g>
<!-- Node6&#45;&gt;Node20 -->
<g id="edge21" class="edge">
<title>Node6&#45;&gt;Node20</title>
<path fill="none" stroke="#191970" d="M899.423,-209.4556C877.9877,-184.7356 840.7833,-147.7652 799.055,-132.5 679.9748,-88.9378 528.3258,-108.4822 446.0699,-124.6932"/>
<polygon fill="#191970" stroke="#191970" points="896.9427,-211.943 906.0716,-217.3202 902.2884,-207.4238 896.9427,-211.943"/>
</g>
<!-- Node11 -->
<g id="node11" class="node">
<title>Node11</title>
<g id="a_node11"><a xlink:href="class_l_f_s_t_k__font_dialog_class_af866eb2b1ba8178c9cf3e751716fcc8e.xhtml#af866eb2b1ba8178c9cf3e751716fcc8e" target="_top" xlink:title=" ">
<polygon fill="none" stroke="#000000" points="492.696,-294.5 492.696,-326.5 615.377,-326.5 615.377,-294.5 492.696,-294.5"/>
<text text-anchor="start" x="500.696" y="-313.5" font-family="Helvetica,sans-Serif" font-size="10.00" fill="#000000">LFSTK_fontDialogClass</text>
<text text-anchor="middle" x="554.0365" y="-301.5" font-family="Helvetica,sans-Serif" font-size="10.00" fill="#000000">::buildDialog</text>
</a>
</g>
</g>
<!-- Node10&#45;&gt;Node11 -->
<g id="edge10" class="edge">
<title>Node10&#45;&gt;Node11</title>
<path fill="none" stroke="#191970" d="M664.8648,-229.4597C662.2973,-231.0298 659.8237,-232.7078 657.486,-234.5 635.4673,-251.3807 643.4799,-268.587 621.486,-285.5 617.1301,-288.8496 612.279,-291.7864 607.2316,-294.3532"/>
<polygon fill="#191970" stroke="#191970" points="666.7959,-232.3931 673.8951,-224.5285 663.441,-226.2494 666.7959,-232.3931"/>
</g>
<!-- Node13 -->
<g id="node13" class="node">
<title>Node13</title>
<g id="a_node13"><a xlink:href="class_l_f_s_t_k__file_dialog_class_a0a6b4f1db71031bf35a7636b736e8698.xhtml#a0a6b4f1db71031bf35a7636b736e8698" target="_top" xlink:title=" ">
<polygon fill="none" stroke="#000000" points="494.646,-243.5 494.646,-275.5 613.427,-275.5 613.427,-243.5 494.646,-243.5"/>
<text text-anchor="start" x="502.646" y="-262.5" font-family="Helvetica,sans-Serif" font-size="10.00" fill="#000000">LFSTK_fileDialogClass</text>
<text text-anchor="middle" x="554.0365" y="-250.5" font-family="Helvetica,sans-Serif" font-size="10.00" fill="#000000">::getFileList</text>
</a>
</g>
</g>
<!-- Node10&#45;&gt;Node13 -->
<g id="edge12" class="edge">
<title>Node10&#45;&gt;Node13</title>
<path fill="none" stroke="#191970" d="M663.3341,-227.5075C645.3933,-232.759 626.108,-238.404 608.8066,-243.4683"/>
<polygon fill="#191970" stroke="#191970" points="664.5277,-230.8051 673.1418,-224.6367 662.5612,-224.087 664.5277,-230.8051"/>
</g>
<!-- Node17 -->
<g id="node17" class="node">
<title>Node17</title>
<g id="a_node17"><a xlink:href="class_l_f_s_t_k__list_gadget_class_addcdb5ba330fd8dd36beb94ea2081dd3.xhtml#addcdb5ba330fd8dd36beb94ea2081dd3" target="_top" xlink:title=" ">
<polygon fill="none" stroke="#000000" points="490.757,-192.5 490.757,-224.5 617.316,-224.5 617.316,-192.5 490.757,-192.5"/>
<text text-anchor="start" x="498.757" y="-211.5" font-family="Helvetica,sans-Serif" font-size="10.00" fill="#000000">LFSTK_listGadgetClass</text>
<text text-anchor="middle" x="554.0365" y="-199.5" font-family="Helvetica,sans-Serif" font-size="10.00" fill="#000000">::LFSTK_setListFromFile</text>
</a>
</g>
</g>
<!-- Node10&#45;&gt;Node17 -->
<g id="edge18" class="edge">
<title>Node10&#45;&gt;Node17</title>
<path fill="none" stroke="#191970" d="M656.5901,-208.5C643.6529,-208.5 630.2466,-208.5 617.5619,-208.5"/>
<polygon fill="#191970" stroke="#191970" points="656.8421,-212.0001 666.8421,-208.5 656.8421,-205.0001 656.8421,-212.0001"/>
</g>
<!-- Node12 -->
<g id="node12" class="node">
<title>Node12</title>
<g id="a_node12"><a xlink:href="class_l_f_s_t_k__font_dialog_class_ab7b6a4bca99713646ab6ac77dc34827c.xhtml#ab7b6a4bca99713646ab6ac77dc34827c" target="_top" xlink:title=" ">
<polygon fill="none" stroke="#000000" points="322.348,-294.5 322.348,-326.5 450.587,-326.5 450.587,-294.5 322.348,-294.5"/>
<text text-anchor="start" x="330.348" y="-313.5" font-family="Helvetica,sans-Serif" font-size="10.00" fill="#000000">LFSTK_fontDialogClass</text>
<text text-anchor="middle" x="386.4675" y="-301.5" font-family="Helvetica,sans-Serif" font-size="10.00" fill="#000000">::LFSTK_fontDialogClass</text>
</a>
</g>
</g>
<!-- Node11&#45;&gt;Node12 -->
<g id="edge11" class="edge">
<title>Node11&#45;&gt;Node12</title>
<path fill="none" stroke="#191970" d="M482.5559,-310.5C471.9795,-310.5 461.1358,-310.5 450.7187,-310.5"/>
<polygon fill="#191970" stroke="#191970" points="482.5915,-314.0001 492.5915,-310.5 482.5915,-307.0001 482.5915,-314.0001"/>
</g>
<!-- Node13&#45;&gt;Node4 -->
<g id="edge13" class="edge">
<title>Node13&#45;&gt;Node4</title>
<path fill="none" stroke="#191970" d="M484.0184,-259.9271C387.9245,-260.5132 216.6473,-261.5578 124.6695,-262.1188"/>
<polygon fill="#191970" stroke="#191970" points="484.2373,-263.4259 494.2157,-259.8649 484.1945,-256.426 484.2373,-263.4259"/>
</g>
<!-- Node14 -->
<g id="node14" class="node">
<title>Node14</title>
<g id="a_node14"><a xlink:href="class_l_f_s_t_k__file_dialog_class_aa8804989d381def9acb2c99d47d6dc3d.xhtml#aa8804989d381def9acb2c99d47d6dc3d" target="_top" xlink:title=" ">
<polygon fill="none" stroke="#000000" points="325.967,-201.5 325.967,-233.5 446.968,-233.5 446.968,-201.5 325.967,-201.5"/>
<text text-anchor="start" x="333.967" y="-220.5" font-family="Helvetica,sans-Serif" font-size="10.00" fill="#000000">LFSTK_fileDialogClass</text>
<text text-anchor="middle" x="386.4675" y="-208.5" font-family="Helvetica,sans-Serif" font-size="10.00" fill="#000000">::LFSTK_setWorkingDir</text>
</a>
</g>
</g>
<!-- Node13&#45;&gt;Node14 -->
<g id="edge14" class="edge">
<title>Node13&#45;&gt;Node14</title>
<path fill="none" stroke="#191970" d="M484.6464,-242.1079C472.2339,-238.9968 459.3869,-235.7767 447.2396,-232.7321"/>
<polygon fill="#191970" stroke="#191970" points="483.9352,-245.5378 494.4861,-244.5741 485.6371,-238.7478 483.9352,-245.5378"/>
</g>
<!-- Node15 -->
<g id="node15" class="node">
<title>Node15</title>
<g id="a_node15"><a xlink:href="class_l_f_s_t_k__file_dialog_class_aacf1d4b61cbb5b40d06f591ea96f9ea7.xhtml#aacf1d4b61cbb5b40d06f591ea96f9ea7" target="_top" xlink:title=" ">
<polygon fill="none" stroke="#000000" points="160.339,-201.5 160.339,-233.5 286.348,-233.5 286.348,-201.5 160.339,-201.5"/>
<text text-anchor="start" x="168.339" y="-220.5" font-family="Helvetica,sans-Serif" font-size="10.00" fill="#000000">LFSTK_fileDialogClass</text>
<text text-anchor="middle" x="223.3435" y="-208.5" font-family="Helvetica,sans-Serif" font-size="10.00" fill="#000000">::LFSTK_showFileDialog</text>
</a>
</g>
</g>
<!-- Node14&#45;&gt;Node15 -->
<g id="edge15" class="edge">
<title>Node14&#45;&gt;Node15</title>
<path fill="none" stroke="#191970" d="M315.7256,-217.5C306.0345,-217.5 296.1359,-217.5 286.5902,-217.5"/>
<polygon fill="#191970" stroke="#191970" points="315.7262,-221.0001 325.7261,-217.5 315.7261,-214.0001 315.7262,-221.0001"/>
</g>
<!-- Node16 -->
<g id="node16" class="node">
<title>Node16</title>
<g id="a_node16"><a xlink:href="class_l_f_s_t_k__file_dialog_class_a789cade9437906181e31a243c85d52e5.xhtml#a789cade9437906181e31a243c85d52e5" target="_top" xlink:title=" ">
<polygon fill="none" stroke="#000000" points="163.953,-150.5 163.953,-182.5 282.734,-182.5 282.734,-150.5 163.953,-150.5"/>
<text text-anchor="start" x="171.953" y="-169.5" font-family="Helvetica,sans-Serif" font-size="10.00" fill="#000000">LFSTK_fileDialogClass</text>
<text text-anchor="middle" x="223.3435" y="-157.5" font-family="Helvetica,sans-Serif" font-size="10.00" fill="#000000">::select</text>
</a>
</g>
</g>
<!-- Node14&#45;&gt;Node16 -->
<g id="edge16" class="edge">
<title>Node14&#45;&gt;Node16</title>
<path fill="none" stroke="#191970" d="M325.2049,-198.3465C308.5408,-193.1366 290.6694,-187.5492 274.6212,-182.5317"/>
<polygon fill="#191970" stroke="#191970" points="324.2652,-201.7197 334.854,-201.3633 326.3541,-195.0387 324.2652,-201.7197"/>
</g>
<!-- Node16&#45;&gt;Node4 -->
<g id="edge17" class="edge">
<title>Node16&#45;&gt;Node4</title>
<path fill="none" stroke="#191970" d="M171.2885,-186.8664C167.5354,-188.6734 163.8495,-190.5575 160.339,-192.5 131.5839,-208.4115 101.1758,-231.1345 81.9574,-246.3298"/>
<polygon fill="#191970" stroke="#191970" points="173.0698,-189.8998 180.6949,-182.544 170.1469,-183.5392 173.0698,-189.8998"/>
</g>
<!-- Node19 -->
<g id="node19" class="node">
<title>Node19</title>
<g id="a_node19"><a xlink:href="class_l_f_s_t_k__list_gadget_class_ae3518016f28ec3cd261ad927c5691826.xhtml#ae3518016f28ec3cd261ad927c5691826" target="_top" xlink:title=" ">
<polygon fill="none" stroke="#000000" points="489.9165,-141.5 489.9165,-173.5 618.1565,-173.5 618.1565,-141.5 489.9165,-141.5"/>
<text text-anchor="start" x="497.9165" y="-160.5" font-family="Helvetica,sans-Serif" font-size="10.00" fill="#000000">LFSTK_listGadgetClass</text>
<text text-anchor="middle" x="554.0365" y="-148.5" font-family="Helvetica,sans-Serif" font-size="10.00" fill="#000000">::LFSTK_listGadgetClass</text>
</a>
</g>
</g>
<!-- Node18&#45;&gt;Node19 -->
<g id="edge20" class="edge">
<title>Node18&#45;&gt;Node19</title>
<path fill="none" stroke="#191970" d="M656.781,-157.5C644.0865,-157.5 630.9343,-157.5 618.4507,-157.5"/>
<polygon fill="#191970" stroke="#191970" points="656.8421,-161.0001 666.8421,-157.5 656.8421,-154.0001 656.8421,-161.0001"/>
</g>
<!-- Node20&#45;&gt;Node16 -->
<g id="edge22" class="edge">
<title>Node20&#45;&gt;Node16</title>
<path fill="none" stroke="#191970" d="M316.4816,-150.513C305.2887,-152.4342 293.799,-154.4064 282.8787,-156.2809"/>
<polygon fill="#191970" stroke="#191970" points="317.3887,-153.9086 326.6524,-148.7672 316.2044,-147.0094 317.3887,-153.9086"/>
</g>
<!-- Node22 -->
<g id="node22" class="node">
<title>Node22</title>
<g id="a_node22"><a xlink:href="class_l_f_s_t_k__tool_window_class_a230084a0461e204e39cea42ad1f10301.xhtml#a230084a0461e204e39cea42ad1f10301" target="_top" xlink:title=" ">
<polygon fill="none" stroke="#000000" points="661.381,-51.5 661.381,-83.5 795.16,-83.5 795.16,-51.5 661.381,-51.5"/>
<text text-anchor="start" x="669.381" y="-70.5" font-family="Helvetica,sans-Serif" font-size="10.00" fill="#000000">LFSTK_toolWindowClass</text>
<text text-anchor="middle" x="728.2705" y="-58.5" font-family="Helvetica,sans-Serif" font-size="10.00" fill="#000000">::windowClassInitCommon</text>
</a>
</g>
</g>
<!-- Node21&#45;&gt;Node22 -->
<g id="edge24" class="edge">
<title>Node21&#45;&gt;Node22</title>
<path fill="none" stroke="#191970" d="M849.9097,-67.5C832.1002,-67.5 812.948,-67.5 795.23,-67.5"/>
<polygon fill="#191970" stroke="#191970" points="850.2195,-71.0001 860.2194,-67.5 850.2194,-64.0001 850.2195,-71.0001"/>
</g>
<!-- Node24 -->
<g id="node24" class="node">
<title>Node24</title>
<g id="a_node24"><a xlink:href="class_l_f_s_t_k__window_class_a7d01ee5bb6c3fef9aa9b55323c04f90c.xhtml#a7d01ee5bb6c3fef9aa9b55323c04f90c" target="_top" xlink:title=" ">
<polygon fill="none" stroke="#000000" points="664.16,-.5 664.16,-32.5 792.381,-32.5 792.381,-.5 664.16,-.5"/>
<text text-anchor="start" x="672.16" y="-19.5" font-family="Helvetica,sans-Serif" font-size="10.00" fill="#000000">LFSTK_windowClass::</text>
<text text-anchor="middle" x="728.2705" y="-7.5" font-family="Helvetica,sans-Serif" font-size="10.00" fill="#000000">windowClassInitCommon</text>
</a>
</g>
</g>
<!-- Node21&#45;&gt;Node24 -->
<g id="edge26" class="edge">
<title>Node21&#45;&gt;Node24</title>
<path fill="none" stroke="#191970" d="M850.4033,-49.2218C830.0781,-43.7763 807.9654,-37.8518 788.2108,-32.5592"/>
<polygon fill="#191970" stroke="#191970" points="849.6543,-52.6445 860.2194,-51.8517 851.4659,-45.883 849.6543,-52.6445"/>
</g>
<!-- Node23 -->
<g id="node23" class="node">
<title>Node23</title>
<g id="a_node23"><a xlink:href="class_l_f_s_t_k__tool_window_class_ad9d85cbc29eafc7793e12bcc9c268bf5.xhtml#ad9d85cbc29eafc7793e12bcc9c268bf5" target="_top" xlink:title=" ">
<polygon fill="none" stroke="#000000" points="486.587,-51.5 486.587,-83.5 621.486,-83.5 621.486,-51.5 486.587,-51.5"/>
<text text-anchor="start" x="494.587" y="-70.5" font-family="Helvetica,sans-Serif" font-size="10.00" fill="#000000">LFSTK_toolWindowClass</text>
<text text-anchor="middle" x="554.0365" y="-58.5" font-family="Helvetica,sans-Serif" font-size="10.00" fill="#000000">::LFSTK_toolWindowClass</text>
</a>
</g>
</g>
<!-- Node22&#45;&gt;Node23 -->
<g id="edge25" class="edge">
<title>Node22&#45;&gt;Node23</title>
<path fill="none" stroke="#191970" d="M650.8071,-67.5C641.0382,-67.5 631.1053,-67.5 621.508,-67.5"/>
<polygon fill="#191970" stroke="#191970" points="650.9071,-71.0001 660.9071,-67.5 650.9071,-64.0001 650.9071,-71.0001"/>
</g>
<!-- Node25 -->
<g id="node25" class="node">
<title>Node25</title>
<g id="a_node25"><a xlink:href="class_l_f_s_t_k__window_class_afcd2c5e43ab2a1110d5b4e54b24ce47a.xhtml#afcd2c5e43ab2a1110d5b4e54b24ce47a" target="_top" xlink:title=" ">
<polygon fill="none" stroke="#000000" points="495.755,-.5 495.755,-32.5 612.318,-32.5 612.318,-.5 495.755,-.5"/>
<text text-anchor="start" x="503.755" y="-19.5" font-family="Helvetica,sans-Serif" font-size="10.00" fill="#000000">LFSTK_windowClass::</text>
<text text-anchor="middle" x="554.0365" y="-7.5" font-family="Helvetica,sans-Serif" font-size="10.00" fill="#000000">LFSTK_windowClass</text>
</a>
</g>
</g>
<!-- Node24&#45;&gt;Node25 -->
<g id="edge27" class="edge">
<title>Node24&#45;&gt;Node25</title>
<path fill="none" stroke="#191970" d="M653.8848,-16.5C640.0128,-16.5 625.7007,-16.5 612.3965,-16.5"/>
<polygon fill="#191970" stroke="#191970" points="653.8873,-20.0001 663.8872,-16.5 653.8872,-13.0001 653.8873,-20.0001"/>
</g>
</g>
</svg>
        <g id="navigator" transform="translate(0 0)" fill="#404254">
                <rect fill="#f2f5e9" fill-opacity="0.5" stroke="#606060" stroke-width=".5" x="0" y="0" width="60" height="60"/>
                <use id="zoomplus" xlink:href="#zoomPlus" x="17" y="9" onmousedown="handleZoom(evt,'in')"/>
                <use id="zoomminus" xlink:href="#zoomMin" x="42" y="9" onmousedown="handleZoom(evt,'out')"/>
                <use id="reset" xlink:href="#resetDef" x="30" y="36" onmousedown="handleReset()"/>
                <g id="arrowUp" xlink:href="#dirArrow" transform="translate(30 24)" onmousedown="handlePan(0,-1)">
                  <use xlink:href="#rim" fill="#404040">
                        <set attributeName="fill" to="#808080" begin="arrowUp.mouseover" end="arrowUp.mouseout"/>
                  </use>
                  <path fill="none" stroke="white" stroke-width="1.5" d="M0,-3.0v7 M-2.5,-0.5L0,-3.0L2.5,-0.5"/>
                </g>
                <g id="arrowRight" xlink:href="#dirArrow" transform="rotate(90) translate(36 -43)" onmousedown="handlePan(1,0)">
                  <use xlink:href="#rim" fill="#404040">
                        <set attributeName="fill" to="#808080" begin="arrowRight.mouseover" end="arrowRight.mouseout"/>
                  </use>
                  <path fill="none" stroke="white" stroke-width="1.5" d="M0,-3.0v7 M-2.5,-0.5L0,-3.0L2.5,-0.5"/>
                </g>
                <g id="arrowDown" xlink:href="#dirArrow" transform="rotate(180) translate(-30 -48)" onmousedown="handlePan(0,1)">
                  <use xlink:href="#rim" fill="#404040">
                        <set attributeName="fill" to="#808080" begin="arrowDown.mouseover" end="arrowDown.mouseout"/>
                  </use>
                  <path fill="none" stroke="white" stroke-width="1.5" d="M0,-3.0v7 M-2.5,-0.5L0,-3.0L2.5,-0.5"/>
                </g>
                <g id="arrowLeft" xlink:href="#dirArrow" transform="rotate(270) translate(-36 17)" onmousedown="handlePan(-1,0)">
                  <use xlink:href="#rim" fill="#404040">
                        <set attributeName="fill" to="#808080" begin="arrowLeft.mouseover" end="arrowLeft.mouseout"/>
                  </use>
                  <path fill="none" stroke="white" stroke-width="1.5" d="M0,-3.0v7 M-2.5,-0.5L0,-3.0L2.5,-0.5"/>
                </g>
        </g>
        <svg viewBox="0 0 15 15" width="100%" height="30px" preserveAspectRatio="xMaxYMin meet">
         <g id="arrow_out" transform="scale(0.3 0.3)">
          <a xlink:href="class_l_f_s_t_k__lib_a6beac3954823730f63c32a97949db52a_a6beac3954823730f63c32a97949db52a_icgraph_org.svg" target="_base">
           <rect id="button" ry="5" rx="5" y="6" x="6" height="38" width="38"
                fill="#f2f5e9" fill-opacity="0.5" stroke="#606060" stroke-width="1.0"/>
           <path id="arrow"
             d="M 11.500037,31.436501 C 11.940474,20.09759 22.043105,11.32322 32.158766,21.979434 L 37.068811,17.246167 C 37.068811,17.246167 37.088388,32 37.088388,32 L 22.160133,31.978069 C 22.160133,31.978069 26.997745,27.140456 26.997745,27.140456 C 18.528582,18.264221 13.291696,25.230495 11.500037,31.436501 z"
             style="fill:#404040;"/>
          </a>
         </g>
        </svg>
</svg>
