<?xml version="1.0" encoding="UTF-8" standalone="no"?>
<!DOCTYPE svg PUBLIC "-//W3C//DTD SVG 1.1//EN"
 "http://www.w3.org/Graphics/SVG/1.1/DTD/svg11.dtd">
<!-- Generated by graphviz version 2.40.1 (20161225.0304)
 -->
<!-- Title: LFSTK_lib::LFSTK_oneLiner Pages: 1 -->
<!--zoomable 611 -->
<svg id="main" version="1.1" xmlns="http://www.w3.org/2000/svg" xmlns:xlink="http://www.w3.org/1999/xlink" xml:space="preserve" onload="init(evt)">
<style type="text/css"><![CDATA[
.edge:hover path { stroke: red; }
.edge:hover polygon { stroke: red; fill: red; }
]]></style>
<script type="text/javascript"><![CDATA[
var edges = document.getElementsByTagName('g');
if (edges && edges.length) {
  for (var i=0;i<edges.length;i++) {
    if (edges[i].id.substr(0,4)=='edge') {
      edges[i].setAttribute('class','edge');
    }
  }
}
]]></script>
        <defs>
                <circle id="rim" cx="0" cy="0" r="7"/>
                <circle id="rim2" cx="0" cy="0" r="3.5"/>
                <g id="zoomPlus">
                        <use xlink:href="#rim" fill="#404040">
                                <set attributeName="fill" to="#808080" begin="zoomplus.mouseover" end="zoomplus.mouseout"/>
                        </use>
                        <path d="M-4,0h8M0,-4v8" fill="none" stroke="white" stroke-width="1.5" pointer-events="none"/>
                </g>
                <g id="zoomMin">
                        <use xlink:href="#rim" fill="#404040">
                                <set attributeName="fill" to="#808080" begin="zoomminus.mouseover" end="zoomminus.mouseout"/>
                        </use>
                        <path d="M-4,0h8" fill="none" stroke="white" stroke-width="1.5" pointer-events="none"/>
                </g>
                <g id="dirArrow">
                        <path fill="none" stroke="white" stroke-width="1.5" d="M0,-3.0v7 M-2.5,-0.5L0,-3.0L2.5,-0.5"/>
                </g>
               <g id="resetDef">
                       <use xlink:href="#rim2" fill="#404040">
                               <set attributeName="fill" to="#808080" begin="reset.mouseover" end="reset.mouseout"/>
                       </use>
               </g>
        </defs>

<script type="text/javascript">
var viewWidth = 1045;
var viewHeight = 611;
var sectionId = 'dynsection-0';
</script>
<script xlink:href="svgpan.js"/>
<svg id="graph" class="graph">
<g id="viewport">
<title>LFSTK_lib::LFSTK_oneLiner</title>
<!-- Node1 -->
<g id="node1" class="node">
<title>Node1</title>
<g id="a_node1"><a xlink:title=" ">
<polygon fill="#bfbfbf" stroke="#000000" points="893.438,-249.5 893.438,-269.5 1037.243,-269.5 1037.243,-249.5 893.438,-249.5"/>
<text text-anchor="middle" x="965.3405" y="-256.5" font-family="Helvetica,sans-Serif" font-size="10.00" fill="#000000">LFSTK_lib::LFSTK_oneLiner</text>
</a>
</g>
</g>
<!-- Node2 -->
<g id="node2" class="node">
<title>Node2</title>
<g id="a_node2"><a xlink:href="class_l_f_s_t_k__file_dialog_class_acbbe69c2d14fb3f9020767500aa233df.xhtml#acbbe69c2d14fb3f9020767500aa233df" target="_top" xlink:title=" ">
<polygon fill="none" stroke="#000000" points="709.7525,-243.5 709.7525,-275.5 828.5335,-275.5 828.5335,-243.5 709.7525,-243.5"/>
<text text-anchor="start" x="717.7525" y="-262.5" font-family="Helvetica,sans-Serif" font-size="10.00" fill="#000000">LFSTK_fileDialogClass</text>
<text text-anchor="middle" x="769.143" y="-250.5" font-family="Helvetica,sans-Serif" font-size="10.00" fill="#000000">::cleanDirPath</text>
</a>
</g>
</g>
<!-- Node1&#45;&gt;Node2 -->
<g id="edge1" class="edge">
<title>Node1&#45;&gt;Node2</title>
<path fill="none" stroke="#191970" d="M883.3403,-259.5C865.0646,-259.5 846.0225,-259.5 828.8453,-259.5"/>
<polygon fill="#191970" stroke="#191970" points="883.3979,-263.0001 893.3979,-259.5 883.3978,-256.0001 883.3979,-263.0001"/>
</g>
<!-- Node5 -->
<g id="node5" class="node">
<title>Node5</title>
<g id="a_node5"><a xlink:href="class_l_f_s_t_k__file_dialog_class_a789cade9437906181e31a243c85d52e5.xhtml#a789cade9437906181e31a243c85d52e5" target="_top" xlink:title=" ">
<polygon fill="none" stroke="#000000" points="352.3725,-327.5 352.3725,-359.5 471.1535,-359.5 471.1535,-327.5 352.3725,-327.5"/>
<text text-anchor="start" x="360.3725" y="-346.5" font-family="Helvetica,sans-Serif" font-size="10.00" fill="#000000">LFSTK_fileDialogClass</text>
<text text-anchor="middle" x="411.763" y="-334.5" font-family="Helvetica,sans-Serif" font-size="10.00" fill="#000000">::select</text>
</a>
</g>
</g>
<!-- Node1&#45;&gt;Node5 -->
<g id="edge29" class="edge">
<title>Node1&#45;&gt;Node5</title>
<path fill="none" stroke="#191970" d="M954.6514,-278.5553C938.0031,-306.0317 903.0031,-355.654 857.438,-375.5 720.7095,-435.0523 537.9953,-387.1129 455.474,-359.5439"/>
<polygon fill="#191970" stroke="#191970" points="957.72,-280.2414 959.762,-269.8452 951.6826,-276.6989 957.72,-280.2414"/>
</g>
<!-- Node7 -->
<g id="node7" class="node">
<title>Node7</title>
<g id="a_node7"><a xlink:href="class_l_f_s_t_k__file_dialog_class_a8b1394e3442e1142f6b51cad61f2f95f.xhtml#a8b1394e3442e1142f6b51cad61f2f95f" target="_top" xlink:title=" ">
<polygon fill="none" stroke="#000000" points="698.6395,-294.5 698.6395,-326.5 839.6465,-326.5 839.6465,-294.5 698.6395,-294.5"/>
<text text-anchor="start" x="706.6395" y="-313.5" font-family="Helvetica,sans-Serif" font-size="10.00" fill="#000000">LFSTK_fileDialogClass</text>
<text text-anchor="middle" x="769.143" y="-301.5" font-family="Helvetica,sans-Serif" font-size="10.00" fill="#000000">::findThemedIconFromMime</text>
</a>
</g>
</g>
<!-- Node1&#45;&gt;Node7 -->
<g id="edge6" class="edge">
<title>Node1&#45;&gt;Node7</title>
<path fill="none" stroke="#191970" d="M916.6204,-272.1644C890.7285,-278.8948 858.6283,-287.239 830.9939,-294.4223"/>
<polygon fill="#191970" stroke="#191970" points="917.7804,-275.4793 926.5782,-269.576 916.0193,-268.7044 917.7804,-275.4793"/>
</g>
<!-- Node9 -->
<g id="node9" class="node">
<title>Node9</title>
<g id="a_node9"><a xlink:href="class_l_f_s_t_k__line_edit_class_aaa873ae80c4c84c1c48249e593b0c9fc.xhtml#aaa873ae80c4c84c1c48249e593b0c9fc" target="_top" xlink:title=" ">
<polygon fill="none" stroke="#000000" points="713.9165,-192.5 713.9165,-224.5 824.3695,-224.5 824.3695,-192.5 713.9165,-192.5"/>
<text text-anchor="start" x="721.9165" y="-211.5" font-family="Helvetica,sans-Serif" font-size="10.00" fill="#000000">LFSTK_lineEditClass</text>
<text text-anchor="middle" x="769.143" y="-199.5" font-family="Helvetica,sans-Serif" font-size="10.00" fill="#000000">::LFSTK_dropData</text>
</a>
</g>
</g>
<!-- Node1&#45;&gt;Node9 -->
<g id="edge9" class="edge">
<title>Node1&#45;&gt;Node9</title>
<path fill="none" stroke="#191970" d="M916.6373,-246.84C888.6992,-239.5777 853.5288,-230.4354 824.5398,-222.9"/>
<polygon fill="#191970" stroke="#191970" points="916.0193,-250.2956 926.5782,-249.424 917.7804,-243.5207 916.0193,-250.2956"/>
</g>
<!-- Node10 -->
<g id="node10" class="node">
<title>Node10</title>
<g id="a_node10"><a xlink:href="class_l_f_s_t_k__multi_line_edit_class_a67d883fd9590a202e35805e040604226.xhtml#a67d883fd9590a202e35805e040604226" target="_top" xlink:title=" ">
<polygon fill="none" stroke="#000000" points="701.694,-141.5 701.694,-173.5 836.592,-173.5 836.592,-141.5 701.694,-141.5"/>
<text text-anchor="start" x="709.694" y="-160.5" font-family="Helvetica,sans-Serif" font-size="10.00" fill="#000000">LFSTK_multiLineEditClass</text>
<text text-anchor="middle" x="769.143" y="-148.5" font-family="Helvetica,sans-Serif" font-size="10.00" fill="#000000">::LFSTK_dropData</text>
</a>
</g>
</g>
<!-- Node1&#45;&gt;Node10 -->
<g id="edge10" class="edge">
<title>Node1&#45;&gt;Node10</title>
<path fill="none" stroke="#191970" d="M946.2005,-242.7005C925.5796,-225.387 891.1673,-198.7042 857.438,-182.5 850.545,-179.1885 843.1328,-176.2399 835.6384,-173.6345"/>
<polygon fill="#191970" stroke="#191970" points="944.0218,-245.4425 953.9006,-249.2713 948.5657,-240.1177 944.0218,-245.4425"/>
</g>
<!-- Node11 -->
<g id="node11" class="node">
<title>Node11</title>
<g id="a_node11"><a xlink:href="class_l_f_s_t_k__window_class_a0e58784df7f862be4f5d425abbd28260.xhtml#a0e58784df7f862be4f5d425abbd28260" target="_top" xlink:title=" ">
<polygon fill="none" stroke="#000000" points="710.8615,-463.5 710.8615,-495.5 827.4245,-495.5 827.4245,-463.5 710.8615,-463.5"/>
<text text-anchor="start" x="718.8615" y="-482.5" font-family="Helvetica,sans-Serif" font-size="10.00" fill="#000000">LFSTK_windowClass::</text>
<text text-anchor="middle" x="769.143" y="-470.5" font-family="Helvetica,sans-Serif" font-size="10.00" fill="#000000">LFSTK_dropData</text>
</a>
</g>
</g>
<!-- Node1&#45;&gt;Node11 -->
<g id="edge11" class="edge">
<title>Node1&#45;&gt;Node11</title>
<path fill="none" stroke="#191970" d="M958.9738,-279.436C945.9245,-317.2469 912.6345,-399.7667 857.438,-446.5 848.8204,-453.7963 838.4338,-459.5568 827.8579,-464.0794"/>
<polygon fill="#191970" stroke="#191970" points="962.4029,-280.2168 962.2481,-269.6231 955.7628,-278.0011 962.4029,-280.2168"/>
</g>
<!-- Node18 -->
<g id="node18" class="node">
<title>Node18</title>
<g id="a_node18"><a xlink:href="class_l_f_s_t_k__lib_a0caf703b32aff90d6d92fad0ae425544.xhtml#a0caf703b32aff90d6d92fad0ae425544" target="_top" xlink:title=" ">
<polygon fill="none" stroke="#000000" points="680.848,-102.5 680.848,-122.5 857.438,-122.5 857.438,-102.5 680.848,-102.5"/>
<text text-anchor="middle" x="769.143" y="-109.5" font-family="Helvetica,sans-Serif" font-size="10.00" fill="#000000">LFSTK_lib::LFSTK_findThemedIcon</text>
</a>
</g>
</g>
<!-- Node1&#45;&gt;Node18 -->
<g id="edge19" class="edge">
<title>Node1&#45;&gt;Node18</title>
<path fill="none" stroke="#191970" d="M954.7569,-240.2351C938.0273,-211.7094 902.6748,-158.6883 857.438,-131.5 851.3903,-127.8652 844.7405,-124.9212 837.8872,-122.5374"/>
<polygon fill="#191970" stroke="#191970" points="951.8879,-242.2694 959.8834,-249.2209 957.9681,-238.8006 951.8879,-242.2694"/>
</g>
<!-- Node19 -->
<g id="node19" class="node">
<title>Node19</title>
<g id="a_node19"><a xlink:href="class_l_f_s_t_k__file_dialog_class_a1f9fac5461dd41da4b82530fa3db0b8d.xhtml#a1f9fac5461dd41da4b82530fa3db0b8d" target="_top" xlink:title=" ">
<polygon fill="none" stroke="#000000" points="352.083,-378.5 352.083,-410.5 471.443,-410.5 471.443,-378.5 352.083,-378.5"/>
<text text-anchor="start" x="360.083" y="-397.5" font-family="Helvetica,sans-Serif" font-size="10.00" fill="#000000">LFSTK_fileDialogClass</text>
<text text-anchor="middle" x="411.763" y="-385.5" font-family="Helvetica,sans-Serif" font-size="10.00" fill="#000000">::LFSTK_getLastFolder</text>
</a>
</g>
</g>
<!-- Node1&#45;&gt;Node19 -->
<g id="edge20" class="edge">
<title>Node1&#45;&gt;Node19</title>
<path fill="none" stroke="#191970" d="M957.5926,-279.185C943.4227,-312.0975 909.8755,-377.267 857.438,-403.5 728.5304,-467.9887 551.2918,-433.8775 464.2801,-410.5022"/>
<polygon fill="#191970" stroke="#191970" points="960.9187,-280.3011 961.5118,-269.7229 954.4514,-277.6224 960.9187,-280.3011"/>
</g>
<!-- Node20 -->
<g id="node20" class="node">
<title>Node20</title>
<g id="a_node20"><a xlink:href="class_l_f_s_t_k__lib_ad8546e9b4c849fb4ed177910e1df8922.xhtml#ad8546e9b4c849fb4ed177910e1df8922" target="_top" xlink:title=" ">
<polygon fill="none" stroke="#000000" points="686.4115,-345.5 686.4115,-365.5 851.8745,-365.5 851.8745,-345.5 686.4115,-345.5"/>
<text text-anchor="middle" x="769.143" y="-352.5" font-family="Helvetica,sans-Serif" font-size="10.00" fill="#000000">LFSTK_lib::LFSTK_getMimeType</text>
</a>
</g>
</g>
<!-- Node1&#45;&gt;Node20 -->
<g id="edge23" class="edge">
<title>Node1&#45;&gt;Node20</title>
<path fill="none" stroke="#191970" d="M946.7311,-276.4477C926.3157,-294.1141 891.8533,-321.3009 857.438,-336.5 849.2623,-340.1107 840.35,-343.0555 831.4345,-345.4518"/>
<polygon fill="#191970" stroke="#191970" points="949.1474,-278.9834 954.3326,-269.7441 944.5174,-273.7333 949.1474,-278.9834"/>
</g>
<!-- Node21 -->
<g id="node21" class="node">
<title>Node21</title>
<g id="a_node21"><a xlink:href="class_l_f_s_t_k__list_gadget_class_addcdb5ba330fd8dd36beb94ea2081dd3.xhtml#addcdb5ba330fd8dd36beb94ea2081dd3" target="_top" xlink:title=" ">
<polygon fill="none" stroke="#000000" points="705.8635,-51.5 705.8635,-83.5 832.4225,-83.5 832.4225,-51.5 705.8635,-51.5"/>
<text text-anchor="start" x="713.8635" y="-70.5" font-family="Helvetica,sans-Serif" font-size="10.00" fill="#000000">LFSTK_listGadgetClass</text>
<text text-anchor="middle" x="769.143" y="-58.5" font-family="Helvetica,sans-Serif" font-size="10.00" fill="#000000">::LFSTK_setListFromFile</text>
</a>
</g>
</g>
<!-- Node1&#45;&gt;Node21 -->
<g id="edge25" class="edge">
<title>Node1&#45;&gt;Node21</title>
<path fill="none" stroke="#191970" d="M958.108,-239.8699C944.1812,-204.8327 910.2657,-131.5488 857.438,-92.5 850.0073,-87.0074 841.4114,-82.7204 832.5597,-79.3746"/>
<polygon fill="#191970" stroke="#191970" points="954.9305,-241.3584 961.7872,-249.4353 961.4639,-238.8454 954.9305,-241.3584"/>
</g>
<!-- Node22 -->
<g id="node22" class="node">
<title>Node22</title>
<g id="a_node22"><a xlink:href="class_l_f_s_t_k__font_dialog_class_ab59bf98a81974300daa7ccd21aed3636.xhtml#ab59bf98a81974300daa7ccd21aed3636" target="_top" xlink:title=" ">
<polygon fill="none" stroke="#000000" points="707.8025,-.5 707.8025,-32.5 830.4835,-32.5 830.4835,-.5 707.8025,-.5"/>
<text text-anchor="start" x="715.8025" y="-19.5" font-family="Helvetica,sans-Serif" font-size="10.00" fill="#000000">LFSTK_fontDialogClass</text>
<text text-anchor="middle" x="769.143" y="-7.5" font-family="Helvetica,sans-Serif" font-size="10.00" fill="#000000">::loadFontStrings</text>
</a>
</g>
</g>
<!-- Node1&#45;&gt;Node22 -->
<g id="edge26" class="edge">
<title>Node1&#45;&gt;Node22</title>
<path fill="none" stroke="#191970" d="M961.2414,-239.6885C951.3292,-196.8487 921.9643,-95.1424 857.438,-41.5 849.7198,-35.0837 840.4531,-30.3113 830.8674,-26.7624"/>
<polygon fill="#191970" stroke="#191970" points="957.8265,-240.4558 963.3982,-249.4673 964.6622,-238.9481 957.8265,-240.4558"/>
</g>
<!-- Node3 -->
<g id="node3" class="node">
<title>Node3</title>
<g id="a_node3"><a xlink:href="class_l_f_s_t_k__file_dialog_class_aa8804989d381def9acb2c99d47d6dc3d.xhtml#aa8804989d381def9acb2c99d47d6dc3d" target="_top" xlink:title=" ">
<polygon fill="none" stroke="#000000" points="523.007,-278.5 523.007,-310.5 644.008,-310.5 644.008,-278.5 523.007,-278.5"/>
<text text-anchor="start" x="531.007" y="-297.5" font-family="Helvetica,sans-Serif" font-size="10.00" fill="#000000">LFSTK_fileDialogClass</text>
<text text-anchor="middle" x="583.5075" y="-285.5" font-family="Helvetica,sans-Serif" font-size="10.00" fill="#000000">::LFSTK_setWorkingDir</text>
</a>
</g>
</g>
<!-- Node2&#45;&gt;Node3 -->
<g id="edge2" class="edge">
<title>Node2&#45;&gt;Node3</title>
<path fill="none" stroke="#191970" d="M699.677,-272.5972C681.4697,-276.0301 661.9804,-279.7046 644.2669,-283.0443"/>
<polygon fill="#191970" stroke="#191970" points="700.4624,-276.0109 709.6408,-270.7186 699.1654,-269.1321 700.4624,-276.0109"/>
</g>
<!-- Node4 -->
<g id="node4" class="node">
<title>Node4</title>
<g id="a_node4"><a xlink:href="class_l_f_s_t_k__file_dialog_class_aacf1d4b61cbb5b40d06f591ea96f9ea7.xhtml#aacf1d4b61cbb5b40d06f591ea96f9ea7" target="_top" xlink:title=" ">
<polygon fill="none" stroke="#000000" points="0,-372.5 0,-404.5 126.009,-404.5 126.009,-372.5 0,-372.5"/>
<text text-anchor="start" x="8" y="-391.5" font-family="Helvetica,sans-Serif" font-size="10.00" fill="#000000">LFSTK_fileDialogClass</text>
<text text-anchor="middle" x="63.0045" y="-379.5" font-family="Helvetica,sans-Serif" font-size="10.00" fill="#000000">::LFSTK_showFileDialog</text>
</a>
</g>
</g>
<!-- Node3&#45;&gt;Node4 -->
<g id="edge3" class="edge">
<title>Node3&#45;&gt;Node4</title>
<path fill="none" stroke="#191970" d="M512.718,-286.9004C427.0612,-280.3045 279.6965,-277.3779 162.009,-318.5 129.4183,-329.8878 97.953,-355.413 79.5463,-372.2885"/>
<polygon fill="#191970" stroke="#191970" points="512.6022,-290.4023 522.8519,-287.7202 513.1667,-283.4251 512.6022,-290.4023"/>
</g>
<!-- Node3&#45;&gt;Node5 -->
<g id="edge4" class="edge">
<title>Node3&#45;&gt;Node5</title>
<path fill="none" stroke="#191970" d="M517.3133,-313.3857C501.0774,-318.0179 483.8497,-322.9331 468.1249,-327.4195"/>
<polygon fill="#191970" stroke="#191970" points="518.6159,-316.6538 527.2719,-310.5444 516.6954,-309.9224 518.6159,-316.6538"/>
</g>
<!-- Node6 -->
<g id="node6" class="node">
<title>Node6</title>
<g id="a_node6"><a xlink:href="class_l_f_s_t_k__file_dialog_class_a553ce8e885b0d60cbf515b7b3d1e8b65.xhtml#a553ce8e885b0d60cbf515b7b3d1e8b65" target="_top" xlink:title=" ">
<polygon fill="none" stroke="#000000" points="169.5145,-327.5 169.5145,-359.5 293.8535,-359.5 293.8535,-327.5 169.5145,-327.5"/>
<text text-anchor="start" x="177.5145" y="-346.5" font-family="Helvetica,sans-Serif" font-size="10.00" fill="#000000">LFSTK_fileDialogClass</text>
<text text-anchor="middle" x="231.684" y="-334.5" font-family="Helvetica,sans-Serif" font-size="10.00" fill="#000000">::LFSTK_fileDialogClass</text>
</a>
</g>
</g>
<!-- Node5&#45;&gt;Node6 -->
<g id="edge5" class="edge">
<title>Node5&#45;&gt;Node6</title>
<path fill="none" stroke="#191970" d="M342.0209,-343.5C326.1516,-343.5 309.3949,-343.5 293.8648,-343.5"/>
<polygon fill="#191970" stroke="#191970" points="342.2994,-347.0001 352.2993,-343.5 342.2993,-340.0001 342.2994,-347.0001"/>
</g>
<!-- Node8 -->
<g id="node8" class="node">
<title>Node8</title>
<g id="a_node8"><a xlink:href="class_l_f_s_t_k__file_dialog_class_ac7703591352d5105def9c5293fbeed62.xhtml#ac7703591352d5105def9c5293fbeed62" target="_top" xlink:title=" ">
<polygon fill="none" stroke="#000000" points="524.117,-329.5 524.117,-361.5 642.898,-361.5 642.898,-329.5 524.117,-329.5"/>
<text text-anchor="start" x="532.117" y="-348.5" font-family="Helvetica,sans-Serif" font-size="10.00" fill="#000000">LFSTK_fileDialogClass</text>
<text text-anchor="middle" x="583.5075" y="-336.5" font-family="Helvetica,sans-Serif" font-size="10.00" fill="#000000">::setPreviewData</text>
</a>
</g>
</g>
<!-- Node7&#45;&gt;Node8 -->
<g id="edge7" class="edge">
<title>Node7&#45;&gt;Node8</title>
<path fill="none" stroke="#191970" d="M688.5016,-325.7042C673.2648,-328.577 657.5825,-331.5338 643.1356,-334.2576"/>
<polygon fill="#191970" stroke="#191970" points="689.2542,-329.1241 698.4326,-323.8318 687.9573,-322.2453 689.2542,-329.1241"/>
</g>
<!-- Node8&#45;&gt;Node5 -->
<g id="edge8" class="edge">
<title>Node8&#45;&gt;Node5</title>
<path fill="none" stroke="#191970" d="M513.7783,-344.688C499.6704,-344.5237 484.9595,-344.3524 471.2436,-344.1927"/>
<polygon fill="#191970" stroke="#191970" points="513.8815,-348.1893 523.9216,-344.8061 513.9631,-341.1898 513.8815,-348.1893"/>
</g>
<!-- Node12 -->
<g id="node12" class="node">
<title>Node12</title>
<g id="a_node12"><a xlink:href="class_l_f_s_t_k__window_class_a2cef240ff812e56a57ccb6a087edb8cd.xhtml#a2cef240ff812e56a57ccb6a087edb8cd" target="_top" xlink:title=" ">
<polygon fill="none" stroke="#000000" points="525.226,-464.5 525.226,-496.5 641.789,-496.5 641.789,-464.5 525.226,-464.5"/>
<text text-anchor="start" x="533.226" y="-483.5" font-family="Helvetica,sans-Serif" font-size="10.00" fill="#000000">LFSTK_windowClass::</text>
<text text-anchor="middle" x="583.5075" y="-471.5" font-family="Helvetica,sans-Serif" font-size="10.00" fill="#000000">LFSTK_handleDnD</text>
</a>
</g>
</g>
<!-- Node11&#45;&gt;Node12 -->
<g id="edge12" class="edge">
<title>Node11&#45;&gt;Node12</title>
<path fill="none" stroke="#191970" d="M700.4702,-479.8699C681.263,-479.9734 660.5734,-480.0849 642.0138,-480.1848"/>
<polygon fill="#191970" stroke="#191970" points="700.6806,-483.3689 710.6616,-479.815 700.6428,-476.3691 700.6806,-483.3689"/>
</g>
<!-- Node13 -->
<g id="node13" class="node">
<title>Node13</title>
<g id="a_node13"><a xlink:href="class_l_f_s_t_k__window_class_a10d93c702923f9d1528b43fc5010b858.xhtml#a10d93c702923f9d1528b43fc5010b858" target="_top" xlink:title=" ">
<polygon fill="none" stroke="#000000" points="337.359,-468.5 337.359,-500.5 486.167,-500.5 486.167,-468.5 337.359,-468.5"/>
<text text-anchor="start" x="345.359" y="-487.5" font-family="Helvetica,sans-Serif" font-size="10.00" fill="#000000">LFSTK_windowClass::</text>
<text text-anchor="middle" x="411.763" y="-475.5" font-family="Helvetica,sans-Serif" font-size="10.00" fill="#000000">LFSTK_handleWindowEvents</text>
</a>
</g>
</g>
<!-- Node12&#45;&gt;Node13 -->
<g id="edge13" class="edge">
<title>Node12&#45;&gt;Node13</title>
<path fill="none" stroke="#191970" d="M514.8138,-482.0999C505.4099,-482.3189 495.7193,-482.5446 486.2185,-482.7659"/>
<polygon fill="#191970" stroke="#191970" points="514.9674,-485.5974 524.8831,-481.8654 514.8043,-478.5993 514.9674,-485.5974"/>
</g>
<!-- Node14 -->
<g id="node14" class="node">
<title>Node14</title>
<g id="a_node14"><a xlink:href="class_l_f_s_t_k__font_dialog_class_a14c5f93b43c729a1bcb8bebe141415f2.xhtml#a14c5f93b43c729a1bcb8bebe141415f2" target="_top" xlink:title=" ">
<polygon fill="none" stroke="#000000" points="170.3435,-570.5 170.3435,-602.5 293.0245,-602.5 293.0245,-570.5 170.3435,-570.5"/>
<text text-anchor="start" x="178.3435" y="-589.5" font-family="Helvetica,sans-Serif" font-size="10.00" fill="#000000">LFSTK_fontDialogClass</text>
<text text-anchor="middle" x="231.684" y="-577.5" font-family="Helvetica,sans-Serif" font-size="10.00" fill="#000000">::LFSTK_showDialog</text>
</a>
</g>
</g>
<!-- Node13&#45;&gt;Node14 -->
<g id="edge14" class="edge">
<title>Node13&#45;&gt;Node14</title>
<path fill="none" stroke="#191970" d="M383.98,-506.9869C362.4086,-523.6564 331.2363,-546.0687 301.359,-561.5 295.0789,-564.7436 288.2812,-567.7474 281.4782,-570.4648"/>
<polygon fill="#191970" stroke="#191970" points="386.3189,-509.601 392.0374,-500.682 382.005,-504.0882 386.3189,-509.601"/>
</g>
<!-- Node15 -->
<g id="node15" class="node">
<title>Node15</title>
<g id="a_node15"><a xlink:href="class_l_f_s_t_k__file_dialog_class_af77972b8a46616ba4c7bec555b2b0a14.xhtml#af77972b8a46616ba4c7bec555b2b0a14" target="_top" xlink:title=" ">
<polygon fill="none" stroke="#000000" points="168.6795,-417.5 168.6795,-449.5 294.6885,-449.5 294.6885,-417.5 168.6795,-417.5"/>
<text text-anchor="start" x="176.6795" y="-436.5" font-family="Helvetica,sans-Serif" font-size="10.00" fill="#000000">LFSTK_fileDialogClass</text>
<text text-anchor="middle" x="231.684" y="-424.5" font-family="Helvetica,sans-Serif" font-size="10.00" fill="#000000">::LFSTK_showFileDialog</text>
</a>
</g>
</g>
<!-- Node13&#45;&gt;Node15 -->
<g id="edge15" class="edge">
<title>Node13&#45;&gt;Node15</title>
<path fill="none" stroke="#191970" d="M345.1629,-465.6383C326.4749,-460.3456 306.3389,-454.6429 288.2915,-449.5317"/>
<polygon fill="#191970" stroke="#191970" points="344.2095,-469.0058 354.7849,-468.3633 346.117,-462.2707 344.2095,-469.0058"/>
</g>
<!-- Node16 -->
<g id="node16" class="node">
<title>Node16</title>
<g id="a_node16"><a xlink:href="class_l_f_s_t_k__menu_class_ab847d4847ed01a7ff90c717a2cdb6dc5.xhtml#ab847d4847ed01a7ff90c717a2cdb6dc5" target="_top" xlink:title=" ">
<polygon fill="none" stroke="#000000" points="162.009,-519.5 162.009,-551.5 301.359,-551.5 301.359,-519.5 162.009,-519.5"/>
<text text-anchor="start" x="170.009" y="-538.5" font-family="Helvetica,sans-Serif" font-size="10.00" fill="#000000">LFSTK_menuClass::LFSTK</text>
<text text-anchor="middle" x="231.684" y="-526.5" font-family="Helvetica,sans-Serif" font-size="10.00" fill="#000000">_showMenu</text>
</a>
</g>
</g>
<!-- Node13&#45;&gt;Node16 -->
<g id="edge17" class="edge">
<title>Node13&#45;&gt;Node16</title>
<path fill="none" stroke="#191970" d="M345.1629,-503.3617C326.4749,-508.6544 306.3389,-514.3571 288.2915,-519.4683"/>
<polygon fill="#191970" stroke="#191970" points="346.117,-506.7293 354.7849,-500.6367 344.2095,-499.9942 346.117,-506.7293"/>
</g>
<!-- Node17 -->
<g id="node17" class="node">
<title>Node17</title>
<g id="a_node17"><a xlink:href="class_l_f_s_t_k__menu_item_class_ad2460aa76c71cb7ea548041e1ff858cf.xhtml#ad2460aa76c71cb7ea548041e1ff858cf" target="_top" xlink:title=" ">
<polygon fill="none" stroke="#000000" points="170.6225,-468.5 170.6225,-500.5 292.7455,-500.5 292.7455,-468.5 170.6225,-468.5"/>
<text text-anchor="start" x="178.6225" y="-487.5" font-family="Helvetica,sans-Serif" font-size="10.00" fill="#000000">LFSTK_menuItemClass</text>
<text text-anchor="middle" x="231.684" y="-475.5" font-family="Helvetica,sans-Serif" font-size="10.00" fill="#000000">::mouseEnter</text>
</a>
</g>
</g>
<!-- Node13&#45;&gt;Node17 -->
<g id="edge18" class="edge">
<title>Node13&#45;&gt;Node17</title>
<path fill="none" stroke="#191970" d="M327.153,-484.5C315.6433,-484.5 304.0149,-484.5 293.0236,-484.5"/>
<polygon fill="#191970" stroke="#191970" points="327.2181,-488.0001 337.2181,-484.5 327.218,-481.0001 327.2181,-488.0001"/>
</g>
<!-- Node15&#45;&gt;Node4 -->
<g id="edge16" class="edge">
<title>Node15&#45;&gt;Node4</title>
<path fill="none" stroke="#191970" d="M161.572,-414.7956C148.7571,-411.3769 135.4909,-407.8378 123.0034,-404.5064"/>
<polygon fill="#191970" stroke="#191970" points="160.699,-418.1851 171.2633,-417.3811 162.5034,-411.4216 160.699,-418.1851"/>
</g>
<!-- Node19&#45;&gt;Node4 -->
<g id="edge22" class="edge">
<title>Node19&#45;&gt;Node4</title>
<path fill="none" stroke="#191970" d="M341.5708,-393.2924C278.6124,-392.2093 187.0453,-390.634 126.2963,-389.5889"/>
<polygon fill="#191970" stroke="#191970" points="341.7505,-396.7959 351.8093,-393.4686 341.871,-389.797 341.7505,-396.7959"/>
</g>
<!-- Node19&#45;&gt;Node6 -->
<g id="edge21" class="edge">
<title>Node19&#45;&gt;Node6</title>
<path fill="none" stroke="#191970" d="M345.1629,-375.6383C326.4749,-370.3456 306.3389,-364.6429 288.2915,-359.5317"/>
<polygon fill="#191970" stroke="#191970" points="344.2095,-379.0058 354.7849,-378.3633 346.117,-372.2707 344.2095,-379.0058"/>
</g>
<!-- Node20&#45;&gt;Node8 -->
<g id="edge24" class="edge">
<title>Node20&#45;&gt;Node8</title>
<path fill="none" stroke="#191970" d="M676.0674,-350.4861C664.8311,-349.8808 653.5998,-349.2758 643.0322,-348.7065"/>
<polygon fill="#191970" stroke="#191970" points="676.1952,-353.998 686.369,-351.041 676.5718,-347.0081 676.1952,-353.998"/>
</g>
<!-- Node23 -->
<g id="node23" class="node">
<title>Node23</title>
<g id="a_node23"><a xlink:href="class_l_f_s_t_k__font_dialog_class_af866eb2b1ba8178c9cf3e751716fcc8e.xhtml#af866eb2b1ba8178c9cf3e751716fcc8e" target="_top" xlink:title=" ">
<polygon fill="none" stroke="#000000" points="522.167,-.5 522.167,-32.5 644.848,-32.5 644.848,-.5 522.167,-.5"/>
<text text-anchor="start" x="530.167" y="-19.5" font-family="Helvetica,sans-Serif" font-size="10.00" fill="#000000">LFSTK_fontDialogClass</text>
<text text-anchor="middle" x="583.5075" y="-7.5" font-family="Helvetica,sans-Serif" font-size="10.00" fill="#000000">::buildDialog</text>
</a>
</g>
</g>
<!-- Node22&#45;&gt;Node23 -->
<g id="edge27" class="edge">
<title>Node22&#45;&gt;Node23</title>
<path fill="none" stroke="#191970" d="M697.5051,-16.5C680.1436,-16.5 661.7378,-16.5 644.897,-16.5"/>
<polygon fill="#191970" stroke="#191970" points="697.5869,-20.0001 707.5869,-16.5 697.5869,-13.0001 697.5869,-20.0001"/>
</g>
<!-- Node24 -->
<g id="node24" class="node">
<title>Node24</title>
<g id="a_node24"><a xlink:href="class_l_f_s_t_k__font_dialog_class_ab7b6a4bca99713646ab6ac77dc34827c.xhtml#ab7b6a4bca99713646ab6ac77dc34827c" target="_top" xlink:title=" ">
<polygon fill="none" stroke="#000000" points="347.6435,-.5 347.6435,-32.5 475.8825,-32.5 475.8825,-.5 347.6435,-.5"/>
<text text-anchor="start" x="355.6435" y="-19.5" font-family="Helvetica,sans-Serif" font-size="10.00" fill="#000000">LFSTK_fontDialogClass</text>
<text text-anchor="middle" x="411.763" y="-7.5" font-family="Helvetica,sans-Serif" font-size="10.00" fill="#000000">::LFSTK_fontDialogClass</text>
</a>
</g>
</g>
<!-- Node23&#45;&gt;Node24 -->
<g id="edge28" class="edge">
<title>Node23&#45;&gt;Node24</title>
<path fill="none" stroke="#191970" d="M511.7075,-16.5C499.8741,-16.5 487.6741,-16.5 476.0397,-16.5"/>
<polygon fill="#191970" stroke="#191970" points="511.9889,-20.0001 521.9889,-16.5 511.9889,-13.0001 511.9889,-20.0001"/>
</g>
</g>
</svg>
        <g id="navigator" transform="translate(0 0)" fill="#404254">
                <rect fill="#f2f5e9" fill-opacity="0.5" stroke="#606060" stroke-width=".5" x="0" y="0" width="60" height="60"/>
                <use id="zoomplus" xlink:href="#zoomPlus" x="17" y="9" onmousedown="handleZoom(evt,'in')"/>
                <use id="zoomminus" xlink:href="#zoomMin" x="42" y="9" onmousedown="handleZoom(evt,'out')"/>
                <use id="reset" xlink:href="#resetDef" x="30" y="36" onmousedown="handleReset()"/>
                <g id="arrowUp" xlink:href="#dirArrow" transform="translate(30 24)" onmousedown="handlePan(0,-1)">
                  <use xlink:href="#rim" fill="#404040">
                        <set attributeName="fill" to="#808080" begin="arrowUp.mouseover" end="arrowUp.mouseout"/>
                  </use>
                  <path fill="none" stroke="white" stroke-width="1.5" d="M0,-3.0v7 M-2.5,-0.5L0,-3.0L2.5,-0.5"/>
                </g>
                <g id="arrowRight" xlink:href="#dirArrow" transform="rotate(90) translate(36 -43)" onmousedown="handlePan(1,0)">
                  <use xlink:href="#rim" fill="#404040">
                        <set attributeName="fill" to="#808080" begin="arrowRight.mouseover" end="arrowRight.mouseout"/>
                  </use>
                  <path fill="none" stroke="white" stroke-width="1.5" d="M0,-3.0v7 M-2.5,-0.5L0,-3.0L2.5,-0.5"/>
                </g>
                <g id="arrowDown" xlink:href="#dirArrow" transform="rotate(180) translate(-30 -48)" onmousedown="handlePan(0,1)">
                  <use xlink:href="#rim" fill="#404040">
                        <set attributeName="fill" to="#808080" begin="arrowDown.mouseover" end="arrowDown.mouseout"/>
                  </use>
                  <path fill="none" stroke="white" stroke-width="1.5" d="M0,-3.0v7 M-2.5,-0.5L0,-3.0L2.5,-0.5"/>
                </g>
                <g id="arrowLeft" xlink:href="#dirArrow" transform="rotate(270) translate(-36 17)" onmousedown="handlePan(-1,0)">
                  <use xlink:href="#rim" fill="#404040">
                        <set attributeName="fill" to="#808080" begin="arrowLeft.mouseover" end="arrowLeft.mouseout"/>
                  </use>
                  <path fill="none" stroke="white" stroke-width="1.5" d="M0,-3.0v7 M-2.5,-0.5L0,-3.0L2.5,-0.5"/>
                </g>
        </g>
        <svg viewBox="0 0 15 15" width="100%" height="30px" preserveAspectRatio="xMaxYMin meet">
         <g id="arrow_out" transform="scale(0.3 0.3)">
          <a xlink:href="class_l_f_s_t_k__lib_ac5fce97c4bbf2a3c4e500bdc22c994a9_ac5fce97c4bbf2a3c4e500bdc22c994a9_icgraph_org.svg" target="_base">
           <rect id="button" ry="5" rx="5" y="6" x="6" height="38" width="38"
                fill="#f2f5e9" fill-opacity="0.5" stroke="#606060" stroke-width="1.0"/>
           <path id="arrow"
             d="M 11.500037,31.436501 C 11.940474,20.09759 22.043105,11.32322 32.158766,21.979434 L 37.068811,17.246167 C 37.068811,17.246167 37.088388,32 37.088388,32 L 22.160133,31.978069 C 22.160133,31.978069 26.997745,27.140456 26.997745,27.140456 C 18.528582,18.264221 13.291696,25.230495 11.500037,31.436501 z"
             style="fill:#404040;"/>
          </a>
         </g>
        </svg>
</svg>
