<?xml version="1.0" encoding="UTF-8" standalone="no"?>
<!DOCTYPE svg PUBLIC "-//W3C//DTD SVG 1.1//EN"
 "http://www.w3.org/Graphics/SVG/1.1/DTD/svg11.dtd">
<!-- Generated by graphviz version 2.40.1 (20161225.0304)
 -->
<!-- Title: LFSTK_multiLineEditClass::lostFocus Pages: 1 -->
<svg width="656pt" height="117pt"
 viewBox="0.00 0.00 655.59 117.00" xmlns="http://www.w3.org/2000/svg" xmlns:xlink="http://www.w3.org/1999/xlink">
<g id="graph0" class="graph" transform="scale(1 1) rotate(0) translate(4 113)">
<title>LFSTK_multiLineEditClass::lostFocus</title>
<!-- Node1 -->
<g id="node1" class="node">
<title>Node1</title>
<g id="a_node1"><a xlink:title=" ">
<polygon fill="#bfbfbf" stroke="#000000" points="0,-28.5 0,-60.5 134.898,-60.5 134.898,-28.5 0,-28.5"/>
<text text-anchor="start" x="8" y="-47.5" font-family="Helvetica,sans-Serif" font-size="10.00" fill="#000000">LFSTK_multiLineEditClass</text>
<text text-anchor="middle" x="67.449" y="-35.5" font-family="Helvetica,sans-Serif" font-size="10.00" fill="#000000">::lostFocus</text>
</a>
</g>
</g>
<!-- Node2 -->
<g id="node2" class="node">
<title>Node2</title>
<g id="a_node2"><a xlink:href="class_l_f_s_t_k__multi_line_edit_class_aada0749d2c064f7a8f2af14ab82f08a5.xhtml#aada0749d2c064f7a8f2af14ab82f08a5" target="_top" xlink:title=" ">
<polygon fill="none" stroke="#000000" points="341.796,-51.5 341.796,-83.5 476.694,-83.5 476.694,-51.5 341.796,-51.5"/>
<text text-anchor="start" x="349.796" y="-70.5" font-family="Helvetica,sans-Serif" font-size="10.00" fill="#000000">LFSTK_multiLineEditClass</text>
<text text-anchor="middle" x="409.245" y="-58.5" font-family="Helvetica,sans-Serif" font-size="10.00" fill="#000000">::LFSTK_clearWindow</text>
</a>
</g>
</g>
<!-- Node1&#45;&gt;Node2 -->
<g id="edge1" class="edge">
<title>Node1&#45;&gt;Node2</title>
<path fill="none" stroke="#191970" d="M134.9769,-49.0441C191.5295,-52.8496 272.2725,-58.2829 331.5095,-62.2691"/>
<polygon fill="#191970" stroke="#191970" points="331.3531,-65.7664 341.5656,-62.9457 331.8231,-58.7821 331.3531,-65.7664"/>
</g>
<!-- Node5 -->
<g id="node5" class="node">
<title>Node5</title>
<g id="a_node5"><a xlink:href="class_l_f_s_t_k__multi_line_edit_class_ae1de86c1df295bbe1bcb63b2f98fbb4d.xhtml#ae1de86c1df295bbe1bcb63b2f98fbb4d" target="_top" xlink:title=" ">
<polygon fill="none" stroke="#000000" points="170.898,-6.5 170.898,-38.5 305.796,-38.5 305.796,-6.5 170.898,-6.5"/>
<text text-anchor="start" x="178.898" y="-25.5" font-family="Helvetica,sans-Serif" font-size="10.00" fill="#000000">LFSTK_multiLineEditClass</text>
<text text-anchor="middle" x="238.347" y="-13.5" font-family="Helvetica,sans-Serif" font-size="10.00" fill="#000000">::setDisplayLines</text>
</a>
</g>
</g>
<!-- Node1&#45;&gt;Node5 -->
<g id="edge4" class="edge">
<title>Node1&#45;&gt;Node5</title>
<path fill="none" stroke="#191970" d="M134.9924,-35.805C143.4418,-34.7173 152.1357,-33.5981 160.7233,-32.4926"/>
<polygon fill="#191970" stroke="#191970" points="161.2633,-35.9521 170.7346,-31.2039 160.3695,-29.0094 161.2633,-35.9521"/>
</g>
<!-- Node3 -->
<g id="node3" class="node">
<title>Node3</title>
<g id="a_node3"><a xlink:href="class_l_f_s_t_k__gadget_class_ab76db165a19af248b5e94e95492dc879.xhtml#ab76db165a19af248b5e94e95492dc879" target="_top" xlink:title=" ">
<polygon fill="none" stroke="#000000" points="523.2415,-76.5 523.2415,-108.5 637.0445,-108.5 637.0445,-76.5 523.2415,-76.5"/>
<text text-anchor="start" x="531.2415" y="-95.5" font-family="Helvetica,sans-Serif" font-size="10.00" fill="#000000">LFSTK_gadgetClass::</text>
<text text-anchor="middle" x="580.143" y="-83.5" font-family="Helvetica,sans-Serif" font-size="10.00" fill="#000000">drawBevel</text>
</a>
</g>
</g>
<!-- Node2&#45;&gt;Node3 -->
<g id="edge2" class="edge">
<title>Node2&#45;&gt;Node3</title>
<path fill="none" stroke="#191970" d="M476.7884,-77.3807C488.6228,-79.1119 500.9369,-80.9132 512.7667,-82.6438"/>
<polygon fill="#191970" stroke="#191970" points="512.6124,-86.1584 523.0137,-84.1428 513.6256,-79.2321 512.6124,-86.1584"/>
</g>
<!-- Node4 -->
<g id="node4" class="node">
<title>Node4</title>
<g id="a_node4"><a xlink:href="class_l_f_s_t_k__multi_line_edit_class_a48999ac31ea05c85d68ef2c5fc513c0e.xhtml#a48999ac31ea05c85d68ef2c5fc513c0e" target="_top" xlink:title=" ">
<polygon fill="none" stroke="#000000" points="512.694,-25.5 512.694,-57.5 647.592,-57.5 647.592,-25.5 512.694,-25.5"/>
<text text-anchor="start" x="520.694" y="-44.5" font-family="Helvetica,sans-Serif" font-size="10.00" fill="#000000">LFSTK_multiLineEditClass</text>
<text text-anchor="middle" x="580.143" y="-32.5" font-family="Helvetica,sans-Serif" font-size="10.00" fill="#000000">::drawText</text>
</a>
</g>
</g>
<!-- Node2&#45;&gt;Node4 -->
<g id="edge3" class="edge">
<title>Node2&#45;&gt;Node4</title>
<path fill="none" stroke="#191970" d="M476.7884,-57.2241C485.2378,-55.9386 493.9317,-54.616 502.5193,-53.3095"/>
<polygon fill="#191970" stroke="#191970" points="503.1708,-56.7507 512.5306,-51.7864 502.1179,-49.8304 503.1708,-56.7507"/>
</g>
<!-- Node5&#45;&gt;Node2 -->
<g id="edge5" class="edge">
<title>Node5&#45;&gt;Node2</title>
<path fill="none" stroke="#191970" d="M299.5624,-38.6189C312.2318,-41.955 325.676,-45.495 338.649,-48.911"/>
<polygon fill="#191970" stroke="#191970" points="337.8954,-52.3318 348.457,-51.4936 339.6779,-45.5626 337.8954,-52.3318"/>
</g>
<!-- Node6 -->
<g id="node6" class="node">
<title>Node6</title>
<g id="a_node6"><a xlink:href="class_l_f_s_t_k__gadget_class_a71d34233c5db545e92d37c0e3139459b.xhtml#a71d34233c5db545e92d37c0e3139459b" target="_top" xlink:title=" ">
<polygon fill="none" stroke="#000000" points="352.3435,-.5 352.3435,-32.5 466.1465,-32.5 466.1465,-.5 352.3435,-.5"/>
<text text-anchor="start" x="360.3435" y="-19.5" font-family="Helvetica,sans-Serif" font-size="10.00" fill="#000000">LFSTK_gadgetClass::</text>
<text text-anchor="middle" x="409.245" y="-7.5" font-family="Helvetica,sans-Serif" font-size="10.00" fill="#000000">LFSTK_getGeom</text>
</a>
</g>
</g>
<!-- Node5&#45;&gt;Node6 -->
<g id="edge6" class="edge">
<title>Node5&#45;&gt;Node6</title>
<path fill="none" stroke="#191970" d="M305.8904,-20.1286C317.7248,-19.7132 330.0389,-19.2808 341.8687,-18.8655"/>
<polygon fill="#191970" stroke="#191970" points="342.2447,-22.3545 352.1157,-18.5057 341.999,-15.3589 342.2447,-22.3545"/>
</g>
</g>
</svg>
