<?xml version="1.0" encoding="UTF-8" standalone="no"?>
<!DOCTYPE svg PUBLIC "-//W3C//DTD SVG 1.1//EN"
 "http://www.w3.org/Graphics/SVG/1.1/DTD/svg11.dtd">
<!-- Generated by graphviz version 2.40.1 (20161225.0304)
 -->
<!-- Title: LFSTK_buttonClass Pages: 1 -->
<!--zoomable 344 -->
<svg id="main" version="1.1" xmlns="http://www.w3.org/2000/svg" xmlns:xlink="http://www.w3.org/1999/xlink" xml:space="preserve" onload="init(evt)">
<style type="text/css"><![CDATA[
.edge:hover path { stroke: red; }
.edge:hover polygon { stroke: red; fill: red; }
]]></style>
<script type="text/javascript"><![CDATA[
var edges = document.getElementsByTagName('g');
if (edges && edges.length) {
  for (var i=0;i<edges.length;i++) {
    if (edges[i].id.substr(0,4)=='edge') {
      edges[i].setAttribute('class','edge');
    }
  }
}
]]></script>
        <defs>
                <circle id="rim" cx="0" cy="0" r="7"/>
                <circle id="rim2" cx="0" cy="0" r="3.5"/>
                <g id="zoomPlus">
                        <use xlink:href="#rim" fill="#404040">
                                <set attributeName="fill" to="#808080" begin="zoomplus.mouseover" end="zoomplus.mouseout"/>
                        </use>
                        <path d="M-4,0h8M0,-4v8" fill="none" stroke="white" stroke-width="1.5" pointer-events="none"/>
                </g>
                <g id="zoomMin">
                        <use xlink:href="#rim" fill="#404040">
                                <set attributeName="fill" to="#808080" begin="zoomminus.mouseover" end="zoomminus.mouseout"/>
                        </use>
                        <path d="M-4,0h8" fill="none" stroke="white" stroke-width="1.5" pointer-events="none"/>
                </g>
                <g id="dirArrow">
                        <path fill="none" stroke="white" stroke-width="1.5" d="M0,-3.0v7 M-2.5,-0.5L0,-3.0L2.5,-0.5"/>
                </g>
               <g id="resetDef">
                       <use xlink:href="#rim2" fill="#404040">
                               <set attributeName="fill" to="#808080" begin="reset.mouseover" end="reset.mouseout"/>
                       </use>
               </g>
        </defs>

<script type="text/javascript">
var viewWidth = 774;
var viewHeight = 344;
var sectionId = 'dynsection-1';
</script>
<script xlink:href="svgpan.js"/>
<svg id="graph" class="graph">
<g id="viewport">
<title>LFSTK_buttonClass</title>
<!-- Node1 -->
<g id="node1" class="node">
<title>Node1</title>
<g id="a_node1"><a xlink:title="Basic button class for LFSToolKit.">
<polygon fill="#bfbfbf" stroke="#000000" points="0,-.5 0,-20.5 105.465,-20.5 105.465,-.5 0,-.5"/>
<text text-anchor="middle" x="52.7325" y="-7.5" font-family="Helvetica,sans-Serif" font-size="10.00" fill="#000000">LFSTK_buttonClass</text>
</a>
</g>
</g>
<!-- Node2 -->
<g id="node2" class="node">
<title>Node2</title>
<g id="a_node2"><a xlink:href="class_l_f_s_t_k__gadget_class.xhtml" target="_top" xlink:title="Base class for LFSToolKit gadgets.">
<polygon fill="none" stroke="#000000" points="149.61,-81.5 149.61,-101.5 257.855,-101.5 257.855,-81.5 149.61,-81.5"/>
<text text-anchor="middle" x="203.7325" y="-88.5" font-family="Helvetica,sans-Serif" font-size="10.00" fill="#000000">LFSTK_gadgetClass</text>
</a>
</g>
</g>
<!-- Node2&#45;&gt;Node1 -->
<g id="edge1" class="edge">
<title>Node2&#45;&gt;Node1</title>
<path fill="none" stroke="#191970" d="M154.8785,-78.3536C142.7172,-74.2152 129.9552,-69.0981 118.7325,-63 97.1196,-51.2562 75.4498,-32.3163 63.1057,-20.6828"/>
<polygon fill="#191970" stroke="#191970" points="153.8698,-81.7059 164.4618,-81.4627 156.03,-75.0475 153.8698,-81.7059"/>
</g>
<!-- Node7 -->
<g id="node7" class="node">
<title>Node7</title>
<g id="a_node7"><a xlink:href="class_l_f_s_t_k__window_class.xhtml" target="_top" xlink:title="Window class for LFSToolKit.">
<polygon fill="none" stroke="#000000" points="394.23,-.5 394.23,-20.5 505.235,-20.5 505.235,-.5 394.23,-.5"/>
<text text-anchor="middle" x="449.7325" y="-7.5" font-family="Helvetica,sans-Serif" font-size="10.00" fill="#000000">LFSTK_windowClass</text>
</a>
</g>
</g>
<!-- Node2&#45;&gt;Node7 -->
<g id="edge10" class="edge">
<title>Node2&#45;&gt;Node7</title>
<path fill="none" stroke="#9a32cd" stroke-dasharray="5,2" d="M232.5845,-76.704C240.508,-72.4471 249.0348,-67.6842 256.7325,-63 272.8718,-53.1789 274.3382,-46.1696 291.8175,-39 324.2937,-25.679 363.0558,-18.5668 394.0488,-14.7786"/>
<polygon fill="#9a32cd" stroke="#9a32cd" points="230.8478,-73.6631 223.6459,-81.4337 234.1217,-79.8503 230.8478,-73.6631"/>
<text text-anchor="middle" x="333.69" y="-54" font-family="Helvetica,sans-Serif" font-size="10.00" fill="#000000"> dropGadget</text>
<text text-anchor="middle" x="333.69" y="-42" font-family="Helvetica,sans-Serif" font-size="10.00" fill="#000000">popupFromGadget</text>
</g>
<!-- Node12 -->
<g id="node12" class="node">
<title>Node12</title>
<g id="a_node12"><a xlink:href="structmapped_listener.xhtml" target="_top" xlink:title=" ">
<polygon fill="none" stroke="#000000" points="123.889,-.5 123.889,-20.5 211.576,-20.5 211.576,-.5 123.889,-.5"/>
<text text-anchor="middle" x="167.7325" y="-7.5" font-family="Helvetica,sans-Serif" font-size="10.00" fill="#000000">mappedListener</text>
</a>
</g>
</g>
<!-- Node2&#45;&gt;Node12 -->
<g id="edge16" class="edge">
<title>Node2&#45;&gt;Node12</title>
<path fill="none" stroke="#9a32cd" stroke-dasharray="5,2" d="M154.6916,-78.3558C141.7142,-73.8426 130.2329,-68.5264 126.3795,-63 120.2786,-54.2503 121.4191,-48.4431 126.3795,-39 130.4343,-31.281 137.6313,-25.2437 144.8968,-20.7521"/>
<polygon fill="#9a32cd" stroke="#9a32cd" points="153.7256,-81.7221 164.318,-81.4918 155.8939,-75.0664 153.7256,-81.7221"/>
<text text-anchor="middle" x="143.409" y="-48" font-family="Helvetica,sans-Serif" font-size="10.00" fill="#000000"> gadget</text>
</g>
<!-- Node3 -->
<g id="node3" class="node">
<title>Node3</title>
<g id="a_node3"><a xlink:href="structgadget_struct.xhtml" target="_top" xlink:title=" ">
<polygon fill="none" stroke="#000000" points="287.388,-158 287.388,-178 360.077,-178 360.077,-158 287.388,-158"/>
<text text-anchor="middle" x="323.7325" y="-165" font-family="Helvetica,sans-Serif" font-size="10.00" fill="#000000">gadgetStruct</text>
</a>
</g>
</g>
<!-- Node3&#45;&gt;Node2 -->
<g id="edge2" class="edge">
<title>Node3&#45;&gt;Node2</title>
<path fill="none" stroke="#9a32cd" stroke-dasharray="5,2" d="M299.5305,-152.5712C275.6419,-137.3422 239.8189,-114.5051 219.4243,-101.5035"/>
<polygon fill="#9a32cd" stroke="#9a32cd" points="297.7308,-155.5746 308.0446,-157.999 301.4938,-149.672 297.7308,-155.5746"/>
<text text-anchor="middle" x="295.686" y="-123" font-family="Helvetica,sans-Serif" font-size="10.00" fill="#000000"> gadgetDetails</text>
</g>
<!-- Node4 -->
<g id="node4" class="node">
<title>Node4</title>
<g id="a_node4"><a xlink:href="structgeometry_struct.xhtml" target="_top" xlink:title=" ">
<polygon fill="none" stroke="#000000" points="535.8385,-246.5 535.8385,-266.5 619.6265,-266.5 619.6265,-246.5 535.8385,-246.5"/>
<text text-anchor="middle" x="577.7325" y="-253.5" font-family="Helvetica,sans-Serif" font-size="10.00" fill="#000000">geometryStruct</text>
</a>
</g>
</g>
<!-- Node4&#45;&gt;Node2 -->
<g id="edge6" class="edge">
<title>Node4&#45;&gt;Node2</title>
<path fill="none" stroke="#9a32cd" stroke-dasharray="5,2" d="M578.7032,-235.8971C579.8293,-201.7306 579.8008,-135.5578 563.7325,-120 543.1671,-100.088 335.2528,-104.4519 306.7325,-102 290.8834,-100.6375 273.6829,-98.9621 257.9595,-97.3531"/>
<polygon fill="#9a32cd" stroke="#9a32cd" points="575.1963,-236.0071 578.2986,-246.1376 582.1908,-236.2836 575.1963,-236.0071"/>
<text text-anchor="middle" x="608.022" y="-165" font-family="Helvetica,sans-Serif" font-size="10.00" fill="#000000"> gadgetGeom</text>
</g>
<!-- Node4&#45;&gt;Node3 -->
<g id="edge3" class="edge">
<title>Node4&#45;&gt;Node3</title>
<path fill="none" stroke="#9a32cd" stroke-dasharray="5,2" d="M536.3524,-243.2872C494.0171,-229.5952 426.4497,-207.2597 368.7325,-186 362.1001,-183.557 354.9752,-180.7792 348.3952,-178.1494"/>
<polygon fill="#9a32cd" stroke="#9a32cd" points="535.4381,-246.6698 546.0297,-246.4086 537.5869,-240.0078 535.4381,-246.6698"/>
<text text-anchor="middle" x="520.626" y="-219" font-family="Helvetica,sans-Serif" font-size="10.00" fill="#000000"> indicatorGeom</text>
<text text-anchor="middle" x="520.626" y="-207" font-family="Helvetica,sans-Serif" font-size="10.00" fill="#000000">gadgetGeom</text>
</g>
<!-- Node4&#45;&gt;Node7 -->
<g id="edge8" class="edge">
<title>Node4&#45;&gt;Node7</title>
<path fill="none" stroke="#9a32cd" stroke-dasharray="5,2" d="M624.0877,-242.9988C651.6224,-232.3233 684.2851,-214.3848 700.7325,-186 715.4542,-160.5934 709.9701,-146.692 697.7325,-120 677.0318,-74.8487 664.6068,-62.2854 620.7325,-39 601.1262,-28.5943 547.3455,-20.7183 505.2799,-15.9113"/>
<polygon fill="#9a32cd" stroke="#9a32cd" points="622.782,-239.7497 614.5972,-246.4772 625.1909,-246.3221 622.782,-239.7497"/>
<text text-anchor="middle" x="734.402" y="-123" font-family="Helvetica,sans-Serif" font-size="10.00" fill="#000000"> windowGeom</text>
</g>
<!-- Node5 -->
<g id="node5" class="node">
<title>Node5</title>
<g id="a_node5"><a xlink:href="structcolour_struct.xhtml" target="_top" xlink:title=" ">
<polygon fill="none" stroke="#000000" points="289.0625,-246.5 289.0625,-266.5 358.4025,-266.5 358.4025,-246.5 289.0625,-246.5"/>
<text text-anchor="middle" x="323.7325" y="-253.5" font-family="Helvetica,sans-Serif" font-size="10.00" fill="#000000">colourStruct</text>
</a>
</g>
</g>
<!-- Node5&#45;&gt;Node2 -->
<g id="edge18" class="edge">
<title>Node5&#45;&gt;Node2</title>
<path fill="none" stroke="#9a32cd" stroke-dasharray="5,2" d="M279.3838,-243.7184C251.5085,-233.1306 217.7473,-215.0198 200.9465,-186 185.3215,-159.0113 194.4245,-120.0293 200.1568,-101.7232"/>
<polygon fill="#9a32cd" stroke="#9a32cd" points="278.3662,-247.0717 288.9607,-247.1552 280.7307,-240.4831 278.3662,-247.0717"/>
<text text-anchor="middle" x="240.6255" y="-177" font-family="Helvetica,sans-Serif" font-size="10.00" fill="#000000"> labelBGColour</text>
<text text-anchor="middle" x="240.6255" y="-165" font-family="Helvetica,sans-Serif" font-size="10.00" fill="#000000">colourNames</text>
<text text-anchor="middle" x="240.6255" y="-153" font-family="Helvetica,sans-Serif" font-size="10.00" fill="#000000">fontColourNames</text>
</g>
<!-- Node5&#45;&gt;Node3 -->
<g id="edge4" class="edge">
<title>Node5&#45;&gt;Node3</title>
<path fill="none" stroke="#9a32cd" stroke-dasharray="5,2" d="M323.7325,-236.1978C323.7325,-218.0125 323.7325,-192.1048 323.7325,-178.0337"/>
<polygon fill="#9a32cd" stroke="#9a32cd" points="320.2326,-236.3479 323.7325,-246.3479 327.2326,-236.348 320.2326,-236.3479"/>
<text text-anchor="middle" x="338.7345" y="-213" font-family="Helvetica,sans-Serif" font-size="10.00" fill="#000000"> colour</text>
</g>
<!-- Node5&#45;&gt;Node7 -->
<g id="edge12" class="edge">
<title>Node5&#45;&gt;Node7</title>
<path fill="none" stroke="#9a32cd" stroke-dasharray="5,2" d="M368.6831,-251.0077C400.3598,-246.3156 439.2661,-238.63 451.7325,-228 485.2632,-199.4086 535.5103,-76.0998 511.7325,-39 506.4268,-30.7216 498.0442,-24.8154 489.1376,-20.6133"/>
<polygon fill="#9a32cd" stroke="#9a32cd" points="368.1038,-247.5547 358.6951,-252.4258 369.0879,-254.4852 368.1038,-247.5547"/>
<text text-anchor="middle" x="556.344" y="-123" font-family="Helvetica,sans-Serif" font-size="10.00" fill="#000000"> windowColourNames</text>
</g>
<!-- Node6 -->
<g id="node6" class="node">
<title>Node6</title>
<g id="a_node6"><a xlink:href="structcairo_color.xhtml" target="_top" xlink:title=" ">
<polygon fill="none" stroke="#000000" points="292.957,-315.5 292.957,-335.5 354.508,-335.5 354.508,-315.5 292.957,-315.5"/>
<text text-anchor="middle" x="323.7325" y="-322.5" font-family="Helvetica,sans-Serif" font-size="10.00" fill="#000000">cairoColor</text>
</a>
</g>
</g>
<!-- Node6&#45;&gt;Node5 -->
<g id="edge5" class="edge">
<title>Node6&#45;&gt;Node5</title>
<path fill="none" stroke="#9a32cd" stroke-dasharray="5,2" d="M323.7325,-305.2177C323.7325,-292.5684 323.7325,-276.8285 323.7325,-266.723"/>
<polygon fill="#9a32cd" stroke="#9a32cd" points="320.2326,-305.3188 323.7325,-315.3188 327.2326,-305.3188 320.2326,-305.3188"/>
<text text-anchor="middle" x="354.012" y="-288" font-family="Helvetica,sans-Serif" font-size="10.00" fill="#000000"> RGBAColour</text>
</g>
<!-- Node7&#45;&gt;Node2 -->
<g id="edge7" class="edge">
<title>Node7&#45;&gt;Node2</title>
<path fill="none" stroke="#9a32cd" stroke-dasharray="5,2" d="M383.8028,-13.7857C315.4763,-17.8736 216.9753,-25.9527 205.0605,-39 194.7314,-50.3108 197.3874,-69.386 200.4338,-81.1637"/>
<polygon fill="#9a32cd" stroke="#9a32cd" points="384.2916,-17.2632 394.0711,-13.1876 383.8844,-10.2751 384.2916,-17.2632"/>
<text text-anchor="middle" x="231.5685" y="-54" font-family="Helvetica,sans-Serif" font-size="10.00" fill="#000000"> contextWC</text>
<text text-anchor="middle" x="231.5685" y="-42" font-family="Helvetica,sans-Serif" font-size="10.00" fill="#000000">wc</text>
</g>
<!-- Node8 -->
<g id="node8" class="node">
<title>Node8</title>
<g id="a_node8"><a xlink:href="structmonitor_struct.xhtml" target="_top" xlink:title=" ">
<polygon fill="none" stroke="#000000" points="316.0085,-81.5 316.0085,-101.5 391.4565,-101.5 391.4565,-81.5 316.0085,-81.5"/>
<text text-anchor="middle" x="353.7325" y="-88.5" font-family="Helvetica,sans-Serif" font-size="10.00" fill="#000000">monitorStruct</text>
</a>
</g>
</g>
<!-- Node8&#45;&gt;Node7 -->
<g id="edge9" class="edge">
<title>Node8&#45;&gt;Node7</title>
<path fill="none" stroke="#9a32cd" stroke-dasharray="5,2" d="M369.1196,-73.5953C378.753,-62.9219 391.7445,-49.4596 404.6205,-39 412.9615,-32.2243 423.0059,-25.7374 431.4975,-20.6688"/>
<polygon fill="#9a32cd" stroke="#9a32cd" points="366.4693,-71.3089 362.4649,-81.1178 371.7122,-75.947 366.4693,-71.3089"/>
<text text-anchor="middle" x="424.2885" y="-48" font-family="Helvetica,sans-Serif" font-size="10.00" fill="#000000"> monitors</text>
</g>
<!-- Node9 -->
<g id="node9" class="node">
<title>Node9</title>
<g id="a_node9"><a xlink:href="structdrop_data_struct.xhtml" target="_top" xlink:title=" ">
<polygon fill="none" stroke="#000000" points="409.114,-81.5 409.114,-101.5 492.351,-101.5 492.351,-81.5 409.114,-81.5"/>
<text text-anchor="middle" x="450.7325" y="-88.5" font-family="Helvetica,sans-Serif" font-size="10.00" fill="#000000">dropDataStruct</text>
</a>
</g>
</g>
<!-- Node9&#45;&gt;Node7 -->
<g id="edge11" class="edge">
<title>Node9&#45;&gt;Node7</title>
<path fill="none" stroke="#9a32cd" stroke-dasharray="5,2" d="M450.4818,-71.1972C450.2832,-55.1048 450.0139,-33.2944 449.8581,-20.6754"/>
<polygon fill="#9a32cd" stroke="#9a32cd" points="446.9826,-71.2853 450.6058,-81.2413 453.982,-71.1988 446.9826,-71.2853"/>
<text text-anchor="middle" x="480.0215" y="-48" font-family="Helvetica,sans-Serif" font-size="10.00" fill="#000000"> droppedData</text>
</g>
<!-- Node10 -->
<g id="node10" class="node">
<title>Node10</title>
<g id="a_node10"><a xlink:href="class_l_f_s_t_k__lib.xhtml" target="_top" xlink:title="Library of useful routines for LFSToolKit.">
<polygon fill="none" stroke="#000000" points="575.397,-81.5 575.397,-101.5 638.068,-101.5 638.068,-81.5 575.397,-81.5"/>
<text text-anchor="middle" x="606.7325" y="-88.5" font-family="Helvetica,sans-Serif" font-size="10.00" fill="#000000">LFSTK_lib</text>
</a>
</g>
</g>
<!-- Node10&#45;&gt;Node7 -->
<g id="edge13" class="edge">
<title>Node10&#45;&gt;Node7</title>
<path fill="none" stroke="#9a32cd" stroke-dasharray="5,2" d="M588.5933,-74.3412C575.7788,-62.9922 557.743,-48.5065 539.7325,-39 524.9481,-31.1964 507.6573,-25.0868 492.2045,-20.5602"/>
<polygon fill="#9a32cd" stroke="#9a32cd" points="586.4535,-77.126 596.2075,-81.2623 591.1619,-71.9461 586.4535,-77.126"/>
<text text-anchor="middle" x="595.1275" y="-48" font-family="Helvetica,sans-Serif" font-size="10.00" fill="#000000"> globalLib</text>
</g>
<!-- Node11 -->
<g id="node11" class="node">
<title>Node11</title>
<g id="a_node11"><a xlink:href="structargs.xhtml" target="_top" xlink:title=" ">
<polygon fill="none" stroke="#000000" points="656.009,-158 656.009,-178 691.456,-178 691.456,-158 656.009,-158"/>
<text text-anchor="middle" x="673.7325" y="-165" font-family="Helvetica,sans-Serif" font-size="10.00" fill="#000000">args</text>
</a>
</g>
</g>
<!-- Node11&#45;&gt;Node10 -->
<g id="edge14" class="edge">
<title>Node11&#45;&gt;Node10</title>
<path fill="none" stroke="#9a32cd" stroke-dasharray="5,2" d="M647.3992,-152.6355C635.8371,-145.4468 623.9758,-137.3177 619.9485,-132 613.1612,-123.038 609.7746,-110.4405 608.1433,-101.6842"/>
<polygon fill="#9a32cd" stroke="#9a32cd" points="645.6836,-155.6885 656.0478,-157.8873 649.3169,-149.7052 645.6836,-155.6885"/>
<text text-anchor="middle" x="658.6245" y="-123" font-family="Helvetica,sans-Serif" font-size="10.00" fill="#000000"> lfsToolKitGlobals</text>
</g>
<!-- Node12&#45;&gt;Node2 -->
<g id="edge15" class="edge">
<title>Node12&#45;&gt;Node2</title>
<path fill="none" stroke="#9a32cd" stroke-dasharray="5,2" d="M164.0619,-30.7673C163.1743,-40.9228 163.6068,-53.1261 168.4055,-63 172.0567,-70.5128 178.741,-76.6903 185.3206,-81.3502"/>
<polygon fill="#9a32cd" stroke="#9a32cd" points="167.5439,-31.1338 165.399,-20.7584 160.6056,-30.2068 167.5439,-31.1338"/>
<text text-anchor="middle" x="175.396" y="-48" font-family="Helvetica,sans-Serif" font-size="10.00" fill="#000000"> ml</text>
</g>
<!-- Node13 -->
<g id="node13" class="node">
<title>Node13</title>
<g id="a_node13"><a xlink:href="structbutton_c_b.xhtml" target="_top" xlink:title=" ">
<polygon fill="none" stroke="#000000" points="377.8915,-158 377.8915,-178 435.5735,-178 435.5735,-158 377.8915,-158"/>
<text text-anchor="middle" x="406.7325" y="-165" font-family="Helvetica,sans-Serif" font-size="10.00" fill="#000000">buttonCB</text>
</a>
</g>
</g>
<!-- Node13&#45;&gt;Node2 -->
<g id="edge17" class="edge">
<title>Node13&#45;&gt;Node2</title>
<path fill="none" stroke="#9a32cd" stroke-dasharray="5,2" d="M385.7433,-151.7174C371.2863,-141.24 351.236,-128.1129 331.7325,-120 308.3999,-110.2943 281.2366,-103.6472 257.9511,-99.231"/>
<polygon fill="#9a32cd" stroke="#9a32cd" points="383.8534,-154.6736 393.9671,-157.8301 388.0292,-149.0555 383.8534,-154.6736"/>
<text text-anchor="middle" x="372.1795" y="-123" font-family="Helvetica,sans-Serif" font-size="10.00" fill="#000000"> callback</text>
</g>
</g>
</svg>
        <g id="navigator" transform="translate(0 0)" fill="#404254">
                <rect fill="#f2f5e9" fill-opacity="0.5" stroke="#606060" stroke-width=".5" x="0" y="0" width="60" height="60"/>
                <use id="zoomplus" xlink:href="#zoomPlus" x="17" y="9" onmousedown="handleZoom(evt,'in')"/>
                <use id="zoomminus" xlink:href="#zoomMin" x="42" y="9" onmousedown="handleZoom(evt,'out')"/>
                <use id="reset" xlink:href="#resetDef" x="30" y="36" onmousedown="handleReset()"/>
                <g id="arrowUp" xlink:href="#dirArrow" transform="translate(30 24)" onmousedown="handlePan(0,-1)">
                  <use xlink:href="#rim" fill="#404040">
                        <set attributeName="fill" to="#808080" begin="arrowUp.mouseover" end="arrowUp.mouseout"/>
                  </use>
                  <path fill="none" stroke="white" stroke-width="1.5" d="M0,-3.0v7 M-2.5,-0.5L0,-3.0L2.5,-0.5"/>
                </g>
                <g id="arrowRight" xlink:href="#dirArrow" transform="rotate(90) translate(36 -43)" onmousedown="handlePan(1,0)">
                  <use xlink:href="#rim" fill="#404040">
                        <set attributeName="fill" to="#808080" begin="arrowRight.mouseover" end="arrowRight.mouseout"/>
                  </use>
                  <path fill="none" stroke="white" stroke-width="1.5" d="M0,-3.0v7 M-2.5,-0.5L0,-3.0L2.5,-0.5"/>
                </g>
                <g id="arrowDown" xlink:href="#dirArrow" transform="rotate(180) translate(-30 -48)" onmousedown="handlePan(0,1)">
                  <use xlink:href="#rim" fill="#404040">
                        <set attributeName="fill" to="#808080" begin="arrowDown.mouseover" end="arrowDown.mouseout"/>
                  </use>
                  <path fill="none" stroke="white" stroke-width="1.5" d="M0,-3.0v7 M-2.5,-0.5L0,-3.0L2.5,-0.5"/>
                </g>
                <g id="arrowLeft" xlink:href="#dirArrow" transform="rotate(270) translate(-36 17)" onmousedown="handlePan(-1,0)">
                  <use xlink:href="#rim" fill="#404040">
                        <set attributeName="fill" to="#808080" begin="arrowLeft.mouseover" end="arrowLeft.mouseout"/>
                  </use>
                  <path fill="none" stroke="white" stroke-width="1.5" d="M0,-3.0v7 M-2.5,-0.5L0,-3.0L2.5,-0.5"/>
                </g>
        </g>
        <svg viewBox="0 0 15 15" width="100%" height="30px" preserveAspectRatio="xMaxYMin meet">
         <g id="arrow_out" transform="scale(0.3 0.3)">
          <a xlink:href="class_l_f_s_t_k__button_class__coll__graph_org.svg" target="_base">
           <rect id="button" ry="5" rx="5" y="6" x="6" height="38" width="38"
                fill="#f2f5e9" fill-opacity="0.5" stroke="#606060" stroke-width="1.0"/>
           <path id="arrow"
             d="M 11.500037,31.436501 C 11.940474,20.09759 22.043105,11.32322 32.158766,21.979434 L 37.068811,17.246167 C 37.068811,17.246167 37.088388,32 37.088388,32 L 22.160133,31.978069 C 22.160133,31.978069 26.997745,27.140456 26.997745,27.140456 C 18.528582,18.264221 13.291696,25.230495 11.500037,31.436501 z"
             style="fill:#404040;"/>
          </a>
         </g>
        </svg>
</svg>
