<?xml version="1.0" encoding="UTF-8" standalone="no"?>
<!DOCTYPE svg PUBLIC "-//W3C//DTD SVG 1.1//EN"
 "http://www.w3.org/Graphics/SVG/1.1/DTD/svg11.dtd">
<!-- Generated by graphviz version 2.40.1 (20161225.0304)
 -->
<!-- Title: LFSTK_findClass::LFSTK_sortByName Pages: 1 -->
<svg width="402pt" height="41pt"
 viewBox="0.00 0.00 401.92 41.00" xmlns="http://www.w3.org/2000/svg" xmlns:xlink="http://www.w3.org/1999/xlink">
<g id="graph0" class="graph" transform="scale(1 1) rotate(0) translate(4 37)">
<title>LFSTK_findClass::LFSTK_sortByName</title>
<!-- Node1 -->
<g id="node1" class="node">
<title>Node1</title>
<g id="a_node1"><a xlink:title=" ">
<polygon fill="#bfbfbf" stroke="#000000" points="0,-.5 0,-32.5 130.46,-32.5 130.46,-.5 0,-.5"/>
<text text-anchor="start" x="8" y="-19.5" font-family="Helvetica,sans-Serif" font-size="10.00" fill="#000000">LFSTK_findClass::LFSTK</text>
<text text-anchor="middle" x="65.23" y="-7.5" font-family="Helvetica,sans-Serif" font-size="10.00" fill="#000000">_sortByName</text>
</a>
</g>
</g>
<!-- Node2 -->
<g id="node2" class="node">
<title>Node2</title>
<g id="a_node2"><a xlink:href="_l_f_s_t_k_find_class_8cpp_a7c25cd09a9d1edeb312cf126bea29910.xhtml#a7c25cd09a9d1edeb312cf126bea29910" target="_top" xlink:title=" ">
<polygon fill="none" stroke="#000000" points="166.46,-6.5 166.46,-26.5 227.462,-26.5 227.462,-6.5 166.46,-6.5"/>
<text text-anchor="middle" x="196.961" y="-13.5" font-family="Helvetica,sans-Serif" font-size="10.00" fill="#000000">sortDataN</text>
</a>
</g>
</g>
<!-- Node1&#45;&gt;Node2 -->
<g id="edge1" class="edge">
<title>Node1&#45;&gt;Node2</title>
<path fill="none" stroke="#191970" d="M130.7096,-16.5C139.3299,-16.5 147.9591,-16.5 156.0065,-16.5"/>
<polygon fill="#191970" stroke="#191970" points="156.2007,-20.0001 166.2006,-16.5 156.2006,-13.0001 156.2007,-20.0001"/>
</g>
<!-- Node3 -->
<g id="node3" class="node">
<title>Node3</title>
<g id="a_node3"><a xlink:href="class_l_f_s_t_k__find_class_a34a08ade9e47801d87f5ab53f9b1a055.xhtml#a34a08ade9e47801d87f5ab53f9b1a055" target="_top" xlink:title=" ">
<polygon fill="none" stroke="#000000" points="263.462,-.5 263.462,-32.5 393.922,-32.5 393.922,-.5 263.462,-.5"/>
<text text-anchor="start" x="271.462" y="-19.5" font-family="Helvetica,sans-Serif" font-size="10.00" fill="#000000">LFSTK_findClass::LFSTK</text>
<text text-anchor="middle" x="328.692" y="-7.5" font-family="Helvetica,sans-Serif" font-size="10.00" fill="#000000">_getSort</text>
</a>
</g>
</g>
<!-- Node2&#45;&gt;Node3 -->
<g id="edge2" class="edge">
<title>Node2&#45;&gt;Node3</title>
<path fill="none" stroke="#191970" d="M227.5138,-16.5C235.3554,-16.5 244.1451,-16.5 253.1824,-16.5"/>
<polygon fill="#191970" stroke="#191970" points="253.4537,-20.0001 263.4536,-16.5 253.4536,-13.0001 253.4537,-20.0001"/>
</g>
</g>
</svg>
