<?xml version="1.0" encoding="UTF-8" standalone="no"?>
<!DOCTYPE svg PUBLIC "-//W3C//DTD SVG 1.1//EN"
 "http://www.w3.org/Graphics/SVG/1.1/DTD/svg11.dtd">
<!-- Generated by graphviz version 2.40.1 (20161225.0304)
 -->
<!-- Title: LFSTK_lineEditClass::setOffsetcurs Pages: 1 -->
<svg width="287pt" height="92pt"
 viewBox="0.00 0.00 286.58 92.00" xmlns="http://www.w3.org/2000/svg" xmlns:xlink="http://www.w3.org/1999/xlink">
<g id="graph0" class="graph" transform="scale(1 1) rotate(0) translate(4 88)">
<title>LFSTK_lineEditClass::setOffsetcurs</title>
<!-- Node1 -->
<g id="node1" class="node">
<title>Node1</title>
<g id="a_node1"><a xlink:title=" ">
<polygon fill="#bfbfbf" stroke="#000000" points="0,-25.5 0,-57.5 110.453,-57.5 110.453,-25.5 0,-25.5"/>
<text text-anchor="start" x="8" y="-44.5" font-family="Helvetica,sans-Serif" font-size="10.00" fill="#000000">LFSTK_lineEditClass</text>
<text text-anchor="middle" x="55.2265" y="-32.5" font-family="Helvetica,sans-Serif" font-size="10.00" fill="#000000">::setOffsetcurs</text>
</a>
</g>
</g>
<!-- Node2 -->
<g id="node2" class="node">
<title>Node2</title>
<g id="a_node2"><a xlink:href="class_l_f_s_t_k__gadget_class_ac233a3c3e0900ff66adb74102a56f09f.xhtml#ac233a3c3e0900ff66adb74102a56f09f" target="_top" xlink:title=" ">
<polygon fill="none" stroke="#000000" points="146.453,-51.5 146.453,-83.5 278.582,-83.5 278.582,-51.5 146.453,-51.5"/>
<text text-anchor="start" x="154.453" y="-70.5" font-family="Helvetica,sans-Serif" font-size="10.00" fill="#000000">LFSTK_gadgetClass::</text>
<text text-anchor="middle" x="212.5175" y="-58.5" font-family="Helvetica,sans-Serif" font-size="10.00" fill="#000000">LFSTK_getTextRealWidth</text>
</a>
</g>
</g>
<!-- Node1&#45;&gt;Node2 -->
<g id="edge1" class="edge">
<title>Node1&#45;&gt;Node2</title>
<path fill="none" stroke="#191970" d="M110.6814,-50.6666C118.9457,-52.0327 127.5852,-53.4608 136.1878,-54.8828"/>
<polygon fill="#191970" stroke="#191970" points="135.8077,-58.3674 146.2447,-56.5452 136.9494,-51.4611 135.8077,-58.3674"/>
</g>
<!-- Node3 -->
<g id="node3" class="node">
<title>Node3</title>
<g id="a_node3"><a xlink:href="class_l_f_s_t_k__gadget_class_a23bc2dc7b8200df4dc74f1f68460eca2.xhtml#a23bc2dc7b8200df4dc74f1f68460eca2" target="_top" xlink:title=" ">
<polygon fill="none" stroke="#000000" points="155.616,-.5 155.616,-32.5 269.419,-32.5 269.419,-.5 155.616,-.5"/>
<text text-anchor="start" x="163.616" y="-19.5" font-family="Helvetica,sans-Serif" font-size="10.00" fill="#000000">LFSTK_gadgetClass::</text>
<text text-anchor="middle" x="212.5175" y="-7.5" font-family="Helvetica,sans-Serif" font-size="10.00" fill="#000000">LFSTK_getTextWidth</text>
</a>
</g>
</g>
<!-- Node1&#45;&gt;Node3 -->
<g id="edge2" class="edge">
<title>Node1&#45;&gt;Node3</title>
<path fill="none" stroke="#191970" d="M110.6814,-32.6859C121.9004,-30.9028 133.8109,-29.0097 145.3816,-27.1707"/>
<polygon fill="#191970" stroke="#191970" points="146.1098,-30.5989 155.4364,-25.5725 145.011,-23.6857 146.1098,-30.5989"/>
</g>
</g>
</svg>
