<?xml version="1.0" encoding="UTF-8" standalone="no"?>
<!DOCTYPE svg PUBLIC "-//W3C//DTD SVG 1.1//EN"
 "http://www.w3.org/Graphics/SVG/1.1/DTD/svg11.dtd">
<!-- Generated by graphviz version 2.40.1 (20161225.0304)
 -->
<!-- Title: LFSTK_scrollBarClass::LFSTK_scrollByLine Pages: 1 -->
<svg width="447pt" height="194pt"
 viewBox="0.00 0.00 447.48 194.00" xmlns="http://www.w3.org/2000/svg" xmlns:xlink="http://www.w3.org/1999/xlink">
<g id="graph0" class="graph" transform="scale(1 1) rotate(0) translate(4 190)">
<title>LFSTK_scrollBarClass::LFSTK_scrollByLine</title>
<!-- Node1 -->
<g id="node1" class="node">
<title>Node1</title>
<g id="a_node1"><a xlink:title=" ">
<polygon fill="#bfbfbf" stroke="#000000" points="322.922,-76.5 322.922,-108.5 439.476,-108.5 439.476,-76.5 322.922,-76.5"/>
<text text-anchor="start" x="330.922" y="-95.5" font-family="Helvetica,sans-Serif" font-size="10.00" fill="#000000">LFSTK_scrollBarClass</text>
<text text-anchor="middle" x="381.199" y="-83.5" font-family="Helvetica,sans-Serif" font-size="10.00" fill="#000000">::LFSTK_scrollByLine</text>
</a>
</g>
</g>
<!-- Node2 -->
<g id="node2" class="node">
<title>Node2</title>
<g id="a_node2"><a xlink:href="class_l_f_s_t_k__list_gadget_class_afd92ab070d0d68863589669cb73404cf.xhtml#afd92ab070d0d68863589669cb73404cf" target="_top" xlink:title=" ">
<polygon fill="none" stroke="#000000" points="164.24,-153.5 164.24,-185.5 286.922,-185.5 286.922,-153.5 164.24,-153.5"/>
<text text-anchor="start" x="172.24" y="-172.5" font-family="Helvetica,sans-Serif" font-size="10.00" fill="#000000">LFSTK_listGadgetClass</text>
<text text-anchor="middle" x="225.581" y="-160.5" font-family="Helvetica,sans-Serif" font-size="10.00" fill="#000000">::keyRelease</text>
</a>
</g>
</g>
<!-- Node1&#45;&gt;Node2 -->
<g id="edge1" class="edge">
<title>Node1&#45;&gt;Node2</title>
<path fill="none" stroke="#191970" d="M345.3035,-113.5932C327.9225,-123.4711 306.6003,-135.1027 286.922,-144.5 280.488,-147.5725 273.5725,-150.6232 266.7862,-153.4823"/>
<polygon fill="#191970" stroke="#191970" points="347.0668,-116.6168 354.0038,-108.6087 343.587,-110.543 347.0668,-116.6168"/>
</g>
<!-- Node3 -->
<g id="node3" class="node">
<title>Node3</title>
<g id="a_node3"><a xlink:href="class_l_f_s_t_k__list_gadget_class_ad54eba5a5dc2bac69eeb6a1e40b563d7.xhtml#ad54eba5a5dc2bac69eeb6a1e40b563d7" target="_top" xlink:title=" ">
<polygon fill="none" stroke="#000000" points="164.24,-102.5 164.24,-134.5 286.922,-134.5 286.922,-102.5 164.24,-102.5"/>
<text text-anchor="start" x="172.24" y="-121.5" font-family="Helvetica,sans-Serif" font-size="10.00" fill="#000000">LFSTK_listGadgetClass</text>
<text text-anchor="middle" x="225.581" y="-109.5" font-family="Helvetica,sans-Serif" font-size="10.00" fill="#000000">::mouseUp</text>
</a>
</g>
</g>
<!-- Node1&#45;&gt;Node3 -->
<g id="edge2" class="edge">
<title>Node1&#45;&gt;Node3</title>
<path fill="none" stroke="#191970" d="M312.8643,-103.9171C304.3099,-105.3463 295.6004,-106.8014 287.1578,-108.212"/>
<polygon fill="#191970" stroke="#191970" points="313.5234,-107.3556 322.8099,-102.2554 312.3698,-100.4513 313.5234,-107.3556"/>
</g>
<!-- Node4 -->
<g id="node4" class="node">
<title>Node4</title>
<g id="a_node4"><a xlink:href="class_l_f_s_t_k__list_gadget_class_ad9b006620b5e9712da9b0ee3ead405de.xhtml#ad9b006620b5e9712da9b0ee3ead405de" target="_top" xlink:title=" ">
<polygon fill="none" stroke="#000000" points="164.24,-51.5 164.24,-83.5 286.922,-83.5 286.922,-51.5 164.24,-51.5"/>
<text text-anchor="start" x="172.24" y="-70.5" font-family="Helvetica,sans-Serif" font-size="10.00" fill="#000000">LFSTK_listGadgetClass</text>
<text text-anchor="middle" x="225.581" y="-58.5" font-family="Helvetica,sans-Serif" font-size="10.00" fill="#000000">::select</text>
</a>
</g>
</g>
<!-- Node1&#45;&gt;Node4 -->
<g id="edge3" class="edge">
<title>Node1&#45;&gt;Node4</title>
<path fill="none" stroke="#191970" d="M312.8643,-81.522C304.3099,-80.1478 295.6004,-78.7486 287.1578,-77.3923"/>
<polygon fill="#191970" stroke="#191970" points="312.3813,-84.9892 322.8099,-83.1198 313.4916,-78.0779 312.3813,-84.9892"/>
</g>
<!-- Node6 -->
<g id="node6" class="node">
<title>Node6</title>
<g id="a_node6"><a xlink:href="class_l_f_s_t_k__list_gadget_class_acf5ccc1d522f0d8a3b23e392b7ce30a5.xhtml#acf5ccc1d522f0d8a3b23e392b7ce30a5" target="_top" xlink:title=" ">
<polygon fill="none" stroke="#000000" points="164.24,-.5 164.24,-32.5 286.922,-32.5 286.922,-.5 164.24,-.5"/>
<text text-anchor="start" x="172.24" y="-19.5" font-family="Helvetica,sans-Serif" font-size="10.00" fill="#000000">LFSTK_listGadgetClass</text>
<text text-anchor="middle" x="225.581" y="-7.5" font-family="Helvetica,sans-Serif" font-size="10.00" fill="#000000">::selectKey</text>
</a>
</g>
</g>
<!-- Node1&#45;&gt;Node6 -->
<g id="edge5" class="edge">
<title>Node1&#45;&gt;Node6</title>
<path fill="none" stroke="#191970" d="M343.1521,-71.3563C326.1247,-62.1452 305.6945,-51.4358 286.922,-42.5 279.8202,-39.1195 272.1633,-35.7004 264.7471,-32.5018"/>
<polygon fill="#191970" stroke="#191970" points="341.7733,-74.5907 352.2296,-76.2986 345.1206,-68.4429 341.7733,-74.5907"/>
</g>
<!-- Node5 -->
<g id="node5" class="node">
<title>Node5</title>
<g id="a_node5"><a xlink:href="class_l_f_s_t_k__list_gadget_class_ae3518016f28ec3cd261ad927c5691826.xhtml#ae3518016f28ec3cd261ad927c5691826" target="_top" xlink:title=" ">
<polygon fill="none" stroke="#000000" points="0,-25.5 0,-57.5 128.24,-57.5 128.24,-25.5 0,-25.5"/>
<text text-anchor="start" x="8" y="-44.5" font-family="Helvetica,sans-Serif" font-size="10.00" fill="#000000">LFSTK_listGadgetClass</text>
<text text-anchor="middle" x="64.12" y="-32.5" font-family="Helvetica,sans-Serif" font-size="10.00" fill="#000000">::LFSTK_listGadgetClass</text>
</a>
</g>
</g>
<!-- Node4&#45;&gt;Node5 -->
<g id="edge4" class="edge">
<title>Node4&#45;&gt;Node5</title>
<path fill="none" stroke="#191970" d="M154.1168,-55.9922C145.5555,-54.6135 136.8532,-53.2122 128.4021,-51.8513"/>
<polygon fill="#191970" stroke="#191970" points="153.6496,-59.4619 164.0789,-57.5963 154.7626,-52.551 153.6496,-59.4619"/>
</g>
<!-- Node6&#45;&gt;Node5 -->
<g id="edge6" class="edge">
<title>Node6&#45;&gt;Node5</title>
<path fill="none" stroke="#191970" d="M154.1168,-27.5652C145.5555,-28.8908 136.8532,-30.2383 128.4021,-31.5468"/>
<polygon fill="#191970" stroke="#191970" points="154.7323,-31.0117 164.0789,-26.0227 153.6611,-24.0942 154.7323,-31.0117"/>
</g>
</g>
</svg>
