<?xml version="1.0" encoding="UTF-8" standalone="no"?>
<!DOCTYPE svg PUBLIC "-//W3C//DTD SVG 1.1//EN"
 "http://www.w3.org/Graphics/SVG/1.1/DTD/svg11.dtd">
<!-- Generated by graphviz version 2.40.1 (20161225.0304)
 -->
<!-- Title: LFSTK_gadgetClass::LFSTK_setLabel Pages: 1 -->
<svg width="931pt" height="213pt"
 viewBox="0.00 0.00 931.31 213.00" xmlns="http://www.w3.org/2000/svg" xmlns:xlink="http://www.w3.org/1999/xlink">
<g id="graph0" class="graph" transform="scale(1 1) rotate(0) translate(4 209)">
<title>LFSTK_gadgetClass::LFSTK_setLabel</title>
<!-- Node1 -->
<g id="node1" class="node">
<title>Node1</title>
<g id="a_node1"><a xlink:title=" ">
<polygon fill="#bfbfbf" stroke="#000000" points="809.509,-19.5 809.509,-51.5 923.312,-51.5 923.312,-19.5 809.509,-19.5"/>
<text text-anchor="start" x="817.509" y="-38.5" font-family="Helvetica,sans-Serif" font-size="10.00" fill="#000000">LFSTK_gadgetClass::</text>
<text text-anchor="middle" x="866.4105" y="-26.5" font-family="Helvetica,sans-Serif" font-size="10.00" fill="#000000">LFSTK_setLabel</text>
</a>
</g>
</g>
<!-- Node2 -->
<g id="node2" class="node">
<title>Node2</title>
<g id="a_node2"><a xlink:href="class_l_f_s_t_k__list_gadget_class_abc8e7de85afdd0ddd7639668e579cd4e.xhtml#abc8e7de85afdd0ddd7639668e579cd4e" target="_top" xlink:title=" ">
<polygon fill="none" stroke="#000000" points="650.827,-95.5 650.827,-127.5 773.509,-127.5 773.509,-95.5 650.827,-95.5"/>
<text text-anchor="start" x="658.827" y="-114.5" font-family="Helvetica,sans-Serif" font-size="10.00" fill="#000000">LFSTK_listGadgetClass</text>
<text text-anchor="middle" x="712.168" y="-102.5" font-family="Helvetica,sans-Serif" font-size="10.00" fill="#000000">::LFSTK_setList</text>
</a>
</g>
</g>
<!-- Node1&#45;&gt;Node2 -->
<g id="edge1" class="edge">
<title>Node1&#45;&gt;Node2</title>
<path fill="none" stroke="#191970" d="M824.4356,-56.1823C799.381,-68.5275 768.031,-83.9746 744.8317,-95.4056"/>
<polygon fill="#191970" stroke="#191970" points="826.2764,-59.1772 833.6996,-51.6176 823.1824,-52.898 826.2764,-59.1772"/>
</g>
<!-- Node11 -->
<g id="node11" class="node">
<title>Node11</title>
<g id="a_node11"><a xlink:href="class_l_f_s_t_k__list_gadget_class_a14695831a2f9362b99cdda134f551d83.xhtml#a14695831a2f9362b99cdda134f551d83" target="_top" xlink:title=" ">
<polygon fill="none" stroke="#000000" points="650.827,-19.5 650.827,-51.5 773.509,-51.5 773.509,-19.5 650.827,-19.5"/>
<text text-anchor="start" x="658.827" y="-38.5" font-family="Helvetica,sans-Serif" font-size="10.00" fill="#000000">LFSTK_listGadgetClass</text>
<text text-anchor="middle" x="712.168" y="-26.5" font-family="Helvetica,sans-Serif" font-size="10.00" fill="#000000">::scrollCB</text>
</a>
</g>
</g>
<!-- Node1&#45;&gt;Node11 -->
<g id="edge11" class="edge">
<title>Node1&#45;&gt;Node11</title>
<path fill="none" stroke="#191970" d="M799.1562,-35.5C790.6569,-35.5 781.995,-35.5 773.5927,-35.5"/>
<polygon fill="#191970" stroke="#191970" points="799.4145,-39.0001 809.4145,-35.5 799.4145,-32.0001 799.4145,-39.0001"/>
</g>
<!-- Node13 -->
<g id="node13" class="node">
<title>Node13</title>
<g id="a_node13"><a xlink:href="class_l_f_s_t_k__file_dialog_class_ac7703591352d5105def9c5293fbeed62.xhtml#ac7703591352d5105def9c5293fbeed62" target="_top" xlink:title=" ">
<polygon fill="none" stroke="#000000" points="327.077,-.5 327.077,-32.5 445.858,-32.5 445.858,-.5 327.077,-.5"/>
<text text-anchor="start" x="335.077" y="-19.5" font-family="Helvetica,sans-Serif" font-size="10.00" fill="#000000">LFSTK_fileDialogClass</text>
<text text-anchor="middle" x="386.4675" y="-7.5" font-family="Helvetica,sans-Serif" font-size="10.00" fill="#000000">::setPreviewData</text>
</a>
</g>
</g>
<!-- Node1&#45;&gt;Node13 -->
<g id="edge13" class="edge">
<title>Node1&#45;&gt;Node13</title>
<path fill="none" stroke="#191970" d="M806.4482,-16.9024C795.5857,-14.2404 784.2849,-11.9246 773.509,-10.5 658.4176,4.715 522.4109,-3.3364 446.1245,-10.1821"/>
<polygon fill="#191970" stroke="#191970" points="805.7165,-20.328 816.2731,-19.4287 807.4598,-13.5486 805.7165,-20.328"/>
</g>
<!-- Node3 -->
<g id="node3" class="node">
<title>Node3</title>
<g id="a_node3"><a xlink:href="class_l_f_s_t_k__font_dialog_class_af866eb2b1ba8178c9cf3e751716fcc8e.xhtml#af866eb2b1ba8178c9cf3e751716fcc8e" target="_top" xlink:title=" ">
<polygon fill="none" stroke="#000000" points="489.3665,-172.5 489.3665,-204.5 612.0475,-204.5 612.0475,-172.5 489.3665,-172.5"/>
<text text-anchor="start" x="497.3665" y="-191.5" font-family="Helvetica,sans-Serif" font-size="10.00" fill="#000000">LFSTK_fontDialogClass</text>
<text text-anchor="middle" x="550.707" y="-179.5" font-family="Helvetica,sans-Serif" font-size="10.00" fill="#000000">::buildDialog</text>
</a>
</g>
</g>
<!-- Node2&#45;&gt;Node3 -->
<g id="edge2" class="edge">
<title>Node2&#45;&gt;Node3</title>
<path fill="none" stroke="#191970" d="M675.0957,-132.642C657.1476,-142.5308 635.1334,-154.1575 614.827,-163.5 608.2058,-166.5463 601.0994,-169.5602 594.115,-172.3843"/>
<polygon fill="#191970" stroke="#191970" points="677.0385,-135.5666 684.0802,-127.6505 673.6389,-129.4475 677.0385,-135.5666"/>
</g>
<!-- Node5 -->
<g id="node5" class="node">
<title>Node5</title>
<g id="a_node5"><a xlink:href="class_l_f_s_t_k__file_dialog_class_a0a6b4f1db71031bf35a7636b736e8698.xhtml#a0a6b4f1db71031bf35a7636b736e8698" target="_top" xlink:title=" ">
<polygon fill="none" stroke="#000000" points="491.3165,-121.5 491.3165,-153.5 610.0975,-153.5 610.0975,-121.5 491.3165,-121.5"/>
<text text-anchor="start" x="499.3165" y="-140.5" font-family="Helvetica,sans-Serif" font-size="10.00" fill="#000000">LFSTK_fileDialogClass</text>
<text text-anchor="middle" x="550.707" y="-128.5" font-family="Helvetica,sans-Serif" font-size="10.00" fill="#000000">::getFileList</text>
</a>
</g>
</g>
<!-- Node2&#45;&gt;Node5 -->
<g id="edge4" class="edge">
<title>Node2&#45;&gt;Node5</title>
<path fill="none" stroke="#191970" d="M640.593,-123.0257C630.4305,-124.6622 620.0719,-126.3302 610.1726,-127.9243"/>
<polygon fill="#191970" stroke="#191970" points="641.3496,-126.449 650.6659,-121.4037 640.2366,-119.5381 641.3496,-126.449"/>
</g>
<!-- Node10 -->
<g id="node10" class="node">
<title>Node10</title>
<g id="a_node10"><a xlink:href="class_l_f_s_t_k__list_gadget_class_addcdb5ba330fd8dd36beb94ea2081dd3.xhtml#addcdb5ba330fd8dd36beb94ea2081dd3" target="_top" xlink:title=" ">
<polygon fill="none" stroke="#000000" points="487.4275,-70.5 487.4275,-102.5 613.9865,-102.5 613.9865,-70.5 487.4275,-70.5"/>
<text text-anchor="start" x="495.4275" y="-89.5" font-family="Helvetica,sans-Serif" font-size="10.00" fill="#000000">LFSTK_listGadgetClass</text>
<text text-anchor="middle" x="550.707" y="-77.5" font-family="Helvetica,sans-Serif" font-size="10.00" fill="#000000">::LFSTK_setListFromFile</text>
</a>
</g>
</g>
<!-- Node2&#45;&gt;Node10 -->
<g id="edge10" class="edge">
<title>Node2&#45;&gt;Node10</title>
<path fill="none" stroke="#191970" d="M640.7592,-100.4433C631.9073,-99.0727 622.9037,-97.6787 614.1821,-96.3282"/>
<polygon fill="#191970" stroke="#191970" points="640.2481,-103.9058 650.6659,-101.9773 641.3193,-96.9883 640.2481,-103.9058"/>
</g>
<!-- Node4 -->
<g id="node4" class="node">
<title>Node4</title>
<g id="a_node4"><a xlink:href="class_l_f_s_t_k__font_dialog_class_ab7b6a4bca99713646ab6ac77dc34827c.xhtml#ab7b6a4bca99713646ab6ac77dc34827c" target="_top" xlink:title=" ">
<polygon fill="none" stroke="#000000" points="322.348,-172.5 322.348,-204.5 450.587,-204.5 450.587,-172.5 322.348,-172.5"/>
<text text-anchor="start" x="330.348" y="-191.5" font-family="Helvetica,sans-Serif" font-size="10.00" fill="#000000">LFSTK_fontDialogClass</text>
<text text-anchor="middle" x="386.4675" y="-179.5" font-family="Helvetica,sans-Serif" font-size="10.00" fill="#000000">::LFSTK_fontDialogClass</text>
</a>
</g>
</g>
<!-- Node3&#45;&gt;Node4 -->
<g id="edge3" class="edge">
<title>Node3&#45;&gt;Node4</title>
<path fill="none" stroke="#191970" d="M478.9527,-188.5C469.5278,-188.5 459.9179,-188.5 450.6301,-188.5"/>
<polygon fill="#191970" stroke="#191970" points="479.083,-192.0001 489.083,-188.5 479.083,-185.0001 479.083,-192.0001"/>
</g>
<!-- Node6 -->
<g id="node6" class="node">
<title>Node6</title>
<g id="a_node6"><a xlink:href="class_l_f_s_t_k__file_dialog_class_a553ce8e885b0d60cbf515b7b3d1e8b65.xhtml#a553ce8e885b0d60cbf515b7b3d1e8b65" target="_top" xlink:title=" ">
<polygon fill="none" stroke="#000000" points="0,-73.5 0,-105.5 124.339,-105.5 124.339,-73.5 0,-73.5"/>
<text text-anchor="start" x="8" y="-92.5" font-family="Helvetica,sans-Serif" font-size="10.00" fill="#000000">LFSTK_fileDialogClass</text>
<text text-anchor="middle" x="62.1695" y="-80.5" font-family="Helvetica,sans-Serif" font-size="10.00" fill="#000000">::LFSTK_fileDialogClass</text>
</a>
</g>
</g>
<!-- Node5&#45;&gt;Node6 -->
<g id="edge5" class="edge">
<title>Node5&#45;&gt;Node6</title>
<path fill="none" stroke="#191970" d="M480.7877,-139.0891C402.2528,-139.7208 271.2595,-137.3046 160.339,-118.5 142.9928,-115.5593 124.3814,-110.556 108.0776,-105.5253"/>
<polygon fill="#191970" stroke="#191970" points="481.0775,-142.5865 491.0421,-138.9868 481.0076,-135.5869 481.0775,-142.5865"/>
</g>
<!-- Node7 -->
<g id="node7" class="node">
<title>Node7</title>
<g id="a_node7"><a xlink:href="class_l_f_s_t_k__file_dialog_class_aa8804989d381def9acb2c99d47d6dc3d.xhtml#aa8804989d381def9acb2c99d47d6dc3d" target="_top" xlink:title=" ">
<polygon fill="none" stroke="#000000" points="325.967,-76.5 325.967,-108.5 446.968,-108.5 446.968,-76.5 325.967,-76.5"/>
<text text-anchor="start" x="333.967" y="-95.5" font-family="Helvetica,sans-Serif" font-size="10.00" fill="#000000">LFSTK_fileDialogClass</text>
<text text-anchor="middle" x="386.4675" y="-83.5" font-family="Helvetica,sans-Serif" font-size="10.00" fill="#000000">::LFSTK_setWorkingDir</text>
</a>
</g>
</g>
<!-- Node5&#45;&gt;Node7 -->
<g id="edge6" class="edge">
<title>Node5&#45;&gt;Node7</title>
<path fill="none" stroke="#191970" d="M482.0734,-118.6951C469.7097,-115.3075 456.9267,-111.8051 444.8871,-108.5064"/>
<polygon fill="#191970" stroke="#191970" points="481.3072,-122.1141 491.8767,-121.3811 483.157,-115.3629 481.3072,-122.1141"/>
</g>
<!-- Node8 -->
<g id="node8" class="node">
<title>Node8</title>
<g id="a_node8"><a xlink:href="class_l_f_s_t_k__file_dialog_class_aacf1d4b61cbb5b40d06f591ea96f9ea7.xhtml#aacf1d4b61cbb5b40d06f591ea96f9ea7" target="_top" xlink:title=" ">
<polygon fill="none" stroke="#000000" points="160.339,-76.5 160.339,-108.5 286.348,-108.5 286.348,-76.5 160.339,-76.5"/>
<text text-anchor="start" x="168.339" y="-95.5" font-family="Helvetica,sans-Serif" font-size="10.00" fill="#000000">LFSTK_fileDialogClass</text>
<text text-anchor="middle" x="223.3435" y="-83.5" font-family="Helvetica,sans-Serif" font-size="10.00" fill="#000000">::LFSTK_showFileDialog</text>
</a>
</g>
</g>
<!-- Node7&#45;&gt;Node8 -->
<g id="edge7" class="edge">
<title>Node7&#45;&gt;Node8</title>
<path fill="none" stroke="#191970" d="M315.7256,-92.5C306.0345,-92.5 296.1359,-92.5 286.5902,-92.5"/>
<polygon fill="#191970" stroke="#191970" points="315.7262,-96.0001 325.7261,-92.5 315.7261,-89.0001 315.7262,-96.0001"/>
</g>
<!-- Node9 -->
<g id="node9" class="node">
<title>Node9</title>
<g id="a_node9"><a xlink:href="class_l_f_s_t_k__file_dialog_class_a789cade9437906181e31a243c85d52e5.xhtml#a789cade9437906181e31a243c85d52e5" target="_top" xlink:title=" ">
<polygon fill="none" stroke="#000000" points="163.953,-25.5 163.953,-57.5 282.734,-57.5 282.734,-25.5 163.953,-25.5"/>
<text text-anchor="start" x="171.953" y="-44.5" font-family="Helvetica,sans-Serif" font-size="10.00" fill="#000000">LFSTK_fileDialogClass</text>
<text text-anchor="middle" x="223.3435" y="-32.5" font-family="Helvetica,sans-Serif" font-size="10.00" fill="#000000">::select</text>
</a>
</g>
</g>
<!-- Node7&#45;&gt;Node9 -->
<g id="edge8" class="edge">
<title>Node7&#45;&gt;Node9</title>
<path fill="none" stroke="#191970" d="M325.2049,-73.3465C308.5408,-68.1366 290.6694,-62.5492 274.6212,-57.5317"/>
<polygon fill="#191970" stroke="#191970" points="324.2652,-76.7197 334.854,-76.3633 326.3541,-70.0387 324.2652,-76.7197"/>
</g>
<!-- Node9&#45;&gt;Node6 -->
<g id="edge9" class="edge">
<title>Node9&#45;&gt;Node6</title>
<path fill="none" stroke="#191970" d="M159.442,-60.5308C145.1046,-64.8007 130.0303,-69.29 116.1436,-73.4257"/>
<polygon fill="#191970" stroke="#191970" points="160.6415,-63.8256 169.2265,-57.6168 158.6435,-57.1168 160.6415,-63.8256"/>
</g>
<!-- Node12 -->
<g id="node12" class="node">
<title>Node12</title>
<g id="a_node12"><a xlink:href="class_l_f_s_t_k__list_gadget_class_ae3518016f28ec3cd261ad927c5691826.xhtml#ae3518016f28ec3cd261ad927c5691826" target="_top" xlink:title=" ">
<polygon fill="none" stroke="#000000" points="486.587,-19.5 486.587,-51.5 614.827,-51.5 614.827,-19.5 486.587,-19.5"/>
<text text-anchor="start" x="494.587" y="-38.5" font-family="Helvetica,sans-Serif" font-size="10.00" fill="#000000">LFSTK_listGadgetClass</text>
<text text-anchor="middle" x="550.707" y="-26.5" font-family="Helvetica,sans-Serif" font-size="10.00" fill="#000000">::LFSTK_listGadgetClass</text>
</a>
</g>
</g>
<!-- Node11&#45;&gt;Node12 -->
<g id="edge12" class="edge">
<title>Node11&#45;&gt;Node12</title>
<path fill="none" stroke="#191970" d="M640.4246,-35.5C631.9533,-35.5 623.3484,-35.5 614.9891,-35.5"/>
<polygon fill="#191970" stroke="#191970" points="640.666,-39.0001 650.6659,-35.5 640.6659,-32.0001 640.666,-39.0001"/>
</g>
<!-- Node13&#45;&gt;Node9 -->
<g id="edge14" class="edge">
<title>Node13&#45;&gt;Node9</title>
<path fill="none" stroke="#191970" d="M316.4816,-27.2259C305.2887,-28.9413 293.799,-30.7022 282.8787,-32.3758"/>
<polygon fill="#191970" stroke="#191970" points="317.2981,-30.6417 326.6524,-25.6671 316.2376,-23.7225 317.2981,-30.6417"/>
</g>
</g>
</svg>
