<?xml version="1.0" encoding="UTF-8" standalone="no"?>
<!DOCTYPE svg PUBLIC "-//W3C//DTD SVG 1.1//EN"
 "http://www.w3.org/Graphics/SVG/1.1/DTD/svg11.dtd">
<!-- Generated by graphviz version 2.40.1 (20161225.0304)
 -->
<!-- Title: LFSTK_lib::LFSTK_createSurfaceFromPath Pages: 1 -->
<svg width="539pt" height="53pt"
 viewBox="0.00 0.00 539.18 53.00" xmlns="http://www.w3.org/2000/svg" xmlns:xlink="http://www.w3.org/1999/xlink">
<g id="graph0" class="graph" transform="scale(1 1) rotate(0) translate(4 49)">
<title>LFSTK_lib::LFSTK_createSurfaceFromPath</title>
<!-- Node1 -->
<g id="node1" class="node">
<title>Node1</title>
<g id="a_node1"><a xlink:title=" ">
<polygon fill="#bfbfbf" stroke="#000000" points="0,-6.5 0,-38.5 167.142,-38.5 167.142,-6.5 0,-6.5"/>
<text text-anchor="start" x="8" y="-25.5" font-family="Helvetica,sans-Serif" font-size="10.00" fill="#000000">LFSTK_lib::LFSTK_createSurface</text>
<text text-anchor="middle" x="83.571" y="-13.5" font-family="Helvetica,sans-Serif" font-size="10.00" fill="#000000">FromPath</text>
</a>
</g>
</g>
<!-- Node2 -->
<g id="node2" class="node">
<title>Node2</title>
<g id="a_node2"><a xlink:href="class_l_f_s_t_k__lib_ad794f7ab3a4ca5a03adbb0472fa93788.xhtml#ad794f7ab3a4ca5a03adbb0472fa93788" target="_top" xlink:title=" ">
<polygon fill="none" stroke="#000000" points="203.142,-.5 203.142,-44.5 329.711,-44.5 329.711,-.5 203.142,-.5"/>
<text text-anchor="start" x="211.142" y="-31.5" font-family="Helvetica,sans-Serif" font-size="10.00" fill="#000000">LFSTK_lib::LFSTK_cairo</text>
<text text-anchor="start" x="211.142" y="-19.5" font-family="Helvetica,sans-Serif" font-size="10.00" fill="#000000">_image_surface_create</text>
<text text-anchor="middle" x="266.4265" y="-7.5" font-family="Helvetica,sans-Serif" font-size="10.00" fill="#000000">_from_jpeg</text>
</a>
</g>
</g>
<!-- Node1&#45;&gt;Node2 -->
<g id="edge1" class="edge">
<title>Node1&#45;&gt;Node2</title>
<path fill="none" stroke="#191970" d="M167.2393,-22.5C175.7969,-22.5 184.4458,-22.5 192.8832,-22.5"/>
<polygon fill="#191970" stroke="#191970" points="193.0498,-26.0001 203.0498,-22.5 193.0498,-19.0001 193.0498,-26.0001"/>
</g>
<!-- Node3 -->
<g id="node3" class="node">
<title>Node3</title>
<g id="a_node3"><a xlink:href="class_l_f_s_t_k__lib_a6beac3954823730f63c32a97949db52a.xhtml#a6beac3954823730f63c32a97949db52a" target="_top" xlink:title=" ">
<polygon fill="none" stroke="#000000" points="365.711,-6.5 365.711,-38.5 531.185,-38.5 531.185,-6.5 365.711,-6.5"/>
<text text-anchor="start" x="373.711" y="-25.5" font-family="Helvetica,sans-Serif" font-size="10.00" fill="#000000">LFSTK_lib::cairo_image</text>
<text text-anchor="middle" x="448.448" y="-13.5" font-family="Helvetica,sans-Serif" font-size="10.00" fill="#000000">_surface_create_from_jpeg_mem</text>
</a>
</g>
</g>
<!-- Node2&#45;&gt;Node3 -->
<g id="edge2" class="edge">
<title>Node2&#45;&gt;Node3</title>
<path fill="none" stroke="#191970" d="M329.8333,-22.5C338.0926,-22.5 346.6869,-22.5 355.3067,-22.5"/>
<polygon fill="#191970" stroke="#191970" points="355.4188,-26.0001 365.4188,-22.5 355.4187,-19.0001 355.4188,-26.0001"/>
</g>
</g>
</svg>
