<?xml version="1.0" encoding="UTF-8" standalone="no"?>
<!DOCTYPE svg PUBLIC "-//W3C//DTD SVG 1.1//EN"
 "http://www.w3.org/Graphics/SVG/1.1/DTD/svg11.dtd">
<!-- Generated by graphviz version 2.40.1 (20161225.0304)
 -->
<!-- Title: LFSTK_listGadgetClass::LFSTK_setList Pages: 1 -->
<svg width="1009pt" height="488pt"
 viewBox="0.00 0.00 1009.13 488.00" xmlns="http://www.w3.org/2000/svg" xmlns:xlink="http://www.w3.org/1999/xlink">
<g id="graph0" class="graph" transform="scale(1 1) rotate(0) translate(4 484)">
<title>LFSTK_listGadgetClass::LFSTK_setList</title>
<!-- Node1 -->
<g id="node1" class="node">
<title>Node1</title>
<g id="a_node1"><a xlink:title=" ">
<polygon fill="#bfbfbf" stroke="#000000" points="0,-229.5 0,-261.5 122.682,-261.5 122.682,-229.5 0,-229.5"/>
<text text-anchor="start" x="8" y="-248.5" font-family="Helvetica,sans-Serif" font-size="10.00" fill="#000000">LFSTK_listGadgetClass</text>
<text text-anchor="middle" x="61.341" y="-236.5" font-family="Helvetica,sans-Serif" font-size="10.00" fill="#000000">::LFSTK_setList</text>
</a>
</g>
</g>
<!-- Node2 -->
<g id="node2" class="node">
<title>Node2</title>
<g id="a_node2"><a xlink:href="class_l_f_s_t_k__list_gadget_class_a838a897106a03a54a986628162cff143.xhtml#a838a897106a03a54a986628162cff143" target="_top" xlink:title=" ">
<polygon fill="none" stroke="#000000" points="173.1295,-447.5 173.1295,-479.5 295.8115,-479.5 295.8115,-447.5 173.1295,-447.5"/>
<text text-anchor="start" x="181.1295" y="-466.5" font-family="Helvetica,sans-Serif" font-size="10.00" fill="#000000">LFSTK_listGadgetClass</text>
<text text-anchor="middle" x="234.4705" y="-454.5" font-family="Helvetica,sans-Serif" font-size="10.00" fill="#000000">::freeList</text>
</a>
</g>
</g>
<!-- Node1&#45;&gt;Node2 -->
<g id="edge1" class="edge">
<title>Node1&#45;&gt;Node2</title>
<path fill="none" stroke="#191970" d="M65.5898,-261.6144C75.7557,-297.2121 104.7391,-383.2887 158.682,-432.5 162.7516,-436.2126 167.3257,-439.5116 172.1582,-442.4371"/>
<polygon fill="#191970" stroke="#191970" points="170.6284,-445.5894 181.0829,-447.3082 173.982,-439.445 170.6284,-445.5894"/>
</g>
<!-- Node3 -->
<g id="node3" class="node">
<title>Node3</title>
<g id="a_node3"><a xlink:href="class_l_f_s_t_k__gadget_class_aa5b5f301fe9b0a4d7679f786da7462ba.xhtml#aa5b5f301fe9b0a4d7679f786da7462ba" target="_top" xlink:title=" ">
<polygon fill="none" stroke="#000000" points="354.867,-357.5 354.867,-389.5 468.67,-389.5 468.67,-357.5 354.867,-357.5"/>
<text text-anchor="start" x="362.867" y="-376.5" font-family="Helvetica,sans-Serif" font-size="10.00" fill="#000000">LFSTK_gadgetClass::</text>
<text text-anchor="middle" x="411.7685" y="-364.5" font-family="Helvetica,sans-Serif" font-size="10.00" fill="#000000">LFSTK_clearWindow</text>
</a>
</g>
</g>
<!-- Node1&#45;&gt;Node3 -->
<g id="edge2" class="edge">
<title>Node1&#45;&gt;Node3</title>
<path fill="none" stroke="#191970" d="M65.9278,-261.9833C76.1702,-295.2055 104.3838,-369.5853 158.682,-399.5 223.6922,-435.3163 312.4042,-412.9095 365.6905,-393.2837"/>
<polygon fill="#191970" stroke="#191970" points="367.1088,-396.4891 375.2143,-389.6662 364.6231,-389.9452 367.1088,-396.4891"/>
</g>
<!-- Node12 -->
<g id="node12" class="node">
<title>Node12</title>
<g id="a_node12"><a xlink:href="class_l_f_s_t_k__window_class_ac3b5b99b3a018cce7c631df39db76be1.xhtml#ac3b5b99b3a018cce7c631df39db76be1" target="_top" xlink:title=" ">
<polygon fill="none" stroke="#000000" points="176.189,-357.5 176.189,-389.5 292.752,-389.5 292.752,-357.5 176.189,-357.5"/>
<text text-anchor="start" x="184.189" y="-376.5" font-family="Helvetica,sans-Serif" font-size="10.00" fill="#000000">LFSTK_windowClass::</text>
<text text-anchor="middle" x="234.4705" y="-364.5" font-family="Helvetica,sans-Serif" font-size="10.00" fill="#000000">LFSTK_clearWindow</text>
</a>
</g>
</g>
<!-- Node1&#45;&gt;Node12 -->
<g id="edge12" class="edge">
<title>Node1&#45;&gt;Node12</title>
<path fill="none" stroke="#191970" d="M72.65,-261.8169C89.0977,-284.3892 121.7197,-325.0096 158.682,-348.5 161.2874,-350.1558 164.0135,-351.7128 166.8194,-353.1756"/>
<polygon fill="#191970" stroke="#191970" points="165.4674,-356.4081 176.0025,-357.5325 168.468,-350.0838 165.4674,-356.4081"/>
</g>
<!-- Node13 -->
<g id="node13" class="node">
<title>Node13</title>
<g id="a_node13"><a xlink:href="class_l_f_s_t_k__gadget_class_a00d9d75e1766de5e88ab9fc06a9fb8ae.xhtml#a00d9d75e1766de5e88ab9fc06a9fb8ae" target="_top" xlink:title=" ">
<polygon fill="none" stroke="#000000" points="177.569,-255.5 177.569,-287.5 291.372,-287.5 291.372,-255.5 177.569,-255.5"/>
<text text-anchor="start" x="185.569" y="-274.5" font-family="Helvetica,sans-Serif" font-size="10.00" fill="#000000">LFSTK_gadgetClass::</text>
<text text-anchor="middle" x="234.4705" y="-262.5" font-family="Helvetica,sans-Serif" font-size="10.00" fill="#000000">LFSTK_setActive</text>
</a>
</g>
</g>
<!-- Node1&#45;&gt;Node13 -->
<g id="edge14" class="edge">
<title>Node1&#45;&gt;Node13</title>
<path fill="none" stroke="#191970" d="M122.8675,-254.7398C137.3187,-256.9101 152.7886,-259.2333 167.4667,-261.4376"/>
<polygon fill="#191970" stroke="#191970" points="167.0708,-264.9173 177.4798,-262.9413 168.1105,-257.9949 167.0708,-264.9173"/>
</g>
<!-- Node14 -->
<g id="node14" class="node">
<title>Node14</title>
<g id="a_node14"><a xlink:href="class_l_f_s_t_k__gadget_class_a5cef46cb93c76a87220f82242fc1ffc3.xhtml#a5cef46cb93c76a87220f82242fc1ffc3" target="_top" xlink:title=" ">
<polygon fill="none" stroke="#000000" points="165.626,-204.5 165.626,-236.5 303.315,-236.5 303.315,-204.5 165.626,-204.5"/>
<text text-anchor="start" x="173.626" y="-223.5" font-family="Helvetica,sans-Serif" font-size="10.00" fill="#000000">LFSTK_gadgetClass::</text>
<text text-anchor="middle" x="234.4705" y="-211.5" font-family="Helvetica,sans-Serif" font-size="10.00" fill="#000000">LFSTK_setImageFromPath</text>
</a>
</g>
</g>
<!-- Node1&#45;&gt;Node14 -->
<g id="edge15" class="edge">
<title>Node1&#45;&gt;Node14</title>
<path fill="none" stroke="#191970" d="M122.8675,-236.6155C133.4341,-235.0897 144.5453,-233.4853 155.4934,-231.9043"/>
<polygon fill="#191970" stroke="#191970" points="156.0845,-235.3554 165.4816,-230.462 155.084,-228.4272 156.0845,-235.3554"/>
</g>
<!-- Node18 -->
<g id="node18" class="node">
<title>Node18</title>
<g id="a_node18"><a xlink:href="class_l_f_s_t_k__gadget_class_adfe8ab99af9a2a92df3620bf0f7f55cd.xhtml#adfe8ab99af9a2a92df3620bf0f7f55cd" target="_top" xlink:title=" ">
<polygon fill="none" stroke="#000000" points="158.682,-153.5 158.682,-185.5 310.259,-185.5 310.259,-153.5 158.682,-153.5"/>
<text text-anchor="start" x="166.682" y="-172.5" font-family="Helvetica,sans-Serif" font-size="10.00" fill="#000000">LFSTK_gadgetClass::</text>
<text text-anchor="middle" x="234.4705" y="-160.5" font-family="Helvetica,sans-Serif" font-size="10.00" fill="#000000">LFSTK_setImageFromSurface</text>
</a>
</g>
</g>
<!-- Node1&#45;&gt;Node18 -->
<g id="edge19" class="edge">
<title>Node1&#45;&gt;Node18</title>
<path fill="none" stroke="#191970" d="M89.2849,-229.2927C108.4286,-218.5826 134.614,-204.6933 158.682,-194.5 163.0756,-192.6392 167.6585,-190.8267 172.3004,-189.0831"/>
<polygon fill="#191970" stroke="#191970" points="173.6652,-192.3112 181.8696,-185.6075 171.2755,-185.7317 173.6652,-192.3112"/>
</g>
<!-- Node19 -->
<g id="node19" class="node">
<title>Node19</title>
<g id="a_node19"><a xlink:href="class_l_f_s_t_k__gadget_class_a0331bef494c43154a2516cd70ee30e19.xhtml#a0331bef494c43154a2516cd70ee30e19" target="_top" xlink:title=" ">
<polygon fill="none" stroke="#000000" points="177.569,-306.5 177.569,-338.5 291.372,-338.5 291.372,-306.5 177.569,-306.5"/>
<text text-anchor="start" x="185.569" y="-325.5" font-family="Helvetica,sans-Serif" font-size="10.00" fill="#000000">LFSTK_gadgetClass::</text>
<text text-anchor="middle" x="234.4705" y="-313.5" font-family="Helvetica,sans-Serif" font-size="10.00" fill="#000000">LFSTK_setLabel</text>
</a>
</g>
</g>
<!-- Node1&#45;&gt;Node19 -->
<g id="edge21" class="edge">
<title>Node1&#45;&gt;Node19</title>
<path fill="none" stroke="#191970" d="M88.4122,-261.5868C107.6069,-272.5862 134.2006,-287.0156 158.682,-297.5 163.0681,-299.3784 167.6455,-301.2038 172.2836,-302.9565"/>
<polygon fill="#191970" stroke="#191970" points="171.253,-306.3061 181.8469,-306.4457 173.6523,-299.7301 171.253,-306.3061"/>
</g>
<!-- Node21 -->
<g id="node21" class="node">
<title>Node21</title>
<g id="a_node21"><a xlink:href="class_l_f_s_t_k__gadget_class_ae0cc7f340a2b8f6103d41ecb3e6aab2e.xhtml#ae0cc7f340a2b8f6103d41ecb3e6aab2e" target="_top" xlink:title=" ">
<polygon fill="none" stroke="#000000" points="173.4045,-102.5 173.4045,-134.5 295.5365,-134.5 295.5365,-102.5 173.4045,-102.5"/>
<text text-anchor="start" x="181.4045" y="-121.5" font-family="Helvetica,sans-Serif" font-size="10.00" fill="#000000">LFSTK_gadgetClass::</text>
<text text-anchor="middle" x="234.4705" y="-109.5" font-family="Helvetica,sans-Serif" font-size="10.00" fill="#000000">LFSTK_setLabelGravity</text>
</a>
</g>
</g>
<!-- Node1&#45;&gt;Node21 -->
<g id="edge24" class="edge">
<title>Node1&#45;&gt;Node21</title>
<path fill="none" stroke="#191970" d="M72.6868,-229.3466C89.1783,-206.9995 121.852,-166.7806 158.682,-143.5 161.1524,-141.9384 163.7302,-140.4645 166.3811,-139.0743"/>
<polygon fill="#191970" stroke="#191970" points="168.106,-142.1293 175.6248,-134.6648 165.0921,-135.8113 168.106,-142.1293"/>
</g>
<!-- Node22 -->
<g id="node22" class="node">
<title>Node22</title>
<g id="a_node22"><a xlink:href="class_l_f_s_t_k__scroll_bar_class_ab989323af6c3232877e78441d324b1fd.xhtml#ab989323af6c3232877e78441d324b1fd" target="_top" xlink:title=" ">
<polygon fill="none" stroke="#000000" points="176.1935,-51.5 176.1935,-83.5 292.7475,-83.5 292.7475,-51.5 176.1935,-51.5"/>
<text text-anchor="start" x="184.1935" y="-70.5" font-family="Helvetica,sans-Serif" font-size="10.00" fill="#000000">LFSTK_scrollBarClass</text>
<text text-anchor="middle" x="234.4705" y="-58.5" font-family="Helvetica,sans-Serif" font-size="10.00" fill="#000000">::LFSTK_setScale</text>
</a>
</g>
</g>
<!-- Node1&#45;&gt;Node22 -->
<g id="edge25" class="edge">
<title>Node1&#45;&gt;Node22</title>
<path fill="none" stroke="#191970" d="M67.4133,-229.0433C79.756,-197.8303 110.733,-129.8211 158.682,-92.5 161.306,-90.4576 164.1042,-88.5784 167.0207,-86.8498"/>
<polygon fill="#191970" stroke="#191970" points="168.8401,-89.8478 176.0698,-82.103 165.5884,-83.6488 168.8401,-89.8478"/>
</g>
<!-- Node23 -->
<g id="node23" class="node">
<title>Node23</title>
<g id="a_node23"><a xlink:href="class_l_f_s_t_k__list_gadget_class_a3021a8227c6bf0b0183e6afba5f6ad5c.xhtml#a3021a8227c6bf0b0183e6afba5f6ad5c" target="_top" xlink:title=" ">
<polygon fill="none" stroke="#000000" points="173.1295,-.5 173.1295,-32.5 295.8115,-32.5 295.8115,-.5 173.1295,-.5"/>
<text text-anchor="start" x="181.1295" y="-19.5" font-family="Helvetica,sans-Serif" font-size="10.00" fill="#000000">LFSTK_listGadgetClass</text>
<text text-anchor="middle" x="234.4705" y="-7.5" font-family="Helvetica,sans-Serif" font-size="10.00" fill="#000000">::setNavSensitive</text>
</a>
</g>
</g>
<!-- Node1&#45;&gt;Node23 -->
<g id="edge26" class="edge">
<title>Node1&#45;&gt;Node23</title>
<path fill="none" stroke="#191970" d="M64.5049,-229.377C72.851,-191.0972 99.0502,-94.0237 158.682,-41.5 160.4138,-39.9747 162.241,-38.542 164.144,-37.1964"/>
<polygon fill="#191970" stroke="#191970" points="166.2049,-40.0387 172.9114,-31.8367 162.5538,-34.0663 166.2049,-40.0387"/>
</g>
<!-- Node4 -->
<g id="node4" class="node">
<title>Node4</title>
<g id="a_node4"><a xlink:href="class_l_f_s_t_k__gadget_class_a66b92f213e5a7e75da3f707b511342ea.xhtml#a66b92f213e5a7e75da3f707b511342ea" target="_top" xlink:title=" ">
<polygon fill="none" stroke="#000000" points="539.1135,-357.5 539.1135,-389.5 652.9165,-389.5 652.9165,-357.5 539.1135,-357.5"/>
<text text-anchor="start" x="547.1135" y="-376.5" font-family="Helvetica,sans-Serif" font-size="10.00" fill="#000000">LFSTK_gadgetClass::</text>
<text text-anchor="middle" x="596.015" y="-364.5" font-family="Helvetica,sans-Serif" font-size="10.00" fill="#000000">drawGagetDetails</text>
</a>
</g>
</g>
<!-- Node3&#45;&gt;Node4 -->
<g id="edge3" class="edge">
<title>Node3&#45;&gt;Node4</title>
<path fill="none" stroke="#191970" d="M468.8035,-373.5C487.7931,-373.5 509.1214,-373.5 528.8081,-373.5"/>
<polygon fill="#191970" stroke="#191970" points="528.9324,-377.0001 538.9324,-373.5 528.9323,-370.0001 528.9324,-377.0001"/>
</g>
<!-- Node5 -->
<g id="node5" class="node">
<title>Node5</title>
<g id="a_node5"><a xlink:href="class_l_f_s_t_k__gadget_class_a37d96aab3c59cb97fca1720441e3fc8e.xhtml#a37d96aab3c59cb97fca1720441e3fc8e" target="_top" xlink:title=" ">
<polygon fill="none" stroke="#000000" points="714.752,-447.5 714.752,-479.5 828.555,-479.5 828.555,-447.5 714.752,-447.5"/>
<text text-anchor="start" x="722.752" y="-466.5" font-family="Helvetica,sans-Serif" font-size="10.00" fill="#000000">LFSTK_gadgetClass::</text>
<text text-anchor="middle" x="771.6535" y="-454.5" font-family="Helvetica,sans-Serif" font-size="10.00" fill="#000000">clearBox</text>
</a>
</g>
</g>
<!-- Node4&#45;&gt;Node5 -->
<g id="edge4" class="edge">
<title>Node4&#45;&gt;Node5</title>
<path fill="none" stroke="#191970" d="M627.4156,-389.5902C656.4232,-404.4541 699.6724,-426.6157 731.2454,-442.7942"/>
<polygon fill="#191970" stroke="#191970" points="729.7333,-445.9521 740.2291,-447.3976 732.9256,-439.7224 729.7333,-445.9521"/>
</g>
<!-- Node6 -->
<g id="node6" class="node">
<title>Node6</title>
<g id="a_node6"><a xlink:href="class_l_f_s_t_k__gadget_class_ab76db165a19af248b5e94e95492dc879.xhtml#ab76db165a19af248b5e94e95492dc879" target="_top" xlink:title=" ">
<polygon fill="none" stroke="#000000" points="875.9415,-379.5 875.9415,-411.5 989.7445,-411.5 989.7445,-379.5 875.9415,-379.5"/>
<text text-anchor="start" x="883.9415" y="-398.5" font-family="Helvetica,sans-Serif" font-size="10.00" fill="#000000">LFSTK_gadgetClass::</text>
<text text-anchor="middle" x="932.843" y="-386.5" font-family="Helvetica,sans-Serif" font-size="10.00" fill="#000000">drawBevel</text>
</a>
</g>
</g>
<!-- Node4&#45;&gt;Node6 -->
<g id="edge5" class="edge">
<title>Node4&#45;&gt;Node6</title>
<path fill="none" stroke="#191970" d="M652.9781,-388.582C672.4256,-393.0319 694.4014,-397.298 714.752,-399.5 765.0376,-404.9411 777.9852,-400.4695 828.555,-399.5 840.5141,-399.2707 853.2403,-398.8937 865.5428,-398.4604"/>
<polygon fill="#191970" stroke="#191970" points="865.8864,-401.9502 875.7511,-398.0852 865.6292,-394.955 865.8864,-401.9502"/>
</g>
<!-- Node7 -->
<g id="node7" class="node">
<title>Node7</title>
<g id="a_node7"><a xlink:href="class_l_f_s_t_k__gadget_class_af5386ffc4699273f6c53a920fc8b2f1d.xhtml#af5386ffc4699273f6c53a920fc8b2f1d" target="_top" xlink:title=" ">
<polygon fill="none" stroke="#000000" points="714.752,-306.5 714.752,-338.5 828.555,-338.5 828.555,-306.5 714.752,-306.5"/>
<text text-anchor="start" x="722.752" y="-325.5" font-family="Helvetica,sans-Serif" font-size="10.00" fill="#000000">LFSTK_gadgetClass::</text>
<text text-anchor="middle" x="771.6535" y="-313.5" font-family="Helvetica,sans-Serif" font-size="10.00" fill="#000000">drawImage</text>
</a>
</g>
</g>
<!-- Node4&#45;&gt;Node7 -->
<g id="edge6" class="edge">
<title>Node4&#45;&gt;Node7</title>
<path fill="none" stroke="#191970" d="M651.5881,-357.3633C669.1373,-352.2675 688.6816,-346.5925 706.8189,-341.326"/>
<polygon fill="#191970" stroke="#191970" points="707.8146,-344.6815 716.4419,-338.5317 705.8625,-337.9592 707.8146,-344.6815"/>
</g>
<!-- Node8 -->
<g id="node8" class="node">
<title>Node8</title>
<g id="a_node8"><a xlink:href="class_l_f_s_t_k__gadget_class_af77235e4dc604470c9d62f101238225b.xhtml#af77235e4dc604470c9d62f101238225b" target="_top" xlink:title=" ">
<polygon fill="none" stroke="#000000" points="714.752,-357.5 714.752,-389.5 828.555,-389.5 828.555,-357.5 714.752,-357.5"/>
<text text-anchor="start" x="722.752" y="-376.5" font-family="Helvetica,sans-Serif" font-size="10.00" fill="#000000">LFSTK_gadgetClass::</text>
<text text-anchor="middle" x="771.6535" y="-364.5" font-family="Helvetica,sans-Serif" font-size="10.00" fill="#000000">drawIndicator</text>
</a>
</g>
</g>
<!-- Node4&#45;&gt;Node8 -->
<g id="edge7" class="edge">
<title>Node4&#45;&gt;Node8</title>
<path fill="none" stroke="#191970" d="M653.0398,-373.5C669.381,-373.5 687.3511,-373.5 704.2529,-373.5"/>
<polygon fill="#191970" stroke="#191970" points="704.6145,-377.0001 714.6145,-373.5 704.6145,-370.0001 704.6145,-377.0001"/>
</g>
<!-- Node9 -->
<g id="node9" class="node">
<title>Node9</title>
<g id="a_node9"><a xlink:href="class_l_f_s_t_k__gadget_class_a7f44f781b167d66c5d6f4cc862a7e2db.xhtml#a7f44f781b167d66c5d6f4cc862a7e2db" target="_top" xlink:title=" ">
<polygon fill="none" stroke="#000000" points="714.752,-255.5 714.752,-287.5 828.555,-287.5 828.555,-255.5 714.752,-255.5"/>
<text text-anchor="start" x="722.752" y="-274.5" font-family="Helvetica,sans-Serif" font-size="10.00" fill="#000000">LFSTK_gadgetClass::</text>
<text text-anchor="middle" x="771.6535" y="-262.5" font-family="Helvetica,sans-Serif" font-size="10.00" fill="#000000">drawLabel</text>
</a>
</g>
</g>
<!-- Node4&#45;&gt;Node9 -->
<g id="edge9" class="edge">
<title>Node4&#45;&gt;Node9</title>
<path fill="none" stroke="#191970" d="M619.0778,-357.3588C642.5813,-341.2421 680.3666,-316.2394 714.752,-297.5 718.1942,-295.6241 721.7969,-293.7603 725.4464,-291.9425"/>
<polygon fill="#191970" stroke="#191970" points="727.0723,-295.044 734.5497,-287.538 724.0235,-288.7428 727.0723,-295.044"/>
</g>
<!-- Node8&#45;&gt;Node6 -->
<g id="edge8" class="edge">
<title>Node8&#45;&gt;Node6</title>
<path fill="none" stroke="#191970" d="M828.9367,-381.3183C840.8135,-382.9393 853.4291,-384.6612 865.6245,-386.3257"/>
<polygon fill="#191970" stroke="#191970" points="865.3627,-389.8223 875.7442,-387.7069 866.3094,-382.8866 865.3627,-389.8223"/>
</g>
<!-- Node10 -->
<g id="node10" class="node">
<title>Node10</title>
<g id="a_node10"><a xlink:href="class_l_f_s_t_k__lib_ab2f14a3414f7db863682d1e2fa0cfb75.xhtml#ab2f14a3414f7db863682d1e2fa0cfb75" target="_top" xlink:title=" ">
<polygon fill="none" stroke="#000000" points="864.555,-284.5 864.555,-304.5 1001.131,-304.5 1001.131,-284.5 864.555,-284.5"/>
<text text-anchor="middle" x="932.843" y="-291.5" font-family="Helvetica,sans-Serif" font-size="10.00" fill="#000000">LFSTK_lib::bestFontColour</text>
</a>
</g>
</g>
<!-- Node9&#45;&gt;Node10 -->
<g id="edge10" class="edge">
<title>Node9&#45;&gt;Node10</title>
<path fill="none" stroke="#191970" d="M828.9367,-279.6737C837.1967,-280.8523 845.8141,-282.0819 854.399,-283.3069"/>
<polygon fill="#191970" stroke="#191970" points="854.0443,-286.7917 864.4385,-284.7394 855.0332,-279.8618 854.0443,-286.7917"/>
</g>
<!-- Node11 -->
<g id="node11" class="node">
<title>Node11</title>
<g id="a_node11"><a xlink:href="class_l_f_s_t_k__gadget_class_a091281ba03eaeb31bc7507c74b9b4f2f.xhtml#a091281ba03eaeb31bc7507c74b9b4f2f" target="_top" xlink:title=" ">
<polygon fill="none" stroke="#000000" points="875.387,-233.5 875.387,-265.5 990.299,-265.5 990.299,-233.5 875.387,-233.5"/>
<text text-anchor="start" x="883.387" y="-252.5" font-family="Helvetica,sans-Serif" font-size="10.00" fill="#000000">LFSTK_gadgetClass::</text>
<text text-anchor="middle" x="932.843" y="-240.5" font-family="Helvetica,sans-Serif" font-size="10.00" fill="#000000">LFSTK_getTextHeight</text>
</a>
</g>
</g>
<!-- Node9&#45;&gt;Node11 -->
<g id="edge11" class="edge">
<title>Node9&#45;&gt;Node11</title>
<path fill="none" stroke="#191970" d="M828.9367,-263.6817C840.6721,-262.08 853.1289,-260.3798 865.1887,-258.7338"/>
<polygon fill="#191970" stroke="#191970" points="865.7663,-262.1875 875.2011,-257.3673 864.8196,-255.2518 865.7663,-262.1875"/>
</g>
<!-- Node12&#45;&gt;Node3 -->
<g id="edge13" class="edge">
<title>Node12&#45;&gt;Node3</title>
<path fill="none" stroke="#191970" d="M293.0159,-373.5C309.4711,-373.5 327.4966,-373.5 344.421,-373.5"/>
<polygon fill="#191970" stroke="#191970" points="344.7927,-377.0001 354.7927,-373.5 344.7927,-370.0001 344.7927,-377.0001"/>
</g>
<!-- Node15 -->
<g id="node15" class="node">
<title>Node15</title>
<g id="a_node15"><a xlink:href="class_l_f_s_t_k__lib_ad794f7ab3a4ca5a03adbb0472fa93788.xhtml#ad794f7ab3a4ca5a03adbb0472fa93788" target="_top" xlink:title=" ">
<polygon fill="none" stroke="#000000" points="348.484,-204.5 348.484,-248.5 475.053,-248.5 475.053,-204.5 348.484,-204.5"/>
<text text-anchor="start" x="356.484" y="-235.5" font-family="Helvetica,sans-Serif" font-size="10.00" fill="#000000">LFSTK_lib::LFSTK_cairo</text>
<text text-anchor="start" x="356.484" y="-223.5" font-family="Helvetica,sans-Serif" font-size="10.00" fill="#000000">_image_surface_create</text>
<text text-anchor="middle" x="411.7685" y="-211.5" font-family="Helvetica,sans-Serif" font-size="10.00" fill="#000000">_from_jpeg</text>
</a>
</g>
</g>
<!-- Node14&#45;&gt;Node15 -->
<g id="edge16" class="edge">
<title>Node14&#45;&gt;Node15</title>
<path fill="none" stroke="#191970" d="M303.5262,-222.8369C314.9569,-223.2238 326.8452,-223.6261 338.3782,-224.0164"/>
<polygon fill="#191970" stroke="#191970" points="338.2887,-227.5153 348.4013,-224.3556 338.5255,-220.5193 338.2887,-227.5153"/>
</g>
<!-- Node17 -->
<g id="node17" class="node">
<title>Node17</title>
<g id="a_node17"><a xlink:href="class_l_f_s_t_k__gadget_class_a23bc2dc7b8200df4dc74f1f68460eca2.xhtml#a23bc2dc7b8200df4dc74f1f68460eca2" target="_top" xlink:title=" ">
<polygon fill="none" stroke="#000000" points="354.867,-153.5 354.867,-185.5 468.67,-185.5 468.67,-153.5 354.867,-153.5"/>
<text text-anchor="start" x="362.867" y="-172.5" font-family="Helvetica,sans-Serif" font-size="10.00" fill="#000000">LFSTK_gadgetClass::</text>
<text text-anchor="middle" x="411.7685" y="-160.5" font-family="Helvetica,sans-Serif" font-size="10.00" fill="#000000">LFSTK_getTextWidth</text>
</a>
</g>
</g>
<!-- Node14&#45;&gt;Node17 -->
<g id="edge18" class="edge">
<title>Node14&#45;&gt;Node17</title>
<path fill="none" stroke="#191970" d="M290.5687,-204.3633C308.2837,-199.2675 328.0127,-193.5925 346.3213,-188.326"/>
<polygon fill="#191970" stroke="#191970" points="347.3925,-191.6598 356.0352,-185.5317 345.4574,-184.9326 347.3925,-191.6598"/>
</g>
<!-- Node16 -->
<g id="node16" class="node">
<title>Node16</title>
<g id="a_node16"><a xlink:href="class_l_f_s_t_k__lib_a6beac3954823730f63c32a97949db52a.xhtml#a6beac3954823730f63c32a97949db52a" target="_top" xlink:title=" ">
<polygon fill="none" stroke="#000000" points="513.278,-210.5 513.278,-242.5 678.752,-242.5 678.752,-210.5 513.278,-210.5"/>
<text text-anchor="start" x="521.278" y="-229.5" font-family="Helvetica,sans-Serif" font-size="10.00" fill="#000000">LFSTK_lib::cairo_image</text>
<text text-anchor="middle" x="596.015" y="-217.5" font-family="Helvetica,sans-Serif" font-size="10.00" fill="#000000">_surface_create_from_jpeg_mem</text>
</a>
</g>
</g>
<!-- Node15&#45;&gt;Node16 -->
<g id="edge17" class="edge">
<title>Node15&#45;&gt;Node16</title>
<path fill="none" stroke="#191970" d="M475.1757,-226.5C484.1196,-226.5 493.4648,-226.5 502.8246,-226.5"/>
<polygon fill="#191970" stroke="#191970" points="502.9686,-230.0001 512.9685,-226.5 502.9685,-223.0001 502.9686,-230.0001"/>
</g>
<!-- Node18&#45;&gt;Node17 -->
<g id="edge20" class="edge">
<title>Node18&#45;&gt;Node17</title>
<path fill="none" stroke="#191970" d="M310.4324,-169.5C321.8019,-169.5 333.4558,-169.5 344.6249,-169.5"/>
<polygon fill="#191970" stroke="#191970" points="344.724,-173.0001 354.724,-169.5 344.7239,-166.0001 344.724,-173.0001"/>
</g>
<!-- Node19&#45;&gt;Node3 -->
<g id="edge22" class="edge">
<title>Node19&#45;&gt;Node3</title>
<path fill="none" stroke="#191970" d="M290.5687,-338.6367C308.2837,-343.7325 328.0127,-349.4075 346.3213,-354.674"/>
<polygon fill="#191970" stroke="#191970" points="345.4574,-358.0674 356.0352,-357.4683 347.3925,-351.3402 345.4574,-358.0674"/>
</g>
<!-- Node20 -->
<g id="node20" class="node">
<title>Node20</title>
<g id="a_node20"><a xlink:href="class_l_f_s_t_k__gadget_class_a6ba306176db18f16e2a034c875f53de0.xhtml#a6ba306176db18f16e2a034c875f53de0" target="_top" xlink:title=" ">
<polygon fill="none" stroke="#000000" points="346.259,-306.5 346.259,-338.5 477.278,-338.5 477.278,-306.5 346.259,-306.5"/>
<text text-anchor="start" x="354.259" y="-325.5" font-family="Helvetica,sans-Serif" font-size="10.00" fill="#000000">LFSTK_gadgetClass::</text>
<text text-anchor="middle" x="411.7685" y="-313.5" font-family="Helvetica,sans-Serif" font-size="10.00" fill="#000000">LFSTK_setCairoFontData</text>
</a>
</g>
</g>
<!-- Node19&#45;&gt;Node20 -->
<g id="edge23" class="edge">
<title>Node19&#45;&gt;Node20</title>
<path fill="none" stroke="#191970" d="M291.5446,-322.5C305.6915,-322.5 321.0725,-322.5 335.9599,-322.5"/>
<polygon fill="#191970" stroke="#191970" points="336.1665,-326.0001 346.1665,-322.5 336.1664,-319.0001 336.1665,-326.0001"/>
</g>
</g>
</svg>
