<?xml version="1.0" encoding="UTF-8" standalone="no"?>
<!DOCTYPE svg PUBLIC "-//W3C//DTD SVG 1.1//EN"
 "http://www.w3.org/Graphics/SVG/1.1/DTD/svg11.dtd">
<!-- Generated by graphviz version 2.40.1 (20161225.0304)
 -->
<!-- Title: LFSTK_imageClass::LFSTK_clearWindow Pages: 1 -->
<svg width="654pt" height="80pt"
 viewBox="0.00 0.00 653.93 80.00" xmlns="http://www.w3.org/2000/svg" xmlns:xlink="http://www.w3.org/1999/xlink">
<g id="graph0" class="graph" transform="scale(1 1) rotate(0) translate(4 76)">
<title>LFSTK_imageClass::LFSTK_clearWindow</title>
<!-- Node1 -->
<g id="node1" class="node">
<title>Node1</title>
<g id="a_node1"><a xlink:title=" ">
<polygon fill="#bfbfbf" stroke="#000000" points="504.358,-22.5 504.358,-54.5 645.927,-54.5 645.927,-22.5 504.358,-22.5"/>
<text text-anchor="start" x="512.358" y="-41.5" font-family="Helvetica,sans-Serif" font-size="10.00" fill="#000000">LFSTK_imageClass::LFSTK</text>
<text text-anchor="middle" x="575.1425" y="-29.5" font-family="Helvetica,sans-Serif" font-size="10.00" fill="#000000">_clearWindow</text>
</a>
</g>
</g>
<!-- Node2 -->
<g id="node2" class="node">
<title>Node2</title>
<g id="a_node2"><a xlink:href="class_l_f_s_t_k__image_class_afae53a92082668d7f59f25bbca5a15ee.xhtml#afae53a92082668d7f59f25bbca5a15ee" target="_top" xlink:title=" ">
<polygon fill="none" stroke="#000000" points="315.12,-51.5 315.12,-71.5 468.358,-71.5 468.358,-51.5 315.12,-51.5"/>
<text text-anchor="middle" x="391.739" y="-58.5" font-family="Helvetica,sans-Serif" font-size="10.00" fill="#000000">LFSTK_imageClass::mouseUp</text>
</a>
</g>
</g>
<!-- Node1&#45;&gt;Node2 -->
<g id="edge1" class="edge">
<title>Node1&#45;&gt;Node2</title>
<path fill="none" stroke="#191970" d="M494.2733,-48.6415C485.7229,-49.7138 477.0452,-50.802 468.543,-51.8683"/>
<polygon fill="#191970" stroke="#191970" points="494.7472,-52.1096 504.2339,-47.3924 493.8761,-45.164 494.7472,-52.1096"/>
</g>
<!-- Node3 -->
<g id="node3" class="node">
<title>Node3</title>
<g id="a_node3"><a xlink:href="class_l_f_s_t_k__file_dialog_class_ac7703591352d5105def9c5293fbeed62.xhtml#ac7703591352d5105def9c5293fbeed62" target="_top" xlink:title=" ">
<polygon fill="none" stroke="#000000" points="332.3485,-.5 332.3485,-32.5 451.1295,-32.5 451.1295,-.5 332.3485,-.5"/>
<text text-anchor="start" x="340.3485" y="-19.5" font-family="Helvetica,sans-Serif" font-size="10.00" fill="#000000">LFSTK_fileDialogClass</text>
<text text-anchor="middle" x="391.739" y="-7.5" font-family="Helvetica,sans-Serif" font-size="10.00" fill="#000000">::setPreviewData</text>
</a>
</g>
</g>
<!-- Node1&#45;&gt;Node3 -->
<g id="edge2" class="edge">
<title>Node1&#45;&gt;Node3</title>
<path fill="none" stroke="#191970" d="M494.2733,-28.7994C479.7749,-27.0603 464.9102,-25.2772 451.1562,-23.6273"/>
<polygon fill="#191970" stroke="#191970" points="493.8882,-32.2782 504.2339,-29.9942 494.722,-25.328 493.8882,-32.2782"/>
</g>
<!-- Node4 -->
<g id="node4" class="node">
<title>Node4</title>
<g id="a_node4"><a xlink:href="class_l_f_s_t_k__file_dialog_class_a789cade9437906181e31a243c85d52e5.xhtml#a789cade9437906181e31a243c85d52e5" target="_top" xlink:title=" ">
<polygon fill="none" stroke="#000000" points="160.339,-.5 160.339,-32.5 279.12,-32.5 279.12,-.5 160.339,-.5"/>
<text text-anchor="start" x="168.339" y="-19.5" font-family="Helvetica,sans-Serif" font-size="10.00" fill="#000000">LFSTK_fileDialogClass</text>
<text text-anchor="middle" x="219.7295" y="-7.5" font-family="Helvetica,sans-Serif" font-size="10.00" fill="#000000">::select</text>
</a>
</g>
</g>
<!-- Node3&#45;&gt;Node4 -->
<g id="edge3" class="edge">
<title>Node3&#45;&gt;Node4</title>
<path fill="none" stroke="#191970" d="M321.9022,-16.5C307.7726,-16.5 293.0389,-16.5 279.3018,-16.5"/>
<polygon fill="#191970" stroke="#191970" points="322.0612,-20.0001 332.0612,-16.5 322.0611,-13.0001 322.0612,-20.0001"/>
</g>
<!-- Node5 -->
<g id="node5" class="node">
<title>Node5</title>
<g id="a_node5"><a xlink:href="class_l_f_s_t_k__file_dialog_class_a553ce8e885b0d60cbf515b7b3d1e8b65.xhtml#a553ce8e885b0d60cbf515b7b3d1e8b65" target="_top" xlink:title=" ">
<polygon fill="none" stroke="#000000" points="0,-.5 0,-32.5 124.339,-32.5 124.339,-.5 0,-.5"/>
<text text-anchor="start" x="8" y="-19.5" font-family="Helvetica,sans-Serif" font-size="10.00" fill="#000000">LFSTK_fileDialogClass</text>
<text text-anchor="middle" x="62.1695" y="-7.5" font-family="Helvetica,sans-Serif" font-size="10.00" fill="#000000">::LFSTK_fileDialogClass</text>
</a>
</g>
</g>
<!-- Node4&#45;&gt;Node5 -->
<g id="edge4" class="edge">
<title>Node4&#45;&gt;Node5</title>
<path fill="none" stroke="#191970" d="M149.9128,-16.5C141.4306,-16.5 132.8078,-16.5 124.4449,-16.5"/>
<polygon fill="#191970" stroke="#191970" points="150.1629,-20.0001 160.1628,-16.5 150.1628,-13.0001 150.1629,-20.0001"/>
</g>
</g>
</svg>
