<?xml version="1.0" encoding="UTF-8" standalone="no"?>
<!DOCTYPE svg PUBLIC "-//W3C//DTD SVG 1.1//EN"
 "http://www.w3.org/Graphics/SVG/1.1/DTD/svg11.dtd">
<!-- Generated by graphviz version 2.40.1 (20161225.0304)
 -->
<!-- Title: LFSTK_fileDialogClass::setFileData Pages: 1 -->
<svg width="273pt" height="80pt"
 viewBox="0.00 0.00 273.23 80.00" xmlns="http://www.w3.org/2000/svg" xmlns:xlink="http://www.w3.org/1999/xlink">
<g id="graph0" class="graph" transform="scale(1 1) rotate(0) translate(4 76)">
<title>LFSTK_fileDialogClass::setFileData</title>
<!-- Node1 -->
<g id="node1" class="node">
<title>Node1</title>
<g id="a_node1"><a xlink:title=" ">
<polygon fill="#bfbfbf" stroke="#000000" points="0,-22.5 0,-54.5 118.781,-54.5 118.781,-22.5 0,-22.5"/>
<text text-anchor="start" x="8" y="-41.5" font-family="Helvetica,sans-Serif" font-size="10.00" fill="#000000">LFSTK_fileDialogClass</text>
<text text-anchor="middle" x="59.3905" y="-29.5" font-family="Helvetica,sans-Serif" font-size="10.00" fill="#000000">::setFileData</text>
</a>
</g>
</g>
<!-- Node2 -->
<g id="node2" class="node">
<title>Node2</title>
<g id="a_node2"><a xlink:href="_l_f_s_t_k_globals_8h_a5a7177e18496241277aa846d394e3e88.xhtml#a5a7177e18496241277aa846d394e3e88" target="_top" xlink:title=" ">
<polygon fill="none" stroke="#000000" points="175.893,-51.5 175.893,-71.5 244.122,-71.5 244.122,-51.5 175.893,-51.5"/>
<text text-anchor="middle" x="210.0075" y="-58.5" font-family="Helvetica,sans-Serif" font-size="10.00" fill="#000000">freeAndNull</text>
</a>
</g>
</g>
<!-- Node1&#45;&gt;Node2 -->
<g id="edge1" class="edge">
<title>Node1&#45;&gt;Node2</title>
<path fill="none" stroke="#191970" d="M118.9183,-47.5902C134.4013,-49.9545 150.8161,-52.4612 165.3832,-54.6856"/>
<polygon fill="#191970" stroke="#191970" points="165.2102,-58.1997 175.624,-56.2495 166.267,-51.2799 165.2102,-58.1997"/>
</g>
<!-- Node3 -->
<g id="node3" class="node">
<title>Node3</title>
<g id="a_node3"><a xlink:href="class_l_f_s_t_k__line_edit_class_adfaad6bd5ec8f4ecc3be7a6358693786.xhtml#adfaad6bd5ec8f4ecc3be7a6358693786" target="_top" xlink:title=" ">
<polygon fill="none" stroke="#000000" points="154.781,-.5 154.781,-32.5 265.234,-32.5 265.234,-.5 154.781,-.5"/>
<text text-anchor="start" x="162.781" y="-19.5" font-family="Helvetica,sans-Serif" font-size="10.00" fill="#000000">LFSTK_lineEditClass</text>
<text text-anchor="middle" x="210.0075" y="-7.5" font-family="Helvetica,sans-Serif" font-size="10.00" fill="#000000">::LFSTK_getCStr</text>
</a>
</g>
</g>
<!-- Node1&#45;&gt;Node3 -->
<g id="edge2" class="edge">
<title>Node1&#45;&gt;Node3</title>
<path fill="none" stroke="#191970" d="M118.9183,-29.805C127.2194,-28.5925 135.7882,-27.3409 144.1966,-26.1127"/>
<polygon fill="#191970" stroke="#191970" points="144.9554,-29.5391 154.3445,-24.6305 143.9436,-22.6126 144.9554,-29.5391"/>
</g>
</g>
</svg>
