<?xml version="1.0" encoding="UTF-8" standalone="no"?>
<!DOCTYPE svg PUBLIC "-//W3C//DTD SVG 1.1//EN"
 "http://www.w3.org/Graphics/SVG/1.1/DTD/svg11.dtd">
<!-- Generated by graphviz version 2.40.1 (20161225.0304)
 -->
<!-- Title: LFSTK_lib::LFSTK_createSurfaceFromPath Pages: 1 -->
<svg width="351pt" height="92pt"
 viewBox="0.00 0.00 350.51 92.00" xmlns="http://www.w3.org/2000/svg" xmlns:xlink="http://www.w3.org/1999/xlink">
<g id="graph0" class="graph" transform="scale(1 1) rotate(0) translate(4 88)">
<title>LFSTK_lib::LFSTK_createSurfaceFromPath</title>
<!-- Node1 -->
<g id="node1" class="node">
<title>Node1</title>
<g id="a_node1"><a xlink:title=" ">
<polygon fill="#bfbfbf" stroke="#000000" points="175.367,-25.5 175.367,-57.5 342.509,-57.5 342.509,-25.5 175.367,-25.5"/>
<text text-anchor="start" x="183.367" y="-44.5" font-family="Helvetica,sans-Serif" font-size="10.00" fill="#000000">LFSTK_lib::LFSTK_createSurface</text>
<text text-anchor="middle" x="258.938" y="-32.5" font-family="Helvetica,sans-Serif" font-size="10.00" fill="#000000">FromPath</text>
</a>
</g>
</g>
<!-- Node2 -->
<g id="node2" class="node">
<title>Node2</title>
<g id="a_node2"><a xlink:href="class_l_f_s_t_k__file_dialog_class_a553ce8e885b0d60cbf515b7b3d1e8b65.xhtml#a553ce8e885b0d60cbf515b7b3d1e8b65" target="_top" xlink:title=" ">
<polygon fill="none" stroke="#000000" points="7.514,-51.5 7.514,-83.5 131.853,-83.5 131.853,-51.5 7.514,-51.5"/>
<text text-anchor="start" x="15.514" y="-70.5" font-family="Helvetica,sans-Serif" font-size="10.00" fill="#000000">LFSTK_fileDialogClass</text>
<text text-anchor="middle" x="69.6835" y="-58.5" font-family="Helvetica,sans-Serif" font-size="10.00" fill="#000000">::LFSTK_fileDialogClass</text>
</a>
</g>
</g>
<!-- Node1&#45;&gt;Node2 -->
<g id="edge1" class="edge">
<title>Node1&#45;&gt;Node2</title>
<path fill="none" stroke="#191970" d="M165.1863,-54.3797C153.88,-55.933 142.5569,-57.4886 131.8629,-58.9577"/>
<polygon fill="#191970" stroke="#191970" points="165.6712,-57.8461 175.1017,-53.0175 164.7184,-50.9112 165.6712,-57.8461"/>
</g>
<!-- Node3 -->
<g id="node3" class="node">
<title>Node3</title>
<g id="a_node3"><a xlink:href="class_l_f_s_t_k__toggle_button_class_a4cc0929a4d4113b9b40a3bdc54898ab7.xhtml#a4cc0929a4d4113b9b40a3bdc54898ab7" target="_top" xlink:title=" ">
<polygon fill="none" stroke="#000000" points="0,-.5 0,-32.5 139.367,-32.5 139.367,-.5 0,-.5"/>
<text text-anchor="start" x="8" y="-19.5" font-family="Helvetica,sans-Serif" font-size="10.00" fill="#000000">LFSTK_toggleButtonClass</text>
<text text-anchor="middle" x="69.6835" y="-7.5" font-family="Helvetica,sans-Serif" font-size="10.00" fill="#000000">::LFSTK_toggleButtonClass</text>
</a>
</g>
</g>
<!-- Node1&#45;&gt;Node3 -->
<g id="edge2" class="edge">
<title>Node1&#45;&gt;Node3</title>
<path fill="none" stroke="#191970" d="M165.0535,-29.0981C156.4763,-27.9651 147.891,-26.831 139.5794,-25.7331"/>
<polygon fill="#191970" stroke="#191970" points="164.7295,-32.5856 175.1017,-30.4255 165.6463,-25.6459 164.7295,-32.5856"/>
</g>
</g>
</svg>
