<?xml version="1.0" encoding="UTF-8" standalone="no"?>
<!DOCTYPE svg PUBLIC "-//W3C//DTD SVG 1.1//EN"
 "http://www.w3.org/Graphics/SVG/1.1/DTD/svg11.dtd">
<!-- Generated by graphviz version 2.40.1 (20161225.0304)
 -->
<!-- Title: LFSTK_gadgetClass::initGadget Pages: 1 -->
<svg width="478pt" height="245pt"
 viewBox="0.00 0.00 478.07 245.00" xmlns="http://www.w3.org/2000/svg" xmlns:xlink="http://www.w3.org/1999/xlink">
<g id="graph0" class="graph" transform="scale(1 1) rotate(0) translate(4 241)">
<title>LFSTK_gadgetClass::initGadget</title>
<!-- Node1 -->
<g id="node1" class="node">
<title>Node1</title>
<g id="a_node1"><a xlink:title=" ">
<polygon fill="#bfbfbf" stroke="#000000" points="0,-102.5 0,-134.5 113.803,-134.5 113.803,-102.5 0,-102.5"/>
<text text-anchor="start" x="8" y="-121.5" font-family="Helvetica,sans-Serif" font-size="10.00" fill="#000000">LFSTK_gadgetClass::</text>
<text text-anchor="middle" x="56.9015" y="-109.5" font-family="Helvetica,sans-Serif" font-size="10.00" fill="#000000">initGadget</text>
</a>
</g>
</g>
<!-- Node2 -->
<g id="node2" class="node">
<title>Node2</title>
<g id="a_node2"><a xlink:href="class_l_f_s_t_k__lib_a46aa104681d600dd4eb24549e813b5cc.xhtml#a46aa104681d600dd4eb24549e813b5cc" target="_top" xlink:title=" ">
<polygon fill="none" stroke="#000000" points="149.803,-204.5 149.803,-236.5 297.497,-236.5 297.497,-204.5 149.803,-204.5"/>
<text text-anchor="start" x="157.803" y="-223.5" font-family="Helvetica,sans-Serif" font-size="10.00" fill="#000000">LFSTK_lib::LFSTK_getGlobal</text>
<text text-anchor="middle" x="223.65" y="-211.5" font-family="Helvetica,sans-Serif" font-size="10.00" fill="#000000">String</text>
</a>
</g>
</g>
<!-- Node1&#45;&gt;Node2 -->
<g id="edge1" class="edge">
<title>Node1&#45;&gt;Node2</title>
<path fill="none" stroke="#191970" d="M72.6505,-134.6966C90.1164,-151.8607 119.8068,-178.7508 149.803,-195.5 152.8498,-197.2013 156.0319,-198.8134 159.2911,-200.3372"/>
<polygon fill="#191970" stroke="#191970" points="158.0659,-203.6209 168.6322,-204.3978 160.8566,-197.2012 158.0659,-203.6209"/>
</g>
<!-- Node3 -->
<g id="node3" class="node">
<title>Node3</title>
<g id="a_node3"><a xlink:href="class_l_f_s_t_k__gadget_class_a00d9d75e1766de5e88ab9fc06a9fb8ae.xhtml#a00d9d75e1766de5e88ab9fc06a9fb8ae" target="_top" xlink:title=" ">
<polygon fill="none" stroke="#000000" points="166.7485,-153.5 166.7485,-185.5 280.5515,-185.5 280.5515,-153.5 166.7485,-153.5"/>
<text text-anchor="start" x="174.7485" y="-172.5" font-family="Helvetica,sans-Serif" font-size="10.00" fill="#000000">LFSTK_gadgetClass::</text>
<text text-anchor="middle" x="223.65" y="-160.5" font-family="Helvetica,sans-Serif" font-size="10.00" fill="#000000">LFSTK_setActive</text>
</a>
</g>
</g>
<!-- Node1&#45;&gt;Node3 -->
<g id="edge2" class="edge">
<title>Node1&#45;&gt;Node3</title>
<path fill="none" stroke="#191970" d="M109.6618,-134.6367C126.0924,-139.662 144.3651,-145.2507 161.3821,-150.4554"/>
<polygon fill="#191970" stroke="#191970" points="160.6465,-153.8904 171.233,-153.4683 162.6939,-147.1965 160.6465,-153.8904"/>
</g>
<!-- Node4 -->
<g id="node4" class="node">
<title>Node4</title>
<g id="a_node4"><a xlink:href="class_l_f_s_t_k__gadget_class_a70989f54f49667a00347f3b0891944ab.xhtml#a70989f54f49667a00347f3b0891944ab" target="_top" xlink:title=" ">
<polygon fill="none" stroke="#000000" points="162.589,-102.5 162.589,-134.5 284.711,-134.5 284.711,-102.5 162.589,-102.5"/>
<text text-anchor="start" x="170.589" y="-121.5" font-family="Helvetica,sans-Serif" font-size="10.00" fill="#000000">LFSTK_gadgetClass::</text>
<text text-anchor="middle" x="223.65" y="-109.5" font-family="Helvetica,sans-Serif" font-size="10.00" fill="#000000">LFSTK_setColourName</text>
</a>
</g>
</g>
<!-- Node1&#45;&gt;Node4 -->
<g id="edge3" class="edge">
<title>Node1&#45;&gt;Node4</title>
<path fill="none" stroke="#191970" d="M113.8205,-118.5C126.1785,-118.5 139.4016,-118.5 152.2384,-118.5"/>
<polygon fill="#191970" stroke="#191970" points="152.4265,-122.0001 162.4264,-118.5 152.4264,-115.0001 152.4265,-122.0001"/>
</g>
<!-- Node5 -->
<g id="node5" class="node">
<title>Node5</title>
<g id="a_node5"><a xlink:href="class_l_f_s_t_k__gadget_class_a46c9f429ddcc6610c577994ec14ffb17.xhtml#a46c9f429ddcc6610c577994ec14ffb17" target="_top" xlink:title=" ">
<polygon fill="none" stroke="#000000" points="152.586,-51.5 152.586,-83.5 294.714,-83.5 294.714,-51.5 152.586,-51.5"/>
<text text-anchor="start" x="160.586" y="-70.5" font-family="Helvetica,sans-Serif" font-size="10.00" fill="#000000">LFSTK_gadgetClass::</text>
<text text-anchor="middle" x="223.65" y="-58.5" font-family="Helvetica,sans-Serif" font-size="10.00" fill="#000000">LFSTK_setFontColourName</text>
</a>
</g>
</g>
<!-- Node1&#45;&gt;Node5 -->
<g id="edge4" class="edge">
<title>Node1&#45;&gt;Node5</title>
<path fill="none" stroke="#191970" d="M109.6618,-102.3633C126.0924,-97.338 144.3651,-91.7493 161.3821,-86.5446"/>
<polygon fill="#191970" stroke="#191970" points="162.6939,-89.8035 171.233,-83.5317 160.6465,-83.1096 162.6939,-89.8035"/>
</g>
<!-- Node7 -->
<g id="node7" class="node">
<title>Node7</title>
<g id="a_node7"><a xlink:href="class_l_f_s_t_k__gadget_class_a94b109b103654941f59dd614f03cede1.xhtml#a94b109b103654941f59dd614f03cede1" target="_top" xlink:title=" ">
<polygon fill="none" stroke="#000000" points="166.7485,-.5 166.7485,-32.5 280.5515,-32.5 280.5515,-.5 166.7485,-.5"/>
<text text-anchor="start" x="174.7485" y="-19.5" font-family="Helvetica,sans-Serif" font-size="10.00" fill="#000000">LFSTK_gadgetClass::</text>
<text text-anchor="middle" x="223.65" y="-7.5" font-family="Helvetica,sans-Serif" font-size="10.00" fill="#000000">LFSTK_setFontString</text>
</a>
</g>
</g>
<!-- Node1&#45;&gt;Node7 -->
<g id="edge6" class="edge">
<title>Node1&#45;&gt;Node7</title>
<path fill="none" stroke="#191970" d="M73.0522,-102.287C90.6269,-85.4038 120.194,-59.1436 149.803,-42.5 153.4686,-40.4395 157.3268,-38.4973 161.2774,-36.6749"/>
<polygon fill="#191970" stroke="#191970" points="162.8241,-39.8195 170.6162,-32.6408 160.0481,-33.3934 162.8241,-39.8195"/>
</g>
<!-- Node6 -->
<g id="node6" class="node">
<title>Node6</title>
<g id="a_node6"><a xlink:href="class_l_f_s_t_k__lib_ab2f14a3414f7db863682d1e2fa0cfb75.xhtml#ab2f14a3414f7db863682d1e2fa0cfb75" target="_top" xlink:title=" ">
<polygon fill="none" stroke="#000000" points="333.497,-57.5 333.497,-77.5 470.073,-77.5 470.073,-57.5 333.497,-57.5"/>
<text text-anchor="middle" x="401.785" y="-64.5" font-family="Helvetica,sans-Serif" font-size="10.00" fill="#000000">LFSTK_lib::bestFontColour</text>
</a>
</g>
</g>
<!-- Node5&#45;&gt;Node6 -->
<g id="edge5" class="edge">
<title>Node5&#45;&gt;Node6</title>
<path fill="none" stroke="#191970" d="M294.8216,-67.5C304.1446,-67.5 313.7404,-67.5 323.1774,-67.5"/>
<polygon fill="#191970" stroke="#191970" points="323.3348,-71.0001 333.3348,-67.5 323.3348,-64.0001 323.3348,-71.0001"/>
</g>
<!-- Node8 -->
<g id="node8" class="node">
<title>Node8</title>
<g id="a_node8"><a xlink:href="class_l_f_s_t_k__gadget_class_a6ba306176db18f16e2a034c875f53de0.xhtml#a6ba306176db18f16e2a034c875f53de0" target="_top" xlink:title=" ">
<polygon fill="none" stroke="#000000" points="336.2755,-.5 336.2755,-32.5 467.2945,-32.5 467.2945,-.5 336.2755,-.5"/>
<text text-anchor="start" x="344.2755" y="-19.5" font-family="Helvetica,sans-Serif" font-size="10.00" fill="#000000">LFSTK_gadgetClass::</text>
<text text-anchor="middle" x="401.785" y="-7.5" font-family="Helvetica,sans-Serif" font-size="10.00" fill="#000000">LFSTK_setCairoFontData</text>
</a>
</g>
</g>
<!-- Node7&#45;&gt;Node8 -->
<g id="edge7" class="edge">
<title>Node7&#45;&gt;Node8</title>
<path fill="none" stroke="#191970" d="M280.9936,-16.5C295.2899,-16.5 310.8406,-16.5 325.8794,-16.5"/>
<polygon fill="#191970" stroke="#191970" points="326.1874,-20.0001 336.1873,-16.5 326.1873,-13.0001 326.1874,-20.0001"/>
</g>
</g>
</svg>
