<?xml version="1.0" encoding="UTF-8" standalone="no"?>
<!DOCTYPE svg PUBLIC "-//W3C//DTD SVG 1.1//EN"
 "http://www.w3.org/Graphics/SVG/1.1/DTD/svg11.dtd">
<!-- Generated by graphviz version 2.40.1 (20161225.0304)
 -->
<!-- Title: LFSTK_multiLineEditClass::LFSTK_setFormatedText Pages: 1 -->
<svg width="485pt" height="92pt"
 viewBox="0.00 0.00 484.69 92.00" xmlns="http://www.w3.org/2000/svg" xmlns:xlink="http://www.w3.org/1999/xlink">
<g id="graph0" class="graph" transform="scale(1 1) rotate(0) translate(4 88)">
<title>LFSTK_multiLineEditClass::LFSTK_setFormatedText</title>
<!-- Node1 -->
<g id="node1" class="node">
<title>Node1</title>
<g id="a_node1"><a xlink:title=" ">
<polygon fill="#bfbfbf" stroke="#000000" points="341.796,-25.5 341.796,-57.5 476.694,-57.5 476.694,-25.5 341.796,-25.5"/>
<text text-anchor="start" x="349.796" y="-44.5" font-family="Helvetica,sans-Serif" font-size="10.00" fill="#000000">LFSTK_multiLineEditClass</text>
<text text-anchor="middle" x="409.245" y="-32.5" font-family="Helvetica,sans-Serif" font-size="10.00" fill="#000000">::LFSTK_setFormatedText</text>
</a>
</g>
</g>
<!-- Node2 -->
<g id="node2" class="node">
<title>Node2</title>
<g id="a_node2"><a xlink:href="class_l_f_s_t_k__multi_line_edit_class_ac4155f83eae3374ea97007bd36b7985a.xhtml#ac4155f83eae3374ea97007bd36b7985a" target="_top" xlink:title=" ">
<polygon fill="none" stroke="#000000" points="170.898,-51.5 170.898,-83.5 305.796,-83.5 305.796,-51.5 170.898,-51.5"/>
<text text-anchor="start" x="178.898" y="-70.5" font-family="Helvetica,sans-Serif" font-size="10.00" fill="#000000">LFSTK_multiLineEditClass</text>
<text text-anchor="middle" x="238.347" y="-58.5" font-family="Helvetica,sans-Serif" font-size="10.00" fill="#000000">::getClip</text>
</a>
</g>
</g>
<!-- Node1&#45;&gt;Node2 -->
<g id="edge1" class="edge">
<title>Node1&#45;&gt;Node2</title>
<path fill="none" stroke="#191970" d="M331.6915,-53.2988C323.1044,-54.6052 314.4101,-55.9279 305.9594,-57.2136"/>
<polygon fill="#191970" stroke="#191970" points="332.3418,-56.7402 341.7016,-51.7759 331.2889,-49.8199 332.3418,-56.7402"/>
</g>
<!-- Node4 -->
<g id="node4" class="node">
<title>Node4</title>
<g id="a_node4"><a xlink:href="class_l_f_s_t_k__multi_line_edit_class_a67d883fd9590a202e35805e040604226.xhtml#a67d883fd9590a202e35805e040604226" target="_top" xlink:title=" ">
<polygon fill="none" stroke="#000000" points="170.898,-.5 170.898,-32.5 305.796,-32.5 305.796,-.5 170.898,-.5"/>
<text text-anchor="start" x="178.898" y="-19.5" font-family="Helvetica,sans-Serif" font-size="10.00" fill="#000000">LFSTK_multiLineEditClass</text>
<text text-anchor="middle" x="238.347" y="-7.5" font-family="Helvetica,sans-Serif" font-size="10.00" fill="#000000">::LFSTK_dropData</text>
</a>
</g>
</g>
<!-- Node1&#45;&gt;Node4 -->
<g id="edge3" class="edge">
<title>Node1&#45;&gt;Node4</title>
<path fill="none" stroke="#191970" d="M331.6915,-30.155C323.1044,-28.8988 314.4101,-27.627 305.9594,-26.3908"/>
<polygon fill="#191970" stroke="#191970" points="331.3003,-33.6349 341.7016,-31.6193 332.3135,-26.7087 331.3003,-33.6349"/>
</g>
<!-- Node3 -->
<g id="node3" class="node">
<title>Node3</title>
<g id="a_node3"><a xlink:href="class_l_f_s_t_k__multi_line_edit_class_afabfc40cf51898aa669d7aaf16660899.xhtml#afabfc40cf51898aa669d7aaf16660899" target="_top" xlink:title=" ">
<polygon fill="none" stroke="#000000" points="0,-51.5 0,-83.5 134.898,-83.5 134.898,-51.5 0,-51.5"/>
<text text-anchor="start" x="8" y="-70.5" font-family="Helvetica,sans-Serif" font-size="10.00" fill="#000000">LFSTK_multiLineEditClass</text>
<text text-anchor="middle" x="67.449" y="-58.5" font-family="Helvetica,sans-Serif" font-size="10.00" fill="#000000">::keyRelease</text>
</a>
</g>
</g>
<!-- Node2&#45;&gt;Node3 -->
<g id="edge2" class="edge">
<title>Node2&#45;&gt;Node3</title>
<path fill="none" stroke="#191970" d="M160.7935,-67.5C152.2064,-67.5 143.5121,-67.5 135.0614,-67.5"/>
<polygon fill="#191970" stroke="#191970" points="160.8036,-71.0001 170.8036,-67.5 160.8036,-64.0001 160.8036,-71.0001"/>
</g>
</g>
</svg>
