<?xml version="1.0" encoding="UTF-8" standalone="no"?>
<!DOCTYPE svg PUBLIC "-//W3C//DTD SVG 1.1//EN"
 "http://www.w3.org/Graphics/SVG/1.1/DTD/svg11.dtd">
<!-- Generated by graphviz version 2.40.1 (20161225.0304)
 -->
<!-- Title: LFSTK_toolWindowClass::LFSTK_toolWindowClass Pages: 1 -->
<svg width="880pt" height="527pt"
 viewBox="0.00 0.00 880.41 527.00" xmlns="http://www.w3.org/2000/svg" xmlns:xlink="http://www.w3.org/1999/xlink">
<g id="graph0" class="graph" transform="scale(1 1) rotate(0) translate(4 523)">
<title>LFSTK_toolWindowClass::LFSTK_toolWindowClass</title>
<!-- Node1 -->
<g id="node1" class="node">
<title>Node1</title>
<g id="a_node1"><a xlink:title=" ">
<polygon fill="#bfbfbf" stroke="#000000" points="0,-229.5 0,-261.5 134.899,-261.5 134.899,-229.5 0,-229.5"/>
<text text-anchor="start" x="8" y="-248.5" font-family="Helvetica,sans-Serif" font-size="10.00" fill="#000000">LFSTK_toolWindowClass</text>
<text text-anchor="middle" x="67.4495" y="-236.5" font-family="Helvetica,sans-Serif" font-size="10.00" fill="#000000">::LFSTK_toolWindowClass</text>
</a>
</g>
</g>
<!-- Node2 -->
<g id="node2" class="node">
<title>Node2</title>
<g id="a_node2"><a xlink:href="class_l_f_s_t_k__tool_window_class_a230084a0461e204e39cea42ad1f10301.xhtml#a230084a0461e204e39cea42ad1f10301" target="_top" xlink:title=" ">
<polygon fill="none" stroke="#000000" points="170.899,-229.5 170.899,-261.5 304.678,-261.5 304.678,-229.5 170.899,-229.5"/>
<text text-anchor="start" x="178.899" y="-248.5" font-family="Helvetica,sans-Serif" font-size="10.00" fill="#000000">LFSTK_toolWindowClass</text>
<text text-anchor="middle" x="237.7885" y="-236.5" font-family="Helvetica,sans-Serif" font-size="10.00" fill="#000000">::windowClassInitCommon</text>
</a>
</g>
</g>
<!-- Node1&#45;&gt;Node2 -->
<g id="edge1" class="edge">
<title>Node1&#45;&gt;Node2</title>
<path fill="none" stroke="#191970" d="M135.2614,-245.5C143.5723,-245.5 152.1134,-245.5 160.5498,-245.5"/>
<polygon fill="#191970" stroke="#191970" points="160.7659,-249.0001 170.7659,-245.5 160.7659,-242.0001 160.7659,-249.0001"/>
</g>
<!-- Node3 -->
<g id="node3" class="node">
<title>Node3</title>
<g id="a_node3"><a xlink:href="class_l_f_s_t_k__window_class_a36491159cf4fdc3c5d0909b2195af9ab.xhtml#a36491159cf4fdc3c5d0909b2195af9ab" target="_top" xlink:title=" ">
<polygon fill="none" stroke="#000000" points="366.243,-384.5 366.243,-416.5 482.806,-416.5 482.806,-384.5 366.243,-384.5"/>
<text text-anchor="start" x="374.243" y="-403.5" font-family="Helvetica,sans-Serif" font-size="10.00" fill="#000000">LFSTK_windowClass::</text>
<text text-anchor="middle" x="424.5245" y="-391.5" font-family="Helvetica,sans-Serif" font-size="10.00" fill="#000000">initWindow</text>
</a>
</g>
</g>
<!-- Node2&#45;&gt;Node3 -->
<g id="edge2" class="edge">
<title>Node2&#45;&gt;Node3</title>
<path fill="none" stroke="#191970" d="M247.3953,-261.9221C263.5189,-288.1541 298.4435,-339.5929 340.678,-369.5 346.2945,-373.4771 352.481,-377.0066 358.8715,-380.1241"/>
<polygon fill="#191970" stroke="#191970" points="357.7835,-383.4732 368.3377,-384.4011 360.6658,-377.0941 357.7835,-383.4732"/>
</g>
<!-- Node6 -->
<g id="node6" class="node">
<title>Node6</title>
<g id="a_node6"><a xlink:href="class_l_f_s_t_k__lib_a46aa104681d600dd4eb24549e813b5cc.xhtml#a46aa104681d600dd4eb24549e813b5cc" target="_top" xlink:title=" ">
<polygon fill="none" stroke="#000000" points="715.83,-486.5 715.83,-518.5 863.524,-518.5 863.524,-486.5 715.83,-486.5"/>
<text text-anchor="start" x="723.83" y="-505.5" font-family="Helvetica,sans-Serif" font-size="10.00" fill="#000000">LFSTK_lib::LFSTK_getGlobal</text>
<text text-anchor="middle" x="789.677" y="-493.5" font-family="Helvetica,sans-Serif" font-size="10.00" fill="#000000">String</text>
</a>
</g>
</g>
<!-- Node2&#45;&gt;Node6 -->
<g id="edge9" class="edge">
<title>Node2&#45;&gt;Node6</title>
<path fill="none" stroke="#191970" d="M241.9033,-261.7423C251.97,-297.8875 281.4569,-385.0398 340.678,-426.5 449.5185,-502.6983 608.9502,-511.606 705.6481,-508.7332"/>
<polygon fill="#191970" stroke="#191970" points="705.8006,-512.2301 715.6736,-508.3864 705.5585,-505.2343 705.8006,-512.2301"/>
</g>
<!-- Node8 -->
<g id="node8" class="node">
<title>Node8</title>
<g id="a_node8"><a xlink:href="class_l_f_s_t_k__window_class_a9d54e326ce33b8806f19c9353269e6a8.xhtml#a9d54e326ce33b8806f19c9353269e6a8" target="_top" xlink:title=" ">
<polygon fill="none" stroke="#000000" points="731.3955,-282.5 731.3955,-314.5 847.9585,-314.5 847.9585,-282.5 731.3955,-282.5"/>
<text text-anchor="start" x="739.3955" y="-301.5" font-family="Helvetica,sans-Serif" font-size="10.00" fill="#000000">LFSTK_windowClass::</text>
<text text-anchor="middle" x="789.677" y="-289.5" font-family="Helvetica,sans-Serif" font-size="10.00" fill="#000000">LFSTK_setFontString</text>
</a>
</g>
</g>
<!-- Node2&#45;&gt;Node8 -->
<g id="edge13" class="edge">
<title>Node2&#45;&gt;Node8</title>
<path fill="none" stroke="#191970" d="M249.5677,-261.5084C266.7458,-283.3429 300.9827,-321.4644 340.678,-336.5 408.3603,-362.1364 612.7649,-330.8624 720.8942,-311.5526"/>
<polygon fill="#191970" stroke="#191970" points="721.8286,-314.9406 731.0499,-309.7235 720.5879,-308.0515 721.8286,-314.9406"/>
</g>
<!-- Node10 -->
<g id="node10" class="node">
<title>Node10</title>
<g id="a_node10"><a xlink:href="class_l_f_s_t_k__lib_afb350ab1bd8980ed130637b75244d7b2.xhtml#afb350ab1bd8980ed130637b75244d7b2" target="_top" xlink:title=" ">
<polygon fill="none" stroke="#000000" points="340.678,-306.5 340.678,-326.5 508.371,-326.5 508.371,-306.5 340.678,-306.5"/>
<text text-anchor="middle" x="424.5245" y="-313.5" font-family="Helvetica,sans-Serif" font-size="10.00" fill="#000000">LFSTK_lib::LFSTK_getUseTheme</text>
</a>
</g>
</g>
<!-- Node2&#45;&gt;Node10 -->
<g id="edge10" class="edge">
<title>Node2&#45;&gt;Node10</title>
<path fill="none" stroke="#191970" d="M264.9176,-261.5269C285.204,-272.9308 313.936,-287.8776 340.678,-297.5 347.1888,-299.8427 354.0912,-301.9601 361.0298,-303.8568"/>
<polygon fill="#191970" stroke="#191970" points="360.6227,-307.3664 371.1802,-306.4784 362.3732,-300.5888 360.6227,-307.3664"/>
</g>
<!-- Node11 -->
<g id="node11" class="node">
<title>Node11</title>
<g id="a_node11"><a xlink:href="class_l_f_s_t_k__lib_aa5e46eec51c9f1f2a86ef7e22d6cba5b.xhtml#aa5e46eec51c9f1f2a86ef7e22d6cba5b" target="_top" xlink:title=" ">
<polygon fill="none" stroke="#000000" points="353.4615,-255.5 353.4615,-287.5 495.5875,-287.5 495.5875,-255.5 353.4615,-255.5"/>
<text text-anchor="start" x="361.4615" y="-274.5" font-family="Helvetica,sans-Serif" font-size="10.00" fill="#000000">LFSTK_lib::LFSTK_setCairo</text>
<text text-anchor="middle" x="424.5245" y="-262.5" font-family="Helvetica,sans-Serif" font-size="10.00" fill="#000000">Surface</text>
</a>
</g>
</g>
<!-- Node2&#45;&gt;Node11 -->
<g id="edge11" class="edge">
<title>Node2&#45;&gt;Node11</title>
<path fill="none" stroke="#191970" d="M304.9407,-254.8499C317.3165,-256.573 330.361,-258.3892 343.1036,-260.1634"/>
<polygon fill="#191970" stroke="#191970" points="342.8526,-263.6622 353.2398,-261.5747 343.818,-256.7291 342.8526,-263.6622"/>
</g>
<!-- Node12 -->
<g id="node12" class="node">
<title>Node12</title>
<g id="a_node12"><a xlink:href="class_l_f_s_t_k__window_class_aa7d21cd46a0ac218de3fddc2483a58bb.xhtml#aa7d21cd46a0ac218de3fddc2483a58bb" target="_top" xlink:title=" ">
<polygon fill="none" stroke="#000000" points="366.243,-204.5 366.243,-236.5 482.806,-236.5 482.806,-204.5 366.243,-204.5"/>
<text text-anchor="start" x="374.243" y="-223.5" font-family="Helvetica,sans-Serif" font-size="10.00" fill="#000000">LFSTK_windowClass::</text>
<text text-anchor="middle" x="424.5245" y="-211.5" font-family="Helvetica,sans-Serif" font-size="10.00" fill="#000000">LFSTK_setDecorated</text>
</a>
</g>
</g>
<!-- Node2&#45;&gt;Node12 -->
<g id="edge12" class="edge">
<title>Node2&#45;&gt;Node12</title>
<path fill="none" stroke="#191970" d="M304.9407,-236.5097C321.4793,-234.2956 339.2122,-231.9215 355.823,-229.6977"/>
<polygon fill="#191970" stroke="#191970" points="356.5528,-233.1313 365.9999,-228.3352 355.6239,-226.1932 356.5528,-233.1313"/>
</g>
<!-- Node13 -->
<g id="node13" class="node">
<title>Node13</title>
<g id="a_node13"><a xlink:href="class_l_f_s_t_k__window_class_a636fbd200e6a7f105c67443254872aed.xhtml#a636fbd200e6a7f105c67443254872aed" target="_top" xlink:title=" ">
<polygon fill="none" stroke="#000000" points="366.243,-153.5 366.243,-185.5 482.806,-185.5 482.806,-153.5 366.243,-153.5"/>
<text text-anchor="start" x="374.243" y="-172.5" font-family="Helvetica,sans-Serif" font-size="10.00" fill="#000000">LFSTK_windowClass::</text>
<text text-anchor="middle" x="424.5245" y="-160.5" font-family="Helvetica,sans-Serif" font-size="10.00" fill="#000000">LFSTK_setTile</text>
</a>
</g>
</g>
<!-- Node2&#45;&gt;Node13 -->
<g id="edge14" class="edge">
<title>Node2&#45;&gt;Node13</title>
<path fill="none" stroke="#191970" d="M266.899,-229.4049C287.1786,-218.6094 315.077,-204.5766 340.678,-194.5 345.7134,-192.5181 350.9711,-190.6036 356.2917,-188.7762"/>
<polygon fill="#191970" stroke="#191970" points="357.5147,-192.0581 365.9023,-185.5852 355.3088,-185.4147 357.5147,-192.0581"/>
</g>
<!-- Node16 -->
<g id="node16" class="node">
<title>Node16</title>
<g id="a_node16"><a xlink:href="class_l_f_s_t_k__window_class_a8038fef8334f815d5ed841ceffb00601.xhtml#a8038fef8334f815d5ed841ceffb00601" target="_top" xlink:title=" ">
<polygon fill="none" stroke="#000000" points="362.628,-102.5 362.628,-134.5 486.421,-134.5 486.421,-102.5 362.628,-102.5"/>
<text text-anchor="start" x="370.628" y="-121.5" font-family="Helvetica,sans-Serif" font-size="10.00" fill="#000000">LFSTK_windowClass::</text>
<text text-anchor="middle" x="424.5245" y="-109.5" font-family="Helvetica,sans-Serif" font-size="10.00" fill="#000000">LFSTK_setWindowType</text>
</a>
</g>
</g>
<!-- Node2&#45;&gt;Node16 -->
<g id="edge17" class="edge">
<title>Node2&#45;&gt;Node16</title>
<path fill="none" stroke="#191970" d="M249.8988,-229.2246C267.4702,-206.7325 302.1715,-166.3425 340.678,-143.5 344.6054,-141.1702 348.7667,-139.0428 353.0528,-137.1025"/>
<polygon fill="#191970" stroke="#191970" points="354.6955,-140.2104 362.5927,-133.1474 352.0147,-133.744 354.6955,-140.2104"/>
</g>
<!-- Node17 -->
<g id="node17" class="node">
<title>Node17</title>
<g id="a_node17"><a xlink:href="class_l_f_s_t_k__window_class_a734d0f96ac656bd7b03e26da1c1db28c.xhtml#a734d0f96ac656bd7b03e26da1c1db28c" target="_top" xlink:title=" ">
<polygon fill="none" stroke="#000000" points="366.243,-51.5 366.243,-83.5 482.806,-83.5 482.806,-51.5 366.243,-51.5"/>
<text text-anchor="start" x="374.243" y="-70.5" font-family="Helvetica,sans-Serif" font-size="10.00" fill="#000000">LFSTK_windowClass::</text>
<text text-anchor="middle" x="424.5245" y="-58.5" font-family="Helvetica,sans-Serif" font-size="10.00" fill="#000000">loadMonitorData</text>
</a>
</g>
</g>
<!-- Node2&#45;&gt;Node17 -->
<g id="edge18" class="edge">
<title>Node2&#45;&gt;Node17</title>
<path fill="none" stroke="#191970" d="M244.1682,-229.3998C257.3616,-198.1897 290.6567,-129.2998 340.678,-92.5 345.5378,-88.9247 350.9079,-85.8571 356.5131,-83.2256"/>
<polygon fill="#191970" stroke="#191970" points="358.2516,-86.2918 366.1194,-79.1961 355.5439,-79.8367 358.2516,-86.2918"/>
</g>
<!-- Node18 -->
<g id="node18" class="node">
<title>Node18</title>
<g id="a_node18"><a xlink:href="class_l_f_s_t_k__window_class_ac8c342109a0f8599f550475cef048745.xhtml#ac8c342109a0f8599f550475cef048745" target="_top" xlink:title=" ">
<polygon fill="none" stroke="#000000" points="366.243,-.5 366.243,-32.5 482.806,-32.5 482.806,-.5 366.243,-.5"/>
<text text-anchor="start" x="374.243" y="-19.5" font-family="Helvetica,sans-Serif" font-size="10.00" fill="#000000">LFSTK_windowClass::</text>
<text text-anchor="middle" x="424.5245" y="-7.5" font-family="Helvetica,sans-Serif" font-size="10.00" fill="#000000">setWindowGeom</text>
</a>
</g>
</g>
<!-- Node2&#45;&gt;Node18 -->
<g id="edge19" class="edge">
<title>Node2&#45;&gt;Node18</title>
<path fill="none" stroke="#191970" d="M241.3195,-229.2487C250.5505,-190.688 279.0731,-93.0445 340.678,-41.5 345.4945,-37.47 350.9422,-34.0897 356.6916,-31.2542"/>
<polygon fill="#191970" stroke="#191970" points="358.1565,-34.4339 365.9272,-27.232 355.3614,-28.0161 358.1565,-34.4339"/>
</g>
<!-- Node4 -->
<g id="node4" class="node">
<title>Node4</title>
<g id="a_node4"><a xlink:href="class_l_f_s_t_k__window_class_aa1cdaa019a010bb17387dd39b6165303.xhtml#aa1cdaa019a010bb17387dd39b6165303" target="_top" xlink:title=" ">
<polygon fill="none" stroke="#000000" points="549.374,-384.5 549.374,-416.5 665.937,-416.5 665.937,-384.5 549.374,-384.5"/>
<text text-anchor="start" x="557.374" y="-403.5" font-family="Helvetica,sans-Serif" font-size="10.00" fill="#000000">LFSTK_windowClass::</text>
<text text-anchor="middle" x="607.6555" y="-391.5" font-family="Helvetica,sans-Serif" font-size="10.00" fill="#000000">loadGlobalColours</text>
</a>
</g>
</g>
<!-- Node3&#45;&gt;Node4 -->
<g id="edge3" class="edge">
<title>Node3&#45;&gt;Node4</title>
<path fill="none" stroke="#191970" d="M482.9718,-400.5C500.8127,-400.5 520.5922,-400.5 539.0426,-400.5"/>
<polygon fill="#191970" stroke="#191970" points="539.1354,-404.0001 549.1353,-400.5 539.1353,-397.0001 539.1354,-404.0001"/>
</g>
<!-- Node5 -->
<g id="node5" class="node">
<title>Node5</title>
<g id="a_node5"><a xlink:href="class_l_f_s_t_k__lib_a24d88a5207e8355d10b788238d981fe6.xhtml#a24d88a5207e8355d10b788238d981fe6" target="_top" xlink:title=" ">
<polygon fill="none" stroke="#000000" points="719.994,-435.5 719.994,-467.5 859.36,-467.5 859.36,-435.5 719.994,-435.5"/>
<text text-anchor="start" x="727.994" y="-454.5" font-family="Helvetica,sans-Serif" font-size="10.00" fill="#000000">LFSTK_lib::LFSTK_getAuto</text>
<text text-anchor="middle" x="789.677" y="-442.5" font-family="Helvetica,sans-Serif" font-size="10.00" fill="#000000">LabelColour</text>
</a>
</g>
</g>
<!-- Node4&#45;&gt;Node5 -->
<g id="edge4" class="edge">
<title>Node4&#45;&gt;Node5</title>
<path fill="none" stroke="#191970" d="M665.2482,-416.6367C683.519,-421.756 703.8765,-427.4598 722.746,-432.7468"/>
<polygon fill="#191970" stroke="#191970" points="721.8854,-436.1404 732.4589,-435.4683 723.7741,-429.4 721.8854,-436.1404"/>
</g>
<!-- Node4&#45;&gt;Node6 -->
<g id="edge5" class="edge">
<title>Node4&#45;&gt;Node6</title>
<path fill="none" stroke="#191970" d="M624.2492,-416.5131C642.9582,-433.7751 674.9583,-460.9901 706.94,-477.5 710.4401,-479.3068 714.0923,-481.006 717.8286,-482.6005"/>
<polygon fill="#191970" stroke="#191970" points="716.6652,-485.9045 727.2507,-486.3505 719.2538,-479.4007 716.6652,-485.9045"/>
</g>
<!-- Node7 -->
<g id="node7" class="node">
<title>Node7</title>
<g id="a_node7"><a xlink:href="class_l_f_s_t_k__window_class_a3a14b82ac1628b75173c5cb37d20926b.xhtml#a3a14b82ac1628b75173c5cb37d20926b" target="_top" xlink:title=" ">
<polygon fill="none" stroke="#000000" points="718.613,-384.5 718.613,-416.5 860.741,-416.5 860.741,-384.5 718.613,-384.5"/>
<text text-anchor="start" x="726.613" y="-403.5" font-family="Helvetica,sans-Serif" font-size="10.00" fill="#000000">LFSTK_windowClass::</text>
<text text-anchor="middle" x="789.677" y="-391.5" font-family="Helvetica,sans-Serif" font-size="10.00" fill="#000000">LFSTK_setFontColourName</text>
</a>
</g>
</g>
<!-- Node4&#45;&gt;Node7 -->
<g id="edge6" class="edge">
<title>Node4&#45;&gt;Node7</title>
<path fill="none" stroke="#191970" d="M665.9993,-400.5C679.4711,-400.5 694.044,-400.5 708.2981,-400.5"/>
<polygon fill="#191970" stroke="#191970" points="708.6007,-404.0001 718.6007,-400.5 708.6007,-397.0001 708.6007,-404.0001"/>
</g>
<!-- Node4&#45;&gt;Node8 -->
<g id="edge7" class="edge">
<title>Node4&#45;&gt;Node8</title>
<path fill="none" stroke="#191970" d="M647.4229,-384.3599C655.6085,-380.1422 663.8764,-375.1629 670.94,-369.5 690.9234,-353.4793 685.8049,-338.9675 706.94,-324.5 711.5215,-321.3638 716.4998,-318.5917 721.6656,-316.1437"/>
<polygon fill="#191970" stroke="#191970" points="723.3162,-319.2439 731.1211,-312.0791 720.5517,-312.8129 723.3162,-319.2439"/>
</g>
<!-- Node9 -->
<g id="node9" class="node">
<title>Node9</title>
<g id="a_node9"><a xlink:href="class_l_f_s_t_k__window_class_a612850c5641e44aea8a2c0b11ad8cd1b.xhtml#a612850c5641e44aea8a2c0b11ad8cd1b" target="_top" xlink:title=" ">
<polygon fill="none" stroke="#000000" points="710.839,-333.5 710.839,-365.5 868.515,-365.5 868.515,-333.5 710.839,-333.5"/>
<text text-anchor="start" x="718.839" y="-352.5" font-family="Helvetica,sans-Serif" font-size="10.00" fill="#000000">LFSTK_windowClass::</text>
<text text-anchor="middle" x="789.677" y="-340.5" font-family="Helvetica,sans-Serif" font-size="10.00" fill="#000000">LFSTK_setWindowColourName</text>
</a>
</g>
</g>
<!-- Node4&#45;&gt;Node9 -->
<g id="edge8" class="edge">
<title>Node4&#45;&gt;Node9</title>
<path fill="none" stroke="#191970" d="M665.2482,-384.3633C683.519,-379.244 703.8765,-373.5402 722.746,-368.2532"/>
<polygon fill="#191970" stroke="#191970" points="723.7741,-371.6 732.4589,-365.5317 721.8854,-364.8596 723.7741,-371.6"/>
</g>
<!-- Node14 -->
<g id="node14" class="node">
<title>Node14</title>
<g id="a_node14"><a xlink:href="class_l_f_s_t_k__lib_ad794f7ab3a4ca5a03adbb0472fa93788.xhtml#ad794f7ab3a4ca5a03adbb0472fa93788" target="_top" xlink:title=" ">
<polygon fill="none" stroke="#000000" points="544.371,-147.5 544.371,-191.5 670.94,-191.5 670.94,-147.5 544.371,-147.5"/>
<text text-anchor="start" x="552.371" y="-178.5" font-family="Helvetica,sans-Serif" font-size="10.00" fill="#000000">LFSTK_lib::LFSTK_cairo</text>
<text text-anchor="start" x="552.371" y="-166.5" font-family="Helvetica,sans-Serif" font-size="10.00" fill="#000000">_image_surface_create</text>
<text text-anchor="middle" x="607.6555" y="-154.5" font-family="Helvetica,sans-Serif" font-size="10.00" fill="#000000">_from_jpeg</text>
</a>
</g>
</g>
<!-- Node13&#45;&gt;Node14 -->
<g id="edge15" class="edge">
<title>Node13&#45;&gt;Node14</title>
<path fill="none" stroke="#191970" d="M482.9718,-169.5C499.0953,-169.5 516.8022,-169.5 533.6805,-169.5"/>
<polygon fill="#191970" stroke="#191970" points="534.061,-173.0001 544.0609,-169.5 534.0609,-166.0001 534.061,-173.0001"/>
</g>
<!-- Node15 -->
<g id="node15" class="node">
<title>Node15</title>
<g id="a_node15"><a xlink:href="class_l_f_s_t_k__lib_a6beac3954823730f63c32a97949db52a.xhtml#a6beac3954823730f63c32a97949db52a" target="_top" xlink:title=" ">
<polygon fill="none" stroke="#000000" points="706.94,-153.5 706.94,-185.5 872.414,-185.5 872.414,-153.5 706.94,-153.5"/>
<text text-anchor="start" x="714.94" y="-172.5" font-family="Helvetica,sans-Serif" font-size="10.00" fill="#000000">LFSTK_lib::cairo_image</text>
<text text-anchor="middle" x="789.677" y="-160.5" font-family="Helvetica,sans-Serif" font-size="10.00" fill="#000000">_surface_create_from_jpeg_mem</text>
</a>
</g>
</g>
<!-- Node14&#45;&gt;Node15 -->
<g id="edge16" class="edge">
<title>Node14&#45;&gt;Node15</title>
<path fill="none" stroke="#191970" d="M671.0623,-169.5C679.3216,-169.5 687.9159,-169.5 696.5357,-169.5"/>
<polygon fill="#191970" stroke="#191970" points="696.6478,-173.0001 706.6478,-169.5 696.6477,-166.0001 696.6478,-173.0001"/>
</g>
</g>
</svg>
