<?xml version="1.0" encoding="UTF-8" standalone="no"?>
<!DOCTYPE svg PUBLIC "-//W3C//DTD SVG 1.1//EN"
 "http://www.w3.org/Graphics/SVG/1.1/DTD/svg11.dtd">
<!-- Generated by graphviz version 2.40.1 (20161225.0304)
 -->
<!-- Title: LFSTK_gadgetClass Pages: 1 -->
<svg width="692pt" height="344pt"
 viewBox="0.00 0.00 692.18 344.00" xmlns="http://www.w3.org/2000/svg" xmlns:xlink="http://www.w3.org/1999/xlink">
<g id="graph0" class="graph" transform="scale(1 1) rotate(0) translate(4 340)">
<title>LFSTK_gadgetClass</title>
<!-- Node1 -->
<g id="node1" class="node">
<title>Node1</title>
<g id="a_node1"><a xlink:title="Base class for LFSToolKit gadgets.">
<polygon fill="#bfbfbf" stroke="#000000" points="72.721,-81.5 72.721,-101.5 180.966,-101.5 180.966,-81.5 72.721,-81.5"/>
<text text-anchor="middle" x="126.8435" y="-88.5" font-family="Helvetica,sans-Serif" font-size="10.00" fill="#000000">LFSTK_gadgetClass</text>
</a>
</g>
</g>
<!-- Node6 -->
<g id="node6" class="node">
<title>Node6</title>
<g id="a_node6"><a xlink:href="class_l_f_s_t_k__window_class.xhtml" target="_top" xlink:title="Window class for LFSToolKit.">
<polygon fill="none" stroke="#000000" points="298.341,-.5 298.341,-20.5 409.346,-20.5 409.346,-.5 298.341,-.5"/>
<text text-anchor="middle" x="353.8435" y="-7.5" font-family="Helvetica,sans-Serif" font-size="10.00" fill="#000000">LFSTK_windowClass</text>
</a>
</g>
</g>
<!-- Node1&#45;&gt;Node6 -->
<g id="edge9" class="edge">
<title>Node1&#45;&gt;Node6</title>
<path fill="none" stroke="#9a32cd" stroke-dasharray="5,2" d="M110.1079,-73.0748C102.2546,-62.1733 96.3166,-48.6542 104.9285,-39 117.56,-24.8397 228.6256,-16.7418 298.0629,-13.0209"/>
<polygon fill="#9a32cd" stroke="#9a32cd" points="107.5863,-75.5248 116.5753,-81.1326 113.0454,-71.1431 107.5863,-75.5248"/>
<text text-anchor="middle" x="147.801" y="-54" font-family="Helvetica,sans-Serif" font-size="10.00" fill="#000000"> dropGadget</text>
<text text-anchor="middle" x="147.801" y="-42" font-family="Helvetica,sans-Serif" font-size="10.00" fill="#000000">popupFromGadget</text>
</g>
<!-- Node11 -->
<g id="node11" class="node">
<title>Node11</title>
<g id="a_node11"><a xlink:href="structmapped_listener.xhtml" target="_top" xlink:title=" ">
<polygon fill="none" stroke="#000000" points="0,-.5 0,-20.5 87.687,-20.5 87.687,-.5 0,-.5"/>
<text text-anchor="middle" x="43.8435" y="-7.5" font-family="Helvetica,sans-Serif" font-size="10.00" fill="#000000">mappedListener</text>
</a>
</g>
</g>
<!-- Node1&#45;&gt;Node11 -->
<g id="edge15" class="edge">
<title>Node1&#45;&gt;Node11</title>
<path fill="none" stroke="#9a32cd" stroke-dasharray="5,2" d="M62.614,-81.4178C42.765,-76.9052 24.5123,-70.8105 18.4905,-63 11.9776,-54.5525 14.6979,-48.9696 18.4905,-39 21.1748,-31.9438 26.496,-25.5204 31.5733,-20.5655"/>
<polygon fill="#9a32cd" stroke="#9a32cd" points="61.9305,-84.8506 72.4397,-83.5066 63.3861,-78.0036 61.9305,-84.8506"/>
<text text-anchor="middle" x="35.52" y="-48" font-family="Helvetica,sans-Serif" font-size="10.00" fill="#000000"> gadget</text>
</g>
<!-- Node2 -->
<g id="node2" class="node">
<title>Node2</title>
<g id="a_node2"><a xlink:href="structgadget_struct.xhtml" target="_top" xlink:title=" ">
<polygon fill="none" stroke="#000000" points="205.499,-158 205.499,-178 278.188,-178 278.188,-158 205.499,-158"/>
<text text-anchor="middle" x="241.8435" y="-165" font-family="Helvetica,sans-Serif" font-size="10.00" fill="#000000">gadgetStruct</text>
</a>
</g>
</g>
<!-- Node2&#45;&gt;Node1 -->
<g id="edge1" class="edge">
<title>Node2&#45;&gt;Node1</title>
<path fill="none" stroke="#9a32cd" stroke-dasharray="5,2" d="M218.3467,-152.3695C195.4545,-137.1412 161.3402,-114.4478 141.8814,-101.5035"/>
<polygon fill="#9a32cd" stroke="#9a32cd" points="216.5446,-155.3744 226.8093,-157.999 220.4217,-149.5461 216.5446,-155.3744"/>
<text text-anchor="middle" x="216.797" y="-123" font-family="Helvetica,sans-Serif" font-size="10.00" fill="#000000"> gadgetDetails</text>
</g>
<!-- Node3 -->
<g id="node3" class="node">
<title>Node3</title>
<g id="a_node3"><a xlink:href="structgeometry_struct.xhtml" target="_top" xlink:title=" ">
<polygon fill="none" stroke="#000000" points="453.9495,-246.5 453.9495,-266.5 537.7375,-266.5 537.7375,-246.5 453.9495,-246.5"/>
<text text-anchor="middle" x="495.8435" y="-253.5" font-family="Helvetica,sans-Serif" font-size="10.00" fill="#000000">geometryStruct</text>
</a>
</g>
</g>
<!-- Node3&#45;&gt;Node1 -->
<g id="edge5" class="edge">
<title>Node3&#45;&gt;Node1</title>
<path fill="none" stroke="#9a32cd" stroke-dasharray="5,2" d="M496.8202,-235.8909C497.9552,-201.7152 497.9398,-135.5288 481.8435,-120 460.1254,-99.0476 240.8839,-104.8727 210.8435,-102 201.1876,-101.0766 190.9273,-99.9315 181.0161,-98.7402"/>
<polygon fill="#9a32cd" stroke="#9a32cd" points="493.3131,-236.0031 496.4127,-246.1343 500.3075,-236.2814 493.3131,-236.0031"/>
<text text-anchor="middle" x="526.133" y="-165" font-family="Helvetica,sans-Serif" font-size="10.00" fill="#000000"> gadgetGeom</text>
</g>
<!-- Node3&#45;&gt;Node2 -->
<g id="edge2" class="edge">
<title>Node3&#45;&gt;Node2</title>
<path fill="none" stroke="#9a32cd" stroke-dasharray="5,2" d="M454.4634,-243.2872C412.1281,-229.5952 344.5607,-207.2597 286.8435,-186 280.2111,-183.557 273.0862,-180.7792 266.5062,-178.1494"/>
<polygon fill="#9a32cd" stroke="#9a32cd" points="453.5491,-246.6698 464.1407,-246.4086 455.6979,-240.0078 453.5491,-246.6698"/>
<text text-anchor="middle" x="438.737" y="-219" font-family="Helvetica,sans-Serif" font-size="10.00" fill="#000000"> indicatorGeom</text>
<text text-anchor="middle" x="438.737" y="-207" font-family="Helvetica,sans-Serif" font-size="10.00" fill="#000000">gadgetGeom</text>
</g>
<!-- Node3&#45;&gt;Node6 -->
<g id="edge7" class="edge">
<title>Node3&#45;&gt;Node6</title>
<path fill="none" stroke="#9a32cd" stroke-dasharray="5,2" d="M542.1987,-242.9988C569.7334,-232.3233 602.3961,-214.3848 618.8435,-186 633.5652,-160.5934 628.8136,-146.3439 615.8435,-120 592.6511,-72.8932 576.9386,-62.2162 529.8435,-39 509.1598,-28.8037 452.9314,-20.8218 409.5413,-15.9308"/>
<polygon fill="#9a32cd" stroke="#9a32cd" points="540.893,-239.7497 532.7082,-246.4772 543.3019,-246.3221 540.893,-239.7497"/>
<text text-anchor="middle" x="652.513" y="-123" font-family="Helvetica,sans-Serif" font-size="10.00" fill="#000000"> windowGeom</text>
</g>
<!-- Node4 -->
<g id="node4" class="node">
<title>Node4</title>
<g id="a_node4"><a xlink:href="structcolour_struct.xhtml" target="_top" xlink:title=" ">
<polygon fill="none" stroke="#000000" points="207.1735,-246.5 207.1735,-266.5 276.5135,-266.5 276.5135,-246.5 207.1735,-246.5"/>
<text text-anchor="middle" x="241.8435" y="-253.5" font-family="Helvetica,sans-Serif" font-size="10.00" fill="#000000">colourStruct</text>
</a>
</g>
</g>
<!-- Node4&#45;&gt;Node1 -->
<g id="edge17" class="edge">
<title>Node4&#45;&gt;Node1</title>
<path fill="none" stroke="#9a32cd" stroke-dasharray="5,2" d="M197.4948,-243.7184C169.6195,-233.1306 135.8583,-215.0198 119.0575,-186 103.3864,-158.9316 115.266,-119.9883 122.433,-101.7073"/>
<polygon fill="#9a32cd" stroke="#9a32cd" points="196.4772,-247.0717 207.0717,-247.1552 198.8417,-240.4831 196.4772,-247.0717"/>
<text text-anchor="middle" x="158.7365" y="-177" font-family="Helvetica,sans-Serif" font-size="10.00" fill="#000000"> labelBGColour</text>
<text text-anchor="middle" x="158.7365" y="-165" font-family="Helvetica,sans-Serif" font-size="10.00" fill="#000000">colourNames</text>
<text text-anchor="middle" x="158.7365" y="-153" font-family="Helvetica,sans-Serif" font-size="10.00" fill="#000000">fontColourNames</text>
</g>
<!-- Node4&#45;&gt;Node2 -->
<g id="edge3" class="edge">
<title>Node4&#45;&gt;Node2</title>
<path fill="none" stroke="#9a32cd" stroke-dasharray="5,2" d="M241.8435,-236.1978C241.8435,-218.0125 241.8435,-192.1048 241.8435,-178.0337"/>
<polygon fill="#9a32cd" stroke="#9a32cd" points="238.3436,-236.3479 241.8435,-246.3479 245.3436,-236.348 238.3436,-236.3479"/>
<text text-anchor="middle" x="256.8455" y="-213" font-family="Helvetica,sans-Serif" font-size="10.00" fill="#000000"> colour</text>
</g>
<!-- Node4&#45;&gt;Node6 -->
<g id="edge11" class="edge">
<title>Node4&#45;&gt;Node6</title>
<path fill="none" stroke="#9a32cd" stroke-dasharray="5,2" d="M286.8076,-251.3988C318.7024,-246.8944 357.8836,-239.2718 369.8435,-228 401.3004,-198.3528 439.1683,-75.393 415.8435,-39 410.5378,-30.7216 402.1552,-24.8154 393.2486,-20.6133"/>
<polygon fill="#9a32cd" stroke="#9a32cd" points="286.1955,-247.9495 276.7519,-252.7524 287.1294,-254.887 286.1955,-247.9495"/>
<text text-anchor="middle" x="465.455" y="-123" font-family="Helvetica,sans-Serif" font-size="10.00" fill="#000000"> windowColourNames</text>
</g>
<!-- Node5 -->
<g id="node5" class="node">
<title>Node5</title>
<g id="a_node5"><a xlink:href="structcairo_color.xhtml" target="_top" xlink:title=" ">
<polygon fill="none" stroke="#000000" points="211.068,-315.5 211.068,-335.5 272.619,-335.5 272.619,-315.5 211.068,-315.5"/>
<text text-anchor="middle" x="241.8435" y="-322.5" font-family="Helvetica,sans-Serif" font-size="10.00" fill="#000000">cairoColor</text>
</a>
</g>
</g>
<!-- Node5&#45;&gt;Node4 -->
<g id="edge4" class="edge">
<title>Node5&#45;&gt;Node4</title>
<path fill="none" stroke="#9a32cd" stroke-dasharray="5,2" d="M241.8435,-305.2177C241.8435,-292.5684 241.8435,-276.8285 241.8435,-266.723"/>
<polygon fill="#9a32cd" stroke="#9a32cd" points="238.3436,-305.3188 241.8435,-315.3188 245.3436,-305.3188 238.3436,-305.3188"/>
<text text-anchor="middle" x="272.123" y="-288" font-family="Helvetica,sans-Serif" font-size="10.00" fill="#000000"> RGBAColour</text>
</g>
<!-- Node6&#45;&gt;Node1 -->
<g id="edge6" class="edge">
<title>Node6&#45;&gt;Node1</title>
<path fill="none" stroke="#9a32cd" stroke-dasharray="5,2" d="M288.4155,-20.5103C268.5715,-24.8154 247.0414,-30.8015 228.1715,-39 210.7619,-46.5641 209.4817,-53.8633 192.8435,-63 180.2625,-69.9087 165.6661,-76.3616 153.4038,-81.3741"/>
<polygon fill="#9a32cd" stroke="#9a32cd" points="289.2214,-23.9178 298.3081,-18.4696 287.8072,-17.0622 289.2214,-23.9178"/>
<text text-anchor="middle" x="253.6795" y="-54" font-family="Helvetica,sans-Serif" font-size="10.00" fill="#000000"> contextWC</text>
<text text-anchor="middle" x="253.6795" y="-42" font-family="Helvetica,sans-Serif" font-size="10.00" fill="#000000">wc</text>
</g>
<!-- Node7 -->
<g id="node7" class="node">
<title>Node7</title>
<g id="a_node7"><a xlink:href="structmonitor_struct.xhtml" target="_top" xlink:title=" ">
<polygon fill="none" stroke="#000000" points="220.1195,-81.5 220.1195,-101.5 295.5675,-101.5 295.5675,-81.5 220.1195,-81.5"/>
<text text-anchor="middle" x="257.8435" y="-88.5" font-family="Helvetica,sans-Serif" font-size="10.00" fill="#000000">monitorStruct</text>
</a>
</g>
</g>
<!-- Node7&#45;&gt;Node6 -->
<g id="edge8" class="edge">
<title>Node7&#45;&gt;Node6</title>
<path fill="none" stroke="#9a32cd" stroke-dasharray="5,2" d="M273.2306,-73.5953C282.864,-62.9219 295.8555,-49.4596 308.7315,-39 317.0725,-32.2243 327.1169,-25.7374 335.6085,-20.6688"/>
<polygon fill="#9a32cd" stroke="#9a32cd" points="270.5803,-71.3089 266.5759,-81.1178 275.8232,-75.947 270.5803,-71.3089"/>
<text text-anchor="middle" x="328.3995" y="-48" font-family="Helvetica,sans-Serif" font-size="10.00" fill="#000000"> monitors</text>
</g>
<!-- Node8 -->
<g id="node8" class="node">
<title>Node8</title>
<g id="a_node8"><a xlink:href="structdrop_data_struct.xhtml" target="_top" xlink:title=" ">
<polygon fill="none" stroke="#000000" points="313.225,-81.5 313.225,-101.5 396.462,-101.5 396.462,-81.5 313.225,-81.5"/>
<text text-anchor="middle" x="354.8435" y="-88.5" font-family="Helvetica,sans-Serif" font-size="10.00" fill="#000000">dropDataStruct</text>
</a>
</g>
</g>
<!-- Node8&#45;&gt;Node6 -->
<g id="edge10" class="edge">
<title>Node8&#45;&gt;Node6</title>
<path fill="none" stroke="#9a32cd" stroke-dasharray="5,2" d="M354.5928,-71.1972C354.3942,-55.1048 354.1249,-33.2944 353.9691,-20.6754"/>
<polygon fill="#9a32cd" stroke="#9a32cd" points="351.0936,-71.2853 354.7168,-81.2413 358.093,-71.1988 351.0936,-71.2853"/>
<text text-anchor="middle" x="384.1325" y="-48" font-family="Helvetica,sans-Serif" font-size="10.00" fill="#000000"> droppedData</text>
</g>
<!-- Node9 -->
<g id="node9" class="node">
<title>Node9</title>
<g id="a_node9"><a xlink:href="class_l_f_s_t_k__lib.xhtml" target="_top" xlink:title="Library of useful routines for LFSToolKit.">
<polygon fill="none" stroke="#000000" points="489.508,-81.5 489.508,-101.5 552.179,-101.5 552.179,-81.5 489.508,-81.5"/>
<text text-anchor="middle" x="520.8435" y="-88.5" font-family="Helvetica,sans-Serif" font-size="10.00" fill="#000000">LFSTK_lib</text>
</a>
</g>
</g>
<!-- Node9&#45;&gt;Node6 -->
<g id="edge12" class="edge">
<title>Node9&#45;&gt;Node6</title>
<path fill="none" stroke="#9a32cd" stroke-dasharray="5,2" d="M500.4298,-75.1378C485.4656,-63.7697 464.2785,-48.9355 443.8435,-39 428.2193,-31.4035 410.1035,-25.2116 394.2383,-20.5635"/>
<polygon fill="#9a32cd" stroke="#9a32cd" points="498.4204,-78.0085 508.4687,-81.3674 502.7082,-72.4755 498.4204,-78.0085"/>
<text text-anchor="middle" x="504.2385" y="-48" font-family="Helvetica,sans-Serif" font-size="10.00" fill="#000000"> globalLib</text>
</g>
<!-- Node10 -->
<g id="node10" class="node">
<title>Node10</title>
<g id="a_node10"><a xlink:href="structargs.xhtml" target="_top" xlink:title=" ">
<polygon fill="none" stroke="#000000" points="574.12,-158 574.12,-178 609.567,-178 609.567,-158 574.12,-158"/>
<text text-anchor="middle" x="591.8435" y="-165" font-family="Helvetica,sans-Serif" font-size="10.00" fill="#000000">args</text>
</a>
</g>
</g>
<!-- Node10&#45;&gt;Node9 -->
<g id="edge13" class="edge">
<title>Node10&#45;&gt;Node9</title>
<path fill="none" stroke="#9a32cd" stroke-dasharray="5,2" d="M565.9371,-152.6264C554.3505,-145.3638 542.3415,-137.173 538.0595,-132 530.6545,-123.0542 525.9736,-110.4537 523.3925,-101.6922"/>
<polygon fill="#9a32cd" stroke="#9a32cd" points="564.2271,-155.6835 574.5802,-157.9339 567.8901,-149.7184 564.2271,-155.6835"/>
<text text-anchor="middle" x="576.7355" y="-123" font-family="Helvetica,sans-Serif" font-size="10.00" fill="#000000"> lfsToolKitGlobals</text>
</g>
<!-- Node11&#45;&gt;Node1 -->
<g id="edge14" class="edge">
<title>Node11&#45;&gt;Node1</title>
<path fill="none" stroke="#9a32cd" stroke-dasharray="5,2" d="M51.1489,-29.9336C55.9472,-40.6952 63.0893,-53.7294 72.5165,-63 80.3384,-70.692 90.6606,-76.8079 100.2049,-81.3708"/>
<polygon fill="#9a32cd" stroke="#9a32cd" points="54.3123,-28.4236 47.2686,-20.5092 47.8395,-31.0887 54.3123,-28.4236"/>
<text text-anchor="middle" x="79.507" y="-48" font-family="Helvetica,sans-Serif" font-size="10.00" fill="#000000"> ml</text>
</g>
<!-- Node12 -->
<g id="node12" class="node">
<title>Node12</title>
<g id="a_node12"><a xlink:href="structbutton_c_b.xhtml" target="_top" xlink:title=" ">
<polygon fill="none" stroke="#000000" points="296.0025,-158 296.0025,-178 353.6845,-178 353.6845,-158 296.0025,-158"/>
<text text-anchor="middle" x="324.8435" y="-165" font-family="Helvetica,sans-Serif" font-size="10.00" fill="#000000">buttonCB</text>
</a>
</g>
</g>
<!-- Node12&#45;&gt;Node1 -->
<g id="edge16" class="edge">
<title>Node12&#45;&gt;Node1</title>
<path fill="none" stroke="#9a32cd" stroke-dasharray="5,2" d="M304.1416,-151.2168C290.3535,-140.8169 271.4175,-127.9676 252.8435,-120 230.2742,-110.3185 203.9596,-103.705 181.233,-99.3061"/>
<polygon fill="#9a32cd" stroke="#9a32cd" points="302.3557,-154.2608 312.4035,-157.6213 306.6444,-148.7284 302.3557,-154.2608"/>
<text text-anchor="middle" x="293.2905" y="-123" font-family="Helvetica,sans-Serif" font-size="10.00" fill="#000000"> callback</text>
</g>
</g>
</svg>
