<?xml version="1.0" encoding="UTF-8" standalone="no"?>
<!DOCTYPE svg PUBLIC "-//W3C//DTD SVG 1.1//EN"
 "http://www.w3.org/Graphics/SVG/1.1/DTD/svg11.dtd">
<!-- Generated by graphviz version 2.40.1 (20161225.0304)
 -->
<!-- Title: LFSTK_lib::LFSTK_setCairoSurface Pages: 1 -->
<!--zoomable 820 -->
<svg id="main" version="1.1" xmlns="http://www.w3.org/2000/svg" xmlns:xlink="http://www.w3.org/1999/xlink" xml:space="preserve" onload="init(evt)">
<style type="text/css"><![CDATA[
.edge:hover path { stroke: red; }
.edge:hover polygon { stroke: red; fill: red; }
]]></style>
<script type="text/javascript"><![CDATA[
var edges = document.getElementsByTagName('g');
if (edges && edges.length) {
  for (var i=0;i<edges.length;i++) {
    if (edges[i].id.substr(0,4)=='edge') {
      edges[i].setAttribute('class','edge');
    }
  }
}
]]></script>
        <defs>
                <circle id="rim" cx="0" cy="0" r="7"/>
                <circle id="rim2" cx="0" cy="0" r="3.5"/>
                <g id="zoomPlus">
                        <use xlink:href="#rim" fill="#404040">
                                <set attributeName="fill" to="#808080" begin="zoomplus.mouseover" end="zoomplus.mouseout"/>
                        </use>
                        <path d="M-4,0h8M0,-4v8" fill="none" stroke="white" stroke-width="1.5" pointer-events="none"/>
                </g>
                <g id="zoomMin">
                        <use xlink:href="#rim" fill="#404040">
                                <set attributeName="fill" to="#808080" begin="zoomminus.mouseover" end="zoomminus.mouseout"/>
                        </use>
                        <path d="M-4,0h8" fill="none" stroke="white" stroke-width="1.5" pointer-events="none"/>
                </g>
                <g id="dirArrow">
                        <path fill="none" stroke="white" stroke-width="1.5" d="M0,-3.0v7 M-2.5,-0.5L0,-3.0L2.5,-0.5"/>
                </g>
               <g id="resetDef">
                       <use xlink:href="#rim2" fill="#404040">
                               <set attributeName="fill" to="#808080" begin="reset.mouseover" end="reset.mouseout"/>
                       </use>
               </g>
        </defs>

<script type="text/javascript">
var viewWidth = 885;
var viewHeight = 820;
var sectionId = 'dynsection-0';
</script>
<script xlink:href="svgpan.js"/>
<svg id="graph" class="graph">
<g id="viewport">
<title>LFSTK_lib::LFSTK_setCairoSurface</title>
<!-- Node1 -->
<g id="node1" class="node">
<title>Node1</title>
<g id="a_node1"><a xlink:title=" ">
<polygon fill="#bfbfbf" stroke="#000000" points="734.77,-318.5 734.77,-350.5 876.896,-350.5 876.896,-318.5 734.77,-318.5"/>
<text text-anchor="start" x="742.77" y="-337.5" font-family="Helvetica,sans-Serif" font-size="10.00" fill="#000000">LFSTK_lib::LFSTK_setCairo</text>
<text text-anchor="middle" x="805.833" y="-325.5" font-family="Helvetica,sans-Serif" font-size="10.00" fill="#000000">Surface</text>
</a>
</g>
</g>
<!-- Node2 -->
<g id="node2" class="node">
<title>Node2</title>
<g id="a_node2"><a xlink:href="class_l_f_s_t_k__button_class_a2b46d2136069e61fc8c8ee88519b2a8f.xhtml#a2b46d2136069e61fc8c8ee88519b2a8f" target="_top" xlink:title=" ">
<polygon fill="none" stroke="#000000" points="15.273,-691.5 15.273,-723.5 126.296,-723.5 126.296,-691.5 15.273,-691.5"/>
<text text-anchor="start" x="23.273" y="-710.5" font-family="Helvetica,sans-Serif" font-size="10.00" fill="#000000">LFSTK_buttonClass::</text>
<text text-anchor="middle" x="70.7845" y="-698.5" font-family="Helvetica,sans-Serif" font-size="10.00" fill="#000000">LFSTK_buttonClass</text>
</a>
</g>
</g>
<!-- Node1&#45;&gt;Node2 -->
<g id="edge1" class="edge">
<title>Node1&#45;&gt;Node2</title>
<path fill="none" stroke="#191970" d="M800.8714,-360.6205C786.8397,-431.8689 744.8855,-627.2117 698.77,-671.5 539.2735,-824.6769 239.1713,-758.0486 120.7039,-723.5101"/>
<polygon fill="#191970" stroke="#191970" points="804.3338,-361.1507 802.8084,-350.6662 797.4627,-359.8136 804.3338,-361.1507"/>
</g>
<!-- Node3 -->
<g id="node3" class="node">
<title>Node3</title>
<g id="a_node3"><a xlink:href="class_l_f_s_t_k__font_dialog_class_ab7b6a4bca99713646ab6ac77dc34827c.xhtml#ab7b6a4bca99713646ab6ac77dc34827c" target="_top" xlink:title=" ">
<polygon fill="none" stroke="#000000" points="6.665,-478.5 6.665,-510.5 134.904,-510.5 134.904,-478.5 6.665,-478.5"/>
<text text-anchor="start" x="14.665" y="-497.5" font-family="Helvetica,sans-Serif" font-size="10.00" fill="#000000">LFSTK_fontDialogClass</text>
<text text-anchor="middle" x="70.7845" y="-485.5" font-family="Helvetica,sans-Serif" font-size="10.00" fill="#000000">::LFSTK_fontDialogClass</text>
</a>
</g>
</g>
<!-- Node1&#45;&gt;Node3 -->
<g id="edge2" class="edge">
<title>Node1&#45;&gt;Node3</title>
<path fill="none" stroke="#191970" d="M766.2011,-355.0695C746.3938,-364.6197 721.7926,-375.404 698.77,-382.5 498.2171,-444.3142 250.4738,-475.9845 135.2963,-488.2671"/>
<polygon fill="#191970" stroke="#191970" points="767.7879,-358.1896 775.2258,-350.6445 764.7062,-351.9045 767.7879,-358.1896"/>
</g>
<!-- Node4 -->
<g id="node4" class="node">
<title>Node4</title>
<g id="a_node4"><a xlink:href="class_l_f_s_t_k__menu_class_ab0166acfb8cc61552fca162f1516ca14.xhtml#ab0166acfb8cc61552fca162f1516ca14" target="_top" xlink:title=" ">
<polygon fill="none" stroke="#000000" points="559.42,-465.5 559.42,-497.5 698.77,-497.5 698.77,-465.5 559.42,-465.5"/>
<text text-anchor="start" x="567.42" y="-484.5" font-family="Helvetica,sans-Serif" font-size="10.00" fill="#000000">LFSTK_menuClass::LFSTK</text>
<text text-anchor="middle" x="629.095" y="-472.5" font-family="Helvetica,sans-Serif" font-size="10.00" fill="#000000">_getTextWidthForFont</text>
</a>
</g>
</g>
<!-- Node1&#45;&gt;Node4 -->
<g id="edge3" class="edge">
<title>Node1&#45;&gt;Node4</title>
<path fill="none" stroke="#191970" d="M788.269,-358.7562C768.7634,-384.3078 735.1888,-424.3884 698.77,-450.5 690.8078,-456.2088 681.6269,-461.2074 672.5971,-465.4295"/>
<polygon fill="#191970" stroke="#191970" points="791.1211,-360.7867 794.3283,-350.689 785.5241,-356.5827 791.1211,-360.7867"/>
</g>
<!-- Node7 -->
<g id="node7" class="node">
<title>Node7</title>
<g id="a_node7"><a xlink:href="class_l_f_s_t_k__window_class_a10d93c702923f9d1528b43fc5010b858.xhtml#a10d93c702923f9d1528b43fc5010b858" target="_top" xlink:title=" ">
<polygon fill="none" stroke="#000000" points="374.612,-644.5 374.612,-676.5 523.42,-676.5 523.42,-644.5 374.612,-644.5"/>
<text text-anchor="start" x="382.612" y="-663.5" font-family="Helvetica,sans-Serif" font-size="10.00" fill="#000000">LFSTK_windowClass::</text>
<text text-anchor="middle" x="449.016" y="-651.5" font-family="Helvetica,sans-Serif" font-size="10.00" fill="#000000">LFSTK_handleWindowEvents</text>
</a>
</g>
</g>
<!-- Node1&#45;&gt;Node7 -->
<g id="edge6" class="edge">
<title>Node1&#45;&gt;Node7</title>
<path fill="none" stroke="#191970" d="M801.7849,-360.789C792.6719,-411.0116 765.8506,-520.9749 698.77,-581.5 650.4017,-625.1415 577.9616,-644.6784 523.5345,-653.4222"/>
<polygon fill="#191970" stroke="#191970" points="805.2672,-361.1905 803.5138,-350.7418 798.3686,-360.0033 805.2672,-361.1905"/>
</g>
<!-- Node12 -->
<g id="node12" class="node">
<title>Node12</title>
<g id="a_node12"><a xlink:href="class_l_f_s_t_k__image_class_aff24b6452cb0a5d821b81770aa8f58d5.xhtml#aff24b6452cb0a5d821b81770aa8f58d5" target="_top" xlink:title=" ">
<polygon fill="none" stroke="#000000" points="0,-566.5 0,-598.5 141.569,-598.5 141.569,-566.5 0,-566.5"/>
<text text-anchor="start" x="8" y="-585.5" font-family="Helvetica,sans-Serif" font-size="10.00" fill="#000000">LFSTK_imageClass::LFSTK</text>
<text text-anchor="middle" x="70.7845" y="-573.5" font-family="Helvetica,sans-Serif" font-size="10.00" fill="#000000">_imageClass</text>
</a>
</g>
</g>
<!-- Node1&#45;&gt;Node12 -->
<g id="edge12" class="edge">
<title>Node1&#45;&gt;Node12</title>
<path fill="none" stroke="#191970" d="M803.6878,-361.0371C797.6759,-417.9314 775.6739,-552.552 698.77,-627.5 615.1608,-708.9828 284.9921,-739.2189 177.569,-693.5 132.0499,-674.1272 96.5539,-624.7864 80.3659,-598.9078"/>
<polygon fill="#191970" stroke="#191970" points="807.2052,-361.0268 804.6885,-350.7353 800.238,-360.35 807.2052,-361.0268"/>
</g>
<!-- Node13 -->
<g id="node13" class="node">
<title>Node13</title>
<g id="a_node13"><a xlink:href="class_l_f_s_t_k__label_class_a6085feaa122a3d1060351c659889628c.xhtml#a6085feaa122a3d1060351c659889628c" target="_top" xlink:title=" ">
<polygon fill="none" stroke="#000000" points="3.055,-427.5 3.055,-459.5 138.514,-459.5 138.514,-427.5 3.055,-427.5"/>
<text text-anchor="start" x="11.055" y="-446.5" font-family="Helvetica,sans-Serif" font-size="10.00" fill="#000000">LFSTK_labelClass::LFSTK</text>
<text text-anchor="middle" x="70.7845" y="-434.5" font-family="Helvetica,sans-Serif" font-size="10.00" fill="#000000">_labelClass</text>
</a>
</g>
</g>
<!-- Node1&#45;&gt;Node13 -->
<g id="edge13" class="edge">
<title>Node1&#45;&gt;Node13</title>
<path fill="none" stroke="#191970" d="M724.685,-351.6051C715.9489,-353.3181 707.1822,-354.9826 698.77,-356.5 539.3491,-385.256 499.1373,-390.7385 338.612,-412.5 270.6595,-421.7119 192.7704,-430.5326 138.5712,-436.3931"/>
<polygon fill="#191970" stroke="#191970" points="725.3865,-355.0342 734.5147,-349.6558 724.0249,-348.1679 725.3865,-355.0342"/>
</g>
<!-- Node14 -->
<g id="node14" class="node">
<title>Node14</title>
<g id="a_node14"><a xlink:href="class_l_f_s_t_k__line_edit_class_af610951625203a6d75bce118b2b94386.xhtml#af610951625203a6d75bce118b2b94386" target="_top" xlink:title=" ">
<polygon fill="none" stroke="#000000" points="12.779,-376.5 12.779,-408.5 128.79,-408.5 128.79,-376.5 12.779,-376.5"/>
<text text-anchor="start" x="20.779" y="-395.5" font-family="Helvetica,sans-Serif" font-size="10.00" fill="#000000">LFSTK_lineEditClass</text>
<text text-anchor="middle" x="70.7845" y="-383.5" font-family="Helvetica,sans-Serif" font-size="10.00" fill="#000000">::LFSTK_lineEditClass</text>
</a>
</g>
</g>
<!-- Node1&#45;&gt;Node14 -->
<g id="edge14" class="edge">
<title>Node1&#45;&gt;Node14</title>
<path fill="none" stroke="#191970" d="M724.4681,-338.3917C579.2808,-345.5297 281.0855,-361.1188 177.569,-373.5 161.6766,-375.4008 144.5654,-378.134 128.7967,-380.9373"/>
<polygon fill="#191970" stroke="#191970" points="724.8358,-341.878 734.6524,-337.8926 724.493,-334.8864 724.8358,-341.878"/>
</g>
<!-- Node15 -->
<g id="node15" class="node">
<title>Node15</title>
<g id="a_node15"><a xlink:href="class_l_f_s_t_k__list_gadget_class_ae3518016f28ec3cd261ad927c5691826.xhtml#ae3518016f28ec3cd261ad927c5691826" target="_top" xlink:title=" ">
<polygon fill="none" stroke="#000000" points="6.6645,-325.5 6.6645,-357.5 134.9045,-357.5 134.9045,-325.5 6.6645,-325.5"/>
<text text-anchor="start" x="14.6645" y="-344.5" font-family="Helvetica,sans-Serif" font-size="10.00" fill="#000000">LFSTK_listGadgetClass</text>
<text text-anchor="middle" x="70.7845" y="-332.5" font-family="Helvetica,sans-Serif" font-size="10.00" fill="#000000">::LFSTK_listGadgetClass</text>
</a>
</g>
</g>
<!-- Node1&#45;&gt;Node15 -->
<g id="edge15" class="edge">
<title>Node1&#45;&gt;Node15</title>
<path fill="none" stroke="#191970" d="M724.5099,-334.8677C604.7483,-335.4726 373.8942,-336.8803 177.569,-339.5 163.849,-339.6831 149.1382,-339.9274 135.1559,-340.1823"/>
<polygon fill="#191970" stroke="#191970" points="724.7124,-338.3668 734.6948,-334.8168 724.6774,-331.3669 724.7124,-338.3668"/>
</g>
<!-- Node16 -->
<g id="node16" class="node">
<title>Node16</title>
<g id="a_node16"><a xlink:href="class_l_f_s_t_k__menu_item_class_a382a9775dff59f06606ef0b3f43382cc.xhtml#a382a9775dff59f06606ef0b3f43382cc" target="_top" xlink:title=" ">
<polygon fill="none" stroke="#000000" points="6.944,-274.5 6.944,-306.5 134.625,-306.5 134.625,-274.5 6.944,-274.5"/>
<text text-anchor="start" x="14.944" y="-293.5" font-family="Helvetica,sans-Serif" font-size="10.00" fill="#000000">LFSTK_menuItemClass</text>
<text text-anchor="middle" x="70.7845" y="-281.5" font-family="Helvetica,sans-Serif" font-size="10.00" fill="#000000">::LFSTK_menuItemClass</text>
</a>
</g>
</g>
<!-- Node1&#45;&gt;Node16 -->
<g id="edge16" class="edge">
<title>Node1&#45;&gt;Node16</title>
<path fill="none" stroke="#191970" d="M724.3475,-329.6223C576.8378,-320.7923 268.4697,-302.3334 134.8291,-294.3337"/>
<polygon fill="#191970" stroke="#191970" points="724.4943,-333.1372 734.6856,-330.2411 724.9126,-326.1497 724.4943,-333.1372"/>
</g>
<!-- Node17 -->
<g id="node17" class="node">
<title>Node17</title>
<g id="a_node17"><a xlink:href="class_l_f_s_t_k__multi_line_edit_class_a3319d21c84b3437e69bb87dc77531322.xhtml#a3319d21c84b3437e69bb87dc77531322" target="_top" xlink:title=" ">
<polygon fill="none" stroke="#000000" points=".5565,-223.5 .5565,-255.5 141.0125,-255.5 141.0125,-223.5 .5565,-223.5"/>
<text text-anchor="start" x="8.5565" y="-242.5" font-family="Helvetica,sans-Serif" font-size="10.00" fill="#000000">LFSTK_multiLineEditClass</text>
<text text-anchor="middle" x="70.7845" y="-230.5" font-family="Helvetica,sans-Serif" font-size="10.00" fill="#000000">::LFSTK_multiLineEditClass</text>
</a>
</g>
</g>
<!-- Node1&#45;&gt;Node17 -->
<g id="edge17" class="edge">
<title>Node1&#45;&gt;Node17</title>
<path fill="none" stroke="#191970" d="M724.4004,-319.566C715.7582,-318.1253 707.0904,-316.7408 698.77,-315.5 497.0091,-285.4119 257.4193,-258.9747 141.1189,-246.731"/>
<polygon fill="#191970" stroke="#191970" points="724.0675,-323.0594 734.5114,-321.2777 725.236,-316.1576 724.0675,-323.0594"/>
</g>
<!-- Node18 -->
<g id="node18" class="node">
<title>Node18</title>
<g id="a_node18"><a xlink:href="class_l_f_s_t_k__window_class_abec54e421d2e094da2214abfccebd361.xhtml#abec54e421d2e094da2214abfccebd361" target="_top" xlink:title=" ">
<polygon fill="none" stroke="#000000" points="570.8135,-539.5 570.8135,-571.5 687.3765,-571.5 687.3765,-539.5 570.8135,-539.5"/>
<text text-anchor="start" x="578.8135" y="-558.5" font-family="Helvetica,sans-Serif" font-size="10.00" fill="#000000">LFSTK_windowClass::</text>
<text text-anchor="middle" x="629.095" y="-546.5" font-family="Helvetica,sans-Serif" font-size="10.00" fill="#000000">LFSTK_resizeWindow</text>
</a>
</g>
</g>
<!-- Node1&#45;&gt;Node18 -->
<g id="edge18" class="edge">
<title>Node1&#45;&gt;Node18</title>
<path fill="none" stroke="#191970" d="M794.348,-359.7912C777.2221,-395.5965 742.293,-461.787 698.77,-507.5 686.9194,-519.9469 671.3474,-531.0427 657.931,-539.4225"/>
<polygon fill="#191970" stroke="#191970" points="797.61,-361.0791 798.6986,-350.5403 791.2755,-358.1 797.61,-361.0791"/>
</g>
<!-- Node22 -->
<g id="node22" class="node">
<title>Node22</title>
<g id="a_node22"><a xlink:href="class_l_f_s_t_k__scroll_bar_class_a3da4281c24ac345ba32a4636ce2af38b.xhtml#a3da4281c24ac345ba32a4636ce2af38b" target="_top" xlink:title=" ">
<polygon fill="none" stroke="#000000" points="9.7285,-172.5 9.7285,-204.5 131.8405,-204.5 131.8405,-172.5 9.7285,-172.5"/>
<text text-anchor="start" x="17.7285" y="-191.5" font-family="Helvetica,sans-Serif" font-size="10.00" fill="#000000">LFSTK_scrollBarClass</text>
<text text-anchor="middle" x="70.7845" y="-179.5" font-family="Helvetica,sans-Serif" font-size="10.00" fill="#000000">::LFSTK_scrollBarClass</text>
</a>
</g>
</g>
<!-- Node1&#45;&gt;Node22 -->
<g id="edge34" class="edge">
<title>Node1&#45;&gt;Node22</title>
<path fill="none" stroke="#191970" d="M761.0382,-314.503C742.1277,-306.7011 719.6824,-298.2648 698.77,-292.5 495.0189,-236.3335 245.2131,-206.0438 131.8811,-194.3146"/>
<polygon fill="#191970" stroke="#191970" points="759.7205,-317.7457 770.2959,-318.3872 762.4288,-311.2908 759.7205,-317.7457"/>
</g>
<!-- Node23 -->
<g id="node23" class="node">
<title>Node23</title>
<g id="a_node23"><a xlink:href="class_l_f_s_t_k__toggle_button_class_a4cc0929a4d4113b9b40a3bdc54898ab7.xhtml#a4cc0929a4d4113b9b40a3bdc54898ab7" target="_top" xlink:title=" ">
<polygon fill="none" stroke="#000000" points="1.101,-121.5 1.101,-153.5 140.468,-153.5 140.468,-121.5 1.101,-121.5"/>
<text text-anchor="start" x="9.101" y="-140.5" font-family="Helvetica,sans-Serif" font-size="10.00" fill="#000000">LFSTK_toggleButtonClass</text>
<text text-anchor="middle" x="70.7845" y="-128.5" font-family="Helvetica,sans-Serif" font-size="10.00" fill="#000000">::LFSTK_toggleButtonClass</text>
</a>
</g>
</g>
<!-- Node1&#45;&gt;Node23 -->
<g id="edge36" class="edge">
<title>Node1&#45;&gt;Node23</title>
<path fill="none" stroke="#191970" d="M781.1505,-311.6598C760.6146,-293.92 729.8195,-270.1178 698.77,-256.5 508.23,-172.9324 259.9236,-147.9417 140.6832,-140.551"/>
<polygon fill="#191970" stroke="#191970" points="778.9456,-314.3818 788.7628,-318.3658 783.5728,-309.1292 778.9456,-314.3818"/>
</g>
<!-- Node24 -->
<g id="node24" class="node">
<title>Node24</title>
<g id="a_node24"><a xlink:href="class_l_f_s_t_k__gadget_class_a5e9d5e7c0f7d70d954451cafe91d6782.xhtml#a5e9d5e7c0f7d70d954451cafe91d6782" target="_top" xlink:title=" ">
<polygon fill="none" stroke="#000000" points="569.9685,-102.5 569.9685,-134.5 688.2215,-134.5 688.2215,-102.5 569.9685,-102.5"/>
<text text-anchor="start" x="577.9685" y="-121.5" font-family="Helvetica,sans-Serif" font-size="10.00" fill="#000000">LFSTK_gadgetClass::</text>
<text text-anchor="middle" x="629.095" y="-109.5" font-family="Helvetica,sans-Serif" font-size="10.00" fill="#000000">LFSTK_setGadgetSize</text>
</a>
</g>
</g>
<!-- Node1&#45;&gt;Node24 -->
<g id="edge35" class="edge">
<title>Node1&#45;&gt;Node24</title>
<path fill="none" stroke="#191970" d="M796.9203,-308.8187C782.1604,-269.6661 749.1758,-194.8272 698.77,-149.5 692.1741,-143.5687 684.2582,-138.6186 676.1651,-134.5425"/>
<polygon fill="#191970" stroke="#191970" points="793.7101,-310.2306 800.44,-318.4134 800.2819,-307.8198 793.7101,-310.2306"/>
</g>
<!-- Node25 -->
<g id="node25" class="node">
<title>Node25</title>
<g id="a_node25"><a xlink:href="class_l_f_s_t_k__tool_window_class_a230084a0461e204e39cea42ad1f10301.xhtml#a230084a0461e204e39cea42ad1f10301" target="_top" xlink:title=" ">
<polygon fill="none" stroke="#000000" points="562.2055,-51.5 562.2055,-83.5 695.9845,-83.5 695.9845,-51.5 562.2055,-51.5"/>
<text text-anchor="start" x="570.2055" y="-70.5" font-family="Helvetica,sans-Serif" font-size="10.00" fill="#000000">LFSTK_toolWindowClass</text>
<text text-anchor="middle" x="629.095" y="-58.5" font-family="Helvetica,sans-Serif" font-size="10.00" fill="#000000">::windowClassInitCommon</text>
</a>
</g>
</g>
<!-- Node1&#45;&gt;Node25 -->
<g id="edge37" class="edge">
<title>Node1&#45;&gt;Node25</title>
<path fill="none" stroke="#191970" d="M801.2816,-308.2958C791.4113,-259.1607 763.4977,-152.726 698.77,-92.5 695.1006,-89.0858 690.9322,-86.1317 686.502,-83.5767"/>
<polygon fill="#191970" stroke="#191970" points="797.9012,-309.2528 803.2196,-318.416 804.7762,-307.9362 797.9012,-309.2528"/>
</g>
<!-- Node27 -->
<g id="node27" class="node">
<title>Node27</title>
<g id="a_node27"><a xlink:href="class_l_f_s_t_k__window_class_a7d01ee5bb6c3fef9aa9b55323c04f90c.xhtml#a7d01ee5bb6c3fef9aa9b55323c04f90c" target="_top" xlink:title=" ">
<polygon fill="none" stroke="#000000" points="564.9845,-.5 564.9845,-32.5 693.2055,-32.5 693.2055,-.5 564.9845,-.5"/>
<text text-anchor="start" x="572.9845" y="-19.5" font-family="Helvetica,sans-Serif" font-size="10.00" fill="#000000">LFSTK_windowClass::</text>
<text text-anchor="middle" x="629.095" y="-7.5" font-family="Helvetica,sans-Serif" font-size="10.00" fill="#000000">windowClassInitCommon</text>
</a>
</g>
</g>
<!-- Node1&#45;&gt;Node27 -->
<g id="edge39" class="edge">
<title>Node1&#45;&gt;Node27</title>
<path fill="none" stroke="#191970" d="M803.5733,-308.0792C797.3374,-251.4125 774.9232,-117.2106 698.77,-41.5 695.3068,-38.0569 691.3365,-35.0851 687.086,-32.5206"/>
<polygon fill="#191970" stroke="#191970" points="800.1228,-308.7436 804.616,-318.3385 807.0869,-308.0358 800.1228,-308.7436"/>
</g>
<!-- Node5 -->
<g id="node5" class="node">
<title>Node5</title>
<g id="a_node5"><a xlink:href="class_l_f_s_t_k__menu_class_a063a1196c3267ebac0f6e2f118ad4647.xhtml#a063a1196c3267ebac0f6e2f118ad4647" target="_top" xlink:title=" ">
<polygon fill="none" stroke="#000000" points="379.341,-465.5 379.341,-497.5 518.691,-497.5 518.691,-465.5 379.341,-465.5"/>
<text text-anchor="start" x="387.341" y="-484.5" font-family="Helvetica,sans-Serif" font-size="10.00" fill="#000000">LFSTK_menuClass::LFSTK</text>
<text text-anchor="middle" x="449.016" y="-472.5" font-family="Helvetica,sans-Serif" font-size="10.00" fill="#000000">_addMainMenus</text>
</a>
</g>
</g>
<!-- Node4&#45;&gt;Node5 -->
<g id="edge4" class="edge">
<title>Node4&#45;&gt;Node5</title>
<path fill="none" stroke="#191970" d="M549.1822,-481.5C539.0737,-481.5 528.7927,-481.5 518.8577,-481.5"/>
<polygon fill="#191970" stroke="#191970" points="549.214,-485.0001 559.214,-481.5 549.214,-478.0001 549.214,-485.0001"/>
</g>
<!-- Node6 -->
<g id="node6" class="node">
<title>Node6</title>
<g id="a_node6"><a xlink:href="class_l_f_s_t_k__menu_item_class_ad2460aa76c71cb7ea548041e1ff858cf.xhtml#ad2460aa76c71cb7ea548041e1ff858cf" target="_top" xlink:title=" ">
<polygon fill="none" stroke="#000000" points="197.029,-549.5 197.029,-581.5 319.152,-581.5 319.152,-549.5 197.029,-549.5"/>
<text text-anchor="start" x="205.029" y="-568.5" font-family="Helvetica,sans-Serif" font-size="10.00" fill="#000000">LFSTK_menuItemClass</text>
<text text-anchor="middle" x="258.0905" y="-556.5" font-family="Helvetica,sans-Serif" font-size="10.00" fill="#000000">::mouseEnter</text>
</a>
</g>
</g>
<!-- Node4&#45;&gt;Node6 -->
<g id="edge5" class="edge">
<title>Node4&#45;&gt;Node6</title>
<path fill="none" stroke="#191970" d="M597.3023,-503.3786C585.3354,-511.739 571.6648,-521.4406 559.42,-530.5 543.1252,-542.5558 542.5042,-551.6694 523.42,-558.5 456.7156,-582.3746 374.4294,-580.0966 319.3383,-574.4682"/>
<polygon fill="#191970" stroke="#191970" points="599.4606,-506.1407 605.6701,-497.5563 595.4626,-500.3948 599.4606,-506.1407"/>
</g>
<!-- Node7&#45;&gt;Node6 -->
<g id="edge11" class="edge">
<title>Node7&#45;&gt;Node6</title>
<path fill="none" stroke="#191970" d="M392.5763,-639.9848C386.3091,-636.8396 380.1853,-633.3424 374.612,-629.5 355.4584,-616.295 358.2935,-603.9045 338.612,-591.5 332.6467,-587.7403 326.0875,-584.4764 319.367,-581.6546"/>
<polygon fill="#191970" stroke="#191970" points="391.276,-643.2412 401.8137,-644.3403 394.2614,-636.9097 391.276,-643.2412"/>
</g>
<!-- Node8 -->
<g id="node8" class="node">
<title>Node8</title>
<g id="a_node8"><a xlink:href="class_l_f_s_t_k__font_dialog_class_a14c5f93b43c729a1bcb8bebe141415f2.xhtml#a14c5f93b43c729a1bcb8bebe141415f2" target="_top" xlink:title=" ">
<polygon fill="none" stroke="#000000" points="196.75,-600.5 196.75,-632.5 319.431,-632.5 319.431,-600.5 196.75,-600.5"/>
<text text-anchor="start" x="204.75" y="-619.5" font-family="Helvetica,sans-Serif" font-size="10.00" fill="#000000">LFSTK_fontDialogClass</text>
<text text-anchor="middle" x="258.0905" y="-607.5" font-family="Helvetica,sans-Serif" font-size="10.00" fill="#000000">::LFSTK_showDialog</text>
</a>
</g>
</g>
<!-- Node7&#45;&gt;Node8 -->
<g id="edge7" class="edge">
<title>Node7&#45;&gt;Node8</title>
<path fill="none" stroke="#191970" d="M369.7797,-642.2395C353.0277,-638.3789 335.5889,-634.36 319.6091,-630.6773"/>
<polygon fill="#191970" stroke="#191970" points="369.0168,-645.6553 379.5474,-644.4905 370.5889,-638.8341 369.0168,-645.6553"/>
</g>
<!-- Node9 -->
<g id="node9" class="node">
<title>Node9</title>
<g id="a_node9"><a xlink:href="class_l_f_s_t_k__file_dialog_class_af77972b8a46616ba4c7bec555b2b0a14.xhtml#af77972b8a46616ba4c7bec555b2b0a14" target="_top" xlink:title=" ">
<polygon fill="none" stroke="#000000" points="195.086,-779.5 195.086,-811.5 321.095,-811.5 321.095,-779.5 195.086,-779.5"/>
<text text-anchor="start" x="203.086" y="-798.5" font-family="Helvetica,sans-Serif" font-size="10.00" fill="#000000">LFSTK_fileDialogClass</text>
<text text-anchor="middle" x="258.0905" y="-786.5" font-family="Helvetica,sans-Serif" font-size="10.00" fill="#000000">::LFSTK_showFileDialog</text>
</a>
</g>
</g>
<!-- Node7&#45;&gt;Node9 -->
<g id="edge8" class="edge">
<title>Node7&#45;&gt;Node9</title>
<path fill="none" stroke="#191970" d="M418.1362,-682.3346C379.7817,-709.4543 315.2379,-755.0921 281.0094,-779.2945"/>
<polygon fill="#191970" stroke="#191970" points="420.2202,-685.1476 426.3646,-676.5164 416.1788,-679.432 420.2202,-685.1476"/>
</g>
<!-- Node11 -->
<g id="node11" class="node">
<title>Node11</title>
<g id="a_node11"><a xlink:href="class_l_f_s_t_k__menu_class_ab847d4847ed01a7ff90c717a2cdb6dc5.xhtml#ab847d4847ed01a7ff90c717a2cdb6dc5" target="_top" xlink:title=" ">
<polygon fill="none" stroke="#000000" points="188.4155,-651.5 188.4155,-683.5 327.7655,-683.5 327.7655,-651.5 188.4155,-651.5"/>
<text text-anchor="start" x="196.4155" y="-670.5" font-family="Helvetica,sans-Serif" font-size="10.00" fill="#000000">LFSTK_menuClass::LFSTK</text>
<text text-anchor="middle" x="258.0905" y="-658.5" font-family="Helvetica,sans-Serif" font-size="10.00" fill="#000000">_showMenu</text>
</a>
</g>
</g>
<!-- Node7&#45;&gt;Node11 -->
<g id="edge10" class="edge">
<title>Node7&#45;&gt;Node11</title>
<path fill="none" stroke="#191970" d="M364.2683,-663.6071C352.1456,-664.0516 339.7895,-664.5046 327.9953,-664.937"/>
<polygon fill="#191970" stroke="#191970" points="364.5139,-667.1006 374.3789,-663.2365 364.2574,-660.1053 364.5139,-667.1006"/>
</g>
<!-- Node10 -->
<g id="node10" class="node">
<title>Node10</title>
<g id="a_node10"><a xlink:href="class_l_f_s_t_k__file_dialog_class_aacf1d4b61cbb5b40d06f591ea96f9ea7.xhtml#aacf1d4b61cbb5b40d06f591ea96f9ea7" target="_top" xlink:title=" ">
<polygon fill="none" stroke="#000000" points="7.78,-779.5 7.78,-811.5 133.789,-811.5 133.789,-779.5 7.78,-779.5"/>
<text text-anchor="start" x="15.78" y="-798.5" font-family="Helvetica,sans-Serif" font-size="10.00" fill="#000000">LFSTK_fileDialogClass</text>
<text text-anchor="middle" x="70.7845" y="-786.5" font-family="Helvetica,sans-Serif" font-size="10.00" fill="#000000">::LFSTK_showFileDialog</text>
</a>
</g>
</g>
<!-- Node9&#45;&gt;Node10 -->
<g id="edge9" class="edge">
<title>Node9&#45;&gt;Node10</title>
<path fill="none" stroke="#191970" d="M184.6496,-795.5C167.9046,-795.5 150.2544,-795.5 133.981,-795.5"/>
<polygon fill="#191970" stroke="#191970" points="184.9384,-799.0001 194.9384,-795.5 184.9383,-792.0001 184.9384,-799.0001"/>
</g>
<!-- Node18&#45;&gt;Node7 -->
<g id="edge33" class="edge">
<title>Node18&#45;&gt;Node7</title>
<path fill="none" stroke="#191970" d="M600.8659,-577.7947C580.1828,-593.4893 551.0176,-614.3216 523.42,-629.5 513.6108,-634.895 502.6663,-639.9455 492.254,-644.3399"/>
<polygon fill="#191970" stroke="#191970" points="603.1008,-580.4915 608.9056,-571.6284 598.8407,-574.9371 603.1008,-580.4915"/>
</g>
<!-- Node19 -->
<g id="node19" class="node">
<title>Node19</title>
<g id="a_node19"><a xlink:href="class_l_f_s_t_k__font_dialog_class_af866eb2b1ba8178c9cf3e751716fcc8e.xhtml#af866eb2b1ba8178c9cf3e751716fcc8e" target="_top" xlink:title=" ">
<polygon fill="none" stroke="#000000" points="196.75,-498.5 196.75,-530.5 319.431,-530.5 319.431,-498.5 196.75,-498.5"/>
<text text-anchor="start" x="204.75" y="-517.5" font-family="Helvetica,sans-Serif" font-size="10.00" fill="#000000">LFSTK_fontDialogClass</text>
<text text-anchor="middle" x="258.0905" y="-505.5" font-family="Helvetica,sans-Serif" font-size="10.00" fill="#000000">::buildDialog</text>
</a>
</g>
</g>
<!-- Node18&#45;&gt;Node19 -->
<g id="edge19" class="edge">
<title>Node18&#45;&gt;Node19</title>
<path fill="none" stroke="#191970" d="M560.5361,-565.1753C508.7463,-570.363 436.2932,-573.061 374.612,-558.5 357.202,-554.3901 355.1709,-547.2677 338.612,-540.5 330.0451,-536.9987 320.8182,-533.646 311.7749,-530.581"/>
<polygon fill="#191970" stroke="#191970" points="561.0333,-568.6423 570.6092,-564.109 560.2963,-561.6812 561.0333,-568.6423"/>
</g>
<!-- Node20 -->
<g id="node20" class="node">
<title>Node20</title>
<g id="a_node20"><a xlink:href="class_l_f_s_t_k__gadget_class_a2a450a6784d5743e14340cc8ebd05d15.xhtml#a2a450a6784d5743e14340cc8ebd05d15" target="_top" xlink:title=" ">
<polygon fill="none" stroke="#000000" points="392.1145,-516.5 392.1145,-548.5 505.9175,-548.5 505.9175,-516.5 392.1145,-516.5"/>
<text text-anchor="start" x="400.1145" y="-535.5" font-family="Helvetica,sans-Serif" font-size="10.00" fill="#000000">LFSTK_gadgetClass::</text>
<text text-anchor="middle" x="449.016" y="-523.5" font-family="Helvetica,sans-Serif" font-size="10.00" fill="#000000">LFSTK_doPopUp</text>
</a>
</g>
</g>
<!-- Node18&#45;&gt;Node20 -->
<g id="edge21" class="edge">
<title>Node18&#45;&gt;Node20</title>
<path fill="none" stroke="#191970" d="M560.4856,-546.7371C542.4872,-544.4383 523.2759,-541.9846 505.9613,-539.7731"/>
<polygon fill="#191970" stroke="#191970" points="560.2656,-550.2373 570.6285,-548.0326 561.1525,-543.2938 560.2656,-550.2373"/>
</g>
<!-- Node19&#45;&gt;Node3 -->
<g id="edge20" class="edge">
<title>Node19&#45;&gt;Node3</title>
<path fill="none" stroke="#191970" d="M186.1587,-506.8193C169.31,-505.0203 151.4687,-503.1152 134.9831,-501.3549"/>
<polygon fill="#191970" stroke="#191970" points="186.185,-510.3419 196.5001,-507.9236 186.9282,-503.3815 186.185,-510.3419"/>
</g>
<!-- Node21 -->
<g id="node21" class="node">
<title>Node21</title>
<g id="a_node21"><a xlink:href="class_l_f_s_t_k__lib_af01ab10da12946856ae6bc2a23414cf8.xhtml#af01ab10da12946856ae6bc2a23414cf8" target="_top" xlink:title=" ">
<polygon fill="none" stroke="#000000" points="177.569,-382.5 177.569,-402.5 338.612,-402.5 338.612,-382.5 177.569,-382.5"/>
<text text-anchor="middle" x="258.0905" y="-389.5" font-family="Helvetica,sans-Serif" font-size="10.00" fill="#000000">LFSTK_lib::LFSTK_gadgetEvent</text>
</a>
</g>
</g>
<!-- Node20&#45;&gt;Node21 -->
<g id="edge22" class="edge">
<title>Node20&#45;&gt;Node21</title>
<path fill="none" stroke="#191970" d="M382.8524,-512.1056C380.0152,-510.6595 377.2544,-509.1255 374.612,-507.5 326.4365,-477.8646 282.7492,-424.8127 265.683,-402.6572"/>
<polygon fill="#191970" stroke="#191970" points="381.5806,-515.3743 392.1228,-516.4287 384.539,-509.0302 381.5806,-515.3743"/>
</g>
<!-- Node21&#45;&gt;Node2 -->
<g id="edge23" class="edge">
<title>Node21&#45;&gt;Node2</title>
<path fill="none" stroke="#191970" d="M240.243,-409.541C222.1011,-427.7697 194.3459,-458.2953 177.569,-489.5 151.4032,-538.1681 165.9633,-558.9202 141.569,-608.5 125.9914,-640.1605 100.6152,-672.6436 84.8536,-691.4029"/>
<polygon fill="#191970" stroke="#191970" points="242.7053,-412.0285 247.3695,-402.5155 237.791,-407.0435 242.7053,-412.0285"/>
</g>
<!-- Node21&#45;&gt;Node3 -->
<g id="edge24" class="edge">
<title>Node21&#45;&gt;Node3</title>
<path fill="none" stroke="#191970" d="M236.9049,-408.8063C214.2579,-425.6726 176.8314,-451.9534 141.569,-469.5 135.1515,-472.6934 128.2243,-475.6685 121.3025,-478.3718"/>
<polygon fill="#191970" stroke="#191970" points="239.2221,-411.4427 245.1027,-402.6297 235.0097,-405.852 239.2221,-411.4427"/>
</g>
<!-- Node21&#45;&gt;Node12 -->
<g id="edge25" class="edge">
<title>Node21&#45;&gt;Node12</title>
<path fill="none" stroke="#191970" d="M242.825,-410.5214C221.1199,-435.8483 179.7296,-483.0634 141.569,-520.5 124.8928,-536.8599 104.7603,-554.2884 90.2364,-566.4869"/>
<polygon fill="#191970" stroke="#191970" points="245.5701,-412.6963 249.398,-402.8171 240.2449,-408.1529 245.5701,-412.6963"/>
</g>
<!-- Node21&#45;&gt;Node13 -->
<g id="edge26" class="edge">
<title>Node21&#45;&gt;Node13</title>
<path fill="none" stroke="#191970" d="M211.2499,-405.2538C186.5887,-411.9686 156.0977,-420.2708 129.8324,-427.4223"/>
<polygon fill="#191970" stroke="#191970" points="212.3557,-408.5803 221.0849,-402.576 210.5166,-401.8261 212.3557,-408.5803"/>
</g>
<!-- Node21&#45;&gt;Node14 -->
<g id="edge27" class="edge">
<title>Node21&#45;&gt;Node14</title>
<path fill="none" stroke="#191970" d="M167.549,-392.5C154.4028,-392.5 141.1747,-392.5 128.9025,-392.5"/>
<polygon fill="#191970" stroke="#191970" points="167.5689,-396.0001 177.5689,-392.5 167.5688,-389.0001 167.5689,-396.0001"/>
</g>
<!-- Node21&#45;&gt;Node15 -->
<g id="edge28" class="edge">
<title>Node21&#45;&gt;Node15</title>
<path fill="none" stroke="#191970" d="M211.2499,-379.7462C186.5887,-373.0314 156.0977,-364.7292 129.8324,-357.5777"/>
<polygon fill="#191970" stroke="#191970" points="210.5166,-383.1739 221.0849,-382.424 212.3557,-376.4197 210.5166,-383.1739"/>
</g>
<!-- Node21&#45;&gt;Node16 -->
<g id="edge29" class="edge">
<title>Node21&#45;&gt;Node16</title>
<path fill="none" stroke="#191970" d="M236.4549,-376.2441C213.7076,-359.6769 176.4452,-333.9963 141.569,-316.5 134.4309,-312.919 126.6755,-309.5684 119.0024,-306.5417"/>
<polygon fill="#191970" stroke="#191970" points="234.5787,-379.2091 244.7067,-382.3195 238.729,-373.5721 234.5787,-379.2091"/>
</g>
<!-- Node21&#45;&gt;Node17 -->
<g id="edge30" class="edge">
<title>Node21&#45;&gt;Node17</title>
<path fill="none" stroke="#191970" d="M245.6886,-374.1655C226.3951,-346.9209 186.6871,-295.7226 141.569,-265.5 136.0217,-261.7841 129.8754,-258.5169 123.5889,-255.6671"/>
<polygon fill="#191970" stroke="#191970" points="242.8459,-376.2081 251.4273,-382.4218 248.5938,-372.2128 242.8459,-376.2081"/>
</g>
<!-- Node21&#45;&gt;Node22 -->
<g id="edge31" class="edge">
<title>Node21&#45;&gt;Node22</title>
<path fill="none" stroke="#191970" d="M250.3034,-372.9856C234.8866,-336.7232 197.0962,-258.6363 141.569,-214.5 136.7522,-210.6713 131.3181,-207.3721 125.6558,-204.5369"/>
<polygon fill="#191970" stroke="#191970" points="247.1531,-374.5264 254.2104,-382.4287 253.6213,-371.8502 247.1531,-374.5264"/>
</g>
<!-- Node21&#45;&gt;Node23 -->
<g id="edge32" class="edge">
<title>Node21&#45;&gt;Node23</title>
<path fill="none" stroke="#191970" d="M253.2276,-372.3456C241.5812,-328.2543 207.9919,-222.4736 141.569,-163.5 137.2614,-159.6755 132.3435,-156.3976 127.1524,-153.5914"/>
<polygon fill="#191970" stroke="#191970" points="249.8666,-373.3306 255.7224,-382.1601 256.6509,-371.606 249.8666,-373.3306"/>
</g>
<!-- Node26 -->
<g id="node26" class="node">
<title>Node26</title>
<g id="a_node26"><a xlink:href="class_l_f_s_t_k__tool_window_class_ad9d85cbc29eafc7793e12bcc9c268bf5.xhtml#ad9d85cbc29eafc7793e12bcc9c268bf5" target="_top" xlink:title=" ">
<polygon fill="none" stroke="#000000" points="381.5665,-51.5 381.5665,-83.5 516.4655,-83.5 516.4655,-51.5 381.5665,-51.5"/>
<text text-anchor="start" x="389.5665" y="-70.5" font-family="Helvetica,sans-Serif" font-size="10.00" fill="#000000">LFSTK_toolWindowClass</text>
<text text-anchor="middle" x="449.016" y="-58.5" font-family="Helvetica,sans-Serif" font-size="10.00" fill="#000000">::LFSTK_toolWindowClass</text>
</a>
</g>
</g>
<!-- Node25&#45;&gt;Node26 -->
<g id="edge38" class="edge">
<title>Node25&#45;&gt;Node26</title>
<path fill="none" stroke="#191970" d="M551.8647,-67.5C540.1763,-67.5 528.194,-67.5 516.7273,-67.5"/>
<polygon fill="#191970" stroke="#191970" points="552.0403,-71.0001 562.0402,-67.5 552.0402,-64.0001 552.0403,-71.0001"/>
</g>
<!-- Node28 -->
<g id="node28" class="node">
<title>Node28</title>
<g id="a_node28"><a xlink:href="class_l_f_s_t_k__window_class_afcd2c5e43ab2a1110d5b4e54b24ce47a.xhtml#afcd2c5e43ab2a1110d5b4e54b24ce47a" target="_top" xlink:title=" ">
<polygon fill="none" stroke="#000000" points="390.7345,-.5 390.7345,-32.5 507.2975,-32.5 507.2975,-.5 390.7345,-.5"/>
<text text-anchor="start" x="398.7345" y="-19.5" font-family="Helvetica,sans-Serif" font-size="10.00" fill="#000000">LFSTK_windowClass::</text>
<text text-anchor="middle" x="449.016" y="-7.5" font-family="Helvetica,sans-Serif" font-size="10.00" fill="#000000">LFSTK_windowClass</text>
</a>
</g>
</g>
<!-- Node27&#45;&gt;Node28 -->
<g id="edge40" class="edge">
<title>Node27&#45;&gt;Node28</title>
<path fill="none" stroke="#191970" d="M554.636,-16.5C538.9257,-16.5 522.5627,-16.5 507.5394,-16.5"/>
<polygon fill="#191970" stroke="#191970" points="554.845,-20.0001 564.845,-16.5 554.845,-13.0001 554.845,-20.0001"/>
</g>
</g>
</svg>
        <g id="navigator" transform="translate(0 0)" fill="#404254">
                <rect fill="#f2f5e9" fill-opacity="0.5" stroke="#606060" stroke-width=".5" x="0" y="0" width="60" height="60"/>
                <use id="zoomplus" xlink:href="#zoomPlus" x="17" y="9" onmousedown="handleZoom(evt,'in')"/>
                <use id="zoomminus" xlink:href="#zoomMin" x="42" y="9" onmousedown="handleZoom(evt,'out')"/>
                <use id="reset" xlink:href="#resetDef" x="30" y="36" onmousedown="handleReset()"/>
                <g id="arrowUp" xlink:href="#dirArrow" transform="translate(30 24)" onmousedown="handlePan(0,-1)">
                  <use xlink:href="#rim" fill="#404040">
                        <set attributeName="fill" to="#808080" begin="arrowUp.mouseover" end="arrowUp.mouseout"/>
                  </use>
                  <path fill="none" stroke="white" stroke-width="1.5" d="M0,-3.0v7 M-2.5,-0.5L0,-3.0L2.5,-0.5"/>
                </g>
                <g id="arrowRight" xlink:href="#dirArrow" transform="rotate(90) translate(36 -43)" onmousedown="handlePan(1,0)">
                  <use xlink:href="#rim" fill="#404040">
                        <set attributeName="fill" to="#808080" begin="arrowRight.mouseover" end="arrowRight.mouseout"/>
                  </use>
                  <path fill="none" stroke="white" stroke-width="1.5" d="M0,-3.0v7 M-2.5,-0.5L0,-3.0L2.5,-0.5"/>
                </g>
                <g id="arrowDown" xlink:href="#dirArrow" transform="rotate(180) translate(-30 -48)" onmousedown="handlePan(0,1)">
                  <use xlink:href="#rim" fill="#404040">
                        <set attributeName="fill" to="#808080" begin="arrowDown.mouseover" end="arrowDown.mouseout"/>
                  </use>
                  <path fill="none" stroke="white" stroke-width="1.5" d="M0,-3.0v7 M-2.5,-0.5L0,-3.0L2.5,-0.5"/>
                </g>
                <g id="arrowLeft" xlink:href="#dirArrow" transform="rotate(270) translate(-36 17)" onmousedown="handlePan(-1,0)">
                  <use xlink:href="#rim" fill="#404040">
                        <set attributeName="fill" to="#808080" begin="arrowLeft.mouseover" end="arrowLeft.mouseout"/>
                  </use>
                  <path fill="none" stroke="white" stroke-width="1.5" d="M0,-3.0v7 M-2.5,-0.5L0,-3.0L2.5,-0.5"/>
                </g>
        </g>
        <svg viewBox="0 0 15 15" width="100%" height="30px" preserveAspectRatio="xMaxYMin meet">
         <g id="arrow_out" transform="scale(0.3 0.3)">
          <a xlink:href="class_l_f_s_t_k__lib_aa5e46eec51c9f1f2a86ef7e22d6cba5b_aa5e46eec51c9f1f2a86ef7e22d6cba5b_icgraph_org.svg" target="_base">
           <rect id="button" ry="5" rx="5" y="6" x="6" height="38" width="38"
                fill="#f2f5e9" fill-opacity="0.5" stroke="#606060" stroke-width="1.0"/>
           <path id="arrow"
             d="M 11.500037,31.436501 C 11.940474,20.09759 22.043105,11.32322 32.158766,21.979434 L 37.068811,17.246167 C 37.068811,17.246167 37.088388,32 37.088388,32 L 22.160133,31.978069 C 22.160133,31.978069 26.997745,27.140456 26.997745,27.140456 C 18.528582,18.264221 13.291696,25.230495 11.500037,31.436501 z"
             style="fill:#404040;"/>
          </a>
         </g>
        </svg>
</svg>
