<?xml version="1.0" encoding="UTF-8" standalone="no"?>
<!DOCTYPE svg PUBLIC "-//W3C//DTD SVG 1.1//EN"
 "http://www.w3.org/Graphics/SVG/1.1/DTD/svg11.dtd">
<!-- Generated by graphviz version 2.40.1 (20161225.0304)
 -->
<!-- Title: LFSTK_menuItemClass::mouseExit Pages: 1 -->
<svg width="752pt" height="252pt"
 viewBox="0.00 0.00 752.11 252.00" xmlns="http://www.w3.org/2000/svg" xmlns:xlink="http://www.w3.org/1999/xlink">
<g id="graph0" class="graph" transform="scale(1 1) rotate(0) translate(4 248)">
<title>LFSTK_menuItemClass::mouseExit</title>
<!-- Node1 -->
<g id="node1" class="node">
<title>Node1</title>
<g id="a_node1"><a xlink:title=" ">
<polygon fill="#bfbfbf" stroke="#000000" points="0,-121.5 0,-153.5 122.123,-153.5 122.123,-121.5 0,-121.5"/>
<text text-anchor="start" x="8" y="-140.5" font-family="Helvetica,sans-Serif" font-size="10.00" fill="#000000">LFSTK_menuItemClass</text>
<text text-anchor="middle" x="61.0615" y="-128.5" font-family="Helvetica,sans-Serif" font-size="10.00" fill="#000000">::mouseExit</text>
</a>
</g>
</g>
<!-- Node2 -->
<g id="node2" class="node">
<title>Node2</title>
<g id="a_node2"><a xlink:href="class_l_f_s_t_k__gadget_class_aa5b5f301fe9b0a4d7679f786da7462ba.xhtml#aa5b5f301fe9b0a4d7679f786da7462ba" target="_top" xlink:title=" ">
<polygon fill="none" stroke="#000000" points="158.123,-121.5 158.123,-153.5 271.926,-153.5 271.926,-121.5 158.123,-121.5"/>
<text text-anchor="start" x="166.123" y="-140.5" font-family="Helvetica,sans-Serif" font-size="10.00" fill="#000000">LFSTK_gadgetClass::</text>
<text text-anchor="middle" x="215.0245" y="-128.5" font-family="Helvetica,sans-Serif" font-size="10.00" fill="#000000">LFSTK_clearWindow</text>
</a>
</g>
</g>
<!-- Node1&#45;&gt;Node2 -->
<g id="edge1" class="edge">
<title>Node1&#45;&gt;Node2</title>
<path fill="none" stroke="#191970" d="M122.3541,-137.5C130.7006,-137.5 139.3041,-137.5 147.7492,-137.5"/>
<polygon fill="#191970" stroke="#191970" points="147.9439,-141.0001 157.9439,-137.5 147.9439,-134.0001 147.9439,-141.0001"/>
</g>
<!-- Node3 -->
<g id="node3" class="node">
<title>Node3</title>
<g id="a_node3"><a xlink:href="class_l_f_s_t_k__gadget_class_a66b92f213e5a7e75da3f707b511342ea.xhtml#a66b92f213e5a7e75da3f707b511342ea" target="_top" xlink:title=" ">
<polygon fill="none" stroke="#000000" points="307.926,-121.5 307.926,-153.5 421.729,-153.5 421.729,-121.5 307.926,-121.5"/>
<text text-anchor="start" x="315.926" y="-140.5" font-family="Helvetica,sans-Serif" font-size="10.00" fill="#000000">LFSTK_gadgetClass::</text>
<text text-anchor="middle" x="364.8275" y="-128.5" font-family="Helvetica,sans-Serif" font-size="10.00" fill="#000000">drawGagetDetails</text>
</a>
</g>
</g>
<!-- Node2&#45;&gt;Node3 -->
<g id="edge2" class="edge">
<title>Node2&#45;&gt;Node3</title>
<path fill="none" stroke="#191970" d="M272.0859,-137.5C280.5249,-137.5 289.2846,-137.5 297.9019,-137.5"/>
<polygon fill="#191970" stroke="#191970" points="297.9248,-141.0001 307.9247,-137.5 297.9247,-134.0001 297.9248,-141.0001"/>
</g>
<!-- Node4 -->
<g id="node4" class="node">
<title>Node4</title>
<g id="a_node4"><a xlink:href="class_l_f_s_t_k__gadget_class_a37d96aab3c59cb97fca1720441e3fc8e.xhtml#a37d96aab3c59cb97fca1720441e3fc8e" target="_top" xlink:title=" ">
<polygon fill="none" stroke="#000000" points="457.729,-211.5 457.729,-243.5 571.532,-243.5 571.532,-211.5 457.729,-211.5"/>
<text text-anchor="start" x="465.729" y="-230.5" font-family="Helvetica,sans-Serif" font-size="10.00" fill="#000000">LFSTK_gadgetClass::</text>
<text text-anchor="middle" x="514.6305" y="-218.5" font-family="Helvetica,sans-Serif" font-size="10.00" fill="#000000">clearBox</text>
</a>
</g>
</g>
<!-- Node3&#45;&gt;Node4 -->
<g id="edge3" class="edge">
<title>Node3&#45;&gt;Node4</title>
<path fill="none" stroke="#191970" d="M389.39,-153.7326C407.9584,-165.8483 434.1874,-182.6328 457.729,-196.5 463.3267,-199.7973 469.2946,-203.1846 475.1807,-206.4533"/>
<polygon fill="#191970" stroke="#191970" points="473.8484,-209.7148 484.2981,-211.4625 477.2191,-203.5797 473.8484,-209.7148"/>
</g>
<!-- Node5 -->
<g id="node5" class="node">
<title>Node5</title>
<g id="a_node5"><a xlink:href="class_l_f_s_t_k__gadget_class_ab76db165a19af248b5e94e95492dc879.xhtml#ab76db165a19af248b5e94e95492dc879" target="_top" xlink:title=" ">
<polygon fill="none" stroke="#000000" points="618.9185,-128.5 618.9185,-160.5 732.7215,-160.5 732.7215,-128.5 618.9185,-128.5"/>
<text text-anchor="start" x="626.9185" y="-147.5" font-family="Helvetica,sans-Serif" font-size="10.00" fill="#000000">LFSTK_gadgetClass::</text>
<text text-anchor="middle" x="675.82" y="-135.5" font-family="Helvetica,sans-Serif" font-size="10.00" fill="#000000">drawBevel</text>
</a>
</g>
</g>
<!-- Node3&#45;&gt;Node5 -->
<g id="edge4" class="edge">
<title>Node3&#45;&gt;Node5</title>
<path fill="none" stroke="#191970" d="M412.5183,-153.5327C426.8798,-157.6275 442.7955,-161.4497 457.729,-163.5 507.838,-170.3797 521.1581,-168.0513 571.532,-163.5 583.5604,-162.4132 596.275,-160.6351 608.5337,-158.5914"/>
<polygon fill="#191970" stroke="#191970" points="609.4472,-161.9851 618.6987,-156.8217 608.2465,-155.0889 609.4472,-161.9851"/>
</g>
<!-- Node6 -->
<g id="node6" class="node">
<title>Node6</title>
<g id="a_node6"><a xlink:href="class_l_f_s_t_k__gadget_class_af5386ffc4699273f6c53a920fc8b2f1d.xhtml#af5386ffc4699273f6c53a920fc8b2f1d" target="_top" xlink:title=" ">
<polygon fill="none" stroke="#000000" points="457.729,-121.5 457.729,-153.5 571.532,-153.5 571.532,-121.5 457.729,-121.5"/>
<text text-anchor="start" x="465.729" y="-140.5" font-family="Helvetica,sans-Serif" font-size="10.00" fill="#000000">LFSTK_gadgetClass::</text>
<text text-anchor="middle" x="514.6305" y="-128.5" font-family="Helvetica,sans-Serif" font-size="10.00" fill="#000000">drawImage</text>
</a>
</g>
</g>
<!-- Node3&#45;&gt;Node6 -->
<g id="edge5" class="edge">
<title>Node3&#45;&gt;Node6</title>
<path fill="none" stroke="#191970" d="M421.8889,-137.5C430.3279,-137.5 439.0876,-137.5 447.7049,-137.5"/>
<polygon fill="#191970" stroke="#191970" points="447.7278,-141.0001 457.7277,-137.5 447.7277,-134.0001 447.7278,-141.0001"/>
</g>
<!-- Node7 -->
<g id="node7" class="node">
<title>Node7</title>
<g id="a_node7"><a xlink:href="class_l_f_s_t_k__gadget_class_af77235e4dc604470c9d62f101238225b.xhtml#af77235e4dc604470c9d62f101238225b" target="_top" xlink:title=" ">
<polygon fill="none" stroke="#000000" points="457.729,-70.5 457.729,-102.5 571.532,-102.5 571.532,-70.5 457.729,-70.5"/>
<text text-anchor="start" x="465.729" y="-89.5" font-family="Helvetica,sans-Serif" font-size="10.00" fill="#000000">LFSTK_gadgetClass::</text>
<text text-anchor="middle" x="514.6305" y="-77.5" font-family="Helvetica,sans-Serif" font-size="10.00" fill="#000000">drawIndicator</text>
</a>
</g>
</g>
<!-- Node3&#45;&gt;Node7 -->
<g id="edge6" class="edge">
<title>Node3&#45;&gt;Node7</title>
<path fill="none" stroke="#191970" d="M412.2261,-121.3633C426.7111,-116.4319 442.7897,-110.958 457.832,-105.8369"/>
<polygon fill="#191970" stroke="#191970" points="459.2018,-109.0679 467.5402,-102.5317 456.9458,-102.4414 459.2018,-109.0679"/>
</g>
<!-- Node8 -->
<g id="node8" class="node">
<title>Node8</title>
<g id="a_node8"><a xlink:href="class_l_f_s_t_k__gadget_class_a7f44f781b167d66c5d6f4cc862a7e2db.xhtml#a7f44f781b167d66c5d6f4cc862a7e2db" target="_top" xlink:title=" ">
<polygon fill="none" stroke="#000000" points="457.729,-19.5 457.729,-51.5 571.532,-51.5 571.532,-19.5 457.729,-19.5"/>
<text text-anchor="start" x="465.729" y="-38.5" font-family="Helvetica,sans-Serif" font-size="10.00" fill="#000000">LFSTK_gadgetClass::</text>
<text text-anchor="middle" x="514.6305" y="-26.5" font-family="Helvetica,sans-Serif" font-size="10.00" fill="#000000">drawLabel</text>
</a>
</g>
</g>
<!-- Node3&#45;&gt;Node8 -->
<g id="edge8" class="edge">
<title>Node3&#45;&gt;Node8</title>
<path fill="none" stroke="#191970" d="M381.197,-121.4985C398.9545,-104.748 428.6727,-78.4356 457.729,-60.5 460.0589,-59.0618 462.4859,-57.6631 464.968,-56.3102"/>
<polygon fill="#191970" stroke="#191970" points="466.8157,-59.2963 474.1212,-51.623 463.625,-53.0658 466.8157,-59.2963"/>
</g>
<!-- Node7&#45;&gt;Node5 -->
<g id="edge7" class="edge">
<title>Node7&#45;&gt;Node5</title>
<path fill="none" stroke="#191970" d="M559.1029,-102.5023C578.4903,-109.4784 601.3939,-117.7196 621.7548,-125.046"/>
<polygon fill="#191970" stroke="#191970" points="620.6187,-128.3568 631.2132,-128.4493 622.9888,-121.7703 620.6187,-128.3568"/>
</g>
<!-- Node9 -->
<g id="node9" class="node">
<title>Node9</title>
<g id="a_node9"><a xlink:href="class_l_f_s_t_k__lib_ab2f14a3414f7db863682d1e2fa0cfb75.xhtml#ab2f14a3414f7db863682d1e2fa0cfb75" target="_top" xlink:title=" ">
<polygon fill="none" stroke="#000000" points="607.532,-51.5 607.532,-71.5 744.108,-71.5 744.108,-51.5 607.532,-51.5"/>
<text text-anchor="middle" x="675.82" y="-58.5" font-family="Helvetica,sans-Serif" font-size="10.00" fill="#000000">LFSTK_lib::bestFontColour</text>
</a>
</g>
</g>
<!-- Node8&#45;&gt;Node9 -->
<g id="edge9" class="edge">
<title>Node8&#45;&gt;Node9</title>
<path fill="none" stroke="#191970" d="M571.9137,-44.7398C582.1998,-46.399 593.0402,-48.1475 603.6817,-49.864"/>
<polygon fill="#191970" stroke="#191970" points="603.3691,-53.3588 613.7989,-51.4959 604.4839,-46.4481 603.3691,-53.3588"/>
</g>
<!-- Node10 -->
<g id="node10" class="node">
<title>Node10</title>
<g id="a_node10"><a xlink:href="class_l_f_s_t_k__gadget_class_a091281ba03eaeb31bc7507c74b9b4f2f.xhtml#a091281ba03eaeb31bc7507c74b9b4f2f" target="_top" xlink:title=" ">
<polygon fill="none" stroke="#000000" points="618.364,-.5 618.364,-32.5 733.276,-32.5 733.276,-.5 618.364,-.5"/>
<text text-anchor="start" x="626.364" y="-19.5" font-family="Helvetica,sans-Serif" font-size="10.00" fill="#000000">LFSTK_gadgetClass::</text>
<text text-anchor="middle" x="675.82" y="-7.5" font-family="Helvetica,sans-Serif" font-size="10.00" fill="#000000">LFSTK_getTextHeight</text>
</a>
</g>
</g>
<!-- Node8&#45;&gt;Node10 -->
<g id="edge10" class="edge">
<title>Node8&#45;&gt;Node10</title>
<path fill="none" stroke="#191970" d="M571.9137,-28.7478C583.6491,-27.3645 596.1059,-25.8962 608.1657,-24.4747"/>
<polygon fill="#191970" stroke="#191970" points="608.6566,-27.9411 618.1781,-23.2945 607.8371,-20.9892 608.6566,-27.9411"/>
</g>
</g>
</svg>
