<?xml version="1.0" encoding="UTF-8" standalone="no"?>
<!DOCTYPE svg PUBLIC "-//W3C//DTD SVG 1.1//EN"
 "http://www.w3.org/Graphics/SVG/1.1/DTD/svg11.dtd">
<!-- Generated by graphviz version 2.40.1 (20161225.0304)
 -->
<!-- Title: LFSTK_multiLineEditClass::LFSTK_clearWindow Pages: 1 -->
<svg width="314pt" height="92pt"
 viewBox="0.00 0.00 313.80 92.00" xmlns="http://www.w3.org/2000/svg" xmlns:xlink="http://www.w3.org/1999/xlink">
<g id="graph0" class="graph" transform="scale(1 1) rotate(0) translate(4 88)">
<title>LFSTK_multiLineEditClass::LFSTK_clearWindow</title>
<!-- Node1 -->
<g id="node1" class="node">
<title>Node1</title>
<g id="a_node1"><a xlink:title=" ">
<polygon fill="#bfbfbf" stroke="#000000" points="0,-25.5 0,-57.5 134.898,-57.5 134.898,-25.5 0,-25.5"/>
<text text-anchor="start" x="8" y="-44.5" font-family="Helvetica,sans-Serif" font-size="10.00" fill="#000000">LFSTK_multiLineEditClass</text>
<text text-anchor="middle" x="67.449" y="-32.5" font-family="Helvetica,sans-Serif" font-size="10.00" fill="#000000">::LFSTK_clearWindow</text>
</a>
</g>
</g>
<!-- Node2 -->
<g id="node2" class="node">
<title>Node2</title>
<g id="a_node2"><a xlink:href="class_l_f_s_t_k__gadget_class_ab76db165a19af248b5e94e95492dc879.xhtml#ab76db165a19af248b5e94e95492dc879" target="_top" xlink:title=" ">
<polygon fill="none" stroke="#000000" points="181.4455,-51.5 181.4455,-83.5 295.2485,-83.5 295.2485,-51.5 181.4455,-51.5"/>
<text text-anchor="start" x="189.4455" y="-70.5" font-family="Helvetica,sans-Serif" font-size="10.00" fill="#000000">LFSTK_gadgetClass::</text>
<text text-anchor="middle" x="238.347" y="-58.5" font-family="Helvetica,sans-Serif" font-size="10.00" fill="#000000">drawBevel</text>
</a>
</g>
</g>
<!-- Node1&#45;&gt;Node2 -->
<g id="edge1" class="edge">
<title>Node1&#45;&gt;Node2</title>
<path fill="none" stroke="#191970" d="M134.9924,-51.7759C146.9463,-53.5945 159.3897,-55.4876 171.329,-57.3041"/>
<polygon fill="#191970" stroke="#191970" points="170.805,-60.7645 181.2177,-58.8085 171.8579,-53.8442 170.805,-60.7645"/>
</g>
<!-- Node3 -->
<g id="node3" class="node">
<title>Node3</title>
<g id="a_node3"><a xlink:href="class_l_f_s_t_k__multi_line_edit_class_a48999ac31ea05c85d68ef2c5fc513c0e.xhtml#a48999ac31ea05c85d68ef2c5fc513c0e" target="_top" xlink:title=" ">
<polygon fill="none" stroke="#000000" points="170.898,-.5 170.898,-32.5 305.796,-32.5 305.796,-.5 170.898,-.5"/>
<text text-anchor="start" x="178.898" y="-19.5" font-family="Helvetica,sans-Serif" font-size="10.00" fill="#000000">LFSTK_multiLineEditClass</text>
<text text-anchor="middle" x="238.347" y="-7.5" font-family="Helvetica,sans-Serif" font-size="10.00" fill="#000000">::drawText</text>
</a>
</g>
</g>
<!-- Node1&#45;&gt;Node3 -->
<g id="edge2" class="edge">
<title>Node1&#45;&gt;Node3</title>
<path fill="none" stroke="#191970" d="M134.9924,-31.6193C143.4418,-30.3833 152.1357,-29.1115 160.7233,-27.8553"/>
<polygon fill="#191970" stroke="#191970" points="161.3465,-31.3014 170.7346,-26.3908 160.3332,-24.3752 161.3465,-31.3014"/>
</g>
</g>
</svg>
