<?xml version="1.0" encoding="UTF-8" standalone="no"?>
<!DOCTYPE svg PUBLIC "-//W3C//DTD SVG 1.1//EN"
 "http://www.w3.org/Graphics/SVG/1.1/DTD/svg11.dtd">
<!-- Generated by graphviz version 2.40.1 (20161225.0304)
 -->
<!-- Title: LFSTK_windowClass::LFSTK_getMappedListener Pages: 1 -->
<svg width="696pt" height="500pt"
 viewBox="0.00 0.00 696.22 500.00" xmlns="http://www.w3.org/2000/svg" xmlns:xlink="http://www.w3.org/1999/xlink">
<g id="graph0" class="graph" transform="scale(1 1) rotate(0) translate(4 496)">
<title>LFSTK_windowClass::LFSTK_getMappedListener</title>
<!-- Node1 -->
<g id="node1" class="node">
<title>Node1</title>
<g id="a_node1"><a xlink:title=" ">
<polygon fill="#bfbfbf" stroke="#000000" points="549.962,-127.5 549.962,-159.5 688.22,-159.5 688.22,-127.5 549.962,-127.5"/>
<text text-anchor="start" x="557.962" y="-146.5" font-family="Helvetica,sans-Serif" font-size="10.00" fill="#000000">LFSTK_windowClass::</text>
<text text-anchor="middle" x="619.091" y="-134.5" font-family="Helvetica,sans-Serif" font-size="10.00" fill="#000000">LFSTK_getMappedListener</text>
</a>
</g>
</g>
<!-- Node2 -->
<g id="node2" class="node">
<title>Node2</title>
<g id="a_node2"><a xlink:href="class_l_f_s_t_k__gadget_class_a2a450a6784d5743e14340cc8ebd05d15.xhtml#a2a450a6784d5743e14340cc8ebd05d15" target="_top" xlink:title=" ">
<polygon fill="none" stroke="#000000" points="387.3855,-229.5 387.3855,-261.5 501.1885,-261.5 501.1885,-229.5 387.3855,-229.5"/>
<text text-anchor="start" x="395.3855" y="-248.5" font-family="Helvetica,sans-Serif" font-size="10.00" fill="#000000">LFSTK_gadgetClass::</text>
<text text-anchor="middle" x="444.287" y="-236.5" font-family="Helvetica,sans-Serif" font-size="10.00" fill="#000000">LFSTK_doPopUp</text>
</a>
</g>
</g>
<!-- Node1&#45;&gt;Node2 -->
<g id="edge1" class="edge">
<title>Node1&#45;&gt;Node2</title>
<path fill="none" stroke="#191970" d="M592.536,-166.3001C572.0951,-182.9932 542.5846,-205.2943 513.962,-220.5 507.8334,-223.7558 501.1901,-226.7505 494.522,-229.4492"/>
<polygon fill="#191970" stroke="#191970" points="594.9727,-168.8266 600.4424,-159.7529 590.5081,-163.4352 594.9727,-168.8266"/>
</g>
<!-- Node14 -->
<g id="node14" class="node">
<title>Node14</title>
<g id="a_node14"><a xlink:href="class_l_f_s_t_k__font_dialog_class_a14c5f93b43c729a1bcb8bebe141415f2.xhtml#a14c5f93b43c729a1bcb8bebe141415f2" target="_top" xlink:title=" ">
<polygon fill="none" stroke="#000000" points="382.9465,-178.5 382.9465,-210.5 505.6275,-210.5 505.6275,-178.5 382.9465,-178.5"/>
<text text-anchor="start" x="390.9465" y="-197.5" font-family="Helvetica,sans-Serif" font-size="10.00" fill="#000000">LFSTK_fontDialogClass</text>
<text text-anchor="middle" x="444.287" y="-185.5" font-family="Helvetica,sans-Serif" font-size="10.00" fill="#000000">::LFSTK_showDialog</text>
</a>
</g>
</g>
<!-- Node1&#45;&gt;Node14 -->
<g id="edge13" class="edge">
<title>Node1&#45;&gt;Node14</title>
<path fill="none" stroke="#191970" d="M553.9422,-162.5075C535.9427,-167.759 516.5943,-173.404 499.2363,-178.4683"/>
<polygon fill="#191970" stroke="#191970" points="555.1624,-165.7975 563.7819,-159.6367 553.2018,-159.0777 555.1624,-165.7975"/>
</g>
<!-- Node15 -->
<g id="node15" class="node">
<title>Node15</title>
<g id="a_node15"><a xlink:href="class_l_f_s_t_k__file_dialog_class_af77972b8a46616ba4c7bec555b2b0a14.xhtml#af77972b8a46616ba4c7bec555b2b0a14" target="_top" xlink:title=" ">
<polygon fill="none" stroke="#000000" points="381.2825,-127.5 381.2825,-159.5 507.2915,-159.5 507.2915,-127.5 381.2825,-127.5"/>
<text text-anchor="start" x="389.2825" y="-146.5" font-family="Helvetica,sans-Serif" font-size="10.00" fill="#000000">LFSTK_fileDialogClass</text>
<text text-anchor="middle" x="444.287" y="-134.5" font-family="Helvetica,sans-Serif" font-size="10.00" fill="#000000">::LFSTK_showFileDialog</text>
</a>
</g>
</g>
<!-- Node1&#45;&gt;Node15 -->
<g id="edge14" class="edge">
<title>Node1&#45;&gt;Node15</title>
<path fill="none" stroke="#191970" d="M539.4798,-143.5C528.6913,-143.5 517.7433,-143.5 507.3002,-143.5"/>
<polygon fill="#191970" stroke="#191970" points="539.7528,-147.0001 549.7528,-143.5 539.7527,-140.0001 539.7528,-147.0001"/>
</g>
<!-- Node17 -->
<g id="node17" class="node">
<title>Node17</title>
<g id="a_node17"><a xlink:href="class_l_f_s_t_k__menu_class_ab847d4847ed01a7ff90c717a2cdb6dc5.xhtml#ab847d4847ed01a7ff90c717a2cdb6dc5" target="_top" xlink:title=" ">
<polygon fill="none" stroke="#000000" points="374.612,-76.5 374.612,-108.5 513.962,-108.5 513.962,-76.5 374.612,-76.5"/>
<text text-anchor="start" x="382.612" y="-95.5" font-family="Helvetica,sans-Serif" font-size="10.00" fill="#000000">LFSTK_menuClass::LFSTK</text>
<text text-anchor="middle" x="444.287" y="-83.5" font-family="Helvetica,sans-Serif" font-size="10.00" fill="#000000">_showMenu</text>
</a>
</g>
</g>
<!-- Node1&#45;&gt;Node17 -->
<g id="edge16" class="edge">
<title>Node1&#45;&gt;Node17</title>
<path fill="none" stroke="#191970" d="M553.9422,-124.4925C535.9427,-119.241 516.5943,-113.596 499.2363,-108.5317"/>
<polygon fill="#191970" stroke="#191970" points="553.2018,-127.9223 563.7819,-127.3633 555.1624,-121.2025 553.2018,-127.9223"/>
</g>
<!-- Node18 -->
<g id="node18" class="node">
<title>Node18</title>
<g id="a_node18"><a xlink:href="class_l_f_s_t_k__menu_item_class_ad2460aa76c71cb7ea548041e1ff858cf.xhtml#ad2460aa76c71cb7ea548041e1ff858cf" target="_top" xlink:title=" ">
<polygon fill="none" stroke="#000000" points="383.2255,-25.5 383.2255,-57.5 505.3485,-57.5 505.3485,-25.5 383.2255,-25.5"/>
<text text-anchor="start" x="391.2255" y="-44.5" font-family="Helvetica,sans-Serif" font-size="10.00" fill="#000000">LFSTK_menuItemClass</text>
<text text-anchor="middle" x="444.287" y="-32.5" font-family="Helvetica,sans-Serif" font-size="10.00" fill="#000000">::mouseEnter</text>
</a>
</g>
</g>
<!-- Node1&#45;&gt;Node18 -->
<g id="edge17" class="edge">
<title>Node1&#45;&gt;Node18</title>
<path fill="none" stroke="#191970" d="M592.536,-120.6999C572.0951,-104.0068 542.5846,-81.7057 513.962,-66.5 507.8334,-63.2442 501.1901,-60.2495 494.522,-57.5508"/>
<polygon fill="#191970" stroke="#191970" points="590.5081,-123.5648 600.4424,-127.2471 594.9727,-118.1734 590.5081,-123.5648"/>
</g>
<!-- Node3 -->
<g id="node3" class="node">
<title>Node3</title>
<g id="a_node3"><a xlink:href="class_l_f_s_t_k__lib_af01ab10da12946856ae6bc2a23414cf8.xhtml#af01ab10da12946856ae6bc2a23414cf8" target="_top" xlink:title=" ">
<polygon fill="none" stroke="#000000" points="177.569,-235.5 177.569,-255.5 338.612,-255.5 338.612,-235.5 177.569,-235.5"/>
<text text-anchor="middle" x="258.0905" y="-242.5" font-family="Helvetica,sans-Serif" font-size="10.00" fill="#000000">LFSTK_lib::LFSTK_gadgetEvent</text>
</a>
</g>
</g>
<!-- Node2&#45;&gt;Node3 -->
<g id="edge2" class="edge">
<title>Node2&#45;&gt;Node3</title>
<path fill="none" stroke="#191970" d="M376.9265,-245.5C364.5376,-245.5 351.4888,-245.5 338.7559,-245.5"/>
<polygon fill="#191970" stroke="#191970" points="377.1566,-249.0001 387.1565,-245.5 377.1565,-242.0001 377.1566,-249.0001"/>
</g>
<!-- Node4 -->
<g id="node4" class="node">
<title>Node4</title>
<g id="a_node4"><a xlink:href="class_l_f_s_t_k__button_class_a2b46d2136069e61fc8c8ee88519b2a8f.xhtml#a2b46d2136069e61fc8c8ee88519b2a8f" target="_top" xlink:title=" ">
<polygon fill="none" stroke="#000000" points="15.273,-459.5 15.273,-491.5 126.296,-491.5 126.296,-459.5 15.273,-459.5"/>
<text text-anchor="start" x="23.273" y="-478.5" font-family="Helvetica,sans-Serif" font-size="10.00" fill="#000000">LFSTK_buttonClass::</text>
<text text-anchor="middle" x="70.7845" y="-466.5" font-family="Helvetica,sans-Serif" font-size="10.00" fill="#000000">LFSTK_buttonClass</text>
</a>
</g>
</g>
<!-- Node3&#45;&gt;Node4 -->
<g id="edge3" class="edge">
<title>Node3&#45;&gt;Node4</title>
<path fill="none" stroke="#191970" d="M252.1203,-265.2427C238.8796,-305.7752 203.2472,-398.8937 141.569,-450.5 137.071,-454.2635 131.9671,-457.4764 126.6094,-460.2159"/>
<polygon fill="#191970" stroke="#191970" points="255.4588,-266.2934 255.1361,-255.7035 248.7844,-264.1833 255.4588,-266.2934"/>
</g>
<!-- Node5 -->
<g id="node5" class="node">
<title>Node5</title>
<g id="a_node5"><a xlink:href="class_l_f_s_t_k__font_dialog_class_ab7b6a4bca99713646ab6ac77dc34827c.xhtml#ab7b6a4bca99713646ab6ac77dc34827c" target="_top" xlink:title=" ">
<polygon fill="none" stroke="#000000" points="6.665,-408.5 6.665,-440.5 134.904,-440.5 134.904,-408.5 6.665,-408.5"/>
<text text-anchor="start" x="14.665" y="-427.5" font-family="Helvetica,sans-Serif" font-size="10.00" fill="#000000">LFSTK_fontDialogClass</text>
<text text-anchor="middle" x="70.7845" y="-415.5" font-family="Helvetica,sans-Serif" font-size="10.00" fill="#000000">::LFSTK_fontDialogClass</text>
</a>
</g>
</g>
<!-- Node3&#45;&gt;Node5 -->
<g id="edge4" class="edge">
<title>Node3&#45;&gt;Node5</title>
<path fill="none" stroke="#191970" d="M248.453,-264.6602C231.2726,-296.968 192.3416,-362.3808 141.569,-399.5 136.9397,-402.8844 131.8107,-405.8439 126.4905,-408.4247"/>
<polygon fill="#191970" stroke="#191970" points="251.5702,-266.2518 253.0756,-255.7644 245.3588,-263.024 251.5702,-266.2518"/>
</g>
<!-- Node6 -->
<g id="node6" class="node">
<title>Node6</title>
<g id="a_node6"><a xlink:href="class_l_f_s_t_k__image_class_aff24b6452cb0a5d821b81770aa8f58d5.xhtml#aff24b6452cb0a5d821b81770aa8f58d5" target="_top" xlink:title=" ">
<polygon fill="none" stroke="#000000" points="0,-357.5 0,-389.5 141.569,-389.5 141.569,-357.5 0,-357.5"/>
<text text-anchor="start" x="8" y="-376.5" font-family="Helvetica,sans-Serif" font-size="10.00" fill="#000000">LFSTK_imageClass::LFSTK</text>
<text text-anchor="middle" x="70.7845" y="-364.5" font-family="Helvetica,sans-Serif" font-size="10.00" fill="#000000">_imageClass</text>
</a>
</g>
</g>
<!-- Node3&#45;&gt;Node6 -->
<g id="edge5" class="edge">
<title>Node3&#45;&gt;Node6</title>
<path fill="none" stroke="#191970" d="M242.229,-263.2299C221.1925,-285.805 181.9868,-324.7264 141.569,-348.5 135.9521,-351.8038 129.8292,-354.7707 123.612,-357.4064"/>
<polygon fill="#191970" stroke="#191970" points="244.9456,-265.446 249.1258,-255.7106 239.787,-260.7143 244.9456,-265.446"/>
</g>
<!-- Node7 -->
<g id="node7" class="node">
<title>Node7</title>
<g id="a_node7"><a xlink:href="class_l_f_s_t_k__label_class_a6085feaa122a3d1060351c659889628c.xhtml#a6085feaa122a3d1060351c659889628c" target="_top" xlink:title=" ">
<polygon fill="none" stroke="#000000" points="3.055,-306.5 3.055,-338.5 138.514,-338.5 138.514,-306.5 3.055,-306.5"/>
<text text-anchor="start" x="11.055" y="-325.5" font-family="Helvetica,sans-Serif" font-size="10.00" fill="#000000">LFSTK_labelClass::LFSTK</text>
<text text-anchor="middle" x="70.7845" y="-313.5" font-family="Helvetica,sans-Serif" font-size="10.00" fill="#000000">_labelClass</text>
</a>
</g>
</g>
<!-- Node3&#45;&gt;Node7 -->
<g id="edge6" class="edge">
<title>Node3&#45;&gt;Node7</title>
<path fill="none" stroke="#191970" d="M227.4663,-259.9755C204.1317,-270.8073 171.0945,-285.7199 141.569,-297.5 133.9428,-300.5427 125.7833,-303.6019 117.8148,-306.4851"/>
<polygon fill="#191970" stroke="#191970" points="229.2524,-263.0045 236.8343,-255.6042 226.2923,-256.6611 229.2524,-263.0045"/>
</g>
<!-- Node8 -->
<g id="node8" class="node">
<title>Node8</title>
<g id="a_node8"><a xlink:href="class_l_f_s_t_k__line_edit_class_af610951625203a6d75bce118b2b94386.xhtml#af610951625203a6d75bce118b2b94386" target="_top" xlink:title=" ">
<polygon fill="none" stroke="#000000" points="12.779,-255.5 12.779,-287.5 128.79,-287.5 128.79,-255.5 12.779,-255.5"/>
<text text-anchor="start" x="20.779" y="-274.5" font-family="Helvetica,sans-Serif" font-size="10.00" fill="#000000">LFSTK_lineEditClass</text>
<text text-anchor="middle" x="70.7845" y="-262.5" font-family="Helvetica,sans-Serif" font-size="10.00" fill="#000000">::LFSTK_lineEditClass</text>
</a>
</g>
</g>
<!-- Node3&#45;&gt;Node8 -->
<g id="edge7" class="edge">
<title>Node3&#45;&gt;Node8</title>
<path fill="none" stroke="#191970" d="M175.6746,-256.9402C159.9287,-259.1259 143.7527,-261.3713 128.962,-263.4244"/>
<polygon fill="#191970" stroke="#191970" points="176.5173,-260.3569 185.941,-255.5151 175.5548,-253.4233 176.5173,-260.3569"/>
</g>
<!-- Node9 -->
<g id="node9" class="node">
<title>Node9</title>
<g id="a_node9"><a xlink:href="class_l_f_s_t_k__list_gadget_class_ae3518016f28ec3cd261ad927c5691826.xhtml#ae3518016f28ec3cd261ad927c5691826" target="_top" xlink:title=" ">
<polygon fill="none" stroke="#000000" points="6.6645,-204.5 6.6645,-236.5 134.9045,-236.5 134.9045,-204.5 6.6645,-204.5"/>
<text text-anchor="start" x="14.6645" y="-223.5" font-family="Helvetica,sans-Serif" font-size="10.00" fill="#000000">LFSTK_listGadgetClass</text>
<text text-anchor="middle" x="70.7845" y="-211.5" font-family="Helvetica,sans-Serif" font-size="10.00" fill="#000000">::LFSTK_listGadgetClass</text>
</a>
</g>
</g>
<!-- Node3&#45;&gt;Node9 -->
<g id="edge8" class="edge">
<title>Node3&#45;&gt;Node9</title>
<path fill="none" stroke="#191970" d="M172.8571,-234.1238C160.1499,-232.4277 147.2343,-230.7039 135.0562,-229.0784"/>
<polygon fill="#191970" stroke="#191970" points="172.6101,-237.6218 182.9852,-235.4756 173.5362,-230.6833 172.6101,-237.6218"/>
</g>
<!-- Node10 -->
<g id="node10" class="node">
<title>Node10</title>
<g id="a_node10"><a xlink:href="class_l_f_s_t_k__menu_item_class_a382a9775dff59f06606ef0b3f43382cc.xhtml#a382a9775dff59f06606ef0b3f43382cc" target="_top" xlink:title=" ">
<polygon fill="none" stroke="#000000" points="6.944,-153.5 6.944,-185.5 134.625,-185.5 134.625,-153.5 6.944,-153.5"/>
<text text-anchor="start" x="14.944" y="-172.5" font-family="Helvetica,sans-Serif" font-size="10.00" fill="#000000">LFSTK_menuItemClass</text>
<text text-anchor="middle" x="70.7845" y="-160.5" font-family="Helvetica,sans-Serif" font-size="10.00" fill="#000000">::LFSTK_menuItemClass</text>
</a>
</g>
</g>
<!-- Node3&#45;&gt;Node10 -->
<g id="edge9" class="edge">
<title>Node3&#45;&gt;Node10</title>
<path fill="none" stroke="#191970" d="M226.0722,-231.2149C202.7701,-220.9525 170.3831,-206.9646 141.569,-195.5 133.1757,-192.1605 124.1646,-188.7323 115.4785,-185.5059"/>
<polygon fill="#191970" stroke="#191970" points="224.9043,-234.5253 235.4657,-235.3668 227.7342,-228.1228 224.9043,-234.5253"/>
</g>
<!-- Node11 -->
<g id="node11" class="node">
<title>Node11</title>
<g id="a_node11"><a xlink:href="class_l_f_s_t_k__multi_line_edit_class_a3319d21c84b3437e69bb87dc77531322.xhtml#a3319d21c84b3437e69bb87dc77531322" target="_top" xlink:title=" ">
<polygon fill="none" stroke="#000000" points=".5565,-102.5 .5565,-134.5 141.0125,-134.5 141.0125,-102.5 .5565,-102.5"/>
<text text-anchor="start" x="8.5565" y="-121.5" font-family="Helvetica,sans-Serif" font-size="10.00" fill="#000000">LFSTK_multiLineEditClass</text>
<text text-anchor="middle" x="70.7845" y="-109.5" font-family="Helvetica,sans-Serif" font-size="10.00" fill="#000000">::LFSTK_multiLineEditClass</text>
</a>
</g>
</g>
<!-- Node3&#45;&gt;Node11 -->
<g id="edge10" class="edge">
<title>Node3&#45;&gt;Node11</title>
<path fill="none" stroke="#191970" d="M240.19,-228.558C213.111,-203.1811 162.6589,-156.9446 141.569,-144.5 135.3677,-140.8408 128.5637,-137.5537 121.7023,-134.6479"/>
<polygon fill="#191970" stroke="#191970" points="237.793,-231.1085 247.4751,-235.4107 242.5892,-226.0097 237.793,-231.1085"/>
</g>
<!-- Node12 -->
<g id="node12" class="node">
<title>Node12</title>
<g id="a_node12"><a xlink:href="class_l_f_s_t_k__scroll_bar_class_a3da4281c24ac345ba32a4636ce2af38b.xhtml#a3da4281c24ac345ba32a4636ce2af38b" target="_top" xlink:title=" ">
<polygon fill="none" stroke="#000000" points="9.7285,-51.5 9.7285,-83.5 131.8405,-83.5 131.8405,-51.5 9.7285,-51.5"/>
<text text-anchor="start" x="17.7285" y="-70.5" font-family="Helvetica,sans-Serif" font-size="10.00" fill="#000000">LFSTK_scrollBarClass</text>
<text text-anchor="middle" x="70.7845" y="-58.5" font-family="Helvetica,sans-Serif" font-size="10.00" fill="#000000">::LFSTK_scrollBarClass</text>
</a>
</g>
</g>
<!-- Node3&#45;&gt;Node12 -->
<g id="edge11" class="edge">
<title>Node3&#45;&gt;Node12</title>
<path fill="none" stroke="#191970" d="M236.6292,-229.0865C219.0461,-214.8077 194.406,-192.7969 177.569,-169.5 155.4406,-138.8815 169.5561,-117.8748 141.569,-92.5 137.8035,-89.0859 133.5424,-86.1319 129.0242,-83.5769"/>
<polygon fill="#191970" stroke="#191970" points="234.6232,-231.963 244.6289,-235.4467 238.9796,-226.4837 234.6232,-231.963"/>
</g>
<!-- Node13 -->
<g id="node13" class="node">
<title>Node13</title>
<g id="a_node13"><a xlink:href="class_l_f_s_t_k__toggle_button_class_a4cc0929a4d4113b9b40a3bdc54898ab7.xhtml#a4cc0929a4d4113b9b40a3bdc54898ab7" target="_top" xlink:title=" ">
<polygon fill="none" stroke="#000000" points="1.101,-.5 1.101,-32.5 140.468,-32.5 140.468,-.5 1.101,-.5"/>
<text text-anchor="start" x="9.101" y="-19.5" font-family="Helvetica,sans-Serif" font-size="10.00" fill="#000000">LFSTK_toggleButtonClass</text>
<text text-anchor="middle" x="70.7845" y="-7.5" font-family="Helvetica,sans-Serif" font-size="10.00" fill="#000000">::LFSTK_toggleButtonClass</text>
</a>
</g>
</g>
<!-- Node3&#45;&gt;Node13 -->
<g id="edge12" class="edge">
<title>Node3&#45;&gt;Node13</title>
<path fill="none" stroke="#191970" d="M234.9849,-229.2768C216.8477,-215.3832 192.2803,-193.8088 177.569,-169.5 146.9718,-118.9415 181.969,-84.6299 141.569,-41.5 138.3615,-38.0758 134.6563,-35.1202 130.6569,-32.5692"/>
<polygon fill="#191970" stroke="#191970" points="233.1872,-232.3015 243.3008,-235.4585 237.3634,-226.6837 233.1872,-232.3015"/>
</g>
<!-- Node16 -->
<g id="node16" class="node">
<title>Node16</title>
<g id="a_node16"><a xlink:href="class_l_f_s_t_k__file_dialog_class_aacf1d4b61cbb5b40d06f591ea96f9ea7.xhtml#aacf1d4b61cbb5b40d06f591ea96f9ea7" target="_top" xlink:title=" ">
<polygon fill="none" stroke="#000000" points="195.086,-127.5 195.086,-159.5 321.095,-159.5 321.095,-127.5 195.086,-127.5"/>
<text text-anchor="start" x="203.086" y="-146.5" font-family="Helvetica,sans-Serif" font-size="10.00" fill="#000000">LFSTK_fileDialogClass</text>
<text text-anchor="middle" x="258.0905" y="-134.5" font-family="Helvetica,sans-Serif" font-size="10.00" fill="#000000">::LFSTK_showFileDialog</text>
</a>
</g>
</g>
<!-- Node15&#45;&gt;Node16 -->
<g id="edge15" class="edge">
<title>Node15&#45;&gt;Node16</title>
<path fill="none" stroke="#191970" d="M371.1426,-143.5C354.6981,-143.5 337.3822,-143.5 321.3798,-143.5"/>
<polygon fill="#191970" stroke="#191970" points="371.2494,-147.0001 381.2494,-143.5 371.2493,-140.0001 371.2494,-147.0001"/>
</g>
</g>
</svg>
