<?xml version="1.0" encoding="UTF-8" standalone="no"?>
<!DOCTYPE svg PUBLIC "-//W3C//DTD SVG 1.1//EN"
 "http://www.w3.org/Graphics/SVG/1.1/DTD/svg11.dtd">
<!-- Generated by graphviz version 2.40.1 (20161225.0304)
 -->
<!-- Title: LFSTK_windowClass::LFSTK_windowClass Pages: 1 -->
<svg width="623pt" height="245pt"
 viewBox="0.00 0.00 623.37 245.00" xmlns="http://www.w3.org/2000/svg" xmlns:xlink="http://www.w3.org/1999/xlink">
<g id="graph0" class="graph" transform="scale(1 1) rotate(0) translate(4 241)">
<title>LFSTK_windowClass::LFSTK_windowClass</title>
<!-- Node1 -->
<g id="node1" class="node">
<title>Node1</title>
<g id="a_node1"><a xlink:title=" ">
<polygon fill="#bfbfbf" stroke="#000000" points="0,-76.5 0,-108.5 116.563,-108.5 116.563,-76.5 0,-76.5"/>
<text text-anchor="start" x="8" y="-95.5" font-family="Helvetica,sans-Serif" font-size="10.00" fill="#000000">LFSTK_windowClass::</text>
<text text-anchor="middle" x="58.2815" y="-83.5" font-family="Helvetica,sans-Serif" font-size="10.00" fill="#000000">LFSTK_windowClass</text>
</a>
</g>
</g>
<!-- Node2 -->
<g id="node2" class="node">
<title>Node2</title>
<g id="a_node2"><a xlink:href="class_l_f_s_t_k__window_class_a36491159cf4fdc3c5d0909b2195af9ab.xhtml#a36491159cf4fdc3c5d0909b2195af9ab" target="_top" xlink:title=" ">
<polygon fill="none" stroke="#000000" points="152.563,-102.5 152.563,-134.5 269.126,-134.5 269.126,-102.5 152.563,-102.5"/>
<text text-anchor="start" x="160.563" y="-121.5" font-family="Helvetica,sans-Serif" font-size="10.00" fill="#000000">LFSTK_windowClass::</text>
<text text-anchor="middle" x="210.8445" y="-109.5" font-family="Helvetica,sans-Serif" font-size="10.00" fill="#000000">initWindow</text>
</a>
</g>
</g>
<!-- Node1&#45;&gt;Node2 -->
<g id="edge1" class="edge">
<title>Node1&#45;&gt;Node2</title>
<path fill="none" stroke="#191970" d="M116.83,-102.4779C125.2252,-103.9086 133.9237,-105.3911 142.4876,-106.8505"/>
<polygon fill="#191970" stroke="#191970" points="142.0068,-110.319 152.4527,-108.5488 143.1828,-103.4184 142.0068,-110.319"/>
</g>
<!-- Node9 -->
<g id="node9" class="node">
<title>Node9</title>
<g id="a_node9"><a xlink:href="class_l_f_s_t_k__window_class_ac8c342109a0f8599f550475cef048745.xhtml#ac8c342109a0f8599f550475cef048745" target="_top" xlink:title=" ">
<polygon fill="none" stroke="#000000" points="152.563,-51.5 152.563,-83.5 269.126,-83.5 269.126,-51.5 152.563,-51.5"/>
<text text-anchor="start" x="160.563" y="-70.5" font-family="Helvetica,sans-Serif" font-size="10.00" fill="#000000">LFSTK_windowClass::</text>
<text text-anchor="middle" x="210.8445" y="-58.5" font-family="Helvetica,sans-Serif" font-size="10.00" fill="#000000">setWindowGeom</text>
</a>
</g>
</g>
<!-- Node1&#45;&gt;Node9 -->
<g id="edge8" class="edge">
<title>Node1&#45;&gt;Node9</title>
<path fill="none" stroke="#191970" d="M116.83,-82.9058C125.2252,-81.5302 133.9237,-80.1048 142.4876,-78.7014"/>
<polygon fill="#191970" stroke="#191970" points="143.1503,-82.1396 152.4527,-77.0685 142.0183,-75.2317 143.1503,-82.1396"/>
</g>
<!-- Node3 -->
<g id="node3" class="node">
<title>Node3</title>
<g id="a_node3"><a xlink:href="class_l_f_s_t_k__window_class_aa1cdaa019a010bb17387dd39b6165303.xhtml#aa1cdaa019a010bb17387dd39b6165303" target="_top" xlink:title=" ">
<polygon fill="none" stroke="#000000" points="305.126,-102.5 305.126,-134.5 421.689,-134.5 421.689,-102.5 305.126,-102.5"/>
<text text-anchor="start" x="313.126" y="-121.5" font-family="Helvetica,sans-Serif" font-size="10.00" fill="#000000">LFSTK_windowClass::</text>
<text text-anchor="middle" x="363.4075" y="-109.5" font-family="Helvetica,sans-Serif" font-size="10.00" fill="#000000">loadGlobalColours</text>
</a>
</g>
</g>
<!-- Node2&#45;&gt;Node3 -->
<g id="edge2" class="edge">
<title>Node2&#45;&gt;Node3</title>
<path fill="none" stroke="#191970" d="M269.393,-118.5C277.6969,-118.5 286.2976,-118.5 294.7712,-118.5"/>
<polygon fill="#191970" stroke="#191970" points="295.0157,-122.0001 305.0157,-118.5 295.0156,-115.0001 295.0157,-122.0001"/>
</g>
<!-- Node4 -->
<g id="node4" class="node">
<title>Node4</title>
<g id="a_node4"><a xlink:href="class_l_f_s_t_k__lib_a24d88a5207e8355d10b788238d981fe6.xhtml#a24d88a5207e8355d10b788238d981fe6" target="_top" xlink:title=" ">
<polygon fill="none" stroke="#000000" points="466.844,-204.5 466.844,-236.5 606.21,-236.5 606.21,-204.5 466.844,-204.5"/>
<text text-anchor="start" x="474.844" y="-223.5" font-family="Helvetica,sans-Serif" font-size="10.00" fill="#000000">LFSTK_lib::LFSTK_getAuto</text>
<text text-anchor="middle" x="536.527" y="-211.5" font-family="Helvetica,sans-Serif" font-size="10.00" fill="#000000">LabelColour</text>
</a>
</g>
</g>
<!-- Node3&#45;&gt;Node4 -->
<g id="edge3" class="edge">
<title>Node3&#45;&gt;Node4</title>
<path fill="none" stroke="#191970" d="M379.3744,-134.7957C397.0862,-152.0446 427.206,-179.0066 457.689,-195.5 460.9764,-197.2787 464.4105,-198.9542 467.9273,-200.529"/>
<polygon fill="#191970" stroke="#191970" points="466.8088,-203.8545 477.3861,-204.4645 469.4978,-197.3916 466.8088,-203.8545"/>
</g>
<!-- Node5 -->
<g id="node5" class="node">
<title>Node5</title>
<g id="a_node5"><a xlink:href="class_l_f_s_t_k__lib_a46aa104681d600dd4eb24549e813b5cc.xhtml#a46aa104681d600dd4eb24549e813b5cc" target="_top" xlink:title=" ">
<polygon fill="none" stroke="#000000" points="462.68,-153.5 462.68,-185.5 610.374,-185.5 610.374,-153.5 462.68,-153.5"/>
<text text-anchor="start" x="470.68" y="-172.5" font-family="Helvetica,sans-Serif" font-size="10.00" fill="#000000">LFSTK_lib::LFSTK_getGlobal</text>
<text text-anchor="middle" x="536.527" y="-160.5" font-family="Helvetica,sans-Serif" font-size="10.00" fill="#000000">String</text>
</a>
</g>
</g>
<!-- Node3&#45;&gt;Node5 -->
<g id="edge4" class="edge">
<title>Node3&#45;&gt;Node5</title>
<path fill="none" stroke="#191970" d="M418.1836,-134.6367C435.4014,-139.709 454.5676,-145.3552 472.375,-150.6012"/>
<polygon fill="#191970" stroke="#191970" points="471.5257,-153.9997 482.1072,-153.4683 473.5039,-147.285 471.5257,-153.9997"/>
</g>
<!-- Node6 -->
<g id="node6" class="node">
<title>Node6</title>
<g id="a_node6"><a xlink:href="class_l_f_s_t_k__window_class_a3a14b82ac1628b75173c5cb37d20926b.xhtml#a3a14b82ac1628b75173c5cb37d20926b" target="_top" xlink:title=" ">
<polygon fill="none" stroke="#000000" points="465.463,-102.5 465.463,-134.5 607.591,-134.5 607.591,-102.5 465.463,-102.5"/>
<text text-anchor="start" x="473.463" y="-121.5" font-family="Helvetica,sans-Serif" font-size="10.00" fill="#000000">LFSTK_windowClass::</text>
<text text-anchor="middle" x="536.527" y="-109.5" font-family="Helvetica,sans-Serif" font-size="10.00" fill="#000000">LFSTK_setFontColourName</text>
</a>
</g>
</g>
<!-- Node3&#45;&gt;Node6 -->
<g id="edge5" class="edge">
<title>Node3&#45;&gt;Node6</title>
<path fill="none" stroke="#191970" d="M422.0179,-118.5C432.6823,-118.5 443.9809,-118.5 455.1634,-118.5"/>
<polygon fill="#191970" stroke="#191970" points="455.3789,-122.0001 465.3789,-118.5 455.3788,-115.0001 455.3789,-122.0001"/>
</g>
<!-- Node7 -->
<g id="node7" class="node">
<title>Node7</title>
<g id="a_node7"><a xlink:href="class_l_f_s_t_k__window_class_a9d54e326ce33b8806f19c9353269e6a8.xhtml#a9d54e326ce33b8806f19c9353269e6a8" target="_top" xlink:title=" ">
<polygon fill="none" stroke="#000000" points="478.2455,-51.5 478.2455,-83.5 594.8085,-83.5 594.8085,-51.5 478.2455,-51.5"/>
<text text-anchor="start" x="486.2455" y="-70.5" font-family="Helvetica,sans-Serif" font-size="10.00" fill="#000000">LFSTK_windowClass::</text>
<text text-anchor="middle" x="536.527" y="-58.5" font-family="Helvetica,sans-Serif" font-size="10.00" fill="#000000">LFSTK_setFontString</text>
</a>
</g>
</g>
<!-- Node3&#45;&gt;Node7 -->
<g id="edge6" class="edge">
<title>Node3&#45;&gt;Node7</title>
<path fill="none" stroke="#191970" d="M418.1836,-102.3633C435.4014,-97.291 454.5676,-91.6448 472.375,-86.3988"/>
<polygon fill="#191970" stroke="#191970" points="473.5039,-89.715 482.1072,-83.5317 471.5257,-83.0003 473.5039,-89.715"/>
</g>
<!-- Node8 -->
<g id="node8" class="node">
<title>Node8</title>
<g id="a_node8"><a xlink:href="class_l_f_s_t_k__window_class_a612850c5641e44aea8a2c0b11ad8cd1b.xhtml#a612850c5641e44aea8a2c0b11ad8cd1b" target="_top" xlink:title=" ">
<polygon fill="none" stroke="#000000" points="457.689,-.5 457.689,-32.5 615.365,-32.5 615.365,-.5 457.689,-.5"/>
<text text-anchor="start" x="465.689" y="-19.5" font-family="Helvetica,sans-Serif" font-size="10.00" fill="#000000">LFSTK_windowClass::</text>
<text text-anchor="middle" x="536.527" y="-7.5" font-family="Helvetica,sans-Serif" font-size="10.00" fill="#000000">LFSTK_setWindowColourName</text>
</a>
</g>
</g>
<!-- Node3&#45;&gt;Node8 -->
<g id="edge7" class="edge">
<title>Node3&#45;&gt;Node8</title>
<path fill="none" stroke="#191970" d="M379.4518,-102.4957C397.2296,-85.5391 427.4056,-58.9851 457.689,-42.5 461.6408,-40.3488 465.8011,-38.3357 470.0605,-36.4588"/>
<polygon fill="#191970" stroke="#191970" points="471.5892,-39.6144 479.5004,-32.5672 468.9212,-33.1428 471.5892,-39.6144"/>
</g>
</g>
</svg>
