<?xml version="1.0" encoding="UTF-8" standalone="no"?>
<!DOCTYPE svg PUBLIC "-//W3C//DTD SVG 1.1//EN"
 "http://www.w3.org/Graphics/SVG/1.1/DTD/svg11.dtd">
<!-- Generated by graphviz version 2.40.1 (20161225.0304)
 -->
<!-- Title: LFSTK_gadgetClass::LFSTK_getGeom Pages: 1 -->
<svg width="975pt" height="590pt"
 viewBox="0.00 0.00 975.19 590.00" xmlns="http://www.w3.org/2000/svg" xmlns:xlink="http://www.w3.org/1999/xlink">
<g id="graph0" class="graph" transform="scale(1 1) rotate(0) translate(4 586)">
<title>LFSTK_gadgetClass::LFSTK_getGeom</title>
<!-- Node1 -->
<g id="node1" class="node">
<title>Node1</title>
<g id="a_node1"><a xlink:title=" ">
<polygon fill="#bfbfbf" stroke="#000000" points="853.39,-447.5 853.39,-479.5 967.193,-479.5 967.193,-447.5 853.39,-447.5"/>
<text text-anchor="start" x="861.39" y="-466.5" font-family="Helvetica,sans-Serif" font-size="10.00" fill="#000000">LFSTK_gadgetClass::</text>
<text text-anchor="middle" x="910.2915" y="-454.5" font-family="Helvetica,sans-Serif" font-size="10.00" fill="#000000">LFSTK_getGeom</text>
</a>
</g>
</g>
<!-- Node2 -->
<g id="node2" class="node">
<title>Node2</title>
<g id="a_node2"><a xlink:href="class_l_f_s_t_k__scroll_bar_class_a72b11062708e9db06d05162734b5555b.xhtml#a72b11062708e9db06d05162734b5555b" target="_top" xlink:title=" ">
<polygon fill="none" stroke="#000000" points="517.987,-549.5 517.987,-581.5 634.541,-581.5 634.541,-549.5 517.987,-549.5"/>
<text text-anchor="start" x="525.987" y="-568.5" font-family="Helvetica,sans-Serif" font-size="10.00" fill="#000000">LFSTK_scrollBarClass</text>
<text text-anchor="middle" x="576.264" y="-556.5" font-family="Helvetica,sans-Serif" font-size="10.00" fill="#000000">::mouseUp</text>
</a>
</g>
</g>
<!-- Node1&#45;&gt;Node2 -->
<g id="edge1" class="edge">
<title>Node1&#45;&gt;Node2</title>
<path fill="none" stroke="#191970" d="M847.8934,-482.5541C784.7346,-501.8406 688.1602,-531.3309 628.792,-549.4598"/>
<polygon fill="#191970" stroke="#191970" points="849.1904,-485.8177 857.7323,-479.5497 847.146,-479.1229 849.1904,-485.8177"/>
</g>
<!-- Node3 -->
<g id="node3" class="node">
<title>Node3</title>
<g id="a_node3"><a xlink:href="class_l_f_s_t_k__multi_line_edit_class_ae1de86c1df295bbe1bcb63b2f98fbb4d.xhtml#ae1de86c1df295bbe1bcb63b2f98fbb4d" target="_top" xlink:title=" ">
<polygon fill="none" stroke="#000000" points="682.492,-192.5 682.492,-224.5 817.39,-224.5 817.39,-192.5 682.492,-192.5"/>
<text text-anchor="start" x="690.492" y="-211.5" font-family="Helvetica,sans-Serif" font-size="10.00" fill="#000000">LFSTK_multiLineEditClass</text>
<text text-anchor="middle" x="749.941" y="-199.5" font-family="Helvetica,sans-Serif" font-size="10.00" fill="#000000">::setDisplayLines</text>
</a>
</g>
</g>
<!-- Node1&#45;&gt;Node3 -->
<g id="edge2" class="edge">
<title>Node1&#45;&gt;Node3</title>
<path fill="none" stroke="#191970" d="M894.6038,-438.5523C861.9284,-386.5898 787.3532,-267.9953 760.13,-224.7032"/>
<polygon fill="#191970" stroke="#191970" points="891.7307,-440.5584 900.0169,-447.1607 897.6565,-436.8321 891.7307,-440.5584"/>
</g>
<!-- Node12 -->
<g id="node12" class="node">
<title>Node12</title>
<g id="a_node12"><a xlink:href="class_l_f_s_t_k__scroll_bar_class_a3e47c5f9944ddb2a861b80853f85ce12.xhtml#a3e47c5f9944ddb2a861b80853f85ce12" target="_top" xlink:title=" ">
<polygon fill="none" stroke="#000000" points="691.664,-447.5 691.664,-479.5 808.218,-479.5 808.218,-447.5 691.664,-447.5"/>
<text text-anchor="start" x="699.664" y="-466.5" font-family="Helvetica,sans-Serif" font-size="10.00" fill="#000000">LFSTK_scrollBarClass</text>
<text text-anchor="middle" x="749.941" y="-454.5" font-family="Helvetica,sans-Serif" font-size="10.00" fill="#000000">::setState</text>
</a>
</g>
</g>
<!-- Node1&#45;&gt;Node12 -->
<g id="edge12" class="edge">
<title>Node1&#45;&gt;Node12</title>
<path fill="none" stroke="#191970" d="M843.2473,-463.5C831.6619,-463.5 819.7005,-463.5 808.3664,-463.5"/>
<polygon fill="#191970" stroke="#191970" points="843.3065,-467.0001 853.3064,-463.5 843.3064,-460.0001 843.3065,-467.0001"/>
</g>
<!-- Node4 -->
<g id="node4" class="node">
<title>Node4</title>
<g id="a_node4"><a xlink:href="class_l_f_s_t_k__multi_line_edit_class_a98abb42ca4d8eb5cf5ea213f77ffd823.xhtml#a98abb42ca4d8eb5cf5ea213f77ffd823" target="_top" xlink:title=" ">
<polygon fill="none" stroke="#000000" points="508.815,-141.5 508.815,-173.5 643.713,-173.5 643.713,-141.5 508.815,-141.5"/>
<text text-anchor="start" x="516.815" y="-160.5" font-family="Helvetica,sans-Serif" font-size="10.00" fill="#000000">LFSTK_multiLineEditClass</text>
<text text-anchor="middle" x="576.264" y="-148.5" font-family="Helvetica,sans-Serif" font-size="10.00" fill="#000000">::gotFocus</text>
</a>
</g>
</g>
<!-- Node3&#45;&gt;Node4 -->
<g id="edge3" class="edge">
<title>Node3&#45;&gt;Node4</title>
<path fill="none" stroke="#191970" d="M685.2122,-189.4925C667.3288,-184.241 648.1051,-178.596 630.859,-173.5317"/>
<polygon fill="#191970" stroke="#191970" points="684.4075,-192.9039 694.9885,-192.3633 686.3798,-186.1875 684.4075,-192.9039"/>
</g>
<!-- Node5 -->
<g id="node5" class="node">
<title>Node5</title>
<g id="a_node5"><a xlink:href="class_l_f_s_t_k__multi_line_edit_class_afabfc40cf51898aa669d7aaf16660899.xhtml#afabfc40cf51898aa669d7aaf16660899" target="_top" xlink:title=" ">
<polygon fill="none" stroke="#000000" points="164.24,-48.5 164.24,-80.5 299.138,-80.5 299.138,-48.5 164.24,-48.5"/>
<text text-anchor="start" x="172.24" y="-67.5" font-family="Helvetica,sans-Serif" font-size="10.00" fill="#000000">LFSTK_multiLineEditClass</text>
<text text-anchor="middle" x="231.689" y="-55.5" font-family="Helvetica,sans-Serif" font-size="10.00" fill="#000000">::keyRelease</text>
</a>
</g>
</g>
<!-- Node3&#45;&gt;Node5 -->
<g id="edge4" class="edge">
<title>Node3&#45;&gt;Node5</title>
<path fill="none" stroke="#191970" d="M726.5192,-185.4244C706.8698,-167.5533 677.1649,-143.8307 646.492,-131.5 517.0956,-79.4817 471.9701,-119.4505 335.138,-92.5 318.7994,-89.2819 301.2408,-84.8917 285.3123,-80.5421"/>
<polygon fill="#191970" stroke="#191970" points="724.3412,-188.1788 734.0445,-192.4328 729.1119,-183.0562 724.3412,-188.1788"/>
</g>
<!-- Node6 -->
<g id="node6" class="node">
<title>Node6</title>
<g id="a_node6"><a xlink:href="class_l_f_s_t_k__multi_line_edit_class_a3319d21c84b3437e69bb87dc77531322.xhtml#a3319d21c84b3437e69bb87dc77531322" target="_top" xlink:title=" ">
<polygon fill="none" stroke="#000000" points="506.036,-294.5 506.036,-326.5 646.492,-326.5 646.492,-294.5 506.036,-294.5"/>
<text text-anchor="start" x="514.036" y="-313.5" font-family="Helvetica,sans-Serif" font-size="10.00" fill="#000000">LFSTK_multiLineEditClass</text>
<text text-anchor="middle" x="576.264" y="-301.5" font-family="Helvetica,sans-Serif" font-size="10.00" fill="#000000">::LFSTK_multiLineEditClass</text>
</a>
</g>
</g>
<!-- Node3&#45;&gt;Node6 -->
<g id="edge5" class="edge">
<title>Node3&#45;&gt;Node6</title>
<path fill="none" stroke="#191970" d="M723.881,-231.3491C703.803,-248.0674 674.7786,-270.3785 646.492,-285.5 640.4429,-288.7337 633.8884,-291.7 627.2971,-294.3711"/>
<polygon fill="#191970" stroke="#191970" points="726.2643,-233.9175 731.6451,-224.7908 721.7472,-228.57 726.2643,-233.9175"/>
</g>
<!-- Node7 -->
<g id="node7" class="node">
<title>Node7</title>
<g id="a_node7"><a xlink:href="class_l_f_s_t_k__multi_line_edit_class_a7e92ac74c2a5d709dc5911d291b6ed90.xhtml#a7e92ac74c2a5d709dc5911d291b6ed90" target="_top" xlink:title=" ">
<polygon fill="none" stroke="#000000" points="508.815,-243.5 508.815,-275.5 643.713,-275.5 643.713,-243.5 508.815,-243.5"/>
<text text-anchor="start" x="516.815" y="-262.5" font-family="Helvetica,sans-Serif" font-size="10.00" fill="#000000">LFSTK_multiLineEditClass</text>
<text text-anchor="middle" x="576.264" y="-250.5" font-family="Helvetica,sans-Serif" font-size="10.00" fill="#000000">::LFSTK_setFocus</text>
</a>
</g>
</g>
<!-- Node3&#45;&gt;Node7 -->
<g id="edge6" class="edge">
<title>Node3&#45;&gt;Node7</title>
<path fill="none" stroke="#191970" d="M685.2122,-227.5075C667.3288,-232.759 648.1051,-238.404 630.859,-243.4683"/>
<polygon fill="#191970" stroke="#191970" points="686.3798,-230.8125 694.9885,-224.6367 684.4075,-224.0961 686.3798,-230.8125"/>
</g>
<!-- Node8 -->
<g id="node8" class="node">
<title>Node8</title>
<g id="a_node8"><a xlink:href="class_l_f_s_t_k__multi_line_edit_class_ae50305eb44baa381e0c7ce5c2e86a22e.xhtml#ae50305eb44baa381e0c7ce5c2e86a22e" target="_top" xlink:title=" ">
<polygon fill="none" stroke="#000000" points="508.815,-51.5 508.815,-83.5 643.713,-83.5 643.713,-51.5 508.815,-51.5"/>
<text text-anchor="start" x="516.815" y="-70.5" font-family="Helvetica,sans-Serif" font-size="10.00" fill="#000000">LFSTK_multiLineEditClass</text>
<text text-anchor="middle" x="576.264" y="-58.5" font-family="Helvetica,sans-Serif" font-size="10.00" fill="#000000">::LFSTK_setFormatedText</text>
</a>
</g>
</g>
<!-- Node3&#45;&gt;Node8 -->
<g id="edge7" class="edge">
<title>Node3&#45;&gt;Node8</title>
<path fill="none" stroke="#191970" d="M732.015,-184.3785C712.9846,-160.1111 680.9475,-122.8848 646.492,-98.5 638.4418,-92.8027 629.1776,-87.8089 620.0739,-83.5879"/>
<polygon fill="#191970" stroke="#191970" points="729.3074,-186.5989 738.1864,-192.3794 734.8501,-182.3236 729.3074,-186.5989"/>
</g>
<!-- Node11 -->
<g id="node11" class="node">
<title>Node11</title>
<g id="a_node11"><a xlink:href="class_l_f_s_t_k__multi_line_edit_class_a051e7185aee5e4994ffca22270335b96.xhtml#a051e7185aee5e4994ffca22270335b96" target="_top" xlink:title=" ">
<polygon fill="none" stroke="#000000" points="508.815,-192.5 508.815,-224.5 643.713,-224.5 643.713,-192.5 508.815,-192.5"/>
<text text-anchor="start" x="516.815" y="-211.5" font-family="Helvetica,sans-Serif" font-size="10.00" fill="#000000">LFSTK_multiLineEditClass</text>
<text text-anchor="middle" x="576.264" y="-199.5" font-family="Helvetica,sans-Serif" font-size="10.00" fill="#000000">::lostFocus</text>
</a>
</g>
</g>
<!-- Node3&#45;&gt;Node11 -->
<g id="edge11" class="edge">
<title>Node3&#45;&gt;Node11</title>
<path fill="none" stroke="#191970" d="M672.1013,-208.5C662.6345,-208.5 653.0234,-208.5 643.7248,-208.5"/>
<polygon fill="#191970" stroke="#191970" points="672.2957,-212.0001 682.2956,-208.5 672.2956,-205.0001 672.2957,-212.0001"/>
</g>
<!-- Node9 -->
<g id="node9" class="node">
<title>Node9</title>
<g id="a_node9"><a xlink:href="class_l_f_s_t_k__multi_line_edit_class_ac4155f83eae3374ea97007bd36b7985a.xhtml#ac4155f83eae3374ea97007bd36b7985a" target="_top" xlink:title=" ">
<polygon fill="none" stroke="#000000" points="335.138,-.5 335.138,-32.5 470.036,-32.5 470.036,-.5 335.138,-.5"/>
<text text-anchor="start" x="343.138" y="-19.5" font-family="Helvetica,sans-Serif" font-size="10.00" fill="#000000">LFSTK_multiLineEditClass</text>
<text text-anchor="middle" x="402.587" y="-7.5" font-family="Helvetica,sans-Serif" font-size="10.00" fill="#000000">::getClip</text>
</a>
</g>
</g>
<!-- Node8&#45;&gt;Node9 -->
<g id="edge8" class="edge">
<title>Node8&#45;&gt;Node9</title>
<path fill="none" stroke="#191970" d="M511.5352,-48.4925C493.6518,-43.241 474.4281,-37.596 457.182,-32.5317"/>
<polygon fill="#191970" stroke="#191970" points="510.7305,-51.9039 521.3115,-51.3633 512.7028,-45.1875 510.7305,-51.9039"/>
</g>
<!-- Node10 -->
<g id="node10" class="node">
<title>Node10</title>
<g id="a_node10"><a xlink:href="class_l_f_s_t_k__multi_line_edit_class_a67d883fd9590a202e35805e040604226.xhtml#a67d883fd9590a202e35805e040604226" target="_top" xlink:title=" ">
<polygon fill="none" stroke="#000000" points="335.138,-51.5 335.138,-83.5 470.036,-83.5 470.036,-51.5 335.138,-51.5"/>
<text text-anchor="start" x="343.138" y="-70.5" font-family="Helvetica,sans-Serif" font-size="10.00" fill="#000000">LFSTK_multiLineEditClass</text>
<text text-anchor="middle" x="402.587" y="-58.5" font-family="Helvetica,sans-Serif" font-size="10.00" fill="#000000">::LFSTK_dropData</text>
</a>
</g>
</g>
<!-- Node8&#45;&gt;Node10 -->
<g id="edge10" class="edge">
<title>Node8&#45;&gt;Node10</title>
<path fill="none" stroke="#191970" d="M498.4243,-67.5C488.9575,-67.5 479.3464,-67.5 470.0478,-67.5"/>
<polygon fill="#191970" stroke="#191970" points="498.6187,-71.0001 508.6186,-67.5 498.6186,-64.0001 498.6187,-71.0001"/>
</g>
<!-- Node9&#45;&gt;Node5 -->
<g id="edge9" class="edge">
<title>Node9&#45;&gt;Node5</title>
<path fill="none" stroke="#191970" d="M335.2685,-35.4077C319.9353,-39.7143 303.7856,-44.2503 288.9195,-48.4257"/>
<polygon fill="#191970" stroke="#191970" points="336.524,-38.6906 345.205,-32.6168 334.6311,-31.9514 336.524,-38.6906"/>
</g>
<!-- Node12&#45;&gt;Node2 -->
<g id="edge25" class="edge">
<title>Node12&#45;&gt;Node2</title>
<path fill="none" stroke="#191970" d="M723.881,-486.3491C703.803,-503.0674 674.7786,-525.3785 646.492,-540.5 640.4429,-543.7337 633.8884,-546.7 627.2971,-549.3711"/>
<polygon fill="#191970" stroke="#191970" points="726.2643,-488.9175 731.6451,-479.7908 721.7472,-483.57 726.2643,-488.9175"/>
</g>
<!-- Node13 -->
<g id="node13" class="node">
<title>Node13</title>
<g id="a_node13"><a xlink:href="class_l_f_s_t_k__scroll_bar_class_a6a4b0d2c9217779bb3bc0b4c936130ce.xhtml#a6a4b0d2c9217779bb3bc0b4c936130ce" target="_top" xlink:title=" ">
<polygon fill="none" stroke="#000000" points="517.987,-447.5 517.987,-479.5 634.541,-479.5 634.541,-447.5 517.987,-447.5"/>
<text text-anchor="start" x="525.987" y="-466.5" font-family="Helvetica,sans-Serif" font-size="10.00" fill="#000000">LFSTK_scrollBarClass</text>
<text text-anchor="middle" x="576.264" y="-454.5" font-family="Helvetica,sans-Serif" font-size="10.00" fill="#000000">::LFSTK_clearWindow</text>
</a>
</g>
</g>
<!-- Node12&#45;&gt;Node13 -->
<g id="edge13" class="edge">
<title>Node12&#45;&gt;Node13</title>
<path fill="none" stroke="#191970" d="M681.5826,-456.8877C666.0853,-456.6535 649.7646,-456.718 634.7208,-457.0812"/>
<polygon fill="#191970" stroke="#191970" points="681.5592,-460.3878 691.6259,-457.0846 681.6965,-453.3892 681.5592,-460.3878"/>
</g>
<!-- Node14 -->
<g id="node14" class="node">
<title>Node14</title>
<g id="a_node14"><a xlink:href="class_l_f_s_t_k__scroll_bar_class_a955c2789a3ce6d849a3d00a3bf4911e7.xhtml#a955c2789a3ce6d849a3d00a3bf4911e7" target="_top" xlink:title=" ">
<polygon fill="none" stroke="#000000" points="517.987,-396.5 517.987,-428.5 634.541,-428.5 634.541,-396.5 517.987,-396.5"/>
<text text-anchor="start" x="525.987" y="-415.5" font-family="Helvetica,sans-Serif" font-size="10.00" fill="#000000">LFSTK_scrollBarClass</text>
<text text-anchor="middle" x="576.264" y="-403.5" font-family="Helvetica,sans-Serif" font-size="10.00" fill="#000000">::LFSTK_setValue</text>
</a>
</g>
</g>
<!-- Node12&#45;&gt;Node14 -->
<g id="edge15" class="edge">
<title>Node12&#45;&gt;Node14</title>
<path fill="none" stroke="#191970" d="M685.2122,-444.4925C667.3288,-439.241 648.1051,-433.596 630.859,-428.5317"/>
<polygon fill="#191970" stroke="#191970" points="684.4075,-447.9039 694.9885,-447.3633 686.3798,-441.1875 684.4075,-447.9039"/>
</g>
<!-- Node15 -->
<g id="node15" class="node">
<title>Node15</title>
<g id="a_node15"><a xlink:href="class_l_f_s_t_k__scroll_bar_class_aa1ce7f61248cfa6eeef3e8573e327d8f.xhtml#aa1ce7f61248cfa6eeef3e8573e327d8f" target="_top" xlink:title=" ">
<polygon fill="none" stroke="#000000" points="517.987,-345.5 517.987,-377.5 634.541,-377.5 634.541,-345.5 517.987,-345.5"/>
<text text-anchor="start" x="525.987" y="-364.5" font-family="Helvetica,sans-Serif" font-size="10.00" fill="#000000">LFSTK_scrollBarClass</text>
<text text-anchor="middle" x="576.264" y="-352.5" font-family="Helvetica,sans-Serif" font-size="10.00" fill="#000000">::lineUpDown</text>
</a>
</g>
</g>
<!-- Node12&#45;&gt;Node15 -->
<g id="edge16" class="edge">
<title>Node12&#45;&gt;Node15</title>
<path fill="none" stroke="#191970" d="M723.4058,-440.77C703.2897,-424.3668 674.4279,-402.5479 646.492,-387.5 639.7388,-383.8623 632.3681,-380.5204 625.0234,-377.531"/>
<polygon fill="#191970" stroke="#191970" points="721.2593,-443.5367 731.1971,-447.2097 725.7189,-438.1411 721.2593,-443.5367"/>
</g>
<!-- Node23 -->
<g id="node23" class="node">
<title>Node23</title>
<g id="a_node23"><a xlink:href="class_l_f_s_t_k__scroll_bar_class_a04c7fd897a3f2e5d496962cc7d80d4e3.xhtml#a04c7fd897a3f2e5d496962cc7d80d4e3" target="_top" xlink:title=" ">
<polygon fill="none" stroke="#000000" points="517.987,-498.5 517.987,-530.5 634.541,-530.5 634.541,-498.5 517.987,-498.5"/>
<text text-anchor="start" x="525.987" y="-517.5" font-family="Helvetica,sans-Serif" font-size="10.00" fill="#000000">LFSTK_scrollBarClass</text>
<text text-anchor="middle" x="576.264" y="-505.5" font-family="Helvetica,sans-Serif" font-size="10.00" fill="#000000">::pageUpDown</text>
</a>
</g>
</g>
<!-- Node12&#45;&gt;Node23 -->
<g id="edge26" class="edge">
<title>Node12&#45;&gt;Node23</title>
<path fill="none" stroke="#191970" d="M685.2122,-482.5075C667.3288,-487.759 648.1051,-493.404 630.859,-498.4683"/>
<polygon fill="#191970" stroke="#191970" points="686.3798,-485.8125 694.9885,-479.6367 684.4075,-479.0961 686.3798,-485.8125"/>
</g>
<!-- Node13&#45;&gt;Node12 -->
<g id="edge14" class="edge">
<title>Node13&#45;&gt;Node12</title>
<path fill="none" stroke="#191970" d="M644.7685,-470.1145C660.2709,-470.3468 676.5901,-470.2804 691.6259,-469.9154"/>
<polygon fill="#191970" stroke="#191970" points="644.7871,-466.6143 634.7208,-469.9188 644.6507,-473.6129 644.7871,-466.6143"/>
</g>
<!-- Node16 -->
<g id="node16" class="node">
<title>Node16</title>
<g id="a_node16"><a xlink:href="class_l_f_s_t_k__scroll_bar_class_a3da4281c24ac345ba32a4636ce2af38b.xhtml#a3da4281c24ac345ba32a4636ce2af38b" target="_top" xlink:title=" ">
<polygon fill="none" stroke="#000000" points="341.531,-396.5 341.531,-428.5 463.643,-428.5 463.643,-396.5 341.531,-396.5"/>
<text text-anchor="start" x="349.531" y="-415.5" font-family="Helvetica,sans-Serif" font-size="10.00" fill="#000000">LFSTK_scrollBarClass</text>
<text text-anchor="middle" x="402.587" y="-403.5" font-family="Helvetica,sans-Serif" font-size="10.00" fill="#000000">::LFSTK_scrollBarClass</text>
</a>
</g>
</g>
<!-- Node15&#45;&gt;Node16 -->
<g id="edge17" class="edge">
<title>Node15&#45;&gt;Node16</title>
<path fill="none" stroke="#191970" d="M511.5352,-380.5075C493.6518,-385.759 474.4281,-391.404 457.182,-396.4683"/>
<polygon fill="#191970" stroke="#191970" points="512.7028,-383.8125 521.3115,-377.6367 510.7305,-377.0961 512.7028,-383.8125"/>
</g>
<!-- Node17 -->
<g id="node17" class="node">
<title>Node17</title>
<g id="a_node17"><a xlink:href="class_l_f_s_t_k__scroll_bar_class_a690ed010fb6760b5ee112df392076df5.xhtml#a690ed010fb6760b5ee112df392076df5" target="_top" xlink:title=" ">
<polygon fill="none" stroke="#000000" points="344.31,-345.5 344.31,-377.5 460.864,-377.5 460.864,-345.5 344.31,-345.5"/>
<text text-anchor="start" x="352.31" y="-364.5" font-family="Helvetica,sans-Serif" font-size="10.00" fill="#000000">LFSTK_scrollBarClass</text>
<text text-anchor="middle" x="402.587" y="-352.5" font-family="Helvetica,sans-Serif" font-size="10.00" fill="#000000">::LFSTK_scrollByLine</text>
</a>
</g>
</g>
<!-- Node15&#45;&gt;Node17 -->
<g id="edge18" class="edge">
<title>Node15&#45;&gt;Node17</title>
<path fill="none" stroke="#191970" d="M507.9056,-361.5C492.4083,-361.5 476.0876,-361.5 461.0438,-361.5"/>
<polygon fill="#191970" stroke="#191970" points="507.949,-365.0001 517.9489,-361.5 507.9489,-358.0001 507.949,-365.0001"/>
</g>
<!-- Node18 -->
<g id="node18" class="node">
<title>Node18</title>
<g id="a_node18"><a xlink:href="class_l_f_s_t_k__list_gadget_class_afd92ab070d0d68863589669cb73404cf.xhtml#afd92ab070d0d68863589669cb73404cf" target="_top" xlink:title=" ">
<polygon fill="none" stroke="#000000" points="170.348,-396.5 170.348,-428.5 293.03,-428.5 293.03,-396.5 170.348,-396.5"/>
<text text-anchor="start" x="178.348" y="-415.5" font-family="Helvetica,sans-Serif" font-size="10.00" fill="#000000">LFSTK_listGadgetClass</text>
<text text-anchor="middle" x="231.689" y="-403.5" font-family="Helvetica,sans-Serif" font-size="10.00" fill="#000000">::keyRelease</text>
</a>
</g>
</g>
<!-- Node17&#45;&gt;Node18 -->
<g id="edge19" class="edge">
<title>Node17&#45;&gt;Node18</title>
<path fill="none" stroke="#191970" d="M338.8939,-380.5075C321.2967,-385.759 302.3806,-391.404 285.4104,-396.4683"/>
<polygon fill="#191970" stroke="#191970" points="339.9323,-383.8503 348.5138,-377.6367 337.9305,-377.1426 339.9323,-383.8503"/>
</g>
<!-- Node19 -->
<g id="node19" class="node">
<title>Node19</title>
<g id="a_node19"><a xlink:href="class_l_f_s_t_k__list_gadget_class_ad54eba5a5dc2bac69eeb6a1e40b563d7.xhtml#ad54eba5a5dc2bac69eeb6a1e40b563d7" target="_top" xlink:title=" ">
<polygon fill="none" stroke="#000000" points="170.348,-345.5 170.348,-377.5 293.03,-377.5 293.03,-345.5 170.348,-345.5"/>
<text text-anchor="start" x="178.348" y="-364.5" font-family="Helvetica,sans-Serif" font-size="10.00" fill="#000000">LFSTK_listGadgetClass</text>
<text text-anchor="middle" x="231.689" y="-352.5" font-family="Helvetica,sans-Serif" font-size="10.00" fill="#000000">::mouseUp</text>
</a>
</g>
</g>
<!-- Node17&#45;&gt;Node19 -->
<g id="edge20" class="edge">
<title>Node17&#45;&gt;Node19</title>
<path fill="none" stroke="#191970" d="M334.0732,-361.5C320.5828,-361.5 306.5057,-361.5 293.2607,-361.5"/>
<polygon fill="#191970" stroke="#191970" points="334.2516,-365.0001 344.2516,-361.5 334.2516,-358.0001 334.2516,-365.0001"/>
</g>
<!-- Node20 -->
<g id="node20" class="node">
<title>Node20</title>
<g id="a_node20"><a xlink:href="class_l_f_s_t_k__list_gadget_class_ad9b006620b5e9712da9b0ee3ead405de.xhtml#ad9b006620b5e9712da9b0ee3ead405de" target="_top" xlink:title=" ">
<polygon fill="none" stroke="#000000" points="170.348,-294.5 170.348,-326.5 293.03,-326.5 293.03,-294.5 170.348,-294.5"/>
<text text-anchor="start" x="178.348" y="-313.5" font-family="Helvetica,sans-Serif" font-size="10.00" fill="#000000">LFSTK_listGadgetClass</text>
<text text-anchor="middle" x="231.689" y="-301.5" font-family="Helvetica,sans-Serif" font-size="10.00" fill="#000000">::select</text>
</a>
</g>
</g>
<!-- Node17&#45;&gt;Node20 -->
<g id="edge21" class="edge">
<title>Node17&#45;&gt;Node20</title>
<path fill="none" stroke="#191970" d="M338.8939,-342.4925C321.2967,-337.241 302.3806,-331.596 285.4104,-326.5317"/>
<polygon fill="#191970" stroke="#191970" points="337.9305,-345.8574 348.5138,-345.3633 339.9323,-339.1497 337.9305,-345.8574"/>
</g>
<!-- Node22 -->
<g id="node22" class="node">
<title>Node22</title>
<g id="a_node22"><a xlink:href="class_l_f_s_t_k__list_gadget_class_acf5ccc1d522f0d8a3b23e392b7ce30a5.xhtml#acf5ccc1d522f0d8a3b23e392b7ce30a5" target="_top" xlink:title=" ">
<polygon fill="none" stroke="#000000" points="170.348,-447.5 170.348,-479.5 293.03,-479.5 293.03,-447.5 170.348,-447.5"/>
<text text-anchor="start" x="178.348" y="-466.5" font-family="Helvetica,sans-Serif" font-size="10.00" fill="#000000">LFSTK_listGadgetClass</text>
<text text-anchor="middle" x="231.689" y="-454.5" font-family="Helvetica,sans-Serif" font-size="10.00" fill="#000000">::selectKey</text>
</a>
</g>
</g>
<!-- Node17&#45;&gt;Node22 -->
<g id="edge23" class="edge">
<title>Node17&#45;&gt;Node22</title>
<path fill="none" stroke="#191970" d="M342.3212,-382.5049C339.8202,-384.0648 337.4116,-385.7281 335.138,-387.5 313.2543,-404.5553 321.1318,-421.587 299.138,-438.5 294.7821,-441.8496 289.931,-444.7863 284.8837,-447.3531"/>
<polygon fill="#191970" stroke="#191970" points="344.0943,-385.5236 351.119,-377.5924 340.6816,-379.4118 344.0943,-385.5236"/>
</g>
<!-- Node21 -->
<g id="node21" class="node">
<title>Node21</title>
<g id="a_node21"><a xlink:href="class_l_f_s_t_k__list_gadget_class_ae3518016f28ec3cd261ad927c5691826.xhtml#ae3518016f28ec3cd261ad927c5691826" target="_top" xlink:title=" ">
<polygon fill="none" stroke="#000000" points="0,-370.5 0,-402.5 128.24,-402.5 128.24,-370.5 0,-370.5"/>
<text text-anchor="start" x="8" y="-389.5" font-family="Helvetica,sans-Serif" font-size="10.00" fill="#000000">LFSTK_listGadgetClass</text>
<text text-anchor="middle" x="64.12" y="-377.5" font-family="Helvetica,sans-Serif" font-size="10.00" fill="#000000">::LFSTK_listGadgetClass</text>
</a>
</g>
</g>
<!-- Node20&#45;&gt;Node21 -->
<g id="edge22" class="edge">
<title>Node20&#45;&gt;Node21</title>
<path fill="none" stroke="#191970" d="M178.7748,-330.3431C173.8359,-332.3616 168.9278,-334.4316 164.24,-336.5 140.4209,-347.01 114.1058,-360.2167 94.4339,-370.4173"/>
<polygon fill="#191970" stroke="#191970" points="180.2821,-333.5097 188.2608,-326.5391 177.6766,-327.0127 180.2821,-333.5097"/>
</g>
<!-- Node22&#45;&gt;Node21 -->
<g id="edge24" class="edge">
<title>Node22&#45;&gt;Node21</title>
<path fill="none" stroke="#191970" d="M176.7084,-443.7709C172.464,-442.0504 168.2667,-440.2837 164.24,-438.5 139.7057,-427.6321 112.7572,-413.5039 93.0049,-402.7173"/>
<polygon fill="#191970" stroke="#191970" points="175.4411,-447.0334 186.0277,-447.4524 178.013,-440.523 175.4411,-447.0334"/>
</g>
<!-- Node24 -->
<g id="node24" class="node">
<title>Node24</title>
<g id="a_node24"><a xlink:href="class_l_f_s_t_k__scroll_bar_class_a1aa54518e56118cc5f92890b7269c3d1.xhtml#a1aa54518e56118cc5f92890b7269c3d1" target="_top" xlink:title=" ">
<polygon fill="none" stroke="#000000" points="344.3005,-447.5 344.3005,-479.5 460.8735,-479.5 460.8735,-447.5 344.3005,-447.5"/>
<text text-anchor="start" x="352.3005" y="-466.5" font-family="Helvetica,sans-Serif" font-size="10.00" fill="#000000">LFSTK_scrollBarClass</text>
<text text-anchor="middle" x="402.587" y="-454.5" font-family="Helvetica,sans-Serif" font-size="10.00" fill="#000000">::LFSTK_scrollByPage</text>
</a>
</g>
</g>
<!-- Node23&#45;&gt;Node24 -->
<g id="edge27" class="edge">
<title>Node23&#45;&gt;Node24</title>
<path fill="none" stroke="#191970" d="M511.5352,-495.4925C493.6518,-490.241 474.4281,-484.596 457.182,-479.5317"/>
<polygon fill="#191970" stroke="#191970" points="510.7305,-498.9039 521.3115,-498.3633 512.7028,-492.1875 510.7305,-498.9039"/>
</g>
<!-- Node24&#45;&gt;Node18 -->
<g id="edge28" class="edge">
<title>Node24&#45;&gt;Node18</title>
<path fill="none" stroke="#191970" d="M338.8939,-444.4925C321.2967,-439.241 302.3806,-433.596 285.4104,-428.5317"/>
<polygon fill="#191970" stroke="#191970" points="337.9305,-447.8574 348.5138,-447.3633 339.9323,-441.1497 337.9305,-447.8574"/>
</g>
<!-- Node24&#45;&gt;Node22 -->
<g id="edge29" class="edge">
<title>Node24&#45;&gt;Node22</title>
<path fill="none" stroke="#191970" d="M334.0732,-463.5C320.5828,-463.5 306.5057,-463.5 293.2607,-463.5"/>
<polygon fill="#191970" stroke="#191970" points="334.2516,-467.0001 344.2516,-463.5 334.2516,-460.0001 334.2516,-467.0001"/>
</g>
</g>
</svg>
