<?xml version="1.0" encoding="UTF-8" standalone="no"?>
<!DOCTYPE svg PUBLIC "-//W3C//DTD SVG 1.1//EN"
 "http://www.w3.org/Graphics/SVG/1.1/DTD/svg11.dtd">
<!-- Generated by graphviz version 2.40.1 (20161225.0304)
 -->
<!-- Title: LFSTK_windowClass::initWindow Pages: 1 -->
<svg width="471pt" height="245pt"
 viewBox="0.00 0.00 470.80 245.00" xmlns="http://www.w3.org/2000/svg" xmlns:xlink="http://www.w3.org/1999/xlink">
<g id="graph0" class="graph" transform="scale(1 1) rotate(0) translate(4 241)">
<title>LFSTK_windowClass::initWindow</title>
<!-- Node1 -->
<g id="node1" class="node">
<title>Node1</title>
<g id="a_node1"><a xlink:title=" ">
<polygon fill="#bfbfbf" stroke="#000000" points="0,-102.5 0,-134.5 116.563,-134.5 116.563,-102.5 0,-102.5"/>
<text text-anchor="start" x="8" y="-121.5" font-family="Helvetica,sans-Serif" font-size="10.00" fill="#000000">LFSTK_windowClass::</text>
<text text-anchor="middle" x="58.2815" y="-109.5" font-family="Helvetica,sans-Serif" font-size="10.00" fill="#000000">initWindow</text>
</a>
</g>
</g>
<!-- Node2 -->
<g id="node2" class="node">
<title>Node2</title>
<g id="a_node2"><a xlink:href="class_l_f_s_t_k__window_class_aa1cdaa019a010bb17387dd39b6165303.xhtml#aa1cdaa019a010bb17387dd39b6165303" target="_top" xlink:title=" ">
<polygon fill="none" stroke="#000000" points="152.563,-102.5 152.563,-134.5 269.126,-134.5 269.126,-102.5 152.563,-102.5"/>
<text text-anchor="start" x="160.563" y="-121.5" font-family="Helvetica,sans-Serif" font-size="10.00" fill="#000000">LFSTK_windowClass::</text>
<text text-anchor="middle" x="210.8445" y="-109.5" font-family="Helvetica,sans-Serif" font-size="10.00" fill="#000000">loadGlobalColours</text>
</a>
</g>
</g>
<!-- Node1&#45;&gt;Node2 -->
<g id="edge1" class="edge">
<title>Node1&#45;&gt;Node2</title>
<path fill="none" stroke="#191970" d="M116.83,-118.5C125.1339,-118.5 133.7346,-118.5 142.2082,-118.5"/>
<polygon fill="#191970" stroke="#191970" points="142.4527,-122.0001 152.4527,-118.5 142.4526,-115.0001 142.4527,-122.0001"/>
</g>
<!-- Node3 -->
<g id="node3" class="node">
<title>Node3</title>
<g id="a_node3"><a xlink:href="class_l_f_s_t_k__lib_a24d88a5207e8355d10b788238d981fe6.xhtml#a24d88a5207e8355d10b788238d981fe6" target="_top" xlink:title=" ">
<polygon fill="none" stroke="#000000" points="314.281,-204.5 314.281,-236.5 453.647,-236.5 453.647,-204.5 314.281,-204.5"/>
<text text-anchor="start" x="322.281" y="-223.5" font-family="Helvetica,sans-Serif" font-size="10.00" fill="#000000">LFSTK_lib::LFSTK_getAuto</text>
<text text-anchor="middle" x="383.964" y="-211.5" font-family="Helvetica,sans-Serif" font-size="10.00" fill="#000000">LabelColour</text>
</a>
</g>
</g>
<!-- Node2&#45;&gt;Node3 -->
<g id="edge2" class="edge">
<title>Node2&#45;&gt;Node3</title>
<path fill="none" stroke="#191970" d="M226.8114,-134.7957C244.5232,-152.0446 274.643,-179.0066 305.126,-195.5 308.4134,-197.2787 311.8475,-198.9542 315.3643,-200.529"/>
<polygon fill="#191970" stroke="#191970" points="314.2458,-203.8545 324.8231,-204.4645 316.9348,-197.3916 314.2458,-203.8545"/>
</g>
<!-- Node4 -->
<g id="node4" class="node">
<title>Node4</title>
<g id="a_node4"><a xlink:href="class_l_f_s_t_k__lib_a46aa104681d600dd4eb24549e813b5cc.xhtml#a46aa104681d600dd4eb24549e813b5cc" target="_top" xlink:title=" ">
<polygon fill="none" stroke="#000000" points="310.117,-153.5 310.117,-185.5 457.811,-185.5 457.811,-153.5 310.117,-153.5"/>
<text text-anchor="start" x="318.117" y="-172.5" font-family="Helvetica,sans-Serif" font-size="10.00" fill="#000000">LFSTK_lib::LFSTK_getGlobal</text>
<text text-anchor="middle" x="383.964" y="-160.5" font-family="Helvetica,sans-Serif" font-size="10.00" fill="#000000">String</text>
</a>
</g>
</g>
<!-- Node2&#45;&gt;Node4 -->
<g id="edge3" class="edge">
<title>Node2&#45;&gt;Node4</title>
<path fill="none" stroke="#191970" d="M265.6206,-134.6367C282.8384,-139.709 302.0046,-145.3552 319.812,-150.6012"/>
<polygon fill="#191970" stroke="#191970" points="318.9627,-153.9997 329.5442,-153.4683 320.9409,-147.285 318.9627,-153.9997"/>
</g>
<!-- Node5 -->
<g id="node5" class="node">
<title>Node5</title>
<g id="a_node5"><a xlink:href="class_l_f_s_t_k__window_class_a3a14b82ac1628b75173c5cb37d20926b.xhtml#a3a14b82ac1628b75173c5cb37d20926b" target="_top" xlink:title=" ">
<polygon fill="none" stroke="#000000" points="312.9,-102.5 312.9,-134.5 455.028,-134.5 455.028,-102.5 312.9,-102.5"/>
<text text-anchor="start" x="320.9" y="-121.5" font-family="Helvetica,sans-Serif" font-size="10.00" fill="#000000">LFSTK_windowClass::</text>
<text text-anchor="middle" x="383.964" y="-109.5" font-family="Helvetica,sans-Serif" font-size="10.00" fill="#000000">LFSTK_setFontColourName</text>
</a>
</g>
</g>
<!-- Node2&#45;&gt;Node5 -->
<g id="edge4" class="edge">
<title>Node2&#45;&gt;Node5</title>
<path fill="none" stroke="#191970" d="M269.4549,-118.5C280.1193,-118.5 291.4179,-118.5 302.6004,-118.5"/>
<polygon fill="#191970" stroke="#191970" points="302.8159,-122.0001 312.8159,-118.5 302.8158,-115.0001 302.8159,-122.0001"/>
</g>
<!-- Node6 -->
<g id="node6" class="node">
<title>Node6</title>
<g id="a_node6"><a xlink:href="class_l_f_s_t_k__window_class_a9d54e326ce33b8806f19c9353269e6a8.xhtml#a9d54e326ce33b8806f19c9353269e6a8" target="_top" xlink:title=" ">
<polygon fill="none" stroke="#000000" points="325.6825,-51.5 325.6825,-83.5 442.2455,-83.5 442.2455,-51.5 325.6825,-51.5"/>
<text text-anchor="start" x="333.6825" y="-70.5" font-family="Helvetica,sans-Serif" font-size="10.00" fill="#000000">LFSTK_windowClass::</text>
<text text-anchor="middle" x="383.964" y="-58.5" font-family="Helvetica,sans-Serif" font-size="10.00" fill="#000000">LFSTK_setFontString</text>
</a>
</g>
</g>
<!-- Node2&#45;&gt;Node6 -->
<g id="edge5" class="edge">
<title>Node2&#45;&gt;Node6</title>
<path fill="none" stroke="#191970" d="M265.6206,-102.3633C282.8384,-97.291 302.0046,-91.6448 319.812,-86.3988"/>
<polygon fill="#191970" stroke="#191970" points="320.9409,-89.715 329.5442,-83.5317 318.9627,-83.0003 320.9409,-89.715"/>
</g>
<!-- Node7 -->
<g id="node7" class="node">
<title>Node7</title>
<g id="a_node7"><a xlink:href="class_l_f_s_t_k__window_class_a612850c5641e44aea8a2c0b11ad8cd1b.xhtml#a612850c5641e44aea8a2c0b11ad8cd1b" target="_top" xlink:title=" ">
<polygon fill="none" stroke="#000000" points="305.126,-.5 305.126,-32.5 462.802,-32.5 462.802,-.5 305.126,-.5"/>
<text text-anchor="start" x="313.126" y="-19.5" font-family="Helvetica,sans-Serif" font-size="10.00" fill="#000000">LFSTK_windowClass::</text>
<text text-anchor="middle" x="383.964" y="-7.5" font-family="Helvetica,sans-Serif" font-size="10.00" fill="#000000">LFSTK_setWindowColourName</text>
</a>
</g>
</g>
<!-- Node2&#45;&gt;Node7 -->
<g id="edge6" class="edge">
<title>Node2&#45;&gt;Node7</title>
<path fill="none" stroke="#191970" d="M226.8888,-102.4957C244.6666,-85.5391 274.8426,-58.9851 305.126,-42.5 309.0778,-40.3488 313.2381,-38.3357 317.4975,-36.4588"/>
<polygon fill="#191970" stroke="#191970" points="319.0262,-39.6144 326.9374,-32.5672 316.3582,-33.1428 319.0262,-39.6144"/>
</g>
</g>
</svg>
