<?xml version="1.0" encoding="UTF-8" standalone="no"?>
<!DOCTYPE svg PUBLIC "-//W3C//DTD SVG 1.1//EN"
 "http://www.w3.org/Graphics/SVG/1.1/DTD/svg11.dtd">
<!-- Generated by graphviz version 2.40.1 (20161225.0304)
 -->
<!-- Title: LFSTK_windowClass::LFSTK_setFontColourName Pages: 1 -->
<svg width="796pt" height="194pt"
 viewBox="0.00 0.00 795.93 194.00" xmlns="http://www.w3.org/2000/svg" xmlns:xlink="http://www.w3.org/1999/xlink">
<g id="graph0" class="graph" transform="scale(1 1) rotate(0) translate(4 190)">
<title>LFSTK_windowClass::LFSTK_setFontColourName</title>
<!-- Node1 -->
<g id="node1" class="node">
<title>Node1</title>
<g id="a_node1"><a xlink:title=" ">
<polygon fill="#bfbfbf" stroke="#000000" points="645.804,-50.5 645.804,-82.5 787.932,-82.5 787.932,-50.5 645.804,-50.5"/>
<text text-anchor="start" x="653.804" y="-69.5" font-family="Helvetica,sans-Serif" font-size="10.00" fill="#000000">LFSTK_windowClass::</text>
<text text-anchor="middle" x="716.868" y="-57.5" font-family="Helvetica,sans-Serif" font-size="10.00" fill="#000000">LFSTK_setFontColourName</text>
</a>
</g>
</g>
<!-- Node2 -->
<g id="node2" class="node">
<title>Node2</title>
<g id="a_node2"><a xlink:href="class_l_f_s_t_k__window_class_aa1cdaa019a010bb17387dd39b6165303.xhtml#aa1cdaa019a010bb17387dd39b6165303" target="_top" xlink:title=" ">
<polygon fill="none" stroke="#000000" points="493.241,-50.5 493.241,-82.5 609.804,-82.5 609.804,-50.5 493.241,-50.5"/>
<text text-anchor="start" x="501.241" y="-69.5" font-family="Helvetica,sans-Serif" font-size="10.00" fill="#000000">LFSTK_windowClass::</text>
<text text-anchor="middle" x="551.5225" y="-57.5" font-family="Helvetica,sans-Serif" font-size="10.00" fill="#000000">loadGlobalColours</text>
</a>
</g>
</g>
<!-- Node1&#45;&gt;Node2 -->
<g id="edge1" class="edge">
<title>Node1&#45;&gt;Node2</title>
<path fill="none" stroke="#191970" d="M635.6137,-66.5C626.9196,-66.5 618.2046,-66.5 609.8535,-66.5"/>
<polygon fill="#191970" stroke="#191970" points="635.7871,-70.0001 645.787,-66.5 635.787,-63.0001 635.7871,-70.0001"/>
</g>
<!-- Node3 -->
<g id="node3" class="node">
<title>Node3</title>
<g id="a_node3"><a xlink:href="class_l_f_s_t_k__window_class_a36491159cf4fdc3c5d0909b2195af9ab.xhtml#a36491159cf4fdc3c5d0909b2195af9ab" target="_top" xlink:title=" ">
<polygon fill="none" stroke="#000000" points="340.678,-89.5 340.678,-121.5 457.241,-121.5 457.241,-89.5 340.678,-89.5"/>
<text text-anchor="start" x="348.678" y="-108.5" font-family="Helvetica,sans-Serif" font-size="10.00" fill="#000000">LFSTK_windowClass::</text>
<text text-anchor="middle" x="398.9595" y="-96.5" font-family="Helvetica,sans-Serif" font-size="10.00" fill="#000000">initWindow</text>
</a>
</g>
</g>
<!-- Node2&#45;&gt;Node3 -->
<g id="edge2" class="edge">
<title>Node2&#45;&gt;Node3</title>
<path fill="none" stroke="#191970" d="M483.2849,-83.9437C474.6293,-86.1564 465.8339,-88.4047 457.3513,-90.5732"/>
<polygon fill="#191970" stroke="#191970" points="484.1524,-87.3346 492.974,-81.4669 482.4187,-80.5527 484.1524,-87.3346"/>
</g>
<!-- Node9 -->
<g id="node9" class="node">
<title>Node9</title>
<g id="a_node9"><a xlink:href="class_l_f_s_t_k__window_class_a22d62c1b464c98923d43cd3851362856.xhtml#a22d62c1b464c98923d43cd3851362856" target="_top" xlink:title=" ">
<polygon fill="none" stroke="#000000" points="340.678,-25.5 340.678,-57.5 457.241,-57.5 457.241,-25.5 340.678,-25.5"/>
<text text-anchor="start" x="348.678" y="-44.5" font-family="Helvetica,sans-Serif" font-size="10.00" fill="#000000">LFSTK_windowClass::</text>
<text text-anchor="middle" x="398.9595" y="-32.5" font-family="Helvetica,sans-Serif" font-size="10.00" fill="#000000">LFSTK_reloadGlobals</text>
</a>
</g>
</g>
<!-- Node2&#45;&gt;Node9 -->
<g id="edge8" class="edge">
<title>Node2&#45;&gt;Node9</title>
<path fill="none" stroke="#191970" d="M483.0057,-55.2724C474.4402,-53.8688 465.7427,-52.4435 457.3513,-51.0685"/>
<polygon fill="#191970" stroke="#191970" points="482.5396,-58.7426 492.974,-56.9058 483.6716,-51.8347 482.5396,-58.7426"/>
</g>
<!-- Node4 -->
<g id="node4" class="node">
<title>Node4</title>
<g id="a_node4"><a xlink:href="class_l_f_s_t_k__window_class_a66ca01b66ccc729d2cb8bad8ea5cc709.xhtml#a66ca01b66ccc729d2cb8bad8ea5cc709" target="_top" xlink:title=" ">
<polygon fill="none" stroke="#000000" points="179.507,-153.5 179.507,-185.5 296.07,-185.5 296.07,-153.5 179.507,-153.5"/>
<text text-anchor="start" x="187.507" y="-172.5" font-family="Helvetica,sans-Serif" font-size="10.00" fill="#000000">LFSTK_windowClass::</text>
<text text-anchor="middle" x="237.7885" y="-160.5" font-family="Helvetica,sans-Serif" font-size="10.00" fill="#000000">LFSTK_windowClass</text>
</a>
</g>
</g>
<!-- Node3&#45;&gt;Node4 -->
<g id="edge3" class="edge">
<title>Node3&#45;&gt;Node4</title>
<path fill="none" stroke="#191970" d="M351.462,-125.5222C336.5322,-131.7149 319.9568,-138.4868 304.678,-144.5 297.1796,-147.4511 289.1767,-150.5154 281.4089,-153.445"/>
<polygon fill="#191970" stroke="#191970" points="353.118,-128.6241 361.0053,-121.5502 350.4281,-122.1616 353.118,-128.6241"/>
</g>
<!-- Node5 -->
<g id="node5" class="node">
<title>Node5</title>
<g id="a_node5"><a xlink:href="class_l_f_s_t_k__tool_window_class_a230084a0461e204e39cea42ad1f10301.xhtml#a230084a0461e204e39cea42ad1f10301" target="_top" xlink:title=" ">
<polygon fill="none" stroke="#000000" points="170.899,-102.5 170.899,-134.5 304.678,-134.5 304.678,-102.5 170.899,-102.5"/>
<text text-anchor="start" x="178.899" y="-121.5" font-family="Helvetica,sans-Serif" font-size="10.00" fill="#000000">LFSTK_toolWindowClass</text>
<text text-anchor="middle" x="237.7885" y="-109.5" font-family="Helvetica,sans-Serif" font-size="10.00" fill="#000000">::windowClassInitCommon</text>
</a>
</g>
</g>
<!-- Node3&#45;&gt;Node5 -->
<g id="edge4" class="edge">
<title>Node3&#45;&gt;Node5</title>
<path fill="none" stroke="#191970" d="M330.1894,-111.047C321.7947,-111.7241 313.2252,-112.4153 304.8559,-113.0904"/>
<polygon fill="#191970" stroke="#191970" points="330.6309,-114.5228 340.3171,-110.2301 330.0681,-107.5455 330.6309,-114.5228"/>
</g>
<!-- Node7 -->
<g id="node7" class="node">
<title>Node7</title>
<g id="a_node7"><a xlink:href="class_l_f_s_t_k__window_class_a7d01ee5bb6c3fef9aa9b55323c04f90c.xhtml#a7d01ee5bb6c3fef9aa9b55323c04f90c" target="_top" xlink:title=" ">
<polygon fill="none" stroke="#000000" points="173.678,-51.5 173.678,-83.5 301.899,-83.5 301.899,-51.5 173.678,-51.5"/>
<text text-anchor="start" x="181.678" y="-70.5" font-family="Helvetica,sans-Serif" font-size="10.00" fill="#000000">LFSTK_windowClass::</text>
<text text-anchor="middle" x="237.7885" y="-58.5" font-family="Helvetica,sans-Serif" font-size="10.00" fill="#000000">windowClassInitCommon</text>
</a>
</g>
</g>
<!-- Node3&#45;&gt;Node7 -->
<g id="edge6" class="edge">
<title>Node3&#45;&gt;Node7</title>
<path fill="none" stroke="#191970" d="M330.5828,-89.3785C321.1407,-87.1523 311.4697,-84.8721 302.1045,-82.6641"/>
<polygon fill="#191970" stroke="#191970" points="329.7808,-92.7853 340.3171,-91.6736 331.3872,-85.9721 329.7808,-92.7853"/>
</g>
<!-- Node6 -->
<g id="node6" class="node">
<title>Node6</title>
<g id="a_node6"><a xlink:href="class_l_f_s_t_k__tool_window_class_ad9d85cbc29eafc7793e12bcc9c268bf5.xhtml#ad9d85cbc29eafc7793e12bcc9c268bf5" target="_top" xlink:title=" ">
<polygon fill="none" stroke="#000000" points="0,-102.5 0,-134.5 134.899,-134.5 134.899,-102.5 0,-102.5"/>
<text text-anchor="start" x="8" y="-121.5" font-family="Helvetica,sans-Serif" font-size="10.00" fill="#000000">LFSTK_toolWindowClass</text>
<text text-anchor="middle" x="67.4495" y="-109.5" font-family="Helvetica,sans-Serif" font-size="10.00" fill="#000000">::LFSTK_toolWindowClass</text>
</a>
</g>
</g>
<!-- Node5&#45;&gt;Node6 -->
<g id="edge5" class="edge">
<title>Node5&#45;&gt;Node6</title>
<path fill="none" stroke="#191970" d="M160.2915,-118.5C151.8912,-118.5 143.3905,-118.5 135.1199,-118.5"/>
<polygon fill="#191970" stroke="#191970" points="160.4661,-122.0001 170.466,-118.5 160.466,-115.0001 160.4661,-122.0001"/>
</g>
<!-- Node8 -->
<g id="node8" class="node">
<title>Node8</title>
<g id="a_node8"><a xlink:href="class_l_f_s_t_k__window_class_afcd2c5e43ab2a1110d5b4e54b24ce47a.xhtml#afcd2c5e43ab2a1110d5b4e54b24ce47a" target="_top" xlink:title=" ">
<polygon fill="none" stroke="#000000" points="9.168,-51.5 9.168,-83.5 125.731,-83.5 125.731,-51.5 9.168,-51.5"/>
<text text-anchor="start" x="17.168" y="-70.5" font-family="Helvetica,sans-Serif" font-size="10.00" fill="#000000">LFSTK_windowClass::</text>
<text text-anchor="middle" x="67.4495" y="-58.5" font-family="Helvetica,sans-Serif" font-size="10.00" fill="#000000">LFSTK_windowClass</text>
</a>
</g>
</g>
<!-- Node7&#45;&gt;Node8 -->
<g id="edge7" class="edge">
<title>Node7&#45;&gt;Node8</title>
<path fill="none" stroke="#191970" d="M163.3825,-67.5C150.7912,-67.5 137.8809,-67.5 125.7764,-67.5"/>
<polygon fill="#191970" stroke="#191970" points="163.3907,-71.0001 173.3906,-67.5 163.3906,-64.0001 163.3907,-71.0001"/>
</g>
<!-- Node10 -->
<g id="node10" class="node">
<title>Node10</title>
<g id="a_node10"><a xlink:href="class_l_f_s_t_k__font_dialog_class_af866eb2b1ba8178c9cf3e751716fcc8e.xhtml#af866eb2b1ba8178c9cf3e751716fcc8e" target="_top" xlink:title=" ">
<polygon fill="none" stroke="#000000" points="176.448,-.5 176.448,-32.5 299.129,-32.5 299.129,-.5 176.448,-.5"/>
<text text-anchor="start" x="184.448" y="-19.5" font-family="Helvetica,sans-Serif" font-size="10.00" fill="#000000">LFSTK_fontDialogClass</text>
<text text-anchor="middle" x="237.7885" y="-7.5" font-family="Helvetica,sans-Serif" font-size="10.00" fill="#000000">::buildDialog</text>
</a>
</g>
</g>
<!-- Node9&#45;&gt;Node10 -->
<g id="edge9" class="edge">
<title>Node9&#45;&gt;Node10</title>
<path fill="none" stroke="#191970" d="M330.1894,-30.8327C319.9497,-29.2444 309.4499,-27.6157 299.3707,-26.0523"/>
<polygon fill="#191970" stroke="#191970" points="329.8988,-34.3294 340.3171,-32.4037 330.9718,-27.4122 329.8988,-34.3294"/>
</g>
<!-- Node11 -->
<g id="node11" class="node">
<title>Node11</title>
<g id="a_node11"><a xlink:href="class_l_f_s_t_k__font_dialog_class_ab7b6a4bca99713646ab6ac77dc34827c.xhtml#ab7b6a4bca99713646ab6ac77dc34827c" target="_top" xlink:title=" ">
<polygon fill="none" stroke="#000000" points="3.33,-.5 3.33,-32.5 131.569,-32.5 131.569,-.5 3.33,-.5"/>
<text text-anchor="start" x="11.33" y="-19.5" font-family="Helvetica,sans-Serif" font-size="10.00" fill="#000000">LFSTK_fontDialogClass</text>
<text text-anchor="middle" x="67.4495" y="-7.5" font-family="Helvetica,sans-Serif" font-size="10.00" fill="#000000">::LFSTK_fontDialogClass</text>
</a>
</g>
</g>
<!-- Node10&#45;&gt;Node11 -->
<g id="edge10" class="edge">
<title>Node10&#45;&gt;Node11</title>
<path fill="none" stroke="#191970" d="M165.9679,-16.5C154.6002,-16.5 142.9071,-16.5 131.726,-16.5"/>
<polygon fill="#191970" stroke="#191970" points="166.2922,-20.0001 176.2922,-16.5 166.2922,-13.0001 166.2922,-20.0001"/>
</g>
</g>
</svg>
