<?xml version="1.0" encoding="UTF-8" standalone="no"?>
<!DOCTYPE svg PUBLIC "-//W3C//DTD SVG 1.1//EN"
 "http://www.w3.org/Graphics/SVG/1.1/DTD/svg11.dtd">
<!-- Generated by graphviz version 2.40.1 (20161225.0304)
 -->
<!-- Title: LFSTK_gadgetClass::LFSTK_getLimits Pages: 1 -->
<svg width="908pt" height="245pt"
 viewBox="0.00 0.00 907.94 245.00" xmlns="http://www.w3.org/2000/svg" xmlns:xlink="http://www.w3.org/1999/xlink">
<g id="graph0" class="graph" transform="scale(1 1) rotate(0) translate(4 241)">
<title>LFSTK_gadgetClass::LFSTK_getLimits</title>
<!-- Node1 -->
<g id="node1" class="node">
<title>Node1</title>
<g id="a_node1"><a xlink:title=" ">
<polygon fill="#bfbfbf" stroke="#000000" points="786.142,-124.5 786.142,-156.5 899.945,-156.5 899.945,-124.5 786.142,-124.5"/>
<text text-anchor="start" x="794.142" y="-143.5" font-family="Helvetica,sans-Serif" font-size="10.00" fill="#000000">LFSTK_gadgetClass::</text>
<text text-anchor="middle" x="843.0435" y="-131.5" font-family="Helvetica,sans-Serif" font-size="10.00" fill="#000000">LFSTK_getLimits</text>
</a>
</g>
</g>
<!-- Node2 -->
<g id="node2" class="node">
<title>Node2</title>
<g id="a_node2"><a xlink:href="class_l_f_s_t_k__scroll_bar_class_a72b11062708e9db06d05162734b5555b.xhtml#a72b11062708e9db06d05162734b5555b" target="_top" xlink:title=" ">
<polygon fill="none" stroke="#000000" points="481.034,-204.5 481.034,-236.5 597.588,-236.5 597.588,-204.5 481.034,-204.5"/>
<text text-anchor="start" x="489.034" y="-223.5" font-family="Helvetica,sans-Serif" font-size="10.00" fill="#000000">LFSTK_scrollBarClass</text>
<text text-anchor="middle" x="539.311" y="-211.5" font-family="Helvetica,sans-Serif" font-size="10.00" fill="#000000">::mouseUp</text>
</a>
</g>
</g>
<!-- Node1&#45;&gt;Node2 -->
<g id="edge1" class="edge">
<title>Node1&#45;&gt;Node2</title>
<path fill="none" stroke="#191970" d="M776.1976,-158.1065C722.8192,-172.1658 648.7657,-191.6708 597.736,-205.1115"/>
<polygon fill="#191970" stroke="#191970" points="777.135,-161.4791 785.9137,-155.5474 775.3521,-154.7099 777.135,-161.4791"/>
</g>
<!-- Node3 -->
<g id="node3" class="node">
<title>Node3</title>
<g id="a_node3"><a xlink:href="class_l_f_s_t_k__scroll_bar_class_a3e47c5f9944ddb2a861b80853f85ce12.xhtml#a3e47c5f9944ddb2a861b80853f85ce12" target="_top" xlink:title=" ">
<polygon fill="none" stroke="#000000" points="633.588,-102.5 633.588,-134.5 750.142,-134.5 750.142,-102.5 633.588,-102.5"/>
<text text-anchor="start" x="641.588" y="-121.5" font-family="Helvetica,sans-Serif" font-size="10.00" fill="#000000">LFSTK_scrollBarClass</text>
<text text-anchor="middle" x="691.865" y="-109.5" font-family="Helvetica,sans-Serif" font-size="10.00" fill="#000000">::setState</text>
</a>
</g>
</g>
<!-- Node1&#45;&gt;Node3 -->
<g id="edge2" class="edge">
<title>Node1&#45;&gt;Node3</title>
<path fill="none" stroke="#191970" d="M775.9624,-130.7381C767.4262,-129.4959 758.7433,-128.2324 750.3568,-127.0119"/>
<polygon fill="#191970" stroke="#191970" points="775.4896,-134.2061 785.8894,-132.1827 776.4977,-127.2791 775.4896,-134.2061"/>
</g>
<!-- Node3&#45;&gt;Node2 -->
<g id="edge15" class="edge">
<title>Node3&#45;&gt;Node2</title>
<path fill="none" stroke="#191970" d="M667.4445,-141.6793C649.2096,-158.1527 623.1313,-180.0126 597.588,-195.5 592.3162,-198.6964 586.5621,-201.6907 580.7891,-204.4183"/>
<polygon fill="#191970" stroke="#191970" points="670.2349,-143.8694 675.2407,-134.5317 665.5044,-138.7096 670.2349,-143.8694"/>
</g>
<!-- Node4 -->
<g id="node4" class="node">
<title>Node4</title>
<g id="a_node4"><a xlink:href="class_l_f_s_t_k__scroll_bar_class_a6a4b0d2c9217779bb3bc0b4c936130ce.xhtml#a6a4b0d2c9217779bb3bc0b4c936130ce" target="_top" xlink:title=" ">
<polygon fill="none" stroke="#000000" points="481.034,-.5 481.034,-32.5 597.588,-32.5 597.588,-.5 481.034,-.5"/>
<text text-anchor="start" x="489.034" y="-19.5" font-family="Helvetica,sans-Serif" font-size="10.00" fill="#000000">LFSTK_scrollBarClass</text>
<text text-anchor="middle" x="539.311" y="-7.5" font-family="Helvetica,sans-Serif" font-size="10.00" fill="#000000">::LFSTK_clearWindow</text>
</a>
</g>
</g>
<!-- Node3&#45;&gt;Node4 -->
<g id="edge3" class="edge">
<title>Node3&#45;&gt;Node4</title>
<path fill="none" stroke="#191970" d="M674.5175,-95.0284C656.4106,-75.9961 626.653,-50.1227 597.588,-32.5 597.4939,-32.4429 597.3996,-32.3859 597.3051,-32.329"/>
<polygon fill="#191970" stroke="#191970" points="671.9794,-97.4395 681.3059,-102.4661 677.1497,-92.7205 671.9794,-97.4395"/>
</g>
<!-- Node5 -->
<g id="node5" class="node">
<title>Node5</title>
<g id="a_node5"><a xlink:href="class_l_f_s_t_k__scroll_bar_class_a955c2789a3ce6d849a3d00a3bf4911e7.xhtml#a955c2789a3ce6d849a3d00a3bf4911e7" target="_top" xlink:title=" ">
<polygon fill="none" stroke="#000000" points="481.034,-153.5 481.034,-185.5 597.588,-185.5 597.588,-153.5 481.034,-153.5"/>
<text text-anchor="start" x="489.034" y="-172.5" font-family="Helvetica,sans-Serif" font-size="10.00" fill="#000000">LFSTK_scrollBarClass</text>
<text text-anchor="middle" x="539.311" y="-160.5" font-family="Helvetica,sans-Serif" font-size="10.00" fill="#000000">::LFSTK_setValue</text>
</a>
</g>
</g>
<!-- Node3&#45;&gt;Node5 -->
<g id="edge5" class="edge">
<title>Node3&#45;&gt;Node5</title>
<path fill="none" stroke="#191970" d="M633.697,-137.946C618.3635,-143.0721 601.9939,-148.5446 587.266,-153.4683"/>
<polygon fill="#191970" stroke="#191970" points="635.2216,-141.1268 643.596,-134.6367 633.0022,-134.488 635.2216,-141.1268"/>
</g>
<!-- Node6 -->
<g id="node6" class="node">
<title>Node6</title>
<g id="a_node6"><a xlink:href="class_l_f_s_t_k__scroll_bar_class_aa1ce7f61248cfa6eeef3e8573e327d8f.xhtml#aa1ce7f61248cfa6eeef3e8573e327d8f" target="_top" xlink:title=" ">
<polygon fill="none" stroke="#000000" points="481.034,-102.5 481.034,-134.5 597.588,-134.5 597.588,-102.5 481.034,-102.5"/>
<text text-anchor="start" x="489.034" y="-121.5" font-family="Helvetica,sans-Serif" font-size="10.00" fill="#000000">LFSTK_scrollBarClass</text>
<text text-anchor="middle" x="539.311" y="-109.5" font-family="Helvetica,sans-Serif" font-size="10.00" fill="#000000">::lineUpDown</text>
</a>
</g>
</g>
<!-- Node3&#45;&gt;Node6 -->
<g id="edge6" class="edge">
<title>Node3&#45;&gt;Node6</title>
<path fill="none" stroke="#191970" d="M623.0729,-118.5C614.5982,-118.5 605.9991,-118.5 597.6994,-118.5"/>
<polygon fill="#191970" stroke="#191970" points="623.32,-122.0001 633.3199,-118.5 623.3199,-115.0001 623.32,-122.0001"/>
</g>
<!-- Node14 -->
<g id="node14" class="node">
<title>Node14</title>
<g id="a_node14"><a xlink:href="class_l_f_s_t_k__scroll_bar_class_a04c7fd897a3f2e5d496962cc7d80d4e3.xhtml#a04c7fd897a3f2e5d496962cc7d80d4e3" target="_top" xlink:title=" ">
<polygon fill="none" stroke="#000000" points="481.034,-51.5 481.034,-83.5 597.588,-83.5 597.588,-51.5 481.034,-51.5"/>
<text text-anchor="start" x="489.034" y="-70.5" font-family="Helvetica,sans-Serif" font-size="10.00" fill="#000000">LFSTK_scrollBarClass</text>
<text text-anchor="middle" x="539.311" y="-58.5" font-family="Helvetica,sans-Serif" font-size="10.00" fill="#000000">::pageUpDown</text>
</a>
</g>
</g>
<!-- Node3&#45;&gt;Node14 -->
<g id="edge16" class="edge">
<title>Node3&#45;&gt;Node14</title>
<path fill="none" stroke="#191970" d="M633.697,-99.054C618.3635,-93.9279 601.9939,-88.4554 587.266,-83.5317"/>
<polygon fill="#191970" stroke="#191970" points="633.0022,-102.512 643.596,-102.3633 635.2216,-95.8732 633.0022,-102.512"/>
</g>
<!-- Node4&#45;&gt;Node3 -->
<g id="edge4" class="edge">
<title>Node4&#45;&gt;Node3</title>
<path fill="none" stroke="#191970" d="M571.1446,-36.8995C579.9598,-41.016 589.3611,-45.5118 597.588,-50.5 622.8871,-65.8393 648.7109,-87.4298 666.9193,-102.3747"/>
<polygon fill="#191970" stroke="#191970" points="572.434,-33.6388 561.8926,-32.5763 569.4707,-39.9807 572.434,-33.6388"/>
</g>
<!-- Node7 -->
<g id="node7" class="node">
<title>Node7</title>
<g id="a_node7"><a xlink:href="class_l_f_s_t_k__scroll_bar_class_a3da4281c24ac345ba32a4636ce2af38b.xhtml#a3da4281c24ac345ba32a4636ce2af38b" target="_top" xlink:title=" ">
<polygon fill="none" stroke="#000000" points="322.922,-153.5 322.922,-185.5 445.034,-185.5 445.034,-153.5 322.922,-153.5"/>
<text text-anchor="start" x="330.922" y="-172.5" font-family="Helvetica,sans-Serif" font-size="10.00" fill="#000000">LFSTK_scrollBarClass</text>
<text text-anchor="middle" x="383.978" y="-160.5" font-family="Helvetica,sans-Serif" font-size="10.00" fill="#000000">::LFSTK_scrollBarClass</text>
</a>
</g>
</g>
<!-- Node6&#45;&gt;Node7 -->
<g id="edge7" class="edge">
<title>Node6&#45;&gt;Node7</title>
<path fill="none" stroke="#191970" d="M480.5292,-137.7997C464.7882,-142.9678 447.9455,-148.4977 432.8066,-153.4683"/>
<polygon fill="#191970" stroke="#191970" points="481.7535,-141.0816 490.1627,-134.6367 479.5698,-134.4309 481.7535,-141.0816"/>
</g>
<!-- Node8 -->
<g id="node8" class="node">
<title>Node8</title>
<g id="a_node8"><a xlink:href="class_l_f_s_t_k__scroll_bar_class_a690ed010fb6760b5ee112df392076df5.xhtml#a690ed010fb6760b5ee112df392076df5" target="_top" xlink:title=" ">
<polygon fill="none" stroke="#000000" points="325.701,-102.5 325.701,-134.5 442.255,-134.5 442.255,-102.5 325.701,-102.5"/>
<text text-anchor="start" x="333.701" y="-121.5" font-family="Helvetica,sans-Serif" font-size="10.00" fill="#000000">LFSTK_scrollBarClass</text>
<text text-anchor="middle" x="383.978" y="-109.5" font-family="Helvetica,sans-Serif" font-size="10.00" fill="#000000">::LFSTK_scrollByLine</text>
</a>
</g>
</g>
<!-- Node6&#45;&gt;Node8 -->
<g id="edge8" class="edge">
<title>Node6&#45;&gt;Node8</title>
<path fill="none" stroke="#191970" d="M470.8167,-118.5C461.3131,-118.5 451.6237,-118.5 442.3285,-118.5"/>
<polygon fill="#191970" stroke="#191970" points="471.0288,-122.0001 481.0288,-118.5 471.0288,-115.0001 471.0288,-122.0001"/>
</g>
<!-- Node9 -->
<g id="node9" class="node">
<title>Node9</title>
<g id="a_node9"><a xlink:href="class_l_f_s_t_k__list_gadget_class_afd92ab070d0d68863589669cb73404cf.xhtml#afd92ab070d0d68863589669cb73404cf" target="_top" xlink:title=" ">
<polygon fill="none" stroke="#000000" points="164.24,-77.5 164.24,-109.5 286.922,-109.5 286.922,-77.5 164.24,-77.5"/>
<text text-anchor="start" x="172.24" y="-96.5" font-family="Helvetica,sans-Serif" font-size="10.00" fill="#000000">LFSTK_listGadgetClass</text>
<text text-anchor="middle" x="225.581" y="-84.5" font-family="Helvetica,sans-Serif" font-size="10.00" fill="#000000">::keyRelease</text>
</a>
</g>
</g>
<!-- Node8&#45;&gt;Node9 -->
<g id="edge9" class="edge">
<title>Node8&#45;&gt;Node9</title>
<path fill="none" stroke="#191970" d="M315.3437,-107.6674C305.936,-106.1825 296.3258,-104.6657 287.057,-103.2028"/>
<polygon fill="#191970" stroke="#191970" points="315.0234,-111.1601 325.4468,-109.262 316.1148,-104.2457 315.0234,-111.1601"/>
</g>
<!-- Node10 -->
<g id="node10" class="node">
<title>Node10</title>
<g id="a_node10"><a xlink:href="class_l_f_s_t_k__list_gadget_class_ad54eba5a5dc2bac69eeb6a1e40b563d7.xhtml#ad54eba5a5dc2bac69eeb6a1e40b563d7" target="_top" xlink:title=" ">
<polygon fill="none" stroke="#000000" points="164.24,-128.5 164.24,-160.5 286.922,-160.5 286.922,-128.5 164.24,-128.5"/>
<text text-anchor="start" x="172.24" y="-147.5" font-family="Helvetica,sans-Serif" font-size="10.00" fill="#000000">LFSTK_listGadgetClass</text>
<text text-anchor="middle" x="225.581" y="-135.5" font-family="Helvetica,sans-Serif" font-size="10.00" fill="#000000">::mouseUp</text>
</a>
</g>
</g>
<!-- Node8&#45;&gt;Node10 -->
<g id="edge10" class="edge">
<title>Node8&#45;&gt;Node10</title>
<path fill="none" stroke="#191970" d="M315.3437,-129.7659C305.936,-131.3102 296.3258,-132.8876 287.057,-134.4091"/>
<polygon fill="#191970" stroke="#191970" points="316.1458,-133.1812 325.4468,-128.1076 315.0119,-126.2736 316.1458,-133.1812"/>
</g>
<!-- Node11 -->
<g id="node11" class="node">
<title>Node11</title>
<g id="a_node11"><a xlink:href="class_l_f_s_t_k__list_gadget_class_ad9b006620b5e9712da9b0ee3ead405de.xhtml#ad9b006620b5e9712da9b0ee3ead405de" target="_top" xlink:title=" ">
<polygon fill="none" stroke="#000000" points="164.24,-179.5 164.24,-211.5 286.922,-211.5 286.922,-179.5 164.24,-179.5"/>
<text text-anchor="start" x="172.24" y="-198.5" font-family="Helvetica,sans-Serif" font-size="10.00" fill="#000000">LFSTK_listGadgetClass</text>
<text text-anchor="middle" x="225.581" y="-186.5" font-family="Helvetica,sans-Serif" font-size="10.00" fill="#000000">::select</text>
</a>
</g>
</g>
<!-- Node8&#45;&gt;Node11 -->
<g id="edge11" class="edge">
<title>Node8&#45;&gt;Node11</title>
<path fill="none" stroke="#191970" d="M333.5319,-138.9156C329.8951,-140.7112 326.3235,-142.5793 322.922,-144.5 305.736,-154.2043 304.183,-160.9298 286.922,-170.5 281.1892,-173.6785 274.9683,-176.681 268.7608,-179.4282"/>
<polygon fill="#191970" stroke="#191970" points="335.0981,-142.0467 342.647,-134.6127 332.1098,-135.7166 335.0981,-142.0467"/>
</g>
<!-- Node13 -->
<g id="node13" class="node">
<title>Node13</title>
<g id="a_node13"><a xlink:href="class_l_f_s_t_k__list_gadget_class_acf5ccc1d522f0d8a3b23e392b7ce30a5.xhtml#acf5ccc1d522f0d8a3b23e392b7ce30a5" target="_top" xlink:title=" ">
<polygon fill="none" stroke="#000000" points="164.24,-26.5 164.24,-58.5 286.922,-58.5 286.922,-26.5 164.24,-26.5"/>
<text text-anchor="start" x="172.24" y="-45.5" font-family="Helvetica,sans-Serif" font-size="10.00" fill="#000000">LFSTK_listGadgetClass</text>
<text text-anchor="middle" x="225.581" y="-33.5" font-family="Helvetica,sans-Serif" font-size="10.00" fill="#000000">::selectKey</text>
</a>
</g>
</g>
<!-- Node8&#45;&gt;Node13 -->
<g id="edge13" class="edge">
<title>Node8&#45;&gt;Node13</title>
<path fill="none" stroke="#191970" d="M333.7482,-98.0992C330.0413,-96.2935 326.3963,-94.4197 322.922,-92.5 305.8719,-83.0793 304.045,-76.7876 286.922,-67.5 281.059,-64.3198 274.7039,-61.2974 268.3808,-58.5245"/>
<polygon fill="#191970" stroke="#191970" points="332.4862,-101.3727 343.0278,-102.4342 335.449,-95.0306 332.4862,-101.3727"/>
</g>
<!-- Node12 -->
<g id="node12" class="node">
<title>Node12</title>
<g id="a_node12"><a xlink:href="class_l_f_s_t_k__list_gadget_class_ae3518016f28ec3cd261ad927c5691826.xhtml#ae3518016f28ec3cd261ad927c5691826" target="_top" xlink:title=" ">
<polygon fill="none" stroke="#000000" points="0,-102.5 0,-134.5 128.24,-134.5 128.24,-102.5 0,-102.5"/>
<text text-anchor="start" x="8" y="-121.5" font-family="Helvetica,sans-Serif" font-size="10.00" fill="#000000">LFSTK_listGadgetClass</text>
<text text-anchor="middle" x="64.12" y="-109.5" font-family="Helvetica,sans-Serif" font-size="10.00" fill="#000000">::LFSTK_listGadgetClass</text>
</a>
</g>
</g>
<!-- Node11&#45;&gt;Node12 -->
<g id="edge12" class="edge">
<title>Node11&#45;&gt;Node12</title>
<path fill="none" stroke="#191970" d="M175.3546,-175.472C171.5758,-173.8304 167.8364,-172.1625 164.24,-170.5 140.0608,-159.3225 113.3155,-145.3453 93.5546,-134.6977"/>
<polygon fill="#191970" stroke="#191970" points="174.1979,-178.7835 184.7698,-179.4807 176.9401,-172.343 174.1979,-178.7835"/>
</g>
<!-- Node13&#45;&gt;Node12 -->
<g id="edge14" class="edge">
<title>Node13&#45;&gt;Node12</title>
<path fill="none" stroke="#191970" d="M175.3693,-62.5599C171.5872,-64.1942 167.843,-65.8517 164.24,-67.5 140.2925,-78.4558 113.7596,-92.0393 94.0277,-102.4324"/>
<polygon fill="#191970" stroke="#191970" points="176.951,-65.6909 184.7902,-58.5637 174.2174,-59.2467 176.951,-65.6909"/>
</g>
<!-- Node15 -->
<g id="node15" class="node">
<title>Node15</title>
<g id="a_node15"><a xlink:href="class_l_f_s_t_k__scroll_bar_class_a1aa54518e56118cc5f92890b7269c3d1.xhtml#a1aa54518e56118cc5f92890b7269c3d1" target="_top" xlink:title=" ">
<polygon fill="none" stroke="#000000" points="325.6915,-51.5 325.6915,-83.5 442.2645,-83.5 442.2645,-51.5 325.6915,-51.5"/>
<text text-anchor="start" x="333.6915" y="-70.5" font-family="Helvetica,sans-Serif" font-size="10.00" fill="#000000">LFSTK_scrollBarClass</text>
<text text-anchor="middle" x="383.978" y="-58.5" font-family="Helvetica,sans-Serif" font-size="10.00" fill="#000000">::LFSTK_scrollByPage</text>
</a>
</g>
</g>
<!-- Node14&#45;&gt;Node15 -->
<g id="edge17" class="edge">
<title>Node14&#45;&gt;Node15</title>
<path fill="none" stroke="#191970" d="M470.8167,-67.5C461.3131,-67.5 451.6237,-67.5 442.3285,-67.5"/>
<polygon fill="#191970" stroke="#191970" points="471.0288,-71.0001 481.0288,-67.5 471.0288,-64.0001 471.0288,-71.0001"/>
</g>
<!-- Node15&#45;&gt;Node9 -->
<g id="edge18" class="edge">
<title>Node15&#45;&gt;Node9</title>
<path fill="none" stroke="#191970" d="M315.3437,-78.7659C305.936,-80.3102 296.3258,-81.8876 287.057,-83.4091"/>
<polygon fill="#191970" stroke="#191970" points="316.1458,-82.1812 325.4468,-77.1076 315.0119,-75.2736 316.1458,-82.1812"/>
</g>
<!-- Node15&#45;&gt;Node13 -->
<g id="edge19" class="edge">
<title>Node15&#45;&gt;Node13</title>
<path fill="none" stroke="#191970" d="M315.3437,-56.6674C305.936,-55.1825 296.3258,-53.6657 287.057,-52.2028"/>
<polygon fill="#191970" stroke="#191970" points="315.0234,-60.1601 325.4468,-58.262 316.1148,-53.2457 315.0234,-60.1601"/>
</g>
</g>
</svg>
