<?xml version="1.0" encoding="UTF-8" standalone="no"?>
<!DOCTYPE svg PUBLIC "-//W3C//DTD SVG 1.1//EN"
 "http://www.w3.org/Graphics/SVG/1.1/DTD/svg11.dtd">
<!-- Generated by graphviz version 2.40.1 (20161225.0304)
 -->
<!-- Title: LFSTK_listGadgetClass Pages: 1 -->
<svg width="909pt" height="575pt"
 viewBox="0.00 0.00 909.06 575.00" xmlns="http://www.w3.org/2000/svg" xmlns:xlink="http://www.w3.org/1999/xlink">
<g id="graph0" class="graph" transform="scale(1 1) rotate(0) translate(4 571)">
<title>LFSTK_listGadgetClass</title>
<!-- Node1 -->
<g id="node1" class="node">
<title>Node1</title>
<g id="a_node1"><a xlink:title="List class for LFSToolKit.">
<polygon fill="#bfbfbf" stroke="#000000" points="90.936,-69.5 90.936,-89.5 213.618,-89.5 213.618,-69.5 90.936,-69.5"/>
<text text-anchor="middle" x="152.277" y="-76.5" font-family="Helvetica,sans-Serif" font-size="10.00" fill="#000000">LFSTK_listGadgetClass</text>
</a>
</g>
</g>
<!-- Node16 -->
<g id="node16" class="node">
<title>Node16</title>
<g id="a_node16"><a xlink:href="structlist_data.xhtml" target="_top" xlink:title=" ">
<polygon fill="none" stroke="#000000" points="127.6105,-.5 127.6105,-20.5 176.9435,-20.5 176.9435,-.5 127.6105,-.5"/>
<text text-anchor="middle" x="152.277" y="-7.5" font-family="Helvetica,sans-Serif" font-size="10.00" fill="#000000">listData</text>
</a>
</g>
</g>
<!-- Node1&#45;&gt;Node16 -->
<g id="edge24" class="edge">
<title>Node1&#45;&gt;Node16</title>
<path fill="none" stroke="#9a32cd" stroke-dasharray="5,2" d="M121.1512,-63.2672C117.0435,-59.7818 113.407,-55.703 110.937,-51 104.4899,-38.7247 117.0065,-27.9149 129.915,-20.5576"/>
<polygon fill="#9a32cd" stroke="#9a32cd" points="119.2892,-66.2395 129.4483,-69.2464 123.3817,-60.5604 119.2892,-66.2395"/>
<text text-anchor="middle" x="137.947" y="-42" font-family="Helvetica,sans-Serif" font-size="10.00" fill="#000000"> mainObject</text>
</g>
<!-- Node2 -->
<g id="node2" class="node">
<title>Node2</title>
<g id="a_node2"><a xlink:href="class_l_f_s_t_k__gadget_class.xhtml" target="_top" xlink:title="Base class for LFSToolKit gadgets.">
<polygon fill="none" stroke="#000000" points="231.1545,-312.5 231.1545,-332.5 339.3995,-332.5 339.3995,-312.5 231.1545,-312.5"/>
<text text-anchor="middle" x="285.277" y="-319.5" font-family="Helvetica,sans-Serif" font-size="10.00" fill="#000000">LFSTK_gadgetClass</text>
</a>
</g>
</g>
<!-- Node2&#45;&gt;Node1 -->
<g id="edge1" class="edge">
<title>Node2&#45;&gt;Node1</title>
<path fill="none" stroke="#191970" d="M283.6379,-302.2326C281.5096,-283.1489 276.739,-254.1216 266.277,-231 239.2735,-171.3207 185.366,-112.8782 162.699,-89.8116"/>
<polygon fill="#191970" stroke="#191970" points="280.1793,-302.829 284.629,-312.4441 287.1466,-302.1527 280.1793,-302.829"/>
</g>
<!-- Node7 -->
<g id="node7" class="node">
<title>Node7</title>
<g id="a_node7"><a xlink:href="class_l_f_s_t_k__window_class.xhtml" target="_top" xlink:title="Window class for LFSToolKit.">
<polygon fill="none" stroke="#000000" points="528.7745,-231.5 528.7745,-251.5 639.7795,-251.5 639.7795,-231.5 528.7745,-231.5"/>
<text text-anchor="middle" x="584.277" y="-238.5" font-family="Helvetica,sans-Serif" font-size="10.00" fill="#000000">LFSTK_windowClass</text>
</a>
</g>
</g>
<!-- Node2&#45;&gt;Node7 -->
<g id="edge10" class="edge">
<title>Node2&#45;&gt;Node7</title>
<path fill="none" stroke="#9a32cd" stroke-dasharray="5,2" d="M294.1662,-302.9202C300.5607,-289.7479 309.1219,-274.0706 315.362,-270 332.7863,-258.6336 454.9983,-249.3443 528.5384,-244.7048"/>
<polygon fill="#9a32cd" stroke="#9a32cd" points="290.8574,-301.732 289.773,-312.2712 297.1931,-304.7086 290.8574,-301.732"/>
<text text-anchor="middle" x="358.2345" y="-285" font-family="Helvetica,sans-Serif" font-size="10.00" fill="#000000"> dropGadget</text>
<text text-anchor="middle" x="358.2345" y="-273" font-family="Helvetica,sans-Serif" font-size="10.00" fill="#000000">popupFromGadget</text>
</g>
<!-- Node12 -->
<g id="node12" class="node">
<title>Node12</title>
<g id="a_node12"><a xlink:href="structmapped_listener.xhtml" target="_top" xlink:title=" ">
<polygon fill="none" stroke="#000000" points="169.4335,-231.5 169.4335,-251.5 257.1205,-251.5 257.1205,-231.5 169.4335,-231.5"/>
<text text-anchor="middle" x="213.277" y="-238.5" font-family="Helvetica,sans-Serif" font-size="10.00" fill="#000000">mappedListener</text>
</a>
</g>
</g>
<!-- Node2&#45;&gt;Node12 -->
<g id="edge16" class="edge">
<title>Node2&#45;&gt;Node12</title>
<path fill="none" stroke="#9a32cd" stroke-dasharray="5,2" d="M230.7968,-309.4822C217.081,-305.0608 205.0615,-299.7651 200.924,-294 191.8613,-281.3721 199.7459,-263.0462 206.4098,-251.7217"/>
<polygon fill="#9a32cd" stroke="#9a32cd" points="229.9029,-312.8682 240.4874,-312.3986 231.9202,-306.1652 229.9029,-312.8682"/>
<text text-anchor="middle" x="217.9535" y="-279" font-family="Helvetica,sans-Serif" font-size="10.00" fill="#000000"> gadget</text>
</g>
<!-- Node14 -->
<g id="node14" class="node">
<title>Node14</title>
<g id="a_node14"><a xlink:href="class_l_f_s_t_k__scroll_bar_class.xhtml" target="_top" xlink:title="Scrollbar class for LFSToolKit.">
<polygon fill="none" stroke="#000000" points="0,-138.5 0,-158.5 116.554,-158.5 116.554,-138.5 0,-138.5"/>
<text text-anchor="middle" x="58.277" y="-145.5" font-family="Helvetica,sans-Serif" font-size="10.00" fill="#000000">LFSTK_scrollBarClass</text>
</a>
</g>
</g>
<!-- Node2&#45;&gt;Node14 -->
<g id="edge20" class="edge">
<title>Node2&#45;&gt;Node14</title>
<path fill="none" stroke="#191970" d="M220.8982,-313.69C154.2785,-303.0321 57.0808,-282.6203 36.277,-252 16.2492,-222.5218 39.2102,-178.2835 51.5066,-158.5847"/>
<polygon fill="#191970" stroke="#191970" points="220.481,-317.1672 230.9017,-315.2543 221.5625,-310.2513 220.481,-317.1672"/>
</g>
<!-- Node15 -->
<g id="node15" class="node">
<title>Node15</title>
<g id="a_node15"><a xlink:href="class_l_f_s_t_k__button_class.xhtml" target="_top" xlink:title="Basic button class for LFSToolKit.">
<polygon fill="none" stroke="#000000" points="45.5445,-231.5 45.5445,-251.5 151.0095,-251.5 151.0095,-231.5 45.5445,-231.5"/>
<text text-anchor="middle" x="98.277" y="-238.5" font-family="Helvetica,sans-Serif" font-size="10.00" fill="#000000">LFSTK_buttonClass</text>
</a>
</g>
</g>
<!-- Node2&#45;&gt;Node15 -->
<g id="edge22" class="edge">
<title>Node2&#45;&gt;Node15</title>
<path fill="none" stroke="#191970" d="M236.9484,-309.5563C222.6683,-305.1919 207.1514,-299.9091 193.277,-294 164.3241,-281.6689 132.7182,-263.0845 114.2416,-251.653"/>
<polygon fill="#191970" stroke="#191970" points="236.0189,-312.9313 246.6017,-312.4275 238.0145,-306.2218 236.0189,-312.9313"/>
</g>
<!-- Node3 -->
<g id="node3" class="node">
<title>Node3</title>
<g id="a_node3"><a xlink:href="structgadget_struct.xhtml" target="_top" xlink:title=" ">
<polygon fill="none" stroke="#000000" points="397.9325,-389 397.9325,-409 470.6215,-409 470.6215,-389 397.9325,-389"/>
<text text-anchor="middle" x="434.277" y="-396" font-family="Helvetica,sans-Serif" font-size="10.00" fill="#000000">gadgetStruct</text>
</a>
</g>
</g>
<!-- Node3&#45;&gt;Node2 -->
<g id="edge2" class="edge">
<title>Node3&#45;&gt;Node2</title>
<path fill="none" stroke="#9a32cd" stroke-dasharray="5,2" d="M412.3346,-382.7108C398.2308,-372.7181 379.2461,-360.1325 361.277,-351 347.2072,-343.8493 330.9016,-337.5003 317.0096,-332.6203"/>
<polygon fill="#9a32cd" stroke="#9a32cd" points="410.6794,-385.8322 420.8382,-388.8407 414.7728,-380.1538 410.6794,-385.8322"/>
<text text-anchor="middle" x="413.2305" y="-354" font-family="Helvetica,sans-Serif" font-size="10.00" fill="#000000"> gadgetDetails</text>
</g>
<!-- Node4 -->
<g id="node4" class="node">
<title>Node4</title>
<g id="a_node4"><a xlink:href="structgeometry_struct.xhtml" target="_top" xlink:title=" ">
<polygon fill="none" stroke="#000000" points="357.383,-477.5 357.383,-497.5 441.171,-497.5 441.171,-477.5 357.383,-477.5"/>
<text text-anchor="middle" x="399.277" y="-484.5" font-family="Helvetica,sans-Serif" font-size="10.00" fill="#000000">geometryStruct</text>
</a>
</g>
</g>
<!-- Node4&#45;&gt;Node2 -->
<g id="edge6" class="edge">
<title>Node4&#45;&gt;Node2</title>
<path fill="none" stroke="#9a32cd" stroke-dasharray="5,2" d="M347.268,-477.2545C313.9955,-467.7168 273.333,-449.8225 252.698,-417 235.1488,-389.0858 261.5951,-350.5522 276.3979,-332.5386"/>
<polygon fill="#9a32cd" stroke="#9a32cd" points="346.7609,-480.7422 357.3263,-479.9534 348.575,-473.9813 346.7609,-480.7422"/>
<text text-anchor="middle" x="283.5665" y="-396" font-family="Helvetica,sans-Serif" font-size="10.00" fill="#000000"> gadgetGeom</text>
</g>
<!-- Node4&#45;&gt;Node3 -->
<g id="edge3" class="edge">
<title>Node4&#45;&gt;Node3</title>
<path fill="none" stroke="#9a32cd" stroke-dasharray="5,2" d="M396.4196,-467.1526C395.8289,-457.123 396.3759,-445.0543 400.49,-435 404.7099,-424.6871 413.3567,-415.5647 420.8462,-409.0833"/>
<polygon fill="#9a32cd" stroke="#9a32cd" points="392.9657,-467.7904 397.4405,-477.3939 399.9312,-467.096 392.9657,-467.7904"/>
<text text-anchor="middle" x="434.1705" y="-450" font-family="Helvetica,sans-Serif" font-size="10.00" fill="#000000"> indicatorGeom</text>
<text text-anchor="middle" x="434.1705" y="-438" font-family="Helvetica,sans-Serif" font-size="10.00" fill="#000000">gadgetGeom</text>
</g>
<!-- Node4&#45;&gt;Node7 -->
<g id="edge8" class="edge">
<title>Node4&#45;&gt;Node7</title>
<path fill="none" stroke="#9a32cd" stroke-dasharray="5,2" d="M451.2961,-478.8682C478.8986,-473.6027 509.4948,-466.4645 521.277,-459 581.6704,-420.7385 594.3255,-399.2188 621.277,-333 631.8537,-307.0136 638.2745,-294.8641 625.277,-270 621.1807,-262.1639 613.8398,-256.0477 606.4901,-251.5249"/>
<polygon fill="#9a32cd" stroke="#9a32cd" points="450.4973,-475.4566 441.3026,-480.7206 451.7731,-482.3394 450.4973,-475.4566"/>
<text text-anchor="middle" x="644.9465" y="-354" font-family="Helvetica,sans-Serif" font-size="10.00" fill="#000000"> windowGeom</text>
</g>
<!-- Node5 -->
<g id="node5" class="node">
<title>Node5</title>
<g id="a_node5"><a xlink:href="structcolour_struct.xhtml" target="_top" xlink:title=" ">
<polygon fill="none" stroke="#000000" points="578.607,-477.5 578.607,-497.5 647.947,-497.5 647.947,-477.5 578.607,-477.5"/>
<text text-anchor="middle" x="613.277" y="-484.5" font-family="Helvetica,sans-Serif" font-size="10.00" fill="#000000">colourStruct</text>
</a>
</g>
</g>
<!-- Node5&#45;&gt;Node2 -->
<g id="edge18" class="edge">
<title>Node5&#45;&gt;Node2</title>
<path fill="none" stroke="#9a32cd" stroke-dasharray="5,2" d="M618.1957,-467.4073C624.1948,-437.4742 630.0756,-381.4406 599.277,-351 594.7148,-346.4908 428.3928,-333.2983 339.7112,-326.5611"/>
<polygon fill="#9a32cd" stroke="#9a32cd" points="614.7071,-466.974 615.967,-477.4936 621.5422,-468.4844 614.7071,-466.974"/>
<text text-anchor="middle" x="661.17" y="-408" font-family="Helvetica,sans-Serif" font-size="10.00" fill="#000000"> labelBGColour</text>
<text text-anchor="middle" x="661.17" y="-396" font-family="Helvetica,sans-Serif" font-size="10.00" fill="#000000">colourNames</text>
<text text-anchor="middle" x="661.17" y="-384" font-family="Helvetica,sans-Serif" font-size="10.00" fill="#000000">fontColourNames</text>
</g>
<!-- Node5&#45;&gt;Node3 -->
<g id="edge4" class="edge">
<title>Node5&#45;&gt;Node3</title>
<path fill="none" stroke="#9a32cd" stroke-dasharray="5,2" d="M583.5832,-472.819C547.0841,-454.7734 486.119,-424.6314 454.5711,-409.0337"/>
<polygon fill="#9a32cd" stroke="#9a32cd" points="582.228,-476.0533 592.7434,-477.3479 585.3304,-469.7784 582.228,-476.0533"/>
<text text-anchor="middle" x="570.279" y="-444" font-family="Helvetica,sans-Serif" font-size="10.00" fill="#000000"> colour</text>
</g>
<!-- Node5&#45;&gt;Node7 -->
<g id="edge12" class="edge">
<title>Node5&#45;&gt;Node7</title>
<path fill="none" stroke="#9a32cd" stroke-dasharray="5,2" d="M645.0934,-472.5084C666.1319,-460.6844 692.0154,-442.0102 704.277,-417 711.3203,-402.6337 707.6376,-396.6431 704.277,-381 692.9124,-328.0996 693.23,-307.5535 654.277,-270 645.7753,-261.8037 634.5996,-255.8479 623.6808,-251.5703"/>
<polygon fill="#9a32cd" stroke="#9a32cd" points="643.296,-469.5006 636.1316,-477.3059 646.5997,-475.672 643.296,-469.5006"/>
<text text-anchor="middle" x="748.8885" y="-354" font-family="Helvetica,sans-Serif" font-size="10.00" fill="#000000"> windowColourNames</text>
</g>
<!-- Node6 -->
<g id="node6" class="node">
<title>Node6</title>
<g id="a_node6"><a xlink:href="structcairo_color.xhtml" target="_top" xlink:title=" ">
<polygon fill="none" stroke="#000000" points="582.5015,-546.5 582.5015,-566.5 644.0525,-566.5 644.0525,-546.5 582.5015,-546.5"/>
<text text-anchor="middle" x="613.277" y="-553.5" font-family="Helvetica,sans-Serif" font-size="10.00" fill="#000000">cairoColor</text>
</a>
</g>
</g>
<!-- Node6&#45;&gt;Node5 -->
<g id="edge5" class="edge">
<title>Node6&#45;&gt;Node5</title>
<path fill="none" stroke="#9a32cd" stroke-dasharray="5,2" d="M613.277,-536.2177C613.277,-523.5684 613.277,-507.8285 613.277,-497.723"/>
<polygon fill="#9a32cd" stroke="#9a32cd" points="609.7771,-536.3188 613.277,-546.3188 616.7771,-536.3188 609.7771,-536.3188"/>
<text text-anchor="middle" x="643.5565" y="-519" font-family="Helvetica,sans-Serif" font-size="10.00" fill="#000000"> RGBAColour</text>
</g>
<!-- Node7&#45;&gt;Node2 -->
<g id="edge7" class="edge">
<title>Node7&#45;&gt;Node2</title>
<path fill="none" stroke="#9a32cd" stroke-dasharray="5,2" d="M518.3708,-247.9969C492.1627,-252.1587 462.2139,-258.9494 436.605,-270 419.8454,-277.232 419.8646,-286.3817 403.277,-294 383.3591,-303.1479 360.1499,-309.5667 339.6108,-313.9641"/>
<polygon fill="#9a32cd" stroke="#9a32cd" points="519.2158,-251.4098 528.5911,-246.4748 518.1845,-244.4862 519.2158,-251.4098"/>
<text text-anchor="middle" x="462.113" y="-285" font-family="Helvetica,sans-Serif" font-size="10.00" fill="#000000"> contextWC</text>
<text text-anchor="middle" x="462.113" y="-273" font-family="Helvetica,sans-Serif" font-size="10.00" fill="#000000">wc</text>
</g>
<!-- Node8 -->
<g id="node8" class="node">
<title>Node8</title>
<g id="a_node8"><a xlink:href="structmonitor_struct.xhtml" target="_top" xlink:title=" ">
<polygon fill="none" stroke="#000000" points="536.553,-312.5 536.553,-332.5 612.001,-332.5 612.001,-312.5 536.553,-312.5"/>
<text text-anchor="middle" x="574.277" y="-319.5" font-family="Helvetica,sans-Serif" font-size="10.00" fill="#000000">monitorStruct</text>
</a>
</g>
</g>
<!-- Node8&#45;&gt;Node7 -->
<g id="edge9" class="edge">
<title>Node8&#45;&gt;Node7</title>
<path fill="none" stroke="#9a32cd" stroke-dasharray="5,2" d="M576.7835,-302.1972C578.7702,-286.1048 581.4629,-264.2944 583.0208,-251.6754"/>
<polygon fill="#9a32cd" stroke="#9a32cd" points="573.2952,-301.8878 575.5435,-312.2413 580.2425,-302.7455 573.2952,-301.8878"/>
<text text-anchor="middle" x="600.833" y="-279" font-family="Helvetica,sans-Serif" font-size="10.00" fill="#000000"> monitors</text>
</g>
<!-- Node9 -->
<g id="node9" class="node">
<title>Node9</title>
<g id="a_node9"><a xlink:href="structdrop_data_struct.xhtml" target="_top" xlink:title=" ">
<polygon fill="none" stroke="#000000" points="435.6585,-312.5 435.6585,-332.5 518.8955,-332.5 518.8955,-312.5 435.6585,-312.5"/>
<text text-anchor="middle" x="477.277" y="-319.5" font-family="Helvetica,sans-Serif" font-size="10.00" fill="#000000">dropDataStruct</text>
</a>
</g>
</g>
<!-- Node9&#45;&gt;Node7 -->
<g id="edge11" class="edge">
<title>Node9&#45;&gt;Node7</title>
<path fill="none" stroke="#9a32cd" stroke-dasharray="5,2" d="M486.4919,-303.3657C492.6156,-292.3519 501.5728,-278.9622 512.699,-270 522.6989,-261.9451 535.2645,-255.9235 547.0653,-251.5431"/>
<polygon fill="#9a32cd" stroke="#9a32cd" points="483.3736,-301.7761 481.8567,-312.2618 489.5815,-305.0107 483.3736,-301.7761"/>
<text text-anchor="middle" x="542.566" y="-279" font-family="Helvetica,sans-Serif" font-size="10.00" fill="#000000"> droppedData</text>
</g>
<!-- Node10 -->
<g id="node10" class="node">
<title>Node10</title>
<g id="a_node10"><a xlink:href="class_l_f_s_t_k__lib.xhtml" target="_top" xlink:title="Library of useful routines for LFSToolKit.">
<polygon fill="none" stroke="#000000" points="776.9415,-312.5 776.9415,-332.5 839.6125,-332.5 839.6125,-312.5 776.9415,-312.5"/>
<text text-anchor="middle" x="808.277" y="-319.5" font-family="Helvetica,sans-Serif" font-size="10.00" fill="#000000">LFSTK_lib</text>
</a>
</g>
</g>
<!-- Node10&#45;&gt;Node7 -->
<g id="edge13" class="edge">
<title>Node10&#45;&gt;Node7</title>
<path fill="none" stroke="#9a32cd" stroke-dasharray="5,2" d="M789.3057,-305.7936C774.9002,-294.0016 754.0821,-278.7928 733.277,-270 703.8018,-257.543 668.7421,-250.4906 640.0383,-246.5188"/>
<polygon fill="#9a32cd" stroke="#9a32cd" points="787.0931,-308.5061 796.9979,-312.2674 791.6006,-303.1504 787.0931,-308.5061"/>
<text text-anchor="middle" x="794.672" y="-279" font-family="Helvetica,sans-Serif" font-size="10.00" fill="#000000"> globalLib</text>
</g>
<!-- Node11 -->
<g id="node11" class="node">
<title>Node11</title>
<g id="a_node11"><a xlink:href="structargs.xhtml" target="_top" xlink:title=" ">
<polygon fill="none" stroke="#000000" points="821.5535,-389 821.5535,-409 857.0005,-409 857.0005,-389 821.5535,-389"/>
<text text-anchor="middle" x="839.277" y="-396" font-family="Helvetica,sans-Serif" font-size="10.00" fill="#000000">args</text>
</a>
</g>
</g>
<!-- Node11&#45;&gt;Node10 -->
<g id="edge14" class="edge">
<title>Node11&#45;&gt;Node10</title>
<path fill="none" stroke="#9a32cd" stroke-dasharray="5,2" d="M831.4378,-379.6549C825.3945,-364.7416 817.2756,-344.7062 812.4296,-332.7477"/>
<polygon fill="#9a32cd" stroke="#9a32cd" points="828.2248,-381.0455 835.2243,-388.999 834.7124,-378.4165 828.2248,-381.0455"/>
<text text-anchor="middle" x="862.169" y="-354" font-family="Helvetica,sans-Serif" font-size="10.00" fill="#000000"> lfsToolKitGlobals</text>
</g>
<!-- Node12&#45;&gt;Node2 -->
<g id="edge15" class="edge">
<title>Node12&#45;&gt;Node2</title>
<path fill="none" stroke="#9a32cd" stroke-dasharray="5,2" d="M228.2023,-259.5724C236.7633,-269.8027 247.7961,-282.7608 257.95,-294 263.5563,-300.2056 270.0254,-306.9692 275.2617,-312.3495"/>
<polygon fill="#9a32cd" stroke="#9a32cd" points="230.7531,-257.1658 221.6661,-251.7181 225.3725,-261.6435 230.7531,-257.1658"/>
<text text-anchor="middle" x="264.9405" y="-279" font-family="Helvetica,sans-Serif" font-size="10.00" fill="#000000"> ml</text>
</g>
<!-- Node13 -->
<g id="node13" class="node">
<title>Node13</title>
<g id="a_node13"><a xlink:href="structbutton_c_b.xhtml" target="_top" xlink:title=" ">
<polygon fill="none" stroke="#000000" points="322.436,-389 322.436,-409 380.118,-409 380.118,-389 322.436,-389"/>
<text text-anchor="middle" x="351.277" y="-396" font-family="Helvetica,sans-Serif" font-size="10.00" fill="#000000">buttonCB</text>
</a>
</g>
</g>
<!-- Node13&#45;&gt;Node2 -->
<g id="edge17" class="edge">
<title>Node13&#45;&gt;Node2</title>
<path fill="none" stroke="#9a32cd" stroke-dasharray="5,2" d="M336.0514,-381.3522C323.0607,-366.2947 304.8321,-345.1662 294.1181,-332.7477"/>
<polygon fill="#9a32cd" stroke="#9a32cd" points="333.4662,-383.7137 342.6487,-388.999 338.7663,-379.141 333.4662,-383.7137"/>
<text text-anchor="middle" x="337.724" y="-354" font-family="Helvetica,sans-Serif" font-size="10.00" fill="#000000"> callback</text>
</g>
<!-- Node14&#45;&gt;Node1 -->
<g id="edge19" class="edge">
<title>Node14&#45;&gt;Node1</title>
<path fill="none" stroke="#9a32cd" stroke-dasharray="5,2" d="M72.8517,-130.5686C79.5703,-123.0094 87.9659,-114.4803 96.615,-108 106.2592,-100.7742 118.0047,-94.4564 128.2162,-89.6177"/>
<polygon fill="#9a32cd" stroke="#9a32cd" points="70.1246,-128.3723 66.2867,-138.2476 75.4452,-132.9211 70.1246,-128.3723"/>
<text text-anchor="middle" x="118.108" y="-111" font-family="Helvetica,sans-Serif" font-size="10.00" fill="#000000"> scrollBar</text>
</g>
<!-- Node15&#45;&gt;Node1 -->
<g id="edge25" class="edge">
<title>Node15&#45;&gt;Node1</title>
<path fill="none" stroke="#9a32cd" stroke-dasharray="5,2" d="M126.7593,-225.1827C130.8726,-221.6642 134.6095,-217.5968 137.277,-213 160.806,-172.4533 156.6342,-113.2788 153.7555,-89.7238"/>
<polygon fill="#9a32cd" stroke="#9a32cd" points="124.5084,-222.4947 118.5675,-231.2672 128.6823,-228.1142 124.5084,-222.4947"/>
<text text-anchor="middle" x="170.724" y="-145.5" font-family="Helvetica,sans-Serif" font-size="10.00" fill="#000000"> labels</text>
</g>
<!-- Node15&#45;&gt;Node14 -->
<g id="edge21" class="edge">
<title>Node15&#45;&gt;Node14</title>
<path fill="none" stroke="#9a32cd" stroke-dasharray="5,2" d="M89.8033,-221.7986C81.4755,-202.4365 69.0998,-173.6631 62.6088,-158.5714"/>
<polygon fill="#9a32cd" stroke="#9a32cd" points="86.6771,-223.3886 93.8435,-231.192 93.1075,-220.6228 86.6771,-223.3886"/>
<text text-anchor="middle" x="109.8925" y="-204" font-family="Helvetica,sans-Serif" font-size="10.00" fill="#000000"> upLeft</text>
<text text-anchor="middle" x="109.8925" y="-192" font-family="Helvetica,sans-Serif" font-size="10.00" fill="#000000">downRight</text>
<text text-anchor="middle" x="109.8925" y="-180" font-family="Helvetica,sans-Serif" font-size="10.00" fill="#000000">thumb</text>
</g>
<!-- Node16&#45;&gt;Node1 -->
<g id="edge23" class="edge">
<title>Node16&#45;&gt;Node1</title>
<path fill="none" stroke="#9a32cd" stroke-dasharray="5,2" d="M164.5375,-29.2448C166.0791,-32.3908 167.4156,-35.7062 168.277,-39 171.0695,-49.6786 165.4727,-61.3498 160.1474,-69.4081"/>
<polygon fill="#9a32cd" stroke="#9a32cd" points="167.5538,-27.4685 159.5674,-20.5066 161.4691,-30.9293 167.5538,-27.4685"/>
<text text-anchor="middle" x="180.3945" y="-42" font-family="Helvetica,sans-Serif" font-size="10.00" fill="#000000"> data</text>
</g>
</g>
</svg>
