<?xml version="1.0" encoding="UTF-8" standalone="no"?>
<!DOCTYPE svg PUBLIC "-//W3C//DTD SVG 1.1//EN"
 "http://www.w3.org/Graphics/SVG/1.1/DTD/svg11.dtd">
<!-- Generated by graphviz version 2.40.1 (20161225.0304)
 -->
<!-- Title: LFSTK_scrollBarClass::mouseUp Pages: 1 -->
<svg width="1201pt" height="348pt"
 viewBox="0.00 0.00 1201.46 348.00" xmlns="http://www.w3.org/2000/svg" xmlns:xlink="http://www.w3.org/1999/xlink">
<g id="graph0" class="graph" transform="scale(1 1) rotate(0) translate(4 344)">
<title>LFSTK_scrollBarClass::mouseUp</title>
<!-- Node1 -->
<g id="node1" class="node">
<title>Node1</title>
<g id="a_node1"><a xlink:title=" ">
<polygon fill="#bfbfbf" stroke="#000000" points="0,-256.5 0,-288.5 116.554,-288.5 116.554,-256.5 0,-256.5"/>
<text text-anchor="start" x="8" y="-275.5" font-family="Helvetica,sans-Serif" font-size="10.00" fill="#000000">LFSTK_scrollBarClass</text>
<text text-anchor="middle" x="58.277" y="-263.5" font-family="Helvetica,sans-Serif" font-size="10.00" fill="#000000">::mouseUp</text>
</a>
</g>
</g>
<!-- Node2 -->
<g id="node2" class="node">
<title>Node2</title>
<g id="a_node2"><a xlink:href="class_l_f_s_t_k__gadget_class_a71d34233c5db545e92d37c0e3139459b.xhtml#a71d34233c5db545e92d37c0e3139459b" target="_top" xlink:title=" ">
<polygon fill="none" stroke="#000000" points="305.108,-307.5 305.108,-339.5 418.911,-339.5 418.911,-307.5 305.108,-307.5"/>
<text text-anchor="start" x="313.108" y="-326.5" font-family="Helvetica,sans-Serif" font-size="10.00" fill="#000000">LFSTK_gadgetClass::</text>
<text text-anchor="middle" x="362.0095" y="-314.5" font-family="Helvetica,sans-Serif" font-size="10.00" fill="#000000">LFSTK_getGeom</text>
</a>
</g>
</g>
<!-- Node1&#45;&gt;Node2 -->
<g id="edge1" class="edge">
<title>Node1&#45;&gt;Node2</title>
<path fill="none" stroke="#191970" d="M116.8397,-282.3333C167.7722,-290.8854 241.5648,-303.276 294.873,-312.2271"/>
<polygon fill="#191970" stroke="#191970" points="294.4716,-315.7086 304.9132,-313.9129 295.6308,-308.8052 294.4716,-315.7086"/>
</g>
<!-- Node3 -->
<g id="node3" class="node">
<title>Node3</title>
<g id="a_node3"><a xlink:href="class_l_f_s_t_k__gadget_class_aeeb028f96b71fa161ec195880106a936.xhtml#aeeb028f96b71fa161ec195880106a936" target="_top" xlink:title=" ">
<polygon fill="none" stroke="#000000" points="305.108,-256.5 305.108,-288.5 418.911,-288.5 418.911,-256.5 305.108,-256.5"/>
<text text-anchor="start" x="313.108" y="-275.5" font-family="Helvetica,sans-Serif" font-size="10.00" fill="#000000">LFSTK_gadgetClass::</text>
<text text-anchor="middle" x="362.0095" y="-263.5" font-family="Helvetica,sans-Serif" font-size="10.00" fill="#000000">LFSTK_getLimits</text>
</a>
</g>
</g>
<!-- Node1&#45;&gt;Node3 -->
<g id="edge2" class="edge">
<title>Node1&#45;&gt;Node3</title>
<path fill="none" stroke="#191970" d="M116.8397,-272.5C167.7722,-272.5 241.5648,-272.5 294.873,-272.5"/>
<polygon fill="#191970" stroke="#191970" points="294.9132,-276.0001 304.9132,-272.5 294.9131,-269.0001 294.9132,-276.0001"/>
</g>
<!-- Node4 -->
<g id="node4" class="node">
<title>Node4</title>
<g id="a_node4"><a xlink:href="class_l_f_s_t_k__scroll_bar_class_a3e47c5f9944ddb2a861b80853f85ce12.xhtml#a3e47c5f9944ddb2a861b80853f85ce12" target="_top" xlink:title=" ">
<polygon fill="none" stroke="#000000" points="152.554,-207.5 152.554,-239.5 269.108,-239.5 269.108,-207.5 152.554,-207.5"/>
<text text-anchor="start" x="160.554" y="-226.5" font-family="Helvetica,sans-Serif" font-size="10.00" fill="#000000">LFSTK_scrollBarClass</text>
<text text-anchor="middle" x="210.831" y="-214.5" font-family="Helvetica,sans-Serif" font-size="10.00" fill="#000000">::setState</text>
</a>
</g>
</g>
<!-- Node1&#45;&gt;Node4 -->
<g id="edge3" class="edge">
<title>Node1&#45;&gt;Node4</title>
<path fill="none" stroke="#191970" d="M108.2289,-256.4556C121.926,-252.0561 136.914,-247.242 151.0998,-242.6855"/>
<polygon fill="#191970" stroke="#191970" points="152.3163,-245.971 160.7669,-239.5805 150.1756,-239.3063 152.3163,-245.971"/>
</g>
<!-- Node4&#45;&gt;Node2 -->
<g id="edge17" class="edge">
<title>Node4&#45;&gt;Node2</title>
<path fill="none" stroke="#191970" d="M228.2335,-239.6313C246.4221,-255.9226 276.2781,-281.1012 305.108,-298.5 307.5763,-299.9896 310.1493,-301.4406 312.7781,-302.8449"/>
<polygon fill="#191970" stroke="#191970" points="311.3557,-306.0475 321.8603,-307.4271 314.5088,-299.7978 311.3557,-306.0475"/>
</g>
<!-- Node4&#45;&gt;Node3 -->
<g id="edge18" class="edge">
<title>Node4&#45;&gt;Node3</title>
<path fill="none" stroke="#191970" d="M260.3325,-239.5444C273.9061,-243.9439 288.7589,-248.758 302.8169,-253.3145"/>
<polygon fill="#191970" stroke="#191970" points="301.8048,-256.6656 312.3968,-256.4195 303.9632,-250.0067 301.8048,-256.6656"/>
</g>
<!-- Node5 -->
<g id="node5" class="node">
<title>Node5</title>
<g id="a_node5"><a xlink:href="class_l_f_s_t_k__scroll_bar_class_a6a4b0d2c9217779bb3bc0b4c936130ce.xhtml#a6a4b0d2c9217779bb3bc0b4c936130ce" target="_top" xlink:title=" ">
<polygon fill="none" stroke="#000000" points="454.9155,-202.5 454.9155,-234.5 571.4695,-234.5 571.4695,-202.5 454.9155,-202.5"/>
<text text-anchor="start" x="462.9155" y="-221.5" font-family="Helvetica,sans-Serif" font-size="10.00" fill="#000000">LFSTK_scrollBarClass</text>
<text text-anchor="middle" x="513.1925" y="-209.5" font-family="Helvetica,sans-Serif" font-size="10.00" fill="#000000">::LFSTK_clearWindow</text>
</a>
</g>
</g>
<!-- Node4&#45;&gt;Node5 -->
<g id="edge4" class="edge">
<title>Node4&#45;&gt;Node5</title>
<path fill="none" stroke="#191970" d="M269.1293,-217.0779C319.2439,-214.635 391.5905,-213.337 444.5045,-213.873"/>
<polygon fill="#191970" stroke="#191970" points="444.7718,-217.3766 454.8158,-214.0048 444.8614,-210.3772 444.7718,-217.3766"/>
</g>
<!-- Node15 -->
<g id="node15" class="node">
<title>Node15</title>
<g id="a_node15"><a xlink:href="class_l_f_s_t_k__gadget_class_a7e3ef253af08c0796f73de1366cf2d08.xhtml#a7e3ef253af08c0796f73de1366cf2d08" target="_top" xlink:title=" ">
<polygon fill="none" stroke="#000000" points="305.108,-148.5 305.108,-180.5 418.911,-180.5 418.911,-148.5 305.108,-148.5"/>
<text text-anchor="start" x="313.108" y="-167.5" font-family="Helvetica,sans-Serif" font-size="10.00" fill="#000000">LFSTK_gadgetClass::</text>
<text text-anchor="middle" x="362.0095" y="-155.5" font-family="Helvetica,sans-Serif" font-size="10.00" fill="#000000">LFSTK_moveGadget</text>
</a>
</g>
</g>
<!-- Node4&#45;&gt;Node15 -->
<g id="edge19" class="edge">
<title>Node4&#45;&gt;Node15</title>
<path fill="none" stroke="#191970" d="M252.1412,-207.378C270.4644,-200.227 292.197,-191.7455 311.4773,-184.2211"/>
<polygon fill="#191970" stroke="#191970" points="312.968,-187.3965 321.0112,-180.5003 310.423,-180.8755 312.968,-187.3965"/>
</g>
<!-- Node5&#45;&gt;Node4 -->
<g id="edge16" class="edge">
<title>Node5&#45;&gt;Node4</title>
<path fill="none" stroke="#191970" d="M454.8158,-224.9259C404.6781,-227.3676 332.33,-228.664 279.4363,-228.1262"/>
<polygon fill="#191970" stroke="#191970" points="279.1734,-224.6226 269.1293,-227.994 279.0836,-231.622 279.1734,-224.6226"/>
</g>
<!-- Node6 -->
<g id="node6" class="node">
<title>Node6</title>
<g id="a_node6"><a xlink:href="class_l_f_s_t_k__gadget_class_a37d96aab3c59cb97fca1720441e3fc8e.xhtml#a37d96aab3c59cb97fca1720441e3fc8e" target="_top" xlink:title=" ">
<polygon fill="none" stroke="#000000" points="907.08,-211.5 907.08,-243.5 1020.883,-243.5 1020.883,-211.5 907.08,-211.5"/>
<text text-anchor="start" x="915.08" y="-230.5" font-family="Helvetica,sans-Serif" font-size="10.00" fill="#000000">LFSTK_gadgetClass::</text>
<text text-anchor="middle" x="963.9815" y="-218.5" font-family="Helvetica,sans-Serif" font-size="10.00" fill="#000000">clearBox</text>
</a>
</g>
</g>
<!-- Node5&#45;&gt;Node6 -->
<g id="edge5" class="edge">
<title>Node5&#45;&gt;Node6</title>
<path fill="none" stroke="#191970" d="M571.6631,-219.6674C655.3045,-221.3373 808.7167,-224.4001 896.8792,-226.1603"/>
<polygon fill="#191970" stroke="#191970" points="896.9681,-229.6627 907.036,-226.3631 897.1079,-222.6641 896.9681,-229.6627"/>
</g>
<!-- Node7 -->
<g id="node7" class="node">
<title>Node7</title>
<g id="a_node7"><a xlink:href="class_l_f_s_t_k__gadget_class_aa5b5f301fe9b0a4d7679f786da7462ba.xhtml#aa5b5f301fe9b0a4d7679f786da7462ba" target="_top" xlink:title=" ">
<polygon fill="none" stroke="#000000" points="607.474,-148.5 607.474,-180.5 721.277,-180.5 721.277,-148.5 607.474,-148.5"/>
<text text-anchor="start" x="615.474" y="-167.5" font-family="Helvetica,sans-Serif" font-size="10.00" fill="#000000">LFSTK_gadgetClass::</text>
<text text-anchor="middle" x="664.3755" y="-155.5" font-family="Helvetica,sans-Serif" font-size="10.00" fill="#000000">LFSTK_clearWindow</text>
</a>
</g>
</g>
<!-- Node5&#45;&gt;Node7 -->
<g id="edge6" class="edge">
<title>Node5&#45;&gt;Node7</title>
<path fill="none" stroke="#191970" d="M558.1431,-202.4444C574.2958,-196.6749 592.6955,-190.1029 609.5913,-184.068"/>
<polygon fill="#191970" stroke="#191970" points="611.0971,-187.2468 619.3371,-180.587 608.7425,-180.6547 611.0971,-187.2468"/>
</g>
<!-- Node8 -->
<g id="node8" class="node">
<title>Node8</title>
<g id="a_node8"><a xlink:href="class_l_f_s_t_k__gadget_class_a66b92f213e5a7e75da3f707b511342ea.xhtml#a66b92f213e5a7e75da3f707b511342ea" target="_top" xlink:title=" ">
<polygon fill="none" stroke="#000000" points="757.277,-130.5 757.277,-162.5 871.08,-162.5 871.08,-130.5 757.277,-130.5"/>
<text text-anchor="start" x="765.277" y="-149.5" font-family="Helvetica,sans-Serif" font-size="10.00" fill="#000000">LFSTK_gadgetClass::</text>
<text text-anchor="middle" x="814.1785" y="-137.5" font-family="Helvetica,sans-Serif" font-size="10.00" fill="#000000">drawGagetDetails</text>
</a>
</g>
</g>
<!-- Node7&#45;&gt;Node8 -->
<g id="edge7" class="edge">
<title>Node7&#45;&gt;Node8</title>
<path fill="none" stroke="#191970" d="M721.4369,-157.6436C729.8759,-156.6296 738.6356,-155.5771 747.2529,-154.5416"/>
<polygon fill="#191970" stroke="#191970" points="747.7647,-158.0054 757.2757,-153.3373 746.9296,-151.0554 747.7647,-158.0054"/>
</g>
<!-- Node8&#45;&gt;Node6 -->
<g id="edge8" class="edge">
<title>Node8&#45;&gt;Node6</title>
<path fill="none" stroke="#191970" d="M843.7748,-162.503C867.0889,-175.1092 899.7834,-192.7874 925.1907,-206.5254"/>
<polygon fill="#191970" stroke="#191970" points="923.7295,-209.7142 934.1907,-211.3918 927.059,-203.5567 923.7295,-209.7142"/>
</g>
<!-- Node9 -->
<g id="node9" class="node">
<title>Node9</title>
<g id="a_node9"><a xlink:href="class_l_f_s_t_k__gadget_class_ab76db165a19af248b5e94e95492dc879.xhtml#ab76db165a19af248b5e94e95492dc879" target="_top" xlink:title=" ">
<polygon fill="none" stroke="#000000" points="1068.2695,-128.5 1068.2695,-160.5 1182.0725,-160.5 1182.0725,-128.5 1068.2695,-128.5"/>
<text text-anchor="start" x="1076.2695" y="-147.5" font-family="Helvetica,sans-Serif" font-size="10.00" fill="#000000">LFSTK_gadgetClass::</text>
<text text-anchor="middle" x="1125.171" y="-135.5" font-family="Helvetica,sans-Serif" font-size="10.00" fill="#000000">drawBevel</text>
</a>
</g>
</g>
<!-- Node8&#45;&gt;Node9 -->
<g id="edge9" class="edge">
<title>Node8&#45;&gt;Node9</title>
<path fill="none" stroke="#191970" d="M871.4671,-157.94C883.2006,-159.8389 895.5022,-161.5103 907.08,-162.5 957.4753,-166.808 970.4885,-166.8171 1020.883,-162.5 1032.8965,-161.4709 1045.6039,-159.7865 1057.86,-157.8505"/>
<polygon fill="#191970" stroke="#191970" points="1058.7268,-161.2549 1068.0238,-156.1739 1057.5875,-154.3482 1058.7268,-161.2549"/>
</g>
<!-- Node10 -->
<g id="node10" class="node">
<title>Node10</title>
<g id="a_node10"><a xlink:href="class_l_f_s_t_k__gadget_class_af5386ffc4699273f6c53a920fc8b2f1d.xhtml#af5386ffc4699273f6c53a920fc8b2f1d" target="_top" xlink:title=" ">
<polygon fill="none" stroke="#000000" points="907.08,-121.5 907.08,-153.5 1020.883,-153.5 1020.883,-121.5 907.08,-121.5"/>
<text text-anchor="start" x="915.08" y="-140.5" font-family="Helvetica,sans-Serif" font-size="10.00" fill="#000000">LFSTK_gadgetClass::</text>
<text text-anchor="middle" x="963.9815" y="-128.5" font-family="Helvetica,sans-Serif" font-size="10.00" fill="#000000">drawImage</text>
</a>
</g>
</g>
<!-- Node8&#45;&gt;Node10 -->
<g id="edge10" class="edge">
<title>Node8&#45;&gt;Node10</title>
<path fill="none" stroke="#191970" d="M871.2399,-143.0718C879.6789,-142.5648 888.4386,-142.0385 897.0559,-141.5208"/>
<polygon fill="#191970" stroke="#191970" points="897.3066,-145.0122 907.0787,-140.9187 896.8868,-138.0248 897.3066,-145.0122"/>
</g>
<!-- Node11 -->
<g id="node11" class="node">
<title>Node11</title>
<g id="a_node11"><a xlink:href="class_l_f_s_t_k__gadget_class_af77235e4dc604470c9d62f101238225b.xhtml#af77235e4dc604470c9d62f101238225b" target="_top" xlink:title=" ">
<polygon fill="none" stroke="#000000" points="907.08,-70.5 907.08,-102.5 1020.883,-102.5 1020.883,-70.5 907.08,-70.5"/>
<text text-anchor="start" x="915.08" y="-89.5" font-family="Helvetica,sans-Serif" font-size="10.00" fill="#000000">LFSTK_gadgetClass::</text>
<text text-anchor="middle" x="963.9815" y="-77.5" font-family="Helvetica,sans-Serif" font-size="10.00" fill="#000000">drawIndicator</text>
</a>
</g>
</g>
<!-- Node8&#45;&gt;Node11 -->
<g id="edge11" class="edge">
<title>Node8&#45;&gt;Node11</title>
<path fill="none" stroke="#191970" d="M854.323,-130.4211C872.8683,-122.9932 895.0664,-114.1023 914.6245,-106.2687"/>
<polygon fill="#191970" stroke="#191970" points="916.0045,-109.4864 923.9862,-102.5192 913.4017,-102.9883 916.0045,-109.4864"/>
</g>
<!-- Node12 -->
<g id="node12" class="node">
<title>Node12</title>
<g id="a_node12"><a xlink:href="class_l_f_s_t_k__gadget_class_a7f44f781b167d66c5d6f4cc862a7e2db.xhtml#a7f44f781b167d66c5d6f4cc862a7e2db" target="_top" xlink:title=" ">
<polygon fill="none" stroke="#000000" points="907.08,-19.5 907.08,-51.5 1020.883,-51.5 1020.883,-19.5 907.08,-19.5"/>
<text text-anchor="start" x="915.08" y="-38.5" font-family="Helvetica,sans-Serif" font-size="10.00" fill="#000000">LFSTK_gadgetClass::</text>
<text text-anchor="middle" x="963.9815" y="-26.5" font-family="Helvetica,sans-Serif" font-size="10.00" fill="#000000">drawLabel</text>
</a>
</g>
</g>
<!-- Node8&#45;&gt;Node12 -->
<g id="edge13" class="edge">
<title>Node8&#45;&gt;Node12</title>
<path fill="none" stroke="#191970" d="M828.6185,-130.1778C845.8425,-111.4574 876.2026,-80.7477 907.08,-60.5 909.2512,-59.0762 911.517,-57.6993 913.8403,-56.3729"/>
<polygon fill="#191970" stroke="#191970" points="915.8109,-59.2897 923.009,-51.5155 912.5339,-53.1042 915.8109,-59.2897"/>
</g>
<!-- Node11&#45;&gt;Node9 -->
<g id="edge12" class="edge">
<title>Node11&#45;&gt;Node9</title>
<path fill="none" stroke="#191970" d="M1008.4539,-102.5023C1027.8413,-109.4784 1050.7449,-117.7196 1071.1058,-125.046"/>
<polygon fill="#191970" stroke="#191970" points="1069.9697,-128.3568 1080.5642,-128.4493 1072.3398,-121.7703 1069.9697,-128.3568"/>
</g>
<!-- Node13 -->
<g id="node13" class="node">
<title>Node13</title>
<g id="a_node13"><a xlink:href="class_l_f_s_t_k__lib_ab2f14a3414f7db863682d1e2fa0cfb75.xhtml#ab2f14a3414f7db863682d1e2fa0cfb75" target="_top" xlink:title=" ">
<polygon fill="none" stroke="#000000" points="1056.883,-51.5 1056.883,-71.5 1193.459,-71.5 1193.459,-51.5 1056.883,-51.5"/>
<text text-anchor="middle" x="1125.171" y="-58.5" font-family="Helvetica,sans-Serif" font-size="10.00" fill="#000000">LFSTK_lib::bestFontColour</text>
</a>
</g>
</g>
<!-- Node12&#45;&gt;Node13 -->
<g id="edge14" class="edge">
<title>Node12&#45;&gt;Node13</title>
<path fill="none" stroke="#191970" d="M1021.2647,-44.7398C1031.5508,-46.399 1042.3912,-48.1475 1053.0327,-49.864"/>
<polygon fill="#191970" stroke="#191970" points="1052.7201,-53.3588 1063.1499,-51.4959 1053.8349,-46.4481 1052.7201,-53.3588"/>
</g>
<!-- Node14 -->
<g id="node14" class="node">
<title>Node14</title>
<g id="a_node14"><a xlink:href="class_l_f_s_t_k__gadget_class_a091281ba03eaeb31bc7507c74b9b4f2f.xhtml#a091281ba03eaeb31bc7507c74b9b4f2f" target="_top" xlink:title=" ">
<polygon fill="none" stroke="#000000" points="1067.715,-.5 1067.715,-32.5 1182.627,-32.5 1182.627,-.5 1067.715,-.5"/>
<text text-anchor="start" x="1075.715" y="-19.5" font-family="Helvetica,sans-Serif" font-size="10.00" fill="#000000">LFSTK_gadgetClass::</text>
<text text-anchor="middle" x="1125.171" y="-7.5" font-family="Helvetica,sans-Serif" font-size="10.00" fill="#000000">LFSTK_getTextHeight</text>
</a>
</g>
</g>
<!-- Node12&#45;&gt;Node14 -->
<g id="edge15" class="edge">
<title>Node12&#45;&gt;Node14</title>
<path fill="none" stroke="#191970" d="M1021.2647,-28.7478C1033.0001,-27.3645 1045.4569,-25.8962 1057.5167,-24.4747"/>
<polygon fill="#191970" stroke="#191970" points="1058.0076,-27.9411 1067.5291,-23.2945 1057.1881,-20.9892 1058.0076,-27.9411"/>
</g>
<!-- Node16 -->
<g id="node16" class="node">
<title>Node16</title>
<g id="a_node16"><a xlink:href="class_l_f_s_t_k__window_class_ac3b5b99b3a018cce7c631df39db76be1.xhtml#ac3b5b99b3a018cce7c631df39db76be1" target="_top" xlink:title=" ">
<polygon fill="none" stroke="#000000" points="454.911,-148.5 454.911,-180.5 571.474,-180.5 571.474,-148.5 454.911,-148.5"/>
<text text-anchor="start" x="462.911" y="-167.5" font-family="Helvetica,sans-Serif" font-size="10.00" fill="#000000">LFSTK_windowClass::</text>
<text text-anchor="middle" x="513.1925" y="-155.5" font-family="Helvetica,sans-Serif" font-size="10.00" fill="#000000">LFSTK_clearWindow</text>
</a>
</g>
</g>
<!-- Node15&#45;&gt;Node16 -->
<g id="edge20" class="edge">
<title>Node15&#45;&gt;Node16</title>
<path fill="none" stroke="#191970" d="M419.1653,-164.5C427.4285,-164.5 436.0046,-164.5 444.4651,-164.5"/>
<polygon fill="#191970" stroke="#191970" points="444.699,-168.0001 454.699,-164.5 444.6989,-161.0001 444.699,-168.0001"/>
</g>
<!-- Node16&#45;&gt;Node7 -->
<g id="edge21" class="edge">
<title>Node16&#45;&gt;Node7</title>
<path fill="none" stroke="#191970" d="M571.6438,-164.5C579.914,-164.5 588.4731,-164.5 596.8964,-164.5"/>
<polygon fill="#191970" stroke="#191970" points="597.0749,-168.0001 607.0749,-164.5 597.0748,-161.0001 597.0749,-168.0001"/>
</g>
</g>
</svg>
