<?xml version="1.0" encoding="UTF-8" standalone="no"?>
<!DOCTYPE svg PUBLIC "-//W3C//DTD SVG 1.1//EN"
 "http://www.w3.org/Graphics/SVG/1.1/DTD/svg11.dtd">
<!-- Generated by graphviz version 2.40.1 (20161225.0304)
 -->
<!-- Title: LFSTK_listGadgetClass::LFSTK_setListFromFile Pages: 1 -->
<!--zoomable 520 -->
<svg id="main" version="1.1" xmlns="http://www.w3.org/2000/svg" xmlns:xlink="http://www.w3.org/1999/xlink" xml:space="preserve" onload="init(evt)">
<style type="text/css"><![CDATA[
.edge:hover path { stroke: red; }
.edge:hover polygon { stroke: red; fill: red; }
]]></style>
<script type="text/javascript"><![CDATA[
var edges = document.getElementsByTagName('g');
if (edges && edges.length) {
  for (var i=0;i<edges.length;i++) {
    if (edges[i].id.substr(0,4)=='edge') {
      edges[i].setAttribute('class','edge');
    }
  }
}
]]></script>
        <defs>
                <circle id="rim" cx="0" cy="0" r="7"/>
                <circle id="rim2" cx="0" cy="0" r="3.5"/>
                <g id="zoomPlus">
                        <use xlink:href="#rim" fill="#404040">
                                <set attributeName="fill" to="#808080" begin="zoomplus.mouseover" end="zoomplus.mouseout"/>
                        </use>
                        <path d="M-4,0h8M0,-4v8" fill="none" stroke="white" stroke-width="1.5" pointer-events="none"/>
                </g>
                <g id="zoomMin">
                        <use xlink:href="#rim" fill="#404040">
                                <set attributeName="fill" to="#808080" begin="zoomminus.mouseover" end="zoomminus.mouseout"/>
                        </use>
                        <path d="M-4,0h8" fill="none" stroke="white" stroke-width="1.5" pointer-events="none"/>
                </g>
                <g id="dirArrow">
                        <path fill="none" stroke="white" stroke-width="1.5" d="M0,-3.0v7 M-2.5,-0.5L0,-3.0L2.5,-0.5"/>
                </g>
               <g id="resetDef">
                       <use xlink:href="#rim2" fill="#404040">
                               <set attributeName="fill" to="#808080" begin="reset.mouseover" end="reset.mouseout"/>
                       </use>
               </g>
        </defs>

<script type="text/javascript">
var viewWidth = 1645;
var viewHeight = 520;
var sectionId = 'dynsection-0';
</script>
<script xlink:href="svgpan.js"/>
<svg id="graph" class="graph">
<g id="viewport">
<title>LFSTK_listGadgetClass::LFSTK_setListFromFile</title>
<!-- Node1 -->
<g id="node1" class="node">
<title>Node1</title>
<g id="a_node1"><a xlink:title=" ">
<polygon fill="#bfbfbf" stroke="#000000" points="0,-296.5 0,-328.5 126.559,-328.5 126.559,-296.5 0,-296.5"/>
<text text-anchor="start" x="8" y="-315.5" font-family="Helvetica,sans-Serif" font-size="10.00" fill="#000000">LFSTK_listGadgetClass</text>
<text text-anchor="middle" x="63.2795" y="-303.5" font-family="Helvetica,sans-Serif" font-size="10.00" fill="#000000">::LFSTK_setListFromFile</text>
</a>
</g>
</g>
<!-- Node2 -->
<g id="node2" class="node">
<title>Node2</title>
<g id="a_node2"><a xlink:href="class_l_f_s_t_k__list_gadget_class_a838a897106a03a54a986628162cff143.xhtml#a838a897106a03a54a986628162cff143" target="_top" xlink:title=" ">
<polygon fill="none" stroke="#000000" points="173.1205,-370.5 173.1205,-402.5 295.8025,-402.5 295.8025,-370.5 173.1205,-370.5"/>
<text text-anchor="start" x="181.1205" y="-389.5" font-family="Helvetica,sans-Serif" font-size="10.00" fill="#000000">LFSTK_listGadgetClass</text>
<text text-anchor="middle" x="234.4615" y="-377.5" font-family="Helvetica,sans-Serif" font-size="10.00" fill="#000000">::freeList</text>
</a>
</g>
</g>
<!-- Node1&#45;&gt;Node2 -->
<g id="edge1" class="edge">
<title>Node1&#45;&gt;Node2</title>
<path fill="none" stroke="#191970" d="M93.2447,-328.5007C112.7139,-338.593 138.8015,-351.552 162.559,-361.5 166.9019,-363.3185 171.4285,-365.115 176.0035,-366.8604"/>
<polygon fill="#191970" stroke="#191970" points="174.8264,-370.1568 185.4193,-370.3621 177.2665,-363.5958 174.8264,-370.1568"/>
</g>
<!-- Node3 -->
<g id="node3" class="node">
<title>Node3</title>
<g id="a_node3"><a xlink:href="class_l_f_s_t_k__list_gadget_class_a08f5b13a801b6431e25e4bd517479628.xhtml#a08f5b13a801b6431e25e4bd517479628" target="_top" xlink:title=" ">
<polygon fill="none" stroke="#000000" points="173.1205,-319.5 173.1205,-351.5 295.8025,-351.5 295.8025,-319.5 173.1205,-319.5"/>
<text text-anchor="start" x="181.1205" y="-338.5" font-family="Helvetica,sans-Serif" font-size="10.00" fill="#000000">LFSTK_listGadgetClass</text>
<text text-anchor="middle" x="234.4615" y="-326.5" font-family="Helvetica,sans-Serif" font-size="10.00" fill="#000000">::LFSTK_appendToList</text>
</a>
</g>
</g>
<!-- Node1&#45;&gt;Node3 -->
<g id="edge2" class="edge">
<title>Node1&#45;&gt;Node3</title>
<path fill="none" stroke="#191970" d="M127.0214,-321.0644C138.755,-322.6409 151.0758,-324.2963 163.0186,-325.9009"/>
<polygon fill="#191970" stroke="#191970" points="162.5634,-329.3712 172.9405,-327.234 163.4956,-322.4335 162.5634,-329.3712"/>
</g>
<!-- Node4 -->
<g id="node4" class="node">
<title>Node4</title>
<g id="a_node4"><a xlink:href="class_l_f_s_t_k__lib_ac5fce97c4bbf2a3c4e500bdc22c994a9.xhtml#ac5fce97c4bbf2a3c4e500bdc22c994a9" target="_top" xlink:title=" ">
<polygon fill="none" stroke="#000000" points="162.559,-280.5 162.559,-300.5 306.364,-300.5 306.364,-280.5 162.559,-280.5"/>
<text text-anchor="middle" x="234.4615" y="-287.5" font-family="Helvetica,sans-Serif" font-size="10.00" fill="#000000">LFSTK_lib::LFSTK_oneLiner</text>
</a>
</g>
</g>
<!-- Node1&#45;&gt;Node4 -->
<g id="edge3" class="edge">
<title>Node1&#45;&gt;Node4</title>
<path fill="none" stroke="#191970" d="M127.0214,-304.308C135.2884,-303.2455 143.8469,-302.1456 152.3593,-301.0516"/>
<polygon fill="#191970" stroke="#191970" points="152.8384,-304.5189 162.3107,-299.7727 151.9461,-297.576 152.8384,-304.5189"/>
</g>
<!-- Node5 -->
<g id="node5" class="node">
<title>Node5</title>
<g id="a_node5"><a xlink:href="class_l_f_s_t_k__list_gadget_class_a7b9a3f3a749e622fdd46da8f72da2002.xhtml#a7b9a3f3a749e622fdd46da8f72da2002" target="_top" xlink:title=" ">
<polygon fill="none" stroke="#000000" points="173.1205,-229.5 173.1205,-261.5 295.8025,-261.5 295.8025,-229.5 173.1205,-229.5"/>
<text text-anchor="start" x="181.1205" y="-248.5" font-family="Helvetica,sans-Serif" font-size="10.00" fill="#000000">LFSTK_listGadgetClass</text>
<text text-anchor="middle" x="234.4615" y="-236.5" font-family="Helvetica,sans-Serif" font-size="10.00" fill="#000000">::LFSTK_updateList</text>
</a>
</g>
</g>
<!-- Node1&#45;&gt;Node5 -->
<g id="edge4" class="edge">
<title>Node1&#45;&gt;Node5</title>
<path fill="none" stroke="#191970" d="M101.3065,-296.3295C119.726,-288.6165 142.2119,-279.3757 162.559,-271.5 168.031,-269.382 173.757,-267.2202 179.4862,-265.093"/>
<polygon fill="#191970" stroke="#191970" points="180.9112,-268.2981 189.0867,-261.5594 178.4933,-261.7289 180.9112,-268.2981"/>
</g>
<!-- Node6 -->
<g id="node6" class="node">
<title>Node6</title>
<g id="a_node6"><a xlink:href="class_l_f_s_t_k__gadget_class_aa5b5f301fe9b0a4d7679f786da7462ba.xhtml#aa5b5f301fe9b0a4d7679f786da7462ba" target="_top" xlink:title=" ">
<polygon fill="none" stroke="#000000" points="1050.997,-368.5 1050.997,-400.5 1164.8,-400.5 1164.8,-368.5 1050.997,-368.5"/>
<text text-anchor="start" x="1058.997" y="-387.5" font-family="Helvetica,sans-Serif" font-size="10.00" fill="#000000">LFSTK_gadgetClass::</text>
<text text-anchor="middle" x="1107.8985" y="-375.5" font-family="Helvetica,sans-Serif" font-size="10.00" fill="#000000">LFSTK_clearWindow</text>
</a>
</g>
</g>
<!-- Node5&#45;&gt;Node6 -->
<g id="edge5" class="edge">
<title>Node5&#45;&gt;Node6</title>
<path fill="none" stroke="#191970" d="M294.8617,-261.6876C299.1275,-264.4576 303.0453,-267.7014 306.364,-271.5 356.3191,-328.6789 288.923,-384.5649 342.364,-438.5 423.5176,-520.404 480.1501,-495.5 595.4505,-495.5 595.4505,-495.5 595.4505,-495.5 779.697,-495.5 890.7477,-495.5 1012.3221,-437.7682 1071.483,-405.5751"/>
<polygon fill="#191970" stroke="#191970" points="1073.3645,-408.5345 1080.4309,-400.6404 1069.984,-402.4049 1073.3645,-408.5345"/>
</g>
<!-- Node15 -->
<g id="node15" class="node">
<title>Node15</title>
<g id="a_node15"><a xlink:href="class_l_f_s_t_k__window_class_ac3b5b99b3a018cce7c631df39db76be1.xhtml#ac3b5b99b3a018cce7c631df39db76be1" target="_top" xlink:title=" ">
<polygon fill="none" stroke="#000000" points="898.434,-368.5 898.434,-400.5 1014.997,-400.5 1014.997,-368.5 898.434,-368.5"/>
<text text-anchor="start" x="906.434" y="-387.5" font-family="Helvetica,sans-Serif" font-size="10.00" fill="#000000">LFSTK_windowClass::</text>
<text text-anchor="middle" x="956.7155" y="-375.5" font-family="Helvetica,sans-Serif" font-size="10.00" fill="#000000">LFSTK_clearWindow</text>
</a>
</g>
</g>
<!-- Node5&#45;&gt;Node15 -->
<g id="edge15" class="edge">
<title>Node5&#45;&gt;Node15</title>
<path fill="none" stroke="#191970" d="M292.2073,-261.5507C297.3226,-264.3604 302.1497,-267.6503 306.364,-271.5 334.2562,-296.9791 311.6811,-326.4609 342.364,-348.5 406.77,-394.762 617.7862,-384.0485 696.96,-388.5 770.388,-392.6284 788.9065,-390.059 862.434,-388.5 870.7926,-388.3228 879.5652,-388.0572 888.2546,-387.7457"/>
<polygon fill="#191970" stroke="#191970" points="888.5272,-391.238 898.3873,-387.3613 888.2618,-384.243 888.5272,-391.238"/>
</g>
<!-- Node16 -->
<g id="node16" class="node">
<title>Node16</title>
<g id="a_node16"><a xlink:href="class_l_f_s_t_k__gadget_class_a00d9d75e1766de5e88ab9fc06a9fb8ae.xhtml#a00d9d75e1766de5e88ab9fc06a9fb8ae" target="_top" xlink:title=" ">
<polygon fill="none" stroke="#000000" points="361.251,-255.5 361.251,-287.5 475.054,-287.5 475.054,-255.5 361.251,-255.5"/>
<text text-anchor="start" x="369.251" y="-274.5" font-family="Helvetica,sans-Serif" font-size="10.00" fill="#000000">LFSTK_gadgetClass::</text>
<text text-anchor="middle" x="418.1525" y="-262.5" font-family="Helvetica,sans-Serif" font-size="10.00" fill="#000000">LFSTK_setActive</text>
</a>
</g>
</g>
<!-- Node5&#45;&gt;Node16 -->
<g id="edge17" class="edge">
<title>Node5&#45;&gt;Node16</title>
<path fill="none" stroke="#191970" d="M295.8833,-254.1938C313.5772,-256.6982 332.9694,-259.443 350.9918,-261.9939"/>
<polygon fill="#191970" stroke="#191970" points="350.7398,-265.4931 361.1316,-263.4292 351.7209,-258.5622 350.7398,-265.4931"/>
</g>
<!-- Node17 -->
<g id="node17" class="node">
<title>Node17</title>
<g id="a_node17"><a xlink:href="class_l_f_s_t_k__gadget_class_a5cef46cb93c76a87220f82242fc1ffc3.xhtml#a5cef46cb93c76a87220f82242fc1ffc3" target="_top" xlink:title=" ">
<polygon fill="none" stroke="#000000" points="349.308,-204.5 349.308,-236.5 486.997,-236.5 486.997,-204.5 349.308,-204.5"/>
<text text-anchor="start" x="357.308" y="-223.5" font-family="Helvetica,sans-Serif" font-size="10.00" fill="#000000">LFSTK_gadgetClass::</text>
<text text-anchor="middle" x="418.1525" y="-211.5" font-family="Helvetica,sans-Serif" font-size="10.00" fill="#000000">LFSTK_setImageFromPath</text>
</a>
</g>
</g>
<!-- Node5&#45;&gt;Node17 -->
<g id="edge18" class="edge">
<title>Node5&#45;&gt;Node17</title>
<path fill="none" stroke="#191970" d="M295.8833,-237.1406C309.781,-235.2492 324.7263,-233.2151 339.2327,-231.2408"/>
<polygon fill="#191970" stroke="#191970" points="339.7506,-234.7027 349.1872,-229.886 338.8066,-227.7666 339.7506,-234.7027"/>
</g>
<!-- Node21 -->
<g id="node21" class="node">
<title>Node21</title>
<g id="a_node21"><a xlink:href="class_l_f_s_t_k__gadget_class_adfe8ab99af9a2a92df3620bf0f7f55cd.xhtml#adfe8ab99af9a2a92df3620bf0f7f55cd" target="_top" xlink:title=" ">
<polygon fill="none" stroke="#000000" points="342.364,-153.5 342.364,-185.5 493.941,-185.5 493.941,-153.5 342.364,-153.5"/>
<text text-anchor="start" x="350.364" y="-172.5" font-family="Helvetica,sans-Serif" font-size="10.00" fill="#000000">LFSTK_gadgetClass::</text>
<text text-anchor="middle" x="418.1525" y="-160.5" font-family="Helvetica,sans-Serif" font-size="10.00" fill="#000000">LFSTK_setImageFromSurface</text>
</a>
</g>
</g>
<!-- Node5&#45;&gt;Node21 -->
<g id="edge22" class="edge">
<title>Node5&#45;&gt;Node21</title>
<path fill="none" stroke="#191970" d="M267.1321,-229.2869C288.3333,-219.0342 316.6939,-205.8186 342.364,-195.5 347.8211,-193.3064 353.543,-191.1282 359.2934,-189.0201"/>
<polygon fill="#191970" stroke="#191970" points="360.7285,-192.2235 368.9559,-185.5481 358.3614,-185.6359 360.7285,-192.2235"/>
</g>
<!-- Node22 -->
<g id="node22" class="node">
<title>Node22</title>
<g id="a_node22"><a xlink:href="class_l_f_s_t_k__gadget_class_a0331bef494c43154a2516cd70ee30e19.xhtml#a0331bef494c43154a2516cd70ee30e19" target="_top" xlink:title=" ">
<polygon fill="none" stroke="#000000" points="361.251,-396.5 361.251,-428.5 475.054,-428.5 475.054,-396.5 361.251,-396.5"/>
<text text-anchor="start" x="369.251" y="-415.5" font-family="Helvetica,sans-Serif" font-size="10.00" fill="#000000">LFSTK_gadgetClass::</text>
<text text-anchor="middle" x="418.1525" y="-403.5" font-family="Helvetica,sans-Serif" font-size="10.00" fill="#000000">LFSTK_setLabel</text>
</a>
</g>
</g>
<!-- Node5&#45;&gt;Node22 -->
<g id="edge24" class="edge">
<title>Node5&#45;&gt;Node22</title>
<path fill="none" stroke="#191970" d="M293.7516,-261.6534C298.3708,-264.4331 302.6676,-267.6884 306.364,-271.5 342.1756,-308.4277 307.3225,-343.8408 342.364,-381.5 345.6989,-385.084 349.508,-388.2648 353.6035,-391.0859"/>
<polygon fill="#191970" stroke="#191970" points="351.9853,-394.1977 362.3518,-396.3855 355.6122,-388.2106 351.9853,-394.1977"/>
</g>
<!-- Node24 -->
<g id="node24" class="node">
<title>Node24</title>
<g id="a_node24"><a xlink:href="class_l_f_s_t_k__gadget_class_ae0cc7f340a2b8f6103d41ecb3e6aab2e.xhtml#ae0cc7f340a2b8f6103d41ecb3e6aab2e" target="_top" xlink:title=" ">
<polygon fill="none" stroke="#000000" points="357.0865,-102.5 357.0865,-134.5 479.2185,-134.5 479.2185,-102.5 357.0865,-102.5"/>
<text text-anchor="start" x="365.0865" y="-121.5" font-family="Helvetica,sans-Serif" font-size="10.00" fill="#000000">LFSTK_gadgetClass::</text>
<text text-anchor="middle" x="418.1525" y="-109.5" font-family="Helvetica,sans-Serif" font-size="10.00" fill="#000000">LFSTK_setLabelGravity</text>
</a>
</g>
</g>
<!-- Node5&#45;&gt;Node24 -->
<g id="edge27" class="edge">
<title>Node5&#45;&gt;Node24</title>
<path fill="none" stroke="#191970" d="M247.4344,-229.4107C266.1856,-207.1397 302.9598,-167.0107 342.364,-143.5 345.1601,-141.8317 348.0814,-140.259 351.0816,-138.7785"/>
<polygon fill="#191970" stroke="#191970" points="352.6106,-141.9282 360.2715,-134.6097 349.7188,-135.5534 352.6106,-141.9282"/>
</g>
<!-- Node25 -->
<g id="node25" class="node">
<title>Node25</title>
<g id="a_node25"><a xlink:href="class_l_f_s_t_k__scroll_bar_class_ab989323af6c3232877e78441d324b1fd.xhtml#ab989323af6c3232877e78441d324b1fd" target="_top" xlink:title=" ">
<polygon fill="none" stroke="#000000" points="359.8755,-51.5 359.8755,-83.5 476.4295,-83.5 476.4295,-51.5 359.8755,-51.5"/>
<text text-anchor="start" x="367.8755" y="-70.5" font-family="Helvetica,sans-Serif" font-size="10.00" fill="#000000">LFSTK_scrollBarClass</text>
<text text-anchor="middle" x="418.1525" y="-58.5" font-family="Helvetica,sans-Serif" font-size="10.00" fill="#000000">::LFSTK_setScale</text>
</a>
</g>
</g>
<!-- Node5&#45;&gt;Node25 -->
<g id="edge28" class="edge">
<title>Node5&#45;&gt;Node25</title>
<path fill="none" stroke="#191970" d="M241.6912,-229.0472C256.2251,-197.8407 291.9567,-129.8422 342.364,-92.5 344.9803,-90.5619 347.7548,-88.7689 350.6366,-87.1107"/>
<polygon fill="#191970" stroke="#191970" points="352.2568,-90.2133 359.5524,-82.5306 349.0581,-83.9868 352.2568,-90.2133"/>
</g>
<!-- Node26 -->
<g id="node26" class="node">
<title>Node26</title>
<g id="a_node26"><a xlink:href="class_l_f_s_t_k__scroll_bar_class_a955c2789a3ce6d849a3d00a3bf4911e7.xhtml#a955c2789a3ce6d849a3d00a3bf4911e7" target="_top" xlink:title=" ">
<polygon fill="none" stroke="#000000" points="359.8755,-306.5 359.8755,-338.5 476.4295,-338.5 476.4295,-306.5 359.8755,-306.5"/>
<text text-anchor="start" x="367.8755" y="-325.5" font-family="Helvetica,sans-Serif" font-size="10.00" fill="#000000">LFSTK_scrollBarClass</text>
<text text-anchor="middle" x="418.1525" y="-313.5" font-family="Helvetica,sans-Serif" font-size="10.00" fill="#000000">::LFSTK_setValue</text>
</a>
</g>
</g>
<!-- Node5&#45;&gt;Node26 -->
<g id="edge29" class="edge">
<title>Node5&#45;&gt;Node26</title>
<path fill="none" stroke="#191970" d="M284.7486,-261.6445C292.1441,-264.6002 299.5573,-267.9023 306.364,-271.5 323.8131,-280.7228 324.7859,-288.5254 342.364,-297.5 345.8731,-299.2916 349.5379,-300.9937 353.2803,-302.604"/>
<polygon fill="#191970" stroke="#191970" points="352.1161,-305.9085 362.6987,-306.4165 354.7426,-299.42 352.1161,-305.9085"/>
</g>
<!-- Node32 -->
<g id="node32" class="node">
<title>Node32</title>
<g id="a_node32"><a xlink:href="class_l_f_s_t_k__list_gadget_class_a3021a8227c6bf0b0183e6afba5f6ad5c.xhtml#a3021a8227c6bf0b0183e6afba5f6ad5c" target="_top" xlink:title=" ">
<polygon fill="none" stroke="#000000" points="356.8115,-.5 356.8115,-32.5 479.4935,-32.5 479.4935,-.5 356.8115,-.5"/>
<text text-anchor="start" x="364.8115" y="-19.5" font-family="Helvetica,sans-Serif" font-size="10.00" fill="#000000">LFSTK_listGadgetClass</text>
<text text-anchor="middle" x="418.1525" y="-7.5" font-family="Helvetica,sans-Serif" font-size="10.00" fill="#000000">::setNavSensitive</text>
</a>
</g>
</g>
<!-- Node5&#45;&gt;Node32 -->
<g id="edge39" class="edge">
<title>Node5&#45;&gt;Node32</title>
<path fill="none" stroke="#191970" d="M238.5089,-229.3552C248.9438,-191.0277 280.3856,-93.8573 342.364,-41.5 344.1269,-40.0108 345.9812,-38.6095 347.9076,-37.291"/>
<polygon fill="#191970" stroke="#191970" points="349.9526,-40.1469 356.7556,-32.0247 346.3724,-34.1318 349.9526,-40.1469"/>
</g>
<!-- Node7 -->
<g id="node7" class="node">
<title>Node7</title>
<g id="a_node7"><a xlink:href="class_l_f_s_t_k__gadget_class_a66b92f213e5a7e75da3f707b511342ea.xhtml#a66b92f213e5a7e75da3f707b511342ea" target="_top" xlink:title=" ">
<polygon fill="none" stroke="#000000" points="1200.8,-364.5 1200.8,-396.5 1314.603,-396.5 1314.603,-364.5 1200.8,-364.5"/>
<text text-anchor="start" x="1208.8" y="-383.5" font-family="Helvetica,sans-Serif" font-size="10.00" fill="#000000">LFSTK_gadgetClass::</text>
<text text-anchor="middle" x="1257.7015" y="-371.5" font-family="Helvetica,sans-Serif" font-size="10.00" fill="#000000">drawGagetDetails</text>
</a>
</g>
</g>
<!-- Node6&#45;&gt;Node7 -->
<g id="edge6" class="edge">
<title>Node6&#45;&gt;Node7</title>
<path fill="none" stroke="#191970" d="M1164.9599,-382.9764C1173.3989,-382.751 1182.1586,-382.5171 1190.7759,-382.287"/>
<polygon fill="#191970" stroke="#191970" points="1190.8957,-385.7852 1200.7987,-382.0194 1190.7088,-378.7877 1190.8957,-385.7852"/>
</g>
<!-- Node8 -->
<g id="node8" class="node">
<title>Node8</title>
<g id="a_node8"><a xlink:href="class_l_f_s_t_k__gadget_class_a37d96aab3c59cb97fca1720441e3fc8e.xhtml#a37d96aab3c59cb97fca1720441e3fc8e" target="_top" xlink:title=" ">
<polygon fill="none" stroke="#000000" points="1350.603,-259.5 1350.603,-291.5 1464.406,-291.5 1464.406,-259.5 1350.603,-259.5"/>
<text text-anchor="start" x="1358.603" y="-278.5" font-family="Helvetica,sans-Serif" font-size="10.00" fill="#000000">LFSTK_gadgetClass::</text>
<text text-anchor="middle" x="1407.5045" y="-266.5" font-family="Helvetica,sans-Serif" font-size="10.00" fill="#000000">clearBox</text>
</a>
</g>
</g>
<!-- Node7&#45;&gt;Node8 -->
<g id="edge7" class="edge">
<title>Node7&#45;&gt;Node8</title>
<path fill="none" stroke="#191970" d="M1277.0651,-364.2607C1295.474,-349.1228 1324.1951,-326.2747 1350.603,-308.5 1356.4589,-304.5585 1362.8044,-300.5964 1369.0615,-296.8535"/>
<polygon fill="#191970" stroke="#191970" points="1371.2425,-299.6321 1378.0985,-291.5546 1367.7017,-293.5936 1371.2425,-299.6321"/>
</g>
<!-- Node9 -->
<g id="node9" class="node">
<title>Node9</title>
<g id="a_node9"><a xlink:href="class_l_f_s_t_k__gadget_class_ab76db165a19af248b5e94e95492dc879.xhtml#ab76db165a19af248b5e94e95492dc879" target="_top" xlink:title=" ">
<polygon fill="none" stroke="#000000" points="1511.7925,-386.5 1511.7925,-418.5 1625.5955,-418.5 1625.5955,-386.5 1511.7925,-386.5"/>
<text text-anchor="start" x="1519.7925" y="-405.5" font-family="Helvetica,sans-Serif" font-size="10.00" fill="#000000">LFSTK_gadgetClass::</text>
<text text-anchor="middle" x="1568.694" y="-393.5" font-family="Helvetica,sans-Serif" font-size="10.00" fill="#000000">drawBevel</text>
</a>
</g>
</g>
<!-- Node7&#45;&gt;Node9 -->
<g id="edge8" class="edge">
<title>Node7&#45;&gt;Node9</title>
<path fill="none" stroke="#191970" d="M1314.7423,-384.5351C1367.485,-388.2662 1445.9002,-393.8134 1501.6229,-397.7553"/>
<polygon fill="#191970" stroke="#191970" points="1501.5301,-401.2574 1511.7521,-398.4719 1502.0241,-394.2748 1501.5301,-401.2574"/>
</g>
<!-- Node10 -->
<g id="node10" class="node">
<title>Node10</title>
<g id="a_node10"><a xlink:href="class_l_f_s_t_k__gadget_class_af5386ffc4699273f6c53a920fc8b2f1d.xhtml#af5386ffc4699273f6c53a920fc8b2f1d" target="_top" xlink:title=" ">
<polygon fill="none" stroke="#000000" points="1350.603,-317.5 1350.603,-349.5 1464.406,-349.5 1464.406,-317.5 1350.603,-317.5"/>
<text text-anchor="start" x="1358.603" y="-336.5" font-family="Helvetica,sans-Serif" font-size="10.00" fill="#000000">LFSTK_gadgetClass::</text>
<text text-anchor="middle" x="1407.5045" y="-324.5" font-family="Helvetica,sans-Serif" font-size="10.00" fill="#000000">drawImage</text>
</a>
</g>
</g>
<!-- Node7&#45;&gt;Node10 -->
<g id="edge9" class="edge">
<title>Node7&#45;&gt;Node10</title>
<path fill="none" stroke="#191970" d="M1308.8362,-364.4567C1320.9416,-360.6587 1333.9709,-356.5708 1346.4668,-352.6503"/>
<polygon fill="#191970" stroke="#191970" points="1347.8524,-355.8839 1356.3461,-349.5507 1345.7569,-349.2049 1347.8524,-355.8839"/>
</g>
<!-- Node11 -->
<g id="node11" class="node">
<title>Node11</title>
<g id="a_node11"><a xlink:href="class_l_f_s_t_k__gadget_class_af77235e4dc604470c9d62f101238225b.xhtml#af77235e4dc604470c9d62f101238225b" target="_top" xlink:title=" ">
<polygon fill="none" stroke="#000000" points="1350.603,-407.5 1350.603,-439.5 1464.406,-439.5 1464.406,-407.5 1350.603,-407.5"/>
<text text-anchor="start" x="1358.603" y="-426.5" font-family="Helvetica,sans-Serif" font-size="10.00" fill="#000000">LFSTK_gadgetClass::</text>
<text text-anchor="middle" x="1407.5045" y="-414.5" font-family="Helvetica,sans-Serif" font-size="10.00" fill="#000000">drawIndicator</text>
</a>
</g>
</g>
<!-- Node7&#45;&gt;Node11 -->
<g id="edge10" class="edge">
<title>Node7&#45;&gt;Node11</title>
<path fill="none" stroke="#191970" d="M1313.4826,-396.5116C1322.7435,-399.1699 1332.4224,-401.9482 1341.8996,-404.6685"/>
<polygon fill="#191970" stroke="#191970" points="1341.0993,-408.0801 1351.6768,-407.475 1343.0306,-401.3518 1341.0993,-408.0801"/>
</g>
<!-- Node12 -->
<g id="node12" class="node">
<title>Node12</title>
<g id="a_node12"><a xlink:href="class_l_f_s_t_k__gadget_class_a7f44f781b167d66c5d6f4cc862a7e2db.xhtml#a7f44f781b167d66c5d6f4cc862a7e2db" target="_top" xlink:title=" ">
<polygon fill="none" stroke="#000000" points="1350.603,-458.5 1350.603,-490.5 1464.406,-490.5 1464.406,-458.5 1350.603,-458.5"/>
<text text-anchor="start" x="1358.603" y="-477.5" font-family="Helvetica,sans-Serif" font-size="10.00" fill="#000000">LFSTK_gadgetClass::</text>
<text text-anchor="middle" x="1407.5045" y="-465.5" font-family="Helvetica,sans-Serif" font-size="10.00" fill="#000000">drawLabel</text>
</a>
</g>
</g>
<!-- Node7&#45;&gt;Node12 -->
<g id="edge12" class="edge">
<title>Node7&#45;&gt;Node12</title>
<path fill="none" stroke="#191970" d="M1276.749,-396.652C1294.9344,-411.5756 1323.5044,-433.7534 1350.603,-449.5 1353.224,-451.023 1355.955,-452.5128 1358.7403,-453.9584"/>
<polygon fill="#191970" stroke="#191970" points="1357.2368,-457.1195 1367.7527,-458.4111 1360.3375,-450.8436 1357.2368,-457.1195"/>
</g>
<!-- Node11&#45;&gt;Node9 -->
<g id="edge11" class="edge">
<title>Node11&#45;&gt;Node9</title>
<path fill="none" stroke="#191970" d="M1464.7877,-416.0371C1476.6645,-414.4897 1489.2801,-412.8462 1501.4755,-411.2573"/>
<polygon fill="#191970" stroke="#191970" points="1502.1312,-414.7016 1511.5952,-409.9389 1501.2268,-407.7602 1502.1312,-414.7016"/>
</g>
<!-- Node13 -->
<g id="node13" class="node">
<title>Node13</title>
<g id="a_node13"><a xlink:href="class_l_f_s_t_k__lib_ab2f14a3414f7db863682d1e2fa0cfb75.xhtml#ab2f14a3414f7db863682d1e2fa0cfb75" target="_top" xlink:title=" ">
<polygon fill="none" stroke="#000000" points="1500.406,-440.5 1500.406,-460.5 1636.982,-460.5 1636.982,-440.5 1500.406,-440.5"/>
<text text-anchor="middle" x="1568.694" y="-447.5" font-family="Helvetica,sans-Serif" font-size="10.00" fill="#000000">LFSTK_lib::bestFontColour</text>
</a>
</g>
</g>
<!-- Node12&#45;&gt;Node13 -->
<g id="edge13" class="edge">
<title>Node12&#45;&gt;Node13</title>
<path fill="none" stroke="#191970" d="M1464.7877,-465.9709C1473.4005,-464.6885 1482.4018,-463.3483 1491.3497,-462.016"/>
<polygon fill="#191970" stroke="#191970" points="1492.0303,-465.4534 1501.4058,-460.5188 1490.9993,-458.5297 1492.0303,-465.4534"/>
</g>
<!-- Node14 -->
<g id="node14" class="node">
<title>Node14</title>
<g id="a_node14"><a xlink:href="class_l_f_s_t_k__gadget_class_a091281ba03eaeb31bc7507c74b9b4f2f.xhtml#a091281ba03eaeb31bc7507c74b9b4f2f" target="_top" xlink:title=" ">
<polygon fill="none" stroke="#000000" points="1511.238,-479.5 1511.238,-511.5 1626.15,-511.5 1626.15,-479.5 1511.238,-479.5"/>
<text text-anchor="start" x="1519.238" y="-498.5" font-family="Helvetica,sans-Serif" font-size="10.00" fill="#000000">LFSTK_gadgetClass::</text>
<text text-anchor="middle" x="1568.694" y="-486.5" font-family="Helvetica,sans-Serif" font-size="10.00" fill="#000000">LFSTK_getTextHeight</text>
</a>
</g>
</g>
<!-- Node12&#45;&gt;Node14 -->
<g id="edge14" class="edge">
<title>Node12&#45;&gt;Node14</title>
<path fill="none" stroke="#191970" d="M1464.7877,-481.9629C1476.5231,-483.4918 1488.9799,-485.1147 1501.0397,-486.6859"/>
<polygon fill="#191970" stroke="#191970" points="1500.6837,-490.169 1511.0521,-487.9903 1501.5881,-483.2277 1500.6837,-490.169"/>
</g>
<!-- Node15&#45;&gt;Node6 -->
<g id="edge16" class="edge">
<title>Node15&#45;&gt;Node6</title>
<path fill="none" stroke="#191970" d="M1015.1668,-384.5C1023.437,-384.5 1031.9961,-384.5 1040.4194,-384.5"/>
<polygon fill="#191970" stroke="#191970" points="1040.5979,-388.0001 1050.5979,-384.5 1040.5978,-381.0001 1040.5979,-388.0001"/>
</g>
<!-- Node18 -->
<g id="node18" class="node">
<title>Node18</title>
<g id="a_node18"><a xlink:href="class_l_f_s_t_k__lib_ad794f7ab3a4ca5a03adbb0472fa93788.xhtml#ad794f7ab3a4ca5a03adbb0472fa93788" target="_top" xlink:title=" ">
<polygon fill="none" stroke="#000000" points="532.166,-201.5 532.166,-245.5 658.735,-245.5 658.735,-201.5 532.166,-201.5"/>
<text text-anchor="start" x="540.166" y="-232.5" font-family="Helvetica,sans-Serif" font-size="10.00" fill="#000000">LFSTK_lib::LFSTK_cairo</text>
<text text-anchor="start" x="540.166" y="-220.5" font-family="Helvetica,sans-Serif" font-size="10.00" fill="#000000">_image_surface_create</text>
<text text-anchor="middle" x="595.4505" y="-208.5" font-family="Helvetica,sans-Serif" font-size="10.00" fill="#000000">_from_jpeg</text>
</a>
</g>
</g>
<!-- Node17&#45;&gt;Node18 -->
<g id="edge19" class="edge">
<title>Node17&#45;&gt;Node18</title>
<path fill="none" stroke="#191970" d="M487.2082,-221.6685C498.6389,-221.8619 510.5272,-222.063 522.0602,-222.2582"/>
<polygon fill="#191970" stroke="#191970" points="522.0255,-225.758 532.0833,-222.4278 522.144,-218.759 522.0255,-225.758"/>
</g>
<!-- Node20 -->
<g id="node20" class="node">
<title>Node20</title>
<g id="a_node20"><a xlink:href="class_l_f_s_t_k__gadget_class_a23bc2dc7b8200df4dc74f1f68460eca2.xhtml#a23bc2dc7b8200df4dc74f1f68460eca2" target="_top" xlink:title=" ">
<polygon fill="none" stroke="#000000" points="538.549,-150.5 538.549,-182.5 652.352,-182.5 652.352,-150.5 538.549,-150.5"/>
<text text-anchor="start" x="546.549" y="-169.5" font-family="Helvetica,sans-Serif" font-size="10.00" fill="#000000">LFSTK_gadgetClass::</text>
<text text-anchor="middle" x="595.4505" y="-157.5" font-family="Helvetica,sans-Serif" font-size="10.00" fill="#000000">LFSTK_getTextWidth</text>
</a>
</g>
</g>
<!-- Node17&#45;&gt;Node20 -->
<g id="edge21" class="edge">
<title>Node17&#45;&gt;Node20</title>
<path fill="none" stroke="#191970" d="M470.8677,-204.4444C490.3418,-198.5132 512.6008,-191.7337 532.8653,-185.5617"/>
<polygon fill="#191970" stroke="#191970" points="534.0859,-188.8488 542.6322,-182.587 532.0463,-182.1525 534.0859,-188.8488"/>
</g>
<!-- Node19 -->
<g id="node19" class="node">
<title>Node19</title>
<g id="a_node19"><a xlink:href="class_l_f_s_t_k__lib_a6beac3954823730f63c32a97949db52a.xhtml#a6beac3954823730f63c32a97949db52a" target="_top" xlink:title=" ">
<polygon fill="none" stroke="#000000" points="696.96,-136.5 696.96,-168.5 862.434,-168.5 862.434,-136.5 696.96,-136.5"/>
<text text-anchor="start" x="704.96" y="-155.5" font-family="Helvetica,sans-Serif" font-size="10.00" fill="#000000">LFSTK_lib::cairo_image</text>
<text text-anchor="middle" x="779.697" y="-143.5" font-family="Helvetica,sans-Serif" font-size="10.00" fill="#000000">_surface_create_from_jpeg_mem</text>
</a>
</g>
</g>
<!-- Node18&#45;&gt;Node19 -->
<g id="edge20" class="edge">
<title>Node18&#45;&gt;Node19</title>
<path fill="none" stroke="#191970" d="M650.9664,-201.4284C665.8823,-195.5517 682.0194,-189.2422 696.96,-183.5 706.6169,-179.7885 716.9282,-175.8809 726.8789,-172.1382"/>
<polygon fill="#191970" stroke="#191970" points="728.1426,-175.4024 736.2755,-168.6122 725.6833,-168.8486 728.1426,-175.4024"/>
</g>
<!-- Node21&#45;&gt;Node20 -->
<g id="edge23" class="edge">
<title>Node21&#45;&gt;Node20</title>
<path fill="none" stroke="#191970" d="M494.1144,-168.2147C505.4839,-168.0223 517.1378,-167.8251 528.3069,-167.6361"/>
<polygon fill="#191970" stroke="#191970" points="528.4667,-171.134 538.406,-167.4652 528.3482,-164.135 528.4667,-171.134"/>
</g>
<!-- Node22&#45;&gt;Node6 -->
<g id="edge25" class="edge">
<title>Node22&#45;&gt;Node6</title>
<path fill="none" stroke="#191970" d="M475.1567,-428.4033C492.5942,-432.5498 511.9268,-436.4327 529.941,-438.5 666.0494,-454.1197 1012.6633,-410.9148 1014.997,-410.5 1025.6021,-408.615 1036.742,-406.0362 1047.4786,-403.2312"/>
<polygon fill="#191970" stroke="#191970" points="1048.4576,-406.5923 1057.1985,-400.6049 1046.6317,-399.8346 1048.4576,-406.5923"/>
</g>
<!-- Node23 -->
<g id="node23" class="node">
<title>Node23</title>
<g id="a_node23"><a xlink:href="class_l_f_s_t_k__gadget_class_a6ba306176db18f16e2a034c875f53de0.xhtml#a6ba306176db18f16e2a034c875f53de0" target="_top" xlink:title=" ">
<polygon fill="none" stroke="#000000" points="529.941,-396.5 529.941,-428.5 660.96,-428.5 660.96,-396.5 529.941,-396.5"/>
<text text-anchor="start" x="537.941" y="-415.5" font-family="Helvetica,sans-Serif" font-size="10.00" fill="#000000">LFSTK_gadgetClass::</text>
<text text-anchor="middle" x="595.4505" y="-403.5" font-family="Helvetica,sans-Serif" font-size="10.00" fill="#000000">LFSTK_setCairoFontData</text>
</a>
</g>
</g>
<!-- Node22&#45;&gt;Node23 -->
<g id="edge26" class="edge">
<title>Node22&#45;&gt;Node23</title>
<path fill="none" stroke="#191970" d="M475.2266,-412.5C489.3735,-412.5 504.7545,-412.5 519.6419,-412.5"/>
<polygon fill="#191970" stroke="#191970" points="519.8485,-416.0001 529.8485,-412.5 519.8484,-409.0001 519.8485,-416.0001"/>
</g>
<!-- Node27 -->
<g id="node27" class="node">
<title>Node27</title>
<g id="a_node27"><a xlink:href="class_l_f_s_t_k__scroll_bar_class_a3e47c5f9944ddb2a861b80853f85ce12.xhtml#a3e47c5f9944ddb2a861b80853f85ce12" target="_top" xlink:title=" ">
<polygon fill="none" stroke="#000000" points="537.1735,-286.5 537.1735,-318.5 653.7275,-318.5 653.7275,-286.5 537.1735,-286.5"/>
<text text-anchor="start" x="545.1735" y="-305.5" font-family="Helvetica,sans-Serif" font-size="10.00" fill="#000000">LFSTK_scrollBarClass</text>
<text text-anchor="middle" x="595.4505" y="-293.5" font-family="Helvetica,sans-Serif" font-size="10.00" fill="#000000">::setState</text>
</a>
</g>
</g>
<!-- Node26&#45;&gt;Node27 -->
<g id="edge30" class="edge">
<title>Node26&#45;&gt;Node27</title>
<path fill="none" stroke="#191970" d="M476.6979,-315.8958C492.7354,-314.0867 510.2646,-312.1093 526.8123,-310.2427"/>
<polygon fill="#191970" stroke="#191970" points="527.422,-313.6962 536.9666,-309.0972 526.6373,-306.7403 527.422,-313.6962"/>
</g>
<!-- Node28 -->
<g id="node28" class="node">
<title>Node28</title>
<g id="a_node28"><a xlink:href="class_l_f_s_t_k__scroll_bar_class_a6a4b0d2c9217779bb3bc0b4c936130ce.xhtml#a6a4b0d2c9217779bb3bc0b4c936130ce" target="_top" xlink:title=" ">
<polygon fill="none" stroke="#000000" points="898.4385,-214.5 898.4385,-246.5 1014.9925,-246.5 1014.9925,-214.5 898.4385,-214.5"/>
<text text-anchor="start" x="906.4385" y="-233.5" font-family="Helvetica,sans-Serif" font-size="10.00" fill="#000000">LFSTK_scrollBarClass</text>
<text text-anchor="middle" x="956.7155" y="-221.5" font-family="Helvetica,sans-Serif" font-size="10.00" fill="#000000">::LFSTK_clearWindow</text>
</a>
</g>
</g>
<!-- Node27&#45;&gt;Node28 -->
<g id="edge31" class="edge">
<title>Node27&#45;&gt;Node28</title>
<path fill="none" stroke="#191970" d="M610.7124,-286.3645C636.6442,-264.5689 687.4323,-229.4611 696.96,-226.5 759.5791,-207.0389 834.8479,-208.0689 888.2044,-214.2411"/>
<polygon fill="#191970" stroke="#191970" points="887.8817,-217.7279 898.2384,-215.4944 888.7494,-210.7818 887.8817,-217.7279"/>
</g>
<!-- Node29 -->
<g id="node29" class="node">
<title>Node29</title>
<g id="a_node29"><a xlink:href="class_l_f_s_t_k__gadget_class_a71d34233c5db545e92d37c0e3139459b.xhtml#a71d34233c5db545e92d37c0e3139459b" target="_top" xlink:title=" ">
<polygon fill="none" stroke="#000000" points="722.7955,-295.5 722.7955,-327.5 836.5985,-327.5 836.5985,-295.5 722.7955,-295.5"/>
<text text-anchor="start" x="730.7955" y="-314.5" font-family="Helvetica,sans-Serif" font-size="10.00" fill="#000000">LFSTK_gadgetClass::</text>
<text text-anchor="middle" x="779.697" y="-302.5" font-family="Helvetica,sans-Serif" font-size="10.00" fill="#000000">LFSTK_getGeom</text>
</a>
</g>
</g>
<!-- Node27&#45;&gt;Node29 -->
<g id="edge35" class="edge">
<title>Node27&#45;&gt;Node29</title>
<path fill="none" stroke="#191970" d="M653.7472,-305.3477C672.4247,-306.26 693.2563,-307.2776 712.5152,-308.2183"/>
<polygon fill="#191970" stroke="#191970" points="712.5661,-311.7249 722.725,-308.7171 712.9077,-304.7332 712.5661,-311.7249"/>
</g>
<!-- Node30 -->
<g id="node30" class="node">
<title>Node30</title>
<g id="a_node30"><a xlink:href="class_l_f_s_t_k__gadget_class_aeeb028f96b71fa161ec195880106a936.xhtml#aeeb028f96b71fa161ec195880106a936" target="_top" xlink:title=" ">
<polygon fill="none" stroke="#000000" points="722.7955,-244.5 722.7955,-276.5 836.5985,-276.5 836.5985,-244.5 722.7955,-244.5"/>
<text text-anchor="start" x="730.7955" y="-263.5" font-family="Helvetica,sans-Serif" font-size="10.00" fill="#000000">LFSTK_gadgetClass::</text>
<text text-anchor="middle" x="779.697" y="-251.5" font-family="Helvetica,sans-Serif" font-size="10.00" fill="#000000">LFSTK_getLimits</text>
</a>
</g>
</g>
<!-- Node27&#45;&gt;Node30 -->
<g id="edge36" class="edge">
<title>Node27&#45;&gt;Node30</title>
<path fill="none" stroke="#191970" d="M653.7472,-289.2109C672.5107,-284.9337 693.4483,-280.1609 712.7813,-275.7538"/>
<polygon fill="#191970" stroke="#191970" points="713.753,-279.1222 722.725,-273.4871 712.1971,-272.2972 713.753,-279.1222"/>
</g>
<!-- Node31 -->
<g id="node31" class="node">
<title>Node31</title>
<g id="a_node31"><a xlink:href="class_l_f_s_t_k__gadget_class_a7e3ef253af08c0796f73de1366cf2d08.xhtml#a7e3ef253af08c0796f73de1366cf2d08" target="_top" xlink:title=" ">
<polygon fill="none" stroke="#000000" points="722.7955,-346.5 722.7955,-378.5 836.5985,-378.5 836.5985,-346.5 722.7955,-346.5"/>
<text text-anchor="start" x="730.7955" y="-365.5" font-family="Helvetica,sans-Serif" font-size="10.00" fill="#000000">LFSTK_gadgetClass::</text>
<text text-anchor="middle" x="779.697" y="-353.5" font-family="Helvetica,sans-Serif" font-size="10.00" fill="#000000">LFSTK_moveGadget</text>
</a>
</g>
</g>
<!-- Node27&#45;&gt;Node31 -->
<g id="edge37" class="edge">
<title>Node27&#45;&gt;Node31</title>
<path fill="none" stroke="#191970" d="M640.8033,-318.5559C658.3016,-324.6406 678.5134,-331.5354 696.96,-337.5 702.9566,-339.439 709.2126,-341.4146 715.4814,-343.3628"/>
<polygon fill="#191970" stroke="#191970" points="714.7202,-346.7906 725.3075,-346.3922 716.7826,-340.1013 714.7202,-346.7906"/>
</g>
<!-- Node28&#45;&gt;Node6 -->
<g id="edge33" class="edge">
<title>Node28&#45;&gt;Node6</title>
<path fill="none" stroke="#191970" d="M972.609,-246.6896C999.3066,-273.8847 1053.2809,-328.8647 1084.3798,-360.5431"/>
<polygon fill="#191970" stroke="#191970" points="1082.2598,-363.3797 1091.7629,-368.0638 1087.255,-358.4758 1082.2598,-363.3797"/>
</g>
<!-- Node28&#45;&gt;Node8 -->
<g id="edge32" class="edge">
<title>Node28&#45;&gt;Node8</title>
<path fill="none" stroke="#191970" d="M1015.1861,-236.3368C1098.8275,-244.6863 1252.2397,-260.0007 1340.4022,-268.8015"/>
<polygon fill="#191970" stroke="#191970" points="1340.2608,-272.3047 1350.559,-269.8154 1340.9562,-265.3393 1340.2608,-272.3047"/>
</g>
<!-- Node28&#45;&gt;Node27 -->
<g id="edge34" class="edge">
<title>Node28&#45;&gt;Node27</title>
<path fill="none" stroke="#191970" d="M898.2384,-229.5184C844.6025,-226.2868 763.6148,-223.7846 696.96,-244.5 690.1282,-246.6232 662.0822,-265.2748 637.1974,-281.0249"/>
<polygon fill="#191970" stroke="#191970" points="635.1754,-278.1617 628.5671,-286.4431 638.8974,-284.0902 635.1754,-278.1617"/>
</g>
<!-- Node31&#45;&gt;Node15 -->
<g id="edge38" class="edge">
<title>Node31&#45;&gt;Node15</title>
<path fill="none" stroke="#191970" d="M836.6812,-369.582C853.0025,-371.6105 870.9689,-373.8434 887.9192,-375.9499"/>
<polygon fill="#191970" stroke="#191970" points="887.9627,-379.4822 898.3181,-377.2423 888.8261,-372.5356 887.9627,-379.4822"/>
</g>
</g>
</svg>
        <g id="navigator" transform="translate(0 0)" fill="#404254">
                <rect fill="#f2f5e9" fill-opacity="0.5" stroke="#606060" stroke-width=".5" x="0" y="0" width="60" height="60"/>
                <use id="zoomplus" xlink:href="#zoomPlus" x="17" y="9" onmousedown="handleZoom(evt,'in')"/>
                <use id="zoomminus" xlink:href="#zoomMin" x="42" y="9" onmousedown="handleZoom(evt,'out')"/>
                <use id="reset" xlink:href="#resetDef" x="30" y="36" onmousedown="handleReset()"/>
                <g id="arrowUp" xlink:href="#dirArrow" transform="translate(30 24)" onmousedown="handlePan(0,-1)">
                  <use xlink:href="#rim" fill="#404040">
                        <set attributeName="fill" to="#808080" begin="arrowUp.mouseover" end="arrowUp.mouseout"/>
                  </use>
                  <path fill="none" stroke="white" stroke-width="1.5" d="M0,-3.0v7 M-2.5,-0.5L0,-3.0L2.5,-0.5"/>
                </g>
                <g id="arrowRight" xlink:href="#dirArrow" transform="rotate(90) translate(36 -43)" onmousedown="handlePan(1,0)">
                  <use xlink:href="#rim" fill="#404040">
                        <set attributeName="fill" to="#808080" begin="arrowRight.mouseover" end="arrowRight.mouseout"/>
                  </use>
                  <path fill="none" stroke="white" stroke-width="1.5" d="M0,-3.0v7 M-2.5,-0.5L0,-3.0L2.5,-0.5"/>
                </g>
                <g id="arrowDown" xlink:href="#dirArrow" transform="rotate(180) translate(-30 -48)" onmousedown="handlePan(0,1)">
                  <use xlink:href="#rim" fill="#404040">
                        <set attributeName="fill" to="#808080" begin="arrowDown.mouseover" end="arrowDown.mouseout"/>
                  </use>
                  <path fill="none" stroke="white" stroke-width="1.5" d="M0,-3.0v7 M-2.5,-0.5L0,-3.0L2.5,-0.5"/>
                </g>
                <g id="arrowLeft" xlink:href="#dirArrow" transform="rotate(270) translate(-36 17)" onmousedown="handlePan(-1,0)">
                  <use xlink:href="#rim" fill="#404040">
                        <set attributeName="fill" to="#808080" begin="arrowLeft.mouseover" end="arrowLeft.mouseout"/>
                  </use>
                  <path fill="none" stroke="white" stroke-width="1.5" d="M0,-3.0v7 M-2.5,-0.5L0,-3.0L2.5,-0.5"/>
                </g>
        </g>
        <svg viewBox="0 0 15 15" width="100%" height="30px" preserveAspectRatio="xMaxYMin meet">
         <g id="arrow_out" transform="scale(0.3 0.3)">
          <a xlink:href="class_l_f_s_t_k__list_gadget_class_addcdb5ba330fd8dd36beb94ea2081dd3_addcdb5ba330fd8dd36beb94ea2081dd3_cgraph_org.svg" target="_base">
           <rect id="button" ry="5" rx="5" y="6" x="6" height="38" width="38"
                fill="#f2f5e9" fill-opacity="0.5" stroke="#606060" stroke-width="1.0"/>
           <path id="arrow"
             d="M 11.500037,31.436501 C 11.940474,20.09759 22.043105,11.32322 32.158766,21.979434 L 37.068811,17.246167 C 37.068811,17.246167 37.088388,32 37.088388,32 L 22.160133,31.978069 C 22.160133,31.978069 26.997745,27.140456 26.997745,27.140456 C 18.528582,18.264221 13.291696,25.230495 11.500037,31.436501 z"
             style="fill:#404040;"/>
          </a>
         </g>
        </svg>
</svg>
