<?xml version="1.0" encoding="UTF-8" standalone="no"?>
<!DOCTYPE svg PUBLIC "-//W3C//DTD SVG 1.1//EN"
 "http://www.w3.org/Graphics/SVG/1.1/DTD/svg11.dtd">
<!-- Generated by graphviz version 2.40.1 (20161225.0304)
 -->
<!-- Title: LFSTK_lineEditClass::setOffsetcurs Pages: 1 -->
<svg width="749pt" height="221pt"
 viewBox="0.00 0.00 749.26 221.18" xmlns="http://www.w3.org/2000/svg" xmlns:xlink="http://www.w3.org/1999/xlink">
<g id="graph0" class="graph" transform="scale(1 1) rotate(0) translate(4 217.1807)">
<title>LFSTK_lineEditClass::setOffsetcurs</title>
<!-- Node1 -->
<g id="node1" class="node">
<title>Node1</title>
<g id="a_node1"><a xlink:title=" ">
<polygon fill="#bfbfbf" stroke="#000000" points="630.81,-125.6807 630.81,-157.6807 741.263,-157.6807 741.263,-125.6807 630.81,-125.6807"/>
<text text-anchor="start" x="638.81" y="-144.6807" font-family="Helvetica,sans-Serif" font-size="10.00" fill="#000000">LFSTK_lineEditClass</text>
<text text-anchor="middle" x="686.0365" y="-132.6807" font-family="Helvetica,sans-Serif" font-size="10.00" fill="#000000">::setOffsetcurs</text>
</a>
</g>
</g>
<!-- Node2 -->
<g id="node2" class="node">
<title>Node2</title>
<g id="a_node2"><a xlink:href="class_l_f_s_t_k__line_edit_class_a499c645100977efb8a63ec1695b41e2b.xhtml#a499c645100977efb8a63ec1695b41e2b" target="_top" xlink:title=" ">
<polygon fill="none" stroke="#000000" points="330.126,-180.6807 330.126,-212.6807 440.579,-212.6807 440.579,-180.6807 330.126,-180.6807"/>
<text text-anchor="start" x="338.126" y="-199.6807" font-family="Helvetica,sans-Serif" font-size="10.00" fill="#000000">LFSTK_lineEditClass</text>
<text text-anchor="middle" x="385.3525" y="-187.6807" font-family="Helvetica,sans-Serif" font-size="10.00" fill="#000000">::keyRelease</text>
</a>
</g>
</g>
<!-- Node1&#45;&gt;Node2 -->
<g id="edge1" class="edge">
<title>Node1&#45;&gt;Node2</title>
<path fill="none" stroke="#191970" d="M620.4274,-153.6817C566.6999,-163.5093 491.5349,-177.2582 440.7835,-186.5415"/>
<polygon fill="#191970" stroke="#191970" points="621.329,-157.0749 630.536,-151.8327 620.0694,-150.1892 621.329,-157.0749"/>
</g>
<!-- Node3 -->
<g id="node3" class="node">
<title>Node3</title>
<g id="a_node3"><a xlink:href="class_l_f_s_t_k__line_edit_class_acc05157418af7626402b30b0129e8899.xhtml#acc05157418af7626402b30b0129e8899" target="_top" xlink:title=" ">
<polygon fill="none" stroke="#000000" points="484.357,-103.6807 484.357,-135.6807 594.81,-135.6807 594.81,-103.6807 484.357,-103.6807"/>
<text text-anchor="start" x="492.357" y="-122.6807" font-family="Helvetica,sans-Serif" font-size="10.00" fill="#000000">LFSTK_lineEditClass</text>
<text text-anchor="middle" x="539.5835" y="-110.6807" font-family="Helvetica,sans-Serif" font-size="10.00" fill="#000000">::LFSTK_setBuffer</text>
</a>
</g>
</g>
<!-- Node1&#45;&gt;Node3 -->
<g id="edge2" class="edge">
<title>Node1&#45;&gt;Node3</title>
<path fill="none" stroke="#191970" d="M620.703,-131.8664C612.132,-130.5789 603.4151,-129.2694 595.0294,-128.0097"/>
<polygon fill="#191970" stroke="#191970" points="620.2599,-135.339 630.6689,-133.3635 621.2998,-128.4167 620.2599,-135.339"/>
</g>
<!-- Node3&#45;&gt;Node2 -->
<g id="edge3" class="edge">
<title>Node3&#45;&gt;Node2</title>
<path fill="none" stroke="#191970" d="M504.8658,-140.9975C488.0906,-150.8999 467.4899,-162.4878 448.357,-171.6807 441.8867,-174.7896 434.9226,-177.8363 428.0675,-180.674"/>
<polygon fill="#191970" stroke="#191970" points="506.9615,-143.8229 513.7581,-135.6955 503.3766,-137.8105 506.9615,-143.8229"/>
</g>
<!-- Node4 -->
<g id="node4" class="node">
<title>Node4</title>
<g id="a_node4"><a xlink:href="class_l_f_s_t_k__line_edit_class_af610951625203a6d75bce118b2b94386.xhtml#af610951625203a6d75bce118b2b94386" target="_top" xlink:title=" ">
<polygon fill="none" stroke="#000000" points="327.347,-129.6807 327.347,-161.6807 443.358,-161.6807 443.358,-129.6807 327.347,-129.6807"/>
<text text-anchor="start" x="335.347" y="-148.6807" font-family="Helvetica,sans-Serif" font-size="10.00" fill="#000000">LFSTK_lineEditClass</text>
<text text-anchor="middle" x="385.3525" y="-136.6807" font-family="Helvetica,sans-Serif" font-size="10.00" fill="#000000">::LFSTK_lineEditClass</text>
</a>
</g>
</g>
<!-- Node3&#45;&gt;Node4 -->
<g id="edge4" class="edge">
<title>Node3&#45;&gt;Node4</title>
<path fill="none" stroke="#191970" d="M474.2715,-130.6909C464.0838,-132.4083 453.6146,-134.1732 443.5979,-135.8618"/>
<polygon fill="#191970" stroke="#191970" points="475.0592,-134.1076 484.3382,-128.9939 473.8955,-127.205 475.0592,-134.1076"/>
</g>
<!-- Node5 -->
<g id="node5" class="node">
<title>Node5</title>
<g id="a_node5"><a xlink:href="class_l_f_s_t_k__file_dialog_class_aa8804989d381def9acb2c99d47d6dc3d.xhtml#aa8804989d381def9acb2c99d47d6dc3d" target="_top" xlink:title=" ">
<polygon fill="none" stroke="#000000" points="324.852,-27.6807 324.852,-59.6807 445.853,-59.6807 445.853,-27.6807 324.852,-27.6807"/>
<text text-anchor="start" x="332.852" y="-46.6807" font-family="Helvetica,sans-Serif" font-size="10.00" fill="#000000">LFSTK_fileDialogClass</text>
<text text-anchor="middle" x="385.3525" y="-34.6807" font-family="Helvetica,sans-Serif" font-size="10.00" fill="#000000">::LFSTK_setWorkingDir</text>
</a>
</g>
</g>
<!-- Node3&#45;&gt;Node5 -->
<g id="edge5" class="edge">
<title>Node3&#45;&gt;Node5</title>
<path fill="none" stroke="#191970" d="M503.2487,-98.569C486.7199,-89.2775 466.7762,-78.496 448.357,-69.6807 441.3124,-66.3092 433.7124,-62.948 426.3117,-59.8159"/>
<polygon fill="#191970" stroke="#191970" points="501.6229,-101.6706 512.0487,-103.5557 505.0741,-95.5804 501.6229,-101.6706"/>
</g>
<!-- Node7 -->
<g id="node7" class="node">
<title>Node7</title>
<g id="a_node7"><a xlink:href="class_l_f_s_t_k__file_dialog_class_a789cade9437906181e31a243c85d52e5.xhtml#a789cade9437906181e31a243c85d52e5" target="_top" xlink:title=" ">
<polygon fill="none" stroke="#000000" points="163.953,-4.6807 163.953,-36.6807 282.734,-36.6807 282.734,-4.6807 163.953,-4.6807"/>
<text text-anchor="start" x="171.953" y="-23.6807" font-family="Helvetica,sans-Serif" font-size="10.00" fill="#000000">LFSTK_fileDialogClass</text>
<text text-anchor="middle" x="223.3435" y="-11.6807" font-family="Helvetica,sans-Serif" font-size="10.00" fill="#000000">::select</text>
</a>
</g>
</g>
<!-- Node3&#45;&gt;Node7 -->
<g id="edge11" class="edge">
<title>Node3&#45;&gt;Node7</title>
<path fill="none" stroke="#191970" d="M525.7531,-94.5946C510.4828,-69.7868 483.3569,-33.3337 448.357,-17.6807 396.1091,5.6861 329.9713,1.3264 282.9517,-6.6783"/>
<polygon fill="#191970" stroke="#191970" points="522.9035,-96.651 531.0168,-103.4645 528.9233,-93.0786 522.9035,-96.651"/>
</g>
<!-- Node9 -->
<g id="node9" class="node">
<title>Node9</title>
<g id="a_node9"><a xlink:href="class_l_f_s_t_k__file_dialog_class_af77972b8a46616ba4c7bec555b2b0a14.xhtml#af77972b8a46616ba4c7bec555b2b0a14" target="_top" xlink:title=" ">
<polygon fill="none" stroke="#000000" points="322.348,-78.6807 322.348,-110.6807 448.357,-110.6807 448.357,-78.6807 322.348,-78.6807"/>
<text text-anchor="start" x="330.348" y="-97.6807" font-family="Helvetica,sans-Serif" font-size="10.00" fill="#000000">LFSTK_fileDialogClass</text>
<text text-anchor="middle" x="385.3525" y="-85.6807" font-family="Helvetica,sans-Serif" font-size="10.00" fill="#000000">::LFSTK_showFileDialog</text>
</a>
</g>
</g>
<!-- Node3&#45;&gt;Node9 -->
<g id="edge9" class="edge">
<title>Node3&#45;&gt;Node9</title>
<path fill="none" stroke="#191970" d="M474.4213,-109.1183C465.8729,-107.7326 457.1235,-106.3144 448.6074,-104.934"/>
<polygon fill="#191970" stroke="#191970" points="473.907,-112.5805 484.3382,-110.7258 475.0271,-105.6707 473.907,-112.5805"/>
</g>
<!-- Node6 -->
<g id="node6" class="node">
<title>Node6</title>
<g id="a_node6"><a xlink:href="class_l_f_s_t_k__file_dialog_class_aacf1d4b61cbb5b40d06f591ea96f9ea7.xhtml#aacf1d4b61cbb5b40d06f591ea96f9ea7" target="_top" xlink:title=" ">
<polygon fill="none" stroke="#000000" points="160.339,-66.6807 160.339,-98.6807 286.348,-98.6807 286.348,-66.6807 160.339,-66.6807"/>
<text text-anchor="start" x="168.339" y="-85.6807" font-family="Helvetica,sans-Serif" font-size="10.00" fill="#000000">LFSTK_fileDialogClass</text>
<text text-anchor="middle" x="223.3435" y="-73.6807" font-family="Helvetica,sans-Serif" font-size="10.00" fill="#000000">::LFSTK_showFileDialog</text>
</a>
</g>
</g>
<!-- Node5&#45;&gt;Node6 -->
<g id="edge6" class="edge">
<title>Node5&#45;&gt;Node6</title>
<path fill="none" stroke="#191970" d="M314.7984,-60.665C305.3376,-62.9425 295.6834,-65.2665 286.3636,-67.5101"/>
<polygon fill="#191970" stroke="#191970" points="315.6623,-64.0571 324.5654,-58.3138 314.024,-57.2515 315.6623,-64.0571"/>
</g>
<!-- Node5&#45;&gt;Node7 -->
<g id="edge7" class="edge">
<title>Node5&#45;&gt;Node7</title>
<path fill="none" stroke="#191970" d="M314.5297,-33.6262C303.9622,-32.1259 293.1598,-30.5924 282.8574,-29.1298"/>
<polygon fill="#191970" stroke="#191970" points="314.1727,-37.1105 324.5654,-35.0509 315.1567,-30.18 314.1727,-37.1105"/>
</g>
<!-- Node8 -->
<g id="node8" class="node">
<title>Node8</title>
<g id="a_node8"><a xlink:href="class_l_f_s_t_k__file_dialog_class_a553ce8e885b0d60cbf515b7b3d1e8b65.xhtml#a553ce8e885b0d60cbf515b7b3d1e8b65" target="_top" xlink:title=" ">
<polygon fill="none" stroke="#000000" points="0,-4.6807 0,-36.6807 124.339,-36.6807 124.339,-4.6807 0,-4.6807"/>
<text text-anchor="start" x="8" y="-23.6807" font-family="Helvetica,sans-Serif" font-size="10.00" fill="#000000">LFSTK_fileDialogClass</text>
<text text-anchor="middle" x="62.1695" y="-11.6807" font-family="Helvetica,sans-Serif" font-size="10.00" fill="#000000">::LFSTK_fileDialogClass</text>
</a>
</g>
</g>
<!-- Node7&#45;&gt;Node8 -->
<g id="edge8" class="edge">
<title>Node7&#45;&gt;Node8</title>
<path fill="none" stroke="#191970" d="M153.7404,-20.6807C144.0012,-20.6807 134.044,-20.6807 124.452,-20.6807"/>
<polygon fill="#191970" stroke="#191970" points="153.7862,-24.1808 163.7862,-20.6807 153.7861,-17.1808 153.7862,-24.1808"/>
</g>
<!-- Node9&#45;&gt;Node6 -->
<g id="edge10" class="edge">
<title>Node9&#45;&gt;Node6</title>
<path fill="none" stroke="#191970" d="M312.2547,-89.2664C303.6721,-88.6307 294.9699,-87.9861 286.5386,-87.3616"/>
<polygon fill="#191970" stroke="#191970" points="312.0204,-92.7585 322.2517,-90.0068 312.5376,-85.7776 312.0204,-92.7585"/>
</g>
</g>
</svg>
