<?xml version="1.0" encoding="UTF-8" standalone="no"?>
<!DOCTYPE svg PUBLIC "-//W3C//DTD SVG 1.1//EN"
 "http://www.w3.org/Graphics/SVG/1.1/DTD/svg11.dtd">
<!-- Generated by graphviz version 2.40.1 (20161225.0304)
 -->
<!-- Title: LFSTK_gadgetClass::drawGagetDetails Pages: 1 -->
<svg width="444pt" height="252pt"
 viewBox="0.00 0.00 444.18 252.00" xmlns="http://www.w3.org/2000/svg" xmlns:xlink="http://www.w3.org/1999/xlink">
<g id="graph0" class="graph" transform="scale(1 1) rotate(0) translate(4 248)">
<title>LFSTK_gadgetClass::drawGagetDetails</title>
<!-- Node1 -->
<g id="node1" class="node">
<title>Node1</title>
<g id="a_node1"><a xlink:title=" ">
<polygon fill="#bfbfbf" stroke="#000000" points="0,-121.5 0,-153.5 113.803,-153.5 113.803,-121.5 0,-121.5"/>
<text text-anchor="start" x="8" y="-140.5" font-family="Helvetica,sans-Serif" font-size="10.00" fill="#000000">LFSTK_gadgetClass::</text>
<text text-anchor="middle" x="56.9015" y="-128.5" font-family="Helvetica,sans-Serif" font-size="10.00" fill="#000000">drawGagetDetails</text>
</a>
</g>
</g>
<!-- Node2 -->
<g id="node2" class="node">
<title>Node2</title>
<g id="a_node2"><a xlink:href="class_l_f_s_t_k__gadget_class_a37d96aab3c59cb97fca1720441e3fc8e.xhtml#a37d96aab3c59cb97fca1720441e3fc8e" target="_top" xlink:title=" ">
<polygon fill="none" stroke="#000000" points="149.803,-211.5 149.803,-243.5 263.606,-243.5 263.606,-211.5 149.803,-211.5"/>
<text text-anchor="start" x="157.803" y="-230.5" font-family="Helvetica,sans-Serif" font-size="10.00" fill="#000000">LFSTK_gadgetClass::</text>
<text text-anchor="middle" x="206.7045" y="-218.5" font-family="Helvetica,sans-Serif" font-size="10.00" fill="#000000">clearBox</text>
</a>
</g>
</g>
<!-- Node1&#45;&gt;Node2 -->
<g id="edge1" class="edge">
<title>Node1&#45;&gt;Node2</title>
<path fill="none" stroke="#191970" d="M81.464,-153.7326C100.0324,-165.8483 126.2614,-182.6328 149.803,-196.5 155.4007,-199.7973 161.3686,-203.1846 167.2547,-206.4533"/>
<polygon fill="#191970" stroke="#191970" points="165.9224,-209.7148 176.3721,-211.4625 169.2931,-203.5797 165.9224,-209.7148"/>
</g>
<!-- Node3 -->
<g id="node3" class="node">
<title>Node3</title>
<g id="a_node3"><a xlink:href="class_l_f_s_t_k__gadget_class_ab76db165a19af248b5e94e95492dc879.xhtml#ab76db165a19af248b5e94e95492dc879" target="_top" xlink:title=" ">
<polygon fill="none" stroke="#000000" points="310.9925,-128.5 310.9925,-160.5 424.7955,-160.5 424.7955,-128.5 310.9925,-128.5"/>
<text text-anchor="start" x="318.9925" y="-147.5" font-family="Helvetica,sans-Serif" font-size="10.00" fill="#000000">LFSTK_gadgetClass::</text>
<text text-anchor="middle" x="367.894" y="-135.5" font-family="Helvetica,sans-Serif" font-size="10.00" fill="#000000">drawBevel</text>
</a>
</g>
</g>
<!-- Node1&#45;&gt;Node3 -->
<g id="edge2" class="edge">
<title>Node1&#45;&gt;Node3</title>
<path fill="none" stroke="#191970" d="M104.5923,-153.5327C118.9538,-157.6275 134.8695,-161.4497 149.803,-163.5 199.912,-170.3797 213.2321,-168.0513 263.606,-163.5 275.6344,-162.4132 288.349,-160.6351 300.6077,-158.5914"/>
<polygon fill="#191970" stroke="#191970" points="301.5212,-161.9851 310.7727,-156.8217 300.3205,-155.0889 301.5212,-161.9851"/>
</g>
<!-- Node4 -->
<g id="node4" class="node">
<title>Node4</title>
<g id="a_node4"><a xlink:href="class_l_f_s_t_k__gadget_class_af5386ffc4699273f6c53a920fc8b2f1d.xhtml#af5386ffc4699273f6c53a920fc8b2f1d" target="_top" xlink:title=" ">
<polygon fill="none" stroke="#000000" points="149.803,-121.5 149.803,-153.5 263.606,-153.5 263.606,-121.5 149.803,-121.5"/>
<text text-anchor="start" x="157.803" y="-140.5" font-family="Helvetica,sans-Serif" font-size="10.00" fill="#000000">LFSTK_gadgetClass::</text>
<text text-anchor="middle" x="206.7045" y="-128.5" font-family="Helvetica,sans-Serif" font-size="10.00" fill="#000000">drawImage</text>
</a>
</g>
</g>
<!-- Node1&#45;&gt;Node4 -->
<g id="edge3" class="edge">
<title>Node1&#45;&gt;Node4</title>
<path fill="none" stroke="#191970" d="M113.9629,-137.5C122.4019,-137.5 131.1616,-137.5 139.7789,-137.5"/>
<polygon fill="#191970" stroke="#191970" points="139.8018,-141.0001 149.8017,-137.5 139.8017,-134.0001 139.8018,-141.0001"/>
</g>
<!-- Node5 -->
<g id="node5" class="node">
<title>Node5</title>
<g id="a_node5"><a xlink:href="class_l_f_s_t_k__gadget_class_af77235e4dc604470c9d62f101238225b.xhtml#af77235e4dc604470c9d62f101238225b" target="_top" xlink:title=" ">
<polygon fill="none" stroke="#000000" points="149.803,-70.5 149.803,-102.5 263.606,-102.5 263.606,-70.5 149.803,-70.5"/>
<text text-anchor="start" x="157.803" y="-89.5" font-family="Helvetica,sans-Serif" font-size="10.00" fill="#000000">LFSTK_gadgetClass::</text>
<text text-anchor="middle" x="206.7045" y="-77.5" font-family="Helvetica,sans-Serif" font-size="10.00" fill="#000000">drawIndicator</text>
</a>
</g>
</g>
<!-- Node1&#45;&gt;Node5 -->
<g id="edge4" class="edge">
<title>Node1&#45;&gt;Node5</title>
<path fill="none" stroke="#191970" d="M104.3001,-121.3633C118.7851,-116.4319 134.8637,-110.958 149.906,-105.8369"/>
<polygon fill="#191970" stroke="#191970" points="151.2758,-109.0679 159.6142,-102.5317 149.0198,-102.4414 151.2758,-109.0679"/>
</g>
<!-- Node6 -->
<g id="node6" class="node">
<title>Node6</title>
<g id="a_node6"><a xlink:href="class_l_f_s_t_k__gadget_class_a7f44f781b167d66c5d6f4cc862a7e2db.xhtml#a7f44f781b167d66c5d6f4cc862a7e2db" target="_top" xlink:title=" ">
<polygon fill="none" stroke="#000000" points="149.803,-19.5 149.803,-51.5 263.606,-51.5 263.606,-19.5 149.803,-19.5"/>
<text text-anchor="start" x="157.803" y="-38.5" font-family="Helvetica,sans-Serif" font-size="10.00" fill="#000000">LFSTK_gadgetClass::</text>
<text text-anchor="middle" x="206.7045" y="-26.5" font-family="Helvetica,sans-Serif" font-size="10.00" fill="#000000">drawLabel</text>
</a>
</g>
</g>
<!-- Node1&#45;&gt;Node6 -->
<g id="edge6" class="edge">
<title>Node1&#45;&gt;Node6</title>
<path fill="none" stroke="#191970" d="M73.271,-121.4985C91.0285,-104.748 120.7467,-78.4356 149.803,-60.5 152.1329,-59.0618 154.5599,-57.6631 157.042,-56.3102"/>
<polygon fill="#191970" stroke="#191970" points="158.8897,-59.2963 166.1952,-51.623 155.699,-53.0658 158.8897,-59.2963"/>
</g>
<!-- Node5&#45;&gt;Node3 -->
<g id="edge5" class="edge">
<title>Node5&#45;&gt;Node3</title>
<path fill="none" stroke="#191970" d="M251.1769,-102.5023C270.5643,-109.4784 293.4679,-117.7196 313.8288,-125.046"/>
<polygon fill="#191970" stroke="#191970" points="312.6927,-128.3568 323.2872,-128.4493 315.0628,-121.7703 312.6927,-128.3568"/>
</g>
<!-- Node7 -->
<g id="node7" class="node">
<title>Node7</title>
<g id="a_node7"><a xlink:href="class_l_f_s_t_k__lib_ab2f14a3414f7db863682d1e2fa0cfb75.xhtml#ab2f14a3414f7db863682d1e2fa0cfb75" target="_top" xlink:title=" ">
<polygon fill="none" stroke="#000000" points="299.606,-51.5 299.606,-71.5 436.182,-71.5 436.182,-51.5 299.606,-51.5"/>
<text text-anchor="middle" x="367.894" y="-58.5" font-family="Helvetica,sans-Serif" font-size="10.00" fill="#000000">LFSTK_lib::bestFontColour</text>
</a>
</g>
</g>
<!-- Node6&#45;&gt;Node7 -->
<g id="edge7" class="edge">
<title>Node6&#45;&gt;Node7</title>
<path fill="none" stroke="#191970" d="M263.9877,-44.7398C274.2738,-46.399 285.1142,-48.1475 295.7557,-49.864"/>
<polygon fill="#191970" stroke="#191970" points="295.4431,-53.3588 305.8729,-51.4959 296.5579,-46.4481 295.4431,-53.3588"/>
</g>
<!-- Node8 -->
<g id="node8" class="node">
<title>Node8</title>
<g id="a_node8"><a xlink:href="class_l_f_s_t_k__gadget_class_a091281ba03eaeb31bc7507c74b9b4f2f.xhtml#a091281ba03eaeb31bc7507c74b9b4f2f" target="_top" xlink:title=" ">
<polygon fill="none" stroke="#000000" points="310.438,-.5 310.438,-32.5 425.35,-32.5 425.35,-.5 310.438,-.5"/>
<text text-anchor="start" x="318.438" y="-19.5" font-family="Helvetica,sans-Serif" font-size="10.00" fill="#000000">LFSTK_gadgetClass::</text>
<text text-anchor="middle" x="367.894" y="-7.5" font-family="Helvetica,sans-Serif" font-size="10.00" fill="#000000">LFSTK_getTextHeight</text>
</a>
</g>
</g>
<!-- Node6&#45;&gt;Node8 -->
<g id="edge8" class="edge">
<title>Node6&#45;&gt;Node8</title>
<path fill="none" stroke="#191970" d="M263.9877,-28.7478C275.7231,-27.3645 288.1799,-25.8962 300.2397,-24.4747"/>
<polygon fill="#191970" stroke="#191970" points="300.7306,-27.9411 310.2521,-23.2945 299.9111,-20.9892 300.7306,-27.9411"/>
</g>
</g>
</svg>
