<?xml version="1.0" encoding="UTF-8" standalone="no"?>
<!DOCTYPE svg PUBLIC "-//W3C//DTD SVG 1.1//EN"
 "http://www.w3.org/Graphics/SVG/1.1/DTD/svg11.dtd">
<!-- Generated by graphviz version 2.40.1 (20161225.0304)
 -->
<!-- Title: LFSTK_scrollBarClass::pageUpDown Pages: 1 -->
<svg width="1201pt" height="252pt"
 viewBox="0.00 0.00 1201.46 252.00" xmlns="http://www.w3.org/2000/svg" xmlns:xlink="http://www.w3.org/1999/xlink">
<g id="graph0" class="graph" transform="scale(1 1) rotate(0) translate(4 248)">
<title>LFSTK_scrollBarClass::pageUpDown</title>
<!-- Node1 -->
<g id="node1" class="node">
<title>Node1</title>
<g id="a_node1"><a xlink:title=" ">
<polygon fill="#bfbfbf" stroke="#000000" points="0,-157.5 0,-189.5 116.554,-189.5 116.554,-157.5 0,-157.5"/>
<text text-anchor="start" x="8" y="-176.5" font-family="Helvetica,sans-Serif" font-size="10.00" fill="#000000">LFSTK_scrollBarClass</text>
<text text-anchor="middle" x="58.277" y="-164.5" font-family="Helvetica,sans-Serif" font-size="10.00" fill="#000000">::pageUpDown</text>
</a>
</g>
</g>
<!-- Node2 -->
<g id="node2" class="node">
<title>Node2</title>
<g id="a_node2"><a xlink:href="class_l_f_s_t_k__scroll_bar_class_a3e47c5f9944ddb2a861b80853f85ce12.xhtml#a3e47c5f9944ddb2a861b80853f85ce12" target="_top" xlink:title=" ">
<polygon fill="none" stroke="#000000" points="152.554,-157.5 152.554,-189.5 269.108,-189.5 269.108,-157.5 152.554,-157.5"/>
<text text-anchor="start" x="160.554" y="-176.5" font-family="Helvetica,sans-Serif" font-size="10.00" fill="#000000">LFSTK_scrollBarClass</text>
<text text-anchor="middle" x="210.831" y="-164.5" font-family="Helvetica,sans-Serif" font-size="10.00" fill="#000000">::setState</text>
</a>
</g>
</g>
<!-- Node1&#45;&gt;Node2 -->
<g id="edge1" class="edge">
<title>Node1&#45;&gt;Node2</title>
<path fill="none" stroke="#191970" d="M116.8221,-173.5C125.1255,-173.5 133.7257,-173.5 142.1988,-173.5"/>
<polygon fill="#191970" stroke="#191970" points="142.4426,-177.0001 152.4426,-173.5 142.4426,-170.0001 142.4426,-177.0001"/>
</g>
<!-- Node3 -->
<g id="node3" class="node">
<title>Node3</title>
<g id="a_node3"><a xlink:href="class_l_f_s_t_k__scroll_bar_class_a6a4b0d2c9217779bb3bc0b4c936130ce.xhtml#a6a4b0d2c9217779bb3bc0b4c936130ce" target="_top" xlink:title=" ">
<polygon fill="none" stroke="#000000" points="454.9155,-211.5 454.9155,-243.5 571.4695,-243.5 571.4695,-211.5 454.9155,-211.5"/>
<text text-anchor="start" x="462.9155" y="-230.5" font-family="Helvetica,sans-Serif" font-size="10.00" fill="#000000">LFSTK_scrollBarClass</text>
<text text-anchor="middle" x="513.1925" y="-218.5" font-family="Helvetica,sans-Serif" font-size="10.00" fill="#000000">::LFSTK_clearWindow</text>
</a>
</g>
</g>
<!-- Node2&#45;&gt;Node3 -->
<g id="edge2" class="edge">
<title>Node2&#45;&gt;Node3</title>
<path fill="none" stroke="#191970" d="M269.1227,-182.0863C280.9618,-185.0576 293.3801,-188.1052 305.108,-190.5 351.2019,-199.9121 403.7076,-206.9507 444.4446,-212.77"/>
<polygon fill="#191970" stroke="#191970" points="444.1399,-216.2621 454.5368,-214.2239 445.138,-209.3336 444.1399,-216.2621"/>
</g>
<!-- Node13 -->
<g id="node13" class="node">
<title>Node13</title>
<g id="a_node13"><a xlink:href="class_l_f_s_t_k__gadget_class_a71d34233c5db545e92d37c0e3139459b.xhtml#a71d34233c5db545e92d37c0e3139459b" target="_top" xlink:title=" ">
<polygon fill="none" stroke="#000000" points="305.108,-157.5 305.108,-189.5 418.911,-189.5 418.911,-157.5 305.108,-157.5"/>
<text text-anchor="start" x="313.108" y="-176.5" font-family="Helvetica,sans-Serif" font-size="10.00" fill="#000000">LFSTK_gadgetClass::</text>
<text text-anchor="middle" x="362.0095" y="-164.5" font-family="Helvetica,sans-Serif" font-size="10.00" fill="#000000">LFSTK_getGeom</text>
</a>
</g>
</g>
<!-- Node2&#45;&gt;Node13 -->
<g id="edge15" class="edge">
<title>Node2&#45;&gt;Node13</title>
<path fill="none" stroke="#191970" d="M269.2806,-173.5C277.5505,-173.5 286.1094,-173.5 294.5324,-173.5"/>
<polygon fill="#191970" stroke="#191970" points="294.7106,-177.0001 304.7106,-173.5 294.7105,-170.0001 294.7106,-177.0001"/>
</g>
<!-- Node14 -->
<g id="node14" class="node">
<title>Node14</title>
<g id="a_node14"><a xlink:href="class_l_f_s_t_k__gadget_class_aeeb028f96b71fa161ec195880106a936.xhtml#aeeb028f96b71fa161ec195880106a936" target="_top" xlink:title=" ">
<polygon fill="none" stroke="#000000" points="305.108,-106.5 305.108,-138.5 418.911,-138.5 418.911,-106.5 305.108,-106.5"/>
<text text-anchor="start" x="313.108" y="-125.5" font-family="Helvetica,sans-Serif" font-size="10.00" fill="#000000">LFSTK_gadgetClass::</text>
<text text-anchor="middle" x="362.0095" y="-113.5" font-family="Helvetica,sans-Serif" font-size="10.00" fill="#000000">LFSTK_getLimits</text>
</a>
</g>
</g>
<!-- Node2&#45;&gt;Node14 -->
<g id="edge16" class="edge">
<title>Node2&#45;&gt;Node14</title>
<path fill="none" stroke="#191970" d="M258.6648,-157.3633C273.2828,-152.4319 289.509,-146.958 304.6895,-141.8369"/>
<polygon fill="#191970" stroke="#191970" points="306.1303,-145.0447 314.4869,-138.5317 303.8927,-138.4119 306.1303,-145.0447"/>
</g>
<!-- Node15 -->
<g id="node15" class="node">
<title>Node15</title>
<g id="a_node15"><a xlink:href="class_l_f_s_t_k__gadget_class_a7e3ef253af08c0796f73de1366cf2d08.xhtml#a7e3ef253af08c0796f73de1366cf2d08" target="_top" xlink:title=" ">
<polygon fill="none" stroke="#000000" points="305.108,-55.5 305.108,-87.5 418.911,-87.5 418.911,-55.5 305.108,-55.5"/>
<text text-anchor="start" x="313.108" y="-74.5" font-family="Helvetica,sans-Serif" font-size="10.00" fill="#000000">LFSTK_gadgetClass::</text>
<text text-anchor="middle" x="362.0095" y="-62.5" font-family="Helvetica,sans-Serif" font-size="10.00" fill="#000000">LFSTK_moveGadget</text>
</a>
</g>
</g>
<!-- Node2&#45;&gt;Node15 -->
<g id="edge17" class="edge">
<title>Node2&#45;&gt;Node15</title>
<path fill="none" stroke="#191970" d="M227.8199,-157.2101C245.9131,-140.4635 275.9111,-114.3774 305.108,-96.5 307.5667,-94.9945 310.132,-93.531 312.7549,-92.117"/>
<polygon fill="#191970" stroke="#191970" points="314.4919,-95.1604 321.8231,-87.5117 311.3222,-88.9192 314.4919,-95.1604"/>
</g>
<!-- Node3&#45;&gt;Node2 -->
<g id="edge14" class="edge">
<title>Node3&#45;&gt;Node2</title>
<path fill="none" stroke="#191970" d="M454.5368,-229.2799C412.653,-226.1266 355.1082,-218.7098 305.108,-208.5 285.9176,-204.5814 264.8785,-198.9149 247.5537,-193.0479"/>
<polygon fill="#191970" stroke="#191970" points="248.419,-189.6407 237.8243,-189.582 246.0699,-196.2348 248.419,-189.6407"/>
</g>
<!-- Node4 -->
<g id="node4" class="node">
<title>Node4</title>
<g id="a_node4"><a xlink:href="class_l_f_s_t_k__gadget_class_a37d96aab3c59cb97fca1720441e3fc8e.xhtml#a37d96aab3c59cb97fca1720441e3fc8e" target="_top" xlink:title=" ">
<polygon fill="none" stroke="#000000" points="907.08,-211.5 907.08,-243.5 1020.883,-243.5 1020.883,-211.5 907.08,-211.5"/>
<text text-anchor="start" x="915.08" y="-230.5" font-family="Helvetica,sans-Serif" font-size="10.00" fill="#000000">LFSTK_gadgetClass::</text>
<text text-anchor="middle" x="963.9815" y="-218.5" font-family="Helvetica,sans-Serif" font-size="10.00" fill="#000000">clearBox</text>
</a>
</g>
</g>
<!-- Node3&#45;&gt;Node4 -->
<g id="edge3" class="edge">
<title>Node3&#45;&gt;Node4</title>
<path fill="none" stroke="#191970" d="M571.6631,-227.5C655.3045,-227.5 808.7167,-227.5 896.8792,-227.5"/>
<polygon fill="#191970" stroke="#191970" points="897.0361,-231.0001 907.036,-227.5 897.036,-224.0001 897.0361,-231.0001"/>
</g>
<!-- Node5 -->
<g id="node5" class="node">
<title>Node5</title>
<g id="a_node5"><a xlink:href="class_l_f_s_t_k__gadget_class_aa5b5f301fe9b0a4d7679f786da7462ba.xhtml#aa5b5f301fe9b0a4d7679f786da7462ba" target="_top" xlink:title=" ">
<polygon fill="none" stroke="#000000" points="607.474,-121.5 607.474,-153.5 721.277,-153.5 721.277,-121.5 607.474,-121.5"/>
<text text-anchor="start" x="615.474" y="-140.5" font-family="Helvetica,sans-Serif" font-size="10.00" fill="#000000">LFSTK_gadgetClass::</text>
<text text-anchor="middle" x="664.3755" y="-128.5" font-family="Helvetica,sans-Serif" font-size="10.00" fill="#000000">LFSTK_clearWindow</text>
</a>
</g>
</g>
<!-- Node3&#45;&gt;Node5 -->
<g id="edge4" class="edge">
<title>Node3&#45;&gt;Node5</title>
<path fill="none" stroke="#191970" d="M540.221,-211.4098C564.8681,-196.7373 601.4603,-174.9538 628.539,-158.8336"/>
<polygon fill="#191970" stroke="#191970" points="630.5242,-161.7251 637.3266,-153.6024 626.9435,-155.7102 630.5242,-161.7251"/>
</g>
<!-- Node6 -->
<g id="node6" class="node">
<title>Node6</title>
<g id="a_node6"><a xlink:href="class_l_f_s_t_k__gadget_class_a66b92f213e5a7e75da3f707b511342ea.xhtml#a66b92f213e5a7e75da3f707b511342ea" target="_top" xlink:title=" ">
<polygon fill="none" stroke="#000000" points="757.277,-121.5 757.277,-153.5 871.08,-153.5 871.08,-121.5 757.277,-121.5"/>
<text text-anchor="start" x="765.277" y="-140.5" font-family="Helvetica,sans-Serif" font-size="10.00" fill="#000000">LFSTK_gadgetClass::</text>
<text text-anchor="middle" x="814.1785" y="-128.5" font-family="Helvetica,sans-Serif" font-size="10.00" fill="#000000">drawGagetDetails</text>
</a>
</g>
</g>
<!-- Node5&#45;&gt;Node6 -->
<g id="edge5" class="edge">
<title>Node5&#45;&gt;Node6</title>
<path fill="none" stroke="#191970" d="M721.4369,-137.5C729.8759,-137.5 738.6356,-137.5 747.2529,-137.5"/>
<polygon fill="#191970" stroke="#191970" points="747.2758,-141.0001 757.2757,-137.5 747.2757,-134.0001 747.2758,-141.0001"/>
</g>
<!-- Node6&#45;&gt;Node4 -->
<g id="edge6" class="edge">
<title>Node6&#45;&gt;Node4</title>
<path fill="none" stroke="#191970" d="M838.741,-153.7326C857.3094,-165.8483 883.5384,-182.6328 907.08,-196.5 912.6777,-199.7973 918.6456,-203.1846 924.5317,-206.4533"/>
<polygon fill="#191970" stroke="#191970" points="923.1994,-209.7148 933.6491,-211.4625 926.5701,-203.5797 923.1994,-209.7148"/>
</g>
<!-- Node7 -->
<g id="node7" class="node">
<title>Node7</title>
<g id="a_node7"><a xlink:href="class_l_f_s_t_k__gadget_class_ab76db165a19af248b5e94e95492dc879.xhtml#ab76db165a19af248b5e94e95492dc879" target="_top" xlink:title=" ">
<polygon fill="none" stroke="#000000" points="1068.2695,-128.5 1068.2695,-160.5 1182.0725,-160.5 1182.0725,-128.5 1068.2695,-128.5"/>
<text text-anchor="start" x="1076.2695" y="-147.5" font-family="Helvetica,sans-Serif" font-size="10.00" fill="#000000">LFSTK_gadgetClass::</text>
<text text-anchor="middle" x="1125.171" y="-135.5" font-family="Helvetica,sans-Serif" font-size="10.00" fill="#000000">drawBevel</text>
</a>
</g>
</g>
<!-- Node6&#45;&gt;Node7 -->
<g id="edge7" class="edge">
<title>Node6&#45;&gt;Node7</title>
<path fill="none" stroke="#191970" d="M861.8693,-153.5327C876.2308,-157.6275 892.1465,-161.4497 907.08,-163.5 957.189,-170.3797 970.5091,-168.0513 1020.883,-163.5 1032.9114,-162.4132 1045.626,-160.6351 1057.8847,-158.5914"/>
<polygon fill="#191970" stroke="#191970" points="1058.7982,-161.9851 1068.0497,-156.8217 1057.5975,-155.0889 1058.7982,-161.9851"/>
</g>
<!-- Node8 -->
<g id="node8" class="node">
<title>Node8</title>
<g id="a_node8"><a xlink:href="class_l_f_s_t_k__gadget_class_af5386ffc4699273f6c53a920fc8b2f1d.xhtml#af5386ffc4699273f6c53a920fc8b2f1d" target="_top" xlink:title=" ">
<polygon fill="none" stroke="#000000" points="907.08,-121.5 907.08,-153.5 1020.883,-153.5 1020.883,-121.5 907.08,-121.5"/>
<text text-anchor="start" x="915.08" y="-140.5" font-family="Helvetica,sans-Serif" font-size="10.00" fill="#000000">LFSTK_gadgetClass::</text>
<text text-anchor="middle" x="963.9815" y="-128.5" font-family="Helvetica,sans-Serif" font-size="10.00" fill="#000000">drawImage</text>
</a>
</g>
</g>
<!-- Node6&#45;&gt;Node8 -->
<g id="edge8" class="edge">
<title>Node6&#45;&gt;Node8</title>
<path fill="none" stroke="#191970" d="M871.2399,-137.5C879.6789,-137.5 888.4386,-137.5 897.0559,-137.5"/>
<polygon fill="#191970" stroke="#191970" points="897.0788,-141.0001 907.0787,-137.5 897.0787,-134.0001 897.0788,-141.0001"/>
</g>
<!-- Node9 -->
<g id="node9" class="node">
<title>Node9</title>
<g id="a_node9"><a xlink:href="class_l_f_s_t_k__gadget_class_af77235e4dc604470c9d62f101238225b.xhtml#af77235e4dc604470c9d62f101238225b" target="_top" xlink:title=" ">
<polygon fill="none" stroke="#000000" points="907.08,-70.5 907.08,-102.5 1020.883,-102.5 1020.883,-70.5 907.08,-70.5"/>
<text text-anchor="start" x="915.08" y="-89.5" font-family="Helvetica,sans-Serif" font-size="10.00" fill="#000000">LFSTK_gadgetClass::</text>
<text text-anchor="middle" x="963.9815" y="-77.5" font-family="Helvetica,sans-Serif" font-size="10.00" fill="#000000">drawIndicator</text>
</a>
</g>
</g>
<!-- Node6&#45;&gt;Node9 -->
<g id="edge9" class="edge">
<title>Node6&#45;&gt;Node9</title>
<path fill="none" stroke="#191970" d="M861.5771,-121.3633C876.0621,-116.4319 892.1407,-110.958 907.183,-105.8369"/>
<polygon fill="#191970" stroke="#191970" points="908.5528,-109.0679 916.8912,-102.5317 906.2968,-102.4414 908.5528,-109.0679"/>
</g>
<!-- Node10 -->
<g id="node10" class="node">
<title>Node10</title>
<g id="a_node10"><a xlink:href="class_l_f_s_t_k__gadget_class_a7f44f781b167d66c5d6f4cc862a7e2db.xhtml#a7f44f781b167d66c5d6f4cc862a7e2db" target="_top" xlink:title=" ">
<polygon fill="none" stroke="#000000" points="907.08,-19.5 907.08,-51.5 1020.883,-51.5 1020.883,-19.5 907.08,-19.5"/>
<text text-anchor="start" x="915.08" y="-38.5" font-family="Helvetica,sans-Serif" font-size="10.00" fill="#000000">LFSTK_gadgetClass::</text>
<text text-anchor="middle" x="963.9815" y="-26.5" font-family="Helvetica,sans-Serif" font-size="10.00" fill="#000000">drawLabel</text>
</a>
</g>
</g>
<!-- Node6&#45;&gt;Node10 -->
<g id="edge11" class="edge">
<title>Node6&#45;&gt;Node10</title>
<path fill="none" stroke="#191970" d="M830.548,-121.4985C848.3055,-104.748 878.0237,-78.4356 907.08,-60.5 909.4099,-59.0618 911.8369,-57.6631 914.319,-56.3102"/>
<polygon fill="#191970" stroke="#191970" points="916.1667,-59.2963 923.4722,-51.623 912.976,-53.0658 916.1667,-59.2963"/>
</g>
<!-- Node9&#45;&gt;Node7 -->
<g id="edge10" class="edge">
<title>Node9&#45;&gt;Node7</title>
<path fill="none" stroke="#191970" d="M1008.4539,-102.5023C1027.8413,-109.4784 1050.7449,-117.7196 1071.1058,-125.046"/>
<polygon fill="#191970" stroke="#191970" points="1069.9697,-128.3568 1080.5642,-128.4493 1072.3398,-121.7703 1069.9697,-128.3568"/>
</g>
<!-- Node11 -->
<g id="node11" class="node">
<title>Node11</title>
<g id="a_node11"><a xlink:href="class_l_f_s_t_k__lib_ab2f14a3414f7db863682d1e2fa0cfb75.xhtml#ab2f14a3414f7db863682d1e2fa0cfb75" target="_top" xlink:title=" ">
<polygon fill="none" stroke="#000000" points="1056.883,-51.5 1056.883,-71.5 1193.459,-71.5 1193.459,-51.5 1056.883,-51.5"/>
<text text-anchor="middle" x="1125.171" y="-58.5" font-family="Helvetica,sans-Serif" font-size="10.00" fill="#000000">LFSTK_lib::bestFontColour</text>
</a>
</g>
</g>
<!-- Node10&#45;&gt;Node11 -->
<g id="edge12" class="edge">
<title>Node10&#45;&gt;Node11</title>
<path fill="none" stroke="#191970" d="M1021.2647,-44.7398C1031.5508,-46.399 1042.3912,-48.1475 1053.0327,-49.864"/>
<polygon fill="#191970" stroke="#191970" points="1052.7201,-53.3588 1063.1499,-51.4959 1053.8349,-46.4481 1052.7201,-53.3588"/>
</g>
<!-- Node12 -->
<g id="node12" class="node">
<title>Node12</title>
<g id="a_node12"><a xlink:href="class_l_f_s_t_k__gadget_class_a091281ba03eaeb31bc7507c74b9b4f2f.xhtml#a091281ba03eaeb31bc7507c74b9b4f2f" target="_top" xlink:title=" ">
<polygon fill="none" stroke="#000000" points="1067.715,-.5 1067.715,-32.5 1182.627,-32.5 1182.627,-.5 1067.715,-.5"/>
<text text-anchor="start" x="1075.715" y="-19.5" font-family="Helvetica,sans-Serif" font-size="10.00" fill="#000000">LFSTK_gadgetClass::</text>
<text text-anchor="middle" x="1125.171" y="-7.5" font-family="Helvetica,sans-Serif" font-size="10.00" fill="#000000">LFSTK_getTextHeight</text>
</a>
</g>
</g>
<!-- Node10&#45;&gt;Node12 -->
<g id="edge13" class="edge">
<title>Node10&#45;&gt;Node12</title>
<path fill="none" stroke="#191970" d="M1021.2647,-28.7478C1033.0001,-27.3645 1045.4569,-25.8962 1057.5167,-24.4747"/>
<polygon fill="#191970" stroke="#191970" points="1058.0076,-27.9411 1067.5291,-23.2945 1057.1881,-20.9892 1058.0076,-27.9411"/>
</g>
<!-- Node16 -->
<g id="node16" class="node">
<title>Node16</title>
<g id="a_node16"><a xlink:href="class_l_f_s_t_k__window_class_ac3b5b99b3a018cce7c631df39db76be1.xhtml#ac3b5b99b3a018cce7c631df39db76be1" target="_top" xlink:title=" ">
<polygon fill="none" stroke="#000000" points="454.911,-88.5 454.911,-120.5 571.474,-120.5 571.474,-88.5 454.911,-88.5"/>
<text text-anchor="start" x="462.911" y="-107.5" font-family="Helvetica,sans-Serif" font-size="10.00" fill="#000000">LFSTK_windowClass::</text>
<text text-anchor="middle" x="513.1925" y="-95.5" font-family="Helvetica,sans-Serif" font-size="10.00" fill="#000000">LFSTK_clearWindow</text>
</a>
</g>
</g>
<!-- Node15&#45;&gt;Node16 -->
<g id="edge18" class="edge">
<title>Node15&#45;&gt;Node16</title>
<path fill="none" stroke="#191970" d="M419.1653,-83.9759C427.5193,-85.7994 436.1931,-87.6927 444.744,-89.5592"/>
<polygon fill="#191970" stroke="#191970" points="444.1826,-93.019 454.699,-91.7321 445.6754,-86.18 444.1826,-93.019"/>
</g>
<!-- Node16&#45;&gt;Node5 -->
<g id="edge19" class="edge">
<title>Node16&#45;&gt;Node5</title>
<path fill="none" stroke="#191970" d="M571.6438,-117.2587C580.0049,-119.0837 588.6613,-120.9732 597.174,-122.8314"/>
<polygon fill="#191970" stroke="#191970" points="596.5585,-126.2793 607.0749,-124.9925 598.0513,-119.4404 596.5585,-126.2793"/>
</g>
</g>
</svg>
