<?xml version="1.0" encoding="UTF-8" standalone="no"?>
<!DOCTYPE svg PUBLIC "-//W3C//DTD SVG 1.1//EN"
 "http://www.w3.org/Graphics/SVG/1.1/DTD/svg11.dtd">
<!-- Generated by graphviz version 2.40.1 (20161225.0304)
 -->
<!-- Title: LFSTK_gadgetClass::LFSTK_moveGadget Pages: 1 -->
<svg width="896pt" height="252pt"
 viewBox="0.00 0.00 896.35 252.00" xmlns="http://www.w3.org/2000/svg" xmlns:xlink="http://www.w3.org/1999/xlink">
<g id="graph0" class="graph" transform="scale(1 1) rotate(0) translate(4 248)">
<title>LFSTK_gadgetClass::LFSTK_moveGadget</title>
<!-- Node1 -->
<g id="node1" class="node">
<title>Node1</title>
<g id="a_node1"><a xlink:title=" ">
<polygon fill="#bfbfbf" stroke="#000000" points="0,-121.5 0,-153.5 113.803,-153.5 113.803,-121.5 0,-121.5"/>
<text text-anchor="start" x="8" y="-140.5" font-family="Helvetica,sans-Serif" font-size="10.00" fill="#000000">LFSTK_gadgetClass::</text>
<text text-anchor="middle" x="56.9015" y="-128.5" font-family="Helvetica,sans-Serif" font-size="10.00" fill="#000000">LFSTK_moveGadget</text>
</a>
</g>
</g>
<!-- Node2 -->
<g id="node2" class="node">
<title>Node2</title>
<g id="a_node2"><a xlink:href="class_l_f_s_t_k__window_class_ac3b5b99b3a018cce7c631df39db76be1.xhtml#ac3b5b99b3a018cce7c631df39db76be1" target="_top" xlink:title=" ">
<polygon fill="none" stroke="#000000" points="149.803,-121.5 149.803,-153.5 266.366,-153.5 266.366,-121.5 149.803,-121.5"/>
<text text-anchor="start" x="157.803" y="-140.5" font-family="Helvetica,sans-Serif" font-size="10.00" fill="#000000">LFSTK_windowClass::</text>
<text text-anchor="middle" x="208.0845" y="-128.5" font-family="Helvetica,sans-Serif" font-size="10.00" fill="#000000">LFSTK_clearWindow</text>
</a>
</g>
</g>
<!-- Node1&#45;&gt;Node2 -->
<g id="edge1" class="edge">
<title>Node1&#45;&gt;Node2</title>
<path fill="none" stroke="#191970" d="M114.0573,-137.5C122.3205,-137.5 130.8966,-137.5 139.3571,-137.5"/>
<polygon fill="#191970" stroke="#191970" points="139.591,-141.0001 149.591,-137.5 139.5909,-134.0001 139.591,-141.0001"/>
</g>
<!-- Node3 -->
<g id="node3" class="node">
<title>Node3</title>
<g id="a_node3"><a xlink:href="class_l_f_s_t_k__gadget_class_aa5b5f301fe9b0a4d7679f786da7462ba.xhtml#aa5b5f301fe9b0a4d7679f786da7462ba" target="_top" xlink:title=" ">
<polygon fill="none" stroke="#000000" points="302.366,-121.5 302.366,-153.5 416.169,-153.5 416.169,-121.5 302.366,-121.5"/>
<text text-anchor="start" x="310.366" y="-140.5" font-family="Helvetica,sans-Serif" font-size="10.00" fill="#000000">LFSTK_gadgetClass::</text>
<text text-anchor="middle" x="359.2675" y="-128.5" font-family="Helvetica,sans-Serif" font-size="10.00" fill="#000000">LFSTK_clearWindow</text>
</a>
</g>
</g>
<!-- Node2&#45;&gt;Node3 -->
<g id="edge2" class="edge">
<title>Node2&#45;&gt;Node3</title>
<path fill="none" stroke="#191970" d="M266.5358,-137.5C274.806,-137.5 283.3651,-137.5 291.7884,-137.5"/>
<polygon fill="#191970" stroke="#191970" points="291.9669,-141.0001 301.9669,-137.5 291.9668,-134.0001 291.9669,-141.0001"/>
</g>
<!-- Node4 -->
<g id="node4" class="node">
<title>Node4</title>
<g id="a_node4"><a xlink:href="class_l_f_s_t_k__gadget_class_a66b92f213e5a7e75da3f707b511342ea.xhtml#a66b92f213e5a7e75da3f707b511342ea" target="_top" xlink:title=" ">
<polygon fill="none" stroke="#000000" points="452.169,-121.5 452.169,-153.5 565.972,-153.5 565.972,-121.5 452.169,-121.5"/>
<text text-anchor="start" x="460.169" y="-140.5" font-family="Helvetica,sans-Serif" font-size="10.00" fill="#000000">LFSTK_gadgetClass::</text>
<text text-anchor="middle" x="509.0705" y="-128.5" font-family="Helvetica,sans-Serif" font-size="10.00" fill="#000000">drawGagetDetails</text>
</a>
</g>
</g>
<!-- Node3&#45;&gt;Node4 -->
<g id="edge3" class="edge">
<title>Node3&#45;&gt;Node4</title>
<path fill="none" stroke="#191970" d="M416.3289,-137.5C424.7679,-137.5 433.5276,-137.5 442.1449,-137.5"/>
<polygon fill="#191970" stroke="#191970" points="442.1678,-141.0001 452.1677,-137.5 442.1677,-134.0001 442.1678,-141.0001"/>
</g>
<!-- Node5 -->
<g id="node5" class="node">
<title>Node5</title>
<g id="a_node5"><a xlink:href="class_l_f_s_t_k__gadget_class_a37d96aab3c59cb97fca1720441e3fc8e.xhtml#a37d96aab3c59cb97fca1720441e3fc8e" target="_top" xlink:title=" ">
<polygon fill="none" stroke="#000000" points="601.972,-211.5 601.972,-243.5 715.775,-243.5 715.775,-211.5 601.972,-211.5"/>
<text text-anchor="start" x="609.972" y="-230.5" font-family="Helvetica,sans-Serif" font-size="10.00" fill="#000000">LFSTK_gadgetClass::</text>
<text text-anchor="middle" x="658.8735" y="-218.5" font-family="Helvetica,sans-Serif" font-size="10.00" fill="#000000">clearBox</text>
</a>
</g>
</g>
<!-- Node4&#45;&gt;Node5 -->
<g id="edge4" class="edge">
<title>Node4&#45;&gt;Node5</title>
<path fill="none" stroke="#191970" d="M533.633,-153.7326C552.2014,-165.8483 578.4304,-182.6328 601.972,-196.5 607.5697,-199.7973 613.5376,-203.1846 619.4237,-206.4533"/>
<polygon fill="#191970" stroke="#191970" points="618.0914,-209.7148 628.5411,-211.4625 621.4621,-203.5797 618.0914,-209.7148"/>
</g>
<!-- Node6 -->
<g id="node6" class="node">
<title>Node6</title>
<g id="a_node6"><a xlink:href="class_l_f_s_t_k__gadget_class_ab76db165a19af248b5e94e95492dc879.xhtml#ab76db165a19af248b5e94e95492dc879" target="_top" xlink:title=" ">
<polygon fill="none" stroke="#000000" points="763.1615,-128.5 763.1615,-160.5 876.9645,-160.5 876.9645,-128.5 763.1615,-128.5"/>
<text text-anchor="start" x="771.1615" y="-147.5" font-family="Helvetica,sans-Serif" font-size="10.00" fill="#000000">LFSTK_gadgetClass::</text>
<text text-anchor="middle" x="820.063" y="-135.5" font-family="Helvetica,sans-Serif" font-size="10.00" fill="#000000">drawBevel</text>
</a>
</g>
</g>
<!-- Node4&#45;&gt;Node6 -->
<g id="edge5" class="edge">
<title>Node4&#45;&gt;Node6</title>
<path fill="none" stroke="#191970" d="M556.7613,-153.5327C571.1228,-157.6275 587.0385,-161.4497 601.972,-163.5 652.081,-170.3797 665.4011,-168.0513 715.775,-163.5 727.8034,-162.4132 740.518,-160.6351 752.7767,-158.5914"/>
<polygon fill="#191970" stroke="#191970" points="753.6902,-161.9851 762.9417,-156.8217 752.4895,-155.0889 753.6902,-161.9851"/>
</g>
<!-- Node7 -->
<g id="node7" class="node">
<title>Node7</title>
<g id="a_node7"><a xlink:href="class_l_f_s_t_k__gadget_class_af5386ffc4699273f6c53a920fc8b2f1d.xhtml#af5386ffc4699273f6c53a920fc8b2f1d" target="_top" xlink:title=" ">
<polygon fill="none" stroke="#000000" points="601.972,-121.5 601.972,-153.5 715.775,-153.5 715.775,-121.5 601.972,-121.5"/>
<text text-anchor="start" x="609.972" y="-140.5" font-family="Helvetica,sans-Serif" font-size="10.00" fill="#000000">LFSTK_gadgetClass::</text>
<text text-anchor="middle" x="658.8735" y="-128.5" font-family="Helvetica,sans-Serif" font-size="10.00" fill="#000000">drawImage</text>
</a>
</g>
</g>
<!-- Node4&#45;&gt;Node7 -->
<g id="edge6" class="edge">
<title>Node4&#45;&gt;Node7</title>
<path fill="none" stroke="#191970" d="M566.1319,-137.5C574.5709,-137.5 583.3306,-137.5 591.9479,-137.5"/>
<polygon fill="#191970" stroke="#191970" points="591.9708,-141.0001 601.9707,-137.5 591.9707,-134.0001 591.9708,-141.0001"/>
</g>
<!-- Node8 -->
<g id="node8" class="node">
<title>Node8</title>
<g id="a_node8"><a xlink:href="class_l_f_s_t_k__gadget_class_af77235e4dc604470c9d62f101238225b.xhtml#af77235e4dc604470c9d62f101238225b" target="_top" xlink:title=" ">
<polygon fill="none" stroke="#000000" points="601.972,-70.5 601.972,-102.5 715.775,-102.5 715.775,-70.5 601.972,-70.5"/>
<text text-anchor="start" x="609.972" y="-89.5" font-family="Helvetica,sans-Serif" font-size="10.00" fill="#000000">LFSTK_gadgetClass::</text>
<text text-anchor="middle" x="658.8735" y="-77.5" font-family="Helvetica,sans-Serif" font-size="10.00" fill="#000000">drawIndicator</text>
</a>
</g>
</g>
<!-- Node4&#45;&gt;Node8 -->
<g id="edge7" class="edge">
<title>Node4&#45;&gt;Node8</title>
<path fill="none" stroke="#191970" d="M556.4691,-121.3633C570.9541,-116.4319 587.0327,-110.958 602.075,-105.8369"/>
<polygon fill="#191970" stroke="#191970" points="603.4448,-109.0679 611.7832,-102.5317 601.1888,-102.4414 603.4448,-109.0679"/>
</g>
<!-- Node9 -->
<g id="node9" class="node">
<title>Node9</title>
<g id="a_node9"><a xlink:href="class_l_f_s_t_k__gadget_class_a7f44f781b167d66c5d6f4cc862a7e2db.xhtml#a7f44f781b167d66c5d6f4cc862a7e2db" target="_top" xlink:title=" ">
<polygon fill="none" stroke="#000000" points="601.972,-19.5 601.972,-51.5 715.775,-51.5 715.775,-19.5 601.972,-19.5"/>
<text text-anchor="start" x="609.972" y="-38.5" font-family="Helvetica,sans-Serif" font-size="10.00" fill="#000000">LFSTK_gadgetClass::</text>
<text text-anchor="middle" x="658.8735" y="-26.5" font-family="Helvetica,sans-Serif" font-size="10.00" fill="#000000">drawLabel</text>
</a>
</g>
</g>
<!-- Node4&#45;&gt;Node9 -->
<g id="edge9" class="edge">
<title>Node4&#45;&gt;Node9</title>
<path fill="none" stroke="#191970" d="M525.44,-121.4985C543.1975,-104.748 572.9157,-78.4356 601.972,-60.5 604.3019,-59.0618 606.7289,-57.6631 609.211,-56.3102"/>
<polygon fill="#191970" stroke="#191970" points="611.0587,-59.2963 618.3642,-51.623 607.868,-53.0658 611.0587,-59.2963"/>
</g>
<!-- Node8&#45;&gt;Node6 -->
<g id="edge8" class="edge">
<title>Node8&#45;&gt;Node6</title>
<path fill="none" stroke="#191970" d="M703.3459,-102.5023C722.7333,-109.4784 745.6369,-117.7196 765.9978,-125.046"/>
<polygon fill="#191970" stroke="#191970" points="764.8617,-128.3568 775.4562,-128.4493 767.2318,-121.7703 764.8617,-128.3568"/>
</g>
<!-- Node10 -->
<g id="node10" class="node">
<title>Node10</title>
<g id="a_node10"><a xlink:href="class_l_f_s_t_k__lib_ab2f14a3414f7db863682d1e2fa0cfb75.xhtml#ab2f14a3414f7db863682d1e2fa0cfb75" target="_top" xlink:title=" ">
<polygon fill="none" stroke="#000000" points="751.775,-51.5 751.775,-71.5 888.351,-71.5 888.351,-51.5 751.775,-51.5"/>
<text text-anchor="middle" x="820.063" y="-58.5" font-family="Helvetica,sans-Serif" font-size="10.00" fill="#000000">LFSTK_lib::bestFontColour</text>
</a>
</g>
</g>
<!-- Node9&#45;&gt;Node10 -->
<g id="edge10" class="edge">
<title>Node9&#45;&gt;Node10</title>
<path fill="none" stroke="#191970" d="M716.1567,-44.7398C726.4428,-46.399 737.2832,-48.1475 747.9247,-49.864"/>
<polygon fill="#191970" stroke="#191970" points="747.6121,-53.3588 758.0419,-51.4959 748.7269,-46.4481 747.6121,-53.3588"/>
</g>
<!-- Node11 -->
<g id="node11" class="node">
<title>Node11</title>
<g id="a_node11"><a xlink:href="class_l_f_s_t_k__gadget_class_a091281ba03eaeb31bc7507c74b9b4f2f.xhtml#a091281ba03eaeb31bc7507c74b9b4f2f" target="_top" xlink:title=" ">
<polygon fill="none" stroke="#000000" points="762.607,-.5 762.607,-32.5 877.519,-32.5 877.519,-.5 762.607,-.5"/>
<text text-anchor="start" x="770.607" y="-19.5" font-family="Helvetica,sans-Serif" font-size="10.00" fill="#000000">LFSTK_gadgetClass::</text>
<text text-anchor="middle" x="820.063" y="-7.5" font-family="Helvetica,sans-Serif" font-size="10.00" fill="#000000">LFSTK_getTextHeight</text>
</a>
</g>
</g>
<!-- Node9&#45;&gt;Node11 -->
<g id="edge11" class="edge">
<title>Node9&#45;&gt;Node11</title>
<path fill="none" stroke="#191970" d="M716.1567,-28.7478C727.8921,-27.3645 740.3489,-25.8962 752.4087,-24.4747"/>
<polygon fill="#191970" stroke="#191970" points="752.8996,-27.9411 762.4211,-23.2945 752.0801,-20.9892 752.8996,-27.9411"/>
</g>
</g>
</svg>
