<?xml version="1.0" encoding="UTF-8" standalone="no"?>
<!DOCTYPE svg PUBLIC "-//W3C//DTD SVG 1.1//EN"
 "http://www.w3.org/Graphics/SVG/1.1/DTD/svg11.dtd">
<!-- Generated by graphviz version 2.40.1 (20161225.0304)
 -->
<!-- Title: LFSTK_lib::LFSTK_getGlobalString Pages: 1 -->
<!--zoomable 784 -->
<svg id="main" version="1.1" xmlns="http://www.w3.org/2000/svg" xmlns:xlink="http://www.w3.org/1999/xlink" xml:space="preserve" onload="init(evt)">
<style type="text/css"><![CDATA[
.edge:hover path { stroke: red; }
.edge:hover polygon { stroke: red; fill: red; }
]]></style>
<script type="text/javascript"><![CDATA[
var edges = document.getElementsByTagName('g');
if (edges && edges.length) {
  for (var i=0;i<edges.length;i++) {
    if (edges[i].id.substr(0,4)=='edge') {
      edges[i].setAttribute('class','edge');
    }
  }
}
]]></script>
        <defs>
                <circle id="rim" cx="0" cy="0" r="7"/>
                <circle id="rim2" cx="0" cy="0" r="3.5"/>
                <g id="zoomPlus">
                        <use xlink:href="#rim" fill="#404040">
                                <set attributeName="fill" to="#808080" begin="zoomplus.mouseover" end="zoomplus.mouseout"/>
                        </use>
                        <path d="M-4,0h8M0,-4v8" fill="none" stroke="white" stroke-width="1.5" pointer-events="none"/>
                </g>
                <g id="zoomMin">
                        <use xlink:href="#rim" fill="#404040">
                                <set attributeName="fill" to="#808080" begin="zoomminus.mouseover" end="zoomminus.mouseout"/>
                        </use>
                        <path d="M-4,0h8" fill="none" stroke="white" stroke-width="1.5" pointer-events="none"/>
                </g>
                <g id="dirArrow">
                        <path fill="none" stroke="white" stroke-width="1.5" d="M0,-3.0v7 M-2.5,-0.5L0,-3.0L2.5,-0.5"/>
                </g>
               <g id="resetDef">
                       <use xlink:href="#rim2" fill="#404040">
                               <set attributeName="fill" to="#808080" begin="reset.mouseover" end="reset.mouseout"/>
                       </use>
               </g>
        </defs>

<script type="text/javascript">
var viewWidth = 832;
var viewHeight = 784;
var sectionId = 'dynsection-0';
</script>
<script xlink:href="svgpan.js"/>
<svg id="graph" class="graph">
<g id="viewport">
<title>LFSTK_lib::LFSTK_getGlobalString</title>
<!-- Node1 -->
<g id="node1" class="node">
<title>Node1</title>
<g id="a_node1"><a xlink:title=" ">
<polygon fill="#bfbfbf" stroke="#000000" points="676.381,-379.134 676.381,-411.134 824.075,-411.134 824.075,-379.134 676.381,-379.134"/>
<text text-anchor="start" x="684.381" y="-398.134" font-family="Helvetica,sans-Serif" font-size="10.00" fill="#000000">LFSTK_lib::LFSTK_getGlobal</text>
<text text-anchor="middle" x="750.228" y="-386.134" font-family="Helvetica,sans-Serif" font-size="10.00" fill="#000000">String</text>
</a>
</g>
</g>
<!-- Node2 -->
<g id="node2" class="node">
<title>Node2</title>
<g id="a_node2"><a xlink:href="class_l_f_s_t_k__gadget_class_af7a3a7b33909c6560b1cf27033548c46.xhtml#af7a3a7b33909c6560b1cf27033548c46" target="_top" xlink:title=" ">
<polygon fill="none" stroke="#000000" points="513.8045,-519.134 513.8045,-551.134 627.6075,-551.134 627.6075,-519.134 513.8045,-519.134"/>
<text text-anchor="start" x="521.8045" y="-538.134" font-family="Helvetica,sans-Serif" font-size="10.00" fill="#000000">LFSTK_gadgetClass::</text>
<text text-anchor="middle" x="570.706" y="-526.134" font-family="Helvetica,sans-Serif" font-size="10.00" fill="#000000">initGadget</text>
</a>
</g>
</g>
<!-- Node1&#45;&gt;Node2 -->
<g id="edge1" class="edge">
<title>Node1&#45;&gt;Node2</title>
<path fill="none" stroke="#191970" d="M730.4848,-419.3272C709.9485,-443.2949 675.8838,-479.8413 640.381,-504.134 632.1861,-509.7414 622.8126,-514.7239 613.6546,-518.9665"/>
<polygon fill="#191970" stroke="#191970" points="733.3882,-421.3137 737.1647,-411.4148 728.0394,-416.7981 733.3882,-421.3137"/>
</g>
<!-- Node4 -->
<g id="node4" class="node">
<title>Node4</title>
<g id="a_node4"><a xlink:href="class_l_f_s_t_k__button_class_a2b46d2136069e61fc8c8ee88519b2a8f.xhtml#a2b46d2136069e61fc8c8ee88519b2a8f" target="_top" xlink:title=" ">
<polygon fill="none" stroke="#000000" points="186.172,-701.134 186.172,-733.134 297.195,-733.134 297.195,-701.134 186.172,-701.134"/>
<text text-anchor="start" x="194.172" y="-720.134" font-family="Helvetica,sans-Serif" font-size="10.00" fill="#000000">LFSTK_buttonClass::</text>
<text text-anchor="middle" x="241.6835" y="-708.134" font-family="Helvetica,sans-Serif" font-size="10.00" fill="#000000">LFSTK_buttonClass</text>
</a>
</g>
</g>
<!-- Node1&#45;&gt;Node4 -->
<g id="edge13" class="edge">
<title>Node1&#45;&gt;Node4</title>
<path fill="none" stroke="#191970" d="M745.9462,-421.0683C736.3749,-470.54 708.4917,-578.4942 640.381,-635.134 541.3561,-717.4817 381.2571,-724.1398 297.231,-721.1417"/>
<polygon fill="#191970" stroke="#191970" points="749.4007,-421.6343 747.766,-411.1663 742.516,-420.3689 749.4007,-421.6343"/>
</g>
<!-- Node5 -->
<g id="node5" class="node">
<title>Node5</title>
<g id="a_node5"><a xlink:href="class_l_f_s_t_k__font_dialog_class_ab7b6a4bca99713646ab6ac77dc34827c.xhtml#ab7b6a4bca99713646ab6ac77dc34827c" target="_top" xlink:title=" ">
<polygon fill="none" stroke="#000000" points="3.33,-503.134 3.33,-535.134 131.569,-535.134 131.569,-503.134 3.33,-503.134"/>
<text text-anchor="start" x="11.33" y="-522.134" font-family="Helvetica,sans-Serif" font-size="10.00" fill="#000000">LFSTK_fontDialogClass</text>
<text text-anchor="middle" x="67.4495" y="-510.134" font-family="Helvetica,sans-Serif" font-size="10.00" fill="#000000">::LFSTK_fontDialogClass</text>
</a>
</g>
</g>
<!-- Node1&#45;&gt;Node5 -->
<g id="edge14" class="edge">
<title>Node1&#45;&gt;Node5</title>
<path fill="none" stroke="#191970" d="M747.9184,-421.4007C741.5375,-477.6473 718.5722,-610.361 640.381,-681.134 580.4755,-735.3562 544.5354,-714.72 465.031,-729.134 336.2569,-752.4807 281.1467,-813.6555 170.899,-743.134 96.2033,-695.3539 74.6668,-578.3867 69.1589,-535.3606"/>
<polygon fill="#191970" stroke="#191970" points="751.4247,-421.522 748.9849,-411.212 744.4628,-420.7932 751.4247,-421.522"/>
</g>
<!-- Node7 -->
<g id="node7" class="node">
<title>Node7</title>
<g id="a_node7"><a xlink:href="class_l_f_s_t_k__label_class_a6085feaa122a3d1060351c659889628c.xhtml#a6085feaa122a3d1060351c659889628c" target="_top" xlink:title=" ">
<polygon fill="none" stroke="#000000" points="173.954,-650.134 173.954,-682.134 309.413,-682.134 309.413,-650.134 173.954,-650.134"/>
<text text-anchor="start" x="181.954" y="-669.134" font-family="Helvetica,sans-Serif" font-size="10.00" fill="#000000">LFSTK_labelClass::LFSTK</text>
<text text-anchor="middle" x="241.6835" y="-657.134" font-family="Helvetica,sans-Serif" font-size="10.00" fill="#000000">_labelClass</text>
</a>
</g>
</g>
<!-- Node1&#45;&gt;Node7 -->
<g id="edge15" class="edge">
<title>Node1&#45;&gt;Node7</title>
<path fill="none" stroke="#191970" d="M743.5672,-420.9923C731.0809,-463.9226 699.8825,-549.4009 640.381,-592.134 541.7428,-662.9745 395.0086,-671.9457 309.7815,-670.2614"/>
<polygon fill="#191970" stroke="#191970" points="746.9583,-421.8619 746.2796,-411.2888 740.2167,-419.9774 746.9583,-421.8619"/>
</g>
<!-- Node8 -->
<g id="node8" class="node">
<title>Node8</title>
<g id="a_node8"><a xlink:href="class_l_f_s_t_k__line_edit_class_af610951625203a6d75bce118b2b94386.xhtml#af610951625203a6d75bce118b2b94386" target="_top" xlink:title=" ">
<polygon fill="none" stroke="#000000" points="183.678,-599.134 183.678,-631.134 299.689,-631.134 299.689,-599.134 183.678,-599.134"/>
<text text-anchor="start" x="191.678" y="-618.134" font-family="Helvetica,sans-Serif" font-size="10.00" fill="#000000">LFSTK_lineEditClass</text>
<text text-anchor="middle" x="241.6835" y="-606.134" font-family="Helvetica,sans-Serif" font-size="10.00" fill="#000000">::LFSTK_lineEditClass</text>
</a>
</g>
</g>
<!-- Node1&#45;&gt;Node8 -->
<g id="edge16" class="edge">
<title>Node1&#45;&gt;Node8</title>
<path fill="none" stroke="#191970" d="M741.1062,-420.978C726.331,-458.6825 693.3581,-527.889 640.381,-561.134 584.8395,-595.9883 396.3174,-608.7636 299.7445,-613.0981"/>
<polygon fill="#191970" stroke="#191970" points="744.5273,-421.8264 744.7925,-411.2349 737.9802,-419.3493 744.5273,-421.8264"/>
</g>
<!-- Node9 -->
<g id="node9" class="node">
<title>Node9</title>
<g id="a_node9"><a xlink:href="class_l_f_s_t_k__list_gadget_class_ae3518016f28ec3cd261ad927c5691826.xhtml#ae3518016f28ec3cd261ad927c5691826" target="_top" xlink:title=" ">
<polygon fill="none" stroke="#000000" points="177.5635,-240.134 177.5635,-272.134 305.8035,-272.134 305.8035,-240.134 177.5635,-240.134"/>
<text text-anchor="start" x="185.5635" y="-259.134" font-family="Helvetica,sans-Serif" font-size="10.00" fill="#000000">LFSTK_listGadgetClass</text>
<text text-anchor="middle" x="241.6835" y="-247.134" font-family="Helvetica,sans-Serif" font-size="10.00" fill="#000000">::LFSTK_listGadgetClass</text>
</a>
</g>
</g>
<!-- Node1&#45;&gt;Node9 -->
<g id="edge17" class="edge">
<title>Node1&#45;&gt;Node9</title>
<path fill="none" stroke="#191970" d="M743.225,-369.3097C730.52,-328.1959 699.3603,-249.1395 640.381,-216.134 520.789,-149.2089 349.1565,-208.9729 276.3969,-240.0751"/>
<polygon fill="#191970" stroke="#191970" points="739.9366,-370.532 746.1295,-379.1285 746.649,-368.5464 739.9366,-370.532"/>
</g>
<!-- Node10 -->
<g id="node10" class="node">
<title>Node10</title>
<g id="a_node10"><a xlink:href="class_l_f_s_t_k__menu_item_class_a382a9775dff59f06606ef0b3f43382cc.xhtml#a382a9775dff59f06606ef0b3f43382cc" target="_top" xlink:title=" ">
<polygon fill="none" stroke="#000000" points="177.843,-458.134 177.843,-490.134 305.524,-490.134 305.524,-458.134 177.843,-458.134"/>
<text text-anchor="start" x="185.843" y="-477.134" font-family="Helvetica,sans-Serif" font-size="10.00" fill="#000000">LFSTK_menuItemClass</text>
<text text-anchor="middle" x="241.6835" y="-465.134" font-family="Helvetica,sans-Serif" font-size="10.00" fill="#000000">::LFSTK_menuItemClass</text>
</a>
</g>
</g>
<!-- Node1&#45;&gt;Node10 -->
<g id="edge19" class="edge">
<title>Node1&#45;&gt;Node10</title>
<path fill="none" stroke="#191970" d="M697.0329,-414.4266C679.2247,-420.2533 659.1309,-426.1536 640.381,-430.134 523.895,-454.8629 385.1353,-466.1876 305.8321,-470.9816"/>
<polygon fill="#191970" stroke="#191970" points="698.2913,-417.6965 706.6682,-411.2098 696.0745,-411.0567 698.2913,-417.6965"/>
</g>
<!-- Node11 -->
<g id="node11" class="node">
<title>Node11</title>
<g id="a_node11"><a xlink:href="class_l_f_s_t_k__multi_line_edit_class_a3319d21c84b3437e69bb87dc77531322.xhtml#a3319d21c84b3437e69bb87dc77531322" target="_top" xlink:title=" ">
<polygon fill="none" stroke="#000000" points="171.4555,-407.134 171.4555,-439.134 311.9115,-439.134 311.9115,-407.134 171.4555,-407.134"/>
<text text-anchor="start" x="179.4555" y="-426.134" font-family="Helvetica,sans-Serif" font-size="10.00" fill="#000000">LFSTK_multiLineEditClass</text>
<text text-anchor="middle" x="241.6835" y="-414.134" font-family="Helvetica,sans-Serif" font-size="10.00" fill="#000000">::LFSTK_multiLineEditClass</text>
</a>
</g>
</g>
<!-- Node1&#45;&gt;Node11 -->
<g id="edge20" class="edge">
<title>Node1&#45;&gt;Node11</title>
<path fill="none" stroke="#191970" d="M666.0898,-409.2602C657.4255,-410.3835 648.7381,-411.3751 640.381,-412.134 525.7335,-422.5453 391.8473,-424.0733 312.0614,-423.8649"/>
<polygon fill="#191970" stroke="#191970" points="666.7895,-412.6975 676.2293,-407.8871 665.85,-405.7608 666.7895,-412.6975"/>
</g>
<!-- Node12 -->
<g id="node12" class="node">
<title>Node12</title>
<g id="a_node12"><a xlink:href="class_l_f_s_t_k__scroll_bar_class_a3da4281c24ac345ba32a4636ce2af38b.xhtml#a3da4281c24ac345ba32a4636ce2af38b" target="_top" xlink:title=" ">
<polygon fill="none" stroke="#000000" points="180.6275,-356.134 180.6275,-388.134 302.7395,-388.134 302.7395,-356.134 180.6275,-356.134"/>
<text text-anchor="start" x="188.6275" y="-375.134" font-family="Helvetica,sans-Serif" font-size="10.00" fill="#000000">LFSTK_scrollBarClass</text>
<text text-anchor="middle" x="241.6835" y="-363.134" font-family="Helvetica,sans-Serif" font-size="10.00" fill="#000000">::LFSTK_scrollBarClass</text>
</a>
</g>
</g>
<!-- Node1&#45;&gt;Node12 -->
<g id="edge23" class="edge">
<title>Node1&#45;&gt;Node12</title>
<path fill="none" stroke="#191970" d="M666.1821,-397.8545C584.7651,-399.6016 457.9,-399.9786 348.468,-390.134 333.5817,-388.7949 317.643,-386.5515 302.7411,-384.0948"/>
<polygon fill="#191970" stroke="#191970" points="666.4563,-401.3493 676.3744,-397.6235 666.2976,-394.3511 666.4563,-401.3493"/>
</g>
<!-- Node13 -->
<g id="node13" class="node">
<title>Node13</title>
<g id="a_node13"><a xlink:href="class_l_f_s_t_k__toggle_button_class_a4cc0929a4d4113b9b40a3bdc54898ab7.xhtml#a4cc0929a4d4113b9b40a3bdc54898ab7" target="_top" xlink:title=" ">
<polygon fill="none" stroke="#000000" points="172,-305.134 172,-337.134 311.367,-337.134 311.367,-305.134 172,-305.134"/>
<text text-anchor="start" x="180" y="-324.134" font-family="Helvetica,sans-Serif" font-size="10.00" fill="#000000">LFSTK_toggleButtonClass</text>
<text text-anchor="middle" x="241.6835" y="-312.134" font-family="Helvetica,sans-Serif" font-size="10.00" fill="#000000">::LFSTK_toggleButtonClass</text>
</a>
</g>
</g>
<!-- Node1&#45;&gt;Node13 -->
<g id="edge24" class="edge">
<title>Node1&#45;&gt;Node13</title>
<path fill="none" stroke="#191970" d="M666.1476,-385.6057C584.7053,-376.0078 457.8223,-360.0814 348.468,-342.134 336.5354,-340.1757 323.8951,-337.884 311.6467,-335.548"/>
<polygon fill="#191970" stroke="#191970" points="666.0034,-389.1127 676.3432,-386.8022 666.8193,-382.1605 666.0034,-389.1127"/>
</g>
<!-- Node14 -->
<g id="node14" class="node">
<title>Node14</title>
<g id="a_node14"><a xlink:href="class_l_f_s_t_k__menu_class_a716d6c580b74a707a237711897295a3f.xhtml#a716d6c580b74a707a237711897295a3f" target="_top" xlink:title=" ">
<polygon fill="none" stroke="#000000" points="501.031,-277.134 501.031,-309.134 640.381,-309.134 640.381,-277.134 501.031,-277.134"/>
<text text-anchor="start" x="509.031" y="-296.134" font-family="Helvetica,sans-Serif" font-size="10.00" fill="#000000">LFSTK_menuClass::LFSTK</text>
<text text-anchor="middle" x="570.706" y="-284.134" font-family="Helvetica,sans-Serif" font-size="10.00" fill="#000000">_menuClass</text>
</a>
</g>
</g>
<!-- Node1&#45;&gt;Node14 -->
<g id="edge18" class="edge">
<title>Node1&#45;&gt;Node14</title>
<path fill="none" stroke="#191970" d="M719.2867,-373.2914C697.7002,-358.5162 667.9355,-339.052 640.381,-324.134 630.6011,-318.8392 619.7376,-313.6814 609.5546,-309.1409"/>
<polygon fill="#191970" stroke="#191970" points="717.4976,-376.3091 727.7163,-379.1072 721.4729,-370.5474 717.4976,-376.3091"/>
</g>
<!-- Node15 -->
<g id="node15" class="node">
<title>Node15</title>
<g id="a_node15"><a xlink:href="class_l_f_s_t_k__gadget_class_a9f37719f8d8e0bc1163ea2781b6002af.xhtml#a9f37719f8d8e0bc1163ea2781b6002af" target="_top" xlink:title=" ">
<polygon fill="none" stroke="#000000" points="349.2985,-300.134 349.2985,-332.134 464.2005,-332.134 464.2005,-300.134 349.2985,-300.134"/>
<text text-anchor="start" x="357.2985" y="-319.134" font-family="Helvetica,sans-Serif" font-size="10.00" fill="#000000">LFSTK_gadgetClass::</text>
<text text-anchor="middle" x="406.7495" y="-307.134" font-family="Helvetica,sans-Serif" font-size="10.00" fill="#000000">LFSTK_reloadColours</text>
</a>
</g>
</g>
<!-- Node1&#45;&gt;Node15 -->
<g id="edge21" class="edge">
<title>Node1&#45;&gt;Node15</title>
<path fill="none" stroke="#191970" d="M690.5919,-376.0663C674.3892,-371.2017 656.7863,-366.203 640.381,-362.134 580.7969,-347.3555 511.7248,-334.2438 464.2218,-325.838"/>
<polygon fill="#191970" stroke="#191970" points="689.8905,-379.5111 700.4761,-379.0683 691.9248,-372.8132 689.8905,-379.5111"/>
</g>
<!-- Node16 -->
<g id="node16" class="node">
<title>Node16</title>
<g id="a_node16"><a xlink:href="class_l_f_s_t_k__window_class_aa1cdaa019a010bb17387dd39b6165303.xhtml#aa1cdaa019a010bb17387dd39b6165303" target="_top" xlink:title=" ">
<polygon fill="none" stroke="#000000" points="512.4245,-136.134 512.4245,-168.134 628.9875,-168.134 628.9875,-136.134 512.4245,-136.134"/>
<text text-anchor="start" x="520.4245" y="-155.134" font-family="Helvetica,sans-Serif" font-size="10.00" fill="#000000">LFSTK_windowClass::</text>
<text text-anchor="middle" x="570.706" y="-143.134" font-family="Helvetica,sans-Serif" font-size="10.00" fill="#000000">loadGlobalColours</text>
</a>
</g>
</g>
<!-- Node1&#45;&gt;Node16 -->
<g id="edge25" class="edge">
<title>Node1&#45;&gt;Node16</title>
<path fill="none" stroke="#191970" d="M743.0009,-369.1956C729.5932,-325.4198 696.9602,-236.4465 640.381,-183.134 634.1177,-177.2324 626.5431,-172.3291 618.727,-168.2977"/>
<polygon fill="#191970" stroke="#191970" points="739.727,-370.4661 745.9279,-379.0568 746.4376,-368.4742 739.727,-370.4661"/>
</g>
<!-- Node19 -->
<g id="node19" class="node">
<title>Node19</title>
<g id="a_node19"><a xlink:href="class_l_f_s_t_k__tool_window_class_a230084a0461e204e39cea42ad1f10301.xhtml#a230084a0461e204e39cea42ad1f10301" target="_top" xlink:title=" ">
<polygon fill="none" stroke="#000000" points="174.794,-59.134 174.794,-91.134 308.573,-91.134 308.573,-59.134 174.794,-59.134"/>
<text text-anchor="start" x="182.794" y="-78.134" font-family="Helvetica,sans-Serif" font-size="10.00" fill="#000000">LFSTK_toolWindowClass</text>
<text text-anchor="middle" x="241.6835" y="-66.134" font-family="Helvetica,sans-Serif" font-size="10.00" fill="#000000">::windowClassInitCommon</text>
</a>
</g>
</g>
<!-- Node1&#45;&gt;Node19 -->
<g id="edge37" class="edge">
<title>Node1&#45;&gt;Node19</title>
<path fill="none" stroke="#191970" d="M747.2877,-368.8239C739.8189,-314.8624 715.0755,-191.2717 640.381,-126.134 548.4743,-45.9864 396.2622,-51.4948 308.9011,-63.0648"/>
<polygon fill="#191970" stroke="#191970" points="743.8426,-369.4747 748.5961,-378.9433 750.7848,-368.5771 743.8426,-369.4747"/>
</g>
<!-- Node21 -->
<g id="node21" class="node">
<title>Node21</title>
<g id="a_node21"><a xlink:href="class_l_f_s_t_k__window_class_a7d01ee5bb6c3fef9aa9b55323c04f90c.xhtml#a7d01ee5bb6c3fef9aa9b55323c04f90c" target="_top" xlink:title=" ">
<polygon fill="none" stroke="#000000" points="177.573,-8.134 177.573,-40.134 305.794,-40.134 305.794,-8.134 177.573,-8.134"/>
<text text-anchor="start" x="185.573" y="-27.134" font-family="Helvetica,sans-Serif" font-size="10.00" fill="#000000">LFSTK_windowClass::</text>
<text text-anchor="middle" x="241.6835" y="-15.134" font-family="Helvetica,sans-Serif" font-size="10.00" fill="#000000">windowClassInitCommon</text>
</a>
</g>
</g>
<!-- Node1&#45;&gt;Node21 -->
<g id="edge38" class="edge">
<title>Node1&#45;&gt;Node21</title>
<path fill="none" stroke="#191970" d="M745.3881,-368.801C731.6379,-297.0392 690.1033,-100.7536 640.381,-61.134 544.6951,15.1101 392.1304,4.0068 306.1219,-10.3784"/>
<polygon fill="#191970" stroke="#191970" points="741.9872,-369.654 747.2834,-378.8301 748.8655,-368.3541 741.9872,-369.654"/>
</g>
<!-- Node25 -->
<g id="node25" class="node">
<title>Node25</title>
<g id="a_node25"><a xlink:href="class_l_f_s_t_k__list_gadget_class_ad9b006620b5e9712da9b0ee3ead405de.xhtml#ad9b006620b5e9712da9b0ee3ead405de" target="_top" xlink:title=" ">
<polygon fill="none" stroke="#000000" points="509.365,-226.134 509.365,-258.134 632.047,-258.134 632.047,-226.134 509.365,-226.134"/>
<text text-anchor="start" x="517.365" y="-245.134" font-family="Helvetica,sans-Serif" font-size="10.00" fill="#000000">LFSTK_listGadgetClass</text>
<text text-anchor="middle" x="570.706" y="-233.134" font-family="Helvetica,sans-Serif" font-size="10.00" fill="#000000">::select</text>
</a>
</g>
</g>
<!-- Node1&#45;&gt;Node25 -->
<g id="edge35" class="edge">
<title>Node1&#45;&gt;Node25</title>
<path fill="none" stroke="#191970" d="M734.8254,-370.4244C715.8492,-341.8495 681.0778,-295.158 640.381,-267.134 635.512,-263.7813 630.1432,-260.8262 624.6114,-258.2342"/>
<polygon fill="#191970" stroke="#191970" points="732.0307,-372.5468 740.419,-379.0188 737.8975,-368.7283 732.0307,-372.5468"/>
</g>
<!-- Node3 -->
<g id="node3" class="node">
<title>Node3</title>
<g id="a_node3"><a xlink:href="class_l_f_s_t_k__gadget_class_a13d0e1c40a4feae0531c0ce9188bcd62.xhtml#a13d0e1c40a4feae0531c0ce9188bcd62" target="_top" xlink:title=" ">
<polygon fill="none" stroke="#000000" points="349.848,-519.134 349.848,-551.134 463.651,-551.134 463.651,-519.134 349.848,-519.134"/>
<text text-anchor="start" x="357.848" y="-538.134" font-family="Helvetica,sans-Serif" font-size="10.00" fill="#000000">LFSTK_gadgetClass::</text>
<text text-anchor="middle" x="406.7495" y="-526.134" font-family="Helvetica,sans-Serif" font-size="10.00" fill="#000000">LFSTK_setCommon</text>
</a>
</g>
</g>
<!-- Node2&#45;&gt;Node3 -->
<g id="edge2" class="edge">
<title>Node2&#45;&gt;Node3</title>
<path fill="none" stroke="#191970" d="M503.0345,-535.134C489.9909,-535.134 476.4487,-535.134 463.7843,-535.134"/>
<polygon fill="#191970" stroke="#191970" points="503.362,-538.6341 513.362,-535.134 503.3619,-531.6341 503.362,-538.6341"/>
</g>
<!-- Node3&#45;&gt;Node4 -->
<g id="edge3" class="edge">
<title>Node3&#45;&gt;Node4</title>
<path fill="none" stroke="#191970" d="M397.7111,-560.843C384.3037,-595.4118 355.9518,-656.6273 312.468,-692.134 307.9253,-695.8434 302.7924,-699.0212 297.4173,-701.7397"/>
<polygon fill="#191970" stroke="#191970" points="401.0049,-562.0274 401.2449,-551.4353 394.452,-559.5659 401.0049,-562.0274"/>
</g>
<!-- Node3&#45;&gt;Node5 -->
<g id="edge4" class="edge">
<title>Node3&#45;&gt;Node5</title>
<path fill="none" stroke="#191970" d="M339.393,-531.9578C279.0667,-529.113 191.2011,-524.9697 131.8093,-522.169"/>
<polygon fill="#191970" stroke="#191970" points="339.4218,-535.4629 349.5756,-532.4379 339.7516,-528.4707 339.4218,-535.4629"/>
</g>
<!-- Node6 -->
<g id="node6" class="node">
<title>Node6</title>
<g id="a_node6"><a xlink:href="class_l_f_s_t_k__image_class_aff24b6452cb0a5d821b81770aa8f58d5.xhtml#aff24b6452cb0a5d821b81770aa8f58d5" target="_top" xlink:title=" ">
<polygon fill="none" stroke="#000000" points="170.899,-548.134 170.899,-580.134 312.468,-580.134 312.468,-548.134 170.899,-548.134"/>
<text text-anchor="start" x="178.899" y="-567.134" font-family="Helvetica,sans-Serif" font-size="10.00" fill="#000000">LFSTK_imageClass::LFSTK</text>
<text text-anchor="middle" x="241.6835" y="-555.134" font-family="Helvetica,sans-Serif" font-size="10.00" fill="#000000">_imageClass</text>
</a>
</g>
</g>
<!-- Node3&#45;&gt;Node6 -->
<g id="edge5" class="edge">
<title>Node3&#45;&gt;Node6</title>
<path fill="none" stroke="#191970" d="M339.5523,-546.9397C330.645,-548.5046 321.4908,-550.1129 312.5245,-551.6882"/>
<polygon fill="#191970" stroke="#191970" points="340.2372,-550.3731 349.4807,-545.1954 339.0259,-543.4787 340.2372,-550.3731"/>
</g>
<!-- Node3&#45;&gt;Node7 -->
<g id="edge6" class="edge">
<title>Node3&#45;&gt;Node7</title>
<path fill="none" stroke="#191970" d="M390.31,-559.9741C373.3696,-583.8161 344.9144,-619.3306 312.468,-641.134 307.492,-644.4778 302.0188,-647.4272 296.3877,-650.0158"/>
<polygon fill="#191970" stroke="#191970" points="393.393,-561.6707 396.2231,-551.4608 387.6437,-557.6774 393.393,-561.6707"/>
</g>
<!-- Node3&#45;&gt;Node8 -->
<g id="edge7" class="edge">
<title>Node3&#45;&gt;Node8</title>
<path fill="none" stroke="#191970" d="M366.4702,-555.8868C360.3827,-559.2162 354.2193,-562.6989 348.468,-566.134 331.959,-575.9946 329.6666,-581.5324 312.468,-590.134 306.057,-593.3404 299.1335,-596.323 292.2135,-599.0299"/>
<polygon fill="#191970" stroke="#191970" points="368.1341,-558.9661 375.278,-551.142 364.8142,-552.8034 368.1341,-558.9661"/>
</g>
<!-- Node3&#45;&gt;Node9 -->
<g id="edge8" class="edge">
<title>Node3&#45;&gt;Node9</title>
<path fill="none" stroke="#191970" d="M402.466,-508.7352C393.5149,-460.9787 368.7935,-359.2553 312.468,-295.134 304.2268,-285.7522 293.1605,-278.18 282.2294,-272.293"/>
<polygon fill="#191970" stroke="#191970" points="399.0725,-509.6417 404.2781,-518.8695 405.9632,-508.4095 399.0725,-509.6417"/>
</g>
<!-- Node3&#45;&gt;Node10 -->
<g id="edge9" class="edge">
<title>Node3&#45;&gt;Node10</title>
<path fill="none" stroke="#191970" d="M353.769,-515.5551C331.5767,-507.354 306.1001,-497.9391 285.0493,-490.1598"/>
<polygon fill="#191970" stroke="#191970" points="352.7871,-518.9236 363.3804,-519.107 355.2136,-512.3576 352.7871,-518.9236"/>
</g>
<!-- Node3&#45;&gt;Node11 -->
<g id="edge10" class="edge">
<title>Node3&#45;&gt;Node11</title>
<path fill="none" stroke="#191970" d="M385.7255,-511.4232C367.8229,-492.4268 340.5956,-466.2153 312.468,-449.134 306.3135,-445.3965 299.5363,-442.0649 292.6879,-439.1372"/>
<polygon fill="#191970" stroke="#191970" points="383.2112,-513.8593 392.5722,-518.8214 388.3487,-509.1047 383.2112,-513.8593"/>
</g>
<!-- Node3&#45;&gt;Node12 -->
<g id="edge11" class="edge">
<title>Node3&#45;&gt;Node12</title>
<path fill="none" stroke="#191970" d="M395.2492,-509.6202C380.2802,-479.0914 351.3667,-428.3253 312.468,-398.134 307.6072,-394.3613 302.1453,-391.0975 296.4669,-388.2829"/>
<polygon fill="#191970" stroke="#191970" points="392.1493,-511.251 399.6143,-518.7693 398.4671,-508.2367 392.1493,-511.251"/>
</g>
<!-- Node3&#45;&gt;Node13 -->
<g id="edge12" class="edge">
<title>Node3&#45;&gt;Node13</title>
<path fill="none" stroke="#191970" d="M396.6464,-509.4574C378.1786,-463.6301 338.4829,-370.3676 312.468,-347.134 308.1716,-343.297 303.2611,-340.0109 298.0744,-337.1996"/>
<polygon fill="#191970" stroke="#191970" points="393.4953,-511.004 400.4571,-518.9904 399.9952,-508.4057 393.4953,-511.004"/>
</g>
<!-- Node15&#45;&gt;Node9 -->
<g id="edge22" class="edge">
<title>Node15&#45;&gt;Node9</title>
<path fill="none" stroke="#191970" d="M353.0709,-296.6223C331.2915,-288.7057 306.4454,-279.6744 285.7538,-272.1532"/>
<polygon fill="#191970" stroke="#191970" points="351.9208,-299.9283 362.5148,-300.0551 354.3122,-293.3494 351.9208,-299.9283"/>
</g>
<!-- Node17 -->
<g id="node17" class="node">
<title>Node17</title>
<g id="a_node17"><a xlink:href="class_l_f_s_t_k__window_class_a36491159cf4fdc3c5d0909b2195af9ab.xhtml#a36491159cf4fdc3c5d0909b2195af9ab" target="_top" xlink:title=" ">
<polygon fill="none" stroke="#000000" points="348.468,-91.134 348.468,-123.134 465.031,-123.134 465.031,-91.134 348.468,-91.134"/>
<text text-anchor="start" x="356.468" y="-110.134" font-family="Helvetica,sans-Serif" font-size="10.00" fill="#000000">LFSTK_windowClass::</text>
<text text-anchor="middle" x="406.7495" y="-98.134" font-family="Helvetica,sans-Serif" font-size="10.00" fill="#000000">initWindow</text>
</a>
</g>
</g>
<!-- Node16&#45;&gt;Node17 -->
<g id="edge26" class="edge">
<title>Node16&#45;&gt;Node17</title>
<path fill="none" stroke="#191970" d="M502.1906,-133.3291C489.8483,-129.9416 477.0873,-126.4392 465.0684,-123.1404"/>
<polygon fill="#191970" stroke="#191970" points="501.4073,-136.7435 511.977,-136.0151 503.26,-129.9931 501.4073,-136.7435"/>
</g>
<!-- Node23 -->
<g id="node23" class="node">
<title>Node23</title>
<g id="a_node23"><a xlink:href="class_l_f_s_t_k__window_class_a22d62c1b464c98923d43cd3851362856.xhtml#a22d62c1b464c98923d43cd3851362856" target="_top" xlink:title=" ">
<polygon fill="none" stroke="#000000" points="348.468,-142.134 348.468,-174.134 465.031,-174.134 465.031,-142.134 348.468,-142.134"/>
<text text-anchor="start" x="356.468" y="-161.134" font-family="Helvetica,sans-Serif" font-size="10.00" fill="#000000">LFSTK_windowClass::</text>
<text text-anchor="middle" x="406.7495" y="-149.134" font-family="Helvetica,sans-Serif" font-size="10.00" fill="#000000">LFSTK_reloadGlobals</text>
</a>
</g>
</g>
<!-- Node16&#45;&gt;Node23 -->
<g id="edge32" class="edge">
<title>Node16&#45;&gt;Node23</title>
<path fill="none" stroke="#191970" d="M501.8239,-154.6548C489.5956,-155.1023 476.9683,-155.5644 465.0684,-155.9999"/>
<polygon fill="#191970" stroke="#191970" points="502.1118,-158.1467 511.977,-154.2832 501.8557,-151.1514 502.1118,-158.1467"/>
</g>
<!-- Node18 -->
<g id="node18" class="node">
<title>Node18</title>
<g id="a_node18"><a xlink:href="class_l_f_s_t_k__window_class_a66ca01b66ccc729d2cb8bad8ea5cc709.xhtml#a66ca01b66ccc729d2cb8bad8ea5cc709" target="_top" xlink:title=" ">
<polygon fill="none" stroke="#000000" points="183.402,-110.134 183.402,-142.134 299.965,-142.134 299.965,-110.134 183.402,-110.134"/>
<text text-anchor="start" x="191.402" y="-129.134" font-family="Helvetica,sans-Serif" font-size="10.00" fill="#000000">LFSTK_windowClass::</text>
<text text-anchor="middle" x="241.6835" y="-117.134" font-family="Helvetica,sans-Serif" font-size="10.00" fill="#000000">LFSTK_windowClass</text>
</a>
</g>
</g>
<!-- Node17&#45;&gt;Node18 -->
<g id="edge27" class="edge">
<title>Node17&#45;&gt;Node18</title>
<path fill="none" stroke="#191970" d="M338.095,-115.0365C325.4857,-116.4879 312.4315,-117.9906 300.1555,-119.4036"/>
<polygon fill="#191970" stroke="#191970" points="338.5545,-118.5069 348.0886,-113.8862 337.754,-111.5528 338.5545,-118.5069"/>
</g>
<!-- Node17&#45;&gt;Node19 -->
<g id="edge28" class="edge">
<title>Node17&#45;&gt;Node19</title>
<path fill="none" stroke="#191970" d="M338.0549,-93.8168C328.3118,-91.928 318.3039,-89.9878 308.5954,-88.1057"/>
<polygon fill="#191970" stroke="#191970" points="337.6053,-97.2947 348.0886,-95.7619 338.9375,-90.4226 337.6053,-97.2947"/>
</g>
<!-- Node17&#45;&gt;Node21 -->
<g id="edge30" class="edge">
<title>Node17&#45;&gt;Node21</title>
<path fill="none" stroke="#191970" d="M374.6925,-85.0578C356.8847,-73.4052 334.0287,-59.4299 312.468,-49.134 305.7643,-45.9329 298.5367,-42.9178 291.3508,-40.1647"/>
<polygon fill="#191970" stroke="#191970" points="373.243,-88.2963 383.511,-90.9078 377.1127,-82.4631 373.243,-88.2963"/>
</g>
<!-- Node20 -->
<g id="node20" class="node">
<title>Node20</title>
<g id="a_node20"><a xlink:href="class_l_f_s_t_k__tool_window_class_ad9d85cbc29eafc7793e12bcc9c268bf5.xhtml#ad9d85cbc29eafc7793e12bcc9c268bf5" target="_top" xlink:title=" ">
<polygon fill="none" stroke="#000000" points="0,-59.134 0,-91.134 134.899,-91.134 134.899,-59.134 0,-59.134"/>
<text text-anchor="start" x="8" y="-78.134" font-family="Helvetica,sans-Serif" font-size="10.00" fill="#000000">LFSTK_toolWindowClass</text>
<text text-anchor="middle" x="67.4495" y="-66.134" font-family="Helvetica,sans-Serif" font-size="10.00" fill="#000000">::LFSTK_toolWindowClass</text>
</a>
</g>
</g>
<!-- Node19&#45;&gt;Node20 -->
<g id="edge29" class="edge">
<title>Node19&#45;&gt;Node20</title>
<path fill="none" stroke="#191970" d="M164.2201,-75.134C154.4512,-75.134 144.5183,-75.134 134.921,-75.134"/>
<polygon fill="#191970" stroke="#191970" points="164.3201,-78.6341 174.3201,-75.134 164.3201,-71.6341 164.3201,-78.6341"/>
</g>
<!-- Node22 -->
<g id="node22" class="node">
<title>Node22</title>
<g id="a_node22"><a xlink:href="class_l_f_s_t_k__window_class_afcd2c5e43ab2a1110d5b4e54b24ce47a.xhtml#afcd2c5e43ab2a1110d5b4e54b24ce47a" target="_top" xlink:title=" ">
<polygon fill="none" stroke="#000000" points="9.168,-8.134 9.168,-40.134 125.731,-40.134 125.731,-8.134 9.168,-8.134"/>
<text text-anchor="start" x="17.168" y="-27.134" font-family="Helvetica,sans-Serif" font-size="10.00" fill="#000000">LFSTK_windowClass::</text>
<text text-anchor="middle" x="67.4495" y="-15.134" font-family="Helvetica,sans-Serif" font-size="10.00" fill="#000000">LFSTK_windowClass</text>
</a>
</g>
</g>
<!-- Node21&#45;&gt;Node22 -->
<g id="edge31" class="edge">
<title>Node21&#45;&gt;Node22</title>
<path fill="none" stroke="#191970" d="M167.2978,-24.134C153.4258,-24.134 139.1137,-24.134 125.8095,-24.134"/>
<polygon fill="#191970" stroke="#191970" points="167.3003,-27.6341 177.3002,-24.134 167.3002,-20.6341 167.3003,-27.6341"/>
</g>
<!-- Node24 -->
<g id="node24" class="node">
<title>Node24</title>
<g id="a_node24"><a xlink:href="class_l_f_s_t_k__font_dialog_class_af866eb2b1ba8178c9cf3e751716fcc8e.xhtml#af866eb2b1ba8178c9cf3e751716fcc8e" target="_top" xlink:title=" ">
<polygon fill="none" stroke="#000000" points="180.343,-183.134 180.343,-215.134 303.024,-215.134 303.024,-183.134 180.343,-183.134"/>
<text text-anchor="start" x="188.343" y="-202.134" font-family="Helvetica,sans-Serif" font-size="10.00" fill="#000000">LFSTK_fontDialogClass</text>
<text text-anchor="middle" x="241.6835" y="-190.134" font-family="Helvetica,sans-Serif" font-size="10.00" fill="#000000">::buildDialog</text>
</a>
</g>
</g>
<!-- Node23&#45;&gt;Node24 -->
<g id="edge33" class="edge">
<title>Node23&#45;&gt;Node24</title>
<path fill="none" stroke="#191970" d="M338.0571,-175.1962C326.506,-178.0654 314.5825,-181.027 303.2268,-183.8476"/>
<polygon fill="#191970" stroke="#191970" points="339.2273,-178.512 348.0886,-172.7045 337.5398,-171.7184 339.2273,-178.512"/>
</g>
<!-- Node24&#45;&gt;Node5 -->
<g id="edge34" class="edge">
<title>Node24&#45;&gt;Node5</title>
<path fill="none" stroke="#191970" d="M182.0792,-220.5931C178.0082,-223.4139 174.2142,-226.5816 170.899,-230.134 94.1804,-312.3411 73.6506,-455.3632 68.8036,-503.1043"/>
<polygon fill="#191970" stroke="#191970" points="184.0589,-223.485 190.7597,-215.2782 180.4036,-217.5151 184.0589,-223.485"/>
</g>
<!-- Node25&#45;&gt;Node9 -->
<g id="edge36" class="edge">
<title>Node25&#45;&gt;Node9</title>
<path fill="none" stroke="#191970" d="M499.096,-245.1811C441.5611,-247.6292 361.4726,-251.037 305.9726,-253.3985"/>
<polygon fill="#191970" stroke="#191970" points="499.3632,-248.673 509.2054,-244.7509 499.0656,-241.6793 499.3632,-248.673"/>
</g>
</g>
</svg>
        <g id="navigator" transform="translate(0 0)" fill="#404254">
                <rect fill="#f2f5e9" fill-opacity="0.5" stroke="#606060" stroke-width=".5" x="0" y="0" width="60" height="60"/>
                <use id="zoomplus" xlink:href="#zoomPlus" x="17" y="9" onmousedown="handleZoom(evt,'in')"/>
                <use id="zoomminus" xlink:href="#zoomMin" x="42" y="9" onmousedown="handleZoom(evt,'out')"/>
                <use id="reset" xlink:href="#resetDef" x="30" y="36" onmousedown="handleReset()"/>
                <g id="arrowUp" xlink:href="#dirArrow" transform="translate(30 24)" onmousedown="handlePan(0,-1)">
                  <use xlink:href="#rim" fill="#404040">
                        <set attributeName="fill" to="#808080" begin="arrowUp.mouseover" end="arrowUp.mouseout"/>
                  </use>
                  <path fill="none" stroke="white" stroke-width="1.5" d="M0,-3.0v7 M-2.5,-0.5L0,-3.0L2.5,-0.5"/>
                </g>
                <g id="arrowRight" xlink:href="#dirArrow" transform="rotate(90) translate(36 -43)" onmousedown="handlePan(1,0)">
                  <use xlink:href="#rim" fill="#404040">
                        <set attributeName="fill" to="#808080" begin="arrowRight.mouseover" end="arrowRight.mouseout"/>
                  </use>
                  <path fill="none" stroke="white" stroke-width="1.5" d="M0,-3.0v7 M-2.5,-0.5L0,-3.0L2.5,-0.5"/>
                </g>
                <g id="arrowDown" xlink:href="#dirArrow" transform="rotate(180) translate(-30 -48)" onmousedown="handlePan(0,1)">
                  <use xlink:href="#rim" fill="#404040">
                        <set attributeName="fill" to="#808080" begin="arrowDown.mouseover" end="arrowDown.mouseout"/>
                  </use>
                  <path fill="none" stroke="white" stroke-width="1.5" d="M0,-3.0v7 M-2.5,-0.5L0,-3.0L2.5,-0.5"/>
                </g>
                <g id="arrowLeft" xlink:href="#dirArrow" transform="rotate(270) translate(-36 17)" onmousedown="handlePan(-1,0)">
                  <use xlink:href="#rim" fill="#404040">
                        <set attributeName="fill" to="#808080" begin="arrowLeft.mouseover" end="arrowLeft.mouseout"/>
                  </use>
                  <path fill="none" stroke="white" stroke-width="1.5" d="M0,-3.0v7 M-2.5,-0.5L0,-3.0L2.5,-0.5"/>
                </g>
        </g>
        <svg viewBox="0 0 15 15" width="100%" height="30px" preserveAspectRatio="xMaxYMin meet">
         <g id="arrow_out" transform="scale(0.3 0.3)">
          <a xlink:href="class_l_f_s_t_k__lib_a46aa104681d600dd4eb24549e813b5cc_a46aa104681d600dd4eb24549e813b5cc_icgraph_org.svg" target="_base">
           <rect id="button" ry="5" rx="5" y="6" x="6" height="38" width="38"
                fill="#f2f5e9" fill-opacity="0.5" stroke="#606060" stroke-width="1.0"/>
           <path id="arrow"
             d="M 11.500037,31.436501 C 11.940474,20.09759 22.043105,11.32322 32.158766,21.979434 L 37.068811,17.246167 C 37.068811,17.246167 37.088388,32 37.088388,32 L 22.160133,31.978069 C 22.160133,31.978069 26.997745,27.140456 26.997745,27.140456 C 18.528582,18.264221 13.291696,25.230495 11.500037,31.436501 z"
             style="fill:#404040;"/>
          </a>
         </g>
        </svg>
</svg>
