<?xml version="1.0" encoding="UTF-8" standalone="no"?>
<!DOCTYPE svg PUBLIC "-//W3C//DTD SVG 1.1//EN"
 "http://www.w3.org/Graphics/SVG/1.1/DTD/svg11.dtd">
<!-- Generated by graphviz version 2.40.1 (20161225.0304)
 -->
<!-- Title: LFSTK_windowClass::LFSTK_reloadGlobals Pages: 1 -->
<svg width="447pt" height="41pt"
 viewBox="0.00 0.00 447.48 41.00" xmlns="http://www.w3.org/2000/svg" xmlns:xlink="http://www.w3.org/1999/xlink">
<g id="graph0" class="graph" transform="scale(1 1) rotate(0) translate(4 37)">
<title>LFSTK_windowClass::LFSTK_reloadGlobals</title>
<!-- Node1 -->
<g id="node1" class="node">
<title>Node1</title>
<g id="a_node1"><a xlink:title=" ">
<polygon fill="#bfbfbf" stroke="#000000" points="322.92,-.5 322.92,-32.5 439.483,-32.5 439.483,-.5 322.92,-.5"/>
<text text-anchor="start" x="330.92" y="-19.5" font-family="Helvetica,sans-Serif" font-size="10.00" fill="#000000">LFSTK_windowClass::</text>
<text text-anchor="middle" x="381.2015" y="-7.5" font-family="Helvetica,sans-Serif" font-size="10.00" fill="#000000">LFSTK_reloadGlobals</text>
</a>
</g>
</g>
<!-- Node2 -->
<g id="node2" class="node">
<title>Node2</title>
<g id="a_node2"><a xlink:href="class_l_f_s_t_k__font_dialog_class_af866eb2b1ba8178c9cf3e751716fcc8e.xhtml#af866eb2b1ba8178c9cf3e751716fcc8e" target="_top" xlink:title=" ">
<polygon fill="none" stroke="#000000" points="164.239,-.5 164.239,-32.5 286.92,-32.5 286.92,-.5 164.239,-.5"/>
<text text-anchor="start" x="172.239" y="-19.5" font-family="Helvetica,sans-Serif" font-size="10.00" fill="#000000">LFSTK_fontDialogClass</text>
<text text-anchor="middle" x="225.5795" y="-7.5" font-family="Helvetica,sans-Serif" font-size="10.00" fill="#000000">::buildDialog</text>
</a>
</g>
</g>
<!-- Node1&#45;&gt;Node2 -->
<g id="edge1" class="edge">
<title>Node1&#45;&gt;Node2</title>
<path fill="none" stroke="#191970" d="M312.586,-16.5C304.1211,-16.5 295.509,-16.5 287.1579,-16.5"/>
<polygon fill="#191970" stroke="#191970" points="312.8109,-20.0001 322.8109,-16.5 312.8108,-13.0001 312.8109,-20.0001"/>
</g>
<!-- Node3 -->
<g id="node3" class="node">
<title>Node3</title>
<g id="a_node3"><a xlink:href="class_l_f_s_t_k__font_dialog_class_ab7b6a4bca99713646ab6ac77dc34827c.xhtml#ab7b6a4bca99713646ab6ac77dc34827c" target="_top" xlink:title=" ">
<polygon fill="none" stroke="#000000" points="0,-.5 0,-32.5 128.239,-32.5 128.239,-.5 0,-.5"/>
<text text-anchor="start" x="8" y="-19.5" font-family="Helvetica,sans-Serif" font-size="10.00" fill="#000000">LFSTK_fontDialogClass</text>
<text text-anchor="middle" x="64.1195" y="-7.5" font-family="Helvetica,sans-Serif" font-size="10.00" fill="#000000">::LFSTK_fontDialogClass</text>
</a>
</g>
</g>
<!-- Node2&#45;&gt;Node3 -->
<g id="edge2" class="edge">
<title>Node2&#45;&gt;Node3</title>
<path fill="none" stroke="#191970" d="M153.8365,-16.5C145.3653,-16.5 136.7604,-16.5 128.4012,-16.5"/>
<polygon fill="#191970" stroke="#191970" points="154.0778,-20.0001 164.0778,-16.5 154.0778,-13.0001 154.0778,-20.0001"/>
</g>
</g>
</svg>
