<?xml version="1.0" encoding="UTF-8" standalone="no"?>
<!DOCTYPE svg PUBLIC "-//W3C//DTD SVG 1.1//EN"
 "http://www.w3.org/Graphics/SVG/1.1/DTD/svg11.dtd">
<!-- Generated by graphviz version 2.40.1 (20161225.0304)
 -->
<!-- Title: LFSTK_gadgetClass::LFSTK_doPopUp Pages: 1 -->
<!--zoomable 363 -->
<svg id="main" version="1.1" xmlns="http://www.w3.org/2000/svg" xmlns:xlink="http://www.w3.org/1999/xlink" xml:space="preserve" onload="init(evt)">
<style type="text/css"><![CDATA[
.edge:hover path { stroke: red; }
.edge:hover polygon { stroke: red; fill: red; }
]]></style>
<script type="text/javascript"><![CDATA[
var edges = document.getElementsByTagName('g');
if (edges && edges.length) {
  for (var i=0;i<edges.length;i++) {
    if (edges[i].id.substr(0,4)=='edge') {
      edges[i].setAttribute('class','edge');
    }
  }
}
]]></script>
        <defs>
                <circle id="rim" cx="0" cy="0" r="7"/>
                <circle id="rim2" cx="0" cy="0" r="3.5"/>
                <g id="zoomPlus">
                        <use xlink:href="#rim" fill="#404040">
                                <set attributeName="fill" to="#808080" begin="zoomplus.mouseover" end="zoomplus.mouseout"/>
                        </use>
                        <path d="M-4,0h8M0,-4v8" fill="none" stroke="white" stroke-width="1.5" pointer-events="none"/>
                </g>
                <g id="zoomMin">
                        <use xlink:href="#rim" fill="#404040">
                                <set attributeName="fill" to="#808080" begin="zoomminus.mouseover" end="zoomminus.mouseout"/>
                        </use>
                        <path d="M-4,0h8" fill="none" stroke="white" stroke-width="1.5" pointer-events="none"/>
                </g>
                <g id="dirArrow">
                        <path fill="none" stroke="white" stroke-width="1.5" d="M0,-3.0v7 M-2.5,-0.5L0,-3.0L2.5,-0.5"/>
                </g>
               <g id="resetDef">
                       <use xlink:href="#rim2" fill="#404040">
                               <set attributeName="fill" to="#808080" begin="reset.mouseover" end="reset.mouseout"/>
                       </use>
               </g>
        </defs>

<script type="text/javascript">
var viewWidth = 1096;
var viewHeight = 363;
var sectionId = 'dynsection-0';
</script>
<script xlink:href="svgpan.js"/>
<svg id="graph" class="graph">
<g id="viewport">
<title>LFSTK_gadgetClass::LFSTK_doPopUp</title>
<!-- Node1 -->
<g id="node1" class="node">
<title>Node1</title>
<g id="a_node1"><a xlink:title=" ">
<polygon fill="#bfbfbf" stroke="#000000" points="0,-127.5 0,-159.5 113.803,-159.5 113.803,-127.5 0,-127.5"/>
<text text-anchor="start" x="8" y="-146.5" font-family="Helvetica,sans-Serif" font-size="10.00" fill="#000000">LFSTK_gadgetClass::</text>
<text text-anchor="middle" x="56.9015" y="-134.5" font-family="Helvetica,sans-Serif" font-size="10.00" fill="#000000">LFSTK_doPopUp</text>
</a>
</g>
</g>
<!-- Node2 -->
<g id="node2" class="node">
<title>Node2</title>
<g id="a_node2"><a xlink:href="class_l_f_s_t_k__window_class_ac3b5b99b3a018cce7c631df39db76be1.xhtml#ac3b5b99b3a018cce7c631df39db76be1" target="_top" xlink:title=" ">
<polygon fill="none" stroke="#000000" points="336.8425,-226.5 336.8425,-258.5 453.4055,-258.5 453.4055,-226.5 336.8425,-226.5"/>
<text text-anchor="start" x="344.8425" y="-245.5" font-family="Helvetica,sans-Serif" font-size="10.00" fill="#000000">LFSTK_windowClass::</text>
<text text-anchor="middle" x="395.124" y="-233.5" font-family="Helvetica,sans-Serif" font-size="10.00" fill="#000000">LFSTK_clearWindow</text>
</a>
</g>
</g>
<!-- Node1&#45;&gt;Node2 -->
<g id="edge1" class="edge">
<title>Node1&#45;&gt;Node2</title>
<path fill="none" stroke="#191970" d="M65.6631,-159.8793C79.6959,-184.1446 109.7568,-228.6908 149.803,-246.5 205.5389,-271.2866 275.6833,-267.091 326.6758,-258.5816"/>
<polygon fill="#191970" stroke="#191970" points="327.369,-262.0134 336.609,-256.8295 326.153,-255.1198 327.369,-262.0134"/>
</g>
<!-- Node12 -->
<g id="node12" class="node">
<title>Node12</title>
<g id="a_node12"><a xlink:href="class_l_f_s_t_k__window_class_a9e816b5a80a4022fe266445124bf429f.xhtml#a9e816b5a80a4022fe266445124bf429f" target="_top" xlink:title=" ">
<polygon fill="none" stroke="#000000" points="149.803,-102.5 149.803,-134.5 288.061,-134.5 288.061,-102.5 149.803,-102.5"/>
<text text-anchor="start" x="157.803" y="-121.5" font-family="Helvetica,sans-Serif" font-size="10.00" fill="#000000">LFSTK_windowClass::</text>
<text text-anchor="middle" x="218.932" y="-109.5" font-family="Helvetica,sans-Serif" font-size="10.00" fill="#000000">LFSTK_getMappedListener</text>
</a>
</g>
</g>
<!-- Node1&#45;&gt;Node12 -->
<g id="edge12" class="edge">
<title>Node1&#45;&gt;Node12</title>
<path fill="none" stroke="#191970" d="M114.0274,-134.6859C122.2788,-133.4128 130.8932,-132.0837 139.4842,-130.7582"/>
<polygon fill="#191970" stroke="#191970" points="140.1859,-134.1914 149.5352,-129.2074 139.1185,-127.2732 140.1859,-134.1914"/>
</g>
<!-- Node13 -->
<g id="node13" class="node">
<title>Node13</title>
<g id="a_node13"><a xlink:href="class_l_f_s_t_k__window_class_ab03c62046f64b173b9d1138592dee8c1.xhtml#ab03c62046f64b173b9d1138592dee8c1" target="_top" xlink:title=" ">
<polygon fill="none" stroke="#000000" points="160.6505,-51.5 160.6505,-83.5 277.2135,-83.5 277.2135,-51.5 160.6505,-51.5"/>
<text text-anchor="start" x="168.6505" y="-70.5" font-family="Helvetica,sans-Serif" font-size="10.00" fill="#000000">LFSTK_windowClass::</text>
<text text-anchor="middle" x="218.932" y="-58.5" font-family="Helvetica,sans-Serif" font-size="10.00" fill="#000000">LFSTK_hideWindow</text>
</a>
</g>
</g>
<!-- Node1&#45;&gt;Node13 -->
<g id="edge13" class="edge">
<title>Node1&#45;&gt;Node13</title>
<path fill="none" stroke="#191970" d="M83.5716,-127.4154C101.8424,-116.7585 126.8336,-102.8826 149.803,-92.5 153.6625,-90.7554 157.6831,-89.043 161.7582,-87.3838"/>
<polygon fill="#191970" stroke="#191970" points="163.2944,-90.5405 171.3155,-83.6186 160.7285,-84.0277 163.2944,-90.5405"/>
</g>
<!-- Node14 -->
<g id="node14" class="node">
<title>Node14</title>
<g id="a_node14"><a xlink:href="class_l_f_s_t_k__window_class_a933b11647301f675ebdbcba313ed03ab.xhtml#a933b11647301f675ebdbcba313ed03ab" target="_top" xlink:title=" ">
<polygon fill="none" stroke="#000000" points="160.6505,-204.5 160.6505,-236.5 277.2135,-236.5 277.2135,-204.5 160.6505,-204.5"/>
<text text-anchor="start" x="168.6505" y="-223.5" font-family="Helvetica,sans-Serif" font-size="10.00" fill="#000000">LFSTK_windowClass::</text>
<text text-anchor="middle" x="218.932" y="-211.5" font-family="Helvetica,sans-Serif" font-size="10.00" fill="#000000">LFSTK_moveWindow</text>
</a>
</g>
</g>
<!-- Node1&#45;&gt;Node14 -->
<g id="edge14" class="edge">
<title>Node1&#45;&gt;Node14</title>
<path fill="none" stroke="#191970" d="M84.0163,-159.7229C102.269,-170.3079 127.0673,-184.0483 149.803,-194.5 154.4176,-196.6214 159.2591,-198.7087 164.1469,-200.7218"/>
<polygon fill="#191970" stroke="#191970" points="162.9715,-204.0212 173.5559,-204.4909 165.5745,-197.5232 162.9715,-204.0212"/>
</g>
<!-- Node16 -->
<g id="node16" class="node">
<title>Node16</title>
<g id="a_node16"><a xlink:href="class_l_f_s_t_k__window_class_abec54e421d2e094da2214abfccebd361.xhtml#abec54e421d2e094da2214abfccebd361" target="_top" xlink:title=" ">
<polygon fill="none" stroke="#000000" points="160.6505,-153.5 160.6505,-185.5 277.2135,-185.5 277.2135,-153.5 160.6505,-153.5"/>
<text text-anchor="start" x="168.6505" y="-172.5" font-family="Helvetica,sans-Serif" font-size="10.00" fill="#000000">LFSTK_windowClass::</text>
<text text-anchor="middle" x="218.932" y="-160.5" font-family="Helvetica,sans-Serif" font-size="10.00" fill="#000000">LFSTK_resizeWindow</text>
</a>
</g>
</g>
<!-- Node1&#45;&gt;Node16 -->
<g id="edge17" class="edge">
<title>Node1&#45;&gt;Node16</title>
<path fill="none" stroke="#191970" d="M114.0274,-152.6666C125.7724,-154.5513 138.253,-156.5539 150.3543,-158.4958"/>
<polygon fill="#191970" stroke="#191970" points="149.9775,-161.98 160.4057,-160.1087 151.0866,-155.0684 149.9775,-161.98"/>
</g>
<!-- Node18 -->
<g id="node18" class="node">
<title>Node18</title>
<g id="a_node18"><a xlink:href="class_l_f_s_t_k__window_class_a7e8039be4b889bb5eaa51c297386195b.xhtml#a7e8039be4b889bb5eaa51c297386195b" target="_top" xlink:title=" ">
<polygon fill="none" stroke="#000000" points="160.6505,-.5 160.6505,-32.5 277.2135,-32.5 277.2135,-.5 160.6505,-.5"/>
<text text-anchor="start" x="168.6505" y="-19.5" font-family="Helvetica,sans-Serif" font-size="10.00" fill="#000000">LFSTK_windowClass::</text>
<text text-anchor="middle" x="218.932" y="-7.5" font-family="Helvetica,sans-Serif" font-size="10.00" fill="#000000">LFSTK_showWindow</text>
</a>
</g>
</g>
<!-- Node1&#45;&gt;Node18 -->
<g id="edge21" class="edge">
<title>Node1&#45;&gt;Node18</title>
<path fill="none" stroke="#191970" d="M67.6496,-127.4645C83.2934,-105.2575 114.3643,-65.204 149.803,-41.5 152.0622,-39.9889 154.4239,-38.5562 156.8555,-37.1993"/>
<polygon fill="#191970" stroke="#191970" points="158.5686,-40.255 165.9071,-32.6132 155.4048,-34.0107 158.5686,-40.255"/>
</g>
<!-- Node3 -->
<g id="node3" class="node">
<title>Node3</title>
<g id="a_node3"><a xlink:href="class_l_f_s_t_k__gadget_class_aa5b5f301fe9b0a4d7679f786da7462ba.xhtml#aa5b5f301fe9b0a4d7679f786da7462ba" target="_top" xlink:title=" ">
<polygon fill="none" stroke="#000000" points="502.187,-226.5 502.187,-258.5 615.99,-258.5 615.99,-226.5 502.187,-226.5"/>
<text text-anchor="start" x="510.187" y="-245.5" font-family="Helvetica,sans-Serif" font-size="10.00" fill="#000000">LFSTK_gadgetClass::</text>
<text text-anchor="middle" x="559.0885" y="-233.5" font-family="Helvetica,sans-Serif" font-size="10.00" fill="#000000">LFSTK_clearWindow</text>
</a>
</g>
</g>
<!-- Node2&#45;&gt;Node3 -->
<g id="edge2" class="edge">
<title>Node2&#45;&gt;Node3</title>
<path fill="none" stroke="#191970" d="M453.8558,-242.5C466.2546,-242.5 479.4268,-242.5 492.1037,-242.5"/>
<polygon fill="#191970" stroke="#191970" points="492.1399,-246.0001 502.1399,-242.5 492.1398,-239.0001 492.1399,-246.0001"/>
</g>
<!-- Node4 -->
<g id="node4" class="node">
<title>Node4</title>
<g id="a_node4"><a xlink:href="class_l_f_s_t_k__gadget_class_a66b92f213e5a7e75da3f707b511342ea.xhtml#a66b92f213e5a7e75da3f707b511342ea" target="_top" xlink:title=" ">
<polygon fill="none" stroke="#000000" points="651.99,-226.5 651.99,-258.5 765.793,-258.5 765.793,-226.5 651.99,-226.5"/>
<text text-anchor="start" x="659.99" y="-245.5" font-family="Helvetica,sans-Serif" font-size="10.00" fill="#000000">LFSTK_gadgetClass::</text>
<text text-anchor="middle" x="708.8915" y="-233.5" font-family="Helvetica,sans-Serif" font-size="10.00" fill="#000000">drawGagetDetails</text>
</a>
</g>
</g>
<!-- Node3&#45;&gt;Node4 -->
<g id="edge3" class="edge">
<title>Node3&#45;&gt;Node4</title>
<path fill="none" stroke="#191970" d="M616.1499,-242.5C624.5889,-242.5 633.3486,-242.5 641.9659,-242.5"/>
<polygon fill="#191970" stroke="#191970" points="641.9888,-246.0001 651.9887,-242.5 641.9887,-239.0001 641.9888,-246.0001"/>
</g>
<!-- Node5 -->
<g id="node5" class="node">
<title>Node5</title>
<g id="a_node5"><a xlink:href="class_l_f_s_t_k__gadget_class_a37d96aab3c59cb97fca1720441e3fc8e.xhtml#a37d96aab3c59cb97fca1720441e3fc8e" target="_top" xlink:title=" ">
<polygon fill="none" stroke="#000000" points="801.793,-322.5 801.793,-354.5 915.596,-354.5 915.596,-322.5 801.793,-322.5"/>
<text text-anchor="start" x="809.793" y="-341.5" font-family="Helvetica,sans-Serif" font-size="10.00" fill="#000000">LFSTK_gadgetClass::</text>
<text text-anchor="middle" x="858.6945" y="-329.5" font-family="Helvetica,sans-Serif" font-size="10.00" fill="#000000">clearBox</text>
</a>
</g>
</g>
<!-- Node4&#45;&gt;Node5 -->
<g id="edge4" class="edge">
<title>Node4&#45;&gt;Node5</title>
<path fill="none" stroke="#191970" d="M727.1681,-258.58C745.2582,-273.9716 774.1729,-297.1956 801.793,-313.5 804.4035,-315.041 807.1262,-316.5448 809.9053,-318.0011"/>
<polygon fill="#191970" stroke="#191970" points="808.3914,-321.1572 818.9037,-322.4777 811.5094,-314.8899 808.3914,-321.1572"/>
</g>
<!-- Node6 -->
<g id="node6" class="node">
<title>Node6</title>
<g id="a_node6"><a xlink:href="class_l_f_s_t_k__gadget_class_ab76db165a19af248b5e94e95492dc879.xhtml#ab76db165a19af248b5e94e95492dc879" target="_top" xlink:title=" ">
<polygon fill="none" stroke="#000000" points="962.9825,-248.5 962.9825,-280.5 1076.7855,-280.5 1076.7855,-248.5 962.9825,-248.5"/>
<text text-anchor="start" x="970.9825" y="-267.5" font-family="Helvetica,sans-Serif" font-size="10.00" fill="#000000">LFSTK_gadgetClass::</text>
<text text-anchor="middle" x="1019.884" y="-255.5" font-family="Helvetica,sans-Serif" font-size="10.00" fill="#000000">drawBevel</text>
</a>
</g>
</g>
<!-- Node4&#45;&gt;Node6 -->
<g id="edge5" class="edge">
<title>Node4&#45;&gt;Node6</title>
<path fill="none" stroke="#191970" d="M765.9323,-246.5351C818.675,-250.2662 897.0902,-255.8134 952.8129,-259.7553"/>
<polygon fill="#191970" stroke="#191970" points="952.7201,-263.2574 962.9421,-260.4719 953.2141,-256.2748 952.7201,-263.2574"/>
</g>
<!-- Node7 -->
<g id="node7" class="node">
<title>Node7</title>
<g id="a_node7"><a xlink:href="class_l_f_s_t_k__gadget_class_af5386ffc4699273f6c53a920fc8b2f1d.xhtml#af5386ffc4699273f6c53a920fc8b2f1d" target="_top" xlink:title=" ">
<polygon fill="none" stroke="#000000" points="801.793,-181.5 801.793,-213.5 915.596,-213.5 915.596,-181.5 801.793,-181.5"/>
<text text-anchor="start" x="809.793" y="-200.5" font-family="Helvetica,sans-Serif" font-size="10.00" fill="#000000">LFSTK_gadgetClass::</text>
<text text-anchor="middle" x="858.6945" y="-188.5" font-family="Helvetica,sans-Serif" font-size="10.00" fill="#000000">drawImage</text>
</a>
</g>
</g>
<!-- Node4&#45;&gt;Node7 -->
<g id="edge6" class="edge">
<title>Node4&#45;&gt;Node7</title>
<path fill="none" stroke="#191970" d="M762.5507,-226.3811C773.3296,-223.1432 784.7483,-219.713 795.8082,-216.3907"/>
<polygon fill="#191970" stroke="#191970" points="796.8397,-219.7354 805.4099,-213.5064 794.8258,-213.0314 796.8397,-219.7354"/>
</g>
<!-- Node8 -->
<g id="node8" class="node">
<title>Node8</title>
<g id="a_node8"><a xlink:href="class_l_f_s_t_k__gadget_class_af77235e4dc604470c9d62f101238225b.xhtml#af77235e4dc604470c9d62f101238225b" target="_top" xlink:title=" ">
<polygon fill="none" stroke="#000000" points="801.793,-271.5 801.793,-303.5 915.596,-303.5 915.596,-271.5 801.793,-271.5"/>
<text text-anchor="start" x="809.793" y="-290.5" font-family="Helvetica,sans-Serif" font-size="10.00" fill="#000000">LFSTK_gadgetClass::</text>
<text text-anchor="middle" x="858.6945" y="-278.5" font-family="Helvetica,sans-Serif" font-size="10.00" fill="#000000">drawIndicator</text>
</a>
</g>
</g>
<!-- Node4&#45;&gt;Node8 -->
<g id="edge7" class="edge">
<title>Node4&#45;&gt;Node8</title>
<path fill="none" stroke="#191970" d="M762.5507,-258.6189C773.3296,-261.8568 784.7483,-265.287 795.8082,-268.6093"/>
<polygon fill="#191970" stroke="#191970" points="794.8258,-271.9686 805.4099,-271.4936 796.8397,-265.2646 794.8258,-271.9686"/>
</g>
<!-- Node9 -->
<g id="node9" class="node">
<title>Node9</title>
<g id="a_node9"><a xlink:href="class_l_f_s_t_k__gadget_class_a7f44f781b167d66c5d6f4cc862a7e2db.xhtml#a7f44f781b167d66c5d6f4cc862a7e2db" target="_top" xlink:title=" ">
<polygon fill="none" stroke="#000000" points="801.793,-130.5 801.793,-162.5 915.596,-162.5 915.596,-130.5 801.793,-130.5"/>
<text text-anchor="start" x="809.793" y="-149.5" font-family="Helvetica,sans-Serif" font-size="10.00" fill="#000000">LFSTK_gadgetClass::</text>
<text text-anchor="middle" x="858.6945" y="-137.5" font-family="Helvetica,sans-Serif" font-size="10.00" fill="#000000">drawLabel</text>
</a>
</g>
</g>
<!-- Node4&#45;&gt;Node9 -->
<g id="edge9" class="edge">
<title>Node4&#45;&gt;Node9</title>
<path fill="none" stroke="#191970" d="M727.1681,-226.42C745.2582,-211.0284 774.1729,-187.8044 801.793,-171.5 804.4035,-169.959 807.1262,-168.4552 809.9053,-166.9989"/>
<polygon fill="#191970" stroke="#191970" points="811.5094,-170.1101 818.9037,-162.5223 808.3914,-163.8428 811.5094,-170.1101"/>
</g>
<!-- Node8&#45;&gt;Node6 -->
<g id="edge8" class="edge">
<title>Node8&#45;&gt;Node6</title>
<path fill="none" stroke="#191970" d="M915.9777,-279.3263C927.8545,-277.6316 940.4701,-275.8315 952.6655,-274.0914"/>
<polygon fill="#191970" stroke="#191970" points="953.3799,-277.525 962.7852,-272.6474 952.3911,-270.5951 953.3799,-277.525"/>
</g>
<!-- Node10 -->
<g id="node10" class="node">
<title>Node10</title>
<g id="a_node10"><a xlink:href="class_l_f_s_t_k__lib_ab2f14a3414f7db863682d1e2fa0cfb75.xhtml#ab2f14a3414f7db863682d1e2fa0cfb75" target="_top" xlink:title=" ">
<polygon fill="none" stroke="#000000" points="951.596,-136.5 951.596,-156.5 1088.172,-156.5 1088.172,-136.5 951.596,-136.5"/>
<text text-anchor="middle" x="1019.884" y="-143.5" font-family="Helvetica,sans-Serif" font-size="10.00" fill="#000000">LFSTK_lib::bestFontColour</text>
</a>
</g>
</g>
<!-- Node9&#45;&gt;Node10 -->
<g id="edge10" class="edge">
<title>Node9&#45;&gt;Node10</title>
<path fill="none" stroke="#191970" d="M915.9777,-146.5C924.2377,-146.5 932.8551,-146.5 941.44,-146.5"/>
<polygon fill="#191970" stroke="#191970" points="941.4795,-150.0001 951.4795,-146.5 941.4795,-143.0001 941.4795,-150.0001"/>
</g>
<!-- Node11 -->
<g id="node11" class="node">
<title>Node11</title>
<g id="a_node11"><a xlink:href="class_l_f_s_t_k__gadget_class_a091281ba03eaeb31bc7507c74b9b4f2f.xhtml#a091281ba03eaeb31bc7507c74b9b4f2f" target="_top" xlink:title=" ">
<polygon fill="none" stroke="#000000" points="962.428,-175.5 962.428,-207.5 1077.34,-207.5 1077.34,-175.5 962.428,-175.5"/>
<text text-anchor="start" x="970.428" y="-194.5" font-family="Helvetica,sans-Serif" font-size="10.00" fill="#000000">LFSTK_gadgetClass::</text>
<text text-anchor="middle" x="1019.884" y="-182.5" font-family="Helvetica,sans-Serif" font-size="10.00" fill="#000000">LFSTK_getTextHeight</text>
</a>
</g>
</g>
<!-- Node9&#45;&gt;Node11 -->
<g id="edge11" class="edge">
<title>Node9&#45;&gt;Node11</title>
<path fill="none" stroke="#191970" d="M915.9777,-162.492C927.9018,-165.8209 940.5708,-169.3578 952.8114,-172.775"/>
<polygon fill="#191970" stroke="#191970" points="951.9409,-176.1658 962.5138,-175.4837 953.8232,-169.4236 951.9409,-176.1658"/>
</g>
<!-- Node14&#45;&gt;Node2 -->
<g id="edge15" class="edge">
<title>Node14&#45;&gt;Node2</title>
<path fill="none" stroke="#191970" d="M277.6014,-227.8257C293.3525,-229.7924 310.5215,-231.9362 326.7494,-233.9625"/>
<polygon fill="#191970" stroke="#191970" points="326.3542,-237.4402 336.7108,-235.2063 327.2216,-230.4942 326.3542,-237.4402"/>
</g>
<!-- Node15 -->
<g id="node15" class="node">
<title>Node15</title>
<g id="a_node15"><a xlink:href="class_l_f_s_t_k__window_class_ac8c342109a0f8599f550475cef048745.xhtml#ac8c342109a0f8599f550475cef048745" target="_top" xlink:title=" ">
<polygon fill="none" stroke="#000000" points="336.8425,-175.5 336.8425,-207.5 453.4055,-207.5 453.4055,-175.5 336.8425,-175.5"/>
<text text-anchor="start" x="344.8425" y="-194.5" font-family="Helvetica,sans-Serif" font-size="10.00" fill="#000000">LFSTK_windowClass::</text>
<text text-anchor="middle" x="395.124" y="-182.5" font-family="Helvetica,sans-Serif" font-size="10.00" fill="#000000">setWindowGeom</text>
</a>
</g>
</g>
<!-- Node14&#45;&gt;Node15 -->
<g id="edge16" class="edge">
<title>Node14&#45;&gt;Node15</title>
<path fill="none" stroke="#191970" d="M277.6014,-210.8434C293.3525,-208.2509 310.5215,-205.425 326.7494,-202.754"/>
<polygon fill="#191970" stroke="#191970" points="327.412,-206.1921 336.7108,-201.1144 326.2751,-199.285 327.412,-206.1921"/>
</g>
<!-- Node16&#45;&gt;Node2 -->
<g id="edge18" class="edge">
<title>Node16&#45;&gt;Node2</title>
<path fill="none" stroke="#191970" d="M267.4187,-185.6242C274.4393,-188.364 281.5037,-191.3504 288.061,-194.5 304.9635,-202.6186 307.1737,-208.3499 324.061,-216.5 328.4164,-218.602 332.9887,-220.6371 337.6253,-222.5811"/>
<polygon fill="#191970" stroke="#191970" points="336.601,-225.9418 347.1843,-226.4356 339.2189,-219.4498 336.601,-225.9418"/>
</g>
<!-- Node16&#45;&gt;Node15 -->
<g id="edge20" class="edge">
<title>Node16&#45;&gt;Node15</title>
<path fill="none" stroke="#191970" d="M277.6014,-176.8257C293.3525,-178.7924 310.5215,-180.9362 326.7494,-182.9625"/>
<polygon fill="#191970" stroke="#191970" points="326.3542,-186.4402 336.7108,-184.2063 327.2216,-179.4942 326.3542,-186.4402"/>
</g>
<!-- Node17 -->
<g id="node17" class="node">
<title>Node17</title>
<g id="a_node17"><a xlink:href="class_l_f_s_t_k__lib_aa5e46eec51c9f1f2a86ef7e22d6cba5b.xhtml#aa5e46eec51c9f1f2a86ef7e22d6cba5b" target="_top" xlink:title=" ">
<polygon fill="none" stroke="#000000" points="324.061,-124.5 324.061,-156.5 466.187,-156.5 466.187,-124.5 324.061,-124.5"/>
<text text-anchor="start" x="332.061" y="-143.5" font-family="Helvetica,sans-Serif" font-size="10.00" fill="#000000">LFSTK_lib::LFSTK_setCairo</text>
<text text-anchor="middle" x="395.124" y="-131.5" font-family="Helvetica,sans-Serif" font-size="10.00" fill="#000000">Surface</text>
</a>
</g>
</g>
<!-- Node16&#45;&gt;Node17 -->
<g id="edge19" class="edge">
<title>Node16&#45;&gt;Node17</title>
<path fill="none" stroke="#191970" d="M277.6014,-159.8434C289.1762,-157.9383 301.5166,-155.9071 313.6867,-153.904"/>
<polygon fill="#191970" stroke="#191970" points="314.5501,-157.3091 323.8489,-152.2314 313.4132,-150.402 314.5501,-157.3091"/>
</g>
</g>
</svg>
        <g id="navigator" transform="translate(0 0)" fill="#404254">
                <rect fill="#f2f5e9" fill-opacity="0.5" stroke="#606060" stroke-width=".5" x="0" y="0" width="60" height="60"/>
                <use id="zoomplus" xlink:href="#zoomPlus" x="17" y="9" onmousedown="handleZoom(evt,'in')"/>
                <use id="zoomminus" xlink:href="#zoomMin" x="42" y="9" onmousedown="handleZoom(evt,'out')"/>
                <use id="reset" xlink:href="#resetDef" x="30" y="36" onmousedown="handleReset()"/>
                <g id="arrowUp" xlink:href="#dirArrow" transform="translate(30 24)" onmousedown="handlePan(0,-1)">
                  <use xlink:href="#rim" fill="#404040">
                        <set attributeName="fill" to="#808080" begin="arrowUp.mouseover" end="arrowUp.mouseout"/>
                  </use>
                  <path fill="none" stroke="white" stroke-width="1.5" d="M0,-3.0v7 M-2.5,-0.5L0,-3.0L2.5,-0.5"/>
                </g>
                <g id="arrowRight" xlink:href="#dirArrow" transform="rotate(90) translate(36 -43)" onmousedown="handlePan(1,0)">
                  <use xlink:href="#rim" fill="#404040">
                        <set attributeName="fill" to="#808080" begin="arrowRight.mouseover" end="arrowRight.mouseout"/>
                  </use>
                  <path fill="none" stroke="white" stroke-width="1.5" d="M0,-3.0v7 M-2.5,-0.5L0,-3.0L2.5,-0.5"/>
                </g>
                <g id="arrowDown" xlink:href="#dirArrow" transform="rotate(180) translate(-30 -48)" onmousedown="handlePan(0,1)">
                  <use xlink:href="#rim" fill="#404040">
                        <set attributeName="fill" to="#808080" begin="arrowDown.mouseover" end="arrowDown.mouseout"/>
                  </use>
                  <path fill="none" stroke="white" stroke-width="1.5" d="M0,-3.0v7 M-2.5,-0.5L0,-3.0L2.5,-0.5"/>
                </g>
                <g id="arrowLeft" xlink:href="#dirArrow" transform="rotate(270) translate(-36 17)" onmousedown="handlePan(-1,0)">
                  <use xlink:href="#rim" fill="#404040">
                        <set attributeName="fill" to="#808080" begin="arrowLeft.mouseover" end="arrowLeft.mouseout"/>
                  </use>
                  <path fill="none" stroke="white" stroke-width="1.5" d="M0,-3.0v7 M-2.5,-0.5L0,-3.0L2.5,-0.5"/>
                </g>
        </g>
        <svg viewBox="0 0 15 15" width="100%" height="30px" preserveAspectRatio="xMaxYMin meet">
         <g id="arrow_out" transform="scale(0.3 0.3)">
          <a xlink:href="class_l_f_s_t_k__gadget_class_a2a450a6784d5743e14340cc8ebd05d15_a2a450a6784d5743e14340cc8ebd05d15_cgraph_org.svg" target="_base">
           <rect id="button" ry="5" rx="5" y="6" x="6" height="38" width="38"
                fill="#f2f5e9" fill-opacity="0.5" stroke="#606060" stroke-width="1.0"/>
           <path id="arrow"
             d="M 11.500037,31.436501 C 11.940474,20.09759 22.043105,11.32322 32.158766,21.979434 L 37.068811,17.246167 C 37.068811,17.246167 37.088388,32 37.088388,32 L 22.160133,31.978069 C 22.160133,31.978069 26.997745,27.140456 26.997745,27.140456 C 18.528582,18.264221 13.291696,25.230495 11.500037,31.436501 z"
             style="fill:#404040;"/>
          </a>
         </g>
        </svg>
</svg>
