<?xml version="1.0" encoding="UTF-8" standalone="no"?>
<!DOCTYPE svg PUBLIC "-//W3C//DTD SVG 1.1//EN"
 "http://www.w3.org/Graphics/SVG/1.1/DTD/svg11.dtd">
<!-- Generated by graphviz version 2.40.1 (20161225.0304)
 -->
<!-- Title: LFSTK_listGadgetClass::freeList Pages: 1 -->
<svg width="935pt" height="143pt"
 viewBox="0.00 0.00 934.89 143.00" xmlns="http://www.w3.org/2000/svg" xmlns:xlink="http://www.w3.org/1999/xlink">
<g id="graph0" class="graph" transform="scale(1 1) rotate(0) translate(4 139)">
<title>LFSTK_listGadgetClass::freeList</title>
<!-- Node1 -->
<g id="node1" class="node">
<title>Node1</title>
<g id="a_node1"><a xlink:title=" ">
<polygon fill="#bfbfbf" stroke="#000000" points="804.209,-51.5 804.209,-83.5 926.891,-83.5 926.891,-51.5 804.209,-51.5"/>
<text text-anchor="start" x="812.209" y="-70.5" font-family="Helvetica,sans-Serif" font-size="10.00" fill="#000000">LFSTK_listGadgetClass</text>
<text text-anchor="middle" x="865.55" y="-58.5" font-family="Helvetica,sans-Serif" font-size="10.00" fill="#000000">::freeList</text>
</a>
</g>
</g>
<!-- Node2 -->
<g id="node2" class="node">
<title>Node2</title>
<g id="a_node2"><a xlink:href="class_l_f_s_t_k__list_gadget_class_a6278408a30d28222d650971c5a535d50.xhtml#a6278408a30d28222d650971c5a535d50" target="_top" xlink:title=" ">
<polygon fill="none" stroke="#000000" points="639.8285,-102.5 639.8285,-134.5 762.5105,-134.5 762.5105,-102.5 639.8285,-102.5"/>
<text text-anchor="start" x="647.8285" y="-121.5" font-family="Helvetica,sans-Serif" font-size="10.00" fill="#000000">LFSTK_listGadgetClass</text>
<text text-anchor="middle" x="701.1695" y="-109.5" font-family="Helvetica,sans-Serif" font-size="10.00" fill="#000000">::LFSTK_freeList</text>
</a>
</g>
</g>
<!-- Node1&#45;&gt;Node2 -->
<g id="edge1" class="edge">
<title>Node1&#45;&gt;Node2</title>
<path fill="none" stroke="#191970" d="M803.8155,-86.6535C787.023,-91.8634 769.014,-97.4508 752.8422,-102.4683"/>
<polygon fill="#191970" stroke="#191970" points="805.0252,-89.9428 813.539,-83.6367 802.9509,-83.2572 805.0252,-89.9428"/>
</g>
<!-- Node8 -->
<g id="node8" class="node">
<title>Node8</title>
<g id="a_node8"><a xlink:href="class_l_f_s_t_k__list_gadget_class_addcdb5ba330fd8dd36beb94ea2081dd3.xhtml#addcdb5ba330fd8dd36beb94ea2081dd3" target="_top" xlink:title=" ">
<polygon fill="none" stroke="#000000" points="637.89,-51.5 637.89,-83.5 764.449,-83.5 764.449,-51.5 637.89,-51.5"/>
<text text-anchor="start" x="645.89" y="-70.5" font-family="Helvetica,sans-Serif" font-size="10.00" fill="#000000">LFSTK_listGadgetClass</text>
<text text-anchor="middle" x="701.1695" y="-58.5" font-family="Helvetica,sans-Serif" font-size="10.00" fill="#000000">::LFSTK_setListFromFile</text>
</a>
</g>
</g>
<!-- Node1&#45;&gt;Node8 -->
<g id="edge8" class="edge">
<title>Node1&#45;&gt;Node8</title>
<path fill="none" stroke="#191970" d="M793.8192,-67.5C784.0798,-67.5 774.1412,-67.5 764.5625,-67.5"/>
<polygon fill="#191970" stroke="#191970" points="793.8731,-71.0001 803.8731,-67.5 793.8731,-64.0001 793.8731,-71.0001"/>
</g>
<!-- Node9 -->
<g id="node9" class="node">
<title>Node9</title>
<g id="a_node9"><a xlink:href="class_l_f_s_t_k__list_gadget_class_a29f6fcfb198871ecb81efe9398835bfe.xhtml#a29f6fcfb198871ecb81efe9398835bfe" target="_top" xlink:title=" ">
<polygon fill="none" stroke="#000000" points="634.13,-.5 634.13,-32.5 768.209,-32.5 768.209,-.5 634.13,-.5"/>
<text text-anchor="start" x="642.13" y="-19.5" font-family="Helvetica,sans-Serif" font-size="10.00" fill="#000000">LFSTK_listGadgetClass</text>
<text text-anchor="middle" x="701.1695" y="-7.5" font-family="Helvetica,sans-Serif" font-size="10.00" fill="#000000">::~LFSTK_listGadgetClass</text>
</a>
</g>
</g>
<!-- Node1&#45;&gt;Node9 -->
<g id="edge9" class="edge">
<title>Node1&#45;&gt;Node9</title>
<path fill="none" stroke="#191970" d="M803.8155,-48.3465C787.023,-43.1366 769.014,-37.5492 752.8422,-32.5317"/>
<polygon fill="#191970" stroke="#191970" points="802.9509,-51.7428 813.539,-51.3633 805.0252,-45.0572 802.9509,-51.7428"/>
</g>
<!-- Node3 -->
<g id="node3" class="node">
<title>Node3</title>
<g id="a_node3"><a xlink:href="class_l_f_s_t_k__file_dialog_class_a0a6b4f1db71031bf35a7636b736e8698.xhtml#a0a6b4f1db71031bf35a7636b736e8698" target="_top" xlink:title=" ">
<polygon fill="none" stroke="#000000" points="479.349,-102.5 479.349,-134.5 598.13,-134.5 598.13,-102.5 479.349,-102.5"/>
<text text-anchor="start" x="487.349" y="-121.5" font-family="Helvetica,sans-Serif" font-size="10.00" fill="#000000">LFSTK_fileDialogClass</text>
<text text-anchor="middle" x="538.7395" y="-109.5" font-family="Helvetica,sans-Serif" font-size="10.00" fill="#000000">::getFileList</text>
</a>
</g>
</g>
<!-- Node2&#45;&gt;Node3 -->
<g id="edge2" class="edge">
<title>Node2&#45;&gt;Node3</title>
<path fill="none" stroke="#191970" d="M629.4659,-118.5C619.0743,-118.5 608.472,-118.5 598.3523,-118.5"/>
<polygon fill="#191970" stroke="#191970" points="629.7617,-122.0001 639.7617,-118.5 629.7616,-115.0001 629.7617,-122.0001"/>
</g>
<!-- Node4 -->
<g id="node4" class="node">
<title>Node4</title>
<g id="a_node4"><a xlink:href="class_l_f_s_t_k__file_dialog_class_a553ce8e885b0d60cbf515b7b3d1e8b65.xhtml#a553ce8e885b0d60cbf515b7b3d1e8b65" target="_top" xlink:title=" ">
<polygon fill="none" stroke="#000000" points="0,-77.5 0,-109.5 124.339,-109.5 124.339,-77.5 0,-77.5"/>
<text text-anchor="start" x="8" y="-96.5" font-family="Helvetica,sans-Serif" font-size="10.00" fill="#000000">LFSTK_fileDialogClass</text>
<text text-anchor="middle" x="62.1695" y="-84.5" font-family="Helvetica,sans-Serif" font-size="10.00" fill="#000000">::LFSTK_fileDialogClass</text>
</a>
</g>
</g>
<!-- Node3&#45;&gt;Node4 -->
<g id="edge3" class="edge">
<title>Node3&#45;&gt;Node4</title>
<path fill="none" stroke="#191970" d="M469.0854,-125.6108C392.8448,-131.9152 267.2154,-137.9559 160.339,-122.5 142.3988,-119.9056 123.17,-114.7748 106.5276,-109.5406"/>
<polygon fill="#191970" stroke="#191970" points="469.3829,-129.0983 479.0497,-124.762 468.7887,-122.1235 469.3829,-129.0983"/>
</g>
<!-- Node5 -->
<g id="node5" class="node">
<title>Node5</title>
<g id="a_node5"><a xlink:href="class_l_f_s_t_k__file_dialog_class_aa8804989d381def9acb2c99d47d6dc3d.xhtml#aa8804989d381def9acb2c99d47d6dc3d" target="_top" xlink:title=" ">
<polygon fill="none" stroke="#000000" points="322.348,-80.5 322.348,-112.5 443.349,-112.5 443.349,-80.5 322.348,-80.5"/>
<text text-anchor="start" x="330.348" y="-99.5" font-family="Helvetica,sans-Serif" font-size="10.00" fill="#000000">LFSTK_fileDialogClass</text>
<text text-anchor="middle" x="382.8485" y="-87.5" font-family="Helvetica,sans-Serif" font-size="10.00" fill="#000000">::LFSTK_setWorkingDir</text>
</a>
</g>
</g>
<!-- Node3&#45;&gt;Node5 -->
<g id="edge4" class="edge">
<title>Node3&#45;&gt;Node5</title>
<path fill="none" stroke="#191970" d="M468.7465,-108.6223C460.3386,-107.4357 451.806,-106.2316 443.5455,-105.0658"/>
<polygon fill="#191970" stroke="#191970" points="468.5228,-112.1253 478.9138,-110.0571 469.501,-105.194 468.5228,-112.1253"/>
</g>
<!-- Node6 -->
<g id="node6" class="node">
<title>Node6</title>
<g id="a_node6"><a xlink:href="class_l_f_s_t_k__file_dialog_class_aacf1d4b61cbb5b40d06f591ea96f9ea7.xhtml#aacf1d4b61cbb5b40d06f591ea96f9ea7" target="_top" xlink:title=" ">
<polygon fill="none" stroke="#000000" points="160.339,-80.5 160.339,-112.5 286.348,-112.5 286.348,-80.5 160.339,-80.5"/>
<text text-anchor="start" x="168.339" y="-99.5" font-family="Helvetica,sans-Serif" font-size="10.00" fill="#000000">LFSTK_fileDialogClass</text>
<text text-anchor="middle" x="223.3435" y="-87.5" font-family="Helvetica,sans-Serif" font-size="10.00" fill="#000000">::LFSTK_showFileDialog</text>
</a>
</g>
</g>
<!-- Node5&#45;&gt;Node6 -->
<g id="edge5" class="edge">
<title>Node5&#45;&gt;Node6</title>
<path fill="none" stroke="#191970" d="M311.8963,-96.5C303.4629,-96.5 294.8967,-96.5 286.581,-96.5"/>
<polygon fill="#191970" stroke="#191970" points="312.0915,-100.0001 322.0915,-96.5 312.0914,-93.0001 312.0915,-100.0001"/>
</g>
<!-- Node7 -->
<g id="node7" class="node">
<title>Node7</title>
<g id="a_node7"><a xlink:href="class_l_f_s_t_k__file_dialog_class_a789cade9437906181e31a243c85d52e5.xhtml#a789cade9437906181e31a243c85d52e5" target="_top" xlink:title=" ">
<polygon fill="none" stroke="#000000" points="163.953,-29.5 163.953,-61.5 282.734,-61.5 282.734,-29.5 163.953,-29.5"/>
<text text-anchor="start" x="171.953" y="-48.5" font-family="Helvetica,sans-Serif" font-size="10.00" fill="#000000">LFSTK_fileDialogClass</text>
<text text-anchor="middle" x="223.3435" y="-36.5" font-family="Helvetica,sans-Serif" font-size="10.00" fill="#000000">::select</text>
</a>
</g>
</g>
<!-- Node5&#45;&gt;Node7 -->
<g id="edge6" class="edge">
<title>Node5&#45;&gt;Node7</title>
<path fill="none" stroke="#191970" d="M322.4879,-77.2003C306.3242,-72.0322 289.0291,-66.5023 273.4836,-61.5317"/>
<polygon fill="#191970" stroke="#191970" points="321.7892,-80.6514 332.3801,-80.3633 323.9211,-73.984 321.7892,-80.6514"/>
</g>
<!-- Node7&#45;&gt;Node4 -->
<g id="edge7" class="edge">
<title>Node7&#45;&gt;Node4</title>
<path fill="none" stroke="#191970" d="M159.442,-64.5308C145.1046,-68.8007 130.0303,-73.29 116.1436,-77.4257"/>
<polygon fill="#191970" stroke="#191970" points="160.6415,-67.8256 169.2265,-61.6168 158.6435,-61.1168 160.6415,-67.8256"/>
</g>
</g>
</svg>
