<?xml version="1.0" encoding="UTF-8" standalone="no"?>
<!DOCTYPE svg PUBLIC "-//W3C//DTD SVG 1.1//EN"
 "http://www.w3.org/Graphics/SVG/1.1/DTD/svg11.dtd">
<!-- Generated by graphviz version 2.40.1 (20161225.0304)
 -->
<!-- Title: LFSTK_fileDialogClass::setPreviewData Pages: 1 -->
<!--zoomable 488 -->
<svg id="main" version="1.1" xmlns="http://www.w3.org/2000/svg" xmlns:xlink="http://www.w3.org/1999/xlink" xml:space="preserve" onload="init(evt)">
<style type="text/css"><![CDATA[
.edge:hover path { stroke: red; }
.edge:hover polygon { stroke: red; fill: red; }
]]></style>
<script type="text/javascript"><![CDATA[
var edges = document.getElementsByTagName('g');
if (edges && edges.length) {
  for (var i=0;i<edges.length;i++) {
    if (edges[i].id.substr(0,4)=='edge') {
      edges[i].setAttribute('class','edge');
    }
  }
}
]]></script>
        <defs>
                <circle id="rim" cx="0" cy="0" r="7"/>
                <circle id="rim2" cx="0" cy="0" r="3.5"/>
                <g id="zoomPlus">
                        <use xlink:href="#rim" fill="#404040">
                                <set attributeName="fill" to="#808080" begin="zoomplus.mouseover" end="zoomplus.mouseout"/>
                        </use>
                        <path d="M-4,0h8M0,-4v8" fill="none" stroke="white" stroke-width="1.5" pointer-events="none"/>
                </g>
                <g id="zoomMin">
                        <use xlink:href="#rim" fill="#404040">
                                <set attributeName="fill" to="#808080" begin="zoomminus.mouseover" end="zoomminus.mouseout"/>
                        </use>
                        <path d="M-4,0h8" fill="none" stroke="white" stroke-width="1.5" pointer-events="none"/>
                </g>
                <g id="dirArrow">
                        <path fill="none" stroke="white" stroke-width="1.5" d="M0,-3.0v7 M-2.5,-0.5L0,-3.0L2.5,-0.5"/>
                </g>
               <g id="resetDef">
                       <use xlink:href="#rim2" fill="#404040">
                               <set attributeName="fill" to="#808080" begin="reset.mouseover" end="reset.mouseout"/>
                       </use>
               </g>
        </defs>

<script type="text/javascript">
var viewWidth = 1032;
var viewHeight = 488;
var sectionId = 'dynsection-0';
</script>
<script xlink:href="svgpan.js"/>
<svg id="graph" class="graph">
<g id="viewport">
<title>LFSTK_fileDialogClass::setPreviewData</title>
<!-- Node1 -->
<g id="node1" class="node">
<title>Node1</title>
<g id="a_node1"><a xlink:title=" ">
<polygon fill="#bfbfbf" stroke="#000000" points="0,-267.5 0,-299.5 118.781,-299.5 118.781,-267.5 0,-267.5"/>
<text text-anchor="start" x="8" y="-286.5" font-family="Helvetica,sans-Serif" font-size="10.00" fill="#000000">LFSTK_fileDialogClass</text>
<text text-anchor="middle" x="59.3905" y="-274.5" font-family="Helvetica,sans-Serif" font-size="10.00" fill="#000000">::setPreviewData</text>
</a>
</g>
</g>
<!-- Node2 -->
<g id="node2" class="node">
<title>Node2</title>
<g id="a_node2"><a xlink:href="class_l_f_s_t_k__file_dialog_class_a8b1394e3442e1142f6b51cad61f2f95f.xhtml#a8b1394e3442e1142f6b51cad61f2f95f" target="_top" xlink:title=" ">
<polygon fill="none" stroke="#000000" points="167.009,-408.5 167.009,-440.5 308.016,-440.5 308.016,-408.5 167.009,-408.5"/>
<text text-anchor="start" x="175.009" y="-427.5" font-family="Helvetica,sans-Serif" font-size="10.00" fill="#000000">LFSTK_fileDialogClass</text>
<text text-anchor="middle" x="237.5125" y="-415.5" font-family="Helvetica,sans-Serif" font-size="10.00" fill="#000000">::findThemedIconFromMime</text>
</a>
</g>
</g>
<!-- Node1&#45;&gt;Node2 -->
<g id="edge1" class="edge">
<title>Node1&#45;&gt;Node2</title>
<path fill="none" stroke="#191970" d="M68.3101,-299.5506C83.0485,-324.6045 114.8634,-372.8872 154.781,-399.5 157.1803,-401.0996 159.6857,-402.6 162.2677,-404.0069"/>
<polygon fill="#191970" stroke="#191970" points="160.7793,-407.1753 171.2985,-408.4393 163.8636,-400.8913 160.7793,-407.1753"/>
</g>
<!-- Node4 -->
<g id="node4" class="node">
<title>Node4</title>
<g id="a_node4"><a xlink:href="class_l_f_s_t_k__gadget_class_aa5b5f301fe9b0a4d7679f786da7462ba.xhtml#aa5b5f301fe9b0a4d7679f786da7462ba" target="_top" xlink:title=" ">
<polygon fill="none" stroke="#000000" points="371.245,-216.5 371.245,-248.5 485.048,-248.5 485.048,-216.5 371.245,-216.5"/>
<text text-anchor="start" x="379.245" y="-235.5" font-family="Helvetica,sans-Serif" font-size="10.00" fill="#000000">LFSTK_gadgetClass::</text>
<text text-anchor="middle" x="428.1465" y="-223.5" font-family="Helvetica,sans-Serif" font-size="10.00" fill="#000000">LFSTK_clearWindow</text>
</a>
</g>
</g>
<!-- Node1&#45;&gt;Node4 -->
<g id="edge3" class="edge">
<title>Node1&#45;&gt;Node4</title>
<path fill="none" stroke="#191970" d="M107.2463,-299.5626C160.5046,-314.8742 248.5105,-332.4703 320.244,-309.5 353.1373,-298.967 384.5477,-274.3204 404.9091,-255.7282"/>
<polygon fill="#191970" stroke="#191970" points="407.5119,-258.0855 412.4111,-248.6914 402.723,-252.9799 407.5119,-258.0855"/>
</g>
<!-- Node13 -->
<g id="node13" class="node">
<title>Node13</title>
<g id="a_node13"><a xlink:href="class_l_f_s_t_k__image_class_a9957841cdc97fb1157a79a64209ef050.xhtml#a9957841cdc97fb1157a79a64209ef050" target="_top" xlink:title=" ">
<polygon fill="none" stroke="#000000" points="166.728,-357.5 166.728,-389.5 308.297,-389.5 308.297,-357.5 166.728,-357.5"/>
<text text-anchor="start" x="174.728" y="-376.5" font-family="Helvetica,sans-Serif" font-size="10.00" fill="#000000">LFSTK_imageClass::LFSTK</text>
<text text-anchor="middle" x="237.5125" y="-364.5" font-family="Helvetica,sans-Serif" font-size="10.00" fill="#000000">_clearWindow</text>
</a>
</g>
</g>
<!-- Node1&#45;&gt;Node13 -->
<g id="edge13" class="edge">
<title>Node1&#45;&gt;Node13</title>
<path fill="none" stroke="#191970" d="M82.5682,-299.6213C101.4454,-312.3073 129.0838,-329.8893 154.781,-342.5 162.8706,-346.47 171.6045,-350.2504 180.2607,-353.7193"/>
<polygon fill="#191970" stroke="#191970" points="179.0008,-356.9846 189.5891,-357.3553 181.543,-350.4625 179.0008,-356.9846"/>
</g>
<!-- Node14 -->
<g id="node14" class="node">
<title>Node14</title>
<g id="a_node14"><a xlink:href="class_l_f_s_t_k__window_class_ac3b5b99b3a018cce7c631df39db76be1.xhtml#ac3b5b99b3a018cce7c631df39db76be1" target="_top" xlink:title=" ">
<polygon fill="none" stroke="#000000" points="179.231,-216.5 179.231,-248.5 295.794,-248.5 295.794,-216.5 179.231,-216.5"/>
<text text-anchor="start" x="187.231" y="-235.5" font-family="Helvetica,sans-Serif" font-size="10.00" fill="#000000">LFSTK_windowClass::</text>
<text text-anchor="middle" x="237.5125" y="-223.5" font-family="Helvetica,sans-Serif" font-size="10.00" fill="#000000">LFSTK_clearWindow</text>
</a>
</g>
</g>
<!-- Node1&#45;&gt;Node14 -->
<g id="edge14" class="edge">
<title>Node1&#45;&gt;Node14</title>
<path fill="none" stroke="#191970" d="M115.7494,-267.3633C133.5468,-262.2675 153.3674,-256.5925 171.7612,-251.326"/>
<polygon fill="#191970" stroke="#191970" points="172.87,-254.6492 181.5202,-248.5317 170.9431,-247.9196 172.87,-254.6492"/>
</g>
<!-- Node15 -->
<g id="node15" class="node">
<title>Node15</title>
<g id="a_node15"><a xlink:href="class_l_f_s_t_k__line_edit_class_adfaad6bd5ec8f4ecc3be7a6358693786.xhtml#adfaad6bd5ec8f4ecc3be7a6358693786" target="_top" xlink:title=" ">
<polygon fill="none" stroke="#000000" points="182.286,-267.5 182.286,-299.5 292.739,-299.5 292.739,-267.5 182.286,-267.5"/>
<text text-anchor="start" x="190.286" y="-286.5" font-family="Helvetica,sans-Serif" font-size="10.00" fill="#000000">LFSTK_lineEditClass</text>
<text text-anchor="middle" x="237.5125" y="-274.5" font-family="Helvetica,sans-Serif" font-size="10.00" fill="#000000">::LFSTK_getCStr</text>
</a>
</g>
</g>
<!-- Node1&#45;&gt;Node15 -->
<g id="edge16" class="edge">
<title>Node1&#45;&gt;Node15</title>
<path fill="none" stroke="#191970" d="M119.1981,-283.5C136.1797,-283.5 154.7576,-283.5 172.0552,-283.5"/>
<polygon fill="#191970" stroke="#191970" points="172.0701,-287.0001 182.07,-283.5 172.07,-280.0001 172.0701,-287.0001"/>
</g>
<!-- Node16 -->
<g id="node16" class="node">
<title>Node16</title>
<g id="a_node16"><a xlink:href="class_l_f_s_t_k__file_dialog_class_aa18feaa2d2fd4a3aed800a8fb5f39102.xhtml#aa18feaa2d2fd4a3aed800a8fb5f39102" target="_top" xlink:title=" ">
<polygon fill="none" stroke="#000000" points="156.1675,-114.5 156.1675,-146.5 318.8575,-146.5 318.8575,-114.5 156.1675,-114.5"/>
<text text-anchor="start" x="164.1675" y="-133.5" font-family="Helvetica,sans-Serif" font-size="10.00" fill="#000000">LFSTK_fileDialogClass</text>
<text text-anchor="middle" x="237.5125" y="-121.5" font-family="Helvetica,sans-Serif" font-size="10.00" fill="#000000">::LFSTK_getCurrentFileSelection</text>
</a>
</g>
</g>
<!-- Node1&#45;&gt;Node16 -->
<g id="edge17" class="edge">
<title>Node1&#45;&gt;Node16</title>
<path fill="none" stroke="#191970" d="M67.2687,-267.284C81.1867,-240.3154 112.6794,-186.2743 154.781,-156.5 157.4853,-154.5875 160.3358,-152.8117 163.2874,-151.1632"/>
<polygon fill="#191970" stroke="#191970" points="165.0323,-154.2036 172.4004,-146.5904 161.8928,-147.9471 165.0323,-154.2036"/>
</g>
<!-- Node18 -->
<g id="node18" class="node">
<title>Node18</title>
<g id="a_node18"><a xlink:href="class_l_f_s_t_k__lib_ad8546e9b4c849fb4ed177910e1df8922.xhtml#ad8546e9b4c849fb4ed177910e1df8922" target="_top" xlink:title=" ">
<polygon fill="none" stroke="#000000" points="154.781,-459.5 154.781,-479.5 320.244,-479.5 320.244,-459.5 154.781,-459.5"/>
<text text-anchor="middle" x="237.5125" y="-466.5" font-family="Helvetica,sans-Serif" font-size="10.00" fill="#000000">LFSTK_lib::LFSTK_getMimeType</text>
</a>
</g>
</g>
<!-- Node1&#45;&gt;Node18 -->
<g id="edge19" class="edge">
<title>Node1&#45;&gt;Node18</title>
<path fill="none" stroke="#191970" d="M63.7639,-299.5169C73.8098,-333.1344 101.8395,-411.1828 154.781,-450.5 156.9032,-452.0761 159.1342,-453.5246 161.4483,-454.8556"/>
<polygon fill="#191970" stroke="#191970" points="160.2145,-458.1494 170.7318,-459.4288 163.3079,-451.87 160.2145,-458.1494"/>
</g>
<!-- Node19 -->
<g id="node19" class="node">
<title>Node19</title>
<g id="a_node19"><a xlink:href="class_l_f_s_t_k__gadget_class_a5cef46cb93c76a87220f82242fc1ffc3.xhtml#a5cef46cb93c76a87220f82242fc1ffc3" target="_top" xlink:title=" ">
<polygon fill="none" stroke="#000000" points="168.668,-57.5 168.668,-89.5 306.357,-89.5 306.357,-57.5 168.668,-57.5"/>
<text text-anchor="start" x="176.668" y="-76.5" font-family="Helvetica,sans-Serif" font-size="10.00" fill="#000000">LFSTK_gadgetClass::</text>
<text text-anchor="middle" x="237.5125" y="-64.5" font-family="Helvetica,sans-Serif" font-size="10.00" fill="#000000">LFSTK_setImageFromPath</text>
</a>
</g>
</g>
<!-- Node1&#45;&gt;Node19 -->
<g id="edge21" class="edge">
<title>Node1&#45;&gt;Node19</title>
<path fill="none" stroke="#191970" d="M63.8522,-267.3102C74.1514,-232.8155 102.7722,-151.4805 154.781,-105.5 159.5511,-101.2828 164.9382,-97.5931 170.6187,-94.3706"/>
<polygon fill="#191970" stroke="#191970" points="172.4461,-97.3667 179.7402,-89.6824 169.2462,-91.1409 172.4461,-97.3667"/>
</g>
<!-- Node23 -->
<g id="node23" class="node">
<title>Node23</title>
<g id="a_node23"><a xlink:href="class_l_f_s_t_k__gadget_class_a0331bef494c43154a2516cd70ee30e19.xhtml#a0331bef494c43154a2516cd70ee30e19" target="_top" xlink:title=" ">
<polygon fill="none" stroke="#000000" points="180.611,-165.5 180.611,-197.5 294.414,-197.5 294.414,-165.5 180.611,-165.5"/>
<text text-anchor="start" x="188.611" y="-184.5" font-family="Helvetica,sans-Serif" font-size="10.00" fill="#000000">LFSTK_gadgetClass::</text>
<text text-anchor="middle" x="237.5125" y="-172.5" font-family="Helvetica,sans-Serif" font-size="10.00" fill="#000000">LFSTK_setLabel</text>
</a>
</g>
</g>
<!-- Node1&#45;&gt;Node23 -->
<g id="edge25" class="edge">
<title>Node1&#45;&gt;Node23</title>
<path fill="none" stroke="#191970" d="M75.6147,-267.4242C93.5941,-250.4065 124.1185,-223.8006 154.781,-207.5 159.8908,-204.7835 165.3313,-202.2967 170.888,-200.0317"/>
<polygon fill="#191970" stroke="#191970" points="172.2211,-203.2691 180.3112,-196.428 169.7207,-196.7309 172.2211,-203.2691"/>
</g>
<!-- Node3 -->
<g id="node3" class="node">
<title>Node3</title>
<g id="a_node3"><a xlink:href="class_l_f_s_t_k__lib_ac5fce97c4bbf2a3c4e500bdc22c994a9.xhtml#ac5fce97c4bbf2a3c4e500bdc22c994a9" target="_top" xlink:title=" ">
<polygon fill="none" stroke="#000000" points="356.244,-436.5 356.244,-456.5 500.049,-456.5 500.049,-436.5 356.244,-436.5"/>
<text text-anchor="middle" x="428.1465" y="-443.5" font-family="Helvetica,sans-Serif" font-size="10.00" fill="#000000">LFSTK_lib::LFSTK_oneLiner</text>
</a>
</g>
</g>
<!-- Node2&#45;&gt;Node3 -->
<g id="edge2" class="edge">
<title>Node2&#45;&gt;Node3</title>
<path fill="none" stroke="#191970" d="M308.2267,-432.6607C320.5174,-434.0791 333.394,-435.5651 345.9602,-437.0153"/>
<polygon fill="#191970" stroke="#191970" points="345.6191,-440.4991 355.9544,-438.1687 346.4216,-433.5453 345.6191,-440.4991"/>
</g>
<!-- Node5 -->
<g id="node5" class="node">
<title>Node5</title>
<g id="a_node5"><a xlink:href="class_l_f_s_t_k__gadget_class_a66b92f213e5a7e75da3f707b511342ea.xhtml#a66b92f213e5a7e75da3f707b511342ea" target="_top" xlink:title=" ">
<polygon fill="none" stroke="#000000" points="561.8845,-216.5 561.8845,-248.5 675.6875,-248.5 675.6875,-216.5 561.8845,-216.5"/>
<text text-anchor="start" x="569.8845" y="-235.5" font-family="Helvetica,sans-Serif" font-size="10.00" fill="#000000">LFSTK_gadgetClass::</text>
<text text-anchor="middle" x="618.786" y="-223.5" font-family="Helvetica,sans-Serif" font-size="10.00" fill="#000000">drawGagetDetails</text>
</a>
</g>
</g>
<!-- Node4&#45;&gt;Node5 -->
<g id="edge4" class="edge">
<title>Node4&#45;&gt;Node5</title>
<path fill="none" stroke="#191970" d="M485.0864,-232.5C506.0188,-232.5 529.9155,-232.5 551.6609,-232.5"/>
<polygon fill="#191970" stroke="#191970" points="551.8103,-236.0001 561.8103,-232.5 551.8103,-229.0001 551.8103,-236.0001"/>
</g>
<!-- Node6 -->
<g id="node6" class="node">
<title>Node6</title>
<g id="a_node6"><a xlink:href="class_l_f_s_t_k__gadget_class_a37d96aab3c59cb97fca1720441e3fc8e.xhtml#a37d96aab3c59cb97fca1720441e3fc8e" target="_top" xlink:title=" ">
<polygon fill="none" stroke="#000000" points="737.523,-318.5 737.523,-350.5 851.326,-350.5 851.326,-318.5 737.523,-318.5"/>
<text text-anchor="start" x="745.523" y="-337.5" font-family="Helvetica,sans-Serif" font-size="10.00" fill="#000000">LFSTK_gadgetClass::</text>
<text text-anchor="middle" x="794.4245" y="-325.5" font-family="Helvetica,sans-Serif" font-size="10.00" fill="#000000">clearBox</text>
</a>
</g>
</g>
<!-- Node5&#45;&gt;Node6 -->
<g id="edge5" class="edge">
<title>Node5&#45;&gt;Node6</title>
<path fill="none" stroke="#191970" d="M641.321,-248.6834C664.7204,-265.1079 702.7079,-290.722 737.523,-309.5 740.3721,-311.0367 743.3348,-312.5565 746.3454,-314.0424"/>
<polygon fill="#191970" stroke="#191970" points="744.9219,-317.241 755.4553,-318.3808 747.9317,-310.9211 744.9219,-317.241"/>
</g>
<!-- Node7 -->
<g id="node7" class="node">
<title>Node7</title>
<g id="a_node7"><a xlink:href="class_l_f_s_t_k__gadget_class_ab76db165a19af248b5e94e95492dc879.xhtml#ab76db165a19af248b5e94e95492dc879" target="_top" xlink:title=" ">
<polygon fill="none" stroke="#000000" points="898.7125,-233.5 898.7125,-265.5 1012.5155,-265.5 1012.5155,-233.5 898.7125,-233.5"/>
<text text-anchor="start" x="906.7125" y="-252.5" font-family="Helvetica,sans-Serif" font-size="10.00" fill="#000000">LFSTK_gadgetClass::</text>
<text text-anchor="middle" x="955.614" y="-240.5" font-family="Helvetica,sans-Serif" font-size="10.00" fill="#000000">drawBevel</text>
</a>
</g>
</g>
<!-- Node5&#45;&gt;Node7 -->
<g id="edge6" class="edge">
<title>Node5&#45;&gt;Node7</title>
<path fill="none" stroke="#191970" d="M676.048,-216.9084C723.3633,-206.2773 792.1302,-196.0277 851.326,-207.5 873.2921,-211.7571 896.4969,-220.6231 915.4267,-229.1169"/>
<polygon fill="#191970" stroke="#191970" points="914.0824,-232.3512 924.6285,-233.366 917.0171,-225.9961 914.0824,-232.3512"/>
</g>
<!-- Node8 -->
<g id="node8" class="node">
<title>Node8</title>
<g id="a_node8"><a xlink:href="class_l_f_s_t_k__gadget_class_af5386ffc4699273f6c53a920fc8b2f1d.xhtml#af5386ffc4699273f6c53a920fc8b2f1d" target="_top" xlink:title=" ">
<polygon fill="none" stroke="#000000" points="737.523,-216.5 737.523,-248.5 851.326,-248.5 851.326,-216.5 737.523,-216.5"/>
<text text-anchor="start" x="745.523" y="-235.5" font-family="Helvetica,sans-Serif" font-size="10.00" fill="#000000">LFSTK_gadgetClass::</text>
<text text-anchor="middle" x="794.4245" y="-223.5" font-family="Helvetica,sans-Serif" font-size="10.00" fill="#000000">drawImage</text>
</a>
</g>
</g>
<!-- Node5&#45;&gt;Node8 -->
<g id="edge7" class="edge">
<title>Node5&#45;&gt;Node8</title>
<path fill="none" stroke="#191970" d="M675.8108,-232.5C692.152,-232.5 710.1221,-232.5 727.0239,-232.5"/>
<polygon fill="#191970" stroke="#191970" points="727.3855,-236.0001 737.3855,-232.5 727.3855,-229.0001 727.3855,-236.0001"/>
</g>
<!-- Node9 -->
<g id="node9" class="node">
<title>Node9</title>
<g id="a_node9"><a xlink:href="class_l_f_s_t_k__gadget_class_af77235e4dc604470c9d62f101238225b.xhtml#af77235e4dc604470c9d62f101238225b" target="_top" xlink:title=" ">
<polygon fill="none" stroke="#000000" points="737.523,-267.5 737.523,-299.5 851.326,-299.5 851.326,-267.5 737.523,-267.5"/>
<text text-anchor="start" x="745.523" y="-286.5" font-family="Helvetica,sans-Serif" font-size="10.00" fill="#000000">LFSTK_gadgetClass::</text>
<text text-anchor="middle" x="794.4245" y="-274.5" font-family="Helvetica,sans-Serif" font-size="10.00" fill="#000000">drawIndicator</text>
</a>
</g>
</g>
<!-- Node5&#45;&gt;Node9 -->
<g id="edge8" class="edge">
<title>Node5&#45;&gt;Node9</title>
<path fill="none" stroke="#191970" d="M674.3591,-248.6367C691.9083,-253.7325 711.4526,-259.4075 729.5899,-264.674"/>
<polygon fill="#191970" stroke="#191970" points="728.6335,-268.0408 739.2129,-267.4683 730.5856,-261.3185 728.6335,-268.0408"/>
</g>
<!-- Node10 -->
<g id="node10" class="node">
<title>Node10</title>
<g id="a_node10"><a xlink:href="class_l_f_s_t_k__gadget_class_a7f44f781b167d66c5d6f4cc862a7e2db.xhtml#a7f44f781b167d66c5d6f4cc862a7e2db" target="_top" xlink:title=" ">
<polygon fill="none" stroke="#000000" points="737.523,-126.5 737.523,-158.5 851.326,-158.5 851.326,-126.5 737.523,-126.5"/>
<text text-anchor="start" x="745.523" y="-145.5" font-family="Helvetica,sans-Serif" font-size="10.00" fill="#000000">LFSTK_gadgetClass::</text>
<text text-anchor="middle" x="794.4245" y="-133.5" font-family="Helvetica,sans-Serif" font-size="10.00" fill="#000000">drawLabel</text>
</a>
</g>
</g>
<!-- Node5&#45;&gt;Node10 -->
<g id="edge10" class="edge">
<title>Node5&#45;&gt;Node10</title>
<path fill="none" stroke="#191970" d="M650.1866,-216.4098C679.1942,-201.5459 722.4434,-179.3843 754.0164,-163.2058"/>
<polygon fill="#191970" stroke="#191970" points="755.6966,-166.2776 763.0001,-158.6024 752.5043,-160.0479 755.6966,-166.2776"/>
</g>
<!-- Node9&#45;&gt;Node7 -->
<g id="edge9" class="edge">
<title>Node9&#45;&gt;Node7</title>
<path fill="none" stroke="#191970" d="M851.7077,-271.4171C863.5845,-268.912 876.2001,-266.2509 888.3955,-263.6785"/>
<polygon fill="#191970" stroke="#191970" points="889.4529,-267.0326 898.5152,-261.544 888.0081,-260.1833 889.4529,-267.0326"/>
</g>
<!-- Node11 -->
<g id="node11" class="node">
<title>Node11</title>
<g id="a_node11"><a xlink:href="class_l_f_s_t_k__lib_ab2f14a3414f7db863682d1e2fa0cfb75.xhtml#ab2f14a3414f7db863682d1e2fa0cfb75" target="_top" xlink:title=" ">
<polygon fill="none" stroke="#000000" points="887.326,-110.5 887.326,-130.5 1023.902,-130.5 1023.902,-110.5 887.326,-110.5"/>
<text text-anchor="middle" x="955.614" y="-117.5" font-family="Helvetica,sans-Serif" font-size="10.00" fill="#000000">LFSTK_lib::bestFontColour</text>
</a>
</g>
</g>
<!-- Node10&#45;&gt;Node11 -->
<g id="edge11" class="edge">
<title>Node10&#45;&gt;Node11</title>
<path fill="none" stroke="#191970" d="M851.7077,-134.6817C859.9677,-133.5543 868.5851,-132.3782 877.17,-131.2065"/>
<polygon fill="#191970" stroke="#191970" points="877.7747,-134.6565 887.2095,-129.8362 876.828,-127.7208 877.7747,-134.6565"/>
</g>
<!-- Node12 -->
<g id="node12" class="node">
<title>Node12</title>
<g id="a_node12"><a xlink:href="class_l_f_s_t_k__gadget_class_a091281ba03eaeb31bc7507c74b9b4f2f.xhtml#a091281ba03eaeb31bc7507c74b9b4f2f" target="_top" xlink:title=" ">
<polygon fill="none" stroke="#000000" points="898.158,-149.5 898.158,-181.5 1013.07,-181.5 1013.07,-149.5 898.158,-149.5"/>
<text text-anchor="start" x="906.158" y="-168.5" font-family="Helvetica,sans-Serif" font-size="10.00" fill="#000000">LFSTK_gadgetClass::</text>
<text text-anchor="middle" x="955.614" y="-156.5" font-family="Helvetica,sans-Serif" font-size="10.00" fill="#000000">LFSTK_getTextHeight</text>
</a>
</g>
</g>
<!-- Node10&#45;&gt;Node12 -->
<g id="edge12" class="edge">
<title>Node10&#45;&gt;Node12</title>
<path fill="none" stroke="#191970" d="M851.7077,-150.6737C863.4431,-152.3482 875.8999,-154.1257 887.9597,-155.8465"/>
<polygon fill="#191970" stroke="#191970" points="887.578,-159.3274 897.9721,-157.2751 888.5668,-152.3976 887.578,-159.3274"/>
</g>
<!-- Node14&#45;&gt;Node4 -->
<g id="edge15" class="edge">
<title>Node14&#45;&gt;Node4</title>
<path fill="none" stroke="#191970" d="M296.0045,-232.5C316.509,-232.5 339.7002,-232.5 360.8666,-232.5"/>
<polygon fill="#191970" stroke="#191970" points="361.0742,-236.0001 371.0741,-232.5 361.0741,-229.0001 361.0742,-236.0001"/>
</g>
<!-- Node17 -->
<g id="node17" class="node">
<title>Node17</title>
<g id="a_node17"><a xlink:href="class_l_f_s_t_k__list_gadget_class_a3f9109bb0a34fdfd29e7a4ed6cb7d344.xhtml#a3f9109bb0a34fdfd29e7a4ed6cb7d344" target="_top" xlink:title=" ">
<polygon fill="none" stroke="#000000" points="360.403,-114.5 360.403,-146.5 495.89,-146.5 495.89,-114.5 360.403,-114.5"/>
<text text-anchor="start" x="368.403" y="-133.5" font-family="Helvetica,sans-Serif" font-size="10.00" fill="#000000">LFSTK_listGadgetClass</text>
<text text-anchor="middle" x="428.1465" y="-121.5" font-family="Helvetica,sans-Serif" font-size="10.00" fill="#000000">::LFSTK_getSelectedLabel</text>
</a>
</g>
</g>
<!-- Node16&#45;&gt;Node17 -->
<g id="edge18" class="edge">
<title>Node16&#45;&gt;Node17</title>
<path fill="none" stroke="#191970" d="M318.9114,-130.5C329.2337,-130.5 339.7785,-130.5 350.0476,-130.5"/>
<polygon fill="#191970" stroke="#191970" points="350.2062,-134.0001 360.2062,-130.5 350.2062,-127.0001 350.2062,-134.0001"/>
</g>
<!-- Node18&#45;&gt;Node3 -->
<g id="edge20" class="edge">
<title>Node18&#45;&gt;Node3</title>
<path fill="none" stroke="#191970" d="M320.2957,-459.5122C328.89,-458.4753 337.6227,-457.4217 346.2076,-456.3859"/>
<polygon fill="#191970" stroke="#191970" points="346.6919,-459.853 356.2007,-455.1803 345.8534,-452.9034 346.6919,-459.853"/>
</g>
<!-- Node20 -->
<g id="node20" class="node">
<title>Node20</title>
<g id="a_node20"><a xlink:href="class_l_f_s_t_k__lib_ad794f7ab3a4ca5a03adbb0472fa93788.xhtml#ad794f7ab3a4ca5a03adbb0472fa93788" target="_top" xlink:title=" ">
<polygon fill="none" stroke="#000000" points="364.862,-51.5 364.862,-95.5 491.431,-95.5 491.431,-51.5 364.862,-51.5"/>
<text text-anchor="start" x="372.862" y="-82.5" font-family="Helvetica,sans-Serif" font-size="10.00" fill="#000000">LFSTK_lib::LFSTK_cairo</text>
<text text-anchor="start" x="372.862" y="-70.5" font-family="Helvetica,sans-Serif" font-size="10.00" fill="#000000">_image_surface_create</text>
<text text-anchor="middle" x="428.1465" y="-58.5" font-family="Helvetica,sans-Serif" font-size="10.00" fill="#000000">_from_jpeg</text>
</a>
</g>
</g>
<!-- Node19&#45;&gt;Node20 -->
<g id="edge22" class="edge">
<title>Node19&#45;&gt;Node20</title>
<path fill="none" stroke="#191970" d="M306.6053,-73.5C322.164,-73.5 338.7335,-73.5 354.472,-73.5"/>
<polygon fill="#191970" stroke="#191970" points="354.6754,-77.0001 364.6754,-73.5 354.6753,-70.0001 354.6754,-77.0001"/>
</g>
<!-- Node22 -->
<g id="node22" class="node">
<title>Node22</title>
<g id="a_node22"><a xlink:href="class_l_f_s_t_k__gadget_class_a23bc2dc7b8200df4dc74f1f68460eca2.xhtml#a23bc2dc7b8200df4dc74f1f68460eca2" target="_top" xlink:title=" ">
<polygon fill="none" stroke="#000000" points="371.245,-.5 371.245,-32.5 485.048,-32.5 485.048,-.5 371.245,-.5"/>
<text text-anchor="start" x="379.245" y="-19.5" font-family="Helvetica,sans-Serif" font-size="10.00" fill="#000000">LFSTK_gadgetClass::</text>
<text text-anchor="middle" x="428.1465" y="-7.5" font-family="Helvetica,sans-Serif" font-size="10.00" fill="#000000">LFSTK_getTextWidth</text>
</a>
</g>
</g>
<!-- Node19&#45;&gt;Node22 -->
<g id="edge24" class="edge">
<title>Node19&#45;&gt;Node22</title>
<path fill="none" stroke="#191970" d="M291.122,-57.4706C314.0615,-50.6117 341.0155,-42.5524 364.9207,-35.4047"/>
<polygon fill="#191970" stroke="#191970" points="366.0312,-38.7258 374.6094,-32.5077 364.0258,-32.0192 366.0312,-38.7258"/>
</g>
<!-- Node21 -->
<g id="node21" class="node">
<title>Node21</title>
<g id="a_node21"><a xlink:href="class_l_f_s_t_k__lib_a6beac3954823730f63c32a97949db52a.xhtml#a6beac3954823730f63c32a97949db52a" target="_top" xlink:title=" ">
<polygon fill="none" stroke="#000000" points="536.049,-57.5 536.049,-89.5 701.523,-89.5 701.523,-57.5 536.049,-57.5"/>
<text text-anchor="start" x="544.049" y="-76.5" font-family="Helvetica,sans-Serif" font-size="10.00" fill="#000000">LFSTK_lib::cairo_image</text>
<text text-anchor="middle" x="618.786" y="-64.5" font-family="Helvetica,sans-Serif" font-size="10.00" fill="#000000">_surface_create_from_jpeg_mem</text>
</a>
</g>
</g>
<!-- Node20&#45;&gt;Node21 -->
<g id="edge23" class="edge">
<title>Node20&#45;&gt;Node21</title>
<path fill="none" stroke="#191970" d="M491.6267,-73.5C502.6012,-73.5 514.2118,-73.5 525.7771,-73.5"/>
<polygon fill="#191970" stroke="#191970" points="525.9117,-77.0001 535.9117,-73.5 525.9117,-70.0001 525.9117,-77.0001"/>
</g>
<!-- Node23&#45;&gt;Node4 -->
<g id="edge26" class="edge">
<title>Node23&#45;&gt;Node4</title>
<path fill="none" stroke="#191970" d="M294.4508,-196.7326C315.4772,-202.3578 339.4949,-208.7832 361.3184,-214.6216"/>
<polygon fill="#191970" stroke="#191970" points="360.6076,-218.0545 371.1724,-217.2578 362.4167,-211.2923 360.6076,-218.0545"/>
</g>
<!-- Node24 -->
<g id="node24" class="node">
<title>Node24</title>
<g id="a_node24"><a xlink:href="class_l_f_s_t_k__gadget_class_a6ba306176db18f16e2a034c875f53de0.xhtml#a6ba306176db18f16e2a034c875f53de0" target="_top" xlink:title=" ">
<polygon fill="none" stroke="#000000" points="362.637,-165.5 362.637,-197.5 493.656,-197.5 493.656,-165.5 362.637,-165.5"/>
<text text-anchor="start" x="370.637" y="-184.5" font-family="Helvetica,sans-Serif" font-size="10.00" fill="#000000">LFSTK_gadgetClass::</text>
<text text-anchor="middle" x="428.1465" y="-172.5" font-family="Helvetica,sans-Serif" font-size="10.00" fill="#000000">LFSTK_setCairoFontData</text>
</a>
</g>
</g>
<!-- Node23&#45;&gt;Node24 -->
<g id="edge27" class="edge">
<title>Node23&#45;&gt;Node24</title>
<path fill="none" stroke="#191970" d="M294.4508,-181.5C312.5857,-181.5 332.9456,-181.5 352.2039,-181.5"/>
<polygon fill="#191970" stroke="#191970" points="352.4614,-185.0001 362.4613,-181.5 352.4613,-178.0001 352.4614,-185.0001"/>
</g>
</g>
</svg>
        <g id="navigator" transform="translate(0 0)" fill="#404254">
                <rect fill="#f2f5e9" fill-opacity="0.5" stroke="#606060" stroke-width=".5" x="0" y="0" width="60" height="60"/>
                <use id="zoomplus" xlink:href="#zoomPlus" x="17" y="9" onmousedown="handleZoom(evt,'in')"/>
                <use id="zoomminus" xlink:href="#zoomMin" x="42" y="9" onmousedown="handleZoom(evt,'out')"/>
                <use id="reset" xlink:href="#resetDef" x="30" y="36" onmousedown="handleReset()"/>
                <g id="arrowUp" xlink:href="#dirArrow" transform="translate(30 24)" onmousedown="handlePan(0,-1)">
                  <use xlink:href="#rim" fill="#404040">
                        <set attributeName="fill" to="#808080" begin="arrowUp.mouseover" end="arrowUp.mouseout"/>
                  </use>
                  <path fill="none" stroke="white" stroke-width="1.5" d="M0,-3.0v7 M-2.5,-0.5L0,-3.0L2.5,-0.5"/>
                </g>
                <g id="arrowRight" xlink:href="#dirArrow" transform="rotate(90) translate(36 -43)" onmousedown="handlePan(1,0)">
                  <use xlink:href="#rim" fill="#404040">
                        <set attributeName="fill" to="#808080" begin="arrowRight.mouseover" end="arrowRight.mouseout"/>
                  </use>
                  <path fill="none" stroke="white" stroke-width="1.5" d="M0,-3.0v7 M-2.5,-0.5L0,-3.0L2.5,-0.5"/>
                </g>
                <g id="arrowDown" xlink:href="#dirArrow" transform="rotate(180) translate(-30 -48)" onmousedown="handlePan(0,1)">
                  <use xlink:href="#rim" fill="#404040">
                        <set attributeName="fill" to="#808080" begin="arrowDown.mouseover" end="arrowDown.mouseout"/>
                  </use>
                  <path fill="none" stroke="white" stroke-width="1.5" d="M0,-3.0v7 M-2.5,-0.5L0,-3.0L2.5,-0.5"/>
                </g>
                <g id="arrowLeft" xlink:href="#dirArrow" transform="rotate(270) translate(-36 17)" onmousedown="handlePan(-1,0)">
                  <use xlink:href="#rim" fill="#404040">
                        <set attributeName="fill" to="#808080" begin="arrowLeft.mouseover" end="arrowLeft.mouseout"/>
                  </use>
                  <path fill="none" stroke="white" stroke-width="1.5" d="M0,-3.0v7 M-2.5,-0.5L0,-3.0L2.5,-0.5"/>
                </g>
        </g>
        <svg viewBox="0 0 15 15" width="100%" height="30px" preserveAspectRatio="xMaxYMin meet">
         <g id="arrow_out" transform="scale(0.3 0.3)">
          <a xlink:href="class_l_f_s_t_k__file_dialog_class_ac7703591352d5105def9c5293fbeed62_ac7703591352d5105def9c5293fbeed62_cgraph_org.svg" target="_base">
           <rect id="button" ry="5" rx="5" y="6" x="6" height="38" width="38"
                fill="#f2f5e9" fill-opacity="0.5" stroke="#606060" stroke-width="1.0"/>
           <path id="arrow"
             d="M 11.500037,31.436501 C 11.940474,20.09759 22.043105,11.32322 32.158766,21.979434 L 37.068811,17.246167 C 37.068811,17.246167 37.088388,32 37.088388,32 L 22.160133,31.978069 C 22.160133,31.978069 26.997745,27.140456 26.997745,27.140456 C 18.528582,18.264221 13.291696,25.230495 11.500037,31.436501 z"
             style="fill:#404040;"/>
          </a>
         </g>
        </svg>
</svg>
