<?xml version="1.0" encoding="UTF-8" standalone="no"?>
<!DOCTYPE svg PUBLIC "-//W3C//DTD SVG 1.1//EN"
 "http://www.w3.org/Graphics/SVG/1.1/DTD/svg11.dtd">
<!-- Generated by graphviz version 2.40.1 (20161225.0304)
 -->
<!-- Title: LFSTK_gadgetClass::LFSTK_setCairoFontDataParts Pages: 1 -->
<!--zoomable 125 -->
<svg id="main" version="1.1" xmlns="http://www.w3.org/2000/svg" xmlns:xlink="http://www.w3.org/1999/xlink" xml:space="preserve" onload="init(evt)">
<style type="text/css"><![CDATA[
.edge:hover path { stroke: red; }
.edge:hover polygon { stroke: red; fill: red; }
]]></style>
<script type="text/javascript"><![CDATA[
var edges = document.getElementsByTagName('g');
if (edges && edges.length) {
  for (var i=0;i<edges.length;i++) {
    if (edges[i].id.substr(0,4)=='edge') {
      edges[i].setAttribute('class','edge');
    }
  }
}
]]></script>
        <defs>
                <circle id="rim" cx="0" cy="0" r="7"/>
                <circle id="rim2" cx="0" cy="0" r="3.5"/>
                <g id="zoomPlus">
                        <use xlink:href="#rim" fill="#404040">
                                <set attributeName="fill" to="#808080" begin="zoomplus.mouseover" end="zoomplus.mouseout"/>
                        </use>
                        <path d="M-4,0h8M0,-4v8" fill="none" stroke="white" stroke-width="1.5" pointer-events="none"/>
                </g>
                <g id="zoomMin">
                        <use xlink:href="#rim" fill="#404040">
                                <set attributeName="fill" to="#808080" begin="zoomminus.mouseover" end="zoomminus.mouseout"/>
                        </use>
                        <path d="M-4,0h8" fill="none" stroke="white" stroke-width="1.5" pointer-events="none"/>
                </g>
                <g id="dirArrow">
                        <path fill="none" stroke="white" stroke-width="1.5" d="M0,-3.0v7 M-2.5,-0.5L0,-3.0L2.5,-0.5"/>
                </g>
               <g id="resetDef">
                       <use xlink:href="#rim2" fill="#404040">
                               <set attributeName="fill" to="#808080" begin="reset.mouseover" end="reset.mouseout"/>
                       </use>
               </g>
        </defs>

<script type="text/javascript">
var viewWidth = 961;
var viewHeight = 125;
var sectionId = 'dynsection-0';
</script>
<script xlink:href="svgpan.js"/>
<svg id="graph" class="graph">
<g id="viewport">
<title>LFSTK_gadgetClass::LFSTK_setCairoFontDataParts</title>
<!-- Node1 -->
<g id="node1" class="node">
<title>Node1</title>
<g id="a_node1"><a xlink:title=" ">
<polygon fill="#bfbfbf" stroke="#000000" points="798.963,-45.5 798.963,-77.5 953.318,-77.5 953.318,-45.5 798.963,-45.5"/>
<text text-anchor="start" x="806.963" y="-64.5" font-family="Helvetica,sans-Serif" font-size="10.00" fill="#000000">LFSTK_gadgetClass::</text>
<text text-anchor="middle" x="876.1405" y="-52.5" font-family="Helvetica,sans-Serif" font-size="10.00" fill="#000000">LFSTK_setCairoFontDataParts</text>
</a>
</g>
</g>
<!-- Node2 -->
<g id="node2" class="node">
<title>Node2</title>
<g id="a_node2"><a xlink:href="class_l_f_s_t_k__font_dialog_class_ac2b51914d426e9ff7ba57211d5639514.xhtml#ac2b51914d426e9ff7ba57211d5639514" target="_top" xlink:title=" ">
<polygon fill="none" stroke="#000000" points="640.282,-45.5 640.282,-77.5 762.963,-77.5 762.963,-45.5 640.282,-45.5"/>
<text text-anchor="start" x="648.282" y="-64.5" font-family="Helvetica,sans-Serif" font-size="10.00" fill="#000000">LFSTK_fontDialogClass</text>
<text text-anchor="middle" x="701.6225" y="-52.5" font-family="Helvetica,sans-Serif" font-size="10.00" fill="#000000">::buildFontString</text>
</a>
</g>
</g>
<!-- Node1&#45;&gt;Node2 -->
<g id="edge1" class="edge">
<title>Node1&#45;&gt;Node2</title>
<path fill="none" stroke="#191970" d="M788.7153,-61.5C780.0807,-61.5 771.4483,-61.5 763.1563,-61.5"/>
<polygon fill="#191970" stroke="#191970" points="788.8323,-65.0001 798.8322,-61.5 788.8322,-58.0001 788.8323,-65.0001"/>
</g>
<!-- Node3 -->
<g id="node3" class="node">
<title>Node3</title>
<g id="a_node3"><a xlink:href="class_l_f_s_t_k__font_dialog_class_a552f817a8f926c4cb1e423ce244c0a76.xhtml#a552f817a8f926c4cb1e423ce244c0a76" target="_top" xlink:title=" ">
<polygon fill="none" stroke="#000000" points="481.601,-45.5 481.601,-77.5 604.282,-77.5 604.282,-45.5 481.601,-45.5"/>
<text text-anchor="start" x="489.601" y="-64.5" font-family="Helvetica,sans-Serif" font-size="10.00" fill="#000000">LFSTK_fontDialogClass</text>
<text text-anchor="middle" x="542.9415" y="-52.5" font-family="Helvetica,sans-Serif" font-size="10.00" fill="#000000">::LFSTK_getFontData</text>
</a>
</g>
</g>
<!-- Node2&#45;&gt;Node3 -->
<g id="edge2" class="edge">
<title>Node2&#45;&gt;Node3</title>
<path fill="none" stroke="#191970" d="M630.2306,-61.5C621.6059,-61.5 612.8547,-61.5 604.3902,-61.5"/>
<polygon fill="#191970" stroke="#191970" points="630.2723,-65.0001 640.2723,-61.5 630.2722,-58.0001 630.2723,-65.0001"/>
</g>
<!-- Node4 -->
<g id="node4" class="node">
<title>Node4</title>
<g id="a_node4"><a xlink:href="_l_f_s_t_k_font_dialog_8cpp_aafd549c8125eb6d28fe5be736bce5806.xhtml#aafd549c8125eb6d28fe5be736bce5806" target="_top" xlink:title=" ">
<polygon fill="none" stroke="#000000" points="356.2575,-96.5 356.2575,-116.5 412.2635,-116.5 412.2635,-96.5 356.2575,-96.5"/>
<text text-anchor="middle" x="384.2605" y="-103.5" font-family="Helvetica,sans-Serif" font-size="10.00" fill="#000000">checkCB</text>
</a>
</g>
</g>
<!-- Node3&#45;&gt;Node4 -->
<g id="edge3" class="edge">
<title>Node3&#45;&gt;Node4</title>
<path fill="none" stroke="#191970" d="M476.2651,-80.4086C453.8477,-86.7659 430.0457,-93.5159 412.2685,-98.5573"/>
<polygon fill="#191970" stroke="#191970" points="477.4365,-83.7145 486.1022,-77.6189 475.5267,-76.9801 477.4365,-83.7145"/>
</g>
<!-- Node5 -->
<g id="node5" class="node">
<title>Node5</title>
<g id="a_node5"><a xlink:href="class_l_f_s_t_k__font_dialog_class_a14c5f93b43c729a1bcb8bebe141415f2.xhtml#a14c5f93b43c729a1bcb8bebe141415f2" target="_top" xlink:title=" ">
<polygon fill="none" stroke="#000000" points="322.92,-45.5 322.92,-77.5 445.601,-77.5 445.601,-45.5 322.92,-45.5"/>
<text text-anchor="start" x="330.92" y="-64.5" font-family="Helvetica,sans-Serif" font-size="10.00" fill="#000000">LFSTK_fontDialogClass</text>
<text text-anchor="middle" x="384.2605" y="-52.5" font-family="Helvetica,sans-Serif" font-size="10.00" fill="#000000">::LFSTK_showDialog</text>
</a>
</g>
</g>
<!-- Node3&#45;&gt;Node5 -->
<g id="edge4" class="edge">
<title>Node3&#45;&gt;Node5</title>
<path fill="none" stroke="#191970" d="M471.5496,-61.5C462.9249,-61.5 454.1737,-61.5 445.7092,-61.5"/>
<polygon fill="#191970" stroke="#191970" points="471.5913,-65.0001 481.5913,-61.5 471.5912,-58.0001 471.5913,-65.0001"/>
</g>
<!-- Node6 -->
<g id="node6" class="node">
<title>Node6</title>
<g id="a_node6"><a xlink:href="_l_f_s_t_k_font_dialog_8cpp_a5c76f9930f86875dfa22fb71e9b6adcb.xhtml#a5c76f9930f86875dfa22fb71e9b6adcb" target="_top" xlink:title=" ">
<polygon fill="none" stroke="#000000" points="363.2025,-6.5 363.2025,-26.5 405.3185,-26.5 405.3185,-6.5 363.2025,-6.5"/>
<text text-anchor="middle" x="384.2605" y="-13.5" font-family="Helvetica,sans-Serif" font-size="10.00" fill="#000000">select</text>
</a>
</g>
</g>
<!-- Node3&#45;&gt;Node6 -->
<g id="edge5" class="edge">
<title>Node3&#45;&gt;Node6</title>
<path fill="none" stroke="#191970" d="M476.4789,-42.652C451.08,-35.4492 423.8721,-27.7334 405.6442,-22.5642"/>
<polygon fill="#191970" stroke="#191970" points="475.5267,-46.0199 486.1022,-45.3811 477.4365,-39.2855 475.5267,-46.0199"/>
</g>
<!-- Node7 -->
<g id="node7" class="node">
<title>Node7</title>
<g id="a_node7"><a xlink:href="class_l_f_s_t_k__font_dialog_class_af866eb2b1ba8178c9cf3e751716fcc8e.xhtml#af866eb2b1ba8178c9cf3e751716fcc8e" target="_top" xlink:title=" ">
<polygon fill="none" stroke="#000000" points="164.239,-.5 164.239,-32.5 286.92,-32.5 286.92,-.5 164.239,-.5"/>
<text text-anchor="start" x="172.239" y="-19.5" font-family="Helvetica,sans-Serif" font-size="10.00" fill="#000000">LFSTK_fontDialogClass</text>
<text text-anchor="middle" x="225.5795" y="-7.5" font-family="Helvetica,sans-Serif" font-size="10.00" fill="#000000">::buildDialog</text>
</a>
</g>
</g>
<!-- Node6&#45;&gt;Node7 -->
<g id="edge6" class="edge">
<title>Node6&#45;&gt;Node7</title>
<path fill="none" stroke="#191970" d="M353.1305,-16.5C334.3464,-16.5 309.7556,-16.5 287.1835,-16.5"/>
<polygon fill="#191970" stroke="#191970" points="353.1889,-20.0001 363.1889,-16.5 353.1889,-13.0001 353.1889,-20.0001"/>
</g>
<!-- Node8 -->
<g id="node8" class="node">
<title>Node8</title>
<g id="a_node8"><a xlink:href="class_l_f_s_t_k__font_dialog_class_ab7b6a4bca99713646ab6ac77dc34827c.xhtml#ab7b6a4bca99713646ab6ac77dc34827c" target="_top" xlink:title=" ">
<polygon fill="none" stroke="#000000" points="0,-.5 0,-32.5 128.239,-32.5 128.239,-.5 0,-.5"/>
<text text-anchor="start" x="8" y="-19.5" font-family="Helvetica,sans-Serif" font-size="10.00" fill="#000000">LFSTK_fontDialogClass</text>
<text text-anchor="middle" x="64.1195" y="-7.5" font-family="Helvetica,sans-Serif" font-size="10.00" fill="#000000">::LFSTK_fontDialogClass</text>
</a>
</g>
</g>
<!-- Node7&#45;&gt;Node8 -->
<g id="edge7" class="edge">
<title>Node7&#45;&gt;Node8</title>
<path fill="none" stroke="#191970" d="M153.8365,-16.5C145.3653,-16.5 136.7604,-16.5 128.4012,-16.5"/>
<polygon fill="#191970" stroke="#191970" points="154.0778,-20.0001 164.0778,-16.5 154.0778,-13.0001 154.0778,-20.0001"/>
</g>
</g>
</svg>
        <g id="navigator" transform="translate(0 0)" fill="#404254">
                <rect fill="#f2f5e9" fill-opacity="0.5" stroke="#606060" stroke-width=".5" x="0" y="0" width="60" height="60"/>
                <use id="zoomplus" xlink:href="#zoomPlus" x="17" y="9" onmousedown="handleZoom(evt,'in')"/>
                <use id="zoomminus" xlink:href="#zoomMin" x="42" y="9" onmousedown="handleZoom(evt,'out')"/>
                <use id="reset" xlink:href="#resetDef" x="30" y="36" onmousedown="handleReset()"/>
                <g id="arrowUp" xlink:href="#dirArrow" transform="translate(30 24)" onmousedown="handlePan(0,-1)">
                  <use xlink:href="#rim" fill="#404040">
                        <set attributeName="fill" to="#808080" begin="arrowUp.mouseover" end="arrowUp.mouseout"/>
                  </use>
                  <path fill="none" stroke="white" stroke-width="1.5" d="M0,-3.0v7 M-2.5,-0.5L0,-3.0L2.5,-0.5"/>
                </g>
                <g id="arrowRight" xlink:href="#dirArrow" transform="rotate(90) translate(36 -43)" onmousedown="handlePan(1,0)">
                  <use xlink:href="#rim" fill="#404040">
                        <set attributeName="fill" to="#808080" begin="arrowRight.mouseover" end="arrowRight.mouseout"/>
                  </use>
                  <path fill="none" stroke="white" stroke-width="1.5" d="M0,-3.0v7 M-2.5,-0.5L0,-3.0L2.5,-0.5"/>
                </g>
                <g id="arrowDown" xlink:href="#dirArrow" transform="rotate(180) translate(-30 -48)" onmousedown="handlePan(0,1)">
                  <use xlink:href="#rim" fill="#404040">
                        <set attributeName="fill" to="#808080" begin="arrowDown.mouseover" end="arrowDown.mouseout"/>
                  </use>
                  <path fill="none" stroke="white" stroke-width="1.5" d="M0,-3.0v7 M-2.5,-0.5L0,-3.0L2.5,-0.5"/>
                </g>
                <g id="arrowLeft" xlink:href="#dirArrow" transform="rotate(270) translate(-36 17)" onmousedown="handlePan(-1,0)">
                  <use xlink:href="#rim" fill="#404040">
                        <set attributeName="fill" to="#808080" begin="arrowLeft.mouseover" end="arrowLeft.mouseout"/>
                  </use>
                  <path fill="none" stroke="white" stroke-width="1.5" d="M0,-3.0v7 M-2.5,-0.5L0,-3.0L2.5,-0.5"/>
                </g>
        </g>
        <svg viewBox="0 0 15 15" width="100%" height="30px" preserveAspectRatio="xMaxYMin meet">
         <g id="arrow_out" transform="scale(0.3 0.3)">
          <a xlink:href="class_l_f_s_t_k__gadget_class_a68d08536cf6845c8c2b60a9c5f855478_a68d08536cf6845c8c2b60a9c5f855478_icgraph_org.svg" target="_base">
           <rect id="button" ry="5" rx="5" y="6" x="6" height="38" width="38"
                fill="#f2f5e9" fill-opacity="0.5" stroke="#606060" stroke-width="1.0"/>
           <path id="arrow"
             d="M 11.500037,31.436501 C 11.940474,20.09759 22.043105,11.32322 32.158766,21.979434 L 37.068811,17.246167 C 37.068811,17.246167 37.088388,32 37.088388,32 L 22.160133,31.978069 C 22.160133,31.978069 26.997745,27.140456 26.997745,27.140456 C 18.528582,18.264221 13.291696,25.230495 11.500037,31.436501 z"
             style="fill:#404040;"/>
          </a>
         </g>
        </svg>
</svg>
