<?xml version="1.0" encoding="UTF-8" standalone="no"?>
<!DOCTYPE svg PUBLIC "-//W3C//DTD SVG 1.1//EN"
 "http://www.w3.org/Graphics/SVG/1.1/DTD/svg11.dtd">
<!-- Generated by graphviz version 2.40.1 (20161225.0304)
 -->
<!-- Title: LFSTK_listGadgetClass::LFSTK_setListFromFile Pages: 1 -->
<!--zoomable 488 -->
<svg id="main" version="1.1" xmlns="http://www.w3.org/2000/svg" xmlns:xlink="http://www.w3.org/1999/xlink" xml:space="preserve" onload="init(evt)">
<style type="text/css"><![CDATA[
.edge:hover path { stroke: red; }
.edge:hover polygon { stroke: red; fill: red; }
]]></style>
<script type="text/javascript"><![CDATA[
var edges = document.getElementsByTagName('g');
if (edges && edges.length) {
  for (var i=0;i<edges.length;i++) {
    if (edges[i].id.substr(0,4)=='edge') {
      edges[i].setAttribute('class','edge');
    }
  }
}
]]></script>
        <defs>
                <circle id="rim" cx="0" cy="0" r="7"/>
                <circle id="rim2" cx="0" cy="0" r="3.5"/>
                <g id="zoomPlus">
                        <use xlink:href="#rim" fill="#404040">
                                <set attributeName="fill" to="#808080" begin="zoomplus.mouseover" end="zoomplus.mouseout"/>
                        </use>
                        <path d="M-4,0h8M0,-4v8" fill="none" stroke="white" stroke-width="1.5" pointer-events="none"/>
                </g>
                <g id="zoomMin">
                        <use xlink:href="#rim" fill="#404040">
                                <set attributeName="fill" to="#808080" begin="zoomminus.mouseover" end="zoomminus.mouseout"/>
                        </use>
                        <path d="M-4,0h8" fill="none" stroke="white" stroke-width="1.5" pointer-events="none"/>
                </g>
                <g id="dirArrow">
                        <path fill="none" stroke="white" stroke-width="1.5" d="M0,-3.0v7 M-2.5,-0.5L0,-3.0L2.5,-0.5"/>
                </g>
               <g id="resetDef">
                       <use xlink:href="#rim2" fill="#404040">
                               <set attributeName="fill" to="#808080" begin="reset.mouseover" end="reset.mouseout"/>
                       </use>
               </g>
        </defs>

<script type="text/javascript">
var viewWidth = 1193;
var viewHeight = 488;
var sectionId = 'dynsection-0';
</script>
<script xlink:href="svgpan.js"/>
<svg id="graph" class="graph">
<g id="viewport">
<title>LFSTK_listGadgetClass::LFSTK_setListFromFile</title>
<!-- Node1 -->
<g id="node1" class="node">
<title>Node1</title>
<g id="a_node1"><a xlink:title=" ">
<polygon fill="#bfbfbf" stroke="#000000" points="0,-255.5 0,-287.5 126.559,-287.5 126.559,-255.5 0,-255.5"/>
<text text-anchor="start" x="8" y="-274.5" font-family="Helvetica,sans-Serif" font-size="10.00" fill="#000000">LFSTK_listGadgetClass</text>
<text text-anchor="middle" x="63.2795" y="-262.5" font-family="Helvetica,sans-Serif" font-size="10.00" fill="#000000">::LFSTK_setListFromFile</text>
</a>
</g>
</g>
<!-- Node2 -->
<g id="node2" class="node">
<title>Node2</title>
<g id="a_node2"><a xlink:href="class_l_f_s_t_k__list_gadget_class_a838a897106a03a54a986628162cff143.xhtml#a838a897106a03a54a986628162cff143" target="_top" xlink:title=" ">
<polygon fill="none" stroke="#000000" points="356.8115,-447.5 356.8115,-479.5 479.4935,-479.5 479.4935,-447.5 356.8115,-447.5"/>
<text text-anchor="start" x="364.8115" y="-466.5" font-family="Helvetica,sans-Serif" font-size="10.00" fill="#000000">LFSTK_listGadgetClass</text>
<text text-anchor="middle" x="418.1525" y="-454.5" font-family="Helvetica,sans-Serif" font-size="10.00" fill="#000000">::freeList</text>
</a>
</g>
</g>
<!-- Node1&#45;&gt;Node2 -->
<g id="edge1" class="edge">
<title>Node1&#45;&gt;Node2</title>
<path fill="none" stroke="#191970" d="M92.9254,-287.5396C156.8546,-322.1277 307.6683,-403.7238 379.2009,-442.4257"/>
<polygon fill="#191970" stroke="#191970" points="377.8807,-445.6908 388.3414,-447.3711 381.2117,-439.5341 377.8807,-445.6908"/>
</g>
<!-- Node3 -->
<g id="node3" class="node">
<title>Node3</title>
<g id="a_node3"><a xlink:href="class_l_f_s_t_k__lib_ac5fce97c4bbf2a3c4e500bdc22c994a9.xhtml#ac5fce97c4bbf2a3c4e500bdc22c994a9" target="_top" xlink:title=" ">
<polygon fill="none" stroke="#000000" points="162.559,-216.5 162.559,-236.5 306.364,-236.5 306.364,-216.5 162.559,-216.5"/>
<text text-anchor="middle" x="234.4615" y="-223.5" font-family="Helvetica,sans-Serif" font-size="10.00" fill="#000000">LFSTK_lib::LFSTK_oneLiner</text>
</a>
</g>
</g>
<!-- Node1&#45;&gt;Node3 -->
<g id="edge2" class="edge">
<title>Node1&#45;&gt;Node3</title>
<path fill="none" stroke="#191970" d="M124.5966,-255.3811C144.9386,-250.0336 167.2749,-244.1619 186.4646,-239.1173"/>
<polygon fill="#191970" stroke="#191970" points="187.4041,-242.4894 196.1856,-236.5619 185.6243,-235.7194 187.4041,-242.4894"/>
</g>
<!-- Node4 -->
<g id="node4" class="node">
<title>Node4</title>
<g id="a_node4"><a xlink:href="class_l_f_s_t_k__list_gadget_class_abc8e7de85afdd0ddd7639668e579cd4e.xhtml#abc8e7de85afdd0ddd7639668e579cd4e" target="_top" xlink:title=" ">
<polygon fill="none" stroke="#000000" points="173.1205,-255.5 173.1205,-287.5 295.8025,-287.5 295.8025,-255.5 173.1205,-255.5"/>
<text text-anchor="start" x="181.1205" y="-274.5" font-family="Helvetica,sans-Serif" font-size="10.00" fill="#000000">LFSTK_listGadgetClass</text>
<text text-anchor="middle" x="234.4615" y="-262.5" font-family="Helvetica,sans-Serif" font-size="10.00" fill="#000000">::LFSTK_setList</text>
</a>
</g>
</g>
<!-- Node1&#45;&gt;Node4 -->
<g id="edge3" class="edge">
<title>Node1&#45;&gt;Node4</title>
<path fill="none" stroke="#191970" d="M127.0214,-271.5C138.6377,-271.5 150.8295,-271.5 162.6602,-271.5"/>
<polygon fill="#191970" stroke="#191970" points="162.9405,-275.0001 172.9405,-271.5 162.9405,-268.0001 162.9405,-275.0001"/>
</g>
<!-- Node4&#45;&gt;Node2 -->
<g id="edge4" class="edge">
<title>Node4&#45;&gt;Node2</title>
<path fill="none" stroke="#191970" d="M245.8806,-287.5707C260.2427,-307.8839 285.5436,-344.0047 306.364,-375.5 322.8874,-400.4951 319.4061,-413.2461 342.364,-432.5 346.8996,-436.3039 351.965,-439.6905 357.2676,-442.6949"/>
<polygon fill="#191970" stroke="#191970" points="355.8735,-445.9142 366.3641,-447.3965 359.0876,-439.6957 355.8735,-445.9142"/>
</g>
<!-- Node5 -->
<g id="node5" class="node">
<title>Node5</title>
<g id="a_node5"><a xlink:href="class_l_f_s_t_k__gadget_class_aa5b5f301fe9b0a4d7679f786da7462ba.xhtml#aa5b5f301fe9b0a4d7679f786da7462ba" target="_top" xlink:title=" ">
<polygon fill="none" stroke="#000000" points="538.549,-357.5 538.549,-389.5 652.352,-389.5 652.352,-357.5 538.549,-357.5"/>
<text text-anchor="start" x="546.549" y="-376.5" font-family="Helvetica,sans-Serif" font-size="10.00" fill="#000000">LFSTK_gadgetClass::</text>
<text text-anchor="middle" x="595.4505" y="-364.5" font-family="Helvetica,sans-Serif" font-size="10.00" fill="#000000">LFSTK_clearWindow</text>
</a>
</g>
</g>
<!-- Node4&#45;&gt;Node5 -->
<g id="edge5" class="edge">
<title>Node4&#45;&gt;Node5</title>
<path fill="none" stroke="#191970" d="M242.0621,-287.539C256.7367,-316.3633 292.025,-376.0963 342.364,-399.5 408.1608,-430.0904 493.7298,-410.7147 546.6015,-392.903"/>
<polygon fill="#191970" stroke="#191970" points="547.7848,-396.1972 556.0812,-389.6078 545.4864,-389.5853 547.7848,-396.1972"/>
</g>
<!-- Node14 -->
<g id="node14" class="node">
<title>Node14</title>
<g id="a_node14"><a xlink:href="class_l_f_s_t_k__window_class_ac3b5b99b3a018cce7c631df39db76be1.xhtml#ac3b5b99b3a018cce7c631df39db76be1" target="_top" xlink:title=" ">
<polygon fill="none" stroke="#000000" points="359.871,-357.5 359.871,-389.5 476.434,-389.5 476.434,-357.5 359.871,-357.5"/>
<text text-anchor="start" x="367.871" y="-376.5" font-family="Helvetica,sans-Serif" font-size="10.00" fill="#000000">LFSTK_windowClass::</text>
<text text-anchor="middle" x="418.1525" y="-364.5" font-family="Helvetica,sans-Serif" font-size="10.00" fill="#000000">LFSTK_clearWindow</text>
</a>
</g>
</g>
<!-- Node4&#45;&gt;Node14 -->
<g id="edge15" class="edge">
<title>Node4&#45;&gt;Node14</title>
<path fill="none" stroke="#191970" d="M253.2092,-287.5736C273.8851,-304.6325 308.7005,-331.4334 342.364,-348.5 345.8782,-350.2816 349.5469,-351.9759 353.2924,-353.5803"/>
<polygon fill="#191970" stroke="#191970" points="352.1332,-356.8867 362.7164,-357.3817 354.7518,-350.3949 352.1332,-356.8867"/>
</g>
<!-- Node15 -->
<g id="node15" class="node">
<title>Node15</title>
<g id="a_node15"><a xlink:href="class_l_f_s_t_k__gadget_class_a00d9d75e1766de5e88ab9fc06a9fb8ae.xhtml#a00d9d75e1766de5e88ab9fc06a9fb8ae" target="_top" xlink:title=" ">
<polygon fill="none" stroke="#000000" points="361.251,-255.5 361.251,-287.5 475.054,-287.5 475.054,-255.5 361.251,-255.5"/>
<text text-anchor="start" x="369.251" y="-274.5" font-family="Helvetica,sans-Serif" font-size="10.00" fill="#000000">LFSTK_gadgetClass::</text>
<text text-anchor="middle" x="418.1525" y="-262.5" font-family="Helvetica,sans-Serif" font-size="10.00" fill="#000000">LFSTK_setActive</text>
</a>
</g>
</g>
<!-- Node4&#45;&gt;Node15 -->
<g id="edge17" class="edge">
<title>Node4&#45;&gt;Node15</title>
<path fill="none" stroke="#191970" d="M295.8833,-271.5C313.5772,-271.5 332.9694,-271.5 350.9918,-271.5"/>
<polygon fill="#191970" stroke="#191970" points="351.1317,-275.0001 361.1316,-271.5 351.1316,-268.0001 351.1317,-275.0001"/>
</g>
<!-- Node16 -->
<g id="node16" class="node">
<title>Node16</title>
<g id="a_node16"><a xlink:href="class_l_f_s_t_k__gadget_class_a5cef46cb93c76a87220f82242fc1ffc3.xhtml#a5cef46cb93c76a87220f82242fc1ffc3" target="_top" xlink:title=" ">
<polygon fill="none" stroke="#000000" points="349.308,-204.5 349.308,-236.5 486.997,-236.5 486.997,-204.5 349.308,-204.5"/>
<text text-anchor="start" x="357.308" y="-223.5" font-family="Helvetica,sans-Serif" font-size="10.00" fill="#000000">LFSTK_gadgetClass::</text>
<text text-anchor="middle" x="418.1525" y="-211.5" font-family="Helvetica,sans-Serif" font-size="10.00" fill="#000000">LFSTK_setImageFromPath</text>
</a>
</g>
</g>
<!-- Node4&#45;&gt;Node16 -->
<g id="edge18" class="edge">
<title>Node4&#45;&gt;Node16</title>
<path fill="none" stroke="#191970" d="M292.3304,-255.4333C310.7782,-250.3114 331.355,-244.5985 350.4363,-239.3007"/>
<polygon fill="#191970" stroke="#191970" points="351.5599,-242.6213 360.259,-236.5736 349.6872,-235.8764 351.5599,-242.6213"/>
</g>
<!-- Node20 -->
<g id="node20" class="node">
<title>Node20</title>
<g id="a_node20"><a xlink:href="class_l_f_s_t_k__gadget_class_adfe8ab99af9a2a92df3620bf0f7f55cd.xhtml#adfe8ab99af9a2a92df3620bf0f7f55cd" target="_top" xlink:title=" ">
<polygon fill="none" stroke="#000000" points="342.364,-153.5 342.364,-185.5 493.941,-185.5 493.941,-153.5 342.364,-153.5"/>
<text text-anchor="start" x="350.364" y="-172.5" font-family="Helvetica,sans-Serif" font-size="10.00" fill="#000000">LFSTK_gadgetClass::</text>
<text text-anchor="middle" x="418.1525" y="-160.5" font-family="Helvetica,sans-Serif" font-size="10.00" fill="#000000">LFSTK_setImageFromSurface</text>
</a>
</g>
</g>
<!-- Node4&#45;&gt;Node20 -->
<g id="edge22" class="edge">
<title>Node4&#45;&gt;Node20</title>
<path fill="none" stroke="#191970" d="M291.9289,-255.3396C297.0405,-252.7887 301.9449,-249.859 306.364,-246.5 328.7423,-229.4902 319.8504,-211.3303 342.364,-194.5 344.2124,-193.1182 346.141,-191.8105 348.1317,-190.5729"/>
<polygon fill="#191970" stroke="#191970" points="350.1255,-193.4708 357.2007,-185.5846 346.7518,-187.3374 350.1255,-193.4708"/>
</g>
<!-- Node21 -->
<g id="node21" class="node">
<title>Node21</title>
<g id="a_node21"><a xlink:href="class_l_f_s_t_k__gadget_class_a0331bef494c43154a2516cd70ee30e19.xhtml#a0331bef494c43154a2516cd70ee30e19" target="_top" xlink:title=" ">
<polygon fill="none" stroke="#000000" points="361.251,-306.5 361.251,-338.5 475.054,-338.5 475.054,-306.5 361.251,-306.5"/>
<text text-anchor="start" x="369.251" y="-325.5" font-family="Helvetica,sans-Serif" font-size="10.00" fill="#000000">LFSTK_gadgetClass::</text>
<text text-anchor="middle" x="418.1525" y="-313.5" font-family="Helvetica,sans-Serif" font-size="10.00" fill="#000000">LFSTK_setLabel</text>
</a>
</g>
</g>
<!-- Node4&#45;&gt;Node21 -->
<g id="edge24" class="edge">
<title>Node4&#45;&gt;Node21</title>
<path fill="none" stroke="#191970" d="M292.3304,-287.5667C311.1328,-292.787 332.1466,-298.6213 351.5347,-304.0042"/>
<polygon fill="#191970" stroke="#191970" points="350.6318,-307.3859 361.2037,-306.6887 352.5045,-300.641 350.6318,-307.3859"/>
</g>
<!-- Node23 -->
<g id="node23" class="node">
<title>Node23</title>
<g id="a_node23"><a xlink:href="class_l_f_s_t_k__gadget_class_ae0cc7f340a2b8f6103d41ecb3e6aab2e.xhtml#ae0cc7f340a2b8f6103d41ecb3e6aab2e" target="_top" xlink:title=" ">
<polygon fill="none" stroke="#000000" points="357.0865,-102.5 357.0865,-134.5 479.2185,-134.5 479.2185,-102.5 357.0865,-102.5"/>
<text text-anchor="start" x="365.0865" y="-121.5" font-family="Helvetica,sans-Serif" font-size="10.00" fill="#000000">LFSTK_gadgetClass::</text>
<text text-anchor="middle" x="418.1525" y="-109.5" font-family="Helvetica,sans-Serif" font-size="10.00" fill="#000000">LFSTK_setLabelGravity</text>
</a>
</g>
</g>
<!-- Node4&#45;&gt;Node23 -->
<g id="edge27" class="edge">
<title>Node4&#45;&gt;Node23</title>
<path fill="none" stroke="#191970" d="M295.0384,-255.2918C299.1551,-252.772 302.997,-249.8615 306.364,-246.5 340.6818,-212.2379 307.7733,-177.4866 342.364,-143.5 344.2232,-141.6732 346.2185,-139.98 348.3197,-138.4104"/>
<polygon fill="#191970" stroke="#191970" points="350.3354,-141.2761 356.8863,-132.9492 346.5725,-135.3735 350.3354,-141.2761"/>
</g>
<!-- Node24 -->
<g id="node24" class="node">
<title>Node24</title>
<g id="a_node24"><a xlink:href="class_l_f_s_t_k__scroll_bar_class_ab989323af6c3232877e78441d324b1fd.xhtml#ab989323af6c3232877e78441d324b1fd" target="_top" xlink:title=" ">
<polygon fill="none" stroke="#000000" points="359.8755,-51.5 359.8755,-83.5 476.4295,-83.5 476.4295,-51.5 359.8755,-51.5"/>
<text text-anchor="start" x="367.8755" y="-70.5" font-family="Helvetica,sans-Serif" font-size="10.00" fill="#000000">LFSTK_scrollBarClass</text>
<text text-anchor="middle" x="418.1525" y="-58.5" font-family="Helvetica,sans-Serif" font-size="10.00" fill="#000000">::LFSTK_setScale</text>
</a>
</g>
</g>
<!-- Node4&#45;&gt;Node24 -->
<g id="edge28" class="edge">
<title>Node4&#45;&gt;Node24</title>
<path fill="none" stroke="#191970" d="M295.7804,-255.4605C299.6768,-252.9031 303.2693,-249.9379 306.364,-246.5 353.3903,-194.2586 294.9215,-144.3638 342.364,-92.5 344.9474,-89.6759 347.8557,-87.1701 350.9889,-84.947"/>
<polygon fill="#191970" stroke="#191970" points="352.9642,-87.8435 359.7385,-79.6974 349.3628,-81.841 352.9642,-87.8435"/>
</g>
<!-- Node25 -->
<g id="node25" class="node">
<title>Node25</title>
<g id="a_node25"><a xlink:href="class_l_f_s_t_k__list_gadget_class_a3021a8227c6bf0b0183e6afba5f6ad5c.xhtml#a3021a8227c6bf0b0183e6afba5f6ad5c" target="_top" xlink:title=" ">
<polygon fill="none" stroke="#000000" points="356.8115,-.5 356.8115,-32.5 479.4935,-32.5 479.4935,-.5 356.8115,-.5"/>
<text text-anchor="start" x="364.8115" y="-19.5" font-family="Helvetica,sans-Serif" font-size="10.00" fill="#000000">LFSTK_listGadgetClass</text>
<text text-anchor="middle" x="418.1525" y="-7.5" font-family="Helvetica,sans-Serif" font-size="10.00" fill="#000000">::setNavSensitive</text>
</a>
</g>
</g>
<!-- Node4&#45;&gt;Node25 -->
<g id="edge29" class="edge">
<title>Node4&#45;&gt;Node25</title>
<path fill="none" stroke="#191970" d="M295.9976,-255.6505C299.8445,-253.0498 303.3664,-250.0229 306.364,-246.5 366.3111,-176.0473 281.8555,-111.4711 342.364,-41.5 344.1086,-39.4826 346.0193,-37.6272 348.0614,-35.921"/>
<polygon fill="#191970" stroke="#191970" points="350.297,-38.6297 356.515,-30.0513 346.3047,-32.8798 350.297,-38.6297"/>
</g>
<!-- Node6 -->
<g id="node6" class="node">
<title>Node6</title>
<g id="a_node6"><a xlink:href="class_l_f_s_t_k__gadget_class_a66b92f213e5a7e75da3f707b511342ea.xhtml#a66b92f213e5a7e75da3f707b511342ea" target="_top" xlink:title=" ">
<polygon fill="none" stroke="#000000" points="722.7955,-357.5 722.7955,-389.5 836.5985,-389.5 836.5985,-357.5 722.7955,-357.5"/>
<text text-anchor="start" x="730.7955" y="-376.5" font-family="Helvetica,sans-Serif" font-size="10.00" fill="#000000">LFSTK_gadgetClass::</text>
<text text-anchor="middle" x="779.697" y="-364.5" font-family="Helvetica,sans-Serif" font-size="10.00" fill="#000000">drawGagetDetails</text>
</a>
</g>
</g>
<!-- Node5&#45;&gt;Node6 -->
<g id="edge6" class="edge">
<title>Node5&#45;&gt;Node6</title>
<path fill="none" stroke="#191970" d="M652.4855,-373.5C671.4751,-373.5 692.8034,-373.5 712.4901,-373.5"/>
<polygon fill="#191970" stroke="#191970" points="712.6144,-377.0001 722.6144,-373.5 712.6143,-370.0001 712.6144,-377.0001"/>
</g>
<!-- Node7 -->
<g id="node7" class="node">
<title>Node7</title>
<g id="a_node7"><a xlink:href="class_l_f_s_t_k__gadget_class_a37d96aab3c59cb97fca1720441e3fc8e.xhtml#a37d96aab3c59cb97fca1720441e3fc8e" target="_top" xlink:title=" ">
<polygon fill="none" stroke="#000000" points="898.434,-447.5 898.434,-479.5 1012.237,-479.5 1012.237,-447.5 898.434,-447.5"/>
<text text-anchor="start" x="906.434" y="-466.5" font-family="Helvetica,sans-Serif" font-size="10.00" fill="#000000">LFSTK_gadgetClass::</text>
<text text-anchor="middle" x="955.3355" y="-454.5" font-family="Helvetica,sans-Serif" font-size="10.00" fill="#000000">clearBox</text>
</a>
</g>
</g>
<!-- Node6&#45;&gt;Node7 -->
<g id="edge7" class="edge">
<title>Node6&#45;&gt;Node7</title>
<path fill="none" stroke="#191970" d="M811.0976,-389.5902C840.1052,-404.4541 883.3544,-426.6157 914.9274,-442.7942"/>
<polygon fill="#191970" stroke="#191970" points="913.4153,-445.9521 923.9111,-447.3976 916.6076,-439.7224 913.4153,-445.9521"/>
</g>
<!-- Node8 -->
<g id="node8" class="node">
<title>Node8</title>
<g id="a_node8"><a xlink:href="class_l_f_s_t_k__gadget_class_ab76db165a19af248b5e94e95492dc879.xhtml#ab76db165a19af248b5e94e95492dc879" target="_top" xlink:title=" ">
<polygon fill="none" stroke="#000000" points="1059.6235,-379.5 1059.6235,-411.5 1173.4265,-411.5 1173.4265,-379.5 1059.6235,-379.5"/>
<text text-anchor="start" x="1067.6235" y="-398.5" font-family="Helvetica,sans-Serif" font-size="10.00" fill="#000000">LFSTK_gadgetClass::</text>
<text text-anchor="middle" x="1116.525" y="-386.5" font-family="Helvetica,sans-Serif" font-size="10.00" fill="#000000">drawBevel</text>
</a>
</g>
</g>
<!-- Node6&#45;&gt;Node8 -->
<g id="edge8" class="edge">
<title>Node6&#45;&gt;Node8</title>
<path fill="none" stroke="#191970" d="M836.6601,-388.582C856.1076,-393.0319 878.0834,-397.298 898.434,-399.5 948.7196,-404.9411 961.6672,-400.4695 1012.237,-399.5 1024.1961,-399.2707 1036.9223,-398.8937 1049.2248,-398.4604"/>
<polygon fill="#191970" stroke="#191970" points="1049.5684,-401.9502 1059.4331,-398.0852 1049.3112,-394.955 1049.5684,-401.9502"/>
</g>
<!-- Node9 -->
<g id="node9" class="node">
<title>Node9</title>
<g id="a_node9"><a xlink:href="class_l_f_s_t_k__gadget_class_af5386ffc4699273f6c53a920fc8b2f1d.xhtml#af5386ffc4699273f6c53a920fc8b2f1d" target="_top" xlink:title=" ">
<polygon fill="none" stroke="#000000" points="898.434,-306.5 898.434,-338.5 1012.237,-338.5 1012.237,-306.5 898.434,-306.5"/>
<text text-anchor="start" x="906.434" y="-325.5" font-family="Helvetica,sans-Serif" font-size="10.00" fill="#000000">LFSTK_gadgetClass::</text>
<text text-anchor="middle" x="955.3355" y="-313.5" font-family="Helvetica,sans-Serif" font-size="10.00" fill="#000000">drawImage</text>
</a>
</g>
</g>
<!-- Node6&#45;&gt;Node9 -->
<g id="edge9" class="edge">
<title>Node6&#45;&gt;Node9</title>
<path fill="none" stroke="#191970" d="M835.2701,-357.3633C852.8193,-352.2675 872.3636,-346.5925 890.5009,-341.326"/>
<polygon fill="#191970" stroke="#191970" points="891.4966,-344.6815 900.1239,-338.5317 889.5445,-337.9592 891.4966,-344.6815"/>
</g>
<!-- Node10 -->
<g id="node10" class="node">
<title>Node10</title>
<g id="a_node10"><a xlink:href="class_l_f_s_t_k__gadget_class_af77235e4dc604470c9d62f101238225b.xhtml#af77235e4dc604470c9d62f101238225b" target="_top" xlink:title=" ">
<polygon fill="none" stroke="#000000" points="898.434,-357.5 898.434,-389.5 1012.237,-389.5 1012.237,-357.5 898.434,-357.5"/>
<text text-anchor="start" x="906.434" y="-376.5" font-family="Helvetica,sans-Serif" font-size="10.00" fill="#000000">LFSTK_gadgetClass::</text>
<text text-anchor="middle" x="955.3355" y="-364.5" font-family="Helvetica,sans-Serif" font-size="10.00" fill="#000000">drawIndicator</text>
</a>
</g>
</g>
<!-- Node6&#45;&gt;Node10 -->
<g id="edge10" class="edge">
<title>Node6&#45;&gt;Node10</title>
<path fill="none" stroke="#191970" d="M836.7218,-373.5C853.063,-373.5 871.0331,-373.5 887.9349,-373.5"/>
<polygon fill="#191970" stroke="#191970" points="888.2965,-377.0001 898.2965,-373.5 888.2965,-370.0001 888.2965,-377.0001"/>
</g>
<!-- Node11 -->
<g id="node11" class="node">
<title>Node11</title>
<g id="a_node11"><a xlink:href="class_l_f_s_t_k__gadget_class_a7f44f781b167d66c5d6f4cc862a7e2db.xhtml#a7f44f781b167d66c5d6f4cc862a7e2db" target="_top" xlink:title=" ">
<polygon fill="none" stroke="#000000" points="898.434,-255.5 898.434,-287.5 1012.237,-287.5 1012.237,-255.5 898.434,-255.5"/>
<text text-anchor="start" x="906.434" y="-274.5" font-family="Helvetica,sans-Serif" font-size="10.00" fill="#000000">LFSTK_gadgetClass::</text>
<text text-anchor="middle" x="955.3355" y="-262.5" font-family="Helvetica,sans-Serif" font-size="10.00" fill="#000000">drawLabel</text>
</a>
</g>
</g>
<!-- Node6&#45;&gt;Node11 -->
<g id="edge12" class="edge">
<title>Node6&#45;&gt;Node11</title>
<path fill="none" stroke="#191970" d="M802.7598,-357.3588C826.2633,-341.2421 864.0486,-316.2394 898.434,-297.5 901.8762,-295.6241 905.4789,-293.7603 909.1284,-291.9425"/>
<polygon fill="#191970" stroke="#191970" points="910.7543,-295.044 918.2317,-287.538 907.7055,-288.7428 910.7543,-295.044"/>
</g>
<!-- Node10&#45;&gt;Node8 -->
<g id="edge11" class="edge">
<title>Node10&#45;&gt;Node8</title>
<path fill="none" stroke="#191970" d="M1012.6187,-381.3183C1024.4955,-382.9393 1037.1111,-384.6612 1049.3065,-386.3257"/>
<polygon fill="#191970" stroke="#191970" points="1049.0447,-389.8223 1059.4262,-387.7069 1049.9914,-382.8866 1049.0447,-389.8223"/>
</g>
<!-- Node12 -->
<g id="node12" class="node">
<title>Node12</title>
<g id="a_node12"><a xlink:href="class_l_f_s_t_k__lib_ab2f14a3414f7db863682d1e2fa0cfb75.xhtml#ab2f14a3414f7db863682d1e2fa0cfb75" target="_top" xlink:title=" ">
<polygon fill="none" stroke="#000000" points="1048.237,-284.5 1048.237,-304.5 1184.813,-304.5 1184.813,-284.5 1048.237,-284.5"/>
<text text-anchor="middle" x="1116.525" y="-291.5" font-family="Helvetica,sans-Serif" font-size="10.00" fill="#000000">LFSTK_lib::bestFontColour</text>
</a>
</g>
</g>
<!-- Node11&#45;&gt;Node12 -->
<g id="edge13" class="edge">
<title>Node11&#45;&gt;Node12</title>
<path fill="none" stroke="#191970" d="M1012.6187,-279.6737C1020.8787,-280.8523 1029.4961,-282.0819 1038.081,-283.3069"/>
<polygon fill="#191970" stroke="#191970" points="1037.7263,-286.7917 1048.1205,-284.7394 1038.7152,-279.8618 1037.7263,-286.7917"/>
</g>
<!-- Node13 -->
<g id="node13" class="node">
<title>Node13</title>
<g id="a_node13"><a xlink:href="class_l_f_s_t_k__gadget_class_a091281ba03eaeb31bc7507c74b9b4f2f.xhtml#a091281ba03eaeb31bc7507c74b9b4f2f" target="_top" xlink:title=" ">
<polygon fill="none" stroke="#000000" points="1059.069,-233.5 1059.069,-265.5 1173.981,-265.5 1173.981,-233.5 1059.069,-233.5"/>
<text text-anchor="start" x="1067.069" y="-252.5" font-family="Helvetica,sans-Serif" font-size="10.00" fill="#000000">LFSTK_gadgetClass::</text>
<text text-anchor="middle" x="1116.525" y="-240.5" font-family="Helvetica,sans-Serif" font-size="10.00" fill="#000000">LFSTK_getTextHeight</text>
</a>
</g>
</g>
<!-- Node11&#45;&gt;Node13 -->
<g id="edge14" class="edge">
<title>Node11&#45;&gt;Node13</title>
<path fill="none" stroke="#191970" d="M1012.6187,-263.6817C1024.3541,-262.08 1036.8109,-260.3798 1048.8707,-258.7338"/>
<polygon fill="#191970" stroke="#191970" points="1049.4483,-262.1875 1058.8831,-257.3673 1048.5016,-255.2518 1049.4483,-262.1875"/>
</g>
<!-- Node14&#45;&gt;Node5 -->
<g id="edge16" class="edge">
<title>Node14&#45;&gt;Node5</title>
<path fill="none" stroke="#191970" d="M476.6979,-373.5C493.1531,-373.5 511.1786,-373.5 528.103,-373.5"/>
<polygon fill="#191970" stroke="#191970" points="528.4747,-377.0001 538.4747,-373.5 528.4747,-370.0001 528.4747,-377.0001"/>
</g>
<!-- Node17 -->
<g id="node17" class="node">
<title>Node17</title>
<g id="a_node17"><a xlink:href="class_l_f_s_t_k__lib_ad794f7ab3a4ca5a03adbb0472fa93788.xhtml#ad794f7ab3a4ca5a03adbb0472fa93788" target="_top" xlink:title=" ">
<polygon fill="none" stroke="#000000" points="532.166,-204.5 532.166,-248.5 658.735,-248.5 658.735,-204.5 532.166,-204.5"/>
<text text-anchor="start" x="540.166" y="-235.5" font-family="Helvetica,sans-Serif" font-size="10.00" fill="#000000">LFSTK_lib::LFSTK_cairo</text>
<text text-anchor="start" x="540.166" y="-223.5" font-family="Helvetica,sans-Serif" font-size="10.00" fill="#000000">_image_surface_create</text>
<text text-anchor="middle" x="595.4505" y="-211.5" font-family="Helvetica,sans-Serif" font-size="10.00" fill="#000000">_from_jpeg</text>
</a>
</g>
</g>
<!-- Node16&#45;&gt;Node17 -->
<g id="edge19" class="edge">
<title>Node16&#45;&gt;Node17</title>
<path fill="none" stroke="#191970" d="M487.2082,-222.8369C498.6389,-223.2238 510.5272,-223.6261 522.0602,-224.0164"/>
<polygon fill="#191970" stroke="#191970" points="521.9707,-227.5153 532.0833,-224.3556 522.2075,-220.5193 521.9707,-227.5153"/>
</g>
<!-- Node19 -->
<g id="node19" class="node">
<title>Node19</title>
<g id="a_node19"><a xlink:href="class_l_f_s_t_k__gadget_class_a23bc2dc7b8200df4dc74f1f68460eca2.xhtml#a23bc2dc7b8200df4dc74f1f68460eca2" target="_top" xlink:title=" ">
<polygon fill="none" stroke="#000000" points="538.549,-153.5 538.549,-185.5 652.352,-185.5 652.352,-153.5 538.549,-153.5"/>
<text text-anchor="start" x="546.549" y="-172.5" font-family="Helvetica,sans-Serif" font-size="10.00" fill="#000000">LFSTK_gadgetClass::</text>
<text text-anchor="middle" x="595.4505" y="-160.5" font-family="Helvetica,sans-Serif" font-size="10.00" fill="#000000">LFSTK_getTextWidth</text>
</a>
</g>
</g>
<!-- Node16&#45;&gt;Node19 -->
<g id="edge21" class="edge">
<title>Node16&#45;&gt;Node19</title>
<path fill="none" stroke="#191970" d="M474.2507,-204.3633C491.9657,-199.2675 511.6947,-193.5925 530.0033,-188.326"/>
<polygon fill="#191970" stroke="#191970" points="531.0745,-191.6598 539.7172,-185.5317 529.1394,-184.9326 531.0745,-191.6598"/>
</g>
<!-- Node18 -->
<g id="node18" class="node">
<title>Node18</title>
<g id="a_node18"><a xlink:href="class_l_f_s_t_k__lib_a6beac3954823730f63c32a97949db52a.xhtml#a6beac3954823730f63c32a97949db52a" target="_top" xlink:title=" ">
<polygon fill="none" stroke="#000000" points="696.96,-210.5 696.96,-242.5 862.434,-242.5 862.434,-210.5 696.96,-210.5"/>
<text text-anchor="start" x="704.96" y="-229.5" font-family="Helvetica,sans-Serif" font-size="10.00" fill="#000000">LFSTK_lib::cairo_image</text>
<text text-anchor="middle" x="779.697" y="-217.5" font-family="Helvetica,sans-Serif" font-size="10.00" fill="#000000">_surface_create_from_jpeg_mem</text>
</a>
</g>
</g>
<!-- Node17&#45;&gt;Node18 -->
<g id="edge20" class="edge">
<title>Node17&#45;&gt;Node18</title>
<path fill="none" stroke="#191970" d="M658.8577,-226.5C667.8016,-226.5 677.1468,-226.5 686.5066,-226.5"/>
<polygon fill="#191970" stroke="#191970" points="686.6506,-230.0001 696.6505,-226.5 686.6505,-223.0001 686.6506,-230.0001"/>
</g>
<!-- Node20&#45;&gt;Node19 -->
<g id="edge23" class="edge">
<title>Node20&#45;&gt;Node19</title>
<path fill="none" stroke="#191970" d="M494.1144,-169.5C505.4839,-169.5 517.1378,-169.5 528.3069,-169.5"/>
<polygon fill="#191970" stroke="#191970" points="528.406,-173.0001 538.406,-169.5 528.4059,-166.0001 528.406,-173.0001"/>
</g>
<!-- Node21&#45;&gt;Node5 -->
<g id="edge25" class="edge">
<title>Node21&#45;&gt;Node5</title>
<path fill="none" stroke="#191970" d="M474.2507,-338.6367C491.9657,-343.7325 511.6947,-349.4075 530.0033,-354.674"/>
<polygon fill="#191970" stroke="#191970" points="529.1394,-358.0674 539.7172,-357.4683 531.0745,-351.3402 529.1394,-358.0674"/>
</g>
<!-- Node22 -->
<g id="node22" class="node">
<title>Node22</title>
<g id="a_node22"><a xlink:href="class_l_f_s_t_k__gadget_class_a6ba306176db18f16e2a034c875f53de0.xhtml#a6ba306176db18f16e2a034c875f53de0" target="_top" xlink:title=" ">
<polygon fill="none" stroke="#000000" points="529.941,-306.5 529.941,-338.5 660.96,-338.5 660.96,-306.5 529.941,-306.5"/>
<text text-anchor="start" x="537.941" y="-325.5" font-family="Helvetica,sans-Serif" font-size="10.00" fill="#000000">LFSTK_gadgetClass::</text>
<text text-anchor="middle" x="595.4505" y="-313.5" font-family="Helvetica,sans-Serif" font-size="10.00" fill="#000000">LFSTK_setCairoFontData</text>
</a>
</g>
</g>
<!-- Node21&#45;&gt;Node22 -->
<g id="edge26" class="edge">
<title>Node21&#45;&gt;Node22</title>
<path fill="none" stroke="#191970" d="M475.2266,-322.5C489.3735,-322.5 504.7545,-322.5 519.6419,-322.5"/>
<polygon fill="#191970" stroke="#191970" points="519.8485,-326.0001 529.8485,-322.5 519.8484,-319.0001 519.8485,-326.0001"/>
</g>
</g>
</svg>
        <g id="navigator" transform="translate(0 0)" fill="#404254">
                <rect fill="#f2f5e9" fill-opacity="0.5" stroke="#606060" stroke-width=".5" x="0" y="0" width="60" height="60"/>
                <use id="zoomplus" xlink:href="#zoomPlus" x="17" y="9" onmousedown="handleZoom(evt,'in')"/>
                <use id="zoomminus" xlink:href="#zoomMin" x="42" y="9" onmousedown="handleZoom(evt,'out')"/>
                <use id="reset" xlink:href="#resetDef" x="30" y="36" onmousedown="handleReset()"/>
                <g id="arrowUp" xlink:href="#dirArrow" transform="translate(30 24)" onmousedown="handlePan(0,-1)">
                  <use xlink:href="#rim" fill="#404040">
                        <set attributeName="fill" to="#808080" begin="arrowUp.mouseover" end="arrowUp.mouseout"/>
                  </use>
                  <path fill="none" stroke="white" stroke-width="1.5" d="M0,-3.0v7 M-2.5,-0.5L0,-3.0L2.5,-0.5"/>
                </g>
                <g id="arrowRight" xlink:href="#dirArrow" transform="rotate(90) translate(36 -43)" onmousedown="handlePan(1,0)">
                  <use xlink:href="#rim" fill="#404040">
                        <set attributeName="fill" to="#808080" begin="arrowRight.mouseover" end="arrowRight.mouseout"/>
                  </use>
                  <path fill="none" stroke="white" stroke-width="1.5" d="M0,-3.0v7 M-2.5,-0.5L0,-3.0L2.5,-0.5"/>
                </g>
                <g id="arrowDown" xlink:href="#dirArrow" transform="rotate(180) translate(-30 -48)" onmousedown="handlePan(0,1)">
                  <use xlink:href="#rim" fill="#404040">
                        <set attributeName="fill" to="#808080" begin="arrowDown.mouseover" end="arrowDown.mouseout"/>
                  </use>
                  <path fill="none" stroke="white" stroke-width="1.5" d="M0,-3.0v7 M-2.5,-0.5L0,-3.0L2.5,-0.5"/>
                </g>
                <g id="arrowLeft" xlink:href="#dirArrow" transform="rotate(270) translate(-36 17)" onmousedown="handlePan(-1,0)">
                  <use xlink:href="#rim" fill="#404040">
                        <set attributeName="fill" to="#808080" begin="arrowLeft.mouseover" end="arrowLeft.mouseout"/>
                  </use>
                  <path fill="none" stroke="white" stroke-width="1.5" d="M0,-3.0v7 M-2.5,-0.5L0,-3.0L2.5,-0.5"/>
                </g>
        </g>
        <svg viewBox="0 0 15 15" width="100%" height="30px" preserveAspectRatio="xMaxYMin meet">
         <g id="arrow_out" transform="scale(0.3 0.3)">
          <a xlink:href="class_l_f_s_t_k__list_gadget_class_addcdb5ba330fd8dd36beb94ea2081dd3_addcdb5ba330fd8dd36beb94ea2081dd3_cgraph_org.svg" target="_base">
           <rect id="button" ry="5" rx="5" y="6" x="6" height="38" width="38"
                fill="#f2f5e9" fill-opacity="0.5" stroke="#606060" stroke-width="1.0"/>
           <path id="arrow"
             d="M 11.500037,31.436501 C 11.940474,20.09759 22.043105,11.32322 32.158766,21.979434 L 37.068811,17.246167 C 37.068811,17.246167 37.088388,32 37.088388,32 L 22.160133,31.978069 C 22.160133,31.978069 26.997745,27.140456 26.997745,27.140456 C 18.528582,18.264221 13.291696,25.230495 11.500037,31.436501 z"
             style="fill:#404040;"/>
          </a>
         </g>
        </svg>
</svg>
