<?xml version="1.0" encoding="UTF-8" standalone="no"?>
<!DOCTYPE svg PUBLIC "-//W3C//DTD SVG 1.1//EN"
 "http://www.w3.org/Graphics/SVG/1.1/DTD/svg11.dtd">
<!-- Generated by graphviz version 2.40.1 (20161225.0304)
 -->
<!-- Title: LFSTK_scrollBarClass::LFSTK_scrollByPage Pages: 1 -->
<!--zoomable 252 -->
<svg id="main" version="1.1" xmlns="http://www.w3.org/2000/svg" xmlns:xlink="http://www.w3.org/1999/xlink" xml:space="preserve" onload="init(evt)">
<style type="text/css"><![CDATA[
.edge:hover path { stroke: red; }
.edge:hover polygon { stroke: red; fill: red; }
]]></style>
<script type="text/javascript"><![CDATA[
var edges = document.getElementsByTagName('g');
if (edges && edges.length) {
  for (var i=0;i<edges.length;i++) {
    if (edges[i].id.substr(0,4)=='edge') {
      edges[i].setAttribute('class','edge');
    }
  }
}
]]></script>
        <defs>
                <circle id="rim" cx="0" cy="0" r="7"/>
                <circle id="rim2" cx="0" cy="0" r="3.5"/>
                <g id="zoomPlus">
                        <use xlink:href="#rim" fill="#404040">
                                <set attributeName="fill" to="#808080" begin="zoomplus.mouseover" end="zoomplus.mouseout"/>
                        </use>
                        <path d="M-4,0h8M0,-4v8" fill="none" stroke="white" stroke-width="1.5" pointer-events="none"/>
                </g>
                <g id="zoomMin">
                        <use xlink:href="#rim" fill="#404040">
                                <set attributeName="fill" to="#808080" begin="zoomminus.mouseover" end="zoomminus.mouseout"/>
                        </use>
                        <path d="M-4,0h8" fill="none" stroke="white" stroke-width="1.5" pointer-events="none"/>
                </g>
                <g id="dirArrow">
                        <path fill="none" stroke="white" stroke-width="1.5" d="M0,-3.0v7 M-2.5,-0.5L0,-3.0L2.5,-0.5"/>
                </g>
               <g id="resetDef">
                       <use xlink:href="#rim2" fill="#404040">
                               <set attributeName="fill" to="#808080" begin="reset.mouseover" end="reset.mouseout"/>
                       </use>
               </g>
        </defs>

<script type="text/javascript">
var viewWidth = 1354;
var viewHeight = 252;
var sectionId = 'dynsection-0';
</script>
<script xlink:href="svgpan.js"/>
<svg id="graph" class="graph">
<g id="viewport">
<title>LFSTK_scrollBarClass::LFSTK_scrollByPage</title>
<!-- Node1 -->
<g id="node1" class="node">
<title>Node1</title>
<g id="a_node1"><a xlink:title=" ">
<polygon fill="#bfbfbf" stroke="#000000" points="0,-157.5 0,-189.5 116.573,-189.5 116.573,-157.5 0,-157.5"/>
<text text-anchor="start" x="8" y="-176.5" font-family="Helvetica,sans-Serif" font-size="10.00" fill="#000000">LFSTK_scrollBarClass</text>
<text text-anchor="middle" x="58.2865" y="-164.5" font-family="Helvetica,sans-Serif" font-size="10.00" fill="#000000">::LFSTK_scrollByPage</text>
</a>
</g>
</g>
<!-- Node2 -->
<g id="node2" class="node">
<title>Node2</title>
<g id="a_node2"><a xlink:href="class_l_f_s_t_k__scroll_bar_class_a04c7fd897a3f2e5d496962cc7d80d4e3.xhtml#a04c7fd897a3f2e5d496962cc7d80d4e3" target="_top" xlink:title=" ">
<polygon fill="none" stroke="#000000" points="152.573,-157.5 152.573,-189.5 269.127,-189.5 269.127,-157.5 152.573,-157.5"/>
<text text-anchor="start" x="160.573" y="-176.5" font-family="Helvetica,sans-Serif" font-size="10.00" fill="#000000">LFSTK_scrollBarClass</text>
<text text-anchor="middle" x="210.85" y="-164.5" font-family="Helvetica,sans-Serif" font-size="10.00" fill="#000000">::pageUpDown</text>
</a>
</g>
</g>
<!-- Node1&#45;&gt;Node2 -->
<g id="edge1" class="edge">
<title>Node1&#45;&gt;Node2</title>
<path fill="none" stroke="#191970" d="M116.8352,-173.5C125.1392,-173.5 133.7399,-173.5 142.2135,-173.5"/>
<polygon fill="#191970" stroke="#191970" points="142.458,-177.0001 152.458,-173.5 142.4579,-170.0001 142.458,-177.0001"/>
</g>
<!-- Node3 -->
<g id="node3" class="node">
<title>Node3</title>
<g id="a_node3"><a xlink:href="class_l_f_s_t_k__scroll_bar_class_a3e47c5f9944ddb2a861b80853f85ce12.xhtml#a3e47c5f9944ddb2a861b80853f85ce12" target="_top" xlink:title=" ">
<polygon fill="none" stroke="#000000" points="305.127,-157.5 305.127,-189.5 421.681,-189.5 421.681,-157.5 305.127,-157.5"/>
<text text-anchor="start" x="313.127" y="-176.5" font-family="Helvetica,sans-Serif" font-size="10.00" fill="#000000">LFSTK_scrollBarClass</text>
<text text-anchor="middle" x="363.404" y="-164.5" font-family="Helvetica,sans-Serif" font-size="10.00" fill="#000000">::setState</text>
</a>
</g>
</g>
<!-- Node2&#45;&gt;Node3 -->
<g id="edge2" class="edge">
<title>Node2&#45;&gt;Node3</title>
<path fill="none" stroke="#191970" d="M269.3951,-173.5C277.6985,-173.5 286.2987,-173.5 294.7718,-173.5"/>
<polygon fill="#191970" stroke="#191970" points="295.0156,-177.0001 305.0156,-173.5 295.0156,-170.0001 295.0156,-177.0001"/>
</g>
<!-- Node4 -->
<g id="node4" class="node">
<title>Node4</title>
<g id="a_node4"><a xlink:href="class_l_f_s_t_k__scroll_bar_class_a6a4b0d2c9217779bb3bc0b4c936130ce.xhtml#a6a4b0d2c9217779bb3bc0b4c936130ce" target="_top" xlink:title=" ">
<polygon fill="none" stroke="#000000" points="607.4885,-211.5 607.4885,-243.5 724.0425,-243.5 724.0425,-211.5 607.4885,-211.5"/>
<text text-anchor="start" x="615.4885" y="-230.5" font-family="Helvetica,sans-Serif" font-size="10.00" fill="#000000">LFSTK_scrollBarClass</text>
<text text-anchor="middle" x="665.7655" y="-218.5" font-family="Helvetica,sans-Serif" font-size="10.00" fill="#000000">::LFSTK_clearWindow</text>
</a>
</g>
</g>
<!-- Node3&#45;&gt;Node4 -->
<g id="edge3" class="edge">
<title>Node3&#45;&gt;Node4</title>
<path fill="none" stroke="#191970" d="M421.6957,-182.0863C433.5348,-185.0576 445.9531,-188.1052 457.681,-190.5 503.7749,-199.9121 556.2806,-206.9507 597.0176,-212.77"/>
<polygon fill="#191970" stroke="#191970" points="596.7129,-216.2621 607.1098,-214.2239 597.711,-209.3336 596.7129,-216.2621"/>
</g>
<!-- Node14 -->
<g id="node14" class="node">
<title>Node14</title>
<g id="a_node14"><a xlink:href="class_l_f_s_t_k__gadget_class_a71d34233c5db545e92d37c0e3139459b.xhtml#a71d34233c5db545e92d37c0e3139459b" target="_top" xlink:title=" ">
<polygon fill="none" stroke="#000000" points="457.681,-157.5 457.681,-189.5 571.484,-189.5 571.484,-157.5 457.681,-157.5"/>
<text text-anchor="start" x="465.681" y="-176.5" font-family="Helvetica,sans-Serif" font-size="10.00" fill="#000000">LFSTK_gadgetClass::</text>
<text text-anchor="middle" x="514.5825" y="-164.5" font-family="Helvetica,sans-Serif" font-size="10.00" fill="#000000">LFSTK_getGeom</text>
</a>
</g>
</g>
<!-- Node3&#45;&gt;Node14 -->
<g id="edge16" class="edge">
<title>Node3&#45;&gt;Node14</title>
<path fill="none" stroke="#191970" d="M421.8536,-173.5C430.1235,-173.5 438.6824,-173.5 447.1054,-173.5"/>
<polygon fill="#191970" stroke="#191970" points="447.2836,-177.0001 457.2836,-173.5 447.2835,-170.0001 447.2836,-177.0001"/>
</g>
<!-- Node15 -->
<g id="node15" class="node">
<title>Node15</title>
<g id="a_node15"><a xlink:href="class_l_f_s_t_k__gadget_class_aeeb028f96b71fa161ec195880106a936.xhtml#aeeb028f96b71fa161ec195880106a936" target="_top" xlink:title=" ">
<polygon fill="none" stroke="#000000" points="457.681,-106.5 457.681,-138.5 571.484,-138.5 571.484,-106.5 457.681,-106.5"/>
<text text-anchor="start" x="465.681" y="-125.5" font-family="Helvetica,sans-Serif" font-size="10.00" fill="#000000">LFSTK_gadgetClass::</text>
<text text-anchor="middle" x="514.5825" y="-113.5" font-family="Helvetica,sans-Serif" font-size="10.00" fill="#000000">LFSTK_getLimits</text>
</a>
</g>
</g>
<!-- Node3&#45;&gt;Node15 -->
<g id="edge17" class="edge">
<title>Node3&#45;&gt;Node15</title>
<path fill="none" stroke="#191970" d="M411.2378,-157.3633C425.8558,-152.4319 442.082,-146.958 457.2625,-141.8369"/>
<polygon fill="#191970" stroke="#191970" points="458.7033,-145.0447 467.0599,-138.5317 456.4657,-138.4119 458.7033,-145.0447"/>
</g>
<!-- Node16 -->
<g id="node16" class="node">
<title>Node16</title>
<g id="a_node16"><a xlink:href="class_l_f_s_t_k__gadget_class_a7e3ef253af08c0796f73de1366cf2d08.xhtml#a7e3ef253af08c0796f73de1366cf2d08" target="_top" xlink:title=" ">
<polygon fill="none" stroke="#000000" points="457.681,-55.5 457.681,-87.5 571.484,-87.5 571.484,-55.5 457.681,-55.5"/>
<text text-anchor="start" x="465.681" y="-74.5" font-family="Helvetica,sans-Serif" font-size="10.00" fill="#000000">LFSTK_gadgetClass::</text>
<text text-anchor="middle" x="514.5825" y="-62.5" font-family="Helvetica,sans-Serif" font-size="10.00" fill="#000000">LFSTK_moveGadget</text>
</a>
</g>
</g>
<!-- Node3&#45;&gt;Node16 -->
<g id="edge18" class="edge">
<title>Node3&#45;&gt;Node16</title>
<path fill="none" stroke="#191970" d="M380.3929,-157.2101C398.4861,-140.4635 428.4841,-114.3774 457.681,-96.5 460.1397,-94.9945 462.705,-93.531 465.3279,-92.117"/>
<polygon fill="#191970" stroke="#191970" points="467.0649,-95.1604 474.3961,-87.5117 463.8952,-88.9192 467.0649,-95.1604"/>
</g>
<!-- Node4&#45;&gt;Node3 -->
<g id="edge15" class="edge">
<title>Node4&#45;&gt;Node3</title>
<path fill="none" stroke="#191970" d="M607.1098,-229.2799C565.226,-226.1266 507.6812,-218.7098 457.681,-208.5 438.4906,-204.5814 417.4515,-198.9149 400.1267,-193.0479"/>
<polygon fill="#191970" stroke="#191970" points="400.992,-189.6407 390.3973,-189.582 398.6429,-196.2348 400.992,-189.6407"/>
</g>
<!-- Node5 -->
<g id="node5" class="node">
<title>Node5</title>
<g id="a_node5"><a xlink:href="class_l_f_s_t_k__gadget_class_a37d96aab3c59cb97fca1720441e3fc8e.xhtml#a37d96aab3c59cb97fca1720441e3fc8e" target="_top" xlink:title=" ">
<polygon fill="none" stroke="#000000" points="1059.653,-211.5 1059.653,-243.5 1173.456,-243.5 1173.456,-211.5 1059.653,-211.5"/>
<text text-anchor="start" x="1067.653" y="-230.5" font-family="Helvetica,sans-Serif" font-size="10.00" fill="#000000">LFSTK_gadgetClass::</text>
<text text-anchor="middle" x="1116.5545" y="-218.5" font-family="Helvetica,sans-Serif" font-size="10.00" fill="#000000">clearBox</text>
</a>
</g>
</g>
<!-- Node4&#45;&gt;Node5 -->
<g id="edge4" class="edge">
<title>Node4&#45;&gt;Node5</title>
<path fill="none" stroke="#191970" d="M724.2361,-227.5C807.8775,-227.5 961.2897,-227.5 1049.4522,-227.5"/>
<polygon fill="#191970" stroke="#191970" points="1049.6091,-231.0001 1059.609,-227.5 1049.609,-224.0001 1049.6091,-231.0001"/>
</g>
<!-- Node6 -->
<g id="node6" class="node">
<title>Node6</title>
<g id="a_node6"><a xlink:href="class_l_f_s_t_k__gadget_class_aa5b5f301fe9b0a4d7679f786da7462ba.xhtml#aa5b5f301fe9b0a4d7679f786da7462ba" target="_top" xlink:title=" ">
<polygon fill="none" stroke="#000000" points="760.047,-121.5 760.047,-153.5 873.85,-153.5 873.85,-121.5 760.047,-121.5"/>
<text text-anchor="start" x="768.047" y="-140.5" font-family="Helvetica,sans-Serif" font-size="10.00" fill="#000000">LFSTK_gadgetClass::</text>
<text text-anchor="middle" x="816.9485" y="-128.5" font-family="Helvetica,sans-Serif" font-size="10.00" fill="#000000">LFSTK_clearWindow</text>
</a>
</g>
</g>
<!-- Node4&#45;&gt;Node6 -->
<g id="edge5" class="edge">
<title>Node4&#45;&gt;Node6</title>
<path fill="none" stroke="#191970" d="M692.794,-211.4098C717.4411,-196.7373 754.0333,-174.9538 781.112,-158.8336"/>
<polygon fill="#191970" stroke="#191970" points="783.0972,-161.7251 789.8996,-153.6024 779.5165,-155.7102 783.0972,-161.7251"/>
</g>
<!-- Node7 -->
<g id="node7" class="node">
<title>Node7</title>
<g id="a_node7"><a xlink:href="class_l_f_s_t_k__gadget_class_a66b92f213e5a7e75da3f707b511342ea.xhtml#a66b92f213e5a7e75da3f707b511342ea" target="_top" xlink:title=" ">
<polygon fill="none" stroke="#000000" points="909.85,-121.5 909.85,-153.5 1023.653,-153.5 1023.653,-121.5 909.85,-121.5"/>
<text text-anchor="start" x="917.85" y="-140.5" font-family="Helvetica,sans-Serif" font-size="10.00" fill="#000000">LFSTK_gadgetClass::</text>
<text text-anchor="middle" x="966.7515" y="-128.5" font-family="Helvetica,sans-Serif" font-size="10.00" fill="#000000">drawGagetDetails</text>
</a>
</g>
</g>
<!-- Node6&#45;&gt;Node7 -->
<g id="edge6" class="edge">
<title>Node6&#45;&gt;Node7</title>
<path fill="none" stroke="#191970" d="M874.0099,-137.5C882.4489,-137.5 891.2086,-137.5 899.8259,-137.5"/>
<polygon fill="#191970" stroke="#191970" points="899.8488,-141.0001 909.8487,-137.5 899.8487,-134.0001 899.8488,-141.0001"/>
</g>
<!-- Node7&#45;&gt;Node5 -->
<g id="edge7" class="edge">
<title>Node7&#45;&gt;Node5</title>
<path fill="none" stroke="#191970" d="M991.314,-153.7326C1009.8824,-165.8483 1036.1114,-182.6328 1059.653,-196.5 1065.2507,-199.7973 1071.2186,-203.1846 1077.1047,-206.4533"/>
<polygon fill="#191970" stroke="#191970" points="1075.7724,-209.7148 1086.2221,-211.4625 1079.1431,-203.5797 1075.7724,-209.7148"/>
</g>
<!-- Node8 -->
<g id="node8" class="node">
<title>Node8</title>
<g id="a_node8"><a xlink:href="class_l_f_s_t_k__gadget_class_ab76db165a19af248b5e94e95492dc879.xhtml#ab76db165a19af248b5e94e95492dc879" target="_top" xlink:title=" ">
<polygon fill="none" stroke="#000000" points="1220.8425,-128.5 1220.8425,-160.5 1334.6455,-160.5 1334.6455,-128.5 1220.8425,-128.5"/>
<text text-anchor="start" x="1228.8425" y="-147.5" font-family="Helvetica,sans-Serif" font-size="10.00" fill="#000000">LFSTK_gadgetClass::</text>
<text text-anchor="middle" x="1277.744" y="-135.5" font-family="Helvetica,sans-Serif" font-size="10.00" fill="#000000">drawBevel</text>
</a>
</g>
</g>
<!-- Node7&#45;&gt;Node8 -->
<g id="edge8" class="edge">
<title>Node7&#45;&gt;Node8</title>
<path fill="none" stroke="#191970" d="M1014.4423,-153.5327C1028.8038,-157.6275 1044.7195,-161.4497 1059.653,-163.5 1109.762,-170.3797 1123.0821,-168.0513 1173.456,-163.5 1185.4844,-162.4132 1198.199,-160.6351 1210.4577,-158.5914"/>
<polygon fill="#191970" stroke="#191970" points="1211.3712,-161.9851 1220.6227,-156.8217 1210.1705,-155.0889 1211.3712,-161.9851"/>
</g>
<!-- Node9 -->
<g id="node9" class="node">
<title>Node9</title>
<g id="a_node9"><a xlink:href="class_l_f_s_t_k__gadget_class_af5386ffc4699273f6c53a920fc8b2f1d.xhtml#af5386ffc4699273f6c53a920fc8b2f1d" target="_top" xlink:title=" ">
<polygon fill="none" stroke="#000000" points="1059.653,-121.5 1059.653,-153.5 1173.456,-153.5 1173.456,-121.5 1059.653,-121.5"/>
<text text-anchor="start" x="1067.653" y="-140.5" font-family="Helvetica,sans-Serif" font-size="10.00" fill="#000000">LFSTK_gadgetClass::</text>
<text text-anchor="middle" x="1116.5545" y="-128.5" font-family="Helvetica,sans-Serif" font-size="10.00" fill="#000000">drawImage</text>
</a>
</g>
</g>
<!-- Node7&#45;&gt;Node9 -->
<g id="edge9" class="edge">
<title>Node7&#45;&gt;Node9</title>
<path fill="none" stroke="#191970" d="M1023.8129,-137.5C1032.2519,-137.5 1041.0116,-137.5 1049.6289,-137.5"/>
<polygon fill="#191970" stroke="#191970" points="1049.6518,-141.0001 1059.6517,-137.5 1049.6517,-134.0001 1049.6518,-141.0001"/>
</g>
<!-- Node10 -->
<g id="node10" class="node">
<title>Node10</title>
<g id="a_node10"><a xlink:href="class_l_f_s_t_k__gadget_class_af77235e4dc604470c9d62f101238225b.xhtml#af77235e4dc604470c9d62f101238225b" target="_top" xlink:title=" ">
<polygon fill="none" stroke="#000000" points="1059.653,-70.5 1059.653,-102.5 1173.456,-102.5 1173.456,-70.5 1059.653,-70.5"/>
<text text-anchor="start" x="1067.653" y="-89.5" font-family="Helvetica,sans-Serif" font-size="10.00" fill="#000000">LFSTK_gadgetClass::</text>
<text text-anchor="middle" x="1116.5545" y="-77.5" font-family="Helvetica,sans-Serif" font-size="10.00" fill="#000000">drawIndicator</text>
</a>
</g>
</g>
<!-- Node7&#45;&gt;Node10 -->
<g id="edge10" class="edge">
<title>Node7&#45;&gt;Node10</title>
<path fill="none" stroke="#191970" d="M1014.1501,-121.3633C1028.6351,-116.4319 1044.7137,-110.958 1059.756,-105.8369"/>
<polygon fill="#191970" stroke="#191970" points="1061.1258,-109.0679 1069.4642,-102.5317 1058.8698,-102.4414 1061.1258,-109.0679"/>
</g>
<!-- Node11 -->
<g id="node11" class="node">
<title>Node11</title>
<g id="a_node11"><a xlink:href="class_l_f_s_t_k__gadget_class_a7f44f781b167d66c5d6f4cc862a7e2db.xhtml#a7f44f781b167d66c5d6f4cc862a7e2db" target="_top" xlink:title=" ">
<polygon fill="none" stroke="#000000" points="1059.653,-19.5 1059.653,-51.5 1173.456,-51.5 1173.456,-19.5 1059.653,-19.5"/>
<text text-anchor="start" x="1067.653" y="-38.5" font-family="Helvetica,sans-Serif" font-size="10.00" fill="#000000">LFSTK_gadgetClass::</text>
<text text-anchor="middle" x="1116.5545" y="-26.5" font-family="Helvetica,sans-Serif" font-size="10.00" fill="#000000">drawLabel</text>
</a>
</g>
</g>
<!-- Node7&#45;&gt;Node11 -->
<g id="edge12" class="edge">
<title>Node7&#45;&gt;Node11</title>
<path fill="none" stroke="#191970" d="M983.121,-121.4985C1000.8785,-104.748 1030.5967,-78.4356 1059.653,-60.5 1061.9829,-59.0618 1064.4099,-57.6631 1066.892,-56.3102"/>
<polygon fill="#191970" stroke="#191970" points="1068.7397,-59.2963 1076.0452,-51.623 1065.549,-53.0658 1068.7397,-59.2963"/>
</g>
<!-- Node10&#45;&gt;Node8 -->
<g id="edge11" class="edge">
<title>Node10&#45;&gt;Node8</title>
<path fill="none" stroke="#191970" d="M1161.0269,-102.5023C1180.4143,-109.4784 1203.3179,-117.7196 1223.6788,-125.046"/>
<polygon fill="#191970" stroke="#191970" points="1222.5427,-128.3568 1233.1372,-128.4493 1224.9128,-121.7703 1222.5427,-128.3568"/>
</g>
<!-- Node12 -->
<g id="node12" class="node">
<title>Node12</title>
<g id="a_node12"><a xlink:href="class_l_f_s_t_k__lib_ab2f14a3414f7db863682d1e2fa0cfb75.xhtml#ab2f14a3414f7db863682d1e2fa0cfb75" target="_top" xlink:title=" ">
<polygon fill="none" stroke="#000000" points="1209.456,-51.5 1209.456,-71.5 1346.032,-71.5 1346.032,-51.5 1209.456,-51.5"/>
<text text-anchor="middle" x="1277.744" y="-58.5" font-family="Helvetica,sans-Serif" font-size="10.00" fill="#000000">LFSTK_lib::bestFontColour</text>
</a>
</g>
</g>
<!-- Node11&#45;&gt;Node12 -->
<g id="edge13" class="edge">
<title>Node11&#45;&gt;Node12</title>
<path fill="none" stroke="#191970" d="M1173.8377,-44.7398C1184.1238,-46.399 1194.9642,-48.1475 1205.6057,-49.864"/>
<polygon fill="#191970" stroke="#191970" points="1205.2931,-53.3588 1215.7229,-51.4959 1206.4079,-46.4481 1205.2931,-53.3588"/>
</g>
<!-- Node13 -->
<g id="node13" class="node">
<title>Node13</title>
<g id="a_node13"><a xlink:href="class_l_f_s_t_k__gadget_class_a091281ba03eaeb31bc7507c74b9b4f2f.xhtml#a091281ba03eaeb31bc7507c74b9b4f2f" target="_top" xlink:title=" ">
<polygon fill="none" stroke="#000000" points="1220.288,-.5 1220.288,-32.5 1335.2,-32.5 1335.2,-.5 1220.288,-.5"/>
<text text-anchor="start" x="1228.288" y="-19.5" font-family="Helvetica,sans-Serif" font-size="10.00" fill="#000000">LFSTK_gadgetClass::</text>
<text text-anchor="middle" x="1277.744" y="-7.5" font-family="Helvetica,sans-Serif" font-size="10.00" fill="#000000">LFSTK_getTextHeight</text>
</a>
</g>
</g>
<!-- Node11&#45;&gt;Node13 -->
<g id="edge14" class="edge">
<title>Node11&#45;&gt;Node13</title>
<path fill="none" stroke="#191970" d="M1173.8377,-28.7478C1185.5731,-27.3645 1198.0299,-25.8962 1210.0897,-24.4747"/>
<polygon fill="#191970" stroke="#191970" points="1210.5806,-27.9411 1220.1021,-23.2945 1209.7611,-20.9892 1210.5806,-27.9411"/>
</g>
<!-- Node17 -->
<g id="node17" class="node">
<title>Node17</title>
<g id="a_node17"><a xlink:href="class_l_f_s_t_k__window_class_ac3b5b99b3a018cce7c631df39db76be1.xhtml#ac3b5b99b3a018cce7c631df39db76be1" target="_top" xlink:title=" ">
<polygon fill="none" stroke="#000000" points="607.484,-88.5 607.484,-120.5 724.047,-120.5 724.047,-88.5 607.484,-88.5"/>
<text text-anchor="start" x="615.484" y="-107.5" font-family="Helvetica,sans-Serif" font-size="10.00" fill="#000000">LFSTK_windowClass::</text>
<text text-anchor="middle" x="665.7655" y="-95.5" font-family="Helvetica,sans-Serif" font-size="10.00" fill="#000000">LFSTK_clearWindow</text>
</a>
</g>
</g>
<!-- Node16&#45;&gt;Node17 -->
<g id="edge19" class="edge">
<title>Node16&#45;&gt;Node17</title>
<path fill="none" stroke="#191970" d="M571.7383,-83.9759C580.0923,-85.7994 588.7661,-87.6927 597.317,-89.5592"/>
<polygon fill="#191970" stroke="#191970" points="596.7556,-93.019 607.272,-91.7321 598.2484,-86.18 596.7556,-93.019"/>
</g>
<!-- Node17&#45;&gt;Node6 -->
<g id="edge20" class="edge">
<title>Node17&#45;&gt;Node6</title>
<path fill="none" stroke="#191970" d="M724.2168,-117.2587C732.5779,-119.0837 741.2343,-120.9732 749.747,-122.8314"/>
<polygon fill="#191970" stroke="#191970" points="749.1315,-126.2793 759.6479,-124.9925 750.6243,-119.4404 749.1315,-126.2793"/>
</g>
</g>
</svg>
        <g id="navigator" transform="translate(0 0)" fill="#404254">
                <rect fill="#f2f5e9" fill-opacity="0.5" stroke="#606060" stroke-width=".5" x="0" y="0" width="60" height="60"/>
                <use id="zoomplus" xlink:href="#zoomPlus" x="17" y="9" onmousedown="handleZoom(evt,'in')"/>
                <use id="zoomminus" xlink:href="#zoomMin" x="42" y="9" onmousedown="handleZoom(evt,'out')"/>
                <use id="reset" xlink:href="#resetDef" x="30" y="36" onmousedown="handleReset()"/>
                <g id="arrowUp" xlink:href="#dirArrow" transform="translate(30 24)" onmousedown="handlePan(0,-1)">
                  <use xlink:href="#rim" fill="#404040">
                        <set attributeName="fill" to="#808080" begin="arrowUp.mouseover" end="arrowUp.mouseout"/>
                  </use>
                  <path fill="none" stroke="white" stroke-width="1.5" d="M0,-3.0v7 M-2.5,-0.5L0,-3.0L2.5,-0.5"/>
                </g>
                <g id="arrowRight" xlink:href="#dirArrow" transform="rotate(90) translate(36 -43)" onmousedown="handlePan(1,0)">
                  <use xlink:href="#rim" fill="#404040">
                        <set attributeName="fill" to="#808080" begin="arrowRight.mouseover" end="arrowRight.mouseout"/>
                  </use>
                  <path fill="none" stroke="white" stroke-width="1.5" d="M0,-3.0v7 M-2.5,-0.5L0,-3.0L2.5,-0.5"/>
                </g>
                <g id="arrowDown" xlink:href="#dirArrow" transform="rotate(180) translate(-30 -48)" onmousedown="handlePan(0,1)">
                  <use xlink:href="#rim" fill="#404040">
                        <set attributeName="fill" to="#808080" begin="arrowDown.mouseover" end="arrowDown.mouseout"/>
                  </use>
                  <path fill="none" stroke="white" stroke-width="1.5" d="M0,-3.0v7 M-2.5,-0.5L0,-3.0L2.5,-0.5"/>
                </g>
                <g id="arrowLeft" xlink:href="#dirArrow" transform="rotate(270) translate(-36 17)" onmousedown="handlePan(-1,0)">
                  <use xlink:href="#rim" fill="#404040">
                        <set attributeName="fill" to="#808080" begin="arrowLeft.mouseover" end="arrowLeft.mouseout"/>
                  </use>
                  <path fill="none" stroke="white" stroke-width="1.5" d="M0,-3.0v7 M-2.5,-0.5L0,-3.0L2.5,-0.5"/>
                </g>
        </g>
        <svg viewBox="0 0 15 15" width="100%" height="30px" preserveAspectRatio="xMaxYMin meet">
         <g id="arrow_out" transform="scale(0.3 0.3)">
          <a xlink:href="class_l_f_s_t_k__scroll_bar_class_a1aa54518e56118cc5f92890b7269c3d1_a1aa54518e56118cc5f92890b7269c3d1_cgraph_org.svg" target="_base">
           <rect id="button" ry="5" rx="5" y="6" x="6" height="38" width="38"
                fill="#f2f5e9" fill-opacity="0.5" stroke="#606060" stroke-width="1.0"/>
           <path id="arrow"
             d="M 11.500037,31.436501 C 11.940474,20.09759 22.043105,11.32322 32.158766,21.979434 L 37.068811,17.246167 C 37.068811,17.246167 37.088388,32 37.088388,32 L 22.160133,31.978069 C 22.160133,31.978069 26.997745,27.140456 26.997745,27.140456 C 18.528582,18.264221 13.291696,25.230495 11.500037,31.436501 z"
             style="fill:#404040;"/>
          </a>
         </g>
        </svg>
</svg>
