<?xml version="1.0" encoding="UTF-8" standalone="no"?>
<!DOCTYPE svg PUBLIC "-//W3C//DTD SVG 1.1//EN"
 "http://www.w3.org/Graphics/SVG/1.1/DTD/svg11.dtd">
<!-- Generated by graphviz version 2.40.1 (20161225.0304)
 -->
<!-- Title: LFSTK_lib::LFSTK_gadgetEvent Pages: 1 -->
<!--zoomable 781 -->
<svg id="main" version="1.1" xmlns="http://www.w3.org/2000/svg" xmlns:xlink="http://www.w3.org/1999/xlink" xml:space="preserve" onload="init(evt)">
<style type="text/css"><![CDATA[
.edge:hover path { stroke: red; }
.edge:hover polygon { stroke: red; fill: red; }
]]></style>
<script type="text/javascript"><![CDATA[
var edges = document.getElementsByTagName('g');
if (edges && edges.length) {
  for (var i=0;i<edges.length;i++) {
    if (edges[i].id.substr(0,4)=='edge') {
      edges[i].setAttribute('class','edge');
    }
  }
}
]]></script>
        <defs>
                <circle id="rim" cx="0" cy="0" r="7"/>
                <circle id="rim2" cx="0" cy="0" r="3.5"/>
                <g id="zoomPlus">
                        <use xlink:href="#rim" fill="#404040">
                                <set attributeName="fill" to="#808080" begin="zoomplus.mouseover" end="zoomplus.mouseout"/>
                        </use>
                        <path d="M-4,0h8M0,-4v8" fill="none" stroke="white" stroke-width="1.5" pointer-events="none"/>
                </g>
                <g id="zoomMin">
                        <use xlink:href="#rim" fill="#404040">
                                <set attributeName="fill" to="#808080" begin="zoomminus.mouseover" end="zoomminus.mouseout"/>
                        </use>
                        <path d="M-4,0h8" fill="none" stroke="white" stroke-width="1.5" pointer-events="none"/>
                </g>
                <g id="dirArrow">
                        <path fill="none" stroke="white" stroke-width="1.5" d="M0,-3.0v7 M-2.5,-0.5L0,-3.0L2.5,-0.5"/>
                </g>
               <g id="resetDef">
                       <use xlink:href="#rim2" fill="#404040">
                               <set attributeName="fill" to="#808080" begin="reset.mouseover" end="reset.mouseout"/>
                       </use>
               </g>
        </defs>

<script type="text/javascript">
var viewWidth = 1316;
var viewHeight = 781;
var sectionId = 'dynsection-0';
</script>
<script xlink:href="svgpan.js"/>
<svg id="graph" class="graph">
<g id="viewport">
<title>LFSTK_lib::LFSTK_gadgetEvent</title>
<!-- Node1 -->
<g id="node1" class="node">
<title>Node1</title>
<g id="a_node1"><a xlink:title=" ">
<polygon fill="#bfbfbf" stroke="#000000" points="0,-261.5 0,-281.5 161.043,-281.5 161.043,-261.5 0,-261.5"/>
<text text-anchor="middle" x="80.5215" y="-268.5" font-family="Helvetica,sans-Serif" font-size="10.00" fill="#000000">LFSTK_lib::LFSTK_gadgetEvent</text>
</a>
</g>
</g>
<!-- Node2 -->
<g id="node2" class="node">
<title>Node2</title>
<g id="a_node2"><a xlink:href="class_l_f_s_t_k__gadget_class_a0be11a5ad402a4d3985fa144c9ee8855.xhtml#a0be11a5ad402a4d3985fa144c9ee8855" target="_top" xlink:title=" ">
<polygon fill="none" stroke="#000000" points="208.431,-740.5 208.431,-772.5 322.234,-772.5 322.234,-740.5 208.431,-740.5"/>
<text text-anchor="start" x="216.431" y="-759.5" font-family="Helvetica,sans-Serif" font-size="10.00" fill="#000000">LFSTK_gadgetClass::</text>
<text text-anchor="middle" x="265.3325" y="-747.5" font-family="Helvetica,sans-Serif" font-size="10.00" fill="#000000">gotFocus</text>
</a>
</g>
</g>
<!-- Node1&#45;&gt;Node2 -->
<g id="edge1" class="edge">
<title>Node1&#45;&gt;Node2</title>
<path fill="none" stroke="#191970" d="M81.8147,-281.7825C89.72,-343.1575 133.3071,-660.8473 197.043,-731.5 198.0737,-732.6425 199.161,-733.7329 200.2972,-734.7736"/>
<polygon fill="#191970" stroke="#191970" points="198.3434,-737.6846 208.4242,-740.9447 202.5767,-732.1097 198.3434,-737.6846"/>
</g>
<!-- Node3 -->
<g id="node3" class="node">
<title>Node3</title>
<g id="a_node3"><a xlink:href="class_l_f_s_t_k__gadget_class_a24ea623a59480b367d872c6d01724108.xhtml#a24ea623a59480b367d872c6d01724108" target="_top" xlink:title=" ">
<polygon fill="none" stroke="#000000" points="208.431,-689.5 208.431,-721.5 322.234,-721.5 322.234,-689.5 208.431,-689.5"/>
<text text-anchor="start" x="216.431" y="-708.5" font-family="Helvetica,sans-Serif" font-size="10.00" fill="#000000">LFSTK_gadgetClass::</text>
<text text-anchor="middle" x="265.3325" y="-696.5" font-family="Helvetica,sans-Serif" font-size="10.00" fill="#000000">keyRelease</text>
</a>
</g>
</g>
<!-- Node1&#45;&gt;Node3 -->
<g id="edge2" class="edge">
<title>Node1&#45;&gt;Node3</title>
<path fill="none" stroke="#191970" d="M82.2513,-281.5289C92.0781,-337.5284 142.3731,-611.288 197.043,-674.5 200.0466,-677.973 203.5187,-681.0774 207.273,-683.8488"/>
<polygon fill="#191970" stroke="#191970" points="205.5708,-686.9158 215.8707,-689.3981 209.3668,-681.0345 205.5708,-686.9158"/>
</g>
<!-- Node4 -->
<g id="node4" class="node">
<title>Node4</title>
<g id="a_node4"><a xlink:href="class_l_f_s_t_k__gadget_class_aa5b5f301fe9b0a4d7679f786da7462ba.xhtml#aa5b5f301fe9b0a4d7679f786da7462ba" target="_top" xlink:title=" ">
<polygon fill="none" stroke="#000000" points="722.006,-328.5 722.006,-360.5 835.809,-360.5 835.809,-328.5 722.006,-328.5"/>
<text text-anchor="start" x="730.006" y="-347.5" font-family="Helvetica,sans-Serif" font-size="10.00" fill="#000000">LFSTK_gadgetClass::</text>
<text text-anchor="middle" x="778.9075" y="-335.5" font-family="Helvetica,sans-Serif" font-size="10.00" fill="#000000">LFSTK_clearWindow</text>
</a>
</g>
</g>
<!-- Node1&#45;&gt;Node4 -->
<g id="edge3" class="edge">
<title>Node1&#45;&gt;Node4</title>
<path fill="none" stroke="#191970" d="M84.8523,-281.574C106.4824,-330.3297 208.2273,-541.9598 369.622,-603.5 507.7971,-656.1865 580.7699,-604.3921 686.006,-500.5 725.0382,-461.9663 753.9292,-403.7463 768.4327,-370.4026"/>
<polygon fill="#191970" stroke="#191970" points="771.7798,-371.475 772.4673,-360.9025 765.3367,-368.7387 771.7798,-371.475"/>
</g>
<!-- Node13 -->
<g id="node13" class="node">
<title>Node13</title>
<g id="a_node13"><a xlink:href="class_l_f_s_t_k__gadget_class_a2a450a6784d5743e14340cc8ebd05d15.xhtml#a2a450a6784d5743e14340cc8ebd05d15" target="_top" xlink:title=" ">
<polygon fill="none" stroke="#000000" points="208.431,-408.5 208.431,-440.5 322.234,-440.5 322.234,-408.5 208.431,-408.5"/>
<text text-anchor="start" x="216.431" y="-427.5" font-family="Helvetica,sans-Serif" font-size="10.00" fill="#000000">LFSTK_gadgetClass::</text>
<text text-anchor="middle" x="265.3325" y="-415.5" font-family="Helvetica,sans-Serif" font-size="10.00" fill="#000000">LFSTK_doPopUp</text>
</a>
</g>
</g>
<!-- Node1&#45;&gt;Node13 -->
<g id="edge13" class="edge">
<title>Node1&#45;&gt;Node13</title>
<path fill="none" stroke="#191970" d="M92.6475,-281.5388C121.9473,-305.7953 197.1827,-368.0806 238.0047,-401.8761"/>
<polygon fill="#191970" stroke="#191970" points="235.9907,-404.7525 245.9255,-408.4335 240.4546,-399.3605 235.9907,-404.7525"/>
</g>
<!-- Node22 -->
<g id="node22" class="node">
<title>Node22</title>
<g id="a_node22"><a xlink:href="class_l_f_s_t_k__gadget_class_ac0a61887c60184640fc63621667486f1.xhtml#ac0a61887c60184640fc63621667486f1" target="_top" xlink:title=" ">
<polygon fill="none" stroke="#000000" points="197.043,-153.5 197.043,-185.5 333.622,-185.5 333.622,-153.5 197.043,-153.5"/>
<text text-anchor="start" x="205.043" y="-172.5" font-family="Helvetica,sans-Serif" font-size="10.00" fill="#000000">LFSTK_gadgetClass::</text>
<text text-anchor="middle" x="265.3325" y="-160.5" font-family="Helvetica,sans-Serif" font-size="10.00" fill="#000000">LFSTK_getContextWindow</text>
</a>
</g>
</g>
<!-- Node1&#45;&gt;Node22 -->
<g id="edge26" class="edge">
<title>Node1&#45;&gt;Node22</title>
<path fill="none" stroke="#191970" d="M95.6326,-261.4767C117.5285,-247.1427 159.5633,-220.3323 197.043,-200.5 203.921,-196.8605 211.3096,-193.2308 218.5954,-189.8046"/>
<polygon fill="#191970" stroke="#191970" points="220.1126,-192.9592 227.723,-185.5882 217.1771,-186.6044 220.1126,-192.9592"/>
</g>
<!-- Node23 -->
<g id="node23" class="node">
<title>Node23</title>
<g id="a_node23"><a xlink:href="class_l_f_s_t_k__gadget_class_a280fd2cd10bf4f67f11e9a7d43766bc5.xhtml#a280fd2cd10bf4f67f11e9a7d43766bc5" target="_top" xlink:title=" ">
<polygon fill="none" stroke="#000000" points="203.987,-102.5 203.987,-134.5 326.678,-134.5 326.678,-102.5 203.987,-102.5"/>
<text text-anchor="start" x="211.987" y="-121.5" font-family="Helvetica,sans-Serif" font-size="10.00" fill="#000000">LFSTK_gadgetClass::</text>
<text text-anchor="middle" x="265.3325" y="-109.5" font-family="Helvetica,sans-Serif" font-size="10.00" fill="#000000">LFSTK_getGlobalGeom</text>
</a>
</g>
</g>
<!-- Node1&#45;&gt;Node23 -->
<g id="edge27" class="edge">
<title>Node1&#45;&gt;Node23</title>
<path fill="none" stroke="#191970" d="M87.1623,-261.3358C103.238,-237.4776 146.6574,-177.3544 197.043,-143.5 199.1978,-142.0521 201.4471,-140.6756 203.7617,-139.3682"/>
<polygon fill="#191970" stroke="#191970" points="205.6449,-142.3362 212.9518,-134.6641 202.4554,-136.1051 205.6449,-142.3362"/>
</g>
<!-- Node24 -->
<g id="node24" class="node">
<title>Node24</title>
<g id="a_node24"><a xlink:href="class_l_f_s_t_k__gadget_class_a6fbe26bda55ce4e09837d57237c48173.xhtml#a6fbe26bda55ce4e09837d57237c48173" target="_top" xlink:title=" ">
<polygon fill="none" stroke="#000000" points="208.431,-51.5 208.431,-83.5 322.234,-83.5 322.234,-51.5 208.431,-51.5"/>
<text text-anchor="start" x="216.431" y="-70.5" font-family="Helvetica,sans-Serif" font-size="10.00" fill="#000000">LFSTK_gadgetClass::</text>
<text text-anchor="middle" x="265.3325" y="-58.5" font-family="Helvetica,sans-Serif" font-size="10.00" fill="#000000">lostFocus</text>
</a>
</g>
</g>
<!-- Node1&#45;&gt;Node24 -->
<g id="edge28" class="edge">
<title>Node1&#45;&gt;Node24</title>
<path fill="none" stroke="#191970" d="M84.3827,-261.3688C96.3657,-231.2327 135.8307,-141.2295 197.043,-92.5 198.6358,-91.232 200.2988,-90.0246 202.017,-88.8752"/>
<polygon fill="#191970" stroke="#191970" points="204.1482,-91.6824 210.9969,-83.5987 200.6019,-85.6472 204.1482,-91.6824"/>
</g>
<!-- Node25 -->
<g id="node25" class="node">
<title>Node25</title>
<g id="a_node25"><a xlink:href="class_l_f_s_t_k__gadget_class_a6900bf610d848a6f40e91eecf7bc5e4d.xhtml#a6900bf610d848a6f40e91eecf7bc5e4d" target="_top" xlink:title=" ">
<polygon fill="none" stroke="#000000" points="558.0415,-303.5 558.0415,-335.5 671.8445,-335.5 671.8445,-303.5 558.0415,-303.5"/>
<text text-anchor="start" x="566.0415" y="-322.5" font-family="Helvetica,sans-Serif" font-size="10.00" fill="#000000">LFSTK_gadgetClass::</text>
<text text-anchor="middle" x="614.943" y="-310.5" font-family="Helvetica,sans-Serif" font-size="10.00" fill="#000000">mouseDown</text>
</a>
</g>
</g>
<!-- Node1&#45;&gt;Node25 -->
<g id="edge29" class="edge">
<title>Node1&#45;&gt;Node25</title>
<path fill="none" stroke="#191970" d="M161.1084,-278.7381C266.5775,-288.2109 449.523,-304.6425 547.8435,-313.4733"/>
<polygon fill="#191970" stroke="#191970" points="547.6838,-316.973 557.9568,-314.3817 548.31,-310.0011 547.6838,-316.973"/>
</g>
<!-- Node26 -->
<g id="node26" class="node">
<title>Node26</title>
<g id="a_node26"><a xlink:href="class_l_f_s_t_k__gadget_class_a4449d75b361ea441e9ce5af918215a09.xhtml#a4449d75b361ea441e9ce5af918215a09" target="_top" xlink:title=" ">
<polygon fill="none" stroke="#000000" points="208.431,-.5 208.431,-32.5 322.234,-32.5 322.234,-.5 208.431,-.5"/>
<text text-anchor="start" x="216.431" y="-19.5" font-family="Helvetica,sans-Serif" font-size="10.00" fill="#000000">LFSTK_gadgetClass::</text>
<text text-anchor="middle" x="265.3325" y="-7.5" font-family="Helvetica,sans-Serif" font-size="10.00" fill="#000000">mouseDrag</text>
</a>
</g>
</g>
<!-- Node1&#45;&gt;Node26 -->
<g id="edge31" class="edge">
<title>Node1&#45;&gt;Node26</title>
<path fill="none" stroke="#191970" d="M82.8728,-261.1125C91.5022,-225.3084 124.7629,-105.718 197.043,-41.5 198.3732,-40.3182 199.7639,-39.1907 201.2045,-38.1152"/>
<polygon fill="#191970" stroke="#191970" points="203.4076,-40.8596 209.9251,-32.5066 199.6211,-34.9721 203.4076,-40.8596"/>
</g>
<!-- Node27 -->
<g id="node27" class="node">
<title>Node27</title>
<g id="a_node27"><a xlink:href="class_l_f_s_t_k__gadget_class_adaa046d67eecc365c09ae3b6db04eefc.xhtml#adaa046d67eecc365c09ae3b6db04eefc" target="_top" xlink:title=" ">
<polygon fill="none" stroke="#000000" points="558.0415,-247.5 558.0415,-279.5 671.8445,-279.5 671.8445,-247.5 558.0415,-247.5"/>
<text text-anchor="start" x="566.0415" y="-266.5" font-family="Helvetica,sans-Serif" font-size="10.00" fill="#000000">LFSTK_gadgetClass::</text>
<text text-anchor="middle" x="614.943" y="-254.5" font-family="Helvetica,sans-Serif" font-size="10.00" fill="#000000">mouseEnter</text>
</a>
</g>
</g>
<!-- Node1&#45;&gt;Node27 -->
<g id="edge32" class="edge">
<title>Node1&#45;&gt;Node27</title>
<path fill="none" stroke="#191970" d="M161.1084,-270.2937C266.5775,-268.7148 449.523,-265.9762 547.8435,-264.5044"/>
<polygon fill="#191970" stroke="#191970" points="548.0103,-268.0024 557.9568,-264.3531 547.9055,-261.0032 548.0103,-268.0024"/>
</g>
<!-- Node28 -->
<g id="node28" class="node">
<title>Node28</title>
<g id="a_node28"><a xlink:href="class_l_f_s_t_k__gadget_class_a993a48d88426238683418dc9d15dd5f1.xhtml#a993a48d88426238683418dc9d15dd5f1" target="_top" xlink:title=" ">
<polygon fill="none" stroke="#000000" points="381.8495,-191.5 381.8495,-223.5 495.6525,-223.5 495.6525,-191.5 381.8495,-191.5"/>
<text text-anchor="start" x="389.8495" y="-210.5" font-family="Helvetica,sans-Serif" font-size="10.00" fill="#000000">LFSTK_gadgetClass::</text>
<text text-anchor="middle" x="438.751" y="-198.5" font-family="Helvetica,sans-Serif" font-size="10.00" fill="#000000">mouseExit</text>
</a>
</g>
</g>
<!-- Node1&#45;&gt;Node28 -->
<g id="edge34" class="edge">
<title>Node1&#45;&gt;Node28</title>
<path fill="none" stroke="#191970" d="M111.3705,-261.409C134.6811,-254.1161 167.5871,-244.5253 197.043,-238.5 255.4743,-226.5477 322.8484,-218.3585 371.5974,-213.4124"/>
<polygon fill="#191970" stroke="#191970" points="372.1032,-216.8795 381.7073,-212.406 371.4097,-209.9139 372.1032,-216.8795"/>
</g>
<!-- Node29 -->
<g id="node29" class="node">
<title>Node29</title>
<g id="a_node29"><a xlink:href="class_l_f_s_t_k__gadget_class_a0062100bc7a196b51d12e88c2edbba8e.xhtml#a0062100bc7a196b51d12e88c2edbba8e" target="_top" xlink:title=" ">
<polygon fill="none" stroke="#000000" points="558.0415,-651.5 558.0415,-683.5 671.8445,-683.5 671.8445,-651.5 558.0415,-651.5"/>
<text text-anchor="start" x="566.0415" y="-670.5" font-family="Helvetica,sans-Serif" font-size="10.00" fill="#000000">LFSTK_gadgetClass::</text>
<text text-anchor="middle" x="614.943" y="-658.5" font-family="Helvetica,sans-Serif" font-size="10.00" fill="#000000">mouseUp</text>
</a>
</g>
</g>
<!-- Node1&#45;&gt;Node29 -->
<g id="edge36" class="edge">
<title>Node1&#45;&gt;Node29</title>
<path fill="none" stroke="#191970" d="M82.2008,-281.6013C91.3918,-335.5935 137.3761,-589.4308 197.043,-636.5 249.7639,-678.0897 443.7548,-675.8181 547.8604,-671.3161"/>
<polygon fill="#191970" stroke="#191970" points="548.121,-674.808 557.9529,-670.8604 547.8052,-667.8151 548.121,-674.808"/>
</g>
<!-- Node5 -->
<g id="node5" class="node">
<title>Node5</title>
<g id="a_node5"><a xlink:href="class_l_f_s_t_k__gadget_class_a66b92f213e5a7e75da3f707b511342ea.xhtml#a66b92f213e5a7e75da3f707b511342ea" target="_top" xlink:title=" ">
<polygon fill="none" stroke="#000000" points="871.809,-328.5 871.809,-360.5 985.612,-360.5 985.612,-328.5 871.809,-328.5"/>
<text text-anchor="start" x="879.809" y="-347.5" font-family="Helvetica,sans-Serif" font-size="10.00" fill="#000000">LFSTK_gadgetClass::</text>
<text text-anchor="middle" x="928.7105" y="-335.5" font-family="Helvetica,sans-Serif" font-size="10.00" fill="#000000">drawGagetDetails</text>
</a>
</g>
</g>
<!-- Node4&#45;&gt;Node5 -->
<g id="edge4" class="edge">
<title>Node4&#45;&gt;Node5</title>
<path fill="none" stroke="#191970" d="M835.9689,-344.5C844.4079,-344.5 853.1676,-344.5 861.7849,-344.5"/>
<polygon fill="#191970" stroke="#191970" points="861.8078,-348.0001 871.8077,-344.5 861.8077,-341.0001 861.8078,-348.0001"/>
</g>
<!-- Node6 -->
<g id="node6" class="node">
<title>Node6</title>
<g id="a_node6"><a xlink:href="class_l_f_s_t_k__gadget_class_a37d96aab3c59cb97fca1720441e3fc8e.xhtml#a37d96aab3c59cb97fca1720441e3fc8e" target="_top" xlink:title=" ">
<polygon fill="none" stroke="#000000" points="1021.612,-424.5 1021.612,-456.5 1135.415,-456.5 1135.415,-424.5 1021.612,-424.5"/>
<text text-anchor="start" x="1029.612" y="-443.5" font-family="Helvetica,sans-Serif" font-size="10.00" fill="#000000">LFSTK_gadgetClass::</text>
<text text-anchor="middle" x="1078.5135" y="-431.5" font-family="Helvetica,sans-Serif" font-size="10.00" fill="#000000">clearBox</text>
</a>
</g>
</g>
<!-- Node5&#45;&gt;Node6 -->
<g id="edge5" class="edge">
<title>Node5&#45;&gt;Node6</title>
<path fill="none" stroke="#191970" d="M947.4239,-360.5301C965.6018,-375.6239 994.3717,-398.2761 1021.612,-414.5 1024.6433,-416.3054 1027.8215,-418.0712 1031.0605,-419.7785"/>
<polygon fill="#191970" stroke="#191970" points="1029.7724,-423.0485 1040.2783,-424.4191 1032.9201,-416.7961 1029.7724,-423.0485"/>
</g>
<!-- Node7 -->
<g id="node7" class="node">
<title>Node7</title>
<g id="a_node7"><a xlink:href="class_l_f_s_t_k__gadget_class_ab76db165a19af248b5e94e95492dc879.xhtml#ab76db165a19af248b5e94e95492dc879" target="_top" xlink:title=" ">
<polygon fill="none" stroke="#000000" points="1182.8015,-350.5 1182.8015,-382.5 1296.6045,-382.5 1296.6045,-350.5 1182.8015,-350.5"/>
<text text-anchor="start" x="1190.8015" y="-369.5" font-family="Helvetica,sans-Serif" font-size="10.00" fill="#000000">LFSTK_gadgetClass::</text>
<text text-anchor="middle" x="1239.703" y="-357.5" font-family="Helvetica,sans-Serif" font-size="10.00" fill="#000000">drawBevel</text>
</a>
</g>
</g>
<!-- Node5&#45;&gt;Node7 -->
<g id="edge6" class="edge">
<title>Node5&#45;&gt;Node7</title>
<path fill="none" stroke="#191970" d="M985.7513,-348.5351C1038.494,-352.2662 1116.9092,-357.8134 1172.6319,-361.7553"/>
<polygon fill="#191970" stroke="#191970" points="1172.5391,-365.2574 1182.7611,-362.4719 1173.0331,-358.2748 1172.5391,-365.2574"/>
</g>
<!-- Node8 -->
<g id="node8" class="node">
<title>Node8</title>
<g id="a_node8"><a xlink:href="class_l_f_s_t_k__gadget_class_af5386ffc4699273f6c53a920fc8b2f1d.xhtml#af5386ffc4699273f6c53a920fc8b2f1d" target="_top" xlink:title=" ">
<polygon fill="none" stroke="#000000" points="1021.612,-283.5 1021.612,-315.5 1135.415,-315.5 1135.415,-283.5 1021.612,-283.5"/>
<text text-anchor="start" x="1029.612" y="-302.5" font-family="Helvetica,sans-Serif" font-size="10.00" fill="#000000">LFSTK_gadgetClass::</text>
<text text-anchor="middle" x="1078.5135" y="-290.5" font-family="Helvetica,sans-Serif" font-size="10.00" fill="#000000">drawImage</text>
</a>
</g>
</g>
<!-- Node5&#45;&gt;Node8 -->
<g id="edge7" class="edge">
<title>Node5&#45;&gt;Node8</title>
<path fill="none" stroke="#191970" d="M982.3697,-328.3811C993.1486,-325.1432 1004.5673,-321.713 1015.6272,-318.3907"/>
<polygon fill="#191970" stroke="#191970" points="1016.6587,-321.7354 1025.2289,-315.5064 1014.6448,-315.0314 1016.6587,-321.7354"/>
</g>
<!-- Node9 -->
<g id="node9" class="node">
<title>Node9</title>
<g id="a_node9"><a xlink:href="class_l_f_s_t_k__gadget_class_af77235e4dc604470c9d62f101238225b.xhtml#af77235e4dc604470c9d62f101238225b" target="_top" xlink:title=" ">
<polygon fill="none" stroke="#000000" points="1021.612,-373.5 1021.612,-405.5 1135.415,-405.5 1135.415,-373.5 1021.612,-373.5"/>
<text text-anchor="start" x="1029.612" y="-392.5" font-family="Helvetica,sans-Serif" font-size="10.00" fill="#000000">LFSTK_gadgetClass::</text>
<text text-anchor="middle" x="1078.5135" y="-380.5" font-family="Helvetica,sans-Serif" font-size="10.00" fill="#000000">drawIndicator</text>
</a>
</g>
</g>
<!-- Node5&#45;&gt;Node9 -->
<g id="edge8" class="edge">
<title>Node5&#45;&gt;Node9</title>
<path fill="none" stroke="#191970" d="M982.3697,-360.6189C993.1486,-363.8568 1004.5673,-367.287 1015.6272,-370.6093"/>
<polygon fill="#191970" stroke="#191970" points="1014.6448,-373.9686 1025.2289,-373.4936 1016.6587,-367.2646 1014.6448,-373.9686"/>
</g>
<!-- Node10 -->
<g id="node10" class="node">
<title>Node10</title>
<g id="a_node10"><a xlink:href="class_l_f_s_t_k__gadget_class_a7f44f781b167d66c5d6f4cc862a7e2db.xhtml#a7f44f781b167d66c5d6f4cc862a7e2db" target="_top" xlink:title=" ">
<polygon fill="none" stroke="#000000" points="1021.612,-232.5 1021.612,-264.5 1135.415,-264.5 1135.415,-232.5 1021.612,-232.5"/>
<text text-anchor="start" x="1029.612" y="-251.5" font-family="Helvetica,sans-Serif" font-size="10.00" fill="#000000">LFSTK_gadgetClass::</text>
<text text-anchor="middle" x="1078.5135" y="-239.5" font-family="Helvetica,sans-Serif" font-size="10.00" fill="#000000">drawLabel</text>
</a>
</g>
</g>
<!-- Node5&#45;&gt;Node10 -->
<g id="edge10" class="edge">
<title>Node5&#45;&gt;Node10</title>
<path fill="none" stroke="#191970" d="M946.9871,-328.42C965.0772,-313.0284 993.9919,-289.8044 1021.612,-273.5 1024.2225,-271.959 1026.9452,-270.4552 1029.7243,-268.9989"/>
<polygon fill="#191970" stroke="#191970" points="1031.3284,-272.1101 1038.7227,-264.5223 1028.2104,-265.8428 1031.3284,-272.1101"/>
</g>
<!-- Node9&#45;&gt;Node7 -->
<g id="edge9" class="edge">
<title>Node9&#45;&gt;Node7</title>
<path fill="none" stroke="#191970" d="M1135.7967,-381.3263C1147.6735,-379.6316 1160.2891,-377.8315 1172.4845,-376.0914"/>
<polygon fill="#191970" stroke="#191970" points="1173.1989,-379.525 1182.6042,-374.6474 1172.2101,-372.5951 1173.1989,-379.525"/>
</g>
<!-- Node11 -->
<g id="node11" class="node">
<title>Node11</title>
<g id="a_node11"><a xlink:href="class_l_f_s_t_k__lib_ab2f14a3414f7db863682d1e2fa0cfb75.xhtml#ab2f14a3414f7db863682d1e2fa0cfb75" target="_top" xlink:title=" ">
<polygon fill="none" stroke="#000000" points="1171.415,-238.5 1171.415,-258.5 1307.991,-258.5 1307.991,-238.5 1171.415,-238.5"/>
<text text-anchor="middle" x="1239.703" y="-245.5" font-family="Helvetica,sans-Serif" font-size="10.00" fill="#000000">LFSTK_lib::bestFontColour</text>
</a>
</g>
</g>
<!-- Node10&#45;&gt;Node11 -->
<g id="edge11" class="edge">
<title>Node10&#45;&gt;Node11</title>
<path fill="none" stroke="#191970" d="M1135.7967,-248.5C1144.0567,-248.5 1152.6741,-248.5 1161.259,-248.5"/>
<polygon fill="#191970" stroke="#191970" points="1161.2985,-252.0001 1171.2985,-248.5 1161.2985,-245.0001 1161.2985,-252.0001"/>
</g>
<!-- Node12 -->
<g id="node12" class="node">
<title>Node12</title>
<g id="a_node12"><a xlink:href="class_l_f_s_t_k__gadget_class_a091281ba03eaeb31bc7507c74b9b4f2f.xhtml#a091281ba03eaeb31bc7507c74b9b4f2f" target="_top" xlink:title=" ">
<polygon fill="none" stroke="#000000" points="1182.247,-277.5 1182.247,-309.5 1297.159,-309.5 1297.159,-277.5 1182.247,-277.5"/>
<text text-anchor="start" x="1190.247" y="-296.5" font-family="Helvetica,sans-Serif" font-size="10.00" fill="#000000">LFSTK_gadgetClass::</text>
<text text-anchor="middle" x="1239.703" y="-284.5" font-family="Helvetica,sans-Serif" font-size="10.00" fill="#000000">LFSTK_getTextHeight</text>
</a>
</g>
</g>
<!-- Node10&#45;&gt;Node12 -->
<g id="edge12" class="edge">
<title>Node10&#45;&gt;Node12</title>
<path fill="none" stroke="#191970" d="M1135.7967,-264.492C1147.7208,-267.8209 1160.3898,-271.3578 1172.6304,-274.775"/>
<polygon fill="#191970" stroke="#191970" points="1171.7599,-278.1658 1182.3328,-277.4837 1173.6422,-271.4236 1171.7599,-278.1658"/>
</g>
<!-- Node14 -->
<g id="node14" class="node">
<title>Node14</title>
<g id="a_node14"><a xlink:href="class_l_f_s_t_k__window_class_ac3b5b99b3a018cce7c631df39db76be1.xhtml#ac3b5b99b3a018cce7c631df39db76be1" target="_top" xlink:title=" ">
<polygon fill="none" stroke="#000000" points="556.6615,-356.5 556.6615,-388.5 673.2245,-388.5 673.2245,-356.5 556.6615,-356.5"/>
<text text-anchor="start" x="564.6615" y="-375.5" font-family="Helvetica,sans-Serif" font-size="10.00" fill="#000000">LFSTK_windowClass::</text>
<text text-anchor="middle" x="614.943" y="-363.5" font-family="Helvetica,sans-Serif" font-size="10.00" fill="#000000">LFSTK_clearWindow</text>
</a>
</g>
</g>
<!-- Node13&#45;&gt;Node14 -->
<g id="edge14" class="edge">
<title>Node13&#45;&gt;Node14</title>
<path fill="none" stroke="#191970" d="M280.4293,-408.3192C299.2151,-389.4928 333.2798,-359.4626 369.622,-347.5 431.9533,-326.9827 507.5917,-339.9977 558.2555,-353.7454"/>
<polygon fill="#191970" stroke="#191970" points="557.47,-357.1602 568.0439,-356.495 559.3631,-350.421 557.47,-357.1602"/>
</g>
<!-- Node15 -->
<g id="node15" class="node">
<title>Node15</title>
<g id="a_node15"><a xlink:href="class_l_f_s_t_k__window_class_a9e816b5a80a4022fe266445124bf429f.xhtml#a9e816b5a80a4022fe266445124bf429f" target="_top" xlink:title=" ">
<polygon fill="none" stroke="#000000" points="369.622,-357.5 369.622,-389.5 507.88,-389.5 507.88,-357.5 369.622,-357.5"/>
<text text-anchor="start" x="377.622" y="-376.5" font-family="Helvetica,sans-Serif" font-size="10.00" fill="#000000">LFSTK_windowClass::</text>
<text text-anchor="middle" x="438.751" y="-364.5" font-family="Helvetica,sans-Serif" font-size="10.00" fill="#000000">LFSTK_getMappedListener</text>
</a>
</g>
</g>
<!-- Node13&#45;&gt;Node15 -->
<g id="edge16" class="edge">
<title>Node13&#45;&gt;Node15</title>
<path fill="none" stroke="#191970" d="M320.2032,-408.3633C337.4508,-403.291 356.65,-397.6448 374.4882,-392.3988"/>
<polygon fill="#191970" stroke="#191970" points="375.631,-395.711 384.2373,-389.5317 373.656,-388.9954 375.631,-395.711"/>
</g>
<!-- Node16 -->
<g id="node16" class="node">
<title>Node16</title>
<g id="a_node16"><a xlink:href="class_l_f_s_t_k__window_class_ab03c62046f64b173b9d1138592dee8c1.xhtml#ab03c62046f64b173b9d1138592dee8c1" target="_top" xlink:title=" ">
<polygon fill="none" stroke="#000000" points="380.4695,-561.5 380.4695,-593.5 497.0325,-593.5 497.0325,-561.5 380.4695,-561.5"/>
<text text-anchor="start" x="388.4695" y="-580.5" font-family="Helvetica,sans-Serif" font-size="10.00" fill="#000000">LFSTK_windowClass::</text>
<text text-anchor="middle" x="438.751" y="-568.5" font-family="Helvetica,sans-Serif" font-size="10.00" fill="#000000">LFSTK_hideWindow</text>
</a>
</g>
</g>
<!-- Node13&#45;&gt;Node16 -->
<g id="edge17" class="edge">
<title>Node13&#45;&gt;Node16</title>
<path fill="none" stroke="#191970" d="M274.4496,-440.624C290.4085,-467.4812 325.9049,-521.4833 369.622,-552.5 371.7167,-553.9862 373.9094,-555.3932 376.1715,-556.7243"/>
<polygon fill="#191970" stroke="#191970" points="374.7054,-559.9082 385.1816,-561.4892 377.9778,-553.7202 374.7054,-559.9082"/>
</g>
<!-- Node17 -->
<g id="node17" class="node">
<title>Node17</title>
<g id="a_node17"><a xlink:href="class_l_f_s_t_k__window_class_a933b11647301f675ebdbcba313ed03ab.xhtml#a933b11647301f675ebdbcba313ed03ab" target="_top" xlink:title=" ">
<polygon fill="none" stroke="#000000" points="380.4695,-408.5 380.4695,-440.5 497.0325,-440.5 497.0325,-408.5 380.4695,-408.5"/>
<text text-anchor="start" x="388.4695" y="-427.5" font-family="Helvetica,sans-Serif" font-size="10.00" fill="#000000">LFSTK_windowClass::</text>
<text text-anchor="middle" x="438.751" y="-415.5" font-family="Helvetica,sans-Serif" font-size="10.00" fill="#000000">LFSTK_moveWindow</text>
</a>
</g>
</g>
<!-- Node13&#45;&gt;Node17 -->
<g id="edge18" class="edge">
<title>Node13&#45;&gt;Node17</title>
<path fill="none" stroke="#191970" d="M322.5968,-424.5C337.8118,-424.5 354.3992,-424.5 370.152,-424.5"/>
<polygon fill="#191970" stroke="#191970" points="370.3605,-428.0001 380.3605,-424.5 370.3604,-421.0001 370.3605,-428.0001"/>
</g>
<!-- Node19 -->
<g id="node19" class="node">
<title>Node19</title>
<g id="a_node19"><a xlink:href="class_l_f_s_t_k__window_class_abec54e421d2e094da2214abfccebd361.xhtml#abec54e421d2e094da2214abfccebd361" target="_top" xlink:title=" ">
<polygon fill="none" stroke="#000000" points="380.4695,-459.5 380.4695,-491.5 497.0325,-491.5 497.0325,-459.5 380.4695,-459.5"/>
<text text-anchor="start" x="388.4695" y="-478.5" font-family="Helvetica,sans-Serif" font-size="10.00" fill="#000000">LFSTK_windowClass::</text>
<text text-anchor="middle" x="438.751" y="-466.5" font-family="Helvetica,sans-Serif" font-size="10.00" fill="#000000">LFSTK_resizeWindow</text>
</a>
</g>
</g>
<!-- Node13&#45;&gt;Node19 -->
<g id="edge21" class="edge">
<title>Node13&#45;&gt;Node19</title>
<path fill="none" stroke="#191970" d="M320.2032,-440.6367C337.4508,-445.709 356.65,-451.3552 374.4882,-456.6012"/>
<polygon fill="#191970" stroke="#191970" points="373.656,-460.0046 384.2373,-459.4683 375.631,-453.289 373.656,-460.0046"/>
</g>
<!-- Node21 -->
<g id="node21" class="node">
<title>Node21</title>
<g id="a_node21"><a xlink:href="class_l_f_s_t_k__window_class_a7e8039be4b889bb5eaa51c297386195b.xhtml#a7e8039be4b889bb5eaa51c297386195b" target="_top" xlink:title=" ">
<polygon fill="none" stroke="#000000" points="380.4695,-510.5 380.4695,-542.5 497.0325,-542.5 497.0325,-510.5 380.4695,-510.5"/>
<text text-anchor="start" x="388.4695" y="-529.5" font-family="Helvetica,sans-Serif" font-size="10.00" fill="#000000">LFSTK_windowClass::</text>
<text text-anchor="middle" x="438.751" y="-517.5" font-family="Helvetica,sans-Serif" font-size="10.00" fill="#000000">LFSTK_showWindow</text>
</a>
</g>
</g>
<!-- Node13&#45;&gt;Node21 -->
<g id="edge25" class="edge">
<title>Node13&#45;&gt;Node21</title>
<path fill="none" stroke="#191970" d="M284.2698,-440.7452C304.402,-457.4105 337.6805,-483.2674 369.622,-500.5 373.3671,-502.5205 377.303,-504.4541 381.3173,-506.2894"/>
<polygon fill="#191970" stroke="#191970" points="380.2061,-509.6223 390.7733,-510.3878 382.9899,-503.1997 380.2061,-509.6223"/>
</g>
<!-- Node14&#45;&gt;Node4 -->
<g id="edge15" class="edge">
<title>Node14&#45;&gt;Node4</title>
<path fill="none" stroke="#191970" d="M673.6748,-362.4704C686.0736,-360.3531 699.2458,-358.1037 711.9227,-355.9389"/>
<polygon fill="#191970" stroke="#191970" points="712.6908,-359.3585 721.9589,-354.225 711.5124,-352.4584 712.6908,-359.3585"/>
</g>
<!-- Node17&#45;&gt;Node14 -->
<g id="edge19" class="edge">
<title>Node17&#45;&gt;Node14</title>
<path fill="none" stroke="#191970" d="M493.0521,-408.474C511.306,-403.0867 531.8415,-397.026 550.7803,-391.4365"/>
<polygon fill="#191970" stroke="#191970" points="551.9176,-394.7502 560.5179,-388.5626 549.9362,-388.0364 551.9176,-394.7502"/>
</g>
<!-- Node18 -->
<g id="node18" class="node">
<title>Node18</title>
<g id="a_node18"><a xlink:href="class_l_f_s_t_k__window_class_ac8c342109a0f8599f550475cef048745.xhtml#ac8c342109a0f8599f550475cef048745" target="_top" xlink:title=" ">
<polygon fill="none" stroke="#000000" points="556.6615,-408.5 556.6615,-440.5 673.2245,-440.5 673.2245,-408.5 556.6615,-408.5"/>
<text text-anchor="start" x="564.6615" y="-427.5" font-family="Helvetica,sans-Serif" font-size="10.00" fill="#000000">LFSTK_windowClass::</text>
<text text-anchor="middle" x="614.943" y="-415.5" font-family="Helvetica,sans-Serif" font-size="10.00" fill="#000000">setWindowGeom</text>
</a>
</g>
</g>
<!-- Node17&#45;&gt;Node18 -->
<g id="edge20" class="edge">
<title>Node17&#45;&gt;Node18</title>
<path fill="none" stroke="#191970" d="M497.4204,-424.5C513.0229,-424.5 530.0166,-424.5 546.1088,-424.5"/>
<polygon fill="#191970" stroke="#191970" points="546.5298,-428.0001 556.5298,-424.5 546.5298,-421.0001 546.5298,-428.0001"/>
</g>
<!-- Node19&#45;&gt;Node14 -->
<g id="edge22" class="edge">
<title>Node19&#45;&gt;Node14</title>
<path fill="none" stroke="#191970" d="M491.8556,-459.353C497.536,-456.5298 503.01,-453.2635 507.88,-449.5 529.8333,-432.5344 521.8506,-415.3667 543.88,-398.5 546.3052,-396.6432 548.876,-394.9092 551.546,-393.291"/>
<polygon fill="#191970" stroke="#191970" points="553.2359,-396.3561 560.3539,-388.5086 549.8957,-390.2044 553.2359,-396.3561"/>
</g>
<!-- Node19&#45;&gt;Node18 -->
<g id="edge24" class="edge">
<title>Node19&#45;&gt;Node18</title>
<path fill="none" stroke="#191970" d="M494.4993,-459.3633C512.1038,-454.2675 531.7097,-448.5925 549.9041,-443.326"/>
<polygon fill="#191970" stroke="#191970" points="550.9249,-446.6742 559.5574,-440.5317 548.9785,-439.9503 550.9249,-446.6742"/>
</g>
<!-- Node20 -->
<g id="node20" class="node">
<title>Node20</title>
<g id="a_node20"><a xlink:href="class_l_f_s_t_k__lib_aa5e46eec51c9f1f2a86ef7e22d6cba5b.xhtml#aa5e46eec51c9f1f2a86ef7e22d6cba5b" target="_top" xlink:title=" ">
<polygon fill="none" stroke="#000000" points="543.88,-459.5 543.88,-491.5 686.006,-491.5 686.006,-459.5 543.88,-459.5"/>
<text text-anchor="start" x="551.88" y="-478.5" font-family="Helvetica,sans-Serif" font-size="10.00" fill="#000000">LFSTK_lib::LFSTK_setCairo</text>
<text text-anchor="middle" x="614.943" y="-466.5" font-family="Helvetica,sans-Serif" font-size="10.00" fill="#000000">Surface</text>
</a>
</g>
</g>
<!-- Node19&#45;&gt;Node20 -->
<g id="edge23" class="edge">
<title>Node19&#45;&gt;Node20</title>
<path fill="none" stroke="#191970" d="M497.4204,-475.5C508.9952,-475.5 521.3356,-475.5 533.5057,-475.5"/>
<polygon fill="#191970" stroke="#191970" points="533.6679,-479.0001 543.6679,-475.5 533.6678,-472.0001 533.6679,-479.0001"/>
</g>
<!-- Node25&#45;&gt;Node4 -->
<g id="edge30" class="edge">
<title>Node25&#45;&gt;Node4</title>
<path fill="none" stroke="#191970" d="M672.2898,-328.2438C685.0946,-330.1962 698.7832,-332.2833 711.938,-334.289"/>
<polygon fill="#191970" stroke="#191970" points="711.4566,-337.756 721.8699,-335.8034 712.5118,-330.836 711.4566,-337.756"/>
</g>
<!-- Node27&#45;&gt;Node4 -->
<g id="edge33" class="edge">
<title>Node27&#45;&gt;Node4</title>
<path fill="none" stroke="#191970" d="M655.1047,-279.6077C665.2784,-283.9189 676.1217,-288.7161 686.006,-293.5 704.8706,-302.6302 725.3401,-313.7324 742.2515,-323.2441"/>
<polygon fill="#191970" stroke="#191970" points="740.8222,-326.457 751.248,-328.3421 744.2733,-320.3668 740.8222,-326.457"/>
</g>
<!-- Node28&#45;&gt;Node4 -->
<g id="edge35" class="edge">
<title>Node28&#45;&gt;Node4</title>
<path fill="none" stroke="#191970" d="M495.695,-203.1567C548.154,-201.6654 626.6236,-205.9576 686.006,-237.5 721.2231,-256.2064 749.0884,-294.1218 764.7928,-319.421"/>
<polygon fill="#191970" stroke="#191970" points="761.8664,-321.3461 770.0195,-328.112 767.8651,-317.7385 761.8664,-321.3461"/>
</g>
<!-- Node29&#45;&gt;Node4 -->
<g id="edge37" class="edge">
<title>Node29&#45;&gt;Node4</title>
<path fill="none" stroke="#191970" d="M666.6145,-651.358C673.8212,-647.3872 680.5978,-642.4979 686.006,-636.5 756.4754,-558.3461 773.5097,-426.6267 777.6126,-370.786"/>
<polygon fill="#191970" stroke="#191970" points="781.1142,-370.8747 778.2728,-360.668 774.129,-370.4188 781.1142,-370.8747"/>
</g>
</g>
</svg>
        <g id="navigator" transform="translate(0 0)" fill="#404254">
                <rect fill="#f2f5e9" fill-opacity="0.5" stroke="#606060" stroke-width=".5" x="0" y="0" width="60" height="60"/>
                <use id="zoomplus" xlink:href="#zoomPlus" x="17" y="9" onmousedown="handleZoom(evt,'in')"/>
                <use id="zoomminus" xlink:href="#zoomMin" x="42" y="9" onmousedown="handleZoom(evt,'out')"/>
                <use id="reset" xlink:href="#resetDef" x="30" y="36" onmousedown="handleReset()"/>
                <g id="arrowUp" xlink:href="#dirArrow" transform="translate(30 24)" onmousedown="handlePan(0,-1)">
                  <use xlink:href="#rim" fill="#404040">
                        <set attributeName="fill" to="#808080" begin="arrowUp.mouseover" end="arrowUp.mouseout"/>
                  </use>
                  <path fill="none" stroke="white" stroke-width="1.5" d="M0,-3.0v7 M-2.5,-0.5L0,-3.0L2.5,-0.5"/>
                </g>
                <g id="arrowRight" xlink:href="#dirArrow" transform="rotate(90) translate(36 -43)" onmousedown="handlePan(1,0)">
                  <use xlink:href="#rim" fill="#404040">
                        <set attributeName="fill" to="#808080" begin="arrowRight.mouseover" end="arrowRight.mouseout"/>
                  </use>
                  <path fill="none" stroke="white" stroke-width="1.5" d="M0,-3.0v7 M-2.5,-0.5L0,-3.0L2.5,-0.5"/>
                </g>
                <g id="arrowDown" xlink:href="#dirArrow" transform="rotate(180) translate(-30 -48)" onmousedown="handlePan(0,1)">
                  <use xlink:href="#rim" fill="#404040">
                        <set attributeName="fill" to="#808080" begin="arrowDown.mouseover" end="arrowDown.mouseout"/>
                  </use>
                  <path fill="none" stroke="white" stroke-width="1.5" d="M0,-3.0v7 M-2.5,-0.5L0,-3.0L2.5,-0.5"/>
                </g>
                <g id="arrowLeft" xlink:href="#dirArrow" transform="rotate(270) translate(-36 17)" onmousedown="handlePan(-1,0)">
                  <use xlink:href="#rim" fill="#404040">
                        <set attributeName="fill" to="#808080" begin="arrowLeft.mouseover" end="arrowLeft.mouseout"/>
                  </use>
                  <path fill="none" stroke="white" stroke-width="1.5" d="M0,-3.0v7 M-2.5,-0.5L0,-3.0L2.5,-0.5"/>
                </g>
        </g>
        <svg viewBox="0 0 15 15" width="100%" height="30px" preserveAspectRatio="xMaxYMin meet">
         <g id="arrow_out" transform="scale(0.3 0.3)">
          <a xlink:href="class_l_f_s_t_k__lib_af01ab10da12946856ae6bc2a23414cf8_af01ab10da12946856ae6bc2a23414cf8_cgraph_org.svg" target="_base">
           <rect id="button" ry="5" rx="5" y="6" x="6" height="38" width="38"
                fill="#f2f5e9" fill-opacity="0.5" stroke="#606060" stroke-width="1.0"/>
           <path id="arrow"
             d="M 11.500037,31.436501 C 11.940474,20.09759 22.043105,11.32322 32.158766,21.979434 L 37.068811,17.246167 C 37.068811,17.246167 37.088388,32 37.088388,32 L 22.160133,31.978069 C 22.160133,31.978069 26.997745,27.140456 26.997745,27.140456 C 18.528582,18.264221 13.291696,25.230495 11.500037,31.436501 z"
             style="fill:#404040;"/>
          </a>
         </g>
        </svg>
</svg>
