<?xml version="1.0" encoding="UTF-8" standalone="no"?>
<!DOCTYPE svg PUBLIC "-//W3C//DTD SVG 1.1//EN"
 "http://www.w3.org/Graphics/SVG/1.1/DTD/svg11.dtd">
<!-- Generated by graphviz version 2.40.1 (20161225.0304)
 -->
<!-- Title: LFSTK_imageClass::mouseUp Pages: 1 -->
<svg width="353pt" height="80pt"
 viewBox="0.00 0.00 352.71 80.00" xmlns="http://www.w3.org/2000/svg" xmlns:xlink="http://www.w3.org/1999/xlink">
<g id="graph0" class="graph" transform="scale(1 1) rotate(0) translate(4 76)">
<title>LFSTK_imageClass::mouseUp</title>
<!-- Node1 -->
<g id="node1" class="node">
<title>Node1</title>
<g id="a_node1"><a xlink:title=" ">
<polygon fill="#bfbfbf" stroke="#000000" points="0,-22.5 0,-42.5 153.238,-42.5 153.238,-22.5 0,-22.5"/>
<text text-anchor="middle" x="76.619" y="-29.5" font-family="Helvetica,sans-Serif" font-size="10.00" fill="#000000">LFSTK_imageClass::mouseUp</text>
</a>
</g>
</g>
<!-- Node2 -->
<g id="node2" class="node">
<title>Node2</title>
<g id="a_node2"><a xlink:href="class_l_f_s_t_k__image_class_a9957841cdc97fb1157a79a64209ef050.xhtml#a9957841cdc97fb1157a79a64209ef050" target="_top" xlink:title=" ">
<polygon fill="none" stroke="#000000" points="196.19,-39.5 196.19,-71.5 337.759,-71.5 337.759,-39.5 196.19,-39.5"/>
<text text-anchor="start" x="204.19" y="-58.5" font-family="Helvetica,sans-Serif" font-size="10.00" fill="#000000">LFSTK_imageClass::LFSTK</text>
<text text-anchor="middle" x="266.9745" y="-46.5" font-family="Helvetica,sans-Serif" font-size="10.00" fill="#000000">_clearWindow</text>
</a>
</g>
</g>
<!-- Node1&#45;&gt;Node2 -->
<g id="edge1" class="edge">
<title>Node1&#45;&gt;Node2</title>
<path fill="none" stroke="#191970" d="M153.4952,-41.7887C164.1297,-43.0736 175.0809,-44.3968 185.7906,-45.6908"/>
<polygon fill="#191970" stroke="#191970" points="185.6186,-49.1954 195.9663,-46.9203 186.4583,-42.246 185.6186,-49.1954"/>
</g>
<!-- Node3 -->
<g id="node3" class="node">
<title>Node3</title>
<g id="a_node3"><a xlink:href="class_l_f_s_t_k__lib_a441a406ff87f735a2a4fa8207211cdf2.xhtml#a441a406ff87f735a2a4fa8207211cdf2" target="_top" xlink:title=" ">
<polygon fill="none" stroke="#000000" points="189.238,-.5 189.238,-20.5 344.711,-20.5 344.711,-.5 189.238,-.5"/>
<text text-anchor="middle" x="266.9745" y="-7.5" font-family="Helvetica,sans-Serif" font-size="10.00" fill="#000000">LFSTK_lib::LFSTK_pointInRect</text>
</a>
</g>
</g>
<!-- Node1&#45;&gt;Node3 -->
<g id="edge2" class="edge">
<title>Node1&#45;&gt;Node3</title>
<path fill="none" stroke="#191970" d="M153.4952,-23.6152C161.9499,-22.638 170.6048,-21.6378 179.1794,-20.6468"/>
<polygon fill="#191970" stroke="#191970" points="179.6594,-24.1147 189.1914,-19.4896 178.8557,-17.161 179.6594,-24.1147"/>
</g>
</g>
</svg>
