<?xml version="1.0" encoding="UTF-8" standalone="no"?>
<!DOCTYPE svg PUBLIC "-//W3C//DTD SVG 1.1//EN"
 "http://www.w3.org/Graphics/SVG/1.1/DTD/svg11.dtd">
<!-- Generated by graphviz version 2.40.1 (20161225.0304)
 -->
<!-- Title: LFSTK_multiLineEditClass::getClip Pages: 1 -->
<svg width="826pt" height="118pt"
 viewBox="0.00 0.00 826.49 118.00" xmlns="http://www.w3.org/2000/svg" xmlns:xlink="http://www.w3.org/1999/xlink">
<g id="graph0" class="graph" transform="scale(1 1) rotate(0) translate(4 114)">
<title>LFSTK_multiLineEditClass::getClip</title>
<!-- Node1 -->
<g id="node1" class="node">
<title>Node1</title>
<g id="a_node1"><a xlink:title=" ">
<polygon fill="#bfbfbf" stroke="#000000" points="0,-54.5 0,-86.5 134.898,-86.5 134.898,-54.5 0,-54.5"/>
<text text-anchor="start" x="8" y="-73.5" font-family="Helvetica,sans-Serif" font-size="10.00" fill="#000000">LFSTK_multiLineEditClass</text>
<text text-anchor="middle" x="67.449" y="-61.5" font-family="Helvetica,sans-Serif" font-size="10.00" fill="#000000">::getClip</text>
</a>
</g>
</g>
<!-- Node2 -->
<g id="node2" class="node">
<title>Node2</title>
<g id="a_node2"><a xlink:href="class_l_f_s_t_k__multi_line_edit_class_aada0749d2c064f7a8f2af14ab82f08a5.xhtml#aada0749d2c064f7a8f2af14ab82f08a5" target="_top" xlink:title=" ">
<polygon fill="none" stroke="#000000" points="512.694,-51.5 512.694,-83.5 647.592,-83.5 647.592,-51.5 512.694,-51.5"/>
<text text-anchor="start" x="520.694" y="-70.5" font-family="Helvetica,sans-Serif" font-size="10.00" fill="#000000">LFSTK_multiLineEditClass</text>
<text text-anchor="middle" x="580.143" y="-58.5" font-family="Helvetica,sans-Serif" font-size="10.00" fill="#000000">::LFSTK_clearWindow</text>
</a>
</g>
</g>
<!-- Node1&#45;&gt;Node2 -->
<g id="edge1" class="edge">
<title>Node1&#45;&gt;Node2</title>
<path fill="none" stroke="#191970" d="M120.666,-86.5372C136.6612,-90.6321 154.3575,-94.4533 170.898,-96.5 285.9177,-110.7327 420.0539,-95.1572 502.5394,-81.9158"/>
<polygon fill="#191970" stroke="#191970" points="503.2815,-85.3411 512.5858,-80.2735 502.1521,-78.4328 503.2815,-85.3411"/>
</g>
<!-- Node5 -->
<g id="node5" class="node">
<title>Node5</title>
<g id="a_node5"><a xlink:href="class_l_f_s_t_k__window_class_a0d85c225b59176302c8b25d090e08ad7.xhtml#a0d85c225b59176302c8b25d090e08ad7" target="_top" xlink:title=" ">
<polygon fill="none" stroke="#000000" points="180.0655,-54.5 180.0655,-86.5 296.6285,-86.5 296.6285,-54.5 180.0655,-54.5"/>
<text text-anchor="start" x="188.0655" y="-73.5" font-family="Helvetica,sans-Serif" font-size="10.00" fill="#000000">LFSTK_windowClass::</text>
<text text-anchor="middle" x="238.347" y="-61.5" font-family="Helvetica,sans-Serif" font-size="10.00" fill="#000000">LFSTK_getDnDAtom</text>
</a>
</g>
</g>
<!-- Node1&#45;&gt;Node5 -->
<g id="edge4" class="edge">
<title>Node1&#45;&gt;Node5</title>
<path fill="none" stroke="#191970" d="M134.9924,-70.5C146.3501,-70.5 158.1496,-70.5 169.5389,-70.5"/>
<polygon fill="#191970" stroke="#191970" points="169.8586,-74.0001 179.8586,-70.5 169.8585,-67.0001 169.8586,-74.0001"/>
</g>
<!-- Node6 -->
<g id="node6" class="node">
<title>Node6</title>
<g id="a_node6"><a xlink:href="class_l_f_s_t_k__multi_line_edit_class_ae50305eb44baa381e0c7ce5c2e86a22e.xhtml#ae50305eb44baa381e0c7ce5c2e86a22e" target="_top" xlink:title=" ">
<polygon fill="none" stroke="#000000" points="170.898,-3.5 170.898,-35.5 305.796,-35.5 305.796,-3.5 170.898,-3.5"/>
<text text-anchor="start" x="178.898" y="-22.5" font-family="Helvetica,sans-Serif" font-size="10.00" fill="#000000">LFSTK_multiLineEditClass</text>
<text text-anchor="middle" x="238.347" y="-10.5" font-family="Helvetica,sans-Serif" font-size="10.00" fill="#000000">::LFSTK_setFormatedText</text>
</a>
</g>
</g>
<!-- Node1&#45;&gt;Node6 -->
<g id="edge5" class="edge">
<title>Node1&#45;&gt;Node6</title>
<path fill="none" stroke="#191970" d="M121.5222,-54.3633C138.5191,-49.291 157.4393,-43.6448 175.0182,-38.3988"/>
<polygon fill="#191970" stroke="#191970" points="176.044,-41.7453 184.6256,-35.5317 174.0423,-35.0376 176.044,-41.7453"/>
</g>
<!-- Node3 -->
<g id="node3" class="node">
<title>Node3</title>
<g id="a_node3"><a xlink:href="class_l_f_s_t_k__gadget_class_ab76db165a19af248b5e94e95492dc879.xhtml#ab76db165a19af248b5e94e95492dc879" target="_top" xlink:title=" ">
<polygon fill="none" stroke="#000000" points="694.1395,-77.5 694.1395,-109.5 807.9425,-109.5 807.9425,-77.5 694.1395,-77.5"/>
<text text-anchor="start" x="702.1395" y="-96.5" font-family="Helvetica,sans-Serif" font-size="10.00" fill="#000000">LFSTK_gadgetClass::</text>
<text text-anchor="middle" x="751.041" y="-84.5" font-family="Helvetica,sans-Serif" font-size="10.00" fill="#000000">drawBevel</text>
</a>
</g>
</g>
<!-- Node2&#45;&gt;Node3 -->
<g id="edge2" class="edge">
<title>Node2&#45;&gt;Node3</title>
<path fill="none" stroke="#191970" d="M647.6864,-77.7759C659.6403,-79.5945 672.0837,-81.4876 684.023,-83.3041"/>
<polygon fill="#191970" stroke="#191970" points="683.499,-86.7645 693.9117,-84.8085 684.5519,-79.8442 683.499,-86.7645"/>
</g>
<!-- Node4 -->
<g id="node4" class="node">
<title>Node4</title>
<g id="a_node4"><a xlink:href="class_l_f_s_t_k__multi_line_edit_class_a48999ac31ea05c85d68ef2c5fc513c0e.xhtml#a48999ac31ea05c85d68ef2c5fc513c0e" target="_top" xlink:title=" ">
<polygon fill="none" stroke="#000000" points="683.592,-26.5 683.592,-58.5 818.49,-58.5 818.49,-26.5 683.592,-26.5"/>
<text text-anchor="start" x="691.592" y="-45.5" font-family="Helvetica,sans-Serif" font-size="10.00" fill="#000000">LFSTK_multiLineEditClass</text>
<text text-anchor="middle" x="751.041" y="-33.5" font-family="Helvetica,sans-Serif" font-size="10.00" fill="#000000">::drawText</text>
</a>
</g>
</g>
<!-- Node2&#45;&gt;Node4 -->
<g id="edge3" class="edge">
<title>Node2&#45;&gt;Node4</title>
<path fill="none" stroke="#191970" d="M647.6864,-57.6193C656.1358,-56.3833 664.8297,-55.1115 673.4173,-53.8553"/>
<polygon fill="#191970" stroke="#191970" points="674.0405,-57.3014 683.4286,-52.3908 673.0272,-50.3752 674.0405,-57.3014"/>
</g>
<!-- Node6&#45;&gt;Node2 -->
<g id="edge6" class="edge">
<title>Node6&#45;&gt;Node2</title>
<path fill="none" stroke="#191970" d="M298.4974,-35.5489C312.6227,-38.8961 327.6748,-42.1245 341.796,-44.5 395.0759,-53.4627 455.6876,-59.253 502.4551,-62.782"/>
<polygon fill="#191970" stroke="#191970" points="502.2878,-66.2791 512.5178,-63.5227 502.8017,-59.298 502.2878,-66.2791"/>
</g>
<!-- Node7 -->
<g id="node7" class="node">
<title>Node7</title>
<g id="a_node7"><a xlink:href="class_l_f_s_t_k__multi_line_edit_class_ae1de86c1df295bbe1bcb63b2f98fbb4d.xhtml#ae1de86c1df295bbe1bcb63b2f98fbb4d" target="_top" xlink:title=" ">
<polygon fill="none" stroke="#000000" points="341.796,-3.5 341.796,-35.5 476.694,-35.5 476.694,-3.5 341.796,-3.5"/>
<text text-anchor="start" x="349.796" y="-22.5" font-family="Helvetica,sans-Serif" font-size="10.00" fill="#000000">LFSTK_multiLineEditClass</text>
<text text-anchor="middle" x="409.245" y="-10.5" font-family="Helvetica,sans-Serif" font-size="10.00" fill="#000000">::setDisplayLines</text>
</a>
</g>
</g>
<!-- Node6&#45;&gt;Node7 -->
<g id="edge7" class="edge">
<title>Node6&#45;&gt;Node7</title>
<path fill="none" stroke="#191970" d="M305.8904,-19.5C314.3398,-19.5 323.0337,-19.5 331.6213,-19.5"/>
<polygon fill="#191970" stroke="#191970" points="331.6326,-23.0001 341.6326,-19.5 331.6325,-16.0001 331.6326,-23.0001"/>
</g>
<!-- Node7&#45;&gt;Node2 -->
<g id="edge8" class="edge">
<title>Node7&#45;&gt;Node2</title>
<path fill="none" stroke="#191970" d="M466.627,-35.6168C481.5017,-39.7947 497.653,-44.3311 512.9806,-48.6362"/>
<polygon fill="#191970" stroke="#191970" points="512.3386,-52.0912 522.9125,-51.4257 514.2314,-45.352 512.3386,-52.0912"/>
</g>
<!-- Node8 -->
<g id="node8" class="node">
<title>Node8</title>
<g id="a_node8"><a xlink:href="class_l_f_s_t_k__gadget_class_a71d34233c5db545e92d37c0e3139459b.xhtml#a71d34233c5db545e92d37c0e3139459b" target="_top" xlink:title=" ">
<polygon fill="none" stroke="#000000" points="523.2415,-.5 523.2415,-32.5 637.0445,-32.5 637.0445,-.5 523.2415,-.5"/>
<text text-anchor="start" x="531.2415" y="-19.5" font-family="Helvetica,sans-Serif" font-size="10.00" fill="#000000">LFSTK_gadgetClass::</text>
<text text-anchor="middle" x="580.143" y="-7.5" font-family="Helvetica,sans-Serif" font-size="10.00" fill="#000000">LFSTK_getGeom</text>
</a>
</g>
</g>
<!-- Node7&#45;&gt;Node8 -->
<g id="edge9" class="edge">
<title>Node7&#45;&gt;Node8</title>
<path fill="none" stroke="#191970" d="M476.7884,-18.3143C488.6228,-18.1066 500.9369,-17.8904 512.7667,-17.6827"/>
<polygon fill="#191970" stroke="#191970" points="513.0767,-21.1779 523.0137,-17.5029 512.9538,-14.179 513.0767,-21.1779"/>
</g>
</g>
</svg>
