<?xml version="1.0" encoding="UTF-8" standalone="no"?>
<!DOCTYPE svg PUBLIC "-//W3C//DTD SVG 1.1//EN"
 "http://www.w3.org/Graphics/SVG/1.1/DTD/svg11.dtd">
<!-- Generated by graphviz version 2.40.1 (20161225.0304)
 -->
<!-- Title: LFSTK_windowClass::LFSTK_hideWindow Pages: 1 -->
<!--zoomable 526 -->
<svg id="main" version="1.1" xmlns="http://www.w3.org/2000/svg" xmlns:xlink="http://www.w3.org/1999/xlink" xml:space="preserve" onload="init(evt)">
<style type="text/css"><![CDATA[
.edge:hover path { stroke: red; }
.edge:hover polygon { stroke: red; fill: red; }
]]></style>
<script type="text/javascript"><![CDATA[
var edges = document.getElementsByTagName('g');
if (edges && edges.length) {
  for (var i=0;i<edges.length;i++) {
    if (edges[i].id.substr(0,4)=='edge') {
      edges[i].setAttribute('class','edge');
    }
  }
}
]]></script>
        <defs>
                <circle id="rim" cx="0" cy="0" r="7"/>
                <circle id="rim2" cx="0" cy="0" r="3.5"/>
                <g id="zoomPlus">
                        <use xlink:href="#rim" fill="#404040">
                                <set attributeName="fill" to="#808080" begin="zoomplus.mouseover" end="zoomplus.mouseout"/>
                        </use>
                        <path d="M-4,0h8M0,-4v8" fill="none" stroke="white" stroke-width="1.5" pointer-events="none"/>
                </g>
                <g id="zoomMin">
                        <use xlink:href="#rim" fill="#404040">
                                <set attributeName="fill" to="#808080" begin="zoomminus.mouseover" end="zoomminus.mouseout"/>
                        </use>
                        <path d="M-4,0h8" fill="none" stroke="white" stroke-width="1.5" pointer-events="none"/>
                </g>
                <g id="dirArrow">
                        <path fill="none" stroke="white" stroke-width="1.5" d="M0,-3.0v7 M-2.5,-0.5L0,-3.0L2.5,-0.5"/>
                </g>
               <g id="resetDef">
                       <use xlink:href="#rim2" fill="#404040">
                               <set attributeName="fill" to="#808080" begin="reset.mouseover" end="reset.mouseout"/>
                       </use>
               </g>
        </defs>

<script type="text/javascript">
var viewWidth = 675;
var viewHeight = 526;
var sectionId = 'dynsection-0';
</script>
<script xlink:href="svgpan.js"/>
<svg id="graph" class="graph">
<g id="viewport">
<title>LFSTK_windowClass::LFSTK_hideWindow</title>
<!-- Node1 -->
<g id="node1" class="node">
<title>Node1</title>
<g id="a_node1"><a xlink:title=" ">
<polygon fill="#bfbfbf" stroke="#000000" points="549.962,-127.5 549.962,-159.5 666.525,-159.5 666.525,-127.5 549.962,-127.5"/>
<text text-anchor="start" x="557.962" y="-146.5" font-family="Helvetica,sans-Serif" font-size="10.00" fill="#000000">LFSTK_windowClass::</text>
<text text-anchor="middle" x="608.2435" y="-134.5" font-family="Helvetica,sans-Serif" font-size="10.00" fill="#000000">LFSTK_hideWindow</text>
</a>
</g>
</g>
<!-- Node2 -->
<g id="node2" class="node">
<title>Node2</title>
<g id="a_node2"><a xlink:href="class_l_f_s_t_k__gadget_class_a2a450a6784d5743e14340cc8ebd05d15.xhtml#a2a450a6784d5743e14340cc8ebd05d15" target="_top" xlink:title=" ">
<polygon fill="none" stroke="#000000" points="387.3855,-255.5 387.3855,-287.5 501.1885,-287.5 501.1885,-255.5 387.3855,-255.5"/>
<text text-anchor="start" x="395.3855" y="-274.5" font-family="Helvetica,sans-Serif" font-size="10.00" fill="#000000">LFSTK_gadgetClass::</text>
<text text-anchor="middle" x="444.287" y="-262.5" font-family="Helvetica,sans-Serif" font-size="10.00" fill="#000000">LFSTK_doPopUp</text>
</a>
</g>
</g>
<!-- Node1&#45;&gt;Node2 -->
<g id="edge1" class="edge">
<title>Node1&#45;&gt;Node2</title>
<path fill="none" stroke="#191970" d="M591.3391,-167.971C574.2328,-191.0932 545.8193,-225.3065 513.962,-246.5 508.933,-249.8456 503.4021,-252.8054 497.7231,-255.4083"/>
<polygon fill="#191970" stroke="#191970" points="594.296,-169.8551 597.3252,-159.7025 588.6259,-165.7501 594.296,-169.8551"/>
</g>
<!-- Node14 -->
<g id="node14" class="node">
<title>Node14</title>
<g id="a_node14"><a xlink:href="class_l_f_s_t_k__font_dialog_class_a14c5f93b43c729a1bcb8bebe141415f2.xhtml#a14c5f93b43c729a1bcb8bebe141415f2" target="_top" xlink:title=" ">
<polygon fill="none" stroke="#000000" points="382.9465,-204.5 382.9465,-236.5 505.6275,-236.5 505.6275,-204.5 382.9465,-204.5"/>
<text text-anchor="start" x="390.9465" y="-223.5" font-family="Helvetica,sans-Serif" font-size="10.00" fill="#000000">LFSTK_fontDialogClass</text>
<text text-anchor="middle" x="444.287" y="-211.5" font-family="Helvetica,sans-Serif" font-size="10.00" fill="#000000">::LFSTK_showDialog</text>
</a>
</g>
</g>
<!-- Node1&#45;&gt;Node14 -->
<g id="edge13" class="edge">
<title>Node1&#45;&gt;Node14</title>
<path fill="none" stroke="#191970" d="M572.8988,-164.7488C555.4885,-174.759 533.9815,-186.4573 513.962,-195.5 507.0519,-198.6213 499.626,-201.6317 492.2892,-204.4167"/>
<polygon fill="#191970" stroke="#191970" points="574.7136,-167.7423 581.6003,-159.6909 571.1958,-161.6904 574.7136,-167.7423"/>
</g>
<!-- Node15 -->
<g id="node15" class="node">
<title>Node15</title>
<g id="a_node15"><a xlink:href="class_l_f_s_t_k__file_dialog_class_af77972b8a46616ba4c7bec555b2b0a14.xhtml#af77972b8a46616ba4c7bec555b2b0a14" target="_top" xlink:title=" ">
<polygon fill="none" stroke="#000000" points="381.2825,-153.5 381.2825,-185.5 507.2915,-185.5 507.2915,-153.5 381.2825,-153.5"/>
<text text-anchor="start" x="389.2825" y="-172.5" font-family="Helvetica,sans-Serif" font-size="10.00" fill="#000000">LFSTK_fileDialogClass</text>
<text text-anchor="middle" x="444.287" y="-160.5" font-family="Helvetica,sans-Serif" font-size="10.00" fill="#000000">::LFSTK_showFileDialog</text>
</a>
</g>
</g>
<!-- Node1&#45;&gt;Node15 -->
<g id="edge14" class="edge">
<title>Node1&#45;&gt;Node15</title>
<path fill="none" stroke="#191970" d="M539.4255,-154.4131C528.78,-156.1012 517.8305,-157.8376 507.3206,-159.5042"/>
<polygon fill="#191970" stroke="#191970" points="540.1862,-157.8363 549.5145,-152.8132 539.0897,-150.9227 540.1862,-157.8363"/>
</g>
<!-- Node17 -->
<g id="node17" class="node">
<title>Node17</title>
<g id="a_node17"><a xlink:href="class_l_f_s_t_k__menu_class_ab847d4847ed01a7ff90c717a2cdb6dc5.xhtml#ab847d4847ed01a7ff90c717a2cdb6dc5" target="_top" xlink:title=" ">
<polygon fill="none" stroke="#000000" points="374.612,-102.5 374.612,-134.5 513.962,-134.5 513.962,-102.5 374.612,-102.5"/>
<text text-anchor="start" x="382.612" y="-121.5" font-family="Helvetica,sans-Serif" font-size="10.00" fill="#000000">LFSTK_menuClass::LFSTK</text>
<text text-anchor="middle" x="444.287" y="-109.5" font-family="Helvetica,sans-Serif" font-size="10.00" fill="#000000">_showMenu</text>
</a>
</g>
</g>
<!-- Node1&#45;&gt;Node17 -->
<g id="edge16" class="edge">
<title>Node1&#45;&gt;Node17</title>
<path fill="none" stroke="#191970" d="M539.4122,-133.0046C531.0337,-131.7271 522.467,-130.4208 514.0747,-129.1412"/>
<polygon fill="#191970" stroke="#191970" points="539.1012,-136.4976 549.5145,-134.545 540.1564,-129.5776 539.1012,-136.4976"/>
</g>
<!-- Node18 -->
<g id="node18" class="node">
<title>Node18</title>
<g id="a_node18"><a xlink:href="class_l_f_s_t_k__menu_item_class_ad2460aa76c71cb7ea548041e1ff858cf.xhtml#ad2460aa76c71cb7ea548041e1ff858cf" target="_top" xlink:title=" ">
<polygon fill="none" stroke="#000000" points="383.2255,-51.5 383.2255,-83.5 505.3485,-83.5 505.3485,-51.5 383.2255,-51.5"/>
<text text-anchor="start" x="391.2255" y="-70.5" font-family="Helvetica,sans-Serif" font-size="10.00" fill="#000000">LFSTK_menuItemClass</text>
<text text-anchor="middle" x="444.287" y="-58.5" font-family="Helvetica,sans-Serif" font-size="10.00" fill="#000000">::mouseEnter</text>
</a>
</g>
</g>
<!-- Node1&#45;&gt;Node18 -->
<g id="edge17" class="edge">
<title>Node1&#45;&gt;Node18</title>
<path fill="none" stroke="#191970" d="M571.9947,-122.2232C554.7288,-112.5238 533.6024,-101.2751 513.962,-92.5 507.0392,-89.407 499.6065,-86.4118 492.2667,-83.6335"/>
<polygon fill="#191970" stroke="#191970" points="570.732,-125.5311 581.1558,-127.4268 574.1893,-119.4444 570.732,-125.5311"/>
</g>
<!-- Node19 -->
<g id="node19" class="node">
<title>Node19</title>
<g id="a_node19"><a xlink:href="class_l_f_s_t_k__window_class_a8ea1b78fa401c3a64e6273975cfbca66.xhtml#a8ea1b78fa401c3a64e6273975cfbca66" target="_top" xlink:title=" ">
<polygon fill="none" stroke="#000000" points="385.865,-.5 385.865,-32.5 502.709,-32.5 502.709,-.5 385.865,-.5"/>
<text text-anchor="start" x="393.865" y="-19.5" font-family="Helvetica,sans-Serif" font-size="10.00" fill="#000000">LFSTK_windowClass::</text>
<text text-anchor="middle" x="444.287" y="-7.5" font-family="Helvetica,sans-Serif" font-size="10.00" fill="#000000">~LFSTK_windowClass</text>
</a>
</g>
</g>
<!-- Node1&#45;&gt;Node19 -->
<g id="edge18" class="edge">
<title>Node1&#45;&gt;Node19</title>
<path fill="none" stroke="#191970" d="M591.2876,-119.2741C574.1432,-96.3819 545.7025,-62.5048 513.962,-41.5 508.9249,-38.1666 503.3888,-35.2146 497.7068,-32.6161"/>
<polygon fill="#191970" stroke="#191970" points="588.5535,-121.4644 597.2885,-127.4601 594.199,-117.3258 588.5535,-121.4644"/>
</g>
<!-- Node3 -->
<g id="node3" class="node">
<title>Node3</title>
<g id="a_node3"><a xlink:href="class_l_f_s_t_k__lib_af01ab10da12946856ae6bc2a23414cf8.xhtml#af01ab10da12946856ae6bc2a23414cf8" target="_top" xlink:title=" ">
<polygon fill="none" stroke="#000000" points="177.569,-261.5 177.569,-281.5 338.612,-281.5 338.612,-261.5 177.569,-261.5"/>
<text text-anchor="middle" x="258.0905" y="-268.5" font-family="Helvetica,sans-Serif" font-size="10.00" fill="#000000">LFSTK_lib::LFSTK_gadgetEvent</text>
</a>
</g>
</g>
<!-- Node2&#45;&gt;Node3 -->
<g id="edge2" class="edge">
<title>Node2&#45;&gt;Node3</title>
<path fill="none" stroke="#191970" d="M376.9265,-271.5C364.5376,-271.5 351.4888,-271.5 338.7559,-271.5"/>
<polygon fill="#191970" stroke="#191970" points="377.1566,-275.0001 387.1565,-271.5 377.1565,-268.0001 377.1566,-275.0001"/>
</g>
<!-- Node4 -->
<g id="node4" class="node">
<title>Node4</title>
<g id="a_node4"><a xlink:href="class_l_f_s_t_k__button_class_a2b46d2136069e61fc8c8ee88519b2a8f.xhtml#a2b46d2136069e61fc8c8ee88519b2a8f" target="_top" xlink:title=" ">
<polygon fill="none" stroke="#000000" points="15.273,-485.5 15.273,-517.5 126.296,-517.5 126.296,-485.5 15.273,-485.5"/>
<text text-anchor="start" x="23.273" y="-504.5" font-family="Helvetica,sans-Serif" font-size="10.00" fill="#000000">LFSTK_buttonClass::</text>
<text text-anchor="middle" x="70.7845" y="-492.5" font-family="Helvetica,sans-Serif" font-size="10.00" fill="#000000">LFSTK_buttonClass</text>
</a>
</g>
</g>
<!-- Node3&#45;&gt;Node4 -->
<g id="edge3" class="edge">
<title>Node3&#45;&gt;Node4</title>
<path fill="none" stroke="#191970" d="M252.1203,-291.2427C238.8796,-331.7752 203.2472,-424.8937 141.569,-476.5 137.071,-480.2635 131.9671,-483.4764 126.6094,-486.2159"/>
<polygon fill="#191970" stroke="#191970" points="255.4588,-292.2934 255.1361,-281.7035 248.7844,-290.1833 255.4588,-292.2934"/>
</g>
<!-- Node5 -->
<g id="node5" class="node">
<title>Node5</title>
<g id="a_node5"><a xlink:href="class_l_f_s_t_k__font_dialog_class_ab7b6a4bca99713646ab6ac77dc34827c.xhtml#ab7b6a4bca99713646ab6ac77dc34827c" target="_top" xlink:title=" ">
<polygon fill="none" stroke="#000000" points="6.665,-434.5 6.665,-466.5 134.904,-466.5 134.904,-434.5 6.665,-434.5"/>
<text text-anchor="start" x="14.665" y="-453.5" font-family="Helvetica,sans-Serif" font-size="10.00" fill="#000000">LFSTK_fontDialogClass</text>
<text text-anchor="middle" x="70.7845" y="-441.5" font-family="Helvetica,sans-Serif" font-size="10.00" fill="#000000">::LFSTK_fontDialogClass</text>
</a>
</g>
</g>
<!-- Node3&#45;&gt;Node5 -->
<g id="edge4" class="edge">
<title>Node3&#45;&gt;Node5</title>
<path fill="none" stroke="#191970" d="M248.453,-290.6602C231.2726,-322.968 192.3416,-388.3808 141.569,-425.5 136.9397,-428.8844 131.8107,-431.8439 126.4905,-434.4247"/>
<polygon fill="#191970" stroke="#191970" points="251.5702,-292.2518 253.0756,-281.7644 245.3588,-289.024 251.5702,-292.2518"/>
</g>
<!-- Node6 -->
<g id="node6" class="node">
<title>Node6</title>
<g id="a_node6"><a xlink:href="class_l_f_s_t_k__image_class_aff24b6452cb0a5d821b81770aa8f58d5.xhtml#aff24b6452cb0a5d821b81770aa8f58d5" target="_top" xlink:title=" ">
<polygon fill="none" stroke="#000000" points="0,-383.5 0,-415.5 141.569,-415.5 141.569,-383.5 0,-383.5"/>
<text text-anchor="start" x="8" y="-402.5" font-family="Helvetica,sans-Serif" font-size="10.00" fill="#000000">LFSTK_imageClass::LFSTK</text>
<text text-anchor="middle" x="70.7845" y="-390.5" font-family="Helvetica,sans-Serif" font-size="10.00" fill="#000000">_imageClass</text>
</a>
</g>
</g>
<!-- Node3&#45;&gt;Node6 -->
<g id="edge5" class="edge">
<title>Node3&#45;&gt;Node6</title>
<path fill="none" stroke="#191970" d="M242.229,-289.2299C221.1925,-311.805 181.9868,-350.7264 141.569,-374.5 135.9521,-377.8038 129.8292,-380.7707 123.612,-383.4064"/>
<polygon fill="#191970" stroke="#191970" points="244.9456,-291.446 249.1258,-281.7106 239.787,-286.7143 244.9456,-291.446"/>
</g>
<!-- Node7 -->
<g id="node7" class="node">
<title>Node7</title>
<g id="a_node7"><a xlink:href="class_l_f_s_t_k__label_class_a6085feaa122a3d1060351c659889628c.xhtml#a6085feaa122a3d1060351c659889628c" target="_top" xlink:title=" ">
<polygon fill="none" stroke="#000000" points="3.055,-332.5 3.055,-364.5 138.514,-364.5 138.514,-332.5 3.055,-332.5"/>
<text text-anchor="start" x="11.055" y="-351.5" font-family="Helvetica,sans-Serif" font-size="10.00" fill="#000000">LFSTK_labelClass::LFSTK</text>
<text text-anchor="middle" x="70.7845" y="-339.5" font-family="Helvetica,sans-Serif" font-size="10.00" fill="#000000">_labelClass</text>
</a>
</g>
</g>
<!-- Node3&#45;&gt;Node7 -->
<g id="edge6" class="edge">
<title>Node3&#45;&gt;Node7</title>
<path fill="none" stroke="#191970" d="M227.4663,-285.9755C204.1317,-296.8073 171.0945,-311.7199 141.569,-323.5 133.9428,-326.5427 125.7833,-329.6019 117.8148,-332.4851"/>
<polygon fill="#191970" stroke="#191970" points="229.2524,-289.0045 236.8343,-281.6042 226.2923,-282.6611 229.2524,-289.0045"/>
</g>
<!-- Node8 -->
<g id="node8" class="node">
<title>Node8</title>
<g id="a_node8"><a xlink:href="class_l_f_s_t_k__line_edit_class_af610951625203a6d75bce118b2b94386.xhtml#af610951625203a6d75bce118b2b94386" target="_top" xlink:title=" ">
<polygon fill="none" stroke="#000000" points="12.779,-281.5 12.779,-313.5 128.79,-313.5 128.79,-281.5 12.779,-281.5"/>
<text text-anchor="start" x="20.779" y="-300.5" font-family="Helvetica,sans-Serif" font-size="10.00" fill="#000000">LFSTK_lineEditClass</text>
<text text-anchor="middle" x="70.7845" y="-288.5" font-family="Helvetica,sans-Serif" font-size="10.00" fill="#000000">::LFSTK_lineEditClass</text>
</a>
</g>
</g>
<!-- Node3&#45;&gt;Node8 -->
<g id="edge7" class="edge">
<title>Node3&#45;&gt;Node8</title>
<path fill="none" stroke="#191970" d="M175.6746,-282.9402C159.9287,-285.1259 143.7527,-287.3713 128.962,-289.4244"/>
<polygon fill="#191970" stroke="#191970" points="176.5173,-286.3569 185.941,-281.5151 175.5548,-279.4233 176.5173,-286.3569"/>
</g>
<!-- Node9 -->
<g id="node9" class="node">
<title>Node9</title>
<g id="a_node9"><a xlink:href="class_l_f_s_t_k__list_gadget_class_ae3518016f28ec3cd261ad927c5691826.xhtml#ae3518016f28ec3cd261ad927c5691826" target="_top" xlink:title=" ">
<polygon fill="none" stroke="#000000" points="6.6645,-230.5 6.6645,-262.5 134.9045,-262.5 134.9045,-230.5 6.6645,-230.5"/>
<text text-anchor="start" x="14.6645" y="-249.5" font-family="Helvetica,sans-Serif" font-size="10.00" fill="#000000">LFSTK_listGadgetClass</text>
<text text-anchor="middle" x="70.7845" y="-237.5" font-family="Helvetica,sans-Serif" font-size="10.00" fill="#000000">::LFSTK_listGadgetClass</text>
</a>
</g>
</g>
<!-- Node3&#45;&gt;Node9 -->
<g id="edge8" class="edge">
<title>Node3&#45;&gt;Node9</title>
<path fill="none" stroke="#191970" d="M172.8571,-260.1238C160.1499,-258.4277 147.2343,-256.7039 135.0562,-255.0784"/>
<polygon fill="#191970" stroke="#191970" points="172.6101,-263.6218 182.9852,-261.4756 173.5362,-256.6833 172.6101,-263.6218"/>
</g>
<!-- Node10 -->
<g id="node10" class="node">
<title>Node10</title>
<g id="a_node10"><a xlink:href="class_l_f_s_t_k__menu_item_class_a382a9775dff59f06606ef0b3f43382cc.xhtml#a382a9775dff59f06606ef0b3f43382cc" target="_top" xlink:title=" ">
<polygon fill="none" stroke="#000000" points="6.944,-179.5 6.944,-211.5 134.625,-211.5 134.625,-179.5 6.944,-179.5"/>
<text text-anchor="start" x="14.944" y="-198.5" font-family="Helvetica,sans-Serif" font-size="10.00" fill="#000000">LFSTK_menuItemClass</text>
<text text-anchor="middle" x="70.7845" y="-186.5" font-family="Helvetica,sans-Serif" font-size="10.00" fill="#000000">::LFSTK_menuItemClass</text>
</a>
</g>
</g>
<!-- Node3&#45;&gt;Node10 -->
<g id="edge9" class="edge">
<title>Node3&#45;&gt;Node10</title>
<path fill="none" stroke="#191970" d="M226.0722,-257.2149C202.7701,-246.9525 170.3831,-232.9646 141.569,-221.5 133.1757,-218.1605 124.1646,-214.7323 115.4785,-211.5059"/>
<polygon fill="#191970" stroke="#191970" points="224.9043,-260.5253 235.4657,-261.3668 227.7342,-254.1228 224.9043,-260.5253"/>
</g>
<!-- Node11 -->
<g id="node11" class="node">
<title>Node11</title>
<g id="a_node11"><a xlink:href="class_l_f_s_t_k__multi_line_edit_class_a3319d21c84b3437e69bb87dc77531322.xhtml#a3319d21c84b3437e69bb87dc77531322" target="_top" xlink:title=" ">
<polygon fill="none" stroke="#000000" points=".5565,-128.5 .5565,-160.5 141.0125,-160.5 141.0125,-128.5 .5565,-128.5"/>
<text text-anchor="start" x="8.5565" y="-147.5" font-family="Helvetica,sans-Serif" font-size="10.00" fill="#000000">LFSTK_multiLineEditClass</text>
<text text-anchor="middle" x="70.7845" y="-135.5" font-family="Helvetica,sans-Serif" font-size="10.00" fill="#000000">::LFSTK_multiLineEditClass</text>
</a>
</g>
</g>
<!-- Node3&#45;&gt;Node11 -->
<g id="edge10" class="edge">
<title>Node3&#45;&gt;Node11</title>
<path fill="none" stroke="#191970" d="M240.19,-254.558C213.111,-229.1811 162.6589,-182.9446 141.569,-170.5 135.3677,-166.8408 128.5637,-163.5537 121.7023,-160.6479"/>
<polygon fill="#191970" stroke="#191970" points="237.793,-257.1085 247.4751,-261.4107 242.5892,-252.0097 237.793,-257.1085"/>
</g>
<!-- Node12 -->
<g id="node12" class="node">
<title>Node12</title>
<g id="a_node12"><a xlink:href="class_l_f_s_t_k__scroll_bar_class_a3da4281c24ac345ba32a4636ce2af38b.xhtml#a3da4281c24ac345ba32a4636ce2af38b" target="_top" xlink:title=" ">
<polygon fill="none" stroke="#000000" points="9.7285,-77.5 9.7285,-109.5 131.8405,-109.5 131.8405,-77.5 9.7285,-77.5"/>
<text text-anchor="start" x="17.7285" y="-96.5" font-family="Helvetica,sans-Serif" font-size="10.00" fill="#000000">LFSTK_scrollBarClass</text>
<text text-anchor="middle" x="70.7845" y="-84.5" font-family="Helvetica,sans-Serif" font-size="10.00" fill="#000000">::LFSTK_scrollBarClass</text>
</a>
</g>
</g>
<!-- Node3&#45;&gt;Node12 -->
<g id="edge11" class="edge">
<title>Node3&#45;&gt;Node12</title>
<path fill="none" stroke="#191970" d="M236.6292,-255.0865C219.0461,-240.8077 194.406,-218.7969 177.569,-195.5 155.4406,-164.8815 169.5561,-143.8748 141.569,-118.5 137.8035,-115.0859 133.5424,-112.1319 129.0242,-109.5769"/>
<polygon fill="#191970" stroke="#191970" points="234.6232,-257.963 244.6289,-261.4467 238.9796,-252.4837 234.6232,-257.963"/>
</g>
<!-- Node13 -->
<g id="node13" class="node">
<title>Node13</title>
<g id="a_node13"><a xlink:href="class_l_f_s_t_k__toggle_button_class_a4cc0929a4d4113b9b40a3bdc54898ab7.xhtml#a4cc0929a4d4113b9b40a3bdc54898ab7" target="_top" xlink:title=" ">
<polygon fill="none" stroke="#000000" points="1.101,-26.5 1.101,-58.5 140.468,-58.5 140.468,-26.5 1.101,-26.5"/>
<text text-anchor="start" x="9.101" y="-45.5" font-family="Helvetica,sans-Serif" font-size="10.00" fill="#000000">LFSTK_toggleButtonClass</text>
<text text-anchor="middle" x="70.7845" y="-33.5" font-family="Helvetica,sans-Serif" font-size="10.00" fill="#000000">::LFSTK_toggleButtonClass</text>
</a>
</g>
</g>
<!-- Node3&#45;&gt;Node13 -->
<g id="edge12" class="edge">
<title>Node3&#45;&gt;Node13</title>
<path fill="none" stroke="#191970" d="M234.9849,-255.2768C216.8477,-241.3832 192.2803,-219.8088 177.569,-195.5 146.9718,-144.9415 181.969,-110.6299 141.569,-67.5 138.3615,-64.0758 134.6563,-61.1202 130.6569,-58.5692"/>
<polygon fill="#191970" stroke="#191970" points="233.1872,-258.3015 243.3008,-261.4585 237.3634,-252.6837 233.1872,-258.3015"/>
</g>
<!-- Node16 -->
<g id="node16" class="node">
<title>Node16</title>
<g id="a_node16"><a xlink:href="class_l_f_s_t_k__file_dialog_class_aacf1d4b61cbb5b40d06f591ea96f9ea7.xhtml#aacf1d4b61cbb5b40d06f591ea96f9ea7" target="_top" xlink:title=" ">
<polygon fill="none" stroke="#000000" points="195.086,-153.5 195.086,-185.5 321.095,-185.5 321.095,-153.5 195.086,-153.5"/>
<text text-anchor="start" x="203.086" y="-172.5" font-family="Helvetica,sans-Serif" font-size="10.00" fill="#000000">LFSTK_fileDialogClass</text>
<text text-anchor="middle" x="258.0905" y="-160.5" font-family="Helvetica,sans-Serif" font-size="10.00" fill="#000000">::LFSTK_showFileDialog</text>
</a>
</g>
</g>
<!-- Node15&#45;&gt;Node16 -->
<g id="edge15" class="edge">
<title>Node15&#45;&gt;Node16</title>
<path fill="none" stroke="#191970" d="M371.1426,-169.5C354.6981,-169.5 337.3822,-169.5 321.3798,-169.5"/>
<polygon fill="#191970" stroke="#191970" points="371.2494,-173.0001 381.2494,-169.5 371.2493,-166.0001 371.2494,-173.0001"/>
</g>
</g>
</svg>
        <g id="navigator" transform="translate(0 0)" fill="#404254">
                <rect fill="#f2f5e9" fill-opacity="0.5" stroke="#606060" stroke-width=".5" x="0" y="0" width="60" height="60"/>
                <use id="zoomplus" xlink:href="#zoomPlus" x="17" y="9" onmousedown="handleZoom(evt,'in')"/>
                <use id="zoomminus" xlink:href="#zoomMin" x="42" y="9" onmousedown="handleZoom(evt,'out')"/>
                <use id="reset" xlink:href="#resetDef" x="30" y="36" onmousedown="handleReset()"/>
                <g id="arrowUp" xlink:href="#dirArrow" transform="translate(30 24)" onmousedown="handlePan(0,-1)">
                  <use xlink:href="#rim" fill="#404040">
                        <set attributeName="fill" to="#808080" begin="arrowUp.mouseover" end="arrowUp.mouseout"/>
                  </use>
                  <path fill="none" stroke="white" stroke-width="1.5" d="M0,-3.0v7 M-2.5,-0.5L0,-3.0L2.5,-0.5"/>
                </g>
                <g id="arrowRight" xlink:href="#dirArrow" transform="rotate(90) translate(36 -43)" onmousedown="handlePan(1,0)">
                  <use xlink:href="#rim" fill="#404040">
                        <set attributeName="fill" to="#808080" begin="arrowRight.mouseover" end="arrowRight.mouseout"/>
                  </use>
                  <path fill="none" stroke="white" stroke-width="1.5" d="M0,-3.0v7 M-2.5,-0.5L0,-3.0L2.5,-0.5"/>
                </g>
                <g id="arrowDown" xlink:href="#dirArrow" transform="rotate(180) translate(-30 -48)" onmousedown="handlePan(0,1)">
                  <use xlink:href="#rim" fill="#404040">
                        <set attributeName="fill" to="#808080" begin="arrowDown.mouseover" end="arrowDown.mouseout"/>
                  </use>
                  <path fill="none" stroke="white" stroke-width="1.5" d="M0,-3.0v7 M-2.5,-0.5L0,-3.0L2.5,-0.5"/>
                </g>
                <g id="arrowLeft" xlink:href="#dirArrow" transform="rotate(270) translate(-36 17)" onmousedown="handlePan(-1,0)">
                  <use xlink:href="#rim" fill="#404040">
                        <set attributeName="fill" to="#808080" begin="arrowLeft.mouseover" end="arrowLeft.mouseout"/>
                  </use>
                  <path fill="none" stroke="white" stroke-width="1.5" d="M0,-3.0v7 M-2.5,-0.5L0,-3.0L2.5,-0.5"/>
                </g>
        </g>
        <svg viewBox="0 0 15 15" width="100%" height="30px" preserveAspectRatio="xMaxYMin meet">
         <g id="arrow_out" transform="scale(0.3 0.3)">
          <a xlink:href="class_l_f_s_t_k__window_class_ab03c62046f64b173b9d1138592dee8c1_ab03c62046f64b173b9d1138592dee8c1_icgraph_org.svg" target="_base">
           <rect id="button" ry="5" rx="5" y="6" x="6" height="38" width="38"
                fill="#f2f5e9" fill-opacity="0.5" stroke="#606060" stroke-width="1.0"/>
           <path id="arrow"
             d="M 11.500037,31.436501 C 11.940474,20.09759 22.043105,11.32322 32.158766,21.979434 L 37.068811,17.246167 C 37.068811,17.246167 37.088388,32 37.088388,32 L 22.160133,31.978069 C 22.160133,31.978069 26.997745,27.140456 26.997745,27.140456 C 18.528582,18.264221 13.291696,25.230495 11.500037,31.436501 z"
             style="fill:#404040;"/>
          </a>
         </g>
        </svg>
</svg>
