<?xml version="1.0" encoding="UTF-8" standalone="no"?>
<!DOCTYPE svg PUBLIC "-//W3C//DTD SVG 1.1//EN"
 "http://www.w3.org/Graphics/SVG/1.1/DTD/svg11.dtd">
<!-- Generated by graphviz version 2.40.1 (20161225.0304)
 -->
<!-- Title: LFSTK_buttonClass Pages: 1 -->
<svg width="130pt" height="143pt"
 viewBox="0.00 0.00 130.12 143.00" xmlns="http://www.w3.org/2000/svg" xmlns:xlink="http://www.w3.org/1999/xlink">
<g id="graph0" class="graph" transform="scale(1 1) rotate(0) translate(4 139)">
<title>LFSTK_buttonClass</title>
<!-- Node1 -->
<g id="node1" class="node">
<title>Node1</title>
<g id="a_node1"><a xlink:title="Basic button class for LFSToolKit.">
<polygon fill="#bfbfbf" stroke="#000000" points="8.329,-57.5 8.329,-77.5 113.794,-77.5 113.794,-57.5 8.329,-57.5"/>
<text text-anchor="middle" x="61.0615" y="-64.5" font-family="Helvetica,sans-Serif" font-size="10.00" fill="#000000">LFSTK_buttonClass</text>
</a>
</g>
</g>
<!-- Node3 -->
<g id="node3" class="node">
<title>Node3</title>
<g id="a_node3"><a xlink:href="class_l_f_s_t_k__menu_item_class.xhtml" target="_top" xlink:title="Menu item class for LFSToolKit.">
<polygon fill="none" stroke="#000000" points="0,-.5 0,-20.5 122.123,-20.5 122.123,-.5 0,-.5"/>
<text text-anchor="middle" x="61.0615" y="-7.5" font-family="Helvetica,sans-Serif" font-size="10.00" fill="#000000">LFSTK_menuItemClass</text>
</a>
</g>
</g>
<!-- Node1&#45;&gt;Node3 -->
<g id="edge2" class="edge">
<title>Node1&#45;&gt;Node3</title>
<path fill="none" stroke="#191970" d="M61.0615,-47.1771C61.0615,-38.1625 61.0615,-27.9556 61.0615,-20.6022"/>
<polygon fill="#191970" stroke="#191970" points="57.5616,-47.3095 61.0615,-57.3095 64.5616,-47.3096 57.5616,-47.3095"/>
</g>
<!-- Node2 -->
<g id="node2" class="node">
<title>Node2</title>
<g id="a_node2"><a xlink:href="class_l_f_s_t_k__gadget_class.xhtml" target="_top" xlink:title="Base class for LFSToolKit gadgets.">
<polygon fill="none" stroke="#000000" points="6.939,-114.5 6.939,-134.5 115.184,-134.5 115.184,-114.5 6.939,-114.5"/>
<text text-anchor="middle" x="61.0615" y="-121.5" font-family="Helvetica,sans-Serif" font-size="10.00" fill="#000000">LFSTK_gadgetClass</text>
</a>
</g>
</g>
<!-- Node2&#45;&gt;Node1 -->
<g id="edge1" class="edge">
<title>Node2&#45;&gt;Node1</title>
<path fill="none" stroke="#191970" d="M61.0615,-104.1771C61.0615,-95.1625 61.0615,-84.9556 61.0615,-77.6022"/>
<polygon fill="#191970" stroke="#191970" points="57.5616,-104.3095 61.0615,-114.3095 64.5616,-104.3096 57.5616,-104.3095"/>
</g>
</g>
</svg>
