<?xml version="1.0" encoding="UTF-8" standalone="no"?>
<!DOCTYPE svg PUBLIC "-//W3C//DTD SVG 1.1//EN"
 "http://www.w3.org/Graphics/SVG/1.1/DTD/svg11.dtd">
<!-- Generated by graphviz version 2.40.1 (20161225.0304)
 -->
<!-- Title: LFSTK_gadgetClass::LFSTK_getGlobalGeom Pages: 1 -->
<svg width="1027pt" height="628pt"
 viewBox="0.00 0.00 1027.47 628.00" xmlns="http://www.w3.org/2000/svg" xmlns:xlink="http://www.w3.org/1999/xlink">
<g id="graph0" class="graph" transform="scale(1 1) rotate(0) translate(4 624)">
<title>LFSTK_gadgetClass::LFSTK_getGlobalGeom</title>
<!-- Node1 -->
<g id="node1" class="node">
<title>Node1</title>
<g id="a_node1"><a xlink:title=" ">
<polygon fill="#bfbfbf" stroke="#000000" points="896.779,-277.5 896.779,-309.5 1019.47,-309.5 1019.47,-277.5 896.779,-277.5"/>
<text text-anchor="start" x="904.779" y="-296.5" font-family="Helvetica,sans-Serif" font-size="10.00" fill="#000000">LFSTK_gadgetClass::</text>
<text text-anchor="middle" x="958.1245" y="-284.5" font-family="Helvetica,sans-Serif" font-size="10.00" fill="#000000">LFSTK_getGlobalGeom</text>
</a>
</g>
</g>
<!-- Node2 -->
<g id="node2" class="node">
<title>Node2</title>
<g id="a_node2"><a xlink:href="class_l_f_s_t_k__window_class_af3af0d986d119a7362bdfc6dbfb3814f.xhtml#af3af0d986d119a7362bdfc6dbfb3814f" target="_top" xlink:title=" ">
<polygon fill="none" stroke="#000000" points="715.017,-405.5 715.017,-437.5 845.498,-437.5 845.498,-405.5 715.017,-405.5"/>
<text text-anchor="start" x="723.017" y="-424.5" font-family="Helvetica,sans-Serif" font-size="10.00" fill="#000000">LFSTK_windowClass::</text>
<text text-anchor="middle" x="780.2575" y="-412.5" font-family="Helvetica,sans-Serif" font-size="10.00" fill="#000000">LFSTK_findGadgetByPos</text>
</a>
</g>
</g>
<!-- Node1&#45;&gt;Node2 -->
<g id="edge1" class="edge">
<title>Node1&#45;&gt;Node2</title>
<path fill="none" stroke="#191970" d="M927.05,-315.8624C891.4647,-341.471 834.0417,-382.7948 802.6016,-405.4203"/>
<polygon fill="#191970" stroke="#191970" points="929.5252,-318.3933 935.5975,-309.7113 925.4364,-312.7116 929.5252,-318.3933"/>
</g>
<!-- Node10 -->
<g id="node10" class="node">
<title>Node10</title>
<g id="a_node10"><a xlink:href="class_l_f_s_t_k__lib_af01ab10da12946856ae6bc2a23414cf8.xhtml#af01ab10da12946856ae6bc2a23414cf8" target="_top" xlink:title=" ">
<polygon fill="none" stroke="#000000" points="699.736,-261.5 699.736,-281.5 860.779,-281.5 860.779,-261.5 699.736,-261.5"/>
<text text-anchor="middle" x="780.2575" y="-268.5" font-family="Helvetica,sans-Serif" font-size="10.00" fill="#000000">LFSTK_lib::LFSTK_gadgetEvent</text>
</a>
</g>
</g>
<!-- Node1&#45;&gt;Node10 -->
<g id="edge9" class="edge">
<title>Node1&#45;&gt;Node10</title>
<path fill="none" stroke="#191970" d="M886.3494,-284.6223C877.9954,-283.589 869.4315,-282.5297 860.9678,-281.4829"/>
<polygon fill="#191970" stroke="#191970" points="886.0604,-288.1131 896.4144,-285.8672 886.9197,-281.1661 886.0604,-288.1131"/>
</g>
<!-- Node3 -->
<g id="node3" class="node">
<title>Node3</title>
<g id="a_node3"><a xlink:href="class_l_f_s_t_k__window_class_a2cef240ff812e56a57ccb6a087edb8cd.xhtml#a2cef240ff812e56a57ccb6a087edb8cd" target="_top" xlink:title=" ">
<polygon fill="none" stroke="#000000" points="534.67,-510.5 534.67,-542.5 651.233,-542.5 651.233,-510.5 534.67,-510.5"/>
<text text-anchor="start" x="542.67" y="-529.5" font-family="Helvetica,sans-Serif" font-size="10.00" fill="#000000">LFSTK_windowClass::</text>
<text text-anchor="middle" x="592.9515" y="-517.5" font-family="Helvetica,sans-Serif" font-size="10.00" fill="#000000">LFSTK_handleDnD</text>
</a>
</g>
</g>
<!-- Node2&#45;&gt;Node3 -->
<g id="edge2" class="edge">
<title>Node2&#45;&gt;Node3</title>
<path fill="none" stroke="#191970" d="M751.5194,-443.9065C728.6563,-460.9955 695.3609,-484.2799 663.736,-500.5 656.7466,-504.0848 649.1452,-507.4174 641.6026,-510.4192"/>
<polygon fill="#191970" stroke="#191970" points="753.8791,-446.5102 759.7459,-437.688 749.658,-440.9261 753.8791,-446.5102"/>
</g>
<!-- Node4 -->
<g id="node4" class="node">
<title>Node4</title>
<g id="a_node4"><a xlink:href="class_l_f_s_t_k__window_class_a10d93c702923f9d1528b43fc5010b858.xhtml#a10d93c702923f9d1528b43fc5010b858" target="_top" xlink:title=" ">
<polygon fill="none" stroke="#000000" points="337.359,-510.5 337.359,-542.5 486.167,-542.5 486.167,-510.5 337.359,-510.5"/>
<text text-anchor="start" x="345.359" y="-529.5" font-family="Helvetica,sans-Serif" font-size="10.00" fill="#000000">LFSTK_windowClass::</text>
<text text-anchor="middle" x="411.763" y="-517.5" font-family="Helvetica,sans-Serif" font-size="10.00" fill="#000000">LFSTK_handleWindowEvents</text>
</a>
</g>
</g>
<!-- Node3&#45;&gt;Node4 -->
<g id="edge3" class="edge">
<title>Node3&#45;&gt;Node4</title>
<path fill="none" stroke="#191970" d="M524.326,-526.5C511.8736,-526.5 498.8318,-526.5 486.2212,-526.5"/>
<polygon fill="#191970" stroke="#191970" points="524.625,-530.0001 534.625,-526.5 524.6249,-523.0001 524.625,-530.0001"/>
</g>
<!-- Node5 -->
<g id="node5" class="node">
<title>Node5</title>
<g id="a_node5"><a xlink:href="class_l_f_s_t_k__font_dialog_class_a14c5f93b43c729a1bcb8bebe141415f2.xhtml#a14c5f93b43c729a1bcb8bebe141415f2" target="_top" xlink:title=" ">
<polygon fill="none" stroke="#000000" points="170.3435,-587.5 170.3435,-619.5 293.0245,-619.5 293.0245,-587.5 170.3435,-587.5"/>
<text text-anchor="start" x="178.3435" y="-606.5" font-family="Helvetica,sans-Serif" font-size="10.00" fill="#000000">LFSTK_fontDialogClass</text>
<text text-anchor="middle" x="231.684" y="-594.5" font-family="Helvetica,sans-Serif" font-size="10.00" fill="#000000">::LFSTK_showDialog</text>
</a>
</g>
</g>
<!-- Node4&#45;&gt;Node5 -->
<g id="edge4" class="edge">
<title>Node4&#45;&gt;Node5</title>
<path fill="none" stroke="#191970" d="M369.6659,-546.8552C349.2107,-556.512 324.1739,-567.9896 301.359,-577.5 293.2553,-580.878 284.5407,-584.2959 276.1114,-587.4942"/>
<polygon fill="#191970" stroke="#191970" points="371.1834,-550.0093 378.7174,-542.5601 368.1825,-543.6851 371.1834,-550.0093"/>
</g>
<!-- Node6 -->
<g id="node6" class="node">
<title>Node6</title>
<g id="a_node6"><a xlink:href="class_l_f_s_t_k__file_dialog_class_af77972b8a46616ba4c7bec555b2b0a14.xhtml#af77972b8a46616ba4c7bec555b2b0a14" target="_top" xlink:title=" ">
<polygon fill="none" stroke="#000000" points="168.6795,-536.5 168.6795,-568.5 294.6885,-568.5 294.6885,-536.5 168.6795,-536.5"/>
<text text-anchor="start" x="176.6795" y="-555.5" font-family="Helvetica,sans-Serif" font-size="10.00" fill="#000000">LFSTK_fileDialogClass</text>
<text text-anchor="middle" x="231.684" y="-543.5" font-family="Helvetica,sans-Serif" font-size="10.00" fill="#000000">::LFSTK_showFileDialog</text>
</a>
</g>
</g>
<!-- Node4&#45;&gt;Node6 -->
<g id="edge5" class="edge">
<title>Node4&#45;&gt;Node6</title>
<path fill="none" stroke="#191970" d="M327.2173,-538.7068C316.274,-540.2868 305.2221,-541.8825 294.7114,-543.4"/>
<polygon fill="#191970" stroke="#191970" points="327.8209,-542.156 337.2181,-537.2629 326.8205,-535.2279 327.8209,-542.156"/>
</g>
<!-- Node8 -->
<g id="node8" class="node">
<title>Node8</title>
<g id="a_node8"><a xlink:href="class_l_f_s_t_k__menu_class_ab847d4847ed01a7ff90c717a2cdb6dc5.xhtml#ab847d4847ed01a7ff90c717a2cdb6dc5" target="_top" xlink:title=" ">
<polygon fill="none" stroke="#000000" points="162.009,-485.5 162.009,-517.5 301.359,-517.5 301.359,-485.5 162.009,-485.5"/>
<text text-anchor="start" x="170.009" y="-504.5" font-family="Helvetica,sans-Serif" font-size="10.00" fill="#000000">LFSTK_menuClass::LFSTK</text>
<text text-anchor="middle" x="231.684" y="-492.5" font-family="Helvetica,sans-Serif" font-size="10.00" fill="#000000">_showMenu</text>
</a>
</g>
</g>
<!-- Node4&#45;&gt;Node8 -->
<g id="edge7" class="edge">
<title>Node4&#45;&gt;Node8</title>
<path fill="none" stroke="#191970" d="M327.1898,-514.7589C318.6051,-513.5671 309.9539,-512.366 301.5499,-511.1993"/>
<polygon fill="#191970" stroke="#191970" points="326.8318,-518.2427 337.2181,-516.1511 327.7944,-511.3092 326.8318,-518.2427"/>
</g>
<!-- Node9 -->
<g id="node9" class="node">
<title>Node9</title>
<g id="a_node9"><a xlink:href="class_l_f_s_t_k__menu_item_class_ad2460aa76c71cb7ea548041e1ff858cf.xhtml#ad2460aa76c71cb7ea548041e1ff858cf" target="_top" xlink:title=" ">
<polygon fill="none" stroke="#000000" points="170.6225,-434.5 170.6225,-466.5 292.7455,-466.5 292.7455,-434.5 170.6225,-434.5"/>
<text text-anchor="start" x="178.6225" y="-453.5" font-family="Helvetica,sans-Serif" font-size="10.00" fill="#000000">LFSTK_menuItemClass</text>
<text text-anchor="middle" x="231.684" y="-441.5" font-family="Helvetica,sans-Serif" font-size="10.00" fill="#000000">::mouseEnter</text>
</a>
</g>
</g>
<!-- Node4&#45;&gt;Node9 -->
<g id="edge8" class="edge">
<title>Node4&#45;&gt;Node9</title>
<path fill="none" stroke="#191970" d="M369.7187,-506.017C349.2755,-496.3311 324.2336,-484.8658 301.359,-475.5 293.9852,-472.4809 286.0964,-469.4578 278.3744,-466.6097"/>
<polygon fill="#191970" stroke="#191970" points="368.2306,-509.185 378.7636,-510.3282 371.2425,-502.866 368.2306,-509.185"/>
</g>
<!-- Node7 -->
<g id="node7" class="node">
<title>Node7</title>
<g id="a_node7"><a xlink:href="class_l_f_s_t_k__file_dialog_class_aacf1d4b61cbb5b40d06f591ea96f9ea7.xhtml#aacf1d4b61cbb5b40d06f591ea96f9ea7" target="_top" xlink:title=" ">
<polygon fill="none" stroke="#000000" points="0,-536.5 0,-568.5 126.009,-568.5 126.009,-536.5 0,-536.5"/>
<text text-anchor="start" x="8" y="-555.5" font-family="Helvetica,sans-Serif" font-size="10.00" fill="#000000">LFSTK_fileDialogClass</text>
<text text-anchor="middle" x="63.0045" y="-543.5" font-family="Helvetica,sans-Serif" font-size="10.00" fill="#000000">::LFSTK_showFileDialog</text>
</a>
</g>
</g>
<!-- Node6&#45;&gt;Node7 -->
<g id="edge6" class="edge">
<title>Node6&#45;&gt;Node7</title>
<path fill="none" stroke="#191970" d="M158.2227,-552.5C147.5137,-552.5 136.5668,-552.5 126.0881,-552.5"/>
<polygon fill="#191970" stroke="#191970" points="158.3941,-556.0001 168.3941,-552.5 158.394,-549.0001 158.3941,-556.0001"/>
</g>
<!-- Node11 -->
<g id="node11" class="node">
<title>Node11</title>
<g id="a_node11"><a xlink:href="class_l_f_s_t_k__button_class_a2b46d2136069e61fc8c8ee88519b2a8f.xhtml#a2b46d2136069e61fc8c8ee88519b2a8f" target="_top" xlink:title=" ">
<polygon fill="none" stroke="#000000" points="537.44,-459.5 537.44,-491.5 648.463,-491.5 648.463,-459.5 537.44,-459.5"/>
<text text-anchor="start" x="545.44" y="-478.5" font-family="Helvetica,sans-Serif" font-size="10.00" fill="#000000">LFSTK_buttonClass::</text>
<text text-anchor="middle" x="592.9515" y="-466.5" font-family="Helvetica,sans-Serif" font-size="10.00" fill="#000000">LFSTK_buttonClass</text>
</a>
</g>
</g>
<!-- Node10&#45;&gt;Node11 -->
<g id="edge10" class="edge">
<title>Node10&#45;&gt;Node11</title>
<path fill="none" stroke="#191970" d="M768.0116,-290.3743C738.4701,-335.8838 665.5792,-448.0349 663.736,-449.5 658.9192,-453.3287 653.4851,-456.6279 647.8228,-459.4631"/>
<polygon fill="#191970" stroke="#191970" points="771.1081,-292.0321 773.6163,-281.7384 765.2363,-288.2213 771.1081,-292.0321"/>
</g>
<!-- Node12 -->
<g id="node12" class="node">
<title>Node12</title>
<g id="a_node12"><a xlink:href="class_l_f_s_t_k__font_dialog_class_ab7b6a4bca99713646ab6ac77dc34827c.xhtml#ab7b6a4bca99713646ab6ac77dc34827c" target="_top" xlink:title=" ">
<polygon fill="none" stroke="#000000" points="528.832,-408.5 528.832,-440.5 657.071,-440.5 657.071,-408.5 528.832,-408.5"/>
<text text-anchor="start" x="536.832" y="-427.5" font-family="Helvetica,sans-Serif" font-size="10.00" fill="#000000">LFSTK_fontDialogClass</text>
<text text-anchor="middle" x="592.9515" y="-415.5" font-family="Helvetica,sans-Serif" font-size="10.00" fill="#000000">::LFSTK_fontDialogClass</text>
</a>
</g>
</g>
<!-- Node10&#45;&gt;Node12 -->
<g id="edge11" class="edge">
<title>Node10&#45;&gt;Node12</title>
<path fill="none" stroke="#191970" d="M767.8556,-289.8345C748.5621,-317.0791 708.8541,-368.2774 663.736,-398.5 658.1887,-402.2159 652.0424,-405.4831 645.7559,-408.3329"/>
<polygon fill="#191970" stroke="#191970" points="770.7608,-291.7872 773.5943,-281.5782 765.0129,-287.7919 770.7608,-291.7872"/>
</g>
<!-- Node13 -->
<g id="node13" class="node">
<title>Node13</title>
<g id="a_node13"><a xlink:href="class_l_f_s_t_k__image_class_aff24b6452cb0a5d821b81770aa8f58d5.xhtml#aff24b6452cb0a5d821b81770aa8f58d5" target="_top" xlink:title=" ">
<polygon fill="none" stroke="#000000" points="522.167,-357.5 522.167,-389.5 663.736,-389.5 663.736,-357.5 522.167,-357.5"/>
<text text-anchor="start" x="530.167" y="-376.5" font-family="Helvetica,sans-Serif" font-size="10.00" fill="#000000">LFSTK_imageClass::LFSTK</text>
<text text-anchor="middle" x="592.9515" y="-364.5" font-family="Helvetica,sans-Serif" font-size="10.00" fill="#000000">_imageClass</text>
</a>
</g>
</g>
<!-- Node10&#45;&gt;Node13 -->
<g id="edge12" class="edge">
<title>Node10&#45;&gt;Node13</title>
<path fill="none" stroke="#191970" d="M758.6219,-287.7559C735.8746,-304.3231 698.6122,-330.0037 663.736,-347.5 656.5979,-351.081 648.8425,-354.4316 641.1694,-357.4583"/>
<polygon fill="#191970" stroke="#191970" points="760.896,-290.4279 766.8737,-281.6805 756.7457,-284.7909 760.896,-290.4279"/>
</g>
<!-- Node14 -->
<g id="node14" class="node">
<title>Node14</title>
<g id="a_node14"><a xlink:href="class_l_f_s_t_k__label_class_a6085feaa122a3d1060351c659889628c.xhtml#a6085feaa122a3d1060351c659889628c" target="_top" xlink:title=" ">
<polygon fill="none" stroke="#000000" points="525.222,-306.5 525.222,-338.5 660.681,-338.5 660.681,-306.5 525.222,-306.5"/>
<text text-anchor="start" x="533.222" y="-325.5" font-family="Helvetica,sans-Serif" font-size="10.00" fill="#000000">LFSTK_labelClass::LFSTK</text>
<text text-anchor="middle" x="592.9515" y="-313.5" font-family="Helvetica,sans-Serif" font-size="10.00" fill="#000000">_labelClass</text>
</a>
</g>
</g>
<!-- Node10&#45;&gt;Node14 -->
<g id="edge13" class="edge">
<title>Node10&#45;&gt;Node14</title>
<path fill="none" stroke="#191970" d="M733.4169,-284.2538C708.7557,-290.9686 678.2647,-299.2708 651.9994,-306.4223"/>
<polygon fill="#191970" stroke="#191970" points="734.5227,-287.5803 743.2519,-281.576 732.6836,-280.8261 734.5227,-287.5803"/>
</g>
<!-- Node15 -->
<g id="node15" class="node">
<title>Node15</title>
<g id="a_node15"><a xlink:href="class_l_f_s_t_k__line_edit_class_af610951625203a6d75bce118b2b94386.xhtml#af610951625203a6d75bce118b2b94386" target="_top" xlink:title=" ">
<polygon fill="none" stroke="#000000" points="534.946,-255.5 534.946,-287.5 650.957,-287.5 650.957,-255.5 534.946,-255.5"/>
<text text-anchor="start" x="542.946" y="-274.5" font-family="Helvetica,sans-Serif" font-size="10.00" fill="#000000">LFSTK_lineEditClass</text>
<text text-anchor="middle" x="592.9515" y="-262.5" font-family="Helvetica,sans-Serif" font-size="10.00" fill="#000000">::LFSTK_lineEditClass</text>
</a>
</g>
</g>
<!-- Node10&#45;&gt;Node15 -->
<g id="edge14" class="edge">
<title>Node10&#45;&gt;Node15</title>
<path fill="none" stroke="#191970" d="M689.716,-271.5C676.5698,-271.5 663.3417,-271.5 651.0695,-271.5"/>
<polygon fill="#191970" stroke="#191970" points="689.7359,-275.0001 699.7359,-271.5 689.7358,-268.0001 689.7359,-275.0001"/>
</g>
<!-- Node16 -->
<g id="node16" class="node">
<title>Node16</title>
<g id="a_node16"><a xlink:href="class_l_f_s_t_k__list_gadget_class_ae3518016f28ec3cd261ad927c5691826.xhtml#ae3518016f28ec3cd261ad927c5691826" target="_top" xlink:title=" ">
<polygon fill="none" stroke="#000000" points="528.8315,-204.5 528.8315,-236.5 657.0715,-236.5 657.0715,-204.5 528.8315,-204.5"/>
<text text-anchor="start" x="536.8315" y="-223.5" font-family="Helvetica,sans-Serif" font-size="10.00" fill="#000000">LFSTK_listGadgetClass</text>
<text text-anchor="middle" x="592.9515" y="-211.5" font-family="Helvetica,sans-Serif" font-size="10.00" fill="#000000">::LFSTK_listGadgetClass</text>
</a>
</g>
</g>
<!-- Node10&#45;&gt;Node16 -->
<g id="edge15" class="edge">
<title>Node10&#45;&gt;Node16</title>
<path fill="none" stroke="#191970" d="M733.4169,-258.7462C708.7557,-252.0314 678.2647,-243.7292 651.9994,-236.5777"/>
<polygon fill="#191970" stroke="#191970" points="732.6836,-262.1739 743.2519,-261.424 734.5227,-255.4197 732.6836,-262.1739"/>
</g>
<!-- Node17 -->
<g id="node17" class="node">
<title>Node17</title>
<g id="a_node17"><a xlink:href="class_l_f_s_t_k__menu_item_class_a382a9775dff59f06606ef0b3f43382cc.xhtml#a382a9775dff59f06606ef0b3f43382cc" target="_top" xlink:title=" ">
<polygon fill="none" stroke="#000000" points="529.111,-153.5 529.111,-185.5 656.792,-185.5 656.792,-153.5 529.111,-153.5"/>
<text text-anchor="start" x="537.111" y="-172.5" font-family="Helvetica,sans-Serif" font-size="10.00" fill="#000000">LFSTK_menuItemClass</text>
<text text-anchor="middle" x="592.9515" y="-160.5" font-family="Helvetica,sans-Serif" font-size="10.00" fill="#000000">::LFSTK_menuItemClass</text>
</a>
</g>
</g>
<!-- Node10&#45;&gt;Node17 -->
<g id="edge16" class="edge">
<title>Node10&#45;&gt;Node17</title>
<path fill="none" stroke="#191970" d="M759.0719,-255.1937C736.4249,-238.3274 698.9984,-212.0466 663.736,-194.5 657.3185,-191.3066 650.3913,-188.3315 643.4695,-185.6282"/>
<polygon fill="#191970" stroke="#191970" points="757.1767,-258.148 767.2697,-261.3703 761.3891,-252.5573 757.1767,-258.148"/>
</g>
<!-- Node18 -->
<g id="node18" class="node">
<title>Node18</title>
<g id="a_node18"><a xlink:href="class_l_f_s_t_k__multi_line_edit_class_a3319d21c84b3437e69bb87dc77531322.xhtml#a3319d21c84b3437e69bb87dc77531322" target="_top" xlink:title=" ">
<polygon fill="none" stroke="#000000" points="522.7235,-102.5 522.7235,-134.5 663.1795,-134.5 663.1795,-102.5 522.7235,-102.5"/>
<text text-anchor="start" x="530.7235" y="-121.5" font-family="Helvetica,sans-Serif" font-size="10.00" fill="#000000">LFSTK_multiLineEditClass</text>
<text text-anchor="middle" x="592.9515" y="-109.5" font-family="Helvetica,sans-Serif" font-size="10.00" fill="#000000">::LFSTK_multiLineEditClass</text>
</a>
</g>
</g>
<!-- Node10&#45;&gt;Node18 -->
<g id="edge17" class="edge">
<title>Node10&#45;&gt;Node18</title>
<path fill="none" stroke="#191970" d="M767.9378,-252.9439C748.7503,-225.3852 709.1774,-173.6569 663.736,-143.5 658.6322,-140.1129 653.0165,-137.1268 647.249,-134.5087"/>
<polygon fill="#191970" stroke="#191970" points="765.1125,-255.013 773.6424,-261.2973 770.8932,-251.0654 765.1125,-255.013"/>
</g>
<!-- Node19 -->
<g id="node19" class="node">
<title>Node19</title>
<g id="a_node19"><a xlink:href="class_l_f_s_t_k__scroll_bar_class_a3da4281c24ac345ba32a4636ce2af38b.xhtml#a3da4281c24ac345ba32a4636ce2af38b" target="_top" xlink:title=" ">
<polygon fill="none" stroke="#000000" points="531.8955,-51.5 531.8955,-83.5 654.0075,-83.5 654.0075,-51.5 531.8955,-51.5"/>
<text text-anchor="start" x="539.8955" y="-70.5" font-family="Helvetica,sans-Serif" font-size="10.00" fill="#000000">LFSTK_scrollBarClass</text>
<text text-anchor="middle" x="592.9515" y="-58.5" font-family="Helvetica,sans-Serif" font-size="10.00" fill="#000000">::LFSTK_scrollBarClass</text>
</a>
</g>
</g>
<!-- Node10&#45;&gt;Node19 -->
<g id="edge18" class="edge">
<title>Node10&#45;&gt;Node19</title>
<path fill="none" stroke="#191970" d="M772.5524,-251.81C757.2725,-215.234 719.7013,-136.5324 663.736,-92.5 659.4341,-89.1153 654.6384,-86.1683 649.6269,-83.6065"/>
<polygon fill="#191970" stroke="#191970" points="769.4158,-253.3886 776.422,-261.3363 775.9012,-250.7542 769.4158,-253.3886"/>
</g>
<!-- Node20 -->
<g id="node20" class="node">
<title>Node20</title>
<g id="a_node20"><a xlink:href="class_l_f_s_t_k__toggle_button_class_a4cc0929a4d4113b9b40a3bdc54898ab7.xhtml#a4cc0929a4d4113b9b40a3bdc54898ab7" target="_top" xlink:title=" ">
<polygon fill="none" stroke="#000000" points="523.268,-.5 523.268,-32.5 662.635,-32.5 662.635,-.5 523.268,-.5"/>
<text text-anchor="start" x="531.268" y="-19.5" font-family="Helvetica,sans-Serif" font-size="10.00" fill="#000000">LFSTK_toggleButtonClass</text>
<text text-anchor="middle" x="592.9515" y="-7.5" font-family="Helvetica,sans-Serif" font-size="10.00" fill="#000000">::LFSTK_toggleButtonClass</text>
</a>
</g>
</g>
<!-- Node10&#45;&gt;Node20 -->
<g id="edge19" class="edge">
<title>Node10&#45;&gt;Node20</title>
<path fill="none" stroke="#191970" d="M775.4757,-251.1966C763.9915,-206.7908 730.7063,-100.3193 663.736,-41.5 659.8191,-38.0598 655.3981,-35.0843 650.7261,-32.5123"/>
<polygon fill="#191970" stroke="#191970" points="772.124,-252.2218 777.9329,-261.0822 778.9172,-250.5332 772.124,-252.2218"/>
</g>
</g>
</svg>
