<?xml version="1.0" encoding="UTF-8" standalone="no"?>
<!DOCTYPE svg PUBLIC "-//W3C//DTD SVG 1.1//EN"
 "http://www.w3.org/Graphics/SVG/1.1/DTD/svg11.dtd">
<!-- Generated by graphviz version 2.40.1 (20161225.0304)
 -->
<!-- Title: LFSTK_listGadgetClass::select Pages: 1 -->
<svg width="1544pt" height="324pt"
 viewBox="0.00 0.00 1543.83 324.00" xmlns="http://www.w3.org/2000/svg" xmlns:xlink="http://www.w3.org/1999/xlink">
<g id="graph0" class="graph" transform="scale(1 1) rotate(0) translate(4 320)">
<title>LFSTK_listGadgetClass::select</title>
<!-- Node1 -->
<g id="node1" class="node">
<title>Node1</title>
<g id="a_node1"><a xlink:title=" ">
<polygon fill="#bfbfbf" stroke="#000000" points="0,-107.5 0,-139.5 122.682,-139.5 122.682,-107.5 0,-107.5"/>
<text text-anchor="start" x="8" y="-126.5" font-family="Helvetica,sans-Serif" font-size="10.00" fill="#000000">LFSTK_listGadgetClass</text>
<text text-anchor="middle" x="61.341" y="-114.5" font-family="Helvetica,sans-Serif" font-size="10.00" fill="#000000">::select</text>
</a>
</g>
</g>
<!-- Node2 -->
<g id="node2" class="node">
<title>Node2</title>
<g id="a_node2"><a xlink:href="class_l_f_s_t_k__gadget_class_aa5b5f301fe9b0a4d7679f786da7462ba.xhtml#aa5b5f301fe9b0a4d7679f786da7462ba" target="_top" xlink:title=" ">
<polygon fill="none" stroke="#000000" points="949.85,-162.5 949.85,-194.5 1063.653,-194.5 1063.653,-162.5 949.85,-162.5"/>
<text text-anchor="start" x="957.85" y="-181.5" font-family="Helvetica,sans-Serif" font-size="10.00" fill="#000000">LFSTK_gadgetClass::</text>
<text text-anchor="middle" x="1006.7515" y="-169.5" font-family="Helvetica,sans-Serif" font-size="10.00" fill="#000000">LFSTK_clearWindow</text>
</a>
</g>
</g>
<!-- Node1&#45;&gt;Node2 -->
<g id="edge1" class="edge">
<title>Node1&#45;&gt;Node2</title>
<path fill="none" stroke="#191970" d="M76.0572,-139.5937C93.7157,-157.7054 125.1619,-186.3159 158.682,-199.5 259.1379,-239.0113 292.7061,-220.5 400.653,-220.5 400.653,-220.5 400.653,-220.5 704.3855,-220.5 797.9042,-220.5 821.584,-215.7555 913.85,-200.5 922.195,-199.1202 930.9047,-197.4163 939.5019,-195.5723"/>
<polygon fill="#191970" stroke="#191970" points="940.5079,-198.9344 949.5142,-193.3544 938.9938,-192.1001 940.5079,-198.9344"/>
</g>
<!-- Node11 -->
<g id="node11" class="node">
<title>Node11</title>
<g id="a_node11"><a xlink:href="class_l_f_s_t_k__lib_a46aa104681d600dd4eb24549e813b5cc.xhtml#a46aa104681d600dd4eb24549e813b5cc" target="_top" xlink:title=" ">
<polygon fill="none" stroke="#000000" points="158.682,-158.5 158.682,-190.5 306.376,-190.5 306.376,-158.5 158.682,-158.5"/>
<text text-anchor="start" x="166.682" y="-177.5" font-family="Helvetica,sans-Serif" font-size="10.00" fill="#000000">LFSTK_lib::LFSTK_getGlobal</text>
<text text-anchor="middle" x="232.529" y="-165.5" font-family="Helvetica,sans-Serif" font-size="10.00" fill="#000000">String</text>
</a>
</g>
</g>
<!-- Node1&#45;&gt;Node11 -->
<g id="edge11" class="edge">
<title>Node1&#45;&gt;Node11</title>
<path fill="none" stroke="#191970" d="M115.506,-139.6367C132.5317,-144.709 151.484,-150.3552 169.0928,-155.6012"/>
<polygon fill="#191970" stroke="#191970" points="168.1333,-158.9673 178.7164,-158.4683 170.132,-152.2587 168.1333,-158.9673"/>
</g>
<!-- Node12 -->
<g id="node12" class="node">
<title>Node12</title>
<g id="a_node12"><a xlink:href="class_l_f_s_t_k__scroll_bar_class_a690ed010fb6760b5ee112df392076df5.xhtml#a690ed010fb6760b5ee112df392076df5" target="_top" xlink:title=" ">
<polygon fill="none" stroke="#000000" points="174.252,-107.5 174.252,-139.5 290.806,-139.5 290.806,-107.5 174.252,-107.5"/>
<text text-anchor="start" x="182.252" y="-126.5" font-family="Helvetica,sans-Serif" font-size="10.00" fill="#000000">LFSTK_scrollBarClass</text>
<text text-anchor="middle" x="232.529" y="-114.5" font-family="Helvetica,sans-Serif" font-size="10.00" fill="#000000">::LFSTK_scrollByLine</text>
</a>
</g>
</g>
<!-- Node1&#45;&gt;Node12 -->
<g id="edge12" class="edge">
<title>Node1&#45;&gt;Node12</title>
<path fill="none" stroke="#191970" d="M123.1438,-123.5C136.423,-123.5 150.5322,-123.5 164.0478,-123.5"/>
<polygon fill="#191970" stroke="#191970" points="164.2441,-127.0001 174.244,-123.5 164.244,-120.0001 164.2441,-127.0001"/>
</g>
<!-- Node20 -->
<g id="node20" class="node">
<title>Node20</title>
<g id="a_node20"><a xlink:href="class_l_f_s_t_k__gadget_class_a70989f54f49667a00347f3b0891944ab.xhtml#a70989f54f49667a00347f3b0891944ab" target="_top" xlink:title=" ">
<polygon fill="none" stroke="#000000" points="171.468,-56.5 171.468,-88.5 293.59,-88.5 293.59,-56.5 171.468,-56.5"/>
<text text-anchor="start" x="179.468" y="-75.5" font-family="Helvetica,sans-Serif" font-size="10.00" fill="#000000">LFSTK_gadgetClass::</text>
<text text-anchor="middle" x="232.529" y="-63.5" font-family="Helvetica,sans-Serif" font-size="10.00" fill="#000000">LFSTK_setColourName</text>
</a>
</g>
</g>
<!-- Node1&#45;&gt;Node20 -->
<g id="edge24" class="edge">
<title>Node1&#45;&gt;Node20</title>
<path fill="none" stroke="#191970" d="M115.506,-107.3633C132.5317,-102.291 151.484,-96.6448 169.0928,-91.3988"/>
<polygon fill="#191970" stroke="#191970" points="170.132,-94.7413 178.7164,-88.5317 168.1333,-88.0327 170.132,-94.7413"/>
</g>
<!-- Node21 -->
<g id="node21" class="node">
<title>Node21</title>
<g id="a_node21"><a xlink:href="class_l_f_s_t_k__list_gadget_class_ac04d525a93d7494bdc8c647b8e2a3f9f.xhtml#ac04d525a93d7494bdc8c647b8e2a3f9f" target="_top" xlink:title=" ">
<polygon fill="none" stroke="#000000" points="171.188,-5.5 171.188,-37.5 293.87,-37.5 293.87,-5.5 171.188,-5.5"/>
<text text-anchor="start" x="179.188" y="-24.5" font-family="Helvetica,sans-Serif" font-size="10.00" fill="#000000">LFSTK_listGadgetClass</text>
<text text-anchor="middle" x="232.529" y="-12.5" font-family="Helvetica,sans-Serif" font-size="10.00" fill="#000000">::setCurrentItem</text>
</a>
</g>
</g>
<!-- Node1&#45;&gt;Node21 -->
<g id="edge25" class="edge">
<title>Node1&#45;&gt;Node21</title>
<path fill="none" stroke="#191970" d="M77.9902,-107.3521C96.4171,-90.2296 127.6334,-63.3749 158.682,-46.5 161.9041,-44.7488 165.2714,-43.0882 168.7169,-41.5187"/>
<polygon fill="#191970" stroke="#191970" points="170.1449,-44.7149 177.9746,-37.5773 167.4027,-38.2743 170.1449,-44.7149"/>
</g>
<!-- Node3 -->
<g id="node3" class="node">
<title>Node3</title>
<g id="a_node3"><a xlink:href="class_l_f_s_t_k__gadget_class_a66b92f213e5a7e75da3f707b511342ea.xhtml#a66b92f213e5a7e75da3f707b511342ea" target="_top" xlink:title=" ">
<polygon fill="none" stroke="#000000" points="1099.653,-168.5 1099.653,-200.5 1213.456,-200.5 1213.456,-168.5 1099.653,-168.5"/>
<text text-anchor="start" x="1107.653" y="-187.5" font-family="Helvetica,sans-Serif" font-size="10.00" fill="#000000">LFSTK_gadgetClass::</text>
<text text-anchor="middle" x="1156.5545" y="-175.5" font-family="Helvetica,sans-Serif" font-size="10.00" fill="#000000">drawGagetDetails</text>
</a>
</g>
</g>
<!-- Node2&#45;&gt;Node3 -->
<g id="edge2" class="edge">
<title>Node2&#45;&gt;Node3</title>
<path fill="none" stroke="#191970" d="M1063.8129,-180.7855C1072.2519,-181.1235 1081.0116,-181.4743 1089.6289,-181.8195"/>
<polygon fill="#191970" stroke="#191970" points="1089.5196,-185.3178 1099.6517,-182.2209 1089.7998,-178.3234 1089.5196,-185.3178"/>
</g>
<!-- Node4 -->
<g id="node4" class="node">
<title>Node4</title>
<g id="a_node4"><a xlink:href="class_l_f_s_t_k__gadget_class_a37d96aab3c59cb97fca1720441e3fc8e.xhtml#a37d96aab3c59cb97fca1720441e3fc8e" target="_top" xlink:title=" ">
<polygon fill="none" stroke="#000000" points="1249.456,-69.5 1249.456,-101.5 1363.259,-101.5 1363.259,-69.5 1249.456,-69.5"/>
<text text-anchor="start" x="1257.456" y="-88.5" font-family="Helvetica,sans-Serif" font-size="10.00" fill="#000000">LFSTK_gadgetClass::</text>
<text text-anchor="middle" x="1306.3575" y="-76.5" font-family="Helvetica,sans-Serif" font-size="10.00" fill="#000000">clearBox</text>
</a>
</g>
</g>
<!-- Node3&#45;&gt;Node4 -->
<g id="edge3" class="edge">
<title>Node3&#45;&gt;Node4</title>
<path fill="none" stroke="#191970" d="M1174.0347,-168.2813C1191.9852,-152.198 1221.2145,-127.5557 1249.456,-110.5 1251.9239,-109.0096 1254.4964,-107.558 1257.1249,-106.1533"/>
<polygon fill="#191970" stroke="#191970" points="1258.856,-109.2002 1266.2066,-101.5699 1255.7021,-102.9509 1258.856,-109.2002"/>
</g>
<!-- Node5 -->
<g id="node5" class="node">
<title>Node5</title>
<g id="a_node5"><a xlink:href="class_l_f_s_t_k__gadget_class_ab76db165a19af248b5e94e95492dc879.xhtml#ab76db165a19af248b5e94e95492dc879" target="_top" xlink:title=" ">
<polygon fill="none" stroke="#000000" points="1410.6455,-168.5 1410.6455,-200.5 1524.4485,-200.5 1524.4485,-168.5 1410.6455,-168.5"/>
<text text-anchor="start" x="1418.6455" y="-187.5" font-family="Helvetica,sans-Serif" font-size="10.00" fill="#000000">LFSTK_gadgetClass::</text>
<text text-anchor="middle" x="1467.547" y="-175.5" font-family="Helvetica,sans-Serif" font-size="10.00" fill="#000000">drawBevel</text>
</a>
</g>
</g>
<!-- Node3&#45;&gt;Node5 -->
<g id="edge4" class="edge">
<title>Node3&#45;&gt;Node5</title>
<path fill="none" stroke="#191970" d="M1200.3731,-200.5803C1215.682,-205.4247 1233.1241,-210.0923 1249.456,-212.5 1299.4943,-219.8767 1313.1143,-219.1145 1363.259,-212.5 1378.1334,-210.5379 1393.9,-207.0661 1408.5473,-203.2203"/>
<polygon fill="#191970" stroke="#191970" points="1409.7564,-206.5185 1418.4841,-200.512 1407.9157,-199.7648 1409.7564,-206.5185"/>
</g>
<!-- Node6 -->
<g id="node6" class="node">
<title>Node6</title>
<g id="a_node6"><a xlink:href="class_l_f_s_t_k__gadget_class_af5386ffc4699273f6c53a920fc8b2f1d.xhtml#af5386ffc4699273f6c53a920fc8b2f1d" target="_top" xlink:title=" ">
<polygon fill="none" stroke="#000000" points="1249.456,-171.5 1249.456,-203.5 1363.259,-203.5 1363.259,-171.5 1249.456,-171.5"/>
<text text-anchor="start" x="1257.456" y="-190.5" font-family="Helvetica,sans-Serif" font-size="10.00" fill="#000000">LFSTK_gadgetClass::</text>
<text text-anchor="middle" x="1306.3575" y="-178.5" font-family="Helvetica,sans-Serif" font-size="10.00" fill="#000000">drawImage</text>
</a>
</g>
</g>
<!-- Node3&#45;&gt;Node6 -->
<g id="edge5" class="edge">
<title>Node3&#45;&gt;Node6</title>
<path fill="none" stroke="#191970" d="M1213.6159,-185.6427C1222.0549,-185.8117 1230.8146,-185.9872 1239.4319,-186.1597"/>
<polygon fill="#191970" stroke="#191970" points="1239.3866,-189.6594 1249.4547,-186.3604 1239.5268,-182.6608 1239.3866,-189.6594"/>
</g>
<!-- Node7 -->
<g id="node7" class="node">
<title>Node7</title>
<g id="a_node7"><a xlink:href="class_l_f_s_t_k__gadget_class_af77235e4dc604470c9d62f101238225b.xhtml#af77235e4dc604470c9d62f101238225b" target="_top" xlink:title=" ">
<polygon fill="none" stroke="#000000" points="1249.456,-120.5 1249.456,-152.5 1363.259,-152.5 1363.259,-120.5 1249.456,-120.5"/>
<text text-anchor="start" x="1257.456" y="-139.5" font-family="Helvetica,sans-Serif" font-size="10.00" fill="#000000">LFSTK_gadgetClass::</text>
<text text-anchor="middle" x="1306.3575" y="-127.5" font-family="Helvetica,sans-Serif" font-size="10.00" fill="#000000">drawIndicator</text>
</a>
</g>
</g>
<!-- Node3&#45;&gt;Node7 -->
<g id="edge6" class="edge">
<title>Node3&#45;&gt;Node7</title>
<path fill="none" stroke="#191970" d="M1206.8535,-168.3832C1219.5196,-164.3247 1233.2417,-159.9278 1246.3321,-155.7334"/>
<polygon fill="#191970" stroke="#191970" points="1247.7362,-158.9588 1256.1913,-152.5743 1245.6002,-152.2927 1247.7362,-158.9588"/>
</g>
<!-- Node8 -->
<g id="node8" class="node">
<title>Node8</title>
<g id="a_node8"><a xlink:href="class_l_f_s_t_k__gadget_class_a7f44f781b167d66c5d6f4cc862a7e2db.xhtml#a7f44f781b167d66c5d6f4cc862a7e2db" target="_top" xlink:title=" ">
<polygon fill="none" stroke="#000000" points="1249.456,-261.5 1249.456,-293.5 1363.259,-293.5 1363.259,-261.5 1249.456,-261.5"/>
<text text-anchor="start" x="1257.456" y="-280.5" font-family="Helvetica,sans-Serif" font-size="10.00" fill="#000000">LFSTK_gadgetClass::</text>
<text text-anchor="middle" x="1306.3575" y="-268.5" font-family="Helvetica,sans-Serif" font-size="10.00" fill="#000000">drawLabel</text>
</a>
</g>
</g>
<!-- Node3&#45;&gt;Node8 -->
<g id="edge8" class="edge">
<title>Node3&#45;&gt;Node8</title>
<path fill="none" stroke="#191970" d="M1179.4713,-200.6292C1198.0505,-213.5009 1225.0616,-231.7554 1249.456,-246.5 1254.9528,-249.8224 1260.828,-253.2048 1266.6394,-256.4551"/>
<polygon fill="#191970" stroke="#191970" points="1265.2085,-259.6629 1275.6556,-261.4265 1268.5885,-253.533 1265.2085,-259.6629"/>
</g>
<!-- Node7&#45;&gt;Node5 -->
<g id="edge7" class="edge">
<title>Node7&#45;&gt;Node5</title>
<path fill="none" stroke="#191970" d="M1360.4797,-152.6168C1374.3758,-156.7549 1389.4531,-161.2447 1403.7868,-165.5131"/>
<polygon fill="#191970" stroke="#191970" points="1402.9847,-168.9261 1413.5677,-168.4257 1404.9825,-162.2172 1402.9847,-168.9261"/>
</g>
<!-- Node9 -->
<g id="node9" class="node">
<title>Node9</title>
<g id="a_node9"><a xlink:href="class_l_f_s_t_k__lib_ab2f14a3414f7db863682d1e2fa0cfb75.xhtml#ab2f14a3414f7db863682d1e2fa0cfb75" target="_top" xlink:title=" ">
<polygon fill="none" stroke="#000000" points="1399.259,-244.5 1399.259,-264.5 1535.835,-264.5 1535.835,-244.5 1399.259,-244.5"/>
<text text-anchor="middle" x="1467.547" y="-251.5" font-family="Helvetica,sans-Serif" font-size="10.00" fill="#000000">LFSTK_lib::bestFontColour</text>
</a>
</g>
</g>
<!-- Node8&#45;&gt;Node9 -->
<g id="edge9" class="edge">
<title>Node8&#45;&gt;Node9</title>
<path fill="none" stroke="#191970" d="M1363.6407,-269.3263C1371.9007,-268.1477 1380.5181,-266.9181 1389.103,-265.6931"/>
<polygon fill="#191970" stroke="#191970" points="1389.7372,-269.1382 1399.1425,-264.2606 1388.7483,-262.2083 1389.7372,-269.1382"/>
</g>
<!-- Node10 -->
<g id="node10" class="node">
<title>Node10</title>
<g id="a_node10"><a xlink:href="class_l_f_s_t_k__gadget_class_a091281ba03eaeb31bc7507c74b9b4f2f.xhtml#a091281ba03eaeb31bc7507c74b9b4f2f" target="_top" xlink:title=" ">
<polygon fill="none" stroke="#000000" points="1410.091,-283.5 1410.091,-315.5 1525.003,-315.5 1525.003,-283.5 1410.091,-283.5"/>
<text text-anchor="start" x="1418.091" y="-302.5" font-family="Helvetica,sans-Serif" font-size="10.00" fill="#000000">LFSTK_gadgetClass::</text>
<text text-anchor="middle" x="1467.547" y="-290.5" font-family="Helvetica,sans-Serif" font-size="10.00" fill="#000000">LFSTK_getTextHeight</text>
</a>
</g>
</g>
<!-- Node8&#45;&gt;Node10 -->
<g id="edge10" class="edge">
<title>Node8&#45;&gt;Node10</title>
<path fill="none" stroke="#191970" d="M1363.6407,-285.3183C1375.3761,-286.92 1387.8329,-288.6202 1399.8927,-290.2662"/>
<polygon fill="#191970" stroke="#191970" points="1399.5236,-293.7482 1409.9051,-291.6327 1400.4703,-286.8125 1399.5236,-293.7482"/>
</g>
<!-- Node13 -->
<g id="node13" class="node">
<title>Node13</title>
<g id="a_node13"><a xlink:href="class_l_f_s_t_k__scroll_bar_class_aa1ce7f61248cfa6eeef3e8573e327d8f.xhtml#aa1ce7f61248cfa6eeef3e8573e327d8f" target="_top" xlink:title=" ">
<polygon fill="none" stroke="#000000" points="342.376,-106.5 342.376,-138.5 458.93,-138.5 458.93,-106.5 342.376,-106.5"/>
<text text-anchor="start" x="350.376" y="-125.5" font-family="Helvetica,sans-Serif" font-size="10.00" fill="#000000">LFSTK_scrollBarClass</text>
<text text-anchor="middle" x="400.653" y="-113.5" font-family="Helvetica,sans-Serif" font-size="10.00" fill="#000000">::lineUpDown</text>
</a>
</g>
</g>
<!-- Node12&#45;&gt;Node13 -->
<g id="edge13" class="edge">
<title>Node12&#45;&gt;Node13</title>
<path fill="none" stroke="#191970" d="M290.8588,-123.1531C304.0846,-123.0744 318.2508,-122.9901 331.8641,-122.9092"/>
<polygon fill="#191970" stroke="#191970" points="332.1628,-126.4075 342.1418,-122.848 332.1211,-119.4077 332.1628,-126.4075"/>
</g>
<!-- Node14 -->
<g id="node14" class="node">
<title>Node14</title>
<g id="a_node14"><a xlink:href="class_l_f_s_t_k__scroll_bar_class_a3e47c5f9944ddb2a861b80853f85ce12.xhtml#a3e47c5f9944ddb2a861b80853f85ce12" target="_top" xlink:title=" ">
<polygon fill="none" stroke="#000000" points="494.93,-105.5 494.93,-137.5 611.484,-137.5 611.484,-105.5 494.93,-105.5"/>
<text text-anchor="start" x="502.93" y="-124.5" font-family="Helvetica,sans-Serif" font-size="10.00" fill="#000000">LFSTK_scrollBarClass</text>
<text text-anchor="middle" x="553.207" y="-112.5" font-family="Helvetica,sans-Serif" font-size="10.00" fill="#000000">::setState</text>
</a>
</g>
</g>
<!-- Node13&#45;&gt;Node14 -->
<g id="edge14" class="edge">
<title>Node13&#45;&gt;Node14</title>
<path fill="none" stroke="#191970" d="M459.1981,-122.1162C467.5015,-122.0618 476.1017,-122.0054 484.5748,-121.9499"/>
<polygon fill="#191970" stroke="#191970" points="484.8418,-125.4483 494.8186,-121.8827 484.7958,-118.4485 484.8418,-125.4483"/>
</g>
<!-- Node15 -->
<g id="node15" class="node">
<title>Node15</title>
<g id="a_node15"><a xlink:href="class_l_f_s_t_k__scroll_bar_class_a6a4b0d2c9217779bb3bc0b4c936130ce.xhtml#a6a4b0d2c9217779bb3bc0b4c936130ce" target="_top" xlink:title=" ">
<polygon fill="none" stroke="#000000" points="797.2915,-105.5 797.2915,-137.5 913.8455,-137.5 913.8455,-105.5 797.2915,-105.5"/>
<text text-anchor="start" x="805.2915" y="-124.5" font-family="Helvetica,sans-Serif" font-size="10.00" fill="#000000">LFSTK_scrollBarClass</text>
<text text-anchor="middle" x="855.5685" y="-112.5" font-family="Helvetica,sans-Serif" font-size="10.00" fill="#000000">::LFSTK_clearWindow</text>
</a>
</g>
</g>
<!-- Node14&#45;&gt;Node15 -->
<g id="edge15" class="edge">
<title>Node14&#45;&gt;Node15</title>
<path fill="none" stroke="#191970" d="M611.5053,-116.042C661.6199,-114.4278 733.9665,-114.3262 786.8805,-115.7371"/>
<polygon fill="#191970" stroke="#191970" points="787.0935,-119.2448 797.1918,-116.0395 787.2987,-112.2478 787.0935,-119.2448"/>
</g>
<!-- Node16 -->
<g id="node16" class="node">
<title>Node16</title>
<g id="a_node16"><a xlink:href="class_l_f_s_t_k__gadget_class_a71d34233c5db545e92d37c0e3139459b.xhtml#a71d34233c5db545e92d37c0e3139459b" target="_top" xlink:title=" ">
<polygon fill="none" stroke="#000000" points="647.484,-51.5 647.484,-83.5 761.287,-83.5 761.287,-51.5 647.484,-51.5"/>
<text text-anchor="start" x="655.484" y="-70.5" font-family="Helvetica,sans-Serif" font-size="10.00" fill="#000000">LFSTK_gadgetClass::</text>
<text text-anchor="middle" x="704.3855" y="-58.5" font-family="Helvetica,sans-Serif" font-size="10.00" fill="#000000">LFSTK_getGeom</text>
</a>
</g>
</g>
<!-- Node14&#45;&gt;Node16 -->
<g id="edge19" class="edge">
<title>Node14&#45;&gt;Node16</title>
<path fill="none" stroke="#191970" d="M598.1562,-105.4444C614.3085,-99.6749 632.7077,-93.1029 649.6029,-87.068"/>
<polygon fill="#191970" stroke="#191970" points="651.1085,-90.2469 659.3484,-83.587 648.7538,-83.6548 651.1085,-90.2469"/>
</g>
<!-- Node17 -->
<g id="node17" class="node">
<title>Node17</title>
<g id="a_node17"><a xlink:href="class_l_f_s_t_k__gadget_class_aeeb028f96b71fa161ec195880106a936.xhtml#aeeb028f96b71fa161ec195880106a936" target="_top" xlink:title=" ">
<polygon fill="none" stroke="#000000" points="647.484,-.5 647.484,-32.5 761.287,-32.5 761.287,-.5 647.484,-.5"/>
<text text-anchor="start" x="655.484" y="-19.5" font-family="Helvetica,sans-Serif" font-size="10.00" fill="#000000">LFSTK_gadgetClass::</text>
<text text-anchor="middle" x="704.3855" y="-7.5" font-family="Helvetica,sans-Serif" font-size="10.00" fill="#000000">LFSTK_getLimits</text>
</a>
</g>
</g>
<!-- Node14&#45;&gt;Node17 -->
<g id="edge20" class="edge">
<title>Node14&#45;&gt;Node17</title>
<path fill="none" stroke="#191970" d="M569.0917,-105.4792C586.9689,-88.084 617.4526,-60.2786 647.484,-41.5 649.8055,-40.0484 652.2259,-38.6389 654.7026,-37.2775"/>
<polygon fill="#191970" stroke="#191970" points="656.5558,-40.2599 663.8423,-32.5685 653.3498,-34.0373 656.5558,-40.2599"/>
</g>
<!-- Node18 -->
<g id="node18" class="node">
<title>Node18</title>
<g id="a_node18"><a xlink:href="class_l_f_s_t_k__gadget_class_a7e3ef253af08c0796f73de1366cf2d08.xhtml#a7e3ef253af08c0796f73de1366cf2d08" target="_top" xlink:title=" ">
<polygon fill="none" stroke="#000000" points="647.484,-159.5 647.484,-191.5 761.287,-191.5 761.287,-159.5 647.484,-159.5"/>
<text text-anchor="start" x="655.484" y="-178.5" font-family="Helvetica,sans-Serif" font-size="10.00" fill="#000000">LFSTK_gadgetClass::</text>
<text text-anchor="middle" x="704.3855" y="-166.5" font-family="Helvetica,sans-Serif" font-size="10.00" fill="#000000">LFSTK_moveGadget</text>
</a>
</g>
</g>
<!-- Node14&#45;&gt;Node18 -->
<g id="edge21" class="edge">
<title>Node14&#45;&gt;Node18</title>
<path fill="none" stroke="#191970" d="M598.1562,-137.5556C614.3085,-143.3251 632.7077,-149.8971 649.6029,-155.932"/>
<polygon fill="#191970" stroke="#191970" points="648.7538,-159.3452 659.3484,-159.413 651.1085,-152.7531 648.7538,-159.3452"/>
</g>
<!-- Node15&#45;&gt;Node2 -->
<g id="edge17" class="edge">
<title>Node15&#45;&gt;Node2</title>
<path fill="none" stroke="#191970" d="M898.0837,-137.5294C915.71,-144.1749 936.325,-151.9473 954.8338,-158.9256"/>
<polygon fill="#191970" stroke="#191970" points="953.7019,-162.2393 964.2937,-162.4923 956.1714,-155.6894 953.7019,-162.2393"/>
</g>
<!-- Node15&#45;&gt;Node4 -->
<g id="edge16" class="edge">
<title>Node15&#45;&gt;Node4</title>
<path fill="none" stroke="#191970" d="M914.0391,-116.8305C997.6805,-110.1509 1151.0927,-97.8994 1239.2552,-90.8588"/>
<polygon fill="#191970" stroke="#191970" points="1239.7224,-94.3327 1249.412,-90.0477 1239.1651,-87.3549 1239.7224,-94.3327"/>
</g>
<!-- Node15&#45;&gt;Node14 -->
<g id="edge18" class="edge">
<title>Node15&#45;&gt;Node14</title>
<path fill="none" stroke="#191970" d="M797.1918,-126.9605C747.0541,-128.5732 674.706,-128.6732 621.8123,-127.2607"/>
<polygon fill="#191970" stroke="#191970" points="621.6038,-123.7531 611.5053,-126.958 621.3983,-130.7501 621.6038,-123.7531"/>
</g>
<!-- Node19 -->
<g id="node19" class="node">
<title>Node19</title>
<g id="a_node19"><a xlink:href="class_l_f_s_t_k__window_class_ac3b5b99b3a018cce7c631df39db76be1.xhtml#ac3b5b99b3a018cce7c631df39db76be1" target="_top" xlink:title=" ">
<polygon fill="none" stroke="#000000" points="797.287,-159.5 797.287,-191.5 913.85,-191.5 913.85,-159.5 797.287,-159.5"/>
<text text-anchor="start" x="805.287" y="-178.5" font-family="Helvetica,sans-Serif" font-size="10.00" fill="#000000">LFSTK_windowClass::</text>
<text text-anchor="middle" x="855.5685" y="-166.5" font-family="Helvetica,sans-Serif" font-size="10.00" fill="#000000">LFSTK_clearWindow</text>
</a>
</g>
</g>
<!-- Node18&#45;&gt;Node19 -->
<g id="edge22" class="edge">
<title>Node18&#45;&gt;Node19</title>
<path fill="none" stroke="#191970" d="M761.5413,-175.5C769.8045,-175.5 778.3806,-175.5 786.8411,-175.5"/>
<polygon fill="#191970" stroke="#191970" points="787.075,-179.0001 797.075,-175.5 787.0749,-172.0001 787.075,-179.0001"/>
</g>
<!-- Node19&#45;&gt;Node2 -->
<g id="edge23" class="edge">
<title>Node19&#45;&gt;Node2</title>
<path fill="none" stroke="#191970" d="M914.0198,-176.6599C922.29,-176.824 930.8491,-176.9938 939.2724,-177.161"/>
<polygon fill="#191970" stroke="#191970" points="939.3834,-180.6638 949.4509,-177.363 939.5223,-173.6652 939.3834,-180.6638"/>
</g>
</g>
</svg>
