<?xml version="1.0" encoding="UTF-8" standalone="no"?>
<!DOCTYPE svg PUBLIC "-//W3C//DTD SVG 1.1//EN"
 "http://www.w3.org/Graphics/SVG/1.1/DTD/svg11.dtd">
<!-- Generated by graphviz version 2.40.1 (20161225.0304)
 -->
<!-- Title: LFSTK_gadgetClass::LFSTK_setLabelGravity Pages: 1 -->
<svg width="955pt" height="338pt"
 viewBox="0.00 0.00 954.64 338.00" xmlns="http://www.w3.org/2000/svg" xmlns:xlink="http://www.w3.org/1999/xlink">
<g id="graph0" class="graph" transform="scale(1 1) rotate(0) translate(4 334)">
<title>LFSTK_gadgetClass::LFSTK_setLabelGravity</title>
<!-- Node1 -->
<g id="node1" class="node">
<title>Node1</title>
<g id="a_node1"><a xlink:title=" ">
<polygon fill="#bfbfbf" stroke="#000000" points="824.513,-195.5 824.513,-227.5 946.645,-227.5 946.645,-195.5 824.513,-195.5"/>
<text text-anchor="start" x="832.513" y="-214.5" font-family="Helvetica,sans-Serif" font-size="10.00" fill="#000000">LFSTK_gadgetClass::</text>
<text text-anchor="middle" x="885.579" y="-202.5" font-family="Helvetica,sans-Serif" font-size="10.00" fill="#000000">LFSTK_setLabelGravity</text>
</a>
</g>
</g>
<!-- Node2 -->
<g id="node2" class="node">
<title>Node2</title>
<g id="a_node2"><a xlink:href="class_l_f_s_t_k__label_class_a6085feaa122a3d1060351c659889628c.xhtml#a6085feaa122a3d1060351c659889628c" target="_top" xlink:title=" ">
<polygon fill="none" stroke="#000000" points="651.1,-297.5 651.1,-329.5 786.559,-329.5 786.559,-297.5 651.1,-297.5"/>
<text text-anchor="start" x="659.1" y="-316.5" font-family="Helvetica,sans-Serif" font-size="10.00" fill="#000000">LFSTK_labelClass::LFSTK</text>
<text text-anchor="middle" x="718.8295" y="-304.5" font-family="Helvetica,sans-Serif" font-size="10.00" fill="#000000">_labelClass</text>
</a>
</g>
</g>
<!-- Node1&#45;&gt;Node2 -->
<g id="edge1" class="edge">
<title>Node1&#45;&gt;Node2</title>
<path fill="none" stroke="#191970" d="M861.4472,-234.3493C842.7217,-251.1199 815.489,-273.4976 788.513,-288.5 782.672,-291.7484 776.3288,-294.7086 769.9284,-297.3637"/>
<polygon fill="#191970" stroke="#191970" points="863.886,-236.8623 868.926,-227.543 859.1744,-231.6852 863.886,-236.8623"/>
</g>
<!-- Node3 -->
<g id="node3" class="node">
<title>Node3</title>
<g id="a_node3"><a xlink:href="class_l_f_s_t_k__menu_item_class_a382a9775dff59f06606ef0b3f43382cc.xhtml#a382a9775dff59f06606ef0b3f43382cc" target="_top" xlink:title=" ">
<polygon fill="none" stroke="#000000" points="654.989,-246.5 654.989,-278.5 782.67,-278.5 782.67,-246.5 654.989,-246.5"/>
<text text-anchor="start" x="662.989" y="-265.5" font-family="Helvetica,sans-Serif" font-size="10.00" fill="#000000">LFSTK_menuItemClass</text>
<text text-anchor="middle" x="718.8295" y="-253.5" font-family="Helvetica,sans-Serif" font-size="10.00" fill="#000000">::LFSTK_menuItemClass</text>
</a>
</g>
</g>
<!-- Node1&#45;&gt;Node3 -->
<g id="edge2" class="edge">
<title>Node1&#45;&gt;Node3</title>
<path fill="none" stroke="#191970" d="M822.9548,-230.6535C805.9203,-235.8634 787.6518,-241.4508 771.2469,-246.4683"/>
<polygon fill="#191970" stroke="#191970" points="824.2794,-233.9085 832.8184,-227.6367 822.232,-227.2146 824.2794,-233.9085"/>
</g>
<!-- Node4 -->
<g id="node4" class="node">
<title>Node4</title>
<g id="a_node4"><a xlink:href="class_l_f_s_t_k__toggle_button_class_a7fe467d9c2800bdcc5686dd013f96c3c.xhtml#a7fe467d9c2800bdcc5686dd013f96c3c" target="_top" xlink:title=" ">
<polygon fill="none" stroke="#000000" points="651.925,-195.5 651.925,-227.5 785.734,-227.5 785.734,-195.5 651.925,-195.5"/>
<text text-anchor="start" x="659.925" y="-214.5" font-family="Helvetica,sans-Serif" font-size="10.00" fill="#000000">LFSTK_toggleButtonClass</text>
<text text-anchor="middle" x="718.8295" y="-202.5" font-family="Helvetica,sans-Serif" font-size="10.00" fill="#000000">::LFSTK_setToggleStyle</text>
</a>
</g>
</g>
<!-- Node1&#45;&gt;Node4 -->
<g id="edge3" class="edge">
<title>Node1&#45;&gt;Node4</title>
<path fill="none" stroke="#191970" d="M814.3052,-211.5C804.8724,-211.5 795.2284,-211.5 785.8702,-211.5"/>
<polygon fill="#191970" stroke="#191970" points="814.4345,-215.0001 824.4345,-211.5 814.4345,-208.0001 814.4345,-215.0001"/>
</g>
<!-- Node5 -->
<g id="node5" class="node">
<title>Node5</title>
<g id="a_node5"><a xlink:href="class_l_f_s_t_k__toggle_button_class_a4cc0929a4d4113b9b40a3bdc54898ab7.xhtml#a4cc0929a4d4113b9b40a3bdc54898ab7" target="_top" xlink:title=" ">
<polygon fill="none" stroke="#000000" points="649.146,-144.5 649.146,-176.5 788.513,-176.5 788.513,-144.5 649.146,-144.5"/>
<text text-anchor="start" x="657.146" y="-163.5" font-family="Helvetica,sans-Serif" font-size="10.00" fill="#000000">LFSTK_toggleButtonClass</text>
<text text-anchor="middle" x="718.8295" y="-151.5" font-family="Helvetica,sans-Serif" font-size="10.00" fill="#000000">::LFSTK_toggleButtonClass</text>
</a>
</g>
</g>
<!-- Node1&#45;&gt;Node5 -->
<g id="edge4" class="edge">
<title>Node1&#45;&gt;Node5</title>
<path fill="none" stroke="#191970" d="M822.9548,-192.3465C805.9203,-187.1366 787.6518,-181.5492 771.2469,-176.5317"/>
<polygon fill="#191970" stroke="#191970" points="822.232,-195.7854 832.8184,-195.3633 824.2794,-189.0915 822.232,-195.7854"/>
</g>
<!-- Node6 -->
<g id="node6" class="node">
<title>Node6</title>
<g id="a_node6"><a xlink:href="class_l_f_s_t_k__list_gadget_class_a7b9a3f3a749e622fdd46da8f72da2002.xhtml#a7b9a3f3a749e622fdd46da8f72da2002" target="_top" xlink:title=" ">
<polygon fill="none" stroke="#000000" points="657.4885,-93.5 657.4885,-125.5 780.1705,-125.5 780.1705,-93.5 657.4885,-93.5"/>
<text text-anchor="start" x="665.4885" y="-112.5" font-family="Helvetica,sans-Serif" font-size="10.00" fill="#000000">LFSTK_listGadgetClass</text>
<text text-anchor="middle" x="718.8295" y="-100.5" font-family="Helvetica,sans-Serif" font-size="10.00" fill="#000000">::LFSTK_updateList</text>
</a>
</g>
</g>
<!-- Node1&#45;&gt;Node6 -->
<g id="edge5" class="edge">
<title>Node1&#45;&gt;Node6</title>
<path fill="none" stroke="#191970" d="M860.9973,-188.7636C842.2295,-172.3055 815.1437,-150.4204 788.513,-135.5 781.9793,-131.8394 774.8293,-128.5029 767.6777,-125.5315"/>
<polygon fill="#191970" stroke="#191970" points="858.7097,-191.413 868.5058,-195.4487 863.3645,-186.1849 858.7097,-191.413"/>
</g>
<!-- Node7 -->
<g id="node7" class="node">
<title>Node7</title>
<g id="a_node7"><a xlink:href="class_l_f_s_t_k__font_dialog_class_af866eb2b1ba8178c9cf3e751716fcc8e.xhtml#af866eb2b1ba8178c9cf3e751716fcc8e" target="_top" xlink:title=" ">
<polygon fill="none" stroke="#000000" points="488.526,-144.5 488.526,-176.5 611.207,-176.5 611.207,-144.5 488.526,-144.5"/>
<text text-anchor="start" x="496.526" y="-163.5" font-family="Helvetica,sans-Serif" font-size="10.00" fill="#000000">LFSTK_fontDialogClass</text>
<text text-anchor="middle" x="549.8665" y="-151.5" font-family="Helvetica,sans-Serif" font-size="10.00" fill="#000000">::buildDialog</text>
</a>
</g>
</g>
<!-- Node6&#45;&gt;Node7 -->
<g id="edge6" class="edge">
<title>Node6&#45;&gt;Node7</title>
<path fill="none" stroke="#191970" d="M655.374,-128.6535C638.1134,-133.8634 619.6023,-139.4508 602.9797,-144.4683"/>
<polygon fill="#191970" stroke="#191970" points="656.8065,-131.8771 665.3686,-125.6367 654.7837,-125.1757 656.8065,-131.8771"/>
</g>
<!-- Node9 -->
<g id="node9" class="node">
<title>Node9</title>
<g id="a_node9"><a xlink:href="class_l_f_s_t_k__file_dialog_class_a0a6b4f1db71031bf35a7636b736e8698.xhtml#a0a6b4f1db71031bf35a7636b736e8698" target="_top" xlink:title=" ">
<polygon fill="none" stroke="#000000" points="490.476,-93.5 490.476,-125.5 609.257,-125.5 609.257,-93.5 490.476,-93.5"/>
<text text-anchor="start" x="498.476" y="-112.5" font-family="Helvetica,sans-Serif" font-size="10.00" fill="#000000">LFSTK_fileDialogClass</text>
<text text-anchor="middle" x="549.8665" y="-100.5" font-family="Helvetica,sans-Serif" font-size="10.00" fill="#000000">::getFileList</text>
</a>
</g>
</g>
<!-- Node6&#45;&gt;Node9 -->
<g id="edge8" class="edge">
<title>Node6&#45;&gt;Node9</title>
<path fill="none" stroke="#191970" d="M647.3101,-109.5C634.6545,-109.5 621.6013,-109.5 609.3233,-109.5"/>
<polygon fill="#191970" stroke="#191970" points="647.352,-113.0001 657.352,-109.5 647.352,-106.0001 647.352,-113.0001"/>
</g>
<!-- Node14 -->
<g id="node14" class="node">
<title>Node14</title>
<g id="a_node14"><a xlink:href="class_l_f_s_t_k__list_gadget_class_addcdb5ba330fd8dd36beb94ea2081dd3.xhtml#addcdb5ba330fd8dd36beb94ea2081dd3" target="_top" xlink:title=" ">
<polygon fill="none" stroke="#000000" points="486.587,-42.5 486.587,-74.5 613.146,-74.5 613.146,-42.5 486.587,-42.5"/>
<text text-anchor="start" x="494.587" y="-61.5" font-family="Helvetica,sans-Serif" font-size="10.00" fill="#000000">LFSTK_listGadgetClass</text>
<text text-anchor="middle" x="549.8665" y="-49.5" font-family="Helvetica,sans-Serif" font-size="10.00" fill="#000000">::LFSTK_setListFromFile</text>
</a>
</g>
</g>
<!-- Node6&#45;&gt;Node14 -->
<g id="edge14" class="edge">
<title>Node6&#45;&gt;Node14</title>
<path fill="none" stroke="#191970" d="M655.374,-90.3465C638.1134,-85.1366 619.6023,-79.5492 602.9797,-74.5317"/>
<polygon fill="#191970" stroke="#191970" points="654.7837,-93.8243 665.3686,-93.3633 656.8065,-87.1229 654.7837,-93.8243"/>
</g>
<!-- Node8 -->
<g id="node8" class="node">
<title>Node8</title>
<g id="a_node8"><a xlink:href="class_l_f_s_t_k__font_dialog_class_ab7b6a4bca99713646ab6ac77dc34827c.xhtml#ab7b6a4bca99713646ab6ac77dc34827c" target="_top" xlink:title=" ">
<polygon fill="none" stroke="#000000" points="322.348,-144.5 322.348,-176.5 450.587,-176.5 450.587,-144.5 322.348,-144.5"/>
<text text-anchor="start" x="330.348" y="-163.5" font-family="Helvetica,sans-Serif" font-size="10.00" fill="#000000">LFSTK_fontDialogClass</text>
<text text-anchor="middle" x="386.4675" y="-151.5" font-family="Helvetica,sans-Serif" font-size="10.00" fill="#000000">::LFSTK_fontDialogClass</text>
</a>
</g>
</g>
<!-- Node7&#45;&gt;Node8 -->
<g id="edge7" class="edge">
<title>Node7&#45;&gt;Node8</title>
<path fill="none" stroke="#191970" d="M477.9666,-160.5C468.9154,-160.5 459.7015,-160.5 450.7778,-160.5"/>
<polygon fill="#191970" stroke="#191970" points="478.0924,-164.0001 488.0923,-160.5 478.0923,-157.0001 478.0924,-164.0001"/>
</g>
<!-- Node10 -->
<g id="node10" class="node">
<title>Node10</title>
<g id="a_node10"><a xlink:href="class_l_f_s_t_k__file_dialog_class_a553ce8e885b0d60cbf515b7b3d1e8b65.xhtml#a553ce8e885b0d60cbf515b7b3d1e8b65" target="_top" xlink:title=" ">
<polygon fill="none" stroke="#000000" points="0,-48.5 0,-80.5 124.339,-80.5 124.339,-48.5 0,-48.5"/>
<text text-anchor="start" x="8" y="-67.5" font-family="Helvetica,sans-Serif" font-size="10.00" fill="#000000">LFSTK_fileDialogClass</text>
<text text-anchor="middle" x="62.1695" y="-55.5" font-family="Helvetica,sans-Serif" font-size="10.00" fill="#000000">::LFSTK_fileDialogClass</text>
</a>
</g>
</g>
<!-- Node9&#45;&gt;Node10 -->
<g id="edge9" class="edge">
<title>Node9&#45;&gt;Node10</title>
<path fill="none" stroke="#191970" d="M480.1099,-111.7702C401.7549,-113.1337 271.0533,-111.8382 160.339,-93.5 142.9818,-90.625 124.3679,-85.6367 108.0651,-80.5995"/>
<polygon fill="#191970" stroke="#191970" points="480.4105,-115.2651 490.3407,-111.5718 480.2747,-108.2665 480.4105,-115.2651"/>
</g>
<!-- Node11 -->
<g id="node11" class="node">
<title>Node11</title>
<g id="a_node11"><a xlink:href="class_l_f_s_t_k__file_dialog_class_aa8804989d381def9acb2c99d47d6dc3d.xhtml#aa8804989d381def9acb2c99d47d6dc3d" target="_top" xlink:title=" ">
<polygon fill="none" stroke="#000000" points="325.967,-51.5 325.967,-83.5 446.968,-83.5 446.968,-51.5 325.967,-51.5"/>
<text text-anchor="start" x="333.967" y="-70.5" font-family="Helvetica,sans-Serif" font-size="10.00" fill="#000000">LFSTK_fileDialogClass</text>
<text text-anchor="middle" x="386.4675" y="-58.5" font-family="Helvetica,sans-Serif" font-size="10.00" fill="#000000">::LFSTK_setWorkingDir</text>
</a>
</g>
</g>
<!-- Node9&#45;&gt;Node11 -->
<g id="edge10" class="edge">
<title>Node9&#45;&gt;Node11</title>
<path fill="none" stroke="#191970" d="M480.6738,-91.7147C469.4717,-88.8353 457.9482,-85.8734 446.973,-83.0523"/>
<polygon fill="#191970" stroke="#191970" points="479.857,-95.1185 490.4135,-94.2182 481.5997,-88.3389 479.857,-95.1185"/>
</g>
<!-- Node12 -->
<g id="node12" class="node">
<title>Node12</title>
<g id="a_node12"><a xlink:href="class_l_f_s_t_k__file_dialog_class_aacf1d4b61cbb5b40d06f591ea96f9ea7.xhtml#aacf1d4b61cbb5b40d06f591ea96f9ea7" target="_top" xlink:title=" ">
<polygon fill="none" stroke="#000000" points="160.339,-51.5 160.339,-83.5 286.348,-83.5 286.348,-51.5 160.339,-51.5"/>
<text text-anchor="start" x="168.339" y="-70.5" font-family="Helvetica,sans-Serif" font-size="10.00" fill="#000000">LFSTK_fileDialogClass</text>
<text text-anchor="middle" x="223.3435" y="-58.5" font-family="Helvetica,sans-Serif" font-size="10.00" fill="#000000">::LFSTK_showFileDialog</text>
</a>
</g>
</g>
<!-- Node11&#45;&gt;Node12 -->
<g id="edge11" class="edge">
<title>Node11&#45;&gt;Node12</title>
<path fill="none" stroke="#191970" d="M315.7256,-67.5C306.0345,-67.5 296.1359,-67.5 286.5902,-67.5"/>
<polygon fill="#191970" stroke="#191970" points="315.7262,-71.0001 325.7261,-67.5 315.7261,-64.0001 315.7262,-71.0001"/>
</g>
<!-- Node13 -->
<g id="node13" class="node">
<title>Node13</title>
<g id="a_node13"><a xlink:href="class_l_f_s_t_k__file_dialog_class_a789cade9437906181e31a243c85d52e5.xhtml#a789cade9437906181e31a243c85d52e5" target="_top" xlink:title=" ">
<polygon fill="none" stroke="#000000" points="163.953,-.5 163.953,-32.5 282.734,-32.5 282.734,-.5 163.953,-.5"/>
<text text-anchor="start" x="171.953" y="-19.5" font-family="Helvetica,sans-Serif" font-size="10.00" fill="#000000">LFSTK_fileDialogClass</text>
<text text-anchor="middle" x="223.3435" y="-7.5" font-family="Helvetica,sans-Serif" font-size="10.00" fill="#000000">::select</text>
</a>
</g>
</g>
<!-- Node11&#45;&gt;Node13 -->
<g id="edge12" class="edge">
<title>Node11&#45;&gt;Node13</title>
<path fill="none" stroke="#191970" d="M325.2049,-48.3465C308.5408,-43.1366 290.6694,-37.5492 274.6212,-32.5317"/>
<polygon fill="#191970" stroke="#191970" points="324.2652,-51.7197 334.854,-51.3633 326.3541,-45.0387 324.2652,-51.7197"/>
</g>
<!-- Node13&#45;&gt;Node10 -->
<g id="edge13" class="edge">
<title>Node13&#45;&gt;Node10</title>
<path fill="none" stroke="#191970" d="M159.442,-35.5308C145.1046,-39.8007 130.0303,-44.29 116.1436,-48.4257"/>
<polygon fill="#191970" stroke="#191970" points="160.6415,-38.8256 169.2265,-32.6168 158.6435,-32.1168 160.6415,-38.8256"/>
</g>
</g>
</svg>
