<?xml version="1.0" encoding="UTF-8" standalone="no"?>
<!DOCTYPE svg PUBLIC "-//W3C//DTD SVG 1.1//EN"
 "http://www.w3.org/Graphics/SVG/1.1/DTD/svg11.dtd">
<!-- Generated by graphviz version 2.40.1 (20161225.0304)
 -->
<!-- Title: LFSTK_gadgetClass::mouseExit Pages: 1 -->
<svg width="744pt" height="252pt"
 viewBox="0.00 0.00 743.79 252.00" xmlns="http://www.w3.org/2000/svg" xmlns:xlink="http://www.w3.org/1999/xlink">
<g id="graph0" class="graph" transform="scale(1 1) rotate(0) translate(4 248)">
<title>LFSTK_gadgetClass::mouseExit</title>
<!-- Node1 -->
<g id="node1" class="node">
<title>Node1</title>
<g id="a_node1"><a xlink:title=" ">
<polygon fill="#bfbfbf" stroke="#000000" points="0,-121.5 0,-153.5 113.803,-153.5 113.803,-121.5 0,-121.5"/>
<text text-anchor="start" x="8" y="-140.5" font-family="Helvetica,sans-Serif" font-size="10.00" fill="#000000">LFSTK_gadgetClass::</text>
<text text-anchor="middle" x="56.9015" y="-128.5" font-family="Helvetica,sans-Serif" font-size="10.00" fill="#000000">mouseExit</text>
</a>
</g>
</g>
<!-- Node2 -->
<g id="node2" class="node">
<title>Node2</title>
<g id="a_node2"><a xlink:href="class_l_f_s_t_k__gadget_class_aa5b5f301fe9b0a4d7679f786da7462ba.xhtml#aa5b5f301fe9b0a4d7679f786da7462ba" target="_top" xlink:title=" ">
<polygon fill="none" stroke="#000000" points="149.803,-121.5 149.803,-153.5 263.606,-153.5 263.606,-121.5 149.803,-121.5"/>
<text text-anchor="start" x="157.803" y="-140.5" font-family="Helvetica,sans-Serif" font-size="10.00" fill="#000000">LFSTK_gadgetClass::</text>
<text text-anchor="middle" x="206.7045" y="-128.5" font-family="Helvetica,sans-Serif" font-size="10.00" fill="#000000">LFSTK_clearWindow</text>
</a>
</g>
</g>
<!-- Node1&#45;&gt;Node2 -->
<g id="edge1" class="edge">
<title>Node1&#45;&gt;Node2</title>
<path fill="none" stroke="#191970" d="M113.9629,-137.5C122.4019,-137.5 131.1616,-137.5 139.7789,-137.5"/>
<polygon fill="#191970" stroke="#191970" points="139.8018,-141.0001 149.8017,-137.5 139.8017,-134.0001 139.8018,-141.0001"/>
</g>
<!-- Node3 -->
<g id="node3" class="node">
<title>Node3</title>
<g id="a_node3"><a xlink:href="class_l_f_s_t_k__gadget_class_a66b92f213e5a7e75da3f707b511342ea.xhtml#a66b92f213e5a7e75da3f707b511342ea" target="_top" xlink:title=" ">
<polygon fill="none" stroke="#000000" points="299.606,-121.5 299.606,-153.5 413.409,-153.5 413.409,-121.5 299.606,-121.5"/>
<text text-anchor="start" x="307.606" y="-140.5" font-family="Helvetica,sans-Serif" font-size="10.00" fill="#000000">LFSTK_gadgetClass::</text>
<text text-anchor="middle" x="356.5075" y="-128.5" font-family="Helvetica,sans-Serif" font-size="10.00" fill="#000000">drawGagetDetails</text>
</a>
</g>
</g>
<!-- Node2&#45;&gt;Node3 -->
<g id="edge2" class="edge">
<title>Node2&#45;&gt;Node3</title>
<path fill="none" stroke="#191970" d="M263.7659,-137.5C272.2049,-137.5 280.9646,-137.5 289.5819,-137.5"/>
<polygon fill="#191970" stroke="#191970" points="289.6048,-141.0001 299.6047,-137.5 289.6047,-134.0001 289.6048,-141.0001"/>
</g>
<!-- Node4 -->
<g id="node4" class="node">
<title>Node4</title>
<g id="a_node4"><a xlink:href="class_l_f_s_t_k__gadget_class_a37d96aab3c59cb97fca1720441e3fc8e.xhtml#a37d96aab3c59cb97fca1720441e3fc8e" target="_top" xlink:title=" ">
<polygon fill="none" stroke="#000000" points="449.409,-211.5 449.409,-243.5 563.212,-243.5 563.212,-211.5 449.409,-211.5"/>
<text text-anchor="start" x="457.409" y="-230.5" font-family="Helvetica,sans-Serif" font-size="10.00" fill="#000000">LFSTK_gadgetClass::</text>
<text text-anchor="middle" x="506.3105" y="-218.5" font-family="Helvetica,sans-Serif" font-size="10.00" fill="#000000">clearBox</text>
</a>
</g>
</g>
<!-- Node3&#45;&gt;Node4 -->
<g id="edge3" class="edge">
<title>Node3&#45;&gt;Node4</title>
<path fill="none" stroke="#191970" d="M381.07,-153.7326C399.6384,-165.8483 425.8674,-182.6328 449.409,-196.5 455.0067,-199.7973 460.9746,-203.1846 466.8607,-206.4533"/>
<polygon fill="#191970" stroke="#191970" points="465.5284,-209.7148 475.9781,-211.4625 468.8991,-203.5797 465.5284,-209.7148"/>
</g>
<!-- Node5 -->
<g id="node5" class="node">
<title>Node5</title>
<g id="a_node5"><a xlink:href="class_l_f_s_t_k__gadget_class_ab76db165a19af248b5e94e95492dc879.xhtml#ab76db165a19af248b5e94e95492dc879" target="_top" xlink:title=" ">
<polygon fill="none" stroke="#000000" points="610.5985,-128.5 610.5985,-160.5 724.4015,-160.5 724.4015,-128.5 610.5985,-128.5"/>
<text text-anchor="start" x="618.5985" y="-147.5" font-family="Helvetica,sans-Serif" font-size="10.00" fill="#000000">LFSTK_gadgetClass::</text>
<text text-anchor="middle" x="667.5" y="-135.5" font-family="Helvetica,sans-Serif" font-size="10.00" fill="#000000">drawBevel</text>
</a>
</g>
</g>
<!-- Node3&#45;&gt;Node5 -->
<g id="edge4" class="edge">
<title>Node3&#45;&gt;Node5</title>
<path fill="none" stroke="#191970" d="M404.1983,-153.5327C418.5598,-157.6275 434.4755,-161.4497 449.409,-163.5 499.518,-170.3797 512.8381,-168.0513 563.212,-163.5 575.2404,-162.4132 587.955,-160.6351 600.2137,-158.5914"/>
<polygon fill="#191970" stroke="#191970" points="601.1272,-161.9851 610.3787,-156.8217 599.9265,-155.0889 601.1272,-161.9851"/>
</g>
<!-- Node6 -->
<g id="node6" class="node">
<title>Node6</title>
<g id="a_node6"><a xlink:href="class_l_f_s_t_k__gadget_class_af5386ffc4699273f6c53a920fc8b2f1d.xhtml#af5386ffc4699273f6c53a920fc8b2f1d" target="_top" xlink:title=" ">
<polygon fill="none" stroke="#000000" points="449.409,-121.5 449.409,-153.5 563.212,-153.5 563.212,-121.5 449.409,-121.5"/>
<text text-anchor="start" x="457.409" y="-140.5" font-family="Helvetica,sans-Serif" font-size="10.00" fill="#000000">LFSTK_gadgetClass::</text>
<text text-anchor="middle" x="506.3105" y="-128.5" font-family="Helvetica,sans-Serif" font-size="10.00" fill="#000000">drawImage</text>
</a>
</g>
</g>
<!-- Node3&#45;&gt;Node6 -->
<g id="edge5" class="edge">
<title>Node3&#45;&gt;Node6</title>
<path fill="none" stroke="#191970" d="M413.5689,-137.5C422.0079,-137.5 430.7676,-137.5 439.3849,-137.5"/>
<polygon fill="#191970" stroke="#191970" points="439.4078,-141.0001 449.4077,-137.5 439.4077,-134.0001 439.4078,-141.0001"/>
</g>
<!-- Node7 -->
<g id="node7" class="node">
<title>Node7</title>
<g id="a_node7"><a xlink:href="class_l_f_s_t_k__gadget_class_af77235e4dc604470c9d62f101238225b.xhtml#af77235e4dc604470c9d62f101238225b" target="_top" xlink:title=" ">
<polygon fill="none" stroke="#000000" points="449.409,-70.5 449.409,-102.5 563.212,-102.5 563.212,-70.5 449.409,-70.5"/>
<text text-anchor="start" x="457.409" y="-89.5" font-family="Helvetica,sans-Serif" font-size="10.00" fill="#000000">LFSTK_gadgetClass::</text>
<text text-anchor="middle" x="506.3105" y="-77.5" font-family="Helvetica,sans-Serif" font-size="10.00" fill="#000000">drawIndicator</text>
</a>
</g>
</g>
<!-- Node3&#45;&gt;Node7 -->
<g id="edge6" class="edge">
<title>Node3&#45;&gt;Node7</title>
<path fill="none" stroke="#191970" d="M403.9061,-121.3633C418.3911,-116.4319 434.4697,-110.958 449.512,-105.8369"/>
<polygon fill="#191970" stroke="#191970" points="450.8818,-109.0679 459.2202,-102.5317 448.6258,-102.4414 450.8818,-109.0679"/>
</g>
<!-- Node8 -->
<g id="node8" class="node">
<title>Node8</title>
<g id="a_node8"><a xlink:href="class_l_f_s_t_k__gadget_class_a7f44f781b167d66c5d6f4cc862a7e2db.xhtml#a7f44f781b167d66c5d6f4cc862a7e2db" target="_top" xlink:title=" ">
<polygon fill="none" stroke="#000000" points="449.409,-19.5 449.409,-51.5 563.212,-51.5 563.212,-19.5 449.409,-19.5"/>
<text text-anchor="start" x="457.409" y="-38.5" font-family="Helvetica,sans-Serif" font-size="10.00" fill="#000000">LFSTK_gadgetClass::</text>
<text text-anchor="middle" x="506.3105" y="-26.5" font-family="Helvetica,sans-Serif" font-size="10.00" fill="#000000">drawLabel</text>
</a>
</g>
</g>
<!-- Node3&#45;&gt;Node8 -->
<g id="edge8" class="edge">
<title>Node3&#45;&gt;Node8</title>
<path fill="none" stroke="#191970" d="M372.877,-121.4985C390.6345,-104.748 420.3527,-78.4356 449.409,-60.5 451.7389,-59.0618 454.1659,-57.6631 456.648,-56.3102"/>
<polygon fill="#191970" stroke="#191970" points="458.4957,-59.2963 465.8012,-51.623 455.305,-53.0658 458.4957,-59.2963"/>
</g>
<!-- Node7&#45;&gt;Node5 -->
<g id="edge7" class="edge">
<title>Node7&#45;&gt;Node5</title>
<path fill="none" stroke="#191970" d="M550.7829,-102.5023C570.1703,-109.4784 593.0739,-117.7196 613.4348,-125.046"/>
<polygon fill="#191970" stroke="#191970" points="612.2987,-128.3568 622.8932,-128.4493 614.6688,-121.7703 612.2987,-128.3568"/>
</g>
<!-- Node9 -->
<g id="node9" class="node">
<title>Node9</title>
<g id="a_node9"><a xlink:href="class_l_f_s_t_k__lib_ab2f14a3414f7db863682d1e2fa0cfb75.xhtml#ab2f14a3414f7db863682d1e2fa0cfb75" target="_top" xlink:title=" ">
<polygon fill="none" stroke="#000000" points="599.212,-51.5 599.212,-71.5 735.788,-71.5 735.788,-51.5 599.212,-51.5"/>
<text text-anchor="middle" x="667.5" y="-58.5" font-family="Helvetica,sans-Serif" font-size="10.00" fill="#000000">LFSTK_lib::bestFontColour</text>
</a>
</g>
</g>
<!-- Node8&#45;&gt;Node9 -->
<g id="edge9" class="edge">
<title>Node8&#45;&gt;Node9</title>
<path fill="none" stroke="#191970" d="M563.5937,-44.7398C573.8798,-46.399 584.7202,-48.1475 595.3617,-49.864"/>
<polygon fill="#191970" stroke="#191970" points="595.0491,-53.3588 605.4789,-51.4959 596.1639,-46.4481 595.0491,-53.3588"/>
</g>
<!-- Node10 -->
<g id="node10" class="node">
<title>Node10</title>
<g id="a_node10"><a xlink:href="class_l_f_s_t_k__gadget_class_a091281ba03eaeb31bc7507c74b9b4f2f.xhtml#a091281ba03eaeb31bc7507c74b9b4f2f" target="_top" xlink:title=" ">
<polygon fill="none" stroke="#000000" points="610.044,-.5 610.044,-32.5 724.956,-32.5 724.956,-.5 610.044,-.5"/>
<text text-anchor="start" x="618.044" y="-19.5" font-family="Helvetica,sans-Serif" font-size="10.00" fill="#000000">LFSTK_gadgetClass::</text>
<text text-anchor="middle" x="667.5" y="-7.5" font-family="Helvetica,sans-Serif" font-size="10.00" fill="#000000">LFSTK_getTextHeight</text>
</a>
</g>
</g>
<!-- Node8&#45;&gt;Node10 -->
<g id="edge10" class="edge">
<title>Node8&#45;&gt;Node10</title>
<path fill="none" stroke="#191970" d="M563.5937,-28.7478C575.3291,-27.3645 587.7859,-25.8962 599.8457,-24.4747"/>
<polygon fill="#191970" stroke="#191970" points="600.3366,-27.9411 609.8581,-23.2945 599.5171,-20.9892 600.3366,-27.9411"/>
</g>
</g>
</svg>
