<?xml version="1.0" encoding="UTF-8" standalone="no"?>
<!DOCTYPE svg PUBLIC "-//W3C//DTD SVG 1.1//EN"
 "http://www.w3.org/Graphics/SVG/1.1/DTD/svg11.dtd">
<!-- Generated by graphviz version 2.40.1 (20161225.0304)
 -->
<!-- Title: LFSTK_toolWindowClass::windowClassInitCommon Pages: 1 -->
<!--zoomable 527 -->
<svg id="main" version="1.1" xmlns="http://www.w3.org/2000/svg" xmlns:xlink="http://www.w3.org/1999/xlink" xml:space="preserve" onload="init(evt)">
<style type="text/css"><![CDATA[
.edge:hover path { stroke: red; }
.edge:hover polygon { stroke: red; fill: red; }
]]></style>
<script type="text/javascript"><![CDATA[
var edges = document.getElementsByTagName('g');
if (edges && edges.length) {
  for (var i=0;i<edges.length;i++) {
    if (edges[i].id.substr(0,4)=='edge') {
      edges[i].setAttribute('class','edge');
    }
  }
}
]]></script>
        <defs>
                <circle id="rim" cx="0" cy="0" r="7"/>
                <circle id="rim2" cx="0" cy="0" r="3.5"/>
                <g id="zoomPlus">
                        <use xlink:href="#rim" fill="#404040">
                                <set attributeName="fill" to="#808080" begin="zoomplus.mouseover" end="zoomplus.mouseout"/>
                        </use>
                        <path d="M-4,0h8M0,-4v8" fill="none" stroke="white" stroke-width="1.5" pointer-events="none"/>
                </g>
                <g id="zoomMin">
                        <use xlink:href="#rim" fill="#404040">
                                <set attributeName="fill" to="#808080" begin="zoomminus.mouseover" end="zoomminus.mouseout"/>
                        </use>
                        <path d="M-4,0h8" fill="none" stroke="white" stroke-width="1.5" pointer-events="none"/>
                </g>
                <g id="dirArrow">
                        <path fill="none" stroke="white" stroke-width="1.5" d="M0,-3.0v7 M-2.5,-0.5L0,-3.0L2.5,-0.5"/>
                </g>
               <g id="resetDef">
                       <use xlink:href="#rim2" fill="#404040">
                               <set attributeName="fill" to="#808080" begin="reset.mouseover" end="reset.mouseout"/>
                       </use>
               </g>
        </defs>

<script type="text/javascript">
var viewWidth = 710;
var viewHeight = 527;
var sectionId = 'dynsection-0';
</script>
<script xlink:href="svgpan.js"/>
<svg id="graph" class="graph">
<g id="viewport">
<title>LFSTK_toolWindowClass::windowClassInitCommon</title>
<!-- Node1 -->
<g id="node1" class="node">
<title>Node1</title>
<g id="a_node1"><a xlink:title=" ">
<polygon fill="#bfbfbf" stroke="#000000" points="0,-229.5 0,-261.5 133.779,-261.5 133.779,-229.5 0,-229.5"/>
<text text-anchor="start" x="8" y="-248.5" font-family="Helvetica,sans-Serif" font-size="10.00" fill="#000000">LFSTK_toolWindowClass</text>
<text text-anchor="middle" x="66.8895" y="-236.5" font-family="Helvetica,sans-Serif" font-size="10.00" fill="#000000">::windowClassInitCommon</text>
</a>
</g>
</g>
<!-- Node2 -->
<g id="node2" class="node">
<title>Node2</title>
<g id="a_node2"><a xlink:href="class_l_f_s_t_k__window_class_a36491159cf4fdc3c5d0909b2195af9ab.xhtml#a36491159cf4fdc3c5d0909b2195af9ab" target="_top" xlink:title=" ">
<polygon fill="none" stroke="#000000" points="195.344,-384.5 195.344,-416.5 311.907,-416.5 311.907,-384.5 195.344,-384.5"/>
<text text-anchor="start" x="203.344" y="-403.5" font-family="Helvetica,sans-Serif" font-size="10.00" fill="#000000">LFSTK_windowClass::</text>
<text text-anchor="middle" x="253.6255" y="-391.5" font-family="Helvetica,sans-Serif" font-size="10.00" fill="#000000">initWindow</text>
</a>
</g>
</g>
<!-- Node1&#45;&gt;Node2 -->
<g id="edge1" class="edge">
<title>Node1&#45;&gt;Node2</title>
<path fill="none" stroke="#191970" d="M76.4963,-261.9221C92.6199,-288.1541 127.5445,-339.5929 169.779,-369.5 175.3955,-373.4771 181.582,-377.0066 187.9725,-380.1241"/>
<polygon fill="#191970" stroke="#191970" points="186.8845,-383.4732 197.4387,-384.4011 189.7668,-377.0941 186.8845,-383.4732"/>
</g>
<!-- Node5 -->
<g id="node5" class="node">
<title>Node5</title>
<g id="a_node5"><a xlink:href="class_l_f_s_t_k__lib_a46aa104681d600dd4eb24549e813b5cc.xhtml#a46aa104681d600dd4eb24549e813b5cc" target="_top" xlink:title=" ">
<polygon fill="none" stroke="#000000" points="544.931,-486.5 544.931,-518.5 692.625,-518.5 692.625,-486.5 544.931,-486.5"/>
<text text-anchor="start" x="552.931" y="-505.5" font-family="Helvetica,sans-Serif" font-size="10.00" fill="#000000">LFSTK_lib::LFSTK_getGlobal</text>
<text text-anchor="middle" x="618.778" y="-493.5" font-family="Helvetica,sans-Serif" font-size="10.00" fill="#000000">String</text>
</a>
</g>
</g>
<!-- Node1&#45;&gt;Node5 -->
<g id="edge8" class="edge">
<title>Node1&#45;&gt;Node5</title>
<path fill="none" stroke="#191970" d="M71.0043,-261.7423C81.071,-297.8875 110.5579,-385.0398 169.779,-426.5 278.6195,-502.6983 438.0512,-511.606 534.7491,-508.7332"/>
<polygon fill="#191970" stroke="#191970" points="534.9016,-512.2301 544.7746,-508.3864 534.6595,-505.2343 534.9016,-512.2301"/>
</g>
<!-- Node7 -->
<g id="node7" class="node">
<title>Node7</title>
<g id="a_node7"><a xlink:href="class_l_f_s_t_k__window_class_a9d54e326ce33b8806f19c9353269e6a8.xhtml#a9d54e326ce33b8806f19c9353269e6a8" target="_top" xlink:title=" ">
<polygon fill="none" stroke="#000000" points="560.4965,-282.5 560.4965,-314.5 677.0595,-314.5 677.0595,-282.5 560.4965,-282.5"/>
<text text-anchor="start" x="568.4965" y="-301.5" font-family="Helvetica,sans-Serif" font-size="10.00" fill="#000000">LFSTK_windowClass::</text>
<text text-anchor="middle" x="618.778" y="-289.5" font-family="Helvetica,sans-Serif" font-size="10.00" fill="#000000">LFSTK_setFontString</text>
</a>
</g>
</g>
<!-- Node1&#45;&gt;Node7 -->
<g id="edge12" class="edge">
<title>Node1&#45;&gt;Node7</title>
<path fill="none" stroke="#191970" d="M78.6687,-261.5084C95.8468,-283.3429 130.0837,-321.4644 169.779,-336.5 237.4613,-362.1364 441.8659,-330.8624 549.9952,-311.5526"/>
<polygon fill="#191970" stroke="#191970" points="550.9296,-314.9406 560.1509,-309.7235 549.6889,-308.0515 550.9296,-314.9406"/>
</g>
<!-- Node9 -->
<g id="node9" class="node">
<title>Node9</title>
<g id="a_node9"><a xlink:href="class_l_f_s_t_k__lib_afb350ab1bd8980ed130637b75244d7b2.xhtml#afb350ab1bd8980ed130637b75244d7b2" target="_top" xlink:title=" ">
<polygon fill="none" stroke="#000000" points="169.779,-306.5 169.779,-326.5 337.472,-326.5 337.472,-306.5 169.779,-306.5"/>
<text text-anchor="middle" x="253.6255" y="-313.5" font-family="Helvetica,sans-Serif" font-size="10.00" fill="#000000">LFSTK_lib::LFSTK_getUseTheme</text>
</a>
</g>
</g>
<!-- Node1&#45;&gt;Node9 -->
<g id="edge9" class="edge">
<title>Node1&#45;&gt;Node9</title>
<path fill="none" stroke="#191970" d="M94.0186,-261.5269C114.305,-272.9308 143.037,-287.8776 169.779,-297.5 176.2898,-299.8427 183.1922,-301.9601 190.1308,-303.8568"/>
<polygon fill="#191970" stroke="#191970" points="189.7237,-307.3664 200.2812,-306.4784 191.4742,-300.5888 189.7237,-307.3664"/>
</g>
<!-- Node10 -->
<g id="node10" class="node">
<title>Node10</title>
<g id="a_node10"><a xlink:href="class_l_f_s_t_k__lib_aa5e46eec51c9f1f2a86ef7e22d6cba5b.xhtml#aa5e46eec51c9f1f2a86ef7e22d6cba5b" target="_top" xlink:title=" ">
<polygon fill="none" stroke="#000000" points="182.5625,-255.5 182.5625,-287.5 324.6885,-287.5 324.6885,-255.5 182.5625,-255.5"/>
<text text-anchor="start" x="190.5625" y="-274.5" font-family="Helvetica,sans-Serif" font-size="10.00" fill="#000000">LFSTK_lib::LFSTK_setCairo</text>
<text text-anchor="middle" x="253.6255" y="-262.5" font-family="Helvetica,sans-Serif" font-size="10.00" fill="#000000">Surface</text>
</a>
</g>
</g>
<!-- Node1&#45;&gt;Node10 -->
<g id="edge10" class="edge">
<title>Node1&#45;&gt;Node10</title>
<path fill="none" stroke="#191970" d="M134.0417,-254.8499C146.4175,-256.573 159.462,-258.3892 172.2046,-260.1634"/>
<polygon fill="#191970" stroke="#191970" points="171.9536,-263.6622 182.3408,-261.5747 172.919,-256.7291 171.9536,-263.6622"/>
</g>
<!-- Node11 -->
<g id="node11" class="node">
<title>Node11</title>
<g id="a_node11"><a xlink:href="class_l_f_s_t_k__window_class_aa7d21cd46a0ac218de3fddc2483a58bb.xhtml#aa7d21cd46a0ac218de3fddc2483a58bb" target="_top" xlink:title=" ">
<polygon fill="none" stroke="#000000" points="195.344,-204.5 195.344,-236.5 311.907,-236.5 311.907,-204.5 195.344,-204.5"/>
<text text-anchor="start" x="203.344" y="-223.5" font-family="Helvetica,sans-Serif" font-size="10.00" fill="#000000">LFSTK_windowClass::</text>
<text text-anchor="middle" x="253.6255" y="-211.5" font-family="Helvetica,sans-Serif" font-size="10.00" fill="#000000">LFSTK_setDecorated</text>
</a>
</g>
</g>
<!-- Node1&#45;&gt;Node11 -->
<g id="edge11" class="edge">
<title>Node1&#45;&gt;Node11</title>
<path fill="none" stroke="#191970" d="M134.0417,-236.5097C150.5803,-234.2956 168.3132,-231.9215 184.924,-229.6977"/>
<polygon fill="#191970" stroke="#191970" points="185.6538,-233.1313 195.1009,-228.3352 184.7249,-226.1932 185.6538,-233.1313"/>
</g>
<!-- Node12 -->
<g id="node12" class="node">
<title>Node12</title>
<g id="a_node12"><a xlink:href="class_l_f_s_t_k__window_class_a636fbd200e6a7f105c67443254872aed.xhtml#a636fbd200e6a7f105c67443254872aed" target="_top" xlink:title=" ">
<polygon fill="none" stroke="#000000" points="195.344,-153.5 195.344,-185.5 311.907,-185.5 311.907,-153.5 195.344,-153.5"/>
<text text-anchor="start" x="203.344" y="-172.5" font-family="Helvetica,sans-Serif" font-size="10.00" fill="#000000">LFSTK_windowClass::</text>
<text text-anchor="middle" x="253.6255" y="-160.5" font-family="Helvetica,sans-Serif" font-size="10.00" fill="#000000">LFSTK_setTile</text>
</a>
</g>
</g>
<!-- Node1&#45;&gt;Node12 -->
<g id="edge13" class="edge">
<title>Node1&#45;&gt;Node12</title>
<path fill="none" stroke="#191970" d="M96,-229.4049C116.2796,-218.6094 144.178,-204.5766 169.779,-194.5 174.8144,-192.5181 180.0721,-190.6036 185.3927,-188.7762"/>
<polygon fill="#191970" stroke="#191970" points="186.6157,-192.0581 195.0033,-185.5852 184.4098,-185.4147 186.6157,-192.0581"/>
</g>
<!-- Node15 -->
<g id="node15" class="node">
<title>Node15</title>
<g id="a_node15"><a xlink:href="class_l_f_s_t_k__window_class_a8038fef8334f815d5ed841ceffb00601.xhtml#a8038fef8334f815d5ed841ceffb00601" target="_top" xlink:title=" ">
<polygon fill="none" stroke="#000000" points="191.729,-102.5 191.729,-134.5 315.522,-134.5 315.522,-102.5 191.729,-102.5"/>
<text text-anchor="start" x="199.729" y="-121.5" font-family="Helvetica,sans-Serif" font-size="10.00" fill="#000000">LFSTK_windowClass::</text>
<text text-anchor="middle" x="253.6255" y="-109.5" font-family="Helvetica,sans-Serif" font-size="10.00" fill="#000000">LFSTK_setWindowType</text>
</a>
</g>
</g>
<!-- Node1&#45;&gt;Node15 -->
<g id="edge16" class="edge">
<title>Node1&#45;&gt;Node15</title>
<path fill="none" stroke="#191970" d="M78.9998,-229.2246C96.5712,-206.7325 131.2725,-166.3425 169.779,-143.5 173.7064,-141.1702 177.8677,-139.0428 182.1538,-137.1025"/>
<polygon fill="#191970" stroke="#191970" points="183.7965,-140.2104 191.6937,-133.1474 181.1157,-133.744 183.7965,-140.2104"/>
</g>
<!-- Node16 -->
<g id="node16" class="node">
<title>Node16</title>
<g id="a_node16"><a xlink:href="class_l_f_s_t_k__window_class_a734d0f96ac656bd7b03e26da1c1db28c.xhtml#a734d0f96ac656bd7b03e26da1c1db28c" target="_top" xlink:title=" ">
<polygon fill="none" stroke="#000000" points="195.344,-51.5 195.344,-83.5 311.907,-83.5 311.907,-51.5 195.344,-51.5"/>
<text text-anchor="start" x="203.344" y="-70.5" font-family="Helvetica,sans-Serif" font-size="10.00" fill="#000000">LFSTK_windowClass::</text>
<text text-anchor="middle" x="253.6255" y="-58.5" font-family="Helvetica,sans-Serif" font-size="10.00" fill="#000000">loadMonitorData</text>
</a>
</g>
</g>
<!-- Node1&#45;&gt;Node16 -->
<g id="edge17" class="edge">
<title>Node1&#45;&gt;Node16</title>
<path fill="none" stroke="#191970" d="M73.2692,-229.3998C86.4626,-198.1897 119.7577,-129.2998 169.779,-92.5 174.6388,-88.9247 180.0089,-85.8571 185.6141,-83.2256"/>
<polygon fill="#191970" stroke="#191970" points="187.3526,-86.2918 195.2204,-79.1961 184.6449,-79.8367 187.3526,-86.2918"/>
</g>
<!-- Node17 -->
<g id="node17" class="node">
<title>Node17</title>
<g id="a_node17"><a xlink:href="class_l_f_s_t_k__window_class_ac8c342109a0f8599f550475cef048745.xhtml#ac8c342109a0f8599f550475cef048745" target="_top" xlink:title=" ">
<polygon fill="none" stroke="#000000" points="195.344,-.5 195.344,-32.5 311.907,-32.5 311.907,-.5 195.344,-.5"/>
<text text-anchor="start" x="203.344" y="-19.5" font-family="Helvetica,sans-Serif" font-size="10.00" fill="#000000">LFSTK_windowClass::</text>
<text text-anchor="middle" x="253.6255" y="-7.5" font-family="Helvetica,sans-Serif" font-size="10.00" fill="#000000">setWindowGeom</text>
</a>
</g>
</g>
<!-- Node1&#45;&gt;Node17 -->
<g id="edge18" class="edge">
<title>Node1&#45;&gt;Node17</title>
<path fill="none" stroke="#191970" d="M70.4205,-229.2487C79.6515,-190.688 108.1741,-93.0445 169.779,-41.5 174.5955,-37.47 180.0432,-34.0897 185.7926,-31.2542"/>
<polygon fill="#191970" stroke="#191970" points="187.2575,-34.4339 195.0282,-27.232 184.4624,-28.0161 187.2575,-34.4339"/>
</g>
<!-- Node3 -->
<g id="node3" class="node">
<title>Node3</title>
<g id="a_node3"><a xlink:href="class_l_f_s_t_k__window_class_aa1cdaa019a010bb17387dd39b6165303.xhtml#aa1cdaa019a010bb17387dd39b6165303" target="_top" xlink:title=" ">
<polygon fill="none" stroke="#000000" points="378.475,-384.5 378.475,-416.5 495.038,-416.5 495.038,-384.5 378.475,-384.5"/>
<text text-anchor="start" x="386.475" y="-403.5" font-family="Helvetica,sans-Serif" font-size="10.00" fill="#000000">LFSTK_windowClass::</text>
<text text-anchor="middle" x="436.7565" y="-391.5" font-family="Helvetica,sans-Serif" font-size="10.00" fill="#000000">loadGlobalColours</text>
</a>
</g>
</g>
<!-- Node2&#45;&gt;Node3 -->
<g id="edge2" class="edge">
<title>Node2&#45;&gt;Node3</title>
<path fill="none" stroke="#191970" d="M312.0728,-400.5C329.9137,-400.5 349.6932,-400.5 368.1436,-400.5"/>
<polygon fill="#191970" stroke="#191970" points="368.2364,-404.0001 378.2363,-400.5 368.2363,-397.0001 368.2364,-404.0001"/>
</g>
<!-- Node4 -->
<g id="node4" class="node">
<title>Node4</title>
<g id="a_node4"><a xlink:href="class_l_f_s_t_k__lib_a24d88a5207e8355d10b788238d981fe6.xhtml#a24d88a5207e8355d10b788238d981fe6" target="_top" xlink:title=" ">
<polygon fill="none" stroke="#000000" points="549.095,-435.5 549.095,-467.5 688.461,-467.5 688.461,-435.5 549.095,-435.5"/>
<text text-anchor="start" x="557.095" y="-454.5" font-family="Helvetica,sans-Serif" font-size="10.00" fill="#000000">LFSTK_lib::LFSTK_getAuto</text>
<text text-anchor="middle" x="618.778" y="-442.5" font-family="Helvetica,sans-Serif" font-size="10.00" fill="#000000">LabelColour</text>
</a>
</g>
</g>
<!-- Node3&#45;&gt;Node4 -->
<g id="edge3" class="edge">
<title>Node3&#45;&gt;Node4</title>
<path fill="none" stroke="#191970" d="M494.3492,-416.6367C512.62,-421.756 532.9775,-427.4598 551.847,-432.7468"/>
<polygon fill="#191970" stroke="#191970" points="550.9864,-436.1404 561.5599,-435.4683 552.8751,-429.4 550.9864,-436.1404"/>
</g>
<!-- Node3&#45;&gt;Node5 -->
<g id="edge4" class="edge">
<title>Node3&#45;&gt;Node5</title>
<path fill="none" stroke="#191970" d="M453.3502,-416.5131C472.0592,-433.7751 504.0593,-460.9901 536.041,-477.5 539.5411,-479.3068 543.1933,-481.006 546.9296,-482.6005"/>
<polygon fill="#191970" stroke="#191970" points="545.7662,-485.9045 556.3517,-486.3505 548.3548,-479.4007 545.7662,-485.9045"/>
</g>
<!-- Node6 -->
<g id="node6" class="node">
<title>Node6</title>
<g id="a_node6"><a xlink:href="class_l_f_s_t_k__window_class_a3a14b82ac1628b75173c5cb37d20926b.xhtml#a3a14b82ac1628b75173c5cb37d20926b" target="_top" xlink:title=" ">
<polygon fill="none" stroke="#000000" points="547.714,-384.5 547.714,-416.5 689.842,-416.5 689.842,-384.5 547.714,-384.5"/>
<text text-anchor="start" x="555.714" y="-403.5" font-family="Helvetica,sans-Serif" font-size="10.00" fill="#000000">LFSTK_windowClass::</text>
<text text-anchor="middle" x="618.778" y="-391.5" font-family="Helvetica,sans-Serif" font-size="10.00" fill="#000000">LFSTK_setFontColourName</text>
</a>
</g>
</g>
<!-- Node3&#45;&gt;Node6 -->
<g id="edge5" class="edge">
<title>Node3&#45;&gt;Node6</title>
<path fill="none" stroke="#191970" d="M495.1003,-400.5C508.5721,-400.5 523.145,-400.5 537.3991,-400.5"/>
<polygon fill="#191970" stroke="#191970" points="537.7017,-404.0001 547.7017,-400.5 537.7017,-397.0001 537.7017,-404.0001"/>
</g>
<!-- Node3&#45;&gt;Node7 -->
<g id="edge6" class="edge">
<title>Node3&#45;&gt;Node7</title>
<path fill="none" stroke="#191970" d="M476.5239,-384.3599C484.7095,-380.1422 492.9774,-375.1629 500.041,-369.5 520.0244,-353.4793 514.9059,-338.9675 536.041,-324.5 540.6225,-321.3638 545.6008,-318.5917 550.7666,-316.1437"/>
<polygon fill="#191970" stroke="#191970" points="552.4172,-319.2439 560.2221,-312.0791 549.6527,-312.8129 552.4172,-319.2439"/>
</g>
<!-- Node8 -->
<g id="node8" class="node">
<title>Node8</title>
<g id="a_node8"><a xlink:href="class_l_f_s_t_k__window_class_a612850c5641e44aea8a2c0b11ad8cd1b.xhtml#a612850c5641e44aea8a2c0b11ad8cd1b" target="_top" xlink:title=" ">
<polygon fill="none" stroke="#000000" points="539.94,-333.5 539.94,-365.5 697.616,-365.5 697.616,-333.5 539.94,-333.5"/>
<text text-anchor="start" x="547.94" y="-352.5" font-family="Helvetica,sans-Serif" font-size="10.00" fill="#000000">LFSTK_windowClass::</text>
<text text-anchor="middle" x="618.778" y="-340.5" font-family="Helvetica,sans-Serif" font-size="10.00" fill="#000000">LFSTK_setWindowColourName</text>
</a>
</g>
</g>
<!-- Node3&#45;&gt;Node8 -->
<g id="edge7" class="edge">
<title>Node3&#45;&gt;Node8</title>
<path fill="none" stroke="#191970" d="M494.3492,-384.3633C512.62,-379.244 532.9775,-373.5402 551.847,-368.2532"/>
<polygon fill="#191970" stroke="#191970" points="552.8751,-371.6 561.5599,-365.5317 550.9864,-364.8596 552.8751,-371.6"/>
</g>
<!-- Node13 -->
<g id="node13" class="node">
<title>Node13</title>
<g id="a_node13"><a xlink:href="class_l_f_s_t_k__lib_ad794f7ab3a4ca5a03adbb0472fa93788.xhtml#ad794f7ab3a4ca5a03adbb0472fa93788" target="_top" xlink:title=" ">
<polygon fill="none" stroke="#000000" points="373.472,-147.5 373.472,-191.5 500.041,-191.5 500.041,-147.5 373.472,-147.5"/>
<text text-anchor="start" x="381.472" y="-178.5" font-family="Helvetica,sans-Serif" font-size="10.00" fill="#000000">LFSTK_lib::LFSTK_cairo</text>
<text text-anchor="start" x="381.472" y="-166.5" font-family="Helvetica,sans-Serif" font-size="10.00" fill="#000000">_image_surface_create</text>
<text text-anchor="middle" x="436.7565" y="-154.5" font-family="Helvetica,sans-Serif" font-size="10.00" fill="#000000">_from_jpeg</text>
</a>
</g>
</g>
<!-- Node12&#45;&gt;Node13 -->
<g id="edge14" class="edge">
<title>Node12&#45;&gt;Node13</title>
<path fill="none" stroke="#191970" d="M312.0728,-169.5C328.1963,-169.5 345.9032,-169.5 362.7815,-169.5"/>
<polygon fill="#191970" stroke="#191970" points="363.162,-173.0001 373.1619,-169.5 363.1619,-166.0001 363.162,-173.0001"/>
</g>
<!-- Node14 -->
<g id="node14" class="node">
<title>Node14</title>
<g id="a_node14"><a xlink:href="class_l_f_s_t_k__lib_a6beac3954823730f63c32a97949db52a.xhtml#a6beac3954823730f63c32a97949db52a" target="_top" xlink:title=" ">
<polygon fill="none" stroke="#000000" points="536.041,-153.5 536.041,-185.5 701.515,-185.5 701.515,-153.5 536.041,-153.5"/>
<text text-anchor="start" x="544.041" y="-172.5" font-family="Helvetica,sans-Serif" font-size="10.00" fill="#000000">LFSTK_lib::cairo_image</text>
<text text-anchor="middle" x="618.778" y="-160.5" font-family="Helvetica,sans-Serif" font-size="10.00" fill="#000000">_surface_create_from_jpeg_mem</text>
</a>
</g>
</g>
<!-- Node13&#45;&gt;Node14 -->
<g id="edge15" class="edge">
<title>Node13&#45;&gt;Node14</title>
<path fill="none" stroke="#191970" d="M500.1633,-169.5C508.4226,-169.5 517.0169,-169.5 525.6367,-169.5"/>
<polygon fill="#191970" stroke="#191970" points="525.7488,-173.0001 535.7488,-169.5 525.7487,-166.0001 525.7488,-173.0001"/>
</g>
</g>
</svg>
        <g id="navigator" transform="translate(0 0)" fill="#404254">
                <rect fill="#f2f5e9" fill-opacity="0.5" stroke="#606060" stroke-width=".5" x="0" y="0" width="60" height="60"/>
                <use id="zoomplus" xlink:href="#zoomPlus" x="17" y="9" onmousedown="handleZoom(evt,'in')"/>
                <use id="zoomminus" xlink:href="#zoomMin" x="42" y="9" onmousedown="handleZoom(evt,'out')"/>
                <use id="reset" xlink:href="#resetDef" x="30" y="36" onmousedown="handleReset()"/>
                <g id="arrowUp" xlink:href="#dirArrow" transform="translate(30 24)" onmousedown="handlePan(0,-1)">
                  <use xlink:href="#rim" fill="#404040">
                        <set attributeName="fill" to="#808080" begin="arrowUp.mouseover" end="arrowUp.mouseout"/>
                  </use>
                  <path fill="none" stroke="white" stroke-width="1.5" d="M0,-3.0v7 M-2.5,-0.5L0,-3.0L2.5,-0.5"/>
                </g>
                <g id="arrowRight" xlink:href="#dirArrow" transform="rotate(90) translate(36 -43)" onmousedown="handlePan(1,0)">
                  <use xlink:href="#rim" fill="#404040">
                        <set attributeName="fill" to="#808080" begin="arrowRight.mouseover" end="arrowRight.mouseout"/>
                  </use>
                  <path fill="none" stroke="white" stroke-width="1.5" d="M0,-3.0v7 M-2.5,-0.5L0,-3.0L2.5,-0.5"/>
                </g>
                <g id="arrowDown" xlink:href="#dirArrow" transform="rotate(180) translate(-30 -48)" onmousedown="handlePan(0,1)">
                  <use xlink:href="#rim" fill="#404040">
                        <set attributeName="fill" to="#808080" begin="arrowDown.mouseover" end="arrowDown.mouseout"/>
                  </use>
                  <path fill="none" stroke="white" stroke-width="1.5" d="M0,-3.0v7 M-2.5,-0.5L0,-3.0L2.5,-0.5"/>
                </g>
                <g id="arrowLeft" xlink:href="#dirArrow" transform="rotate(270) translate(-36 17)" onmousedown="handlePan(-1,0)">
                  <use xlink:href="#rim" fill="#404040">
                        <set attributeName="fill" to="#808080" begin="arrowLeft.mouseover" end="arrowLeft.mouseout"/>
                  </use>
                  <path fill="none" stroke="white" stroke-width="1.5" d="M0,-3.0v7 M-2.5,-0.5L0,-3.0L2.5,-0.5"/>
                </g>
        </g>
        <svg viewBox="0 0 15 15" width="100%" height="30px" preserveAspectRatio="xMaxYMin meet">
         <g id="arrow_out" transform="scale(0.3 0.3)">
          <a xlink:href="class_l_f_s_t_k__tool_window_class_a230084a0461e204e39cea42ad1f10301_a230084a0461e204e39cea42ad1f10301_cgraph_org.svg" target="_base">
           <rect id="button" ry="5" rx="5" y="6" x="6" height="38" width="38"
                fill="#f2f5e9" fill-opacity="0.5" stroke="#606060" stroke-width="1.0"/>
           <path id="arrow"
             d="M 11.500037,31.436501 C 11.940474,20.09759 22.043105,11.32322 32.158766,21.979434 L 37.068811,17.246167 C 37.068811,17.246167 37.088388,32 37.088388,32 L 22.160133,31.978069 C 22.160133,31.978069 26.997745,27.140456 26.997745,27.140456 C 18.528582,18.264221 13.291696,25.230495 11.500037,31.436501 z"
             style="fill:#404040;"/>
          </a>
         </g>
        </svg>
</svg>
