<?xml version="1.0" encoding="UTF-8" standalone="no"?>
<!DOCTYPE svg PUBLIC "-//W3C//DTD SVG 1.1//EN"
 "http://www.w3.org/Graphics/SVG/1.1/DTD/svg11.dtd">
<!-- Generated by graphviz version 2.40.1 (20161225.0304)
 -->
<!-- Title: LFSTK_listGadgetClass::mouseUp Pages: 1 -->
<!--zoomable 252 -->
<svg id="main" version="1.1" xmlns="http://www.w3.org/2000/svg" xmlns:xlink="http://www.w3.org/1999/xlink" xml:space="preserve" onload="init(evt)">
<style type="text/css"><![CDATA[
.edge:hover path { stroke: red; }
.edge:hover polygon { stroke: red; fill: red; }
]]></style>
<script type="text/javascript"><![CDATA[
var edges = document.getElementsByTagName('g');
if (edges && edges.length) {
  for (var i=0;i<edges.length;i++) {
    if (edges[i].id.substr(0,4)=='edge') {
      edges[i].setAttribute('class','edge');
    }
  }
}
]]></script>
        <defs>
                <circle id="rim" cx="0" cy="0" r="7"/>
                <circle id="rim2" cx="0" cy="0" r="3.5"/>
                <g id="zoomPlus">
                        <use xlink:href="#rim" fill="#404040">
                                <set attributeName="fill" to="#808080" begin="zoomplus.mouseover" end="zoomplus.mouseout"/>
                        </use>
                        <path d="M-4,0h8M0,-4v8" fill="none" stroke="white" stroke-width="1.5" pointer-events="none"/>
                </g>
                <g id="zoomMin">
                        <use xlink:href="#rim" fill="#404040">
                                <set attributeName="fill" to="#808080" begin="zoomminus.mouseover" end="zoomminus.mouseout"/>
                        </use>
                        <path d="M-4,0h8" fill="none" stroke="white" stroke-width="1.5" pointer-events="none"/>
                </g>
                <g id="dirArrow">
                        <path fill="none" stroke="white" stroke-width="1.5" d="M0,-3.0v7 M-2.5,-0.5L0,-3.0L2.5,-0.5"/>
                </g>
               <g id="resetDef">
                       <use xlink:href="#rim2" fill="#404040">
                               <set attributeName="fill" to="#808080" begin="reset.mouseover" end="reset.mouseout"/>
                       </use>
               </g>
        </defs>

<script type="text/javascript">
var viewWidth = 1513;
var viewHeight = 252;
var sectionId = 'dynsection-0';
</script>
<script xlink:href="svgpan.js"/>
<svg id="graph" class="graph">
<g id="viewport">
<title>LFSTK_listGadgetClass::mouseUp</title>
<!-- Node1 -->
<g id="node1" class="node">
<title>Node1</title>
<g id="a_node1"><a xlink:title=" ">
<polygon fill="#bfbfbf" stroke="#000000" points="0,-157.5 0,-189.5 122.682,-189.5 122.682,-157.5 0,-157.5"/>
<text text-anchor="start" x="8" y="-176.5" font-family="Helvetica,sans-Serif" font-size="10.00" fill="#000000">LFSTK_listGadgetClass</text>
<text text-anchor="middle" x="61.341" y="-164.5" font-family="Helvetica,sans-Serif" font-size="10.00" fill="#000000">::mouseUp</text>
</a>
</g>
</g>
<!-- Node2 -->
<g id="node2" class="node">
<title>Node2</title>
<g id="a_node2"><a xlink:href="class_l_f_s_t_k__scroll_bar_class_a690ed010fb6760b5ee112df392076df5.xhtml#a690ed010fb6760b5ee112df392076df5" target="_top" xlink:title=" ">
<polygon fill="none" stroke="#000000" points="158.682,-157.5 158.682,-189.5 275.236,-189.5 275.236,-157.5 158.682,-157.5"/>
<text text-anchor="start" x="166.682" y="-176.5" font-family="Helvetica,sans-Serif" font-size="10.00" fill="#000000">LFSTK_scrollBarClass</text>
<text text-anchor="middle" x="216.959" y="-164.5" font-family="Helvetica,sans-Serif" font-size="10.00" fill="#000000">::LFSTK_scrollByLine</text>
</a>
</g>
</g>
<!-- Node1&#45;&gt;Node2 -->
<g id="edge1" class="edge">
<title>Node1&#45;&gt;Node2</title>
<path fill="none" stroke="#191970" d="M122.8454,-173.5C131.1804,-173.5 139.7768,-173.5 148.2284,-173.5"/>
<polygon fill="#191970" stroke="#191970" points="148.4383,-177.0001 158.4383,-173.5 148.4383,-170.0001 148.4383,-177.0001"/>
</g>
<!-- Node3 -->
<g id="node3" class="node">
<title>Node3</title>
<g id="a_node3"><a xlink:href="class_l_f_s_t_k__scroll_bar_class_aa1ce7f61248cfa6eeef3e8573e327d8f.xhtml#aa1ce7f61248cfa6eeef3e8573e327d8f" target="_top" xlink:title=" ">
<polygon fill="none" stroke="#000000" points="311.236,-157.5 311.236,-189.5 427.79,-189.5 427.79,-157.5 311.236,-157.5"/>
<text text-anchor="start" x="319.236" y="-176.5" font-family="Helvetica,sans-Serif" font-size="10.00" fill="#000000">LFSTK_scrollBarClass</text>
<text text-anchor="middle" x="369.513" y="-164.5" font-family="Helvetica,sans-Serif" font-size="10.00" fill="#000000">::lineUpDown</text>
</a>
</g>
</g>
<!-- Node2&#45;&gt;Node3 -->
<g id="edge2" class="edge">
<title>Node2&#45;&gt;Node3</title>
<path fill="none" stroke="#191970" d="M275.5041,-173.5C283.8075,-173.5 292.4077,-173.5 300.8808,-173.5"/>
<polygon fill="#191970" stroke="#191970" points="301.1246,-177.0001 311.1246,-173.5 301.1246,-170.0001 301.1246,-177.0001"/>
</g>
<!-- Node4 -->
<g id="node4" class="node">
<title>Node4</title>
<g id="a_node4"><a xlink:href="class_l_f_s_t_k__scroll_bar_class_a3e47c5f9944ddb2a861b80853f85ce12.xhtml#a3e47c5f9944ddb2a861b80853f85ce12" target="_top" xlink:title=" ">
<polygon fill="none" stroke="#000000" points="463.79,-157.5 463.79,-189.5 580.344,-189.5 580.344,-157.5 463.79,-157.5"/>
<text text-anchor="start" x="471.79" y="-176.5" font-family="Helvetica,sans-Serif" font-size="10.00" fill="#000000">LFSTK_scrollBarClass</text>
<text text-anchor="middle" x="522.067" y="-164.5" font-family="Helvetica,sans-Serif" font-size="10.00" fill="#000000">::setState</text>
</a>
</g>
</g>
<!-- Node3&#45;&gt;Node4 -->
<g id="edge3" class="edge">
<title>Node3&#45;&gt;Node4</title>
<path fill="none" stroke="#191970" d="M428.0581,-173.5C436.3615,-173.5 444.9617,-173.5 453.4348,-173.5"/>
<polygon fill="#191970" stroke="#191970" points="453.6786,-177.0001 463.6786,-173.5 453.6786,-170.0001 453.6786,-177.0001"/>
</g>
<!-- Node5 -->
<g id="node5" class="node">
<title>Node5</title>
<g id="a_node5"><a xlink:href="class_l_f_s_t_k__scroll_bar_class_a6a4b0d2c9217779bb3bc0b4c936130ce.xhtml#a6a4b0d2c9217779bb3bc0b4c936130ce" target="_top" xlink:title=" ">
<polygon fill="none" stroke="#000000" points="766.1515,-211.5 766.1515,-243.5 882.7055,-243.5 882.7055,-211.5 766.1515,-211.5"/>
<text text-anchor="start" x="774.1515" y="-230.5" font-family="Helvetica,sans-Serif" font-size="10.00" fill="#000000">LFSTK_scrollBarClass</text>
<text text-anchor="middle" x="824.4285" y="-218.5" font-family="Helvetica,sans-Serif" font-size="10.00" fill="#000000">::LFSTK_clearWindow</text>
</a>
</g>
</g>
<!-- Node4&#45;&gt;Node5 -->
<g id="edge4" class="edge">
<title>Node4&#45;&gt;Node5</title>
<path fill="none" stroke="#191970" d="M580.3587,-182.0863C592.1978,-185.0576 604.6161,-188.1052 616.344,-190.5 662.4379,-199.9121 714.9436,-206.9507 755.6806,-212.77"/>
<polygon fill="#191970" stroke="#191970" points="755.3759,-216.2621 765.7728,-214.2239 756.374,-209.3336 755.3759,-216.2621"/>
</g>
<!-- Node15 -->
<g id="node15" class="node">
<title>Node15</title>
<g id="a_node15"><a xlink:href="class_l_f_s_t_k__gadget_class_a71d34233c5db545e92d37c0e3139459b.xhtml#a71d34233c5db545e92d37c0e3139459b" target="_top" xlink:title=" ">
<polygon fill="none" stroke="#000000" points="616.344,-157.5 616.344,-189.5 730.147,-189.5 730.147,-157.5 616.344,-157.5"/>
<text text-anchor="start" x="624.344" y="-176.5" font-family="Helvetica,sans-Serif" font-size="10.00" fill="#000000">LFSTK_gadgetClass::</text>
<text text-anchor="middle" x="673.2455" y="-164.5" font-family="Helvetica,sans-Serif" font-size="10.00" fill="#000000">LFSTK_getGeom</text>
</a>
</g>
</g>
<!-- Node4&#45;&gt;Node15 -->
<g id="edge17" class="edge">
<title>Node4&#45;&gt;Node15</title>
<path fill="none" stroke="#191970" d="M580.5166,-173.5C588.7865,-173.5 597.3454,-173.5 605.7684,-173.5"/>
<polygon fill="#191970" stroke="#191970" points="605.9466,-177.0001 615.9466,-173.5 605.9465,-170.0001 605.9466,-177.0001"/>
</g>
<!-- Node16 -->
<g id="node16" class="node">
<title>Node16</title>
<g id="a_node16"><a xlink:href="class_l_f_s_t_k__gadget_class_aeeb028f96b71fa161ec195880106a936.xhtml#aeeb028f96b71fa161ec195880106a936" target="_top" xlink:title=" ">
<polygon fill="none" stroke="#000000" points="616.344,-106.5 616.344,-138.5 730.147,-138.5 730.147,-106.5 616.344,-106.5"/>
<text text-anchor="start" x="624.344" y="-125.5" font-family="Helvetica,sans-Serif" font-size="10.00" fill="#000000">LFSTK_gadgetClass::</text>
<text text-anchor="middle" x="673.2455" y="-113.5" font-family="Helvetica,sans-Serif" font-size="10.00" fill="#000000">LFSTK_getLimits</text>
</a>
</g>
</g>
<!-- Node4&#45;&gt;Node16 -->
<g id="edge18" class="edge">
<title>Node4&#45;&gt;Node16</title>
<path fill="none" stroke="#191970" d="M569.9008,-157.3633C584.5188,-152.4319 600.745,-146.958 615.9255,-141.8369"/>
<polygon fill="#191970" stroke="#191970" points="617.3663,-145.0447 625.7229,-138.5317 615.1287,-138.4119 617.3663,-145.0447"/>
</g>
<!-- Node17 -->
<g id="node17" class="node">
<title>Node17</title>
<g id="a_node17"><a xlink:href="class_l_f_s_t_k__gadget_class_a7e3ef253af08c0796f73de1366cf2d08.xhtml#a7e3ef253af08c0796f73de1366cf2d08" target="_top" xlink:title=" ">
<polygon fill="none" stroke="#000000" points="616.344,-55.5 616.344,-87.5 730.147,-87.5 730.147,-55.5 616.344,-55.5"/>
<text text-anchor="start" x="624.344" y="-74.5" font-family="Helvetica,sans-Serif" font-size="10.00" fill="#000000">LFSTK_gadgetClass::</text>
<text text-anchor="middle" x="673.2455" y="-62.5" font-family="Helvetica,sans-Serif" font-size="10.00" fill="#000000">LFSTK_moveGadget</text>
</a>
</g>
</g>
<!-- Node4&#45;&gt;Node17 -->
<g id="edge19" class="edge">
<title>Node4&#45;&gt;Node17</title>
<path fill="none" stroke="#191970" d="M539.0559,-157.2101C557.1491,-140.4635 587.1471,-114.3774 616.344,-96.5 618.8027,-94.9945 621.368,-93.531 623.9909,-92.117"/>
<polygon fill="#191970" stroke="#191970" points="625.7279,-95.1604 633.0591,-87.5117 622.5582,-88.9192 625.7279,-95.1604"/>
</g>
<!-- Node5&#45;&gt;Node4 -->
<g id="edge16" class="edge">
<title>Node5&#45;&gt;Node4</title>
<path fill="none" stroke="#191970" d="M765.7728,-229.2799C723.889,-226.1266 666.3442,-218.7098 616.344,-208.5 597.1536,-204.5814 576.1145,-198.9149 558.7897,-193.0479"/>
<polygon fill="#191970" stroke="#191970" points="559.655,-189.6407 549.0603,-189.582 557.3059,-196.2348 559.655,-189.6407"/>
</g>
<!-- Node6 -->
<g id="node6" class="node">
<title>Node6</title>
<g id="a_node6"><a xlink:href="class_l_f_s_t_k__gadget_class_a37d96aab3c59cb97fca1720441e3fc8e.xhtml#a37d96aab3c59cb97fca1720441e3fc8e" target="_top" xlink:title=" ">
<polygon fill="none" stroke="#000000" points="1218.316,-211.5 1218.316,-243.5 1332.119,-243.5 1332.119,-211.5 1218.316,-211.5"/>
<text text-anchor="start" x="1226.316" y="-230.5" font-family="Helvetica,sans-Serif" font-size="10.00" fill="#000000">LFSTK_gadgetClass::</text>
<text text-anchor="middle" x="1275.2175" y="-218.5" font-family="Helvetica,sans-Serif" font-size="10.00" fill="#000000">clearBox</text>
</a>
</g>
</g>
<!-- Node5&#45;&gt;Node6 -->
<g id="edge5" class="edge">
<title>Node5&#45;&gt;Node6</title>
<path fill="none" stroke="#191970" d="M882.8991,-227.5C966.5405,-227.5 1119.9527,-227.5 1208.1152,-227.5"/>
<polygon fill="#191970" stroke="#191970" points="1208.2721,-231.0001 1218.272,-227.5 1208.272,-224.0001 1208.2721,-231.0001"/>
</g>
<!-- Node7 -->
<g id="node7" class="node">
<title>Node7</title>
<g id="a_node7"><a xlink:href="class_l_f_s_t_k__gadget_class_aa5b5f301fe9b0a4d7679f786da7462ba.xhtml#aa5b5f301fe9b0a4d7679f786da7462ba" target="_top" xlink:title=" ">
<polygon fill="none" stroke="#000000" points="918.71,-121.5 918.71,-153.5 1032.513,-153.5 1032.513,-121.5 918.71,-121.5"/>
<text text-anchor="start" x="926.71" y="-140.5" font-family="Helvetica,sans-Serif" font-size="10.00" fill="#000000">LFSTK_gadgetClass::</text>
<text text-anchor="middle" x="975.6115" y="-128.5" font-family="Helvetica,sans-Serif" font-size="10.00" fill="#000000">LFSTK_clearWindow</text>
</a>
</g>
</g>
<!-- Node5&#45;&gt;Node7 -->
<g id="edge6" class="edge">
<title>Node5&#45;&gt;Node7</title>
<path fill="none" stroke="#191970" d="M851.457,-211.4098C876.1041,-196.7373 912.6963,-174.9538 939.775,-158.8336"/>
<polygon fill="#191970" stroke="#191970" points="941.7602,-161.7251 948.5626,-153.6024 938.1795,-155.7102 941.7602,-161.7251"/>
</g>
<!-- Node8 -->
<g id="node8" class="node">
<title>Node8</title>
<g id="a_node8"><a xlink:href="class_l_f_s_t_k__gadget_class_a66b92f213e5a7e75da3f707b511342ea.xhtml#a66b92f213e5a7e75da3f707b511342ea" target="_top" xlink:title=" ">
<polygon fill="none" stroke="#000000" points="1068.513,-121.5 1068.513,-153.5 1182.316,-153.5 1182.316,-121.5 1068.513,-121.5"/>
<text text-anchor="start" x="1076.513" y="-140.5" font-family="Helvetica,sans-Serif" font-size="10.00" fill="#000000">LFSTK_gadgetClass::</text>
<text text-anchor="middle" x="1125.4145" y="-128.5" font-family="Helvetica,sans-Serif" font-size="10.00" fill="#000000">drawGagetDetails</text>
</a>
</g>
</g>
<!-- Node7&#45;&gt;Node8 -->
<g id="edge7" class="edge">
<title>Node7&#45;&gt;Node8</title>
<path fill="none" stroke="#191970" d="M1032.6729,-137.5C1041.1119,-137.5 1049.8716,-137.5 1058.4889,-137.5"/>
<polygon fill="#191970" stroke="#191970" points="1058.5118,-141.0001 1068.5117,-137.5 1058.5117,-134.0001 1058.5118,-141.0001"/>
</g>
<!-- Node8&#45;&gt;Node6 -->
<g id="edge8" class="edge">
<title>Node8&#45;&gt;Node6</title>
<path fill="none" stroke="#191970" d="M1149.977,-153.7326C1168.5454,-165.8483 1194.7744,-182.6328 1218.316,-196.5 1223.9137,-199.7973 1229.8816,-203.1846 1235.7677,-206.4533"/>
<polygon fill="#191970" stroke="#191970" points="1234.4354,-209.7148 1244.8851,-211.4625 1237.8061,-203.5797 1234.4354,-209.7148"/>
</g>
<!-- Node9 -->
<g id="node9" class="node">
<title>Node9</title>
<g id="a_node9"><a xlink:href="class_l_f_s_t_k__gadget_class_ab76db165a19af248b5e94e95492dc879.xhtml#ab76db165a19af248b5e94e95492dc879" target="_top" xlink:title=" ">
<polygon fill="none" stroke="#000000" points="1379.5055,-128.5 1379.5055,-160.5 1493.3085,-160.5 1493.3085,-128.5 1379.5055,-128.5"/>
<text text-anchor="start" x="1387.5055" y="-147.5" font-family="Helvetica,sans-Serif" font-size="10.00" fill="#000000">LFSTK_gadgetClass::</text>
<text text-anchor="middle" x="1436.407" y="-135.5" font-family="Helvetica,sans-Serif" font-size="10.00" fill="#000000">drawBevel</text>
</a>
</g>
</g>
<!-- Node8&#45;&gt;Node9 -->
<g id="edge9" class="edge">
<title>Node8&#45;&gt;Node9</title>
<path fill="none" stroke="#191970" d="M1173.1053,-153.5327C1187.4668,-157.6275 1203.3825,-161.4497 1218.316,-163.5 1268.425,-170.3797 1281.7451,-168.0513 1332.119,-163.5 1344.1474,-162.4132 1356.862,-160.6351 1369.1207,-158.5914"/>
<polygon fill="#191970" stroke="#191970" points="1370.0342,-161.9851 1379.2857,-156.8217 1368.8335,-155.0889 1370.0342,-161.9851"/>
</g>
<!-- Node10 -->
<g id="node10" class="node">
<title>Node10</title>
<g id="a_node10"><a xlink:href="class_l_f_s_t_k__gadget_class_af5386ffc4699273f6c53a920fc8b2f1d.xhtml#af5386ffc4699273f6c53a920fc8b2f1d" target="_top" xlink:title=" ">
<polygon fill="none" stroke="#000000" points="1218.316,-121.5 1218.316,-153.5 1332.119,-153.5 1332.119,-121.5 1218.316,-121.5"/>
<text text-anchor="start" x="1226.316" y="-140.5" font-family="Helvetica,sans-Serif" font-size="10.00" fill="#000000">LFSTK_gadgetClass::</text>
<text text-anchor="middle" x="1275.2175" y="-128.5" font-family="Helvetica,sans-Serif" font-size="10.00" fill="#000000">drawImage</text>
</a>
</g>
</g>
<!-- Node8&#45;&gt;Node10 -->
<g id="edge10" class="edge">
<title>Node8&#45;&gt;Node10</title>
<path fill="none" stroke="#191970" d="M1182.4759,-137.5C1190.9149,-137.5 1199.6746,-137.5 1208.2919,-137.5"/>
<polygon fill="#191970" stroke="#191970" points="1208.3148,-141.0001 1218.3147,-137.5 1208.3147,-134.0001 1208.3148,-141.0001"/>
</g>
<!-- Node11 -->
<g id="node11" class="node">
<title>Node11</title>
<g id="a_node11"><a xlink:href="class_l_f_s_t_k__gadget_class_af77235e4dc604470c9d62f101238225b.xhtml#af77235e4dc604470c9d62f101238225b" target="_top" xlink:title=" ">
<polygon fill="none" stroke="#000000" points="1218.316,-70.5 1218.316,-102.5 1332.119,-102.5 1332.119,-70.5 1218.316,-70.5"/>
<text text-anchor="start" x="1226.316" y="-89.5" font-family="Helvetica,sans-Serif" font-size="10.00" fill="#000000">LFSTK_gadgetClass::</text>
<text text-anchor="middle" x="1275.2175" y="-77.5" font-family="Helvetica,sans-Serif" font-size="10.00" fill="#000000">drawIndicator</text>
</a>
</g>
</g>
<!-- Node8&#45;&gt;Node11 -->
<g id="edge11" class="edge">
<title>Node8&#45;&gt;Node11</title>
<path fill="none" stroke="#191970" d="M1172.8131,-121.3633C1187.2981,-116.4319 1203.3767,-110.958 1218.419,-105.8369"/>
<polygon fill="#191970" stroke="#191970" points="1219.7888,-109.0679 1228.1272,-102.5317 1217.5328,-102.4414 1219.7888,-109.0679"/>
</g>
<!-- Node12 -->
<g id="node12" class="node">
<title>Node12</title>
<g id="a_node12"><a xlink:href="class_l_f_s_t_k__gadget_class_a7f44f781b167d66c5d6f4cc862a7e2db.xhtml#a7f44f781b167d66c5d6f4cc862a7e2db" target="_top" xlink:title=" ">
<polygon fill="none" stroke="#000000" points="1218.316,-19.5 1218.316,-51.5 1332.119,-51.5 1332.119,-19.5 1218.316,-19.5"/>
<text text-anchor="start" x="1226.316" y="-38.5" font-family="Helvetica,sans-Serif" font-size="10.00" fill="#000000">LFSTK_gadgetClass::</text>
<text text-anchor="middle" x="1275.2175" y="-26.5" font-family="Helvetica,sans-Serif" font-size="10.00" fill="#000000">drawLabel</text>
</a>
</g>
</g>
<!-- Node8&#45;&gt;Node12 -->
<g id="edge13" class="edge">
<title>Node8&#45;&gt;Node12</title>
<path fill="none" stroke="#191970" d="M1141.784,-121.4985C1159.5415,-104.748 1189.2597,-78.4356 1218.316,-60.5 1220.6459,-59.0618 1223.0729,-57.6631 1225.555,-56.3102"/>
<polygon fill="#191970" stroke="#191970" points="1227.4027,-59.2963 1234.7082,-51.623 1224.212,-53.0658 1227.4027,-59.2963"/>
</g>
<!-- Node11&#45;&gt;Node9 -->
<g id="edge12" class="edge">
<title>Node11&#45;&gt;Node9</title>
<path fill="none" stroke="#191970" d="M1319.6899,-102.5023C1339.0773,-109.4784 1361.9809,-117.7196 1382.3418,-125.046"/>
<polygon fill="#191970" stroke="#191970" points="1381.2057,-128.3568 1391.8002,-128.4493 1383.5758,-121.7703 1381.2057,-128.3568"/>
</g>
<!-- Node13 -->
<g id="node13" class="node">
<title>Node13</title>
<g id="a_node13"><a xlink:href="class_l_f_s_t_k__lib_ab2f14a3414f7db863682d1e2fa0cfb75.xhtml#ab2f14a3414f7db863682d1e2fa0cfb75" target="_top" xlink:title=" ">
<polygon fill="none" stroke="#000000" points="1368.119,-51.5 1368.119,-71.5 1504.695,-71.5 1504.695,-51.5 1368.119,-51.5"/>
<text text-anchor="middle" x="1436.407" y="-58.5" font-family="Helvetica,sans-Serif" font-size="10.00" fill="#000000">LFSTK_lib::bestFontColour</text>
</a>
</g>
</g>
<!-- Node12&#45;&gt;Node13 -->
<g id="edge14" class="edge">
<title>Node12&#45;&gt;Node13</title>
<path fill="none" stroke="#191970" d="M1332.5007,-44.7398C1342.7868,-46.399 1353.6272,-48.1475 1364.2687,-49.864"/>
<polygon fill="#191970" stroke="#191970" points="1363.9561,-53.3588 1374.3859,-51.4959 1365.0709,-46.4481 1363.9561,-53.3588"/>
</g>
<!-- Node14 -->
<g id="node14" class="node">
<title>Node14</title>
<g id="a_node14"><a xlink:href="class_l_f_s_t_k__gadget_class_a091281ba03eaeb31bc7507c74b9b4f2f.xhtml#a091281ba03eaeb31bc7507c74b9b4f2f" target="_top" xlink:title=" ">
<polygon fill="none" stroke="#000000" points="1378.951,-.5 1378.951,-32.5 1493.863,-32.5 1493.863,-.5 1378.951,-.5"/>
<text text-anchor="start" x="1386.951" y="-19.5" font-family="Helvetica,sans-Serif" font-size="10.00" fill="#000000">LFSTK_gadgetClass::</text>
<text text-anchor="middle" x="1436.407" y="-7.5" font-family="Helvetica,sans-Serif" font-size="10.00" fill="#000000">LFSTK_getTextHeight</text>
</a>
</g>
</g>
<!-- Node12&#45;&gt;Node14 -->
<g id="edge15" class="edge">
<title>Node12&#45;&gt;Node14</title>
<path fill="none" stroke="#191970" d="M1332.5007,-28.7478C1344.2361,-27.3645 1356.6929,-25.8962 1368.7527,-24.4747"/>
<polygon fill="#191970" stroke="#191970" points="1369.2436,-27.9411 1378.7651,-23.2945 1368.4241,-20.9892 1369.2436,-27.9411"/>
</g>
<!-- Node18 -->
<g id="node18" class="node">
<title>Node18</title>
<g id="a_node18"><a xlink:href="class_l_f_s_t_k__window_class_ac3b5b99b3a018cce7c631df39db76be1.xhtml#ac3b5b99b3a018cce7c631df39db76be1" target="_top" xlink:title=" ">
<polygon fill="none" stroke="#000000" points="766.147,-88.5 766.147,-120.5 882.71,-120.5 882.71,-88.5 766.147,-88.5"/>
<text text-anchor="start" x="774.147" y="-107.5" font-family="Helvetica,sans-Serif" font-size="10.00" fill="#000000">LFSTK_windowClass::</text>
<text text-anchor="middle" x="824.4285" y="-95.5" font-family="Helvetica,sans-Serif" font-size="10.00" fill="#000000">LFSTK_clearWindow</text>
</a>
</g>
</g>
<!-- Node17&#45;&gt;Node18 -->
<g id="edge20" class="edge">
<title>Node17&#45;&gt;Node18</title>
<path fill="none" stroke="#191970" d="M730.4013,-83.9759C738.7553,-85.7994 747.4291,-87.6927 755.98,-89.5592"/>
<polygon fill="#191970" stroke="#191970" points="755.4186,-93.019 765.935,-91.7321 756.9114,-86.18 755.4186,-93.019"/>
</g>
<!-- Node18&#45;&gt;Node7 -->
<g id="edge21" class="edge">
<title>Node18&#45;&gt;Node7</title>
<path fill="none" stroke="#191970" d="M882.8798,-117.2587C891.2409,-119.0837 899.8973,-120.9732 908.41,-122.8314"/>
<polygon fill="#191970" stroke="#191970" points="907.7945,-126.2793 918.3109,-124.9925 909.2873,-119.4404 907.7945,-126.2793"/>
</g>
</g>
</svg>
        <g id="navigator" transform="translate(0 0)" fill="#404254">
                <rect fill="#f2f5e9" fill-opacity="0.5" stroke="#606060" stroke-width=".5" x="0" y="0" width="60" height="60"/>
                <use id="zoomplus" xlink:href="#zoomPlus" x="17" y="9" onmousedown="handleZoom(evt,'in')"/>
                <use id="zoomminus" xlink:href="#zoomMin" x="42" y="9" onmousedown="handleZoom(evt,'out')"/>
                <use id="reset" xlink:href="#resetDef" x="30" y="36" onmousedown="handleReset()"/>
                <g id="arrowUp" xlink:href="#dirArrow" transform="translate(30 24)" onmousedown="handlePan(0,-1)">
                  <use xlink:href="#rim" fill="#404040">
                        <set attributeName="fill" to="#808080" begin="arrowUp.mouseover" end="arrowUp.mouseout"/>
                  </use>
                  <path fill="none" stroke="white" stroke-width="1.5" d="M0,-3.0v7 M-2.5,-0.5L0,-3.0L2.5,-0.5"/>
                </g>
                <g id="arrowRight" xlink:href="#dirArrow" transform="rotate(90) translate(36 -43)" onmousedown="handlePan(1,0)">
                  <use xlink:href="#rim" fill="#404040">
                        <set attributeName="fill" to="#808080" begin="arrowRight.mouseover" end="arrowRight.mouseout"/>
                  </use>
                  <path fill="none" stroke="white" stroke-width="1.5" d="M0,-3.0v7 M-2.5,-0.5L0,-3.0L2.5,-0.5"/>
                </g>
                <g id="arrowDown" xlink:href="#dirArrow" transform="rotate(180) translate(-30 -48)" onmousedown="handlePan(0,1)">
                  <use xlink:href="#rim" fill="#404040">
                        <set attributeName="fill" to="#808080" begin="arrowDown.mouseover" end="arrowDown.mouseout"/>
                  </use>
                  <path fill="none" stroke="white" stroke-width="1.5" d="M0,-3.0v7 M-2.5,-0.5L0,-3.0L2.5,-0.5"/>
                </g>
                <g id="arrowLeft" xlink:href="#dirArrow" transform="rotate(270) translate(-36 17)" onmousedown="handlePan(-1,0)">
                  <use xlink:href="#rim" fill="#404040">
                        <set attributeName="fill" to="#808080" begin="arrowLeft.mouseover" end="arrowLeft.mouseout"/>
                  </use>
                  <path fill="none" stroke="white" stroke-width="1.5" d="M0,-3.0v7 M-2.5,-0.5L0,-3.0L2.5,-0.5"/>
                </g>
        </g>
        <svg viewBox="0 0 15 15" width="100%" height="30px" preserveAspectRatio="xMaxYMin meet">
         <g id="arrow_out" transform="scale(0.3 0.3)">
          <a xlink:href="class_l_f_s_t_k__list_gadget_class_ad54eba5a5dc2bac69eeb6a1e40b563d7_ad54eba5a5dc2bac69eeb6a1e40b563d7_cgraph_org.svg" target="_base">
           <rect id="button" ry="5" rx="5" y="6" x="6" height="38" width="38"
                fill="#f2f5e9" fill-opacity="0.5" stroke="#606060" stroke-width="1.0"/>
           <path id="arrow"
             d="M 11.500037,31.436501 C 11.940474,20.09759 22.043105,11.32322 32.158766,21.979434 L 37.068811,17.246167 C 37.068811,17.246167 37.088388,32 37.088388,32 L 22.160133,31.978069 C 22.160133,31.978069 26.997745,27.140456 26.997745,27.140456 C 18.528582,18.264221 13.291696,25.230495 11.500037,31.436501 z"
             style="fill:#404040;"/>
          </a>
         </g>
        </svg>
</svg>
