<?xml version="1.0" encoding="UTF-8" standalone="no"?>
<!DOCTYPE svg PUBLIC "-//W3C//DTD SVG 1.1//EN"
 "http://www.w3.org/Graphics/SVG/1.1/DTD/svg11.dtd">
<!-- Generated by graphviz version 2.40.1 (20161225.0304)
 -->
<!-- Title: LFSTK_lineEditClass::getClip Pages: 1 -->
<svg width="758pt" height="117pt"
 viewBox="0.00 0.00 757.64 117.00" xmlns="http://www.w3.org/2000/svg" xmlns:xlink="http://www.w3.org/1999/xlink">
<g id="graph0" class="graph" transform="scale(1 1) rotate(0) translate(4 113)">
<title>LFSTK_lineEditClass::getClip</title>
<!-- Node1 -->
<g id="node1" class="node">
<title>Node1</title>
<g id="a_node1"><a xlink:title=" ">
<polygon fill="#bfbfbf" stroke="#000000" points="0,-53.5 0,-85.5 110.453,-85.5 110.453,-53.5 0,-53.5"/>
<text text-anchor="start" x="8" y="-72.5" font-family="Helvetica,sans-Serif" font-size="10.00" fill="#000000">LFSTK_lineEditClass</text>
<text text-anchor="middle" x="55.2265" y="-60.5" font-family="Helvetica,sans-Serif" font-size="10.00" fill="#000000">::getClip</text>
</a>
</g>
</g>
<!-- Node2 -->
<g id="node2" class="node">
<title>Node2</title>
<g id="a_node2"><a xlink:href="class_l_f_s_t_k__line_edit_class_adbcfa08279eec28c5f4e2c33a056d396.xhtml#adbcfa08279eec28c5f4e2c33a056d396" target="_top" xlink:title=" ">
<polygon fill="none" stroke="#000000" points="316.252,-50.5 316.252,-82.5 431.704,-82.5 431.704,-50.5 316.252,-50.5"/>
<text text-anchor="start" x="324.252" y="-69.5" font-family="Helvetica,sans-Serif" font-size="10.00" fill="#000000">LFSTK_lineEditClass</text>
<text text-anchor="middle" x="373.978" y="-57.5" font-family="Helvetica,sans-Serif" font-size="10.00" fill="#000000">::LFSTK_clearWindow</text>
</a>
</g>
</g>
<!-- Node1&#45;&gt;Node2 -->
<g id="edge1" class="edge">
<title>Node1&#45;&gt;Node2</title>
<path fill="none" stroke="#191970" d="M102.0387,-85.5319C116.1407,-89.6266 131.7738,-93.449 146.453,-95.5 205.3471,-103.7287 221.4538,-104.3886 280.252,-95.5 294.0753,-93.4103 308.6692,-89.6795 322.1187,-85.5748"/>
<polygon fill="#191970" stroke="#191970" points="323.2106,-88.9004 331.6823,-82.5379 321.092,-82.2287 323.2106,-88.9004"/>
</g>
<!-- Node7 -->
<g id="node7" class="node">
<title>Node7</title>
<g id="a_node7"><a xlink:href="class_l_f_s_t_k__window_class_a0d85c225b59176302c8b25d090e08ad7.xhtml#a0d85c225b59176302c8b25d090e08ad7" target="_top" xlink:title=" ">
<polygon fill="none" stroke="#000000" points="155.071,-53.5 155.071,-85.5 271.634,-85.5 271.634,-53.5 155.071,-53.5"/>
<text text-anchor="start" x="163.071" y="-72.5" font-family="Helvetica,sans-Serif" font-size="10.00" fill="#000000">LFSTK_windowClass::</text>
<text text-anchor="middle" x="213.3525" y="-60.5" font-family="Helvetica,sans-Serif" font-size="10.00" fill="#000000">LFSTK_getDnDAtom</text>
</a>
</g>
</g>
<!-- Node1&#45;&gt;Node7 -->
<g id="edge6" class="edge">
<title>Node1&#45;&gt;Node7</title>
<path fill="none" stroke="#191970" d="M110.5313,-69.5C121.5094,-69.5 133.1612,-69.5 144.526,-69.5"/>
<polygon fill="#191970" stroke="#191970" points="144.8549,-73.0001 154.8548,-69.5 144.8548,-66.0001 144.8549,-73.0001"/>
</g>
<!-- Node8 -->
<g id="node8" class="node">
<title>Node8</title>
<g id="a_node8"><a xlink:href="class_l_f_s_t_k__line_edit_class_af08b0261f456ab5926d5837f752c2005.xhtml#af08b0261f456ab5926d5837f752c2005" target="_top" xlink:title=" ">
<polygon fill="none" stroke="#000000" points="146.453,-2.5 146.453,-34.5 280.252,-34.5 280.252,-2.5 146.453,-2.5"/>
<text text-anchor="start" x="154.453" y="-21.5" font-family="Helvetica,sans-Serif" font-size="10.00" fill="#000000">LFSTK_lineEditClass</text>
<text text-anchor="middle" x="213.3525" y="-9.5" font-family="Helvetica,sans-Serif" font-size="10.00" fill="#000000">::LFSTK_setFormatedText</text>
</a>
</g>
</g>
<!-- Node1&#45;&gt;Node8 -->
<g id="edge7" class="edge">
<title>Node1&#45;&gt;Node8</title>
<path fill="none" stroke="#191970" d="M105.2586,-53.3633C120.6939,-48.3849 137.8437,-42.8537 153.8517,-37.6906"/>
<polygon fill="#191970" stroke="#191970" points="155.2031,-40.9324 163.6459,-34.5317 153.0543,-34.2703 155.2031,-40.9324"/>
</g>
<!-- Node3 -->
<g id="node3" class="node">
<title>Node3</title>
<g id="a_node3"><a xlink:href="class_l_f_s_t_k__gadget_class_ab76db165a19af248b5e94e95492dc879.xhtml#ab76db165a19af248b5e94e95492dc879" target="_top" xlink:title=" ">
<polygon fill="none" stroke="#000000" points="467.704,-76.5 467.704,-108.5 581.507,-108.5 581.507,-76.5 467.704,-76.5"/>
<text text-anchor="start" x="475.704" y="-95.5" font-family="Helvetica,sans-Serif" font-size="10.00" fill="#000000">LFSTK_gadgetClass::</text>
<text text-anchor="middle" x="524.6055" y="-83.5" font-family="Helvetica,sans-Serif" font-size="10.00" fill="#000000">drawBevel</text>
</a>
</g>
</g>
<!-- Node2&#45;&gt;Node3 -->
<g id="edge2" class="edge">
<title>Node2&#45;&gt;Node3</title>
<path fill="none" stroke="#191970" d="M431.7837,-76.4779C440.2513,-77.9395 449.0314,-79.4551 457.663,-80.945"/>
<polygon fill="#191970" stroke="#191970" points="457.2503,-84.4254 467.7,-82.6775 458.441,-77.5274 457.2503,-84.4254"/>
</g>
<!-- Node4 -->
<g id="node4" class="node">
<title>Node4</title>
<g id="a_node4"><a xlink:href="class_l_f_s_t_k__line_edit_class_a24da1f04ceb3b05ed9b25988e2cb5130.xhtml#a24da1f04ceb3b05ed9b25988e2cb5130" target="_top" xlink:title=" ">
<polygon fill="none" stroke="#000000" points="469.379,-25.5 469.379,-57.5 579.832,-57.5 579.832,-25.5 469.379,-25.5"/>
<text text-anchor="start" x="477.379" y="-44.5" font-family="Helvetica,sans-Serif" font-size="10.00" fill="#000000">LFSTK_lineEditClass</text>
<text text-anchor="middle" x="524.6055" y="-32.5" font-family="Helvetica,sans-Serif" font-size="10.00" fill="#000000">::drawLabel</text>
</a>
</g>
</g>
<!-- Node2&#45;&gt;Node4 -->
<g id="edge3" class="edge">
<title>Node2&#45;&gt;Node4</title>
<path fill="none" stroke="#191970" d="M431.7837,-56.9058C440.705,-55.4252 449.9732,-53.8869 459.0492,-52.3805"/>
<polygon fill="#191970" stroke="#191970" points="459.8938,-55.7883 469.1858,-50.6981 458.7477,-48.8828 459.8938,-55.7883"/>
</g>
<!-- Node5 -->
<g id="node5" class="node">
<title>Node5</title>
<g id="a_node5"><a xlink:href="class_l_f_s_t_k__gadget_class_ac233a3c3e0900ff66adb74102a56f09f.xhtml#ac233a3c3e0900ff66adb74102a56f09f" target="_top" xlink:title=" ">
<polygon fill="none" stroke="#000000" points="617.507,-51.5 617.507,-83.5 749.636,-83.5 749.636,-51.5 617.507,-51.5"/>
<text text-anchor="start" x="625.507" y="-70.5" font-family="Helvetica,sans-Serif" font-size="10.00" fill="#000000">LFSTK_gadgetClass::</text>
<text text-anchor="middle" x="683.5715" y="-58.5" font-family="Helvetica,sans-Serif" font-size="10.00" fill="#000000">LFSTK_getTextRealWidth</text>
</a>
</g>
</g>
<!-- Node4&#45;&gt;Node5 -->
<g id="edge4" class="edge">
<title>Node4&#45;&gt;Node5</title>
<path fill="none" stroke="#191970" d="M580.2041,-50.5935C589.0148,-52.0346 598.2571,-53.5462 607.4396,-55.0481"/>
<polygon fill="#191970" stroke="#191970" points="606.9232,-58.5101 617.357,-56.6702 608.0531,-51.6018 606.9232,-58.5101"/>
</g>
<!-- Node6 -->
<g id="node6" class="node">
<title>Node6</title>
<g id="a_node6"><a xlink:href="class_l_f_s_t_k__gadget_class_a23bc2dc7b8200df4dc74f1f68460eca2.xhtml#a23bc2dc7b8200df4dc74f1f68460eca2" target="_top" xlink:title=" ">
<polygon fill="none" stroke="#000000" points="626.67,-.5 626.67,-32.5 740.473,-32.5 740.473,-.5 626.67,-.5"/>
<text text-anchor="start" x="634.67" y="-19.5" font-family="Helvetica,sans-Serif" font-size="10.00" fill="#000000">LFSTK_gadgetClass::</text>
<text text-anchor="middle" x="683.5715" y="-7.5" font-family="Helvetica,sans-Serif" font-size="10.00" fill="#000000">LFSTK_getTextWidth</text>
</a>
</g>
</g>
<!-- Node4&#45;&gt;Node6 -->
<g id="edge5" class="edge">
<title>Node4&#45;&gt;Node6</title>
<path fill="none" stroke="#191970" d="M580.2041,-32.7562C591.9554,-30.9081 604.4745,-28.9393 616.5956,-27.033"/>
<polygon fill="#191970" stroke="#191970" points="617.3234,-30.4617 626.6582,-25.4506 616.2358,-23.5467 617.3234,-30.4617"/>
</g>
<!-- Node8&#45;&gt;Node2 -->
<g id="edge8" class="edge">
<title>Node8&#45;&gt;Node2</title>
<path fill="none" stroke="#191970" d="M267.2853,-34.6168C281.1328,-38.7549 296.1573,-43.2447 310.4409,-47.5131"/>
<polygon fill="#191970" stroke="#191970" points="309.604,-50.9159 320.1875,-50.4257 311.6083,-44.209 309.604,-50.9159"/>
</g>
</g>
</svg>
