<?xml version="1.0" encoding="UTF-8" standalone="no"?>
<!DOCTYPE svg PUBLIC "-//W3C//DTD SVG 1.1//EN"
 "http://www.w3.org/Graphics/SVG/1.1/DTD/svg11.dtd">
<!-- Generated by graphviz version 2.40.1 (20161225.0304)
 -->
<!-- Title: LFSTK_findClass::LFSTK_findFiles Pages: 1 -->
<svg width="495pt" height="323pt"
 viewBox="0.00 0.00 494.72 323.00" xmlns="http://www.w3.org/2000/svg" xmlns:xlink="http://www.w3.org/1999/xlink">
<g id="graph0" class="graph" transform="scale(1 1) rotate(0) translate(4 319)">
<title>LFSTK_findClass::LFSTK_findFiles</title>
<!-- Node1 -->
<g id="node1" class="node">
<title>Node1</title>
<g id="a_node1"><a xlink:title=" ">
<polygon fill="#bfbfbf" stroke="#000000" points="0,-153.5 0,-185.5 130.46,-185.5 130.46,-153.5 0,-153.5"/>
<text text-anchor="start" x="8" y="-172.5" font-family="Helvetica,sans-Serif" font-size="10.00" fill="#000000">LFSTK_findClass::LFSTK</text>
<text text-anchor="middle" x="65.23" y="-160.5" font-family="Helvetica,sans-Serif" font-size="10.00" fill="#000000">_findFiles</text>
</a>
</g>
</g>
<!-- Node2 -->
<g id="node2" class="node">
<title>Node2</title>
<g id="a_node2"><a xlink:href="class_l_f_s_t_k__find_class_a832129b7acbb8306d7da6a60fd95c3cc.xhtml#a832129b7acbb8306d7da6a60fd95c3cc" target="_top" xlink:title=" ">
<polygon fill="none" stroke="#000000" points="169.51,-294.5 169.51,-314.5 317.205,-314.5 317.205,-294.5 169.51,-294.5"/>
<text text-anchor="middle" x="243.3575" y="-301.5" font-family="Helvetica,sans-Serif" font-size="10.00" fill="#000000">LFSTK_findClass::deleteData</text>
</a>
</g>
</g>
<!-- Node1&#45;&gt;Node2 -->
<g id="edge1" class="edge">
<title>Node1&#45;&gt;Node2</title>
<path fill="none" stroke="#191970" d="M74.7847,-185.788C90.5473,-211.1672 124.4741,-259.8875 166.46,-285.5 169.6407,-287.4403 173.0096,-289.1828 176.491,-290.7475"/>
<polygon fill="#191970" stroke="#191970" points="175.3319,-294.053 185.9178,-294.4881 177.9137,-287.5465 175.3319,-294.053"/>
</g>
<!-- Node3 -->
<g id="node3" class="node">
<title>Node3</title>
<g id="a_node3"><a xlink:href="class_l_f_s_t_k__find_class_a2a85ccb7e7b38ac99ba58b7c935c214e.xhtml#a2a85ccb7e7b38ac99ba58b7c935c214e" target="_top" xlink:title=" ">
<polygon fill="none" stroke="#000000" points="166.46,-255.5 166.46,-275.5 320.255,-275.5 320.255,-255.5 166.46,-255.5"/>
<text text-anchor="middle" x="243.3575" y="-262.5" font-family="Helvetica,sans-Serif" font-size="10.00" fill="#000000">LFSTK_findClass::fileTypeTest</text>
</a>
</g>
</g>
<!-- Node1&#45;&gt;Node3 -->
<g id="edge2" class="edge">
<title>Node1&#45;&gt;Node3</title>
<path fill="none" stroke="#191970" d="M82.0513,-185.8109C101.0415,-203.3335 133.5942,-230.7756 166.46,-246.5 170.9956,-248.67 175.8042,-250.6078 180.7153,-252.3353"/>
<polygon fill="#191970" stroke="#191970" points="179.6496,-255.6691 190.2411,-255.4042 181.7962,-249.0063 179.6496,-255.6691"/>
</g>
<!-- Node5 -->
<g id="node5" class="node">
<title>Node5</title>
<g id="a_node5"><a xlink:href="class_l_f_s_t_k__find_class_a80dddc03a1b1c1cb9b5ab05bda2f7199.xhtml#a80dddc03a1b1c1cb9b5ab05bda2f7199" target="_top" xlink:title=" ">
<polygon fill="none" stroke="#000000" points="178.1275,-204.5 178.1275,-236.5 308.5875,-236.5 308.5875,-204.5 178.1275,-204.5"/>
<text text-anchor="start" x="186.1275" y="-223.5" font-family="Helvetica,sans-Serif" font-size="10.00" fill="#000000">LFSTK_findClass::LFSTK</text>
<text text-anchor="middle" x="243.3575" y="-211.5" font-family="Helvetica,sans-Serif" font-size="10.00" fill="#000000">_getFileTypes</text>
</a>
</g>
</g>
<!-- Node1&#45;&gt;Node5 -->
<g id="edge4" class="edge">
<title>Node1&#45;&gt;Node5</title>
<path fill="none" stroke="#191970" d="M121.5907,-185.6367C139.3886,-190.7325 159.2098,-196.4075 177.6041,-201.674"/>
<polygon fill="#191970" stroke="#191970" points="176.7864,-205.0805 187.3635,-204.4683 178.7132,-198.3509 176.7864,-205.0805"/>
</g>
<!-- Node6 -->
<g id="node6" class="node">
<title>Node6</title>
<g id="a_node6"><a xlink:href="class_l_f_s_t_k__find_class_a329a0ec59833e8ce89f6fd423479004d.xhtml#a329a0ec59833e8ce89f6fd423479004d" target="_top" xlink:title=" ">
<polygon fill="none" stroke="#000000" points="178.1275,-153.5 178.1275,-185.5 308.5875,-185.5 308.5875,-153.5 178.1275,-153.5"/>
<text text-anchor="start" x="186.1275" y="-172.5" font-family="Helvetica,sans-Serif" font-size="10.00" fill="#000000">LFSTK_findClass::LFSTK</text>
<text text-anchor="middle" x="243.3575" y="-160.5" font-family="Helvetica,sans-Serif" font-size="10.00" fill="#000000">_getFollowlinks</text>
</a>
</g>
</g>
<!-- Node1&#45;&gt;Node6 -->
<g id="edge5" class="edge">
<title>Node1&#45;&gt;Node6</title>
<path fill="none" stroke="#191970" d="M130.5466,-169.5C142.6479,-169.5 155.38,-169.5 167.7571,-169.5"/>
<polygon fill="#191970" stroke="#191970" points="168.0488,-173.0001 178.0487,-169.5 168.0487,-166.0001 168.0488,-173.0001"/>
</g>
<!-- Node7 -->
<g id="node7" class="node">
<title>Node7</title>
<g id="a_node7"><a xlink:href="class_l_f_s_t_k__find_class_ac85fb60576c37649ba0075e7a4ff988d.xhtml#ac85fb60576c37649ba0075e7a4ff988d" target="_top" xlink:title=" ">
<polygon fill="none" stroke="#000000" points="178.1275,-102.5 178.1275,-134.5 308.5875,-134.5 308.5875,-102.5 178.1275,-102.5"/>
<text text-anchor="start" x="186.1275" y="-121.5" font-family="Helvetica,sans-Serif" font-size="10.00" fill="#000000">LFSTK_findClass::LFSTK</text>
<text text-anchor="middle" x="243.3575" y="-109.5" font-family="Helvetica,sans-Serif" font-size="10.00" fill="#000000">_getFullPath</text>
</a>
</g>
</g>
<!-- Node1&#45;&gt;Node7 -->
<g id="edge6" class="edge">
<title>Node1&#45;&gt;Node7</title>
<path fill="none" stroke="#191970" d="M121.5907,-153.3633C139.3886,-148.2675 159.2098,-142.5925 177.6041,-137.326"/>
<polygon fill="#191970" stroke="#191970" points="178.7132,-140.6491 187.3635,-134.5317 176.7864,-133.9195 178.7132,-140.6491"/>
</g>
<!-- Node8 -->
<g id="node8" class="node">
<title>Node8</title>
<g id="a_node8"><a xlink:href="class_l_f_s_t_k__find_class_ab75545a07d1f0a2f65b14deffe19429d.xhtml#ab75545a07d1f0a2f65b14deffe19429d" target="_top" xlink:title=" ">
<polygon fill="none" stroke="#000000" points="178.1275,-51.5 178.1275,-83.5 308.5875,-83.5 308.5875,-51.5 178.1275,-51.5"/>
<text text-anchor="start" x="186.1275" y="-70.5" font-family="Helvetica,sans-Serif" font-size="10.00" fill="#000000">LFSTK_findClass::LFSTK</text>
<text text-anchor="middle" x="243.3575" y="-58.5" font-family="Helvetica,sans-Serif" font-size="10.00" fill="#000000">_getIgnoreBroken</text>
</a>
</g>
</g>
<!-- Node1&#45;&gt;Node8 -->
<g id="edge7" class="edge">
<title>Node1&#45;&gt;Node8</title>
<path fill="none" stroke="#191970" d="M83.0556,-153.3097C102.3954,-136.4454 134.7699,-110.2009 166.46,-93.5 170.4963,-91.3728 174.7416,-89.3679 179.0784,-87.4882"/>
<polygon fill="#191970" stroke="#191970" points="180.7356,-90.5923 188.673,-83.5747 178.0918,-84.1107 180.7356,-90.5923"/>
</g>
<!-- Node9 -->
<g id="node9" class="node">
<title>Node9</title>
<g id="a_node9"><a xlink:href="class_l_f_s_t_k__find_class_a84f763794ef25247175db07f1ce29ef8.xhtml#a84f763794ef25247175db07f1ce29ef8" target="_top" xlink:title=" ">
<polygon fill="none" stroke="#000000" points="178.1275,-.5 178.1275,-32.5 308.5875,-32.5 308.5875,-.5 178.1275,-.5"/>
<text text-anchor="start" x="186.1275" y="-19.5" font-family="Helvetica,sans-Serif" font-size="10.00" fill="#000000">LFSTK_findClass::LFSTK</text>
<text text-anchor="middle" x="243.3575" y="-7.5" font-family="Helvetica,sans-Serif" font-size="10.00" fill="#000000">_getIncludeHidden</text>
</a>
</g>
</g>
<!-- Node1&#45;&gt;Node9 -->
<g id="edge8" class="edge">
<title>Node1&#45;&gt;Node9</title>
<path fill="none" stroke="#191970" d="M73.9219,-153.3962C89.1802,-126.5929 123.3016,-72.789 166.46,-42.5 169.1708,-40.5975 172.0319,-38.8252 174.9929,-37.1753"/>
<polygon fill="#191970" stroke="#191970" points="176.7625,-40.2031 184.125,-32.5844 173.6184,-33.9489 176.7625,-40.2031"/>
</g>
<!-- Node4 -->
<g id="node4" class="node">
<title>Node4</title>
<g id="a_node4"><a xlink:href="class_l_f_s_t_k__find_class_a414058eed2a1df84fbddc3a1d371a50a.xhtml#a414058eed2a1df84fbddc3a1d371a50a" target="_top" xlink:title=" ">
<polygon fill="none" stroke="#000000" points="356.255,-249.5 356.255,-281.5 486.715,-281.5 486.715,-249.5 356.255,-249.5"/>
<text text-anchor="start" x="364.255" y="-268.5" font-family="Helvetica,sans-Serif" font-size="10.00" fill="#000000">LFSTK_findClass::LFSTK</text>
<text text-anchor="middle" x="421.485" y="-256.5" font-family="Helvetica,sans-Serif" font-size="10.00" fill="#000000">_getFindType</text>
</a>
</g>
</g>
<!-- Node3&#45;&gt;Node4 -->
<g id="edge3" class="edge">
<title>Node3&#45;&gt;Node4</title>
<path fill="none" stroke="#191970" d="M320.4508,-265.5C328.8734,-265.5 337.4415,-265.5 345.8464,-265.5"/>
<polygon fill="#191970" stroke="#191970" points="345.9967,-269.0001 355.9967,-265.5 345.9967,-262.0001 345.9967,-269.0001"/>
</g>
</g>
</svg>
