<?xml version="1.0" encoding="UTF-8" standalone="no"?>
<!DOCTYPE svg PUBLIC "-//W3C//DTD SVG 1.1//EN"
 "http://www.w3.org/Graphics/SVG/1.1/DTD/svg11.dtd">
<!-- Generated by graphviz version 2.40.1 (20161225.0304)
 -->
<!-- Title: LFSTK_multiLineEditClass::keyRelease Pages: 1 -->
<!--zoomable 241 -->
<svg id="main" version="1.1" xmlns="http://www.w3.org/2000/svg" xmlns:xlink="http://www.w3.org/1999/xlink" xml:space="preserve" onload="init(evt)">
<style type="text/css"><![CDATA[
.edge:hover path { stroke: red; }
.edge:hover polygon { stroke: red; fill: red; }
]]></style>
<script type="text/javascript"><![CDATA[
var edges = document.getElementsByTagName('g');
if (edges && edges.length) {
  for (var i=0;i<edges.length;i++) {
    if (edges[i].id.substr(0,4)=='edge') {
      edges[i].setAttribute('class','edge');
    }
  }
}
]]></script>
        <defs>
                <circle id="rim" cx="0" cy="0" r="7"/>
                <circle id="rim2" cx="0" cy="0" r="3.5"/>
                <g id="zoomPlus">
                        <use xlink:href="#rim" fill="#404040">
                                <set attributeName="fill" to="#808080" begin="zoomplus.mouseover" end="zoomplus.mouseout"/>
                        </use>
                        <path d="M-4,0h8M0,-4v8" fill="none" stroke="white" stroke-width="1.5" pointer-events="none"/>
                </g>
                <g id="zoomMin">
                        <use xlink:href="#rim" fill="#404040">
                                <set attributeName="fill" to="#808080" begin="zoomminus.mouseover" end="zoomminus.mouseout"/>
                        </use>
                        <path d="M-4,0h8" fill="none" stroke="white" stroke-width="1.5" pointer-events="none"/>
                </g>
                <g id="dirArrow">
                        <path fill="none" stroke="white" stroke-width="1.5" d="M0,-3.0v7 M-2.5,-0.5L0,-3.0L2.5,-0.5"/>
                </g>
               <g id="resetDef">
                       <use xlink:href="#rim2" fill="#404040">
                               <set attributeName="fill" to="#808080" begin="reset.mouseover" end="reset.mouseout"/>
                       </use>
               </g>
        </defs>

<script type="text/javascript">
var viewWidth = 997;
var viewHeight = 241;
var sectionId = 'dynsection-0';
</script>
<script xlink:href="svgpan.js"/>
<svg id="graph" class="graph">
<g id="viewport">
<title>LFSTK_multiLineEditClass::keyRelease</title>
<!-- Node1 -->
<g id="node1" class="node">
<title>Node1</title>
<g id="a_node1"><a xlink:title=" ">
<polygon fill="#bfbfbf" stroke="#000000" points="0,-72.9672 0,-104.9672 134.898,-104.9672 134.898,-72.9672 0,-72.9672"/>
<text text-anchor="start" x="8" y="-91.9672" font-family="Helvetica,sans-Serif" font-size="10.00" fill="#000000">LFSTK_multiLineEditClass</text>
<text text-anchor="middle" x="67.449" y="-79.9672" font-family="Helvetica,sans-Serif" font-size="10.00" fill="#000000">::keyRelease</text>
</a>
</g>
</g>
<!-- Node2 -->
<g id="node2" class="node">
<title>Node2</title>
<g id="a_node2"><a xlink:href="class_l_f_s_t_k__multi_line_edit_class_ac4155f83eae3374ea97007bd36b7985a.xhtml#ac4155f83eae3374ea97007bd36b7985a" target="_top" xlink:title=" ">
<polygon fill="none" stroke="#000000" points="170.898,-72.9672 170.898,-104.9672 305.796,-104.9672 305.796,-72.9672 170.898,-72.9672"/>
<text text-anchor="start" x="178.898" y="-91.9672" font-family="Helvetica,sans-Serif" font-size="10.00" fill="#000000">LFSTK_multiLineEditClass</text>
<text text-anchor="middle" x="238.347" y="-79.9672" font-family="Helvetica,sans-Serif" font-size="10.00" fill="#000000">::getClip</text>
</a>
</g>
</g>
<!-- Node1&#45;&gt;Node2 -->
<g id="edge1" class="edge">
<title>Node1&#45;&gt;Node2</title>
<path fill="none" stroke="#191970" d="M134.9924,-88.9672C143.4418,-88.9672 152.1357,-88.9672 160.7233,-88.9672"/>
<polygon fill="#191970" stroke="#191970" points="160.7346,-92.4673 170.7346,-88.9672 160.7345,-85.4673 160.7346,-92.4673"/>
</g>
<!-- Node3 -->
<g id="node3" class="node">
<title>Node3</title>
<g id="a_node3"><a xlink:href="class_l_f_s_t_k__multi_line_edit_class_aada0749d2c064f7a8f2af14ab82f08a5.xhtml#aada0749d2c064f7a8f2af14ab82f08a5" target="_top" xlink:title=" ">
<polygon fill="none" stroke="#000000" points="683.592,-117.9672 683.592,-149.9672 818.49,-149.9672 818.49,-117.9672 683.592,-117.9672"/>
<text text-anchor="start" x="691.592" y="-136.9672" font-family="Helvetica,sans-Serif" font-size="10.00" fill="#000000">LFSTK_multiLineEditClass</text>
<text text-anchor="middle" x="751.041" y="-124.9672" font-family="Helvetica,sans-Serif" font-size="10.00" fill="#000000">::LFSTK_clearWindow</text>
</a>
</g>
</g>
<!-- Node1&#45;&gt;Node3 -->
<g id="edge11" class="edge">
<title>Node1&#45;&gt;Node3</title>
<path fill="none" stroke="#191970" d="M128.7415,-105.0079C142.5451,-108.2768 157.1726,-111.4739 170.898,-113.9672 379.8496,-151.9238 435.6357,-160.2329 647.592,-146.9672 655.9672,-146.443 664.7015,-145.6824 673.3903,-144.7881"/>
<polygon fill="#191970" stroke="#191970" points="673.9824,-148.2444 683.545,-143.683 673.225,-141.2855 673.9824,-148.2444"/>
</g>
<!-- Node6 -->
<g id="node6" class="node">
<title>Node6</title>
<g id="a_node6"><a xlink:href="class_l_f_s_t_k__window_class_a0d85c225b59176302c8b25d090e08ad7.xhtml#a0d85c225b59176302c8b25d090e08ad7" target="_top" xlink:title=" ">
<polygon fill="none" stroke="#000000" points="350.9635,-21.9672 350.9635,-53.9672 467.5265,-53.9672 467.5265,-21.9672 350.9635,-21.9672"/>
<text text-anchor="start" x="358.9635" y="-40.9672" font-family="Helvetica,sans-Serif" font-size="10.00" fill="#000000">LFSTK_windowClass::</text>
<text text-anchor="middle" x="409.245" y="-28.9672" font-family="Helvetica,sans-Serif" font-size="10.00" fill="#000000">LFSTK_getDnDAtom</text>
</a>
</g>
</g>
<!-- Node1&#45;&gt;Node6 -->
<g id="edge12" class="edge">
<title>Node1&#45;&gt;Node6</title>
<path fill="none" stroke="#191970" d="M125.1332,-72.9329C139.9584,-69.2363 155.9458,-65.6166 170.898,-62.9672 227.5774,-52.9242 292.6062,-46.4347 340.4063,-42.5911"/>
<polygon fill="#191970" stroke="#191970" points="340.9447,-46.0596 350.6399,-41.7874 340.3966,-39.0811 340.9447,-46.0596"/>
</g>
<!-- Node8 -->
<g id="node8" class="node">
<title>Node8</title>
<g id="a_node8"><a xlink:href="class_l_f_s_t_k__multi_line_edit_class_ae1de86c1df295bbe1bcb63b2f98fbb4d.xhtml#ae1de86c1df295bbe1bcb63b2f98fbb4d" target="_top" xlink:title=" ">
<polygon fill="none" stroke="#000000" points="512.694,-34.9672 512.694,-66.9672 647.592,-66.9672 647.592,-34.9672 512.694,-34.9672"/>
<text text-anchor="start" x="520.694" y="-53.9672" font-family="Helvetica,sans-Serif" font-size="10.00" fill="#000000">LFSTK_multiLineEditClass</text>
<text text-anchor="middle" x="580.143" y="-41.9672" font-family="Helvetica,sans-Serif" font-size="10.00" fill="#000000">::setDisplayLines</text>
</a>
</g>
</g>
<!-- Node1&#45;&gt;Node8 -->
<g id="edge15" class="edge">
<title>Node1&#45;&gt;Node8</title>
<path fill="none" stroke="#191970" d="M98.3899,-72.868C118.5639,-62.9635 145.7277,-50.7237 170.898,-42.9672 301.4459,-2.7377 342.3015,12.5243 476.694,-11.9672 497.1818,-15.7009 518.8856,-23.2753 537.0944,-30.7641"/>
<polygon fill="#191970" stroke="#191970" points="535.973,-34.0902 546.546,-34.7707 538.7051,-27.6453 535.973,-34.0902"/>
</g>
<!-- Node10 -->
<g id="node10" class="node">
<title>Node10</title>
<g id="a_node10"><a xlink:href="class_l_f_s_t_k__multi_line_edit_class_ab126e1f84f4135bb9a12ed6ebb3bd23a.xhtml#ab126e1f84f4135bb9a12ed6ebb3bd23a" target="_top" xlink:title=" ">
<polygon fill="none" stroke="#000000" points="512.694,-200.9672 512.694,-232.9672 647.592,-232.9672 647.592,-200.9672 512.694,-200.9672"/>
<text text-anchor="start" x="520.694" y="-219.9672" font-family="Helvetica,sans-Serif" font-size="10.00" fill="#000000">LFSTK_multiLineEditClass</text>
<text text-anchor="middle" x="580.143" y="-207.9672" font-family="Helvetica,sans-Serif" font-size="10.00" fill="#000000">::LFSTK_setBuffer</text>
</a>
</g>
</g>
<!-- Node1&#45;&gt;Node10 -->
<g id="edge13" class="edge">
<title>Node1&#45;&gt;Node10</title>
<path fill="none" stroke="#191970" d="M78.9474,-105.1986C96.0543,-127.8684 130.5584,-168.2219 170.898,-185.9672 278.3834,-233.2497 417.0792,-232.5027 502.2579,-225.9697"/>
<polygon fill="#191970" stroke="#191970" points="502.6911,-229.4461 512.3746,-225.1471 502.1238,-222.4691 502.6911,-229.4461"/>
</g>
<!-- Node2&#45;&gt;Node3 -->
<g id="edge2" class="edge">
<title>Node2&#45;&gt;Node3</title>
<path fill="none" stroke="#191970" d="M296.2412,-104.9882C310.9914,-108.5082 326.891,-111.8215 341.796,-113.9672 456.36,-130.4595 590.6198,-134.0666 673.2558,-134.5054"/>
<polygon fill="#191970" stroke="#191970" points="673.3077,-138.0055 683.3213,-134.5445 673.335,-131.0056 673.3077,-138.0055"/>
</g>
<!-- Node2&#45;&gt;Node6 -->
<g id="edge5" class="edge">
<title>Node2&#45;&gt;Node6</title>
<path fill="none" stroke="#191970" d="M292.4202,-72.8305C309.4171,-67.7582 328.3373,-62.112 345.9162,-56.866"/>
<polygon fill="#191970" stroke="#191970" points="346.942,-60.2125 355.5236,-53.999 344.9403,-53.5048 346.942,-60.2125"/>
</g>
<!-- Node7 -->
<g id="node7" class="node">
<title>Node7</title>
<g id="a_node7"><a xlink:href="class_l_f_s_t_k__multi_line_edit_class_ae50305eb44baa381e0c7ce5c2e86a22e.xhtml#ae50305eb44baa381e0c7ce5c2e86a22e" target="_top" xlink:title=" ">
<polygon fill="none" stroke="#000000" points="341.796,-72.9672 341.796,-104.9672 476.694,-104.9672 476.694,-72.9672 341.796,-72.9672"/>
<text text-anchor="start" x="349.796" y="-91.9672" font-family="Helvetica,sans-Serif" font-size="10.00" fill="#000000">LFSTK_multiLineEditClass</text>
<text text-anchor="middle" x="409.245" y="-79.9672" font-family="Helvetica,sans-Serif" font-size="10.00" fill="#000000">::LFSTK_setFormatedText</text>
</a>
</g>
</g>
<!-- Node2&#45;&gt;Node7 -->
<g id="edge6" class="edge">
<title>Node2&#45;&gt;Node7</title>
<path fill="none" stroke="#191970" d="M305.8904,-88.9672C314.3398,-88.9672 323.0337,-88.9672 331.6213,-88.9672"/>
<polygon fill="#191970" stroke="#191970" points="331.6326,-92.4673 341.6326,-88.9672 331.6325,-85.4673 331.6326,-92.4673"/>
</g>
<!-- Node4 -->
<g id="node4" class="node">
<title>Node4</title>
<g id="a_node4"><a xlink:href="class_l_f_s_t_k__gadget_class_ab76db165a19af248b5e94e95492dc879.xhtml#ab76db165a19af248b5e94e95492dc879" target="_top" xlink:title=" ">
<polygon fill="none" stroke="#000000" points="865.0375,-142.9672 865.0375,-174.9672 978.8405,-174.9672 978.8405,-142.9672 865.0375,-142.9672"/>
<text text-anchor="start" x="873.0375" y="-161.9672" font-family="Helvetica,sans-Serif" font-size="10.00" fill="#000000">LFSTK_gadgetClass::</text>
<text text-anchor="middle" x="921.939" y="-149.9672" font-family="Helvetica,sans-Serif" font-size="10.00" fill="#000000">drawBevel</text>
</a>
</g>
</g>
<!-- Node3&#45;&gt;Node4 -->
<g id="edge3" class="edge">
<title>Node3&#45;&gt;Node4</title>
<path fill="none" stroke="#191970" d="M818.5844,-143.8479C830.4188,-145.5791 842.7329,-147.3805 854.5627,-149.111"/>
<polygon fill="#191970" stroke="#191970" points="854.4084,-152.6256 864.8097,-150.61 855.4216,-145.6993 854.4084,-152.6256"/>
</g>
<!-- Node5 -->
<g id="node5" class="node">
<title>Node5</title>
<g id="a_node5"><a xlink:href="class_l_f_s_t_k__multi_line_edit_class_a48999ac31ea05c85d68ef2c5fc513c0e.xhtml#a48999ac31ea05c85d68ef2c5fc513c0e" target="_top" xlink:title=" ">
<polygon fill="none" stroke="#000000" points="854.49,-91.9672 854.49,-123.9672 989.388,-123.9672 989.388,-91.9672 854.49,-91.9672"/>
<text text-anchor="start" x="862.49" y="-110.9672" font-family="Helvetica,sans-Serif" font-size="10.00" fill="#000000">LFSTK_multiLineEditClass</text>
<text text-anchor="middle" x="921.939" y="-98.9672" font-family="Helvetica,sans-Serif" font-size="10.00" fill="#000000">::drawText</text>
</a>
</g>
</g>
<!-- Node3&#45;&gt;Node5 -->
<g id="edge4" class="edge">
<title>Node3&#45;&gt;Node5</title>
<path fill="none" stroke="#191970" d="M818.5844,-123.6913C827.0338,-122.4059 835.7277,-121.0832 844.3153,-119.7767"/>
<polygon fill="#191970" stroke="#191970" points="844.9668,-123.2179 854.3266,-118.2536 843.9139,-116.2976 844.9668,-123.2179"/>
</g>
<!-- Node7&#45;&gt;Node3 -->
<g id="edge7" class="edge">
<title>Node7&#45;&gt;Node3</title>
<path fill="none" stroke="#191970" d="M476.8066,-97.6598C524.5317,-103.8233 589.9904,-112.3237 647.592,-119.9672 655.921,-121.0724 664.6259,-122.2365 673.2974,-123.4018"/>
<polygon fill="#191970" stroke="#191970" points="673.0595,-126.9013 683.4371,-124.7669 673.9935,-119.9639 673.0595,-126.9013"/>
</g>
<!-- Node7&#45;&gt;Node8 -->
<g id="edge8" class="edge">
<title>Node7&#45;&gt;Node8</title>
<path fill="none" stroke="#191970" d="M476.7884,-73.9486C485.2378,-72.0698 493.9317,-70.1367 502.5193,-68.2272"/>
<polygon fill="#191970" stroke="#191970" points="503.5287,-71.5883 512.5306,-66.0012 502.0093,-64.7552 503.5287,-71.5883"/>
</g>
<!-- Node8&#45;&gt;Node3 -->
<g id="edge9" class="edge">
<title>Node8&#45;&gt;Node3</title>
<path fill="none" stroke="#191970" d="M615.6075,-66.9852C625.9539,-71.7343 637.2555,-76.9958 647.592,-81.9672 668.4525,-92.0001 691.4782,-103.5289 710.5001,-113.1776"/>
<polygon fill="#191970" stroke="#191970" points="708.9892,-116.3358 719.4895,-117.7484 712.162,-110.096 708.9892,-116.3358"/>
</g>
<!-- Node9 -->
<g id="node9" class="node">
<title>Node9</title>
<g id="a_node9"><a xlink:href="class_l_f_s_t_k__gadget_class_a71d34233c5db545e92d37c0e3139459b.xhtml#a71d34233c5db545e92d37c0e3139459b" target="_top" xlink:title=" ">
<polygon fill="none" stroke="#000000" points="694.1395,-34.9672 694.1395,-66.9672 807.9425,-66.9672 807.9425,-34.9672 694.1395,-34.9672"/>
<text text-anchor="start" x="702.1395" y="-53.9672" font-family="Helvetica,sans-Serif" font-size="10.00" fill="#000000">LFSTK_gadgetClass::</text>
<text text-anchor="middle" x="751.041" y="-41.9672" font-family="Helvetica,sans-Serif" font-size="10.00" fill="#000000">LFSTK_getGeom</text>
</a>
</g>
</g>
<!-- Node8&#45;&gt;Node9 -->
<g id="edge10" class="edge">
<title>Node8&#45;&gt;Node9</title>
<path fill="none" stroke="#191970" d="M647.6864,-50.9672C659.5208,-50.9672 671.8349,-50.9672 683.6647,-50.9672"/>
<polygon fill="#191970" stroke="#191970" points="683.9117,-54.4673 693.9117,-50.9672 683.9117,-47.4673 683.9117,-54.4673"/>
</g>
<!-- Node10&#45;&gt;Node3 -->
<g id="edge14" class="edge">
<title>Node10&#45;&gt;Node3</title>
<path fill="none" stroke="#191970" d="M615.6075,-200.9492C625.9539,-196.2001 637.2555,-190.9386 647.592,-185.9672 668.4525,-175.9343 691.4782,-164.4055 710.5001,-154.7568"/>
<polygon fill="#191970" stroke="#191970" points="712.162,-157.8384 719.4895,-150.186 708.9892,-151.5987 712.162,-157.8384"/>
</g>
</g>
</svg>
        <g id="navigator" transform="translate(0 0)" fill="#404254">
                <rect fill="#f2f5e9" fill-opacity="0.5" stroke="#606060" stroke-width=".5" x="0" y="0" width="60" height="60"/>
                <use id="zoomplus" xlink:href="#zoomPlus" x="17" y="9" onmousedown="handleZoom(evt,'in')"/>
                <use id="zoomminus" xlink:href="#zoomMin" x="42" y="9" onmousedown="handleZoom(evt,'out')"/>
                <use id="reset" xlink:href="#resetDef" x="30" y="36" onmousedown="handleReset()"/>
                <g id="arrowUp" xlink:href="#dirArrow" transform="translate(30 24)" onmousedown="handlePan(0,-1)">
                  <use xlink:href="#rim" fill="#404040">
                        <set attributeName="fill" to="#808080" begin="arrowUp.mouseover" end="arrowUp.mouseout"/>
                  </use>
                  <path fill="none" stroke="white" stroke-width="1.5" d="M0,-3.0v7 M-2.5,-0.5L0,-3.0L2.5,-0.5"/>
                </g>
                <g id="arrowRight" xlink:href="#dirArrow" transform="rotate(90) translate(36 -43)" onmousedown="handlePan(1,0)">
                  <use xlink:href="#rim" fill="#404040">
                        <set attributeName="fill" to="#808080" begin="arrowRight.mouseover" end="arrowRight.mouseout"/>
                  </use>
                  <path fill="none" stroke="white" stroke-width="1.5" d="M0,-3.0v7 M-2.5,-0.5L0,-3.0L2.5,-0.5"/>
                </g>
                <g id="arrowDown" xlink:href="#dirArrow" transform="rotate(180) translate(-30 -48)" onmousedown="handlePan(0,1)">
                  <use xlink:href="#rim" fill="#404040">
                        <set attributeName="fill" to="#808080" begin="arrowDown.mouseover" end="arrowDown.mouseout"/>
                  </use>
                  <path fill="none" stroke="white" stroke-width="1.5" d="M0,-3.0v7 M-2.5,-0.5L0,-3.0L2.5,-0.5"/>
                </g>
                <g id="arrowLeft" xlink:href="#dirArrow" transform="rotate(270) translate(-36 17)" onmousedown="handlePan(-1,0)">
                  <use xlink:href="#rim" fill="#404040">
                        <set attributeName="fill" to="#808080" begin="arrowLeft.mouseover" end="arrowLeft.mouseout"/>
                  </use>
                  <path fill="none" stroke="white" stroke-width="1.5" d="M0,-3.0v7 M-2.5,-0.5L0,-3.0L2.5,-0.5"/>
                </g>
        </g>
        <svg viewBox="0 0 15 15" width="100%" height="30px" preserveAspectRatio="xMaxYMin meet">
         <g id="arrow_out" transform="scale(0.3 0.3)">
          <a xlink:href="class_l_f_s_t_k__multi_line_edit_class_afabfc40cf51898aa669d7aaf16660899_afabfc40cf51898aa669d7aaf16660899_cgraph_org.svg" target="_base">
           <rect id="button" ry="5" rx="5" y="6" x="6" height="38" width="38"
                fill="#f2f5e9" fill-opacity="0.5" stroke="#606060" stroke-width="1.0"/>
           <path id="arrow"
             d="M 11.500037,31.436501 C 11.940474,20.09759 22.043105,11.32322 32.158766,21.979434 L 37.068811,17.246167 C 37.068811,17.246167 37.088388,32 37.088388,32 L 22.160133,31.978069 C 22.160133,31.978069 26.997745,27.140456 26.997745,27.140456 C 18.528582,18.264221 13.291696,25.230495 11.500037,31.436501 z"
             style="fill:#404040;"/>
          </a>
         </g>
        </svg>
</svg>
