<?xml version="1.0" encoding="UTF-8" standalone="no"?>
<!DOCTYPE svg PUBLIC "-//W3C//DTD SVG 1.1//EN"
 "http://www.w3.org/Graphics/SVG/1.1/DTD/svg11.dtd">
<!-- Generated by graphviz version 2.40.1 (20161225.0304)
 -->
<!-- Title: LFSTK_toggleButtonClass Pages: 1 -->
<svg width="802pt" height="344pt"
 viewBox="0.00 0.00 802.24 344.00" xmlns="http://www.w3.org/2000/svg" xmlns:xlink="http://www.w3.org/1999/xlink">
<g id="graph0" class="graph" transform="scale(1 1) rotate(0) translate(4 340)">
<title>LFSTK_toggleButtonClass</title>
<!-- Node1 -->
<g id="node1" class="node">
<title>Node1</title>
<g id="a_node1"><a xlink:title="Toglle button class for LFSToolKit.">
<polygon fill="#bfbfbf" stroke="#000000" points="0,-.5 0,-20.5 133.809,-20.5 133.809,-.5 0,-.5"/>
<text text-anchor="middle" x="66.9045" y="-7.5" font-family="Helvetica,sans-Serif" font-size="10.00" fill="#000000">LFSTK_toggleButtonClass</text>
</a>
</g>
</g>
<!-- Node2 -->
<g id="node2" class="node">
<title>Node2</title>
<g id="a_node2"><a xlink:href="class_l_f_s_t_k__gadget_class.xhtml" target="_top" xlink:title="Base class for LFSToolKit gadgets.">
<polygon fill="none" stroke="#000000" points="177.782,-81.5 177.782,-101.5 286.027,-101.5 286.027,-81.5 177.782,-81.5"/>
<text text-anchor="middle" x="231.9045" y="-88.5" font-family="Helvetica,sans-Serif" font-size="10.00" fill="#000000">LFSTK_gadgetClass</text>
</a>
</g>
</g>
<!-- Node2&#45;&gt;Node1 -->
<g id="edge1" class="edge">
<title>Node2&#45;&gt;Node1</title>
<path fill="none" stroke="#191970" d="M185.5457,-78.3513C172.759,-74.0856 159.0652,-68.9063 146.9045,-63 121.7998,-50.8069 95.1919,-32.0074 79.8654,-20.5235"/>
<polygon fill="#191970" stroke="#191970" points="184.5149,-81.6963 195.1064,-81.4321 186.6619,-75.0337 184.5149,-81.6963"/>
</g>
<!-- Node7 -->
<g id="node7" class="node">
<title>Node7</title>
<g id="a_node7"><a xlink:href="class_l_f_s_t_k__window_class.xhtml" target="_top" xlink:title="Window class for LFSToolKit.">
<polygon fill="none" stroke="#000000" points="422.402,-.5 422.402,-20.5 533.407,-20.5 533.407,-.5 422.402,-.5"/>
<text text-anchor="middle" x="477.9045" y="-7.5" font-family="Helvetica,sans-Serif" font-size="10.00" fill="#000000">LFSTK_windowClass</text>
</a>
</g>
</g>
<!-- Node2&#45;&gt;Node7 -->
<g id="edge10" class="edge">
<title>Node2&#45;&gt;Node7</title>
<path fill="none" stroke="#9a32cd" stroke-dasharray="5,2" d="M260.7565,-76.704C268.68,-72.4471 277.2068,-67.6842 284.9045,-63 301.0438,-53.1789 302.5102,-46.1696 319.9895,-39 352.4657,-25.679 391.2278,-18.5668 422.2208,-14.7786"/>
<polygon fill="#9a32cd" stroke="#9a32cd" points="259.0198,-73.6631 251.8179,-81.4337 262.2937,-79.8503 259.0198,-73.6631"/>
<text text-anchor="middle" x="361.862" y="-54" font-family="Helvetica,sans-Serif" font-size="10.00" fill="#000000"> dropGadget</text>
<text text-anchor="middle" x="361.862" y="-42" font-family="Helvetica,sans-Serif" font-size="10.00" fill="#000000">popupFromGadget</text>
</g>
<!-- Node12 -->
<g id="node12" class="node">
<title>Node12</title>
<g id="a_node12"><a xlink:href="structmapped_listener.xhtml" target="_top" xlink:title=" ">
<polygon fill="none" stroke="#000000" points="152.061,-.5 152.061,-20.5 239.748,-20.5 239.748,-.5 152.061,-.5"/>
<text text-anchor="middle" x="195.9045" y="-7.5" font-family="Helvetica,sans-Serif" font-size="10.00" fill="#000000">mappedListener</text>
</a>
</g>
</g>
<!-- Node2&#45;&gt;Node12 -->
<g id="edge16" class="edge">
<title>Node2&#45;&gt;Node12</title>
<path fill="none" stroke="#9a32cd" stroke-dasharray="5,2" d="M182.8636,-78.3558C169.8862,-73.8426 158.4049,-68.5264 154.5515,-63 148.4506,-54.2503 149.5911,-48.4431 154.5515,-39 158.6063,-31.281 165.8033,-25.2437 173.0688,-20.7521"/>
<polygon fill="#9a32cd" stroke="#9a32cd" points="181.8976,-81.7221 192.49,-81.4918 184.0659,-75.0664 181.8976,-81.7221"/>
<text text-anchor="middle" x="171.581" y="-48" font-family="Helvetica,sans-Serif" font-size="10.00" fill="#000000"> gadget</text>
</g>
<!-- Node3 -->
<g id="node3" class="node">
<title>Node3</title>
<g id="a_node3"><a xlink:href="structgadget_struct.xhtml" target="_top" xlink:title=" ">
<polygon fill="none" stroke="#000000" points="315.56,-158 315.56,-178 388.249,-178 388.249,-158 315.56,-158"/>
<text text-anchor="middle" x="351.9045" y="-165" font-family="Helvetica,sans-Serif" font-size="10.00" fill="#000000">gadgetStruct</text>
</a>
</g>
</g>
<!-- Node3&#45;&gt;Node2 -->
<g id="edge2" class="edge">
<title>Node3&#45;&gt;Node2</title>
<path fill="none" stroke="#9a32cd" stroke-dasharray="5,2" d="M327.7025,-152.5712C303.8139,-137.3422 267.9909,-114.5051 247.5963,-101.5035"/>
<polygon fill="#9a32cd" stroke="#9a32cd" points="325.9028,-155.5746 336.2166,-157.999 329.6658,-149.672 325.9028,-155.5746"/>
<text text-anchor="middle" x="323.858" y="-123" font-family="Helvetica,sans-Serif" font-size="10.00" fill="#000000"> gadgetDetails</text>
</g>
<!-- Node4 -->
<g id="node4" class="node">
<title>Node4</title>
<g id="a_node4"><a xlink:href="structgeometry_struct.xhtml" target="_top" xlink:title=" ">
<polygon fill="none" stroke="#000000" points="564.0105,-246.5 564.0105,-266.5 647.7985,-266.5 647.7985,-246.5 564.0105,-246.5"/>
<text text-anchor="middle" x="605.9045" y="-253.5" font-family="Helvetica,sans-Serif" font-size="10.00" fill="#000000">geometryStruct</text>
</a>
</g>
</g>
<!-- Node4&#45;&gt;Node2 -->
<g id="edge6" class="edge">
<title>Node4&#45;&gt;Node2</title>
<path fill="none" stroke="#9a32cd" stroke-dasharray="5,2" d="M606.8752,-235.8971C608.0013,-201.7306 607.9728,-135.5578 591.9045,-120 571.3391,-100.088 363.4248,-104.4519 334.9045,-102 319.0554,-100.6375 301.8549,-98.9621 286.1315,-97.3531"/>
<polygon fill="#9a32cd" stroke="#9a32cd" points="603.3683,-236.0071 606.4706,-246.1376 610.3628,-236.2836 603.3683,-236.0071"/>
<text text-anchor="middle" x="636.194" y="-165" font-family="Helvetica,sans-Serif" font-size="10.00" fill="#000000"> gadgetGeom</text>
</g>
<!-- Node4&#45;&gt;Node3 -->
<g id="edge3" class="edge">
<title>Node4&#45;&gt;Node3</title>
<path fill="none" stroke="#9a32cd" stroke-dasharray="5,2" d="M564.5244,-243.2872C522.1891,-229.5952 454.6217,-207.2597 396.9045,-186 390.2721,-183.557 383.1472,-180.7792 376.5672,-178.1494"/>
<polygon fill="#9a32cd" stroke="#9a32cd" points="563.6101,-246.6698 574.2017,-246.4086 565.7589,-240.0078 563.6101,-246.6698"/>
<text text-anchor="middle" x="548.798" y="-219" font-family="Helvetica,sans-Serif" font-size="10.00" fill="#000000"> indicatorGeom</text>
<text text-anchor="middle" x="548.798" y="-207" font-family="Helvetica,sans-Serif" font-size="10.00" fill="#000000">gadgetGeom</text>
</g>
<!-- Node4&#45;&gt;Node7 -->
<g id="edge8" class="edge">
<title>Node4&#45;&gt;Node7</title>
<path fill="none" stroke="#9a32cd" stroke-dasharray="5,2" d="M652.2597,-242.9988C679.7944,-232.3233 712.4571,-214.3848 728.9045,-186 743.6262,-160.5934 738.1421,-146.692 725.9045,-120 705.2038,-74.8487 692.7788,-62.2854 648.9045,-39 629.2982,-28.5943 575.5175,-20.7183 533.4519,-15.9113"/>
<polygon fill="#9a32cd" stroke="#9a32cd" points="650.954,-239.7497 642.7692,-246.4772 653.3629,-246.3221 650.954,-239.7497"/>
<text text-anchor="middle" x="762.574" y="-123" font-family="Helvetica,sans-Serif" font-size="10.00" fill="#000000"> windowGeom</text>
</g>
<!-- Node5 -->
<g id="node5" class="node">
<title>Node5</title>
<g id="a_node5"><a xlink:href="structcolour_struct.xhtml" target="_top" xlink:title=" ">
<polygon fill="none" stroke="#000000" points="317.2345,-246.5 317.2345,-266.5 386.5745,-266.5 386.5745,-246.5 317.2345,-246.5"/>
<text text-anchor="middle" x="351.9045" y="-253.5" font-family="Helvetica,sans-Serif" font-size="10.00" fill="#000000">colourStruct</text>
</a>
</g>
</g>
<!-- Node5&#45;&gt;Node2 -->
<g id="edge18" class="edge">
<title>Node5&#45;&gt;Node2</title>
<path fill="none" stroke="#9a32cd" stroke-dasharray="5,2" d="M307.5558,-243.7184C279.6805,-233.1306 245.9193,-215.0198 229.1185,-186 213.4935,-159.0113 222.5965,-120.0293 228.3288,-101.7232"/>
<polygon fill="#9a32cd" stroke="#9a32cd" points="306.5382,-247.0717 317.1327,-247.1552 308.9027,-240.4831 306.5382,-247.0717"/>
<text text-anchor="middle" x="268.7975" y="-177" font-family="Helvetica,sans-Serif" font-size="10.00" fill="#000000"> labelBGColour</text>
<text text-anchor="middle" x="268.7975" y="-165" font-family="Helvetica,sans-Serif" font-size="10.00" fill="#000000">colourNames</text>
<text text-anchor="middle" x="268.7975" y="-153" font-family="Helvetica,sans-Serif" font-size="10.00" fill="#000000">fontColourNames</text>
</g>
<!-- Node5&#45;&gt;Node3 -->
<g id="edge4" class="edge">
<title>Node5&#45;&gt;Node3</title>
<path fill="none" stroke="#9a32cd" stroke-dasharray="5,2" d="M351.9045,-236.1978C351.9045,-218.0125 351.9045,-192.1048 351.9045,-178.0337"/>
<polygon fill="#9a32cd" stroke="#9a32cd" points="348.4046,-236.3479 351.9045,-246.3479 355.4046,-236.348 348.4046,-236.3479"/>
<text text-anchor="middle" x="366.9065" y="-213" font-family="Helvetica,sans-Serif" font-size="10.00" fill="#000000"> colour</text>
</g>
<!-- Node5&#45;&gt;Node7 -->
<g id="edge12" class="edge">
<title>Node5&#45;&gt;Node7</title>
<path fill="none" stroke="#9a32cd" stroke-dasharray="5,2" d="M396.8551,-251.0077C428.5318,-246.3156 467.4381,-238.63 479.9045,-228 513.4352,-199.4086 563.6823,-76.0998 539.9045,-39 534.5988,-30.7216 526.2162,-24.8154 517.3096,-20.6133"/>
<polygon fill="#9a32cd" stroke="#9a32cd" points="396.2758,-247.5547 386.8671,-252.4258 397.2599,-254.4852 396.2758,-247.5547"/>
<text text-anchor="middle" x="584.516" y="-123" font-family="Helvetica,sans-Serif" font-size="10.00" fill="#000000"> windowColourNames</text>
</g>
<!-- Node6 -->
<g id="node6" class="node">
<title>Node6</title>
<g id="a_node6"><a xlink:href="structcairo_color.xhtml" target="_top" xlink:title=" ">
<polygon fill="none" stroke="#000000" points="321.129,-315.5 321.129,-335.5 382.68,-335.5 382.68,-315.5 321.129,-315.5"/>
<text text-anchor="middle" x="351.9045" y="-322.5" font-family="Helvetica,sans-Serif" font-size="10.00" fill="#000000">cairoColor</text>
</a>
</g>
</g>
<!-- Node6&#45;&gt;Node5 -->
<g id="edge5" class="edge">
<title>Node6&#45;&gt;Node5</title>
<path fill="none" stroke="#9a32cd" stroke-dasharray="5,2" d="M351.9045,-305.2177C351.9045,-292.5684 351.9045,-276.8285 351.9045,-266.723"/>
<polygon fill="#9a32cd" stroke="#9a32cd" points="348.4046,-305.3188 351.9045,-315.3188 355.4046,-305.3188 348.4046,-305.3188"/>
<text text-anchor="middle" x="382.184" y="-288" font-family="Helvetica,sans-Serif" font-size="10.00" fill="#000000"> RGBAColour</text>
</g>
<!-- Node7&#45;&gt;Node2 -->
<g id="edge7" class="edge">
<title>Node7&#45;&gt;Node2</title>
<path fill="none" stroke="#9a32cd" stroke-dasharray="5,2" d="M411.9748,-13.7857C343.6483,-17.8736 245.1473,-25.9527 233.2325,-39 222.9034,-50.3108 225.5594,-69.386 228.6058,-81.1637"/>
<polygon fill="#9a32cd" stroke="#9a32cd" points="412.4636,-17.2632 422.2431,-13.1876 412.0564,-10.2751 412.4636,-17.2632"/>
<text text-anchor="middle" x="259.7405" y="-54" font-family="Helvetica,sans-Serif" font-size="10.00" fill="#000000"> contextWC</text>
<text text-anchor="middle" x="259.7405" y="-42" font-family="Helvetica,sans-Serif" font-size="10.00" fill="#000000">wc</text>
</g>
<!-- Node8 -->
<g id="node8" class="node">
<title>Node8</title>
<g id="a_node8"><a xlink:href="structmonitor_struct.xhtml" target="_top" xlink:title=" ">
<polygon fill="none" stroke="#000000" points="344.1805,-81.5 344.1805,-101.5 419.6285,-101.5 419.6285,-81.5 344.1805,-81.5"/>
<text text-anchor="middle" x="381.9045" y="-88.5" font-family="Helvetica,sans-Serif" font-size="10.00" fill="#000000">monitorStruct</text>
</a>
</g>
</g>
<!-- Node8&#45;&gt;Node7 -->
<g id="edge9" class="edge">
<title>Node8&#45;&gt;Node7</title>
<path fill="none" stroke="#9a32cd" stroke-dasharray="5,2" d="M397.2916,-73.5953C406.925,-62.9219 419.9165,-49.4596 432.7925,-39 441.1335,-32.2243 451.1779,-25.7374 459.6695,-20.6688"/>
<polygon fill="#9a32cd" stroke="#9a32cd" points="394.6413,-71.3089 390.6369,-81.1178 399.8842,-75.947 394.6413,-71.3089"/>
<text text-anchor="middle" x="452.4605" y="-48" font-family="Helvetica,sans-Serif" font-size="10.00" fill="#000000"> monitors</text>
</g>
<!-- Node9 -->
<g id="node9" class="node">
<title>Node9</title>
<g id="a_node9"><a xlink:href="structdrop_data_struct.xhtml" target="_top" xlink:title=" ">
<polygon fill="none" stroke="#000000" points="437.286,-81.5 437.286,-101.5 520.523,-101.5 520.523,-81.5 437.286,-81.5"/>
<text text-anchor="middle" x="478.9045" y="-88.5" font-family="Helvetica,sans-Serif" font-size="10.00" fill="#000000">dropDataStruct</text>
</a>
</g>
</g>
<!-- Node9&#45;&gt;Node7 -->
<g id="edge11" class="edge">
<title>Node9&#45;&gt;Node7</title>
<path fill="none" stroke="#9a32cd" stroke-dasharray="5,2" d="M478.6538,-71.1972C478.4552,-55.1048 478.1859,-33.2944 478.0301,-20.6754"/>
<polygon fill="#9a32cd" stroke="#9a32cd" points="475.1546,-71.2853 478.7778,-81.2413 482.154,-71.1988 475.1546,-71.2853"/>
<text text-anchor="middle" x="508.1935" y="-48" font-family="Helvetica,sans-Serif" font-size="10.00" fill="#000000"> droppedData</text>
</g>
<!-- Node10 -->
<g id="node10" class="node">
<title>Node10</title>
<g id="a_node10"><a xlink:href="class_l_f_s_t_k__lib.xhtml" target="_top" xlink:title="Library of useful routines for LFSToolKit.">
<polygon fill="none" stroke="#000000" points="603.569,-81.5 603.569,-101.5 666.24,-101.5 666.24,-81.5 603.569,-81.5"/>
<text text-anchor="middle" x="634.9045" y="-88.5" font-family="Helvetica,sans-Serif" font-size="10.00" fill="#000000">LFSTK_lib</text>
</a>
</g>
</g>
<!-- Node10&#45;&gt;Node7 -->
<g id="edge13" class="edge">
<title>Node10&#45;&gt;Node7</title>
<path fill="none" stroke="#9a32cd" stroke-dasharray="5,2" d="M616.7653,-74.3412C603.9508,-62.9922 585.915,-48.5065 567.9045,-39 553.1201,-31.1964 535.8293,-25.0868 520.3765,-20.5602"/>
<polygon fill="#9a32cd" stroke="#9a32cd" points="614.6255,-77.126 624.3795,-81.2623 619.3339,-71.9461 614.6255,-77.126"/>
<text text-anchor="middle" x="623.2995" y="-48" font-family="Helvetica,sans-Serif" font-size="10.00" fill="#000000"> globalLib</text>
</g>
<!-- Node11 -->
<g id="node11" class="node">
<title>Node11</title>
<g id="a_node11"><a xlink:href="structargs.xhtml" target="_top" xlink:title=" ">
<polygon fill="none" stroke="#000000" points="684.181,-158 684.181,-178 719.628,-178 719.628,-158 684.181,-158"/>
<text text-anchor="middle" x="701.9045" y="-165" font-family="Helvetica,sans-Serif" font-size="10.00" fill="#000000">args</text>
</a>
</g>
</g>
<!-- Node11&#45;&gt;Node10 -->
<g id="edge14" class="edge">
<title>Node11&#45;&gt;Node10</title>
<path fill="none" stroke="#9a32cd" stroke-dasharray="5,2" d="M675.5712,-152.6355C664.0091,-145.4468 652.1478,-137.3177 648.1205,-132 641.3332,-123.038 637.9466,-110.4405 636.3153,-101.6842"/>
<polygon fill="#9a32cd" stroke="#9a32cd" points="673.8556,-155.6885 684.2198,-157.8873 677.4889,-149.7052 673.8556,-155.6885"/>
<text text-anchor="middle" x="686.7965" y="-123" font-family="Helvetica,sans-Serif" font-size="10.00" fill="#000000"> lfsToolKitGlobals</text>
</g>
<!-- Node12&#45;&gt;Node2 -->
<g id="edge15" class="edge">
<title>Node12&#45;&gt;Node2</title>
<path fill="none" stroke="#9a32cd" stroke-dasharray="5,2" d="M192.2339,-30.7673C191.3463,-40.9228 191.7788,-53.1261 196.5775,-63 200.2287,-70.5128 206.913,-76.6903 213.4926,-81.3502"/>
<polygon fill="#9a32cd" stroke="#9a32cd" points="195.7159,-31.1338 193.571,-20.7584 188.7776,-30.2068 195.7159,-31.1338"/>
<text text-anchor="middle" x="203.568" y="-48" font-family="Helvetica,sans-Serif" font-size="10.00" fill="#000000"> ml</text>
</g>
<!-- Node13 -->
<g id="node13" class="node">
<title>Node13</title>
<g id="a_node13"><a xlink:href="structbutton_c_b.xhtml" target="_top" xlink:title=" ">
<polygon fill="none" stroke="#000000" points="406.0635,-158 406.0635,-178 463.7455,-178 463.7455,-158 406.0635,-158"/>
<text text-anchor="middle" x="434.9045" y="-165" font-family="Helvetica,sans-Serif" font-size="10.00" fill="#000000">buttonCB</text>
</a>
</g>
</g>
<!-- Node13&#45;&gt;Node2 -->
<g id="edge17" class="edge">
<title>Node13&#45;&gt;Node2</title>
<path fill="none" stroke="#9a32cd" stroke-dasharray="5,2" d="M413.9153,-151.7174C399.4583,-141.24 379.408,-128.1129 359.9045,-120 336.5719,-110.2943 309.4086,-103.6472 286.1231,-99.231"/>
<polygon fill="#9a32cd" stroke="#9a32cd" points="412.0254,-154.6736 422.1391,-157.8301 416.2012,-149.0555 412.0254,-154.6736"/>
<text text-anchor="middle" x="400.3515" y="-123" font-family="Helvetica,sans-Serif" font-size="10.00" fill="#000000"> callback</text>
</g>
</g>
</svg>
