<?xml version="1.0" encoding="UTF-8" standalone="no"?>
<!DOCTYPE svg PUBLIC "-//W3C//DTD SVG 1.1//EN"
 "http://www.w3.org/Graphics/SVG/1.1/DTD/svg11.dtd">
<!-- Generated by graphviz version 2.40.1 (20161225.0304)
 -->
<!-- Title: LFSTK_windowClass::LFSTK_resizeWindow Pages: 1 -->
<!--zoomable 551 -->
<svg id="main" version="1.1" xmlns="http://www.w3.org/2000/svg" xmlns:xlink="http://www.w3.org/1999/xlink" xml:space="preserve" onload="init(evt)">
<style type="text/css"><![CDATA[
.edge:hover path { stroke: red; }
.edge:hover polygon { stroke: red; fill: red; }
]]></style>
<script type="text/javascript"><![CDATA[
var edges = document.getElementsByTagName('g');
if (edges && edges.length) {
  for (var i=0;i<edges.length;i++) {
    if (edges[i].id.substr(0,4)=='edge') {
      edges[i].setAttribute('class','edge');
    }
  }
}
]]></script>
        <defs>
                <circle id="rim" cx="0" cy="0" r="7"/>
                <circle id="rim2" cx="0" cy="0" r="3.5"/>
                <g id="zoomPlus">
                        <use xlink:href="#rim" fill="#404040">
                                <set attributeName="fill" to="#808080" begin="zoomplus.mouseover" end="zoomplus.mouseout"/>
                        </use>
                        <path d="M-4,0h8M0,-4v8" fill="none" stroke="white" stroke-width="1.5" pointer-events="none"/>
                </g>
                <g id="zoomMin">
                        <use xlink:href="#rim" fill="#404040">
                                <set attributeName="fill" to="#808080" begin="zoomminus.mouseover" end="zoomminus.mouseout"/>
                        </use>
                        <path d="M-4,0h8" fill="none" stroke="white" stroke-width="1.5" pointer-events="none"/>
                </g>
                <g id="dirArrow">
                        <path fill="none" stroke="white" stroke-width="1.5" d="M0,-3.0v7 M-2.5,-0.5L0,-3.0L2.5,-0.5"/>
                </g>
               <g id="resetDef">
                       <use xlink:href="#rim2" fill="#404040">
                               <set attributeName="fill" to="#808080" begin="reset.mouseover" end="reset.mouseout"/>
                       </use>
               </g>
        </defs>

<script type="text/javascript">
var viewWidth = 684;
var viewHeight = 551;
var sectionId = 'dynsection-1';
</script>
<script xlink:href="svgpan.js"/>
<svg id="graph" class="graph">
<g id="viewport">
<title>LFSTK_windowClass::LFSTK_resizeWindow</title>
<!-- Node1 -->
<g id="node1" class="node">
<title>Node1</title>
<g id="a_node1"><a xlink:title=" ">
<polygon fill="#bfbfbf" stroke="#000000" points="559.42,-280.5 559.42,-312.5 675.983,-312.5 675.983,-280.5 559.42,-280.5"/>
<text text-anchor="start" x="567.42" y="-299.5" font-family="Helvetica,sans-Serif" font-size="10.00" fill="#000000">LFSTK_windowClass::</text>
<text text-anchor="middle" x="617.7015" y="-287.5" font-family="Helvetica,sans-Serif" font-size="10.00" fill="#000000">LFSTK_resizeWindow</text>
</a>
</g>
</g>
<!-- Node2 -->
<g id="node2" class="node">
<title>Node2</title>
<g id="a_node2"><a xlink:href="class_l_f_s_t_k__font_dialog_class_af866eb2b1ba8178c9cf3e751716fcc8e.xhtml#af866eb2b1ba8178c9cf3e751716fcc8e" target="_top" xlink:title=" ">
<polygon fill="none" stroke="#000000" points="387.6755,-382.5 387.6755,-414.5 510.3565,-414.5 510.3565,-382.5 387.6755,-382.5"/>
<text text-anchor="start" x="395.6755" y="-401.5" font-family="Helvetica,sans-Serif" font-size="10.00" fill="#000000">LFSTK_fontDialogClass</text>
<text text-anchor="middle" x="449.016" y="-389.5" font-family="Helvetica,sans-Serif" font-size="10.00" fill="#000000">::buildDialog</text>
</a>
</g>
</g>
<!-- Node1&#45;&gt;Node2 -->
<g id="edge1" class="edge">
<title>Node1&#45;&gt;Node2</title>
<path fill="none" stroke="#191970" d="M582.3983,-317.847C550.5617,-337.0978 504.4413,-364.9857 475.6197,-382.4134"/>
<polygon fill="#191970" stroke="#191970" points="584.2266,-320.8316 590.9728,-312.6622 580.6045,-314.8416 584.2266,-320.8316"/>
</g>
<!-- Node4 -->
<g id="node4" class="node">
<title>Node4</title>
<g id="a_node4"><a xlink:href="class_l_f_s_t_k__gadget_class_a2a450a6784d5743e14340cc8ebd05d15.xhtml#a2a450a6784d5743e14340cc8ebd05d15" target="_top" xlink:title=" ">
<polygon fill="none" stroke="#000000" points="392.1145,-280.5 392.1145,-312.5 505.9175,-312.5 505.9175,-280.5 392.1145,-280.5"/>
<text text-anchor="start" x="400.1145" y="-299.5" font-family="Helvetica,sans-Serif" font-size="10.00" fill="#000000">LFSTK_gadgetClass::</text>
<text text-anchor="middle" x="449.016" y="-287.5" font-family="Helvetica,sans-Serif" font-size="10.00" fill="#000000">LFSTK_doPopUp</text>
</a>
</g>
</g>
<!-- Node1&#45;&gt;Node4 -->
<g id="edge3" class="edge">
<title>Node1&#45;&gt;Node4</title>
<path fill="none" stroke="#191970" d="M548.9275,-296.5C534.669,-296.5 519.7954,-296.5 506.014,-296.5"/>
<polygon fill="#191970" stroke="#191970" points="549.1769,-300.0001 559.1769,-296.5 549.1769,-293.0001 549.1769,-300.0001"/>
</g>
<!-- Node15 -->
<g id="node15" class="node">
<title>Node15</title>
<g id="a_node15"><a xlink:href="class_l_f_s_t_k__window_class_a10d93c702923f9d1528b43fc5010b858.xhtml#a10d93c702923f9d1528b43fc5010b858" target="_top" xlink:title=" ">
<polygon fill="none" stroke="#000000" points="374.612,-105.5 374.612,-137.5 523.42,-137.5 523.42,-105.5 374.612,-105.5"/>
<text text-anchor="start" x="382.612" y="-124.5" font-family="Helvetica,sans-Serif" font-size="10.00" fill="#000000">LFSTK_windowClass::</text>
<text text-anchor="middle" x="449.016" y="-112.5" font-family="Helvetica,sans-Serif" font-size="10.00" fill="#000000">LFSTK_handleWindowEvents</text>
</a>
</g>
</g>
<!-- Node1&#45;&gt;Node15 -->
<g id="edge15" class="edge">
<title>Node1&#45;&gt;Node15</title>
<path fill="none" stroke="#191970" d="M594.7732,-272.7134C559.8881,-236.5224 494.3914,-168.5739 464.5455,-137.6109"/>
<polygon fill="#191970" stroke="#191970" points="592.6744,-275.5793 602.1343,-280.3501 597.7143,-270.7213 592.6744,-275.5793"/>
</g>
<!-- Node3 -->
<g id="node3" class="node">
<title>Node3</title>
<g id="a_node3"><a xlink:href="class_l_f_s_t_k__font_dialog_class_ab7b6a4bca99713646ab6ac77dc34827c.xhtml#ab7b6a4bca99713646ab6ac77dc34827c" target="_top" xlink:title=" ">
<polygon fill="none" stroke="#000000" points="6.665,-510.5 6.665,-542.5 134.904,-542.5 134.904,-510.5 6.665,-510.5"/>
<text text-anchor="start" x="14.665" y="-529.5" font-family="Helvetica,sans-Serif" font-size="10.00" fill="#000000">LFSTK_fontDialogClass</text>
<text text-anchor="middle" x="70.7845" y="-517.5" font-family="Helvetica,sans-Serif" font-size="10.00" fill="#000000">::LFSTK_fontDialogClass</text>
</a>
</g>
</g>
<!-- Node2&#45;&gt;Node3 -->
<g id="edge2" class="edge">
<title>Node2&#45;&gt;Node3</title>
<path fill="none" stroke="#191970" d="M391.7705,-417.8729C317.0346,-443.1648 187.5909,-486.9707 118.1104,-510.4841"/>
<polygon fill="#191970" stroke="#191970" points="393.1454,-421.1026 401.4957,-414.5817 390.9014,-414.472 393.1454,-421.1026"/>
</g>
<!-- Node5 -->
<g id="node5" class="node">
<title>Node5</title>
<g id="a_node5"><a xlink:href="class_l_f_s_t_k__lib_af01ab10da12946856ae6bc2a23414cf8.xhtml#af01ab10da12946856ae6bc2a23414cf8" target="_top" xlink:title=" ">
<polygon fill="none" stroke="#000000" points="177.569,-286.5 177.569,-306.5 338.612,-306.5 338.612,-286.5 177.569,-286.5"/>
<text text-anchor="middle" x="258.0905" y="-293.5" font-family="Helvetica,sans-Serif" font-size="10.00" fill="#000000">LFSTK_lib::LFSTK_gadgetEvent</text>
</a>
</g>
</g>
<!-- Node4&#45;&gt;Node5 -->
<g id="edge4" class="edge">
<title>Node4&#45;&gt;Node5</title>
<path fill="none" stroke="#191970" d="M381.6014,-296.5C367.7671,-296.5 353.0704,-296.5 338.8223,-296.5"/>
<polygon fill="#191970" stroke="#191970" points="381.9907,-300.0001 391.9907,-296.5 381.9906,-293.0001 381.9907,-300.0001"/>
</g>
<!-- Node5&#45;&gt;Node3 -->
<g id="edge6" class="edge">
<title>Node5&#45;&gt;Node3</title>
<path fill="none" stroke="#191970" d="M252.1203,-316.2427C238.8796,-356.7752 203.2472,-449.8937 141.569,-501.5 137.4708,-504.929 132.8697,-507.9008 128.0319,-510.4741"/>
<polygon fill="#191970" stroke="#191970" points="255.4588,-317.2934 255.1361,-306.7035 248.7844,-315.1833 255.4588,-317.2934"/>
</g>
<!-- Node6 -->
<g id="node6" class="node">
<title>Node6</title>
<g id="a_node6"><a xlink:href="class_l_f_s_t_k__button_class_a2b46d2136069e61fc8c8ee88519b2a8f.xhtml#a2b46d2136069e61fc8c8ee88519b2a8f" target="_top" xlink:title=" ">
<polygon fill="none" stroke="#000000" points="15.273,-459.5 15.273,-491.5 126.296,-491.5 126.296,-459.5 15.273,-459.5"/>
<text text-anchor="start" x="23.273" y="-478.5" font-family="Helvetica,sans-Serif" font-size="10.00" fill="#000000">LFSTK_buttonClass::</text>
<text text-anchor="middle" x="70.7845" y="-466.5" font-family="Helvetica,sans-Serif" font-size="10.00" fill="#000000">LFSTK_buttonClass</text>
</a>
</g>
</g>
<!-- Node5&#45;&gt;Node6 -->
<g id="edge5" class="edge">
<title>Node5&#45;&gt;Node6</title>
<path fill="none" stroke="#191970" d="M248.453,-315.6602C231.2726,-347.968 192.3416,-413.3808 141.569,-450.5 136.9397,-453.8844 131.8107,-456.8439 126.4905,-459.4247"/>
<polygon fill="#191970" stroke="#191970" points="251.5702,-317.2518 253.0756,-306.7644 245.3588,-314.024 251.5702,-317.2518"/>
</g>
<!-- Node7 -->
<g id="node7" class="node">
<title>Node7</title>
<g id="a_node7"><a xlink:href="class_l_f_s_t_k__image_class_aff24b6452cb0a5d821b81770aa8f58d5.xhtml#aff24b6452cb0a5d821b81770aa8f58d5" target="_top" xlink:title=" ">
<polygon fill="none" stroke="#000000" points="0,-408.5 0,-440.5 141.569,-440.5 141.569,-408.5 0,-408.5"/>
<text text-anchor="start" x="8" y="-427.5" font-family="Helvetica,sans-Serif" font-size="10.00" fill="#000000">LFSTK_imageClass::LFSTK</text>
<text text-anchor="middle" x="70.7845" y="-415.5" font-family="Helvetica,sans-Serif" font-size="10.00" fill="#000000">_imageClass</text>
</a>
</g>
</g>
<!-- Node5&#45;&gt;Node7 -->
<g id="edge7" class="edge">
<title>Node5&#45;&gt;Node7</title>
<path fill="none" stroke="#191970" d="M242.229,-314.2299C221.1925,-336.805 181.9868,-375.7264 141.569,-399.5 135.9521,-402.8038 129.8292,-405.7707 123.612,-408.4064"/>
<polygon fill="#191970" stroke="#191970" points="244.9456,-316.446 249.1258,-306.7106 239.787,-311.7143 244.9456,-316.446"/>
</g>
<!-- Node8 -->
<g id="node8" class="node">
<title>Node8</title>
<g id="a_node8"><a xlink:href="class_l_f_s_t_k__label_class_a6085feaa122a3d1060351c659889628c.xhtml#a6085feaa122a3d1060351c659889628c" target="_top" xlink:title=" ">
<polygon fill="none" stroke="#000000" points="3.055,-357.5 3.055,-389.5 138.514,-389.5 138.514,-357.5 3.055,-357.5"/>
<text text-anchor="start" x="11.055" y="-376.5" font-family="Helvetica,sans-Serif" font-size="10.00" fill="#000000">LFSTK_labelClass::LFSTK</text>
<text text-anchor="middle" x="70.7845" y="-364.5" font-family="Helvetica,sans-Serif" font-size="10.00" fill="#000000">_labelClass</text>
</a>
</g>
</g>
<!-- Node5&#45;&gt;Node8 -->
<g id="edge8" class="edge">
<title>Node5&#45;&gt;Node8</title>
<path fill="none" stroke="#191970" d="M227.4663,-310.9755C204.1317,-321.8073 171.0945,-336.7199 141.569,-348.5 133.9428,-351.5427 125.7833,-354.6019 117.8148,-357.4851"/>
<polygon fill="#191970" stroke="#191970" points="229.2524,-314.0045 236.8343,-306.6042 226.2923,-307.6611 229.2524,-314.0045"/>
</g>
<!-- Node9 -->
<g id="node9" class="node">
<title>Node9</title>
<g id="a_node9"><a xlink:href="class_l_f_s_t_k__line_edit_class_af610951625203a6d75bce118b2b94386.xhtml#af610951625203a6d75bce118b2b94386" target="_top" xlink:title=" ">
<polygon fill="none" stroke="#000000" points="12.779,-306.5 12.779,-338.5 128.79,-338.5 128.79,-306.5 12.779,-306.5"/>
<text text-anchor="start" x="20.779" y="-325.5" font-family="Helvetica,sans-Serif" font-size="10.00" fill="#000000">LFSTK_lineEditClass</text>
<text text-anchor="middle" x="70.7845" y="-313.5" font-family="Helvetica,sans-Serif" font-size="10.00" fill="#000000">::LFSTK_lineEditClass</text>
</a>
</g>
</g>
<!-- Node5&#45;&gt;Node9 -->
<g id="edge9" class="edge">
<title>Node5&#45;&gt;Node9</title>
<path fill="none" stroke="#191970" d="M175.6746,-307.9402C159.9287,-310.1259 143.7527,-312.3713 128.962,-314.4244"/>
<polygon fill="#191970" stroke="#191970" points="176.5173,-311.3569 185.941,-306.5151 175.5548,-304.4233 176.5173,-311.3569"/>
</g>
<!-- Node10 -->
<g id="node10" class="node">
<title>Node10</title>
<g id="a_node10"><a xlink:href="class_l_f_s_t_k__list_gadget_class_ae3518016f28ec3cd261ad927c5691826.xhtml#ae3518016f28ec3cd261ad927c5691826" target="_top" xlink:title=" ">
<polygon fill="none" stroke="#000000" points="6.6645,-255.5 6.6645,-287.5 134.9045,-287.5 134.9045,-255.5 6.6645,-255.5"/>
<text text-anchor="start" x="14.6645" y="-274.5" font-family="Helvetica,sans-Serif" font-size="10.00" fill="#000000">LFSTK_listGadgetClass</text>
<text text-anchor="middle" x="70.7845" y="-262.5" font-family="Helvetica,sans-Serif" font-size="10.00" fill="#000000">::LFSTK_listGadgetClass</text>
</a>
</g>
</g>
<!-- Node5&#45;&gt;Node10 -->
<g id="edge10" class="edge">
<title>Node5&#45;&gt;Node10</title>
<path fill="none" stroke="#191970" d="M172.8571,-285.1238C160.1499,-283.4277 147.2343,-281.7039 135.0562,-280.0784"/>
<polygon fill="#191970" stroke="#191970" points="172.6101,-288.6218 182.9852,-286.4756 173.5362,-281.6833 172.6101,-288.6218"/>
</g>
<!-- Node11 -->
<g id="node11" class="node">
<title>Node11</title>
<g id="a_node11"><a xlink:href="class_l_f_s_t_k__menu_item_class_a382a9775dff59f06606ef0b3f43382cc.xhtml#a382a9775dff59f06606ef0b3f43382cc" target="_top" xlink:title=" ">
<polygon fill="none" stroke="#000000" points="6.944,-204.5 6.944,-236.5 134.625,-236.5 134.625,-204.5 6.944,-204.5"/>
<text text-anchor="start" x="14.944" y="-223.5" font-family="Helvetica,sans-Serif" font-size="10.00" fill="#000000">LFSTK_menuItemClass</text>
<text text-anchor="middle" x="70.7845" y="-211.5" font-family="Helvetica,sans-Serif" font-size="10.00" fill="#000000">::LFSTK_menuItemClass</text>
</a>
</g>
</g>
<!-- Node5&#45;&gt;Node11 -->
<g id="edge11" class="edge">
<title>Node5&#45;&gt;Node11</title>
<path fill="none" stroke="#191970" d="M226.0722,-282.2149C202.7701,-271.9525 170.3831,-257.9646 141.569,-246.5 133.1757,-243.1605 124.1646,-239.7323 115.4785,-236.5059"/>
<polygon fill="#191970" stroke="#191970" points="224.9043,-285.5253 235.4657,-286.3668 227.7342,-279.1228 224.9043,-285.5253"/>
</g>
<!-- Node12 -->
<g id="node12" class="node">
<title>Node12</title>
<g id="a_node12"><a xlink:href="class_l_f_s_t_k__multi_line_edit_class_a3319d21c84b3437e69bb87dc77531322.xhtml#a3319d21c84b3437e69bb87dc77531322" target="_top" xlink:title=" ">
<polygon fill="none" stroke="#000000" points=".5565,-153.5 .5565,-185.5 141.0125,-185.5 141.0125,-153.5 .5565,-153.5"/>
<text text-anchor="start" x="8.5565" y="-172.5" font-family="Helvetica,sans-Serif" font-size="10.00" fill="#000000">LFSTK_multiLineEditClass</text>
<text text-anchor="middle" x="70.7845" y="-160.5" font-family="Helvetica,sans-Serif" font-size="10.00" fill="#000000">::LFSTK_multiLineEditClass</text>
</a>
</g>
</g>
<!-- Node5&#45;&gt;Node12 -->
<g id="edge12" class="edge">
<title>Node5&#45;&gt;Node12</title>
<path fill="none" stroke="#191970" d="M241.7856,-278.8723C220.5476,-256.7911 181.4062,-219.0069 141.569,-195.5 135.3677,-191.8408 128.5637,-188.5537 121.7023,-185.6479"/>
<polygon fill="#191970" stroke="#191970" points="239.3494,-281.3899 248.7682,-286.2414 244.4306,-276.5752 239.3494,-281.3899"/>
</g>
<!-- Node13 -->
<g id="node13" class="node">
<title>Node13</title>
<g id="a_node13"><a xlink:href="class_l_f_s_t_k__scroll_bar_class_a3da4281c24ac345ba32a4636ce2af38b.xhtml#a3da4281c24ac345ba32a4636ce2af38b" target="_top" xlink:title=" ">
<polygon fill="none" stroke="#000000" points="9.7285,-102.5 9.7285,-134.5 131.8405,-134.5 131.8405,-102.5 9.7285,-102.5"/>
<text text-anchor="start" x="17.7285" y="-121.5" font-family="Helvetica,sans-Serif" font-size="10.00" fill="#000000">LFSTK_scrollBarClass</text>
<text text-anchor="middle" x="70.7845" y="-109.5" font-family="Helvetica,sans-Serif" font-size="10.00" fill="#000000">::LFSTK_scrollBarClass</text>
</a>
</g>
</g>
<!-- Node5&#45;&gt;Node13 -->
<g id="edge13" class="edge">
<title>Node5&#45;&gt;Node13</title>
<path fill="none" stroke="#191970" d="M242.6281,-278.7846C225.9953,-259.4797 199.0442,-227.4701 177.569,-198.5 160.3918,-175.3279 164.2243,-162.3532 141.569,-144.5 136.7361,-140.6915 131.2919,-137.4051 125.6238,-134.5774"/>
<polygon fill="#191970" stroke="#191970" points="240.0908,-281.2012 249.2831,-286.4692 245.3823,-276.6186 240.0908,-281.2012"/>
</g>
<!-- Node14 -->
<g id="node14" class="node">
<title>Node14</title>
<g id="a_node14"><a xlink:href="class_l_f_s_t_k__toggle_button_class_a4cc0929a4d4113b9b40a3bdc54898ab7.xhtml#a4cc0929a4d4113b9b40a3bdc54898ab7" target="_top" xlink:title=" ">
<polygon fill="none" stroke="#000000" points="1.101,-51.5 1.101,-83.5 140.468,-83.5 140.468,-51.5 1.101,-51.5"/>
<text text-anchor="start" x="9.101" y="-70.5" font-family="Helvetica,sans-Serif" font-size="10.00" fill="#000000">LFSTK_toggleButtonClass</text>
<text text-anchor="middle" x="70.7845" y="-58.5" font-family="Helvetica,sans-Serif" font-size="10.00" fill="#000000">::LFSTK_toggleButtonClass</text>
</a>
</g>
</g>
<!-- Node5&#45;&gt;Node14 -->
<g id="edge14" class="edge">
<title>Node5&#45;&gt;Node14</title>
<path fill="none" stroke="#191970" d="M240.4843,-279.1209C222.5386,-260.5722 194.9407,-229.6259 177.569,-198.5 153.5265,-155.4217 176.0721,-128.7606 141.569,-93.5 137.815,-89.6635 133.4478,-86.389 128.7601,-83.5949"/>
<polygon fill="#191970" stroke="#191970" points="238.0172,-281.6038 247.5264,-286.2756 243.006,-276.6935 238.0172,-281.6038"/>
</g>
<!-- Node16 -->
<g id="node16" class="node">
<title>Node16</title>
<g id="a_node16"><a xlink:href="class_l_f_s_t_k__font_dialog_class_a14c5f93b43c729a1bcb8bebe141415f2.xhtml#a14c5f93b43c729a1bcb8bebe141415f2" target="_top" xlink:title=" ">
<polygon fill="none" stroke="#000000" points="196.75,-156.5 196.75,-188.5 319.431,-188.5 319.431,-156.5 196.75,-156.5"/>
<text text-anchor="start" x="204.75" y="-175.5" font-family="Helvetica,sans-Serif" font-size="10.00" fill="#000000">LFSTK_fontDialogClass</text>
<text text-anchor="middle" x="258.0905" y="-163.5" font-family="Helvetica,sans-Serif" font-size="10.00" fill="#000000">::LFSTK_showDialog</text>
</a>
</g>
</g>
<!-- Node15&#45;&gt;Node16 -->
<g id="edge16" class="edge">
<title>Node15&#45;&gt;Node16</title>
<path fill="none" stroke="#191970" d="M379.2047,-140.148C359.2205,-145.4862 337.6164,-151.2571 318.264,-156.4264"/>
<polygon fill="#191970" stroke="#191970" points="380.1101,-143.5289 388.868,-137.5667 378.3035,-136.7661 380.1101,-143.5289"/>
</g>
<!-- Node17 -->
<g id="node17" class="node">
<title>Node17</title>
<g id="a_node17"><a xlink:href="class_l_f_s_t_k__file_dialog_class_af77972b8a46616ba4c7bec555b2b0a14.xhtml#af77972b8a46616ba4c7bec555b2b0a14" target="_top" xlink:title=" ">
<polygon fill="none" stroke="#000000" points="195.086,-105.5 195.086,-137.5 321.095,-137.5 321.095,-105.5 195.086,-105.5"/>
<text text-anchor="start" x="203.086" y="-124.5" font-family="Helvetica,sans-Serif" font-size="10.00" fill="#000000">LFSTK_fileDialogClass</text>
<text text-anchor="middle" x="258.0905" y="-112.5" font-family="Helvetica,sans-Serif" font-size="10.00" fill="#000000">::LFSTK_showFileDialog</text>
</a>
</g>
</g>
<!-- Node15&#45;&gt;Node17 -->
<g id="edge17" class="edge">
<title>Node15&#45;&gt;Node17</title>
<path fill="none" stroke="#191970" d="M363.9892,-121.5C349.6172,-121.5 334.9259,-121.5 321.2392,-121.5"/>
<polygon fill="#191970" stroke="#191970" points="364.379,-125.0001 374.3789,-121.5 364.3789,-118.0001 364.379,-125.0001"/>
</g>
<!-- Node19 -->
<g id="node19" class="node">
<title>Node19</title>
<g id="a_node19"><a xlink:href="class_l_f_s_t_k__menu_class_ab847d4847ed01a7ff90c717a2cdb6dc5.xhtml#ab847d4847ed01a7ff90c717a2cdb6dc5" target="_top" xlink:title=" ">
<polygon fill="none" stroke="#000000" points="188.4155,-54.5 188.4155,-86.5 327.7655,-86.5 327.7655,-54.5 188.4155,-54.5"/>
<text text-anchor="start" x="196.4155" y="-73.5" font-family="Helvetica,sans-Serif" font-size="10.00" fill="#000000">LFSTK_menuClass::LFSTK</text>
<text text-anchor="middle" x="258.0905" y="-61.5" font-family="Helvetica,sans-Serif" font-size="10.00" fill="#000000">_showMenu</text>
</a>
</g>
</g>
<!-- Node15&#45;&gt;Node19 -->
<g id="edge19" class="edge">
<title>Node15&#45;&gt;Node19</title>
<path fill="none" stroke="#191970" d="M379.2047,-102.852C359.2205,-97.5138 337.6164,-91.7429 318.264,-86.5736"/>
<polygon fill="#191970" stroke="#191970" points="378.3035,-106.2339 388.868,-105.4333 380.1101,-99.4711 378.3035,-106.2339"/>
</g>
<!-- Node20 -->
<g id="node20" class="node">
<title>Node20</title>
<g id="a_node20"><a xlink:href="class_l_f_s_t_k__menu_item_class_ad2460aa76c71cb7ea548041e1ff858cf.xhtml#ad2460aa76c71cb7ea548041e1ff858cf" target="_top" xlink:title=" ">
<polygon fill="none" stroke="#000000" points="197.029,-3.5 197.029,-35.5 319.152,-35.5 319.152,-3.5 197.029,-3.5"/>
<text text-anchor="start" x="205.029" y="-22.5" font-family="Helvetica,sans-Serif" font-size="10.00" fill="#000000">LFSTK_menuItemClass</text>
<text text-anchor="middle" x="258.0905" y="-10.5" font-family="Helvetica,sans-Serif" font-size="10.00" fill="#000000">::mouseEnter</text>
</a>
</g>
</g>
<!-- Node15&#45;&gt;Node20 -->
<g id="edge20" class="edge">
<title>Node15&#45;&gt;Node20</title>
<path fill="none" stroke="#191970" d="M421.3264,-99.0536C399.8038,-82.4691 368.6516,-60.2936 338.612,-45.5 331.1001,-41.8006 322.9415,-38.4597 314.7965,-35.5009"/>
<polygon fill="#191970" stroke="#191970" points="419.3281,-101.9339 429.3632,-105.3321 423.6375,-96.4176 419.3281,-101.9339"/>
</g>
<!-- Node18 -->
<g id="node18" class="node">
<title>Node18</title>
<g id="a_node18"><a xlink:href="class_l_f_s_t_k__file_dialog_class_aacf1d4b61cbb5b40d06f591ea96f9ea7.xhtml#aacf1d4b61cbb5b40d06f591ea96f9ea7" target="_top" xlink:title=" ">
<polygon fill="none" stroke="#000000" points="7.78,-.5 7.78,-32.5 133.789,-32.5 133.789,-.5 7.78,-.5"/>
<text text-anchor="start" x="15.78" y="-19.5" font-family="Helvetica,sans-Serif" font-size="10.00" fill="#000000">LFSTK_fileDialogClass</text>
<text text-anchor="middle" x="70.7845" y="-7.5" font-family="Helvetica,sans-Serif" font-size="10.00" fill="#000000">::LFSTK_showFileDialog</text>
</a>
</g>
</g>
<!-- Node17&#45;&gt;Node18 -->
<g id="edge18" class="edge">
<title>Node17&#45;&gt;Node18</title>
<path fill="none" stroke="#191970" d="M185.9095,-101.967C183.0031,-100.2903 180.2069,-98.4719 177.569,-96.5 154.4661,-79.2299 164.2243,-60.3532 141.569,-42.5 136.7361,-38.6915 131.2919,-35.4051 125.6238,-32.5774"/>
<polygon fill="#191970" stroke="#191970" points="184.4153,-105.1341 194.9106,-106.5834 187.6099,-98.9055 184.4153,-105.1341"/>
</g>
</g>
</svg>
        <g id="navigator" transform="translate(0 0)" fill="#404254">
                <rect fill="#f2f5e9" fill-opacity="0.5" stroke="#606060" stroke-width=".5" x="0" y="0" width="60" height="60"/>
                <use id="zoomplus" xlink:href="#zoomPlus" x="17" y="9" onmousedown="handleZoom(evt,'in')"/>
                <use id="zoomminus" xlink:href="#zoomMin" x="42" y="9" onmousedown="handleZoom(evt,'out')"/>
                <use id="reset" xlink:href="#resetDef" x="30" y="36" onmousedown="handleReset()"/>
                <g id="arrowUp" xlink:href="#dirArrow" transform="translate(30 24)" onmousedown="handlePan(0,-1)">
                  <use xlink:href="#rim" fill="#404040">
                        <set attributeName="fill" to="#808080" begin="arrowUp.mouseover" end="arrowUp.mouseout"/>
                  </use>
                  <path fill="none" stroke="white" stroke-width="1.5" d="M0,-3.0v7 M-2.5,-0.5L0,-3.0L2.5,-0.5"/>
                </g>
                <g id="arrowRight" xlink:href="#dirArrow" transform="rotate(90) translate(36 -43)" onmousedown="handlePan(1,0)">
                  <use xlink:href="#rim" fill="#404040">
                        <set attributeName="fill" to="#808080" begin="arrowRight.mouseover" end="arrowRight.mouseout"/>
                  </use>
                  <path fill="none" stroke="white" stroke-width="1.5" d="M0,-3.0v7 M-2.5,-0.5L0,-3.0L2.5,-0.5"/>
                </g>
                <g id="arrowDown" xlink:href="#dirArrow" transform="rotate(180) translate(-30 -48)" onmousedown="handlePan(0,1)">
                  <use xlink:href="#rim" fill="#404040">
                        <set attributeName="fill" to="#808080" begin="arrowDown.mouseover" end="arrowDown.mouseout"/>
                  </use>
                  <path fill="none" stroke="white" stroke-width="1.5" d="M0,-3.0v7 M-2.5,-0.5L0,-3.0L2.5,-0.5"/>
                </g>
                <g id="arrowLeft" xlink:href="#dirArrow" transform="rotate(270) translate(-36 17)" onmousedown="handlePan(-1,0)">
                  <use xlink:href="#rim" fill="#404040">
                        <set attributeName="fill" to="#808080" begin="arrowLeft.mouseover" end="arrowLeft.mouseout"/>
                  </use>
                  <path fill="none" stroke="white" stroke-width="1.5" d="M0,-3.0v7 M-2.5,-0.5L0,-3.0L2.5,-0.5"/>
                </g>
        </g>
        <svg viewBox="0 0 15 15" width="100%" height="30px" preserveAspectRatio="xMaxYMin meet">
         <g id="arrow_out" transform="scale(0.3 0.3)">
          <a xlink:href="class_l_f_s_t_k__window_class_abec54e421d2e094da2214abfccebd361_abec54e421d2e094da2214abfccebd361_icgraph_org.svg" target="_base">
           <rect id="button" ry="5" rx="5" y="6" x="6" height="38" width="38"
                fill="#f2f5e9" fill-opacity="0.5" stroke="#606060" stroke-width="1.0"/>
           <path id="arrow"
             d="M 11.500037,31.436501 C 11.940474,20.09759 22.043105,11.32322 32.158766,21.979434 L 37.068811,17.246167 C 37.068811,17.246167 37.088388,32 37.088388,32 L 22.160133,31.978069 C 22.160133,31.978069 26.997745,27.140456 26.997745,27.140456 C 18.528582,18.264221 13.291696,25.230495 11.500037,31.436501 z"
             style="fill:#404040;"/>
          </a>
         </g>
        </svg>
</svg>
