<?xml version="1.0" encoding="UTF-8" standalone="no"?>
<!DOCTYPE svg PUBLIC "-//W3C//DTD SVG 1.1//EN"
 "http://www.w3.org/Graphics/SVG/1.1/DTD/svg11.dtd">
<!-- Generated by graphviz version 2.40.1 (20161225.0304)
 -->
<!-- Title: LFSTK_toolWindowClass Pages: 1 -->
<svg width="706pt" height="344pt"
 viewBox="0.00 0.00 706.20 344.00" xmlns="http://www.w3.org/2000/svg" xmlns:xlink="http://www.w3.org/1999/xlink">
<g id="graph0" class="graph" transform="scale(1 1) rotate(0) translate(4 340)">
<title>LFSTK_toolWindowClass</title>
<!-- Node1 -->
<g id="node1" class="node">
<title>Node1</title>
<g id="a_node1"><a xlink:title="Tool window class for LFSToolKit.">
<polygon fill="#bfbfbf" stroke="#000000" points="108.948,-69.5 108.948,-89.5 238.289,-89.5 238.289,-69.5 108.948,-69.5"/>
<text text-anchor="middle" x="173.6185" y="-76.5" font-family="Helvetica,sans-Serif" font-size="10.00" fill="#000000">LFSTK_toolWindowClass</text>
</a>
</g>
</g>
<!-- Node2 -->
<g id="node2" class="node">
<title>Node2</title>
<g id="a_node2"><a xlink:href="class_l_f_s_t_k__window_class.xhtml" target="_top" xlink:title="Window class for LFSToolKit.">
<polygon fill="none" stroke="#000000" points="149.116,-158 149.116,-178 260.121,-178 260.121,-158 149.116,-158"/>
<text text-anchor="middle" x="204.6185" y="-165" font-family="Helvetica,sans-Serif" font-size="10.00" fill="#000000">LFSTK_windowClass</text>
</a>
</g>
</g>
<!-- Node2&#45;&gt;Node1 -->
<g id="edge1" class="edge">
<title>Node2&#45;&gt;Node1</title>
<path fill="none" stroke="#191970" d="M194.6193,-148.4855C192.1362,-143.2151 189.6164,-137.4582 187.6185,-132 182.3657,-117.6495 178.1546,-100.4377 175.7704,-89.7325"/>
<polygon fill="#191970" stroke="#191970" points="191.6515,-150.3822 199.2023,-157.8143 197.9342,-147.2956 191.6515,-150.3822"/>
</g>
<!-- Node5 -->
<g id="node5" class="node">
<title>Node5</title>
<g id="a_node5"><a xlink:href="class_l_f_s_t_k__gadget_class.xhtml" target="_top" xlink:title="Base class for LFSToolKit gadgets.">
<polygon fill="none" stroke="#000000" points="366.496,-69.5 366.496,-89.5 474.741,-89.5 474.741,-69.5 366.496,-69.5"/>
<text text-anchor="middle" x="420.6185" y="-76.5" font-family="Helvetica,sans-Serif" font-size="10.00" fill="#000000">LFSTK_gadgetClass</text>
</a>
</g>
</g>
<!-- Node2&#45;&gt;Node5 -->
<g id="edge10" class="edge">
<title>Node2&#45;&gt;Node5</title>
<path fill="none" stroke="#9a32cd" stroke-dasharray="5,2" d="M198.1521,-147.8121C195.3774,-134.9041 194.6089,-118.6463 203.9465,-108 214.5321,-95.9308 305.8273,-87.3631 366.4857,-82.9423"/>
<polygon fill="#9a32cd" stroke="#9a32cd" points="194.8217,-148.9074 200.7769,-157.6701 201.5861,-147.1063 194.8217,-148.9074"/>
<text text-anchor="middle" x="230.4545" y="-123" font-family="Helvetica,sans-Serif" font-size="10.00" fill="#000000"> contextWC</text>
<text text-anchor="middle" x="230.4545" y="-111" font-family="Helvetica,sans-Serif" font-size="10.00" fill="#000000">wc</text>
</g>
<!-- Node3 -->
<g id="node3" class="node">
<title>Node3</title>
<g id="a_node3"><a xlink:href="structgeometry_struct.xhtml" target="_top" xlink:title=" ">
<polygon fill="none" stroke="#000000" points="510.7245,-246.5 510.7245,-266.5 594.5125,-266.5 594.5125,-246.5 510.7245,-246.5"/>
<text text-anchor="middle" x="552.6185" y="-253.5" font-family="Helvetica,sans-Serif" font-size="10.00" fill="#000000">geometryStruct</text>
</a>
</g>
</g>
<!-- Node3&#45;&gt;Node2 -->
<g id="edge2" class="edge">
<title>Node3&#45;&gt;Node2</title>
<path fill="none" stroke="#9a32cd" stroke-dasharray="5,2" d="M500.8574,-245.7421C487.8621,-241.541 474.4499,-235.7964 463.2795,-228 452.1997,-220.2668 456.2806,-210.8235 444.6185,-204 428.9814,-194.8507 326.0168,-181.7448 260.1299,-174.1291"/>
<polygon fill="#9a32cd" stroke="#9a32cd" points="500.0868,-249.1644 510.6697,-248.6622 502.0835,-242.4552 500.0868,-249.1644"/>
<text text-anchor="middle" x="494.288" y="-213" font-family="Helvetica,sans-Serif" font-size="10.00" fill="#000000"> windowGeom</text>
</g>
<!-- Node3&#45;&gt;Node5 -->
<g id="edge9" class="edge">
<title>Node3&#45;&gt;Node5</title>
<path fill="none" stroke="#9a32cd" stroke-dasharray="5,2" d="M592.8237,-241.995C599.976,-238.1944 606.9431,-233.5619 612.6185,-228 627.5241,-213.3925 628.8236,-206.3117 633.6185,-186 641.894,-150.9444 640.9713,-128.8757 611.6185,-108 590.2392,-92.7951 523.6185,-85.5295 475.061,-82.1785"/>
<polygon fill="#9a32cd" stroke="#9a32cd" points="591.2354,-238.8752 583.7483,-246.3714 594.276,-245.1803 591.2354,-238.8752"/>
<text text-anchor="middle" x="667.908" y="-165" font-family="Helvetica,sans-Serif" font-size="10.00" fill="#000000"> gadgetGeom</text>
</g>
<!-- Node6 -->
<g id="node6" class="node">
<title>Node6</title>
<g id="a_node6"><a xlink:href="structgadget_struct.xhtml" target="_top" xlink:title=" ">
<polygon fill="none" stroke="#000000" points="476.274,-158 476.274,-178 548.963,-178 548.963,-158 476.274,-158"/>
<text text-anchor="middle" x="512.6185" y="-165" font-family="Helvetica,sans-Serif" font-size="10.00" fill="#000000">gadgetStruct</text>
</a>
</g>
</g>
<!-- Node3&#45;&gt;Node6 -->
<g id="edge6" class="edge">
<title>Node3&#45;&gt;Node6</title>
<path fill="none" stroke="#9a32cd" stroke-dasharray="5,2" d="M544.8003,-236.9762C540.7279,-227.0353 535.5743,-214.7993 530.6185,-204 526.5966,-195.2357 521.6802,-185.4593 518.0024,-178.3087"/>
<polygon fill="#9a32cd" stroke="#9a32cd" points="541.5989,-238.3956 548.5991,-246.3485 548.0863,-235.766 541.5989,-238.3956"/>
<text text-anchor="middle" x="574.512" y="-219" font-family="Helvetica,sans-Serif" font-size="10.00" fill="#000000"> indicatorGeom</text>
<text text-anchor="middle" x="574.512" y="-207" font-family="Helvetica,sans-Serif" font-size="10.00" fill="#000000">gadgetGeom</text>
</g>
<!-- Node4 -->
<g id="node4" class="node">
<title>Node4</title>
<g id="a_node4"><a xlink:href="structmonitor_struct.xhtml" target="_top" xlink:title=" ">
<polygon fill="none" stroke="#000000" points="100.8945,-246.5 100.8945,-266.5 176.3425,-266.5 176.3425,-246.5 100.8945,-246.5"/>
<text text-anchor="middle" x="138.6185" y="-253.5" font-family="Helvetica,sans-Serif" font-size="10.00" fill="#000000">monitorStruct</text>
</a>
</g>
</g>
<!-- Node4&#45;&gt;Node2 -->
<g id="edge3" class="edge">
<title>Node4&#45;&gt;Node2</title>
<path fill="none" stroke="#9a32cd" stroke-dasharray="5,2" d="M141.9673,-236.4991C144.4371,-226.0863 148.6071,-213.568 155.5065,-204 163.2974,-193.1956 175.3164,-184.3058 185.5142,-178.0633"/>
<polygon fill="#9a32cd" stroke="#9a32cd" points="138.5216,-235.8802 139.9659,-246.3761 145.3822,-237.2704 138.5216,-235.8802"/>
<text text-anchor="middle" x="176.1745" y="-213" font-family="Helvetica,sans-Serif" font-size="10.00" fill="#000000"> monitors</text>
</g>
<!-- Node5&#45;&gt;Node2 -->
<g id="edge4" class="edge">
<title>Node5&#45;&gt;Node2</title>
<path fill="none" stroke="#9a32cd" stroke-dasharray="5,2" d="M356.3663,-89.0326C326.856,-94.1627 295.5888,-100.8886 282.7035,-108 269.7458,-115.1514 271.0124,-122.5541 259.6185,-132 247.8457,-141.76 233.3283,-151.1661 222.1651,-157.9146"/>
<polygon fill="#9a32cd" stroke="#9a32cd" points="357.0016,-92.475 366.2776,-87.3558 355.8339,-85.573 357.0016,-92.475"/>
<text text-anchor="middle" x="324.576" y="-123" font-family="Helvetica,sans-Serif" font-size="10.00" fill="#000000"> dropGadget</text>
<text text-anchor="middle" x="324.576" y="-111" font-family="Helvetica,sans-Serif" font-size="10.00" fill="#000000">popupFromGadget</text>
</g>
<!-- Node9 -->
<g id="node9" class="node">
<title>Node9</title>
<g id="a_node9"><a xlink:href="structmapped_listener.xhtml" target="_top" xlink:title=" ">
<polygon fill="none" stroke="#000000" points="376.775,-.5 376.775,-20.5 464.462,-20.5 464.462,-.5 376.775,-.5"/>
<text text-anchor="middle" x="420.6185" y="-7.5" font-family="Helvetica,sans-Serif" font-size="10.00" fill="#000000">mappedListener</text>
</a>
</g>
</g>
<!-- Node5&#45;&gt;Node9 -->
<g id="edge12" class="edge">
<title>Node5&#45;&gt;Node9</title>
<path fill="none" stroke="#9a32cd" stroke-dasharray="5,2" d="M397.3158,-62.6521C394.0451,-59.1893 391.1581,-55.278 389.2655,-51 384.1571,-39.4529 394.3625,-28.2549 404.4646,-20.5715"/>
<polygon fill="#9a32cd" stroke="#9a32cd" points="395.0921,-65.3604 404.8514,-69.4844 399.794,-60.1746 395.0921,-65.3604"/>
<text text-anchor="middle" x="405.295" y="-42" font-family="Helvetica,sans-Serif" font-size="10.00" fill="#000000"> gadget</text>
</g>
<!-- Node6&#45;&gt;Node5 -->
<g id="edge5" class="edge">
<title>Node6&#45;&gt;Node5</title>
<path fill="none" stroke="#9a32cd" stroke-dasharray="5,2" d="M494.6428,-150.7081C475.6973,-132.4834 446.5046,-104.4013 431.049,-89.5337"/>
<polygon fill="#9a32cd" stroke="#9a32cd" points="492.4316,-153.4376 502.0649,-157.8479 497.2845,-148.3928 492.4316,-153.4376"/>
<text text-anchor="middle" x="506.572" y="-117" font-family="Helvetica,sans-Serif" font-size="10.00" fill="#000000"> gadgetDetails</text>
</g>
<!-- Node7 -->
<g id="node7" class="node">
<title>Node7</title>
<g id="a_node7"><a xlink:href="structcolour_struct.xhtml" target="_top" xlink:title=" ">
<polygon fill="none" stroke="#000000" points="345.9485,-246.5 345.9485,-266.5 415.2885,-266.5 415.2885,-246.5 345.9485,-246.5"/>
<text text-anchor="middle" x="380.6185" y="-253.5" font-family="Helvetica,sans-Serif" font-size="10.00" fill="#000000">colourStruct</text>
</a>
</g>
</g>
<!-- Node7&#45;&gt;Node2 -->
<g id="edge16" class="edge">
<title>Node7&#45;&gt;Node2</title>
<path fill="none" stroke="#9a32cd" stroke-dasharray="5,2" d="M335.8061,-250.8983C314.594,-246.8186 289.5563,-239.8448 269.3955,-228 256.7163,-220.5507 257.2768,-214.1319 246.6185,-204 237.0129,-194.8689 225.5587,-185.1211 217.0401,-178.0748"/>
<polygon fill="#9a32cd" stroke="#9a32cd" points="335.4174,-254.3838 345.8739,-252.6773 336.6355,-247.4906 335.4174,-254.3838"/>
<text text-anchor="middle" x="317.23" y="-213" font-family="Helvetica,sans-Serif" font-size="10.00" fill="#000000"> windowColourNames</text>
</g>
<!-- Node7&#45;&gt;Node5 -->
<g id="edge14" class="edge">
<title>Node7&#45;&gt;Node5</title>
<path fill="none" stroke="#9a32cd" stroke-dasharray="5,2" d="M380.4325,-236.0541C380.6856,-214.3695 382.3888,-179.2726 389.8325,-150 395.5596,-127.4779 407.7238,-103.0025 414.9289,-89.6338"/>
<polygon fill="#9a32cd" stroke="#9a32cd" points="376.932,-236.3273 380.4116,-246.3344 383.932,-236.3416 376.932,-236.3273"/>
<text text-anchor="middle" x="428.5115" y="-177" font-family="Helvetica,sans-Serif" font-size="10.00" fill="#000000"> labelBGColour</text>
<text text-anchor="middle" x="428.5115" y="-165" font-family="Helvetica,sans-Serif" font-size="10.00" fill="#000000">colourNames</text>
<text text-anchor="middle" x="428.5115" y="-153" font-family="Helvetica,sans-Serif" font-size="10.00" fill="#000000">fontColourNames</text>
</g>
<!-- Node7&#45;&gt;Node6 -->
<g id="edge7" class="edge">
<title>Node7&#45;&gt;Node6</title>
<path fill="none" stroke="#9a32cd" stroke-dasharray="5,2" d="M389.3877,-236.917C395.1736,-225.9289 403.7025,-212.718 414.6145,-204 416.0705,-202.8368 456.1218,-188.3038 484.5662,-178.0637"/>
<polygon fill="#9a32cd" stroke="#9a32cd" points="386.1019,-235.6694 384.8557,-246.1907 392.3911,-238.7429 386.1019,-235.6694"/>
<text text-anchor="middle" x="428.6205" y="-213" font-family="Helvetica,sans-Serif" font-size="10.00" fill="#000000"> colour</text>
</g>
<!-- Node8 -->
<g id="node8" class="node">
<title>Node8</title>
<g id="a_node8"><a xlink:href="structcairo_color.xhtml" target="_top" xlink:title=" ">
<polygon fill="none" stroke="#000000" points="349.843,-315.5 349.843,-335.5 411.394,-335.5 411.394,-315.5 349.843,-315.5"/>
<text text-anchor="middle" x="380.6185" y="-322.5" font-family="Helvetica,sans-Serif" font-size="10.00" fill="#000000">cairoColor</text>
</a>
</g>
</g>
<!-- Node8&#45;&gt;Node7 -->
<g id="edge8" class="edge">
<title>Node8&#45;&gt;Node7</title>
<path fill="none" stroke="#9a32cd" stroke-dasharray="5,2" d="M380.6185,-305.2177C380.6185,-292.5684 380.6185,-276.8285 380.6185,-266.723"/>
<polygon fill="#9a32cd" stroke="#9a32cd" points="377.1186,-305.3188 380.6185,-315.3188 384.1186,-305.3188 377.1186,-305.3188"/>
<text text-anchor="middle" x="410.898" y="-288" font-family="Helvetica,sans-Serif" font-size="10.00" fill="#000000"> RGBAColour</text>
</g>
<!-- Node9&#45;&gt;Node5 -->
<g id="edge11" class="edge">
<title>Node9&#45;&gt;Node5</title>
<path fill="none" stroke="#9a32cd" stroke-dasharray="5,2" d="M425.4195,-30.7549C425.9152,-33.5118 426.339,-36.3157 426.6185,-39 427.6932,-49.3219 425.5906,-61.0432 423.5851,-69.2105"/>
<polygon fill="#9a32cd" stroke="#9a32cd" points="428.7894,-29.7723 423.3042,-20.708 421.9396,-31.2146 428.7894,-29.7723"/>
<text text-anchor="middle" x="433.282" y="-42" font-family="Helvetica,sans-Serif" font-size="10.00" fill="#000000"> ml</text>
</g>
<!-- Node10 -->
<g id="node10" class="node">
<title>Node10</title>
<g id="a_node10"><a xlink:href="structbutton_c_b.xhtml" target="_top" xlink:title=" ">
<polygon fill="none" stroke="#000000" points="566.7775,-158 566.7775,-178 624.4595,-178 624.4595,-158 566.7775,-158"/>
<text text-anchor="middle" x="595.6185" y="-165" font-family="Helvetica,sans-Serif" font-size="10.00" fill="#000000">buttonCB</text>
</a>
</g>
</g>
<!-- Node10&#45;&gt;Node5 -->
<g id="edge13" class="edge">
<title>Node10&#45;&gt;Node5</title>
<path fill="none" stroke="#9a32cd" stroke-dasharray="5,2" d="M583.7293,-149.206C574.2199,-135.7182 559.6821,-118.1908 542.6185,-108 530.994,-101.0575 501.8213,-94.127 474.9181,-88.8388"/>
<polygon fill="#9a32cd" stroke="#9a32cd" points="580.995,-151.4121 589.4787,-157.7586 586.8044,-147.5068 580.995,-151.4121"/>
<text text-anchor="middle" x="588.0655" y="-117" font-family="Helvetica,sans-Serif" font-size="10.00" fill="#000000"> callback</text>
</g>
<!-- Node11 -->
<g id="node11" class="node">
<title>Node11</title>
<g id="a_node11"><a xlink:href="structdrop_data_struct.xhtml" target="_top" xlink:title=" ">
<polygon fill="none" stroke="#000000" points="0,-246.5 0,-266.5 83.237,-266.5 83.237,-246.5 0,-246.5"/>
<text text-anchor="middle" x="41.6185" y="-253.5" font-family="Helvetica,sans-Serif" font-size="10.00" fill="#000000">dropDataStruct</text>
</a>
</g>
</g>
<!-- Node11&#45;&gt;Node2 -->
<g id="edge15" class="edge">
<title>Node11&#45;&gt;Node2</title>
<path fill="none" stroke="#9a32cd" stroke-dasharray="5,2" d="M51.4072,-237.361C58.0652,-226.1272 67.8695,-212.5095 80.0405,-204 100.3363,-189.81 126.1914,-181.1678 149.081,-175.9257"/>
<polygon fill="#9a32cd" stroke="#9a32cd" points="48.1672,-235.9872 46.3857,-246.4312 54.2913,-239.3777 48.1672,-235.9872"/>
<text text-anchor="middle" x="110.9075" y="-213" font-family="Helvetica,sans-Serif" font-size="10.00" fill="#000000"> droppedData</text>
</g>
<!-- Node12 -->
<g id="node12" class="node">
<title>Node12</title>
<g id="a_node12"><a xlink:href="class_l_f_s_t_k__lib.xhtml" target="_top" xlink:title="Library of useful routines for LFSToolKit.">
<polygon fill="none" stroke="#000000" points="194.283,-246.5 194.283,-266.5 256.954,-266.5 256.954,-246.5 194.283,-246.5"/>
<text text-anchor="middle" x="225.6185" y="-253.5" font-family="Helvetica,sans-Serif" font-size="10.00" fill="#000000">LFSTK_lib</text>
</a>
</g>
</g>
<!-- Node12&#45;&gt;Node2 -->
<g id="edge17" class="edge">
<title>Node12&#45;&gt;Node2</title>
<path fill="none" stroke="#9a32cd" stroke-dasharray="5,2" d="M209.1369,-238.4472C206.9599,-235.1724 205.0591,-231.6356 203.8285,-228 198.1505,-211.225 200.3619,-190.2706 202.4886,-178.0849"/>
<polygon fill="#9a32cd" stroke="#9a32cd" points="206.3911,-240.6179 215.2742,-246.3921 211.9307,-236.3386 206.3911,-240.6179"/>
<text text-anchor="middle" x="226.0135" y="-213" font-family="Helvetica,sans-Serif" font-size="10.00" fill="#000000"> globalLib</text>
</g>
<!-- Node13 -->
<g id="node13" class="node">
<title>Node13</title>
<g id="a_node13"><a xlink:href="structargs.xhtml" target="_top" xlink:title=" ">
<polygon fill="none" stroke="#000000" points="207.895,-315.5 207.895,-335.5 243.342,-335.5 243.342,-315.5 207.895,-315.5"/>
<text text-anchor="middle" x="225.6185" y="-322.5" font-family="Helvetica,sans-Serif" font-size="10.00" fill="#000000">args</text>
</a>
</g>
</g>
<!-- Node13&#45;&gt;Node12 -->
<g id="edge18" class="edge">
<title>Node13&#45;&gt;Node12</title>
<path fill="none" stroke="#9a32cd" stroke-dasharray="5,2" d="M225.6185,-305.2177C225.6185,-292.5684 225.6185,-276.8285 225.6185,-266.723"/>
<polygon fill="#9a32cd" stroke="#9a32cd" points="222.1186,-305.3188 225.6185,-315.3188 229.1186,-305.3188 222.1186,-305.3188"/>
<text text-anchor="middle" x="264.5105" y="-288" font-family="Helvetica,sans-Serif" font-size="10.00" fill="#000000"> lfsToolKitGlobals</text>
</g>
</g>
</svg>
