<?xml version="1.0" encoding="UTF-8" standalone="no"?>
<!DOCTYPE svg PUBLIC "-//W3C//DTD SVG 1.1//EN"
 "http://www.w3.org/Graphics/SVG/1.1/DTD/svg11.dtd">
<!-- Generated by graphviz version 2.40.1 (20161225.0304)
 -->
<!-- Title: LFSTK_lineEditClass::LFSTK_setFormatedText Pages: 1 -->
<svg width="435pt" height="92pt"
 viewBox="0.00 0.00 434.71 92.00" xmlns="http://www.w3.org/2000/svg" xmlns:xlink="http://www.w3.org/1999/xlink">
<g id="graph0" class="graph" transform="scale(1 1) rotate(0) translate(4 88)">
<title>LFSTK_lineEditClass::LFSTK_setFormatedText</title>
<!-- Node1 -->
<g id="node1" class="node">
<title>Node1</title>
<g id="a_node1"><a xlink:title=" ">
<polygon fill="#bfbfbf" stroke="#000000" points="292.906,-25.5 292.906,-57.5 426.705,-57.5 426.705,-25.5 292.906,-25.5"/>
<text text-anchor="start" x="300.906" y="-44.5" font-family="Helvetica,sans-Serif" font-size="10.00" fill="#000000">LFSTK_lineEditClass</text>
<text text-anchor="middle" x="359.8055" y="-32.5" font-family="Helvetica,sans-Serif" font-size="10.00" fill="#000000">::LFSTK_setFormatedText</text>
</a>
</g>
</g>
<!-- Node2 -->
<g id="node2" class="node">
<title>Node2</title>
<g id="a_node2"><a xlink:href="class_l_f_s_t_k__line_edit_class_a99cb0a4e5b4a6701e1f5399ae6b1f78d.xhtml#a99cb0a4e5b4a6701e1f5399ae6b1f78d" target="_top" xlink:title=" ">
<polygon fill="none" stroke="#000000" points="146.453,-51.5 146.453,-83.5 256.906,-83.5 256.906,-51.5 146.453,-51.5"/>
<text text-anchor="start" x="154.453" y="-70.5" font-family="Helvetica,sans-Serif" font-size="10.00" fill="#000000">LFSTK_lineEditClass</text>
<text text-anchor="middle" x="201.6795" y="-58.5" font-family="Helvetica,sans-Serif" font-size="10.00" fill="#000000">::getClip</text>
</a>
</g>
</g>
<!-- Node1&#45;&gt;Node2 -->
<g id="edge1" class="edge">
<title>Node1&#45;&gt;Node2</title>
<path fill="none" stroke="#191970" d="M282.7403,-54.1715C274.1845,-55.5783 265.5974,-56.9903 257.3802,-58.3414"/>
<polygon fill="#191970" stroke="#191970" points="283.4462,-57.6025 292.7458,-52.5263 282.3104,-50.6953 283.4462,-57.6025"/>
</g>
<!-- Node4 -->
<g id="node4" class="node">
<title>Node4</title>
<g id="a_node4"><a xlink:href="class_l_f_s_t_k__line_edit_class_aaa873ae80c4c84c1c48249e593b0c9fc.xhtml#aaa873ae80c4c84c1c48249e593b0c9fc" target="_top" xlink:title=" ">
<polygon fill="none" stroke="#000000" points="146.453,-.5 146.453,-32.5 256.906,-32.5 256.906,-.5 146.453,-.5"/>
<text text-anchor="start" x="154.453" y="-19.5" font-family="Helvetica,sans-Serif" font-size="10.00" fill="#000000">LFSTK_lineEditClass</text>
<text text-anchor="middle" x="201.6795" y="-7.5" font-family="Helvetica,sans-Serif" font-size="10.00" fill="#000000">::LFSTK_dropData</text>
</a>
</g>
</g>
<!-- Node1&#45;&gt;Node4 -->
<g id="edge3" class="edge">
<title>Node1&#45;&gt;Node4</title>
<path fill="none" stroke="#191970" d="M282.7403,-29.3159C274.1845,-27.9632 265.5974,-26.6055 257.3802,-25.3064"/>
<polygon fill="#191970" stroke="#191970" points="282.3219,-32.7931 292.7458,-30.8977 283.4151,-25.879 282.3219,-32.7931"/>
</g>
<!-- Node3 -->
<g id="node3" class="node">
<title>Node3</title>
<g id="a_node3"><a xlink:href="class_l_f_s_t_k__line_edit_class_a499c645100977efb8a63ec1695b41e2b.xhtml#a499c645100977efb8a63ec1695b41e2b" target="_top" xlink:title=" ">
<polygon fill="none" stroke="#000000" points="0,-51.5 0,-83.5 110.453,-83.5 110.453,-51.5 0,-51.5"/>
<text text-anchor="start" x="8" y="-70.5" font-family="Helvetica,sans-Serif" font-size="10.00" fill="#000000">LFSTK_lineEditClass</text>
<text text-anchor="middle" x="55.2265" y="-58.5" font-family="Helvetica,sans-Serif" font-size="10.00" fill="#000000">::keyRelease</text>
</a>
</g>
</g>
<!-- Node2&#45;&gt;Node3 -->
<g id="edge2" class="edge">
<title>Node2&#45;&gt;Node3</title>
<path fill="none" stroke="#191970" d="M136.0664,-67.5C127.5856,-67.5 118.967,-67.5 110.6724,-67.5"/>
<polygon fill="#191970" stroke="#191970" points="136.3119,-71.0001 146.3119,-67.5 136.3119,-64.0001 136.3119,-71.0001"/>
</g>
</g>
</svg>
