<?xml version="1.0" encoding="UTF-8" standalone="no"?>
<!DOCTYPE svg PUBLIC "-//W3C//DTD SVG 1.1//EN"
 "http://www.w3.org/Graphics/SVG/1.1/DTD/svg11.dtd">
<!-- Generated by graphviz version 2.40.1 (20161225.0304)
 -->
<!-- Title: LFSTK_gadgetClass::LFSTK_reloadColours Pages: 1 -->
<svg width="479pt" height="194pt"
 viewBox="0.00 0.00 479.17 194.00" xmlns="http://www.w3.org/2000/svg" xmlns:xlink="http://www.w3.org/1999/xlink">
<g id="graph0" class="graph" transform="scale(1 1) rotate(0) translate(4 190)">
<title>LFSTK_gadgetClass::LFSTK_reloadColours</title>
<!-- Node1 -->
<g id="node1" class="node">
<title>Node1</title>
<g id="a_node1"><a xlink:title=" ">
<polygon fill="#bfbfbf" stroke="#000000" points="0,-76.5 0,-108.5 114.902,-108.5 114.902,-76.5 0,-76.5"/>
<text text-anchor="start" x="8" y="-95.5" font-family="Helvetica,sans-Serif" font-size="10.00" fill="#000000">LFSTK_gadgetClass::</text>
<text text-anchor="middle" x="57.451" y="-83.5" font-family="Helvetica,sans-Serif" font-size="10.00" fill="#000000">LFSTK_reloadColours</text>
</a>
</g>
</g>
<!-- Node2 -->
<g id="node2" class="node">
<title>Node2</title>
<g id="a_node2"><a xlink:href="class_l_f_s_t_k__lib_a46aa104681d600dd4eb24549e813b5cc.xhtml#a46aa104681d600dd4eb24549e813b5cc" target="_top" xlink:title=" ">
<polygon fill="none" stroke="#000000" points="150.902,-153.5 150.902,-185.5 298.596,-185.5 298.596,-153.5 150.902,-153.5"/>
<text text-anchor="start" x="158.902" y="-172.5" font-family="Helvetica,sans-Serif" font-size="10.00" fill="#000000">LFSTK_lib::LFSTK_getGlobal</text>
<text text-anchor="middle" x="224.749" y="-160.5" font-family="Helvetica,sans-Serif" font-size="10.00" fill="#000000">String</text>
</a>
</g>
</g>
<!-- Node1&#45;&gt;Node2 -->
<g id="edge1" class="edge">
<title>Node1&#45;&gt;Node2</title>
<path fill="none" stroke="#191970" d="M83.3826,-108.6052C101.7838,-119.6131 127.3068,-134.045 150.902,-144.5 155.0515,-146.3386 159.3809,-148.1245 163.7719,-149.8399"/>
<polygon fill="#191970" stroke="#191970" points="162.845,-153.2307 173.437,-153.4758 165.3098,-146.6789 162.845,-153.2307"/>
</g>
<!-- Node3 -->
<g id="node3" class="node">
<title>Node3</title>
<g id="a_node3"><a xlink:href="class_l_f_s_t_k__gadget_class_a70989f54f49667a00347f3b0891944ab.xhtml#a70989f54f49667a00347f3b0891944ab" target="_top" xlink:title=" ">
<polygon fill="none" stroke="#000000" points="163.688,-102.5 163.688,-134.5 285.81,-134.5 285.81,-102.5 163.688,-102.5"/>
<text text-anchor="start" x="171.688" y="-121.5" font-family="Helvetica,sans-Serif" font-size="10.00" fill="#000000">LFSTK_gadgetClass::</text>
<text text-anchor="middle" x="224.749" y="-109.5" font-family="Helvetica,sans-Serif" font-size="10.00" fill="#000000">LFSTK_setColourName</text>
</a>
</g>
</g>
<!-- Node1&#45;&gt;Node3 -->
<g id="edge2" class="edge">
<title>Node1&#45;&gt;Node3</title>
<path fill="none" stroke="#191970" d="M115.0255,-101.4477C127.4059,-103.3718 140.633,-105.4274 153.4633,-107.4214"/>
<polygon fill="#191970" stroke="#191970" points="153.2252,-110.9263 163.6441,-109.0036 154.3003,-104.0094 153.2252,-110.9263"/>
</g>
<!-- Node4 -->
<g id="node4" class="node">
<title>Node4</title>
<g id="a_node4"><a xlink:href="class_l_f_s_t_k__gadget_class_a46c9f429ddcc6610c577994ec14ffb17.xhtml#a46c9f429ddcc6610c577994ec14ffb17" target="_top" xlink:title=" ">
<polygon fill="none" stroke="#000000" points="153.685,-51.5 153.685,-83.5 295.813,-83.5 295.813,-51.5 153.685,-51.5"/>
<text text-anchor="start" x="161.685" y="-70.5" font-family="Helvetica,sans-Serif" font-size="10.00" fill="#000000">LFSTK_gadgetClass::</text>
<text text-anchor="middle" x="224.749" y="-58.5" font-family="Helvetica,sans-Serif" font-size="10.00" fill="#000000">LFSTK_setFontColourName</text>
</a>
</g>
</g>
<!-- Node1&#45;&gt;Node4 -->
<g id="edge3" class="edge">
<title>Node1&#45;&gt;Node4</title>
<path fill="none" stroke="#191970" d="M115.0255,-83.8964C124.2152,-82.5232 133.8714,-81.0802 143.4855,-79.6435"/>
<polygon fill="#191970" stroke="#191970" points="144.095,-83.0914 153.4679,-78.1518 143.0604,-76.1683 144.095,-83.0914"/>
</g>
<!-- Node6 -->
<g id="node6" class="node">
<title>Node6</title>
<g id="a_node6"><a xlink:href="class_l_f_s_t_k__gadget_class_a94b109b103654941f59dd614f03cede1.xhtml#a94b109b103654941f59dd614f03cede1" target="_top" xlink:title=" ">
<polygon fill="none" stroke="#000000" points="167.8475,-.5 167.8475,-32.5 281.6505,-32.5 281.6505,-.5 167.8475,-.5"/>
<text text-anchor="start" x="175.8475" y="-19.5" font-family="Helvetica,sans-Serif" font-size="10.00" fill="#000000">LFSTK_gadgetClass::</text>
<text text-anchor="middle" x="224.749" y="-7.5" font-family="Helvetica,sans-Serif" font-size="10.00" fill="#000000">LFSTK_setFontString</text>
</a>
</g>
</g>
<!-- Node1&#45;&gt;Node6 -->
<g id="edge5" class="edge">
<title>Node1&#45;&gt;Node6</title>
<path fill="none" stroke="#191970" d="M84.7056,-76.4902C103.0577,-66.0683 128.0007,-52.5875 150.902,-42.5 155.8775,-40.3084 161.1011,-38.1669 166.3738,-36.1134"/>
<polygon fill="#191970" stroke="#191970" points="167.7593,-39.3314 175.8745,-32.5202 165.283,-32.784 167.7593,-39.3314"/>
</g>
<!-- Node5 -->
<g id="node5" class="node">
<title>Node5</title>
<g id="a_node5"><a xlink:href="class_l_f_s_t_k__lib_ab2f14a3414f7db863682d1e2fa0cfb75.xhtml#ab2f14a3414f7db863682d1e2fa0cfb75" target="_top" xlink:title=" ">
<polygon fill="none" stroke="#000000" points="334.596,-57.5 334.596,-77.5 471.172,-77.5 471.172,-57.5 334.596,-57.5"/>
<text text-anchor="middle" x="402.884" y="-64.5" font-family="Helvetica,sans-Serif" font-size="10.00" fill="#000000">LFSTK_lib::bestFontColour</text>
</a>
</g>
</g>
<!-- Node4&#45;&gt;Node5 -->
<g id="edge4" class="edge">
<title>Node4&#45;&gt;Node5</title>
<path fill="none" stroke="#191970" d="M295.9206,-67.5C305.2436,-67.5 314.8394,-67.5 324.2764,-67.5"/>
<polygon fill="#191970" stroke="#191970" points="324.4338,-71.0001 334.4338,-67.5 324.4338,-64.0001 324.4338,-71.0001"/>
</g>
<!-- Node7 -->
<g id="node7" class="node">
<title>Node7</title>
<g id="a_node7"><a xlink:href="class_l_f_s_t_k__gadget_class_a6ba306176db18f16e2a034c875f53de0.xhtml#a6ba306176db18f16e2a034c875f53de0" target="_top" xlink:title=" ">
<polygon fill="none" stroke="#000000" points="337.3745,-.5 337.3745,-32.5 468.3935,-32.5 468.3935,-.5 337.3745,-.5"/>
<text text-anchor="start" x="345.3745" y="-19.5" font-family="Helvetica,sans-Serif" font-size="10.00" fill="#000000">LFSTK_gadgetClass::</text>
<text text-anchor="middle" x="402.884" y="-7.5" font-family="Helvetica,sans-Serif" font-size="10.00" fill="#000000">LFSTK_setCairoFontData</text>
</a>
</g>
</g>
<!-- Node6&#45;&gt;Node7 -->
<g id="edge6" class="edge">
<title>Node6&#45;&gt;Node7</title>
<path fill="none" stroke="#191970" d="M282.0926,-16.5C296.3889,-16.5 311.9396,-16.5 326.9784,-16.5"/>
<polygon fill="#191970" stroke="#191970" points="327.2864,-20.0001 337.2863,-16.5 327.2863,-13.0001 327.2864,-20.0001"/>
</g>
</g>
</svg>
