<?xml version="1.0" encoding="UTF-8" standalone="no"?>
<!DOCTYPE svg PUBLIC "-//W3C//DTD SVG 1.1//EN"
 "http://www.w3.org/Graphics/SVG/1.1/DTD/svg11.dtd">
<!-- Generated by graphviz version 2.40.1 (20161225.0304)
 -->
<!-- Title: LFSTK_gadgetClass::LFSTK_setCairoFontData Pages: 1 -->
<!--zoomable 929 -->
<svg id="main" version="1.1" xmlns="http://www.w3.org/2000/svg" xmlns:xlink="http://www.w3.org/1999/xlink" xml:space="preserve" onload="init(evt)">
<style type="text/css"><![CDATA[
.edge:hover path { stroke: red; }
.edge:hover polygon { stroke: red; fill: red; }
]]></style>
<script type="text/javascript"><![CDATA[
var edges = document.getElementsByTagName('g');
if (edges && edges.length) {
  for (var i=0;i<edges.length;i++) {
    if (edges[i].id.substr(0,4)=='edge') {
      edges[i].setAttribute('class','edge');
    }
  }
}
]]></script>
        <defs>
                <circle id="rim" cx="0" cy="0" r="7"/>
                <circle id="rim2" cx="0" cy="0" r="3.5"/>
                <g id="zoomPlus">
                        <use xlink:href="#rim" fill="#404040">
                                <set attributeName="fill" to="#808080" begin="zoomplus.mouseover" end="zoomplus.mouseout"/>
                        </use>
                        <path d="M-4,0h8M0,-4v8" fill="none" stroke="white" stroke-width="1.5" pointer-events="none"/>
                </g>
                <g id="zoomMin">
                        <use xlink:href="#rim" fill="#404040">
                                <set attributeName="fill" to="#808080" begin="zoomminus.mouseover" end="zoomminus.mouseout"/>
                        </use>
                        <path d="M-4,0h8" fill="none" stroke="white" stroke-width="1.5" pointer-events="none"/>
                </g>
                <g id="dirArrow">
                        <path fill="none" stroke="white" stroke-width="1.5" d="M0,-3.0v7 M-2.5,-0.5L0,-3.0L2.5,-0.5"/>
                </g>
               <g id="resetDef">
                       <use xlink:href="#rim2" fill="#404040">
                               <set attributeName="fill" to="#808080" begin="reset.mouseover" end="reset.mouseout"/>
                       </use>
               </g>
        </defs>

<script type="text/javascript">
var viewWidth = 1110;
var viewHeight = 929;
var sectionId = 'dynsection-0';
</script>
<script xlink:href="svgpan.js"/>
<svg id="graph" class="graph">
<g id="viewport">
<title>LFSTK_gadgetClass::LFSTK_setCairoFontData</title>
<!-- Node1 -->
<g id="node1" class="node">
<title>Node1</title>
<g id="a_node1"><a xlink:title=" ">
<polygon fill="#bfbfbf" stroke="#000000" points="970.961,-265.5 970.961,-297.5 1101.98,-297.5 1101.98,-265.5 970.961,-265.5"/>
<text text-anchor="start" x="978.961" y="-284.5" font-family="Helvetica,sans-Serif" font-size="10.00" fill="#000000">LFSTK_gadgetClass::</text>
<text text-anchor="middle" x="1036.4705" y="-272.5" font-family="Helvetica,sans-Serif" font-size="10.00" fill="#000000">LFSTK_setCairoFontData</text>
</a>
</g>
</g>
<!-- Node2 -->
<g id="node2" class="node">
<title>Node2</title>
<g id="a_node2"><a xlink:href="class_l_f_s_t_k__button_class_a2b46d2136069e61fc8c8ee88519b2a8f.xhtml#a2b46d2136069e61fc8c8ee88519b2a8f" target="_top" xlink:title=" ">
<polygon fill="none" stroke="#000000" points="337.621,-434.5 337.621,-466.5 448.644,-466.5 448.644,-434.5 337.621,-434.5"/>
<text text-anchor="start" x="345.621" y="-453.5" font-family="Helvetica,sans-Serif" font-size="10.00" fill="#000000">LFSTK_buttonClass::</text>
<text text-anchor="middle" x="393.1325" y="-441.5" font-family="Helvetica,sans-Serif" font-size="10.00" fill="#000000">LFSTK_buttonClass</text>
</a>
</g>
</g>
<!-- Node1&#45;&gt;Node2 -->
<g id="edge1" class="edge">
<title>Node1&#45;&gt;Node2</title>
<path fill="none" stroke="#191970" d="M1024.4578,-307.1398C1008.5326,-338.161 977.4138,-389.5689 934.961,-416.5 769.9327,-521.1904 693.5214,-507.1791 499.917,-480.5 479.7914,-477.7266 458.118,-472.1441 439.5906,-466.5388"/>
<polygon fill="#191970" stroke="#191970" points="1027.7637,-308.3528 1029.0896,-297.8412 1021.498,-305.2317 1027.7637,-308.3528"/>
</g>
<!-- Node3 -->
<g id="node3" class="node">
<title>Node3</title>
<g id="a_node3"><a xlink:href="class_l_f_s_t_k__file_dialog_class_a553ce8e885b0d60cbf515b7b3d1e8b65.xhtml#a553ce8e885b0d60cbf515b7b3d1e8b65" target="_top" xlink:title=" ">
<polygon fill="none" stroke="#000000" points="0,-811.5 0,-843.5 124.339,-843.5 124.339,-811.5 0,-811.5"/>
<text text-anchor="start" x="8" y="-830.5" font-family="Helvetica,sans-Serif" font-size="10.00" fill="#000000">LFSTK_fileDialogClass</text>
<text text-anchor="middle" x="62.1695" y="-818.5" font-family="Helvetica,sans-Serif" font-size="10.00" fill="#000000">::LFSTK_fileDialogClass</text>
</a>
</g>
</g>
<!-- Node1&#45;&gt;Node3 -->
<g id="edge2" class="edge">
<title>Node1&#45;&gt;Node3</title>
<path fill="none" stroke="#191970" d="M1033.7023,-307.574C1023.7171,-397.9482 987.353,-696.5436 934.961,-775.5 872.0188,-870.3559 837.6562,-920.5 723.817,-920.5 723.817,-920.5 723.817,-920.5 393.1325,-920.5 287.9185,-920.5 259.9823,-911.2818 160.339,-877.5 134.9795,-868.9025 107.9972,-854.7549 88.7513,-843.6989"/>
<polygon fill="#191970" stroke="#191970" points="1037.1836,-307.9343 1034.7885,-297.6137 1030.2249,-307.1753 1037.1836,-307.9343"/>
</g>
<!-- Node4 -->
<g id="node4" class="node">
<title>Node4</title>
<g id="a_node4"><a xlink:href="class_l_f_s_t_k__font_dialog_class_ab7b6a4bca99713646ab6ac77dc34827c.xhtml#ab7b6a4bca99713646ab6ac77dc34827c" target="_top" xlink:title=" ">
<polygon fill="none" stroke="#000000" points="329.013,-718.5 329.013,-750.5 457.252,-750.5 457.252,-718.5 329.013,-718.5"/>
<text text-anchor="start" x="337.013" y="-737.5" font-family="Helvetica,sans-Serif" font-size="10.00" fill="#000000">LFSTK_fontDialogClass</text>
<text text-anchor="middle" x="393.1325" y="-725.5" font-family="Helvetica,sans-Serif" font-size="10.00" fill="#000000">::LFSTK_fontDialogClass</text>
</a>
</g>
</g>
<!-- Node1&#45;&gt;Node4 -->
<g id="edge3" class="edge">
<title>Node1&#45;&gt;Node4</title>
<path fill="none" stroke="#191970" d="M1032.9923,-307.6963C1021.5938,-390.4498 983.3095,-644.6783 934.961,-710.5 817.453,-870.4757 688.8068,-872.4999 499.917,-811.5 462.942,-799.5593 427.9847,-769.522 408.6705,-750.6882"/>
<polygon fill="#191970" stroke="#191970" points="1036.4831,-308.0001 1034.3635,-297.6194 1029.547,-307.0562 1036.4831,-308.0001"/>
</g>
<!-- Node5 -->
<g id="node5" class="node">
<title>Node5</title>
<g id="a_node5"><a xlink:href="class_l_f_s_t_k__image_class_aff24b6452cb0a5d821b81770aa8f58d5.xhtml#aff24b6452cb0a5d821b81770aa8f58d5" target="_top" xlink:title=" ">
<polygon fill="none" stroke="#000000" points="322.348,-174.5 322.348,-206.5 463.917,-206.5 463.917,-174.5 322.348,-174.5"/>
<text text-anchor="start" x="330.348" y="-193.5" font-family="Helvetica,sans-Serif" font-size="10.00" fill="#000000">LFSTK_imageClass::LFSTK</text>
<text text-anchor="middle" x="393.1325" y="-181.5" font-family="Helvetica,sans-Serif" font-size="10.00" fill="#000000">_imageClass</text>
</a>
</g>
</g>
<!-- Node1&#45;&gt;Node5 -->
<g id="edge4" class="edge">
<title>Node1&#45;&gt;Node5</title>
<path fill="none" stroke="#191970" d="M999.0698,-260.8277C980.3734,-251.4719 957.0687,-241.2433 934.961,-235.5 770.2869,-192.7195 568.891,-187.8735 464.1238,-188.7513"/>
<polygon fill="#191970" stroke="#191970" points="997.6279,-264.0216 1008.1234,-265.469 1000.8213,-257.7924 997.6279,-264.0216"/>
</g>
<!-- Node6 -->
<g id="node6" class="node">
<title>Node6</title>
<g id="a_node6"><a xlink:href="class_l_f_s_t_k__label_class_a6085feaa122a3d1060351c659889628c.xhtml#a6085feaa122a3d1060351c659889628c" target="_top" xlink:title=" ">
<polygon fill="none" stroke="#000000" points="325.403,-120.5 325.403,-152.5 460.862,-152.5 460.862,-120.5 325.403,-120.5"/>
<text text-anchor="start" x="333.403" y="-139.5" font-family="Helvetica,sans-Serif" font-size="10.00" fill="#000000">LFSTK_labelClass::LFSTK</text>
<text text-anchor="middle" x="393.1325" y="-127.5" font-family="Helvetica,sans-Serif" font-size="10.00" fill="#000000">_labelClass</text>
</a>
</g>
</g>
<!-- Node1&#45;&gt;Node6 -->
<g id="edge5" class="edge">
<title>Node1&#45;&gt;Node6</title>
<path fill="none" stroke="#191970" d="M1012.6886,-258.7611C993.3477,-241.6902 964.5087,-219.3055 934.961,-207.5 773.9581,-143.1731 566.7053,-134.5059 461.2833,-134.8125"/>
<polygon fill="#191970" stroke="#191970" points="1010.352,-261.367 1020.1189,-265.4729 1015.0443,-256.1725 1010.352,-261.367"/>
</g>
<!-- Node7 -->
<g id="node7" class="node">
<title>Node7</title>
<g id="a_node7"><a xlink:href="class_l_f_s_t_k__line_edit_class_af610951625203a6d75bce118b2b94386.xhtml#af610951625203a6d75bce118b2b94386" target="_top" xlink:title=" ">
<polygon fill="none" stroke="#000000" points="335.127,-355.5 335.127,-387.5 451.138,-387.5 451.138,-355.5 335.127,-355.5"/>
<text text-anchor="start" x="343.127" y="-374.5" font-family="Helvetica,sans-Serif" font-size="10.00" fill="#000000">LFSTK_lineEditClass</text>
<text text-anchor="middle" x="393.1325" y="-362.5" font-family="Helvetica,sans-Serif" font-size="10.00" fill="#000000">::LFSTK_lineEditClass</text>
</a>
</g>
</g>
<!-- Node1&#45;&gt;Node7 -->
<g id="edge6" class="edge">
<title>Node1&#45;&gt;Node7</title>
<path fill="none" stroke="#191970" d="M960.434,-279.1007C884.2829,-278.2041 764.1185,-280.8979 662.476,-301.5 645.8038,-304.8793 642.762,-309.5857 626.476,-314.5 567.5879,-332.2695 499.0951,-348.4849 451.6149,-359.0381"/>
<polygon fill="#191970" stroke="#191970" points="960.8318,-282.6066 970.8807,-279.2496 960.9316,-275.6073 960.8318,-282.6066"/>
</g>
<!-- Node8 -->
<g id="node8" class="node">
<title>Node8</title>
<g id="a_node8"><a xlink:href="class_l_f_s_t_k__list_gadget_class_ae3518016f28ec3cd261ad927c5691826.xhtml#ae3518016f28ec3cd261ad927c5691826" target="_top" xlink:title=" ">
<polygon fill="none" stroke="#000000" points="329.0125,-514.5 329.0125,-546.5 457.2525,-546.5 457.2525,-514.5 329.0125,-514.5"/>
<text text-anchor="start" x="337.0125" y="-533.5" font-family="Helvetica,sans-Serif" font-size="10.00" fill="#000000">LFSTK_listGadgetClass</text>
<text text-anchor="middle" x="393.1325" y="-521.5" font-family="Helvetica,sans-Serif" font-size="10.00" fill="#000000">::LFSTK_listGadgetClass</text>
</a>
</g>
</g>
<!-- Node1&#45;&gt;Node8 -->
<g id="edge7" class="edge">
<title>Node1&#45;&gt;Node8</title>
<path fill="none" stroke="#191970" d="M1028.4133,-307.6562C1015.1571,-346.4051 985.0983,-418.8479 934.961,-459.5 796.0518,-572.1298 567.94,-557.3893 457.304,-541.7857"/>
<polygon fill="#191970" stroke="#191970" points="1031.897,-308.2681 1031.7093,-297.6749 1025.2501,-306.0731 1031.897,-308.2681"/>
</g>
<!-- Node9 -->
<g id="node9" class="node">
<title>Node9</title>
<g id="a_node9"><a xlink:href="class_l_f_s_t_k__menu_item_class_a382a9775dff59f06606ef0b3f43382cc.xhtml#a382a9775dff59f06606ef0b3f43382cc" target="_top" xlink:title=" ">
<polygon fill="none" stroke="#000000" points="329.292,-277.5 329.292,-309.5 456.973,-309.5 456.973,-277.5 329.292,-277.5"/>
<text text-anchor="start" x="337.292" y="-296.5" font-family="Helvetica,sans-Serif" font-size="10.00" fill="#000000">LFSTK_menuItemClass</text>
<text text-anchor="middle" x="393.1325" y="-284.5" font-family="Helvetica,sans-Serif" font-size="10.00" fill="#000000">::LFSTK_menuItemClass</text>
</a>
</g>
</g>
<!-- Node1&#45;&gt;Node9 -->
<g id="edge8" class="edge">
<title>Node1&#45;&gt;Node9</title>
<path fill="none" stroke="#191970" d="M960.6843,-270.0003C952.0255,-268.9979 943.3126,-268.1276 934.961,-267.5 742.1437,-253.0096 691.4679,-237.1038 499.917,-263.5 479.7914,-266.2734 458.118,-271.8559 439.5906,-277.4612"/>
<polygon fill="#191970" stroke="#191970" points="960.4496,-273.4975 970.7992,-271.2311 961.2952,-266.5487 960.4496,-273.4975"/>
</g>
<!-- Node10 -->
<g id="node10" class="node">
<title>Node10</title>
<g id="a_node10"><a xlink:href="class_l_f_s_t_k__multi_line_edit_class_a3319d21c84b3437e69bb87dc77531322.xhtml#a3319d21c84b3437e69bb87dc77531322" target="_top" xlink:title=" ">
<polygon fill="none" stroke="#000000" points="322.9045,-226.5 322.9045,-258.5 463.3605,-258.5 463.3605,-226.5 322.9045,-226.5"/>
<text text-anchor="start" x="330.9045" y="-245.5" font-family="Helvetica,sans-Serif" font-size="10.00" fill="#000000">LFSTK_multiLineEditClass</text>
<text text-anchor="middle" x="393.1325" y="-233.5" font-family="Helvetica,sans-Serif" font-size="10.00" fill="#000000">::LFSTK_multiLineEditClass</text>
</a>
</g>
</g>
<!-- Node1&#45;&gt;Node10 -->
<g id="edge9" class="edge">
<title>Node1&#45;&gt;Node10</title>
<path fill="none" stroke="#191970" d="M976.6233,-262.7624C963.0444,-259.1367 948.6023,-255.7655 934.961,-253.5 767.661,-225.7153 567.337,-231.6037 463.434,-237.5212"/>
<polygon fill="#191970" stroke="#191970" points="975.7641,-266.1561 986.3344,-265.4353 977.6218,-259.407 975.7641,-266.1561"/>
</g>
<!-- Node11 -->
<g id="node11" class="node">
<title>Node11</title>
<g id="a_node11"><a xlink:href="class_l_f_s_t_k__scroll_bar_class_a3da4281c24ac345ba32a4636ce2af38b.xhtml#a3da4281c24ac345ba32a4636ce2af38b" target="_top" xlink:title=" ">
<polygon fill="none" stroke="#000000" points="332.0765,-63.5 332.0765,-95.5 454.1885,-95.5 454.1885,-63.5 332.0765,-63.5"/>
<text text-anchor="start" x="340.0765" y="-82.5" font-family="Helvetica,sans-Serif" font-size="10.00" fill="#000000">LFSTK_scrollBarClass</text>
<text text-anchor="middle" x="393.1325" y="-70.5" font-family="Helvetica,sans-Serif" font-size="10.00" fill="#000000">::LFSTK_scrollBarClass</text>
</a>
</g>
</g>
<!-- Node1&#45;&gt;Node11 -->
<g id="edge10" class="edge">
<title>Node1&#45;&gt;Node11</title>
<path fill="none" stroke="#191970" d="M1021.3878,-256.6532C1003.9955,-230.306 972.8721,-189.6372 934.961,-168.5 778.4299,-81.2268 559.5921,-74.1378 454.3789,-76.5295"/>
<polygon fill="#191970" stroke="#191970" points="1018.6058,-258.7983 1026.9557,-265.3198 1024.4951,-255.0146 1018.6058,-258.7983"/>
</g>
<!-- Node12 -->
<g id="node12" class="node">
<title>Node12</title>
<g id="a_node12"><a xlink:href="class_l_f_s_t_k__gadget_class_a94b109b103654941f59dd614f03cede1.xhtml#a94b109b103654941f59dd614f03cede1" target="_top" xlink:title=" ">
<polygon fill="none" stroke="#000000" points="821.158,-374.5 821.158,-406.5 934.961,-406.5 934.961,-374.5 821.158,-374.5"/>
<text text-anchor="start" x="829.158" y="-393.5" font-family="Helvetica,sans-Serif" font-size="10.00" fill="#000000">LFSTK_gadgetClass::</text>
<text text-anchor="middle" x="878.0595" y="-381.5" font-family="Helvetica,sans-Serif" font-size="10.00" fill="#000000">LFSTK_setFontString</text>
</a>
</g>
</g>
<!-- Node1&#45;&gt;Node12 -->
<g id="edge11" class="edge">
<title>Node1&#45;&gt;Node12</title>
<path fill="none" stroke="#191970" d="M1004.5305,-303.4774C974.0452,-324.4538 928.8309,-355.565 901.5295,-374.3507"/>
<polygon fill="#191970" stroke="#191970" points="1006.8422,-306.1353 1013.0964,-297.5833 1002.8742,-300.3686 1006.8422,-306.1353"/>
</g>
<!-- Node15 -->
<g id="node15" class="node">
<title>Node15</title>
<g id="a_node15"><a xlink:href="class_l_f_s_t_k__toggle_button_class_a4cc0929a4d4113b9b40a3bdc54898ab7.xhtml#a4cc0929a4d4113b9b40a3bdc54898ab7" target="_top" xlink:title=" ">
<polygon fill="none" stroke="#000000" points="323.449,-.5 323.449,-32.5 462.816,-32.5 462.816,-.5 323.449,-.5"/>
<text text-anchor="start" x="331.449" y="-19.5" font-family="Helvetica,sans-Serif" font-size="10.00" fill="#000000">LFSTK_toggleButtonClass</text>
<text text-anchor="middle" x="393.1325" y="-7.5" font-family="Helvetica,sans-Serif" font-size="10.00" fill="#000000">::LFSTK_toggleButtonClass</text>
</a>
</g>
</g>
<!-- Node1&#45;&gt;Node15 -->
<g id="edge46" class="edge">
<title>Node1&#45;&gt;Node15</title>
<path fill="none" stroke="#191970" d="M1027.6465,-255.6593C1013.8241,-219.2133 983.5129,-153.284 934.961,-118.5 791.5935,-15.7874 573.9262,-8.0881 463.1755,-11.8407"/>
<polygon fill="#191970" stroke="#191970" points="1024.3816,-256.9221 1031.1094,-265.1067 1030.954,-254.513 1024.3816,-256.9221"/>
</g>
<!-- Node17 -->
<g id="node17" class="node">
<title>Node17</title>
<g id="a_node17"><a xlink:href="class_l_f_s_t_k__gadget_class_a0331bef494c43154a2516cd70ee30e19.xhtml#a0331bef494c43154a2516cd70ee30e19" target="_top" xlink:title=" ">
<polygon fill="none" stroke="#000000" points="821.158,-668.5 821.158,-700.5 934.961,-700.5 934.961,-668.5 821.158,-668.5"/>
<text text-anchor="start" x="829.158" y="-687.5" font-family="Helvetica,sans-Serif" font-size="10.00" fill="#000000">LFSTK_gadgetClass::</text>
<text text-anchor="middle" x="878.0595" y="-675.5" font-family="Helvetica,sans-Serif" font-size="10.00" fill="#000000">LFSTK_setLabel</text>
</a>
</g>
</g>
<!-- Node1&#45;&gt;Node17 -->
<g id="edge31" class="edge">
<title>Node1&#45;&gt;Node17</title>
<path fill="none" stroke="#191970" d="M1033.251,-307.9926C1024.9775,-368.4122 998.9551,-519.5094 934.961,-627.5 925.6228,-643.2583 910.9416,-657.8148 898.831,-668.273"/>
<polygon fill="#191970" stroke="#191970" points="1036.7579,-308.1685 1034.5944,-297.797 1029.8179,-307.254 1036.7579,-308.1685"/>
</g>
<!-- Node12&#45;&gt;Node3 -->
<g id="edge24" class="edge">
<title>Node12&#45;&gt;Node3</title>
<path fill="none" stroke="#191970" d="M856.8475,-414.0345C809.4732,-463.867 689.2766,-575.5 563.1965,-575.5 563.1965,-575.5 563.1965,-575.5 393.1325,-575.5 236.7784,-575.5 108.1733,-755.7339 72.209,-811.3529"/>
<polygon fill="#191970" stroke="#191970" points="859.5347,-416.2855 863.8153,-406.5939 854.4252,-411.5008 859.5347,-416.2855"/>
</g>
<!-- Node12&#45;&gt;Node7 -->
<g id="edge25" class="edge">
<title>Node12&#45;&gt;Node7</title>
<path fill="none" stroke="#191970" d="M810.6155,-391.9852C734.9011,-393.0999 608.4319,-393.3039 499.917,-385.5 484.065,-384.36 466.9672,-382.4336 451.1986,-380.3687"/>
<polygon fill="#191970" stroke="#191970" points="811.0114,-395.4795 820.9551,-391.8226 810.9013,-388.4804 811.0114,-395.4795"/>
</g>
<!-- Node12&#45;&gt;Node8 -->
<g id="edge26" class="edge">
<title>Node12&#45;&gt;Node8</title>
<path fill="none" stroke="#191970" d="M848.0199,-412.5856C830.4757,-424.526 807.4594,-438.6059 785.158,-447.5 674.659,-491.5684 536.8649,-513.7973 457.543,-523.7004"/>
<polygon fill="#191970" stroke="#191970" points="850.451,-415.1582 856.6628,-406.5754 846.4545,-409.4111 850.451,-415.1582"/>
</g>
<!-- Node12&#45;&gt;Node9 -->
<g id="edge27" class="edge">
<title>Node12&#45;&gt;Node9</title>
<path fill="none" stroke="#191970" d="M810.7778,-379.3732C768.1882,-372.1488 712.0076,-362.286 662.476,-352.5 592.0331,-338.5825 511.6687,-320.7185 457.1942,-308.311"/>
<polygon fill="#191970" stroke="#191970" points="810.305,-382.8428 820.7485,-381.0584 811.4716,-375.9407 810.305,-382.8428"/>
</g>
<!-- Node12&#45;&gt;Node10 -->
<g id="edge28" class="edge">
<title>Node12&#45;&gt;Node10</title>
<path fill="none" stroke="#191970" d="M859.2927,-366.4408C842.1419,-346.1075 814.9702,-317.7671 785.158,-301.5 683.3547,-245.9507 545.7281,-237.9662 463.5407,-238.9976"/>
<polygon fill="#191970" stroke="#191970" points="856.7343,-368.84 865.7918,-374.3367 862.139,-364.3914 856.7343,-368.84"/>
</g>
<!-- Node13 -->
<g id="node13" class="node">
<title>Node13</title>
<g id="a_node13"><a xlink:href="class_l_f_s_t_k__gadget_class_af7a3a7b33909c6560b1cf27033548c46.xhtml#af7a3a7b33909c6560b1cf27033548c46" target="_top" xlink:title=" ">
<polygon fill="none" stroke="#000000" points="666.9155,-310.5 666.9155,-342.5 780.7185,-342.5 780.7185,-310.5 666.9155,-310.5"/>
<text text-anchor="start" x="674.9155" y="-329.5" font-family="Helvetica,sans-Serif" font-size="10.00" fill="#000000">LFSTK_gadgetClass::</text>
<text text-anchor="middle" x="723.817" y="-317.5" font-family="Helvetica,sans-Serif" font-size="10.00" fill="#000000">initGadget</text>
</a>
</g>
</g>
<!-- Node12&#45;&gt;Node13 -->
<g id="edge12" class="edge">
<title>Node12&#45;&gt;Node13</title>
<path fill="none" stroke="#191970" d="M829.7732,-370.4645C808.0928,-361.4686 782.8607,-350.9991 762.459,-342.5338"/>
<polygon fill="#191970" stroke="#191970" points="828.5598,-373.7503 839.1376,-374.3501 831.2425,-367.2848 828.5598,-373.7503"/>
</g>
<!-- Node16 -->
<g id="node16" class="node">
<title>Node16</title>
<g id="a_node16"><a xlink:href="class_l_f_s_t_k__gadget_class_a9f37719f8d8e0bc1163ea2781b6002af.xhtml#a9f37719f8d8e0bc1163ea2781b6002af" target="_top" xlink:title=" ">
<polygon fill="none" stroke="#000000" points="505.7455,-438.5 505.7455,-470.5 620.6475,-470.5 620.6475,-438.5 505.7455,-438.5"/>
<text text-anchor="start" x="513.7455" y="-457.5" font-family="Helvetica,sans-Serif" font-size="10.00" fill="#000000">LFSTK_gadgetClass::</text>
<text text-anchor="middle" x="563.1965" y="-445.5" font-family="Helvetica,sans-Serif" font-size="10.00" fill="#000000">LFSTK_reloadColours</text>
</a>
</g>
</g>
<!-- Node12&#45;&gt;Node16 -->
<g id="edge29" class="edge">
<title>Node12&#45;&gt;Node16</title>
<path fill="none" stroke="#191970" d="M828.9343,-410.0388C814.9625,-415.0216 799.6116,-419.9623 785.158,-423.5 730.1686,-436.9591 665.9859,-445.133 620.8235,-449.6818"/>
<polygon fill="#191970" stroke="#191970" points="830.1649,-413.3156 838.3588,-406.5992 827.7649,-406.7399 830.1649,-413.3156"/>
</g>
<!-- Node14 -->
<g id="node14" class="node">
<title>Node14</title>
<g id="a_node14"><a xlink:href="class_l_f_s_t_k__gadget_class_a13d0e1c40a4feae0531c0ce9188bcd62.xhtml#a13d0e1c40a4feae0531c0ce9188bcd62" target="_top" xlink:title=" ">
<polygon fill="none" stroke="#000000" points="506.295,-272.5 506.295,-304.5 620.098,-304.5 620.098,-272.5 506.295,-272.5"/>
<text text-anchor="start" x="514.295" y="-291.5" font-family="Helvetica,sans-Serif" font-size="10.00" fill="#000000">LFSTK_gadgetClass::</text>
<text text-anchor="middle" x="563.1965" y="-279.5" font-family="Helvetica,sans-Serif" font-size="10.00" fill="#000000">LFSTK_setCommon</text>
</a>
</g>
</g>
<!-- Node13&#45;&gt;Node14 -->
<g id="edge13" class="edge">
<title>Node13&#45;&gt;Node14</title>
<path fill="none" stroke="#191970" d="M656.7077,-310.6231C644.6248,-307.7645 632.1321,-304.809 620.3642,-302.0249"/>
<polygon fill="#191970" stroke="#191970" points="656.1988,-314.0993 666.736,-312.9956 657.8104,-307.2873 656.1988,-314.0993"/>
</g>
<!-- Node14&#45;&gt;Node2 -->
<g id="edge14" class="edge">
<title>Node14&#45;&gt;Node2</title>
<path fill="none" stroke="#191970" d="M543.719,-312.393C524.5152,-335.3212 493.7861,-370.3706 463.917,-397.5 449.1436,-410.9184 431.1209,-424.376 416.9588,-434.3728"/>
<polygon fill="#191970" stroke="#191970" points="546.5521,-314.46 550.2497,-304.5314 541.1675,-309.9871 546.5521,-314.46"/>
</g>
<!-- Node14&#45;&gt;Node4 -->
<g id="edge15" class="edge">
<title>Node14&#45;&gt;Node4</title>
<path fill="none" stroke="#191970" d="M550.5317,-313.7186C536.8607,-341.5782 515.0202,-388.0001 499.917,-429.5 479.853,-484.6309 482.7812,-500.9472 463.917,-556.5 443.3858,-616.9618 413.8351,-686.8559 400.343,-718.0241"/>
<polygon fill="#191970" stroke="#191970" points="553.7075,-315.1924 555.0022,-304.677 547.4325,-312.0898 553.7075,-315.1924"/>
</g>
<!-- Node14&#45;&gt;Node5 -->
<g id="edge16" class="edge">
<title>Node14&#45;&gt;Node5</title>
<path fill="none" stroke="#191970" d="M535.6308,-265.846C516.3762,-250.7769 489.6139,-231.2928 463.917,-217.5 456.5002,-213.519 448.3677,-209.841 440.341,-206.5633"/>
<polygon fill="#191970" stroke="#191970" points="533.6481,-268.7407 543.6577,-272.2131 537.9982,-263.2565 533.6481,-268.7407"/>
</g>
<!-- Node14&#45;&gt;Node6 -->
<g id="edge17" class="edge">
<title>Node14&#45;&gt;Node6</title>
<path fill="none" stroke="#191970" d="M548.6235,-263.7771C531.4259,-236.4643 500.4949,-192.7493 463.917,-165.5 457.2075,-160.5017 449.5135,-156.2071 441.7259,-152.5727"/>
<polygon fill="#191970" stroke="#191970" points="545.69,-265.6883 553.9176,-272.3635 551.6485,-262.0145 545.69,-265.6883"/>
</g>
<!-- Node14&#45;&gt;Node7 -->
<g id="edge18" class="edge">
<title>Node14&#45;&gt;Node7</title>
<path fill="none" stroke="#191970" d="M521.2327,-308.9805C491.8904,-323.301 453.2517,-342.1588 426.1116,-355.4045"/>
<polygon fill="#191970" stroke="#191970" points="522.9548,-312.0347 530.4065,-304.5032 519.8845,-305.7439 522.9548,-312.0347"/>
</g>
<!-- Node14&#45;&gt;Node8 -->
<g id="edge19" class="edge">
<title>Node14&#45;&gt;Node8</title>
<path fill="none" stroke="#191970" d="M553.8142,-314.1346C538.9432,-352.4022 507.1537,-425.4254 463.917,-476.5 451.3336,-491.3645 433.9896,-504.6781 419.6194,-514.3667"/>
<polygon fill="#191970" stroke="#191970" points="557.1005,-315.3395 557.3916,-304.7487 550.5595,-312.8464 557.1005,-315.3395"/>
</g>
<!-- Node14&#45;&gt;Node9 -->
<g id="edge20" class="edge">
<title>Node14&#45;&gt;Node9</title>
<path fill="none" stroke="#191970" d="M495.9733,-290.4764C483.173,-290.8527 469.809,-291.2457 457.1131,-291.6189"/>
<polygon fill="#191970" stroke="#191970" points="496.2018,-293.9713 506.0946,-290.1788 495.996,-286.9743 496.2018,-293.9713"/>
</g>
<!-- Node14&#45;&gt;Node10 -->
<g id="edge21" class="edge">
<title>Node14&#45;&gt;Node10</title>
<path fill="none" stroke="#191970" d="M496.2182,-270.3833C481.7521,-266.4704 466.5551,-262.3598 452.4084,-258.5333"/>
<polygon fill="#191970" stroke="#191970" points="495.5276,-273.8222 506.0946,-273.0547 497.3553,-267.065 495.5276,-273.8222"/>
</g>
<!-- Node14&#45;&gt;Node11 -->
<g id="edge22" class="edge">
<title>Node14&#45;&gt;Node11</title>
<path fill="none" stroke="#191970" d="M554.6214,-262.6273C540.9293,-224.8659 510.7972,-154.4868 463.917,-111.5 456.9589,-105.1198 448.5136,-99.8361 439.9146,-95.5265"/>
<polygon fill="#191970" stroke="#191970" points="551.4264,-264.0921 558.0476,-272.3631 558.0295,-261.7683 551.4264,-264.0921"/>
</g>
<!-- Node14&#45;&gt;Node15 -->
<g id="edge23" class="edge">
<title>Node14&#45;&gt;Node15</title>
<path fill="none" stroke="#191970" d="M558.1024,-262.3471C547.7995,-215.5263 520.4898,-116.497 463.917,-54.5 455.7376,-45.5364 444.9425,-38.2764 434.2542,-32.5975"/>
<polygon fill="#191970" stroke="#191970" points="554.713,-263.2364 560.2063,-272.2959 561.5615,-261.7881 554.713,-263.2364"/>
</g>
<!-- Node16&#45;&gt;Node8 -->
<g id="edge30" class="edge">
<title>Node16&#45;&gt;Node8</title>
<path fill="none" stroke="#191970" d="M517.6445,-474.8568C489.9012,-487.255 454.951,-502.8739 429.1467,-514.4056"/>
<polygon fill="#191970" stroke="#191970" points="519.4285,-477.8932 527.1303,-470.6176 516.5725,-471.5023 519.4285,-477.8932"/>
</g>
<!-- Node18 -->
<g id="node18" class="node">
<title>Node18</title>
<g id="a_node18"><a xlink:href="class_l_f_s_t_k__list_gadget_class_a7b9a3f3a749e622fdd46da8f72da2002.xhtml#a7b9a3f3a749e622fdd46da8f72da2002" target="_top" xlink:title=" ">
<polygon fill="none" stroke="#000000" points="662.476,-757.5 662.476,-789.5 785.158,-789.5 785.158,-757.5 662.476,-757.5"/>
<text text-anchor="start" x="670.476" y="-776.5" font-family="Helvetica,sans-Serif" font-size="10.00" fill="#000000">LFSTK_listGadgetClass</text>
<text text-anchor="middle" x="723.817" y="-764.5" font-family="Helvetica,sans-Serif" font-size="10.00" fill="#000000">::LFSTK_updateList</text>
</a>
</g>
</g>
<!-- Node17&#45;&gt;Node18 -->
<g id="edge32" class="edge">
<title>Node17&#45;&gt;Node18</title>
<path fill="none" stroke="#191970" d="M841.2123,-705.7613C813.7641,-721.5993 776.8549,-742.8964 751.8015,-757.3525"/>
<polygon fill="#191970" stroke="#191970" points="843.2151,-708.6466 850.1273,-700.6172 839.7166,-702.5836 843.2151,-708.6466"/>
</g>
<!-- Node25 -->
<g id="node25" class="node">
<title>Node25</title>
<g id="a_node25"><a xlink:href="class_l_f_s_t_k__list_gadget_class_a14695831a2f9362b99cdda134f551d83.xhtml#a14695831a2f9362b99cdda134f551d83" target="_top" xlink:title=" ">
<polygon fill="none" stroke="#000000" points="662.476,-642.5 662.476,-674.5 785.158,-674.5 785.158,-642.5 662.476,-642.5"/>
<text text-anchor="start" x="670.476" y="-661.5" font-family="Helvetica,sans-Serif" font-size="10.00" fill="#000000">LFSTK_listGadgetClass</text>
<text text-anchor="middle" x="723.817" y="-649.5" font-family="Helvetica,sans-Serif" font-size="10.00" fill="#000000">::scrollCB</text>
</a>
</g>
</g>
<!-- Node17&#45;&gt;Node25 -->
<g id="edge42" class="edge">
<title>Node17&#45;&gt;Node25</title>
<path fill="none" stroke="#191970" d="M811.0853,-673.2105C802.4963,-671.7626 793.7363,-670.286 785.2417,-668.8541"/>
<polygon fill="#191970" stroke="#191970" points="810.6208,-676.6815 821.0635,-674.8924 811.7844,-669.7788 810.6208,-676.6815"/>
</g>
<!-- Node26 -->
<g id="node26" class="node">
<title>Node26</title>
<g id="a_node26"><a xlink:href="class_l_f_s_t_k__file_dialog_class_ac7703591352d5105def9c5293fbeed62.xhtml#ac7703591352d5105def9c5293fbeed62" target="_top" xlink:title=" ">
<polygon fill="none" stroke="#000000" points="664.4265,-693.5 664.4265,-725.5 783.2075,-725.5 783.2075,-693.5 664.4265,-693.5"/>
<text text-anchor="start" x="672.4265" y="-712.5" font-family="Helvetica,sans-Serif" font-size="10.00" fill="#000000">LFSTK_fileDialogClass</text>
<text text-anchor="middle" x="723.817" y="-700.5" font-family="Helvetica,sans-Serif" font-size="10.00" fill="#000000">::setPreviewData</text>
</a>
</g>
</g>
<!-- Node17&#45;&gt;Node26 -->
<g id="edge44" class="edge">
<title>Node17&#45;&gt;Node26</title>
<path fill="none" stroke="#191970" d="M811.1553,-695.344C801.9289,-696.8394 792.5038,-698.3671 783.421,-699.8392"/>
<polygon fill="#191970" stroke="#191970" points="811.7523,-698.793 821.0635,-693.738 810.6323,-691.8832 811.7523,-698.793"/>
</g>
<!-- Node19 -->
<g id="node19" class="node">
<title>Node19</title>
<g id="a_node19"><a xlink:href="class_l_f_s_t_k__font_dialog_class_af866eb2b1ba8178c9cf3e751716fcc8e.xhtml#af866eb2b1ba8178c9cf3e751716fcc8e" target="_top" xlink:title=" ">
<polygon fill="none" stroke="#000000" points="501.856,-718.5 501.856,-750.5 624.537,-750.5 624.537,-718.5 501.856,-718.5"/>
<text text-anchor="start" x="509.856" y="-737.5" font-family="Helvetica,sans-Serif" font-size="10.00" fill="#000000">LFSTK_fontDialogClass</text>
<text text-anchor="middle" x="563.1965" y="-725.5" font-family="Helvetica,sans-Serif" font-size="10.00" fill="#000000">::buildDialog</text>
</a>
</g>
</g>
<!-- Node18&#45;&gt;Node19 -->
<g id="edge33" class="edge">
<title>Node18&#45;&gt;Node19</title>
<path fill="none" stroke="#191970" d="M652.2694,-756.1277C643.0619,-753.892 633.6989,-751.6186 624.6723,-749.4268"/>
<polygon fill="#191970" stroke="#191970" points="651.6328,-759.5747 662.1763,-758.5331 653.2845,-752.7723 651.6328,-759.5747"/>
</g>
<!-- Node20 -->
<g id="node20" class="node">
<title>Node20</title>
<g id="a_node20"><a xlink:href="class_l_f_s_t_k__file_dialog_class_a0a6b4f1db71031bf35a7636b736e8698.xhtml#a0a6b4f1db71031bf35a7636b736e8698" target="_top" xlink:title=" ">
<polygon fill="none" stroke="#000000" points="503.806,-859.5 503.806,-891.5 622.587,-891.5 622.587,-859.5 503.806,-859.5"/>
<text text-anchor="start" x="511.806" y="-878.5" font-family="Helvetica,sans-Serif" font-size="10.00" fill="#000000">LFSTK_fileDialogClass</text>
<text text-anchor="middle" x="563.1965" y="-866.5" font-family="Helvetica,sans-Serif" font-size="10.00" fill="#000000">::getFileList</text>
</a>
</g>
</g>
<!-- Node18&#45;&gt;Node20 -->
<g id="edge35" class="edge">
<title>Node18&#45;&gt;Node20</title>
<path fill="none" stroke="#191970" d="M689.8122,-795.0943C659.5122,-814.336 615.8546,-842.0602 588.5282,-859.4134"/>
<polygon fill="#191970" stroke="#191970" points="691.8008,-797.9776 698.3662,-789.6622 688.0482,-792.0684 691.8008,-797.9776"/>
</g>
<!-- Node24 -->
<g id="node24" class="node">
<title>Node24</title>
<g id="a_node24"><a xlink:href="class_l_f_s_t_k__list_gadget_class_addcdb5ba330fd8dd36beb94ea2081dd3.xhtml#addcdb5ba330fd8dd36beb94ea2081dd3" target="_top" xlink:title=" ">
<polygon fill="none" stroke="#000000" points="499.917,-769.5 499.917,-801.5 626.476,-801.5 626.476,-769.5 499.917,-769.5"/>
<text text-anchor="start" x="507.917" y="-788.5" font-family="Helvetica,sans-Serif" font-size="10.00" fill="#000000">LFSTK_listGadgetClass</text>
<text text-anchor="middle" x="563.1965" y="-776.5" font-family="Helvetica,sans-Serif" font-size="10.00" fill="#000000">::LFSTK_setListFromFile</text>
</a>
</g>
</g>
<!-- Node18&#45;&gt;Node24 -->
<g id="edge41" class="edge">
<title>Node18&#45;&gt;Node24</title>
<path fill="none" stroke="#191970" d="M651.9353,-778.8703C643.4672,-779.503 634.8726,-780.1451 626.5339,-780.768"/>
<polygon fill="#191970" stroke="#191970" points="652.4649,-782.3406 662.1763,-778.1052 651.9433,-775.36 652.4649,-782.3406"/>
</g>
<!-- Node19&#45;&gt;Node4 -->
<g id="edge34" class="edge">
<title>Node19&#45;&gt;Node4</title>
<path fill="none" stroke="#191970" d="M491.4919,-734.5C480.1425,-734.5 468.4683,-734.5 457.3052,-734.5"/>
<polygon fill="#191970" stroke="#191970" points="491.7995,-738.0001 501.7995,-734.5 491.7995,-731.0001 491.7995,-738.0001"/>
</g>
<!-- Node20&#45;&gt;Node3 -->
<g id="edge36" class="edge">
<title>Node20&#45;&gt;Node3</title>
<path fill="none" stroke="#191970" d="M493.6294,-877.2537C412.8968,-878.1296 276.0414,-876.0257 160.339,-856.5 142.9906,-853.5723 124.3787,-848.572 108.0751,-843.54"/>
<polygon fill="#191970" stroke="#191970" points="493.7194,-880.753 503.6741,-877.1261 493.6304,-873.7535 493.7194,-880.753"/>
</g>
<!-- Node21 -->
<g id="node21" class="node">
<title>Node21</title>
<g id="a_node21"><a xlink:href="class_l_f_s_t_k__file_dialog_class_aa8804989d381def9acb2c99d47d6dc3d.xhtml#aa8804989d381def9acb2c99d47d6dc3d" target="_top" xlink:title=" ">
<polygon fill="none" stroke="#000000" points="332.632,-814.5 332.632,-846.5 453.633,-846.5 453.633,-814.5 332.632,-814.5"/>
<text text-anchor="start" x="340.632" y="-833.5" font-family="Helvetica,sans-Serif" font-size="10.00" fill="#000000">LFSTK_fileDialogClass</text>
<text text-anchor="middle" x="393.1325" y="-821.5" font-family="Helvetica,sans-Serif" font-size="10.00" fill="#000000">::LFSTK_setWorkingDir</text>
</a>
</g>
</g>
<!-- Node20&#45;&gt;Node21 -->
<g id="edge37" class="edge">
<title>Node20&#45;&gt;Node21</title>
<path fill="none" stroke="#191970" d="M493.7058,-857.1123C480.453,-853.6056 466.6788,-849.9608 453.7306,-846.5346"/>
<polygon fill="#191970" stroke="#191970" points="493.1537,-860.5866 503.7164,-859.7612 494.9444,-853.8195 493.1537,-860.5866"/>
</g>
<!-- Node22 -->
<g id="node22" class="node">
<title>Node22</title>
<g id="a_node22"><a xlink:href="class_l_f_s_t_k__file_dialog_class_aacf1d4b61cbb5b40d06f591ea96f9ea7.xhtml#aacf1d4b61cbb5b40d06f591ea96f9ea7" target="_top" xlink:title=" ">
<polygon fill="none" stroke="#000000" points="160.339,-814.5 160.339,-846.5 286.348,-846.5 286.348,-814.5 160.339,-814.5"/>
<text text-anchor="start" x="168.339" y="-833.5" font-family="Helvetica,sans-Serif" font-size="10.00" fill="#000000">LFSTK_fileDialogClass</text>
<text text-anchor="middle" x="223.3435" y="-821.5" font-family="Helvetica,sans-Serif" font-size="10.00" fill="#000000">::LFSTK_showFileDialog</text>
</a>
</g>
</g>
<!-- Node21&#45;&gt;Node22 -->
<g id="edge38" class="edge">
<title>Node21&#45;&gt;Node22</title>
<path fill="none" stroke="#191970" d="M322.0837,-830.5C310.3081,-830.5 298.1673,-830.5 286.6006,-830.5"/>
<polygon fill="#191970" stroke="#191970" points="322.3144,-834.0001 332.3143,-830.5 322.3143,-827.0001 322.3144,-834.0001"/>
</g>
<!-- Node23 -->
<g id="node23" class="node">
<title>Node23</title>
<g id="a_node23"><a xlink:href="class_l_f_s_t_k__file_dialog_class_a789cade9437906181e31a243c85d52e5.xhtml#a789cade9437906181e31a243c85d52e5" target="_top" xlink:title=" ">
<polygon fill="none" stroke="#000000" points="163.953,-763.5 163.953,-795.5 282.734,-795.5 282.734,-763.5 163.953,-763.5"/>
<text text-anchor="start" x="171.953" y="-782.5" font-family="Helvetica,sans-Serif" font-size="10.00" fill="#000000">LFSTK_fileDialogClass</text>
<text text-anchor="middle" x="223.3435" y="-770.5" font-family="Helvetica,sans-Serif" font-size="10.00" fill="#000000">::select</text>
</a>
</g>
</g>
<!-- Node21&#45;&gt;Node23 -->
<g id="edge39" class="edge">
<title>Node21&#45;&gt;Node23</title>
<path fill="none" stroke="#191970" d="M329.3668,-811.3465C312.0218,-806.1366 293.4203,-800.5492 276.7163,-795.5317"/>
<polygon fill="#191970" stroke="#191970" points="328.826,-814.8385 339.4102,-814.3633 330.8398,-808.1344 328.826,-814.8385"/>
</g>
<!-- Node23&#45;&gt;Node3 -->
<g id="edge40" class="edge">
<title>Node23&#45;&gt;Node3</title>
<path fill="none" stroke="#191970" d="M159.442,-798.5308C145.1046,-802.8007 130.0303,-807.29 116.1436,-811.4257"/>
<polygon fill="#191970" stroke="#191970" points="160.6415,-801.8256 169.2265,-795.6168 158.6435,-795.1168 160.6415,-801.8256"/>
</g>
<!-- Node25&#45;&gt;Node8 -->
<g id="edge43" class="edge">
<title>Node25&#45;&gt;Node8</title>
<path fill="none" stroke="#191970" d="M652.0586,-659.2627C606.5516,-657.2143 547.5045,-649.7581 499.917,-627.5 459.5346,-608.6119 423.683,-569.0945 405.5848,-546.767"/>
<polygon fill="#191970" stroke="#191970" points="652.0171,-662.7635 662.1406,-659.6388 652.278,-655.7684 652.0171,-662.7635"/>
</g>
<!-- Node26&#45;&gt;Node23 -->
<g id="edge45" class="edge">
<title>Node26&#45;&gt;Node23</title>
<path fill="none" stroke="#191970" d="M654.1131,-696.9912C572.4637,-685.1569 434.1433,-673.9701 322.348,-709.5 289.2461,-720.0202 257.6861,-746.0586 239.4316,-763.241"/>
<polygon fill="#191970" stroke="#191970" points="653.8644,-700.4928 664.272,-698.5095 654.8992,-693.5697 653.8644,-700.4928"/>
</g>
</g>
</svg>
        <g id="navigator" transform="translate(0 0)" fill="#404254">
                <rect fill="#f2f5e9" fill-opacity="0.5" stroke="#606060" stroke-width=".5" x="0" y="0" width="60" height="60"/>
                <use id="zoomplus" xlink:href="#zoomPlus" x="17" y="9" onmousedown="handleZoom(evt,'in')"/>
                <use id="zoomminus" xlink:href="#zoomMin" x="42" y="9" onmousedown="handleZoom(evt,'out')"/>
                <use id="reset" xlink:href="#resetDef" x="30" y="36" onmousedown="handleReset()"/>
                <g id="arrowUp" xlink:href="#dirArrow" transform="translate(30 24)" onmousedown="handlePan(0,-1)">
                  <use xlink:href="#rim" fill="#404040">
                        <set attributeName="fill" to="#808080" begin="arrowUp.mouseover" end="arrowUp.mouseout"/>
                  </use>
                  <path fill="none" stroke="white" stroke-width="1.5" d="M0,-3.0v7 M-2.5,-0.5L0,-3.0L2.5,-0.5"/>
                </g>
                <g id="arrowRight" xlink:href="#dirArrow" transform="rotate(90) translate(36 -43)" onmousedown="handlePan(1,0)">
                  <use xlink:href="#rim" fill="#404040">
                        <set attributeName="fill" to="#808080" begin="arrowRight.mouseover" end="arrowRight.mouseout"/>
                  </use>
                  <path fill="none" stroke="white" stroke-width="1.5" d="M0,-3.0v7 M-2.5,-0.5L0,-3.0L2.5,-0.5"/>
                </g>
                <g id="arrowDown" xlink:href="#dirArrow" transform="rotate(180) translate(-30 -48)" onmousedown="handlePan(0,1)">
                  <use xlink:href="#rim" fill="#404040">
                        <set attributeName="fill" to="#808080" begin="arrowDown.mouseover" end="arrowDown.mouseout"/>
                  </use>
                  <path fill="none" stroke="white" stroke-width="1.5" d="M0,-3.0v7 M-2.5,-0.5L0,-3.0L2.5,-0.5"/>
                </g>
                <g id="arrowLeft" xlink:href="#dirArrow" transform="rotate(270) translate(-36 17)" onmousedown="handlePan(-1,0)">
                  <use xlink:href="#rim" fill="#404040">
                        <set attributeName="fill" to="#808080" begin="arrowLeft.mouseover" end="arrowLeft.mouseout"/>
                  </use>
                  <path fill="none" stroke="white" stroke-width="1.5" d="M0,-3.0v7 M-2.5,-0.5L0,-3.0L2.5,-0.5"/>
                </g>
        </g>
        <svg viewBox="0 0 15 15" width="100%" height="30px" preserveAspectRatio="xMaxYMin meet">
         <g id="arrow_out" transform="scale(0.3 0.3)">
          <a xlink:href="class_l_f_s_t_k__gadget_class_a6ba306176db18f16e2a034c875f53de0_a6ba306176db18f16e2a034c875f53de0_icgraph_org.svg" target="_base">
           <rect id="button" ry="5" rx="5" y="6" x="6" height="38" width="38"
                fill="#f2f5e9" fill-opacity="0.5" stroke="#606060" stroke-width="1.0"/>
           <path id="arrow"
             d="M 11.500037,31.436501 C 11.940474,20.09759 22.043105,11.32322 32.158766,21.979434 L 37.068811,17.246167 C 37.068811,17.246167 37.088388,32 37.088388,32 L 22.160133,31.978069 C 22.160133,31.978069 26.997745,27.140456 26.997745,27.140456 C 18.528582,18.264221 13.291696,25.230495 11.500037,31.436501 z"
             style="fill:#404040;"/>
          </a>
         </g>
        </svg>
</svg>
