<?xml version="1.0" encoding="UTF-8" standalone="no"?>
<!DOCTYPE svg PUBLIC "-//W3C//DTD SVG 1.1//EN"
 "http://www.w3.org/Graphics/SVG/1.1/DTD/svg11.dtd">
<!-- Generated by graphviz version 2.40.1 (20161225.0304)
 -->
<!-- Title: LFSTK_lineEditClass Pages: 1 -->
<svg width="803pt" height="344pt"
 viewBox="0.00 0.00 803.30 344.00" xmlns="http://www.w3.org/2000/svg" xmlns:xlink="http://www.w3.org/1999/xlink">
<g id="graph0" class="graph" transform="scale(1 1) rotate(0) translate(4 340)">
<title>LFSTK_lineEditClass</title>
<!-- Node1 -->
<g id="node1" class="node">
<title>Node1</title>
<g id="a_node1"><a xlink:title="Line edit class for LFSToolKit.">
<polygon fill="#bfbfbf" stroke="#000000" points="652.0743,-.5 652.0743,-20.5 762.5273,-20.5 762.5273,-.5 652.0743,-.5"/>
<text text-anchor="middle" x="707.3008" y="-7.5" font-family="Helvetica,sans-Serif" font-size="10.00" fill="#000000">LFSTK_lineEditClass</text>
</a>
</g>
</g>
<!-- Node2 -->
<g id="node2" class="node">
<title>Node2</title>
<g id="a_node2"><a xlink:href="class_l_f_s_t_k__gadget_class.xhtml" target="_top" xlink:title="Base class for LFSToolKit gadgets.">
<polygon fill="none" stroke="#000000" points="450.1783,-81.5 450.1783,-101.5 558.4233,-101.5 558.4233,-81.5 450.1783,-81.5"/>
<text text-anchor="middle" x="504.3008" y="-88.5" font-family="Helvetica,sans-Serif" font-size="10.00" fill="#000000">LFSTK_gadgetClass</text>
</a>
</g>
</g>
<!-- Node2&#45;&gt;Node1 -->
<g id="edge1" class="edge">
<title>Node2&#45;&gt;Node1</title>
<path fill="none" stroke="#191970" d="M539.0986,-77.6151C579.7343,-61.4009 645.9671,-34.973 682.0019,-20.5946"/>
<polygon fill="#191970" stroke="#191970" points="537.5912,-74.4482 529.6004,-81.4051 540.1855,-80.9498 537.5912,-74.4482"/>
</g>
<!-- Node7 -->
<g id="node7" class="node">
<title>Node7</title>
<g id="a_node7"><a xlink:href="class_l_f_s_t_k__window_class.xhtml" target="_top" xlink:title="Window class for LFSToolKit.">
<polygon fill="none" stroke="#000000" points="164.7983,-.5 164.7983,-20.5 275.8033,-20.5 275.8033,-.5 164.7983,-.5"/>
<text text-anchor="middle" x="220.3008" y="-7.5" font-family="Helvetica,sans-Serif" font-size="10.00" fill="#000000">LFSTK_windowClass</text>
</a>
</g>
</g>
<!-- Node2&#45;&gt;Node7 -->
<g id="edge10" class="edge">
<title>Node2&#45;&gt;Node7</title>
<path fill="none" stroke="#9a32cd" stroke-dasharray="5,2" d="M451.4074,-78.5285C437.7296,-74.3484 423.2424,-69.1675 410.3858,-63 393.3518,-54.8285 392.7683,-46.1983 375.3008,-39 343.806,-26.0211 306.285,-18.9255 276.0482,-15.0605"/>
<polygon fill="#9a32cd" stroke="#9a32cd" points="450.6082,-81.9415 461.189,-81.3953 452.577,-75.224 450.6082,-81.9415"/>
<text text-anchor="middle" x="453.2583" y="-54" font-family="Helvetica,sans-Serif" font-size="10.00" fill="#000000"> dropGadget</text>
<text text-anchor="middle" x="453.2583" y="-42" font-family="Helvetica,sans-Serif" font-size="10.00" fill="#000000">popupFromGadget</text>
</g>
<!-- Node12 -->
<g id="node12" class="node">
<title>Node12</title>
<g id="a_node12"><a xlink:href="structmapped_listener.xhtml" target="_top" xlink:title=" ">
<polygon fill="none" stroke="#000000" points="488.4573,-.5 488.4573,-20.5 576.1443,-20.5 576.1443,-.5 488.4573,-.5"/>
<text text-anchor="middle" x="532.3008" y="-7.5" font-family="Helvetica,sans-Serif" font-size="10.00" fill="#000000">mappedListener</text>
</a>
</g>
</g>
<!-- Node2&#45;&gt;Node12 -->
<g id="edge16" class="edge">
<title>Node2&#45;&gt;Node12</title>
<path fill="none" stroke="#9a32cd" stroke-dasharray="5,2" d="M498.7321,-71.3887C496.9767,-61.2736 496.4975,-49.0593 500.9478,-39 504.2214,-31.6002 510.4705,-25.2976 516.5336,-20.5156"/>
<polygon fill="#9a32cd" stroke="#9a32cd" points="495.3604,-72.3484 500.965,-81.3394 502.1906,-70.8157 495.3604,-72.3484"/>
<text text-anchor="middle" x="517.9773" y="-48" font-family="Helvetica,sans-Serif" font-size="10.00" fill="#000000"> gadget</text>
</g>
<!-- Node3 -->
<g id="node3" class="node">
<title>Node3</title>
<g id="a_node3"><a xlink:href="structgadget_struct.xhtml" target="_top" xlink:title=" ">
<polygon fill="none" stroke="#000000" points="471.9563,-158 471.9563,-178 544.6453,-178 544.6453,-158 471.9563,-158"/>
<text text-anchor="middle" x="508.3008" y="-165" font-family="Helvetica,sans-Serif" font-size="10.00" fill="#000000">gadgetStruct</text>
</a>
</g>
</g>
<!-- Node3&#45;&gt;Node2 -->
<g id="edge2" class="edge">
<title>Node3&#45;&gt;Node2</title>
<path fill="none" stroke="#9a32cd" stroke-dasharray="5,2" d="M506.4645,-147.6296C506.0574,-142.5295 505.6666,-137.0677 505.3938,-132 504.8418,-121.7455 504.5639,-110.0146 504.427,-101.8268"/>
<polygon fill="#9a32cd" stroke="#9a32cd" points="503.0051,-148.2566 507.3417,-157.9233 509.9798,-147.6622 503.0051,-148.2566"/>
<text text-anchor="middle" x="538.2543" y="-123" font-family="Helvetica,sans-Serif" font-size="10.00" fill="#000000"> gadgetDetails</text>
</g>
<!-- Node4 -->
<g id="node4" class="node">
<title>Node4</title>
<g id="a_node4"><a xlink:href="structgeometry_struct.xhtml" target="_top" xlink:title=" ">
<polygon fill="none" stroke="#000000" points="351.4068,-246.5 351.4068,-266.5 435.1948,-266.5 435.1948,-246.5 351.4068,-246.5"/>
<text text-anchor="middle" x="393.3008" y="-253.5" font-family="Helvetica,sans-Serif" font-size="10.00" fill="#000000">geometryStruct</text>
</a>
</g>
</g>
<!-- Node4&#45;&gt;Node2 -->
<g id="edge6" class="edge">
<title>Node4&#45;&gt;Node2</title>
<path fill="none" stroke="#9a32cd" stroke-dasharray="5,2" d="M389.8671,-236.2318C387.111,-213.4053 386.058,-176.0978 402.7218,-150 418.1641,-125.8151 447.4107,-110.5248 470.5708,-101.6679"/>
<polygon fill="#9a32cd" stroke="#9a32cd" points="386.4467,-237.0366 391.3326,-246.4375 393.3756,-236.0415 386.4467,-237.0366"/>
<text text-anchor="middle" x="433.5903" y="-165" font-family="Helvetica,sans-Serif" font-size="10.00" fill="#000000"> gadgetGeom</text>
</g>
<!-- Node4&#45;&gt;Node3 -->
<g id="edge3" class="edge">
<title>Node4&#45;&gt;Node3</title>
<path fill="none" stroke="#9a32cd" stroke-dasharray="5,2" d="M414.5142,-240.1749C438.1435,-221.9906 475.5982,-193.1668 495.2627,-178.0337"/>
<polygon fill="#9a32cd" stroke="#9a32cd" points="412.2831,-237.4754 406.4927,-246.3479 416.5523,-243.0229 412.2831,-237.4754"/>
<text text-anchor="middle" x="495.1943" y="-219" font-family="Helvetica,sans-Serif" font-size="10.00" fill="#000000"> indicatorGeom</text>
<text text-anchor="middle" x="495.1943" y="-207" font-family="Helvetica,sans-Serif" font-size="10.00" fill="#000000">gadgetGeom</text>
</g>
<!-- Node4&#45;&gt;Node7 -->
<g id="edge8" class="edge">
<title>Node4&#45;&gt;Node7</title>
<path fill="none" stroke="#9a32cd" stroke-dasharray="5,2" d="M341.1574,-251.0283C294.3844,-245.6786 229.5021,-237.0391 205.3008,-228 107.2351,-191.373 56.7795,-193.7078 6.3008,-102 -28.6248,-38.5486 90.2776,-19.0939 164.7118,-13.1319"/>
<polygon fill="#9a32cd" stroke="#9a32cd" points="340.8089,-254.5111 351.1376,-252.1516 341.5919,-247.555 340.8089,-254.5111"/>
<text text-anchor="middle" x="56.9703" y="-123" font-family="Helvetica,sans-Serif" font-size="10.00" fill="#000000"> windowGeom</text>
</g>
<!-- Node5 -->
<g id="node5" class="node">
<title>Node5</title>
<g id="a_node5"><a xlink:href="structcolour_struct.xhtml" target="_top" xlink:title=" ">
<polygon fill="none" stroke="#000000" points="585.6308,-246.5 585.6308,-266.5 654.9708,-266.5 654.9708,-246.5 585.6308,-246.5"/>
<text text-anchor="middle" x="620.3008" y="-253.5" font-family="Helvetica,sans-Serif" font-size="10.00" fill="#000000">colourStruct</text>
</a>
</g>
</g>
<!-- Node5&#45;&gt;Node1 -->
<g id="edge19" class="edge">
<title>Node5&#45;&gt;Node1</title>
<path fill="none" stroke="#9a32cd" stroke-dasharray="5,2" d="M657.3449,-242.0114C680.8825,-230.6332 709.4417,-212.2807 723.3008,-186 752.9854,-129.7097 723.87,-49.0337 711.9081,-20.7592"/>
<polygon fill="#9a32cd" stroke="#9a32cd" points="655.5834,-238.9688 647.9536,-246.3198 658.5022,-245.3312 655.5834,-238.9688"/>
<text text-anchor="middle" x="765.3003" y="-123" font-family="Helvetica,sans-Serif" font-size="10.00" fill="#000000"> cursorColour</text>
</g>
<!-- Node5&#45;&gt;Node2 -->
<g id="edge18" class="edge">
<title>Node5&#45;&gt;Node2</title>
<path fill="none" stroke="#9a32cd" stroke-dasharray="5,2" d="M628.1317,-236.7242C638.531,-206.7891 652.2258,-150.2621 621.3008,-120 612.0739,-110.9709 584.52,-104.0206 558.4691,-99.2448"/>
<polygon fill="#9a32cd" stroke="#9a32cd" points="624.7203,-235.8586 624.5383,-246.4519 631.2867,-238.2842 624.7203,-235.8586"/>
<text text-anchor="middle" x="680.1938" y="-177" font-family="Helvetica,sans-Serif" font-size="10.00" fill="#000000"> labelBGColour</text>
<text text-anchor="middle" x="680.1938" y="-165" font-family="Helvetica,sans-Serif" font-size="10.00" fill="#000000">colourNames</text>
<text text-anchor="middle" x="680.1938" y="-153" font-family="Helvetica,sans-Serif" font-size="10.00" fill="#000000">fontColourNames</text>
</g>
<!-- Node5&#45;&gt;Node3 -->
<g id="edge4" class="edge">
<title>Node5&#45;&gt;Node3</title>
<path fill="none" stroke="#9a32cd" stroke-dasharray="5,2" d="M599.3372,-239.935C576.3082,-221.738 540.0662,-193.1004 520.9987,-178.0337"/>
<polygon fill="#9a32cd" stroke="#9a32cd" points="597.4368,-242.8942 607.4529,-246.3479 601.7767,-237.4019 597.4368,-242.8942"/>
<text text-anchor="middle" x="599.3028" y="-213" font-family="Helvetica,sans-Serif" font-size="10.00" fill="#000000"> colour</text>
</g>
<!-- Node5&#45;&gt;Node7 -->
<g id="edge12" class="edge">
<title>Node5&#45;&gt;Node7</title>
<path fill="none" stroke="#9a32cd" stroke-dasharray="5,2" d="M575.2718,-252.4711C535.8281,-248.3232 477.1786,-240.6503 427.3008,-228 328.9137,-203.0466 270.5597,-220.0583 220.0778,-132 199.3057,-95.7661 210.7988,-42.8996 217.0729,-20.8043"/>
<polygon fill="#9a32cd" stroke="#9a32cd" points="575.0627,-255.9679 585.366,-253.4997 575.7723,-249.0039 575.0627,-255.9679"/>
<text text-anchor="middle" x="268.9123" y="-123" font-family="Helvetica,sans-Serif" font-size="10.00" fill="#000000"> windowColourNames</text>
</g>
<!-- Node6 -->
<g id="node6" class="node">
<title>Node6</title>
<g id="a_node6"><a xlink:href="structcairo_color.xhtml" target="_top" xlink:title=" ">
<polygon fill="none" stroke="#000000" points="589.5253,-315.5 589.5253,-335.5 651.0763,-335.5 651.0763,-315.5 589.5253,-315.5"/>
<text text-anchor="middle" x="620.3008" y="-322.5" font-family="Helvetica,sans-Serif" font-size="10.00" fill="#000000">cairoColor</text>
</a>
</g>
</g>
<!-- Node6&#45;&gt;Node5 -->
<g id="edge5" class="edge">
<title>Node6&#45;&gt;Node5</title>
<path fill="none" stroke="#9a32cd" stroke-dasharray="5,2" d="M620.3008,-305.2177C620.3008,-292.5684 620.3008,-276.8285 620.3008,-266.723"/>
<polygon fill="#9a32cd" stroke="#9a32cd" points="616.8009,-305.3188 620.3008,-315.3188 623.8009,-305.3188 616.8009,-305.3188"/>
<text text-anchor="middle" x="650.5803" y="-288" font-family="Helvetica,sans-Serif" font-size="10.00" fill="#000000"> RGBAColour</text>
</g>
<!-- Node7&#45;&gt;Node2 -->
<g id="edge7" class="edge">
<title>Node7&#45;&gt;Node2</title>
<path fill="none" stroke="#9a32cd" stroke-dasharray="5,2" d="M269.4365,-24.0069C280.0496,-27.9993 290.8977,-32.9608 300.3008,-39 312.8169,-47.0386 310.421,-56.157 323.6288,-63 345.1274,-74.1386 405.1261,-82.1201 450.1266,-86.7533"/>
<polygon fill="#9a32cd" stroke="#9a32cd" points="270.3989,-20.635 259.8041,-20.6096 268.0706,-27.2365 270.3989,-20.635"/>
<text text-anchor="middle" x="350.1368" y="-54" font-family="Helvetica,sans-Serif" font-size="10.00" fill="#000000"> contextWC</text>
<text text-anchor="middle" x="350.1368" y="-42" font-family="Helvetica,sans-Serif" font-size="10.00" fill="#000000">wc</text>
</g>
<!-- Node8 -->
<g id="node8" class="node">
<title>Node8</title>
<g id="a_node8"><a xlink:href="structmonitor_struct.xhtml" target="_top" xlink:title=" ">
<polygon fill="none" stroke="#000000" points="15.5768,-81.5 15.5768,-101.5 91.0248,-101.5 91.0248,-81.5 15.5768,-81.5"/>
<text text-anchor="middle" x="53.3008" y="-88.5" font-family="Helvetica,sans-Serif" font-size="10.00" fill="#000000">monitorStruct</text>
</a>
</g>
</g>
<!-- Node8&#45;&gt;Node7 -->
<g id="edge9" class="edge">
<title>Node8&#45;&gt;Node7</title>
<path fill="none" stroke="#9a32cd" stroke-dasharray="5,2" d="M64.3119,-72.4586C71.8661,-61.0674 82.9103,-47.247 96.1888,-39 107.8327,-31.7682 137.3157,-24.8556 164.6242,-19.6496"/>
<polygon fill="#9a32cd" stroke="#9a32cd" points="61.133,-70.942 58.8147,-81.2801 67.0739,-74.6441 61.133,-70.942"/>
<text text-anchor="middle" x="116.8568" y="-48" font-family="Helvetica,sans-Serif" font-size="10.00" fill="#000000"> monitors</text>
</g>
<!-- Node9 -->
<g id="node9" class="node">
<title>Node9</title>
<g id="a_node9"><a xlink:href="structdrop_data_struct.xhtml" target="_top" xlink:title=" ">
<polygon fill="none" stroke="#000000" points="108.6823,-81.5 108.6823,-101.5 191.9193,-101.5 191.9193,-81.5 108.6823,-81.5"/>
<text text-anchor="middle" x="150.3008" y="-88.5" font-family="Helvetica,sans-Serif" font-size="10.00" fill="#000000">dropDataStruct</text>
</a>
</g>
</g>
<!-- Node9&#45;&gt;Node7 -->
<g id="edge11" class="edge">
<title>Node9&#45;&gt;Node7</title>
<path fill="none" stroke="#9a32cd" stroke-dasharray="5,2" d="M142.8053,-71.6006C140.1701,-61.0562 139.264,-48.3826 145.7228,-39 150.3598,-32.2639 166.5672,-25.6824 182.6932,-20.5442"/>
<polygon fill="#9a32cd" stroke="#9a32cd" points="139.4909,-72.7291 145.808,-81.2346 146.1738,-70.6461 139.4909,-72.7291"/>
<text text-anchor="middle" x="176.5898" y="-48" font-family="Helvetica,sans-Serif" font-size="10.00" fill="#000000"> droppedData</text>
</g>
<!-- Node10 -->
<g id="node10" class="node">
<title>Node10</title>
<g id="a_node10"><a xlink:href="class_l_f_s_t_k__lib.xhtml" target="_top" xlink:title="Library of useful routines for LFSToolKit.">
<polygon fill="none" stroke="#000000" points="277.9653,-81.5 277.9653,-101.5 340.6363,-101.5 340.6363,-81.5 277.9653,-81.5"/>
<text text-anchor="middle" x="309.3008" y="-88.5" font-family="Helvetica,sans-Serif" font-size="10.00" fill="#000000">LFSTK_lib</text>
</a>
</g>
</g>
<!-- Node10&#45;&gt;Node7 -->
<g id="edge13" class="edge">
<title>Node10&#45;&gt;Node7</title>
<path fill="none" stroke="#9a32cd" stroke-dasharray="5,2" d="M276.8369,-76.5816C270.065,-72.6859 263.2486,-68.1209 257.5108,-63 243.6747,-50.6516 232.1365,-32.2428 225.7339,-20.8253"/>
<polygon fill="#9a32cd" stroke="#9a32cd" points="275.4721,-79.8214 285.9381,-81.4685 278.7836,-73.6542 275.4721,-79.8214"/>
<text text-anchor="middle" x="279.6958" y="-48" font-family="Helvetica,sans-Serif" font-size="10.00" fill="#000000"> globalLib</text>
</g>
<!-- Node11 -->
<g id="node11" class="node">
<title>Node11</title>
<g id="a_node11"><a xlink:href="structargs.xhtml" target="_top" xlink:title=" ">
<polygon fill="none" stroke="#000000" points="321.5773,-158 321.5773,-178 357.0243,-178 357.0243,-158 321.5773,-158"/>
<text text-anchor="middle" x="339.3008" y="-165" font-family="Helvetica,sans-Serif" font-size="10.00" fill="#000000">args</text>
</a>
</g>
</g>
<!-- Node11&#45;&gt;Node10 -->
<g id="edge14" class="edge">
<title>Node11&#45;&gt;Node10</title>
<path fill="none" stroke="#9a32cd" stroke-dasharray="5,2" d="M331.7144,-148.6549C325.8661,-133.7416 318.0091,-113.7062 313.3195,-101.7477"/>
<polygon fill="#9a32cd" stroke="#9a32cd" points="328.4694,-149.9671 335.3788,-157.999 334.9863,-147.4114 328.4694,-149.9671"/>
<text text-anchor="middle" x="363.1928" y="-123" font-family="Helvetica,sans-Serif" font-size="10.00" fill="#000000"> lfsToolKitGlobals</text>
</g>
<!-- Node12&#45;&gt;Node2 -->
<g id="edge15" class="edge">
<title>Node12&#45;&gt;Node2</title>
<path fill="none" stroke="#9a32cd" stroke-dasharray="5,2" d="M539.4188,-30.3283C541.8978,-40.516 543.0224,-52.881 538.3008,-63 534.7833,-70.5382 528.1825,-76.7884 521.7258,-81.4957"/>
<polygon fill="#9a32cd" stroke="#9a32cd" points="542.7532,-29.2623 536.5334,-20.6853 536.0469,-31.2689 542.7532,-29.2623"/>
<text text-anchor="middle" x="548.9643" y="-48" font-family="Helvetica,sans-Serif" font-size="10.00" fill="#000000"> ml</text>
</g>
<!-- Node13 -->
<g id="node13" class="node">
<title>Node13</title>
<g id="a_node13"><a xlink:href="structbutton_c_b.xhtml" target="_top" xlink:title=" ">
<polygon fill="none" stroke="#000000" points="562.4598,-158 562.4598,-178 620.1418,-178 620.1418,-158 562.4598,-158"/>
<text text-anchor="middle" x="591.3008" y="-165" font-family="Helvetica,sans-Serif" font-size="10.00" fill="#000000">buttonCB</text>
</a>
</g>
</g>
<!-- Node13&#45;&gt;Node2 -->
<g id="edge17" class="edge">
<title>Node13&#45;&gt;Node2</title>
<path fill="none" stroke="#9a32cd" stroke-dasharray="5,2" d="M585.9485,-148.3883C582.5062,-138.8232 577.1718,-127.7419 569.3008,-120 561.0432,-111.878 550.0861,-105.878 539.5252,-101.5368"/>
<polygon fill="#9a32cd" stroke="#9a32cd" points="582.6179,-149.4644 588.9718,-157.9426 589.2918,-147.3526 582.6179,-149.4644"/>
<text text-anchor="middle" x="597.7478" y="-123" font-family="Helvetica,sans-Serif" font-size="10.00" fill="#000000"> callback</text>
</g>
</g>
</svg>
