<?xml version="1.0" encoding="UTF-8" standalone="no"?>
<!DOCTYPE svg PUBLIC "-//W3C//DTD SVG 1.1//EN"
 "http://www.w3.org/Graphics/SVG/1.1/DTD/svg11.dtd">
<!-- Generated by graphviz version 2.40.1 (20161225.0304)
 -->
<!-- Title: LFSTK_listGadgetClass::LFSTK_getSelectedLabel Pages: 1 -->
<svg width="819pt" height="131pt"
 viewBox="0.00 0.00 819.31 131.00" xmlns="http://www.w3.org/2000/svg" xmlns:xlink="http://www.w3.org/1999/xlink">
<g id="graph0" class="graph" transform="scale(1 1) rotate(0) translate(4 127)">
<title>LFSTK_listGadgetClass::LFSTK_getSelectedLabel</title>
<!-- Node1 -->
<g id="node1" class="node">
<title>Node1</title>
<g id="a_node1"><a xlink:title=" ">
<polygon fill="#bfbfbf" stroke="#000000" points="675.819,-45.5 675.819,-77.5 811.306,-77.5 811.306,-45.5 675.819,-45.5"/>
<text text-anchor="start" x="683.819" y="-64.5" font-family="Helvetica,sans-Serif" font-size="10.00" fill="#000000">LFSTK_listGadgetClass</text>
<text text-anchor="middle" x="743.5625" y="-52.5" font-family="Helvetica,sans-Serif" font-size="10.00" fill="#000000">::LFSTK_getSelectedLabel</text>
</a>
</g>
</g>
<!-- Node2 -->
<g id="node2" class="node">
<title>Node2</title>
<g id="a_node2"><a xlink:href="class_l_f_s_t_k__file_dialog_class_aa18feaa2d2fd4a3aed800a8fb5f39102.xhtml#aa18feaa2d2fd4a3aed800a8fb5f39102" target="_top" xlink:title=" ">
<polygon fill="none" stroke="#000000" points="477.129,-90.5 477.129,-122.5 639.819,-122.5 639.819,-90.5 477.129,-90.5"/>
<text text-anchor="start" x="485.129" y="-109.5" font-family="Helvetica,sans-Serif" font-size="10.00" fill="#000000">LFSTK_fileDialogClass</text>
<text text-anchor="middle" x="558.474" y="-97.5" font-family="Helvetica,sans-Serif" font-size="10.00" fill="#000000">::LFSTK_getCurrentFileSelection</text>
</a>
</g>
</g>
<!-- Node1&#45;&gt;Node2 -->
<g id="edge1" class="edge">
<title>Node1&#45;&gt;Node2</title>
<path fill="none" stroke="#191970" d="M667.7076,-79.9424C653.3736,-83.4273 638.4872,-87.0466 624.4858,-90.4507"/>
<polygon fill="#191970" stroke="#191970" points="668.6351,-83.3189 677.5252,-77.5555 666.9814,-76.517 668.6351,-83.3189"/>
</g>
<!-- Node4 -->
<g id="node4" class="node">
<title>Node4</title>
<g id="a_node4"><a xlink:href="class_l_f_s_t_k__file_dialog_class_a789cade9437906181e31a243c85d52e5.xhtml#a789cade9437906181e31a243c85d52e5" target="_top" xlink:title=" ">
<polygon fill="none" stroke="#000000" points="160.339,-67.5 160.339,-99.5 279.12,-99.5 279.12,-67.5 160.339,-67.5"/>
<text text-anchor="start" x="168.339" y="-86.5" font-family="Helvetica,sans-Serif" font-size="10.00" fill="#000000">LFSTK_fileDialogClass</text>
<text text-anchor="middle" x="219.7295" y="-74.5" font-family="Helvetica,sans-Serif" font-size="10.00" fill="#000000">::select</text>
</a>
</g>
</g>
<!-- Node1&#45;&gt;Node4 -->
<g id="edge7" class="edge">
<title>Node1&#45;&gt;Node4</title>
<path fill="none" stroke="#191970" d="M665.3558,-64.7845C559.9075,-69.2132 374.4336,-77.0027 279.4561,-80.9916"/>
<polygon fill="#191970" stroke="#191970" points="665.7732,-68.2702 675.6175,-64.3536 665.4794,-61.2763 665.7732,-68.2702"/>
</g>
<!-- Node6 -->
<g id="node6" class="node">
<title>Node6</title>
<g id="a_node6"><a xlink:href="class_l_f_s_t_k__file_dialog_class_af77972b8a46616ba4c7bec555b2b0a14.xhtml#af77972b8a46616ba4c7bec555b2b0a14" target="_top" xlink:title=" ">
<polygon fill="none" stroke="#000000" points="495.4695,-.5 495.4695,-32.5 621.4785,-32.5 621.4785,-.5 495.4695,-.5"/>
<text text-anchor="start" x="503.4695" y="-19.5" font-family="Helvetica,sans-Serif" font-size="10.00" fill="#000000">LFSTK_fileDialogClass</text>
<text text-anchor="middle" x="558.474" y="-7.5" font-family="Helvetica,sans-Serif" font-size="10.00" fill="#000000">::LFSTK_showFileDialog</text>
</a>
</g>
</g>
<!-- Node1&#45;&gt;Node6 -->
<g id="edge5" class="edge">
<title>Node1&#45;&gt;Node6</title>
<path fill="none" stroke="#191970" d="M667.6055,-43.0328C652.3463,-39.3229 636.4651,-35.4617 621.6952,-31.8708"/>
<polygon fill="#191970" stroke="#191970" points="666.9814,-46.483 677.5252,-45.4445 668.6351,-39.6811 666.9814,-46.483"/>
</g>
<!-- Node3 -->
<g id="node3" class="node">
<title>Node3</title>
<g id="a_node3"><a xlink:href="class_l_f_s_t_k__file_dialog_class_ac7703591352d5105def9c5293fbeed62.xhtml#ac7703591352d5105def9c5293fbeed62" target="_top" xlink:title=" ">
<polygon fill="none" stroke="#000000" points="318.734,-90.5 318.734,-122.5 437.515,-122.5 437.515,-90.5 318.734,-90.5"/>
<text text-anchor="start" x="326.734" y="-109.5" font-family="Helvetica,sans-Serif" font-size="10.00" fill="#000000">LFSTK_fileDialogClass</text>
<text text-anchor="middle" x="378.1245" y="-97.5" font-family="Helvetica,sans-Serif" font-size="10.00" fill="#000000">::setPreviewData</text>
</a>
</g>
</g>
<!-- Node2&#45;&gt;Node3 -->
<g id="edge2" class="edge">
<title>Node2&#45;&gt;Node3</title>
<path fill="none" stroke="#191970" d="M466.7224,-106.5C456.8447,-106.5 446.9923,-106.5 437.6394,-106.5"/>
<polygon fill="#191970" stroke="#191970" points="467.0053,-110.0001 477.0052,-106.5 467.0052,-103.0001 467.0053,-110.0001"/>
</g>
<!-- Node3&#45;&gt;Node4 -->
<g id="edge3" class="edge">
<title>Node3&#45;&gt;Node4</title>
<path fill="none" stroke="#191970" d="M308.5893,-96.403C298.7994,-94.9815 288.8095,-93.5309 279.2302,-92.1399"/>
<polygon fill="#191970" stroke="#191970" points="308.2942,-99.8968 318.6934,-97.8702 309.3002,-92.9695 308.2942,-99.8968"/>
</g>
<!-- Node5 -->
<g id="node5" class="node">
<title>Node5</title>
<g id="a_node5"><a xlink:href="class_l_f_s_t_k__file_dialog_class_a553ce8e885b0d60cbf515b7b3d1e8b65.xhtml#a553ce8e885b0d60cbf515b7b3d1e8b65" target="_top" xlink:title=" ">
<polygon fill="none" stroke="#000000" points="0,-67.5 0,-99.5 124.339,-99.5 124.339,-67.5 0,-67.5"/>
<text text-anchor="start" x="8" y="-86.5" font-family="Helvetica,sans-Serif" font-size="10.00" fill="#000000">LFSTK_fileDialogClass</text>
<text text-anchor="middle" x="62.1695" y="-74.5" font-family="Helvetica,sans-Serif" font-size="10.00" fill="#000000">::LFSTK_fileDialogClass</text>
</a>
</g>
</g>
<!-- Node4&#45;&gt;Node5 -->
<g id="edge4" class="edge">
<title>Node4&#45;&gt;Node5</title>
<path fill="none" stroke="#191970" d="M149.9128,-83.5C141.4306,-83.5 132.8078,-83.5 124.4449,-83.5"/>
<polygon fill="#191970" stroke="#191970" points="150.1629,-87.0001 160.1628,-83.5 150.1628,-80.0001 150.1629,-87.0001"/>
</g>
<!-- Node7 -->
<g id="node7" class="node">
<title>Node7</title>
<g id="a_node7"><a xlink:href="class_l_f_s_t_k__file_dialog_class_aacf1d4b61cbb5b40d06f591ea96f9ea7.xhtml#aacf1d4b61cbb5b40d06f591ea96f9ea7" target="_top" xlink:title=" ">
<polygon fill="none" stroke="#000000" points="315.12,-.5 315.12,-32.5 441.129,-32.5 441.129,-.5 315.12,-.5"/>
<text text-anchor="start" x="323.12" y="-19.5" font-family="Helvetica,sans-Serif" font-size="10.00" fill="#000000">LFSTK_fileDialogClass</text>
<text text-anchor="middle" x="378.1245" y="-7.5" font-family="Helvetica,sans-Serif" font-size="10.00" fill="#000000">::LFSTK_showFileDialog</text>
</a>
</g>
</g>
<!-- Node6&#45;&gt;Node7 -->
<g id="edge6" class="edge">
<title>Node6&#45;&gt;Node7</title>
<path fill="none" stroke="#191970" d="M485.3721,-16.5C470.7195,-16.5 455.4427,-16.5 441.1664,-16.5"/>
<polygon fill="#191970" stroke="#191970" points="485.3965,-20.0001 495.3965,-16.5 485.3965,-13.0001 485.3965,-20.0001"/>
</g>
</g>
</svg>
