<?xml version="1.0" encoding="UTF-8" standalone="no"?>
<!DOCTYPE svg PUBLIC "-//W3C//DTD SVG 1.1//EN"
 "http://www.w3.org/Graphics/SVG/1.1/DTD/svg11.dtd">
<!-- Generated by graphviz version 2.40.1 (20161225.0304)
 -->
<!-- Title: LFSTK_scrollBarClass::LFSTK_scrollByLine Pages: 1 -->
<svg width="1354pt" height="252pt"
 viewBox="0.00 0.00 1354.01 252.00" xmlns="http://www.w3.org/2000/svg" xmlns:xlink="http://www.w3.org/1999/xlink">
<g id="graph0" class="graph" transform="scale(1 1) rotate(0) translate(4 248)">
<title>LFSTK_scrollBarClass::LFSTK_scrollByLine</title>
<!-- Node1 -->
<g id="node1" class="node">
<title>Node1</title>
<g id="a_node1"><a xlink:title=" ">
<polygon fill="#bfbfbf" stroke="#000000" points="0,-157.5 0,-189.5 116.554,-189.5 116.554,-157.5 0,-157.5"/>
<text text-anchor="start" x="8" y="-176.5" font-family="Helvetica,sans-Serif" font-size="10.00" fill="#000000">LFSTK_scrollBarClass</text>
<text text-anchor="middle" x="58.277" y="-164.5" font-family="Helvetica,sans-Serif" font-size="10.00" fill="#000000">::LFSTK_scrollByLine</text>
</a>
</g>
</g>
<!-- Node2 -->
<g id="node2" class="node">
<title>Node2</title>
<g id="a_node2"><a xlink:href="class_l_f_s_t_k__scroll_bar_class_aa1ce7f61248cfa6eeef3e8573e327d8f.xhtml#aa1ce7f61248cfa6eeef3e8573e327d8f" target="_top" xlink:title=" ">
<polygon fill="none" stroke="#000000" points="152.554,-157.5 152.554,-189.5 269.108,-189.5 269.108,-157.5 152.554,-157.5"/>
<text text-anchor="start" x="160.554" y="-176.5" font-family="Helvetica,sans-Serif" font-size="10.00" fill="#000000">LFSTK_scrollBarClass</text>
<text text-anchor="middle" x="210.831" y="-164.5" font-family="Helvetica,sans-Serif" font-size="10.00" fill="#000000">::lineUpDown</text>
</a>
</g>
</g>
<!-- Node1&#45;&gt;Node2 -->
<g id="edge1" class="edge">
<title>Node1&#45;&gt;Node2</title>
<path fill="none" stroke="#191970" d="M116.8221,-173.5C125.1255,-173.5 133.7257,-173.5 142.1988,-173.5"/>
<polygon fill="#191970" stroke="#191970" points="142.4426,-177.0001 152.4426,-173.5 142.4426,-170.0001 142.4426,-177.0001"/>
</g>
<!-- Node3 -->
<g id="node3" class="node">
<title>Node3</title>
<g id="a_node3"><a xlink:href="class_l_f_s_t_k__scroll_bar_class_a3e47c5f9944ddb2a861b80853f85ce12.xhtml#a3e47c5f9944ddb2a861b80853f85ce12" target="_top" xlink:title=" ">
<polygon fill="none" stroke="#000000" points="305.108,-157.5 305.108,-189.5 421.662,-189.5 421.662,-157.5 305.108,-157.5"/>
<text text-anchor="start" x="313.108" y="-176.5" font-family="Helvetica,sans-Serif" font-size="10.00" fill="#000000">LFSTK_scrollBarClass</text>
<text text-anchor="middle" x="363.385" y="-164.5" font-family="Helvetica,sans-Serif" font-size="10.00" fill="#000000">::setState</text>
</a>
</g>
</g>
<!-- Node2&#45;&gt;Node3 -->
<g id="edge2" class="edge">
<title>Node2&#45;&gt;Node3</title>
<path fill="none" stroke="#191970" d="M269.3761,-173.5C277.6795,-173.5 286.2797,-173.5 294.7528,-173.5"/>
<polygon fill="#191970" stroke="#191970" points="294.9966,-177.0001 304.9966,-173.5 294.9966,-170.0001 294.9966,-177.0001"/>
</g>
<!-- Node4 -->
<g id="node4" class="node">
<title>Node4</title>
<g id="a_node4"><a xlink:href="class_l_f_s_t_k__scroll_bar_class_a6a4b0d2c9217779bb3bc0b4c936130ce.xhtml#a6a4b0d2c9217779bb3bc0b4c936130ce" target="_top" xlink:title=" ">
<polygon fill="none" stroke="#000000" points="607.4695,-211.5 607.4695,-243.5 724.0235,-243.5 724.0235,-211.5 607.4695,-211.5"/>
<text text-anchor="start" x="615.4695" y="-230.5" font-family="Helvetica,sans-Serif" font-size="10.00" fill="#000000">LFSTK_scrollBarClass</text>
<text text-anchor="middle" x="665.7465" y="-218.5" font-family="Helvetica,sans-Serif" font-size="10.00" fill="#000000">::LFSTK_clearWindow</text>
</a>
</g>
</g>
<!-- Node3&#45;&gt;Node4 -->
<g id="edge3" class="edge">
<title>Node3&#45;&gt;Node4</title>
<path fill="none" stroke="#191970" d="M421.6767,-182.0863C433.5158,-185.0576 445.9341,-188.1052 457.662,-190.5 503.7559,-199.9121 556.2616,-206.9507 596.9986,-212.77"/>
<polygon fill="#191970" stroke="#191970" points="596.6939,-216.2621 607.0908,-214.2239 597.692,-209.3336 596.6939,-216.2621"/>
</g>
<!-- Node14 -->
<g id="node14" class="node">
<title>Node14</title>
<g id="a_node14"><a xlink:href="class_l_f_s_t_k__gadget_class_a71d34233c5db545e92d37c0e3139459b.xhtml#a71d34233c5db545e92d37c0e3139459b" target="_top" xlink:title=" ">
<polygon fill="none" stroke="#000000" points="457.662,-157.5 457.662,-189.5 571.465,-189.5 571.465,-157.5 457.662,-157.5"/>
<text text-anchor="start" x="465.662" y="-176.5" font-family="Helvetica,sans-Serif" font-size="10.00" fill="#000000">LFSTK_gadgetClass::</text>
<text text-anchor="middle" x="514.5635" y="-164.5" font-family="Helvetica,sans-Serif" font-size="10.00" fill="#000000">LFSTK_getGeom</text>
</a>
</g>
</g>
<!-- Node3&#45;&gt;Node14 -->
<g id="edge16" class="edge">
<title>Node3&#45;&gt;Node14</title>
<path fill="none" stroke="#191970" d="M421.8346,-173.5C430.1045,-173.5 438.6634,-173.5 447.0864,-173.5"/>
<polygon fill="#191970" stroke="#191970" points="447.2646,-177.0001 457.2646,-173.5 447.2645,-170.0001 447.2646,-177.0001"/>
</g>
<!-- Node15 -->
<g id="node15" class="node">
<title>Node15</title>
<g id="a_node15"><a xlink:href="class_l_f_s_t_k__gadget_class_aeeb028f96b71fa161ec195880106a936.xhtml#aeeb028f96b71fa161ec195880106a936" target="_top" xlink:title=" ">
<polygon fill="none" stroke="#000000" points="457.662,-106.5 457.662,-138.5 571.465,-138.5 571.465,-106.5 457.662,-106.5"/>
<text text-anchor="start" x="465.662" y="-125.5" font-family="Helvetica,sans-Serif" font-size="10.00" fill="#000000">LFSTK_gadgetClass::</text>
<text text-anchor="middle" x="514.5635" y="-113.5" font-family="Helvetica,sans-Serif" font-size="10.00" fill="#000000">LFSTK_getLimits</text>
</a>
</g>
</g>
<!-- Node3&#45;&gt;Node15 -->
<g id="edge17" class="edge">
<title>Node3&#45;&gt;Node15</title>
<path fill="none" stroke="#191970" d="M411.2188,-157.3633C425.8368,-152.4319 442.063,-146.958 457.2435,-141.8369"/>
<polygon fill="#191970" stroke="#191970" points="458.6843,-145.0447 467.0409,-138.5317 456.4467,-138.4119 458.6843,-145.0447"/>
</g>
<!-- Node16 -->
<g id="node16" class="node">
<title>Node16</title>
<g id="a_node16"><a xlink:href="class_l_f_s_t_k__gadget_class_a7e3ef253af08c0796f73de1366cf2d08.xhtml#a7e3ef253af08c0796f73de1366cf2d08" target="_top" xlink:title=" ">
<polygon fill="none" stroke="#000000" points="457.662,-55.5 457.662,-87.5 571.465,-87.5 571.465,-55.5 457.662,-55.5"/>
<text text-anchor="start" x="465.662" y="-74.5" font-family="Helvetica,sans-Serif" font-size="10.00" fill="#000000">LFSTK_gadgetClass::</text>
<text text-anchor="middle" x="514.5635" y="-62.5" font-family="Helvetica,sans-Serif" font-size="10.00" fill="#000000">LFSTK_moveGadget</text>
</a>
</g>
</g>
<!-- Node3&#45;&gt;Node16 -->
<g id="edge18" class="edge">
<title>Node3&#45;&gt;Node16</title>
<path fill="none" stroke="#191970" d="M380.3739,-157.2101C398.4671,-140.4635 428.4651,-114.3774 457.662,-96.5 460.1207,-94.9945 462.686,-93.531 465.3089,-92.117"/>
<polygon fill="#191970" stroke="#191970" points="467.0459,-95.1604 474.3771,-87.5117 463.8762,-88.9192 467.0459,-95.1604"/>
</g>
<!-- Node4&#45;&gt;Node3 -->
<g id="edge15" class="edge">
<title>Node4&#45;&gt;Node3</title>
<path fill="none" stroke="#191970" d="M607.0908,-229.2799C565.207,-226.1266 507.6622,-218.7098 457.662,-208.5 438.4716,-204.5814 417.4325,-198.9149 400.1077,-193.0479"/>
<polygon fill="#191970" stroke="#191970" points="400.973,-189.6407 390.3783,-189.582 398.6239,-196.2348 400.973,-189.6407"/>
</g>
<!-- Node5 -->
<g id="node5" class="node">
<title>Node5</title>
<g id="a_node5"><a xlink:href="class_l_f_s_t_k__gadget_class_a37d96aab3c59cb97fca1720441e3fc8e.xhtml#a37d96aab3c59cb97fca1720441e3fc8e" target="_top" xlink:title=" ">
<polygon fill="none" stroke="#000000" points="1059.634,-211.5 1059.634,-243.5 1173.437,-243.5 1173.437,-211.5 1059.634,-211.5"/>
<text text-anchor="start" x="1067.634" y="-230.5" font-family="Helvetica,sans-Serif" font-size="10.00" fill="#000000">LFSTK_gadgetClass::</text>
<text text-anchor="middle" x="1116.5355" y="-218.5" font-family="Helvetica,sans-Serif" font-size="10.00" fill="#000000">clearBox</text>
</a>
</g>
</g>
<!-- Node4&#45;&gt;Node5 -->
<g id="edge4" class="edge">
<title>Node4&#45;&gt;Node5</title>
<path fill="none" stroke="#191970" d="M724.2171,-227.5C807.8585,-227.5 961.2707,-227.5 1049.4332,-227.5"/>
<polygon fill="#191970" stroke="#191970" points="1049.5901,-231.0001 1059.59,-227.5 1049.59,-224.0001 1049.5901,-231.0001"/>
</g>
<!-- Node6 -->
<g id="node6" class="node">
<title>Node6</title>
<g id="a_node6"><a xlink:href="class_l_f_s_t_k__gadget_class_aa5b5f301fe9b0a4d7679f786da7462ba.xhtml#aa5b5f301fe9b0a4d7679f786da7462ba" target="_top" xlink:title=" ">
<polygon fill="none" stroke="#000000" points="760.028,-121.5 760.028,-153.5 873.831,-153.5 873.831,-121.5 760.028,-121.5"/>
<text text-anchor="start" x="768.028" y="-140.5" font-family="Helvetica,sans-Serif" font-size="10.00" fill="#000000">LFSTK_gadgetClass::</text>
<text text-anchor="middle" x="816.9295" y="-128.5" font-family="Helvetica,sans-Serif" font-size="10.00" fill="#000000">LFSTK_clearWindow</text>
</a>
</g>
</g>
<!-- Node4&#45;&gt;Node6 -->
<g id="edge5" class="edge">
<title>Node4&#45;&gt;Node6</title>
<path fill="none" stroke="#191970" d="M692.775,-211.4098C717.4221,-196.7373 754.0143,-174.9538 781.093,-158.8336"/>
<polygon fill="#191970" stroke="#191970" points="783.0782,-161.7251 789.8806,-153.6024 779.4975,-155.7102 783.0782,-161.7251"/>
</g>
<!-- Node7 -->
<g id="node7" class="node">
<title>Node7</title>
<g id="a_node7"><a xlink:href="class_l_f_s_t_k__gadget_class_a66b92f213e5a7e75da3f707b511342ea.xhtml#a66b92f213e5a7e75da3f707b511342ea" target="_top" xlink:title=" ">
<polygon fill="none" stroke="#000000" points="909.831,-121.5 909.831,-153.5 1023.634,-153.5 1023.634,-121.5 909.831,-121.5"/>
<text text-anchor="start" x="917.831" y="-140.5" font-family="Helvetica,sans-Serif" font-size="10.00" fill="#000000">LFSTK_gadgetClass::</text>
<text text-anchor="middle" x="966.7325" y="-128.5" font-family="Helvetica,sans-Serif" font-size="10.00" fill="#000000">drawGagetDetails</text>
</a>
</g>
</g>
<!-- Node6&#45;&gt;Node7 -->
<g id="edge6" class="edge">
<title>Node6&#45;&gt;Node7</title>
<path fill="none" stroke="#191970" d="M873.9909,-137.5C882.4299,-137.5 891.1896,-137.5 899.8069,-137.5"/>
<polygon fill="#191970" stroke="#191970" points="899.8298,-141.0001 909.8297,-137.5 899.8297,-134.0001 899.8298,-141.0001"/>
</g>
<!-- Node7&#45;&gt;Node5 -->
<g id="edge7" class="edge">
<title>Node7&#45;&gt;Node5</title>
<path fill="none" stroke="#191970" d="M991.295,-153.7326C1009.8634,-165.8483 1036.0924,-182.6328 1059.634,-196.5 1065.2317,-199.7973 1071.1996,-203.1846 1077.0857,-206.4533"/>
<polygon fill="#191970" stroke="#191970" points="1075.7534,-209.7148 1086.2031,-211.4625 1079.1241,-203.5797 1075.7534,-209.7148"/>
</g>
<!-- Node8 -->
<g id="node8" class="node">
<title>Node8</title>
<g id="a_node8"><a xlink:href="class_l_f_s_t_k__gadget_class_ab76db165a19af248b5e94e95492dc879.xhtml#ab76db165a19af248b5e94e95492dc879" target="_top" xlink:title=" ">
<polygon fill="none" stroke="#000000" points="1220.8235,-128.5 1220.8235,-160.5 1334.6265,-160.5 1334.6265,-128.5 1220.8235,-128.5"/>
<text text-anchor="start" x="1228.8235" y="-147.5" font-family="Helvetica,sans-Serif" font-size="10.00" fill="#000000">LFSTK_gadgetClass::</text>
<text text-anchor="middle" x="1277.725" y="-135.5" font-family="Helvetica,sans-Serif" font-size="10.00" fill="#000000">drawBevel</text>
</a>
</g>
</g>
<!-- Node7&#45;&gt;Node8 -->
<g id="edge8" class="edge">
<title>Node7&#45;&gt;Node8</title>
<path fill="none" stroke="#191970" d="M1014.4233,-153.5327C1028.7848,-157.6275 1044.7005,-161.4497 1059.634,-163.5 1109.743,-170.3797 1123.0631,-168.0513 1173.437,-163.5 1185.4654,-162.4132 1198.18,-160.6351 1210.4387,-158.5914"/>
<polygon fill="#191970" stroke="#191970" points="1211.3522,-161.9851 1220.6037,-156.8217 1210.1515,-155.0889 1211.3522,-161.9851"/>
</g>
<!-- Node9 -->
<g id="node9" class="node">
<title>Node9</title>
<g id="a_node9"><a xlink:href="class_l_f_s_t_k__gadget_class_af5386ffc4699273f6c53a920fc8b2f1d.xhtml#af5386ffc4699273f6c53a920fc8b2f1d" target="_top" xlink:title=" ">
<polygon fill="none" stroke="#000000" points="1059.634,-121.5 1059.634,-153.5 1173.437,-153.5 1173.437,-121.5 1059.634,-121.5"/>
<text text-anchor="start" x="1067.634" y="-140.5" font-family="Helvetica,sans-Serif" font-size="10.00" fill="#000000">LFSTK_gadgetClass::</text>
<text text-anchor="middle" x="1116.5355" y="-128.5" font-family="Helvetica,sans-Serif" font-size="10.00" fill="#000000">drawImage</text>
</a>
</g>
</g>
<!-- Node7&#45;&gt;Node9 -->
<g id="edge9" class="edge">
<title>Node7&#45;&gt;Node9</title>
<path fill="none" stroke="#191970" d="M1023.7939,-137.5C1032.2329,-137.5 1040.9926,-137.5 1049.6099,-137.5"/>
<polygon fill="#191970" stroke="#191970" points="1049.6328,-141.0001 1059.6327,-137.5 1049.6327,-134.0001 1049.6328,-141.0001"/>
</g>
<!-- Node10 -->
<g id="node10" class="node">
<title>Node10</title>
<g id="a_node10"><a xlink:href="class_l_f_s_t_k__gadget_class_af77235e4dc604470c9d62f101238225b.xhtml#af77235e4dc604470c9d62f101238225b" target="_top" xlink:title=" ">
<polygon fill="none" stroke="#000000" points="1059.634,-70.5 1059.634,-102.5 1173.437,-102.5 1173.437,-70.5 1059.634,-70.5"/>
<text text-anchor="start" x="1067.634" y="-89.5" font-family="Helvetica,sans-Serif" font-size="10.00" fill="#000000">LFSTK_gadgetClass::</text>
<text text-anchor="middle" x="1116.5355" y="-77.5" font-family="Helvetica,sans-Serif" font-size="10.00" fill="#000000">drawIndicator</text>
</a>
</g>
</g>
<!-- Node7&#45;&gt;Node10 -->
<g id="edge10" class="edge">
<title>Node7&#45;&gt;Node10</title>
<path fill="none" stroke="#191970" d="M1014.1311,-121.3633C1028.6161,-116.4319 1044.6947,-110.958 1059.737,-105.8369"/>
<polygon fill="#191970" stroke="#191970" points="1061.1068,-109.0679 1069.4452,-102.5317 1058.8508,-102.4414 1061.1068,-109.0679"/>
</g>
<!-- Node11 -->
<g id="node11" class="node">
<title>Node11</title>
<g id="a_node11"><a xlink:href="class_l_f_s_t_k__gadget_class_a7f44f781b167d66c5d6f4cc862a7e2db.xhtml#a7f44f781b167d66c5d6f4cc862a7e2db" target="_top" xlink:title=" ">
<polygon fill="none" stroke="#000000" points="1059.634,-19.5 1059.634,-51.5 1173.437,-51.5 1173.437,-19.5 1059.634,-19.5"/>
<text text-anchor="start" x="1067.634" y="-38.5" font-family="Helvetica,sans-Serif" font-size="10.00" fill="#000000">LFSTK_gadgetClass::</text>
<text text-anchor="middle" x="1116.5355" y="-26.5" font-family="Helvetica,sans-Serif" font-size="10.00" fill="#000000">drawLabel</text>
</a>
</g>
</g>
<!-- Node7&#45;&gt;Node11 -->
<g id="edge12" class="edge">
<title>Node7&#45;&gt;Node11</title>
<path fill="none" stroke="#191970" d="M983.102,-121.4985C1000.8595,-104.748 1030.5777,-78.4356 1059.634,-60.5 1061.9639,-59.0618 1064.3909,-57.6631 1066.873,-56.3102"/>
<polygon fill="#191970" stroke="#191970" points="1068.7207,-59.2963 1076.0262,-51.623 1065.53,-53.0658 1068.7207,-59.2963"/>
</g>
<!-- Node10&#45;&gt;Node8 -->
<g id="edge11" class="edge">
<title>Node10&#45;&gt;Node8</title>
<path fill="none" stroke="#191970" d="M1161.0079,-102.5023C1180.3953,-109.4784 1203.2989,-117.7196 1223.6598,-125.046"/>
<polygon fill="#191970" stroke="#191970" points="1222.5237,-128.3568 1233.1182,-128.4493 1224.8938,-121.7703 1222.5237,-128.3568"/>
</g>
<!-- Node12 -->
<g id="node12" class="node">
<title>Node12</title>
<g id="a_node12"><a xlink:href="class_l_f_s_t_k__lib_ab2f14a3414f7db863682d1e2fa0cfb75.xhtml#ab2f14a3414f7db863682d1e2fa0cfb75" target="_top" xlink:title=" ">
<polygon fill="none" stroke="#000000" points="1209.437,-51.5 1209.437,-71.5 1346.013,-71.5 1346.013,-51.5 1209.437,-51.5"/>
<text text-anchor="middle" x="1277.725" y="-58.5" font-family="Helvetica,sans-Serif" font-size="10.00" fill="#000000">LFSTK_lib::bestFontColour</text>
</a>
</g>
</g>
<!-- Node11&#45;&gt;Node12 -->
<g id="edge13" class="edge">
<title>Node11&#45;&gt;Node12</title>
<path fill="none" stroke="#191970" d="M1173.8187,-44.7398C1184.1048,-46.399 1194.9452,-48.1475 1205.5867,-49.864"/>
<polygon fill="#191970" stroke="#191970" points="1205.2741,-53.3588 1215.7039,-51.4959 1206.3889,-46.4481 1205.2741,-53.3588"/>
</g>
<!-- Node13 -->
<g id="node13" class="node">
<title>Node13</title>
<g id="a_node13"><a xlink:href="class_l_f_s_t_k__gadget_class_a091281ba03eaeb31bc7507c74b9b4f2f.xhtml#a091281ba03eaeb31bc7507c74b9b4f2f" target="_top" xlink:title=" ">
<polygon fill="none" stroke="#000000" points="1220.269,-.5 1220.269,-32.5 1335.181,-32.5 1335.181,-.5 1220.269,-.5"/>
<text text-anchor="start" x="1228.269" y="-19.5" font-family="Helvetica,sans-Serif" font-size="10.00" fill="#000000">LFSTK_gadgetClass::</text>
<text text-anchor="middle" x="1277.725" y="-7.5" font-family="Helvetica,sans-Serif" font-size="10.00" fill="#000000">LFSTK_getTextHeight</text>
</a>
</g>
</g>
<!-- Node11&#45;&gt;Node13 -->
<g id="edge14" class="edge">
<title>Node11&#45;&gt;Node13</title>
<path fill="none" stroke="#191970" d="M1173.8187,-28.7478C1185.5541,-27.3645 1198.0109,-25.8962 1210.0707,-24.4747"/>
<polygon fill="#191970" stroke="#191970" points="1210.5616,-27.9411 1220.0831,-23.2945 1209.7421,-20.9892 1210.5616,-27.9411"/>
</g>
<!-- Node17 -->
<g id="node17" class="node">
<title>Node17</title>
<g id="a_node17"><a xlink:href="class_l_f_s_t_k__window_class_ac3b5b99b3a018cce7c631df39db76be1.xhtml#ac3b5b99b3a018cce7c631df39db76be1" target="_top" xlink:title=" ">
<polygon fill="none" stroke="#000000" points="607.465,-88.5 607.465,-120.5 724.028,-120.5 724.028,-88.5 607.465,-88.5"/>
<text text-anchor="start" x="615.465" y="-107.5" font-family="Helvetica,sans-Serif" font-size="10.00" fill="#000000">LFSTK_windowClass::</text>
<text text-anchor="middle" x="665.7465" y="-95.5" font-family="Helvetica,sans-Serif" font-size="10.00" fill="#000000">LFSTK_clearWindow</text>
</a>
</g>
</g>
<!-- Node16&#45;&gt;Node17 -->
<g id="edge19" class="edge">
<title>Node16&#45;&gt;Node17</title>
<path fill="none" stroke="#191970" d="M571.7193,-83.9759C580.0733,-85.7994 588.7471,-87.6927 597.298,-89.5592"/>
<polygon fill="#191970" stroke="#191970" points="596.7366,-93.019 607.253,-91.7321 598.2294,-86.18 596.7366,-93.019"/>
</g>
<!-- Node17&#45;&gt;Node6 -->
<g id="edge20" class="edge">
<title>Node17&#45;&gt;Node6</title>
<path fill="none" stroke="#191970" d="M724.1978,-117.2587C732.5589,-119.0837 741.2153,-120.9732 749.728,-122.8314"/>
<polygon fill="#191970" stroke="#191970" points="749.1125,-126.2793 759.6289,-124.9925 750.6053,-119.4404 749.1125,-126.2793"/>
</g>
</g>
</svg>
