<?xml version="1.0" encoding="UTF-8" standalone="no"?>
<!DOCTYPE svg PUBLIC "-//W3C//DTD SVG 1.1//EN"
 "http://www.w3.org/Graphics/SVG/1.1/DTD/svg11.dtd">
<!-- Generated by graphviz version 2.40.1 (20161225.0304)
 -->
<!-- Title: LFSTK_gadgetClass::LFSTK_setFontColourName Pages: 1 -->
<svg width="628pt" height="500pt"
 viewBox="0.00 0.00 628.40 500.00" xmlns="http://www.w3.org/2000/svg" xmlns:xlink="http://www.w3.org/1999/xlink">
<g id="graph0" class="graph" transform="scale(1 1) rotate(0) translate(4 496)">
<title>LFSTK_gadgetClass::LFSTK_setFontColourName</title>
<!-- Node1 -->
<g id="node1" class="node">
<title>Node1</title>
<g id="a_node1"><a xlink:title=" ">
<polygon fill="#bfbfbf" stroke="#000000" points="478.274,-134.5 478.274,-166.5 620.402,-166.5 620.402,-134.5 478.274,-134.5"/>
<text text-anchor="start" x="486.274" y="-153.5" font-family="Helvetica,sans-Serif" font-size="10.00" fill="#000000">LFSTK_gadgetClass::</text>
<text text-anchor="middle" x="549.338" y="-141.5" font-family="Helvetica,sans-Serif" font-size="10.00" fill="#000000">LFSTK_setFontColourName</text>
</a>
</g>
</g>
<!-- Node2 -->
<g id="node2" class="node">
<title>Node2</title>
<g id="a_node2"><a xlink:href="class_l_f_s_t_k__gadget_class_af7a3a7b33909c6560b1cf27033548c46.xhtml#af7a3a7b33909c6560b1cf27033548c46" target="_top" xlink:title=" ">
<polygon fill="none" stroke="#000000" points="328.471,-236.5 328.471,-268.5 442.274,-268.5 442.274,-236.5 328.471,-236.5"/>
<text text-anchor="start" x="336.471" y="-255.5" font-family="Helvetica,sans-Serif" font-size="10.00" fill="#000000">LFSTK_gadgetClass::</text>
<text text-anchor="middle" x="385.3725" y="-243.5" font-family="Helvetica,sans-Serif" font-size="10.00" fill="#000000">initGadget</text>
</a>
</g>
</g>
<!-- Node1&#45;&gt;Node2 -->
<g id="edge1" class="edge">
<title>Node1&#45;&gt;Node2</title>
<path fill="none" stroke="#191970" d="M518.052,-172.2852C496.9453,-186.7233 468.3,-205.8212 442.274,-221.5 433.8906,-226.5504 424.6335,-231.7485 416.0648,-236.4105"/>
<polygon fill="#191970" stroke="#191970" points="520.0605,-175.1518 526.3203,-166.604 516.0963,-169.3825 520.0605,-175.1518"/>
</g>
<!-- Node7 -->
<g id="node7" class="node">
<title>Node7</title>
<g id="a_node7"><a xlink:href="class_l_f_s_t_k__label_class_a6085feaa122a3d1060351c659889628c.xhtml#a6085feaa122a3d1060351c659889628c" target="_top" xlink:title=" ">
<polygon fill="none" stroke="#000000" points="3.055,-459.5 3.055,-491.5 138.514,-491.5 138.514,-459.5 3.055,-459.5"/>
<text text-anchor="start" x="11.055" y="-478.5" font-family="Helvetica,sans-Serif" font-size="10.00" fill="#000000">LFSTK_labelClass::LFSTK</text>
<text text-anchor="middle" x="70.7845" y="-466.5" font-family="Helvetica,sans-Serif" font-size="10.00" fill="#000000">_labelClass</text>
</a>
</g>
</g>
<!-- Node1&#45;&gt;Node7 -->
<g id="edge13" class="edge">
<title>Node1&#45;&gt;Node7</title>
<path fill="none" stroke="#191970" d="M532.9442,-174.9282C513.6048,-202.4733 479.3601,-247.4589 442.274,-278.5 324.2081,-377.3212 281.5474,-386.3811 141.569,-450.5 134.6966,-453.648 127.3048,-456.6528 119.9818,-459.4178"/>
<polygon fill="#191970" stroke="#191970" points="535.8694,-176.8517 538.6842,-166.6376 530.1142,-172.867 535.8694,-176.8517"/>
</g>
<!-- Node8 -->
<g id="node8" class="node">
<title>Node8</title>
<g id="a_node8"><a xlink:href="class_l_f_s_t_k__line_edit_class_af610951625203a6d75bce118b2b94386.xhtml#af610951625203a6d75bce118b2b94386" target="_top" xlink:title=" ">
<polygon fill="none" stroke="#000000" points="12.779,-204.5 12.779,-236.5 128.79,-236.5 128.79,-204.5 12.779,-204.5"/>
<text text-anchor="start" x="20.779" y="-223.5" font-family="Helvetica,sans-Serif" font-size="10.00" fill="#000000">LFSTK_lineEditClass</text>
<text text-anchor="middle" x="70.7845" y="-211.5" font-family="Helvetica,sans-Serif" font-size="10.00" fill="#000000">::LFSTK_lineEditClass</text>
</a>
</g>
</g>
<!-- Node1&#45;&gt;Node8 -->
<g id="edge14" class="edge">
<title>Node1&#45;&gt;Node8</title>
<path fill="none" stroke="#191970" d="M467.9031,-166.1587C459.2612,-167.687 450.5937,-169.1639 442.274,-170.5 331.7589,-188.2479 202.0521,-204.7178 128.8308,-213.6154"/>
<polygon fill="#191970" stroke="#191970" points="468.7884,-169.5558 478.014,-164.3463 467.5534,-162.6657 468.7884,-169.5558"/>
</g>
<!-- Node9 -->
<g id="node9" class="node">
<title>Node9</title>
<g id="a_node9"><a xlink:href="class_l_f_s_t_k__list_gadget_class_ae3518016f28ec3cd261ad927c5691826.xhtml#ae3518016f28ec3cd261ad927c5691826" target="_top" xlink:title=" ">
<polygon fill="none" stroke="#000000" points="6.6645,-.5 6.6645,-32.5 134.9045,-32.5 134.9045,-.5 6.6645,-.5"/>
<text text-anchor="start" x="14.6645" y="-19.5" font-family="Helvetica,sans-Serif" font-size="10.00" fill="#000000">LFSTK_listGadgetClass</text>
<text text-anchor="middle" x="70.7845" y="-7.5" font-family="Helvetica,sans-Serif" font-size="10.00" fill="#000000">::LFSTK_listGadgetClass</text>
</a>
</g>
</g>
<!-- Node1&#45;&gt;Node9 -->
<g id="edge15" class="edge">
<title>Node1&#45;&gt;Node9</title>
<path fill="none" stroke="#191970" d="M530.5727,-126.3518C511.098,-103.0828 478.4611,-68.7926 442.274,-50.5 344.0154,-.8302 212.4374,-2.1348 135.1224,-8.6168"/>
<polygon fill="#191970" stroke="#191970" points="528.0945,-128.8503 537.1343,-134.376 533.5134,-124.419 528.0945,-128.8503"/>
</g>
<!-- Node10 -->
<g id="node10" class="node">
<title>Node10</title>
<g id="a_node10"><a xlink:href="class_l_f_s_t_k__menu_item_class_a382a9775dff59f06606ef0b3f43382cc.xhtml#a382a9775dff59f06606ef0b3f43382cc" target="_top" xlink:title=" ">
<polygon fill="none" stroke="#000000" points="6.944,-153.5 6.944,-185.5 134.625,-185.5 134.625,-153.5 6.944,-153.5"/>
<text text-anchor="start" x="14.944" y="-172.5" font-family="Helvetica,sans-Serif" font-size="10.00" fill="#000000">LFSTK_menuItemClass</text>
<text text-anchor="middle" x="70.7845" y="-160.5" font-family="Helvetica,sans-Serif" font-size="10.00" fill="#000000">::LFSTK_menuItemClass</text>
</a>
</g>
</g>
<!-- Node1&#45;&gt;Node10 -->
<g id="edge16" class="edge">
<title>Node1&#45;&gt;Node10</title>
<path fill="none" stroke="#191970" d="M468.1591,-153.723C373.998,-157.4615 220.7122,-163.5474 134.6391,-166.9648"/>
<polygon fill="#191970" stroke="#191970" points="468.3572,-157.218 478.2104,-153.324 468.0794,-150.2235 468.3572,-157.218"/>
</g>
<!-- Node11 -->
<g id="node11" class="node">
<title>Node11</title>
<g id="a_node11"><a xlink:href="class_l_f_s_t_k__multi_line_edit_class_a3319d21c84b3437e69bb87dc77531322.xhtml#a3319d21c84b3437e69bb87dc77531322" target="_top" xlink:title=" ">
<polygon fill="none" stroke="#000000" points=".5565,-102.5 .5565,-134.5 141.0125,-134.5 141.0125,-102.5 .5565,-102.5"/>
<text text-anchor="start" x="8.5565" y="-121.5" font-family="Helvetica,sans-Serif" font-size="10.00" fill="#000000">LFSTK_multiLineEditClass</text>
<text text-anchor="middle" x="70.7845" y="-109.5" font-family="Helvetica,sans-Serif" font-size="10.00" fill="#000000">::LFSTK_multiLineEditClass</text>
</a>
</g>
</g>
<!-- Node1&#45;&gt;Node11 -->
<g id="edge17" class="edge">
<title>Node1&#45;&gt;Node11</title>
<path fill="none" stroke="#191970" d="M468.1251,-145.0694C376.285,-138.9283 228.2307,-129.0281 141.1321,-123.204"/>
<polygon fill="#191970" stroke="#191970" points="467.9992,-148.5687 478.2104,-145.7438 468.4663,-141.5843 467.9992,-148.5687"/>
</g>
<!-- Node13 -->
<g id="node13" class="node">
<title>Node13</title>
<g id="a_node13"><a xlink:href="class_l_f_s_t_k__toggle_button_class_a4cc0929a4d4113b9b40a3bdc54898ab7.xhtml#a4cc0929a4d4113b9b40a3bdc54898ab7" target="_top" xlink:title=" ">
<polygon fill="none" stroke="#000000" points="1.101,-51.5 1.101,-83.5 140.468,-83.5 140.468,-51.5 1.101,-51.5"/>
<text text-anchor="start" x="9.101" y="-70.5" font-family="Helvetica,sans-Serif" font-size="10.00" fill="#000000">LFSTK_toggleButtonClass</text>
<text text-anchor="middle" x="70.7845" y="-58.5" font-family="Helvetica,sans-Serif" font-size="10.00" fill="#000000">::LFSTK_toggleButtonClass</text>
</a>
</g>
</g>
<!-- Node1&#45;&gt;Node13 -->
<g id="edge20" class="edge">
<title>Node1&#45;&gt;Node13</title>
<path fill="none" stroke="#191970" d="M468.328,-136.0792C459.5357,-134.5273 450.7184,-132.9767 442.274,-131.5 337.1935,-113.1245 215.3206,-92.2028 140.6402,-79.4269"/>
<polygon fill="#191970" stroke="#191970" points="467.7663,-139.5341 478.2229,-137.828 468.9847,-132.6409 467.7663,-139.5341"/>
</g>
<!-- Node14 -->
<g id="node14" class="node">
<title>Node14</title>
<g id="a_node14"><a xlink:href="class_l_f_s_t_k__gadget_class_a9f37719f8d8e0bc1163ea2781b6002af.xhtml#a9f37719f8d8e0bc1163ea2781b6002af" target="_top" xlink:title=" ">
<polygon fill="none" stroke="#000000" points="177.569,-32.5 177.569,-64.5 292.471,-64.5 292.471,-32.5 177.569,-32.5"/>
<text text-anchor="start" x="185.569" y="-51.5" font-family="Helvetica,sans-Serif" font-size="10.00" fill="#000000">LFSTK_gadgetClass::</text>
<text text-anchor="middle" x="235.02" y="-39.5" font-family="Helvetica,sans-Serif" font-size="10.00" fill="#000000">LFSTK_reloadColours</text>
</a>
</g>
</g>
<!-- Node1&#45;&gt;Node14 -->
<g id="edge18" class="edge">
<title>Node1&#45;&gt;Node14</title>
<path fill="none" stroke="#191970" d="M522.6868,-127.9898C502.0713,-111.8336 472.098,-90.9655 442.274,-79.5 393.8826,-60.8964 335.1471,-53.3986 292.5773,-50.4069"/>
<polygon fill="#191970" stroke="#191970" points="520.6555,-130.847 530.6501,-134.3625 525.0292,-125.3816 520.6555,-130.847"/>
</g>
<!-- Node3 -->
<g id="node3" class="node">
<title>Node3</title>
<g id="a_node3"><a xlink:href="class_l_f_s_t_k__gadget_class_a13d0e1c40a4feae0531c0ce9188bcd62.xhtml#a13d0e1c40a4feae0531c0ce9188bcd62" target="_top" xlink:title=" ">
<polygon fill="none" stroke="#000000" points="178.1185,-236.5 178.1185,-268.5 291.9215,-268.5 291.9215,-236.5 178.1185,-236.5"/>
<text text-anchor="start" x="186.1185" y="-255.5" font-family="Helvetica,sans-Serif" font-size="10.00" fill="#000000">LFSTK_gadgetClass::</text>
<text text-anchor="middle" x="235.02" y="-243.5" font-family="Helvetica,sans-Serif" font-size="10.00" fill="#000000">LFSTK_setCommon</text>
</a>
</g>
</g>
<!-- Node2&#45;&gt;Node3 -->
<g id="edge2" class="edge">
<title>Node2&#45;&gt;Node3</title>
<path fill="none" stroke="#191970" d="M318.0388,-252.5C309.3881,-252.5 300.5974,-252.5 292.1315,-252.5"/>
<polygon fill="#191970" stroke="#191970" points="318.1018,-256.0001 328.1018,-252.5 318.1017,-249.0001 318.1018,-256.0001"/>
</g>
<!-- Node4 -->
<g id="node4" class="node">
<title>Node4</title>
<g id="a_node4"><a xlink:href="class_l_f_s_t_k__button_class_a2b46d2136069e61fc8c8ee88519b2a8f.xhtml#a2b46d2136069e61fc8c8ee88519b2a8f" target="_top" xlink:title=" ">
<polygon fill="none" stroke="#000000" points="15.273,-306.5 15.273,-338.5 126.296,-338.5 126.296,-306.5 15.273,-306.5"/>
<text text-anchor="start" x="23.273" y="-325.5" font-family="Helvetica,sans-Serif" font-size="10.00" fill="#000000">LFSTK_buttonClass::</text>
<text text-anchor="middle" x="70.7845" y="-313.5" font-family="Helvetica,sans-Serif" font-size="10.00" fill="#000000">LFSTK_buttonClass</text>
</a>
</g>
</g>
<!-- Node3&#45;&gt;Node4 -->
<g id="edge3" class="edge">
<title>Node3&#45;&gt;Node4</title>
<path fill="none" stroke="#191970" d="M194.5945,-273.157C178.3032,-281.1674 159.2204,-290.1588 141.569,-297.5 134.2285,-300.5529 126.3672,-303.5704 118.65,-306.396"/>
<polygon fill="#191970" stroke="#191970" points="196.4296,-276.1537 203.8321,-268.5738 193.3185,-269.883 196.4296,-276.1537"/>
</g>
<!-- Node5 -->
<g id="node5" class="node">
<title>Node5</title>
<g id="a_node5"><a xlink:href="class_l_f_s_t_k__font_dialog_class_ab7b6a4bca99713646ab6ac77dc34827c.xhtml#ab7b6a4bca99713646ab6ac77dc34827c" target="_top" xlink:title=" ">
<polygon fill="none" stroke="#000000" points="6.665,-255.5 6.665,-287.5 134.904,-287.5 134.904,-255.5 6.665,-255.5"/>
<text text-anchor="start" x="14.665" y="-274.5" font-family="Helvetica,sans-Serif" font-size="10.00" fill="#000000">LFSTK_fontDialogClass</text>
<text text-anchor="middle" x="70.7845" y="-262.5" font-family="Helvetica,sans-Serif" font-size="10.00" fill="#000000">::LFSTK_fontDialogClass</text>
</a>
</g>
</g>
<!-- Node3&#45;&gt;Node5 -->
<g id="edge4" class="edge">
<title>Node3&#45;&gt;Node5</title>
<path fill="none" stroke="#191970" d="M167.781,-260.2787C156.9402,-261.5329 145.7415,-262.8284 134.975,-264.074"/>
<polygon fill="#191970" stroke="#191970" points="168.5078,-263.7181 178.0393,-259.092 167.7033,-256.7644 168.5078,-263.7181"/>
</g>
<!-- Node6 -->
<g id="node6" class="node">
<title>Node6</title>
<g id="a_node6"><a xlink:href="class_l_f_s_t_k__image_class_aff24b6452cb0a5d821b81770aa8f58d5.xhtml#aff24b6452cb0a5d821b81770aa8f58d5" target="_top" xlink:title=" ">
<polygon fill="none" stroke="#000000" points="0,-408.5 0,-440.5 141.569,-440.5 141.569,-408.5 0,-408.5"/>
<text text-anchor="start" x="8" y="-427.5" font-family="Helvetica,sans-Serif" font-size="10.00" fill="#000000">LFSTK_imageClass::LFSTK</text>
<text text-anchor="middle" x="70.7845" y="-415.5" font-family="Helvetica,sans-Serif" font-size="10.00" fill="#000000">_imageClass</text>
</a>
</g>
</g>
<!-- Node3&#45;&gt;Node6 -->
<g id="edge5" class="edge">
<title>Node3&#45;&gt;Node6</title>
<path fill="none" stroke="#191970" d="M225.0729,-278.0013C211.1211,-310.6032 182.7476,-366.7407 141.569,-399.5 137.2854,-402.9078 132.502,-405.8704 127.4982,-408.442"/>
<polygon fill="#191970" stroke="#191970" points="228.3363,-279.2687 228.938,-268.691 221.8713,-276.5848 228.3363,-279.2687"/>
</g>
<!-- Node3&#45;&gt;Node7 -->
<g id="edge6" class="edge">
<title>Node3&#45;&gt;Node7</title>
<path fill="none" stroke="#191970" d="M222.6874,-277.9919C210.982,-302.25 192.9429,-339.798 177.569,-372.5 161.325,-407.053 169.7914,-424.7848 141.569,-450.5 137.8119,-453.9233 133.5567,-456.8839 129.0424,-459.4431"/>
<polygon fill="#191970" stroke="#191970" points="225.9441,-279.2964 227.1414,-268.7694 219.6407,-276.2522 225.9441,-279.2964"/>
</g>
<!-- Node3&#45;&gt;Node8 -->
<g id="edge7" class="edge">
<title>Node3&#45;&gt;Node8</title>
<path fill="none" stroke="#191970" d="M167.8548,-239.4134C154.9886,-236.9065 141.6155,-234.3009 129.0571,-231.854"/>
<polygon fill="#191970" stroke="#191970" points="167.5545,-242.9206 178.0393,-241.3978 168.8933,-236.0498 167.5545,-242.9206"/>
</g>
<!-- Node3&#45;&gt;Node9 -->
<g id="edge8" class="edge">
<title>Node3&#45;&gt;Node9</title>
<path fill="none" stroke="#191970" d="M230.3758,-226.2487C221.2149,-182.0296 196.7137,-92.5324 141.569,-41.5 137.9341,-38.1362 133.8187,-35.2202 129.4455,-32.6931"/>
<polygon fill="#191970" stroke="#191970" points="226.9723,-227.0803 232.3375,-236.2162 233.8405,-225.7285 226.9723,-227.0803"/>
</g>
<!-- Node3&#45;&gt;Node10 -->
<g id="edge9" class="edge">
<title>Node3&#45;&gt;Node10</title>
<path fill="none" stroke="#191970" d="M202.8067,-230.693C185.1873,-219.3248 162.6998,-205.7036 141.569,-195.5 134.2597,-191.9705 126.3389,-188.6255 118.5317,-185.5828"/>
<polygon fill="#191970" stroke="#191970" points="201.2581,-233.8621 211.5438,-236.4025 205.0873,-228.0022 201.2581,-233.8621"/>
</g>
<!-- Node3&#45;&gt;Node11 -->
<g id="edge10" class="edge">
<title>Node3&#45;&gt;Node11</title>
<path fill="none" stroke="#191970" d="M219.3172,-227.9857C202.6608,-203.7471 174.2684,-167.0998 141.569,-144.5 136.0764,-140.7038 129.9629,-137.3883 123.694,-134.5126"/>
<polygon fill="#191970" stroke="#191970" points="216.4258,-229.9582 224.9091,-236.3053 222.2355,-226.0533 216.4258,-229.9582"/>
</g>
<!-- Node12 -->
<g id="node12" class="node">
<title>Node12</title>
<g id="a_node12"><a xlink:href="class_l_f_s_t_k__scroll_bar_class_a3da4281c24ac345ba32a4636ce2af38b.xhtml#a3da4281c24ac345ba32a4636ce2af38b" target="_top" xlink:title=" ">
<polygon fill="none" stroke="#000000" points="9.7285,-357.5 9.7285,-389.5 131.8405,-389.5 131.8405,-357.5 9.7285,-357.5"/>
<text text-anchor="start" x="17.7285" y="-376.5" font-family="Helvetica,sans-Serif" font-size="10.00" fill="#000000">LFSTK_scrollBarClass</text>
<text text-anchor="middle" x="70.7845" y="-364.5" font-family="Helvetica,sans-Serif" font-size="10.00" fill="#000000">::LFSTK_scrollBarClass</text>
</a>
</g>
</g>
<!-- Node3&#45;&gt;Node12 -->
<g id="edge11" class="edge">
<title>Node3&#45;&gt;Node12</title>
<path fill="none" stroke="#191970" d="M216.8705,-276.6764C199.6073,-298.1793 171.8377,-329.1337 141.569,-348.5 136.2995,-351.8715 130.5175,-354.8576 124.6005,-357.4843"/>
<polygon fill="#191970" stroke="#191970" points="219.7421,-278.6867 223.171,-268.6621 214.2391,-274.3604 219.7421,-278.6867"/>
</g>
<!-- Node3&#45;&gt;Node13 -->
<g id="edge12" class="edge">
<title>Node3&#45;&gt;Node13</title>
<path fill="none" stroke="#191970" d="M226.1466,-226.5436C212.9553,-191.6264 184.9653,-129.7363 141.569,-93.5 137.0469,-89.724 131.9274,-86.4722 126.5604,-83.6768"/>
<polygon fill="#191970" stroke="#191970" points="222.8994,-227.855 229.621,-236.0447 229.4736,-225.4509 222.8994,-227.855"/>
</g>
<!-- Node14&#45;&gt;Node9 -->
<g id="edge19" class="edge">
<title>Node14&#45;&gt;Node9</title>
<path fill="none" stroke="#191970" d="M167.1062,-35.2675C156.5369,-33.2082 145.6437,-31.0857 135.1562,-29.0423"/>
<polygon fill="#191970" stroke="#191970" points="166.6319,-38.7409 177.1167,-37.218 167.9707,-31.8701 166.6319,-38.7409"/>
</g>
</g>
</svg>
