<?xml version="1.0" encoding="UTF-8" standalone="no"?>
<!DOCTYPE svg PUBLIC "-//W3C//DTD SVG 1.1//EN"
 "http://www.w3.org/Graphics/SVG/1.1/DTD/svg11.dtd">
<!-- Generated by graphviz version 2.40.1 (20161225.0304)
 -->
<!-- Title: LFSTK_menuClass::LFSTK_showMenu Pages: 1 -->
<!--zoomable 566 -->
<svg id="main" version="1.1" xmlns="http://www.w3.org/2000/svg" xmlns:xlink="http://www.w3.org/1999/xlink" xml:space="preserve" onload="init(evt)">
<style type="text/css"><![CDATA[
.edge:hover path { stroke: red; }
.edge:hover polygon { stroke: red; fill: red; }
]]></style>
<script type="text/javascript"><![CDATA[
var edges = document.getElementsByTagName('g');
if (edges && edges.length) {
  for (var i=0;i<edges.length;i++) {
    if (edges[i].id.substr(0,4)=='edge') {
      edges[i].setAttribute('class','edge');
    }
  }
}
]]></script>
        <defs>
                <circle id="rim" cx="0" cy="0" r="7"/>
                <circle id="rim2" cx="0" cy="0" r="3.5"/>
                <g id="zoomPlus">
                        <use xlink:href="#rim" fill="#404040">
                                <set attributeName="fill" to="#808080" begin="zoomplus.mouseover" end="zoomplus.mouseout"/>
                        </use>
                        <path d="M-4,0h8M0,-4v8" fill="none" stroke="white" stroke-width="1.5" pointer-events="none"/>
                </g>
                <g id="zoomMin">
                        <use xlink:href="#rim" fill="#404040">
                                <set attributeName="fill" to="#808080" begin="zoomminus.mouseover" end="zoomminus.mouseout"/>
                        </use>
                        <path d="M-4,0h8" fill="none" stroke="white" stroke-width="1.5" pointer-events="none"/>
                </g>
                <g id="dirArrow">
                        <path fill="none" stroke="white" stroke-width="1.5" d="M0,-3.0v7 M-2.5,-0.5L0,-3.0L2.5,-0.5"/>
                </g>
               <g id="resetDef">
                       <use xlink:href="#rim2" fill="#404040">
                               <set attributeName="fill" to="#808080" begin="reset.mouseover" end="reset.mouseout"/>
                       </use>
               </g>
        </defs>

<script type="text/javascript">
var viewWidth = 1318;
var viewHeight = 566;
var sectionId = 'dynsection-0';
</script>
<script xlink:href="svgpan.js"/>
<svg id="graph" class="graph">
<g id="viewport">
<title>LFSTK_menuClass::LFSTK_showMenu</title>
<!-- Node1 -->
<g id="node1" class="node">
<title>Node1</title>
<g id="a_node1"><a xlink:title=" ">
<polygon fill="#bfbfbf" stroke="#000000" points="0,-351.5 0,-383.5 139.35,-383.5 139.35,-351.5 0,-351.5"/>
<text text-anchor="start" x="8" y="-370.5" font-family="Helvetica,sans-Serif" font-size="10.00" fill="#000000">LFSTK_menuClass::LFSTK</text>
<text text-anchor="middle" x="69.675" y="-358.5" font-family="Helvetica,sans-Serif" font-size="10.00" fill="#000000">_showMenu</text>
</a>
</g>
</g>
<!-- Node2 -->
<g id="node2" class="node">
<title>Node2</title>
<g id="a_node2"><a xlink:href="class_l_f_s_t_k__window_class_a9e816b5a80a4022fe266445124bf429f.xhtml#a9e816b5a80a4022fe266445124bf429f" target="_top" xlink:title=" ">
<polygon fill="none" stroke="#000000" points="180.625,-441.5 180.625,-473.5 318.883,-473.5 318.883,-441.5 180.625,-441.5"/>
<text text-anchor="start" x="188.625" y="-460.5" font-family="Helvetica,sans-Serif" font-size="10.00" fill="#000000">LFSTK_windowClass::</text>
<text text-anchor="middle" x="249.754" y="-448.5" font-family="Helvetica,sans-Serif" font-size="10.00" fill="#000000">LFSTK_getMappedListener</text>
</a>
</g>
</g>
<!-- Node1&#45;&gt;Node2 -->
<g id="edge1" class="edge">
<title>Node1&#45;&gt;Node2</title>
<path fill="none" stroke="#191970" d="M96.5898,-383.6524C117.6799,-396.0323 147.942,-413.1931 175.35,-426.5 183.0408,-430.2339 191.2983,-433.9512 199.414,-437.4471"/>
<polygon fill="#191970" stroke="#191970" points="198.2604,-440.7595 208.8336,-441.4371 200.9907,-434.3139 198.2604,-440.7595"/>
</g>
<!-- Node3 -->
<g id="node3" class="node">
<title>Node3</title>
<g id="a_node3"><a xlink:href="class_l_f_s_t_k__window_class_a10d93c702923f9d1528b43fc5010b858.xhtml#a10d93c702923f9d1528b43fc5010b858" target="_top" xlink:title=" ">
<polygon fill="none" stroke="#000000" points="175.35,-351.5 175.35,-383.5 324.158,-383.5 324.158,-351.5 175.35,-351.5"/>
<text text-anchor="start" x="183.35" y="-370.5" font-family="Helvetica,sans-Serif" font-size="10.00" fill="#000000">LFSTK_windowClass::</text>
<text text-anchor="middle" x="249.754" y="-358.5" font-family="Helvetica,sans-Serif" font-size="10.00" fill="#000000">LFSTK_handleWindowEvents</text>
</a>
</g>
</g>
<!-- Node1&#45;&gt;Node3 -->
<g id="edge2" class="edge">
<title>Node1&#45;&gt;Node3</title>
<path fill="none" stroke="#191970" d="M139.556,-367.5C147.941,-367.5 156.5718,-367.5 165.137,-367.5"/>
<polygon fill="#191970" stroke="#191970" points="165.143,-371.0001 175.143,-367.5 165.143,-364.0001 165.143,-371.0001"/>
</g>
<!-- Node30 -->
<g id="node30" class="node">
<title>Node30</title>
<g id="a_node30"><a xlink:href="class_l_f_s_t_k__window_class_ab03c62046f64b173b9d1138592dee8c1.xhtml#ab03c62046f64b173b9d1138592dee8c1" target="_top" xlink:title=" ">
<polygon fill="none" stroke="#000000" points="191.4725,-300.5 191.4725,-332.5 308.0355,-332.5 308.0355,-300.5 191.4725,-300.5"/>
<text text-anchor="start" x="199.4725" y="-319.5" font-family="Helvetica,sans-Serif" font-size="10.00" fill="#000000">LFSTK_windowClass::</text>
<text text-anchor="middle" x="249.754" y="-307.5" font-family="Helvetica,sans-Serif" font-size="10.00" fill="#000000">LFSTK_hideWindow</text>
</a>
</g>
</g>
<!-- Node1&#45;&gt;Node30 -->
<g id="edge34" class="edge">
<title>Node1&#45;&gt;Node30</title>
<path fill="none" stroke="#191970" d="M126.6531,-351.3633C144.646,-346.2675 164.6844,-340.5925 183.2803,-335.326"/>
<polygon fill="#191970" stroke="#191970" points="184.4787,-338.6243 193.1465,-332.5317 182.5712,-331.8892 184.4787,-338.6243"/>
</g>
<!-- Node31 -->
<g id="node31" class="node">
<title>Node31</title>
<g id="a_node31"><a xlink:href="class_l_f_s_t_k__window_class_a933b11647301f675ebdbcba313ed03ab.xhtml#a933b11647301f675ebdbcba313ed03ab" target="_top" xlink:title=" ">
<polygon fill="none" stroke="#000000" points="360.158,-486.5 360.158,-518.5 476.721,-518.5 476.721,-486.5 360.158,-486.5"/>
<text text-anchor="start" x="368.158" y="-505.5" font-family="Helvetica,sans-Serif" font-size="10.00" fill="#000000">LFSTK_windowClass::</text>
<text text-anchor="middle" x="418.4395" y="-493.5" font-family="Helvetica,sans-Serif" font-size="10.00" fill="#000000">LFSTK_moveWindow</text>
</a>
</g>
</g>
<!-- Node1&#45;&gt;Node31 -->
<g id="edge35" class="edge">
<title>Node1&#45;&gt;Node31</title>
<path fill="none" stroke="#191970" d="M134.106,-383.5753C208.0699,-402.0848 319.8427,-430.2507 324.158,-432.5 342.8818,-442.2595 343.3531,-450.7163 360.158,-463.5 367.8432,-469.3462 376.3606,-475.3133 384.4568,-480.7653"/>
<polygon fill="#191970" stroke="#191970" points="382.7505,-483.8336 393.0175,-486.449 386.6224,-478.0019 382.7505,-483.8336"/>
</g>
<!-- Node32 -->
<g id="node32" class="node">
<title>Node32</title>
<g id="a_node32"><a xlink:href="class_l_f_s_t_k__window_class_a7e8039be4b889bb5eaa51c297386195b.xhtml#a7e8039be4b889bb5eaa51c297386195b" target="_top" xlink:title=" ">
<polygon fill="none" stroke="#000000" points="191.4725,-249.5 191.4725,-281.5 308.0355,-281.5 308.0355,-249.5 191.4725,-249.5"/>
<text text-anchor="start" x="199.4725" y="-268.5" font-family="Helvetica,sans-Serif" font-size="10.00" fill="#000000">LFSTK_windowClass::</text>
<text text-anchor="middle" x="249.754" y="-256.5" font-family="Helvetica,sans-Serif" font-size="10.00" fill="#000000">LFSTK_showWindow</text>
</a>
</g>
</g>
<!-- Node1&#45;&gt;Node32 -->
<g id="edge38" class="edge">
<title>Node1&#45;&gt;Node32</title>
<path fill="none" stroke="#191970" d="M88.4441,-351.4298C108.7674,-334.6659 142.6745,-308.5043 175.35,-291.5 179.5301,-289.3247 183.9319,-287.2642 188.4203,-285.3269"/>
<polygon fill="#191970" stroke="#191970" points="189.781,-288.5518 197.7113,-281.5261 187.1306,-282.073 189.781,-288.5518"/>
</g>
<!-- Node4 -->
<g id="node4" class="node">
<title>Node4</title>
<g id="a_node4"><a xlink:href="class_l_f_s_t_k__window_class_ac3b5b99b3a018cce7c631df39db76be1.xhtml#ac3b5b99b3a018cce7c631df39db76be1" target="_top" xlink:title=" ">
<polygon fill="none" stroke="#000000" points="525.5025,-435.5 525.5025,-467.5 642.0655,-467.5 642.0655,-435.5 525.5025,-435.5"/>
<text text-anchor="start" x="533.5025" y="-454.5" font-family="Helvetica,sans-Serif" font-size="10.00" fill="#000000">LFSTK_windowClass::</text>
<text text-anchor="middle" x="583.784" y="-442.5" font-family="Helvetica,sans-Serif" font-size="10.00" fill="#000000">LFSTK_clearWindow</text>
</a>
</g>
</g>
<!-- Node3&#45;&gt;Node4 -->
<g id="edge3" class="edge">
<title>Node3&#45;&gt;Node4</title>
<path fill="none" stroke="#191970" d="M297.4617,-383.6707C306.7175,-387.8143 316.0508,-392.7564 324.158,-398.5 343.6742,-412.3263 338.601,-428.1393 360.158,-438.5 408.2235,-461.6013 468.9608,-463.6838 515.0028,-460.6369"/>
<polygon fill="#191970" stroke="#191970" points="515.4788,-464.1109 525.1854,-459.8644 514.9492,-457.131 515.4788,-464.1109"/>
</g>
<!-- Node14 -->
<g id="node14" class="node">
<title>Node14</title>
<g id="a_node14"><a xlink:href="class_l_f_s_t_k__window_class_a0d85c225b59176302c8b25d090e08ad7.xhtml#a0d85c225b59176302c8b25d090e08ad7" target="_top" xlink:title=" ">
<polygon fill="none" stroke="#000000" points="525.5025,-306.5 525.5025,-338.5 642.0655,-338.5 642.0655,-306.5 525.5025,-306.5"/>
<text text-anchor="start" x="533.5025" y="-325.5" font-family="Helvetica,sans-Serif" font-size="10.00" fill="#000000">LFSTK_windowClass::</text>
<text text-anchor="middle" x="583.784" y="-313.5" font-family="Helvetica,sans-Serif" font-size="10.00" fill="#000000">LFSTK_getDnDAtom</text>
</a>
</g>
</g>
<!-- Node3&#45;&gt;Node14 -->
<g id="edge14" class="edge">
<title>Node3&#45;&gt;Node14</title>
<path fill="none" stroke="#191970" d="M308.5917,-351.3516C314.0672,-348.7921 319.3555,-345.8573 324.158,-342.5 345.1497,-327.8253 337.0734,-308.595 360.158,-297.5 406.8507,-275.0583 425.2556,-291.571 476.721,-297.5 489.6403,-298.9884 503.2664,-301.4553 516.3079,-304.2745"/>
<polygon fill="#191970" stroke="#191970" points="515.621,-307.7074 526.1455,-306.4887 517.1581,-300.8782 515.621,-307.7074"/>
</g>
<!-- Node15 -->
<g id="node15" class="node">
<title>Node15</title>
<g id="a_node15"><a xlink:href="class_l_f_s_t_k__window_class_a2cef240ff812e56a57ccb6a087edb8cd.xhtml#a2cef240ff812e56a57ccb6a087edb8cd" target="_top" xlink:title=" ">
<polygon fill="none" stroke="#000000" points="360.158,-153.5 360.158,-185.5 476.721,-185.5 476.721,-153.5 360.158,-153.5"/>
<text text-anchor="start" x="368.158" y="-172.5" font-family="Helvetica,sans-Serif" font-size="10.00" fill="#000000">LFSTK_windowClass::</text>
<text text-anchor="middle" x="418.4395" y="-160.5" font-family="Helvetica,sans-Serif" font-size="10.00" fill="#000000">LFSTK_handleDnD</text>
</a>
</g>
</g>
<!-- Node3&#45;&gt;Node15 -->
<g id="edge15" class="edge">
<title>Node3&#45;&gt;Node15</title>
<path fill="none" stroke="#191970" d="M311.723,-351.3281C316.1967,-348.7987 320.4132,-345.8762 324.158,-342.5 352.8155,-316.6632 341.9549,-297.5211 360.158,-263.5 373.0808,-239.3475 389.6992,-212.9233 401.8815,-194.2593"/>
<polygon fill="#191970" stroke="#191970" points="404.8981,-196.0422 407.47,-185.7643 399.05,-192.1951 404.8981,-196.0422"/>
</g>
<!-- Node26 -->
<g id="node26" class="node">
<title>Node26</title>
<g id="a_node26"><a xlink:href="class_l_f_s_t_k__window_class_abec54e421d2e094da2214abfccebd361.xhtml#abec54e421d2e094da2214abfccebd361" target="_top" xlink:title=" ">
<polygon fill="none" stroke="#000000" points="360.158,-396.5 360.158,-428.5 476.721,-428.5 476.721,-396.5 360.158,-396.5"/>
<text text-anchor="start" x="368.158" y="-415.5" font-family="Helvetica,sans-Serif" font-size="10.00" fill="#000000">LFSTK_windowClass::</text>
<text text-anchor="middle" x="418.4395" y="-403.5" font-family="Helvetica,sans-Serif" font-size="10.00" fill="#000000">LFSTK_resizeWindow</text>
</a>
</g>
</g>
<!-- Node3&#45;&gt;Node26 -->
<g id="edge27" class="edge">
<title>Node3&#45;&gt;Node26</title>
<path fill="none" stroke="#191970" d="M310.1769,-383.6189C323.1342,-387.0755 336.9127,-390.7512 350.1441,-394.2809"/>
<polygon fill="#191970" stroke="#191970" points="349.5686,-397.7497 360.1329,-396.9456 351.3729,-390.9863 349.5686,-397.7497"/>
</g>
<!-- Node27 -->
<g id="node27" class="node">
<title>Node27</title>
<g id="a_node27"><a xlink:href="class_l_f_s_t_k__lib_aa5e46eec51c9f1f2a86ef7e22d6cba5b.xhtml#aa5e46eec51c9f1f2a86ef7e22d6cba5b" target="_top" xlink:title=" ">
<polygon fill="none" stroke="#000000" points="512.721,-371.5 512.721,-403.5 654.847,-403.5 654.847,-371.5 512.721,-371.5"/>
<text text-anchor="start" x="520.721" y="-390.5" font-family="Helvetica,sans-Serif" font-size="10.00" fill="#000000">LFSTK_lib::LFSTK_setCairo</text>
<text text-anchor="middle" x="583.784" y="-378.5" font-family="Helvetica,sans-Serif" font-size="10.00" fill="#000000">Surface</text>
</a>
</g>
</g>
<!-- Node3&#45;&gt;Node27 -->
<g id="edge31" class="edge">
<title>Node3&#45;&gt;Node27</title>
<path fill="none" stroke="#191970" d="M324.3011,-371.9635C377.1371,-375.127 448.0021,-379.3701 502.3245,-382.6226"/>
<polygon fill="#191970" stroke="#191970" points="502.4209,-386.1346 512.6122,-383.2386 502.8393,-379.1471 502.4209,-386.1346"/>
</g>
<!-- Node29 -->
<g id="node29" class="node">
<title>Node29</title>
<g id="a_node29"><a xlink:href="class_l_f_s_t_k__window_class_add088894ef8d87ac2d446e6d0b4920a5.xhtml#add088894ef8d87ac2d446e6d0b4920a5" target="_top" xlink:title=" ">
<polygon fill="none" stroke="#000000" points="360.158,-306.5 360.158,-338.5 476.721,-338.5 476.721,-306.5 360.158,-306.5"/>
<text text-anchor="start" x="368.158" y="-325.5" font-family="Helvetica,sans-Serif" font-size="10.00" fill="#000000">LFSTK_windowClass::</text>
<text text-anchor="middle" x="418.4395" y="-313.5" font-family="Helvetica,sans-Serif" font-size="10.00" fill="#000000">sendUTF8</text>
</a>
</g>
</g>
<!-- Node3&#45;&gt;Node29 -->
<g id="edge32" class="edge">
<title>Node3&#45;&gt;Node29</title>
<path fill="none" stroke="#191970" d="M310.1769,-351.3811C323.1342,-347.9245 336.9127,-344.2488 350.1441,-340.7191"/>
<polygon fill="#191970" stroke="#191970" points="351.3729,-344.0137 360.1329,-338.0544 349.5686,-337.2503 351.3729,-344.0137"/>
</g>
<!-- Node5 -->
<g id="node5" class="node">
<title>Node5</title>
<g id="a_node5"><a xlink:href="class_l_f_s_t_k__gadget_class_aa5b5f301fe9b0a4d7679f786da7462ba.xhtml#aa5b5f301fe9b0a4d7679f786da7462ba" target="_top" xlink:title=" ">
<polygon fill="none" stroke="#000000" points="705.848,-435.5 705.848,-467.5 819.651,-467.5 819.651,-435.5 705.848,-435.5"/>
<text text-anchor="start" x="713.848" y="-454.5" font-family="Helvetica,sans-Serif" font-size="10.00" fill="#000000">LFSTK_gadgetClass::</text>
<text text-anchor="middle" x="762.7495" y="-442.5" font-family="Helvetica,sans-Serif" font-size="10.00" fill="#000000">LFSTK_clearWindow</text>
</a>
</g>
</g>
<!-- Node4&#45;&gt;Node5 -->
<g id="edge4" class="edge">
<title>Node4&#45;&gt;Node5</title>
<path fill="none" stroke="#191970" d="M642.384,-451.5C659.4273,-451.5 678.1742,-451.5 695.695,-451.5"/>
<polygon fill="#191970" stroke="#191970" points="695.8471,-455.0001 705.847,-451.5 695.847,-448.0001 695.8471,-455.0001"/>
</g>
<!-- Node6 -->
<g id="node6" class="node">
<title>Node6</title>
<g id="a_node6"><a xlink:href="class_l_f_s_t_k__gadget_class_a66b92f213e5a7e75da3f707b511342ea.xhtml#a66b92f213e5a7e75da3f707b511342ea" target="_top" xlink:title=" ">
<polygon fill="none" stroke="#000000" points="872.032,-435.5 872.032,-467.5 985.835,-467.5 985.835,-435.5 872.032,-435.5"/>
<text text-anchor="start" x="880.032" y="-454.5" font-family="Helvetica,sans-Serif" font-size="10.00" fill="#000000">LFSTK_gadgetClass::</text>
<text text-anchor="middle" x="928.9335" y="-442.5" font-family="Helvetica,sans-Serif" font-size="10.00" fill="#000000">drawGagetDetails</text>
</a>
</g>
</g>
<!-- Node5&#45;&gt;Node6 -->
<g id="edge5" class="edge">
<title>Node5&#45;&gt;Node6</title>
<path fill="none" stroke="#191970" d="M819.9406,-451.5C833.333,-451.5 847.7227,-451.5 861.5147,-451.5"/>
<polygon fill="#191970" stroke="#191970" points="861.9186,-455.0001 871.9186,-451.5 861.9186,-448.0001 861.9186,-455.0001"/>
</g>
<!-- Node7 -->
<g id="node7" class="node">
<title>Node7</title>
<g id="a_node7"><a xlink:href="class_l_f_s_t_k__gadget_class_a37d96aab3c59cb97fca1720441e3fc8e.xhtml#a37d96aab3c59cb97fca1720441e3fc8e" target="_top" xlink:title=" ">
<polygon fill="none" stroke="#000000" points="1023.215,-525.5 1023.215,-557.5 1137.018,-557.5 1137.018,-525.5 1023.215,-525.5"/>
<text text-anchor="start" x="1031.215" y="-544.5" font-family="Helvetica,sans-Serif" font-size="10.00" fill="#000000">LFSTK_gadgetClass::</text>
<text text-anchor="middle" x="1080.1165" y="-532.5" font-family="Helvetica,sans-Serif" font-size="10.00" fill="#000000">clearBox</text>
</a>
</g>
</g>
<!-- Node6&#45;&gt;Node7 -->
<g id="edge6" class="edge">
<title>Node6&#45;&gt;Node7</title>
<path fill="none" stroke="#191970" d="M953.8921,-467.6929C972.7524,-479.7884 999.3772,-496.5649 1023.215,-510.5 1028.8236,-513.7787 1034.7975,-517.1557 1040.6863,-520.4198"/>
<polygon fill="#191970" stroke="#191970" points="1039.3553,-523.6818 1049.8056,-525.4258 1042.7238,-517.5455 1039.3553,-523.6818"/>
</g>
<!-- Node8 -->
<g id="node8" class="node">
<title>Node8</title>
<g id="a_node8"><a xlink:href="class_l_f_s_t_k__gadget_class_ab76db165a19af248b5e94e95492dc879.xhtml#ab76db165a19af248b5e94e95492dc879" target="_top" xlink:title=" ">
<polygon fill="none" stroke="#000000" points="1184.4045,-457.5 1184.4045,-489.5 1298.2075,-489.5 1298.2075,-457.5 1184.4045,-457.5"/>
<text text-anchor="start" x="1192.4045" y="-476.5" font-family="Helvetica,sans-Serif" font-size="10.00" fill="#000000">LFSTK_gadgetClass::</text>
<text text-anchor="middle" x="1241.306" y="-464.5" font-family="Helvetica,sans-Serif" font-size="10.00" fill="#000000">drawBevel</text>
</a>
</g>
</g>
<!-- Node6&#45;&gt;Node8 -->
<g id="edge7" class="edge">
<title>Node6&#45;&gt;Node8</title>
<path fill="none" stroke="#191970" d="M977.348,-467.5334C991.9232,-471.6282 1008.0717,-475.4502 1023.215,-477.5 1073.4171,-484.2953 1130.7059,-482.8964 1173.9663,-480.0117"/>
<polygon fill="#191970" stroke="#191970" points="1174.3624,-483.4924 1184.0893,-479.2927 1173.8664,-476.51 1174.3624,-483.4924"/>
</g>
<!-- Node9 -->
<g id="node9" class="node">
<title>Node9</title>
<g id="a_node9"><a xlink:href="class_l_f_s_t_k__gadget_class_af5386ffc4699273f6c53a920fc8b2f1d.xhtml#af5386ffc4699273f6c53a920fc8b2f1d" target="_top" xlink:title=" ">
<polygon fill="none" stroke="#000000" points="1023.215,-384.5 1023.215,-416.5 1137.018,-416.5 1137.018,-384.5 1023.215,-384.5"/>
<text text-anchor="start" x="1031.215" y="-403.5" font-family="Helvetica,sans-Serif" font-size="10.00" fill="#000000">LFSTK_gadgetClass::</text>
<text text-anchor="middle" x="1080.1165" y="-391.5" font-family="Helvetica,sans-Serif" font-size="10.00" fill="#000000">drawImage</text>
</a>
</g>
</g>
<!-- Node6&#45;&gt;Node9 -->
<g id="edge8" class="edge">
<title>Node6&#45;&gt;Node9</title>
<path fill="none" stroke="#191970" d="M976.7687,-435.3633C991.3872,-430.4319 1007.6139,-424.958 1022.7948,-419.8369"/>
<polygon fill="#191970" stroke="#191970" points="1024.2358,-423.0446 1032.5924,-416.5317 1021.9983,-416.4118 1024.2358,-423.0446"/>
</g>
<!-- Node10 -->
<g id="node10" class="node">
<title>Node10</title>
<g id="a_node10"><a xlink:href="class_l_f_s_t_k__gadget_class_af77235e4dc604470c9d62f101238225b.xhtml#af77235e4dc604470c9d62f101238225b" target="_top" xlink:title=" ">
<polygon fill="none" stroke="#000000" points="1023.215,-435.5 1023.215,-467.5 1137.018,-467.5 1137.018,-435.5 1023.215,-435.5"/>
<text text-anchor="start" x="1031.215" y="-454.5" font-family="Helvetica,sans-Serif" font-size="10.00" fill="#000000">LFSTK_gadgetClass::</text>
<text text-anchor="middle" x="1080.1165" y="-442.5" font-family="Helvetica,sans-Serif" font-size="10.00" fill="#000000">drawIndicator</text>
</a>
</g>
</g>
<!-- Node6&#45;&gt;Node10 -->
<g id="edge9" class="edge">
<title>Node6&#45;&gt;Node10</title>
<path fill="none" stroke="#191970" d="M986.0893,-451.5C994.8986,-451.5 1004.0636,-451.5 1013.065,-451.5"/>
<polygon fill="#191970" stroke="#191970" points="1013.1307,-455.0001 1023.1307,-451.5 1013.1307,-448.0001 1013.1307,-455.0001"/>
</g>
<!-- Node11 -->
<g id="node11" class="node">
<title>Node11</title>
<g id="a_node11"><a xlink:href="class_l_f_s_t_k__gadget_class_a7f44f781b167d66c5d6f4cc862a7e2db.xhtml#a7f44f781b167d66c5d6f4cc862a7e2db" target="_top" xlink:title=" ">
<polygon fill="none" stroke="#000000" points="1023.215,-333.5 1023.215,-365.5 1137.018,-365.5 1137.018,-333.5 1023.215,-333.5"/>
<text text-anchor="start" x="1031.215" y="-352.5" font-family="Helvetica,sans-Serif" font-size="10.00" fill="#000000">LFSTK_gadgetClass::</text>
<text text-anchor="middle" x="1080.1165" y="-340.5" font-family="Helvetica,sans-Serif" font-size="10.00" fill="#000000">drawLabel</text>
</a>
</g>
</g>
<!-- Node6&#45;&gt;Node11 -->
<g id="edge11" class="edge">
<title>Node6&#45;&gt;Node11</title>
<path fill="none" stroke="#191970" d="M946.352,-435.221C964.5536,-418.7662 994.4205,-393.294 1023.215,-375.5 1026.1687,-373.6747 1029.272,-371.8999 1032.4416,-370.1913"/>
<polygon fill="#191970" stroke="#191970" points="1034.1732,-373.2369 1041.4801,-365.5649 1030.9837,-367.0057 1034.1732,-373.2369"/>
</g>
<!-- Node10&#45;&gt;Node8 -->
<g id="edge10" class="edge">
<title>Node10&#45;&gt;Node8</title>
<path fill="none" stroke="#191970" d="M1137.3997,-459.3183C1149.2765,-460.9393 1161.8921,-462.6612 1174.0875,-464.3257"/>
<polygon fill="#191970" stroke="#191970" points="1173.8257,-467.8223 1184.2072,-465.7069 1174.7724,-460.8866 1173.8257,-467.8223"/>
</g>
<!-- Node12 -->
<g id="node12" class="node">
<title>Node12</title>
<g id="a_node12"><a xlink:href="class_l_f_s_t_k__lib_ab2f14a3414f7db863682d1e2fa0cfb75.xhtml#ab2f14a3414f7db863682d1e2fa0cfb75" target="_top" xlink:title=" ">
<polygon fill="none" stroke="#000000" points="1173.018,-362.5 1173.018,-382.5 1309.594,-382.5 1309.594,-362.5 1173.018,-362.5"/>
<text text-anchor="middle" x="1241.306" y="-369.5" font-family="Helvetica,sans-Serif" font-size="10.00" fill="#000000">LFSTK_lib::bestFontColour</text>
</a>
</g>
</g>
<!-- Node11&#45;&gt;Node12 -->
<g id="edge12" class="edge">
<title>Node11&#45;&gt;Node12</title>
<path fill="none" stroke="#191970" d="M1137.3997,-357.6737C1145.6597,-358.8523 1154.2771,-360.0819 1162.862,-361.3069"/>
<polygon fill="#191970" stroke="#191970" points="1162.5073,-364.7917 1172.9015,-362.7394 1163.4962,-357.8618 1162.5073,-364.7917"/>
</g>
<!-- Node13 -->
<g id="node13" class="node">
<title>Node13</title>
<g id="a_node13"><a xlink:href="class_l_f_s_t_k__gadget_class_a091281ba03eaeb31bc7507c74b9b4f2f.xhtml#a091281ba03eaeb31bc7507c74b9b4f2f" target="_top" xlink:title=" ">
<polygon fill="none" stroke="#000000" points="1183.85,-311.5 1183.85,-343.5 1298.762,-343.5 1298.762,-311.5 1183.85,-311.5"/>
<text text-anchor="start" x="1191.85" y="-330.5" font-family="Helvetica,sans-Serif" font-size="10.00" fill="#000000">LFSTK_gadgetClass::</text>
<text text-anchor="middle" x="1241.306" y="-318.5" font-family="Helvetica,sans-Serif" font-size="10.00" fill="#000000">LFSTK_getTextHeight</text>
</a>
</g>
</g>
<!-- Node11&#45;&gt;Node13 -->
<g id="edge13" class="edge">
<title>Node11&#45;&gt;Node13</title>
<path fill="none" stroke="#191970" d="M1137.3997,-341.6817C1149.1351,-340.08 1161.5919,-338.3798 1173.6517,-336.7338"/>
<polygon fill="#191970" stroke="#191970" points="1174.2293,-340.1875 1183.6641,-335.3673 1173.2826,-333.2518 1174.2293,-340.1875"/>
</g>
<!-- Node16 -->
<g id="node16" class="node">
<title>Node16</title>
<g id="a_node16"><a xlink:href="class_l_f_s_t_k__gadget_class_a5a73fbb58bdb779f2898d6fb3946f88f.xhtml#a5a73fbb58bdb779f2898d6fb3946f88f" target="_top" xlink:title=" ">
<polygon fill="none" stroke="#000000" points="526.8825,-204.5 526.8825,-236.5 640.6855,-236.5 640.6855,-204.5 526.8825,-204.5"/>
<text text-anchor="start" x="534.8825" y="-223.5" font-family="Helvetica,sans-Serif" font-size="10.00" fill="#000000">LFSTK_gadgetClass::</text>
<text text-anchor="middle" x="583.784" y="-211.5" font-family="Helvetica,sans-Serif" font-size="10.00" fill="#000000">LFSTK_dropData</text>
</a>
</g>
</g>
<!-- Node15&#45;&gt;Node16 -->
<g id="edge16" class="edge">
<title>Node15&#45;&gt;Node16</title>
<path fill="none" stroke="#191970" d="M470.7555,-185.6367C487.0478,-190.662 505.1667,-196.2507 522.0404,-201.4554"/>
<polygon fill="#191970" stroke="#191970" points="521.2209,-204.8653 531.8083,-204.4683 523.2842,-198.1762 521.2209,-204.8653"/>
</g>
<!-- Node17 -->
<g id="node17" class="node">
<title>Node17</title>
<g id="a_node17"><a xlink:href="class_l_f_s_t_k__window_class_a0e58784df7f862be4f5d425abbd28260.xhtml#a0e58784df7f862be4f5d425abbd28260" target="_top" xlink:title=" ">
<polygon fill="none" stroke="#000000" points="525.5025,-153.5 525.5025,-185.5 642.0655,-185.5 642.0655,-153.5 525.5025,-153.5"/>
<text text-anchor="start" x="533.5025" y="-172.5" font-family="Helvetica,sans-Serif" font-size="10.00" fill="#000000">LFSTK_windowClass::</text>
<text text-anchor="middle" x="583.784" y="-160.5" font-family="Helvetica,sans-Serif" font-size="10.00" fill="#000000">LFSTK_dropData</text>
</a>
</g>
</g>
<!-- Node15&#45;&gt;Node17 -->
<g id="edge17" class="edge">
<title>Node15&#45;&gt;Node17</title>
<path fill="none" stroke="#191970" d="M476.7338,-169.5C489.2056,-169.5 502.4904,-169.5 515.306,-169.5"/>
<polygon fill="#191970" stroke="#191970" points="515.4589,-173.0001 525.4588,-169.5 515.4588,-166.0001 515.4589,-173.0001"/>
</g>
<!-- Node19 -->
<g id="node19" class="node">
<title>Node19</title>
<g id="a_node19"><a xlink:href="class_l_f_s_t_k__window_class_af3af0d986d119a7362bdfc6dbfb3814f.xhtml#af3af0d986d119a7362bdfc6dbfb3814f" target="_top" xlink:title=" ">
<polygon fill="none" stroke="#000000" points="518.5435,-102.5 518.5435,-134.5 649.0245,-134.5 649.0245,-102.5 518.5435,-102.5"/>
<text text-anchor="start" x="526.5435" y="-121.5" font-family="Helvetica,sans-Serif" font-size="10.00" fill="#000000">LFSTK_windowClass::</text>
<text text-anchor="middle" x="583.784" y="-109.5" font-family="Helvetica,sans-Serif" font-size="10.00" fill="#000000">LFSTK_findGadgetByPos</text>
</a>
</g>
</g>
<!-- Node15&#45;&gt;Node19 -->
<g id="edge19" class="edge">
<title>Node15&#45;&gt;Node19</title>
<path fill="none" stroke="#191970" d="M470.7555,-153.3633C487.0478,-148.338 505.1667,-142.7493 522.0404,-137.5446"/>
<polygon fill="#191970" stroke="#191970" points="523.2842,-140.8238 531.8083,-134.5317 521.2209,-134.1347 523.2842,-140.8238"/>
</g>
<!-- Node21 -->
<g id="node21" class="node">
<title>Node21</title>
<g id="a_node21"><a xlink:href="class_l_f_s_t_k__window_class_a6bf9f2a3b003d8247f6b4244fac4d8a6.xhtml#a6bf9f2a3b003d8247f6b4244fac4d8a6" target="_top" xlink:title=" ">
<polygon fill="none" stroke="#000000" points="525.5025,-51.5 525.5025,-83.5 642.0655,-83.5 642.0655,-51.5 525.5025,-51.5"/>
<text text-anchor="start" x="533.5025" y="-70.5" font-family="Helvetica,sans-Serif" font-size="10.00" fill="#000000">LFSTK_windowClass::</text>
<text text-anchor="middle" x="583.784" y="-58.5" font-family="Helvetica,sans-Serif" font-size="10.00" fill="#000000">pickTargetFromAtoms</text>
</a>
</g>
</g>
<!-- Node15&#45;&gt;Node21 -->
<g id="edge21" class="edge">
<title>Node15&#45;&gt;Node21</title>
<path fill="none" stroke="#191970" d="M434.9163,-153.3754C452.824,-136.566 482.8898,-110.3668 512.721,-93.5 516.3876,-91.4269 520.2505,-89.4652 524.2029,-87.6196"/>
<polygon fill="#191970" stroke="#191970" points="525.7853,-90.7475 533.5377,-83.5259 522.9739,-84.3368 525.7853,-90.7475"/>
</g>
<!-- Node24 -->
<g id="node24" class="node">
<title>Node24</title>
<g id="a_node24"><a xlink:href="class_l_f_s_t_k__window_class_a851244a723058a6e0166fdbd50c16a6a.xhtml#a851244a723058a6e0166fdbd50c16a6a" target="_top" xlink:title=" ">
<polygon fill="none" stroke="#000000" points="523.838,-.5 523.838,-32.5 643.73,-32.5 643.73,-.5 523.838,-.5"/>
<text text-anchor="start" x="531.838" y="-19.5" font-family="Helvetica,sans-Serif" font-size="10.00" fill="#000000">LFSTK_windowClass::</text>
<text text-anchor="middle" x="583.784" y="-7.5" font-family="Helvetica,sans-Serif" font-size="10.00" fill="#000000">pickTargetFromTargets</text>
</a>
</g>
</g>
<!-- Node15&#45;&gt;Node24 -->
<g id="edge24" class="edge">
<title>Node15&#45;&gt;Node24</title>
<path fill="none" stroke="#191970" d="M426.2536,-153.3075C440.0501,-126.3494 471.2346,-72.2025 512.721,-41.5 514.5574,-40.1409 516.4742,-38.8509 518.4516,-37.6269"/>
<polygon fill="#191970" stroke="#191970" points="520.3781,-40.5617 527.4505,-32.673 517.0023,-34.4295 520.3781,-40.5617"/>
</g>
<!-- Node25 -->
<g id="node25" class="node">
<title>Node25</title>
<g id="a_node25"><a xlink:href="class_l_f_s_t_k__window_class_a3cd028bfe046d77c234aa397f12dd4b8.xhtml#a3cd028bfe046d77c234aa397f12dd4b8" target="_top" xlink:title=" ">
<polygon fill="none" stroke="#000000" points="525.5025,-255.5 525.5025,-287.5 642.0655,-287.5 642.0655,-255.5 525.5025,-255.5"/>
<text text-anchor="start" x="533.5025" y="-274.5" font-family="Helvetica,sans-Serif" font-size="10.00" fill="#000000">LFSTK_windowClass::</text>
<text text-anchor="middle" x="583.784" y="-262.5" font-family="Helvetica,sans-Serif" font-size="10.00" fill="#000000">readProperty</text>
</a>
</g>
</g>
<!-- Node15&#45;&gt;Node25 -->
<g id="edge26" class="edge">
<title>Node15&#45;&gt;Node25</title>
<path fill="none" stroke="#191970" d="M434.5076,-185.6122C452.3058,-202.7042 482.499,-229.5331 512.721,-246.5 515.72,-248.1836 518.8526,-249.7852 522.0599,-251.3037"/>
<polygon fill="#191970" stroke="#191970" points="520.6857,-254.5229 531.2472,-255.3628 523.5146,-248.12 520.6857,-254.5229"/>
</g>
<!-- Node18 -->
<g id="node18" class="node">
<title>Node18</title>
<g id="a_node18"><a xlink:href="class_l_f_s_t_k__lib_ac5fce97c4bbf2a3c4e500bdc22c994a9.xhtml#ac5fce97c4bbf2a3c4e500bdc22c994a9" target="_top" xlink:title=" ">
<polygon fill="none" stroke="#000000" points="690.847,-159.5 690.847,-179.5 834.652,-179.5 834.652,-159.5 690.847,-159.5"/>
<text text-anchor="middle" x="762.7495" y="-166.5" font-family="Helvetica,sans-Serif" font-size="10.00" fill="#000000">LFSTK_lib::LFSTK_oneLiner</text>
</a>
</g>
</g>
<!-- Node17&#45;&gt;Node18 -->
<g id="edge18" class="edge">
<title>Node17&#45;&gt;Node18</title>
<path fill="none" stroke="#191970" d="M642.384,-169.5C654.5301,-169.5 667.5415,-169.5 680.3577,-169.5"/>
<polygon fill="#191970" stroke="#191970" points="680.574,-173.0001 690.5739,-169.5 680.5739,-166.0001 680.574,-173.0001"/>
</g>
<!-- Node20 -->
<g id="node20" class="node">
<title>Node20</title>
<g id="a_node20"><a xlink:href="class_l_f_s_t_k__gadget_class_a280fd2cd10bf4f67f11e9a7d43766bc5.xhtml#a280fd2cd10bf4f67f11e9a7d43766bc5" target="_top" xlink:title=" ">
<polygon fill="none" stroke="#000000" points="701.404,-102.5 701.404,-134.5 824.095,-134.5 824.095,-102.5 701.404,-102.5"/>
<text text-anchor="start" x="709.404" y="-121.5" font-family="Helvetica,sans-Serif" font-size="10.00" fill="#000000">LFSTK_gadgetClass::</text>
<text text-anchor="middle" x="762.7495" y="-109.5" font-family="Helvetica,sans-Serif" font-size="10.00" fill="#000000">LFSTK_getGlobalGeom</text>
</a>
</g>
</g>
<!-- Node19&#45;&gt;Node20 -->
<g id="edge20" class="edge">
<title>Node19&#45;&gt;Node20</title>
<path fill="none" stroke="#191970" d="M649.1543,-118.5C662.6811,-118.5 677.0022,-118.5 690.7504,-118.5"/>
<polygon fill="#191970" stroke="#191970" points="691.1294,-122.0001 701.1294,-118.5 691.1294,-115.0001 691.1294,-122.0001"/>
</g>
<!-- Node22 -->
<g id="node22" class="node">
<title>Node22</title>
<g id="a_node22"><a xlink:href="class_l_f_s_t_k__window_class_a75904179205b7c0dd78d5e9b6994bd63.xhtml#a75904179205b7c0dd78d5e9b6994bd63" target="_top" xlink:title=" ">
<polygon fill="none" stroke="#000000" points="704.468,-26.5 704.468,-58.5 821.031,-58.5 821.031,-26.5 704.468,-26.5"/>
<text text-anchor="start" x="712.468" y="-45.5" font-family="Helvetica,sans-Serif" font-size="10.00" fill="#000000">LFSTK_windowClass::</text>
<text text-anchor="middle" x="762.7495" y="-33.5" font-family="Helvetica,sans-Serif" font-size="10.00" fill="#000000">pickTargetFromList</text>
</a>
</g>
</g>
<!-- Node21&#45;&gt;Node22 -->
<g id="edge22" class="edge">
<title>Node21&#45;&gt;Node22</title>
<path fill="none" stroke="#191970" d="M642.384,-59.3141C659.0012,-56.9928 677.238,-54.4453 694.3786,-52.0508"/>
<polygon fill="#191970" stroke="#191970" points="694.9041,-55.5115 704.3236,-50.6616 693.9356,-48.5788 694.9041,-55.5115"/>
</g>
<!-- Node23 -->
<g id="node23" class="node">
<title>Node23</title>
<g id="a_node23"><a xlink:href="class_l_f_s_t_k__window_class_a4de9ac1387e659aa1c14fa947061a6e8.xhtml#a4de9ac1387e659aa1c14fa947061a6e8" target="_top" xlink:title=" ">
<polygon fill="none" stroke="#000000" points="870.652,-26.5 870.652,-58.5 987.215,-58.5 987.215,-26.5 870.652,-26.5"/>
<text text-anchor="start" x="878.652" y="-45.5" font-family="Helvetica,sans-Serif" font-size="10.00" fill="#000000">LFSTK_windowClass::</text>
<text text-anchor="middle" x="928.9335" y="-33.5" font-family="Helvetica,sans-Serif" font-size="10.00" fill="#000000">getAtomName</text>
</a>
</g>
</g>
<!-- Node22&#45;&gt;Node23 -->
<g id="edge23" class="edge">
<title>Node22&#45;&gt;Node23</title>
<path fill="none" stroke="#191970" d="M821.3398,-42.5C833.9487,-42.5 847.3842,-42.5 860.3351,-42.5"/>
<polygon fill="#191970" stroke="#191970" points="860.5925,-46.0001 870.5924,-42.5 860.5924,-39.0001 860.5925,-46.0001"/>
</g>
<!-- Node24&#45;&gt;Node22 -->
<g id="edge25" class="edge">
<title>Node24&#45;&gt;Node22</title>
<path fill="none" stroke="#191970" d="M643.8748,-25.23C660.0205,-27.5756 677.6025,-30.1299 694.1715,-32.537"/>
<polygon fill="#191970" stroke="#191970" points="693.9359,-36.0395 704.3353,-34.0136 694.9424,-29.1122 693.9359,-36.0395"/>
</g>
<!-- Node26&#45;&gt;Node4 -->
<g id="edge28" class="edge">
<title>Node26&#45;&gt;Node4</title>
<path fill="none" stroke="#191970" d="M476.7338,-426.2499C489.3291,-429.2208 502.7535,-432.3872 515.6865,-435.4378"/>
<polygon fill="#191970" stroke="#191970" points="514.9224,-438.8535 525.4588,-437.7428 516.5294,-432.0405 514.9224,-438.8535"/>
</g>
<!-- Node26&#45;&gt;Node27 -->
<g id="edge29" class="edge">
<title>Node26&#45;&gt;Node27</title>
<path fill="none" stroke="#191970" d="M476.7338,-403.6859C485.1779,-402.4092 493.9946,-401.0761 502.7861,-399.7468"/>
<polygon fill="#191970" stroke="#191970" points="503.3157,-403.2066 512.68,-398.2509 502.2691,-396.2853 503.3157,-403.2066"/>
</g>
<!-- Node28 -->
<g id="node28" class="node">
<title>Node28</title>
<g id="a_node28"><a xlink:href="class_l_f_s_t_k__window_class_ac8c342109a0f8599f550475cef048745.xhtml#ac8c342109a0f8599f550475cef048745" target="_top" xlink:title=" ">
<polygon fill="none" stroke="#000000" points="525.5025,-486.5 525.5025,-518.5 642.0655,-518.5 642.0655,-486.5 525.5025,-486.5"/>
<text text-anchor="start" x="533.5025" y="-505.5" font-family="Helvetica,sans-Serif" font-size="10.00" fill="#000000">LFSTK_windowClass::</text>
<text text-anchor="middle" x="583.784" y="-493.5" font-family="Helvetica,sans-Serif" font-size="10.00" fill="#000000">setWindowGeom</text>
</a>
</g>
</g>
<!-- Node26&#45;&gt;Node28 -->
<g id="edge30" class="edge">
<title>Node26&#45;&gt;Node28</title>
<path fill="none" stroke="#191970" d="M438.4202,-428.6178C456.8604,-442.9081 485.4366,-463.6083 512.721,-477.5 516.0645,-479.2023 519.551,-480.837 523.1065,-482.398"/>
<polygon fill="#191970" stroke="#191970" points="522.0508,-485.7493 532.6284,-486.3531 524.736,-479.2848 522.0508,-485.7493"/>
</g>
<!-- Node29&#45;&gt;Node14 -->
<g id="edge33" class="edge">
<title>Node29&#45;&gt;Node14</title>
<path fill="none" stroke="#191970" d="M476.7338,-322.5C489.2056,-322.5 502.4904,-322.5 515.306,-322.5"/>
<polygon fill="#191970" stroke="#191970" points="515.4589,-326.0001 525.4588,-322.5 515.4588,-319.0001 515.4589,-326.0001"/>
</g>
<!-- Node31&#45;&gt;Node4 -->
<g id="edge36" class="edge">
<title>Node31&#45;&gt;Node4</title>
<path fill="none" stroke="#191970" d="M470.7555,-486.3633C487.0478,-481.338 505.1667,-475.7493 522.0404,-470.5446"/>
<polygon fill="#191970" stroke="#191970" points="523.2842,-473.8238 531.8083,-467.5317 521.2209,-467.1347 523.2842,-473.8238"/>
</g>
<!-- Node31&#45;&gt;Node28 -->
<g id="edge37" class="edge">
<title>Node31&#45;&gt;Node28</title>
<path fill="none" stroke="#191970" d="M476.7338,-502.5C489.2056,-502.5 502.4904,-502.5 515.306,-502.5"/>
<polygon fill="#191970" stroke="#191970" points="515.4589,-506.0001 525.4588,-502.5 515.4588,-499.0001 515.4589,-506.0001"/>
</g>
</g>
</svg>
        <g id="navigator" transform="translate(0 0)" fill="#404254">
                <rect fill="#f2f5e9" fill-opacity="0.5" stroke="#606060" stroke-width=".5" x="0" y="0" width="60" height="60"/>
                <use id="zoomplus" xlink:href="#zoomPlus" x="17" y="9" onmousedown="handleZoom(evt,'in')"/>
                <use id="zoomminus" xlink:href="#zoomMin" x="42" y="9" onmousedown="handleZoom(evt,'out')"/>
                <use id="reset" xlink:href="#resetDef" x="30" y="36" onmousedown="handleReset()"/>
                <g id="arrowUp" xlink:href="#dirArrow" transform="translate(30 24)" onmousedown="handlePan(0,-1)">
                  <use xlink:href="#rim" fill="#404040">
                        <set attributeName="fill" to="#808080" begin="arrowUp.mouseover" end="arrowUp.mouseout"/>
                  </use>
                  <path fill="none" stroke="white" stroke-width="1.5" d="M0,-3.0v7 M-2.5,-0.5L0,-3.0L2.5,-0.5"/>
                </g>
                <g id="arrowRight" xlink:href="#dirArrow" transform="rotate(90) translate(36 -43)" onmousedown="handlePan(1,0)">
                  <use xlink:href="#rim" fill="#404040">
                        <set attributeName="fill" to="#808080" begin="arrowRight.mouseover" end="arrowRight.mouseout"/>
                  </use>
                  <path fill="none" stroke="white" stroke-width="1.5" d="M0,-3.0v7 M-2.5,-0.5L0,-3.0L2.5,-0.5"/>
                </g>
                <g id="arrowDown" xlink:href="#dirArrow" transform="rotate(180) translate(-30 -48)" onmousedown="handlePan(0,1)">
                  <use xlink:href="#rim" fill="#404040">
                        <set attributeName="fill" to="#808080" begin="arrowDown.mouseover" end="arrowDown.mouseout"/>
                  </use>
                  <path fill="none" stroke="white" stroke-width="1.5" d="M0,-3.0v7 M-2.5,-0.5L0,-3.0L2.5,-0.5"/>
                </g>
                <g id="arrowLeft" xlink:href="#dirArrow" transform="rotate(270) translate(-36 17)" onmousedown="handlePan(-1,0)">
                  <use xlink:href="#rim" fill="#404040">
                        <set attributeName="fill" to="#808080" begin="arrowLeft.mouseover" end="arrowLeft.mouseout"/>
                  </use>
                  <path fill="none" stroke="white" stroke-width="1.5" d="M0,-3.0v7 M-2.5,-0.5L0,-3.0L2.5,-0.5"/>
                </g>
        </g>
        <svg viewBox="0 0 15 15" width="100%" height="30px" preserveAspectRatio="xMaxYMin meet">
         <g id="arrow_out" transform="scale(0.3 0.3)">
          <a xlink:href="class_l_f_s_t_k__menu_class_ab847d4847ed01a7ff90c717a2cdb6dc5_ab847d4847ed01a7ff90c717a2cdb6dc5_cgraph_org.svg" target="_base">
           <rect id="button" ry="5" rx="5" y="6" x="6" height="38" width="38"
                fill="#f2f5e9" fill-opacity="0.5" stroke="#606060" stroke-width="1.0"/>
           <path id="arrow"
             d="M 11.500037,31.436501 C 11.940474,20.09759 22.043105,11.32322 32.158766,21.979434 L 37.068811,17.246167 C 37.068811,17.246167 37.088388,32 37.088388,32 L 22.160133,31.978069 C 22.160133,31.978069 26.997745,27.140456 26.997745,27.140456 C 18.528582,18.264221 13.291696,25.230495 11.500037,31.436501 z"
             style="fill:#404040;"/>
          </a>
         </g>
        </svg>
</svg>
