<?xml version="1.0" encoding="UTF-8" standalone="no"?>
<!DOCTYPE svg PUBLIC "-//W3C//DTD SVG 1.1//EN"
 "http://www.w3.org/Graphics/SVG/1.1/DTD/svg11.dtd">
<!-- Generated by graphviz version 2.40.1 (20161225.0304)
 -->
<!-- Title: LFSTK_windowClass::getAtomName Pages: 1 -->
<!--zoomable 194 -->
<svg id="main" version="1.1" xmlns="http://www.w3.org/2000/svg" xmlns:xlink="http://www.w3.org/1999/xlink" xml:space="preserve" onload="init(evt)">
<style type="text/css"><![CDATA[
.edge:hover path { stroke: red; }
.edge:hover polygon { stroke: red; fill: red; }
]]></style>
<script type="text/javascript"><![CDATA[
var edges = document.getElementsByTagName('g');
if (edges && edges.length) {
  for (var i=0;i<edges.length;i++) {
    if (edges[i].id.substr(0,4)=='edge') {
      edges[i].setAttribute('class','edge');
    }
  }
}
]]></script>
        <defs>
                <circle id="rim" cx="0" cy="0" r="7"/>
                <circle id="rim2" cx="0" cy="0" r="3.5"/>
                <g id="zoomPlus">
                        <use xlink:href="#rim" fill="#404040">
                                <set attributeName="fill" to="#808080" begin="zoomplus.mouseover" end="zoomplus.mouseout"/>
                        </use>
                        <path d="M-4,0h8M0,-4v8" fill="none" stroke="white" stroke-width="1.5" pointer-events="none"/>
                </g>
                <g id="zoomMin">
                        <use xlink:href="#rim" fill="#404040">
                                <set attributeName="fill" to="#808080" begin="zoomminus.mouseover" end="zoomminus.mouseout"/>
                        </use>
                        <path d="M-4,0h8" fill="none" stroke="white" stroke-width="1.5" pointer-events="none"/>
                </g>
                <g id="dirArrow">
                        <path fill="none" stroke="white" stroke-width="1.5" d="M0,-3.0v7 M-2.5,-0.5L0,-3.0L2.5,-0.5"/>
                </g>
               <g id="resetDef">
                       <use xlink:href="#rim2" fill="#404040">
                               <set attributeName="fill" to="#808080" begin="reset.mouseover" end="reset.mouseout"/>
                       </use>
               </g>
        </defs>

<script type="text/javascript">
var viewWidth = 1108;
var viewHeight = 194;
var sectionId = 'dynsection-0';
</script>
<script xlink:href="svgpan.js"/>
<svg id="graph" class="graph">
<g id="viewport">
<title>LFSTK_windowClass::getAtomName</title>
<!-- Node1 -->
<g id="node1" class="node">
<title>Node1</title>
<g id="a_node1"><a xlink:title=" ">
<polygon fill="#bfbfbf" stroke="#000000" points="983.185,-76.5 983.185,-108.5 1099.748,-108.5 1099.748,-76.5 983.185,-76.5"/>
<text text-anchor="start" x="991.185" y="-95.5" font-family="Helvetica,sans-Serif" font-size="10.00" fill="#000000">LFSTK_windowClass::</text>
<text text-anchor="middle" x="1041.4665" y="-83.5" font-family="Helvetica,sans-Serif" font-size="10.00" fill="#000000">getAtomName</text>
</a>
</g>
</g>
<!-- Node2 -->
<g id="node2" class="node">
<title>Node2</title>
<g id="a_node2"><a xlink:href="class_l_f_s_t_k__window_class_a75904179205b7c0dd78d5e9b6994bd63.xhtml#a75904179205b7c0dd78d5e9b6994bd63" target="_top" xlink:title=" ">
<polygon fill="none" stroke="#000000" points="830.622,-76.5 830.622,-108.5 947.185,-108.5 947.185,-76.5 830.622,-76.5"/>
<text text-anchor="start" x="838.622" y="-95.5" font-family="Helvetica,sans-Serif" font-size="10.00" fill="#000000">LFSTK_windowClass::</text>
<text text-anchor="middle" x="888.9035" y="-83.5" font-family="Helvetica,sans-Serif" font-size="10.00" fill="#000000">pickTargetFromList</text>
</a>
</g>
</g>
<!-- Node1&#45;&gt;Node2 -->
<g id="edge1" class="edge">
<title>Node1&#45;&gt;Node2</title>
<path fill="none" stroke="#191970" d="M972.6703,-92.5C964.1951,-92.5 955.5955,-92.5 947.2953,-92.5"/>
<polygon fill="#191970" stroke="#191970" points="972.918,-96.0001 982.918,-92.5 972.9179,-89.0001 972.918,-96.0001"/>
</g>
<!-- Node3 -->
<g id="node3" class="node">
<title>Node3</title>
<g id="a_node3"><a xlink:href="class_l_f_s_t_k__window_class_a6bf9f2a3b003d8247f6b4244fac4d8a6.xhtml#a6bf9f2a3b003d8247f6b4244fac4d8a6" target="_top" xlink:title=" ">
<polygon fill="none" stroke="#000000" points="676.3945,-102.5 676.3945,-134.5 792.9575,-134.5 792.9575,-102.5 676.3945,-102.5"/>
<text text-anchor="start" x="684.3945" y="-121.5" font-family="Helvetica,sans-Serif" font-size="10.00" fill="#000000">LFSTK_windowClass::</text>
<text text-anchor="middle" x="734.676" y="-109.5" font-family="Helvetica,sans-Serif" font-size="10.00" fill="#000000">pickTargetFromAtoms</text>
</a>
</g>
</g>
<!-- Node2&#45;&gt;Node3 -->
<g id="edge2" class="edge">
<title>Node2&#45;&gt;Node3</title>
<path fill="none" stroke="#191970" d="M820.6902,-103.9996C811.4751,-105.553 802.0881,-107.1355 793.0653,-108.6566"/>
<polygon fill="#191970" stroke="#191970" points="821.3177,-107.4432 830.5967,-102.3295 820.154,-100.5406 821.3177,-107.4432"/>
</g>
<!-- Node11 -->
<g id="node11" class="node">
<title>Node11</title>
<g id="a_node11"><a xlink:href="class_l_f_s_t_k__window_class_a851244a723058a6e0166fdbd50c16a6a.xhtml#a851244a723058a6e0166fdbd50c16a6a" target="_top" xlink:title=" ">
<polygon fill="none" stroke="#000000" points="674.73,-51.5 674.73,-83.5 794.622,-83.5 794.622,-51.5 674.73,-51.5"/>
<text text-anchor="start" x="682.73" y="-70.5" font-family="Helvetica,sans-Serif" font-size="10.00" fill="#000000">LFSTK_windowClass::</text>
<text text-anchor="middle" x="734.676" y="-58.5" font-family="Helvetica,sans-Serif" font-size="10.00" fill="#000000">pickTargetFromTargets</text>
</a>
</g>
</g>
<!-- Node2&#45;&gt;Node11 -->
<g id="edge10" class="edge">
<title>Node2&#45;&gt;Node11</title>
<path fill="none" stroke="#191970" d="M820.6166,-81.4308C812.0352,-80.0398 803.306,-78.6248 794.8617,-77.256"/>
<polygon fill="#191970" stroke="#191970" points="820.1655,-84.9033 830.5967,-83.0486 821.2856,-77.9935 820.1655,-84.9033"/>
</g>
<!-- Node4 -->
<g id="node4" class="node">
<title>Node4</title>
<g id="a_node4"><a xlink:href="class_l_f_s_t_k__window_class_a2cef240ff812e56a57ccb6a087edb8cd.xhtml#a2cef240ff812e56a57ccb6a087edb8cd" target="_top" xlink:title=" ">
<polygon fill="none" stroke="#000000" points="522.167,-76.5 522.167,-108.5 638.73,-108.5 638.73,-76.5 522.167,-76.5"/>
<text text-anchor="start" x="530.167" y="-95.5" font-family="Helvetica,sans-Serif" font-size="10.00" fill="#000000">LFSTK_windowClass::</text>
<text text-anchor="middle" x="580.4485" y="-83.5" font-family="Helvetica,sans-Serif" font-size="10.00" fill="#000000">LFSTK_handleDnD</text>
</a>
</g>
</g>
<!-- Node3&#45;&gt;Node4 -->
<g id="edge3" class="edge">
<title>Node3&#45;&gt;Node4</title>
<path fill="none" stroke="#191970" d="M666.4627,-107.0004C657.2476,-105.447 647.8606,-103.8645 638.8378,-102.3434"/>
<polygon fill="#191970" stroke="#191970" points="665.9265,-110.4594 676.3692,-108.6705 667.0902,-103.5568 665.9265,-110.4594"/>
</g>
<!-- Node5 -->
<g id="node5" class="node">
<title>Node5</title>
<g id="a_node5"><a xlink:href="class_l_f_s_t_k__window_class_a10d93c702923f9d1528b43fc5010b858.xhtml#a10d93c702923f9d1528b43fc5010b858" target="_top" xlink:title=" ">
<polygon fill="none" stroke="#000000" points="337.359,-76.5 337.359,-108.5 486.167,-108.5 486.167,-76.5 337.359,-76.5"/>
<text text-anchor="start" x="345.359" y="-95.5" font-family="Helvetica,sans-Serif" font-size="10.00" fill="#000000">LFSTK_windowClass::</text>
<text text-anchor="middle" x="411.763" y="-83.5" font-family="Helvetica,sans-Serif" font-size="10.00" fill="#000000">LFSTK_handleWindowEvents</text>
</a>
</g>
</g>
<!-- Node4&#45;&gt;Node5 -->
<g id="edge4" class="edge">
<title>Node4&#45;&gt;Node5</title>
<path fill="none" stroke="#191970" d="M511.7847,-92.5C503.3651,-92.5 494.7294,-92.5 486.2295,-92.5"/>
<polygon fill="#191970" stroke="#191970" points="511.9239,-96.0001 521.9239,-92.5 511.9239,-89.0001 511.9239,-96.0001"/>
</g>
<!-- Node6 -->
<g id="node6" class="node">
<title>Node6</title>
<g id="a_node6"><a xlink:href="class_l_f_s_t_k__font_dialog_class_a14c5f93b43c729a1bcb8bebe141415f2.xhtml#a14c5f93b43c729a1bcb8bebe141415f2" target="_top" xlink:title=" ">
<polygon fill="none" stroke="#000000" points="170.3435,-153.5 170.3435,-185.5 293.0245,-185.5 293.0245,-153.5 170.3435,-153.5"/>
<text text-anchor="start" x="178.3435" y="-172.5" font-family="Helvetica,sans-Serif" font-size="10.00" fill="#000000">LFSTK_fontDialogClass</text>
<text text-anchor="middle" x="231.684" y="-160.5" font-family="Helvetica,sans-Serif" font-size="10.00" fill="#000000">::LFSTK_showDialog</text>
</a>
</g>
</g>
<!-- Node5&#45;&gt;Node6 -->
<g id="edge5" class="edge">
<title>Node5&#45;&gt;Node6</title>
<path fill="none" stroke="#191970" d="M369.6659,-112.8552C349.2107,-122.512 324.1739,-133.9896 301.359,-143.5 293.2553,-146.878 284.5407,-150.2959 276.1114,-153.4942"/>
<polygon fill="#191970" stroke="#191970" points="371.1834,-116.0093 378.7174,-108.5601 368.1825,-109.6851 371.1834,-116.0093"/>
</g>
<!-- Node7 -->
<g id="node7" class="node">
<title>Node7</title>
<g id="a_node7"><a xlink:href="class_l_f_s_t_k__file_dialog_class_af77972b8a46616ba4c7bec555b2b0a14.xhtml#af77972b8a46616ba4c7bec555b2b0a14" target="_top" xlink:title=" ">
<polygon fill="none" stroke="#000000" points="168.6795,-102.5 168.6795,-134.5 294.6885,-134.5 294.6885,-102.5 168.6795,-102.5"/>
<text text-anchor="start" x="176.6795" y="-121.5" font-family="Helvetica,sans-Serif" font-size="10.00" fill="#000000">LFSTK_fileDialogClass</text>
<text text-anchor="middle" x="231.684" y="-109.5" font-family="Helvetica,sans-Serif" font-size="10.00" fill="#000000">::LFSTK_showFileDialog</text>
</a>
</g>
</g>
<!-- Node5&#45;&gt;Node7 -->
<g id="edge6" class="edge">
<title>Node5&#45;&gt;Node7</title>
<path fill="none" stroke="#191970" d="M327.2173,-104.7068C316.274,-106.2868 305.2221,-107.8825 294.7114,-109.4"/>
<polygon fill="#191970" stroke="#191970" points="327.8209,-108.156 337.2181,-103.2629 326.8205,-101.2279 327.8209,-108.156"/>
</g>
<!-- Node9 -->
<g id="node9" class="node">
<title>Node9</title>
<g id="a_node9"><a xlink:href="class_l_f_s_t_k__menu_class_ab847d4847ed01a7ff90c717a2cdb6dc5.xhtml#ab847d4847ed01a7ff90c717a2cdb6dc5" target="_top" xlink:title=" ">
<polygon fill="none" stroke="#000000" points="162.009,-51.5 162.009,-83.5 301.359,-83.5 301.359,-51.5 162.009,-51.5"/>
<text text-anchor="start" x="170.009" y="-70.5" font-family="Helvetica,sans-Serif" font-size="10.00" fill="#000000">LFSTK_menuClass::LFSTK</text>
<text text-anchor="middle" x="231.684" y="-58.5" font-family="Helvetica,sans-Serif" font-size="10.00" fill="#000000">_showMenu</text>
</a>
</g>
</g>
<!-- Node5&#45;&gt;Node9 -->
<g id="edge8" class="edge">
<title>Node5&#45;&gt;Node9</title>
<path fill="none" stroke="#191970" d="M327.1898,-80.7589C318.6051,-79.5671 309.9539,-78.366 301.5499,-77.1993"/>
<polygon fill="#191970" stroke="#191970" points="326.8318,-84.2427 337.2181,-82.1511 327.7944,-77.3092 326.8318,-84.2427"/>
</g>
<!-- Node10 -->
<g id="node10" class="node">
<title>Node10</title>
<g id="a_node10"><a xlink:href="class_l_f_s_t_k__menu_item_class_ad2460aa76c71cb7ea548041e1ff858cf.xhtml#ad2460aa76c71cb7ea548041e1ff858cf" target="_top" xlink:title=" ">
<polygon fill="none" stroke="#000000" points="170.6225,-.5 170.6225,-32.5 292.7455,-32.5 292.7455,-.5 170.6225,-.5"/>
<text text-anchor="start" x="178.6225" y="-19.5" font-family="Helvetica,sans-Serif" font-size="10.00" fill="#000000">LFSTK_menuItemClass</text>
<text text-anchor="middle" x="231.684" y="-7.5" font-family="Helvetica,sans-Serif" font-size="10.00" fill="#000000">::mouseEnter</text>
</a>
</g>
</g>
<!-- Node5&#45;&gt;Node10 -->
<g id="edge9" class="edge">
<title>Node5&#45;&gt;Node10</title>
<path fill="none" stroke="#191970" d="M369.7187,-72.017C349.2755,-62.3311 324.2336,-50.8658 301.359,-41.5 293.9852,-38.4809 286.0964,-35.4578 278.3744,-32.6097"/>
<polygon fill="#191970" stroke="#191970" points="368.2306,-75.185 378.7636,-76.3282 371.2425,-68.866 368.2306,-75.185"/>
</g>
<!-- Node8 -->
<g id="node8" class="node">
<title>Node8</title>
<g id="a_node8"><a xlink:href="class_l_f_s_t_k__file_dialog_class_aacf1d4b61cbb5b40d06f591ea96f9ea7.xhtml#aacf1d4b61cbb5b40d06f591ea96f9ea7" target="_top" xlink:title=" ">
<polygon fill="none" stroke="#000000" points="0,-102.5 0,-134.5 126.009,-134.5 126.009,-102.5 0,-102.5"/>
<text text-anchor="start" x="8" y="-121.5" font-family="Helvetica,sans-Serif" font-size="10.00" fill="#000000">LFSTK_fileDialogClass</text>
<text text-anchor="middle" x="63.0045" y="-109.5" font-family="Helvetica,sans-Serif" font-size="10.00" fill="#000000">::LFSTK_showFileDialog</text>
</a>
</g>
</g>
<!-- Node7&#45;&gt;Node8 -->
<g id="edge7" class="edge">
<title>Node7&#45;&gt;Node8</title>
<path fill="none" stroke="#191970" d="M158.2227,-118.5C147.5137,-118.5 136.5668,-118.5 126.0881,-118.5"/>
<polygon fill="#191970" stroke="#191970" points="158.3941,-122.0001 168.3941,-118.5 158.394,-115.0001 158.3941,-122.0001"/>
</g>
<!-- Node11&#45;&gt;Node4 -->
<g id="edge11" class="edge">
<title>Node11&#45;&gt;Node4</title>
<path fill="none" stroke="#191970" d="M664.5804,-78.8624C655.972,-80.2578 647.2459,-81.6723 638.836,-83.0355"/>
<polygon fill="#191970" stroke="#191970" points="665.2949,-82.2923 674.606,-77.2372 664.1748,-75.3825 665.2949,-82.2923"/>
</g>
</g>
</svg>
        <g id="navigator" transform="translate(0 0)" fill="#404254">
                <rect fill="#f2f5e9" fill-opacity="0.5" stroke="#606060" stroke-width=".5" x="0" y="0" width="60" height="60"/>
                <use id="zoomplus" xlink:href="#zoomPlus" x="17" y="9" onmousedown="handleZoom(evt,'in')"/>
                <use id="zoomminus" xlink:href="#zoomMin" x="42" y="9" onmousedown="handleZoom(evt,'out')"/>
                <use id="reset" xlink:href="#resetDef" x="30" y="36" onmousedown="handleReset()"/>
                <g id="arrowUp" xlink:href="#dirArrow" transform="translate(30 24)" onmousedown="handlePan(0,-1)">
                  <use xlink:href="#rim" fill="#404040">
                        <set attributeName="fill" to="#808080" begin="arrowUp.mouseover" end="arrowUp.mouseout"/>
                  </use>
                  <path fill="none" stroke="white" stroke-width="1.5" d="M0,-3.0v7 M-2.5,-0.5L0,-3.0L2.5,-0.5"/>
                </g>
                <g id="arrowRight" xlink:href="#dirArrow" transform="rotate(90) translate(36 -43)" onmousedown="handlePan(1,0)">
                  <use xlink:href="#rim" fill="#404040">
                        <set attributeName="fill" to="#808080" begin="arrowRight.mouseover" end="arrowRight.mouseout"/>
                  </use>
                  <path fill="none" stroke="white" stroke-width="1.5" d="M0,-3.0v7 M-2.5,-0.5L0,-3.0L2.5,-0.5"/>
                </g>
                <g id="arrowDown" xlink:href="#dirArrow" transform="rotate(180) translate(-30 -48)" onmousedown="handlePan(0,1)">
                  <use xlink:href="#rim" fill="#404040">
                        <set attributeName="fill" to="#808080" begin="arrowDown.mouseover" end="arrowDown.mouseout"/>
                  </use>
                  <path fill="none" stroke="white" stroke-width="1.5" d="M0,-3.0v7 M-2.5,-0.5L0,-3.0L2.5,-0.5"/>
                </g>
                <g id="arrowLeft" xlink:href="#dirArrow" transform="rotate(270) translate(-36 17)" onmousedown="handlePan(-1,0)">
                  <use xlink:href="#rim" fill="#404040">
                        <set attributeName="fill" to="#808080" begin="arrowLeft.mouseover" end="arrowLeft.mouseout"/>
                  </use>
                  <path fill="none" stroke="white" stroke-width="1.5" d="M0,-3.0v7 M-2.5,-0.5L0,-3.0L2.5,-0.5"/>
                </g>
        </g>
        <svg viewBox="0 0 15 15" width="100%" height="30px" preserveAspectRatio="xMaxYMin meet">
         <g id="arrow_out" transform="scale(0.3 0.3)">
          <a xlink:href="class_l_f_s_t_k__window_class_a4de9ac1387e659aa1c14fa947061a6e8_a4de9ac1387e659aa1c14fa947061a6e8_icgraph_org.svg" target="_base">
           <rect id="button" ry="5" rx="5" y="6" x="6" height="38" width="38"
                fill="#f2f5e9" fill-opacity="0.5" stroke="#606060" stroke-width="1.0"/>
           <path id="arrow"
             d="M 11.500037,31.436501 C 11.940474,20.09759 22.043105,11.32322 32.158766,21.979434 L 37.068811,17.246167 C 37.068811,17.246167 37.088388,32 37.088388,32 L 22.160133,31.978069 C 22.160133,31.978069 26.997745,27.140456 26.997745,27.140456 C 18.528582,18.264221 13.291696,25.230495 11.500037,31.436501 z"
             style="fill:#404040;"/>
          </a>
         </g>
        </svg>
</svg>
