<?xml version="1.0" encoding="UTF-8" standalone="no"?>
<!DOCTYPE svg PUBLIC "-//W3C//DTD SVG 1.1//EN"
 "http://www.w3.org/Graphics/SVG/1.1/DTD/svg11.dtd">
<!-- Generated by graphviz version 2.40.1 (20161225.0304)
 -->
<!-- Title: LFSTK_listGadgetClass::LFSTK_updateList Pages: 1 -->
<svg width="1461pt" height="520pt"
 viewBox="0.00 0.00 1461.30 520.00" xmlns="http://www.w3.org/2000/svg" xmlns:xlink="http://www.w3.org/1999/xlink">
<g id="graph0" class="graph" transform="scale(1 1) rotate(0) translate(4 516)">
<title>LFSTK_listGadgetClass::LFSTK_updateList</title>
<!-- Node1 -->
<g id="node1" class="node">
<title>Node1</title>
<g id="a_node1"><a xlink:title=" ">
<polygon fill="#bfbfbf" stroke="#000000" points="0,-229.5 0,-261.5 122.682,-261.5 122.682,-229.5 0,-229.5"/>
<text text-anchor="start" x="8" y="-248.5" font-family="Helvetica,sans-Serif" font-size="10.00" fill="#000000">LFSTK_listGadgetClass</text>
<text text-anchor="middle" x="61.341" y="-236.5" font-family="Helvetica,sans-Serif" font-size="10.00" fill="#000000">::LFSTK_updateList</text>
</a>
</g>
</g>
<!-- Node2 -->
<g id="node2" class="node">
<title>Node2</title>
<g id="a_node2"><a xlink:href="class_l_f_s_t_k__gadget_class_aa5b5f301fe9b0a4d7679f786da7462ba.xhtml#aa5b5f301fe9b0a4d7679f786da7462ba" target="_top" xlink:title=" ">
<polygon fill="none" stroke="#000000" points="867.315,-368.5 867.315,-400.5 981.118,-400.5 981.118,-368.5 867.315,-368.5"/>
<text text-anchor="start" x="875.315" y="-387.5" font-family="Helvetica,sans-Serif" font-size="10.00" fill="#000000">LFSTK_gadgetClass::</text>
<text text-anchor="middle" x="924.2165" y="-375.5" font-family="Helvetica,sans-Serif" font-size="10.00" fill="#000000">LFSTK_clearWindow</text>
</a>
</g>
</g>
<!-- Node1&#45;&gt;Node2 -->
<g id="edge1" class="edge">
<title>Node1&#45;&gt;Node2</title>
<path fill="none" stroke="#191970" d="M64.5918,-261.6924C72.9915,-299.1223 99.0651,-391.9826 158.682,-438.5 249.5846,-509.4288 296.4681,-495.5 411.7685,-495.5 411.7685,-495.5 411.7685,-495.5 596.015,-495.5 707.0657,-495.5 828.6401,-437.7682 887.801,-405.5751"/>
<polygon fill="#191970" stroke="#191970" points="889.6825,-408.5345 896.7489,-400.6404 886.302,-402.4049 889.6825,-408.5345"/>
</g>
<!-- Node11 -->
<g id="node11" class="node">
<title>Node11</title>
<g id="a_node11"><a xlink:href="class_l_f_s_t_k__window_class_ac3b5b99b3a018cce7c631df39db76be1.xhtml#ac3b5b99b3a018cce7c631df39db76be1" target="_top" xlink:title=" ">
<polygon fill="none" stroke="#000000" points="714.752,-368.5 714.752,-400.5 831.315,-400.5 831.315,-368.5 714.752,-368.5"/>
<text text-anchor="start" x="722.752" y="-387.5" font-family="Helvetica,sans-Serif" font-size="10.00" fill="#000000">LFSTK_windowClass::</text>
<text text-anchor="middle" x="773.0335" y="-375.5" font-family="Helvetica,sans-Serif" font-size="10.00" fill="#000000">LFSTK_clearWindow</text>
</a>
</g>
</g>
<!-- Node1&#45;&gt;Node11 -->
<g id="edge11" class="edge">
<title>Node1&#45;&gt;Node11</title>
<path fill="none" stroke="#191970" d="M71.2504,-261.7203C86.6753,-285.3571 118.8371,-328.6106 158.682,-348.5 229.6326,-383.9164 434.1042,-384.0485 513.278,-388.5 586.706,-392.6284 605.2245,-390.059 678.752,-388.5 687.1106,-388.3228 695.8832,-388.0572 704.5726,-387.7457"/>
<polygon fill="#191970" stroke="#191970" points="704.8452,-391.238 714.7053,-387.3613 704.5798,-384.243 704.8452,-391.238"/>
</g>
<!-- Node12 -->
<g id="node12" class="node">
<title>Node12</title>
<g id="a_node12"><a xlink:href="class_l_f_s_t_k__gadget_class_a00d9d75e1766de5e88ab9fc06a9fb8ae.xhtml#a00d9d75e1766de5e88ab9fc06a9fb8ae" target="_top" xlink:title=" ">
<polygon fill="none" stroke="#000000" points="177.569,-255.5 177.569,-287.5 291.372,-287.5 291.372,-255.5 177.569,-255.5"/>
<text text-anchor="start" x="185.569" y="-274.5" font-family="Helvetica,sans-Serif" font-size="10.00" fill="#000000">LFSTK_gadgetClass::</text>
<text text-anchor="middle" x="234.4705" y="-262.5" font-family="Helvetica,sans-Serif" font-size="10.00" fill="#000000">LFSTK_setActive</text>
</a>
</g>
</g>
<!-- Node1&#45;&gt;Node12 -->
<g id="edge13" class="edge">
<title>Node1&#45;&gt;Node12</title>
<path fill="none" stroke="#191970" d="M122.8675,-254.7398C137.3187,-256.9101 152.7886,-259.2333 167.4667,-261.4376"/>
<polygon fill="#191970" stroke="#191970" points="167.0708,-264.9173 177.4798,-262.9413 168.1105,-257.9949 167.0708,-264.9173"/>
</g>
<!-- Node13 -->
<g id="node13" class="node">
<title>Node13</title>
<g id="a_node13"><a xlink:href="class_l_f_s_t_k__gadget_class_a5cef46cb93c76a87220f82242fc1ffc3.xhtml#a5cef46cb93c76a87220f82242fc1ffc3" target="_top" xlink:title=" ">
<polygon fill="none" stroke="#000000" points="165.626,-204.5 165.626,-236.5 303.315,-236.5 303.315,-204.5 165.626,-204.5"/>
<text text-anchor="start" x="173.626" y="-223.5" font-family="Helvetica,sans-Serif" font-size="10.00" fill="#000000">LFSTK_gadgetClass::</text>
<text text-anchor="middle" x="234.4705" y="-211.5" font-family="Helvetica,sans-Serif" font-size="10.00" fill="#000000">LFSTK_setImageFromPath</text>
</a>
</g>
</g>
<!-- Node1&#45;&gt;Node13 -->
<g id="edge14" class="edge">
<title>Node1&#45;&gt;Node13</title>
<path fill="none" stroke="#191970" d="M122.8675,-236.6155C133.4341,-235.0897 144.5453,-233.4853 155.4934,-231.9043"/>
<polygon fill="#191970" stroke="#191970" points="156.0845,-235.3554 165.4816,-230.462 155.084,-228.4272 156.0845,-235.3554"/>
</g>
<!-- Node17 -->
<g id="node17" class="node">
<title>Node17</title>
<g id="a_node17"><a xlink:href="class_l_f_s_t_k__gadget_class_adfe8ab99af9a2a92df3620bf0f7f55cd.xhtml#adfe8ab99af9a2a92df3620bf0f7f55cd" target="_top" xlink:title=" ">
<polygon fill="none" stroke="#000000" points="158.682,-153.5 158.682,-185.5 310.259,-185.5 310.259,-153.5 158.682,-153.5"/>
<text text-anchor="start" x="166.682" y="-172.5" font-family="Helvetica,sans-Serif" font-size="10.00" fill="#000000">LFSTK_gadgetClass::</text>
<text text-anchor="middle" x="234.4705" y="-160.5" font-family="Helvetica,sans-Serif" font-size="10.00" fill="#000000">LFSTK_setImageFromSurface</text>
</a>
</g>
</g>
<!-- Node1&#45;&gt;Node17 -->
<g id="edge18" class="edge">
<title>Node1&#45;&gt;Node17</title>
<path fill="none" stroke="#191970" d="M90.2071,-229.2822C109.3045,-218.9019 135.0836,-205.5468 158.682,-195.5 163.8015,-193.3204 169.1715,-191.1872 174.5887,-189.139"/>
<polygon fill="#191970" stroke="#191970" points="176.168,-192.2876 184.3467,-185.5526 173.7531,-185.7173 176.168,-192.2876"/>
</g>
<!-- Node18 -->
<g id="node18" class="node">
<title>Node18</title>
<g id="a_node18"><a xlink:href="class_l_f_s_t_k__gadget_class_a0331bef494c43154a2516cd70ee30e19.xhtml#a0331bef494c43154a2516cd70ee30e19" target="_top" xlink:title=" ">
<polygon fill="none" stroke="#000000" points="177.569,-396.5 177.569,-428.5 291.372,-428.5 291.372,-396.5 177.569,-396.5"/>
<text text-anchor="start" x="185.569" y="-415.5" font-family="Helvetica,sans-Serif" font-size="10.00" fill="#000000">LFSTK_gadgetClass::</text>
<text text-anchor="middle" x="234.4705" y="-403.5" font-family="Helvetica,sans-Serif" font-size="10.00" fill="#000000">LFSTK_setLabel</text>
</a>
</g>
</g>
<!-- Node1&#45;&gt;Node18 -->
<g id="edge20" class="edge">
<title>Node1&#45;&gt;Node18</title>
<path fill="none" stroke="#191970" d="M69.007,-261.5773C83.091,-289.5583 115.6311,-347.468 158.682,-381.5 163.5855,-385.3762 169.0403,-388.8354 174.7124,-391.9065"/>
<polygon fill="#191970" stroke="#191970" points="173.2456,-395.0861 183.7565,-396.4171 176.3698,-388.8219 173.2456,-395.0861"/>
</g>
<!-- Node20 -->
<g id="node20" class="node">
<title>Node20</title>
<g id="a_node20"><a xlink:href="class_l_f_s_t_k__gadget_class_ae0cc7f340a2b8f6103d41ecb3e6aab2e.xhtml#ae0cc7f340a2b8f6103d41ecb3e6aab2e" target="_top" xlink:title=" ">
<polygon fill="none" stroke="#000000" points="173.4045,-102.5 173.4045,-134.5 295.5365,-134.5 295.5365,-102.5 173.4045,-102.5"/>
<text text-anchor="start" x="181.4045" y="-121.5" font-family="Helvetica,sans-Serif" font-size="10.00" fill="#000000">LFSTK_gadgetClass::</text>
<text text-anchor="middle" x="234.4705" y="-109.5" font-family="Helvetica,sans-Serif" font-size="10.00" fill="#000000">LFSTK_setLabelGravity</text>
</a>
</g>
</g>
<!-- Node1&#45;&gt;Node20 -->
<g id="edge23" class="edge">
<title>Node1&#45;&gt;Node20</title>
<path fill="none" stroke="#191970" d="M72.6868,-229.3466C89.1783,-206.9995 121.852,-166.7806 158.682,-143.5 161.1524,-141.9384 163.7302,-140.4645 166.3811,-139.0743"/>
<polygon fill="#191970" stroke="#191970" points="168.106,-142.1293 175.6248,-134.6648 165.0921,-135.8113 168.106,-142.1293"/>
</g>
<!-- Node21 -->
<g id="node21" class="node">
<title>Node21</title>
<g id="a_node21"><a xlink:href="class_l_f_s_t_k__scroll_bar_class_ab989323af6c3232877e78441d324b1fd.xhtml#ab989323af6c3232877e78441d324b1fd" target="_top" xlink:title=" ">
<polygon fill="none" stroke="#000000" points="176.1935,-51.5 176.1935,-83.5 292.7475,-83.5 292.7475,-51.5 176.1935,-51.5"/>
<text text-anchor="start" x="184.1935" y="-70.5" font-family="Helvetica,sans-Serif" font-size="10.00" fill="#000000">LFSTK_scrollBarClass</text>
<text text-anchor="middle" x="234.4705" y="-58.5" font-family="Helvetica,sans-Serif" font-size="10.00" fill="#000000">::LFSTK_setScale</text>
</a>
</g>
</g>
<!-- Node1&#45;&gt;Node21 -->
<g id="edge24" class="edge">
<title>Node1&#45;&gt;Node21</title>
<path fill="none" stroke="#191970" d="M67.4133,-229.0433C79.756,-197.8303 110.733,-129.8211 158.682,-92.5 161.306,-90.4576 164.1042,-88.5784 167.0207,-86.8498"/>
<polygon fill="#191970" stroke="#191970" points="168.8401,-89.8478 176.0698,-82.103 165.5884,-83.6488 168.8401,-89.8478"/>
</g>
<!-- Node22 -->
<g id="node22" class="node">
<title>Node22</title>
<g id="a_node22"><a xlink:href="class_l_f_s_t_k__scroll_bar_class_a955c2789a3ce6d849a3d00a3bf4911e7.xhtml#a955c2789a3ce6d849a3d00a3bf4911e7" target="_top" xlink:title=" ">
<polygon fill="none" stroke="#000000" points="176.1935,-306.5 176.1935,-338.5 292.7475,-338.5 292.7475,-306.5 176.1935,-306.5"/>
<text text-anchor="start" x="184.1935" y="-325.5" font-family="Helvetica,sans-Serif" font-size="10.00" fill="#000000">LFSTK_scrollBarClass</text>
<text text-anchor="middle" x="234.4705" y="-313.5" font-family="Helvetica,sans-Serif" font-size="10.00" fill="#000000">::LFSTK_setValue</text>
</a>
</g>
</g>
<!-- Node1&#45;&gt;Node22 -->
<g id="edge25" class="edge">
<title>Node1&#45;&gt;Node22</title>
<path fill="none" stroke="#191970" d="M88.4122,-261.5868C107.6069,-272.5862 134.2006,-287.0156 158.682,-297.5 163.0681,-299.3784 167.6455,-301.2038 172.2836,-302.9565"/>
<polygon fill="#191970" stroke="#191970" points="171.253,-306.3061 181.8469,-306.4457 173.6523,-299.7301 171.253,-306.3061"/>
</g>
<!-- Node28 -->
<g id="node28" class="node">
<title>Node28</title>
<g id="a_node28"><a xlink:href="class_l_f_s_t_k__list_gadget_class_a3021a8227c6bf0b0183e6afba5f6ad5c.xhtml#a3021a8227c6bf0b0183e6afba5f6ad5c" target="_top" xlink:title=" ">
<polygon fill="none" stroke="#000000" points="173.1295,-.5 173.1295,-32.5 295.8115,-32.5 295.8115,-.5 173.1295,-.5"/>
<text text-anchor="start" x="181.1295" y="-19.5" font-family="Helvetica,sans-Serif" font-size="10.00" fill="#000000">LFSTK_listGadgetClass</text>
<text text-anchor="middle" x="234.4705" y="-7.5" font-family="Helvetica,sans-Serif" font-size="10.00" fill="#000000">::setNavSensitive</text>
</a>
</g>
</g>
<!-- Node1&#45;&gt;Node28 -->
<g id="edge35" class="edge">
<title>Node1&#45;&gt;Node28</title>
<path fill="none" stroke="#191970" d="M64.5049,-229.377C72.851,-191.0972 99.0502,-94.0237 158.682,-41.5 160.4138,-39.9747 162.241,-38.542 164.144,-37.1964"/>
<polygon fill="#191970" stroke="#191970" points="166.2049,-40.0387 172.9114,-31.8367 162.5538,-34.0663 166.2049,-40.0387"/>
</g>
<!-- Node3 -->
<g id="node3" class="node">
<title>Node3</title>
<g id="a_node3"><a xlink:href="class_l_f_s_t_k__gadget_class_a66b92f213e5a7e75da3f707b511342ea.xhtml#a66b92f213e5a7e75da3f707b511342ea" target="_top" xlink:title=" ">
<polygon fill="none" stroke="#000000" points="1017.118,-364.5 1017.118,-396.5 1130.921,-396.5 1130.921,-364.5 1017.118,-364.5"/>
<text text-anchor="start" x="1025.118" y="-383.5" font-family="Helvetica,sans-Serif" font-size="10.00" fill="#000000">LFSTK_gadgetClass::</text>
<text text-anchor="middle" x="1074.0195" y="-371.5" font-family="Helvetica,sans-Serif" font-size="10.00" fill="#000000">drawGagetDetails</text>
</a>
</g>
</g>
<!-- Node2&#45;&gt;Node3 -->
<g id="edge2" class="edge">
<title>Node2&#45;&gt;Node3</title>
<path fill="none" stroke="#191970" d="M981.2779,-382.9764C989.7169,-382.751 998.4766,-382.5171 1007.0939,-382.287"/>
<polygon fill="#191970" stroke="#191970" points="1007.2137,-385.7852 1017.1167,-382.0194 1007.0268,-378.7877 1007.2137,-385.7852"/>
</g>
<!-- Node4 -->
<g id="node4" class="node">
<title>Node4</title>
<g id="a_node4"><a xlink:href="class_l_f_s_t_k__gadget_class_a37d96aab3c59cb97fca1720441e3fc8e.xhtml#a37d96aab3c59cb97fca1720441e3fc8e" target="_top" xlink:title=" ">
<polygon fill="none" stroke="#000000" points="1166.921,-259.5 1166.921,-291.5 1280.724,-291.5 1280.724,-259.5 1166.921,-259.5"/>
<text text-anchor="start" x="1174.921" y="-278.5" font-family="Helvetica,sans-Serif" font-size="10.00" fill="#000000">LFSTK_gadgetClass::</text>
<text text-anchor="middle" x="1223.8225" y="-266.5" font-family="Helvetica,sans-Serif" font-size="10.00" fill="#000000">clearBox</text>
</a>
</g>
</g>
<!-- Node3&#45;&gt;Node4 -->
<g id="edge3" class="edge">
<title>Node3&#45;&gt;Node4</title>
<path fill="none" stroke="#191970" d="M1093.3831,-364.2607C1111.792,-349.1228 1140.5131,-326.2747 1166.921,-308.5 1172.7769,-304.5585 1179.1224,-300.5964 1185.3795,-296.8535"/>
<polygon fill="#191970" stroke="#191970" points="1187.5605,-299.6321 1194.4165,-291.5546 1184.0197,-293.5936 1187.5605,-299.6321"/>
</g>
<!-- Node5 -->
<g id="node5" class="node">
<title>Node5</title>
<g id="a_node5"><a xlink:href="class_l_f_s_t_k__gadget_class_ab76db165a19af248b5e94e95492dc879.xhtml#ab76db165a19af248b5e94e95492dc879" target="_top" xlink:title=" ">
<polygon fill="none" stroke="#000000" points="1328.1105,-386.5 1328.1105,-418.5 1441.9135,-418.5 1441.9135,-386.5 1328.1105,-386.5"/>
<text text-anchor="start" x="1336.1105" y="-405.5" font-family="Helvetica,sans-Serif" font-size="10.00" fill="#000000">LFSTK_gadgetClass::</text>
<text text-anchor="middle" x="1385.012" y="-393.5" font-family="Helvetica,sans-Serif" font-size="10.00" fill="#000000">drawBevel</text>
</a>
</g>
</g>
<!-- Node3&#45;&gt;Node5 -->
<g id="edge4" class="edge">
<title>Node3&#45;&gt;Node5</title>
<path fill="none" stroke="#191970" d="M1131.0603,-384.5351C1183.803,-388.2662 1262.2182,-393.8134 1317.9409,-397.7553"/>
<polygon fill="#191970" stroke="#191970" points="1317.8481,-401.2574 1328.0701,-398.4719 1318.3421,-394.2748 1317.8481,-401.2574"/>
</g>
<!-- Node6 -->
<g id="node6" class="node">
<title>Node6</title>
<g id="a_node6"><a xlink:href="class_l_f_s_t_k__gadget_class_af5386ffc4699273f6c53a920fc8b2f1d.xhtml#af5386ffc4699273f6c53a920fc8b2f1d" target="_top" xlink:title=" ">
<polygon fill="none" stroke="#000000" points="1166.921,-317.5 1166.921,-349.5 1280.724,-349.5 1280.724,-317.5 1166.921,-317.5"/>
<text text-anchor="start" x="1174.921" y="-336.5" font-family="Helvetica,sans-Serif" font-size="10.00" fill="#000000">LFSTK_gadgetClass::</text>
<text text-anchor="middle" x="1223.8225" y="-324.5" font-family="Helvetica,sans-Serif" font-size="10.00" fill="#000000">drawImage</text>
</a>
</g>
</g>
<!-- Node3&#45;&gt;Node6 -->
<g id="edge5" class="edge">
<title>Node3&#45;&gt;Node6</title>
<path fill="none" stroke="#191970" d="M1125.1542,-364.4567C1137.2596,-360.6587 1150.2889,-356.5708 1162.7848,-352.6503"/>
<polygon fill="#191970" stroke="#191970" points="1164.1704,-355.8839 1172.6641,-349.5507 1162.0749,-349.2049 1164.1704,-355.8839"/>
</g>
<!-- Node7 -->
<g id="node7" class="node">
<title>Node7</title>
<g id="a_node7"><a xlink:href="class_l_f_s_t_k__gadget_class_af77235e4dc604470c9d62f101238225b.xhtml#af77235e4dc604470c9d62f101238225b" target="_top" xlink:title=" ">
<polygon fill="none" stroke="#000000" points="1166.921,-407.5 1166.921,-439.5 1280.724,-439.5 1280.724,-407.5 1166.921,-407.5"/>
<text text-anchor="start" x="1174.921" y="-426.5" font-family="Helvetica,sans-Serif" font-size="10.00" fill="#000000">LFSTK_gadgetClass::</text>
<text text-anchor="middle" x="1223.8225" y="-414.5" font-family="Helvetica,sans-Serif" font-size="10.00" fill="#000000">drawIndicator</text>
</a>
</g>
</g>
<!-- Node3&#45;&gt;Node7 -->
<g id="edge6" class="edge">
<title>Node3&#45;&gt;Node7</title>
<path fill="none" stroke="#191970" d="M1129.8006,-396.5116C1139.0615,-399.1699 1148.7404,-401.9482 1158.2176,-404.6685"/>
<polygon fill="#191970" stroke="#191970" points="1157.4173,-408.0801 1167.9948,-407.475 1159.3486,-401.3518 1157.4173,-408.0801"/>
</g>
<!-- Node8 -->
<g id="node8" class="node">
<title>Node8</title>
<g id="a_node8"><a xlink:href="class_l_f_s_t_k__gadget_class_a7f44f781b167d66c5d6f4cc862a7e2db.xhtml#a7f44f781b167d66c5d6f4cc862a7e2db" target="_top" xlink:title=" ">
<polygon fill="none" stroke="#000000" points="1166.921,-458.5 1166.921,-490.5 1280.724,-490.5 1280.724,-458.5 1166.921,-458.5"/>
<text text-anchor="start" x="1174.921" y="-477.5" font-family="Helvetica,sans-Serif" font-size="10.00" fill="#000000">LFSTK_gadgetClass::</text>
<text text-anchor="middle" x="1223.8225" y="-465.5" font-family="Helvetica,sans-Serif" font-size="10.00" fill="#000000">drawLabel</text>
</a>
</g>
</g>
<!-- Node3&#45;&gt;Node8 -->
<g id="edge8" class="edge">
<title>Node3&#45;&gt;Node8</title>
<path fill="none" stroke="#191970" d="M1093.067,-396.652C1111.2524,-411.5756 1139.8224,-433.7534 1166.921,-449.5 1169.542,-451.023 1172.273,-452.5128 1175.0583,-453.9584"/>
<polygon fill="#191970" stroke="#191970" points="1173.5548,-457.1195 1184.0707,-458.4111 1176.6555,-450.8436 1173.5548,-457.1195"/>
</g>
<!-- Node7&#45;&gt;Node5 -->
<g id="edge7" class="edge">
<title>Node7&#45;&gt;Node5</title>
<path fill="none" stroke="#191970" d="M1281.1057,-416.0371C1292.9825,-414.4897 1305.5981,-412.8462 1317.7935,-411.2573"/>
<polygon fill="#191970" stroke="#191970" points="1318.4492,-414.7016 1327.9132,-409.9389 1317.5448,-407.7602 1318.4492,-414.7016"/>
</g>
<!-- Node9 -->
<g id="node9" class="node">
<title>Node9</title>
<g id="a_node9"><a xlink:href="class_l_f_s_t_k__lib_ab2f14a3414f7db863682d1e2fa0cfb75.xhtml#ab2f14a3414f7db863682d1e2fa0cfb75" target="_top" xlink:title=" ">
<polygon fill="none" stroke="#000000" points="1316.724,-440.5 1316.724,-460.5 1453.3,-460.5 1453.3,-440.5 1316.724,-440.5"/>
<text text-anchor="middle" x="1385.012" y="-447.5" font-family="Helvetica,sans-Serif" font-size="10.00" fill="#000000">LFSTK_lib::bestFontColour</text>
</a>
</g>
</g>
<!-- Node8&#45;&gt;Node9 -->
<g id="edge9" class="edge">
<title>Node8&#45;&gt;Node9</title>
<path fill="none" stroke="#191970" d="M1281.1057,-465.9709C1289.7185,-464.6885 1298.7198,-463.3483 1307.6677,-462.016"/>
<polygon fill="#191970" stroke="#191970" points="1308.3483,-465.4534 1317.7238,-460.5188 1307.3173,-458.5297 1308.3483,-465.4534"/>
</g>
<!-- Node10 -->
<g id="node10" class="node">
<title>Node10</title>
<g id="a_node10"><a xlink:href="class_l_f_s_t_k__gadget_class_a091281ba03eaeb31bc7507c74b9b4f2f.xhtml#a091281ba03eaeb31bc7507c74b9b4f2f" target="_top" xlink:title=" ">
<polygon fill="none" stroke="#000000" points="1327.556,-479.5 1327.556,-511.5 1442.468,-511.5 1442.468,-479.5 1327.556,-479.5"/>
<text text-anchor="start" x="1335.556" y="-498.5" font-family="Helvetica,sans-Serif" font-size="10.00" fill="#000000">LFSTK_gadgetClass::</text>
<text text-anchor="middle" x="1385.012" y="-486.5" font-family="Helvetica,sans-Serif" font-size="10.00" fill="#000000">LFSTK_getTextHeight</text>
</a>
</g>
</g>
<!-- Node8&#45;&gt;Node10 -->
<g id="edge10" class="edge">
<title>Node8&#45;&gt;Node10</title>
<path fill="none" stroke="#191970" d="M1281.1057,-481.9629C1292.8411,-483.4918 1305.2979,-485.1147 1317.3577,-486.6859"/>
<polygon fill="#191970" stroke="#191970" points="1317.0017,-490.169 1327.3701,-487.9903 1317.9061,-483.2277 1317.0017,-490.169"/>
</g>
<!-- Node11&#45;&gt;Node2 -->
<g id="edge12" class="edge">
<title>Node11&#45;&gt;Node2</title>
<path fill="none" stroke="#191970" d="M831.4848,-384.5C839.755,-384.5 848.3141,-384.5 856.7374,-384.5"/>
<polygon fill="#191970" stroke="#191970" points="856.9159,-388.0001 866.9159,-384.5 856.9158,-381.0001 856.9159,-388.0001"/>
</g>
<!-- Node14 -->
<g id="node14" class="node">
<title>Node14</title>
<g id="a_node14"><a xlink:href="class_l_f_s_t_k__lib_ad794f7ab3a4ca5a03adbb0472fa93788.xhtml#ad794f7ab3a4ca5a03adbb0472fa93788" target="_top" xlink:title=" ">
<polygon fill="none" stroke="#000000" points="348.484,-201.5 348.484,-245.5 475.053,-245.5 475.053,-201.5 348.484,-201.5"/>
<text text-anchor="start" x="356.484" y="-232.5" font-family="Helvetica,sans-Serif" font-size="10.00" fill="#000000">LFSTK_lib::LFSTK_cairo</text>
<text text-anchor="start" x="356.484" y="-220.5" font-family="Helvetica,sans-Serif" font-size="10.00" fill="#000000">_image_surface_create</text>
<text text-anchor="middle" x="411.7685" y="-208.5" font-family="Helvetica,sans-Serif" font-size="10.00" fill="#000000">_from_jpeg</text>
</a>
</g>
</g>
<!-- Node13&#45;&gt;Node14 -->
<g id="edge15" class="edge">
<title>Node13&#45;&gt;Node14</title>
<path fill="none" stroke="#191970" d="M303.5262,-221.6685C314.9569,-221.8619 326.8452,-222.063 338.3782,-222.2582"/>
<polygon fill="#191970" stroke="#191970" points="338.3435,-225.758 348.4013,-222.4278 338.462,-218.759 338.3435,-225.758"/>
</g>
<!-- Node16 -->
<g id="node16" class="node">
<title>Node16</title>
<g id="a_node16"><a xlink:href="class_l_f_s_t_k__gadget_class_a23bc2dc7b8200df4dc74f1f68460eca2.xhtml#a23bc2dc7b8200df4dc74f1f68460eca2" target="_top" xlink:title=" ">
<polygon fill="none" stroke="#000000" points="354.867,-150.5 354.867,-182.5 468.67,-182.5 468.67,-150.5 354.867,-150.5"/>
<text text-anchor="start" x="362.867" y="-169.5" font-family="Helvetica,sans-Serif" font-size="10.00" fill="#000000">LFSTK_gadgetClass::</text>
<text text-anchor="middle" x="411.7685" y="-157.5" font-family="Helvetica,sans-Serif" font-size="10.00" fill="#000000">LFSTK_getTextWidth</text>
</a>
</g>
</g>
<!-- Node13&#45;&gt;Node16 -->
<g id="edge17" class="edge">
<title>Node13&#45;&gt;Node16</title>
<path fill="none" stroke="#191970" d="M287.1857,-204.4444C306.6598,-198.5132 328.9188,-191.7337 349.1833,-185.5617"/>
<polygon fill="#191970" stroke="#191970" points="350.4039,-188.8488 358.9502,-182.587 348.3643,-182.1525 350.4039,-188.8488"/>
</g>
<!-- Node15 -->
<g id="node15" class="node">
<title>Node15</title>
<g id="a_node15"><a xlink:href="class_l_f_s_t_k__lib_a6beac3954823730f63c32a97949db52a.xhtml#a6beac3954823730f63c32a97949db52a" target="_top" xlink:title=" ">
<polygon fill="none" stroke="#000000" points="513.278,-136.5 513.278,-168.5 678.752,-168.5 678.752,-136.5 513.278,-136.5"/>
<text text-anchor="start" x="521.278" y="-155.5" font-family="Helvetica,sans-Serif" font-size="10.00" fill="#000000">LFSTK_lib::cairo_image</text>
<text text-anchor="middle" x="596.015" y="-143.5" font-family="Helvetica,sans-Serif" font-size="10.00" fill="#000000">_surface_create_from_jpeg_mem</text>
</a>
</g>
</g>
<!-- Node14&#45;&gt;Node15 -->
<g id="edge16" class="edge">
<title>Node14&#45;&gt;Node15</title>
<path fill="none" stroke="#191970" d="M467.2844,-201.4284C482.2003,-195.5517 498.3374,-189.2422 513.278,-183.5 522.9349,-179.7885 533.2462,-175.8809 543.1969,-172.1382"/>
<polygon fill="#191970" stroke="#191970" points="544.4606,-175.4024 552.5935,-168.6122 542.0013,-168.8486 544.4606,-175.4024"/>
</g>
<!-- Node17&#45;&gt;Node16 -->
<g id="edge19" class="edge">
<title>Node17&#45;&gt;Node16</title>
<path fill="none" stroke="#191970" d="M310.4324,-168.2147C321.8019,-168.0223 333.4558,-167.8251 344.6249,-167.6361"/>
<polygon fill="#191970" stroke="#191970" points="344.7847,-171.134 354.724,-167.4652 344.6662,-164.135 344.7847,-171.134"/>
</g>
<!-- Node18&#45;&gt;Node2 -->
<g id="edge21" class="edge">
<title>Node18&#45;&gt;Node2</title>
<path fill="none" stroke="#191970" d="M291.4747,-428.4033C308.9122,-432.5498 328.2448,-436.4327 346.259,-438.5 482.3674,-454.1197 828.9813,-410.9148 831.315,-410.5 841.9201,-408.615 853.06,-406.0362 863.7966,-403.2312"/>
<polygon fill="#191970" stroke="#191970" points="864.7756,-406.5923 873.5165,-400.6049 862.9497,-399.8346 864.7756,-406.5923"/>
</g>
<!-- Node19 -->
<g id="node19" class="node">
<title>Node19</title>
<g id="a_node19"><a xlink:href="class_l_f_s_t_k__gadget_class_a6ba306176db18f16e2a034c875f53de0.xhtml#a6ba306176db18f16e2a034c875f53de0" target="_top" xlink:title=" ">
<polygon fill="none" stroke="#000000" points="346.259,-396.5 346.259,-428.5 477.278,-428.5 477.278,-396.5 346.259,-396.5"/>
<text text-anchor="start" x="354.259" y="-415.5" font-family="Helvetica,sans-Serif" font-size="10.00" fill="#000000">LFSTK_gadgetClass::</text>
<text text-anchor="middle" x="411.7685" y="-403.5" font-family="Helvetica,sans-Serif" font-size="10.00" fill="#000000">LFSTK_setCairoFontData</text>
</a>
</g>
</g>
<!-- Node18&#45;&gt;Node19 -->
<g id="edge22" class="edge">
<title>Node18&#45;&gt;Node19</title>
<path fill="none" stroke="#191970" d="M291.5446,-412.5C305.6915,-412.5 321.0725,-412.5 335.9599,-412.5"/>
<polygon fill="#191970" stroke="#191970" points="336.1665,-416.0001 346.1665,-412.5 336.1664,-409.0001 336.1665,-416.0001"/>
</g>
<!-- Node23 -->
<g id="node23" class="node">
<title>Node23</title>
<g id="a_node23"><a xlink:href="class_l_f_s_t_k__scroll_bar_class_a3e47c5f9944ddb2a861b80853f85ce12.xhtml#a3e47c5f9944ddb2a861b80853f85ce12" target="_top" xlink:title=" ">
<polygon fill="none" stroke="#000000" points="353.4915,-286.5 353.4915,-318.5 470.0455,-318.5 470.0455,-286.5 353.4915,-286.5"/>
<text text-anchor="start" x="361.4915" y="-305.5" font-family="Helvetica,sans-Serif" font-size="10.00" fill="#000000">LFSTK_scrollBarClass</text>
<text text-anchor="middle" x="411.7685" y="-293.5" font-family="Helvetica,sans-Serif" font-size="10.00" fill="#000000">::setState</text>
</a>
</g>
</g>
<!-- Node22&#45;&gt;Node23 -->
<g id="edge26" class="edge">
<title>Node22&#45;&gt;Node23</title>
<path fill="none" stroke="#191970" d="M293.0159,-315.8958C309.0534,-314.0867 326.5826,-312.1093 343.1303,-310.2427"/>
<polygon fill="#191970" stroke="#191970" points="343.74,-313.6962 353.2846,-309.0972 342.9553,-306.7403 343.74,-313.6962"/>
</g>
<!-- Node24 -->
<g id="node24" class="node">
<title>Node24</title>
<g id="a_node24"><a xlink:href="class_l_f_s_t_k__scroll_bar_class_a6a4b0d2c9217779bb3bc0b4c936130ce.xhtml#a6a4b0d2c9217779bb3bc0b4c936130ce" target="_top" xlink:title=" ">
<polygon fill="none" stroke="#000000" points="714.7565,-214.5 714.7565,-246.5 831.3105,-246.5 831.3105,-214.5 714.7565,-214.5"/>
<text text-anchor="start" x="722.7565" y="-233.5" font-family="Helvetica,sans-Serif" font-size="10.00" fill="#000000">LFSTK_scrollBarClass</text>
<text text-anchor="middle" x="773.0335" y="-221.5" font-family="Helvetica,sans-Serif" font-size="10.00" fill="#000000">::LFSTK_clearWindow</text>
</a>
</g>
</g>
<!-- Node23&#45;&gt;Node24 -->
<g id="edge27" class="edge">
<title>Node23&#45;&gt;Node24</title>
<path fill="none" stroke="#191970" d="M427.0304,-286.3645C452.9622,-264.5689 503.7503,-229.4611 513.278,-226.5 575.8971,-207.0389 651.1659,-208.0689 704.5224,-214.2411"/>
<polygon fill="#191970" stroke="#191970" points="704.1997,-217.7279 714.5564,-215.4944 705.0674,-210.7818 704.1997,-217.7279"/>
</g>
<!-- Node25 -->
<g id="node25" class="node">
<title>Node25</title>
<g id="a_node25"><a xlink:href="class_l_f_s_t_k__gadget_class_a71d34233c5db545e92d37c0e3139459b.xhtml#a71d34233c5db545e92d37c0e3139459b" target="_top" xlink:title=" ">
<polygon fill="none" stroke="#000000" points="539.1135,-295.5 539.1135,-327.5 652.9165,-327.5 652.9165,-295.5 539.1135,-295.5"/>
<text text-anchor="start" x="547.1135" y="-314.5" font-family="Helvetica,sans-Serif" font-size="10.00" fill="#000000">LFSTK_gadgetClass::</text>
<text text-anchor="middle" x="596.015" y="-302.5" font-family="Helvetica,sans-Serif" font-size="10.00" fill="#000000">LFSTK_getGeom</text>
</a>
</g>
</g>
<!-- Node23&#45;&gt;Node25 -->
<g id="edge31" class="edge">
<title>Node23&#45;&gt;Node25</title>
<path fill="none" stroke="#191970" d="M470.0652,-305.3477C488.7427,-306.26 509.5743,-307.2776 528.8332,-308.2183"/>
<polygon fill="#191970" stroke="#191970" points="528.8841,-311.7249 539.043,-308.7171 529.2257,-304.7332 528.8841,-311.7249"/>
</g>
<!-- Node26 -->
<g id="node26" class="node">
<title>Node26</title>
<g id="a_node26"><a xlink:href="class_l_f_s_t_k__gadget_class_aeeb028f96b71fa161ec195880106a936.xhtml#aeeb028f96b71fa161ec195880106a936" target="_top" xlink:title=" ">
<polygon fill="none" stroke="#000000" points="539.1135,-244.5 539.1135,-276.5 652.9165,-276.5 652.9165,-244.5 539.1135,-244.5"/>
<text text-anchor="start" x="547.1135" y="-263.5" font-family="Helvetica,sans-Serif" font-size="10.00" fill="#000000">LFSTK_gadgetClass::</text>
<text text-anchor="middle" x="596.015" y="-251.5" font-family="Helvetica,sans-Serif" font-size="10.00" fill="#000000">LFSTK_getLimits</text>
</a>
</g>
</g>
<!-- Node23&#45;&gt;Node26 -->
<g id="edge32" class="edge">
<title>Node23&#45;&gt;Node26</title>
<path fill="none" stroke="#191970" d="M470.0652,-289.2109C488.8287,-284.9337 509.7663,-280.1609 529.0993,-275.7538"/>
<polygon fill="#191970" stroke="#191970" points="530.071,-279.1222 539.043,-273.4871 528.5151,-272.2972 530.071,-279.1222"/>
</g>
<!-- Node27 -->
<g id="node27" class="node">
<title>Node27</title>
<g id="a_node27"><a xlink:href="class_l_f_s_t_k__gadget_class_a7e3ef253af08c0796f73de1366cf2d08.xhtml#a7e3ef253af08c0796f73de1366cf2d08" target="_top" xlink:title=" ">
<polygon fill="none" stroke="#000000" points="539.1135,-346.5 539.1135,-378.5 652.9165,-378.5 652.9165,-346.5 539.1135,-346.5"/>
<text text-anchor="start" x="547.1135" y="-365.5" font-family="Helvetica,sans-Serif" font-size="10.00" fill="#000000">LFSTK_gadgetClass::</text>
<text text-anchor="middle" x="596.015" y="-353.5" font-family="Helvetica,sans-Serif" font-size="10.00" fill="#000000">LFSTK_moveGadget</text>
</a>
</g>
</g>
<!-- Node23&#45;&gt;Node27 -->
<g id="edge33" class="edge">
<title>Node23&#45;&gt;Node27</title>
<path fill="none" stroke="#191970" d="M457.1213,-318.5559C474.6196,-324.6406 494.8314,-331.5354 513.278,-337.5 519.2746,-339.439 525.5306,-341.4146 531.7994,-343.3628"/>
<polygon fill="#191970" stroke="#191970" points="531.0382,-346.7906 541.6255,-346.3922 533.1006,-340.1013 531.0382,-346.7906"/>
</g>
<!-- Node24&#45;&gt;Node2 -->
<g id="edge29" class="edge">
<title>Node24&#45;&gt;Node2</title>
<path fill="none" stroke="#191970" d="M788.927,-246.6896C815.6246,-273.8847 869.5989,-328.8647 900.6978,-360.5431"/>
<polygon fill="#191970" stroke="#191970" points="898.5778,-363.3797 908.0809,-368.0638 903.573,-358.4758 898.5778,-363.3797"/>
</g>
<!-- Node24&#45;&gt;Node4 -->
<g id="edge28" class="edge">
<title>Node24&#45;&gt;Node4</title>
<path fill="none" stroke="#191970" d="M831.5041,-236.3368C915.1455,-244.6863 1068.5577,-260.0007 1156.7202,-268.8015"/>
<polygon fill="#191970" stroke="#191970" points="1156.5788,-272.3047 1166.877,-269.8154 1157.2742,-265.3393 1156.5788,-272.3047"/>
</g>
<!-- Node24&#45;&gt;Node23 -->
<g id="edge30" class="edge">
<title>Node24&#45;&gt;Node23</title>
<path fill="none" stroke="#191970" d="M714.5564,-229.5184C660.9205,-226.2868 579.9328,-223.7846 513.278,-244.5 506.4462,-246.6232 478.4002,-265.2748 453.5154,-281.0249"/>
<polygon fill="#191970" stroke="#191970" points="451.4934,-278.1617 444.8851,-286.4431 455.2154,-284.0902 451.4934,-278.1617"/>
</g>
<!-- Node27&#45;&gt;Node11 -->
<g id="edge34" class="edge">
<title>Node27&#45;&gt;Node11</title>
<path fill="none" stroke="#191970" d="M652.9992,-369.582C669.3205,-371.6105 687.2869,-373.8434 704.2372,-375.9499"/>
<polygon fill="#191970" stroke="#191970" points="704.2807,-379.4822 714.6361,-377.2423 705.1441,-372.5356 704.2807,-379.4822"/>
</g>
</g>
</svg>
