<?xml version="1.0" encoding="UTF-8" standalone="no"?>
<!DOCTYPE svg PUBLIC "-//W3C//DTD SVG 1.1//EN"
 "http://www.w3.org/Graphics/SVG/1.1/DTD/svg11.dtd">
<!-- Generated by graphviz version 2.40.1 (20161225.0304)
 -->
<!-- Title: LFSTK_fontDialogClass Pages: 1 -->
<svg width="1609pt" height="574pt"
 viewBox="0.00 0.00 1608.72 574.38" xmlns="http://www.w3.org/2000/svg" xmlns:xlink="http://www.w3.org/1999/xlink">
<g id="graph0" class="graph" transform="scale(1 1) rotate(0) translate(4 570.3803)">
<title>LFSTK_fontDialogClass</title>
<!-- Node1 -->
<g id="node1" class="node">
<title>Node1</title>
<g id="a_node1"><a xlink:title="Font dialog class for LFSToolKit.">
<polygon fill="#bfbfbf" stroke="#000000" points="1478.037,-325.3803 1478.037,-345.3803 1600.718,-345.3803 1600.718,-325.3803 1478.037,-325.3803"/>
<text text-anchor="middle" x="1539.3775" y="-332.3803" font-family="Helvetica,sans-Serif" font-size="10.00" fill="#000000">LFSTK_fontDialogClass</text>
</a>
</g>
</g>
<!-- Node2 -->
<g id="node2" class="node">
<title>Node2</title>
<g id="a_node2"><a xlink:href="class_l_f_s_t_k__gadget_class.xhtml" target="_top" xlink:title="Base class for LFSToolKit gadgets.">
<polygon fill="none" stroke="#000000" points="556.694,-331.3803 556.694,-351.3803 664.939,-351.3803 664.939,-331.3803 556.694,-331.3803"/>
<text text-anchor="middle" x="610.8165" y="-338.3803" font-family="Helvetica,sans-Serif" font-size="10.00" fill="#000000">LFSTK_gadgetClass</text>
</a>
</g>
</g>
<!-- Node2&#45;&gt;Node1 -->
<g id="edge1" class="edge">
<title>Node2&#45;&gt;Node1</title>
<path fill="none" stroke="#191970" d="M642.7884,-355.1259C655.112,-359.8308 669.4638,-364.6041 682.939,-367.3803 812.8192,-394.1386 848.1555,-385.3803 980.7635,-385.3803 980.7635,-385.3803 980.7635,-385.3803 1327.356,-385.3803 1396.1866,-385.3803 1474.3111,-360.1087 1513.7256,-345.4985"/>
<polygon fill="#191970" stroke="#191970" points="643.9816,-351.8341 633.3954,-351.4068 641.4046,-358.3425 643.9816,-351.8341"/>
</g>
<!-- Node7 -->
<g id="node7" class="node">
<title>Node7</title>
<g id="a_node7"><a xlink:href="class_l_f_s_t_k__window_class.xhtml" target="_top" xlink:title="Window class for LFSToolKit.">
<polygon fill="none" stroke="#000000" points="784.854,-110.3803 784.854,-130.3803 895.859,-130.3803 895.859,-110.3803 784.854,-110.3803"/>
<text text-anchor="middle" x="840.3565" y="-117.3803" font-family="Helvetica,sans-Serif" font-size="10.00" fill="#000000">LFSTK_windowClass</text>
</a>
</g>
</g>
<!-- Node2&#45;&gt;Node7 -->
<g id="edge10" class="edge">
<title>Node2&#45;&gt;Node7</title>
<path fill="none" stroke="#9a32cd" stroke-dasharray="5,2" d="M620.2244,-321.9876C631.9365,-299.8302 653.9816,-263.9836 682.939,-243.3803 714.7528,-220.7447 734.8825,-239.7926 766.854,-217.3803 800.4186,-193.8512 825.3228,-150.2782 835.4171,-130.5527"/>
<polygon fill="#9a32cd" stroke="#9a32cd" points="617.0026,-320.6015 615.5826,-331.1007 623.2401,-323.7786 617.0026,-320.6015"/>
<text text-anchor="middle" x="724.8965" y="-258.3803" font-family="Helvetica,sans-Serif" font-size="10.00" fill="#000000"> dropGadget</text>
<text text-anchor="middle" x="724.8965" y="-246.3803" font-family="Helvetica,sans-Serif" font-size="10.00" fill="#000000">popupFromGadget</text>
</g>
<!-- Node12 -->
<g id="node12" class="node">
<title>Node12</title>
<g id="a_node12"><a xlink:href="structmapped_listener.xhtml" target="_top" xlink:title=" ">
<polygon fill="none" stroke="#000000" points="796.513,-334.3803 796.513,-354.3803 884.2,-354.3803 884.2,-334.3803 796.513,-334.3803"/>
<text text-anchor="middle" x="840.3565" y="-341.3803" font-family="Helvetica,sans-Serif" font-size="10.00" fill="#000000">mappedListener</text>
</a>
</g>
</g>
<!-- Node2&#45;&gt;Node12 -->
<g id="edge16" class="edge">
<title>Node2&#45;&gt;Node12</title>
<path fill="none" stroke="#9a32cd" stroke-dasharray="5,2" d="M675.2246,-348.8832C677.8283,-349.0729 680.4075,-349.2403 682.939,-349.3803 720.1777,-351.4393 729.5799,-350.6466 766.854,-349.3803 776.4412,-349.0546 786.7197,-348.4906 796.4615,-347.8558"/>
<polygon fill="#9a32cd" stroke="#9a32cd" points="675.3619,-345.3828 665.1089,-348.0523 674.7888,-352.3593 675.3619,-345.3828"/>
<text text-anchor="middle" x="724.8965" y="-354.3803" font-family="Helvetica,sans-Serif" font-size="10.00" fill="#000000"> gadget</text>
</g>
<!-- Node14 -->
<g id="node14" class="node">
<title>Node14</title>
<g id="a_node14"><a xlink:href="class_l_f_s_t_k__line_edit_class.xhtml" target="_top" xlink:title="Line edit class for LFSToolKit.">
<polygon fill="none" stroke="#000000" points="785.13,-254.3803 785.13,-274.3803 895.583,-274.3803 895.583,-254.3803 785.13,-254.3803"/>
<text text-anchor="middle" x="840.3565" y="-261.3803" font-family="Helvetica,sans-Serif" font-size="10.00" fill="#000000">LFSTK_lineEditClass</text>
</a>
</g>
</g>
<!-- Node2&#45;&gt;Node14 -->
<g id="edge21" class="edge">
<title>Node2&#45;&gt;Node14</title>
<path fill="none" stroke="#191970" d="M630.4868,-324.6375C644.2926,-313.7718 663.6636,-300.2225 682.939,-292.3803 715.3359,-279.1996 753.9763,-272.2107 784.8661,-268.5115"/>
<polygon fill="#191970" stroke="#191970" points="628.2252,-321.9653 622.6605,-330.9812 632.633,-327.4033 628.2252,-321.9653"/>
</g>
<!-- Node15 -->
<g id="node15" class="node">
<title>Node15</title>
<g id="a_node15"><a xlink:href="class_l_f_s_t_k__toggle_button_class.xhtml" target="_top" xlink:title="Toglle button class for LFSToolKit.">
<polygon fill="none" stroke="#000000" points="913.859,-314.3803 913.859,-334.3803 1047.668,-334.3803 1047.668,-314.3803 913.859,-314.3803"/>
<text text-anchor="middle" x="980.7635" y="-321.3803" font-family="Helvetica,sans-Serif" font-size="10.00" fill="#000000">LFSTK_toggleButtonClass</text>
</a>
</g>
</g>
<!-- Node2&#45;&gt;Node15 -->
<g id="edge24" class="edge">
<title>Node2&#45;&gt;Node15</title>
<path fill="none" stroke="#191970" d="M675.2374,-333.1921C677.8376,-332.9089 680.4126,-332.6369 682.939,-332.3803 728.1412,-327.7883 739.454,-326.1594 784.854,-324.3803 827.6763,-322.7021 875.8042,-322.6759 913.6414,-323.082"/>
<polygon fill="#191970" stroke="#191970" points="674.6769,-329.733 665.1322,-334.3319 675.4615,-336.6889 674.6769,-329.733"/>
</g>
<!-- Node17 -->
<g id="node17" class="node">
<title>Node17</title>
<g id="a_node17"><a xlink:href="class_l_f_s_t_k__button_class.xhtml" target="_top" xlink:title="Basic button class for LFSToolKit.">
<polygon fill="none" stroke="#000000" points="787.624,-473.3803 787.624,-493.3803 893.089,-493.3803 893.089,-473.3803 787.624,-473.3803"/>
<text text-anchor="middle" x="840.3565" y="-480.3803" font-family="Helvetica,sans-Serif" font-size="10.00" fill="#000000">LFSTK_buttonClass</text>
</a>
</g>
</g>
<!-- Node2&#45;&gt;Node17 -->
<g id="edge27" class="edge">
<title>Node2&#45;&gt;Node17</title>
<path fill="none" stroke="#191970" d="M620.2666,-360.4565C632.0186,-382.2366 654.1014,-417.4224 682.939,-437.3803 713.9602,-458.8494 755.0398,-470.4175 787.4555,-476.5823"/>
<polygon fill="#191970" stroke="#191970" points="623.3258,-358.753 615.6069,-351.4957 617.1153,-361.9826 623.3258,-358.753"/>
</g>
<!-- Node18 -->
<g id="node18" class="node">
<title>Node18</title>
<g id="a_node18"><a xlink:href="class_l_f_s_t_k__list_gadget_class.xhtml" target="_top" xlink:title="List class for LFSToolKit.">
<polygon fill="none" stroke="#000000" points="1266.015,-514.3803 1266.015,-534.3803 1388.697,-534.3803 1388.697,-514.3803 1266.015,-514.3803"/>
<text text-anchor="middle" x="1327.356" y="-521.3803" font-family="Helvetica,sans-Serif" font-size="10.00" fill="#000000">LFSTK_listGadgetClass</text>
</a>
</g>
</g>
<!-- Node2&#45;&gt;Node18 -->
<g id="edge29" class="edge">
<title>Node2&#45;&gt;Node18</title>
<path fill="none" stroke="#191970" d="M624.1323,-359.7809C637.0966,-376.0609 658.3967,-398.8219 682.939,-409.3803 914.0099,-508.7899 1019.6038,-336.0031 1248.015,-441.3803 1282.5876,-457.3303 1309.737,-495.6823 1321.295,-514.1297"/>
<polygon fill="#191970" stroke="#191970" points="626.6732,-357.3416 617.8199,-351.5218 621.1116,-361.5923 626.6732,-357.3416"/>
</g>
<!-- Node19 -->
<g id="node19" class="node">
<title>Node19</title>
<g id="a_node19"><a xlink:href="class_l_f_s_t_k__scroll_bar_class.xhtml" target="_top" xlink:title="Scrollbar class for LFSToolKit.">
<polygon fill="none" stroke="#000000" points="1065.668,-490.3803 1065.668,-510.3803 1182.222,-510.3803 1182.222,-490.3803 1065.668,-490.3803"/>
<text text-anchor="middle" x="1123.945" y="-497.3803" font-family="Helvetica,sans-Serif" font-size="10.00" fill="#000000">LFSTK_scrollBarClass</text>
</a>
</g>
</g>
<!-- Node2&#45;&gt;Node19 -->
<g id="edge31" class="edge">
<title>Node2&#45;&gt;Node19</title>
<path fill="none" stroke="#191970" d="M616.8888,-361.213C626.4643,-389.2537 647.6981,-440.3041 682.939,-469.3803 809.9459,-574.1696 886.6176,-568.6488 1047.668,-534.3803 1069.2232,-529.7937 1092.0722,-518.6674 1107.0796,-510.3842"/>
<polygon fill="#191970" stroke="#191970" points="620.2106,-360.1102 613.7848,-351.6865 613.555,-362.2788 620.2106,-360.1102"/>
</g>
<!-- Node3 -->
<g id="node3" class="node">
<title>Node3</title>
<g id="a_node3"><a xlink:href="structgadget_struct.xhtml" target="_top" xlink:title=" ">
<polygon fill="none" stroke="#000000" points="348.2335,-286.3803 348.2335,-306.3803 420.9225,-306.3803 420.9225,-286.3803 348.2335,-286.3803"/>
<text text-anchor="middle" x="384.578" y="-293.3803" font-family="Helvetica,sans-Serif" font-size="10.00" fill="#000000">gadgetStruct</text>
</a>
</g>
</g>
<!-- Node3&#45;&gt;Node2 -->
<g id="edge2" class="edge">
<title>Node3&#45;&gt;Node2</title>
<path fill="none" stroke="#9a32cd" stroke-dasharray="5,2" d="M431.0699,-300.4416C461.8663,-303.687 503.0108,-309.088 538.694,-317.3803 554.1186,-320.9647 570.9299,-326.4622 584.4386,-331.2916"/>
<polygon fill="#9a32cd" stroke="#9a32cd" points="431.3482,-296.9519 421.0455,-299.4226 430.6402,-303.916 431.3482,-296.9519"/>
<text text-anchor="middle" x="490.0825" y="-320.3803" font-family="Helvetica,sans-Serif" font-size="10.00" fill="#000000"> gadgetDetails</text>
</g>
<!-- Node4 -->
<g id="node4" class="node">
<title>Node4</title>
<g id="a_node4"><a xlink:href="structgeometry_struct.xhtml" target="_top" xlink:title=" ">
<polygon fill="none" stroke="#000000" points="158.11,-286.3803 158.11,-306.3803 241.898,-306.3803 241.898,-286.3803 158.11,-286.3803"/>
<text text-anchor="middle" x="200.004" y="-293.3803" font-family="Helvetica,sans-Serif" font-size="10.00" fill="#000000">geometryStruct</text>
</a>
</g>
</g>
<!-- Node4&#45;&gt;Node2 -->
<g id="edge6" class="edge">
<title>Node4&#45;&gt;Node2</title>
<path fill="none" stroke="#9a32cd" stroke-dasharray="5,2" d="M225.7575,-311.1041C236.0467,-316.2617 248.2115,-321.485 259.898,-324.3803 362.4705,-349.7922 486.9306,-348.5947 556.6748,-345.1654"/>
<polygon fill="#9a32cd" stroke="#9a32cd" points="227.3838,-308.005 216.903,-306.4548 224.1295,-314.2026 227.3838,-308.005"/>
<text text-anchor="middle" x="384.578" y="-349.3803" font-family="Helvetica,sans-Serif" font-size="10.00" fill="#000000"> gadgetGeom</text>
</g>
<!-- Node4&#45;&gt;Node3 -->
<g id="edge3" class="edge">
<title>Node4&#45;&gt;Node3</title>
<path fill="none" stroke="#9a32cd" stroke-dasharray="5,2" d="M252.4051,-296.3803C282.9489,-296.3803 320.7103,-296.3803 348.0398,-296.3803"/>
<polygon fill="#9a32cd" stroke="#9a32cd" points="252.349,-292.8804 242.349,-296.3803 252.349,-299.8804 252.349,-292.8804"/>
<text text-anchor="middle" x="293.7915" y="-311.3803" font-family="Helvetica,sans-Serif" font-size="10.00" fill="#000000"> indicatorGeom</text>
<text text-anchor="middle" x="293.7915" y="-299.3803" font-family="Helvetica,sans-Serif" font-size="10.00" fill="#000000">gadgetGeom</text>
</g>
<!-- Node4&#45;&gt;Node7 -->
<g id="edge8" class="edge">
<title>Node4&#45;&gt;Node7</title>
<path fill="none" stroke="#9a32cd" stroke-dasharray="5,2" d="M242.2781,-283.2723C355.8936,-248.064 660.7778,-153.7261 682.939,-148.3803 716.3996,-140.3088 754.3785,-133.4872 784.6479,-128.5984"/>
<polygon fill="#9a32cd" stroke="#9a32cd" points="241.0423,-279.991 232.5267,-286.2945 243.1146,-286.6773 241.0423,-279.991"/>
<text text-anchor="middle" x="490.0825" y="-225.3803" font-family="Helvetica,sans-Serif" font-size="10.00" fill="#000000"> windowGeom</text>
</g>
<!-- Node5 -->
<g id="node5" class="node">
<title>Node5</title>
<g id="a_node5"><a xlink:href="structcolour_struct.xhtml" target="_top" xlink:title=" ">
<polygon fill="none" stroke="#000000" points="165.334,-160.3803 165.334,-180.3803 234.674,-180.3803 234.674,-160.3803 165.334,-160.3803"/>
<text text-anchor="middle" x="200.004" y="-167.3803" font-family="Helvetica,sans-Serif" font-size="10.00" fill="#000000">colourStruct</text>
</a>
</g>
</g>
<!-- Node5&#45;&gt;Node2 -->
<g id="edge18" class="edge">
<title>Node5&#45;&gt;Node2</title>
<path fill="none" stroke="#9a32cd" stroke-dasharray="5,2" d="M244.8055,-167.9201C313.7636,-166.3262 447.4793,-172.1415 538.694,-232.3803 576.374,-257.2644 599.0543,-309.3262 607.2862,-331.2763"/>
<polygon fill="#9a32cd" stroke="#9a32cd" points="244.6046,-164.4244 234.7122,-168.2178 244.811,-171.4213 244.6046,-164.4244"/>
<text text-anchor="middle" x="384.578" y="-211.3803" font-family="Helvetica,sans-Serif" font-size="10.00" fill="#000000"> labelBGColour</text>
<text text-anchor="middle" x="384.578" y="-199.3803" font-family="Helvetica,sans-Serif" font-size="10.00" fill="#000000">colourNames</text>
<text text-anchor="middle" x="384.578" y="-187.3803" font-family="Helvetica,sans-Serif" font-size="10.00" fill="#000000">fontColourNames</text>
</g>
<!-- Node5&#45;&gt;Node3 -->
<g id="edge4" class="edge">
<title>Node5&#45;&gt;Node3</title>
<path fill="none" stroke="#9a32cd" stroke-dasharray="5,2" d="M223.2952,-186.2801C261.8004,-212.5657 337.6559,-264.3488 369.7151,-286.2341"/>
<polygon fill="#9a32cd" stroke="#9a32cd" points="225.0289,-183.2258 214.7965,-180.4784 221.0822,-189.0072 225.0289,-183.2258"/>
<text text-anchor="middle" x="293.7915" y="-259.3803" font-family="Helvetica,sans-Serif" font-size="10.00" fill="#000000"> colour</text>
</g>
<!-- Node5&#45;&gt;Node7 -->
<g id="edge12" class="edge">
<title>Node5&#45;&gt;Node7</title>
<path fill="none" stroke="#9a32cd" stroke-dasharray="5,2" d="M223.913,-154.8601C279.4767,-119.9463 422.7977,-36.4685 556.694,-13.3803 649.2896,2.5863 686.1151,11.6834 766.854,-36.3803 798.491,-55.2137 823.6551,-92.362 834.5275,-110.2648"/>
<polygon fill="#9a32cd" stroke="#9a32cd" points="222.0338,-151.9073 215.466,-160.2208 225.7847,-157.8176 222.0338,-151.9073"/>
<text text-anchor="middle" x="490.0825" y="-48.3803" font-family="Helvetica,sans-Serif" font-size="10.00" fill="#000000"> windowColourNames</text>
</g>
<!-- Node5&#45;&gt;Node14 -->
<g id="edge22" class="edge">
<title>Node5&#45;&gt;Node14</title>
<path fill="none" stroke="#9a32cd" stroke-dasharray="5,2" d="M244.9975,-165.3844C250.0192,-164.9723 255.0642,-164.6218 259.898,-164.3803 289.988,-162.8769 297.564,-163.7516 327.685,-164.3803 370.2844,-165.2694 380.9182,-166.1994 423.471,-168.3803 474.7084,-171.0063 487.8071,-168.8463 538.694,-175.3803 641.2103,-188.5436 670.3814,-183.2872 766.854,-220.3803 789.2037,-228.9736 812.5136,-244.1611 826.7361,-254.2497"/>
<polygon fill="#9a32cd" stroke="#9a32cd" points="244.4441,-161.92 234.7979,-166.3018 245.0713,-168.8918 244.4441,-161.92"/>
<text text-anchor="middle" x="490.0825" y="-178.3803" font-family="Helvetica,sans-Serif" font-size="10.00" fill="#000000"> cursorColour</text>
</g>
<!-- Node6 -->
<g id="node6" class="node">
<title>Node6</title>
<g id="a_node6"><a xlink:href="structcairo_color.xhtml" target="_top" xlink:title=" ">
<polygon fill="none" stroke="#000000" points="0,-160.3803 0,-180.3803 61.551,-180.3803 61.551,-160.3803 0,-160.3803"/>
<text text-anchor="middle" x="30.7755" y="-167.3803" font-family="Helvetica,sans-Serif" font-size="10.00" fill="#000000">cairoColor</text>
</a>
</g>
</g>
<!-- Node6&#45;&gt;Node5 -->
<g id="edge5" class="edge">
<title>Node6&#45;&gt;Node5</title>
<path fill="none" stroke="#9a32cd" stroke-dasharray="5,2" d="M71.878,-170.3803C100.4045,-170.3803 137.9959,-170.3803 165.0744,-170.3803"/>
<polygon fill="#9a32cd" stroke="#9a32cd" points="71.8146,-166.8804 61.8146,-170.3803 71.8146,-173.8804 71.8146,-166.8804"/>
<text text-anchor="middle" x="109.8305" y="-173.3803" font-family="Helvetica,sans-Serif" font-size="10.00" fill="#000000"> RGBAColour</text>
</g>
<!-- Node7&#45;&gt;Node1 -->
<g id="edge19" class="edge">
<title>Node7&#45;&gt;Node1</title>
<path fill="none" stroke="#9a32cd" stroke-dasharray="5,2" d="M882.9985,-133.4958C1011.3852,-172.9841 1392.4619,-290.193 1506.6708,-325.3206"/>
<polygon fill="#9a32cd" stroke="#9a32cd" points="883.7212,-130.0563 873.1342,-130.4618 881.6633,-136.747 883.7212,-130.0563"/>
<text text-anchor="middle" x="1224.1185" y="-248.3803" font-family="Helvetica,sans-Serif" font-size="10.00" fill="#000000"> dialog</text>
</g>
<!-- Node7&#45;&gt;Node2 -->
<g id="edge7" class="edge">
<title>Node7&#45;&gt;Node2</title>
<path fill="none" stroke="#9a32cd" stroke-dasharray="5,2" d="M802.2642,-133.9641C761.211,-149.2888 699.5129,-174.5301 682.939,-193.3803 665.3969,-213.3316 675.8012,-226.1359 664.939,-250.3803 651.1101,-281.2462 629.2005,-314.7531 617.9702,-331.1592"/>
<polygon fill="#9a32cd" stroke="#9a32cd" points="803.5372,-137.2252 811.7058,-130.4781 801.1125,-130.6585 803.5372,-137.2252"/>
<text text-anchor="middle" x="724.8965" y="-208.3803" font-family="Helvetica,sans-Serif" font-size="10.00" fill="#000000"> contextWC</text>
<text text-anchor="middle" x="724.8965" y="-196.3803" font-family="Helvetica,sans-Serif" font-size="10.00" fill="#000000">wc</text>
</g>
<!-- Node8 -->
<g id="node8" class="node">
<title>Node8</title>
<g id="a_node8"><a xlink:href="structmonitor_struct.xhtml" target="_top" xlink:title=" ">
<polygon fill="none" stroke="#000000" points="573.0925,-62.3803 573.0925,-82.3803 648.5405,-82.3803 648.5405,-62.3803 573.0925,-62.3803"/>
<text text-anchor="middle" x="610.8165" y="-69.3803" font-family="Helvetica,sans-Serif" font-size="10.00" fill="#000000">monitorStruct</text>
</a>
</g>
</g>
<!-- Node8&#45;&gt;Node7 -->
<g id="edge9" class="edge">
<title>Node8&#45;&gt;Node7</title>
<path fill="none" stroke="#9a32cd" stroke-dasharray="5,2" d="M658.9831,-75.0675C690.1238,-77.5801 731.3249,-82.3656 766.854,-91.3803 784.9377,-95.9686 804.5518,-103.8664 818.9666,-110.2624"/>
<polygon fill="#9a32cd" stroke="#9a32cd" points="659.0663,-71.5639 648.8308,-74.2997 658.5383,-78.5439 659.0663,-71.5639"/>
<text text-anchor="middle" x="724.8965" y="-94.3803" font-family="Helvetica,sans-Serif" font-size="10.00" fill="#000000"> monitors</text>
</g>
<!-- Node9 -->
<g id="node9" class="node">
<title>Node9</title>
<g id="a_node9"><a xlink:href="structdrop_data_struct.xhtml" target="_top" xlink:title=" ">
<polygon fill="none" stroke="#000000" points="569.198,-23.3803 569.198,-43.3803 652.435,-43.3803 652.435,-23.3803 569.198,-23.3803"/>
<text text-anchor="middle" x="610.8165" y="-30.3803" font-family="Helvetica,sans-Serif" font-size="10.00" fill="#000000">dropDataStruct</text>
</a>
</g>
</g>
<!-- Node9&#45;&gt;Node7 -->
<g id="edge11" class="edge">
<title>Node9&#45;&gt;Node7</title>
<path fill="none" stroke="#9a32cd" stroke-dasharray="5,2" d="M662.7809,-36.7267C694.0639,-40.2541 734.0528,-47.4992 766.854,-62.3803 792.6114,-74.0657 817.3111,-96.6608 830.4917,-109.9369"/>
<polygon fill="#9a32cd" stroke="#9a32cd" points="662.8353,-33.2138 652.5285,-35.6673 662.1158,-40.1767 662.8353,-33.2138"/>
<text text-anchor="middle" x="724.8965" y="-65.3803" font-family="Helvetica,sans-Serif" font-size="10.00" fill="#000000"> droppedData</text>
</g>
<!-- Node10 -->
<g id="node10" class="node">
<title>Node10</title>
<g id="a_node10"><a xlink:href="class_l_f_s_t_k__lib.xhtml" target="_top" xlink:title="Library of useful routines for LFSToolKit.">
<polygon fill="none" stroke="#000000" points="579.481,-101.3803 579.481,-121.3803 642.152,-121.3803 642.152,-101.3803 579.481,-101.3803"/>
<text text-anchor="middle" x="610.8165" y="-108.3803" font-family="Helvetica,sans-Serif" font-size="10.00" fill="#000000">LFSTK_lib</text>
</a>
</g>
</g>
<!-- Node10&#45;&gt;Node7 -->
<g id="edge13" class="edge">
<title>Node10&#45;&gt;Node7</title>
<path fill="none" stroke="#9a32cd" stroke-dasharray="5,2" d="M652.412,-108.3233C683.8871,-106.5571 728.1539,-105.242 766.854,-108.3803 772.7822,-108.861 778.9532,-109.5564 785.0884,-110.3739"/>
<polygon fill="#9a32cd" stroke="#9a32cd" points="652.0267,-104.8401 642.2547,-108.9338 652.4467,-111.8274 652.0267,-104.8401"/>
<text text-anchor="middle" x="724.8965" y="-111.3803" font-family="Helvetica,sans-Serif" font-size="10.00" fill="#000000"> globalLib</text>
</g>
<!-- Node11 -->
<g id="node11" class="node">
<title>Node11</title>
<g id="a_node11"><a xlink:href="structargs.xhtml" target="_top" xlink:title=" ">
<polygon fill="none" stroke="#000000" points="366.8545,-98.3803 366.8545,-118.3803 402.3015,-118.3803 402.3015,-98.3803 366.8545,-98.3803"/>
<text text-anchor="middle" x="384.578" y="-105.3803" font-family="Helvetica,sans-Serif" font-size="10.00" fill="#000000">args</text>
</a>
</g>
</g>
<!-- Node11&#45;&gt;Node10 -->
<g id="edge14" class="edge">
<title>Node11&#45;&gt;Node10</title>
<path fill="none" stroke="#9a32cd" stroke-dasharray="5,2" d="M412.4724,-108.7502C454.7896,-109.3113 534.9648,-110.3745 579.3218,-110.9626"/>
<polygon fill="#9a32cd" stroke="#9a32cd" points="412.3761,-105.2487 402.3306,-108.6157 412.2832,-112.2481 412.3761,-105.2487"/>
<text text-anchor="middle" x="490.0825" y="-114.3803" font-family="Helvetica,sans-Serif" font-size="10.00" fill="#000000"> lfsToolKitGlobals</text>
</g>
<!-- Node12&#45;&gt;Node2 -->
<g id="edge15" class="edge">
<title>Node12&#45;&gt;Node2</title>
<path fill="none" stroke="#9a32cd" stroke-dasharray="5,2" d="M786.2953,-338.6431C779.7518,-338.1227 773.156,-337.6797 766.854,-337.3803 729.6005,-335.6104 720.2202,-336.3472 682.939,-337.3803 677.1726,-337.5401 671.1498,-337.7716 665.149,-338.0439"/>
<polygon fill="#9a32cd" stroke="#9a32cd" points="786.2234,-342.1496 796.4854,-339.5149 786.8201,-335.1751 786.2234,-342.1496"/>
<text text-anchor="middle" x="724.8965" y="-340.3803" font-family="Helvetica,sans-Serif" font-size="10.00" fill="#000000"> ml</text>
</g>
<!-- Node13 -->
<g id="node13" class="node">
<title>Node13</title>
<g id="a_node13"><a xlink:href="structbutton_c_b.xhtml" target="_top" xlink:title=" ">
<polygon fill="none" stroke="#000000" points="355.737,-374.3803 355.737,-394.3803 413.419,-394.3803 413.419,-374.3803 355.737,-374.3803"/>
<text text-anchor="middle" x="384.578" y="-381.3803" font-family="Helvetica,sans-Serif" font-size="10.00" fill="#000000">buttonCB</text>
</a>
</g>
</g>
<!-- Node13&#45;&gt;Node2 -->
<g id="edge17" class="edge">
<title>Node13&#45;&gt;Node2</title>
<path fill="none" stroke="#9a32cd" stroke-dasharray="5,2" d="M423.6568,-378.0318C454.864,-372.8422 499.6746,-365.1223 538.694,-357.3803 547.8777,-355.5581 557.6884,-353.4741 567.0218,-351.4258"/>
<polygon fill="#9a32cd" stroke="#9a32cd" points="422.9179,-374.6064 413.623,-379.6911 424.0601,-381.5126 422.9179,-374.6064"/>
<text text-anchor="middle" x="490.0825" y="-378.3803" font-family="Helvetica,sans-Serif" font-size="10.00" fill="#000000"> callback</text>
</g>
<!-- Node14&#45;&gt;Node1 -->
<g id="edge20" class="edge">
<title>Node14&#45;&gt;Node1</title>
<path fill="none" stroke="#9a32cd" stroke-dasharray="5,2" d="M905.7873,-269.7985C986.3549,-276.5903 1127.3548,-288.8666 1248.015,-301.3803 1327.4172,-309.6151 1418.8195,-320.5127 1477.7572,-327.7248"/>
<polygon fill="#9a32cd" stroke="#9a32cd" points="906.0458,-266.308 895.7876,-268.9576 905.4591,-273.2834 906.0458,-266.308"/>
<text text-anchor="middle" x="1224.1185" y="-316.3803" font-family="Helvetica,sans-Serif" font-size="10.00" fill="#000000"> fontsize</text>
<text text-anchor="middle" x="1224.1185" y="-304.3803" font-family="Helvetica,sans-Serif" font-size="10.00" fill="#000000">preview</text>
</g>
<!-- Node15&#45;&gt;Node1 -->
<g id="edge23" class="edge">
<title>Node15&#45;&gt;Node1</title>
<path fill="none" stroke="#9a32cd" stroke-dasharray="5,2" d="M1058.0776,-325.9027C1170.0642,-328.1079 1375.1867,-332.1471 1477.6782,-334.1653"/>
<polygon fill="#9a32cd" stroke="#9a32cd" points="1057.9347,-322.3993 1047.8677,-325.7017 1057.7969,-329.398 1057.9347,-322.3993"/>
<text text-anchor="middle" x="1224.1185" y="-345.3803" font-family="Helvetica,sans-Serif" font-size="10.00" fill="#000000"> boldcheck</text>
<text text-anchor="middle" x="1224.1185" y="-333.3803" font-family="Helvetica,sans-Serif" font-size="10.00" fill="#000000">italiccheck</text>
</g>
<!-- Node16 -->
<g id="node16" class="node">
<title>Node16</title>
<g id="a_node16"><a xlink:href="structfont_data_struct.xhtml" target="_top" xlink:title=" ">
<polygon fill="none" stroke="#000000" points="1287.4025,-201.3803 1287.4025,-221.3803 1367.3095,-221.3803 1367.3095,-201.3803 1287.4025,-201.3803"/>
<text text-anchor="middle" x="1327.356" y="-208.3803" font-family="Helvetica,sans-Serif" font-size="10.00" fill="#000000">fontDataStruct</text>
</a>
</g>
</g>
<!-- Node16&#45;&gt;Node1 -->
<g id="edge25" class="edge">
<title>Node16&#45;&gt;Node1</title>
<path fill="none" stroke="#9a32cd" stroke-dasharray="5,2" d="M1377.5247,-206.7286C1403.7168,-206.5713 1435.3569,-210.1198 1460.037,-224.3803 1501.0568,-248.082 1526.4088,-302.4988 1535.5374,-325.172"/>
<polygon fill="#9a32cd" stroke="#9a32cd" points="1377.3246,-203.2323 1367.4112,-206.9707 1377.4922,-210.2303 1377.3246,-203.2323"/>
<text text-anchor="middle" x="1433.367" y="-227.3803" font-family="Helvetica,sans-Serif" font-size="10.00" fill="#000000"> fontData</text>
</g>
<!-- Node17&#45;&gt;Node1 -->
<g id="edge26" class="edge">
<title>Node17&#45;&gt;Node1</title>
<path fill="none" stroke="#9a32cd" stroke-dasharray="5,2" d="M903.4486,-479.1439C1040.419,-469.2538 1360.673,-442.1845 1460.037,-399.3803 1489.2929,-386.7774 1516.6324,-360.2567 1530.2868,-345.6208"/>
<polygon fill="#9a32cd" stroke="#9a32cd" points="902.8488,-475.6777 893.1238,-479.8818 903.348,-482.6599 902.8488,-475.6777"/>
<text text-anchor="middle" x="1224.1185" y="-477.3803" font-family="Helvetica,sans-Serif" font-size="10.00" fill="#000000"> seperator</text>
<text text-anchor="middle" x="1224.1185" y="-465.3803" font-family="Helvetica,sans-Serif" font-size="10.00" fill="#000000">apply</text>
<text text-anchor="middle" x="1224.1185" y="-453.3803" font-family="Helvetica,sans-Serif" font-size="10.00" fill="#000000">cancel</text>
</g>
<!-- Node17&#45;&gt;Node18 -->
<g id="edge35" class="edge">
<title>Node17&#45;&gt;Node18</title>
<path fill="none" stroke="#9a32cd" stroke-dasharray="5,2" d="M858.513,-500.3497C872.4643,-512.1625 892.8492,-526.9117 913.859,-533.3803 1042.7038,-573.0494 1204.9684,-549.6911 1282.3306,-534.4169"/>
<polygon fill="#9a32cd" stroke="#9a32cd" points="860.5267,-497.4592 850.7097,-493.4744 855.8991,-502.7114 860.5267,-497.4592"/>
<text text-anchor="middle" x="1123.945" y="-557.3803" font-family="Helvetica,sans-Serif" font-size="10.00" fill="#000000"> labels</text>
</g>
<!-- Node17&#45;&gt;Node19 -->
<g id="edge32" class="edge">
<title>Node17&#45;&gt;Node19</title>
<path fill="none" stroke="#9a32cd" stroke-dasharray="5,2" d="M903.4041,-487.1597C951.7883,-490.0602 1018.0861,-494.0345 1065.3284,-496.8664"/>
<polygon fill="#9a32cd" stroke="#9a32cd" points="903.5562,-483.6627 893.3647,-486.5579 903.1373,-490.6501 903.5562,-483.6627"/>
<text text-anchor="middle" x="980.7635" y="-521.3803" font-family="Helvetica,sans-Serif" font-size="10.00" fill="#000000"> upLeft</text>
<text text-anchor="middle" x="980.7635" y="-509.3803" font-family="Helvetica,sans-Serif" font-size="10.00" fill="#000000">downRight</text>
<text text-anchor="middle" x="980.7635" y="-497.3803" font-family="Helvetica,sans-Serif" font-size="10.00" fill="#000000">thumb</text>
</g>
<!-- Node18&#45;&gt;Node1 -->
<g id="edge28" class="edge">
<title>Node18&#45;&gt;Node1</title>
<path fill="none" stroke="#9a32cd" stroke-dasharray="5,2" d="M1383.9895,-511.3484C1409.3835,-503.3405 1438.4156,-490.9529 1460.037,-472.3803 1502.5697,-435.8449 1527.6979,-370.5414 1536.1514,-345.5194"/>
<polygon fill="#9a32cd" stroke="#9a32cd" points="1382.6714,-508.0894 1374.0951,-514.3101 1384.6788,-514.7955 1382.6714,-508.0894"/>
<text text-anchor="middle" x="1433.367" y="-504.3803" font-family="Helvetica,sans-Serif" font-size="10.00" fill="#000000"> fontlist</text>
</g>
<!-- Node20 -->
<g id="node20" class="node">
<title>Node20</title>
<g id="a_node20"><a xlink:href="structlist_data.xhtml" target="_top" xlink:title=" ">
<polygon fill="none" stroke="#000000" points="1514.711,-536.3803 1514.711,-556.3803 1564.044,-556.3803 1564.044,-536.3803 1514.711,-536.3803"/>
<text text-anchor="middle" x="1539.3775" y="-543.3803" font-family="Helvetica,sans-Serif" font-size="10.00" fill="#000000">listData</text>
</a>
</g>
</g>
<!-- Node18&#45;&gt;Node20 -->
<g id="edge34" class="edge">
<title>Node18&#45;&gt;Node20</title>
<path fill="none" stroke="#9a32cd" stroke-dasharray="5,2" d="M1399.1744,-523.2242C1418.9607,-523.6605 1440.3843,-524.8344 1460.037,-527.3803 1478.5784,-529.7822 1499.0931,-534.7587 1514.6167,-539.0161"/>
<polygon fill="#9a32cd" stroke="#9a32cd" points="1399.0499,-519.7218 1388.9947,-523.0599 1398.9369,-526.7209 1399.0499,-519.7218"/>
<text text-anchor="middle" x="1433.367" y="-530.3803" font-family="Helvetica,sans-Serif" font-size="10.00" fill="#000000"> mainObject</text>
</g>
<!-- Node19&#45;&gt;Node18 -->
<g id="edge30" class="edge">
<title>Node19&#45;&gt;Node18</title>
<path fill="none" stroke="#9a32cd" stroke-dasharray="5,2" d="M1192.2555,-508.4401C1216.0721,-511.2501 1242.6369,-514.3845 1265.8657,-517.1252"/>
<polygon fill="#9a32cd" stroke="#9a32cd" points="1192.5757,-504.9537 1182.2344,-507.2577 1191.7554,-511.9054 1192.5757,-504.9537"/>
<text text-anchor="middle" x="1224.1185" y="-517.3803" font-family="Helvetica,sans-Serif" font-size="10.00" fill="#000000"> scrollBar</text>
</g>
<!-- Node20&#45;&gt;Node18 -->
<g id="edge33" class="edge">
<title>Node20&#45;&gt;Node18</title>
<path fill="none" stroke="#9a32cd" stroke-dasharray="5,2" d="M1504.2575,-547.1599C1477.4291,-547.3116 1439.5933,-546.5679 1406.697,-542.3803 1392.8257,-540.6145 1377.8174,-537.5225 1364.626,-534.3941"/>
<polygon fill="#9a32cd" stroke="#9a32cd" points="1504.3581,-550.6592 1514.3222,-547.0582 1504.2873,-543.6596 1504.3581,-550.6592"/>
<text text-anchor="middle" x="1433.367" y="-549.3803" font-family="Helvetica,sans-Serif" font-size="10.00" fill="#000000"> data</text>
</g>
</g>
</svg>
