<?xml version="1.0" encoding="UTF-8" standalone="no"?>
<!DOCTYPE svg PUBLIC "-//W3C//DTD SVG 1.1//EN"
 "http://www.w3.org/Graphics/SVG/1.1/DTD/svg11.dtd">
<!-- Generated by graphviz version 2.40.1 (20161225.0304)
 -->
<!-- Title: LFSTK_menuItemClass Pages: 1 -->
<!--zoomable 560 -->
<svg id="main" version="1.1" xmlns="http://www.w3.org/2000/svg" xmlns:xlink="http://www.w3.org/1999/xlink" xml:space="preserve" onload="init(evt)">
<style type="text/css"><![CDATA[
.edge:hover path { stroke: red; }
.edge:hover polygon { stroke: red; fill: red; }
]]></style>
<script type="text/javascript"><![CDATA[
var edges = document.getElementsByTagName('g');
if (edges && edges.length) {
  for (var i=0;i<edges.length;i++) {
    if (edges[i].id.substr(0,4)=='edge') {
      edges[i].setAttribute('class','edge');
    }
  }
}
]]></script>
        <defs>
                <circle id="rim" cx="0" cy="0" r="7"/>
                <circle id="rim2" cx="0" cy="0" r="3.5"/>
                <g id="zoomPlus">
                        <use xlink:href="#rim" fill="#404040">
                                <set attributeName="fill" to="#808080" begin="zoomplus.mouseover" end="zoomplus.mouseout"/>
                        </use>
                        <path d="M-4,0h8M0,-4v8" fill="none" stroke="white" stroke-width="1.5" pointer-events="none"/>
                </g>
                <g id="zoomMin">
                        <use xlink:href="#rim" fill="#404040">
                                <set attributeName="fill" to="#808080" begin="zoomminus.mouseover" end="zoomminus.mouseout"/>
                        </use>
                        <path d="M-4,0h8" fill="none" stroke="white" stroke-width="1.5" pointer-events="none"/>
                </g>
                <g id="dirArrow">
                        <path fill="none" stroke="white" stroke-width="1.5" d="M0,-3.0v7 M-2.5,-0.5L0,-3.0L2.5,-0.5"/>
                </g>
               <g id="resetDef">
                       <use xlink:href="#rim2" fill="#404040">
                               <set attributeName="fill" to="#808080" begin="reset.mouseover" end="reset.mouseout"/>
                       </use>
               </g>
        </defs>

<script type="text/javascript">
var viewWidth = 716;
var viewHeight = 560;
var sectionId = 'dynsection-1';
</script>
<script xlink:href="svgpan.js"/>
<svg id="graph" class="graph">
<g id="viewport">
<title>LFSTK_menuItemClass</title>
<!-- Node1 -->
<g id="node1" class="node">
<title>Node1</title>
<g id="a_node1"><a xlink:title="Menu item class for LFSToolKit.">
<polygon fill="#bfbfbf" stroke="#000000" points="50.2363,-.5 50.2363,-20.5 172.3593,-20.5 172.3593,-.5 50.2363,-.5"/>
<text text-anchor="middle" x="111.2978" y="-7.5" font-family="Helvetica,sans-Serif" font-size="10.00" fill="#000000">LFSTK_menuItemClass</text>
</a>
</g>
</g>
<!-- Node2 -->
<g id="node2" class="node">
<title>Node2</title>
<g id="a_node2"><a xlink:href="class_l_f_s_t_k__button_class.xhtml" target="_top" xlink:title="Basic button class for LFSToolKit.">
<polygon fill="none" stroke="#000000" points="15.5653,-177.5 15.5653,-197.5 121.0303,-197.5 121.0303,-177.5 15.5653,-177.5"/>
<text text-anchor="middle" x="68.2978" y="-184.5" font-family="Helvetica,sans-Serif" font-size="10.00" fill="#000000">LFSTK_buttonClass</text>
</a>
</g>
</g>
<!-- Node2&#45;&gt;Node1 -->
<g id="edge1" class="edge">
<title>Node2&#45;&gt;Node1</title>
<path fill="none" stroke="#191970" d="M62.7161,-167.4691C56.8835,-143.87 49.2338,-103.5036 54.2978,-69 56.3193,-55.2271 54.7276,-49.9695 63.2978,-39 69.3839,-31.2102 78.2402,-25.1034 86.6931,-20.5752"/>
<polygon fill="#191970" stroke="#191970" points="59.3782,-168.5395 65.2928,-177.3297 66.1508,-166.7697 59.3782,-168.5395"/>
</g>
<!-- Node3 -->
<g id="node3" class="node">
<title>Node3</title>
<g id="a_node3"><a xlink:href="class_l_f_s_t_k__gadget_class.xhtml" target="_top" xlink:title="Base class for LFSToolKit gadgets.">
<polygon fill="none" stroke="#000000" points="103.1753,-297.5 103.1753,-317.5 211.4203,-317.5 211.4203,-297.5 103.1753,-297.5"/>
<text text-anchor="middle" x="157.2978" y="-304.5" font-family="Helvetica,sans-Serif" font-size="10.00" fill="#000000">LFSTK_gadgetClass</text>
</a>
</g>
</g>
<!-- Node3&#45;&gt;Node2 -->
<g id="edge2" class="edge">
<title>Node3&#45;&gt;Node2</title>
<path fill="none" stroke="#191970" d="M117.8845,-292.8804C111.376,-289.1251 105.1729,-284.5383 100.2978,-279 79.0599,-254.8726 71.7,-215.8138 69.3317,-197.5347"/>
<polygon fill="#191970" stroke="#191970" points="116.3598,-296.032 126.8529,-297.4971 119.5637,-289.8082 116.3598,-296.032"/>
</g>
<!-- Node8 -->
<g id="node8" class="node">
<title>Node8</title>
<g id="a_node8"><a xlink:href="class_l_f_s_t_k__window_class.xhtml" target="_top" xlink:title="Window class for LFSToolKit.">
<polygon fill="none" stroke="#000000" points="356.7953,-216.5 356.7953,-236.5 467.8003,-236.5 467.8003,-216.5 356.7953,-216.5"/>
<text text-anchor="middle" x="412.2978" y="-223.5" font-family="Helvetica,sans-Serif" font-size="10.00" fill="#000000">LFSTK_windowClass</text>
</a>
</g>
</g>
<!-- Node3&#45;&gt;Node8 -->
<g id="edge11" class="edge">
<title>Node3&#45;&gt;Node8</title>
<path fill="none" stroke="#9a32cd" stroke-dasharray="5,2" d="M164.136,-288.1396C169.2562,-276.5921 177.4514,-262.7184 189.3828,-255 216.0741,-237.7334 299.7667,-241.0433 331.2978,-237 339.4555,-235.9539 348.0746,-234.8429 356.5271,-233.75"/>
<polygon fill="#9a32cd" stroke="#9a32cd" points="160.8663,-286.8903 160.4115,-297.4754 167.3679,-289.4842 160.8663,-286.8903"/>
<text text-anchor="middle" x="231.2553" y="-270" font-family="Helvetica,sans-Serif" font-size="10.00" fill="#000000"> dropGadget</text>
<text text-anchor="middle" x="231.2553" y="-258" font-family="Helvetica,sans-Serif" font-size="10.00" fill="#000000">popupFromGadget</text>
</g>
<!-- Node13 -->
<g id="node13" class="node">
<title>Node13</title>
<g id="a_node13"><a xlink:href="structmapped_listener.xhtml" target="_top" xlink:title=" ">
<polygon fill="none" stroke="#000000" points="95.4543,-216.5 95.4543,-236.5 183.1413,-236.5 183.1413,-216.5 95.4543,-216.5"/>
<text text-anchor="middle" x="139.2978" y="-223.5" font-family="Helvetica,sans-Serif" font-size="10.00" fill="#000000">mappedListener</text>
</a>
</g>
</g>
<!-- Node3&#45;&gt;Node13 -->
<g id="edge17" class="edge">
<title>Node3&#45;&gt;Node13</title>
<path fill="none" stroke="#9a32cd" stroke-dasharray="5,2" d="M120.0794,-292.0431C115.232,-288.4696 110.9237,-284.1601 107.9448,-279 102.6119,-269.7622 103.6294,-264.7547 107.9448,-255 111.2185,-247.6002 117.4676,-241.2976 123.5307,-236.5156"/>
<polygon fill="#9a32cd" stroke="#9a32cd" points="118.2737,-295.0419 128.6068,-297.3824 121.9886,-289.1089 118.2737,-295.0419"/>
<text text-anchor="middle" x="123.9743" y="-264" font-family="Helvetica,sans-Serif" font-size="10.00" fill="#000000"> gadget</text>
</g>
<!-- Node4 -->
<g id="node4" class="node">
<title>Node4</title>
<g id="a_node4"><a xlink:href="structgadget_struct.xhtml" target="_top" xlink:title=" ">
<polygon fill="none" stroke="#000000" points="252.9533,-374 252.9533,-394 325.6423,-394 325.6423,-374 252.9533,-374"/>
<text text-anchor="middle" x="289.2978" y="-381" font-family="Helvetica,sans-Serif" font-size="10.00" fill="#000000">gadgetStruct</text>
</a>
</g>
</g>
<!-- Node4&#45;&gt;Node3 -->
<g id="edge3" class="edge">
<title>Node4&#45;&gt;Node3</title>
<path fill="none" stroke="#9a32cd" stroke-dasharray="5,2" d="M263.3671,-368.9719C237.0938,-353.7454 197.1905,-330.6196 174.5588,-317.5035"/>
<polygon fill="#9a32cd" stroke="#9a32cd" points="261.6341,-372.0129 272.0412,-373.999 265.1441,-365.9565 261.6341,-372.0129"/>
<text text-anchor="middle" x="255.2513" y="-339" font-family="Helvetica,sans-Serif" font-size="10.00" fill="#000000"> gadgetDetails</text>
</g>
<!-- Node5 -->
<g id="node5" class="node">
<title>Node5</title>
<g id="a_node5"><a xlink:href="structgeometry_struct.xhtml" target="_top" xlink:title=" ">
<polygon fill="none" stroke="#000000" points="386.4038,-462.5 386.4038,-482.5 470.1918,-482.5 470.1918,-462.5 386.4038,-462.5"/>
<text text-anchor="middle" x="428.2978" y="-469.5" font-family="Helvetica,sans-Serif" font-size="10.00" fill="#000000">geometryStruct</text>
</a>
</g>
</g>
<!-- Node5&#45;&gt;Node3 -->
<g id="edge7" class="edge">
<title>Node5&#45;&gt;Node3</title>
<path fill="none" stroke="#9a32cd" stroke-dasharray="5,2" d="M426.2681,-452.1019C424.4341,-441.737 420.943,-429.3851 414.2978,-420 376.0441,-365.9734 352.1573,-362.045 291.2978,-336 266.1519,-325.2387 236.5571,-318.3945 211.5849,-314.1198"/>
<polygon fill="#9a32cd" stroke="#9a32cd" points="422.8458,-452.9063 427.6786,-462.3346 429.7802,-451.9503 422.8458,-452.9063"/>
<text text-anchor="middle" x="429.5873" y="-381" font-family="Helvetica,sans-Serif" font-size="10.00" fill="#000000"> gadgetGeom</text>
</g>
<!-- Node5&#45;&gt;Node4 -->
<g id="edge4" class="edge">
<title>Node5&#45;&gt;Node4</title>
<path fill="none" stroke="#9a32cd" stroke-dasharray="5,2" d="M377.6888,-459.0686C366.9462,-455.0858 355.9956,-450.1094 346.5108,-444 325.4563,-430.4381 306.5918,-407.5934 296.6669,-394.35"/>
<polygon fill="#9a32cd" stroke="#9a32cd" points="376.853,-462.4831 387.4478,-462.4508 379.1453,-455.8691 376.853,-462.4831"/>
<text text-anchor="middle" x="380.1913" y="-435" font-family="Helvetica,sans-Serif" font-size="10.00" fill="#000000"> indicatorGeom</text>
<text text-anchor="middle" x="380.1913" y="-423" font-family="Helvetica,sans-Serif" font-size="10.00" fill="#000000">gadgetGeom</text>
</g>
<!-- Node5&#45;&gt;Node8 -->
<g id="edge9" class="edge">
<title>Node5&#45;&gt;Node8</title>
<path fill="none" stroke="#9a32cd" stroke-dasharray="5,2" d="M468.5073,-458.7751C519.6809,-438.6174 599.5244,-396.7028 582.2978,-336 570.748,-295.3008 566.595,-279.7695 532.2978,-255 521.7088,-247.3526 493.959,-240.5214 467.8097,-235.4653"/>
<polygon fill="#9a32cd" stroke="#9a32cd" points="467.0996,-455.566 459.004,-462.4006 469.5947,-462.1062 467.0996,-455.566"/>
<text text-anchor="middle" x="615.9673" y="-339" font-family="Helvetica,sans-Serif" font-size="10.00" fill="#000000"> windowGeom</text>
</g>
<!-- Node6 -->
<g id="node6" class="node">
<title>Node6</title>
<g id="a_node6"><a xlink:href="structcolour_struct.xhtml" target="_top" xlink:title=" ">
<polygon fill="none" stroke="#000000" points="232.6278,-462.5 232.6278,-482.5 301.9678,-482.5 301.9678,-462.5 232.6278,-462.5"/>
<text text-anchor="middle" x="267.2978" y="-469.5" font-family="Helvetica,sans-Serif" font-size="10.00" fill="#000000">colourStruct</text>
</a>
</g>
</g>
<!-- Node6&#45;&gt;Node3 -->
<g id="edge19" class="edge">
<title>Node6&#45;&gt;Node3</title>
<path fill="none" stroke="#9a32cd" stroke-dasharray="5,2" d="M233.1357,-458.0284C210.218,-446.4087 181.5664,-427.7648 166.5118,-402 150.7111,-374.9582 153.2891,-336.002 155.6687,-317.7126"/>
<polygon fill="#9a32cd" stroke="#9a32cd" points="231.7054,-461.2245 242.2313,-462.4314 234.7555,-454.9239 231.7054,-461.2245"/>
<text text-anchor="middle" x="205.1908" y="-393" font-family="Helvetica,sans-Serif" font-size="10.00" fill="#000000"> labelBGColour</text>
<text text-anchor="middle" x="205.1908" y="-381" font-family="Helvetica,sans-Serif" font-size="10.00" fill="#000000">colourNames</text>
<text text-anchor="middle" x="205.1908" y="-369" font-family="Helvetica,sans-Serif" font-size="10.00" fill="#000000">fontColourNames</text>
</g>
<!-- Node6&#45;&gt;Node4 -->
<g id="edge5" class="edge">
<title>Node6&#45;&gt;Node4</title>
<path fill="none" stroke="#9a32cd" stroke-dasharray="5,2" d="M265.3178,-452.1344C264.9512,-442.2604 265.395,-430.3311 268.2938,-420 270.9525,-410.525 276.7142,-400.957 281.5317,-394.069"/>
<polygon fill="#9a32cd" stroke="#9a32cd" points="261.8322,-452.4687 265.9883,-462.2143 268.8168,-452.0041 261.8322,-452.4687"/>
<text text-anchor="middle" x="282.2998" y="-429" font-family="Helvetica,sans-Serif" font-size="10.00" fill="#000000"> colour</text>
</g>
<!-- Node6&#45;&gt;Node8 -->
<g id="edge13" class="edge">
<title>Node6&#45;&gt;Node8</title>
<path fill="none" stroke="#9a32cd" stroke-dasharray="5,2" d="M286.1821,-455.6344C290.2428,-451.8713 294.4642,-447.8527 298.2978,-444 331.3633,-410.7704 336.1956,-399.193 369.2978,-366 383.2428,-352.0168 386.9741,-348.7264 402.0748,-336 412.0603,-327.5846 417.9981,-328.8279 425.2978,-318 441.1864,-294.4319 446.0428,-281.7009 436.2978,-255 433.7696,-248.0727 428.7338,-241.6634 423.9251,-236.6844"/>
<polygon fill="#9a32cd" stroke="#9a32cd" points="283.7448,-453.1203 278.7158,-462.4455 288.4625,-458.2917 283.7448,-453.1203"/>
<text text-anchor="middle" x="449.9093" y="-339" font-family="Helvetica,sans-Serif" font-size="10.00" fill="#000000"> windowColourNames</text>
</g>
<!-- Node7 -->
<g id="node7" class="node">
<title>Node7</title>
<g id="a_node7"><a xlink:href="structcairo_color.xhtml" target="_top" xlink:title=" ">
<polygon fill="none" stroke="#000000" points="236.5223,-531.5 236.5223,-551.5 298.0733,-551.5 298.0733,-531.5 236.5223,-531.5"/>
<text text-anchor="middle" x="267.2978" y="-538.5" font-family="Helvetica,sans-Serif" font-size="10.00" fill="#000000">cairoColor</text>
</a>
</g>
</g>
<!-- Node7&#45;&gt;Node6 -->
<g id="edge6" class="edge">
<title>Node7&#45;&gt;Node6</title>
<path fill="none" stroke="#9a32cd" stroke-dasharray="5,2" d="M267.2978,-521.2177C267.2978,-508.5684 267.2978,-492.8285 267.2978,-482.723"/>
<polygon fill="#9a32cd" stroke="#9a32cd" points="263.7979,-521.3188 267.2978,-531.3188 270.7979,-521.3188 263.7979,-521.3188"/>
<text text-anchor="middle" x="297.5773" y="-504" font-family="Helvetica,sans-Serif" font-size="10.00" fill="#000000"> RGBAColour</text>
</g>
<!-- Node8&#45;&gt;Node3 -->
<g id="edge8" class="edge">
<title>Node8&#45;&gt;Node3</title>
<path fill="none" stroke="#9a32cd" stroke-dasharray="5,2" d="M358.2254,-239.2789C343.7586,-243.5005 328.3383,-248.75 314.6258,-255 296.6787,-263.1801 295.4467,-271.2777 277.2978,-279 256.6093,-287.8029 232.7045,-294.1792 211.7021,-298.6385"/>
<polygon fill="#9a32cd" stroke="#9a32cd" points="359.3732,-242.592 368.0559,-236.5207 357.4822,-235.8523 359.3732,-242.592"/>
<text text-anchor="middle" x="340.1338" y="-270" font-family="Helvetica,sans-Serif" font-size="10.00" fill="#000000"> contextWC</text>
<text text-anchor="middle" x="340.1338" y="-258" font-family="Helvetica,sans-Serif" font-size="10.00" fill="#000000">wc</text>
</g>
<!-- Node15 -->
<g id="node15" class="node">
<title>Node15</title>
<g id="a_node15"><a xlink:href="class_l_f_s_t_k__menu_class.xhtml" target="_top" xlink:title="Menu class for LFSToolKit.">
<polygon fill="none" stroke="#000000" points="118.9593,-69.5 118.9593,-89.5 221.6363,-89.5 221.6363,-69.5 118.9593,-69.5"/>
<text text-anchor="middle" x="170.2978" y="-76.5" font-family="Helvetica,sans-Serif" font-size="10.00" fill="#000000">LFSTK_menuClass</text>
</a>
</g>
</g>
<!-- Node8&#45;&gt;Node15 -->
<g id="edge21" class="edge">
<title>Node8&#45;&gt;Node15</title>
<path fill="none" stroke="#9a32cd" stroke-dasharray="5,2" d="M385.4028,-211.4907C361.4864,-198.0344 325.6521,-177.6038 294.9558,-159 255.0038,-134.7866 208.8524,-104.8198 185.5094,-89.5184"/>
<polygon fill="#9a32cd" stroke="#9a32cd" points="383.8236,-214.618 394.2571,-216.4601 387.2497,-208.5136 383.8236,-214.618"/>
<text text-anchor="middle" x="315.9688" y="-145.5" font-family="Helvetica,sans-Serif" font-size="10.00" fill="#000000"> parentwc</text>
</g>
<!-- Node16 -->
<g id="node16" class="node">
<title>Node16</title>
<g id="a_node16"><a xlink:href="class_l_f_s_t_k__tool_window_class.xhtml" target="_top" xlink:title="Tool window class for LFSToolKit.">
<polygon fill="none" stroke="#000000" points="347.6273,-138.5 347.6273,-158.5 476.9683,-158.5 476.9683,-138.5 347.6273,-138.5"/>
<text text-anchor="middle" x="412.2978" y="-145.5" font-family="Helvetica,sans-Serif" font-size="10.00" fill="#000000">LFSTK_toolWindowClass</text>
</a>
</g>
</g>
<!-- Node8&#45;&gt;Node16 -->
<g id="edge23" class="edge">
<title>Node8&#45;&gt;Node16</title>
<path fill="none" stroke="#191970" d="M412.2978,-205.8926C412.2978,-190.7872 412.2978,-170.9072 412.2978,-158.9486"/>
<polygon fill="#191970" stroke="#191970" points="408.7979,-206.3028 412.2978,-216.3029 415.7979,-206.3029 408.7979,-206.3028"/>
</g>
<!-- Node9 -->
<g id="node9" class="node">
<title>Node9</title>
<g id="a_node9"><a xlink:href="structmonitor_struct.xhtml" target="_top" xlink:title=" ">
<polygon fill="none" stroke="#000000" points="632.5738,-297.5 632.5738,-317.5 708.0218,-317.5 708.0218,-297.5 632.5738,-297.5"/>
<text text-anchor="middle" x="670.2978" y="-304.5" font-family="Helvetica,sans-Serif" font-size="10.00" fill="#000000">monitorStruct</text>
</a>
</g>
</g>
<!-- Node9&#45;&gt;Node8 -->
<g id="edge10" class="edge">
<title>Node9&#45;&gt;Node8</title>
<path fill="none" stroke="#9a32cd" stroke-dasharray="5,2" d="M657.2377,-289.1271C647.8161,-277.3588 634.0235,-262.8664 618.2978,-255 592.7081,-242.1993 519.8386,-234.3244 468.0445,-230.1828"/>
<polygon fill="#9a32cd" stroke="#9a32cd" points="654.7153,-291.5928 663.5501,-297.4405 660.2903,-287.3596 654.7153,-291.5928"/>
<text text-anchor="middle" x="667.8538" y="-264" font-family="Helvetica,sans-Serif" font-size="10.00" fill="#000000"> monitors</text>
</g>
<!-- Node10 -->
<g id="node10" class="node">
<title>Node10</title>
<g id="a_node10"><a xlink:href="structdrop_data_struct.xhtml" target="_top" xlink:title=" ">
<polygon fill="none" stroke="#000000" points="332.6793,-297.5 332.6793,-317.5 415.9163,-317.5 415.9163,-297.5 332.6793,-297.5"/>
<text text-anchor="middle" x="374.2978" y="-304.5" font-family="Helvetica,sans-Serif" font-size="10.00" fill="#000000">dropDataStruct</text>
</a>
</g>
</g>
<!-- Node10&#45;&gt;Node8 -->
<g id="edge12" class="edge">
<title>Node10&#45;&gt;Node8</title>
<path fill="none" stroke="#9a32cd" stroke-dasharray="5,2" d="M370.9046,-287.1711C370.1588,-276.9996 370.7662,-264.8007 375.7198,-255 379.5692,-247.3841 386.502,-241.1889 393.3048,-236.5435"/>
<polygon fill="#9a32cd" stroke="#9a32cd" points="367.4415,-287.6889 372.1033,-297.203 374.3921,-286.8583 367.4415,-287.6889"/>
<text text-anchor="middle" x="405.5868" y="-264" font-family="Helvetica,sans-Serif" font-size="10.00" fill="#000000"> droppedData</text>
</g>
<!-- Node11 -->
<g id="node11" class="node">
<title>Node11</title>
<g id="a_node11"><a xlink:href="class_l_f_s_t_k__lib.xhtml" target="_top" xlink:title="Library of useful routines for LFSToolKit.">
<polygon fill="none" stroke="#000000" points="471.9623,-297.5 471.9623,-317.5 534.6333,-317.5 534.6333,-297.5 471.9623,-297.5"/>
<text text-anchor="middle" x="503.2978" y="-304.5" font-family="Helvetica,sans-Serif" font-size="10.00" fill="#000000">LFSTK_lib</text>
</a>
</g>
</g>
<!-- Node11&#45;&gt;Node8 -->
<g id="edge14" class="edge">
<title>Node11&#45;&gt;Node8</title>
<path fill="none" stroke="#9a32cd" stroke-dasharray="5,2" d="M492.0809,-288.5079C485.066,-277.7514 475.2899,-264.5753 464.2978,-255 455.8367,-247.6294 445.1536,-241.3685 435.6747,-236.6086"/>
<polygon fill="#9a32cd" stroke="#9a32cd" points="489.2329,-290.5553 497.496,-297.1865 495.1717,-286.8497 489.2329,-290.5553"/>
<text text-anchor="middle" x="506.6928" y="-264" font-family="Helvetica,sans-Serif" font-size="10.00" fill="#000000"> globalLib</text>
</g>
<!-- Node12 -->
<g id="node12" class="node">
<title>Node12</title>
<g id="a_node12"><a xlink:href="structargs.xhtml" target="_top" xlink:title=" ">
<polygon fill="none" stroke="#000000" points="485.5743,-374 485.5743,-394 521.0213,-394 521.0213,-374 485.5743,-374"/>
<text text-anchor="middle" x="503.2978" y="-381" font-family="Helvetica,sans-Serif" font-size="10.00" fill="#000000">args</text>
</a>
</g>
</g>
<!-- Node12&#45;&gt;Node11 -->
<g id="edge15" class="edge">
<title>Node12&#45;&gt;Node11</title>
<path fill="none" stroke="#9a32cd" stroke-dasharray="5,2" d="M503.2978,-363.7889C503.2978,-348.974 503.2978,-329.4763 503.2978,-317.7477"/>
<polygon fill="#9a32cd" stroke="#9a32cd" points="499.7979,-363.9989 503.2978,-373.999 506.7979,-363.999 499.7979,-363.9989"/>
<text text-anchor="middle" x="542.1898" y="-339" font-family="Helvetica,sans-Serif" font-size="10.00" fill="#000000"> lfsToolKitGlobals</text>
</g>
<!-- Node13&#45;&gt;Node3 -->
<g id="edge16" class="edge">
<title>Node13&#45;&gt;Node3</title>
<path fill="none" stroke="#9a32cd" stroke-dasharray="5,2" d="M143.786,-246.6969C147.3565,-262.7641 152.2049,-284.582 155.0181,-297.2413"/>
<polygon fill="#9a32cd" stroke="#9a32cd" points="147.1451,-245.678 141.559,-236.6754 140.3118,-247.1966 147.1451,-245.678"/>
<text text-anchor="middle" x="156.9613" y="-264" font-family="Helvetica,sans-Serif" font-size="10.00" fill="#000000"> ml</text>
</g>
<!-- Node14 -->
<g id="node14" class="node">
<title>Node14</title>
<g id="a_node14"><a xlink:href="structbutton_c_b.xhtml" target="_top" xlink:title=" ">
<polygon fill="none" stroke="#000000" points="18.4568,-374 18.4568,-394 76.1388,-394 76.1388,-374 18.4568,-374"/>
<text text-anchor="middle" x="47.2978" y="-381" font-family="Helvetica,sans-Serif" font-size="10.00" fill="#000000">buttonCB</text>
</a>
</g>
</g>
<!-- Node14&#45;&gt;Node3 -->
<g id="edge18" class="edge">
<title>Node14&#45;&gt;Node3</title>
<path fill="none" stroke="#9a32cd" stroke-dasharray="5,2" d="M65.6927,-366.8719C76.5249,-357.2201 90.7435,-345.2775 104.4038,-336 114.5,-329.1432 126.416,-322.6009 136.3796,-317.5179"/>
<polygon fill="#9a32cd" stroke="#9a32cd" points="63.1924,-364.4144 58.1346,-373.7241 67.894,-369.6005 63.1924,-364.4144"/>
<text text-anchor="middle" x="123.7448" y="-339" font-family="Helvetica,sans-Serif" font-size="10.00" fill="#000000"> callback</text>
</g>
<!-- Node14&#45;&gt;Node15 -->
<g id="edge24" class="edge">
<title>Node14&#45;&gt;Node15</title>
<path fill="none" stroke="#9a32cd" stroke-dasharray="5,2" d="M36.5918,-364.6838C16.9023,-326.3326 -20.0339,-238.943 14.2978,-177 40.3085,-130.0704 99.3637,-102.7461 136.8907,-89.5061"/>
<polygon fill="#9a32cd" stroke="#9a32cd" points="33.6161,-366.543 41.3939,-373.7372 39.8,-363.2629 33.6161,-366.543"/>
<text text-anchor="middle" x="21.7448" y="-223.5" font-family="Helvetica,sans-Serif" font-size="10.00" fill="#000000"> callback</text>
</g>
<!-- Node15&#45;&gt;Node1 -->
<g id="edge20" class="edge">
<title>Node15&#45;&gt;Node1</title>
<path fill="none" stroke="#9a32cd" stroke-dasharray="5,2" d="M154.8908,-61.4815C143.788,-48.4969 129.2038,-31.4409 120.0392,-20.723"/>
<polygon fill="#9a32cd" stroke="#9a32cd" points="152.4332,-63.9931 161.5922,-69.3188 157.7534,-59.4438 152.4332,-63.9931"/>
<text text-anchor="middle" x="158.1903" y="-42" font-family="Helvetica,sans-Serif" font-size="10.00" fill="#000000"> menu</text>
</g>
<!-- Node16&#45;&gt;Node1 -->
<g id="edge28" class="edge">
<title>Node16&#45;&gt;Node1</title>
<path fill="none" stroke="#9a32cd" stroke-dasharray="5,2" d="M410.6907,-128.0915C409.1914,-120.9752 406.4085,-113.4221 401.2978,-108 367.5523,-72.1978 230.7886,-37.1555 157.7721,-20.521"/>
<polygon fill="#9a32cd" stroke="#9a32cd" points="407.257,-128.8088 412.1159,-138.2237 414.1888,-127.8337 407.257,-128.8088"/>
<text text-anchor="middle" x="387.8558" y="-76.5" font-family="Helvetica,sans-Serif" font-size="10.00" fill="#000000"> subwc</text>
</g>
<!-- Node16&#45;&gt;Node15 -->
<g id="edge22" class="edge">
<title>Node16&#45;&gt;Node15</title>
<path fill="none" stroke="#9a32cd" stroke-dasharray="5,2" d="M362.3648,-135.6524C347.3474,-131.2629 330.9665,-125.9422 316.2928,-120 305.6078,-115.673 304.1096,-111.9998 293.2978,-108 270.3755,-99.5199 244.0874,-93.0203 221.7139,-88.3847"/>
<polygon fill="#9a32cd" stroke="#9a32cd" points="361.4284,-139.0249 372.0047,-138.3997 363.3469,-132.2929 361.4284,-139.0249"/>
<text text-anchor="middle" x="357.8003" y="-111" font-family="Helvetica,sans-Serif" font-size="10.00" fill="#000000"> mainMenuWindow</text>
</g>
<!-- Node17 -->
<g id="node17" class="node">
<title>Node17</title>
<g id="a_node17"><a xlink:href="structmenu_struct.xhtml" target="_top" xlink:title=" ">
<polygon fill="none" stroke="#000000" points="112.7373,-138.5 112.7373,-158.5 179.8583,-158.5 179.8583,-138.5 112.7373,-138.5"/>
<text text-anchor="middle" x="146.2978" y="-145.5" font-family="Helvetica,sans-Serif" font-size="10.00" fill="#000000">menuStruct</text>
</a>
</g>
</g>
<!-- Node17&#45;&gt;Node1 -->
<g id="edge29" class="edge">
<title>Node17&#45;&gt;Node1</title>
<path fill="none" stroke="#9a32cd" stroke-dasharray="5,2" d="M110.8599,-133.9547C92.5365,-124.3932 71.8659,-109.9273 61.3968,-90 47.8305,-64.1774 77.6328,-35.598 96.7881,-20.7418"/>
<polygon fill="#9a32cd" stroke="#9a32cd" points="109.3663,-137.1205 119.8856,-138.3837 112.45,-130.8363 109.3663,-137.1205"/>
<text text-anchor="middle" x="86.7483" y="-76.5" font-family="Helvetica,sans-Serif" font-size="10.00" fill="#000000"> menuData</text>
</g>
<!-- Node17&#45;&gt;Node15 -->
<g id="edge25" class="edge">
<title>Node17&#45;&gt;Node15</title>
<path fill="none" stroke="#9a32cd" stroke-dasharray="5,2" d="M153.2196,-128.6C157.6415,-115.8869 163.1916,-99.9305 166.742,-89.723"/>
<polygon fill="#9a32cd" stroke="#9a32cd" points="149.8187,-127.724 149.8391,-138.3188 156.4301,-130.0237 149.8187,-127.724"/>
<text text-anchor="middle" x="184.0233" y="-111" font-family="Helvetica,sans-Serif" font-size="10.00" fill="#000000"> mainMenu</text>
</g>
<!-- Node17&#45;&gt;Node17 -->
<g id="edge27" class="edge">
<title>Node17&#45;&gt;Node17</title>
<path fill="none" stroke="#9a32cd" stroke-dasharray="5,2" d="M190.0723,-153.833C194.8089,-152.8094 197.8583,-151.0317 197.8583,-148.5 197.8583,-144.4492 190.0517,-142.3289 180.0189,-142.139"/>
<polygon fill="#9a32cd" stroke="#9a32cd" points="189.611,-150.3618 180.0189,-154.861 190.3231,-157.3255 189.611,-150.3618"/>
<text text-anchor="middle" x="222.3098" y="-145.5" font-family="Helvetica,sans-Serif" font-size="10.00" fill="#000000"> subMenus</text>
</g>
<!-- Node18 -->
<g id="node18" class="node">
<title>Node18</title>
<g id="a_node18"><a xlink:href="unionmenu_struct_1_1image_data.xhtml" target="_top" xlink:title=" ">
<polygon fill="none" stroke="#000000" points="200.7878,-216.5 200.7878,-236.5 321.8078,-236.5 321.8078,-216.5 200.7878,-216.5"/>
<text text-anchor="middle" x="261.2978" y="-223.5" font-family="Helvetica,sans-Serif" font-size="10.00" fill="#000000">menuStruct::imageData</text>
</a>
</g>
</g>
<!-- Node18&#45;&gt;Node17 -->
<g id="edge26" class="edge">
<title>Node18&#45;&gt;Node17</title>
<path fill="none" stroke="#9a32cd" stroke-dasharray="5,2" d="M237.801,-210.563C214.9088,-195.0361 180.7945,-171.8977 161.3358,-158.6996"/>
<polygon fill="#9a32cd" stroke="#9a32cd" points="236.023,-213.5862 246.2636,-216.3029 239.9523,-207.793 236.023,-213.5862"/>
<text text-anchor="middle" x="228.4153" y="-184.5" font-family="Helvetica,sans-Serif" font-size="10.00" fill="#000000"> data</text>
</g>
</g>
</svg>
        <g id="navigator" transform="translate(0 0)" fill="#404254">
                <rect fill="#f2f5e9" fill-opacity="0.5" stroke="#606060" stroke-width=".5" x="0" y="0" width="60" height="60"/>
                <use id="zoomplus" xlink:href="#zoomPlus" x="17" y="9" onmousedown="handleZoom(evt,'in')"/>
                <use id="zoomminus" xlink:href="#zoomMin" x="42" y="9" onmousedown="handleZoom(evt,'out')"/>
                <use id="reset" xlink:href="#resetDef" x="30" y="36" onmousedown="handleReset()"/>
                <g id="arrowUp" xlink:href="#dirArrow" transform="translate(30 24)" onmousedown="handlePan(0,-1)">
                  <use xlink:href="#rim" fill="#404040">
                        <set attributeName="fill" to="#808080" begin="arrowUp.mouseover" end="arrowUp.mouseout"/>
                  </use>
                  <path fill="none" stroke="white" stroke-width="1.5" d="M0,-3.0v7 M-2.5,-0.5L0,-3.0L2.5,-0.5"/>
                </g>
                <g id="arrowRight" xlink:href="#dirArrow" transform="rotate(90) translate(36 -43)" onmousedown="handlePan(1,0)">
                  <use xlink:href="#rim" fill="#404040">
                        <set attributeName="fill" to="#808080" begin="arrowRight.mouseover" end="arrowRight.mouseout"/>
                  </use>
                  <path fill="none" stroke="white" stroke-width="1.5" d="M0,-3.0v7 M-2.5,-0.5L0,-3.0L2.5,-0.5"/>
                </g>
                <g id="arrowDown" xlink:href="#dirArrow" transform="rotate(180) translate(-30 -48)" onmousedown="handlePan(0,1)">
                  <use xlink:href="#rim" fill="#404040">
                        <set attributeName="fill" to="#808080" begin="arrowDown.mouseover" end="arrowDown.mouseout"/>
                  </use>
                  <path fill="none" stroke="white" stroke-width="1.5" d="M0,-3.0v7 M-2.5,-0.5L0,-3.0L2.5,-0.5"/>
                </g>
                <g id="arrowLeft" xlink:href="#dirArrow" transform="rotate(270) translate(-36 17)" onmousedown="handlePan(-1,0)">
                  <use xlink:href="#rim" fill="#404040">
                        <set attributeName="fill" to="#808080" begin="arrowLeft.mouseover" end="arrowLeft.mouseout"/>
                  </use>
                  <path fill="none" stroke="white" stroke-width="1.5" d="M0,-3.0v7 M-2.5,-0.5L0,-3.0L2.5,-0.5"/>
                </g>
        </g>
        <svg viewBox="0 0 15 15" width="100%" height="30px" preserveAspectRatio="xMaxYMin meet">
         <g id="arrow_out" transform="scale(0.3 0.3)">
          <a xlink:href="class_l_f_s_t_k__menu_item_class__coll__graph_org.svg" target="_base">
           <rect id="button" ry="5" rx="5" y="6" x="6" height="38" width="38"
                fill="#f2f5e9" fill-opacity="0.5" stroke="#606060" stroke-width="1.0"/>
           <path id="arrow"
             d="M 11.500037,31.436501 C 11.940474,20.09759 22.043105,11.32322 32.158766,21.979434 L 37.068811,17.246167 C 37.068811,17.246167 37.088388,32 37.088388,32 L 22.160133,31.978069 C 22.160133,31.978069 26.997745,27.140456 26.997745,27.140456 C 18.528582,18.264221 13.291696,25.230495 11.500037,31.436501 z"
             style="fill:#404040;"/>
          </a>
         </g>
        </svg>
</svg>
