<?xml version="1.0" encoding="UTF-8" standalone="no"?>
<!DOCTYPE svg PUBLIC "-//W3C//DTD SVG 1.1//EN"
 "http://www.w3.org/Graphics/SVG/1.1/DTD/svg11.dtd">
<!-- Generated by graphviz version 2.40.1 (20161225.0304)
 -->
<!-- Title: LFSTK_lineEditClass::LFSTK_getCStr Pages: 1 -->
<!--zoomable 263 -->
<svg id="main" version="1.1" xmlns="http://www.w3.org/2000/svg" xmlns:xlink="http://www.w3.org/1999/xlink" xml:space="preserve" onload="init(evt)">
<style type="text/css"><![CDATA[
.edge:hover path { stroke: red; }
.edge:hover polygon { stroke: red; fill: red; }
]]></style>
<script type="text/javascript"><![CDATA[
var edges = document.getElementsByTagName('g');
if (edges && edges.length) {
  for (var i=0;i<edges.length;i++) {
    if (edges[i].id.substr(0,4)=='edge') {
      edges[i].setAttribute('class','edge');
    }
  }
}
]]></script>
        <defs>
                <circle id="rim" cx="0" cy="0" r="7"/>
                <circle id="rim2" cx="0" cy="0" r="3.5"/>
                <g id="zoomPlus">
                        <use xlink:href="#rim" fill="#404040">
                                <set attributeName="fill" to="#808080" begin="zoomplus.mouseover" end="zoomplus.mouseout"/>
                        </use>
                        <path d="M-4,0h8M0,-4v8" fill="none" stroke="white" stroke-width="1.5" pointer-events="none"/>
                </g>
                <g id="zoomMin">
                        <use xlink:href="#rim" fill="#404040">
                                <set attributeName="fill" to="#808080" begin="zoomminus.mouseover" end="zoomminus.mouseout"/>
                        </use>
                        <path d="M-4,0h8" fill="none" stroke="white" stroke-width="1.5" pointer-events="none"/>
                </g>
                <g id="dirArrow">
                        <path fill="none" stroke="white" stroke-width="1.5" d="M0,-3.0v7 M-2.5,-0.5L0,-3.0L2.5,-0.5"/>
                </g>
               <g id="resetDef">
                       <use xlink:href="#rim2" fill="#404040">
                               <set attributeName="fill" to="#808080" begin="reset.mouseover" end="reset.mouseout"/>
                       </use>
               </g>
        </defs>

<script type="text/javascript">
var viewWidth = 924;
var viewHeight = 263;
var sectionId = 'dynsection-0';
</script>
<script xlink:href="svgpan.js"/>
<svg id="graph" class="graph">
<g id="viewport">
<title>LFSTK_lineEditClass::LFSTK_getCStr</title>
<!-- Node1 -->
<g id="node1" class="node">
<title>Node1</title>
<g id="a_node1"><a xlink:title=" ">
<polygon fill="#bfbfbf" stroke="#000000" points="805.619,-90.5 805.619,-122.5 916.072,-122.5 916.072,-90.5 805.619,-90.5"/>
<text text-anchor="start" x="813.619" y="-109.5" font-family="Helvetica,sans-Serif" font-size="10.00" fill="#000000">LFSTK_lineEditClass</text>
<text text-anchor="middle" x="860.8455" y="-97.5" font-family="Helvetica,sans-Serif" font-size="10.00" fill="#000000">::LFSTK_getCStr</text>
</a>
</g>
</g>
<!-- Node2 -->
<g id="node2" class="node">
<title>Node2</title>
<g id="a_node2"><a xlink:href="class_l_f_s_t_k__font_dialog_class_ac2b51914d426e9ff7ba57211d5639514.xhtml#ac2b51914d426e9ff7ba57211d5639514" target="_top" xlink:title=" ">
<polygon fill="none" stroke="#000000" points="646.938,-180.5 646.938,-212.5 769.619,-212.5 769.619,-180.5 646.938,-180.5"/>
<text text-anchor="start" x="654.938" y="-199.5" font-family="Helvetica,sans-Serif" font-size="10.00" fill="#000000">LFSTK_fontDialogClass</text>
<text text-anchor="middle" x="708.2785" y="-187.5" font-family="Helvetica,sans-Serif" font-size="10.00" fill="#000000">::buildFontString</text>
</a>
</g>
</g>
<!-- Node1&#45;&gt;Node2 -->
<g id="edge1" class="edge">
<title>Node1&#45;&gt;Node2</title>
<path fill="none" stroke="#191970" d="M828.6961,-128.4822C811.453,-139.9667 789.6792,-153.9874 769.619,-165.5 760.7189,-170.6078 750.8761,-175.7822 741.7283,-180.4022"/>
<polygon fill="#191970" stroke="#191970" points="830.911,-131.211 837.267,-122.7345 827.0123,-125.3973 830.911,-131.211"/>
</g>
<!-- Node9 -->
<g id="node9" class="node">
<title>Node9</title>
<g id="a_node9"><a xlink:href="class_l_f_s_t_k__file_dialog_class_af77972b8a46616ba4c7bec555b2b0a14.xhtml#af77972b8a46616ba4c7bec555b2b0a14" target="_top" xlink:title=" ">
<polygon fill="none" stroke="#000000" points="484.929,-93.5 484.929,-125.5 610.938,-125.5 610.938,-93.5 484.929,-93.5"/>
<text text-anchor="start" x="492.929" y="-112.5" font-family="Helvetica,sans-Serif" font-size="10.00" fill="#000000">LFSTK_fileDialogClass</text>
<text text-anchor="middle" x="547.9335" y="-100.5" font-family="Helvetica,sans-Serif" font-size="10.00" fill="#000000">::LFSTK_showFileDialog</text>
</a>
</g>
</g>
<!-- Node1&#45;&gt;Node9 -->
<g id="edge8" class="edge">
<title>Node1&#45;&gt;Node9</title>
<path fill="none" stroke="#191970" d="M804.2415,-125.2556C792.8965,-128.2677 780.9724,-130.9137 769.619,-132.5 715.6187,-140.045 701.1082,-138.7095 646.938,-132.5 633.8773,-131.0028 620.0336,-128.4292 606.9688,-125.5324"/>
<polygon fill="#191970" stroke="#191970" points="805.3371,-128.5838 814.0333,-122.5319 803.4611,-121.8399 805.3371,-128.5838"/>
</g>
<!-- Node11 -->
<g id="node11" class="node">
<title>Node11</title>
<g id="a_node11"><a xlink:href="class_l_f_s_t_k__file_dialog_class_a789cade9437906181e31a243c85d52e5.xhtml#a789cade9437906181e31a243c85d52e5" target="_top" xlink:title=" ">
<polygon fill="none" stroke="#000000" points="488.543,-42.5 488.543,-74.5 607.324,-74.5 607.324,-42.5 488.543,-42.5"/>
<text text-anchor="start" x="496.543" y="-61.5" font-family="Helvetica,sans-Serif" font-size="10.00" fill="#000000">LFSTK_fileDialogClass</text>
<text text-anchor="middle" x="547.9335" y="-49.5" font-family="Helvetica,sans-Serif" font-size="10.00" fill="#000000">::select</text>
</a>
</g>
</g>
<!-- Node1&#45;&gt;Node11 -->
<g id="edge10" class="edge">
<title>Node1&#45;&gt;Node11</title>
<path fill="none" stroke="#191970" d="M798.2913,-87.9061C788.7457,-85.4912 778.9628,-83.2527 769.619,-81.5 715.2356,-71.2986 652.4368,-65.3174 607.5933,-62.0248"/>
<polygon fill="#191970" stroke="#191970" points="797.5648,-91.3336 808.1246,-90.4735 799.3332,-84.5607 797.5648,-91.3336"/>
</g>
<!-- Node13 -->
<g id="node13" class="node">
<title>Node13</title>
<g id="a_node13"><a xlink:href="class_l_f_s_t_k__file_dialog_class_a1a2380be673fe96eeb957ddd90051d05.xhtml#a1a2380be673fe96eeb957ddd90051d05" target="_top" xlink:title=" ">
<polygon fill="none" stroke="#000000" points="648.888,-90.5 648.888,-122.5 767.669,-122.5 767.669,-90.5 648.888,-90.5"/>
<text text-anchor="start" x="656.888" y="-109.5" font-family="Helvetica,sans-Serif" font-size="10.00" fill="#000000">LFSTK_fileDialogClass</text>
<text text-anchor="middle" x="708.2785" y="-97.5" font-family="Helvetica,sans-Serif" font-size="10.00" fill="#000000">::setFileData</text>
</a>
</g>
</g>
<!-- Node1&#45;&gt;Node13 -->
<g id="edge12" class="edge">
<title>Node1&#45;&gt;Node13</title>
<path fill="none" stroke="#191970" d="M795.1958,-106.5C786.1144,-106.5 776.8279,-106.5 767.8649,-106.5"/>
<polygon fill="#191970" stroke="#191970" points="795.3338,-110.0001 805.3337,-106.5 795.3337,-103.0001 795.3338,-110.0001"/>
</g>
<!-- Node14 -->
<g id="node14" class="node">
<title>Node14</title>
<g id="a_node14"><a xlink:href="class_l_f_s_t_k__file_dialog_class_ac7703591352d5105def9c5293fbeed62.xhtml#ac7703591352d5105def9c5293fbeed62" target="_top" xlink:title=" ">
<polygon fill="none" stroke="#000000" points="648.888,-.5 648.888,-32.5 767.669,-32.5 767.669,-.5 648.888,-.5"/>
<text text-anchor="start" x="656.888" y="-19.5" font-family="Helvetica,sans-Serif" font-size="10.00" fill="#000000">LFSTK_fileDialogClass</text>
<text text-anchor="middle" x="708.2785" y="-7.5" font-family="Helvetica,sans-Serif" font-size="10.00" fill="#000000">::setPreviewData</text>
</a>
</g>
</g>
<!-- Node1&#45;&gt;Node14 -->
<g id="edge15" class="edge">
<title>Node1&#45;&gt;Node14</title>
<path fill="none" stroke="#191970" d="M828.6961,-84.5178C811.453,-73.0333 789.6792,-59.0126 769.619,-47.5 760.7189,-42.3922 750.8761,-37.2178 741.7283,-32.5978"/>
<polygon fill="#191970" stroke="#191970" points="827.0123,-87.6027 837.267,-90.2655 830.911,-81.789 827.0123,-87.6027"/>
</g>
<!-- Node3 -->
<g id="node3" class="node">
<title>Node3</title>
<g id="a_node3"><a xlink:href="class_l_f_s_t_k__font_dialog_class_a552f817a8f926c4cb1e423ce244c0a76.xhtml#a552f817a8f926c4cb1e423ce244c0a76" target="_top" xlink:title=" ">
<polygon fill="none" stroke="#000000" points="486.593,-180.5 486.593,-212.5 609.274,-212.5 609.274,-180.5 486.593,-180.5"/>
<text text-anchor="start" x="494.593" y="-199.5" font-family="Helvetica,sans-Serif" font-size="10.00" fill="#000000">LFSTK_fontDialogClass</text>
<text text-anchor="middle" x="547.9335" y="-187.5" font-family="Helvetica,sans-Serif" font-size="10.00" fill="#000000">::LFSTK_getFontData</text>
</a>
</g>
</g>
<!-- Node2&#45;&gt;Node3 -->
<g id="edge2" class="edge">
<title>Node2&#45;&gt;Node3</title>
<path fill="none" stroke="#191970" d="M636.5603,-196.5C627.4631,-196.5 618.2191,-196.5 609.3038,-196.5"/>
<polygon fill="#191970" stroke="#191970" points="636.7435,-200.0001 646.7435,-196.5 636.7435,-193.0001 636.7435,-200.0001"/>
</g>
<!-- Node4 -->
<g id="node4" class="node">
<title>Node4</title>
<g id="a_node4"><a xlink:href="_l_f_s_t_k_font_dialog_8cpp_aafd549c8125eb6d28fe5be736bce5806.xhtml#aafd549c8125eb6d28fe5be736bce5806" target="_top" xlink:title=" ">
<polygon fill="none" stroke="#000000" points="357.9215,-234.5 357.9215,-254.5 413.9275,-254.5 413.9275,-234.5 357.9215,-234.5"/>
<text text-anchor="middle" x="385.9245" y="-241.5" font-family="Helvetica,sans-Serif" font-size="10.00" fill="#000000">checkCB</text>
</a>
</g>
</g>
<!-- Node3&#45;&gt;Node4 -->
<g id="edge3" class="edge">
<title>Node3&#45;&gt;Node4</title>
<path fill="none" stroke="#191970" d="M483.6854,-215.5354C459.5082,-222.6986 433.2484,-230.4789 414.0388,-236.1703"/>
<polygon fill="#191970" stroke="#191970" points="484.9424,-218.8135 493.5362,-212.6168 482.9538,-212.1018 484.9424,-218.8135"/>
</g>
<!-- Node5 -->
<g id="node5" class="node">
<title>Node5</title>
<g id="a_node5"><a xlink:href="class_l_f_s_t_k__font_dialog_class_a14c5f93b43c729a1bcb8bebe141415f2.xhtml#a14c5f93b43c729a1bcb8bebe141415f2" target="_top" xlink:title=" ">
<polygon fill="none" stroke="#000000" points="324.584,-183.5 324.584,-215.5 447.265,-215.5 447.265,-183.5 324.584,-183.5"/>
<text text-anchor="start" x="332.584" y="-202.5" font-family="Helvetica,sans-Serif" font-size="10.00" fill="#000000">LFSTK_fontDialogClass</text>
<text text-anchor="middle" x="385.9245" y="-190.5" font-family="Helvetica,sans-Serif" font-size="10.00" fill="#000000">::LFSTK_showDialog</text>
</a>
</g>
</g>
<!-- Node3&#45;&gt;Node5 -->
<g id="edge4" class="edge">
<title>Node3&#45;&gt;Node5</title>
<path fill="none" stroke="#191970" d="M475.9872,-197.8323C466.4702,-198.0085 456.7842,-198.1879 447.4637,-198.3604"/>
<polygon fill="#191970" stroke="#191970" points="476.2892,-201.3274 486.2227,-197.6427 476.1596,-194.3286 476.2892,-201.3274"/>
</g>
<!-- Node6 -->
<g id="node6" class="node">
<title>Node6</title>
<g id="a_node6"><a xlink:href="_l_f_s_t_k_font_dialog_8cpp_a5c76f9930f86875dfa22fb71e9b6adcb.xhtml#a5c76f9930f86875dfa22fb71e9b6adcb" target="_top" xlink:title=" ">
<polygon fill="none" stroke="#000000" points="364.8665,-144.5 364.8665,-164.5 406.9825,-164.5 406.9825,-144.5 364.8665,-144.5"/>
<text text-anchor="middle" x="385.9245" y="-151.5" font-family="Helvetica,sans-Serif" font-size="10.00" fill="#000000">select</text>
</a>
</g>
</g>
<!-- Node3&#45;&gt;Node6 -->
<g id="edge5" class="edge">
<title>Node3&#45;&gt;Node6</title>
<path fill="none" stroke="#191970" d="M476.3038,-177.9304C451.1765,-171.4162 424.8295,-164.5859 407.1095,-159.9921"/>
<polygon fill="#191970" stroke="#191970" points="475.6643,-181.3802 486.2227,-180.5018 477.421,-174.6042 475.6643,-181.3802"/>
</g>
<!-- Node7 -->
<g id="node7" class="node">
<title>Node7</title>
<g id="a_node7"><a xlink:href="class_l_f_s_t_k__font_dialog_class_af866eb2b1ba8178c9cf3e751716fcc8e.xhtml#af866eb2b1ba8178c9cf3e751716fcc8e" target="_top" xlink:title=" ">
<polygon fill="none" stroke="#000000" points="164.239,-138.5 164.239,-170.5 286.92,-170.5 286.92,-138.5 164.239,-138.5"/>
<text text-anchor="start" x="172.239" y="-157.5" font-family="Helvetica,sans-Serif" font-size="10.00" fill="#000000">LFSTK_fontDialogClass</text>
<text text-anchor="middle" x="225.5795" y="-145.5" font-family="Helvetica,sans-Serif" font-size="10.00" fill="#000000">::buildDialog</text>
</a>
</g>
</g>
<!-- Node6&#45;&gt;Node7 -->
<g id="edge6" class="edge">
<title>Node6&#45;&gt;Node7</title>
<path fill="none" stroke="#191970" d="M354.3735,-154.5C335.2079,-154.5 310.0854,-154.5 287.1216,-154.5"/>
<polygon fill="#191970" stroke="#191970" points="354.632,-158.0001 364.6319,-154.5 354.6319,-151.0001 354.632,-158.0001"/>
</g>
<!-- Node8 -->
<g id="node8" class="node">
<title>Node8</title>
<g id="a_node8"><a xlink:href="class_l_f_s_t_k__font_dialog_class_ab7b6a4bca99713646ab6ac77dc34827c.xhtml#ab7b6a4bca99713646ab6ac77dc34827c" target="_top" xlink:title=" ">
<polygon fill="none" stroke="#000000" points="0,-138.5 0,-170.5 128.239,-170.5 128.239,-138.5 0,-138.5"/>
<text text-anchor="start" x="8" y="-157.5" font-family="Helvetica,sans-Serif" font-size="10.00" fill="#000000">LFSTK_fontDialogClass</text>
<text text-anchor="middle" x="64.1195" y="-145.5" font-family="Helvetica,sans-Serif" font-size="10.00" fill="#000000">::LFSTK_fontDialogClass</text>
</a>
</g>
</g>
<!-- Node7&#45;&gt;Node8 -->
<g id="edge7" class="edge">
<title>Node7&#45;&gt;Node8</title>
<path fill="none" stroke="#191970" d="M153.8365,-154.5C145.3653,-154.5 136.7604,-154.5 128.4012,-154.5"/>
<polygon fill="#191970" stroke="#191970" points="154.0778,-158.0001 164.0778,-154.5 154.0778,-151.0001 154.0778,-158.0001"/>
</g>
<!-- Node10 -->
<g id="node10" class="node">
<title>Node10</title>
<g id="a_node10"><a xlink:href="class_l_f_s_t_k__file_dialog_class_aacf1d4b61cbb5b40d06f591ea96f9ea7.xhtml#aacf1d4b61cbb5b40d06f591ea96f9ea7" target="_top" xlink:title=" ">
<polygon fill="none" stroke="#000000" points="322.92,-93.5 322.92,-125.5 448.929,-125.5 448.929,-93.5 322.92,-93.5"/>
<text text-anchor="start" x="330.92" y="-112.5" font-family="Helvetica,sans-Serif" font-size="10.00" fill="#000000">LFSTK_fileDialogClass</text>
<text text-anchor="middle" x="385.9245" y="-100.5" font-family="Helvetica,sans-Serif" font-size="10.00" fill="#000000">::LFSTK_showFileDialog</text>
</a>
</g>
</g>
<!-- Node9&#45;&gt;Node10 -->
<g id="edge9" class="edge">
<title>Node9&#45;&gt;Node10</title>
<path fill="none" stroke="#191970" d="M474.5558,-109.5C466.064,-109.5 457.4593,-109.5 449.1196,-109.5"/>
<polygon fill="#191970" stroke="#191970" points="474.8327,-113.0001 484.8327,-109.5 474.8327,-106.0001 474.8327,-113.0001"/>
</g>
<!-- Node12 -->
<g id="node12" class="node">
<title>Node12</title>
<g id="a_node12"><a xlink:href="class_l_f_s_t_k__file_dialog_class_a553ce8e885b0d60cbf515b7b3d1e8b65.xhtml#a553ce8e885b0d60cbf515b7b3d1e8b65" target="_top" xlink:title=" ">
<polygon fill="none" stroke="#000000" points="323.755,-42.5 323.755,-74.5 448.094,-74.5 448.094,-42.5 323.755,-42.5"/>
<text text-anchor="start" x="331.755" y="-61.5" font-family="Helvetica,sans-Serif" font-size="10.00" fill="#000000">LFSTK_fileDialogClass</text>
<text text-anchor="middle" x="385.9245" y="-49.5" font-family="Helvetica,sans-Serif" font-size="10.00" fill="#000000">::LFSTK_fileDialogClass</text>
</a>
</g>
</g>
<!-- Node11&#45;&gt;Node12 -->
<g id="edge11" class="edge">
<title>Node11&#45;&gt;Node12</title>
<path fill="none" stroke="#191970" d="M478.2634,-58.5C468.3084,-58.5 458.1204,-58.5 448.317,-58.5"/>
<polygon fill="#191970" stroke="#191970" points="478.5273,-62.0001 488.5273,-58.5 478.5272,-55.0001 478.5273,-62.0001"/>
</g>
<!-- Node13&#45;&gt;Node9 -->
<g id="edge13" class="edge">
<title>Node13&#45;&gt;Node9</title>
<path fill="none" stroke="#191970" d="M638.4387,-107.8067C629.3737,-107.9763 620.1296,-108.1492 611.1802,-108.3167"/>
<polygon fill="#191970" stroke="#191970" points="638.6392,-111.3036 648.5719,-107.6171 638.5082,-104.3049 638.6392,-111.3036"/>
</g>
<!-- Node13&#45;&gt;Node11 -->
<g id="edge14" class="edge">
<title>Node13&#45;&gt;Node11</title>
<path fill="none" stroke="#191970" d="M644.7057,-87.4692C630.442,-83.1993 615.4453,-78.71 601.63,-74.5743"/>
<polygon fill="#191970" stroke="#191970" points="643.8562,-90.8683 654.4399,-90.3832 645.8637,-84.1623 643.8562,-90.8683"/>
</g>
<!-- Node14&#45;&gt;Node11 -->
<g id="edge16" class="edge">
<title>Node14&#45;&gt;Node11</title>
<path fill="none" stroke="#191970" d="M638.682,-34.7298C628.2647,-37.4584 617.6049,-40.2506 607.4229,-42.9176"/>
<polygon fill="#191970" stroke="#191970" points="639.7852,-38.059 648.5719,-32.1392 638.0114,-31.2874 639.7852,-38.059"/>
</g>
</g>
</svg>
        <g id="navigator" transform="translate(0 0)" fill="#404254">
                <rect fill="#f2f5e9" fill-opacity="0.5" stroke="#606060" stroke-width=".5" x="0" y="0" width="60" height="60"/>
                <use id="zoomplus" xlink:href="#zoomPlus" x="17" y="9" onmousedown="handleZoom(evt,'in')"/>
                <use id="zoomminus" xlink:href="#zoomMin" x="42" y="9" onmousedown="handleZoom(evt,'out')"/>
                <use id="reset" xlink:href="#resetDef" x="30" y="36" onmousedown="handleReset()"/>
                <g id="arrowUp" xlink:href="#dirArrow" transform="translate(30 24)" onmousedown="handlePan(0,-1)">
                  <use xlink:href="#rim" fill="#404040">
                        <set attributeName="fill" to="#808080" begin="arrowUp.mouseover" end="arrowUp.mouseout"/>
                  </use>
                  <path fill="none" stroke="white" stroke-width="1.5" d="M0,-3.0v7 M-2.5,-0.5L0,-3.0L2.5,-0.5"/>
                </g>
                <g id="arrowRight" xlink:href="#dirArrow" transform="rotate(90) translate(36 -43)" onmousedown="handlePan(1,0)">
                  <use xlink:href="#rim" fill="#404040">
                        <set attributeName="fill" to="#808080" begin="arrowRight.mouseover" end="arrowRight.mouseout"/>
                  </use>
                  <path fill="none" stroke="white" stroke-width="1.5" d="M0,-3.0v7 M-2.5,-0.5L0,-3.0L2.5,-0.5"/>
                </g>
                <g id="arrowDown" xlink:href="#dirArrow" transform="rotate(180) translate(-30 -48)" onmousedown="handlePan(0,1)">
                  <use xlink:href="#rim" fill="#404040">
                        <set attributeName="fill" to="#808080" begin="arrowDown.mouseover" end="arrowDown.mouseout"/>
                  </use>
                  <path fill="none" stroke="white" stroke-width="1.5" d="M0,-3.0v7 M-2.5,-0.5L0,-3.0L2.5,-0.5"/>
                </g>
                <g id="arrowLeft" xlink:href="#dirArrow" transform="rotate(270) translate(-36 17)" onmousedown="handlePan(-1,0)">
                  <use xlink:href="#rim" fill="#404040">
                        <set attributeName="fill" to="#808080" begin="arrowLeft.mouseover" end="arrowLeft.mouseout"/>
                  </use>
                  <path fill="none" stroke="white" stroke-width="1.5" d="M0,-3.0v7 M-2.5,-0.5L0,-3.0L2.5,-0.5"/>
                </g>
        </g>
        <svg viewBox="0 0 15 15" width="100%" height="30px" preserveAspectRatio="xMaxYMin meet">
         <g id="arrow_out" transform="scale(0.3 0.3)">
          <a xlink:href="class_l_f_s_t_k__line_edit_class_adfaad6bd5ec8f4ecc3be7a6358693786_adfaad6bd5ec8f4ecc3be7a6358693786_icgraph_org.svg" target="_base">
           <rect id="button" ry="5" rx="5" y="6" x="6" height="38" width="38"
                fill="#f2f5e9" fill-opacity="0.5" stroke="#606060" stroke-width="1.0"/>
           <path id="arrow"
             d="M 11.500037,31.436501 C 11.940474,20.09759 22.043105,11.32322 32.158766,21.979434 L 37.068811,17.246167 C 37.068811,17.246167 37.088388,32 37.088388,32 L 22.160133,31.978069 C 22.160133,31.978069 26.997745,27.140456 26.997745,27.140456 C 18.528582,18.264221 13.291696,25.230495 11.500037,31.436501 z"
             style="fill:#404040;"/>
          </a>
         </g>
        </svg>
</svg>
