<?xml version="1.0" encoding="UTF-8" standalone="no"?>
<!DOCTYPE svg PUBLIC "-//W3C//DTD SVG 1.1//EN"
 "http://www.w3.org/Graphics/SVG/1.1/DTD/svg11.dtd">
<!-- Generated by graphviz version 2.40.1 (20161225.0304)
 -->
<!-- Title: LFSTK_windowClass::LFSTK_resizeWindow Pages: 1 -->
<svg width="925pt" height="252pt"
 viewBox="0.00 0.00 924.67 252.00" xmlns="http://www.w3.org/2000/svg" xmlns:xlink="http://www.w3.org/1999/xlink">
<g id="graph0" class="graph" transform="scale(1 1) rotate(0) translate(4 248)">
<title>LFSTK_windowClass::LFSTK_resizeWindow</title>
<!-- Node1 -->
<g id="node1" class="node">
<title>Node1</title>
<g id="a_node1"><a xlink:title=" ">
<polygon fill="#bfbfbf" stroke="#000000" points="0,-70.5 0,-102.5 116.563,-102.5 116.563,-70.5 0,-70.5"/>
<text text-anchor="start" x="8" y="-89.5" font-family="Helvetica,sans-Serif" font-size="10.00" fill="#000000">LFSTK_windowClass::</text>
<text text-anchor="middle" x="58.2815" y="-77.5" font-family="Helvetica,sans-Serif" font-size="10.00" fill="#000000">LFSTK_resizeWindow</text>
</a>
</g>
</g>
<!-- Node2 -->
<g id="node2" class="node">
<title>Node2</title>
<g id="a_node2"><a xlink:href="class_l_f_s_t_k__window_class_ac3b5b99b3a018cce7c631df39db76be1.xhtml#ac3b5b99b3a018cce7c631df39db76be1" target="_top" xlink:title=" ">
<polygon fill="none" stroke="#000000" points="165.3445,-121.5 165.3445,-153.5 281.9075,-153.5 281.9075,-121.5 165.3445,-121.5"/>
<text text-anchor="start" x="173.3445" y="-140.5" font-family="Helvetica,sans-Serif" font-size="10.00" fill="#000000">LFSTK_windowClass::</text>
<text text-anchor="middle" x="223.626" y="-128.5" font-family="Helvetica,sans-Serif" font-size="10.00" fill="#000000">LFSTK_clearWindow</text>
</a>
</g>
</g>
<!-- Node1&#45;&gt;Node2 -->
<g id="edge1" class="edge">
<title>Node1&#45;&gt;Node2</title>
<path fill="none" stroke="#191970" d="M110.5975,-102.6367C126.8898,-107.662 145.0087,-113.2507 161.8824,-118.4554"/>
<polygon fill="#191970" stroke="#191970" points="161.0629,-121.8653 171.6503,-121.4683 163.1262,-115.1762 161.0629,-121.8653"/>
</g>
<!-- Node12 -->
<g id="node12" class="node">
<title>Node12</title>
<g id="a_node12"><a xlink:href="class_l_f_s_t_k__lib_aa5e46eec51c9f1f2a86ef7e22d6cba5b.xhtml#aa5e46eec51c9f1f2a86ef7e22d6cba5b" target="_top" xlink:title=" ">
<polygon fill="none" stroke="#000000" points="152.563,-70.5 152.563,-102.5 294.689,-102.5 294.689,-70.5 152.563,-70.5"/>
<text text-anchor="start" x="160.563" y="-89.5" font-family="Helvetica,sans-Serif" font-size="10.00" fill="#000000">LFSTK_lib::LFSTK_setCairo</text>
<text text-anchor="middle" x="223.626" y="-77.5" font-family="Helvetica,sans-Serif" font-size="10.00" fill="#000000">Surface</text>
</a>
</g>
</g>
<!-- Node1&#45;&gt;Node12 -->
<g id="edge12" class="edge">
<title>Node1&#45;&gt;Node12</title>
<path fill="none" stroke="#191970" d="M116.5758,-86.5C124.9291,-86.5 133.6471,-86.5 142.3445,-86.5"/>
<polygon fill="#191970" stroke="#191970" points="142.5221,-90.0001 152.522,-86.5 142.522,-83.0001 142.5221,-90.0001"/>
</g>
<!-- Node13 -->
<g id="node13" class="node">
<title>Node13</title>
<g id="a_node13"><a xlink:href="class_l_f_s_t_k__window_class_ac8c342109a0f8599f550475cef048745.xhtml#ac8c342109a0f8599f550475cef048745" target="_top" xlink:title=" ">
<polygon fill="none" stroke="#000000" points="165.3445,-19.5 165.3445,-51.5 281.9075,-51.5 281.9075,-19.5 165.3445,-19.5"/>
<text text-anchor="start" x="173.3445" y="-38.5" font-family="Helvetica,sans-Serif" font-size="10.00" fill="#000000">LFSTK_windowClass::</text>
<text text-anchor="middle" x="223.626" y="-26.5" font-family="Helvetica,sans-Serif" font-size="10.00" fill="#000000">setWindowGeom</text>
</a>
</g>
</g>
<!-- Node1&#45;&gt;Node13 -->
<g id="edge13" class="edge">
<title>Node1&#45;&gt;Node13</title>
<path fill="none" stroke="#191970" d="M110.5975,-70.3633C126.8898,-65.338 145.0087,-59.7493 161.8824,-54.5446"/>
<polygon fill="#191970" stroke="#191970" points="163.1262,-57.8238 171.6503,-51.5317 161.0629,-51.1347 163.1262,-57.8238"/>
</g>
<!-- Node3 -->
<g id="node3" class="node">
<title>Node3</title>
<g id="a_node3"><a xlink:href="class_l_f_s_t_k__gadget_class_aa5b5f301fe9b0a4d7679f786da7462ba.xhtml#aa5b5f301fe9b0a4d7679f786da7462ba" target="_top" xlink:title=" ">
<polygon fill="none" stroke="#000000" points="330.689,-121.5 330.689,-153.5 444.492,-153.5 444.492,-121.5 330.689,-121.5"/>
<text text-anchor="start" x="338.689" y="-140.5" font-family="Helvetica,sans-Serif" font-size="10.00" fill="#000000">LFSTK_gadgetClass::</text>
<text text-anchor="middle" x="387.5905" y="-128.5" font-family="Helvetica,sans-Serif" font-size="10.00" fill="#000000">LFSTK_clearWindow</text>
</a>
</g>
</g>
<!-- Node2&#45;&gt;Node3 -->
<g id="edge2" class="edge">
<title>Node2&#45;&gt;Node3</title>
<path fill="none" stroke="#191970" d="M282.3578,-137.5C294.7566,-137.5 307.9288,-137.5 320.6057,-137.5"/>
<polygon fill="#191970" stroke="#191970" points="320.6419,-141.0001 330.6419,-137.5 320.6418,-134.0001 320.6419,-141.0001"/>
</g>
<!-- Node4 -->
<g id="node4" class="node">
<title>Node4</title>
<g id="a_node4"><a xlink:href="class_l_f_s_t_k__gadget_class_a66b92f213e5a7e75da3f707b511342ea.xhtml#a66b92f213e5a7e75da3f707b511342ea" target="_top" xlink:title=" ">
<polygon fill="none" stroke="#000000" points="480.492,-121.5 480.492,-153.5 594.295,-153.5 594.295,-121.5 480.492,-121.5"/>
<text text-anchor="start" x="488.492" y="-140.5" font-family="Helvetica,sans-Serif" font-size="10.00" fill="#000000">LFSTK_gadgetClass::</text>
<text text-anchor="middle" x="537.3935" y="-128.5" font-family="Helvetica,sans-Serif" font-size="10.00" fill="#000000">drawGagetDetails</text>
</a>
</g>
</g>
<!-- Node3&#45;&gt;Node4 -->
<g id="edge3" class="edge">
<title>Node3&#45;&gt;Node4</title>
<path fill="none" stroke="#191970" d="M444.6519,-137.5C453.0909,-137.5 461.8506,-137.5 470.4679,-137.5"/>
<polygon fill="#191970" stroke="#191970" points="470.4908,-141.0001 480.4907,-137.5 470.4907,-134.0001 470.4908,-141.0001"/>
</g>
<!-- Node5 -->
<g id="node5" class="node">
<title>Node5</title>
<g id="a_node5"><a xlink:href="class_l_f_s_t_k__gadget_class_a37d96aab3c59cb97fca1720441e3fc8e.xhtml#a37d96aab3c59cb97fca1720441e3fc8e" target="_top" xlink:title=" ">
<polygon fill="none" stroke="#000000" points="630.295,-211.5 630.295,-243.5 744.098,-243.5 744.098,-211.5 630.295,-211.5"/>
<text text-anchor="start" x="638.295" y="-230.5" font-family="Helvetica,sans-Serif" font-size="10.00" fill="#000000">LFSTK_gadgetClass::</text>
<text text-anchor="middle" x="687.1965" y="-218.5" font-family="Helvetica,sans-Serif" font-size="10.00" fill="#000000">clearBox</text>
</a>
</g>
</g>
<!-- Node4&#45;&gt;Node5 -->
<g id="edge4" class="edge">
<title>Node4&#45;&gt;Node5</title>
<path fill="none" stroke="#191970" d="M561.956,-153.7326C580.5244,-165.8483 606.7534,-182.6328 630.295,-196.5 635.8927,-199.7973 641.8606,-203.1846 647.7467,-206.4533"/>
<polygon fill="#191970" stroke="#191970" points="646.4144,-209.7148 656.8641,-211.4625 649.7851,-203.5797 646.4144,-209.7148"/>
</g>
<!-- Node6 -->
<g id="node6" class="node">
<title>Node6</title>
<g id="a_node6"><a xlink:href="class_l_f_s_t_k__gadget_class_ab76db165a19af248b5e94e95492dc879.xhtml#ab76db165a19af248b5e94e95492dc879" target="_top" xlink:title=" ">
<polygon fill="none" stroke="#000000" points="791.4845,-128.5 791.4845,-160.5 905.2875,-160.5 905.2875,-128.5 791.4845,-128.5"/>
<text text-anchor="start" x="799.4845" y="-147.5" font-family="Helvetica,sans-Serif" font-size="10.00" fill="#000000">LFSTK_gadgetClass::</text>
<text text-anchor="middle" x="848.386" y="-135.5" font-family="Helvetica,sans-Serif" font-size="10.00" fill="#000000">drawBevel</text>
</a>
</g>
</g>
<!-- Node4&#45;&gt;Node6 -->
<g id="edge5" class="edge">
<title>Node4&#45;&gt;Node6</title>
<path fill="none" stroke="#191970" d="M585.0843,-153.5327C599.4458,-157.6275 615.3615,-161.4497 630.295,-163.5 680.404,-170.3797 693.7241,-168.0513 744.098,-163.5 756.1264,-162.4132 768.841,-160.6351 781.0997,-158.5914"/>
<polygon fill="#191970" stroke="#191970" points="782.0132,-161.9851 791.2647,-156.8217 780.8125,-155.0889 782.0132,-161.9851"/>
</g>
<!-- Node7 -->
<g id="node7" class="node">
<title>Node7</title>
<g id="a_node7"><a xlink:href="class_l_f_s_t_k__gadget_class_af5386ffc4699273f6c53a920fc8b2f1d.xhtml#af5386ffc4699273f6c53a920fc8b2f1d" target="_top" xlink:title=" ">
<polygon fill="none" stroke="#000000" points="630.295,-121.5 630.295,-153.5 744.098,-153.5 744.098,-121.5 630.295,-121.5"/>
<text text-anchor="start" x="638.295" y="-140.5" font-family="Helvetica,sans-Serif" font-size="10.00" fill="#000000">LFSTK_gadgetClass::</text>
<text text-anchor="middle" x="687.1965" y="-128.5" font-family="Helvetica,sans-Serif" font-size="10.00" fill="#000000">drawImage</text>
</a>
</g>
</g>
<!-- Node4&#45;&gt;Node7 -->
<g id="edge6" class="edge">
<title>Node4&#45;&gt;Node7</title>
<path fill="none" stroke="#191970" d="M594.4549,-137.5C602.8939,-137.5 611.6536,-137.5 620.2709,-137.5"/>
<polygon fill="#191970" stroke="#191970" points="620.2938,-141.0001 630.2937,-137.5 620.2937,-134.0001 620.2938,-141.0001"/>
</g>
<!-- Node8 -->
<g id="node8" class="node">
<title>Node8</title>
<g id="a_node8"><a xlink:href="class_l_f_s_t_k__gadget_class_af77235e4dc604470c9d62f101238225b.xhtml#af77235e4dc604470c9d62f101238225b" target="_top" xlink:title=" ">
<polygon fill="none" stroke="#000000" points="630.295,-70.5 630.295,-102.5 744.098,-102.5 744.098,-70.5 630.295,-70.5"/>
<text text-anchor="start" x="638.295" y="-89.5" font-family="Helvetica,sans-Serif" font-size="10.00" fill="#000000">LFSTK_gadgetClass::</text>
<text text-anchor="middle" x="687.1965" y="-77.5" font-family="Helvetica,sans-Serif" font-size="10.00" fill="#000000">drawIndicator</text>
</a>
</g>
</g>
<!-- Node4&#45;&gt;Node8 -->
<g id="edge7" class="edge">
<title>Node4&#45;&gt;Node8</title>
<path fill="none" stroke="#191970" d="M584.7921,-121.3633C599.2771,-116.4319 615.3557,-110.958 630.398,-105.8369"/>
<polygon fill="#191970" stroke="#191970" points="631.7678,-109.0679 640.1062,-102.5317 629.5118,-102.4414 631.7678,-109.0679"/>
</g>
<!-- Node9 -->
<g id="node9" class="node">
<title>Node9</title>
<g id="a_node9"><a xlink:href="class_l_f_s_t_k__gadget_class_a7f44f781b167d66c5d6f4cc862a7e2db.xhtml#a7f44f781b167d66c5d6f4cc862a7e2db" target="_top" xlink:title=" ">
<polygon fill="none" stroke="#000000" points="630.295,-19.5 630.295,-51.5 744.098,-51.5 744.098,-19.5 630.295,-19.5"/>
<text text-anchor="start" x="638.295" y="-38.5" font-family="Helvetica,sans-Serif" font-size="10.00" fill="#000000">LFSTK_gadgetClass::</text>
<text text-anchor="middle" x="687.1965" y="-26.5" font-family="Helvetica,sans-Serif" font-size="10.00" fill="#000000">drawLabel</text>
</a>
</g>
</g>
<!-- Node4&#45;&gt;Node9 -->
<g id="edge9" class="edge">
<title>Node4&#45;&gt;Node9</title>
<path fill="none" stroke="#191970" d="M553.763,-121.4985C571.5205,-104.748 601.2387,-78.4356 630.295,-60.5 632.6249,-59.0618 635.0519,-57.6631 637.534,-56.3102"/>
<polygon fill="#191970" stroke="#191970" points="639.3817,-59.2963 646.6872,-51.623 636.191,-53.0658 639.3817,-59.2963"/>
</g>
<!-- Node8&#45;&gt;Node6 -->
<g id="edge8" class="edge">
<title>Node8&#45;&gt;Node6</title>
<path fill="none" stroke="#191970" d="M731.6689,-102.5023C751.0563,-109.4784 773.9599,-117.7196 794.3208,-125.046"/>
<polygon fill="#191970" stroke="#191970" points="793.1847,-128.3568 803.7792,-128.4493 795.5548,-121.7703 793.1847,-128.3568"/>
</g>
<!-- Node10 -->
<g id="node10" class="node">
<title>Node10</title>
<g id="a_node10"><a xlink:href="class_l_f_s_t_k__lib_ab2f14a3414f7db863682d1e2fa0cfb75.xhtml#ab2f14a3414f7db863682d1e2fa0cfb75" target="_top" xlink:title=" ">
<polygon fill="none" stroke="#000000" points="780.098,-51.5 780.098,-71.5 916.674,-71.5 916.674,-51.5 780.098,-51.5"/>
<text text-anchor="middle" x="848.386" y="-58.5" font-family="Helvetica,sans-Serif" font-size="10.00" fill="#000000">LFSTK_lib::bestFontColour</text>
</a>
</g>
</g>
<!-- Node9&#45;&gt;Node10 -->
<g id="edge10" class="edge">
<title>Node9&#45;&gt;Node10</title>
<path fill="none" stroke="#191970" d="M744.4797,-44.7398C754.7658,-46.399 765.6062,-48.1475 776.2477,-49.864"/>
<polygon fill="#191970" stroke="#191970" points="775.9351,-53.3588 786.3649,-51.4959 777.0499,-46.4481 775.9351,-53.3588"/>
</g>
<!-- Node11 -->
<g id="node11" class="node">
<title>Node11</title>
<g id="a_node11"><a xlink:href="class_l_f_s_t_k__gadget_class_a091281ba03eaeb31bc7507c74b9b4f2f.xhtml#a091281ba03eaeb31bc7507c74b9b4f2f" target="_top" xlink:title=" ">
<polygon fill="none" stroke="#000000" points="790.93,-.5 790.93,-32.5 905.842,-32.5 905.842,-.5 790.93,-.5"/>
<text text-anchor="start" x="798.93" y="-19.5" font-family="Helvetica,sans-Serif" font-size="10.00" fill="#000000">LFSTK_gadgetClass::</text>
<text text-anchor="middle" x="848.386" y="-7.5" font-family="Helvetica,sans-Serif" font-size="10.00" fill="#000000">LFSTK_getTextHeight</text>
</a>
</g>
</g>
<!-- Node9&#45;&gt;Node11 -->
<g id="edge11" class="edge">
<title>Node9&#45;&gt;Node11</title>
<path fill="none" stroke="#191970" d="M744.4797,-28.7478C756.2151,-27.3645 768.6719,-25.8962 780.7317,-24.4747"/>
<polygon fill="#191970" stroke="#191970" points="781.2226,-27.9411 790.7441,-23.2945 780.4031,-20.9892 781.2226,-27.9411"/>
</g>
</g>
</svg>
