<?xml version="1.0" encoding="UTF-8" standalone="no"?>
<!DOCTYPE svg PUBLIC "-//W3C//DTD SVG 1.1//EN"
 "http://www.w3.org/Graphics/SVG/1.1/DTD/svg11.dtd">
<!-- Generated by graphviz version 2.40.1 (20161225.0304)
 -->
<!-- Title: LFSTK_gadgetClass::LFSTK_getTextRealWidth Pages: 1 -->
<svg width="1256pt" height="679pt"
 viewBox="0.00 0.00 1256.43 679.00" xmlns="http://www.w3.org/2000/svg" xmlns:xlink="http://www.w3.org/1999/xlink">
<g id="graph0" class="graph" transform="scale(1 1) rotate(0) translate(4 675)">
<title>LFSTK_gadgetClass::LFSTK_getTextRealWidth</title>
<!-- Node1 -->
<g id="node1" class="node">
<title>Node1</title>
<g id="a_node1"><a xlink:title=" ">
<polygon fill="#bfbfbf" stroke="#000000" points="1116.3,-185.5 1116.3,-217.5 1248.429,-217.5 1248.429,-185.5 1116.3,-185.5"/>
<text text-anchor="start" x="1124.3" y="-204.5" font-family="Helvetica,sans-Serif" font-size="10.00" fill="#000000">LFSTK_gadgetClass::</text>
<text text-anchor="middle" x="1182.3645" y="-192.5" font-family="Helvetica,sans-Serif" font-size="10.00" fill="#000000">LFSTK_getTextRealWidth</text>
</a>
</g>
</g>
<!-- Node2 -->
<g id="node2" class="node">
<title>Node2</title>
<g id="a_node2"><a xlink:href="class_l_f_s_t_k__line_edit_class_a24da1f04ceb3b05ed9b25988e2cb5130.xhtml#a24da1f04ceb3b05ed9b25988e2cb5130" target="_top" xlink:title=" ">
<polygon fill="none" stroke="#000000" points="969.847,-331.5 969.847,-363.5 1080.3,-363.5 1080.3,-331.5 969.847,-331.5"/>
<text text-anchor="start" x="977.847" y="-350.5" font-family="Helvetica,sans-Serif" font-size="10.00" fill="#000000">LFSTK_lineEditClass</text>
<text text-anchor="middle" x="1025.0735" y="-338.5" font-family="Helvetica,sans-Serif" font-size="10.00" fill="#000000">::drawLabel</text>
</a>
</g>
</g>
<!-- Node1&#45;&gt;Node2 -->
<g id="edge1" class="edge">
<title>Node1&#45;&gt;Node2</title>
<path fill="none" stroke="#191970" d="M1157.2961,-224.7689C1125.2289,-254.5342 1070.508,-305.327 1042.5855,-331.2451"/>
<polygon fill="#191970" stroke="#191970" points="1159.9825,-227.0508 1164.9306,-217.6824 1155.2203,-221.9203 1159.9825,-227.0508"/>
</g>
<!-- Node16 -->
<g id="node16" class="node">
<title>Node16</title>
<g id="a_node16"><a xlink:href="class_l_f_s_t_k__line_edit_class_af610951625203a6d75bce118b2b94386.xhtml#af610951625203a6d75bce118b2b94386" target="_top" xlink:title=" ">
<polygon fill="none" stroke="#000000" points="491.586,-.5 491.586,-32.5 607.597,-32.5 607.597,-.5 491.586,-.5"/>
<text text-anchor="start" x="499.586" y="-19.5" font-family="Helvetica,sans-Serif" font-size="10.00" fill="#000000">LFSTK_lineEditClass</text>
<text text-anchor="middle" x="549.5915" y="-7.5" font-family="Helvetica,sans-Serif" font-size="10.00" fill="#000000">::LFSTK_lineEditClass</text>
</a>
</g>
</g>
<!-- Node1&#45;&gt;Node16 -->
<g id="edge32" class="edge">
<title>Node1&#45;&gt;Node16</title>
<path fill="none" stroke="#191970" d="M1117.7925,-182.6215C993.1108,-146.169 721.2451,-66.6853 604.572,-32.5743"/>
<polygon fill="#191970" stroke="#191970" points="1117.0119,-186.0397 1127.5923,-185.4866 1118.9762,-179.321 1117.0119,-186.0397"/>
</g>
<!-- Node27 -->
<g id="node27" class="node">
<title>Node27</title>
<g id="a_node27"><a xlink:href="class_l_f_s_t_k__line_edit_class_aeae7e32d645d01ae18149c3f472d6f3e.xhtml#aeae7e32d645d01ae18149c3f472d6f3e" target="_top" xlink:title=" ">
<polygon fill="none" stroke="#000000" points="820.8945,-185.5 820.8945,-217.5 931.3475,-217.5 931.3475,-185.5 820.8945,-185.5"/>
<text text-anchor="start" x="828.8945" y="-204.5" font-family="Helvetica,sans-Serif" font-size="10.00" fill="#000000">LFSTK_lineEditClass</text>
<text text-anchor="middle" x="876.121" y="-192.5" font-family="Helvetica,sans-Serif" font-size="10.00" fill="#000000">::setOffsetcurs</text>
</a>
</g>
</g>
<!-- Node1&#45;&gt;Node27 -->
<g id="edge33" class="edge">
<title>Node1&#45;&gt;Node27</title>
<path fill="none" stroke="#191970" d="M1106.058,-201.5C1051.9637,-201.5 980.608,-201.5 931.8201,-201.5"/>
<polygon fill="#191970" stroke="#191970" points="1106.2913,-205.0001 1116.2913,-201.5 1106.2912,-198.0001 1106.2913,-205.0001"/>
</g>
<!-- Node3 -->
<g id="node3" class="node">
<title>Node3</title>
<g id="a_node3"><a xlink:href="class_l_f_s_t_k__line_edit_class_adbcfa08279eec28c5f4e2c33a056d396.xhtml#adbcfa08279eec28c5f4e2c33a056d396" target="_top" xlink:title=" ">
<polygon fill="none" stroke="#000000" points="818.395,-395.5 818.395,-427.5 933.847,-427.5 933.847,-395.5 818.395,-395.5"/>
<text text-anchor="start" x="826.395" y="-414.5" font-family="Helvetica,sans-Serif" font-size="10.00" fill="#000000">LFSTK_lineEditClass</text>
<text text-anchor="middle" x="876.121" y="-402.5" font-family="Helvetica,sans-Serif" font-size="10.00" fill="#000000">::LFSTK_clearWindow</text>
</a>
</g>
</g>
<!-- Node2&#45;&gt;Node3 -->
<g id="edge2" class="edge">
<title>Node2&#45;&gt;Node3</title>
<path fill="none" stroke="#191970" d="M978.1614,-367.6566C957.288,-376.6252 933.0514,-387.0389 913.4377,-395.4662"/>
<polygon fill="#191970" stroke="#191970" points="979.6804,-370.8134 987.4865,-363.6499 976.917,-364.3819 979.6804,-370.8134"/>
</g>
<!-- Node4 -->
<g id="node4" class="node">
<title>Node4</title>
<g id="a_node4"><a xlink:href="class_l_f_s_t_k__font_dialog_class_ac2b51914d426e9ff7ba57211d5639514.xhtml#ac2b51914d426e9ff7ba57211d5639514" target="_top" xlink:title=" ">
<polygon fill="none" stroke="#000000" points="654.155,-536.5 654.155,-568.5 776.836,-568.5 776.836,-536.5 654.155,-536.5"/>
<text text-anchor="start" x="662.155" y="-555.5" font-family="Helvetica,sans-Serif" font-size="10.00" fill="#000000">LFSTK_fontDialogClass</text>
<text text-anchor="middle" x="715.4955" y="-543.5" font-family="Helvetica,sans-Serif" font-size="10.00" fill="#000000">::buildFontString</text>
</a>
</g>
</g>
<!-- Node3&#45;&gt;Node4 -->
<g id="edge3" class="edge">
<title>Node3&#45;&gt;Node4</title>
<path fill="none" stroke="#191970" d="M861.7649,-436.2015C845.5149,-462.2003 816.7809,-502.7216 782.395,-527.5 777.7677,-530.8344 772.6433,-533.7777 767.3499,-536.3628"/>
<polygon fill="#191970" stroke="#191970" points="864.7559,-438.0193 866.9809,-427.6607 858.7818,-434.3708 864.7559,-438.0193"/>
</g>
<!-- Node11 -->
<g id="node11" class="node">
<title>Node11</title>
<g id="a_node11"><a xlink:href="class_l_f_s_t_k__line_edit_class_a99cb0a4e5b4a6701e1f5399ae6b1f78d.xhtml#a99cb0a4e5b4a6701e1f5399ae6b1f78d" target="_top" xlink:title=" ">
<polygon fill="none" stroke="#000000" points="494.365,-306.5 494.365,-338.5 604.818,-338.5 604.818,-306.5 494.365,-306.5"/>
<text text-anchor="start" x="502.365" y="-325.5" font-family="Helvetica,sans-Serif" font-size="10.00" fill="#000000">LFSTK_lineEditClass</text>
<text text-anchor="middle" x="549.5915" y="-313.5" font-family="Helvetica,sans-Serif" font-size="10.00" fill="#000000">::getClip</text>
</a>
</g>
</g>
<!-- Node3&#45;&gt;Node11 -->
<g id="edge10" class="edge">
<title>Node3&#45;&gt;Node11</title>
<path fill="none" stroke="#191970" d="M855.6254,-387.9157C838.197,-369.6953 811.4328,-345.75 782.395,-334.5 725.0337,-312.2767 653.7166,-312.2131 605.2383,-315.8292"/>
<polygon fill="#191970" stroke="#191970" points="853.1326,-390.3748 862.5025,-395.3202 858.2617,-385.6111 853.1326,-390.3748"/>
</g>
<!-- Node12 -->
<g id="node12" class="node">
<title>Node12</title>
<g id="a_node12"><a xlink:href="class_l_f_s_t_k__line_edit_class_a499c645100977efb8a63ec1695b41e2b.xhtml#a499c645100977efb8a63ec1695b41e2b" target="_top" xlink:title=" ">
<polygon fill="none" stroke="#000000" points="332.356,-242.5 332.356,-274.5 442.809,-274.5 442.809,-242.5 332.356,-242.5"/>
<text text-anchor="start" x="340.356" y="-261.5" font-family="Helvetica,sans-Serif" font-size="10.00" fill="#000000">LFSTK_lineEditClass</text>
<text text-anchor="middle" x="387.5825" y="-249.5" font-family="Helvetica,sans-Serif" font-size="10.00" fill="#000000">::keyRelease</text>
</a>
</g>
</g>
<!-- Node3&#45;&gt;Node12 -->
<g id="edge13" class="edge">
<title>Node3&#45;&gt;Node12</title>
<path fill="none" stroke="#191970" d="M860.6917,-386.7794C844.3731,-362.9574 816.3168,-328.0243 782.395,-310.5 724.4266,-280.5531 537.3117,-266.498 443.0036,-261.1802"/>
<polygon fill="#191970" stroke="#191970" points="857.9086,-388.9152 866.359,-395.3059 863.7384,-385.0403 857.9086,-388.9152"/>
</g>
<!-- Node13 -->
<g id="node13" class="node">
<title>Node13</title>
<g id="a_node13"><a xlink:href="class_l_f_s_t_k__line_edit_class_a9e8f25104e1ac24b9cbb57b363a247d9.xhtml#a9e8f25104e1ac24b9cbb57b363a247d9" target="_top" xlink:title=" ">
<polygon fill="none" stroke="#000000" points="660.269,-638.5 660.269,-670.5 770.722,-670.5 770.722,-638.5 660.269,-638.5"/>
<text text-anchor="start" x="668.269" y="-657.5" font-family="Helvetica,sans-Serif" font-size="10.00" fill="#000000">LFSTK_lineEditClass</text>
<text text-anchor="middle" x="715.4955" y="-645.5" font-family="Helvetica,sans-Serif" font-size="10.00" fill="#000000">::gotFocus</text>
</a>
</g>
</g>
<!-- Node3&#45;&gt;Node13 -->
<g id="edge12" class="edge">
<title>Node3&#45;&gt;Node13</title>
<path fill="none" stroke="#191970" d="M871.7861,-437.5451C862.9532,-482.703 838.7265,-575.832 782.395,-629.5 778.8042,-632.921 774.7022,-635.8834 770.3365,-638.4468"/>
<polygon fill="#191970" stroke="#191970" points="875.2382,-438.1252 873.6223,-427.6543 868.3558,-436.8474 875.2382,-438.1252"/>
</g>
<!-- Node14 -->
<g id="node14" class="node">
<title>Node14</title>
<g id="a_node14"><a xlink:href="class_l_f_s_t_k__line_edit_class_a8755e35dd1aabd5696d4a94b85c64026.xhtml#a8755e35dd1aabd5696d4a94b85c64026" target="_top" xlink:title=" ">
<polygon fill="none" stroke="#000000" points="655.2695,-587.5 655.2695,-619.5 775.7215,-619.5 775.7215,-587.5 655.2695,-587.5"/>
<text text-anchor="start" x="663.2695" y="-606.5" font-family="Helvetica,sans-Serif" font-size="10.00" fill="#000000">LFSTK_lineEditClass</text>
<text text-anchor="middle" x="715.4955" y="-594.5" font-family="Helvetica,sans-Serif" font-size="10.00" fill="#000000">::LFSTK_resizeWindow</text>
</a>
</g>
</g>
<!-- Node3&#45;&gt;Node14 -->
<g id="edge14" class="edge">
<title>Node3&#45;&gt;Node14</title>
<path fill="none" stroke="#191970" d="M867.9191,-437.5985C855.2134,-474.008 827.4313,-539.9075 782.395,-578.5 778.4407,-581.8885 773.9832,-584.8381 769.294,-587.4016"/>
<polygon fill="#191970" stroke="#191970" points="871.3669,-438.3271 871.2432,-427.733 864.7333,-436.092 871.3669,-438.3271"/>
</g>
<!-- Node15 -->
<g id="node15" class="node">
<title>Node15</title>
<g id="a_node15"><a xlink:href="class_l_f_s_t_k__line_edit_class_acc05157418af7626402b30b0129e8899.xhtml#acc05157418af7626402b30b0129e8899" target="_top" xlink:title=" ">
<polygon fill="none" stroke="#000000" points="660.269,-147.5 660.269,-179.5 770.722,-179.5 770.722,-147.5 660.269,-147.5"/>
<text text-anchor="start" x="668.269" y="-166.5" font-family="Helvetica,sans-Serif" font-size="10.00" fill="#000000">LFSTK_lineEditClass</text>
<text text-anchor="middle" x="715.4955" y="-154.5" font-family="Helvetica,sans-Serif" font-size="10.00" fill="#000000">::LFSTK_setBuffer</text>
</a>
</g>
</g>
<!-- Node3&#45;&gt;Node15 -->
<g id="edge15" class="edge">
<title>Node3&#45;&gt;Node15</title>
<path fill="none" stroke="#191970" d="M860.6344,-386.6264C842.2024,-357.1201 810.3934,-306.5087 782.395,-263.5 763.022,-233.7409 739.8775,-199.4077 726.5136,-179.6985"/>
<polygon fill="#191970" stroke="#191970" points="857.8637,-388.7976 866.1271,-395.4284 863.8023,-385.0917 857.8637,-388.7976"/>
</g>
<!-- Node22 -->
<g id="node22" class="node">
<title>Node22</title>
<g id="a_node22"><a xlink:href="class_l_f_s_t_k__line_edit_class_a0ebe556ea8567d5ef0999017b77f57fd.xhtml#a0ebe556ea8567d5ef0999017b77f57fd" target="_top" xlink:title=" ">
<polygon fill="none" stroke="#000000" points="660.269,-485.5 660.269,-517.5 770.722,-517.5 770.722,-485.5 660.269,-485.5"/>
<text text-anchor="start" x="668.269" y="-504.5" font-family="Helvetica,sans-Serif" font-size="10.00" fill="#000000">LFSTK_lineEditClass</text>
<text text-anchor="middle" x="715.4955" y="-492.5" font-family="Helvetica,sans-Serif" font-size="10.00" fill="#000000">::LFSTK_setFocus</text>
</a>
</g>
</g>
<!-- Node3&#45;&gt;Node22 -->
<g id="edge25" class="edge">
<title>Node3&#45;&gt;Node22</title>
<path fill="none" stroke="#191970" d="M843.5445,-433.448C825.796,-445.0355 803.2541,-459.1621 782.395,-470.5 772.8352,-475.6962 762.2484,-480.8594 752.3705,-485.4386"/>
<polygon fill="#191970" stroke="#191970" points="845.9266,-436.0703 852.3546,-427.6482 842.0775,-430.2235 845.9266,-436.0703"/>
</g>
<!-- Node23 -->
<g id="node23" class="node">
<title>Node23</title>
<g id="a_node23"><a xlink:href="class_l_f_s_t_k__line_edit_class_a3577cc5df4ad211347e890e2124a7484.xhtml#a3577cc5df4ad211347e890e2124a7484" target="_top" xlink:title=" ">
<polygon fill="none" stroke="#000000" points="494.365,-462.5 494.365,-494.5 604.818,-494.5 604.818,-462.5 494.365,-462.5"/>
<text text-anchor="start" x="502.365" y="-481.5" font-family="Helvetica,sans-Serif" font-size="10.00" fill="#000000">LFSTK_lineEditClass</text>
<text text-anchor="middle" x="549.5915" y="-469.5" font-family="Helvetica,sans-Serif" font-size="10.00" fill="#000000">::mouseDown</text>
</a>
</g>
</g>
<!-- Node3&#45;&gt;Node23 -->
<g id="edge31" class="edge">
<title>Node3&#45;&gt;Node23</title>
<path fill="none" stroke="#191970" d="M808.8666,-430.1504C799.9913,-432.4024 790.9933,-434.5811 782.395,-436.5 722.0691,-449.9633 652.2128,-462.1126 604.8813,-469.8397"/>
<polygon fill="#191970" stroke="#191970" points="809.9981,-433.4732 818.8071,-427.5865 808.2498,-426.695 809.9981,-433.4732"/>
</g>
<!-- Node24 -->
<g id="node24" class="node">
<title>Node24</title>
<g id="a_node24"><a xlink:href="class_l_f_s_t_k__line_edit_class_af08b0261f456ab5926d5837f752c2005.xhtml#af08b0261f456ab5926d5837f752c2005" target="_top" xlink:title=" ">
<polygon fill="none" stroke="#000000" points="648.596,-344.5 648.596,-376.5 782.395,-376.5 782.395,-344.5 648.596,-344.5"/>
<text text-anchor="start" x="656.596" y="-363.5" font-family="Helvetica,sans-Serif" font-size="10.00" fill="#000000">LFSTK_lineEditClass</text>
<text text-anchor="middle" x="715.4955" y="-351.5" font-family="Helvetica,sans-Serif" font-size="10.00" fill="#000000">::LFSTK_setFormatedText</text>
</a>
</g>
</g>
<!-- Node3&#45;&gt;Node24 -->
<g id="edge27" class="edge">
<title>Node3&#45;&gt;Node24</title>
<path fill="none" stroke="#191970" d="M815.3364,-392.2003C799.0591,-387.0322 781.6425,-381.5023 765.9878,-376.5317"/>
<polygon fill="#191970" stroke="#191970" points="814.7078,-395.6729 825.2981,-395.3633 816.8262,-389.0011 814.7078,-395.6729"/>
</g>
<!-- Node26 -->
<g id="node26" class="node">
<title>Node26</title>
<g id="a_node26"><a xlink:href="class_l_f_s_t_k__line_edit_class_a64bf9278baec262c97147ba099e4aa6c.xhtml#a64bf9278baec262c97147ba099e4aa6c" target="_top" xlink:title=" ">
<polygon fill="none" stroke="#000000" points="660.269,-395.5 660.269,-427.5 770.722,-427.5 770.722,-395.5 660.269,-395.5"/>
<text text-anchor="start" x="668.269" y="-414.5" font-family="Helvetica,sans-Serif" font-size="10.00" fill="#000000">LFSTK_lineEditClass</text>
<text text-anchor="middle" x="715.4955" y="-402.5" font-family="Helvetica,sans-Serif" font-size="10.00" fill="#000000">::lostFocus</text>
</a>
</g>
</g>
<!-- Node3&#45;&gt;Node26 -->
<g id="edge30" class="edge">
<title>Node3&#45;&gt;Node26</title>
<path fill="none" stroke="#191970" d="M807.9035,-411.5C795.5874,-411.5 782.8829,-411.5 770.9845,-411.5"/>
<polygon fill="#191970" stroke="#191970" points="808.1315,-415.0001 818.1315,-411.5 808.1315,-408.0001 808.1315,-415.0001"/>
</g>
<!-- Node5 -->
<g id="node5" class="node">
<title>Node5</title>
<g id="a_node5"><a xlink:href="class_l_f_s_t_k__font_dialog_class_a552f817a8f926c4cb1e423ce244c0a76.xhtml#a552f817a8f926c4cb1e423ce244c0a76" target="_top" xlink:title=" ">
<polygon fill="none" stroke="#000000" points="488.251,-536.5 488.251,-568.5 610.932,-568.5 610.932,-536.5 488.251,-536.5"/>
<text text-anchor="start" x="496.251" y="-555.5" font-family="Helvetica,sans-Serif" font-size="10.00" fill="#000000">LFSTK_fontDialogClass</text>
<text text-anchor="middle" x="549.5915" y="-543.5" font-family="Helvetica,sans-Serif" font-size="10.00" fill="#000000">::LFSTK_getFontData</text>
</a>
</g>
</g>
<!-- Node4&#45;&gt;Node5 -->
<g id="edge4" class="edge">
<title>Node4&#45;&gt;Node5</title>
<path fill="none" stroke="#191970" d="M643.4862,-552.5C632.7077,-552.5 621.6783,-552.5 611.1433,-552.5"/>
<polygon fill="#191970" stroke="#191970" points="643.719,-556.0001 653.719,-552.5 643.7189,-549.0001 643.719,-556.0001"/>
</g>
<!-- Node6 -->
<g id="node6" class="node">
<title>Node6</title>
<g id="a_node6"><a xlink:href="_l_f_s_t_k_font_dialog_8cpp_aafd549c8125eb6d28fe5be736bce5806.xhtml#aafd549c8125eb6d28fe5be736bce5806" target="_top" xlink:title=" ">
<polygon fill="none" stroke="#000000" points="359.5795,-587.5 359.5795,-607.5 415.5855,-607.5 415.5855,-587.5 359.5795,-587.5"/>
<text text-anchor="middle" x="387.5825" y="-594.5" font-family="Helvetica,sans-Serif" font-size="10.00" fill="#000000">checkCB</text>
</a>
</g>
</g>
<!-- Node5&#45;&gt;Node6 -->
<g id="edge5" class="edge">
<title>Node5&#45;&gt;Node6</title>
<path fill="none" stroke="#191970" d="M481.7546,-571.3425C458.6114,-577.7708 433.9947,-584.6084 415.7358,-589.6801"/>
<polygon fill="#191970" stroke="#191970" points="482.8616,-574.6676 491.5601,-568.6189 480.9882,-567.923 482.8616,-574.6676"/>
</g>
<!-- Node7 -->
<g id="node7" class="node">
<title>Node7</title>
<g id="a_node7"><a xlink:href="class_l_f_s_t_k__font_dialog_class_a14c5f93b43c729a1bcb8bebe141415f2.xhtml#a14c5f93b43c729a1bcb8bebe141415f2" target="_top" xlink:title=" ">
<polygon fill="none" stroke="#000000" points="326.242,-536.5 326.242,-568.5 448.923,-568.5 448.923,-536.5 326.242,-536.5"/>
<text text-anchor="start" x="334.242" y="-555.5" font-family="Helvetica,sans-Serif" font-size="10.00" fill="#000000">LFSTK_fontDialogClass</text>
<text text-anchor="middle" x="387.5825" y="-543.5" font-family="Helvetica,sans-Serif" font-size="10.00" fill="#000000">::LFSTK_showDialog</text>
</a>
</g>
</g>
<!-- Node5&#45;&gt;Node7 -->
<g id="edge6" class="edge">
<title>Node5&#45;&gt;Node7</title>
<path fill="none" stroke="#191970" d="M477.6452,-552.5C468.1282,-552.5 458.4422,-552.5 449.1217,-552.5"/>
<polygon fill="#191970" stroke="#191970" points="477.8807,-556.0001 487.8807,-552.5 477.8806,-549.0001 477.8807,-556.0001"/>
</g>
<!-- Node8 -->
<g id="node8" class="node">
<title>Node8</title>
<g id="a_node8"><a xlink:href="_l_f_s_t_k_font_dialog_8cpp_a5c76f9930f86875dfa22fb71e9b6adcb.xhtml#a5c76f9930f86875dfa22fb71e9b6adcb" target="_top" xlink:title=" ">
<polygon fill="none" stroke="#000000" points="366.5245,-497.5 366.5245,-517.5 408.6405,-517.5 408.6405,-497.5 366.5245,-497.5"/>
<text text-anchor="middle" x="387.5825" y="-504.5" font-family="Helvetica,sans-Serif" font-size="10.00" fill="#000000">select</text>
</a>
</g>
</g>
<!-- Node5&#45;&gt;Node8 -->
<g id="edge7" class="edge">
<title>Node5&#45;&gt;Node8</title>
<path fill="none" stroke="#191970" d="M481.6717,-533.6344C455.5719,-526.3849 427.6107,-518.6183 409.015,-513.4532"/>
<polygon fill="#191970" stroke="#191970" points="480.9882,-537.077 491.5601,-536.3811 482.8616,-530.3324 480.9882,-537.077"/>
</g>
<!-- Node9 -->
<g id="node9" class="node">
<title>Node9</title>
<g id="a_node9"><a xlink:href="class_l_f_s_t_k__font_dialog_class_af866eb2b1ba8178c9cf3e751716fcc8e.xhtml#af866eb2b1ba8178c9cf3e751716fcc8e" target="_top" xlink:title=" ">
<polygon fill="none" stroke="#000000" points="165.068,-491.5 165.068,-523.5 287.749,-523.5 287.749,-491.5 165.068,-491.5"/>
<text text-anchor="start" x="173.068" y="-510.5" font-family="Helvetica,sans-Serif" font-size="10.00" fill="#000000">LFSTK_fontDialogClass</text>
<text text-anchor="middle" x="226.4085" y="-498.5" font-family="Helvetica,sans-Serif" font-size="10.00" fill="#000000">::buildDialog</text>
</a>
</g>
</g>
<!-- Node8&#45;&gt;Node9 -->
<g id="edge8" class="edge">
<title>Node8&#45;&gt;Node9</title>
<path fill="none" stroke="#191970" d="M356.4,-507.5C336.9423,-507.5 311.2277,-507.5 287.8084,-507.5"/>
<polygon fill="#191970" stroke="#191970" points="356.5118,-511.0001 366.5118,-507.5 356.5118,-504.0001 356.5118,-511.0001"/>
</g>
<!-- Node10 -->
<g id="node10" class="node">
<title>Node10</title>
<g id="a_node10"><a xlink:href="class_l_f_s_t_k__font_dialog_class_ab7b6a4bca99713646ab6ac77dc34827c.xhtml#ab7b6a4bca99713646ab6ac77dc34827c" target="_top" xlink:title=" ">
<polygon fill="none" stroke="#000000" points="0,-491.5 0,-523.5 128.239,-523.5 128.239,-491.5 0,-491.5"/>
<text text-anchor="start" x="8" y="-510.5" font-family="Helvetica,sans-Serif" font-size="10.00" fill="#000000">LFSTK_fontDialogClass</text>
<text text-anchor="middle" x="64.1195" y="-498.5" font-family="Helvetica,sans-Serif" font-size="10.00" fill="#000000">::LFSTK_fontDialogClass</text>
</a>
</g>
</g>
<!-- Node9&#45;&gt;Node10 -->
<g id="edge9" class="edge">
<title>Node9&#45;&gt;Node10</title>
<path fill="none" stroke="#191970" d="M154.7843,-507.5C145.9547,-507.5 136.9726,-507.5 128.2641,-507.5"/>
<polygon fill="#191970" stroke="#191970" points="155.054,-511.0001 165.054,-507.5 155.054,-504.0001 155.054,-511.0001"/>
</g>
<!-- Node11&#45;&gt;Node12 -->
<g id="edge11" class="edge">
<title>Node11&#45;&gt;Node12</title>
<path fill="none" stroke="#191970" d="M499.18,-302.5854C476.3396,-293.5626 449.6953,-283.037 428.1702,-274.5338"/>
<polygon fill="#191970" stroke="#191970" points="498.1232,-305.9311 508.7098,-306.3501 500.6951,-299.4207 498.1232,-305.9311"/>
</g>
<!-- Node15&#45;&gt;Node12 -->
<g id="edge16" class="edge">
<title>Node15&#45;&gt;Node12</title>
<path fill="none" stroke="#191970" d="M650.3693,-180.0793C604.4068,-192.0383 541.4868,-208.9304 486.587,-225.5 469.4153,-230.6827 450.7186,-236.7921 434.2444,-242.3363"/>
<polygon fill="#191970" stroke="#191970" points="651.4022,-183.4273 660.2031,-177.5286 649.6446,-176.6516 651.4022,-183.4273"/>
</g>
<!-- Node15&#45;&gt;Node16 -->
<g id="edge17" class="edge">
<title>Node15&#45;&gt;Node16</title>
<path fill="none" stroke="#191970" d="M695.6982,-139.4235C667.2632,-104.9311 617.6966,-45.1717 612.596,-41.5 608.0117,-38.1999 602.9315,-35.2584 597.7025,-32.6571"/>
<polygon fill="#191970" stroke="#191970" points="693.0362,-141.6968 702.0957,-147.19 698.4392,-137.2461 693.0362,-141.6968"/>
</g>
<!-- Node17 -->
<g id="node17" class="node">
<title>Node17</title>
<g id="a_node17"><a xlink:href="class_l_f_s_t_k__file_dialog_class_aa8804989d381def9acb2c99d47d6dc3d.xhtml#aa8804989d381def9acb2c99d47d6dc3d" target="_top" xlink:title=" ">
<polygon fill="none" stroke="#000000" points="489.091,-102.5 489.091,-134.5 610.092,-134.5 610.092,-102.5 489.091,-102.5"/>
<text text-anchor="start" x="497.091" y="-121.5" font-family="Helvetica,sans-Serif" font-size="10.00" fill="#000000">LFSTK_fileDialogClass</text>
<text text-anchor="middle" x="549.5915" y="-109.5" font-family="Helvetica,sans-Serif" font-size="10.00" fill="#000000">::LFSTK_setWorkingDir</text>
</a>
</g>
</g>
<!-- Node15&#45;&gt;Node17 -->
<g id="edge18" class="edge">
<title>Node15&#45;&gt;Node17</title>
<path fill="none" stroke="#191970" d="M650.4202,-145.8489C636.721,-142.1331 622.3389,-138.2321 608.8663,-134.5778"/>
<polygon fill="#191970" stroke="#191970" points="649.6843,-149.2757 660.2519,-148.5157 651.5169,-142.5198 649.6843,-149.2757"/>
</g>
<!-- Node19 -->
<g id="node19" class="node">
<title>Node19</title>
<g id="a_node19"><a xlink:href="class_l_f_s_t_k__file_dialog_class_a789cade9437906181e31a243c85d52e5.xhtml#a789cade9437906181e31a243c85d52e5" target="_top" xlink:title=" ">
<polygon fill="none" stroke="#000000" points="328.192,-136.5 328.192,-168.5 446.973,-168.5 446.973,-136.5 328.192,-136.5"/>
<text text-anchor="start" x="336.192" y="-155.5" font-family="Helvetica,sans-Serif" font-size="10.00" fill="#000000">LFSTK_fileDialogClass</text>
<text text-anchor="middle" x="387.5825" y="-143.5" font-family="Helvetica,sans-Serif" font-size="10.00" fill="#000000">::select</text>
</a>
</g>
</g>
<!-- Node15&#45;&gt;Node19 -->
<g id="edge24" class="edge">
<title>Node15&#45;&gt;Node19</title>
<path fill="none" stroke="#191970" d="M649.8897,-161.2992C590.7312,-159.3147 504.4759,-156.4212 447.2314,-154.5009"/>
<polygon fill="#191970" stroke="#191970" points="650.1286,-164.8091 660.2403,-161.6464 650.3633,-157.813 650.1286,-164.8091"/>
</g>
<!-- Node21 -->
<g id="node21" class="node">
<title>Node21</title>
<g id="a_node21"><a xlink:href="class_l_f_s_t_k__file_dialog_class_af77972b8a46616ba4c7bec555b2b0a14.xhtml#af77972b8a46616ba4c7bec555b2b0a14" target="_top" xlink:title=" ">
<polygon fill="none" stroke="#000000" points="486.587,-51.5 486.587,-83.5 612.596,-83.5 612.596,-51.5 486.587,-51.5"/>
<text text-anchor="start" x="494.587" y="-70.5" font-family="Helvetica,sans-Serif" font-size="10.00" fill="#000000">LFSTK_fileDialogClass</text>
<text text-anchor="middle" x="549.5915" y="-58.5" font-family="Helvetica,sans-Serif" font-size="10.00" fill="#000000">::LFSTK_showFileDialog</text>
</a>
</g>
</g>
<!-- Node15&#45;&gt;Node21 -->
<g id="edge22" class="edge">
<title>Node15&#45;&gt;Node21</title>
<path fill="none" stroke="#191970" d="M687.0086,-141.2325C666.9501,-126.2184 639.0594,-106.6445 612.596,-92.5 606.6803,-89.3381 600.2754,-86.3448 593.8925,-83.6018"/>
<polygon fill="#191970" stroke="#191970" points="685.0136,-144.1119 695.0987,-147.3587 689.2395,-138.5315 685.0136,-144.1119"/>
</g>
<!-- Node18 -->
<g id="node18" class="node">
<title>Node18</title>
<g id="a_node18"><a xlink:href="class_l_f_s_t_k__file_dialog_class_aacf1d4b61cbb5b40d06f591ea96f9ea7.xhtml#aacf1d4b61cbb5b40d06f591ea96f9ea7" target="_top" xlink:title=" ">
<polygon fill="none" stroke="#000000" points="324.578,-63.5 324.578,-95.5 450.587,-95.5 450.587,-63.5 324.578,-63.5"/>
<text text-anchor="start" x="332.578" y="-82.5" font-family="Helvetica,sans-Serif" font-size="10.00" fill="#000000">LFSTK_fileDialogClass</text>
<text text-anchor="middle" x="387.5825" y="-70.5" font-family="Helvetica,sans-Serif" font-size="10.00" fill="#000000">::LFSTK_showFileDialog</text>
</a>
</g>
</g>
<!-- Node17&#45;&gt;Node18 -->
<g id="edge19" class="edge">
<title>Node17&#45;&gt;Node18</title>
<path fill="none" stroke="#191970" d="M479.0374,-101.5157C469.5766,-99.2382 459.9224,-96.9142 450.6026,-94.6707"/>
<polygon fill="#191970" stroke="#191970" points="478.263,-104.9292 488.8044,-103.8669 479.9013,-98.1236 478.263,-104.9292"/>
</g>
<!-- Node17&#45;&gt;Node19 -->
<g id="edge20" class="edge">
<title>Node17&#45;&gt;Node19</title>
<path fill="none" stroke="#191970" d="M478.7687,-133.3632C468.2012,-135.581 457.3988,-137.848 447.0964,-140.0101"/>
<polygon fill="#191970" stroke="#191970" points="479.7365,-136.7364 488.8044,-131.2571 478.2987,-129.8857 479.7365,-136.7364"/>
</g>
<!-- Node20 -->
<g id="node20" class="node">
<title>Node20</title>
<g id="a_node20"><a xlink:href="class_l_f_s_t_k__file_dialog_class_a553ce8e885b0d60cbf515b7b3d1e8b65.xhtml#a553ce8e885b0d60cbf515b7b3d1e8b65" target="_top" xlink:title=" ">
<polygon fill="none" stroke="#000000" points="164.239,-136.5 164.239,-168.5 288.578,-168.5 288.578,-136.5 164.239,-136.5"/>
<text text-anchor="start" x="172.239" y="-155.5" font-family="Helvetica,sans-Serif" font-size="10.00" fill="#000000">LFSTK_fileDialogClass</text>
<text text-anchor="middle" x="226.4085" y="-143.5" font-family="Helvetica,sans-Serif" font-size="10.00" fill="#000000">::LFSTK_fileDialogClass</text>
</a>
</g>
</g>
<!-- Node19&#45;&gt;Node20 -->
<g id="edge21" class="edge">
<title>Node19&#45;&gt;Node20</title>
<path fill="none" stroke="#191970" d="M317.9794,-152.5C308.2402,-152.5 298.283,-152.5 288.691,-152.5"/>
<polygon fill="#191970" stroke="#191970" points="318.0252,-156.0001 328.0252,-152.5 318.0251,-149.0001 318.0252,-156.0001"/>
</g>
<!-- Node21&#45;&gt;Node18 -->
<g id="edge23" class="edge">
<title>Node21&#45;&gt;Node18</title>
<path fill="none" stroke="#191970" d="M476.4937,-72.9143C467.9111,-73.5501 459.2089,-74.1946 450.7776,-74.8191"/>
<polygon fill="#191970" stroke="#191970" points="476.7766,-76.4031 486.4907,-72.1739 476.2594,-69.4222 476.7766,-76.4031"/>
</g>
<!-- Node22&#45;&gt;Node23 -->
<g id="edge26" class="edge">
<title>Node22&#45;&gt;Node23</title>
<path fill="none" stroke="#191970" d="M650.053,-492.4274C635.101,-490.3546 619.3539,-488.1715 604.8766,-486.1644"/>
<polygon fill="#191970" stroke="#191970" points="649.866,-495.9349 660.2519,-493.8413 650.8273,-489.0012 649.866,-495.9349"/>
</g>
<!-- Node24&#45;&gt;Node11 -->
<g id="edge28" class="edge">
<title>Node24&#45;&gt;Node11</title>
<path fill="none" stroke="#191970" d="M638.571,-342.8806C627.21,-340.2784 615.6975,-337.6415 604.8919,-335.1664"/>
<polygon fill="#191970" stroke="#191970" points="637.9652,-346.3324 648.4942,-345.1535 639.5281,-339.5091 637.9652,-346.3324"/>
</g>
<!-- Node25 -->
<g id="node25" class="node">
<title>Node25</title>
<g id="a_node25"><a xlink:href="class_l_f_s_t_k__line_edit_class_aaa873ae80c4c84c1c48249e593b0c9fc.xhtml#aaa873ae80c4c84c1c48249e593b0c9fc" target="_top" xlink:title=" ">
<polygon fill="none" stroke="#000000" points="494.365,-357.5 494.365,-389.5 604.818,-389.5 604.818,-357.5 494.365,-357.5"/>
<text text-anchor="start" x="502.365" y="-376.5" font-family="Helvetica,sans-Serif" font-size="10.00" fill="#000000">LFSTK_lineEditClass</text>
<text text-anchor="middle" x="549.5915" y="-364.5" font-family="Helvetica,sans-Serif" font-size="10.00" fill="#000000">::LFSTK_dropData</text>
</a>
</g>
</g>
<!-- Node24&#45;&gt;Node25 -->
<g id="edge29" class="edge">
<title>Node24&#45;&gt;Node25</title>
<path fill="none" stroke="#191970" d="M638.2266,-366.5547C626.9775,-367.4361 615.5884,-368.3286 604.8919,-369.1667"/>
<polygon fill="#191970" stroke="#191970" points="638.7982,-370.0207 648.4942,-365.7501 638.2513,-363.0421 638.7982,-370.0207"/>
</g>
<!-- Node27&#45;&gt;Node12 -->
<g id="edge34" class="edge">
<title>Node27&#45;&gt;Node12</title>
<path fill="none" stroke="#191970" d="M810.5862,-209.1462C713.684,-220.4523 533.882,-241.4306 443.0965,-252.0229"/>
<polygon fill="#191970" stroke="#191970" points="811.0281,-212.6185 820.5551,-207.9831 810.2168,-205.6657 811.0281,-212.6185"/>
</g>
<!-- Node27&#45;&gt;Node15 -->
<g id="edge35" class="edge">
<title>Node27&#45;&gt;Node15</title>
<path fill="none" stroke="#191970" d="M810.8387,-186.0558C797.5791,-182.9189 783.7527,-179.648 770.8756,-176.6015"/>
<polygon fill="#191970" stroke="#191970" points="810.3056,-189.5263 820.8428,-188.4226 811.9172,-182.7143 810.3056,-189.5263"/>
</g>
</g>
</svg>
