<?xml version="1.0" encoding="UTF-8" standalone="no"?>
<!DOCTYPE svg PUBLIC "-//W3C//DTD SVG 1.1//EN"
 "http://www.w3.org/Graphics/SVG/1.1/DTD/svg11.dtd">
<!-- Generated by graphviz version 2.40.1 (20161225.0304)
 -->
<!-- Title: LFSTK_gadgetClass::LFSTK_setCommon Pages: 1 -->
<svg width="628pt" height="245pt"
 viewBox="0.00 0.00 627.88 245.00" xmlns="http://www.w3.org/2000/svg" xmlns:xlink="http://www.w3.org/1999/xlink">
<g id="graph0" class="graph" transform="scale(1 1) rotate(0) translate(4 241)">
<title>LFSTK_gadgetClass::LFSTK_setCommon</title>
<!-- Node1 -->
<g id="node1" class="node">
<title>Node1</title>
<g id="a_node1"><a xlink:title=" ">
<polygon fill="#bfbfbf" stroke="#000000" points="0,-76.5 0,-108.5 113.803,-108.5 113.803,-76.5 0,-76.5"/>
<text text-anchor="start" x="8" y="-95.5" font-family="Helvetica,sans-Serif" font-size="10.00" fill="#000000">LFSTK_gadgetClass::</text>
<text text-anchor="middle" x="56.9015" y="-83.5" font-family="Helvetica,sans-Serif" font-size="10.00" fill="#000000">LFSTK_setCommon</text>
</a>
</g>
</g>
<!-- Node2 -->
<g id="node2" class="node">
<title>Node2</title>
<g id="a_node2"><a xlink:href="class_l_f_s_t_k__gadget_class_af7a3a7b33909c6560b1cf27033548c46.xhtml#af7a3a7b33909c6560b1cf27033548c46" target="_top" xlink:title=" ">
<polygon fill="none" stroke="#000000" points="149.803,-102.5 149.803,-134.5 263.606,-134.5 263.606,-102.5 149.803,-102.5"/>
<text text-anchor="start" x="157.803" y="-121.5" font-family="Helvetica,sans-Serif" font-size="10.00" fill="#000000">LFSTK_gadgetClass::</text>
<text text-anchor="middle" x="206.7045" y="-109.5" font-family="Helvetica,sans-Serif" font-size="10.00" fill="#000000">initGadget</text>
</a>
</g>
</g>
<!-- Node1&#45;&gt;Node2 -->
<g id="edge1" class="edge">
<title>Node1&#45;&gt;Node2</title>
<path fill="none" stroke="#191970" d="M113.9629,-102.4037C122.4019,-103.8683 131.1616,-105.3887 139.7789,-106.8843"/>
<polygon fill="#191970" stroke="#191970" points="139.3505,-110.3622 149.8017,-108.6239 140.5476,-103.4653 139.3505,-110.3622"/>
</g>
<!-- Node10 -->
<g id="node10" class="node">
<title>Node10</title>
<g id="a_node10"><a xlink:href="class_l_f_s_t_k__gadget_class_aced9a8cea74d44e3da0faa45ea8ec85c.xhtml#aced9a8cea74d44e3da0faa45ea8ec85c" target="_top" xlink:title=" ">
<polygon fill="none" stroke="#000000" points="149.803,-51.5 149.803,-83.5 263.606,-83.5 263.606,-51.5 149.803,-51.5"/>
<text text-anchor="start" x="157.803" y="-70.5" font-family="Helvetica,sans-Serif" font-size="10.00" fill="#000000">LFSTK_gadgetClass::</text>
<text text-anchor="middle" x="206.7045" y="-58.5" font-family="Helvetica,sans-Serif" font-size="10.00" fill="#000000">LFSTK_setCallBack</text>
</a>
</g>
</g>
<!-- Node1&#45;&gt;Node10 -->
<g id="edge9" class="edge">
<title>Node1&#45;&gt;Node10</title>
<path fill="none" stroke="#191970" d="M113.9629,-82.9773C122.4019,-81.5689 131.1616,-80.107 139.7789,-78.6689"/>
<polygon fill="#191970" stroke="#191970" points="140.5143,-82.0947 149.8017,-76.9963 139.362,-75.1902 140.5143,-82.0947"/>
</g>
<!-- Node3 -->
<g id="node3" class="node">
<title>Node3</title>
<g id="a_node3"><a xlink:href="class_l_f_s_t_k__lib_a46aa104681d600dd4eb24549e813b5cc.xhtml#a46aa104681d600dd4eb24549e813b5cc" target="_top" xlink:title=" ">
<polygon fill="none" stroke="#000000" points="299.606,-204.5 299.606,-236.5 447.3,-236.5 447.3,-204.5 299.606,-204.5"/>
<text text-anchor="start" x="307.606" y="-223.5" font-family="Helvetica,sans-Serif" font-size="10.00" fill="#000000">LFSTK_lib::LFSTK_getGlobal</text>
<text text-anchor="middle" x="373.453" y="-211.5" font-family="Helvetica,sans-Serif" font-size="10.00" fill="#000000">String</text>
</a>
</g>
</g>
<!-- Node2&#45;&gt;Node3 -->
<g id="edge2" class="edge">
<title>Node2&#45;&gt;Node3</title>
<path fill="none" stroke="#191970" d="M222.4535,-134.6966C239.9194,-151.8607 269.6098,-178.7508 299.606,-195.5 302.6528,-197.2013 305.8349,-198.8134 309.0941,-200.3372"/>
<polygon fill="#191970" stroke="#191970" points="307.8689,-203.6209 318.4352,-204.3978 310.6596,-197.2012 307.8689,-203.6209"/>
</g>
<!-- Node4 -->
<g id="node4" class="node">
<title>Node4</title>
<g id="a_node4"><a xlink:href="class_l_f_s_t_k__gadget_class_a00d9d75e1766de5e88ab9fc06a9fb8ae.xhtml#a00d9d75e1766de5e88ab9fc06a9fb8ae" target="_top" xlink:title=" ">
<polygon fill="none" stroke="#000000" points="316.5515,-153.5 316.5515,-185.5 430.3545,-185.5 430.3545,-153.5 316.5515,-153.5"/>
<text text-anchor="start" x="324.5515" y="-172.5" font-family="Helvetica,sans-Serif" font-size="10.00" fill="#000000">LFSTK_gadgetClass::</text>
<text text-anchor="middle" x="373.453" y="-160.5" font-family="Helvetica,sans-Serif" font-size="10.00" fill="#000000">LFSTK_setActive</text>
</a>
</g>
</g>
<!-- Node2&#45;&gt;Node4 -->
<g id="edge3" class="edge">
<title>Node2&#45;&gt;Node4</title>
<path fill="none" stroke="#191970" d="M259.4648,-134.6367C275.8954,-139.662 294.1681,-145.2507 311.1851,-150.4554"/>
<polygon fill="#191970" stroke="#191970" points="310.4495,-153.8904 321.036,-153.4683 312.4969,-147.1965 310.4495,-153.8904"/>
</g>
<!-- Node5 -->
<g id="node5" class="node">
<title>Node5</title>
<g id="a_node5"><a xlink:href="class_l_f_s_t_k__gadget_class_a70989f54f49667a00347f3b0891944ab.xhtml#a70989f54f49667a00347f3b0891944ab" target="_top" xlink:title=" ">
<polygon fill="none" stroke="#000000" points="312.392,-102.5 312.392,-134.5 434.514,-134.5 434.514,-102.5 312.392,-102.5"/>
<text text-anchor="start" x="320.392" y="-121.5" font-family="Helvetica,sans-Serif" font-size="10.00" fill="#000000">LFSTK_gadgetClass::</text>
<text text-anchor="middle" x="373.453" y="-109.5" font-family="Helvetica,sans-Serif" font-size="10.00" fill="#000000">LFSTK_setColourName</text>
</a>
</g>
</g>
<!-- Node2&#45;&gt;Node5 -->
<g id="edge4" class="edge">
<title>Node2&#45;&gt;Node5</title>
<path fill="none" stroke="#191970" d="M263.6235,-118.5C275.9815,-118.5 289.2046,-118.5 302.0414,-118.5"/>
<polygon fill="#191970" stroke="#191970" points="302.2295,-122.0001 312.2294,-118.5 302.2294,-115.0001 302.2295,-122.0001"/>
</g>
<!-- Node6 -->
<g id="node6" class="node">
<title>Node6</title>
<g id="a_node6"><a xlink:href="class_l_f_s_t_k__gadget_class_a46c9f429ddcc6610c577994ec14ffb17.xhtml#a46c9f429ddcc6610c577994ec14ffb17" target="_top" xlink:title=" ">
<polygon fill="none" stroke="#000000" points="302.389,-51.5 302.389,-83.5 444.517,-83.5 444.517,-51.5 302.389,-51.5"/>
<text text-anchor="start" x="310.389" y="-70.5" font-family="Helvetica,sans-Serif" font-size="10.00" fill="#000000">LFSTK_gadgetClass::</text>
<text text-anchor="middle" x="373.453" y="-58.5" font-family="Helvetica,sans-Serif" font-size="10.00" fill="#000000">LFSTK_setFontColourName</text>
</a>
</g>
</g>
<!-- Node2&#45;&gt;Node6 -->
<g id="edge5" class="edge">
<title>Node2&#45;&gt;Node6</title>
<path fill="none" stroke="#191970" d="M259.4648,-102.3633C275.8954,-97.338 294.1681,-91.7493 311.1851,-86.5446"/>
<polygon fill="#191970" stroke="#191970" points="312.4969,-89.8035 321.036,-83.5317 310.4495,-83.1096 312.4969,-89.8035"/>
</g>
<!-- Node8 -->
<g id="node8" class="node">
<title>Node8</title>
<g id="a_node8"><a xlink:href="class_l_f_s_t_k__gadget_class_a94b109b103654941f59dd614f03cede1.xhtml#a94b109b103654941f59dd614f03cede1" target="_top" xlink:title=" ">
<polygon fill="none" stroke="#000000" points="316.5515,-.5 316.5515,-32.5 430.3545,-32.5 430.3545,-.5 316.5515,-.5"/>
<text text-anchor="start" x="324.5515" y="-19.5" font-family="Helvetica,sans-Serif" font-size="10.00" fill="#000000">LFSTK_gadgetClass::</text>
<text text-anchor="middle" x="373.453" y="-7.5" font-family="Helvetica,sans-Serif" font-size="10.00" fill="#000000">LFSTK_setFontString</text>
</a>
</g>
</g>
<!-- Node2&#45;&gt;Node8 -->
<g id="edge7" class="edge">
<title>Node2&#45;&gt;Node8</title>
<path fill="none" stroke="#191970" d="M250.1192,-102.4587C254.9001,-99.8258 259.5117,-96.8453 263.606,-93.5 285.0913,-75.9455 277.474,-59.2318 299.606,-42.5 302.0743,-40.6339 304.6877,-38.8942 307.4007,-37.273"/>
<polygon fill="#191970" stroke="#191970" points="309.1801,-40.2905 316.349,-32.4894 305.8799,-34.1172 309.1801,-40.2905"/>
</g>
<!-- Node7 -->
<g id="node7" class="node">
<title>Node7</title>
<g id="a_node7"><a xlink:href="class_l_f_s_t_k__lib_ab2f14a3414f7db863682d1e2fa0cfb75.xhtml#ab2f14a3414f7db863682d1e2fa0cfb75" target="_top" xlink:title=" ">
<polygon fill="none" stroke="#000000" points="483.3,-57.5 483.3,-77.5 619.876,-77.5 619.876,-57.5 483.3,-57.5"/>
<text text-anchor="middle" x="551.588" y="-64.5" font-family="Helvetica,sans-Serif" font-size="10.00" fill="#000000">LFSTK_lib::bestFontColour</text>
</a>
</g>
</g>
<!-- Node6&#45;&gt;Node7 -->
<g id="edge6" class="edge">
<title>Node6&#45;&gt;Node7</title>
<path fill="none" stroke="#191970" d="M444.6246,-67.5C453.9476,-67.5 463.5434,-67.5 472.9804,-67.5"/>
<polygon fill="#191970" stroke="#191970" points="473.1378,-71.0001 483.1378,-67.5 473.1378,-64.0001 473.1378,-71.0001"/>
</g>
<!-- Node9 -->
<g id="node9" class="node">
<title>Node9</title>
<g id="a_node9"><a xlink:href="class_l_f_s_t_k__gadget_class_a6ba306176db18f16e2a034c875f53de0.xhtml#a6ba306176db18f16e2a034c875f53de0" target="_top" xlink:title=" ">
<polygon fill="none" stroke="#000000" points="486.0785,-.5 486.0785,-32.5 617.0975,-32.5 617.0975,-.5 486.0785,-.5"/>
<text text-anchor="start" x="494.0785" y="-19.5" font-family="Helvetica,sans-Serif" font-size="10.00" fill="#000000">LFSTK_gadgetClass::</text>
<text text-anchor="middle" x="551.588" y="-7.5" font-family="Helvetica,sans-Serif" font-size="10.00" fill="#000000">LFSTK_setCairoFontData</text>
</a>
</g>
</g>
<!-- Node8&#45;&gt;Node9 -->
<g id="edge8" class="edge">
<title>Node8&#45;&gt;Node9</title>
<path fill="none" stroke="#191970" d="M430.7966,-16.5C445.0929,-16.5 460.6436,-16.5 475.6824,-16.5"/>
<polygon fill="#191970" stroke="#191970" points="475.9904,-20.0001 485.9903,-16.5 475.9903,-13.0001 475.9904,-20.0001"/>
</g>
</g>
</svg>
