<?xml version="1.0" encoding="UTF-8" standalone="no"?>
<!DOCTYPE svg PUBLIC "-//W3C//DTD SVG 1.1//EN"
 "http://www.w3.org/Graphics/SVG/1.1/DTD/svg11.dtd">
<!-- Generated by graphviz version 2.40.1 (20161225.0304)
 -->
<!-- Title: LFSTK_findClass::LFSTK_sortByTypeAndName Pages: 1 -->
<svg width="408pt" height="41pt"
 viewBox="0.00 0.00 408.03 41.00" xmlns="http://www.w3.org/2000/svg" xmlns:xlink="http://www.w3.org/1999/xlink">
<g id="graph0" class="graph" transform="scale(1 1) rotate(0) translate(4 37)">
<title>LFSTK_findClass::LFSTK_sortByTypeAndName</title>
<!-- Node1 -->
<g id="node1" class="node">
<title>Node1</title>
<g id="a_node1"><a xlink:title=" ">
<polygon fill="#bfbfbf" stroke="#000000" points="0,-.5 0,-32.5 130.46,-32.5 130.46,-.5 0,-.5"/>
<text text-anchor="start" x="8" y="-19.5" font-family="Helvetica,sans-Serif" font-size="10.00" fill="#000000">LFSTK_findClass::LFSTK</text>
<text text-anchor="middle" x="65.23" y="-7.5" font-family="Helvetica,sans-Serif" font-size="10.00" fill="#000000">_sortByTypeAndName</text>
</a>
</g>
</g>
<!-- Node2 -->
<g id="node2" class="node">
<title>Node2</title>
<g id="a_node2"><a xlink:href="_l_f_s_t_k_find_class_8cpp_aa8d62d740dea25a9d9d2c4a7bf748456.xhtml#aa8d62d740dea25a9d9d2c4a7bf748456" target="_top" xlink:title=" ">
<polygon fill="none" stroke="#000000" points="166.46,-6.5 166.46,-26.5 233.571,-26.5 233.571,-6.5 166.46,-6.5"/>
<text text-anchor="middle" x="200.0155" y="-13.5" font-family="Helvetica,sans-Serif" font-size="10.00" fill="#000000">sortDataTN</text>
</a>
</g>
</g>
<!-- Node1&#45;&gt;Node2 -->
<g id="edge1" class="edge">
<title>Node1&#45;&gt;Node2</title>
<path fill="none" stroke="#191970" d="M130.6486,-16.5C139.3262,-16.5 148.0474,-16.5 156.2362,-16.5"/>
<polygon fill="#191970" stroke="#191970" points="156.2806,-20.0001 166.2806,-16.5 156.2805,-13.0001 156.2806,-20.0001"/>
</g>
<!-- Node3 -->
<g id="node3" class="node">
<title>Node3</title>
<g id="a_node3"><a xlink:href="class_l_f_s_t_k__find_class_a34a08ade9e47801d87f5ab53f9b1a055.xhtml#a34a08ade9e47801d87f5ab53f9b1a055" target="_top" xlink:title=" ">
<polygon fill="none" stroke="#000000" points="269.571,-.5 269.571,-32.5 400.031,-32.5 400.031,-.5 269.571,-.5"/>
<text text-anchor="start" x="277.571" y="-19.5" font-family="Helvetica,sans-Serif" font-size="10.00" fill="#000000">LFSTK_findClass::LFSTK</text>
<text text-anchor="middle" x="334.801" y="-7.5" font-family="Helvetica,sans-Serif" font-size="10.00" fill="#000000">_getSort</text>
</a>
</g>
</g>
<!-- Node2&#45;&gt;Node3 -->
<g id="edge2" class="edge">
<title>Node2&#45;&gt;Node3</title>
<path fill="none" stroke="#191970" d="M233.6799,-16.5C241.6113,-16.5 250.3824,-16.5 259.3466,-16.5"/>
<polygon fill="#191970" stroke="#191970" points="259.515,-20.0001 269.515,-16.5 259.515,-13.0001 259.515,-20.0001"/>
</g>
</g>
</svg>
