<?xml version="1.0" encoding="UTF-8" standalone="no"?>
<!DOCTYPE svg PUBLIC "-//W3C//DTD SVG 1.1//EN"
 "http://www.w3.org/Graphics/SVG/1.1/DTD/svg11.dtd">
<!-- Generated by graphviz version 2.40.1 (20161225.0304)
 -->
<!-- Title: LFSTK_lineEditClass::mouseDown Pages: 1 -->
<!--zoomable 117 -->
<svg id="main" version="1.1" xmlns="http://www.w3.org/2000/svg" xmlns:xlink="http://www.w3.org/1999/xlink" xml:space="preserve" onload="init(evt)">
<style type="text/css"><![CDATA[
.edge:hover path { stroke: red; }
.edge:hover polygon { stroke: red; fill: red; }
]]></style>
<script type="text/javascript"><![CDATA[
var edges = document.getElementsByTagName('g');
if (edges && edges.length) {
  for (var i=0;i<edges.length;i++) {
    if (edges[i].id.substr(0,4)=='edge') {
      edges[i].setAttribute('class','edge');
    }
  }
}
]]></script>
        <defs>
                <circle id="rim" cx="0" cy="0" r="7"/>
                <circle id="rim2" cx="0" cy="0" r="3.5"/>
                <g id="zoomPlus">
                        <use xlink:href="#rim" fill="#404040">
                                <set attributeName="fill" to="#808080" begin="zoomplus.mouseover" end="zoomplus.mouseout"/>
                        </use>
                        <path d="M-4,0h8M0,-4v8" fill="none" stroke="white" stroke-width="1.5" pointer-events="none"/>
                </g>
                <g id="zoomMin">
                        <use xlink:href="#rim" fill="#404040">
                                <set attributeName="fill" to="#808080" begin="zoomminus.mouseover" end="zoomminus.mouseout"/>
                        </use>
                        <path d="M-4,0h8" fill="none" stroke="white" stroke-width="1.5" pointer-events="none"/>
                </g>
                <g id="dirArrow">
                        <path fill="none" stroke="white" stroke-width="1.5" d="M0,-3.0v7 M-2.5,-0.5L0,-3.0L2.5,-0.5"/>
                </g>
               <g id="resetDef">
                       <use xlink:href="#rim2" fill="#404040">
                               <set attributeName="fill" to="#808080" begin="reset.mouseover" end="reset.mouseout"/>
                       </use>
               </g>
        </defs>

<script type="text/javascript">
var viewWidth = 734;
var viewHeight = 117;
var sectionId = 'dynsection-0';
</script>
<script xlink:href="svgpan.js"/>
<svg id="graph" class="graph">
<g id="viewport">
<title>LFSTK_lineEditClass::mouseDown</title>
<!-- Node1 -->
<g id="node1" class="node">
<title>Node1</title>
<g id="a_node1"><a xlink:title=" ">
<polygon fill="#bfbfbf" stroke="#000000" points="0,-50.5 0,-82.5 110.453,-82.5 110.453,-50.5 0,-50.5"/>
<text text-anchor="start" x="8" y="-69.5" font-family="Helvetica,sans-Serif" font-size="10.00" fill="#000000">LFSTK_lineEditClass</text>
<text text-anchor="middle" x="55.2265" y="-57.5" font-family="Helvetica,sans-Serif" font-size="10.00" fill="#000000">::mouseDown</text>
</a>
</g>
</g>
<!-- Node2 -->
<g id="node2" class="node">
<title>Node2</title>
<g id="a_node2"><a xlink:href="class_l_f_s_t_k__line_edit_class_adbcfa08279eec28c5f4e2c33a056d396.xhtml#adbcfa08279eec28c5f4e2c33a056d396" target="_top" xlink:title=" ">
<polygon fill="none" stroke="#000000" points="292.906,-50.5 292.906,-82.5 408.358,-82.5 408.358,-50.5 292.906,-50.5"/>
<text text-anchor="start" x="300.906" y="-69.5" font-family="Helvetica,sans-Serif" font-size="10.00" fill="#000000">LFSTK_lineEditClass</text>
<text text-anchor="middle" x="350.632" y="-57.5" font-family="Helvetica,sans-Serif" font-size="10.00" fill="#000000">::LFSTK_clearWindow</text>
</a>
</g>
</g>
<!-- Node1&#45;&gt;Node2 -->
<g id="edge1" class="edge">
<title>Node1&#45;&gt;Node2</title>
<path fill="none" stroke="#191970" d="M110.6927,-69.3211C122.4935,-69.8123 134.883,-70.2465 146.453,-70.5 195.5314,-71.5755 207.8269,-71.5468 256.906,-70.5 265.2154,-70.3228 273.9364,-70.0572 282.5746,-69.7457"/>
<polygon fill="#191970" stroke="#191970" points="282.7884,-73.2402 292.6476,-69.3613 282.5214,-66.2453 282.7884,-73.2402"/>
</g>
<!-- Node7 -->
<g id="node7" class="node">
<title>Node7</title>
<g id="a_node7"><a xlink:href="class_l_f_s_t_k__line_edit_class_a0ebe556ea8567d5ef0999017b77f57fd.xhtml#a0ebe556ea8567d5ef0999017b77f57fd" target="_top" xlink:title=" ">
<polygon fill="none" stroke="#000000" points="146.453,-28.5 146.453,-60.5 256.906,-60.5 256.906,-28.5 146.453,-28.5"/>
<text text-anchor="start" x="154.453" y="-47.5" font-family="Helvetica,sans-Serif" font-size="10.00" fill="#000000">LFSTK_lineEditClass</text>
<text text-anchor="middle" x="201.6795" y="-35.5" font-family="Helvetica,sans-Serif" font-size="10.00" fill="#000000">::LFSTK_setFocus</text>
</a>
</g>
</g>
<!-- Node1&#45;&gt;Node7 -->
<g id="edge6" class="edge">
<title>Node1&#45;&gt;Node7</title>
<path fill="none" stroke="#191970" d="M110.5941,-58.1827C118.9778,-56.9234 127.6941,-55.614 136.2659,-54.3263"/>
<polygon fill="#191970" stroke="#191970" points="136.8645,-57.7758 146.2336,-52.829 135.8246,-50.8535 136.8645,-57.7758"/>
</g>
<!-- Node3 -->
<g id="node3" class="node">
<title>Node3</title>
<g id="a_node3"><a xlink:href="class_l_f_s_t_k__gadget_class_ab76db165a19af248b5e94e95492dc879.xhtml#ab76db165a19af248b5e94e95492dc879" target="_top" xlink:title=" ">
<polygon fill="none" stroke="#000000" points="444.358,-76.5 444.358,-108.5 558.161,-108.5 558.161,-76.5 444.358,-76.5"/>
<text text-anchor="start" x="452.358" y="-95.5" font-family="Helvetica,sans-Serif" font-size="10.00" fill="#000000">LFSTK_gadgetClass::</text>
<text text-anchor="middle" x="501.2595" y="-83.5" font-family="Helvetica,sans-Serif" font-size="10.00" fill="#000000">drawBevel</text>
</a>
</g>
</g>
<!-- Node2&#45;&gt;Node3 -->
<g id="edge2" class="edge">
<title>Node2&#45;&gt;Node3</title>
<path fill="none" stroke="#191970" d="M408.4377,-76.4779C416.9053,-77.9395 425.6854,-79.4551 434.317,-80.945"/>
<polygon fill="#191970" stroke="#191970" points="433.9043,-84.4254 444.354,-82.6775 435.095,-77.5274 433.9043,-84.4254"/>
</g>
<!-- Node4 -->
<g id="node4" class="node">
<title>Node4</title>
<g id="a_node4"><a xlink:href="class_l_f_s_t_k__line_edit_class_a24da1f04ceb3b05ed9b25988e2cb5130.xhtml#a24da1f04ceb3b05ed9b25988e2cb5130" target="_top" xlink:title=" ">
<polygon fill="none" stroke="#000000" points="446.033,-25.5 446.033,-57.5 556.486,-57.5 556.486,-25.5 446.033,-25.5"/>
<text text-anchor="start" x="454.033" y="-44.5" font-family="Helvetica,sans-Serif" font-size="10.00" fill="#000000">LFSTK_lineEditClass</text>
<text text-anchor="middle" x="501.2595" y="-32.5" font-family="Helvetica,sans-Serif" font-size="10.00" fill="#000000">::drawLabel</text>
</a>
</g>
</g>
<!-- Node2&#45;&gt;Node4 -->
<g id="edge3" class="edge">
<title>Node2&#45;&gt;Node4</title>
<path fill="none" stroke="#191970" d="M408.4377,-56.9058C417.359,-55.4252 426.6272,-53.8869 435.7032,-52.3805"/>
<polygon fill="#191970" stroke="#191970" points="436.5478,-55.7883 445.8398,-50.6981 435.4017,-48.8828 436.5478,-55.7883"/>
</g>
<!-- Node5 -->
<g id="node5" class="node">
<title>Node5</title>
<g id="a_node5"><a xlink:href="class_l_f_s_t_k__gadget_class_ac233a3c3e0900ff66adb74102a56f09f.xhtml#ac233a3c3e0900ff66adb74102a56f09f" target="_top" xlink:title=" ">
<polygon fill="none" stroke="#000000" points="594.161,-51.5 594.161,-83.5 726.29,-83.5 726.29,-51.5 594.161,-51.5"/>
<text text-anchor="start" x="602.161" y="-70.5" font-family="Helvetica,sans-Serif" font-size="10.00" fill="#000000">LFSTK_gadgetClass::</text>
<text text-anchor="middle" x="660.2255" y="-58.5" font-family="Helvetica,sans-Serif" font-size="10.00" fill="#000000">LFSTK_getTextRealWidth</text>
</a>
</g>
</g>
<!-- Node4&#45;&gt;Node5 -->
<g id="edge4" class="edge">
<title>Node4&#45;&gt;Node5</title>
<path fill="none" stroke="#191970" d="M556.8581,-50.5935C565.6688,-52.0346 574.9111,-53.5462 584.0936,-55.0481"/>
<polygon fill="#191970" stroke="#191970" points="583.5772,-58.5101 594.011,-56.6702 584.7071,-51.6018 583.5772,-58.5101"/>
</g>
<!-- Node6 -->
<g id="node6" class="node">
<title>Node6</title>
<g id="a_node6"><a xlink:href="class_l_f_s_t_k__gadget_class_a23bc2dc7b8200df4dc74f1f68460eca2.xhtml#a23bc2dc7b8200df4dc74f1f68460eca2" target="_top" xlink:title=" ">
<polygon fill="none" stroke="#000000" points="603.324,-.5 603.324,-32.5 717.127,-32.5 717.127,-.5 603.324,-.5"/>
<text text-anchor="start" x="611.324" y="-19.5" font-family="Helvetica,sans-Serif" font-size="10.00" fill="#000000">LFSTK_gadgetClass::</text>
<text text-anchor="middle" x="660.2255" y="-7.5" font-family="Helvetica,sans-Serif" font-size="10.00" fill="#000000">LFSTK_getTextWidth</text>
</a>
</g>
</g>
<!-- Node4&#45;&gt;Node6 -->
<g id="edge5" class="edge">
<title>Node4&#45;&gt;Node6</title>
<path fill="none" stroke="#191970" d="M556.8581,-32.7562C568.6094,-30.9081 581.1285,-28.9393 593.2496,-27.033"/>
<polygon fill="#191970" stroke="#191970" points="593.9774,-30.4617 603.3122,-25.4506 592.8898,-23.5467 593.9774,-30.4617"/>
</g>
<!-- Node7&#45;&gt;Node2 -->
<g id="edge7" class="edge">
<title>Node7&#45;&gt;Node2</title>
<path fill="none" stroke="#191970" d="M257.1439,-52.692C265.467,-53.9213 274.1295,-55.2007 282.6766,-56.4631"/>
<polygon fill="#191970" stroke="#191970" points="282.2258,-59.9344 292.6299,-57.9332 283.2486,-53.0095 282.2258,-59.9344"/>
</g>
</g>
</svg>
        <g id="navigator" transform="translate(0 0)" fill="#404254">
                <rect fill="#f2f5e9" fill-opacity="0.5" stroke="#606060" stroke-width=".5" x="0" y="0" width="60" height="60"/>
                <use id="zoomplus" xlink:href="#zoomPlus" x="17" y="9" onmousedown="handleZoom(evt,'in')"/>
                <use id="zoomminus" xlink:href="#zoomMin" x="42" y="9" onmousedown="handleZoom(evt,'out')"/>
                <use id="reset" xlink:href="#resetDef" x="30" y="36" onmousedown="handleReset()"/>
                <g id="arrowUp" xlink:href="#dirArrow" transform="translate(30 24)" onmousedown="handlePan(0,-1)">
                  <use xlink:href="#rim" fill="#404040">
                        <set attributeName="fill" to="#808080" begin="arrowUp.mouseover" end="arrowUp.mouseout"/>
                  </use>
                  <path fill="none" stroke="white" stroke-width="1.5" d="M0,-3.0v7 M-2.5,-0.5L0,-3.0L2.5,-0.5"/>
                </g>
                <g id="arrowRight" xlink:href="#dirArrow" transform="rotate(90) translate(36 -43)" onmousedown="handlePan(1,0)">
                  <use xlink:href="#rim" fill="#404040">
                        <set attributeName="fill" to="#808080" begin="arrowRight.mouseover" end="arrowRight.mouseout"/>
                  </use>
                  <path fill="none" stroke="white" stroke-width="1.5" d="M0,-3.0v7 M-2.5,-0.5L0,-3.0L2.5,-0.5"/>
                </g>
                <g id="arrowDown" xlink:href="#dirArrow" transform="rotate(180) translate(-30 -48)" onmousedown="handlePan(0,1)">
                  <use xlink:href="#rim" fill="#404040">
                        <set attributeName="fill" to="#808080" begin="arrowDown.mouseover" end="arrowDown.mouseout"/>
                  </use>
                  <path fill="none" stroke="white" stroke-width="1.5" d="M0,-3.0v7 M-2.5,-0.5L0,-3.0L2.5,-0.5"/>
                </g>
                <g id="arrowLeft" xlink:href="#dirArrow" transform="rotate(270) translate(-36 17)" onmousedown="handlePan(-1,0)">
                  <use xlink:href="#rim" fill="#404040">
                        <set attributeName="fill" to="#808080" begin="arrowLeft.mouseover" end="arrowLeft.mouseout"/>
                  </use>
                  <path fill="none" stroke="white" stroke-width="1.5" d="M0,-3.0v7 M-2.5,-0.5L0,-3.0L2.5,-0.5"/>
                </g>
        </g>
        <svg viewBox="0 0 15 15" width="100%" height="30px" preserveAspectRatio="xMaxYMin meet">
         <g id="arrow_out" transform="scale(0.3 0.3)">
          <a xlink:href="class_l_f_s_t_k__line_edit_class_a3577cc5df4ad211347e890e2124a7484_a3577cc5df4ad211347e890e2124a7484_cgraph_org.svg" target="_base">
           <rect id="button" ry="5" rx="5" y="6" x="6" height="38" width="38"
                fill="#f2f5e9" fill-opacity="0.5" stroke="#606060" stroke-width="1.0"/>
           <path id="arrow"
             d="M 11.500037,31.436501 C 11.940474,20.09759 22.043105,11.32322 32.158766,21.979434 L 37.068811,17.246167 C 37.068811,17.246167 37.088388,32 37.088388,32 L 22.160133,31.978069 C 22.160133,31.978069 26.997745,27.140456 26.997745,27.140456 C 18.528582,18.264221 13.291696,25.230495 11.500037,31.436501 z"
             style="fill:#404040;"/>
          </a>
         </g>
        </svg>
</svg>
