<?xml version="1.0" encoding="UTF-8" standalone="no"?>
<!DOCTYPE svg PUBLIC "-//W3C//DTD SVG 1.1//EN"
 "http://www.w3.org/Graphics/SVG/1.1/DTD/svg11.dtd">
<!-- Generated by graphviz version 2.40.1 (20161225.0304)
 -->
<!-- Title: LFSTK_findClass::LFSTK_getSort Pages: 1 -->
<!--zoomable 267 -->
<svg id="main" version="1.1" xmlns="http://www.w3.org/2000/svg" xmlns:xlink="http://www.w3.org/1999/xlink" xml:space="preserve" onload="init(evt)">
<style type="text/css"><![CDATA[
.edge:hover path { stroke: red; }
.edge:hover polygon { stroke: red; fill: red; }
]]></style>
<script type="text/javascript"><![CDATA[
var edges = document.getElementsByTagName('g');
if (edges && edges.length) {
  for (var i=0;i<edges.length;i++) {
    if (edges[i].id.substr(0,4)=='edge') {
      edges[i].setAttribute('class','edge');
    }
  }
}
]]></script>
        <defs>
                <circle id="rim" cx="0" cy="0" r="7"/>
                <circle id="rim2" cx="0" cy="0" r="3.5"/>
                <g id="zoomPlus">
                        <use xlink:href="#rim" fill="#404040">
                                <set attributeName="fill" to="#808080" begin="zoomplus.mouseover" end="zoomplus.mouseout"/>
                        </use>
                        <path d="M-4,0h8M0,-4v8" fill="none" stroke="white" stroke-width="1.5" pointer-events="none"/>
                </g>
                <g id="zoomMin">
                        <use xlink:href="#rim" fill="#404040">
                                <set attributeName="fill" to="#808080" begin="zoomminus.mouseover" end="zoomminus.mouseout"/>
                        </use>
                        <path d="M-4,0h8" fill="none" stroke="white" stroke-width="1.5" pointer-events="none"/>
                </g>
                <g id="dirArrow">
                        <path fill="none" stroke="white" stroke-width="1.5" d="M0,-3.0v7 M-2.5,-0.5L0,-3.0L2.5,-0.5"/>
                </g>
               <g id="resetDef">
                       <use xlink:href="#rim2" fill="#404040">
                               <set attributeName="fill" to="#808080" begin="reset.mouseover" end="reset.mouseout"/>
                       </use>
               </g>
        </defs>

<script type="text/javascript">
var viewWidth = 1042;
var viewHeight = 267;
var sectionId = 'dynsection-0';
</script>
<script xlink:href="svgpan.js"/>
<svg id="graph" class="graph">
<g id="viewport">
<title>LFSTK_findClass::LFSTK_getSort</title>
<!-- Node1 -->
<g id="node1" class="node">
<title>Node1</title>
<g id="a_node1"><a xlink:title=" ">
<polygon fill="#bfbfbf" stroke="#000000" points="903.701,-146.5 903.701,-178.5 1034.161,-178.5 1034.161,-146.5 903.701,-146.5"/>
<text text-anchor="start" x="911.701" y="-165.5" font-family="Helvetica,sans-Serif" font-size="10.00" fill="#000000">LFSTK_findClass::LFSTK</text>
<text text-anchor="middle" x="968.931" y="-153.5" font-family="Helvetica,sans-Serif" font-size="10.00" fill="#000000">_getSort</text>
</a>
</g>
</g>
<!-- Node2 -->
<g id="node2" class="node">
<title>Node2</title>
<g id="a_node2"><a xlink:href="_l_f_s_t_k_find_class_8cpp_a7c25cd09a9d1edeb312cf126bea29910.xhtml#a7c25cd09a9d1edeb312cf126bea29910" target="_top" xlink:title=" ">
<polygon fill="none" stroke="#000000" points="803.6445,-226.5 803.6445,-246.5 864.6465,-246.5 864.6465,-226.5 803.6445,-226.5"/>
<text text-anchor="middle" x="834.1455" y="-233.5" font-family="Helvetica,sans-Serif" font-size="10.00" fill="#000000">sortDataN</text>
</a>
</g>
</g>
<!-- Node1&#45;&gt;Node2 -->
<g id="edge1" class="edge">
<title>Node1&#45;&gt;Node2</title>
<path fill="none" stroke="#191970" d="M930.6115,-183.5382C905.0387,-197.5782 872.5562,-215.4118 852.5668,-226.3863"/>
<polygon fill="#191970" stroke="#191970" points="932.6032,-186.4376 939.6846,-178.5569 929.2343,-180.3015 932.6032,-186.4376"/>
</g>
<!-- Node4 -->
<g id="node4" class="node">
<title>Node4</title>
<g id="a_node4"><a xlink:href="_l_f_s_t_k_find_class_8cpp_a79647ed142e18501901c20576545ed17.xhtml#a79647ed142e18501901c20576545ed17" target="_top" xlink:title=" ">
<polygon fill="none" stroke="#000000" points="803.9195,-178.5 803.9195,-198.5 864.3715,-198.5 864.3715,-178.5 803.9195,-178.5"/>
<text text-anchor="middle" x="834.1455" y="-185.5" font-family="Helvetica,sans-Serif" font-size="10.00" fill="#000000">sortDataP</text>
</a>
</g>
</g>
<!-- Node1&#45;&gt;Node4 -->
<g id="edge3" class="edge">
<title>Node1&#45;&gt;Node4</title>
<path fill="none" stroke="#191970" d="M893.5839,-177.0344C883.2753,-179.0229 873.2186,-180.9628 864.3966,-182.6646"/>
<polygon fill="#191970" stroke="#191970" points="894.3564,-180.45 903.5124,-175.1192 893.0305,-173.5767 894.3564,-180.45"/>
</g>
<!-- Node6 -->
<g id="node6" class="node">
<title>Node6</title>
<g id="a_node6"><a xlink:href="_l_f_s_t_k_find_class_8cpp_aa35b9e309f9f421a0d5f975f82e3267e.xhtml#aa35b9e309f9f421a0d5f975f82e3267e" target="_top" xlink:title=" ">
<polygon fill="none" stroke="#000000" points="804.1995,-133.5 804.1995,-153.5 864.0915,-153.5 864.0915,-133.5 804.1995,-133.5"/>
<text text-anchor="middle" x="834.1455" y="-140.5" font-family="Helvetica,sans-Serif" font-size="10.00" fill="#000000">sortDataT</text>
</a>
</g>
</g>
<!-- Node1&#45;&gt;Node6 -->
<g id="edge5" class="edge">
<title>Node1&#45;&gt;Node6</title>
<path fill="none" stroke="#191970" d="M893.5839,-151.8787C883.2753,-150.4256 873.2186,-149.0079 864.3966,-147.7643"/>
<polygon fill="#191970" stroke="#191970" points="893.1217,-155.3481 903.5124,-153.2783 894.0989,-148.4166 893.1217,-155.3481"/>
</g>
<!-- Node8 -->
<g id="node8" class="node">
<title>Node8</title>
<g id="a_node8"><a xlink:href="_l_f_s_t_k_find_class_8cpp_aa8d62d740dea25a9d9d2c4a7bf748456.xhtml#aa8d62d740dea25a9d9d2c4a7bf748456" target="_top" xlink:title=" ">
<polygon fill="none" stroke="#000000" points="800.59,-88.5 800.59,-108.5 867.701,-108.5 867.701,-88.5 800.59,-88.5"/>
<text text-anchor="middle" x="834.1455" y="-95.5" font-family="Helvetica,sans-Serif" font-size="10.00" fill="#000000">sortDataTN</text>
</a>
</g>
</g>
<!-- Node1&#45;&gt;Node8 -->
<g id="edge7" class="edge">
<title>Node1&#45;&gt;Node8</title>
<path fill="none" stroke="#191970" d="M925.841,-142.0396C902.3613,-130.8908 874.3374,-117.5842 855.5027,-108.641"/>
<polygon fill="#191970" stroke="#191970" points="924.3843,-145.2224 934.9189,-146.3501 927.3868,-138.8991 924.3843,-145.2224"/>
</g>
<!-- Node3 -->
<g id="node3" class="node">
<title>Node3</title>
<g id="a_node3"><a xlink:href="class_l_f_s_t_k__find_class_a678b36b040d41e2a3c039bb1408fc2b2.xhtml#a678b36b040d41e2a3c039bb1408fc2b2" target="_top" xlink:title=" ">
<polygon fill="none" stroke="#000000" points="634.13,-226.5 634.13,-258.5 764.59,-258.5 764.59,-226.5 634.13,-226.5"/>
<text text-anchor="start" x="642.13" y="-245.5" font-family="Helvetica,sans-Serif" font-size="10.00" fill="#000000">LFSTK_findClass::LFSTK</text>
<text text-anchor="middle" x="699.36" y="-233.5" font-family="Helvetica,sans-Serif" font-size="10.00" fill="#000000">_sortByName</text>
</a>
</g>
</g>
<!-- Node2&#45;&gt;Node3 -->
<g id="edge2" class="edge">
<title>Node2&#45;&gt;Node3</title>
<path fill="none" stroke="#191970" d="M793.3491,-238.3161C784.3113,-238.7184 774.5135,-239.1545 764.7709,-239.5882"/>
<polygon fill="#191970" stroke="#191970" points="793.7262,-241.8028 803.5606,-237.8615 793.4148,-234.8098 793.7262,-241.8028"/>
</g>
<!-- Node5 -->
<g id="node5" class="node">
<title>Node5</title>
<g id="a_node5"><a xlink:href="class_l_f_s_t_k__find_class_ae3671be987e9094a004e8149814f4ef0.xhtml#ae3671be987e9094a004e8149814f4ef0" target="_top" xlink:title=" ">
<polygon fill="none" stroke="#000000" points="634.13,-175.5 634.13,-207.5 764.59,-207.5 764.59,-175.5 634.13,-175.5"/>
<text text-anchor="start" x="642.13" y="-194.5" font-family="Helvetica,sans-Serif" font-size="10.00" fill="#000000">LFSTK_findClass::LFSTK</text>
<text text-anchor="middle" x="699.36" y="-182.5" font-family="Helvetica,sans-Serif" font-size="10.00" fill="#000000">_sortByPath</text>
</a>
</g>
</g>
<!-- Node4&#45;&gt;Node5 -->
<g id="edge4" class="edge">
<title>Node4&#45;&gt;Node5</title>
<path fill="none" stroke="#191970" d="M793.6136,-189.4021C784.5046,-189.6049 774.6128,-189.8251 764.7771,-190.044"/>
<polygon fill="#191970" stroke="#191970" points="793.9774,-192.895 803.897,-189.1733 793.8216,-185.8967 793.9774,-192.895"/>
</g>
<!-- Node7 -->
<g id="node7" class="node">
<title>Node7</title>
<g id="a_node7"><a xlink:href="class_l_f_s_t_k__find_class_a6f57e7933ca9b14f5976c48f6ae47b3b.xhtml#a6f57e7933ca9b14f5976c48f6ae47b3b" target="_top" xlink:title=" ">
<polygon fill="none" stroke="#000000" points="634.13,-124.5 634.13,-156.5 764.59,-156.5 764.59,-124.5 634.13,-124.5"/>
<text text-anchor="start" x="642.13" y="-143.5" font-family="Helvetica,sans-Serif" font-size="10.00" fill="#000000">LFSTK_findClass::LFSTK</text>
<text text-anchor="middle" x="699.36" y="-131.5" font-family="Helvetica,sans-Serif" font-size="10.00" fill="#000000">_sortByType</text>
</a>
</g>
</g>
<!-- Node6&#45;&gt;Node7 -->
<g id="edge6" class="edge">
<title>Node6&#45;&gt;Node7</title>
<path fill="none" stroke="#191970" d="M793.6136,-142.5979C784.5046,-142.3951 774.6128,-142.1749 764.7771,-141.956"/>
<polygon fill="#191970" stroke="#191970" points="793.8216,-146.1033 803.897,-142.8267 793.9774,-139.105 793.8216,-146.1033"/>
</g>
<!-- Node9 -->
<g id="node9" class="node">
<title>Node9</title>
<g id="a_node9"><a xlink:href="class_l_f_s_t_k__find_class_ad637f1dc3ad2f6a18e5b64b109e51ed1.xhtml#ad637f1dc3ad2f6a18e5b64b109e51ed1" target="_top" xlink:title=" ">
<polygon fill="none" stroke="#000000" points="634.13,-73.5 634.13,-105.5 764.59,-105.5 764.59,-73.5 634.13,-73.5"/>
<text text-anchor="start" x="642.13" y="-92.5" font-family="Helvetica,sans-Serif" font-size="10.00" fill="#000000">LFSTK_findClass::LFSTK</text>
<text text-anchor="middle" x="699.36" y="-80.5" font-family="Helvetica,sans-Serif" font-size="10.00" fill="#000000">_sortByTypeAndName</text>
</a>
</g>
</g>
<!-- Node8&#45;&gt;Node9 -->
<g id="edge8" class="edge">
<title>Node8&#45;&gt;Node9</title>
<path fill="none" stroke="#191970" d="M790.3823,-95.5778C782.1471,-95.0279 773.373,-94.4421 764.646,-93.8593"/>
<polygon fill="#191970" stroke="#191970" points="790.2701,-99.078 800.4811,-96.2521 790.7365,-92.0936 790.2701,-99.078"/>
</g>
<!-- Node10 -->
<g id="node10" class="node">
<title>Node10</title>
<g id="a_node10"><a xlink:href="class_l_f_s_t_k__file_dialog_class_a0a6b4f1db71031bf35a7636b736e8698.xhtml#a0a6b4f1db71031bf35a7636b736e8698" target="_top" xlink:title=" ">
<polygon fill="none" stroke="#000000" points="479.349,-73.5 479.349,-105.5 598.13,-105.5 598.13,-73.5 479.349,-73.5"/>
<text text-anchor="start" x="487.349" y="-92.5" font-family="Helvetica,sans-Serif" font-size="10.00" fill="#000000">LFSTK_fileDialogClass</text>
<text text-anchor="middle" x="538.7395" y="-80.5" font-family="Helvetica,sans-Serif" font-size="10.00" fill="#000000">::getFileList</text>
</a>
</g>
</g>
<!-- Node9&#45;&gt;Node10 -->
<g id="edge9" class="edge">
<title>Node9&#45;&gt;Node10</title>
<path fill="none" stroke="#191970" d="M623.9806,-89.5C615.3704,-89.5 606.6844,-89.5 598.3204,-89.5"/>
<polygon fill="#191970" stroke="#191970" points="624.0295,-93.0001 634.0295,-89.5 624.0295,-86.0001 624.0295,-93.0001"/>
</g>
<!-- Node11 -->
<g id="node11" class="node">
<title>Node11</title>
<g id="a_node11"><a xlink:href="class_l_f_s_t_k__file_dialog_class_a553ce8e885b0d60cbf515b7b3d1e8b65.xhtml#a553ce8e885b0d60cbf515b7b3d1e8b65" target="_top" xlink:title=" ">
<polygon fill="none" stroke="#000000" points="0,-48.5 0,-80.5 124.339,-80.5 124.339,-48.5 0,-48.5"/>
<text text-anchor="start" x="8" y="-67.5" font-family="Helvetica,sans-Serif" font-size="10.00" fill="#000000">LFSTK_fileDialogClass</text>
<text text-anchor="middle" x="62.1695" y="-55.5" font-family="Helvetica,sans-Serif" font-size="10.00" fill="#000000">::LFSTK_fileDialogClass</text>
</a>
</g>
</g>
<!-- Node10&#45;&gt;Node11 -->
<g id="edge10" class="edge">
<title>Node10&#45;&gt;Node11</title>
<path fill="none" stroke="#191970" d="M469.0854,-96.6108C392.8448,-102.9152 267.2154,-108.9559 160.339,-93.5 142.3988,-90.9056 123.17,-85.7748 106.5276,-80.5406"/>
<polygon fill="#191970" stroke="#191970" points="469.3829,-100.0983 479.0497,-95.762 468.7887,-93.1235 469.3829,-100.0983"/>
</g>
<!-- Node12 -->
<g id="node12" class="node">
<title>Node12</title>
<g id="a_node12"><a xlink:href="class_l_f_s_t_k__file_dialog_class_aa8804989d381def9acb2c99d47d6dc3d.xhtml#aa8804989d381def9acb2c99d47d6dc3d" target="_top" xlink:title=" ">
<polygon fill="none" stroke="#000000" points="322.348,-51.5 322.348,-83.5 443.349,-83.5 443.349,-51.5 322.348,-51.5"/>
<text text-anchor="start" x="330.348" y="-70.5" font-family="Helvetica,sans-Serif" font-size="10.00" fill="#000000">LFSTK_fileDialogClass</text>
<text text-anchor="middle" x="382.8485" y="-58.5" font-family="Helvetica,sans-Serif" font-size="10.00" fill="#000000">::LFSTK_setWorkingDir</text>
</a>
</g>
</g>
<!-- Node10&#45;&gt;Node12 -->
<g id="edge11" class="edge">
<title>Node10&#45;&gt;Node12</title>
<path fill="none" stroke="#191970" d="M468.7465,-79.6223C460.3386,-78.4357 451.806,-77.2316 443.5455,-76.0658"/>
<polygon fill="#191970" stroke="#191970" points="468.5228,-83.1253 478.9138,-81.0571 469.501,-76.194 468.5228,-83.1253"/>
</g>
<!-- Node13 -->
<g id="node13" class="node">
<title>Node13</title>
<g id="a_node13"><a xlink:href="class_l_f_s_t_k__file_dialog_class_aacf1d4b61cbb5b40d06f591ea96f9ea7.xhtml#aacf1d4b61cbb5b40d06f591ea96f9ea7" target="_top" xlink:title=" ">
<polygon fill="none" stroke="#000000" points="160.339,-51.5 160.339,-83.5 286.348,-83.5 286.348,-51.5 160.339,-51.5"/>
<text text-anchor="start" x="168.339" y="-70.5" font-family="Helvetica,sans-Serif" font-size="10.00" fill="#000000">LFSTK_fileDialogClass</text>
<text text-anchor="middle" x="223.3435" y="-58.5" font-family="Helvetica,sans-Serif" font-size="10.00" fill="#000000">::LFSTK_showFileDialog</text>
</a>
</g>
</g>
<!-- Node12&#45;&gt;Node13 -->
<g id="edge12" class="edge">
<title>Node12&#45;&gt;Node13</title>
<path fill="none" stroke="#191970" d="M311.8963,-67.5C303.4629,-67.5 294.8967,-67.5 286.581,-67.5"/>
<polygon fill="#191970" stroke="#191970" points="312.0915,-71.0001 322.0915,-67.5 312.0914,-64.0001 312.0915,-71.0001"/>
</g>
<!-- Node14 -->
<g id="node14" class="node">
<title>Node14</title>
<g id="a_node14"><a xlink:href="class_l_f_s_t_k__file_dialog_class_a789cade9437906181e31a243c85d52e5.xhtml#a789cade9437906181e31a243c85d52e5" target="_top" xlink:title=" ">
<polygon fill="none" stroke="#000000" points="163.953,-.5 163.953,-32.5 282.734,-32.5 282.734,-.5 163.953,-.5"/>
<text text-anchor="start" x="171.953" y="-19.5" font-family="Helvetica,sans-Serif" font-size="10.00" fill="#000000">LFSTK_fileDialogClass</text>
<text text-anchor="middle" x="223.3435" y="-7.5" font-family="Helvetica,sans-Serif" font-size="10.00" fill="#000000">::select</text>
</a>
</g>
</g>
<!-- Node12&#45;&gt;Node14 -->
<g id="edge13" class="edge">
<title>Node12&#45;&gt;Node14</title>
<path fill="none" stroke="#191970" d="M322.4879,-48.2003C306.3242,-43.0322 289.0291,-37.5023 273.4836,-32.5317"/>
<polygon fill="#191970" stroke="#191970" points="321.7892,-51.6514 332.3801,-51.3633 323.9211,-44.984 321.7892,-51.6514"/>
</g>
<!-- Node14&#45;&gt;Node11 -->
<g id="edge14" class="edge">
<title>Node14&#45;&gt;Node11</title>
<path fill="none" stroke="#191970" d="M159.442,-35.5308C145.1046,-39.8007 130.0303,-44.29 116.1436,-48.4257"/>
<polygon fill="#191970" stroke="#191970" points="160.6415,-38.8256 169.2265,-32.6168 158.6435,-32.1168 160.6415,-38.8256"/>
</g>
</g>
</svg>
        <g id="navigator" transform="translate(0 0)" fill="#404254">
                <rect fill="#f2f5e9" fill-opacity="0.5" stroke="#606060" stroke-width=".5" x="0" y="0" width="60" height="60"/>
                <use id="zoomplus" xlink:href="#zoomPlus" x="17" y="9" onmousedown="handleZoom(evt,'in')"/>
                <use id="zoomminus" xlink:href="#zoomMin" x="42" y="9" onmousedown="handleZoom(evt,'out')"/>
                <use id="reset" xlink:href="#resetDef" x="30" y="36" onmousedown="handleReset()"/>
                <g id="arrowUp" xlink:href="#dirArrow" transform="translate(30 24)" onmousedown="handlePan(0,-1)">
                  <use xlink:href="#rim" fill="#404040">
                        <set attributeName="fill" to="#808080" begin="arrowUp.mouseover" end="arrowUp.mouseout"/>
                  </use>
                  <path fill="none" stroke="white" stroke-width="1.5" d="M0,-3.0v7 M-2.5,-0.5L0,-3.0L2.5,-0.5"/>
                </g>
                <g id="arrowRight" xlink:href="#dirArrow" transform="rotate(90) translate(36 -43)" onmousedown="handlePan(1,0)">
                  <use xlink:href="#rim" fill="#404040">
                        <set attributeName="fill" to="#808080" begin="arrowRight.mouseover" end="arrowRight.mouseout"/>
                  </use>
                  <path fill="none" stroke="white" stroke-width="1.5" d="M0,-3.0v7 M-2.5,-0.5L0,-3.0L2.5,-0.5"/>
                </g>
                <g id="arrowDown" xlink:href="#dirArrow" transform="rotate(180) translate(-30 -48)" onmousedown="handlePan(0,1)">
                  <use xlink:href="#rim" fill="#404040">
                        <set attributeName="fill" to="#808080" begin="arrowDown.mouseover" end="arrowDown.mouseout"/>
                  </use>
                  <path fill="none" stroke="white" stroke-width="1.5" d="M0,-3.0v7 M-2.5,-0.5L0,-3.0L2.5,-0.5"/>
                </g>
                <g id="arrowLeft" xlink:href="#dirArrow" transform="rotate(270) translate(-36 17)" onmousedown="handlePan(-1,0)">
                  <use xlink:href="#rim" fill="#404040">
                        <set attributeName="fill" to="#808080" begin="arrowLeft.mouseover" end="arrowLeft.mouseout"/>
                  </use>
                  <path fill="none" stroke="white" stroke-width="1.5" d="M0,-3.0v7 M-2.5,-0.5L0,-3.0L2.5,-0.5"/>
                </g>
        </g>
        <svg viewBox="0 0 15 15" width="100%" height="30px" preserveAspectRatio="xMaxYMin meet">
         <g id="arrow_out" transform="scale(0.3 0.3)">
          <a xlink:href="class_l_f_s_t_k__find_class_a34a08ade9e47801d87f5ab53f9b1a055_a34a08ade9e47801d87f5ab53f9b1a055_icgraph_org.svg" target="_base">
           <rect id="button" ry="5" rx="5" y="6" x="6" height="38" width="38"
                fill="#f2f5e9" fill-opacity="0.5" stroke="#606060" stroke-width="1.0"/>
           <path id="arrow"
             d="M 11.500037,31.436501 C 11.940474,20.09759 22.043105,11.32322 32.158766,21.979434 L 37.068811,17.246167 C 37.068811,17.246167 37.088388,32 37.088388,32 L 22.160133,31.978069 C 22.160133,31.978069 26.997745,27.140456 26.997745,27.140456 C 18.528582,18.264221 13.291696,25.230495 11.500037,31.436501 z"
             style="fill:#404040;"/>
          </a>
         </g>
        </svg>
</svg>
