<?xml version="1.0" encoding="UTF-8" standalone="no"?>
<!DOCTYPE svg PUBLIC "-//W3C//DTD SVG 1.1//EN"
 "http://www.w3.org/Graphics/SVG/1.1/DTD/svg11.dtd">
<!-- Generated by graphviz version 2.40.1 (20161225.0304)
 -->
<!-- Title: LFSTK_multiLineEditClass Pages: 1 -->
<svg width="143pt" height="143pt"
 viewBox="0.00 0.00 142.90 143.00" xmlns="http://www.w3.org/2000/svg" xmlns:xlink="http://www.w3.org/1999/xlink">
<g id="graph0" class="graph" transform="scale(1 1) rotate(0) translate(4 139)">
<title>LFSTK_multiLineEditClass</title>
<!-- Node1 -->
<g id="node1" class="node">
<title>Node1</title>
<g id="a_node1"><a xlink:title="Mult&#45;Line edit class for LFSToolKit.">
<polygon fill="#bfbfbf" stroke="#000000" points="0,-.5 0,-20.5 134.898,-20.5 134.898,-.5 0,-.5"/>
<text text-anchor="middle" x="67.449" y="-7.5" font-family="Helvetica,sans-Serif" font-size="10.00" fill="#000000">LFSTK_multiLineEditClass</text>
</a>
</g>
</g>
<!-- Node2 -->
<g id="node2" class="node">
<title>Node2</title>
<g id="a_node2"><a xlink:href="class_l_f_s_t_k__line_edit_class.xhtml" target="_top" xlink:title="Line edit class for LFSToolKit.">
<polygon fill="none" stroke="#000000" points="12.2225,-57.5 12.2225,-77.5 122.6755,-77.5 122.6755,-57.5 12.2225,-57.5"/>
<text text-anchor="middle" x="67.449" y="-64.5" font-family="Helvetica,sans-Serif" font-size="10.00" fill="#000000">LFSTK_lineEditClass</text>
</a>
</g>
</g>
<!-- Node2&#45;&gt;Node1 -->
<g id="edge1" class="edge">
<title>Node2&#45;&gt;Node1</title>
<path fill="none" stroke="#191970" d="M67.449,-47.1771C67.449,-38.1625 67.449,-27.9556 67.449,-20.6022"/>
<polygon fill="#191970" stroke="#191970" points="63.9491,-47.3095 67.449,-57.3095 70.9491,-47.3096 63.9491,-47.3095"/>
</g>
<!-- Node3 -->
<g id="node3" class="node">
<title>Node3</title>
<g id="a_node3"><a xlink:href="class_l_f_s_t_k__gadget_class.xhtml" target="_top" xlink:title="Base class for LFSToolKit gadgets.">
<polygon fill="none" stroke="#000000" points="13.3265,-114.5 13.3265,-134.5 121.5715,-134.5 121.5715,-114.5 13.3265,-114.5"/>
<text text-anchor="middle" x="67.449" y="-121.5" font-family="Helvetica,sans-Serif" font-size="10.00" fill="#000000">LFSTK_gadgetClass</text>
</a>
</g>
</g>
<!-- Node3&#45;&gt;Node2 -->
<g id="edge2" class="edge">
<title>Node3&#45;&gt;Node2</title>
<path fill="none" stroke="#191970" d="M67.449,-104.1771C67.449,-95.1625 67.449,-84.9556 67.449,-77.6022"/>
<polygon fill="#191970" stroke="#191970" points="63.9491,-104.3095 67.449,-114.3095 70.9491,-104.3096 63.9491,-104.3095"/>
</g>
</g>
</svg>
