<?xml version="1.0" encoding="UTF-8" standalone="no"?>
<!DOCTYPE svg PUBLIC "-//W3C//DTD SVG 1.1//EN"
 "http://www.w3.org/Graphics/SVG/1.1/DTD/svg11.dtd">
<!-- Generated by graphviz version 2.40.1 (20161225.0304)
 -->
<!-- Title: LFSTK_fontDialogClass::LFSTK_showDialog Pages: 1 -->
<svg width="1335pt" height="870pt"
 viewBox="0.00 0.00 1334.84 870.00" xmlns="http://www.w3.org/2000/svg" xmlns:xlink="http://www.w3.org/1999/xlink">
<g id="graph0" class="graph" transform="scale(1 1) rotate(0) translate(4 866)">
<title>LFSTK_fontDialogClass::LFSTK_showDialog</title>
<!-- Node1 -->
<g id="node1" class="node">
<title>Node1</title>
<g id="a_node1"><a xlink:title=" ">
<polygon fill="#bfbfbf" stroke="#000000" points="0,-153.5 0,-185.5 122.681,-185.5 122.681,-153.5 0,-153.5"/>
<text text-anchor="start" x="8" y="-172.5" font-family="Helvetica,sans-Serif" font-size="10.00" fill="#000000">LFSTK_fontDialogClass</text>
<text text-anchor="middle" x="61.3405" y="-160.5" font-family="Helvetica,sans-Serif" font-size="10.00" fill="#000000">::LFSTK_showDialog</text>
</a>
</g>
</g>
<!-- Node2 -->
<g id="node2" class="node">
<title>Node2</title>
<g id="a_node2"><a xlink:href="class_l_f_s_t_k__font_dialog_class_a552f817a8f926c4cb1e423ce244c0a76.xhtml#a552f817a8f926c4cb1e423ce244c0a76" target="_top" xlink:title=" ">
<polygon fill="none" stroke="#000000" points="171.7445,-491.5 171.7445,-523.5 294.4255,-523.5 294.4255,-491.5 171.7445,-491.5"/>
<text text-anchor="start" x="179.7445" y="-510.5" font-family="Helvetica,sans-Serif" font-size="10.00" fill="#000000">LFSTK_fontDialogClass</text>
<text text-anchor="middle" x="233.085" y="-498.5" font-family="Helvetica,sans-Serif" font-size="10.00" fill="#000000">::LFSTK_getFontData</text>
</a>
</g>
</g>
<!-- Node1&#45;&gt;Node2 -->
<g id="edge1" class="edge">
<title>Node1&#45;&gt;Node2</title>
<path fill="none" stroke="#191970" d="M69.6241,-185.8024C97.2844,-240.239 186.6019,-416.0195 220.1713,-482.0854"/>
<polygon fill="#191970" stroke="#191970" points="217.2342,-484.0315 224.8845,-491.3611 223.4748,-480.8605 217.2342,-484.0315"/>
</g>
<!-- Node13 -->
<g id="node13" class="node">
<title>Node13</title>
<g id="a_node13"><a xlink:href="class_l_f_s_t_k__window_class_a9e816b5a80a4022fe266445124bf429f.xhtml#a9e816b5a80a4022fe266445124bf429f" target="_top" xlink:title=" ">
<polygon fill="none" stroke="#000000" points="163.956,-204.5 163.956,-236.5 302.214,-236.5 302.214,-204.5 163.956,-204.5"/>
<text text-anchor="start" x="171.956" y="-223.5" font-family="Helvetica,sans-Serif" font-size="10.00" fill="#000000">LFSTK_windowClass::</text>
<text text-anchor="middle" x="233.085" y="-211.5" font-family="Helvetica,sans-Serif" font-size="10.00" fill="#000000">LFSTK_getMappedListener</text>
</a>
</g>
</g>
<!-- Node1&#45;&gt;Node13 -->
<g id="edge12" class="edge">
<title>Node1&#45;&gt;Node13</title>
<path fill="none" stroke="#191970" d="M115.6815,-185.6367C132.7626,-190.709 151.7766,-196.3552 169.4425,-201.6012"/>
<polygon fill="#191970" stroke="#191970" points="168.5148,-204.9767 179.0975,-204.4683 170.5076,-198.2663 168.5148,-204.9767"/>
</g>
<!-- Node14 -->
<g id="node14" class="node">
<title>Node14</title>
<g id="a_node14"><a xlink:href="class_l_f_s_t_k__window_class_a10d93c702923f9d1528b43fc5010b858.xhtml#a10d93c702923f9d1528b43fc5010b858" target="_top" xlink:title=" ">
<polygon fill="none" stroke="#000000" points="158.681,-255.5 158.681,-287.5 307.489,-287.5 307.489,-255.5 158.681,-255.5"/>
<text text-anchor="start" x="166.681" y="-274.5" font-family="Helvetica,sans-Serif" font-size="10.00" fill="#000000">LFSTK_windowClass::</text>
<text text-anchor="middle" x="233.085" y="-262.5" font-family="Helvetica,sans-Serif" font-size="10.00" fill="#000000">LFSTK_handleWindowEvents</text>
</a>
</g>
</g>
<!-- Node1&#45;&gt;Node14 -->
<g id="edge13" class="edge">
<title>Node1&#45;&gt;Node14</title>
<path fill="none" stroke="#191970" d="M78.4002,-185.6746C96.9293,-202.5257 128.0039,-228.7594 158.681,-245.5 162.5696,-247.6221 166.6647,-249.6232 170.8518,-251.5001"/>
<polygon fill="#191970" stroke="#191970" points="169.5464,-254.7481 180.1206,-255.4092 172.2666,-248.2982 169.5464,-254.7481"/>
</g>
<!-- Node40 -->
<g id="node40" class="node">
<title>Node40</title>
<g id="a_node40"><a xlink:href="class_l_f_s_t_k__window_class_ab03c62046f64b173b9d1138592dee8c1.xhtml#ab03c62046f64b173b9d1138592dee8c1" target="_top" xlink:title=" ">
<polygon fill="none" stroke="#000000" points="174.8035,-153.5 174.8035,-185.5 291.3665,-185.5 291.3665,-153.5 174.8035,-153.5"/>
<text text-anchor="start" x="182.8035" y="-172.5" font-family="Helvetica,sans-Serif" font-size="10.00" fill="#000000">LFSTK_windowClass::</text>
<text text-anchor="middle" x="233.085" y="-160.5" font-family="Helvetica,sans-Serif" font-size="10.00" fill="#000000">LFSTK_hideWindow</text>
</a>
</g>
</g>
<!-- Node1&#45;&gt;Node40 -->
<g id="edge45" class="edge">
<title>Node1&#45;&gt;Node40</title>
<path fill="none" stroke="#191970" d="M122.8591,-169.5C136.2815,-169.5 150.5694,-169.5 164.2554,-169.5"/>
<polygon fill="#191970" stroke="#191970" points="164.5797,-173.0001 174.5797,-169.5 164.5796,-166.0001 164.5797,-173.0001"/>
</g>
<!-- Node41 -->
<g id="node41" class="node">
<title>Node41</title>
<g id="a_node41"><a xlink:href="class_l_f_s_t_k__window_class_a011b1b3d6fa7a4ccf72cfed2cd0c4290.xhtml#a011b1b3d6fa7a4ccf72cfed2cd0c4290" target="_top" xlink:title=" ">
<polygon fill="none" stroke="#000000" points="174.233,-102.5 174.233,-134.5 291.937,-134.5 291.937,-102.5 174.233,-102.5"/>
<text text-anchor="start" x="182.233" y="-121.5" font-family="Helvetica,sans-Serif" font-size="10.00" fill="#000000">LFSTK_windowClass::</text>
<text text-anchor="middle" x="233.085" y="-109.5" font-family="Helvetica,sans-Serif" font-size="10.00" fill="#000000">LFSTK_setKeepAbove</text>
</a>
</g>
</g>
<!-- Node1&#45;&gt;Node41 -->
<g id="edge46" class="edge">
<title>Node1&#45;&gt;Node41</title>
<path fill="none" stroke="#191970" d="M115.6815,-153.3633C132.7626,-148.291 151.7766,-142.6448 169.4425,-137.3988"/>
<polygon fill="#191970" stroke="#191970" points="170.5076,-140.7337 179.0975,-134.5317 168.5148,-134.0233 170.5076,-140.7337"/>
</g>
<!-- Node42 -->
<g id="node42" class="node">
<title>Node42</title>
<g id="a_node42"><a xlink:href="class_l_f_s_t_k__window_class_addd782e14c1c288db5150871d151ee22.xhtml#addd782e14c1c288db5150871d151ee22" target="_top" xlink:title=" ">
<polygon fill="none" stroke="#000000" points="171.7445,-51.5 171.7445,-83.5 294.4255,-83.5 294.4255,-51.5 171.7445,-51.5"/>
<text text-anchor="start" x="179.7445" y="-70.5" font-family="Helvetica,sans-Serif" font-size="10.00" fill="#000000">LFSTK_windowClass::</text>
<text text-anchor="middle" x="233.085" y="-58.5" font-family="Helvetica,sans-Serif" font-size="10.00" fill="#000000">LFSTK_setTransientFor</text>
</a>
</g>
</g>
<!-- Node1&#45;&gt;Node42 -->
<g id="edge47" class="edge">
<title>Node1&#45;&gt;Node42</title>
<path fill="none" stroke="#191970" d="M77.9822,-153.3384C96.4026,-136.2042 127.6134,-109.3395 158.681,-92.5 161.9269,-90.7406 165.3192,-89.0736 168.7904,-87.4992"/>
<polygon fill="#191970" stroke="#191970" points="170.275,-90.6714 178.1174,-83.5477 167.5443,-84.226 170.275,-90.6714"/>
</g>
<!-- Node43 -->
<g id="node43" class="node">
<title>Node43</title>
<g id="a_node43"><a xlink:href="class_l_f_s_t_k__window_class_a7e8039be4b889bb5eaa51c297386195b.xhtml#a7e8039be4b889bb5eaa51c297386195b" target="_top" xlink:title=" ">
<polygon fill="none" stroke="#000000" points="174.8035,-.5 174.8035,-32.5 291.3665,-32.5 291.3665,-.5 174.8035,-.5"/>
<text text-anchor="start" x="182.8035" y="-19.5" font-family="Helvetica,sans-Serif" font-size="10.00" fill="#000000">LFSTK_windowClass::</text>
<text text-anchor="middle" x="233.085" y="-7.5" font-family="Helvetica,sans-Serif" font-size="10.00" fill="#000000">LFSTK_showWindow</text>
</a>
</g>
</g>
<!-- Node1&#45;&gt;Node43 -->
<g id="edge48" class="edge">
<title>Node1&#45;&gt;Node43</title>
<path fill="none" stroke="#191970" d="M69.4985,-153.2493C83.876,-126.2054 116.2637,-71.9354 158.681,-41.5 160.8123,-39.9707 163.0438,-38.5301 165.3484,-37.1734"/>
<polygon fill="#191970" stroke="#191970" points="167.3149,-40.094 174.542,-32.3468 164.0611,-33.8962 167.3149,-40.094"/>
</g>
<!-- Node3 -->
<g id="node3" class="node">
<title>Node3</title>
<g id="a_node3"><a xlink:href="class_l_f_s_t_k__font_dialog_class_ac2b51914d426e9ff7ba57211d5639514.xhtml#ac2b51914d426e9ff7ba57211d5639514" target="_top" xlink:title=" ">
<polygon fill="none" stroke="#000000" points="343.489,-701.5 343.489,-733.5 466.17,-733.5 466.17,-701.5 343.489,-701.5"/>
<text text-anchor="start" x="351.489" y="-720.5" font-family="Helvetica,sans-Serif" font-size="10.00" fill="#000000">LFSTK_fontDialogClass</text>
<text text-anchor="middle" x="404.8295" y="-708.5" font-family="Helvetica,sans-Serif" font-size="10.00" fill="#000000">::buildFontString</text>
</a>
</g>
</g>
<!-- Node2&#45;&gt;Node3 -->
<g id="edge2" class="edge">
<title>Node2&#45;&gt;Node3</title>
<path fill="none" stroke="#191970" d="M246.2763,-523.6297C276.3094,-560.3525 349.9104,-650.3478 385.2575,-693.5684"/>
<polygon fill="#191970" stroke="#191970" points="382.5531,-695.7902 391.5932,-701.3154 387.9718,-691.3587 382.5531,-695.7902"/>
</g>
<!-- Node4 -->
<g id="node4" class="node">
<title>Node4</title>
<g id="a_node4"><a xlink:href="class_l_f_s_t_k__line_edit_class_adbcfa08279eec28c5f4e2c33a056d396.xhtml#adbcfa08279eec28c5f4e2c33a056d396" target="_top" xlink:title=" ">
<polygon fill="none" stroke="#000000" points="521.6215,-829.5 521.6215,-861.5 637.0735,-861.5 637.0735,-829.5 521.6215,-829.5"/>
<text text-anchor="start" x="529.6215" y="-848.5" font-family="Helvetica,sans-Serif" font-size="10.00" fill="#000000">LFSTK_lineEditClass</text>
<text text-anchor="middle" x="579.3475" y="-836.5" font-family="Helvetica,sans-Serif" font-size="10.00" fill="#000000">::LFSTK_clearWindow</text>
</a>
</g>
</g>
<!-- Node3&#45;&gt;Node4 -->
<g id="edge3" class="edge">
<title>Node3&#45;&gt;Node4</title>
<path fill="none" stroke="#191970" d="M416.1209,-733.8445C432.5477,-756.4496 465.145,-797.1088 502.17,-820.5 505.3328,-822.4982 508.6702,-824.3508 512.1119,-826.0667"/>
<polygon fill="#191970" stroke="#191970" points="510.8653,-829.3446 521.4174,-830.295 513.7611,-822.9716 510.8653,-829.3446"/>
</g>
<!-- Node9 -->
<g id="node9" class="node">
<title>Node9</title>
<g id="a_node9"><a xlink:href="class_l_f_s_t_k__line_edit_class_adfaad6bd5ec8f4ecc3be7a6358693786.xhtml#adfaad6bd5ec8f4ecc3be7a6358693786" target="_top" xlink:title=" ">
<polygon fill="none" stroke="#000000" points="524.121,-778.5 524.121,-810.5 634.574,-810.5 634.574,-778.5 524.121,-778.5"/>
<text text-anchor="start" x="532.121" y="-797.5" font-family="Helvetica,sans-Serif" font-size="10.00" fill="#000000">LFSTK_lineEditClass</text>
<text text-anchor="middle" x="579.3475" y="-785.5" font-family="Helvetica,sans-Serif" font-size="10.00" fill="#000000">::LFSTK_getCStr</text>
</a>
</g>
</g>
<!-- Node3&#45;&gt;Node9 -->
<g id="edge8" class="edge">
<title>Node3&#45;&gt;Node9</title>
<path fill="none" stroke="#191970" d="M431.883,-733.628C451.0695,-744.6462 477.6607,-759.0813 502.17,-769.5 506.5568,-771.3648 511.1325,-773.1734 515.7706,-774.9082"/>
<polygon fill="#191970" stroke="#191970" points="514.7435,-778.2584 525.3379,-778.3597 517.119,-771.6738 514.7435,-778.2584"/>
</g>
<!-- Node10 -->
<g id="node10" class="node">
<title>Node10</title>
<g id="a_node10"><a xlink:href="class_l_f_s_t_k__list_gadget_class_adca4f8facb3b38e8eb94cd5164c8c415.xhtml#adca4f8facb3b38e8eb94cd5164c8c415" target="_top" xlink:title=" ">
<polygon fill="none" stroke="#000000" points="509.115,-727.5 509.115,-759.5 649.58,-759.5 649.58,-727.5 509.115,-727.5"/>
<text text-anchor="start" x="517.115" y="-746.5" font-family="Helvetica,sans-Serif" font-size="10.00" fill="#000000">LFSTK_listGadgetClass</text>
<text text-anchor="middle" x="579.3475" y="-734.5" font-family="Helvetica,sans-Serif" font-size="10.00" fill="#000000">::LFSTK_getCurrentListItem</text>
</a>
</g>
</g>
<!-- Node3&#45;&gt;Node10 -->
<g id="edge9" class="edge">
<title>Node3&#45;&gt;Node10</title>
<path fill="none" stroke="#191970" d="M466.358,-726.6666C476.8768,-728.2337 487.9434,-729.8825 498.8675,-731.5099"/>
<polygon fill="#191970" stroke="#191970" points="498.4333,-734.9838 508.8399,-732.9957 499.4648,-728.0602 498.4333,-734.9838"/>
</g>
<!-- Node11 -->
<g id="node11" class="node">
<title>Node11</title>
<g id="a_node11"><a xlink:href="class_l_f_s_t_k__toggle_button_class_a8a076e5b5871885e04cd5f91b9607c26.xhtml#a8a076e5b5871885e04cd5f91b9607c26" target="_top" xlink:title=" ">
<polygon fill="none" stroke="#000000" points="512.443,-676.5 512.443,-708.5 646.252,-708.5 646.252,-676.5 512.443,-676.5"/>
<text text-anchor="start" x="520.443" y="-695.5" font-family="Helvetica,sans-Serif" font-size="10.00" fill="#000000">LFSTK_toggleButtonClass</text>
<text text-anchor="middle" x="579.3475" y="-683.5" font-family="Helvetica,sans-Serif" font-size="10.00" fill="#000000">::LFSTK_getValue</text>
</a>
</g>
</g>
<!-- Node3&#45;&gt;Node11 -->
<g id="edge10" class="edge">
<title>Node3&#45;&gt;Node11</title>
<path fill="none" stroke="#191970" d="M466.358,-708.6859C477.9348,-707.0275 490.1752,-705.2741 502.1588,-703.5574"/>
<polygon fill="#191970" stroke="#191970" points="502.7418,-707.0097 512.1444,-702.127 501.7491,-700.0805 502.7418,-707.0097"/>
</g>
<!-- Node12 -->
<g id="node12" class="node">
<title>Node12</title>
<g id="a_node12"><a xlink:href="class_l_f_s_t_k__gadget_class_a68d08536cf6845c8c2b60a9c5f855478.xhtml#a68d08536cf6845c8c2b60a9c5f855478" target="_top" xlink:title=" ">
<polygon fill="none" stroke="#000000" points="502.17,-625.5 502.17,-657.5 656.525,-657.5 656.525,-625.5 502.17,-625.5"/>
<text text-anchor="start" x="510.17" y="-644.5" font-family="Helvetica,sans-Serif" font-size="10.00" fill="#000000">LFSTK_gadgetClass::</text>
<text text-anchor="middle" x="579.3475" y="-632.5" font-family="Helvetica,sans-Serif" font-size="10.00" fill="#000000">LFSTK_setCairoFontDataParts</text>
</a>
</g>
</g>
<!-- Node3&#45;&gt;Node12 -->
<g id="edge11" class="edge">
<title>Node3&#45;&gt;Node12</title>
<path fill="none" stroke="#191970" d="M432.3377,-701.4853C451.5092,-690.7256 477.899,-676.7026 502.17,-666.5 506.6413,-664.6204 511.3062,-662.7941 516.0318,-661.0408"/>
<polygon fill="#191970" stroke="#191970" points="517.5404,-664.2182 525.7742,-657.5507 515.1796,-657.6283 517.5404,-664.2182"/>
</g>
<!-- Node5 -->
<g id="node5" class="node">
<title>Node5</title>
<g id="a_node5"><a xlink:href="class_l_f_s_t_k__gadget_class_ab76db165a19af248b5e94e95492dc879.xhtml#ab76db165a19af248b5e94e95492dc879" target="_top" xlink:title=" ">
<polygon fill="none" stroke="#000000" points="1201.6485,-475.5 1201.6485,-507.5 1315.4515,-507.5 1315.4515,-475.5 1201.6485,-475.5"/>
<text text-anchor="start" x="1209.6485" y="-494.5" font-family="Helvetica,sans-Serif" font-size="10.00" fill="#000000">LFSTK_gadgetClass::</text>
<text text-anchor="middle" x="1258.55" y="-482.5" font-family="Helvetica,sans-Serif" font-size="10.00" fill="#000000">drawBevel</text>
</a>
</g>
</g>
<!-- Node4&#45;&gt;Node5 -->
<g id="edge4" class="edge">
<title>Node4&#45;&gt;Node5</title>
<path fill="none" stroke="#191970" d="M637.1477,-841.1707C721.9798,-832.8567 883.258,-809.4888 1004.459,-746.5 1114.2837,-689.4235 1206.2511,-568.0477 1242.2639,-516.0155"/>
<polygon fill="#191970" stroke="#191970" points="1245.1896,-517.9376 1247.9449,-507.7072 1239.4113,-513.9865 1245.1896,-517.9376"/>
</g>
<!-- Node6 -->
<g id="node6" class="node">
<title>Node6</title>
<g id="a_node6"><a xlink:href="class_l_f_s_t_k__line_edit_class_a24da1f04ceb3b05ed9b25988e2cb5130.xhtml#a24da1f04ceb3b05ed9b25988e2cb5130" target="_top" xlink:title=" ">
<polygon fill="none" stroke="#000000" points="709.201,-704.5 709.201,-736.5 819.654,-736.5 819.654,-704.5 709.201,-704.5"/>
<text text-anchor="start" x="717.201" y="-723.5" font-family="Helvetica,sans-Serif" font-size="10.00" fill="#000000">LFSTK_lineEditClass</text>
<text text-anchor="middle" x="764.4275" y="-711.5" font-family="Helvetica,sans-Serif" font-size="10.00" fill="#000000">::drawLabel</text>
</a>
</g>
</g>
<!-- Node4&#45;&gt;Node6 -->
<g id="edge5" class="edge">
<title>Node4&#45;&gt;Node6</title>
<path fill="none" stroke="#191970" d="M637.2152,-832.3595C644.1745,-829.2125 650.8233,-825.3179 656.525,-820.5 682.9453,-798.1748 667.1804,-775.0393 692.525,-751.5 696.5092,-747.7996 701.0038,-744.4987 705.7519,-741.5629"/>
<polygon fill="#191970" stroke="#191970" points="707.4947,-744.5985 714.5171,-736.6652 704.0802,-738.4877 707.4947,-744.5985"/>
</g>
<!-- Node7 -->
<g id="node7" class="node">
<title>Node7</title>
<g id="a_node7"><a xlink:href="class_l_f_s_t_k__gadget_class_ac233a3c3e0900ff66adb74102a56f09f.xhtml#ac233a3c3e0900ff66adb74102a56f09f" target="_top" xlink:title=" ">
<polygon fill="none" stroke="#000000" points="872.33,-653.5 872.33,-685.5 1004.459,-685.5 1004.459,-653.5 872.33,-653.5"/>
<text text-anchor="start" x="880.33" y="-672.5" font-family="Helvetica,sans-Serif" font-size="10.00" fill="#000000">LFSTK_gadgetClass::</text>
<text text-anchor="middle" x="938.3945" y="-660.5" font-family="Helvetica,sans-Serif" font-size="10.00" fill="#000000">LFSTK_getTextRealWidth</text>
</a>
</g>
</g>
<!-- Node6&#45;&gt;Node7 -->
<g id="edge6" class="edge">
<title>Node6&#45;&gt;Node7</title>
<path fill="none" stroke="#191970" d="M819.4717,-704.3633C836.7739,-699.291 856.0339,-693.6448 873.9285,-688.3988"/>
<polygon fill="#191970" stroke="#191970" points="875.0968,-691.7037 883.7083,-685.5317 873.1275,-684.9864 875.0968,-691.7037"/>
</g>
<!-- Node8 -->
<g id="node8" class="node">
<title>Node8</title>
<g id="a_node8"><a xlink:href="class_l_f_s_t_k__gadget_class_a23bc2dc7b8200df4dc74f1f68460eca2.xhtml#a23bc2dc7b8200df4dc74f1f68460eca2" target="_top" xlink:title=" ">
<polygon fill="none" stroke="#000000" points="881.493,-704.5 881.493,-736.5 995.296,-736.5 995.296,-704.5 881.493,-704.5"/>
<text text-anchor="start" x="889.493" y="-723.5" font-family="Helvetica,sans-Serif" font-size="10.00" fill="#000000">LFSTK_gadgetClass::</text>
<text text-anchor="middle" x="938.3945" y="-711.5" font-family="Helvetica,sans-Serif" font-size="10.00" fill="#000000">LFSTK_getTextWidth</text>
</a>
</g>
</g>
<!-- Node6&#45;&gt;Node8 -->
<g id="edge7" class="edge">
<title>Node6&#45;&gt;Node8</title>
<path fill="none" stroke="#191970" d="M819.9501,-720.5C836.1726,-720.5 854.0824,-720.5 870.9572,-720.5"/>
<polygon fill="#191970" stroke="#191970" points="871.3061,-724.0001 881.306,-720.5 871.306,-717.0001 871.3061,-724.0001"/>
</g>
<!-- Node15 -->
<g id="node15" class="node">
<title>Node15</title>
<g id="a_node15"><a xlink:href="class_l_f_s_t_k__window_class_ac3b5b99b3a018cce7c631df39db76be1.xhtml#ac3b5b99b3a018cce7c631df39db76be1" target="_top" xlink:title=" ">
<polygon fill="none" stroke="#000000" points="521.066,-115.5 521.066,-147.5 637.629,-147.5 637.629,-115.5 521.066,-115.5"/>
<text text-anchor="start" x="529.066" y="-134.5" font-family="Helvetica,sans-Serif" font-size="10.00" fill="#000000">LFSTK_windowClass::</text>
<text text-anchor="middle" x="579.3475" y="-122.5" font-family="Helvetica,sans-Serif" font-size="10.00" fill="#000000">LFSTK_clearWindow</text>
</a>
</g>
</g>
<!-- Node14&#45;&gt;Node15 -->
<g id="edge14" class="edge">
<title>Node14&#45;&gt;Node15</title>
<path fill="none" stroke="#191970" d="M293.7316,-255.4246C298.7195,-252.6264 303.4043,-249.3457 307.489,-245.5 337.658,-217.0964 310.4089,-184.4529 343.489,-159.5 390.9179,-123.7235 459.6659,-119.3478 510.7143,-122.3604"/>
<polygon fill="#191970" stroke="#191970" points="510.7802,-125.8735 521.0002,-123.0804 511.2691,-118.8905 510.7802,-125.8735"/>
</g>
<!-- Node24 -->
<g id="node24" class="node">
<title>Node24</title>
<g id="a_node24"><a xlink:href="class_l_f_s_t_k__window_class_a0d85c225b59176302c8b25d090e08ad7.xhtml#a0d85c225b59176302c8b25d090e08ad7" target="_top" xlink:title=" ">
<polygon fill="none" stroke="#000000" points="521.066,-268.5 521.066,-300.5 637.629,-300.5 637.629,-268.5 521.066,-268.5"/>
<text text-anchor="start" x="529.066" y="-287.5" font-family="Helvetica,sans-Serif" font-size="10.00" fill="#000000">LFSTK_windowClass::</text>
<text text-anchor="middle" x="579.3475" y="-275.5" font-family="Helvetica,sans-Serif" font-size="10.00" fill="#000000">LFSTK_getDnDAtom</text>
</a>
</g>
</g>
<!-- Node14&#45;&gt;Node24 -->
<g id="edge25" class="edge">
<title>Node14&#45;&gt;Node24</title>
<path fill="none" stroke="#191970" d="M307.7925,-274.3048C367.9964,-276.5651 451.977,-279.718 510.5497,-281.9171"/>
<polygon fill="#191970" stroke="#191970" points="510.6903,-285.4247 520.8146,-282.3025 510.953,-278.4297 510.6903,-285.4247"/>
</g>
<!-- Node25 -->
<g id="node25" class="node">
<title>Node25</title>
<g id="a_node25"><a xlink:href="class_l_f_s_t_k__window_class_a2cef240ff812e56a57ccb6a087edb8cd.xhtml#a2cef240ff812e56a57ccb6a087edb8cd" target="_top" xlink:title=" ">
<polygon fill="none" stroke="#000000" points="346.548,-421.5 346.548,-453.5 463.111,-453.5 463.111,-421.5 346.548,-421.5"/>
<text text-anchor="start" x="354.548" y="-440.5" font-family="Helvetica,sans-Serif" font-size="10.00" fill="#000000">LFSTK_windowClass::</text>
<text text-anchor="middle" x="404.8295" y="-428.5" font-family="Helvetica,sans-Serif" font-size="10.00" fill="#000000">LFSTK_handleDnD</text>
</a>
</g>
</g>
<!-- Node14&#45;&gt;Node25 -->
<g id="edge26" class="edge">
<title>Node14&#45;&gt;Node25</title>
<path fill="none" stroke="#191970" d="M249.8653,-287.719C280.4687,-317.2988 345.441,-380.098 380.7575,-414.2332"/>
<polygon fill="#191970" stroke="#191970" points="378.6112,-417.0263 388.2339,-421.4595 383.4761,-411.9931 378.6112,-417.0263"/>
</g>
<!-- Node36 -->
<g id="node36" class="node">
<title>Node36</title>
<g id="a_node36"><a xlink:href="class_l_f_s_t_k__window_class_abec54e421d2e094da2214abfccebd361.xhtml#abec54e421d2e094da2214abfccebd361" target="_top" xlink:title=" ">
<polygon fill="none" stroke="#000000" points="346.548,-169.5 346.548,-201.5 463.111,-201.5 463.111,-169.5 346.548,-169.5"/>
<text text-anchor="start" x="354.548" y="-188.5" font-family="Helvetica,sans-Serif" font-size="10.00" fill="#000000">LFSTK_windowClass::</text>
<text text-anchor="middle" x="404.8295" y="-176.5" font-family="Helvetica,sans-Serif" font-size="10.00" fill="#000000">LFSTK_resizeWindow</text>
</a>
</g>
</g>
<!-- Node14&#45;&gt;Node36 -->
<g id="edge38" class="edge">
<title>Node14&#45;&gt;Node36</title>
<path fill="none" stroke="#191970" d="M285.1343,-255.4865C292.7853,-252.5127 300.4526,-249.1707 307.489,-245.5 324.9876,-236.3715 326.8283,-230.0807 343.489,-219.5 350.3546,-215.1399 357.8136,-210.7403 365.0889,-206.6187"/>
<polygon fill="#191970" stroke="#191970" points="367.1161,-209.4958 374.1475,-201.5706 363.7085,-203.3812 367.1161,-209.4958"/>
</g>
<!-- Node37 -->
<g id="node37" class="node">
<title>Node37</title>
<g id="a_node37"><a xlink:href="class_l_f_s_t_k__lib_aa5e46eec51c9f1f2a86ef7e22d6cba5b.xhtml#aa5e46eec51c9f1f2a86ef7e22d6cba5b" target="_top" xlink:title=" ">
<polygon fill="none" stroke="#000000" points="508.2845,-217.5 508.2845,-249.5 650.4105,-249.5 650.4105,-217.5 508.2845,-217.5"/>
<text text-anchor="start" x="516.2845" y="-236.5" font-family="Helvetica,sans-Serif" font-size="10.00" fill="#000000">LFSTK_lib::LFSTK_setCairo</text>
<text text-anchor="middle" x="579.3475" y="-224.5" font-family="Helvetica,sans-Serif" font-size="10.00" fill="#000000">Surface</text>
</a>
</g>
</g>
<!-- Node14&#45;&gt;Node37 -->
<g id="edge42" class="edge">
<title>Node14&#45;&gt;Node37</title>
<path fill="none" stroke="#191970" d="M307.7925,-263.3013C363.7765,-257.1575 440.3208,-248.7572 497.8755,-242.441"/>
<polygon fill="#191970" stroke="#191970" points="498.47,-245.8969 508.0285,-241.3268 497.7063,-238.9386 498.47,-245.8969"/>
</g>
<!-- Node39 -->
<g id="node39" class="node">
<title>Node39</title>
<g id="a_node39"><a xlink:href="class_l_f_s_t_k__window_class_add088894ef8d87ac2d446e6d0b4920a5.xhtml#add088894ef8d87ac2d446e6d0b4920a5" target="_top" xlink:title=" ">
<polygon fill="none" stroke="#000000" points="346.548,-300.5 346.548,-332.5 463.111,-332.5 463.111,-300.5 346.548,-300.5"/>
<text text-anchor="start" x="354.548" y="-319.5" font-family="Helvetica,sans-Serif" font-size="10.00" fill="#000000">LFSTK_windowClass::</text>
<text text-anchor="middle" x="404.8295" y="-307.5" font-family="Helvetica,sans-Serif" font-size="10.00" fill="#000000">sendUTF8</text>
</a>
</g>
</g>
<!-- Node14&#45;&gt;Node39 -->
<g id="edge43" class="edge">
<title>Node14&#45;&gt;Node39</title>
<path fill="none" stroke="#191970" d="M294.6036,-287.6189C308.1576,-291.1703 322.5941,-294.9529 336.4023,-298.5709"/>
<polygon fill="#191970" stroke="#191970" points="335.7636,-302.0216 346.3242,-301.1706 337.5378,-295.2502 335.7636,-302.0216"/>
</g>
<!-- Node16 -->
<g id="node16" class="node">
<title>Node16</title>
<g id="a_node16"><a xlink:href="class_l_f_s_t_k__gadget_class_aa5b5f301fe9b0a4d7679f786da7462ba.xhtml#aa5b5f301fe9b0a4d7679f786da7462ba" target="_top" xlink:title=" ">
<polygon fill="none" stroke="#000000" points="707.526,-217.5 707.526,-249.5 821.329,-249.5 821.329,-217.5 707.526,-217.5"/>
<text text-anchor="start" x="715.526" y="-236.5" font-family="Helvetica,sans-Serif" font-size="10.00" fill="#000000">LFSTK_gadgetClass::</text>
<text text-anchor="middle" x="764.4275" y="-224.5" font-family="Helvetica,sans-Serif" font-size="10.00" fill="#000000">LFSTK_clearWindow</text>
</a>
</g>
</g>
<!-- Node15&#45;&gt;Node16 -->
<g id="edge15" class="edge">
<title>Node15&#45;&gt;Node16</title>
<path fill="none" stroke="#191970" d="M635.8045,-147.549C642.9157,-150.2184 649.9838,-153.2058 656.525,-156.5 686.2839,-171.4869 716.8949,-194.1504 737.8758,-211.0139"/>
<polygon fill="#191970" stroke="#191970" points="735.7354,-213.7847 745.6975,-217.3914 740.1589,-208.3595 735.7354,-213.7847"/>
</g>
<!-- Node17 -->
<g id="node17" class="node">
<title>Node17</title>
<g id="a_node17"><a xlink:href="class_l_f_s_t_k__gadget_class_a66b92f213e5a7e75da3f707b511342ea.xhtml#a66b92f213e5a7e75da3f707b511342ea" target="_top" xlink:title=" ">
<polygon fill="none" stroke="#000000" points="881.493,-475.5 881.493,-507.5 995.296,-507.5 995.296,-475.5 881.493,-475.5"/>
<text text-anchor="start" x="889.493" y="-494.5" font-family="Helvetica,sans-Serif" font-size="10.00" fill="#000000">LFSTK_gadgetClass::</text>
<text text-anchor="middle" x="938.3945" y="-482.5" font-family="Helvetica,sans-Serif" font-size="10.00" fill="#000000">drawGagetDetails</text>
</a>
</g>
</g>
<!-- Node16&#45;&gt;Node17 -->
<g id="edge16" class="edge">
<title>Node16&#45;&gt;Node17</title>
<path fill="none" stroke="#191970" d="M775.3099,-249.6391C804.8435,-293.4385 886.6402,-414.7463 921.8857,-467.0168"/>
<polygon fill="#191970" stroke="#191970" points="919.0235,-469.0326 927.5162,-475.367 924.8274,-465.1191 919.0235,-469.0326"/>
</g>
<!-- Node17&#45;&gt;Node5 -->
<g id="edge18" class="edge">
<title>Node17&#45;&gt;Node5</title>
<path fill="none" stroke="#191970" d="M995.6319,-491.5C1050.5208,-491.5 1133.3847,-491.5 1191.3741,-491.5"/>
<polygon fill="#191970" stroke="#191970" points="1191.539,-495.0001 1201.539,-491.5 1191.5389,-488.0001 1191.539,-495.0001"/>
</g>
<!-- Node18 -->
<g id="node18" class="node">
<title>Node18</title>
<g id="a_node18"><a xlink:href="class_l_f_s_t_k__gadget_class_a37d96aab3c59cb97fca1720441e3fc8e.xhtml#a37d96aab3c59cb97fca1720441e3fc8e" target="_top" xlink:title=" ">
<polygon fill="none" stroke="#000000" points="1040.459,-571.5 1040.459,-603.5 1154.262,-603.5 1154.262,-571.5 1040.459,-571.5"/>
<text text-anchor="start" x="1048.459" y="-590.5" font-family="Helvetica,sans-Serif" font-size="10.00" fill="#000000">LFSTK_gadgetClass::</text>
<text text-anchor="middle" x="1097.3605" y="-578.5" font-family="Helvetica,sans-Serif" font-size="10.00" fill="#000000">clearBox</text>
</a>
</g>
</g>
<!-- Node17&#45;&gt;Node18 -->
<g id="edge17" class="edge">
<title>Node17&#45;&gt;Node18</title>
<path fill="none" stroke="#191970" d="M989.2764,-507.5017C994.6217,-510.1211 999.798,-513.1094 1004.459,-516.5 1025.171,-531.5669 1020.2619,-545.7495 1040.459,-561.5 1042.5199,-563.1072 1044.6961,-564.6419 1046.9476,-566.1036"/>
<polygon fill="#191970" stroke="#191970" points="1045.527,-569.3284 1055.9216,-571.3785 1049.0742,-563.2937 1045.527,-569.3284"/>
</g>
<!-- Node19 -->
<g id="node19" class="node">
<title>Node19</title>
<g id="a_node19"><a xlink:href="class_l_f_s_t_k__gadget_class_af5386ffc4699273f6c53a920fc8b2f1d.xhtml#af5386ffc4699273f6c53a920fc8b2f1d" target="_top" xlink:title=" ">
<polygon fill="none" stroke="#000000" points="1040.459,-520.5 1040.459,-552.5 1154.262,-552.5 1154.262,-520.5 1040.459,-520.5"/>
<text text-anchor="start" x="1048.459" y="-539.5" font-family="Helvetica,sans-Serif" font-size="10.00" fill="#000000">LFSTK_gadgetClass::</text>
<text text-anchor="middle" x="1097.3605" y="-527.5" font-family="Helvetica,sans-Serif" font-size="10.00" fill="#000000">drawImage</text>
</a>
</g>
</g>
<!-- Node17&#45;&gt;Node19 -->
<g id="edge19" class="edge">
<title>Node17&#45;&gt;Node19</title>
<path fill="none" stroke="#191970" d="M995.3359,-507.6189C1006.8896,-510.8896 1019.1361,-514.3563 1030.9831,-517.7099"/>
<polygon fill="#191970" stroke="#191970" points="1030.2414,-521.1374 1040.8167,-520.4936 1032.1481,-514.4021 1030.2414,-521.1374"/>
</g>
<!-- Node20 -->
<g id="node20" class="node">
<title>Node20</title>
<g id="a_node20"><a xlink:href="class_l_f_s_t_k__gadget_class_af77235e4dc604470c9d62f101238225b.xhtml#af77235e4dc604470c9d62f101238225b" target="_top" xlink:title=" ">
<polygon fill="none" stroke="#000000" points="1040.459,-430.5 1040.459,-462.5 1154.262,-462.5 1154.262,-430.5 1040.459,-430.5"/>
<text text-anchor="start" x="1048.459" y="-449.5" font-family="Helvetica,sans-Serif" font-size="10.00" fill="#000000">LFSTK_gadgetClass::</text>
<text text-anchor="middle" x="1097.3605" y="-437.5" font-family="Helvetica,sans-Serif" font-size="10.00" fill="#000000">drawIndicator</text>
</a>
</g>
</g>
<!-- Node17&#45;&gt;Node20 -->
<g id="edge20" class="edge">
<title>Node17&#45;&gt;Node20</title>
<path fill="none" stroke="#191970" d="M995.3359,-475.3811C1006.8896,-472.1104 1019.1361,-468.6437 1030.9831,-465.2901"/>
<polygon fill="#191970" stroke="#191970" points="1032.1481,-468.5979 1040.8167,-462.5064 1030.2414,-461.8626 1032.1481,-468.5979"/>
</g>
<!-- Node21 -->
<g id="node21" class="node">
<title>Node21</title>
<g id="a_node21"><a xlink:href="class_l_f_s_t_k__gadget_class_a7f44f781b167d66c5d6f4cc862a7e2db.xhtml#a7f44f781b167d66c5d6f4cc862a7e2db" target="_top" xlink:title=" ">
<polygon fill="none" stroke="#000000" points="1040.459,-794.5 1040.459,-826.5 1154.262,-826.5 1154.262,-794.5 1040.459,-794.5"/>
<text text-anchor="start" x="1048.459" y="-813.5" font-family="Helvetica,sans-Serif" font-size="10.00" fill="#000000">LFSTK_gadgetClass::</text>
<text text-anchor="middle" x="1097.3605" y="-801.5" font-family="Helvetica,sans-Serif" font-size="10.00" fill="#000000">drawLabel</text>
</a>
</g>
</g>
<!-- Node17&#45;&gt;Node21 -->
<g id="edge22" class="edge">
<title>Node17&#45;&gt;Node21</title>
<path fill="none" stroke="#191970" d="M993.5581,-507.6456C997.5498,-510.183 1001.2569,-513.1144 1004.459,-516.5 1014.0146,-526.6033 1069.2849,-714.0728 1089.7459,-784.2637"/>
<polygon fill="#191970" stroke="#191970" points="1086.4555,-785.483 1092.6109,-794.1063 1093.1765,-783.5266 1086.4555,-785.483"/>
</g>
<!-- Node20&#45;&gt;Node5 -->
<g id="edge21" class="edge">
<title>Node20&#45;&gt;Node5</title>
<path fill="none" stroke="#191970" d="M1154.6437,-462.492C1166.6392,-465.8409 1179.3885,-469.4001 1191.6972,-472.8364"/>
<polygon fill="#191970" stroke="#191970" points="1190.8784,-476.2416 1201.4512,-475.5595 1192.7607,-469.4994 1190.8784,-476.2416"/>
</g>
<!-- Node22 -->
<g id="node22" class="node">
<title>Node22</title>
<g id="a_node22"><a xlink:href="class_l_f_s_t_k__lib_ab2f14a3414f7db863682d1e2fa0cfb75.xhtml#ab2f14a3414f7db863682d1e2fa0cfb75" target="_top" xlink:title=" ">
<polygon fill="none" stroke="#000000" points="1190.262,-777.5 1190.262,-797.5 1326.838,-797.5 1326.838,-777.5 1190.262,-777.5"/>
<text text-anchor="middle" x="1258.55" y="-784.5" font-family="Helvetica,sans-Serif" font-size="10.00" fill="#000000">LFSTK_lib::bestFontColour</text>
</a>
</g>
</g>
<!-- Node21&#45;&gt;Node22 -->
<g id="edge23" class="edge">
<title>Node21&#45;&gt;Node22</title>
<path fill="none" stroke="#191970" d="M1154.6437,-802.3263C1162.9037,-801.1477 1171.5211,-799.9181 1180.106,-798.6931"/>
<polygon fill="#191970" stroke="#191970" points="1180.7402,-802.1382 1190.1455,-797.2606 1179.7513,-795.2083 1180.7402,-802.1382"/>
</g>
<!-- Node23 -->
<g id="node23" class="node">
<title>Node23</title>
<g id="a_node23"><a xlink:href="class_l_f_s_t_k__gadget_class_a091281ba03eaeb31bc7507c74b9b4f2f.xhtml#a091281ba03eaeb31bc7507c74b9b4f2f" target="_top" xlink:title=" ">
<polygon fill="none" stroke="#000000" points="1201.094,-816.5 1201.094,-848.5 1316.006,-848.5 1316.006,-816.5 1201.094,-816.5"/>
<text text-anchor="start" x="1209.094" y="-835.5" font-family="Helvetica,sans-Serif" font-size="10.00" fill="#000000">LFSTK_gadgetClass::</text>
<text text-anchor="middle" x="1258.55" y="-823.5" font-family="Helvetica,sans-Serif" font-size="10.00" fill="#000000">LFSTK_getTextHeight</text>
</a>
</g>
</g>
<!-- Node21&#45;&gt;Node23 -->
<g id="edge24" class="edge">
<title>Node21&#45;&gt;Node23</title>
<path fill="none" stroke="#191970" d="M1154.6437,-818.3183C1166.3791,-819.92 1178.8359,-821.6202 1190.8957,-823.2662"/>
<polygon fill="#191970" stroke="#191970" points="1190.5266,-826.7482 1200.9081,-824.6327 1191.4733,-819.8125 1190.5266,-826.7482"/>
</g>
<!-- Node26 -->
<g id="node26" class="node">
<title>Node26</title>
<g id="a_node26"><a xlink:href="class_l_f_s_t_k__gadget_class_a5a73fbb58bdb779f2898d6fb3946f88f.xhtml#a5a73fbb58bdb779f2898d6fb3946f88f" target="_top" xlink:title=" ">
<polygon fill="none" stroke="#000000" points="522.446,-472.5 522.446,-504.5 636.249,-504.5 636.249,-472.5 522.446,-472.5"/>
<text text-anchor="start" x="530.446" y="-491.5" font-family="Helvetica,sans-Serif" font-size="10.00" fill="#000000">LFSTK_gadgetClass::</text>
<text text-anchor="middle" x="579.3475" y="-479.5" font-family="Helvetica,sans-Serif" font-size="10.00" fill="#000000">LFSTK_dropData</text>
</a>
</g>
</g>
<!-- Node25&#45;&gt;Node26 -->
<g id="edge27" class="edge">
<title>Node25&#45;&gt;Node26</title>
<path fill="none" stroke="#191970" d="M460.0481,-453.6367C477.405,-458.709 496.726,-464.3552 514.6773,-469.6012"/>
<polygon fill="#191970" stroke="#191970" points="513.9078,-473.0227 524.4881,-472.4683 515.8714,-466.3037 513.9078,-473.0227"/>
</g>
<!-- Node27 -->
<g id="node27" class="node">
<title>Node27</title>
<g id="a_node27"><a xlink:href="class_l_f_s_t_k__window_class_a0e58784df7f862be4f5d425abbd28260.xhtml#a0e58784df7f862be4f5d425abbd28260" target="_top" xlink:title=" ">
<polygon fill="none" stroke="#000000" points="521.066,-421.5 521.066,-453.5 637.629,-453.5 637.629,-421.5 521.066,-421.5"/>
<text text-anchor="start" x="529.066" y="-440.5" font-family="Helvetica,sans-Serif" font-size="10.00" fill="#000000">LFSTK_windowClass::</text>
<text text-anchor="middle" x="579.3475" y="-428.5" font-family="Helvetica,sans-Serif" font-size="10.00" fill="#000000">LFSTK_dropData</text>
</a>
</g>
</g>
<!-- Node25&#45;&gt;Node27 -->
<g id="edge28" class="edge">
<title>Node25&#45;&gt;Node27</title>
<path fill="none" stroke="#191970" d="M463.427,-437.5C478.6168,-437.5 495.1102,-437.5 510.7625,-437.5"/>
<polygon fill="#191970" stroke="#191970" points="510.9047,-441.0001 520.9047,-437.5 510.9047,-434.0001 510.9047,-441.0001"/>
</g>
<!-- Node29 -->
<g id="node29" class="node">
<title>Node29</title>
<g id="a_node29"><a xlink:href="class_l_f_s_t_k__window_class_af3af0d986d119a7362bdfc6dbfb3814f.xhtml#af3af0d986d119a7362bdfc6dbfb3814f" target="_top" xlink:title=" ">
<polygon fill="none" stroke="#000000" points="514.107,-574.5 514.107,-606.5 644.588,-606.5 644.588,-574.5 514.107,-574.5"/>
<text text-anchor="start" x="522.107" y="-593.5" font-family="Helvetica,sans-Serif" font-size="10.00" fill="#000000">LFSTK_windowClass::</text>
<text text-anchor="middle" x="579.3475" y="-581.5" font-family="Helvetica,sans-Serif" font-size="10.00" fill="#000000">LFSTK_findGadgetByPos</text>
</a>
</g>
</g>
<!-- Node25&#45;&gt;Node29 -->
<g id="edge30" class="edge">
<title>Node25&#45;&gt;Node29</title>
<path fill="none" stroke="#191970" d="M413.0234,-453.6185C427.4536,-480.4433 459.9171,-534.2782 502.17,-564.5 504.815,-566.3918 507.6077,-568.1536 510.5001,-569.7934"/>
<polygon fill="#191970" stroke="#191970" points="508.9316,-572.9223 519.4291,-574.355 512.1162,-566.6887 508.9316,-572.9223"/>
</g>
<!-- Node31 -->
<g id="node31" class="node">
<title>Node31</title>
<g id="a_node31"><a xlink:href="class_l_f_s_t_k__window_class_a6bf9f2a3b003d8247f6b4244fac4d8a6.xhtml#a6bf9f2a3b003d8247f6b4244fac4d8a6" target="_top" xlink:title=" ">
<polygon fill="none" stroke="#000000" points="521.066,-319.5 521.066,-351.5 637.629,-351.5 637.629,-319.5 521.066,-319.5"/>
<text text-anchor="start" x="529.066" y="-338.5" font-family="Helvetica,sans-Serif" font-size="10.00" fill="#000000">LFSTK_windowClass::</text>
<text text-anchor="middle" x="579.3475" y="-326.5" font-family="Helvetica,sans-Serif" font-size="10.00" fill="#000000">pickTargetFromAtoms</text>
</a>
</g>
</g>
<!-- Node25&#45;&gt;Node31 -->
<g id="edge32" class="edge">
<title>Node25&#45;&gt;Node31</title>
<path fill="none" stroke="#191970" d="M421.4358,-421.2728C439.826,-404.0825 471.0112,-377.1701 502.17,-360.5 505.4687,-358.7352 508.9138,-357.0674 512.4393,-355.4956"/>
<polygon fill="#191970" stroke="#191970" points="514.023,-358.6278 521.9143,-351.5582 511.3368,-352.1637 514.023,-358.6278"/>
</g>
<!-- Node34 -->
<g id="node34" class="node">
<title>Node34</title>
<g id="a_node34"><a xlink:href="class_l_f_s_t_k__window_class_a851244a723058a6e0166fdbd50c16a6a.xhtml#a851244a723058a6e0166fdbd50c16a6a" target="_top" xlink:title=" ">
<polygon fill="none" stroke="#000000" points="519.4015,-370.5 519.4015,-402.5 639.2935,-402.5 639.2935,-370.5 519.4015,-370.5"/>
<text text-anchor="start" x="527.4015" y="-389.5" font-family="Helvetica,sans-Serif" font-size="10.00" fill="#000000">LFSTK_windowClass::</text>
<text text-anchor="middle" x="579.3475" y="-377.5" font-family="Helvetica,sans-Serif" font-size="10.00" fill="#000000">pickTargetFromTargets</text>
</a>
</g>
</g>
<!-- Node25&#45;&gt;Node34 -->
<g id="edge35" class="edge">
<title>Node25&#45;&gt;Node34</title>
<path fill="none" stroke="#191970" d="M460.0481,-421.3633C477.405,-416.291 496.726,-410.6448 514.6773,-405.3988"/>
<polygon fill="#191970" stroke="#191970" points="515.8714,-408.6963 524.4881,-402.5317 513.9078,-401.9773 515.8714,-408.6963"/>
</g>
<!-- Node35 -->
<g id="node35" class="node">
<title>Node35</title>
<g id="a_node35"><a xlink:href="class_l_f_s_t_k__window_class_a3cd028bfe046d77c234aa397f12dd4b8.xhtml#a3cd028bfe046d77c234aa397f12dd4b8" target="_top" xlink:title=" ">
<polygon fill="none" stroke="#000000" points="521.066,-523.5 521.066,-555.5 637.629,-555.5 637.629,-523.5 521.066,-523.5"/>
<text text-anchor="start" x="529.066" y="-542.5" font-family="Helvetica,sans-Serif" font-size="10.00" fill="#000000">LFSTK_windowClass::</text>
<text text-anchor="middle" x="579.3475" y="-530.5" font-family="Helvetica,sans-Serif" font-size="10.00" fill="#000000">readProperty</text>
</a>
</g>
</g>
<!-- Node25&#45;&gt;Node35 -->
<g id="edge37" class="edge">
<title>Node25&#45;&gt;Node35</title>
<path fill="none" stroke="#191970" d="M421.8522,-453.7429C440.3503,-470.6511 471.3994,-496.9319 502.17,-513.5 506.1284,-515.6313 510.2941,-517.6343 514.5545,-519.508"/>
<polygon fill="#191970" stroke="#191970" points="513.4102,-522.822 523.9891,-523.4027 516.0813,-516.3517 513.4102,-522.822"/>
</g>
<!-- Node28 -->
<g id="node28" class="node">
<title>Node28</title>
<g id="a_node28"><a xlink:href="class_l_f_s_t_k__lib_ac5fce97c4bbf2a3c4e500bdc22c994a9.xhtml#ac5fce97c4bbf2a3c4e500bdc22c994a9" target="_top" xlink:title=" ">
<polygon fill="none" stroke="#000000" points="692.525,-427.5 692.525,-447.5 836.33,-447.5 836.33,-427.5 692.525,-427.5"/>
<text text-anchor="middle" x="764.4275" y="-434.5" font-family="Helvetica,sans-Serif" font-size="10.00" fill="#000000">LFSTK_lib::LFSTK_oneLiner</text>
</a>
</g>
</g>
<!-- Node27&#45;&gt;Node28 -->
<g id="edge29" class="edge">
<title>Node27&#45;&gt;Node28</title>
<path fill="none" stroke="#191970" d="M637.6539,-437.5C651.7729,-437.5 667.1294,-437.5 682.1231,-437.5"/>
<polygon fill="#191970" stroke="#191970" points="682.4257,-441.0001 692.4257,-437.5 682.4257,-434.0001 682.4257,-441.0001"/>
</g>
<!-- Node30 -->
<g id="node30" class="node">
<title>Node30</title>
<g id="a_node30"><a xlink:href="class_l_f_s_t_k__gadget_class_a280fd2cd10bf4f67f11e9a7d43766bc5.xhtml#a280fd2cd10bf4f67f11e9a7d43766bc5" target="_top" xlink:title=" ">
<polygon fill="none" stroke="#000000" points="703.082,-574.5 703.082,-606.5 825.773,-606.5 825.773,-574.5 703.082,-574.5"/>
<text text-anchor="start" x="711.082" y="-593.5" font-family="Helvetica,sans-Serif" font-size="10.00" fill="#000000">LFSTK_gadgetClass::</text>
<text text-anchor="middle" x="764.4275" y="-581.5" font-family="Helvetica,sans-Serif" font-size="10.00" fill="#000000">LFSTK_getGlobalGeom</text>
</a>
</g>
</g>
<!-- Node29&#45;&gt;Node30 -->
<g id="edge31" class="edge">
<title>Node29&#45;&gt;Node30</title>
<path fill="none" stroke="#191970" d="M644.5998,-590.5C660.1376,-590.5 676.8027,-590.5 692.6163,-590.5"/>
<polygon fill="#191970" stroke="#191970" points="692.8649,-594.0001 702.8648,-590.5 692.8648,-587.0001 692.8649,-594.0001"/>
</g>
<!-- Node32 -->
<g id="node32" class="node">
<title>Node32</title>
<g id="a_node32"><a xlink:href="class_l_f_s_t_k__window_class_a75904179205b7c0dd78d5e9b6994bd63.xhtml#a75904179205b7c0dd78d5e9b6994bd63" target="_top" xlink:title=" ">
<polygon fill="none" stroke="#000000" points="706.146,-370.5 706.146,-402.5 822.709,-402.5 822.709,-370.5 706.146,-370.5"/>
<text text-anchor="start" x="714.146" y="-389.5" font-family="Helvetica,sans-Serif" font-size="10.00" fill="#000000">LFSTK_windowClass::</text>
<text text-anchor="middle" x="764.4275" y="-377.5" font-family="Helvetica,sans-Serif" font-size="10.00" fill="#000000">pickTargetFromList</text>
</a>
</g>
</g>
<!-- Node31&#45;&gt;Node32 -->
<g id="edge33" class="edge">
<title>Node31&#45;&gt;Node32</title>
<path fill="none" stroke="#191970" d="M637.6539,-351.5667C656.2413,-356.6886 676.9737,-362.4015 696.1992,-367.6993"/>
<polygon fill="#191970" stroke="#191970" points="695.5258,-371.1441 706.0963,-370.4264 697.3854,-364.3956 695.5258,-371.1441"/>
</g>
<!-- Node33 -->
<g id="node33" class="node">
<title>Node33</title>
<g id="a_node33"><a xlink:href="class_l_f_s_t_k__window_class_a4de9ac1387e659aa1c14fa947061a6e8.xhtml#a4de9ac1387e659aa1c14fa947061a6e8" target="_top" xlink:title=" ">
<polygon fill="none" stroke="#000000" points="880.113,-526.5 880.113,-558.5 996.676,-558.5 996.676,-526.5 880.113,-526.5"/>
<text text-anchor="start" x="888.113" y="-545.5" font-family="Helvetica,sans-Serif" font-size="10.00" fill="#000000">LFSTK_windowClass::</text>
<text text-anchor="middle" x="938.3945" y="-533.5" font-family="Helvetica,sans-Serif" font-size="10.00" fill="#000000">getAtomName</text>
</a>
</g>
</g>
<!-- Node32&#45;&gt;Node33 -->
<g id="edge34" class="edge">
<title>Node32&#45;&gt;Node33</title>
<path fill="none" stroke="#191970" d="M816.1236,-402.5591C823.5789,-406.5507 830.6399,-411.4681 836.33,-417.5 868.4571,-451.5565 839.6601,-482.9638 872.33,-516.5 873.7169,-517.9237 875.1912,-519.2711 876.7364,-520.5464"/>
<polygon fill="#191970" stroke="#191970" points="874.7827,-523.4513 884.9765,-526.3388 878.8083,-517.7246 874.7827,-523.4513"/>
</g>
<!-- Node34&#45;&gt;Node32 -->
<g id="edge36" class="edge">
<title>Node34&#45;&gt;Node32</title>
<path fill="none" stroke="#191970" d="M639.4377,-386.5C657.4275,-386.5 677.2908,-386.5 695.7866,-386.5"/>
<polygon fill="#191970" stroke="#191970" points="695.9008,-390.0001 705.9008,-386.5 695.9008,-383.0001 695.9008,-390.0001"/>
</g>
<!-- Node36&#45;&gt;Node15 -->
<g id="edge39" class="edge">
<title>Node36&#45;&gt;Node15</title>
<path fill="none" stroke="#191970" d="M456.7181,-169.4444C475.8869,-163.5132 497.7968,-156.7337 517.7437,-150.5617"/>
<polygon fill="#191970" stroke="#191970" points="518.8389,-153.8866 527.3574,-147.587 516.7697,-147.1994 518.8389,-153.8866"/>
</g>
<!-- Node36&#45;&gt;Node37 -->
<g id="edge40" class="edge">
<title>Node36&#45;&gt;Node37</title>
<path fill="none" stroke="#191970" d="M463.427,-201.6168C478.7615,-205.8345 495.4244,-210.4175 511.2095,-214.7591"/>
<polygon fill="#191970" stroke="#191970" points="510.3345,-218.1484 520.9047,-217.4257 512.191,-211.399 510.3345,-218.1484"/>
</g>
<!-- Node38 -->
<g id="node38" class="node">
<title>Node38</title>
<g id="a_node38"><a xlink:href="class_l_f_s_t_k__window_class_ac8c342109a0f8599f550475cef048745.xhtml#ac8c342109a0f8599f550475cef048745" target="_top" xlink:title=" ">
<polygon fill="none" stroke="#000000" points="521.066,-166.5 521.066,-198.5 637.629,-198.5 637.629,-166.5 521.066,-166.5"/>
<text text-anchor="start" x="529.066" y="-185.5" font-family="Helvetica,sans-Serif" font-size="10.00" fill="#000000">LFSTK_windowClass::</text>
<text text-anchor="middle" x="579.3475" y="-173.5" font-family="Helvetica,sans-Serif" font-size="10.00" fill="#000000">setWindowGeom</text>
</a>
</g>
</g>
<!-- Node36&#45;&gt;Node38 -->
<g id="edge41" class="edge">
<title>Node36&#45;&gt;Node38</title>
<path fill="none" stroke="#191970" d="M463.427,-184.4927C478.6168,-184.2316 495.1102,-183.9481 510.7625,-183.679"/>
<polygon fill="#191970" stroke="#191970" points="510.9664,-187.1761 520.9047,-183.5046 510.846,-180.1771 510.9664,-187.1761"/>
</g>
<!-- Node39&#45;&gt;Node24 -->
<g id="edge44" class="edge">
<title>Node39&#45;&gt;Node24</title>
<path fill="none" stroke="#191970" d="M463.427,-305.7554C478.6168,-302.9702 495.1102,-299.9459 510.7625,-297.0759"/>
<polygon fill="#191970" stroke="#191970" points="511.7,-300.4624 520.9047,-295.2162 510.4374,-293.5772 511.7,-300.4624"/>
</g>
</g>
</svg>
