<?xml version="1.0" encoding="UTF-8" standalone="no"?>
<!DOCTYPE svg PUBLIC "-//W3C//DTD SVG 1.1//EN"
 "http://www.w3.org/Graphics/SVG/1.1/DTD/svg11.dtd">
<!-- Generated by graphviz version 2.40.1 (20161225.0304)
 -->
<!-- Title: LFSTK_gadgetClass::LFSTK_setTile Pages: 1 -->
<svg width="297pt" height="296pt"
 viewBox="0.00 0.00 297.17 296.00" xmlns="http://www.w3.org/2000/svg" xmlns:xlink="http://www.w3.org/1999/xlink">
<g id="graph0" class="graph" transform="scale(1 1) rotate(0) translate(4 292)">
<title>LFSTK_gadgetClass::LFSTK_setTile</title>
<!-- Node1 -->
<g id="node1" class="node">
<title>Node1</title>
<g id="a_node1"><a xlink:title=" ">
<polygon fill="#bfbfbf" stroke="#000000" points="175.367,-127.5 175.367,-159.5 289.17,-159.5 289.17,-127.5 175.367,-127.5"/>
<text text-anchor="start" x="183.367" y="-146.5" font-family="Helvetica,sans-Serif" font-size="10.00" fill="#000000">LFSTK_gadgetClass::</text>
<text text-anchor="middle" x="232.2685" y="-134.5" font-family="Helvetica,sans-Serif" font-size="10.00" fill="#000000">LFSTK_setTile</text>
</a>
</g>
</g>
<!-- Node2 -->
<g id="node2" class="node">
<title>Node2</title>
<g id="a_node2"><a xlink:href="class_l_f_s_t_k__button_class_a2b46d2136069e61fc8c8ee88519b2a8f.xhtml#a2b46d2136069e61fc8c8ee88519b2a8f" target="_top" xlink:title=" ">
<polygon fill="none" stroke="#000000" points="14.172,-255.5 14.172,-287.5 125.195,-287.5 125.195,-255.5 14.172,-255.5"/>
<text text-anchor="start" x="22.172" y="-274.5" font-family="Helvetica,sans-Serif" font-size="10.00" fill="#000000">LFSTK_buttonClass::</text>
<text text-anchor="middle" x="69.6835" y="-262.5" font-family="Helvetica,sans-Serif" font-size="10.00" fill="#000000">LFSTK_buttonClass</text>
</a>
</g>
</g>
<!-- Node1&#45;&gt;Node2 -->
<g id="edge1" class="edge">
<title>Node1&#45;&gt;Node2</title>
<path fill="none" stroke="#191970" d="M215.6898,-167.9822C198.8917,-191.1127 170.9355,-225.3319 139.367,-246.5 134.3497,-249.8643 128.8259,-252.8359 123.1507,-255.4457"/>
<polygon fill="#191970" stroke="#191970" points="218.6279,-169.8899 221.5658,-159.7105 212.9212,-165.836 218.6279,-169.8899"/>
</g>
<!-- Node3 -->
<g id="node3" class="node">
<title>Node3</title>
<g id="a_node3"><a xlink:href="class_l_f_s_t_k__font_dialog_class_ab7b6a4bca99713646ab6ac77dc34827c.xhtml#ab7b6a4bca99713646ab6ac77dc34827c" target="_top" xlink:title=" ">
<polygon fill="none" stroke="#000000" points="5.564,-204.5 5.564,-236.5 133.803,-236.5 133.803,-204.5 5.564,-204.5"/>
<text text-anchor="start" x="13.564" y="-223.5" font-family="Helvetica,sans-Serif" font-size="10.00" fill="#000000">LFSTK_fontDialogClass</text>
<text text-anchor="middle" x="69.6835" y="-211.5" font-family="Helvetica,sans-Serif" font-size="10.00" fill="#000000">::LFSTK_fontDialogClass</text>
</a>
</g>
</g>
<!-- Node1&#45;&gt;Node3 -->
<g id="edge2" class="edge">
<title>Node1&#45;&gt;Node3</title>
<path fill="none" stroke="#191970" d="M197.004,-165.0598C179.9411,-175.0164 158.9529,-186.5797 139.367,-195.5 132.4659,-198.6431 125.0444,-201.6653 117.7091,-204.4554"/>
<polygon fill="#191970" stroke="#191970" points="199.2147,-167.8192 206.0458,-159.7207 195.6553,-161.7916 199.2147,-167.8192"/>
</g>
<!-- Node4 -->
<g id="node4" class="node">
<title>Node4</title>
<g id="a_node4"><a xlink:href="class_l_f_s_t_k__label_class_a6085feaa122a3d1060351c659889628c.xhtml#a6085feaa122a3d1060351c659889628c" target="_top" xlink:title=" ">
<polygon fill="none" stroke="#000000" points="1.954,-153.5 1.954,-185.5 137.413,-185.5 137.413,-153.5 1.954,-153.5"/>
<text text-anchor="start" x="9.954" y="-172.5" font-family="Helvetica,sans-Serif" font-size="10.00" fill="#000000">LFSTK_labelClass::LFSTK</text>
<text text-anchor="middle" x="69.6835" y="-160.5" font-family="Helvetica,sans-Serif" font-size="10.00" fill="#000000">_labelClass</text>
</a>
</g>
</g>
<!-- Node1&#45;&gt;Node4 -->
<g id="edge3" class="edge">
<title>Node1&#45;&gt;Node4</title>
<path fill="none" stroke="#191970" d="M164.8985,-154.2736C155.8881,-155.7145 146.6424,-157.193 137.6223,-158.6355"/>
<polygon fill="#191970" stroke="#191970" points="165.6253,-157.7019 174.9471,-152.6666 164.5199,-150.7897 165.6253,-157.7019"/>
</g>
<!-- Node5 -->
<g id="node5" class="node">
<title>Node5</title>
<g id="a_node5"><a xlink:href="class_l_f_s_t_k__list_gadget_class_ae3518016f28ec3cd261ad927c5691826.xhtml#ae3518016f28ec3cd261ad927c5691826" target="_top" xlink:title=" ">
<polygon fill="none" stroke="#000000" points="5.5635,-102.5 5.5635,-134.5 133.8035,-134.5 133.8035,-102.5 5.5635,-102.5"/>
<text text-anchor="start" x="13.5635" y="-121.5" font-family="Helvetica,sans-Serif" font-size="10.00" fill="#000000">LFSTK_listGadgetClass</text>
<text text-anchor="middle" x="69.6835" y="-109.5" font-family="Helvetica,sans-Serif" font-size="10.00" fill="#000000">::LFSTK_listGadgetClass</text>
</a>
</g>
</g>
<!-- Node1&#45;&gt;Node5 -->
<g id="edge4" class="edge">
<title>Node1&#45;&gt;Node5</title>
<path fill="none" stroke="#191970" d="M164.8545,-133.134C154.6365,-131.5629 144.117,-129.9453 133.9678,-128.3847"/>
<polygon fill="#191970" stroke="#191970" points="164.5313,-136.6254 174.9471,-134.6859 165.5952,-129.7067 164.5313,-136.6254"/>
</g>
<!-- Node6 -->
<g id="node6" class="node">
<title>Node6</title>
<g id="a_node6"><a xlink:href="class_l_f_s_t_k__menu_item_class_a382a9775dff59f06606ef0b3f43382cc.xhtml#a382a9775dff59f06606ef0b3f43382cc" target="_top" xlink:title=" ">
<polygon fill="none" stroke="#000000" points="5.843,-51.5 5.843,-83.5 133.524,-83.5 133.524,-51.5 5.843,-51.5"/>
<text text-anchor="start" x="13.843" y="-70.5" font-family="Helvetica,sans-Serif" font-size="10.00" fill="#000000">LFSTK_menuItemClass</text>
<text text-anchor="middle" x="69.6835" y="-58.5" font-family="Helvetica,sans-Serif" font-size="10.00" fill="#000000">::LFSTK_menuItemClass</text>
</a>
</g>
</g>
<!-- Node1&#45;&gt;Node6 -->
<g id="edge5" class="edge">
<title>Node1&#45;&gt;Node6</title>
<path fill="none" stroke="#191970" d="M195.7411,-122.346C178.8555,-112.9576 158.3707,-102.1106 139.367,-93.5 131.722,-90.0361 123.4669,-86.655 115.4043,-83.538"/>
<polygon fill="#191970" stroke="#191970" points="194.2865,-125.5433 204.7195,-127.3884 197.7143,-119.4399 194.2865,-125.5433"/>
</g>
<!-- Node7 -->
<g id="node7" class="node">
<title>Node7</title>
<g id="a_node7"><a xlink:href="class_l_f_s_t_k__toggle_button_class_a4cc0929a4d4113b9b40a3bdc54898ab7.xhtml#a4cc0929a4d4113b9b40a3bdc54898ab7" target="_top" xlink:title=" ">
<polygon fill="none" stroke="#000000" points="0,-.5 0,-32.5 139.367,-32.5 139.367,-.5 0,-.5"/>
<text text-anchor="start" x="8" y="-19.5" font-family="Helvetica,sans-Serif" font-size="10.00" fill="#000000">LFSTK_toggleButtonClass</text>
<text text-anchor="middle" x="69.6835" y="-7.5" font-family="Helvetica,sans-Serif" font-size="10.00" fill="#000000">::LFSTK_toggleButtonClass</text>
</a>
</g>
</g>
<!-- Node1&#45;&gt;Node7 -->
<g id="edge6" class="edge">
<title>Node1&#45;&gt;Node7</title>
<path fill="none" stroke="#191970" d="M215.2418,-119.2128C198.2952,-96.6126 170.3934,-63.3697 139.367,-42.5 133.7956,-38.7524 127.6125,-35.4546 121.296,-32.5783"/>
<polygon fill="#191970" stroke="#191970" points="212.4443,-121.3165 221.184,-127.3055 218.0866,-117.1735 212.4443,-121.3165"/>
</g>
</g>
</svg>
