<?xml version="1.0" encoding="UTF-8" standalone="no"?>
<!DOCTYPE svg PUBLIC "-//W3C//DTD SVG 1.1//EN"
 "http://www.w3.org/Graphics/SVG/1.1/DTD/svg11.dtd">
<!-- Generated by graphviz version 2.40.1 (20161225.0304)
 -->
<!-- Title: LFSTK_multiLineEditClass Pages: 1 -->
<svg width="803pt" height="402pt"
 viewBox="0.00 0.00 803.30 402.00" xmlns="http://www.w3.org/2000/svg" xmlns:xlink="http://www.w3.org/1999/xlink">
<g id="graph0" class="graph" transform="scale(1 1) rotate(0) translate(4 398)">
<title>LFSTK_multiLineEditClass</title>
<!-- Node1 -->
<g id="node1" class="node">
<title>Node1</title>
<g id="a_node1"><a xlink:title="Mult&#45;Line edit class for LFSToolKit.">
<polygon fill="#bfbfbf" stroke="#000000" points="639.8518,-.5 639.8518,-20.5 774.7498,-20.5 774.7498,-.5 639.8518,-.5"/>
<text text-anchor="middle" x="707.3008" y="-7.5" font-family="Helvetica,sans-Serif" font-size="10.00" fill="#000000">LFSTK_multiLineEditClass</text>
</a>
</g>
</g>
<!-- Node2 -->
<g id="node2" class="node">
<title>Node2</title>
<g id="a_node2"><a xlink:href="class_l_f_s_t_k__line_edit_class.xhtml" target="_top" xlink:title="Line edit class for LFSToolKit.">
<polygon fill="none" stroke="#000000" points="652.0743,-58.5 652.0743,-78.5 762.5273,-78.5 762.5273,-58.5 652.0743,-58.5"/>
<text text-anchor="middle" x="707.3008" y="-65.5" font-family="Helvetica,sans-Serif" font-size="10.00" fill="#000000">LFSTK_lineEditClass</text>
</a>
</g>
</g>
<!-- Node2&#45;&gt;Node1 -->
<g id="edge1" class="edge">
<title>Node2&#45;&gt;Node1</title>
<path fill="none" stroke="#191970" d="M707.3008,-48.3902C707.3008,-39.1201 707.3008,-28.5083 707.3008,-20.8776"/>
<polygon fill="#191970" stroke="#191970" points="703.8009,-48.3971 707.3008,-58.3972 710.8009,-48.3972 703.8009,-48.3971"/>
</g>
<!-- Node3 -->
<g id="node3" class="node">
<title>Node3</title>
<g id="a_node3"><a xlink:href="class_l_f_s_t_k__gadget_class.xhtml" target="_top" xlink:title="Base class for LFSToolKit gadgets.">
<polygon fill="none" stroke="#000000" points="450.1783,-139.5 450.1783,-159.5 558.4233,-159.5 558.4233,-139.5 450.1783,-139.5"/>
<text text-anchor="middle" x="504.3008" y="-146.5" font-family="Helvetica,sans-Serif" font-size="10.00" fill="#000000">LFSTK_gadgetClass</text>
</a>
</g>
</g>
<!-- Node3&#45;&gt;Node2 -->
<g id="edge2" class="edge">
<title>Node3&#45;&gt;Node2</title>
<path fill="none" stroke="#191970" d="M539.0986,-135.6151C579.7343,-119.4009 645.9671,-92.973 682.0019,-78.5946"/>
<polygon fill="#191970" stroke="#191970" points="537.5912,-132.4482 529.6004,-139.4051 540.1855,-138.9498 537.5912,-132.4482"/>
</g>
<!-- Node8 -->
<g id="node8" class="node">
<title>Node8</title>
<g id="a_node8"><a xlink:href="class_l_f_s_t_k__window_class.xhtml" target="_top" xlink:title="Window class for LFSToolKit.">
<polygon fill="none" stroke="#000000" points="164.7983,-58.5 164.7983,-78.5 275.8033,-78.5 275.8033,-58.5 164.7983,-58.5"/>
<text text-anchor="middle" x="220.3008" y="-65.5" font-family="Helvetica,sans-Serif" font-size="10.00" fill="#000000">LFSTK_windowClass</text>
</a>
</g>
</g>
<!-- Node3&#45;&gt;Node8 -->
<g id="edge11" class="edge">
<title>Node3&#45;&gt;Node8</title>
<path fill="none" stroke="#9a32cd" stroke-dasharray="5,2" d="M451.4074,-136.5285C437.7296,-132.3484 423.2424,-127.1675 410.3858,-121 393.3518,-112.8285 392.7683,-104.1983 375.3008,-97 343.806,-84.0211 306.285,-76.9255 276.0482,-73.0605"/>
<polygon fill="#9a32cd" stroke="#9a32cd" points="450.6082,-139.9415 461.189,-139.3953 452.577,-133.224 450.6082,-139.9415"/>
<text text-anchor="middle" x="453.2583" y="-112" font-family="Helvetica,sans-Serif" font-size="10.00" fill="#000000"> dropGadget</text>
<text text-anchor="middle" x="453.2583" y="-100" font-family="Helvetica,sans-Serif" font-size="10.00" fill="#000000">popupFromGadget</text>
</g>
<!-- Node13 -->
<g id="node13" class="node">
<title>Node13</title>
<g id="a_node13"><a xlink:href="structmapped_listener.xhtml" target="_top" xlink:title=" ">
<polygon fill="none" stroke="#000000" points="488.4573,-58.5 488.4573,-78.5 576.1443,-78.5 576.1443,-58.5 488.4573,-58.5"/>
<text text-anchor="middle" x="532.3008" y="-65.5" font-family="Helvetica,sans-Serif" font-size="10.00" fill="#000000">mappedListener</text>
</a>
</g>
</g>
<!-- Node3&#45;&gt;Node13 -->
<g id="edge17" class="edge">
<title>Node3&#45;&gt;Node13</title>
<path fill="none" stroke="#9a32cd" stroke-dasharray="5,2" d="M498.7321,-129.3887C496.9767,-119.2736 496.4975,-107.0593 500.9478,-97 504.2214,-89.6002 510.4705,-83.2976 516.5336,-78.5156"/>
<polygon fill="#9a32cd" stroke="#9a32cd" points="495.3604,-130.3484 500.965,-139.3394 502.1906,-128.8157 495.3604,-130.3484"/>
<text text-anchor="middle" x="517.9773" y="-106" font-family="Helvetica,sans-Serif" font-size="10.00" fill="#000000"> gadget</text>
</g>
<!-- Node4 -->
<g id="node4" class="node">
<title>Node4</title>
<g id="a_node4"><a xlink:href="structgadget_struct.xhtml" target="_top" xlink:title=" ">
<polygon fill="none" stroke="#000000" points="471.9563,-216 471.9563,-236 544.6453,-236 544.6453,-216 471.9563,-216"/>
<text text-anchor="middle" x="508.3008" y="-223" font-family="Helvetica,sans-Serif" font-size="10.00" fill="#000000">gadgetStruct</text>
</a>
</g>
</g>
<!-- Node4&#45;&gt;Node3 -->
<g id="edge3" class="edge">
<title>Node4&#45;&gt;Node3</title>
<path fill="none" stroke="#9a32cd" stroke-dasharray="5,2" d="M506.4645,-205.6296C506.0574,-200.5295 505.6666,-195.0677 505.3938,-190 504.8418,-179.7455 504.5639,-168.0146 504.427,-159.8268"/>
<polygon fill="#9a32cd" stroke="#9a32cd" points="503.0051,-206.2566 507.3417,-215.9233 509.9798,-205.6622 503.0051,-206.2566"/>
<text text-anchor="middle" x="538.2543" y="-181" font-family="Helvetica,sans-Serif" font-size="10.00" fill="#000000"> gadgetDetails</text>
</g>
<!-- Node5 -->
<g id="node5" class="node">
<title>Node5</title>
<g id="a_node5"><a xlink:href="structgeometry_struct.xhtml" target="_top" xlink:title=" ">
<polygon fill="none" stroke="#000000" points="351.4068,-304.5 351.4068,-324.5 435.1948,-324.5 435.1948,-304.5 351.4068,-304.5"/>
<text text-anchor="middle" x="393.3008" y="-311.5" font-family="Helvetica,sans-Serif" font-size="10.00" fill="#000000">geometryStruct</text>
</a>
</g>
</g>
<!-- Node5&#45;&gt;Node3 -->
<g id="edge7" class="edge">
<title>Node5&#45;&gt;Node3</title>
<path fill="none" stroke="#9a32cd" stroke-dasharray="5,2" d="M389.8671,-294.2318C387.111,-271.4053 386.058,-234.0978 402.7218,-208 418.1641,-183.8151 447.4107,-168.5248 470.5708,-159.6679"/>
<polygon fill="#9a32cd" stroke="#9a32cd" points="386.4467,-295.0366 391.3326,-304.4375 393.3756,-294.0415 386.4467,-295.0366"/>
<text text-anchor="middle" x="433.5903" y="-223" font-family="Helvetica,sans-Serif" font-size="10.00" fill="#000000"> gadgetGeom</text>
</g>
<!-- Node5&#45;&gt;Node4 -->
<g id="edge4" class="edge">
<title>Node5&#45;&gt;Node4</title>
<path fill="none" stroke="#9a32cd" stroke-dasharray="5,2" d="M414.5142,-298.1749C438.1435,-279.9906 475.5982,-251.1668 495.2627,-236.0337"/>
<polygon fill="#9a32cd" stroke="#9a32cd" points="412.2831,-295.4754 406.4927,-304.3479 416.5523,-301.0229 412.2831,-295.4754"/>
<text text-anchor="middle" x="495.1943" y="-277" font-family="Helvetica,sans-Serif" font-size="10.00" fill="#000000"> indicatorGeom</text>
<text text-anchor="middle" x="495.1943" y="-265" font-family="Helvetica,sans-Serif" font-size="10.00" fill="#000000">gadgetGeom</text>
</g>
<!-- Node5&#45;&gt;Node8 -->
<g id="edge9" class="edge">
<title>Node5&#45;&gt;Node8</title>
<path fill="none" stroke="#9a32cd" stroke-dasharray="5,2" d="M341.1574,-309.0283C294.3844,-303.6786 229.5021,-295.0391 205.3008,-286 107.2351,-249.373 56.7795,-251.7078 6.3008,-160 -28.6248,-96.5486 90.2776,-77.0939 164.7118,-71.1319"/>
<polygon fill="#9a32cd" stroke="#9a32cd" points="340.8089,-312.5111 351.1376,-310.1516 341.5919,-305.555 340.8089,-312.5111"/>
<text text-anchor="middle" x="56.9703" y="-181" font-family="Helvetica,sans-Serif" font-size="10.00" fill="#000000"> windowGeom</text>
</g>
<!-- Node6 -->
<g id="node6" class="node">
<title>Node6</title>
<g id="a_node6"><a xlink:href="structcolour_struct.xhtml" target="_top" xlink:title=" ">
<polygon fill="none" stroke="#000000" points="585.6308,-304.5 585.6308,-324.5 654.9708,-324.5 654.9708,-304.5 585.6308,-304.5"/>
<text text-anchor="middle" x="620.3008" y="-311.5" font-family="Helvetica,sans-Serif" font-size="10.00" fill="#000000">colourStruct</text>
</a>
</g>
</g>
<!-- Node6&#45;&gt;Node2 -->
<g id="edge20" class="edge">
<title>Node6&#45;&gt;Node2</title>
<path fill="none" stroke="#9a32cd" stroke-dasharray="5,2" d="M657.3449,-300.0114C680.8825,-288.6332 709.4417,-270.2807 723.3008,-244 752.9854,-187.7097 723.87,-107.0337 711.9081,-78.7592"/>
<polygon fill="#9a32cd" stroke="#9a32cd" points="655.5834,-296.9688 647.9536,-304.3198 658.5022,-303.3312 655.5834,-296.9688"/>
<text text-anchor="middle" x="765.3003" y="-181" font-family="Helvetica,sans-Serif" font-size="10.00" fill="#000000"> cursorColour</text>
</g>
<!-- Node6&#45;&gt;Node3 -->
<g id="edge19" class="edge">
<title>Node6&#45;&gt;Node3</title>
<path fill="none" stroke="#9a32cd" stroke-dasharray="5,2" d="M628.1317,-294.7242C638.531,-264.7891 652.2258,-208.2621 621.3008,-178 612.0739,-168.9709 584.52,-162.0206 558.4691,-157.2448"/>
<polygon fill="#9a32cd" stroke="#9a32cd" points="624.7203,-293.8586 624.5383,-304.4519 631.2867,-296.2842 624.7203,-293.8586"/>
<text text-anchor="middle" x="680.1938" y="-235" font-family="Helvetica,sans-Serif" font-size="10.00" fill="#000000"> labelBGColour</text>
<text text-anchor="middle" x="680.1938" y="-223" font-family="Helvetica,sans-Serif" font-size="10.00" fill="#000000">colourNames</text>
<text text-anchor="middle" x="680.1938" y="-211" font-family="Helvetica,sans-Serif" font-size="10.00" fill="#000000">fontColourNames</text>
</g>
<!-- Node6&#45;&gt;Node4 -->
<g id="edge5" class="edge">
<title>Node6&#45;&gt;Node4</title>
<path fill="none" stroke="#9a32cd" stroke-dasharray="5,2" d="M599.3372,-297.935C576.3082,-279.738 540.0662,-251.1004 520.9987,-236.0337"/>
<polygon fill="#9a32cd" stroke="#9a32cd" points="597.4368,-300.8942 607.4529,-304.3479 601.7767,-295.4019 597.4368,-300.8942"/>
<text text-anchor="middle" x="599.3028" y="-271" font-family="Helvetica,sans-Serif" font-size="10.00" fill="#000000"> colour</text>
</g>
<!-- Node6&#45;&gt;Node8 -->
<g id="edge13" class="edge">
<title>Node6&#45;&gt;Node8</title>
<path fill="none" stroke="#9a32cd" stroke-dasharray="5,2" d="M575.2718,-310.4711C535.8281,-306.3232 477.1786,-298.6503 427.3008,-286 328.9137,-261.0466 270.5597,-278.0583 220.0778,-190 199.3057,-153.7661 210.7988,-100.8996 217.0729,-78.8043"/>
<polygon fill="#9a32cd" stroke="#9a32cd" points="575.0627,-313.9679 585.366,-311.4997 575.7723,-307.0039 575.0627,-313.9679"/>
<text text-anchor="middle" x="268.9123" y="-181" font-family="Helvetica,sans-Serif" font-size="10.00" fill="#000000"> windowColourNames</text>
</g>
<!-- Node7 -->
<g id="node7" class="node">
<title>Node7</title>
<g id="a_node7"><a xlink:href="structcairo_color.xhtml" target="_top" xlink:title=" ">
<polygon fill="none" stroke="#000000" points="589.5253,-373.5 589.5253,-393.5 651.0763,-393.5 651.0763,-373.5 589.5253,-373.5"/>
<text text-anchor="middle" x="620.3008" y="-380.5" font-family="Helvetica,sans-Serif" font-size="10.00" fill="#000000">cairoColor</text>
</a>
</g>
</g>
<!-- Node7&#45;&gt;Node6 -->
<g id="edge6" class="edge">
<title>Node7&#45;&gt;Node6</title>
<path fill="none" stroke="#9a32cd" stroke-dasharray="5,2" d="M620.3008,-363.2177C620.3008,-350.5684 620.3008,-334.8285 620.3008,-324.723"/>
<polygon fill="#9a32cd" stroke="#9a32cd" points="616.8009,-363.3188 620.3008,-373.3188 623.8009,-363.3188 616.8009,-363.3188"/>
<text text-anchor="middle" x="650.5803" y="-346" font-family="Helvetica,sans-Serif" font-size="10.00" fill="#000000"> RGBAColour</text>
</g>
<!-- Node8&#45;&gt;Node3 -->
<g id="edge8" class="edge">
<title>Node8&#45;&gt;Node3</title>
<path fill="none" stroke="#9a32cd" stroke-dasharray="5,2" d="M269.4365,-82.0069C280.0496,-85.9993 290.8977,-90.9608 300.3008,-97 312.8169,-105.0386 310.421,-114.157 323.6288,-121 345.1274,-132.1386 405.1261,-140.1201 450.1266,-144.7533"/>
<polygon fill="#9a32cd" stroke="#9a32cd" points="270.3989,-78.635 259.8041,-78.6096 268.0706,-85.2365 270.3989,-78.635"/>
<text text-anchor="middle" x="350.1368" y="-112" font-family="Helvetica,sans-Serif" font-size="10.00" fill="#000000"> contextWC</text>
<text text-anchor="middle" x="350.1368" y="-100" font-family="Helvetica,sans-Serif" font-size="10.00" fill="#000000">wc</text>
</g>
<!-- Node9 -->
<g id="node9" class="node">
<title>Node9</title>
<g id="a_node9"><a xlink:href="structmonitor_struct.xhtml" target="_top" xlink:title=" ">
<polygon fill="none" stroke="#000000" points="15.5768,-139.5 15.5768,-159.5 91.0248,-159.5 91.0248,-139.5 15.5768,-139.5"/>
<text text-anchor="middle" x="53.3008" y="-146.5" font-family="Helvetica,sans-Serif" font-size="10.00" fill="#000000">monitorStruct</text>
</a>
</g>
</g>
<!-- Node9&#45;&gt;Node8 -->
<g id="edge10" class="edge">
<title>Node9&#45;&gt;Node8</title>
<path fill="none" stroke="#9a32cd" stroke-dasharray="5,2" d="M64.3119,-130.4586C71.8661,-119.0674 82.9103,-105.247 96.1888,-97 107.8327,-89.7682 137.3157,-82.8556 164.6242,-77.6496"/>
<polygon fill="#9a32cd" stroke="#9a32cd" points="61.133,-128.942 58.8147,-139.2801 67.0739,-132.6441 61.133,-128.942"/>
<text text-anchor="middle" x="116.8568" y="-106" font-family="Helvetica,sans-Serif" font-size="10.00" fill="#000000"> monitors</text>
</g>
<!-- Node10 -->
<g id="node10" class="node">
<title>Node10</title>
<g id="a_node10"><a xlink:href="structdrop_data_struct.xhtml" target="_top" xlink:title=" ">
<polygon fill="none" stroke="#000000" points="108.6823,-139.5 108.6823,-159.5 191.9193,-159.5 191.9193,-139.5 108.6823,-139.5"/>
<text text-anchor="middle" x="150.3008" y="-146.5" font-family="Helvetica,sans-Serif" font-size="10.00" fill="#000000">dropDataStruct</text>
</a>
</g>
</g>
<!-- Node10&#45;&gt;Node8 -->
<g id="edge12" class="edge">
<title>Node10&#45;&gt;Node8</title>
<path fill="none" stroke="#9a32cd" stroke-dasharray="5,2" d="M142.8053,-129.6006C140.1701,-119.0562 139.264,-106.3826 145.7228,-97 150.3598,-90.2639 166.5672,-83.6824 182.6932,-78.5442"/>
<polygon fill="#9a32cd" stroke="#9a32cd" points="139.4909,-130.7291 145.808,-139.2346 146.1738,-128.6461 139.4909,-130.7291"/>
<text text-anchor="middle" x="176.5898" y="-106" font-family="Helvetica,sans-Serif" font-size="10.00" fill="#000000"> droppedData</text>
</g>
<!-- Node11 -->
<g id="node11" class="node">
<title>Node11</title>
<g id="a_node11"><a xlink:href="class_l_f_s_t_k__lib.xhtml" target="_top" xlink:title="Library of useful routines for LFSToolKit.">
<polygon fill="none" stroke="#000000" points="277.9653,-139.5 277.9653,-159.5 340.6363,-159.5 340.6363,-139.5 277.9653,-139.5"/>
<text text-anchor="middle" x="309.3008" y="-146.5" font-family="Helvetica,sans-Serif" font-size="10.00" fill="#000000">LFSTK_lib</text>
</a>
</g>
</g>
<!-- Node11&#45;&gt;Node8 -->
<g id="edge14" class="edge">
<title>Node11&#45;&gt;Node8</title>
<path fill="none" stroke="#9a32cd" stroke-dasharray="5,2" d="M276.8369,-134.5816C270.065,-130.6859 263.2486,-126.1209 257.5108,-121 243.6747,-108.6516 232.1365,-90.2428 225.7339,-78.8253"/>
<polygon fill="#9a32cd" stroke="#9a32cd" points="275.4721,-137.8214 285.9381,-139.4685 278.7836,-131.6542 275.4721,-137.8214"/>
<text text-anchor="middle" x="279.6958" y="-106" font-family="Helvetica,sans-Serif" font-size="10.00" fill="#000000"> globalLib</text>
</g>
<!-- Node12 -->
<g id="node12" class="node">
<title>Node12</title>
<g id="a_node12"><a xlink:href="structargs.xhtml" target="_top" xlink:title=" ">
<polygon fill="none" stroke="#000000" points="321.5773,-216 321.5773,-236 357.0243,-236 357.0243,-216 321.5773,-216"/>
<text text-anchor="middle" x="339.3008" y="-223" font-family="Helvetica,sans-Serif" font-size="10.00" fill="#000000">args</text>
</a>
</g>
</g>
<!-- Node12&#45;&gt;Node11 -->
<g id="edge15" class="edge">
<title>Node12&#45;&gt;Node11</title>
<path fill="none" stroke="#9a32cd" stroke-dasharray="5,2" d="M331.7144,-206.6549C325.8661,-191.7416 318.0091,-171.7062 313.3195,-159.7477"/>
<polygon fill="#9a32cd" stroke="#9a32cd" points="328.4694,-207.9671 335.3788,-215.999 334.9863,-205.4114 328.4694,-207.9671"/>
<text text-anchor="middle" x="363.1928" y="-181" font-family="Helvetica,sans-Serif" font-size="10.00" fill="#000000"> lfsToolKitGlobals</text>
</g>
<!-- Node13&#45;&gt;Node3 -->
<g id="edge16" class="edge">
<title>Node13&#45;&gt;Node3</title>
<path fill="none" stroke="#9a32cd" stroke-dasharray="5,2" d="M539.4188,-88.3283C541.8978,-98.516 543.0224,-110.881 538.3008,-121 534.7833,-128.5382 528.1825,-134.7884 521.7258,-139.4957"/>
<polygon fill="#9a32cd" stroke="#9a32cd" points="542.7532,-87.2623 536.5334,-78.6853 536.0469,-89.2689 542.7532,-87.2623"/>
<text text-anchor="middle" x="548.9643" y="-106" font-family="Helvetica,sans-Serif" font-size="10.00" fill="#000000"> ml</text>
</g>
<!-- Node14 -->
<g id="node14" class="node">
<title>Node14</title>
<g id="a_node14"><a xlink:href="structbutton_c_b.xhtml" target="_top" xlink:title=" ">
<polygon fill="none" stroke="#000000" points="562.4598,-216 562.4598,-236 620.1418,-236 620.1418,-216 562.4598,-216"/>
<text text-anchor="middle" x="591.3008" y="-223" font-family="Helvetica,sans-Serif" font-size="10.00" fill="#000000">buttonCB</text>
</a>
</g>
</g>
<!-- Node14&#45;&gt;Node3 -->
<g id="edge18" class="edge">
<title>Node14&#45;&gt;Node3</title>
<path fill="none" stroke="#9a32cd" stroke-dasharray="5,2" d="M585.9485,-206.3883C582.5062,-196.8232 577.1718,-185.7419 569.3008,-178 561.0432,-169.878 550.0861,-163.878 539.5252,-159.5368"/>
<polygon fill="#9a32cd" stroke="#9a32cd" points="582.6179,-207.4644 588.9718,-215.9426 589.2918,-205.3526 582.6179,-207.4644"/>
<text text-anchor="middle" x="597.7478" y="-181" font-family="Helvetica,sans-Serif" font-size="10.00" fill="#000000"> callback</text>
</g>
</g>
</svg>
