<?xml version="1.0" encoding="UTF-8" standalone="no"?>
<!DOCTYPE svg PUBLIC "-//W3C//DTD SVG 1.1//EN"
 "http://www.w3.org/Graphics/SVG/1.1/DTD/svg11.dtd">
<!-- Generated by graphviz version 2.40.1 (20161225.0304)
 -->
<!-- Title: LFSTK_windowClass::LFSTK_getDnDAtom Pages: 1 -->
<svg width="818pt" height="305pt"
 viewBox="0.00 0.00 817.63 305.00" xmlns="http://www.w3.org/2000/svg" xmlns:xlink="http://www.w3.org/1999/xlink">
<g id="graph0" class="graph" transform="scale(1 1) rotate(0) translate(4 301)">
<title>LFSTK_windowClass::LFSTK_getDnDAtom</title>
<!-- Node1 -->
<g id="node1" class="node">
<title>Node1</title>
<g id="a_node1"><a xlink:title=" ">
<polygon fill="#bfbfbf" stroke="#000000" points="693.065,-151.5 693.065,-183.5 809.628,-183.5 809.628,-151.5 693.065,-151.5"/>
<text text-anchor="start" x="701.065" y="-170.5" font-family="Helvetica,sans-Serif" font-size="10.00" fill="#000000">LFSTK_windowClass::</text>
<text text-anchor="middle" x="751.3465" y="-158.5" font-family="Helvetica,sans-Serif" font-size="10.00" fill="#000000">LFSTK_getDnDAtom</text>
</a>
</g>
</g>
<!-- Node2 -->
<g id="node2" class="node">
<title>Node2</title>
<g id="a_node2"><a xlink:href="class_l_f_s_t_k__line_edit_class_a99cb0a4e5b4a6701e1f5399ae6b1f78d.xhtml#a99cb0a4e5b4a6701e1f5399ae6b1f78d" target="_top" xlink:title=" ">
<polygon fill="none" stroke="#000000" points="534.3895,-264.5 534.3895,-296.5 644.8425,-296.5 644.8425,-264.5 534.3895,-264.5"/>
<text text-anchor="start" x="542.3895" y="-283.5" font-family="Helvetica,sans-Serif" font-size="10.00" fill="#000000">LFSTK_lineEditClass</text>
<text text-anchor="middle" x="589.616" y="-271.5" font-family="Helvetica,sans-Serif" font-size="10.00" fill="#000000">::getClip</text>
</a>
</g>
</g>
<!-- Node1&#45;&gt;Node2 -->
<g id="edge1" class="edge">
<title>Node1&#45;&gt;Node2</title>
<path fill="none" stroke="#191970" d="M728.5402,-190.6657C710.3199,-208.3141 683.5359,-232.4085 657.065,-249.5 648.5118,-255.0225 638.8144,-260.0888 629.4935,-264.4544"/>
<polygon fill="#191970" stroke="#191970" points="731.1172,-193.0404 735.7986,-183.5359 726.2119,-188.0465 731.1172,-193.0404"/>
</g>
<!-- Node3 -->
<g id="node3" class="node">
<title>Node3</title>
<g id="a_node3"><a xlink:href="class_l_f_s_t_k__line_edit_class_a499c645100977efb8a63ec1695b41e2b.xhtml#a499c645100977efb8a63ec1695b41e2b" target="_top" xlink:title=" ">
<polygon fill="none" stroke="#000000" points="356.5365,-241.5 356.5365,-273.5 466.9895,-273.5 466.9895,-241.5 356.5365,-241.5"/>
<text text-anchor="start" x="364.5365" y="-260.5" font-family="Helvetica,sans-Serif" font-size="10.00" fill="#000000">LFSTK_lineEditClass</text>
<text text-anchor="middle" x="411.763" y="-248.5" font-family="Helvetica,sans-Serif" font-size="10.00" fill="#000000">::keyRelease</text>
</a>
</g>
</g>
<!-- Node1&#45;&gt;Node3 -->
<g id="edge5" class="edge">
<title>Node1&#45;&gt;Node3</title>
<path fill="none" stroke="#191970" d="M717.2265,-188.5485C699.802,-198.4258 677.9238,-209.5308 657.065,-216.5 593.7933,-237.6401 517.5459,-248.1969 467.0304,-253.2449"/>
<polygon fill="#191970" stroke="#191970" points="719.0037,-191.5639 725.9034,-183.5237 715.4957,-185.5063 719.0037,-191.5639"/>
</g>
<!-- Node4 -->
<g id="node4" class="node">
<title>Node4</title>
<g id="a_node4"><a xlink:href="class_l_f_s_t_k__multi_line_edit_class_ac4155f83eae3374ea97007bd36b7985a.xhtml#ac4155f83eae3374ea97007bd36b7985a" target="_top" xlink:title=" ">
<polygon fill="none" stroke="#000000" points="522.167,-174.5 522.167,-206.5 657.065,-206.5 657.065,-174.5 522.167,-174.5"/>
<text text-anchor="start" x="530.167" y="-193.5" font-family="Helvetica,sans-Serif" font-size="10.00" fill="#000000">LFSTK_multiLineEditClass</text>
<text text-anchor="middle" x="589.616" y="-181.5" font-family="Helvetica,sans-Serif" font-size="10.00" fill="#000000">::getClip</text>
</a>
</g>
</g>
<!-- Node1&#45;&gt;Node4 -->
<g id="edge3" class="edge">
<title>Node1&#45;&gt;Node4</title>
<path fill="none" stroke="#191970" d="M683.0512,-177.2124C674.5171,-178.4261 665.7915,-179.6669 657.2672,-180.8792"/>
<polygon fill="#191970" stroke="#191970" points="683.5505,-180.6767 692.9581,-175.8035 682.5649,-173.7464 683.5505,-180.6767"/>
</g>
<!-- Node5 -->
<g id="node5" class="node">
<title>Node5</title>
<g id="a_node5"><a xlink:href="class_l_f_s_t_k__multi_line_edit_class_afabfc40cf51898aa669d7aaf16660899.xhtml#afabfc40cf51898aa669d7aaf16660899" target="_top" xlink:title=" ">
<polygon fill="none" stroke="#000000" points="344.314,-143.5 344.314,-175.5 479.212,-175.5 479.212,-143.5 344.314,-143.5"/>
<text text-anchor="start" x="352.314" y="-162.5" font-family="Helvetica,sans-Serif" font-size="10.00" fill="#000000">LFSTK_multiLineEditClass</text>
<text text-anchor="middle" x="411.763" y="-150.5" font-family="Helvetica,sans-Serif" font-size="10.00" fill="#000000">::keyRelease</text>
</a>
</g>
</g>
<!-- Node1&#45;&gt;Node5 -->
<g id="edge6" class="edge">
<title>Node1&#45;&gt;Node5</title>
<path fill="none" stroke="#191970" d="M682.9504,-165.8887C623.6539,-164.4918 538.322,-162.4815 479.2836,-161.0907"/>
<polygon fill="#191970" stroke="#191970" points="682.8903,-169.3882 692.97,-166.1248 683.0553,-162.3901 682.8903,-169.3882"/>
</g>
<!-- Node6 -->
<g id="node6" class="node">
<title>Node6</title>
<g id="a_node6"><a xlink:href="class_l_f_s_t_k__window_class_a10d93c702923f9d1528b43fc5010b858.xhtml#a10d93c702923f9d1528b43fc5010b858" target="_top" xlink:title=" ">
<polygon fill="none" stroke="#000000" points="337.359,-76.5 337.359,-108.5 486.167,-108.5 486.167,-76.5 337.359,-76.5"/>
<text text-anchor="start" x="345.359" y="-95.5" font-family="Helvetica,sans-Serif" font-size="10.00" fill="#000000">LFSTK_windowClass::</text>
<text text-anchor="middle" x="411.763" y="-83.5" font-family="Helvetica,sans-Serif" font-size="10.00" fill="#000000">LFSTK_handleWindowEvents</text>
</a>
</g>
</g>
<!-- Node1&#45;&gt;Node6 -->
<g id="edge7" class="edge">
<title>Node1&#45;&gt;Node6</title>
<path fill="none" stroke="#191970" d="M682.8723,-152.3769C625.2831,-139.6578 543.1767,-121.5239 484.4356,-108.5504"/>
<polygon fill="#191970" stroke="#191970" points="682.4505,-155.868 692.97,-154.607 683.9602,-149.0327 682.4505,-155.868"/>
</g>
<!-- Node12 -->
<g id="node12" class="node">
<title>Node12</title>
<g id="a_node12"><a xlink:href="class_l_f_s_t_k__window_class_add088894ef8d87ac2d446e6d0b4920a5.xhtml#add088894ef8d87ac2d446e6d0b4920a5" target="_top" xlink:title=" ">
<polygon fill="none" stroke="#000000" points="531.3345,-46.5 531.3345,-78.5 647.8975,-78.5 647.8975,-46.5 531.3345,-46.5"/>
<text text-anchor="start" x="539.3345" y="-65.5" font-family="Helvetica,sans-Serif" font-size="10.00" fill="#000000">LFSTK_windowClass::</text>
<text text-anchor="middle" x="589.616" y="-53.5" font-family="Helvetica,sans-Serif" font-size="10.00" fill="#000000">sendUTF8</text>
</a>
</g>
</g>
<!-- Node1&#45;&gt;Node12 -->
<g id="edge13" class="edge">
<title>Node1&#45;&gt;Node12</title>
<path fill="none" stroke="#191970" d="M725.6376,-144.618C707.3326,-129.019 681.7064,-108.5446 657.065,-93.5 648.1555,-88.0604 638.1315,-82.9595 628.5902,-78.5276"/>
<polygon fill="#191970" stroke="#191970" points="723.6454,-147.5218 733.503,-151.4049 728.2185,-142.2221 723.6454,-147.5218"/>
</g>
<!-- Node2&#45;&gt;Node3 -->
<g id="edge2" class="edge">
<title>Node2&#45;&gt;Node3</title>
<path fill="none" stroke="#191970" d="M524.3395,-272.0584C505.52,-269.6247 485.1766,-266.9939 467.0277,-264.6468"/>
<polygon fill="#191970" stroke="#191970" points="523.9508,-275.5372 534.3171,-273.3487 524.8486,-268.595 523.9508,-275.5372"/>
</g>
<!-- Node4&#45;&gt;Node5 -->
<g id="edge4" class="edge">
<title>Node4&#45;&gt;Node5</title>
<path fill="none" stroke="#191970" d="M512.2081,-177.0077C501.3184,-175.1096 490.1944,-173.1707 479.504,-171.3073"/>
<polygon fill="#191970" stroke="#191970" points="511.6713,-180.4668 522.1238,-178.736 512.8734,-173.5708 511.6713,-180.4668"/>
</g>
<!-- Node7 -->
<g id="node7" class="node">
<title>Node7</title>
<g id="a_node7"><a xlink:href="class_l_f_s_t_k__font_dialog_class_a14c5f93b43c729a1bcb8bebe141415f2.xhtml#a14c5f93b43c729a1bcb8bebe141415f2" target="_top" xlink:title=" ">
<polygon fill="none" stroke="#000000" points="170.3435,-153.5 170.3435,-185.5 293.0245,-185.5 293.0245,-153.5 170.3435,-153.5"/>
<text text-anchor="start" x="178.3435" y="-172.5" font-family="Helvetica,sans-Serif" font-size="10.00" fill="#000000">LFSTK_fontDialogClass</text>
<text text-anchor="middle" x="231.684" y="-160.5" font-family="Helvetica,sans-Serif" font-size="10.00" fill="#000000">::LFSTK_showDialog</text>
</a>
</g>
</g>
<!-- Node6&#45;&gt;Node7 -->
<g id="edge8" class="edge">
<title>Node6&#45;&gt;Node7</title>
<path fill="none" stroke="#191970" d="M369.6659,-112.8552C349.2107,-122.512 324.1739,-133.9896 301.359,-143.5 293.2553,-146.878 284.5407,-150.2959 276.1114,-153.4942"/>
<polygon fill="#191970" stroke="#191970" points="371.1834,-116.0093 378.7174,-108.5601 368.1825,-109.6851 371.1834,-116.0093"/>
</g>
<!-- Node8 -->
<g id="node8" class="node">
<title>Node8</title>
<g id="a_node8"><a xlink:href="class_l_f_s_t_k__file_dialog_class_af77972b8a46616ba4c7bec555b2b0a14.xhtml#af77972b8a46616ba4c7bec555b2b0a14" target="_top" xlink:title=" ">
<polygon fill="none" stroke="#000000" points="168.6795,-102.5 168.6795,-134.5 294.6885,-134.5 294.6885,-102.5 168.6795,-102.5"/>
<text text-anchor="start" x="176.6795" y="-121.5" font-family="Helvetica,sans-Serif" font-size="10.00" fill="#000000">LFSTK_fileDialogClass</text>
<text text-anchor="middle" x="231.684" y="-109.5" font-family="Helvetica,sans-Serif" font-size="10.00" fill="#000000">::LFSTK_showFileDialog</text>
</a>
</g>
</g>
<!-- Node6&#45;&gt;Node8 -->
<g id="edge9" class="edge">
<title>Node6&#45;&gt;Node8</title>
<path fill="none" stroke="#191970" d="M327.2173,-104.7068C316.274,-106.2868 305.2221,-107.8825 294.7114,-109.4"/>
<polygon fill="#191970" stroke="#191970" points="327.8209,-108.156 337.2181,-103.2629 326.8205,-101.2279 327.8209,-108.156"/>
</g>
<!-- Node10 -->
<g id="node10" class="node">
<title>Node10</title>
<g id="a_node10"><a xlink:href="class_l_f_s_t_k__menu_class_ab847d4847ed01a7ff90c717a2cdb6dc5.xhtml#ab847d4847ed01a7ff90c717a2cdb6dc5" target="_top" xlink:title=" ">
<polygon fill="none" stroke="#000000" points="162.009,-51.5 162.009,-83.5 301.359,-83.5 301.359,-51.5 162.009,-51.5"/>
<text text-anchor="start" x="170.009" y="-70.5" font-family="Helvetica,sans-Serif" font-size="10.00" fill="#000000">LFSTK_menuClass::LFSTK</text>
<text text-anchor="middle" x="231.684" y="-58.5" font-family="Helvetica,sans-Serif" font-size="10.00" fill="#000000">_showMenu</text>
</a>
</g>
</g>
<!-- Node6&#45;&gt;Node10 -->
<g id="edge11" class="edge">
<title>Node6&#45;&gt;Node10</title>
<path fill="none" stroke="#191970" d="M327.1898,-80.7589C318.6051,-79.5671 309.9539,-78.366 301.5499,-77.1993"/>
<polygon fill="#191970" stroke="#191970" points="326.8318,-84.2427 337.2181,-82.1511 327.7944,-77.3092 326.8318,-84.2427"/>
</g>
<!-- Node11 -->
<g id="node11" class="node">
<title>Node11</title>
<g id="a_node11"><a xlink:href="class_l_f_s_t_k__menu_item_class_ad2460aa76c71cb7ea548041e1ff858cf.xhtml#ad2460aa76c71cb7ea548041e1ff858cf" target="_top" xlink:title=" ">
<polygon fill="none" stroke="#000000" points="170.6225,-.5 170.6225,-32.5 292.7455,-32.5 292.7455,-.5 170.6225,-.5"/>
<text text-anchor="start" x="178.6225" y="-19.5" font-family="Helvetica,sans-Serif" font-size="10.00" fill="#000000">LFSTK_menuItemClass</text>
<text text-anchor="middle" x="231.684" y="-7.5" font-family="Helvetica,sans-Serif" font-size="10.00" fill="#000000">::mouseEnter</text>
</a>
</g>
</g>
<!-- Node6&#45;&gt;Node11 -->
<g id="edge12" class="edge">
<title>Node6&#45;&gt;Node11</title>
<path fill="none" stroke="#191970" d="M369.7187,-72.017C349.2755,-62.3311 324.2336,-50.8658 301.359,-41.5 293.9852,-38.4809 286.0964,-35.4578 278.3744,-32.6097"/>
<polygon fill="#191970" stroke="#191970" points="368.2306,-75.185 378.7636,-76.3282 371.2425,-68.866 368.2306,-75.185"/>
</g>
<!-- Node9 -->
<g id="node9" class="node">
<title>Node9</title>
<g id="a_node9"><a xlink:href="class_l_f_s_t_k__file_dialog_class_aacf1d4b61cbb5b40d06f591ea96f9ea7.xhtml#aacf1d4b61cbb5b40d06f591ea96f9ea7" target="_top" xlink:title=" ">
<polygon fill="none" stroke="#000000" points="0,-102.5 0,-134.5 126.009,-134.5 126.009,-102.5 0,-102.5"/>
<text text-anchor="start" x="8" y="-121.5" font-family="Helvetica,sans-Serif" font-size="10.00" fill="#000000">LFSTK_fileDialogClass</text>
<text text-anchor="middle" x="63.0045" y="-109.5" font-family="Helvetica,sans-Serif" font-size="10.00" fill="#000000">::LFSTK_showFileDialog</text>
</a>
</g>
</g>
<!-- Node8&#45;&gt;Node9 -->
<g id="edge10" class="edge">
<title>Node8&#45;&gt;Node9</title>
<path fill="none" stroke="#191970" d="M158.2227,-118.5C147.5137,-118.5 136.5668,-118.5 126.0881,-118.5"/>
<polygon fill="#191970" stroke="#191970" points="158.3941,-122.0001 168.3941,-118.5 158.394,-115.0001 158.3941,-122.0001"/>
</g>
<!-- Node12&#45;&gt;Node6 -->
<g id="edge14" class="edge">
<title>Node12&#45;&gt;Node6</title>
<path fill="none" stroke="#191970" d="M520.6846,-74.1273C509.4123,-76.0287 497.6879,-78.0063 486.2879,-79.9292"/>
<polygon fill="#191970" stroke="#191970" points="521.6088,-77.5209 530.8874,-72.4063 520.4445,-70.6184 521.6088,-77.5209"/>
</g>
</g>
</svg>
