<?xml version="1.0" encoding="UTF-8" standalone="no"?>
<!DOCTYPE svg PUBLIC "-//W3C//DTD SVG 1.1//EN"
 "http://www.w3.org/Graphics/SVG/1.1/DTD/svg11.dtd">
<!-- Generated by graphviz version 2.40.1 (20161225.0304)
 -->
<!-- Title: LFSTK_findClass::LFSTK_sortByPath Pages: 1 -->
<svg width="401pt" height="41pt"
 viewBox="0.00 0.00 401.37 41.00" xmlns="http://www.w3.org/2000/svg" xmlns:xlink="http://www.w3.org/1999/xlink">
<g id="graph0" class="graph" transform="scale(1 1) rotate(0) translate(4 37)">
<title>LFSTK_findClass::LFSTK_sortByPath</title>
<!-- Node1 -->
<g id="node1" class="node">
<title>Node1</title>
<g id="a_node1"><a xlink:title=" ">
<polygon fill="#bfbfbf" stroke="#000000" points="0,-.5 0,-32.5 130.46,-32.5 130.46,-.5 0,-.5"/>
<text text-anchor="start" x="8" y="-19.5" font-family="Helvetica,sans-Serif" font-size="10.00" fill="#000000">LFSTK_findClass::LFSTK</text>
<text text-anchor="middle" x="65.23" y="-7.5" font-family="Helvetica,sans-Serif" font-size="10.00" fill="#000000">_sortByPath</text>
</a>
</g>
</g>
<!-- Node2 -->
<g id="node2" class="node">
<title>Node2</title>
<g id="a_node2"><a xlink:href="_l_f_s_t_k_find_class_8cpp_a79647ed142e18501901c20576545ed17.xhtml#a79647ed142e18501901c20576545ed17" target="_top" xlink:title=" ">
<polygon fill="none" stroke="#000000" points="166.46,-6.5 166.46,-26.5 226.912,-26.5 226.912,-6.5 166.46,-6.5"/>
<text text-anchor="middle" x="196.686" y="-13.5" font-family="Helvetica,sans-Serif" font-size="10.00" fill="#000000">sortDataP</text>
</a>
</g>
</g>
<!-- Node1&#45;&gt;Node2 -->
<g id="edge1" class="edge">
<title>Node1&#45;&gt;Node2</title>
<path fill="none" stroke="#191970" d="M130.5729,-16.5C139.2649,-16.5 147.9658,-16.5 156.0677,-16.5"/>
<polygon fill="#191970" stroke="#191970" points="156.3223,-20.0001 166.3223,-16.5 156.3222,-13.0001 156.3223,-20.0001"/>
</g>
<!-- Node3 -->
<g id="node3" class="node">
<title>Node3</title>
<g id="a_node3"><a xlink:href="class_l_f_s_t_k__find_class_a34a08ade9e47801d87f5ab53f9b1a055.xhtml#a34a08ade9e47801d87f5ab53f9b1a055" target="_top" xlink:title=" ">
<polygon fill="none" stroke="#000000" points="262.912,-.5 262.912,-32.5 393.372,-32.5 393.372,-.5 262.912,-.5"/>
<text text-anchor="start" x="270.912" y="-19.5" font-family="Helvetica,sans-Serif" font-size="10.00" fill="#000000">LFSTK_findClass::LFSTK</text>
<text text-anchor="middle" x="328.142" y="-7.5" font-family="Helvetica,sans-Serif" font-size="10.00" fill="#000000">_getSort</text>
</a>
</g>
</g>
<!-- Node2&#45;&gt;Node3 -->
<g id="edge2" class="edge">
<title>Node2&#45;&gt;Node3</title>
<path fill="none" stroke="#191970" d="M227.1751,-16.5C234.9452,-16.5 243.6481,-16.5 252.5995,-16.5"/>
<polygon fill="#191970" stroke="#191970" points="252.7751,-20.0001 262.7751,-16.5 252.775,-13.0001 252.7751,-20.0001"/>
</g>
</g>
</svg>
