<?xml version="1.0" encoding="UTF-8" standalone="no"?>
<!DOCTYPE svg PUBLIC "-//W3C//DTD SVG 1.1//EN"
 "http://www.w3.org/Graphics/SVG/1.1/DTD/svg11.dtd">
<!-- Generated by graphviz version 2.40.1 (20161225.0304)
 -->
<!-- Title: LFSTK_gadgetClass::LFSTK_getLimits Pages: 1 -->
<svg width="1235pt" height="347pt"
 viewBox="0.00 0.00 1234.74 347.00" xmlns="http://www.w3.org/2000/svg" xmlns:xlink="http://www.w3.org/1999/xlink">
<g id="graph0" class="graph" transform="scale(1 1) rotate(0) translate(4 343)">
<title>LFSTK_gadgetClass::LFSTK_getLimits</title>
<!-- Node1 -->
<g id="node1" class="node">
<title>Node1</title>
<g id="a_node1"><a xlink:title=" ">
<polygon fill="#bfbfbf" stroke="#000000" points="1112.937,-149.5 1112.937,-181.5 1226.74,-181.5 1226.74,-149.5 1112.937,-149.5"/>
<text text-anchor="start" x="1120.937" y="-168.5" font-family="Helvetica,sans-Serif" font-size="10.00" fill="#000000">LFSTK_gadgetClass::</text>
<text text-anchor="middle" x="1169.8385" y="-156.5" font-family="Helvetica,sans-Serif" font-size="10.00" fill="#000000">LFSTK_getLimits</text>
</a>
</g>
</g>
<!-- Node2 -->
<g id="node2" class="node">
<title>Node2</title>
<g id="a_node2"><a xlink:href="class_l_f_s_t_k__scroll_bar_class_a72b11062708e9db06d05162734b5555b.xhtml#a72b11062708e9db06d05162734b5555b" target="_top" xlink:title=" ">
<polygon fill="none" stroke="#000000" points="807.829,-229.5 807.829,-261.5 924.383,-261.5 924.383,-229.5 807.829,-229.5"/>
<text text-anchor="start" x="815.829" y="-248.5" font-family="Helvetica,sans-Serif" font-size="10.00" fill="#000000">LFSTK_scrollBarClass</text>
<text text-anchor="middle" x="866.106" y="-236.5" font-family="Helvetica,sans-Serif" font-size="10.00" fill="#000000">::mouseUp</text>
</a>
</g>
</g>
<!-- Node1&#45;&gt;Node2 -->
<g id="edge1" class="edge">
<title>Node1&#45;&gt;Node2</title>
<path fill="none" stroke="#191970" d="M1102.9926,-183.1065C1049.6142,-197.1658 975.5607,-216.6708 924.531,-230.1115"/>
<polygon fill="#191970" stroke="#191970" points="1103.93,-186.4791 1112.7087,-180.5474 1102.1471,-179.7099 1103.93,-186.4791"/>
</g>
<!-- Node3 -->
<g id="node3" class="node">
<title>Node3</title>
<g id="a_node3"><a xlink:href="class_l_f_s_t_k__scroll_bar_class_a3e47c5f9944ddb2a861b80853f85ce12.xhtml#a3e47c5f9944ddb2a861b80853f85ce12" target="_top" xlink:title=" ">
<polygon fill="none" stroke="#000000" points="960.383,-127.5 960.383,-159.5 1076.937,-159.5 1076.937,-127.5 960.383,-127.5"/>
<text text-anchor="start" x="968.383" y="-146.5" font-family="Helvetica,sans-Serif" font-size="10.00" fill="#000000">LFSTK_scrollBarClass</text>
<text text-anchor="middle" x="1018.66" y="-134.5" font-family="Helvetica,sans-Serif" font-size="10.00" fill="#000000">::setState</text>
</a>
</g>
</g>
<!-- Node1&#45;&gt;Node3 -->
<g id="edge2" class="edge">
<title>Node1&#45;&gt;Node3</title>
<path fill="none" stroke="#191970" d="M1102.7574,-155.7381C1094.2212,-154.4959 1085.5383,-153.2324 1077.1518,-152.0119"/>
<polygon fill="#191970" stroke="#191970" points="1102.2846,-159.2061 1112.6844,-157.1827 1103.2927,-152.2791 1102.2846,-159.2061"/>
</g>
<!-- Node3&#45;&gt;Node2 -->
<g id="edge25" class="edge">
<title>Node3&#45;&gt;Node2</title>
<path fill="none" stroke="#191970" d="M994.2395,-166.6793C976.0046,-183.1527 949.9263,-205.0126 924.383,-220.5 919.1112,-223.6964 913.3571,-226.6907 907.5841,-229.4183"/>
<polygon fill="#191970" stroke="#191970" points="997.0299,-168.8694 1002.0357,-159.5317 992.2994,-163.7096 997.0299,-168.8694"/>
</g>
<!-- Node4 -->
<g id="node4" class="node">
<title>Node4</title>
<g id="a_node4"><a xlink:href="class_l_f_s_t_k__scroll_bar_class_a6a4b0d2c9217779bb3bc0b4c936130ce.xhtml#a6a4b0d2c9217779bb3bc0b4c936130ce" target="_top" xlink:title=" ">
<polygon fill="none" stroke="#000000" points="807.829,-25.5 807.829,-57.5 924.383,-57.5 924.383,-25.5 807.829,-25.5"/>
<text text-anchor="start" x="815.829" y="-44.5" font-family="Helvetica,sans-Serif" font-size="10.00" fill="#000000">LFSTK_scrollBarClass</text>
<text text-anchor="middle" x="866.106" y="-32.5" font-family="Helvetica,sans-Serif" font-size="10.00" fill="#000000">::LFSTK_clearWindow</text>
</a>
</g>
</g>
<!-- Node3&#45;&gt;Node4 -->
<g id="edge3" class="edge">
<title>Node3&#45;&gt;Node4</title>
<path fill="none" stroke="#191970" d="M1001.3125,-120.0284C983.2056,-100.9961 953.448,-75.1227 924.383,-57.5 924.2889,-57.4429 924.1946,-57.3859 924.1001,-57.329"/>
<polygon fill="#191970" stroke="#191970" points="998.7744,-122.4395 1008.1009,-127.4661 1003.9447,-117.7205 998.7744,-122.4395"/>
</g>
<!-- Node5 -->
<g id="node5" class="node">
<title>Node5</title>
<g id="a_node5"><a xlink:href="class_l_f_s_t_k__scroll_bar_class_a955c2789a3ce6d849a3d00a3bf4911e7.xhtml#a955c2789a3ce6d849a3d00a3bf4911e7" target="_top" xlink:title=" ">
<polygon fill="none" stroke="#000000" points="807.829,-178.5 807.829,-210.5 924.383,-210.5 924.383,-178.5 807.829,-178.5"/>
<text text-anchor="start" x="815.829" y="-197.5" font-family="Helvetica,sans-Serif" font-size="10.00" fill="#000000">LFSTK_scrollBarClass</text>
<text text-anchor="middle" x="866.106" y="-185.5" font-family="Helvetica,sans-Serif" font-size="10.00" fill="#000000">::LFSTK_setValue</text>
</a>
</g>
</g>
<!-- Node3&#45;&gt;Node5 -->
<g id="edge5" class="edge">
<title>Node3&#45;&gt;Node5</title>
<path fill="none" stroke="#191970" d="M960.492,-162.946C945.1585,-168.0721 928.7889,-173.5446 914.061,-178.4683"/>
<polygon fill="#191970" stroke="#191970" points="962.0166,-166.1268 970.391,-159.6367 959.7972,-159.488 962.0166,-166.1268"/>
</g>
<!-- Node15 -->
<g id="node15" class="node">
<title>Node15</title>
<g id="a_node15"><a xlink:href="class_l_f_s_t_k__scroll_bar_class_aa1ce7f61248cfa6eeef3e8573e327d8f.xhtml#aa1ce7f61248cfa6eeef3e8573e327d8f" target="_top" xlink:title=" ">
<polygon fill="none" stroke="#000000" points="807.829,-127.5 807.829,-159.5 924.383,-159.5 924.383,-127.5 807.829,-127.5"/>
<text text-anchor="start" x="815.829" y="-146.5" font-family="Helvetica,sans-Serif" font-size="10.00" fill="#000000">LFSTK_scrollBarClass</text>
<text text-anchor="middle" x="866.106" y="-134.5" font-family="Helvetica,sans-Serif" font-size="10.00" fill="#000000">::lineUpDown</text>
</a>
</g>
</g>
<!-- Node3&#45;&gt;Node15 -->
<g id="edge16" class="edge">
<title>Node3&#45;&gt;Node15</title>
<path fill="none" stroke="#191970" d="M949.8679,-143.5C941.3932,-143.5 932.7941,-143.5 924.4944,-143.5"/>
<polygon fill="#191970" stroke="#191970" points="950.115,-147.0001 960.1149,-143.5 950.1149,-140.0001 950.115,-147.0001"/>
</g>
<!-- Node23 -->
<g id="node23" class="node">
<title>Node23</title>
<g id="a_node23"><a xlink:href="class_l_f_s_t_k__scroll_bar_class_a04c7fd897a3f2e5d496962cc7d80d4e3.xhtml#a04c7fd897a3f2e5d496962cc7d80d4e3" target="_top" xlink:title=" ">
<polygon fill="none" stroke="#000000" points="807.829,-76.5 807.829,-108.5 924.383,-108.5 924.383,-76.5 807.829,-76.5"/>
<text text-anchor="start" x="815.829" y="-95.5" font-family="Helvetica,sans-Serif" font-size="10.00" fill="#000000">LFSTK_scrollBarClass</text>
<text text-anchor="middle" x="866.106" y="-83.5" font-family="Helvetica,sans-Serif" font-size="10.00" fill="#000000">::pageUpDown</text>
</a>
</g>
</g>
<!-- Node3&#45;&gt;Node23 -->
<g id="edge26" class="edge">
<title>Node3&#45;&gt;Node23</title>
<path fill="none" stroke="#191970" d="M960.492,-124.054C945.1585,-118.9279 928.7889,-113.4554 914.061,-108.5317"/>
<polygon fill="#191970" stroke="#191970" points="959.7972,-127.512 970.391,-127.3633 962.0166,-120.8732 959.7972,-127.512"/>
</g>
<!-- Node4&#45;&gt;Node3 -->
<g id="edge4" class="edge">
<title>Node4&#45;&gt;Node3</title>
<path fill="none" stroke="#191970" d="M897.9396,-61.8995C906.7548,-66.016 916.1561,-70.5118 924.383,-75.5 949.6821,-90.8393 975.5059,-112.4298 993.7143,-127.3747"/>
<polygon fill="#191970" stroke="#191970" points="899.229,-58.6388 888.6876,-57.5763 896.2657,-64.9807 899.229,-58.6388"/>
</g>
<!-- Node6 -->
<g id="node6" class="node">
<title>Node6</title>
<g id="a_node6"><a xlink:href="class_l_f_s_t_k__list_gadget_class_a7b9a3f3a749e622fdd46da8f72da2002.xhtml#a7b9a3f3a749e622fdd46da8f72da2002" target="_top" xlink:title=" ">
<polygon fill="none" stroke="#000000" points="649.147,-229.5 649.147,-261.5 771.829,-261.5 771.829,-229.5 649.147,-229.5"/>
<text text-anchor="start" x="657.147" y="-248.5" font-family="Helvetica,sans-Serif" font-size="10.00" fill="#000000">LFSTK_listGadgetClass</text>
<text text-anchor="middle" x="710.488" y="-236.5" font-family="Helvetica,sans-Serif" font-size="10.00" fill="#000000">::LFSTK_updateList</text>
</a>
</g>
</g>
<!-- Node5&#45;&gt;Node6 -->
<g id="edge6" class="edge">
<title>Node5&#45;&gt;Node6</title>
<path fill="none" stroke="#191970" d="M807.2163,-213.7997C791.4465,-218.9678 774.5729,-224.4977 759.4062,-229.4683"/>
<polygon fill="#191970" stroke="#191970" points="808.4548,-217.077 816.8675,-210.6367 806.2748,-210.4251 808.4548,-217.077"/>
</g>
<!-- Node7 -->
<g id="node7" class="node">
<title>Node7</title>
<g id="a_node7"><a xlink:href="class_l_f_s_t_k__font_dialog_class_af866eb2b1ba8178c9cf3e751716fcc8e.xhtml#af866eb2b1ba8178c9cf3e751716fcc8e" target="_top" xlink:title=" ">
<polygon fill="none" stroke="#000000" points="488.527,-255.5 488.527,-287.5 611.208,-287.5 611.208,-255.5 488.527,-255.5"/>
<text text-anchor="start" x="496.527" y="-274.5" font-family="Helvetica,sans-Serif" font-size="10.00" fill="#000000">LFSTK_fontDialogClass</text>
<text text-anchor="middle" x="549.8675" y="-262.5" font-family="Helvetica,sans-Serif" font-size="10.00" fill="#000000">::buildDialog</text>
</a>
</g>
</g>
<!-- Node6&#45;&gt;Node7 -->
<g id="edge7" class="edge">
<title>Node6&#45;&gt;Node7</title>
<path fill="none" stroke="#191970" d="M638.9404,-257.0816C629.7329,-258.572 620.3699,-260.0876 611.3433,-261.5488"/>
<polygon fill="#191970" stroke="#191970" points="639.5351,-260.531 648.8473,-255.4779 638.4165,-253.6209 639.5351,-260.531"/>
</g>
<!-- Node9 -->
<g id="node9" class="node">
<title>Node9</title>
<g id="a_node9"><a xlink:href="class_l_f_s_t_k__file_dialog_class_a0a6b4f1db71031bf35a7636b736e8698.xhtml#a0a6b4f1db71031bf35a7636b736e8698" target="_top" xlink:title=" ">
<polygon fill="none" stroke="#000000" points="490.477,-204.5 490.477,-236.5 609.258,-236.5 609.258,-204.5 490.477,-204.5"/>
<text text-anchor="start" x="498.477" y="-223.5" font-family="Helvetica,sans-Serif" font-size="10.00" fill="#000000">LFSTK_fileDialogClass</text>
<text text-anchor="middle" x="549.8675" y="-211.5" font-family="Helvetica,sans-Serif" font-size="10.00" fill="#000000">::getFileList</text>
</a>
</g>
</g>
<!-- Node6&#45;&gt;Node9 -->
<g id="edge9" class="edge">
<title>Node6&#45;&gt;Node9</title>
<path fill="none" stroke="#191970" d="M638.7459,-234.3336C628.9695,-232.8119 619.0218,-231.2636 609.4912,-229.7802"/>
<polygon fill="#191970" stroke="#191970" points="638.4279,-237.8262 648.8473,-235.9058 639.5046,-230.9095 638.4279,-237.8262"/>
</g>
<!-- Node14 -->
<g id="node14" class="node">
<title>Node14</title>
<g id="a_node14"><a xlink:href="class_l_f_s_t_k__list_gadget_class_addcdb5ba330fd8dd36beb94ea2081dd3.xhtml#addcdb5ba330fd8dd36beb94ea2081dd3" target="_top" xlink:title=" ">
<polygon fill="none" stroke="#000000" points="486.588,-306.5 486.588,-338.5 613.147,-338.5 613.147,-306.5 486.588,-306.5"/>
<text text-anchor="start" x="494.588" y="-325.5" font-family="Helvetica,sans-Serif" font-size="10.00" fill="#000000">LFSTK_listGadgetClass</text>
<text text-anchor="middle" x="549.8675" y="-313.5" font-family="Helvetica,sans-Serif" font-size="10.00" fill="#000000">::LFSTK_setListFromFile</text>
</a>
</g>
</g>
<!-- Node6&#45;&gt;Node14 -->
<g id="edge15" class="edge">
<title>Node6&#45;&gt;Node14</title>
<path fill="none" stroke="#191970" d="M673.397,-266.6015C655.4447,-276.4812 633.4324,-288.112 613.147,-297.5 606.5006,-300.5759 599.3619,-303.6283 592.3592,-306.4881"/>
<polygon fill="#191970" stroke="#191970" points="675.3376,-269.5276 682.3842,-261.6159 671.9418,-263.4064 675.3376,-269.5276"/>
</g>
<!-- Node8 -->
<g id="node8" class="node">
<title>Node8</title>
<g id="a_node8"><a xlink:href="class_l_f_s_t_k__font_dialog_class_ab7b6a4bca99713646ab6ac77dc34827c.xhtml#ab7b6a4bca99713646ab6ac77dc34827c" target="_top" xlink:title=" ">
<polygon fill="none" stroke="#000000" points="322.3485,-255.5 322.3485,-287.5 450.5875,-287.5 450.5875,-255.5 322.3485,-255.5"/>
<text text-anchor="start" x="330.3485" y="-274.5" font-family="Helvetica,sans-Serif" font-size="10.00" fill="#000000">LFSTK_fontDialogClass</text>
<text text-anchor="middle" x="386.468" y="-262.5" font-family="Helvetica,sans-Serif" font-size="10.00" fill="#000000">::LFSTK_fontDialogClass</text>
</a>
</g>
</g>
<!-- Node7&#45;&gt;Node8 -->
<g id="edge8" class="edge">
<title>Node7&#45;&gt;Node8</title>
<path fill="none" stroke="#191970" d="M477.9674,-271.5C468.9162,-271.5 459.7022,-271.5 450.7784,-271.5"/>
<polygon fill="#191970" stroke="#191970" points="478.0932,-275.0001 488.0932,-271.5 478.0931,-268.0001 478.0932,-275.0001"/>
</g>
<!-- Node10 -->
<g id="node10" class="node">
<title>Node10</title>
<g id="a_node10"><a xlink:href="class_l_f_s_t_k__file_dialog_class_a553ce8e885b0d60cbf515b7b3d1e8b65.xhtml#a553ce8e885b0d60cbf515b7b3d1e8b65" target="_top" xlink:title=" ">
<polygon fill="none" stroke="#000000" points="0,-207.5 0,-239.5 124.339,-239.5 124.339,-207.5 0,-207.5"/>
<text text-anchor="start" x="8" y="-226.5" font-family="Helvetica,sans-Serif" font-size="10.00" fill="#000000">LFSTK_fileDialogClass</text>
<text text-anchor="middle" x="62.1695" y="-214.5" font-family="Helvetica,sans-Serif" font-size="10.00" fill="#000000">::LFSTK_fileDialogClass</text>
</a>
</g>
</g>
<!-- Node9&#45;&gt;Node10 -->
<g id="edge10" class="edge">
<title>Node9&#45;&gt;Node10</title>
<path fill="none" stroke="#191970" d="M486.6458,-202.1115C474.7632,-199.3612 462.3703,-196.9607 450.588,-195.5 322.5685,-179.6292 288.0958,-177.6367 160.339,-195.5 143.1378,-197.9051 124.72,-202.5721 108.5377,-207.4167"/>
<polygon fill="#191970" stroke="#191970" points="485.94,-205.5417 496.4826,-204.4912 487.586,-198.7379 485.94,-205.5417"/>
</g>
<!-- Node11 -->
<g id="node11" class="node">
<title>Node11</title>
<g id="a_node11"><a xlink:href="class_l_f_s_t_k__file_dialog_class_aa8804989d381def9acb2c99d47d6dc3d.xhtml#aa8804989d381def9acb2c99d47d6dc3d" target="_top" xlink:title=" ">
<polygon fill="none" stroke="#000000" points="325.9675,-204.5 325.9675,-236.5 446.9685,-236.5 446.9685,-204.5 325.9675,-204.5"/>
<text text-anchor="start" x="333.9675" y="-223.5" font-family="Helvetica,sans-Serif" font-size="10.00" fill="#000000">LFSTK_fileDialogClass</text>
<text text-anchor="middle" x="386.468" y="-211.5" font-family="Helvetica,sans-Serif" font-size="10.00" fill="#000000">::LFSTK_setWorkingDir</text>
</a>
</g>
</g>
<!-- Node9&#45;&gt;Node11 -->
<g id="edge11" class="edge">
<title>Node9&#45;&gt;Node11</title>
<path fill="none" stroke="#191970" d="M480.335,-220.5C469.2397,-220.5 457.8381,-220.5 446.9737,-220.5"/>
<polygon fill="#191970" stroke="#191970" points="480.4143,-224.0001 490.4143,-220.5 480.4143,-217.0001 480.4143,-224.0001"/>
</g>
<!-- Node12 -->
<g id="node12" class="node">
<title>Node12</title>
<g id="a_node12"><a xlink:href="class_l_f_s_t_k__file_dialog_class_aacf1d4b61cbb5b40d06f591ea96f9ea7.xhtml#aacf1d4b61cbb5b40d06f591ea96f9ea7" target="_top" xlink:title=" ">
<polygon fill="none" stroke="#000000" points="160.339,-204.5 160.339,-236.5 286.348,-236.5 286.348,-204.5 160.339,-204.5"/>
<text text-anchor="start" x="168.339" y="-223.5" font-family="Helvetica,sans-Serif" font-size="10.00" fill="#000000">LFSTK_fileDialogClass</text>
<text text-anchor="middle" x="223.3435" y="-211.5" font-family="Helvetica,sans-Serif" font-size="10.00" fill="#000000">::LFSTK_showFileDialog</text>
</a>
</g>
</g>
<!-- Node11&#45;&gt;Node12 -->
<g id="edge12" class="edge">
<title>Node11&#45;&gt;Node12</title>
<path fill="none" stroke="#191970" d="M315.7259,-220.5C306.0347,-220.5 296.1361,-220.5 286.5904,-220.5"/>
<polygon fill="#191970" stroke="#191970" points="315.7265,-224.0001 325.7265,-220.5 315.7264,-217.0001 315.7265,-224.0001"/>
</g>
<!-- Node13 -->
<g id="node13" class="node">
<title>Node13</title>
<g id="a_node13"><a xlink:href="class_l_f_s_t_k__file_dialog_class_a789cade9437906181e31a243c85d52e5.xhtml#a789cade9437906181e31a243c85d52e5" target="_top" xlink:title=" ">
<polygon fill="none" stroke="#000000" points="163.953,-255.5 163.953,-287.5 282.734,-287.5 282.734,-255.5 163.953,-255.5"/>
<text text-anchor="start" x="171.953" y="-274.5" font-family="Helvetica,sans-Serif" font-size="10.00" fill="#000000">LFSTK_fileDialogClass</text>
<text text-anchor="middle" x="223.3435" y="-262.5" font-family="Helvetica,sans-Serif" font-size="10.00" fill="#000000">::select</text>
</a>
</g>
</g>
<!-- Node11&#45;&gt;Node13 -->
<g id="edge13" class="edge">
<title>Node11&#45;&gt;Node13</title>
<path fill="none" stroke="#191970" d="M325.2052,-239.6535C308.5411,-244.8634 290.6696,-250.4508 274.6213,-255.4683"/>
<polygon fill="#191970" stroke="#191970" points="326.3544,-242.9613 334.8544,-236.6367 324.2656,-236.2803 326.3544,-242.9613"/>
</g>
<!-- Node13&#45;&gt;Node10 -->
<g id="edge14" class="edge">
<title>Node13&#45;&gt;Node10</title>
<path fill="none" stroke="#191970" d="M159.442,-252.4692C145.1046,-248.1993 130.0303,-243.71 116.1436,-239.5743"/>
<polygon fill="#191970" stroke="#191970" points="158.6435,-255.8832 169.2265,-255.3832 160.6415,-249.1744 158.6435,-255.8832"/>
</g>
<!-- Node16 -->
<g id="node16" class="node">
<title>Node16</title>
<g id="a_node16"><a xlink:href="class_l_f_s_t_k__scroll_bar_class_a3da4281c24ac345ba32a4636ce2af38b.xhtml#a3da4281c24ac345ba32a4636ce2af38b" target="_top" xlink:title=" ">
<polygon fill="none" stroke="#000000" points="649.432,-153.5 649.432,-185.5 771.544,-185.5 771.544,-153.5 649.432,-153.5"/>
<text text-anchor="start" x="657.432" y="-172.5" font-family="Helvetica,sans-Serif" font-size="10.00" fill="#000000">LFSTK_scrollBarClass</text>
<text text-anchor="middle" x="710.488" y="-160.5" font-family="Helvetica,sans-Serif" font-size="10.00" fill="#000000">::LFSTK_scrollBarClass</text>
</a>
</g>
</g>
<!-- Node15&#45;&gt;Node16 -->
<g id="edge17" class="edge">
<title>Node15&#45;&gt;Node16</title>
<path fill="none" stroke="#191970" d="M797.6969,-154.9295C789.0782,-156.3695 780.3034,-157.8355 771.8039,-159.2556"/>
<polygon fill="#191970" stroke="#191970" points="798.4304,-158.3556 807.7169,-153.2554 797.2768,-151.4513 798.4304,-158.3556"/>
</g>
<!-- Node17 -->
<g id="node17" class="node">
<title>Node17</title>
<g id="a_node17"><a xlink:href="class_l_f_s_t_k__scroll_bar_class_a690ed010fb6760b5ee112df392076df5.xhtml#a690ed010fb6760b5ee112df392076df5" target="_top" xlink:title=" ">
<polygon fill="none" stroke="#000000" points="652.211,-102.5 652.211,-134.5 768.765,-134.5 768.765,-102.5 652.211,-102.5"/>
<text text-anchor="start" x="660.211" y="-121.5" font-family="Helvetica,sans-Serif" font-size="10.00" fill="#000000">LFSTK_scrollBarClass</text>
<text text-anchor="middle" x="710.488" y="-109.5" font-family="Helvetica,sans-Serif" font-size="10.00" fill="#000000">::LFSTK_scrollByLine</text>
</a>
</g>
</g>
<!-- Node15&#45;&gt;Node17 -->
<g id="edge18" class="edge">
<title>Node15&#45;&gt;Node17</title>
<path fill="none" stroke="#191970" d="M797.7899,-132.525C788.1716,-130.9799 778.3569,-129.4031 768.9455,-127.8912"/>
<polygon fill="#191970" stroke="#191970" points="797.2883,-135.9892 807.7169,-134.1198 798.3986,-129.0779 797.2883,-135.9892"/>
</g>
<!-- Node18 -->
<g id="node18" class="node">
<title>Node18</title>
<g id="a_node18"><a xlink:href="class_l_f_s_t_k__list_gadget_class_afd92ab070d0d68863589669cb73404cf.xhtml#afd92ab070d0d68863589669cb73404cf" target="_top" xlink:title=" ">
<polygon fill="none" stroke="#000000" points="488.5265,-.5 488.5265,-32.5 611.2085,-32.5 611.2085,-.5 488.5265,-.5"/>
<text text-anchor="start" x="496.5265" y="-19.5" font-family="Helvetica,sans-Serif" font-size="10.00" fill="#000000">LFSTK_listGadgetClass</text>
<text text-anchor="middle" x="549.8675" y="-7.5" font-family="Helvetica,sans-Serif" font-size="10.00" fill="#000000">::keyRelease</text>
</a>
</g>
</g>
<!-- Node17&#45;&gt;Node18 -->
<g id="edge19" class="edge">
<title>Node17&#45;&gt;Node18</title>
<path fill="none" stroke="#191970" d="M655.6161,-97.1927C653.3644,-95.7149 651.1956,-94.1516 649.147,-92.5 627.5475,-75.0862 634.9595,-58.6462 613.147,-41.5 608.8752,-38.142 604.0954,-35.1836 599.1281,-32.5896"/>
<polygon fill="#191970" stroke="#191970" points="654.234,-100.4394 664.6317,-102.474 657.7723,-94.3994 654.234,-100.4394"/>
</g>
<!-- Node19 -->
<g id="node19" class="node">
<title>Node19</title>
<g id="a_node19"><a xlink:href="class_l_f_s_t_k__list_gadget_class_ad54eba5a5dc2bac69eeb6a1e40b563d7.xhtml#ad54eba5a5dc2bac69eeb6a1e40b563d7" target="_top" xlink:title=" ">
<polygon fill="none" stroke="#000000" points="488.5265,-153.5 488.5265,-185.5 611.2085,-185.5 611.2085,-153.5 488.5265,-153.5"/>
<text text-anchor="start" x="496.5265" y="-172.5" font-family="Helvetica,sans-Serif" font-size="10.00" fill="#000000">LFSTK_listGadgetClass</text>
<text text-anchor="middle" x="549.8675" y="-160.5" font-family="Helvetica,sans-Serif" font-size="10.00" fill="#000000">::mouseUp</text>
</a>
</g>
</g>
<!-- Node17&#45;&gt;Node19 -->
<g id="edge20" class="edge">
<title>Node17&#45;&gt;Node19</title>
<path fill="none" stroke="#191970" d="M649.7052,-137.7997C633.4285,-142.9678 616.0125,-148.4977 600.3582,-153.4683"/>
<polygon fill="#191970" stroke="#191970" points="651.1948,-140.999 659.6667,-134.6367 649.0764,-134.3272 651.1948,-140.999"/>
</g>
<!-- Node20 -->
<g id="node20" class="node">
<title>Node20</title>
<g id="a_node20"><a xlink:href="class_l_f_s_t_k__list_gadget_class_ad9b006620b5e9712da9b0ee3ead405de.xhtml#ad9b006620b5e9712da9b0ee3ead405de" target="_top" xlink:title=" ">
<polygon fill="none" stroke="#000000" points="488.5265,-102.5 488.5265,-134.5 611.2085,-134.5 611.2085,-102.5 488.5265,-102.5"/>
<text text-anchor="start" x="496.5265" y="-121.5" font-family="Helvetica,sans-Serif" font-size="10.00" fill="#000000">LFSTK_listGadgetClass</text>
<text text-anchor="middle" x="549.8675" y="-109.5" font-family="Helvetica,sans-Serif" font-size="10.00" fill="#000000">::select</text>
</a>
</g>
</g>
<!-- Node17&#45;&gt;Node20 -->
<g id="edge21" class="edge">
<title>Node17&#45;&gt;Node20</title>
<path fill="none" stroke="#191970" d="M641.9528,-118.5C631.7481,-118.5 621.2841,-118.5 611.2393,-118.5"/>
<polygon fill="#191970" stroke="#191970" points="642.046,-122.0001 652.0459,-118.5 642.0459,-115.0001 642.046,-122.0001"/>
</g>
<!-- Node22 -->
<g id="node22" class="node">
<title>Node22</title>
<g id="a_node22"><a xlink:href="class_l_f_s_t_k__list_gadget_class_acf5ccc1d522f0d8a3b23e392b7ce30a5.xhtml#acf5ccc1d522f0d8a3b23e392b7ce30a5" target="_top" xlink:title=" ">
<polygon fill="none" stroke="#000000" points="488.5265,-51.5 488.5265,-83.5 611.2085,-83.5 611.2085,-51.5 488.5265,-51.5"/>
<text text-anchor="start" x="496.5265" y="-70.5" font-family="Helvetica,sans-Serif" font-size="10.00" fill="#000000">LFSTK_listGadgetClass</text>
<text text-anchor="middle" x="549.8675" y="-58.5" font-family="Helvetica,sans-Serif" font-size="10.00" fill="#000000">::selectKey</text>
</a>
</g>
</g>
<!-- Node17&#45;&gt;Node22 -->
<g id="edge23" class="edge">
<title>Node17&#45;&gt;Node22</title>
<path fill="none" stroke="#191970" d="M649.7052,-99.2003C633.4285,-94.0322 616.0125,-88.5023 600.3582,-83.5317"/>
<polygon fill="#191970" stroke="#191970" points="649.0764,-102.6728 659.6667,-102.3633 651.1948,-96.001 649.0764,-102.6728"/>
</g>
<!-- Node21 -->
<g id="node21" class="node">
<title>Node21</title>
<g id="a_node21"><a xlink:href="class_l_f_s_t_k__list_gadget_class_ae3518016f28ec3cd261ad927c5691826.xhtml#ae3518016f28ec3cd261ad927c5691826" target="_top" xlink:title=" ">
<polygon fill="none" stroke="#000000" points="322.348,-77.5 322.348,-109.5 450.588,-109.5 450.588,-77.5 322.348,-77.5"/>
<text text-anchor="start" x="330.348" y="-96.5" font-family="Helvetica,sans-Serif" font-size="10.00" fill="#000000">LFSTK_listGadgetClass</text>
<text text-anchor="middle" x="386.468" y="-84.5" font-family="Helvetica,sans-Serif" font-size="10.00" fill="#000000">::LFSTK_listGadgetClass</text>
</a>
</g>
</g>
<!-- Node20&#45;&gt;Node21 -->
<g id="edge22" class="edge">
<title>Node20&#45;&gt;Node21</title>
<path fill="none" stroke="#191970" d="M477.9674,-107.4993C468.9162,-106.1145 459.7022,-104.7048 450.7784,-103.3394"/>
<polygon fill="#191970" stroke="#191970" points="477.6788,-110.9958 488.0932,-109.0486 478.7375,-104.0764 477.6788,-110.9958"/>
</g>
<!-- Node22&#45;&gt;Node21 -->
<g id="edge24" class="edge">
<title>Node22&#45;&gt;Node21</title>
<path fill="none" stroke="#191970" d="M477.9674,-78.9407C468.9162,-80.3809 459.7022,-81.847 450.7784,-83.267"/>
<polygon fill="#191970" stroke="#191970" points="478.7674,-82.3575 488.0932,-77.3295 477.6674,-75.4445 478.7674,-82.3575"/>
</g>
<!-- Node24 -->
<g id="node24" class="node">
<title>Node24</title>
<g id="a_node24"><a xlink:href="class_l_f_s_t_k__scroll_bar_class_a1aa54518e56118cc5f92890b7269c3d1.xhtml#a1aa54518e56118cc5f92890b7269c3d1" target="_top" xlink:title=" ">
<polygon fill="none" stroke="#000000" points="652.2015,-51.5 652.2015,-83.5 768.7745,-83.5 768.7745,-51.5 652.2015,-51.5"/>
<text text-anchor="start" x="660.2015" y="-70.5" font-family="Helvetica,sans-Serif" font-size="10.00" fill="#000000">LFSTK_scrollBarClass</text>
<text text-anchor="middle" x="710.488" y="-58.5" font-family="Helvetica,sans-Serif" font-size="10.00" fill="#000000">::LFSTK_scrollByPage</text>
</a>
</g>
</g>
<!-- Node23&#45;&gt;Node24 -->
<g id="edge27" class="edge">
<title>Node23&#45;&gt;Node24</title>
<path fill="none" stroke="#191970" d="M797.7899,-81.525C788.1716,-79.9799 778.3569,-78.4031 768.9455,-76.8912"/>
<polygon fill="#191970" stroke="#191970" points="797.2883,-84.9892 807.7169,-83.1198 798.3986,-78.0779 797.2883,-84.9892"/>
</g>
<!-- Node24&#45;&gt;Node18 -->
<g id="edge28" class="edge">
<title>Node24&#45;&gt;Node18</title>
<path fill="none" stroke="#191970" d="M649.7052,-48.2003C633.4285,-43.0322 616.0125,-37.5023 600.3582,-32.5317"/>
<polygon fill="#191970" stroke="#191970" points="649.0764,-51.6728 659.6667,-51.3633 651.1948,-45.001 649.0764,-51.6728"/>
</g>
<!-- Node24&#45;&gt;Node22 -->
<g id="edge29" class="edge">
<title>Node24&#45;&gt;Node22</title>
<path fill="none" stroke="#191970" d="M641.9528,-67.5C631.7481,-67.5 621.2841,-67.5 611.2393,-67.5"/>
<polygon fill="#191970" stroke="#191970" points="642.046,-71.0001 652.0459,-67.5 642.0459,-64.0001 642.046,-71.0001"/>
</g>
</g>
</svg>
