<?xml version="1.0" encoding="UTF-8" standalone="no"?>
<!DOCTYPE svg PUBLIC "-//W3C//DTD SVG 1.1//EN"
 "http://www.w3.org/Graphics/SVG/1.1/DTD/svg11.dtd">
<!-- Generated by graphviz version 2.40.1 (20161225.0304)
 -->
<!-- Title: LFSTK_gadgetClass::LFSTK_setLabelGravity Pages: 1 -->
<svg width="955pt" height="245pt"
 viewBox="0.00 0.00 954.64 245.00" xmlns="http://www.w3.org/2000/svg" xmlns:xlink="http://www.w3.org/1999/xlink">
<g id="graph0" class="graph" transform="scale(1 1) rotate(0) translate(4 241)">
<title>LFSTK_gadgetClass::LFSTK_setLabelGravity</title>
<!-- Node1 -->
<g id="node1" class="node">
<title>Node1</title>
<g id="a_node1"><a xlink:title=" ">
<polygon fill="#bfbfbf" stroke="#000000" points="824.513,-102.5 824.513,-134.5 946.645,-134.5 946.645,-102.5 824.513,-102.5"/>
<text text-anchor="start" x="832.513" y="-121.5" font-family="Helvetica,sans-Serif" font-size="10.00" fill="#000000">LFSTK_gadgetClass::</text>
<text text-anchor="middle" x="885.579" y="-109.5" font-family="Helvetica,sans-Serif" font-size="10.00" fill="#000000">LFSTK_setLabelGravity</text>
</a>
</g>
</g>
<!-- Node2 -->
<g id="node2" class="node">
<title>Node2</title>
<g id="a_node2"><a xlink:href="class_l_f_s_t_k__label_class_a6085feaa122a3d1060351c659889628c.xhtml#a6085feaa122a3d1060351c659889628c" target="_top" xlink:title=" ">
<polygon fill="none" stroke="#000000" points="651.1,-204.5 651.1,-236.5 786.559,-236.5 786.559,-204.5 651.1,-204.5"/>
<text text-anchor="start" x="659.1" y="-223.5" font-family="Helvetica,sans-Serif" font-size="10.00" fill="#000000">LFSTK_labelClass::LFSTK</text>
<text text-anchor="middle" x="718.8295" y="-211.5" font-family="Helvetica,sans-Serif" font-size="10.00" fill="#000000">_labelClass</text>
</a>
</g>
</g>
<!-- Node1&#45;&gt;Node2 -->
<g id="edge1" class="edge">
<title>Node1&#45;&gt;Node2</title>
<path fill="none" stroke="#191970" d="M861.4472,-141.3493C842.7217,-158.1199 815.489,-180.4976 788.513,-195.5 782.672,-198.7484 776.3288,-201.7086 769.9284,-204.3637"/>
<polygon fill="#191970" stroke="#191970" points="863.886,-143.8623 868.926,-134.543 859.1744,-138.6852 863.886,-143.8623"/>
</g>
<!-- Node3 -->
<g id="node3" class="node">
<title>Node3</title>
<g id="a_node3"><a xlink:href="class_l_f_s_t_k__menu_item_class_a382a9775dff59f06606ef0b3f43382cc.xhtml#a382a9775dff59f06606ef0b3f43382cc" target="_top" xlink:title=" ">
<polygon fill="none" stroke="#000000" points="654.989,-153.5 654.989,-185.5 782.67,-185.5 782.67,-153.5 654.989,-153.5"/>
<text text-anchor="start" x="662.989" y="-172.5" font-family="Helvetica,sans-Serif" font-size="10.00" fill="#000000">LFSTK_menuItemClass</text>
<text text-anchor="middle" x="718.8295" y="-160.5" font-family="Helvetica,sans-Serif" font-size="10.00" fill="#000000">::LFSTK_menuItemClass</text>
</a>
</g>
</g>
<!-- Node1&#45;&gt;Node3 -->
<g id="edge2" class="edge">
<title>Node1&#45;&gt;Node3</title>
<path fill="none" stroke="#191970" d="M822.9548,-137.6535C805.9203,-142.8634 787.6518,-148.4508 771.2469,-153.4683"/>
<polygon fill="#191970" stroke="#191970" points="824.2794,-140.9085 832.8184,-134.6367 822.232,-134.2146 824.2794,-140.9085"/>
</g>
<!-- Node4 -->
<g id="node4" class="node">
<title>Node4</title>
<g id="a_node4"><a xlink:href="class_l_f_s_t_k__list_gadget_class_abc8e7de85afdd0ddd7639668e579cd4e.xhtml#abc8e7de85afdd0ddd7639668e579cd4e" target="_top" xlink:title=" ">
<polygon fill="none" stroke="#000000" points="657.4885,-102.5 657.4885,-134.5 780.1705,-134.5 780.1705,-102.5 657.4885,-102.5"/>
<text text-anchor="start" x="665.4885" y="-121.5" font-family="Helvetica,sans-Serif" font-size="10.00" fill="#000000">LFSTK_listGadgetClass</text>
<text text-anchor="middle" x="718.8295" y="-109.5" font-family="Helvetica,sans-Serif" font-size="10.00" fill="#000000">::LFSTK_setList</text>
</a>
</g>
</g>
<!-- Node1&#45;&gt;Node4 -->
<g id="edge3" class="edge">
<title>Node1&#45;&gt;Node4</title>
<path fill="none" stroke="#191970" d="M814.1714,-118.5C802.8779,-118.5 791.2852,-118.5 780.2456,-118.5"/>
<polygon fill="#191970" stroke="#191970" points="814.4345,-122.0001 824.4345,-118.5 814.4345,-115.0001 814.4345,-122.0001"/>
</g>
<!-- Node13 -->
<g id="node13" class="node">
<title>Node13</title>
<g id="a_node13"><a xlink:href="class_l_f_s_t_k__toggle_button_class_a7fe467d9c2800bdcc5686dd013f96c3c.xhtml#a7fe467d9c2800bdcc5686dd013f96c3c" target="_top" xlink:title=" ">
<polygon fill="none" stroke="#000000" points="651.925,-51.5 651.925,-83.5 785.734,-83.5 785.734,-51.5 651.925,-51.5"/>
<text text-anchor="start" x="659.925" y="-70.5" font-family="Helvetica,sans-Serif" font-size="10.00" fill="#000000">LFSTK_toggleButtonClass</text>
<text text-anchor="middle" x="718.8295" y="-58.5" font-family="Helvetica,sans-Serif" font-size="10.00" fill="#000000">::LFSTK_setToggleStyle</text>
</a>
</g>
</g>
<!-- Node1&#45;&gt;Node13 -->
<g id="edge13" class="edge">
<title>Node1&#45;&gt;Node13</title>
<path fill="none" stroke="#191970" d="M822.9548,-99.3465C805.9203,-94.1366 787.6518,-88.5492 771.2469,-83.5317"/>
<polygon fill="#191970" stroke="#191970" points="822.232,-102.7854 832.8184,-102.3633 824.2794,-96.0915 822.232,-102.7854"/>
</g>
<!-- Node14 -->
<g id="node14" class="node">
<title>Node14</title>
<g id="a_node14"><a xlink:href="class_l_f_s_t_k__toggle_button_class_a4cc0929a4d4113b9b40a3bdc54898ab7.xhtml#a4cc0929a4d4113b9b40a3bdc54898ab7" target="_top" xlink:title=" ">
<polygon fill="none" stroke="#000000" points="649.146,-.5 649.146,-32.5 788.513,-32.5 788.513,-.5 649.146,-.5"/>
<text text-anchor="start" x="657.146" y="-19.5" font-family="Helvetica,sans-Serif" font-size="10.00" fill="#000000">LFSTK_toggleButtonClass</text>
<text text-anchor="middle" x="718.8295" y="-7.5" font-family="Helvetica,sans-Serif" font-size="10.00" fill="#000000">::LFSTK_toggleButtonClass</text>
</a>
</g>
</g>
<!-- Node1&#45;&gt;Node14 -->
<g id="edge14" class="edge">
<title>Node1&#45;&gt;Node14</title>
<path fill="none" stroke="#191970" d="M861.4472,-95.6507C842.7217,-78.8801 815.489,-56.5024 788.513,-41.5 782.672,-38.2516 776.3288,-35.2914 769.9284,-32.6363"/>
<polygon fill="#191970" stroke="#191970" points="859.1744,-98.3148 868.926,-102.457 863.886,-93.1377 859.1744,-98.3148"/>
</g>
<!-- Node5 -->
<g id="node5" class="node">
<title>Node5</title>
<g id="a_node5"><a xlink:href="class_l_f_s_t_k__font_dialog_class_af866eb2b1ba8178c9cf3e751716fcc8e.xhtml#af866eb2b1ba8178c9cf3e751716fcc8e" target="_top" xlink:title=" ">
<polygon fill="none" stroke="#000000" points="488.526,-153.5 488.526,-185.5 611.207,-185.5 611.207,-153.5 488.526,-153.5"/>
<text text-anchor="start" x="496.526" y="-172.5" font-family="Helvetica,sans-Serif" font-size="10.00" fill="#000000">LFSTK_fontDialogClass</text>
<text text-anchor="middle" x="549.8665" y="-160.5" font-family="Helvetica,sans-Serif" font-size="10.00" fill="#000000">::buildDialog</text>
</a>
</g>
</g>
<!-- Node4&#45;&gt;Node5 -->
<g id="edge4" class="edge">
<title>Node4&#45;&gt;Node5</title>
<path fill="none" stroke="#191970" d="M655.374,-137.6535C638.1134,-142.8634 619.6023,-148.4508 602.9797,-153.4683"/>
<polygon fill="#191970" stroke="#191970" points="656.8065,-140.8771 665.3686,-134.6367 654.7837,-134.1757 656.8065,-140.8771"/>
</g>
<!-- Node7 -->
<g id="node7" class="node">
<title>Node7</title>
<g id="a_node7"><a xlink:href="class_l_f_s_t_k__file_dialog_class_a0a6b4f1db71031bf35a7636b736e8698.xhtml#a0a6b4f1db71031bf35a7636b736e8698" target="_top" xlink:title=" ">
<polygon fill="none" stroke="#000000" points="490.476,-102.5 490.476,-134.5 609.257,-134.5 609.257,-102.5 490.476,-102.5"/>
<text text-anchor="start" x="498.476" y="-121.5" font-family="Helvetica,sans-Serif" font-size="10.00" fill="#000000">LFSTK_fileDialogClass</text>
<text text-anchor="middle" x="549.8665" y="-109.5" font-family="Helvetica,sans-Serif" font-size="10.00" fill="#000000">::getFileList</text>
</a>
</g>
</g>
<!-- Node4&#45;&gt;Node7 -->
<g id="edge6" class="edge">
<title>Node4&#45;&gt;Node7</title>
<path fill="none" stroke="#191970" d="M647.3101,-118.5C634.6545,-118.5 621.6013,-118.5 609.3233,-118.5"/>
<polygon fill="#191970" stroke="#191970" points="647.352,-122.0001 657.352,-118.5 647.352,-115.0001 647.352,-122.0001"/>
</g>
<!-- Node12 -->
<g id="node12" class="node">
<title>Node12</title>
<g id="a_node12"><a xlink:href="class_l_f_s_t_k__list_gadget_class_addcdb5ba330fd8dd36beb94ea2081dd3.xhtml#addcdb5ba330fd8dd36beb94ea2081dd3" target="_top" xlink:title=" ">
<polygon fill="none" stroke="#000000" points="486.587,-51.5 486.587,-83.5 613.146,-83.5 613.146,-51.5 486.587,-51.5"/>
<text text-anchor="start" x="494.587" y="-70.5" font-family="Helvetica,sans-Serif" font-size="10.00" fill="#000000">LFSTK_listGadgetClass</text>
<text text-anchor="middle" x="549.8665" y="-58.5" font-family="Helvetica,sans-Serif" font-size="10.00" fill="#000000">::LFSTK_setListFromFile</text>
</a>
</g>
</g>
<!-- Node4&#45;&gt;Node12 -->
<g id="edge12" class="edge">
<title>Node4&#45;&gt;Node12</title>
<path fill="none" stroke="#191970" d="M655.374,-99.3465C638.1134,-94.1366 619.6023,-88.5492 602.9797,-83.5317"/>
<polygon fill="#191970" stroke="#191970" points="654.7837,-102.8243 665.3686,-102.3633 656.8065,-96.1229 654.7837,-102.8243"/>
</g>
<!-- Node6 -->
<g id="node6" class="node">
<title>Node6</title>
<g id="a_node6"><a xlink:href="class_l_f_s_t_k__font_dialog_class_ab7b6a4bca99713646ab6ac77dc34827c.xhtml#ab7b6a4bca99713646ab6ac77dc34827c" target="_top" xlink:title=" ">
<polygon fill="none" stroke="#000000" points="322.348,-153.5 322.348,-185.5 450.587,-185.5 450.587,-153.5 322.348,-153.5"/>
<text text-anchor="start" x="330.348" y="-172.5" font-family="Helvetica,sans-Serif" font-size="10.00" fill="#000000">LFSTK_fontDialogClass</text>
<text text-anchor="middle" x="386.4675" y="-160.5" font-family="Helvetica,sans-Serif" font-size="10.00" fill="#000000">::LFSTK_fontDialogClass</text>
</a>
</g>
</g>
<!-- Node5&#45;&gt;Node6 -->
<g id="edge5" class="edge">
<title>Node5&#45;&gt;Node6</title>
<path fill="none" stroke="#191970" d="M477.9666,-169.5C468.9154,-169.5 459.7015,-169.5 450.7778,-169.5"/>
<polygon fill="#191970" stroke="#191970" points="478.0924,-173.0001 488.0923,-169.5 478.0923,-166.0001 478.0924,-173.0001"/>
</g>
<!-- Node8 -->
<g id="node8" class="node">
<title>Node8</title>
<g id="a_node8"><a xlink:href="class_l_f_s_t_k__file_dialog_class_a553ce8e885b0d60cbf515b7b3d1e8b65.xhtml#a553ce8e885b0d60cbf515b7b3d1e8b65" target="_top" xlink:title=" ">
<polygon fill="none" stroke="#000000" points="0,-57.5 0,-89.5 124.339,-89.5 124.339,-57.5 0,-57.5"/>
<text text-anchor="start" x="8" y="-76.5" font-family="Helvetica,sans-Serif" font-size="10.00" fill="#000000">LFSTK_fileDialogClass</text>
<text text-anchor="middle" x="62.1695" y="-64.5" font-family="Helvetica,sans-Serif" font-size="10.00" fill="#000000">::LFSTK_fileDialogClass</text>
</a>
</g>
</g>
<!-- Node7&#45;&gt;Node8 -->
<g id="edge7" class="edge">
<title>Node7&#45;&gt;Node8</title>
<path fill="none" stroke="#191970" d="M480.1099,-120.7702C401.7549,-122.1337 271.0533,-120.8382 160.339,-102.5 142.9818,-99.625 124.3679,-94.6367 108.0651,-89.5995"/>
<polygon fill="#191970" stroke="#191970" points="480.4105,-124.2651 490.3407,-120.5718 480.2747,-117.2665 480.4105,-124.2651"/>
</g>
<!-- Node9 -->
<g id="node9" class="node">
<title>Node9</title>
<g id="a_node9"><a xlink:href="class_l_f_s_t_k__file_dialog_class_aa8804989d381def9acb2c99d47d6dc3d.xhtml#aa8804989d381def9acb2c99d47d6dc3d" target="_top" xlink:title=" ">
<polygon fill="none" stroke="#000000" points="325.967,-60.5 325.967,-92.5 446.968,-92.5 446.968,-60.5 325.967,-60.5"/>
<text text-anchor="start" x="333.967" y="-79.5" font-family="Helvetica,sans-Serif" font-size="10.00" fill="#000000">LFSTK_fileDialogClass</text>
<text text-anchor="middle" x="386.4675" y="-67.5" font-family="Helvetica,sans-Serif" font-size="10.00" fill="#000000">::LFSTK_setWorkingDir</text>
</a>
</g>
</g>
<!-- Node7&#45;&gt;Node9 -->
<g id="edge8" class="edge">
<title>Node7&#45;&gt;Node9</title>
<path fill="none" stroke="#191970" d="M480.6738,-100.7147C469.4717,-97.8353 457.9482,-94.8734 446.973,-92.0523"/>
<polygon fill="#191970" stroke="#191970" points="479.857,-104.1185 490.4135,-103.2182 481.5997,-97.3389 479.857,-104.1185"/>
</g>
<!-- Node10 -->
<g id="node10" class="node">
<title>Node10</title>
<g id="a_node10"><a xlink:href="class_l_f_s_t_k__file_dialog_class_aacf1d4b61cbb5b40d06f591ea96f9ea7.xhtml#aacf1d4b61cbb5b40d06f591ea96f9ea7" target="_top" xlink:title=" ">
<polygon fill="none" stroke="#000000" points="160.339,-60.5 160.339,-92.5 286.348,-92.5 286.348,-60.5 160.339,-60.5"/>
<text text-anchor="start" x="168.339" y="-79.5" font-family="Helvetica,sans-Serif" font-size="10.00" fill="#000000">LFSTK_fileDialogClass</text>
<text text-anchor="middle" x="223.3435" y="-67.5" font-family="Helvetica,sans-Serif" font-size="10.00" fill="#000000">::LFSTK_showFileDialog</text>
</a>
</g>
</g>
<!-- Node9&#45;&gt;Node10 -->
<g id="edge9" class="edge">
<title>Node9&#45;&gt;Node10</title>
<path fill="none" stroke="#191970" d="M315.7256,-76.5C306.0345,-76.5 296.1359,-76.5 286.5902,-76.5"/>
<polygon fill="#191970" stroke="#191970" points="315.7262,-80.0001 325.7261,-76.5 315.7261,-73.0001 315.7262,-80.0001"/>
</g>
<!-- Node11 -->
<g id="node11" class="node">
<title>Node11</title>
<g id="a_node11"><a xlink:href="class_l_f_s_t_k__file_dialog_class_a789cade9437906181e31a243c85d52e5.xhtml#a789cade9437906181e31a243c85d52e5" target="_top" xlink:title=" ">
<polygon fill="none" stroke="#000000" points="163.953,-9.5 163.953,-41.5 282.734,-41.5 282.734,-9.5 163.953,-9.5"/>
<text text-anchor="start" x="171.953" y="-28.5" font-family="Helvetica,sans-Serif" font-size="10.00" fill="#000000">LFSTK_fileDialogClass</text>
<text text-anchor="middle" x="223.3435" y="-16.5" font-family="Helvetica,sans-Serif" font-size="10.00" fill="#000000">::select</text>
</a>
</g>
</g>
<!-- Node9&#45;&gt;Node11 -->
<g id="edge10" class="edge">
<title>Node9&#45;&gt;Node11</title>
<path fill="none" stroke="#191970" d="M325.2049,-57.3465C308.5408,-52.1366 290.6694,-46.5492 274.6212,-41.5317"/>
<polygon fill="#191970" stroke="#191970" points="324.2652,-60.7197 334.854,-60.3633 326.3541,-54.0387 324.2652,-60.7197"/>
</g>
<!-- Node11&#45;&gt;Node8 -->
<g id="edge11" class="edge">
<title>Node11&#45;&gt;Node8</title>
<path fill="none" stroke="#191970" d="M159.442,-44.5308C145.1046,-48.8007 130.0303,-53.29 116.1436,-57.4257"/>
<polygon fill="#191970" stroke="#191970" points="160.6415,-47.8256 169.2265,-41.6168 158.6435,-41.1168 160.6415,-47.8256"/>
</g>
</g>
</svg>
