<?xml version="1.0" encoding="UTF-8" standalone="no"?>
<!DOCTYPE svg PUBLIC "-//W3C//DTD SVG 1.1//EN"
 "http://www.w3.org/Graphics/SVG/1.1/DTD/svg11.dtd">
<!-- Generated by graphviz version 2.40.1 (20161225.0304)
 -->
<!-- Title: LFSTK_fileDialogClass::LFSTK_getLastFolder Pages: 1 -->
<svg width="289pt" height="92pt"
 viewBox="0.00 0.00 289.37 92.00" xmlns="http://www.w3.org/2000/svg" xmlns:xlink="http://www.w3.org/1999/xlink">
<g id="graph0" class="graph" transform="scale(1 1) rotate(0) translate(4 88)">
<title>LFSTK_fileDialogClass::LFSTK_getLastFolder</title>
<!-- Node1 -->
<g id="node1" class="node">
<title>Node1</title>
<g id="a_node1"><a xlink:title=" ">
<polygon fill="#bfbfbf" stroke="#000000" points="162.009,-25.5 162.009,-57.5 281.369,-57.5 281.369,-25.5 162.009,-25.5"/>
<text text-anchor="start" x="170.009" y="-44.5" font-family="Helvetica,sans-Serif" font-size="10.00" fill="#000000">LFSTK_fileDialogClass</text>
<text text-anchor="middle" x="221.689" y="-32.5" font-family="Helvetica,sans-Serif" font-size="10.00" fill="#000000">::LFSTK_getLastFolder</text>
</a>
</g>
</g>
<!-- Node2 -->
<g id="node2" class="node">
<title>Node2</title>
<g id="a_node2"><a xlink:href="class_l_f_s_t_k__file_dialog_class_a553ce8e885b0d60cbf515b7b3d1e8b65.xhtml#a553ce8e885b0d60cbf515b7b3d1e8b65" target="_top" xlink:title=" ">
<polygon fill="none" stroke="#000000" points=".835,-51.5 .835,-83.5 125.174,-83.5 125.174,-51.5 .835,-51.5"/>
<text text-anchor="start" x="8.835" y="-70.5" font-family="Helvetica,sans-Serif" font-size="10.00" fill="#000000">LFSTK_fileDialogClass</text>
<text text-anchor="middle" x="63.0045" y="-58.5" font-family="Helvetica,sans-Serif" font-size="10.00" fill="#000000">::LFSTK_fileDialogClass</text>
</a>
</g>
</g>
<!-- Node1&#45;&gt;Node2 -->
<g id="edge1" class="edge">
<title>Node1&#45;&gt;Node2</title>
<path fill="none" stroke="#191970" d="M151.7901,-52.9527C142.9341,-54.4038 133.9189,-55.8809 125.1943,-57.3104"/>
<polygon fill="#191970" stroke="#191970" points="152.3947,-56.4004 161.6972,-51.3295 151.2628,-49.4925 152.3947,-56.4004"/>
</g>
<!-- Node3 -->
<g id="node3" class="node">
<title>Node3</title>
<g id="a_node3"><a xlink:href="class_l_f_s_t_k__file_dialog_class_aacf1d4b61cbb5b40d06f591ea96f9ea7.xhtml#aacf1d4b61cbb5b40d06f591ea96f9ea7" target="_top" xlink:title=" ">
<polygon fill="none" stroke="#000000" points="0,-.5 0,-32.5 126.009,-32.5 126.009,-.5 0,-.5"/>
<text text-anchor="start" x="8" y="-19.5" font-family="Helvetica,sans-Serif" font-size="10.00" fill="#000000">LFSTK_fileDialogClass</text>
<text text-anchor="middle" x="63.0045" y="-7.5" font-family="Helvetica,sans-Serif" font-size="10.00" fill="#000000">::LFSTK_showFileDialog</text>
</a>
</g>
</g>
<!-- Node1&#45;&gt;Node3 -->
<g id="edge2" class="edge">
<title>Node1&#45;&gt;Node3</title>
<path fill="none" stroke="#191970" d="M151.8069,-30.4904C143.304,-29.1508 134.654,-27.788 126.2552,-26.4648"/>
<polygon fill="#191970" stroke="#191970" points="151.2743,-33.9496 161.6972,-32.0486 152.3638,-27.0349 151.2743,-33.9496"/>
</g>
</g>
</svg>
