<?xml version="1.0" encoding="UTF-8" standalone="no"?>
<!DOCTYPE svg PUBLIC "-//W3C//DTD SVG 1.1//EN"
 "http://www.w3.org/Graphics/SVG/1.1/DTD/svg11.dtd">
<!-- Generated by graphviz version 2.40.1 (20161225.0304)
 -->
<!-- Title: LFSTK_windowClass::LFSTK_handleDnD Pages: 1 -->
<!--zoomable 296 -->
<svg id="main" version="1.1" xmlns="http://www.w3.org/2000/svg" xmlns:xlink="http://www.w3.org/1999/xlink" xml:space="preserve" onload="init(evt)">
<style type="text/css"><![CDATA[
.edge:hover path { stroke: red; }
.edge:hover polygon { stroke: red; fill: red; }
]]></style>
<script type="text/javascript"><![CDATA[
var edges = document.getElementsByTagName('g');
if (edges && edges.length) {
  for (var i=0;i<edges.length;i++) {
    if (edges[i].id.substr(0,4)=='edge') {
      edges[i].setAttribute('class','edge');
    }
  }
}
]]></script>
        <defs>
                <circle id="rim" cx="0" cy="0" r="7"/>
                <circle id="rim2" cx="0" cy="0" r="3.5"/>
                <g id="zoomPlus">
                        <use xlink:href="#rim" fill="#404040">
                                <set attributeName="fill" to="#808080" begin="zoomplus.mouseover" end="zoomplus.mouseout"/>
                        </use>
                        <path d="M-4,0h8M0,-4v8" fill="none" stroke="white" stroke-width="1.5" pointer-events="none"/>
                </g>
                <g id="zoomMin">
                        <use xlink:href="#rim" fill="#404040">
                                <set attributeName="fill" to="#808080" begin="zoomminus.mouseover" end="zoomminus.mouseout"/>
                        </use>
                        <path d="M-4,0h8" fill="none" stroke="white" stroke-width="1.5" pointer-events="none"/>
                </g>
                <g id="dirArrow">
                        <path fill="none" stroke="white" stroke-width="1.5" d="M0,-3.0v7 M-2.5,-0.5L0,-3.0L2.5,-0.5"/>
                </g>
               <g id="resetDef">
                       <use xlink:href="#rim2" fill="#404040">
                               <set attributeName="fill" to="#808080" begin="reset.mouseover" end="reset.mouseout"/>
                       </use>
               </g>
        </defs>

<script type="text/javascript">
var viewWidth = 623;
var viewHeight = 296;
var sectionId = 'dynsection-0';
</script>
<script xlink:href="svgpan.js"/>
<svg id="graph" class="graph">
<g id="viewport">
<title>LFSTK_windowClass::LFSTK_handleDnD</title>
<!-- Node1 -->
<g id="node1" class="node">
<title>Node1</title>
<g id="a_node1"><a xlink:title=" ">
<polygon fill="#bfbfbf" stroke="#000000" points="0,-127.5 0,-159.5 116.563,-159.5 116.563,-127.5 0,-127.5"/>
<text text-anchor="start" x="8" y="-146.5" font-family="Helvetica,sans-Serif" font-size="10.00" fill="#000000">LFSTK_windowClass::</text>
<text text-anchor="middle" x="58.2815" y="-134.5" font-family="Helvetica,sans-Serif" font-size="10.00" fill="#000000">LFSTK_handleDnD</text>
</a>
</g>
</g>
<!-- Node2 -->
<g id="node2" class="node">
<title>Node2</title>
<g id="a_node2"><a xlink:href="class_l_f_s_t_k__gadget_class_a5a73fbb58bdb779f2898d6fb3946f88f.xhtml#a5a73fbb58bdb779f2898d6fb3946f88f" target="_top" xlink:title=" ">
<polygon fill="none" stroke="#000000" points="160.902,-255.5 160.902,-287.5 274.705,-287.5 274.705,-255.5 160.902,-255.5"/>
<text text-anchor="start" x="168.902" y="-274.5" font-family="Helvetica,sans-Serif" font-size="10.00" fill="#000000">LFSTK_gadgetClass::</text>
<text text-anchor="middle" x="217.8035" y="-262.5" font-family="Helvetica,sans-Serif" font-size="10.00" fill="#000000">LFSTK_dropData</text>
</a>
</g>
</g>
<!-- Node1&#45;&gt;Node2 -->
<g id="edge1" class="edge">
<title>Node1&#45;&gt;Node2</title>
<path fill="none" stroke="#191970" d="M69.2717,-159.5956C85.246,-181.9051 116.8941,-222.2152 152.563,-246.5 154.7124,-247.9634 156.9593,-249.357 159.2723,-250.6823"/>
<polygon fill="#191970" stroke="#191970" points="157.9683,-253.9491 168.4551,-255.458 161.1982,-247.7387 157.9683,-253.9491"/>
</g>
<!-- Node3 -->
<g id="node3" class="node">
<title>Node3</title>
<g id="a_node3"><a xlink:href="class_l_f_s_t_k__window_class_a0e58784df7f862be4f5d425abbd28260.xhtml#a0e58784df7f862be4f5d425abbd28260" target="_top" xlink:title=" ">
<polygon fill="none" stroke="#000000" points="159.522,-204.5 159.522,-236.5 276.085,-236.5 276.085,-204.5 159.522,-204.5"/>
<text text-anchor="start" x="167.522" y="-223.5" font-family="Helvetica,sans-Serif" font-size="10.00" fill="#000000">LFSTK_windowClass::</text>
<text text-anchor="middle" x="217.8035" y="-211.5" font-family="Helvetica,sans-Serif" font-size="10.00" fill="#000000">LFSTK_dropData</text>
</a>
</g>
</g>
<!-- Node1&#45;&gt;Node3 -->
<g id="edge2" class="edge">
<title>Node1&#45;&gt;Node3</title>
<path fill="none" stroke="#191970" d="M84.9981,-159.5307C103.5996,-170.3683 129.1691,-184.6297 152.563,-195.5 156.1724,-197.1772 159.9283,-198.8351 163.734,-200.4512"/>
<polygon fill="#191970" stroke="#191970" points="162.6616,-203.7948 173.2409,-204.3692 165.3289,-197.3229 162.6616,-203.7948"/>
</g>
<!-- Node5 -->
<g id="node5" class="node">
<title>Node5</title>
<g id="a_node5"><a xlink:href="class_l_f_s_t_k__window_class_af3af0d986d119a7362bdfc6dbfb3814f.xhtml#af3af0d986d119a7362bdfc6dbfb3814f" target="_top" xlink:title=" ">
<polygon fill="none" stroke="#000000" points="152.563,-153.5 152.563,-185.5 283.044,-185.5 283.044,-153.5 152.563,-153.5"/>
<text text-anchor="start" x="160.563" y="-172.5" font-family="Helvetica,sans-Serif" font-size="10.00" fill="#000000">LFSTK_windowClass::</text>
<text text-anchor="middle" x="217.8035" y="-160.5" font-family="Helvetica,sans-Serif" font-size="10.00" fill="#000000">LFSTK_findGadgetByPos</text>
</a>
</g>
</g>
<!-- Node1&#45;&gt;Node5 -->
<g id="edge4" class="edge">
<title>Node1&#45;&gt;Node5</title>
<path fill="none" stroke="#191970" d="M116.7758,-153.0338C125.0843,-154.388 133.725,-155.7963 142.2999,-157.1939"/>
<polygon fill="#191970" stroke="#191970" points="141.8792,-160.6714 152.312,-158.8257 143.0053,-153.7626 141.8792,-160.6714"/>
</g>
<!-- Node7 -->
<g id="node7" class="node">
<title>Node7</title>
<g id="a_node7"><a xlink:href="class_l_f_s_t_k__window_class_a6bf9f2a3b003d8247f6b4244fac4d8a6.xhtml#a6bf9f2a3b003d8247f6b4244fac4d8a6" target="_top" xlink:title=" ">
<polygon fill="none" stroke="#000000" points="159.522,-102.5 159.522,-134.5 276.085,-134.5 276.085,-102.5 159.522,-102.5"/>
<text text-anchor="start" x="167.522" y="-121.5" font-family="Helvetica,sans-Serif" font-size="10.00" fill="#000000">LFSTK_windowClass::</text>
<text text-anchor="middle" x="217.8035" y="-109.5" font-family="Helvetica,sans-Serif" font-size="10.00" fill="#000000">pickTargetFromAtoms</text>
</a>
</g>
</g>
<!-- Node1&#45;&gt;Node7 -->
<g id="edge6" class="edge">
<title>Node1&#45;&gt;Node7</title>
<path fill="none" stroke="#191970" d="M116.7758,-134.3329C127.3963,-132.6685 138.5595,-130.919 149.4342,-129.2147"/>
<polygon fill="#191970" stroke="#191970" points="149.9788,-132.6722 159.3163,-127.666 148.8949,-125.7566 149.9788,-132.6722"/>
</g>
<!-- Node10 -->
<g id="node10" class="node">
<title>Node10</title>
<g id="a_node10"><a xlink:href="class_l_f_s_t_k__window_class_a851244a723058a6e0166fdbd50c16a6a.xhtml#a851244a723058a6e0166fdbd50c16a6a" target="_top" xlink:title=" ">
<polygon fill="none" stroke="#000000" points="157.8575,-51.5 157.8575,-83.5 277.7495,-83.5 277.7495,-51.5 157.8575,-51.5"/>
<text text-anchor="start" x="165.8575" y="-70.5" font-family="Helvetica,sans-Serif" font-size="10.00" fill="#000000">LFSTK_windowClass::</text>
<text text-anchor="middle" x="217.8035" y="-58.5" font-family="Helvetica,sans-Serif" font-size="10.00" fill="#000000">pickTargetFromTargets</text>
</a>
</g>
</g>
<!-- Node1&#45;&gt;Node10 -->
<g id="edge9" class="edge">
<title>Node1&#45;&gt;Node10</title>
<path fill="none" stroke="#191970" d="M86.7587,-127.3607C105.2559,-117.1375 130.0316,-103.9269 152.563,-93.5 156.8992,-91.4933 161.4367,-89.4917 166.0121,-87.5407"/>
<polygon fill="#191970" stroke="#191970" points="167.5237,-90.7025 175.4048,-83.6216 164.8281,-84.2423 167.5237,-90.7025"/>
</g>
<!-- Node11 -->
<g id="node11" class="node">
<title>Node11</title>
<g id="a_node11"><a xlink:href="class_l_f_s_t_k__window_class_a3cd028bfe046d77c234aa397f12dd4b8.xhtml#a3cd028bfe046d77c234aa397f12dd4b8" target="_top" xlink:title=" ">
<polygon fill="none" stroke="#000000" points="159.522,-.5 159.522,-32.5 276.085,-32.5 276.085,-.5 159.522,-.5"/>
<text text-anchor="start" x="167.522" y="-19.5" font-family="Helvetica,sans-Serif" font-size="10.00" fill="#000000">LFSTK_windowClass::</text>
<text text-anchor="middle" x="217.8035" y="-7.5" font-family="Helvetica,sans-Serif" font-size="10.00" fill="#000000">readProperty</text>
</a>
</g>
</g>
<!-- Node1&#45;&gt;Node11 -->
<g id="edge11" class="edge">
<title>Node1&#45;&gt;Node11</title>
<path fill="none" stroke="#191970" d="M69.661,-127.4256C85.8579,-105.5677 117.5097,-66.4562 152.563,-42.5 155.281,-40.6425 158.1513,-38.8876 161.1117,-37.2343"/>
<polygon fill="#191970" stroke="#191970" points="162.8961,-40.2528 170.2004,-32.5783 159.7045,-34.0227 162.8961,-40.2528"/>
</g>
<!-- Node4 -->
<g id="node4" class="node">
<title>Node4</title>
<g id="a_node4"><a xlink:href="class_l_f_s_t_k__lib_ac5fce97c4bbf2a3c4e500bdc22c994a9.xhtml#ac5fce97c4bbf2a3c4e500bdc22c994a9" target="_top" xlink:title=" ">
<polygon fill="none" stroke="#000000" points="319.044,-210.5 319.044,-230.5 462.849,-230.5 462.849,-210.5 319.044,-210.5"/>
<text text-anchor="middle" x="390.9465" y="-217.5" font-family="Helvetica,sans-Serif" font-size="10.00" fill="#000000">LFSTK_lib::LFSTK_oneLiner</text>
</a>
</g>
</g>
<!-- Node3&#45;&gt;Node4 -->
<g id="edge3" class="edge">
<title>Node3&#45;&gt;Node4</title>
<path fill="none" stroke="#191970" d="M276.4218,-220.5C286.8624,-220.5 297.9106,-220.5 308.8628,-220.5"/>
<polygon fill="#191970" stroke="#191970" points="308.8738,-224.0001 318.8738,-220.5 308.8738,-217.0001 308.8738,-224.0001"/>
</g>
<!-- Node6 -->
<g id="node6" class="node">
<title>Node6</title>
<g id="a_node6"><a xlink:href="class_l_f_s_t_k__gadget_class_a280fd2cd10bf4f67f11e9a7d43766bc5.xhtml#a280fd2cd10bf4f67f11e9a7d43766bc5" target="_top" xlink:title=" ">
<polygon fill="none" stroke="#000000" points="329.601,-153.5 329.601,-185.5 452.292,-185.5 452.292,-153.5 329.601,-153.5"/>
<text text-anchor="start" x="337.601" y="-172.5" font-family="Helvetica,sans-Serif" font-size="10.00" fill="#000000">LFSTK_gadgetClass::</text>
<text text-anchor="middle" x="390.9465" y="-160.5" font-family="Helvetica,sans-Serif" font-size="10.00" fill="#000000">LFSTK_getGlobalGeom</text>
</a>
</g>
</g>
<!-- Node5&#45;&gt;Node6 -->
<g id="edge5" class="edge">
<title>Node5&#45;&gt;Node6</title>
<path fill="none" stroke="#191970" d="M283.2614,-169.5C294.9641,-169.5 307.2149,-169.5 319.0856,-169.5"/>
<polygon fill="#191970" stroke="#191970" points="319.3962,-173.0001 329.3962,-169.5 319.3961,-166.0001 319.3962,-173.0001"/>
</g>
<!-- Node8 -->
<g id="node8" class="node">
<title>Node8</title>
<g id="a_node8"><a xlink:href="class_l_f_s_t_k__window_class_a75904179205b7c0dd78d5e9b6994bd63.xhtml#a75904179205b7c0dd78d5e9b6994bd63" target="_top" xlink:title=" ">
<polygon fill="none" stroke="#000000" points="332.665,-77.5 332.665,-109.5 449.228,-109.5 449.228,-77.5 332.665,-77.5"/>
<text text-anchor="start" x="340.665" y="-96.5" font-family="Helvetica,sans-Serif" font-size="10.00" fill="#000000">LFSTK_windowClass::</text>
<text text-anchor="middle" x="390.9465" y="-84.5" font-family="Helvetica,sans-Serif" font-size="10.00" fill="#000000">pickTargetFromList</text>
</a>
</g>
</g>
<!-- Node7&#45;&gt;Node8 -->
<g id="edge7" class="edge">
<title>Node7&#45;&gt;Node8</title>
<path fill="none" stroke="#191970" d="M276.4218,-110.0361C291.0886,-107.9184 306.9546,-105.6275 322.0689,-103.4452"/>
<polygon fill="#191970" stroke="#191970" points="322.9914,-106.8484 332.3885,-101.9551 321.991,-99.9202 322.9914,-106.8484"/>
</g>
<!-- Node9 -->
<g id="node9" class="node">
<title>Node9</title>
<g id="a_node9"><a xlink:href="class_l_f_s_t_k__window_class_a4de9ac1387e659aa1c14fa947061a6e8.xhtml#a4de9ac1387e659aa1c14fa947061a6e8" target="_top" xlink:title=" ">
<polygon fill="none" stroke="#000000" points="498.849,-77.5 498.849,-109.5 615.412,-109.5 615.412,-77.5 498.849,-77.5"/>
<text text-anchor="start" x="506.849" y="-96.5" font-family="Helvetica,sans-Serif" font-size="10.00" fill="#000000">LFSTK_windowClass::</text>
<text text-anchor="middle" x="557.1305" y="-84.5" font-family="Helvetica,sans-Serif" font-size="10.00" fill="#000000">getAtomName</text>
</a>
</g>
</g>
<!-- Node8&#45;&gt;Node9 -->
<g id="edge8" class="edge">
<title>Node8&#45;&gt;Node9</title>
<path fill="none" stroke="#191970" d="M449.5368,-93.5C462.1457,-93.5 475.5812,-93.5 488.5321,-93.5"/>
<polygon fill="#191970" stroke="#191970" points="488.7895,-97.0001 498.7894,-93.5 488.7894,-90.0001 488.7895,-97.0001"/>
</g>
<!-- Node10&#45;&gt;Node8 -->
<g id="edge10" class="edge">
<title>Node10&#45;&gt;Node8</title>
<path fill="none" stroke="#191970" d="M277.8746,-76.5206C292.2384,-78.6775 307.6794,-80.9962 322.3937,-83.2058"/>
<polygon fill="#191970" stroke="#191970" points="322.0334,-86.6908 332.4423,-84.7147 323.073,-79.7684 322.0334,-86.6908"/>
</g>
</g>
</svg>
        <g id="navigator" transform="translate(0 0)" fill="#404254">
                <rect fill="#f2f5e9" fill-opacity="0.5" stroke="#606060" stroke-width=".5" x="0" y="0" width="60" height="60"/>
                <use id="zoomplus" xlink:href="#zoomPlus" x="17" y="9" onmousedown="handleZoom(evt,'in')"/>
                <use id="zoomminus" xlink:href="#zoomMin" x="42" y="9" onmousedown="handleZoom(evt,'out')"/>
                <use id="reset" xlink:href="#resetDef" x="30" y="36" onmousedown="handleReset()"/>
                <g id="arrowUp" xlink:href="#dirArrow" transform="translate(30 24)" onmousedown="handlePan(0,-1)">
                  <use xlink:href="#rim" fill="#404040">
                        <set attributeName="fill" to="#808080" begin="arrowUp.mouseover" end="arrowUp.mouseout"/>
                  </use>
                  <path fill="none" stroke="white" stroke-width="1.5" d="M0,-3.0v7 M-2.5,-0.5L0,-3.0L2.5,-0.5"/>
                </g>
                <g id="arrowRight" xlink:href="#dirArrow" transform="rotate(90) translate(36 -43)" onmousedown="handlePan(1,0)">
                  <use xlink:href="#rim" fill="#404040">
                        <set attributeName="fill" to="#808080" begin="arrowRight.mouseover" end="arrowRight.mouseout"/>
                  </use>
                  <path fill="none" stroke="white" stroke-width="1.5" d="M0,-3.0v7 M-2.5,-0.5L0,-3.0L2.5,-0.5"/>
                </g>
                <g id="arrowDown" xlink:href="#dirArrow" transform="rotate(180) translate(-30 -48)" onmousedown="handlePan(0,1)">
                  <use xlink:href="#rim" fill="#404040">
                        <set attributeName="fill" to="#808080" begin="arrowDown.mouseover" end="arrowDown.mouseout"/>
                  </use>
                  <path fill="none" stroke="white" stroke-width="1.5" d="M0,-3.0v7 M-2.5,-0.5L0,-3.0L2.5,-0.5"/>
                </g>
                <g id="arrowLeft" xlink:href="#dirArrow" transform="rotate(270) translate(-36 17)" onmousedown="handlePan(-1,0)">
                  <use xlink:href="#rim" fill="#404040">
                        <set attributeName="fill" to="#808080" begin="arrowLeft.mouseover" end="arrowLeft.mouseout"/>
                  </use>
                  <path fill="none" stroke="white" stroke-width="1.5" d="M0,-3.0v7 M-2.5,-0.5L0,-3.0L2.5,-0.5"/>
                </g>
        </g>
        <svg viewBox="0 0 15 15" width="100%" height="30px" preserveAspectRatio="xMaxYMin meet">
         <g id="arrow_out" transform="scale(0.3 0.3)">
          <a xlink:href="class_l_f_s_t_k__window_class_a2cef240ff812e56a57ccb6a087edb8cd_a2cef240ff812e56a57ccb6a087edb8cd_cgraph_org.svg" target="_base">
           <rect id="button" ry="5" rx="5" y="6" x="6" height="38" width="38"
                fill="#f2f5e9" fill-opacity="0.5" stroke="#606060" stroke-width="1.0"/>
           <path id="arrow"
             d="M 11.500037,31.436501 C 11.940474,20.09759 22.043105,11.32322 32.158766,21.979434 L 37.068811,17.246167 C 37.068811,17.246167 37.088388,32 37.088388,32 L 22.160133,31.978069 C 22.160133,31.978069 26.997745,27.140456 26.997745,27.140456 C 18.528582,18.264221 13.291696,25.230495 11.500037,31.436501 z"
             style="fill:#404040;"/>
          </a>
         </g>
        </svg>
</svg>
