<?xml version="1.0" encoding="UTF-8" standalone="no"?>
<!DOCTYPE svg PUBLIC "-//W3C//DTD SVG 1.1//EN"
 "http://www.w3.org/Graphics/SVG/1.1/DTD/svg11.dtd">
<!-- Generated by graphviz version 2.40.1 (20161225.0304)
 -->
<!-- Title: LFSTK_fontDialogClass Pages: 1 -->
<svg width="1630pt" height="607pt"
 viewBox="0.00 0.00 1630.40 607.41" xmlns="http://www.w3.org/2000/svg" xmlns:xlink="http://www.w3.org/1999/xlink">
<g id="graph0" class="graph" transform="scale(1 1) rotate(0) translate(4 603.4134)">
<title>LFSTK_fontDialogClass</title>
<!-- Node1 -->
<g id="node1" class="node">
<title>Node1</title>
<g id="a_node1"><a xlink:title="Font dialog class for LFSToolKit.">
<polygon fill="#bfbfbf" stroke="#000000" points="1499.718,-353.5 1499.718,-373.5 1622.399,-373.5 1622.399,-353.5 1499.718,-353.5"/>
<text text-anchor="middle" x="1561.0585" y="-360.5" font-family="Helvetica,sans-Serif" font-size="10.00" fill="#000000">LFSTK_fontDialogClass</text>
</a>
</g>
</g>
<!-- Node2 -->
<g id="node2" class="node">
<title>Node2</title>
<g id="a_node2"><a xlink:href="class_l_f_s_t_k__gadget_class.xhtml" target="_top" xlink:title="Base class for LFSToolKit gadgets.">
<polygon fill="none" stroke="#000000" points="556.694,-335.5 556.694,-355.5 664.939,-355.5 664.939,-335.5 556.694,-335.5"/>
<text text-anchor="middle" x="610.8165" y="-342.5" font-family="Helvetica,sans-Serif" font-size="10.00" fill="#000000">LFSTK_gadgetClass</text>
</a>
</g>
</g>
<!-- Node2&#45;&gt;Node1 -->
<g id="edge1" class="edge">
<title>Node2&#45;&gt;Node1</title>
<path fill="none" stroke="#191970" d="M675.0065,-346.7159C849.0642,-350.013 1328.3942,-359.0927 1499.4234,-362.3325"/>
<polygon fill="#191970" stroke="#191970" points="675.0375,-343.216 664.973,-346.5259 674.9048,-350.2147 675.0375,-343.216"/>
</g>
<!-- Node7 -->
<g id="node7" class="node">
<title>Node7</title>
<g id="a_node7"><a xlink:href="class_l_f_s_t_k__window_class.xhtml" target="_top" xlink:title="Window class for LFSToolKit.">
<polygon fill="none" stroke="#000000" points="795.6945,-126.5 795.6945,-146.5 906.6995,-146.5 906.6995,-126.5 795.6945,-126.5"/>
<text text-anchor="middle" x="851.197" y="-133.5" font-family="Helvetica,sans-Serif" font-size="10.00" fill="#000000">LFSTK_windowClass</text>
</a>
</g>
</g>
<!-- Node2&#45;&gt;Node7 -->
<g id="edge10" class="edge">
<title>Node2&#45;&gt;Node7</title>
<path fill="none" stroke="#9a32cd" stroke-dasharray="5,2" d="M622.8174,-326.9057C635.916,-307.6239 658.3304,-277.425 682.939,-256.5 715.6714,-228.6673 731.7135,-233.2228 766.854,-208.5 795.0396,-188.6703 825.0453,-161.3699 840.5456,-146.741"/>
<polygon fill="#9a32cd" stroke="#9a32cd" points="619.7882,-325.1404 617.1668,-335.4058 625.6176,-329.0157 619.7882,-325.1404"/>
<text text-anchor="middle" x="724.8965" y="-271.5" font-family="Helvetica,sans-Serif" font-size="10.00" fill="#000000"> dropGadget</text>
<text text-anchor="middle" x="724.8965" y="-259.5" font-family="Helvetica,sans-Serif" font-size="10.00" fill="#000000">popupFromGadget</text>
</g>
<!-- Node12 -->
<g id="node12" class="node">
<title>Node12</title>
<g id="a_node12"><a xlink:href="structmapped_listener.xhtml" target="_top" xlink:title=" ">
<polygon fill="none" stroke="#000000" points="807.3535,-376.5 807.3535,-396.5 895.0405,-396.5 895.0405,-376.5 807.3535,-376.5"/>
<text text-anchor="middle" x="851.197" y="-383.5" font-family="Helvetica,sans-Serif" font-size="10.00" fill="#000000">mappedListener</text>
</a>
</g>
</g>
<!-- Node2&#45;&gt;Node12 -->
<g id="edge16" class="edge">
<title>Node2&#45;&gt;Node12</title>
<path fill="none" stroke="#9a32cd" stroke-dasharray="5,2" d="M631.6613,-361.6389C645.3934,-371.2181 664.2343,-382.4506 682.939,-387.5 723.9735,-398.5774 772.7161,-396.7399 807.1494,-393.0897"/>
<polygon fill="#9a32cd" stroke="#9a32cd" points="633.5771,-358.7047 623.4279,-355.6643 629.4659,-364.3702 633.5771,-358.7047"/>
<text text-anchor="middle" x="724.8965" y="-398.5" font-family="Helvetica,sans-Serif" font-size="10.00" fill="#000000"> gadget</text>
</g>
<!-- Node16 -->
<g id="node16" class="node">
<title>Node16</title>
<g id="a_node16"><a xlink:href="class_l_f_s_t_k__line_edit_class.xhtml" target="_top" xlink:title="Line edit class for LFSToolKit.">
<polygon fill="none" stroke="#000000" points="795.9705,-258.5 795.9705,-278.5 906.4235,-278.5 906.4235,-258.5 795.9705,-258.5"/>
<text text-anchor="middle" x="851.197" y="-265.5" font-family="Helvetica,sans-Serif" font-size="10.00" fill="#000000">LFSTK_lineEditClass</text>
</a>
</g>
</g>
<!-- Node2&#45;&gt;Node16 -->
<g id="edge23" class="edge">
<title>Node2&#45;&gt;Node16</title>
<path fill="none" stroke="#191970" d="M636.2145,-330.5653C649.7332,-323.1109 666.8494,-314.4407 682.939,-308.5 719.556,-294.9799 762.3731,-284.8763 795.6508,-278.2056"/>
<polygon fill="#191970" stroke="#191970" points="634.4807,-327.5248 627.487,-335.4833 637.9172,-333.6232 634.4807,-327.5248"/>
</g>
<!-- Node17 -->
<g id="node17" class="node">
<title>Node17</title>
<g id="a_node17"><a xlink:href="class_l_f_s_t_k__toggle_button_class.xhtml" target="_top" xlink:title="Toglle button class for LFSToolKit.">
<polygon fill="none" stroke="#000000" points="935.54,-296.5 935.54,-316.5 1069.349,-316.5 1069.349,-296.5 935.54,-296.5"/>
<text text-anchor="middle" x="1002.4445" y="-303.5" font-family="Helvetica,sans-Serif" font-size="10.00" fill="#000000">LFSTK_toggleButtonClass</text>
</a>
</g>
</g>
<!-- Node2&#45;&gt;Node17 -->
<g id="edge26" class="edge">
<title>Node2&#45;&gt;Node17</title>
<path fill="none" stroke="#191970" d="M675.2163,-334.5193C677.8223,-334.1591 680.4043,-333.8174 682.939,-333.5 769.7975,-322.622 870.5024,-314.9204 935.2704,-310.5973"/>
<polygon fill="#191970" stroke="#191970" points="674.4877,-331.0883 665.0939,-335.9879 675.4929,-338.0158 674.4877,-331.0883"/>
</g>
<!-- Node19 -->
<g id="node19" class="node">
<title>Node19</title>
<g id="a_node19"><a xlink:href="class_l_f_s_t_k__button_class.xhtml" target="_top" xlink:title="Basic button class for LFSToolKit.">
<polygon fill="none" stroke="#000000" points="798.4645,-473.5 798.4645,-493.5 903.9295,-493.5 903.9295,-473.5 798.4645,-473.5"/>
<text text-anchor="middle" x="851.197" y="-480.5" font-family="Helvetica,sans-Serif" font-size="10.00" fill="#000000">LFSTK_buttonClass</text>
</a>
</g>
</g>
<!-- Node2&#45;&gt;Node19 -->
<g id="edge29" class="edge">
<title>Node2&#45;&gt;Node19</title>
<path fill="none" stroke="#191970" d="M626.6153,-362.9256C640.4059,-377.3645 661.5156,-397.6859 682.939,-411.5 726.9997,-439.9108 784.1613,-461.6086 819.2321,-473.4444"/>
<polygon fill="#191970" stroke="#191970" points="629.1388,-360.4998 619.7514,-355.5878 624.0268,-365.2818 629.1388,-360.4998"/>
</g>
<!-- Node20 -->
<g id="node20" class="node">
<title>Node20</title>
<g id="a_node20"><a xlink:href="class_l_f_s_t_k__list_gadget_class.xhtml" target="_top" xlink:title="List class for LFSToolKit.">
<polygon fill="none" stroke="#000000" points="1287.696,-528.5 1287.696,-548.5 1410.378,-548.5 1410.378,-528.5 1287.696,-528.5"/>
<text text-anchor="middle" x="1349.037" y="-535.5" font-family="Helvetica,sans-Serif" font-size="10.00" fill="#000000">LFSTK_listGadgetClass</text>
</a>
</g>
</g>
<!-- Node2&#45;&gt;Node20 -->
<g id="edge31" class="edge">
<title>Node2&#45;&gt;Node20</title>
<path fill="none" stroke="#191970" d="M616.8182,-365.6279C626.6258,-395.8269 648.5152,-453.3765 682.939,-491.5 718.7841,-531.1976 734.9684,-536.2076 784.854,-555.5 958.7997,-622.7705 1018.5048,-597.7466 1203.903,-577.5 1233.4511,-574.2732 1240.9275,-572.9749 1269.696,-565.5 1287.5809,-560.853 1307.2472,-554.1717 1322.5257,-548.6183"/>
<polygon fill="#191970" stroke="#191970" points="620.0777,-364.3243 613.7506,-355.8261 613.3972,-366.4151 620.0777,-364.3243"/>
</g>
<!-- Node21 -->
<g id="node21" class="node">
<title>Node21</title>
<g id="a_node21"><a xlink:href="class_l_f_s_t_k__scroll_bar_class.xhtml" target="_top" xlink:title="Scrollbar class for LFSToolKit.">
<polygon fill="none" stroke="#000000" points="1087.349,-547.5 1087.349,-567.5 1203.903,-567.5 1203.903,-547.5 1087.349,-547.5"/>
<text text-anchor="middle" x="1145.626" y="-554.5" font-family="Helvetica,sans-Serif" font-size="10.00" fill="#000000">LFSTK_scrollBarClass</text>
</a>
</g>
</g>
<!-- Node2&#45;&gt;Node21 -->
<g id="edge33" class="edge">
<title>Node2&#45;&gt;Node21</title>
<path fill="none" stroke="#191970" d="M621.1802,-364.5531C633.6541,-386.1832 656.2828,-421.5642 682.939,-445.5 775.4185,-528.5415 813.6083,-541.3958 935.54,-565.5 986.0275,-575.4807 1044.6316,-572.0401 1087.0954,-566.9349"/>
<polygon fill="#191970" stroke="#191970" points="624.1385,-362.6731 616.1856,-355.673 618.0374,-366.1048 624.1385,-362.6731"/>
</g>
<!-- Node3 -->
<g id="node3" class="node">
<title>Node3</title>
<g id="a_node3"><a xlink:href="structgadget_struct.xhtml" target="_top" xlink:title=" ">
<polygon fill="none" stroke="#000000" points="348.2335,-335.5 348.2335,-355.5 420.9225,-355.5 420.9225,-335.5 348.2335,-335.5"/>
<text text-anchor="middle" x="384.578" y="-342.5" font-family="Helvetica,sans-Serif" font-size="10.00" fill="#000000">gadgetStruct</text>
</a>
</g>
</g>
<!-- Node3&#45;&gt;Node2 -->
<g id="edge2" class="edge">
<title>Node3&#45;&gt;Node2</title>
<path fill="none" stroke="#9a32cd" stroke-dasharray="5,2" d="M431.2574,-345.5C467.6281,-345.5 518.1933,-345.5 556.3996,-345.5"/>
<polygon fill="#9a32cd" stroke="#9a32cd" points="430.9272,-342.0001 420.9271,-345.5 430.9271,-349.0001 430.9272,-342.0001"/>
<text text-anchor="middle" x="490.0825" y="-348.5" font-family="Helvetica,sans-Serif" font-size="10.00" fill="#000000"> gadgetDetails</text>
</g>
<!-- Node4 -->
<g id="node4" class="node">
<title>Node4</title>
<g id="a_node4"><a xlink:href="structgeometry_struct.xhtml" target="_top" xlink:title=" ">
<polygon fill="none" stroke="#000000" points="158.11,-335.5 158.11,-355.5 241.898,-355.5 241.898,-335.5 158.11,-335.5"/>
<text text-anchor="middle" x="200.004" y="-342.5" font-family="Helvetica,sans-Serif" font-size="10.00" fill="#000000">geometryStruct</text>
</a>
</g>
</g>
<!-- Node4&#45;&gt;Node2 -->
<g id="edge6" class="edge">
<title>Node4&#45;&gt;Node2</title>
<path fill="none" stroke="#9a32cd" stroke-dasharray="5,2" d="M225.2388,-360.2928C235.6124,-365.5648 247.9733,-370.8503 259.898,-373.5 372.3605,-398.4897 509.4651,-371.4972 573.9476,-355.5254"/>
<polygon fill="#9a32cd" stroke="#9a32cd" points="226.8086,-357.1633 216.3403,-355.5311 223.5059,-363.3352 226.8086,-357.1633"/>
<text text-anchor="middle" x="384.578" y="-386.5" font-family="Helvetica,sans-Serif" font-size="10.00" fill="#000000"> gadgetGeom</text>
</g>
<!-- Node4&#45;&gt;Node3 -->
<g id="edge3" class="edge">
<title>Node4&#45;&gt;Node3</title>
<path fill="none" stroke="#9a32cd" stroke-dasharray="5,2" d="M252.4051,-345.5C282.9489,-345.5 320.7103,-345.5 348.0398,-345.5"/>
<polygon fill="#9a32cd" stroke="#9a32cd" points="252.349,-342.0001 242.349,-345.5 252.349,-349.0001 252.349,-342.0001"/>
<text text-anchor="middle" x="293.7915" y="-360.5" font-family="Helvetica,sans-Serif" font-size="10.00" fill="#000000"> indicatorGeom</text>
<text text-anchor="middle" x="293.7915" y="-348.5" font-family="Helvetica,sans-Serif" font-size="10.00" fill="#000000">gadgetGeom</text>
</g>
<!-- Node4&#45;&gt;Node7 -->
<g id="edge8" class="edge">
<title>Node4&#45;&gt;Node7</title>
<path fill="none" stroke="#9a32cd" stroke-dasharray="5,2" d="M230.5278,-330.6326C258.7211,-315.6468 300.2652,-290.2256 327.685,-258.5 339.6429,-244.6643 331.4291,-232.9538 345.685,-221.5 414.3676,-166.3174 679.2069,-145.6479 795.6867,-139.1146"/>
<polygon fill="#9a32cd" stroke="#9a32cd" points="228.7815,-327.5956 221.5181,-335.3088 232.0062,-333.8086 228.7815,-327.5956"/>
<text text-anchor="middle" x="490.0825" y="-185.5" font-family="Helvetica,sans-Serif" font-size="10.00" fill="#000000"> windowGeom</text>
</g>
<!-- Node5 -->
<g id="node5" class="node">
<title>Node5</title>
<g id="a_node5"><a xlink:href="structcolour_struct.xhtml" target="_top" xlink:title=" ">
<polygon fill="none" stroke="#000000" points="165.334,-175.5 165.334,-195.5 234.674,-195.5 234.674,-175.5 165.334,-175.5"/>
<text text-anchor="middle" x="200.004" y="-182.5" font-family="Helvetica,sans-Serif" font-size="10.00" fill="#000000">colourStruct</text>
</a>
</g>
</g>
<!-- Node5&#45;&gt;Node2 -->
<g id="edge18" class="edge">
<title>Node5&#45;&gt;Node2</title>
<path fill="none" stroke="#9a32cd" stroke-dasharray="5,2" d="M244.5989,-196.1731C290.2736,-207.6811 362.9559,-227.6018 423.471,-251.5 488.2863,-277.0964 560.9655,-316.9981 593.4746,-335.48"/>
<polygon fill="#9a32cd" stroke="#9a32cd" points="245.2659,-192.7323 234.7161,-193.7083 243.5719,-199.5242 245.2659,-192.7323"/>
<text text-anchor="middle" x="384.578" y="-278.5" font-family="Helvetica,sans-Serif" font-size="10.00" fill="#000000"> labelBGColour</text>
<text text-anchor="middle" x="384.578" y="-266.5" font-family="Helvetica,sans-Serif" font-size="10.00" fill="#000000">colourNames</text>
<text text-anchor="middle" x="384.578" y="-254.5" font-family="Helvetica,sans-Serif" font-size="10.00" fill="#000000">fontColourNames</text>
</g>
<!-- Node5&#45;&gt;Node3 -->
<g id="edge4" class="edge">
<title>Node5&#45;&gt;Node3</title>
<path fill="none" stroke="#9a32cd" stroke-dasharray="5,2" d="M215.2008,-203.5027C240.1716,-232.2688 292.4463,-289.1519 345.685,-326.5 350.3606,-329.78 355.6878,-332.7871 360.8678,-335.3942"/>
<polygon fill="#9a32cd" stroke="#9a32cd" points="217.8002,-201.1573 208.6295,-195.8517 212.49,-205.7182 217.8002,-201.1573"/>
<text text-anchor="middle" x="293.7915" y="-312.5" font-family="Helvetica,sans-Serif" font-size="10.00" fill="#000000"> colour</text>
</g>
<!-- Node5&#45;&gt;Node7 -->
<g id="edge12" class="edge">
<title>Node5&#45;&gt;Node7</title>
<path fill="none" stroke="#9a32cd" stroke-dasharray="5,2" d="M219.4229,-169.1439C230.6349,-160.4274 245.3604,-150.1591 259.898,-143.5 426.3452,-67.257 482.8941,-49.075 664.939,-68.5 711.0163,-73.4166 723.4198,-74.3517 766.854,-90.5 792.3367,-99.9742 819.5623,-116.0325 835.9804,-126.4495"/>
<polygon fill="#9a32cd" stroke="#9a32cd" points="217.2066,-166.4347 211.5951,-175.4215 221.5861,-171.8955 217.2066,-166.4347"/>
<text text-anchor="middle" x="490.0825" y="-76.5" font-family="Helvetica,sans-Serif" font-size="10.00" fill="#000000"> windowColourNames</text>
</g>
<!-- Node5&#45;&gt;Node16 -->
<g id="edge24" class="edge">
<title>Node5&#45;&gt;Node16</title>
<path fill="none" stroke="#9a32cd" stroke-dasharray="5,2" d="M244.8554,-188.4974C269.3764,-190.354 300.2573,-193.0464 327.685,-196.5 486.4844,-216.4956 524.0529,-236.2058 682.939,-255.5 720.4585,-260.0562 762.8897,-263.3215 795.7555,-265.4401"/>
<polygon fill="#9a32cd" stroke="#9a32cd" points="244.9948,-184.9983 234.7644,-187.7531 244.4798,-191.9793 244.9948,-184.9983"/>
<text text-anchor="middle" x="490.0825" y="-236.5" font-family="Helvetica,sans-Serif" font-size="10.00" fill="#000000"> cursorColour</text>
</g>
<!-- Node6 -->
<g id="node6" class="node">
<title>Node6</title>
<g id="a_node6"><a xlink:href="structcairo_color.xhtml" target="_top" xlink:title=" ">
<polygon fill="none" stroke="#000000" points="0,-175.5 0,-195.5 61.551,-195.5 61.551,-175.5 0,-175.5"/>
<text text-anchor="middle" x="30.7755" y="-182.5" font-family="Helvetica,sans-Serif" font-size="10.00" fill="#000000">cairoColor</text>
</a>
</g>
</g>
<!-- Node6&#45;&gt;Node5 -->
<g id="edge5" class="edge">
<title>Node6&#45;&gt;Node5</title>
<path fill="none" stroke="#9a32cd" stroke-dasharray="5,2" d="M71.878,-185.5C100.4045,-185.5 137.9959,-185.5 165.0744,-185.5"/>
<polygon fill="#9a32cd" stroke="#9a32cd" points="71.8146,-182.0001 61.8146,-185.5 71.8146,-189.0001 71.8146,-182.0001"/>
<text text-anchor="middle" x="109.8305" y="-188.5" font-family="Helvetica,sans-Serif" font-size="10.00" fill="#000000"> RGBAColour</text>
</g>
<!-- Node7&#45;&gt;Node1 -->
<g id="edge21" class="edge">
<title>Node7&#45;&gt;Node1</title>
<path fill="none" stroke="#9a32cd" stroke-dasharray="5,2" d="M913.056,-148.5039C1016.9068,-169.2575 1232.4202,-214.9073 1410.378,-269.5 1442.7887,-279.4427 1452.4939,-279.3166 1481.718,-296.5 1509.3815,-312.7658 1536.9334,-338.8037 1551.1546,-353.1606"/>
<polygon fill="#9a32cd" stroke="#9a32cd" points="913.5493,-145.0335 903.0584,-146.5141 912.1828,-151.8989 913.5493,-145.0335"/>
<text text-anchor="middle" x="1245.7995" y="-231.5" font-family="Helvetica,sans-Serif" font-size="10.00" fill="#000000"> dialog</text>
</g>
<!-- Node7&#45;&gt;Node2 -->
<g id="edge7" class="edge">
<title>Node7&#45;&gt;Node2</title>
<path fill="none" stroke="#9a32cd" stroke-dasharray="5,2" d="M808.1837,-149.4358C794.9443,-153.3672 780.3132,-157.6612 766.854,-161.5 729.6659,-172.1066 712.3015,-159.3347 682.939,-184.5 634.3353,-226.1561 617.0213,-307.1052 612.3021,-335.4246"/>
<polygon fill="#9a32cd" stroke="#9a32cd" points="809.4095,-152.7228 817.9942,-146.5137 807.4112,-146.014 809.4095,-152.7228"/>
<text text-anchor="middle" x="724.8965" y="-199.5" font-family="Helvetica,sans-Serif" font-size="10.00" fill="#000000"> contextWC</text>
<text text-anchor="middle" x="724.8965" y="-187.5" font-family="Helvetica,sans-Serif" font-size="10.00" fill="#000000">wc</text>
</g>
<!-- Node8 -->
<g id="node8" class="node">
<title>Node8</title>
<g id="a_node8"><a xlink:href="structmonitor_struct.xhtml" target="_top" xlink:title=" ">
<polygon fill="none" stroke="#000000" points="573.0925,-117.5 573.0925,-137.5 648.5405,-137.5 648.5405,-117.5 573.0925,-117.5"/>
<text text-anchor="middle" x="610.8165" y="-124.5" font-family="Helvetica,sans-Serif" font-size="10.00" fill="#000000">monitorStruct</text>
</a>
</g>
</g>
<!-- Node8&#45;&gt;Node7 -->
<g id="edge9" class="edge">
<title>Node8&#45;&gt;Node7</title>
<path fill="none" stroke="#9a32cd" stroke-dasharray="5,2" d="M658.6894,-125.2293C666.7813,-124.9256 675.0983,-124.663 682.939,-124.5 720.2265,-123.7248 729.6515,-121.8667 766.854,-124.5 776.1487,-125.1579 785.9766,-126.2187 795.5124,-127.4443"/>
<polygon fill="#9a32cd" stroke="#9a32cd" points="658.465,-121.7354 648.6127,-125.6316 658.7444,-128.7298 658.465,-121.7354"/>
<text text-anchor="middle" x="724.8965" y="-127.5" font-family="Helvetica,sans-Serif" font-size="10.00" fill="#000000"> monitors</text>
</g>
<!-- Node9 -->
<g id="node9" class="node">
<title>Node9</title>
<g id="a_node9"><a xlink:href="structdrop_data_struct.xhtml" target="_top" xlink:title=" ">
<polygon fill="none" stroke="#000000" points="569.198,-78.5 569.198,-98.5 652.435,-98.5 652.435,-78.5 569.198,-78.5"/>
<text text-anchor="middle" x="610.8165" y="-85.5" font-family="Helvetica,sans-Serif" font-size="10.00" fill="#000000">dropDataStruct</text>
</a>
</g>
</g>
<!-- Node9&#45;&gt;Node7 -->
<g id="edge11" class="edge">
<title>Node9&#45;&gt;Node7</title>
<path fill="none" stroke="#9a32cd" stroke-dasharray="5,2" d="M662.6437,-92.0648C693.2386,-94.8483 732.5663,-99.6102 766.854,-107.5 787.3763,-112.2223 809.8975,-120.1118 826.5018,-126.4705"/>
<polygon fill="#9a32cd" stroke="#9a32cd" points="662.8879,-88.573 652.6227,-91.1951 662.2826,-95.5467 662.8879,-88.573"/>
<text text-anchor="middle" x="724.8965" y="-110.5" font-family="Helvetica,sans-Serif" font-size="10.00" fill="#000000"> droppedData</text>
</g>
<!-- Node10 -->
<g id="node10" class="node">
<title>Node10</title>
<g id="a_node10"><a xlink:href="class_l_f_s_t_k__lib.xhtml" target="_top" xlink:title="Library of useful routines for LFSToolKit.">
<polygon fill="none" stroke="#000000" points="579.481,-.5 579.481,-20.5 642.152,-20.5 642.152,-.5 579.481,-.5"/>
<text text-anchor="middle" x="610.8165" y="-7.5" font-family="Helvetica,sans-Serif" font-size="10.00" fill="#000000">LFSTK_lib</text>
</a>
</g>
</g>
<!-- Node10&#45;&gt;Node7 -->
<g id="edge13" class="edge">
<title>Node10&#45;&gt;Node7</title>
<path fill="none" stroke="#9a32cd" stroke-dasharray="5,2" d="M652.5303,-5.0267C685.5942,-2.7082 731.8889,-4.1086 766.854,-23.5 809.8847,-47.3645 837.3387,-103.4154 847.1492,-126.3983"/>
<polygon fill="#9a32cd" stroke="#9a32cd" points="651.961,-1.5623 642.2913,-5.8921 652.5506,-8.5374 651.961,-1.5623"/>
<text text-anchor="middle" x="724.8965" y="-26.5" font-family="Helvetica,sans-Serif" font-size="10.00" fill="#000000"> globalLib</text>
</g>
<!-- Node11 -->
<g id="node11" class="node">
<title>Node11</title>
<g id="a_node11"><a xlink:href="structargs.xhtml" target="_top" xlink:title=" ">
<polygon fill="none" stroke="#000000" points="366.8545,-.5 366.8545,-20.5 402.3015,-20.5 402.3015,-.5 366.8545,-.5"/>
<text text-anchor="middle" x="384.578" y="-7.5" font-family="Helvetica,sans-Serif" font-size="10.00" fill="#000000">args</text>
</a>
</g>
</g>
<!-- Node11&#45;&gt;Node10 -->
<g id="edge14" class="edge">
<title>Node11&#45;&gt;Node10</title>
<path fill="none" stroke="#9a32cd" stroke-dasharray="5,2" d="M412.4724,-10.5C454.7896,-10.5 534.9648,-10.5 579.3218,-10.5"/>
<polygon fill="#9a32cd" stroke="#9a32cd" points="412.3306,-7.0001 402.3306,-10.5 412.3305,-14.0001 412.3306,-7.0001"/>
<text text-anchor="middle" x="490.0825" y="-13.5" font-family="Helvetica,sans-Serif" font-size="10.00" fill="#000000"> lfsToolKitGlobals</text>
</g>
<!-- Node12&#45;&gt;Node2 -->
<g id="edge15" class="edge">
<title>Node12&#45;&gt;Node2</title>
<path fill="none" stroke="#9a32cd" stroke-dasharray="5,2" d="M797.2215,-377.2938C757.7955,-370.5692 704.5512,-361.4877 665.0623,-354.7523"/>
<polygon fill="#9a32cd" stroke="#9a32cd" points="796.739,-380.7619 807.1851,-378.9932 797.916,-373.8616 796.739,-380.7619"/>
<text text-anchor="middle" x="724.8965" y="-374.5" font-family="Helvetica,sans-Serif" font-size="10.00" fill="#000000"> ml</text>
</g>
<!-- Node13 -->
<g id="node13" class="node">
<title>Node13</title>
<g id="a_node13"><a xlink:href="structbutton_c_b.xhtml" target="_top" xlink:title=" ">
<polygon fill="none" stroke="#000000" points="355.737,-296.5 355.737,-316.5 413.419,-316.5 413.419,-296.5 355.737,-296.5"/>
<text text-anchor="middle" x="384.578" y="-303.5" font-family="Helvetica,sans-Serif" font-size="10.00" fill="#000000">buttonCB</text>
</a>
</g>
</g>
<!-- Node13&#45;&gt;Node2 -->
<g id="edge17" class="edge">
<title>Node13&#45;&gt;Node2</title>
<path fill="none" stroke="#9a32cd" stroke-dasharray="5,2" d="M423.6927,-311.5655C454.9199,-315.7952 499.7399,-322.2816 538.694,-329.5 548.1522,-331.2527 558.2589,-333.3517 567.8222,-335.4436"/>
<polygon fill="#9a32cd" stroke="#9a32cd" points="424.0281,-308.0792 413.6518,-310.2198 423.0982,-315.0172 424.0281,-308.0792"/>
<text text-anchor="middle" x="490.0825" y="-332.5" font-family="Helvetica,sans-Serif" font-size="10.00" fill="#000000"> callback</text>
</g>
<!-- Node14 -->
<g id="node14" class="node">
<title>Node14</title>
<g id="a_node14"><a xlink:href="structlist_label_struct.xhtml" target="_top" xlink:title=" ">
<polygon fill="none" stroke="#000000" points="1106.2325,-419.5 1106.2325,-439.5 1185.0195,-439.5 1185.0195,-419.5 1106.2325,-419.5"/>
<text text-anchor="middle" x="1145.626" y="-426.5" font-family="Helvetica,sans-Serif" font-size="10.00" fill="#000000">listLabelStruct</text>
</a>
</g>
</g>
<!-- Node14&#45;&gt;Node1 -->
<g id="edge19" class="edge">
<title>Node14&#45;&gt;Node1</title>
<path fill="none" stroke="#9a32cd" stroke-dasharray="5,2" d="M1195.362,-422.6462C1204.1943,-421.5243 1213.3133,-420.4272 1221.903,-419.5 1337.3742,-407.0361 1369.2721,-420.5665 1481.718,-391.5 1500.2442,-386.7111 1520.5858,-379.4914 1536.0336,-373.5826"/>
<polygon fill="#9a32cd" stroke="#9a32cd" points="1194.6416,-419.2102 1185.1741,-423.966 1195.541,-426.1522 1194.6416,-419.2102"/>
<text text-anchor="middle" x="1349.037" y="-416.5" font-family="Helvetica,sans-Serif" font-size="10.00" fill="#000000"> labelLst</text>
</g>
<!-- Node14&#45;&gt;Node20 -->
<g id="edge35" class="edge">
<title>Node14&#45;&gt;Node20</title>
<path fill="none" stroke="#9a32cd" stroke-dasharray="5,2" d="M1195.5053,-423.093C1219.2211,-422.2813 1247.2279,-424.7161 1269.696,-436.5 1309.0348,-457.1321 1334.9836,-506.8659 1344.7224,-528.3425"/>
<polygon fill="#9a32cd" stroke="#9a32cd" points="1195.0863,-419.6104 1185.2905,-423.6468 1195.4654,-426.6002 1195.0863,-419.6104"/>
<text text-anchor="middle" x="1245.7995" y="-439.5" font-family="Helvetica,sans-Serif" font-size="10.00" fill="#000000"> labelData</text>
</g>
<!-- Node15 -->
<g id="node15" class="node">
<title>Node15</title>
<g id="a_node15"><a xlink:href="unionlist_label_struct_1_1image_data.xhtml" target="_top" xlink:title=" ">
<polygon fill="none" stroke="#000000" points="784.854,-419.5 784.854,-439.5 917.54,-439.5 917.54,-419.5 784.854,-419.5"/>
<text text-anchor="middle" x="851.197" y="-426.5" font-family="Helvetica,sans-Serif" font-size="10.00" fill="#000000">listLabelStruct::imageData</text>
</a>
</g>
</g>
<!-- Node15&#45;&gt;Node14 -->
<g id="edge20" class="edge">
<title>Node15&#45;&gt;Node14</title>
<path fill="none" stroke="#9a32cd" stroke-dasharray="5,2" d="M927.7188,-429.5C984.8521,-429.5 1060.6135,-429.5 1106.0983,-429.5"/>
<polygon fill="#9a32cd" stroke="#9a32cd" points="927.6398,-426.0001 917.6397,-429.5 927.6397,-433.0001 927.6398,-426.0001"/>
<text text-anchor="middle" x="1002.4445" y="-432.5" font-family="Helvetica,sans-Serif" font-size="10.00" fill="#000000"> data</text>
</g>
<!-- Node16&#45;&gt;Node1 -->
<g id="edge22" class="edge">
<title>Node16&#45;&gt;Node1</title>
<path fill="none" stroke="#9a32cd" stroke-dasharray="5,2" d="M916.7744,-265.0813C999.3279,-261.6345 1145.3898,-258.3795 1269.696,-270.5 1333.0619,-276.6785 1348.1339,-284.1176 1410.378,-297.5 1442.2443,-304.3512 1451.6158,-301.9997 1481.718,-314.5 1506.5378,-324.8067 1532.5298,-342.35 1547.7378,-353.4112"/>
<polygon fill="#9a32cd" stroke="#9a32cd" points="916.3769,-261.5951 906.5372,-265.5235 916.679,-268.5886 916.3769,-261.5951"/>
<text text-anchor="middle" x="1245.7995" y="-285.5" font-family="Helvetica,sans-Serif" font-size="10.00" fill="#000000"> fontsize</text>
<text text-anchor="middle" x="1245.7995" y="-273.5" font-family="Helvetica,sans-Serif" font-size="10.00" fill="#000000">preview</text>
</g>
<!-- Node17&#45;&gt;Node1 -->
<g id="edge25" class="edge">
<title>Node17&#45;&gt;Node1</title>
<path fill="none" stroke="#9a32cd" stroke-dasharray="5,2" d="M1079.7928,-300.9943C1175.7287,-296.2882 1343.5138,-295.0473 1481.718,-330.5 1502.8157,-335.9121 1525.6548,-345.8845 1541.3869,-353.4552"/>
<polygon fill="#9a32cd" stroke="#9a32cd" points="1079.403,-297.5097 1069.5969,-301.521 1079.7642,-304.5004 1079.403,-297.5097"/>
<text text-anchor="middle" x="1245.7995" y="-315.5" font-family="Helvetica,sans-Serif" font-size="10.00" fill="#000000"> boldcheck</text>
<text text-anchor="middle" x="1245.7995" y="-303.5" font-family="Helvetica,sans-Serif" font-size="10.00" fill="#000000">italiccheck</text>
</g>
<!-- Node18 -->
<g id="node18" class="node">
<title>Node18</title>
<g id="a_node18"><a xlink:href="structfont_data_struct.xhtml" target="_top" xlink:title=" ">
<polygon fill="none" stroke="#000000" points="1309.0835,-373.5 1309.0835,-393.5 1388.9905,-393.5 1388.9905,-373.5 1309.0835,-373.5"/>
<text text-anchor="middle" x="1349.037" y="-380.5" font-family="Helvetica,sans-Serif" font-size="10.00" fill="#000000">fontDataStruct</text>
</a>
</g>
</g>
<!-- Node18&#45;&gt;Node1 -->
<g id="edge27" class="edge">
<title>Node18&#45;&gt;Node1</title>
<path fill="none" stroke="#9a32cd" stroke-dasharray="5,2" d="M1399.6528,-378.7254C1429.6319,-375.8975 1467.8306,-372.2942 1499.5407,-369.303"/>
<polygon fill="#9a32cd" stroke="#9a32cd" points="1399.0428,-375.2673 1389.4157,-379.6911 1399.7002,-382.2364 1399.0428,-375.2673"/>
<text text-anchor="middle" x="1455.048" y="-378.5" font-family="Helvetica,sans-Serif" font-size="10.00" fill="#000000"> fontData</text>
</g>
<!-- Node19&#45;&gt;Node1 -->
<g id="edge28" class="edge">
<title>Node19&#45;&gt;Node1</title>
<path fill="none" stroke="#9a32cd" stroke-dasharray="5,2" d="M914.1728,-481.558C1018.3389,-477.4249 1232.6667,-465.0184 1410.378,-429.5 1442.5536,-423.0692 1451.4649,-423.2033 1481.718,-410.5 1505.7789,-400.3968 1531.3653,-384.1051 1546.7799,-373.6015"/>
<polygon fill="#9a32cd" stroke="#9a32cd" points="913.9967,-478.0621 904.1386,-481.944 914.2657,-485.057 913.9967,-478.0621"/>
<text text-anchor="middle" x="1245.7995" y="-484.5" font-family="Helvetica,sans-Serif" font-size="10.00" fill="#000000"> seperator</text>
<text text-anchor="middle" x="1245.7995" y="-472.5" font-family="Helvetica,sans-Serif" font-size="10.00" fill="#000000">apply</text>
<text text-anchor="middle" x="1245.7995" y="-460.5" font-family="Helvetica,sans-Serif" font-size="10.00" fill="#000000">cancel</text>
</g>
<!-- Node19&#45;&gt;Node20 -->
<g id="edge38" class="edge">
<title>Node19&#45;&gt;Node20</title>
<path fill="none" stroke="#9a32cd" stroke-dasharray="5,2" d="M914.1542,-490.4553C1010.2261,-501.0691 1192.2766,-521.1815 1287.4957,-531.7011"/>
<polygon fill="#9a32cd" stroke="#9a32cd" points="914.3272,-486.9532 904.0033,-489.3339 913.5584,-493.9109 914.3272,-486.9532"/>
<text text-anchor="middle" x="1145.626" y="-524.5" font-family="Helvetica,sans-Serif" font-size="10.00" fill="#000000"> labels</text>
</g>
<!-- Node19&#45;&gt;Node21 -->
<g id="edge34" class="edge">
<title>Node19&#45;&gt;Node21</title>
<path fill="none" stroke="#9a32cd" stroke-dasharray="5,2" d="M894.7539,-496.2347C907.8056,-499.8182 922.1972,-503.5412 935.54,-506.5 994.4517,-519.5639 1011.0501,-513.9277 1069.349,-529.5 1087.2027,-534.2689 1106.7578,-541.4891 1121.598,-547.4031"/>
<polygon fill="#9a32cd" stroke="#9a32cd" points="895.6465,-492.8501 885.0739,-493.5365 893.7669,-499.5931 895.6465,-492.8501"/>
<text text-anchor="middle" x="1002.4445" y="-556.5" font-family="Helvetica,sans-Serif" font-size="10.00" fill="#000000"> upLeft</text>
<text text-anchor="middle" x="1002.4445" y="-544.5" font-family="Helvetica,sans-Serif" font-size="10.00" fill="#000000">downRight</text>
<text text-anchor="middle" x="1002.4445" y="-532.5" font-family="Helvetica,sans-Serif" font-size="10.00" fill="#000000">thumb</text>
</g>
<!-- Node20&#45;&gt;Node1 -->
<g id="edge30" class="edge">
<title>Node20&#45;&gt;Node1</title>
<path fill="none" stroke="#9a32cd" stroke-dasharray="5,2" d="M1396.9743,-525.321C1423.9466,-516.1902 1457.0533,-501.9525 1481.718,-481.5 1519.5338,-450.1423 1546.5004,-396.233 1556.6342,-373.781"/>
<polygon fill="#9a32cd" stroke="#9a32cd" points="1395.7676,-522.0329 1387.3417,-528.4559 1397.934,-528.6893 1395.7676,-522.0329"/>
<text text-anchor="middle" x="1455.048" y="-514.5" font-family="Helvetica,sans-Serif" font-size="10.00" fill="#000000"> fontlist</text>
</g>
<!-- Node22 -->
<g id="node22" class="node">
<title>Node22</title>
<g id="a_node22"><a xlink:href="structlist_data.xhtml" target="_top" xlink:title=" ">
<polygon fill="none" stroke="#000000" points="1536.392,-545.5 1536.392,-565.5 1585.725,-565.5 1585.725,-545.5 1536.392,-545.5"/>
<text text-anchor="middle" x="1561.0585" y="-552.5" font-family="Helvetica,sans-Serif" font-size="10.00" fill="#000000">listData</text>
</a>
</g>
</g>
<!-- Node20&#45;&gt;Node22 -->
<g id="edge37" class="edge">
<title>Node20&#45;&gt;Node22</title>
<path fill="none" stroke="#9a32cd" stroke-dasharray="5,2" d="M1420.8227,-533.9523C1440.6089,-533.6403 1462.0406,-534.1767 1481.718,-536.5 1500.2853,-538.6922 1520.7993,-543.6752 1536.3159,-547.9882"/>
<polygon fill="#9a32cd" stroke="#9a32cd" points="1420.5601,-530.4573 1410.6437,-534.1878 1420.7221,-537.4555 1420.5601,-530.4573"/>
<text text-anchor="middle" x="1455.048" y="-539.5" font-family="Helvetica,sans-Serif" font-size="10.00" fill="#000000"> mainObject</text>
</g>
<!-- Node21&#45;&gt;Node20 -->
<g id="edge32" class="edge">
<title>Node21&#45;&gt;Node20</title>
<path fill="none" stroke="#9a32cd" stroke-dasharray="5,2" d="M1213.9365,-551.1193C1237.7531,-548.8947 1264.3179,-546.4133 1287.5467,-544.2436"/>
<polygon fill="#9a32cd" stroke="#9a32cd" points="1213.5465,-547.6404 1203.9154,-552.0554 1214.1976,-554.6101 1213.5465,-547.6404"/>
<text text-anchor="middle" x="1245.7995" y="-552.5" font-family="Helvetica,sans-Serif" font-size="10.00" fill="#000000"> scrollBar</text>
</g>
<!-- Node22&#45;&gt;Node20 -->
<g id="edge36" class="edge">
<title>Node22&#45;&gt;Node20</title>
<path fill="none" stroke="#9a32cd" stroke-dasharray="5,2" d="M1526.0029,-555.7044C1499.2081,-555.5556 1461.3862,-554.6876 1428.378,-551.5 1420.5976,-550.7486 1412.4246,-549.7039 1404.403,-548.5302"/>
<polygon fill="#9a32cd" stroke="#9a32cd" points="1526.0446,-559.2044 1536.0534,-555.7294 1526.0621,-552.2045 1526.0446,-559.2044"/>
<text text-anchor="middle" x="1455.048" y="-557.5" font-family="Helvetica,sans-Serif" font-size="10.00" fill="#000000"> data</text>
</g>
</g>
</svg>
