<?xml version="1.0" encoding="UTF-8" standalone="no"?>
<!DOCTYPE svg PUBLIC "-//W3C//DTD SVG 1.1//EN"
 "http://www.w3.org/Graphics/SVG/1.1/DTD/svg11.dtd">
<!-- Generated by graphviz version 2.40.1 (20161225.0304)
 -->
<!-- Title: LFSTK_gadgetClass::LFSTK_getGeom Pages: 1 -->
<svg width="1298pt" height="539pt"
 viewBox="0.00 0.00 1297.54 538.87" xmlns="http://www.w3.org/2000/svg" xmlns:xlink="http://www.w3.org/1999/xlink">
<g id="graph0" class="graph" transform="scale(1 1) rotate(0) translate(4 534.8698)">
<title>LFSTK_gadgetClass::LFSTK_getGeom</title>
<!-- Node1 -->
<g id="node1" class="node">
<title>Node1</title>
<g id="a_node1"><a xlink:title=" ">
<polygon fill="#bfbfbf" stroke="#000000" points="1175.738,-396.3698 1175.738,-428.3698 1289.541,-428.3698 1289.541,-396.3698 1175.738,-396.3698"/>
<text text-anchor="start" x="1183.738" y="-415.3698" font-family="Helvetica,sans-Serif" font-size="10.00" fill="#000000">LFSTK_gadgetClass::</text>
<text text-anchor="middle" x="1232.6395" y="-403.3698" font-family="Helvetica,sans-Serif" font-size="10.00" fill="#000000">LFSTK_getGeom</text>
</a>
</g>
</g>
<!-- Node2 -->
<g id="node2" class="node">
<title>Node2</title>
<g id="a_node2"><a xlink:href="class_l_f_s_t_k__scroll_bar_class_a72b11062708e9db06d05162734b5555b.xhtml#a72b11062708e9db06d05162734b5555b" target="_top" xlink:title=" ">
<polygon fill="none" stroke="#000000" points="840.335,-498.3698 840.335,-530.3698 956.889,-530.3698 956.889,-498.3698 840.335,-498.3698"/>
<text text-anchor="start" x="848.335" y="-517.3698" font-family="Helvetica,sans-Serif" font-size="10.00" fill="#000000">LFSTK_scrollBarClass</text>
<text text-anchor="middle" x="898.612" y="-505.3698" font-family="Helvetica,sans-Serif" font-size="10.00" fill="#000000">::mouseUp</text>
</a>
</g>
</g>
<!-- Node1&#45;&gt;Node2 -->
<g id="edge1" class="edge">
<title>Node1&#45;&gt;Node2</title>
<path fill="none" stroke="#191970" d="M1170.2414,-431.4239C1107.0826,-450.7103 1010.5082,-480.2007 951.14,-498.3296"/>
<polygon fill="#191970" stroke="#191970" points="1171.5384,-434.6875 1180.0803,-428.4195 1169.494,-427.9926 1171.5384,-434.6875"/>
</g>
<!-- Node3 -->
<g id="node3" class="node">
<title>Node3</title>
<g id="a_node3"><a xlink:href="class_l_f_s_t_k__multi_line_edit_class_ae1de86c1df295bbe1bcb63b2f98fbb4d.xhtml#ae1de86c1df295bbe1bcb63b2f98fbb4d" target="_top" xlink:title=" ">
<polygon fill="none" stroke="#000000" points="1004.84,-141.3698 1004.84,-173.3698 1139.738,-173.3698 1139.738,-141.3698 1004.84,-141.3698"/>
<text text-anchor="start" x="1012.84" y="-160.3698" font-family="Helvetica,sans-Serif" font-size="10.00" fill="#000000">LFSTK_multiLineEditClass</text>
<text text-anchor="middle" x="1072.289" y="-148.3698" font-family="Helvetica,sans-Serif" font-size="10.00" fill="#000000">::setDisplayLines</text>
</a>
</g>
</g>
<!-- Node1&#45;&gt;Node3 -->
<g id="edge2" class="edge">
<title>Node1&#45;&gt;Node3</title>
<path fill="none" stroke="#191970" d="M1216.9518,-387.4221C1184.2764,-335.4596 1109.7012,-216.8651 1082.478,-173.573"/>
<polygon fill="#191970" stroke="#191970" points="1214.0787,-389.4282 1222.3649,-396.0304 1220.0045,-385.7019 1214.0787,-389.4282"/>
</g>
<!-- Node12 -->
<g id="node12" class="node">
<title>Node12</title>
<g id="a_node12"><a xlink:href="class_l_f_s_t_k__scroll_bar_class_a3e47c5f9944ddb2a861b80853f85ce12.xhtml#a3e47c5f9944ddb2a861b80853f85ce12" target="_top" xlink:title=" ">
<polygon fill="none" stroke="#000000" points="1014.012,-396.3698 1014.012,-428.3698 1130.566,-428.3698 1130.566,-396.3698 1014.012,-396.3698"/>
<text text-anchor="start" x="1022.012" y="-415.3698" font-family="Helvetica,sans-Serif" font-size="10.00" fill="#000000">LFSTK_scrollBarClass</text>
<text text-anchor="middle" x="1072.289" y="-403.3698" font-family="Helvetica,sans-Serif" font-size="10.00" fill="#000000">::setState</text>
</a>
</g>
</g>
<!-- Node1&#45;&gt;Node12 -->
<g id="edge12" class="edge">
<title>Node1&#45;&gt;Node12</title>
<path fill="none" stroke="#191970" d="M1165.5953,-412.3698C1154.0099,-412.3698 1142.0485,-412.3698 1130.7144,-412.3698"/>
<polygon fill="#191970" stroke="#191970" points="1165.6545,-415.8699 1175.6544,-412.3698 1165.6544,-408.8699 1165.6545,-415.8699"/>
</g>
<!-- Node4 -->
<g id="node4" class="node">
<title>Node4</title>
<g id="a_node4"><a xlink:href="class_l_f_s_t_k__multi_line_edit_class_a98abb42ca4d8eb5cf5ea213f77ffd823.xhtml#a98abb42ca4d8eb5cf5ea213f77ffd823" target="_top" xlink:title=" ">
<polygon fill="none" stroke="#000000" points="831.163,-90.3698 831.163,-122.3698 966.061,-122.3698 966.061,-90.3698 831.163,-90.3698"/>
<text text-anchor="start" x="839.163" y="-109.3698" font-family="Helvetica,sans-Serif" font-size="10.00" fill="#000000">LFSTK_multiLineEditClass</text>
<text text-anchor="middle" x="898.612" y="-97.3698" font-family="Helvetica,sans-Serif" font-size="10.00" fill="#000000">::gotFocus</text>
</a>
</g>
</g>
<!-- Node3&#45;&gt;Node4 -->
<g id="edge3" class="edge">
<title>Node3&#45;&gt;Node4</title>
<path fill="none" stroke="#191970" d="M1007.5602,-138.3622C989.6768,-133.1108 970.4531,-127.4658 953.207,-122.4015"/>
<polygon fill="#191970" stroke="#191970" points="1006.7555,-141.7737 1017.3365,-141.233 1008.7278,-135.0572 1006.7555,-141.7737"/>
</g>
<!-- Node5 -->
<g id="node5" class="node">
<title>Node5</title>
<g id="a_node5"><a xlink:href="class_l_f_s_t_k__multi_line_edit_class_afabfc40cf51898aa669d7aaf16660899.xhtml#afabfc40cf51898aa669d7aaf16660899" target="_top" xlink:title=" ">
<polygon fill="none" stroke="#000000" points="486.588,-42.3698 486.588,-74.3698 621.486,-74.3698 621.486,-42.3698 486.588,-42.3698"/>
<text text-anchor="start" x="494.588" y="-61.3698" font-family="Helvetica,sans-Serif" font-size="10.00" fill="#000000">LFSTK_multiLineEditClass</text>
<text text-anchor="middle" x="554.037" y="-49.3698" font-family="Helvetica,sans-Serif" font-size="10.00" fill="#000000">::keyRelease</text>
</a>
</g>
</g>
<!-- Node3&#45;&gt;Node5 -->
<g id="edge4" class="edge">
<title>Node3&#45;&gt;Node5</title>
<path fill="none" stroke="#191970" d="M1060.6045,-132.0975C1044.7684,-101.2537 1013.2767,-50.5912 968.84,-29.3698 844.2543,30.128 674.3097,-15.4575 596.3119,-42.3237"/>
<polygon fill="#191970" stroke="#191970" points="1057.6152,-133.9478 1065.1925,-141.3529 1063.8869,-130.8388 1057.6152,-133.9478"/>
</g>
<!-- Node6 -->
<g id="node6" class="node">
<title>Node6</title>
<g id="a_node6"><a xlink:href="class_l_f_s_t_k__multi_line_edit_class_a3319d21c84b3437e69bb87dc77531322.xhtml#a3319d21c84b3437e69bb87dc77531322" target="_top" xlink:title=" ">
<polygon fill="none" stroke="#000000" points="828.384,-243.3698 828.384,-275.3698 968.84,-275.3698 968.84,-243.3698 828.384,-243.3698"/>
<text text-anchor="start" x="836.384" y="-262.3698" font-family="Helvetica,sans-Serif" font-size="10.00" fill="#000000">LFSTK_multiLineEditClass</text>
<text text-anchor="middle" x="898.612" y="-250.3698" font-family="Helvetica,sans-Serif" font-size="10.00" fill="#000000">::LFSTK_multiLineEditClass</text>
</a>
</g>
</g>
<!-- Node3&#45;&gt;Node6 -->
<g id="edge5" class="edge">
<title>Node3&#45;&gt;Node6</title>
<path fill="none" stroke="#191970" d="M1046.229,-180.2189C1026.151,-196.9372 997.1266,-219.2483 968.84,-234.3698 962.7909,-237.6035 956.2364,-240.5698 949.6451,-243.2408"/>
<polygon fill="#191970" stroke="#191970" points="1048.6123,-182.7873 1053.9931,-173.6605 1044.0952,-177.4397 1048.6123,-182.7873"/>
</g>
<!-- Node7 -->
<g id="node7" class="node">
<title>Node7</title>
<g id="a_node7"><a xlink:href="class_l_f_s_t_k__multi_line_edit_class_a7e92ac74c2a5d709dc5911d291b6ed90.xhtml#a7e92ac74c2a5d709dc5911d291b6ed90" target="_top" xlink:title=" ">
<polygon fill="none" stroke="#000000" points="831.163,-192.3698 831.163,-224.3698 966.061,-224.3698 966.061,-192.3698 831.163,-192.3698"/>
<text text-anchor="start" x="839.163" y="-211.3698" font-family="Helvetica,sans-Serif" font-size="10.00" fill="#000000">LFSTK_multiLineEditClass</text>
<text text-anchor="middle" x="898.612" y="-199.3698" font-family="Helvetica,sans-Serif" font-size="10.00" fill="#000000">::LFSTK_setFocus</text>
</a>
</g>
</g>
<!-- Node3&#45;&gt;Node7 -->
<g id="edge6" class="edge">
<title>Node3&#45;&gt;Node7</title>
<path fill="none" stroke="#191970" d="M1007.5602,-176.3773C989.6768,-181.6287 970.4531,-187.2737 953.207,-192.338"/>
<polygon fill="#191970" stroke="#191970" points="1008.7278,-179.6823 1017.3365,-173.5065 1006.7555,-172.9659 1008.7278,-179.6823"/>
</g>
<!-- Node8 -->
<g id="node8" class="node">
<title>Node8</title>
<g id="a_node8"><a xlink:href="class_l_f_s_t_k__multi_line_edit_class_ae50305eb44baa381e0c7ce5c2e86a22e.xhtml#ae50305eb44baa381e0c7ce5c2e86a22e" target="_top" xlink:title=" ">
<polygon fill="none" stroke="#000000" points="831.163,-39.3698 831.163,-71.3698 966.061,-71.3698 966.061,-39.3698 831.163,-39.3698"/>
<text text-anchor="start" x="839.163" y="-58.3698" font-family="Helvetica,sans-Serif" font-size="10.00" fill="#000000">LFSTK_multiLineEditClass</text>
<text text-anchor="middle" x="898.612" y="-46.3698" font-family="Helvetica,sans-Serif" font-size="10.00" fill="#000000">::LFSTK_setFormatedText</text>
</a>
</g>
</g>
<!-- Node3&#45;&gt;Node8 -->
<g id="edge7" class="edge">
<title>Node3&#45;&gt;Node8</title>
<path fill="none" stroke="#191970" d="M1045.7538,-134.6398C1025.6377,-118.2366 996.7759,-96.4177 968.84,-81.3698 962.0868,-77.7321 954.7161,-74.3901 947.3714,-71.4008"/>
<polygon fill="#191970" stroke="#191970" points="1043.6073,-137.4064 1053.5451,-141.0795 1048.0669,-132.0108 1043.6073,-137.4064"/>
</g>
<!-- Node11 -->
<g id="node11" class="node">
<title>Node11</title>
<g id="a_node11"><a xlink:href="class_l_f_s_t_k__multi_line_edit_class_a051e7185aee5e4994ffca22270335b96.xhtml#a051e7185aee5e4994ffca22270335b96" target="_top" xlink:title=" ">
<polygon fill="none" stroke="#000000" points="831.163,-141.3698 831.163,-173.3698 966.061,-173.3698 966.061,-141.3698 831.163,-141.3698"/>
<text text-anchor="start" x="839.163" y="-160.3698" font-family="Helvetica,sans-Serif" font-size="10.00" fill="#000000">LFSTK_multiLineEditClass</text>
<text text-anchor="middle" x="898.612" y="-148.3698" font-family="Helvetica,sans-Serif" font-size="10.00" fill="#000000">::lostFocus</text>
</a>
</g>
</g>
<!-- Node3&#45;&gt;Node11 -->
<g id="edge11" class="edge">
<title>Node3&#45;&gt;Node11</title>
<path fill="none" stroke="#191970" d="M994.4493,-157.3698C984.9825,-157.3698 975.3714,-157.3698 966.0728,-157.3698"/>
<polygon fill="#191970" stroke="#191970" points="994.6437,-160.8699 1004.6436,-157.3698 994.6436,-153.8699 994.6437,-160.8699"/>
</g>
<!-- Node9 -->
<g id="node9" class="node">
<title>Node9</title>
<g id="a_node9"><a xlink:href="class_l_f_s_t_k__multi_line_edit_class_ac4155f83eae3374ea97007bd36b7985a.xhtml#ac4155f83eae3374ea97007bd36b7985a" target="_top" xlink:title=" ">
<polygon fill="none" stroke="#000000" points="657.486,-90.3698 657.486,-122.3698 792.384,-122.3698 792.384,-90.3698 657.486,-90.3698"/>
<text text-anchor="start" x="665.486" y="-109.3698" font-family="Helvetica,sans-Serif" font-size="10.00" fill="#000000">LFSTK_multiLineEditClass</text>
<text text-anchor="middle" x="724.935" y="-97.3698" font-family="Helvetica,sans-Serif" font-size="10.00" fill="#000000">::getClip</text>
</a>
</g>
</g>
<!-- Node8&#45;&gt;Node9 -->
<g id="edge8" class="edge">
<title>Node8&#45;&gt;Node9</title>
<path fill="none" stroke="#191970" d="M833.8832,-74.3773C815.9998,-79.6287 796.7761,-85.2737 779.53,-90.338"/>
<polygon fill="#191970" stroke="#191970" points="835.0508,-77.6823 843.6595,-71.5065 833.0785,-70.9659 835.0508,-77.6823"/>
</g>
<!-- Node10 -->
<g id="node10" class="node">
<title>Node10</title>
<g id="a_node10"><a xlink:href="class_l_f_s_t_k__multi_line_edit_class_a67d883fd9590a202e35805e040604226.xhtml#a67d883fd9590a202e35805e040604226" target="_top" xlink:title=" ">
<polygon fill="none" stroke="#000000" points="657.486,-39.3698 657.486,-71.3698 792.384,-71.3698 792.384,-39.3698 657.486,-39.3698"/>
<text text-anchor="start" x="665.486" y="-58.3698" font-family="Helvetica,sans-Serif" font-size="10.00" fill="#000000">LFSTK_multiLineEditClass</text>
<text text-anchor="middle" x="724.935" y="-46.3698" font-family="Helvetica,sans-Serif" font-size="10.00" fill="#000000">::LFSTK_dropData</text>
</a>
</g>
</g>
<!-- Node8&#45;&gt;Node10 -->
<g id="edge10" class="edge">
<title>Node8&#45;&gt;Node10</title>
<path fill="none" stroke="#191970" d="M820.7723,-55.3698C811.3055,-55.3698 801.6944,-55.3698 792.3958,-55.3698"/>
<polygon fill="#191970" stroke="#191970" points="820.9667,-58.8699 830.9666,-55.3698 820.9666,-51.8699 820.9667,-58.8699"/>
</g>
<!-- Node9&#45;&gt;Node5 -->
<g id="edge9" class="edge">
<title>Node9&#45;&gt;Node5</title>
<path fill="none" stroke="#191970" d="M657.6165,-87.4621C642.2833,-83.1554 626.1336,-78.6195 611.2675,-74.4441"/>
<polygon fill="#191970" stroke="#191970" points="656.9791,-90.9184 667.553,-90.2529 658.872,-84.1792 656.9791,-90.9184"/>
</g>
<!-- Node12&#45;&gt;Node2 -->
<g id="edge35" class="edge">
<title>Node12&#45;&gt;Node2</title>
<path fill="none" stroke="#191970" d="M1046.229,-435.2189C1026.151,-451.9372 997.1266,-474.2483 968.84,-489.3698 962.7909,-492.6035 956.2364,-495.5698 949.6451,-498.2408"/>
<polygon fill="#191970" stroke="#191970" points="1048.6123,-437.7873 1053.9931,-428.6605 1044.0952,-432.4397 1048.6123,-437.7873"/>
</g>
<!-- Node13 -->
<g id="node13" class="node">
<title>Node13</title>
<g id="a_node13"><a xlink:href="class_l_f_s_t_k__scroll_bar_class_a6a4b0d2c9217779bb3bc0b4c936130ce.xhtml#a6a4b0d2c9217779bb3bc0b4c936130ce" target="_top" xlink:title=" ">
<polygon fill="none" stroke="#000000" points="840.335,-396.3698 840.335,-428.3698 956.889,-428.3698 956.889,-396.3698 840.335,-396.3698"/>
<text text-anchor="start" x="848.335" y="-415.3698" font-family="Helvetica,sans-Serif" font-size="10.00" fill="#000000">LFSTK_scrollBarClass</text>
<text text-anchor="middle" x="898.612" y="-403.3698" font-family="Helvetica,sans-Serif" font-size="10.00" fill="#000000">::LFSTK_clearWindow</text>
</a>
</g>
</g>
<!-- Node12&#45;&gt;Node13 -->
<g id="edge13" class="edge">
<title>Node12&#45;&gt;Node13</title>
<path fill="none" stroke="#191970" d="M1003.9306,-405.7575C988.4333,-405.5233 972.1126,-405.5878 957.0688,-405.951"/>
<polygon fill="#191970" stroke="#191970" points="1003.9072,-409.2576 1013.9739,-405.9544 1004.0445,-402.2589 1003.9072,-409.2576"/>
</g>
<!-- Node14 -->
<g id="node14" class="node">
<title>Node14</title>
<g id="a_node14"><a xlink:href="class_l_f_s_t_k__scroll_bar_class_a955c2789a3ce6d849a3d00a3bf4911e7.xhtml#a955c2789a3ce6d849a3d00a3bf4911e7" target="_top" xlink:title=" ">
<polygon fill="none" stroke="#000000" points="840.335,-447.3698 840.335,-479.3698 956.889,-479.3698 956.889,-447.3698 840.335,-447.3698"/>
<text text-anchor="start" x="848.335" y="-466.3698" font-family="Helvetica,sans-Serif" font-size="10.00" fill="#000000">LFSTK_scrollBarClass</text>
<text text-anchor="middle" x="898.612" y="-454.3698" font-family="Helvetica,sans-Serif" font-size="10.00" fill="#000000">::LFSTK_setValue</text>
</a>
</g>
</g>
<!-- Node12&#45;&gt;Node14 -->
<g id="edge15" class="edge">
<title>Node12&#45;&gt;Node14</title>
<path fill="none" stroke="#191970" d="M1007.5602,-431.3773C989.6768,-436.6287 970.4531,-442.2737 953.207,-447.338"/>
<polygon fill="#191970" stroke="#191970" points="1008.7278,-434.6823 1017.3365,-428.5065 1006.7555,-427.9659 1008.7278,-434.6823"/>
</g>
<!-- Node24 -->
<g id="node24" class="node">
<title>Node24</title>
<g id="a_node24"><a xlink:href="class_l_f_s_t_k__scroll_bar_class_aa1ce7f61248cfa6eeef3e8573e327d8f.xhtml#aa1ce7f61248cfa6eeef3e8573e327d8f" target="_top" xlink:title=" ">
<polygon fill="none" stroke="#000000" points="840.335,-294.3698 840.335,-326.3698 956.889,-326.3698 956.889,-294.3698 840.335,-294.3698"/>
<text text-anchor="start" x="848.335" y="-313.3698" font-family="Helvetica,sans-Serif" font-size="10.00" fill="#000000">LFSTK_scrollBarClass</text>
<text text-anchor="middle" x="898.612" y="-301.3698" font-family="Helvetica,sans-Serif" font-size="10.00" fill="#000000">::lineUpDown</text>
</a>
</g>
</g>
<!-- Node12&#45;&gt;Node24 -->
<g id="edge26" class="edge">
<title>Node12&#45;&gt;Node24</title>
<path fill="none" stroke="#191970" d="M1045.7538,-389.6398C1025.6377,-373.2366 996.7759,-351.4177 968.84,-336.3698 962.0868,-332.7321 954.7161,-329.3901 947.3714,-326.4008"/>
<polygon fill="#191970" stroke="#191970" points="1043.6073,-392.4064 1053.5451,-396.0795 1048.0669,-387.0108 1043.6073,-392.4064"/>
</g>
<!-- Node32 -->
<g id="node32" class="node">
<title>Node32</title>
<g id="a_node32"><a xlink:href="class_l_f_s_t_k__scroll_bar_class_a04c7fd897a3f2e5d496962cc7d80d4e3.xhtml#a04c7fd897a3f2e5d496962cc7d80d4e3" target="_top" xlink:title=" ">
<polygon fill="none" stroke="#000000" points="840.335,-345.3698 840.335,-377.3698 956.889,-377.3698 956.889,-345.3698 840.335,-345.3698"/>
<text text-anchor="start" x="848.335" y="-364.3698" font-family="Helvetica,sans-Serif" font-size="10.00" fill="#000000">LFSTK_scrollBarClass</text>
<text text-anchor="middle" x="898.612" y="-352.3698" font-family="Helvetica,sans-Serif" font-size="10.00" fill="#000000">::pageUpDown</text>
</a>
</g>
</g>
<!-- Node12&#45;&gt;Node32 -->
<g id="edge36" class="edge">
<title>Node12&#45;&gt;Node32</title>
<path fill="none" stroke="#191970" d="M1007.5602,-393.3622C989.6768,-388.1108 970.4531,-382.4658 953.207,-377.4015"/>
<polygon fill="#191970" stroke="#191970" points="1006.7555,-396.7737 1017.3365,-396.233 1008.7278,-390.0572 1006.7555,-396.7737"/>
</g>
<!-- Node13&#45;&gt;Node12 -->
<g id="edge14" class="edge">
<title>Node13&#45;&gt;Node12</title>
<path fill="none" stroke="#191970" d="M967.1165,-418.9842C982.6189,-419.2166 998.9381,-419.1502 1013.9739,-418.7851"/>
<polygon fill="#191970" stroke="#191970" points="967.1351,-415.484 957.0688,-418.7885 966.9987,-422.4827 967.1351,-415.484"/>
</g>
<!-- Node15 -->
<g id="node15" class="node">
<title>Node15</title>
<g id="a_node15"><a xlink:href="class_l_f_s_t_k__list_gadget_class_a7b9a3f3a749e622fdd46da8f72da2002.xhtml#a7b9a3f3a749e622fdd46da8f72da2002" target="_top" xlink:title=" ">
<polygon fill="none" stroke="#000000" points="663.594,-447.3698 663.594,-479.3698 786.276,-479.3698 786.276,-447.3698 663.594,-447.3698"/>
<text text-anchor="start" x="671.594" y="-466.3698" font-family="Helvetica,sans-Serif" font-size="10.00" fill="#000000">LFSTK_listGadgetClass</text>
<text text-anchor="middle" x="724.935" y="-454.3698" font-family="Helvetica,sans-Serif" font-size="10.00" fill="#000000">::LFSTK_updateList</text>
</a>
</g>
</g>
<!-- Node14&#45;&gt;Node15 -->
<g id="edge16" class="edge">
<title>Node14&#45;&gt;Node15</title>
<path fill="none" stroke="#191970" d="M829.9631,-463.3698C815.5688,-463.3698 800.4764,-463.3698 786.3656,-463.3698"/>
<polygon fill="#191970" stroke="#191970" points="830.297,-466.8699 840.2969,-463.3698 830.2969,-459.8699 830.297,-466.8699"/>
</g>
<!-- Node16 -->
<g id="node16" class="node">
<title>Node16</title>
<g id="a_node16"><a xlink:href="class_l_f_s_t_k__font_dialog_class_af866eb2b1ba8178c9cf3e751716fcc8e.xhtml#af866eb2b1ba8178c9cf3e751716fcc8e" target="_top" xlink:title=" ">
<polygon fill="none" stroke="#000000" points="492.6965,-498.3698 492.6965,-530.3698 615.3775,-530.3698 615.3775,-498.3698 492.6965,-498.3698"/>
<text text-anchor="start" x="500.6965" y="-517.3698" font-family="Helvetica,sans-Serif" font-size="10.00" fill="#000000">LFSTK_fontDialogClass</text>
<text text-anchor="middle" x="554.037" y="-505.3698" font-family="Helvetica,sans-Serif" font-size="10.00" fill="#000000">::buildDialog</text>
</a>
</g>
</g>
<!-- Node15&#45;&gt;Node16 -->
<g id="edge17" class="edge">
<title>Node15&#45;&gt;Node16</title>
<path fill="none" stroke="#191970" d="M661.2419,-482.3773C643.6447,-487.6287 624.7286,-493.2737 607.7584,-498.338"/>
<polygon fill="#191970" stroke="#191970" points="662.2803,-485.72 670.8618,-479.5065 660.2785,-479.0123 662.2803,-485.72"/>
</g>
<!-- Node18 -->
<g id="node18" class="node">
<title>Node18</title>
<g id="a_node18"><a xlink:href="class_l_f_s_t_k__file_dialog_class_a0a6b4f1db71031bf35a7636b736e8698.xhtml#a0a6b4f1db71031bf35a7636b736e8698" target="_top" xlink:title=" ">
<polygon fill="none" stroke="#000000" points="494.6465,-447.3698 494.6465,-479.3698 613.4275,-479.3698 613.4275,-447.3698 494.6465,-447.3698"/>
<text text-anchor="start" x="502.6465" y="-466.3698" font-family="Helvetica,sans-Serif" font-size="10.00" fill="#000000">LFSTK_fileDialogClass</text>
<text text-anchor="middle" x="554.037" y="-454.3698" font-family="Helvetica,sans-Serif" font-size="10.00" fill="#000000">::getFileList</text>
</a>
</g>
</g>
<!-- Node15&#45;&gt;Node18 -->
<g id="edge19" class="edge">
<title>Node15&#45;&gt;Node18</title>
<path fill="none" stroke="#191970" d="M652.8719,-463.3698C639.8029,-463.3698 626.3056,-463.3698 613.6439,-463.3698"/>
<polygon fill="#191970" stroke="#191970" points="653.2369,-466.8699 663.2369,-463.3698 653.2369,-459.8699 653.2369,-466.8699"/>
</g>
<!-- Node23 -->
<g id="node23" class="node">
<title>Node23</title>
<g id="a_node23"><a xlink:href="class_l_f_s_t_k__list_gadget_class_addcdb5ba330fd8dd36beb94ea2081dd3.xhtml#addcdb5ba330fd8dd36beb94ea2081dd3" target="_top" xlink:title=" ">
<polygon fill="none" stroke="#000000" points="490.7575,-396.3698 490.7575,-428.3698 617.3165,-428.3698 617.3165,-396.3698 490.7575,-396.3698"/>
<text text-anchor="start" x="498.7575" y="-415.3698" font-family="Helvetica,sans-Serif" font-size="10.00" fill="#000000">LFSTK_listGadgetClass</text>
<text text-anchor="middle" x="554.037" y="-403.3698" font-family="Helvetica,sans-Serif" font-size="10.00" fill="#000000">::LFSTK_setListFromFile</text>
</a>
</g>
</g>
<!-- Node15&#45;&gt;Node23 -->
<g id="edge25" class="edge">
<title>Node15&#45;&gt;Node23</title>
<path fill="none" stroke="#191970" d="M661.2419,-444.3622C643.6447,-439.1108 624.7286,-433.4658 607.7584,-428.4015"/>
<polygon fill="#191970" stroke="#191970" points="660.2785,-447.7272 670.8618,-447.233 662.2803,-441.0195 660.2785,-447.7272"/>
</g>
<!-- Node17 -->
<g id="node17" class="node">
<title>Node17</title>
<g id="a_node17"><a xlink:href="class_l_f_s_t_k__font_dialog_class_ab7b6a4bca99713646ab6ac77dc34827c.xhtml#ab7b6a4bca99713646ab6ac77dc34827c" target="_top" xlink:title=" ">
<polygon fill="none" stroke="#000000" points="322.3485,-498.3698 322.3485,-530.3698 450.5875,-530.3698 450.5875,-498.3698 322.3485,-498.3698"/>
<text text-anchor="start" x="330.3485" y="-517.3698" font-family="Helvetica,sans-Serif" font-size="10.00" fill="#000000">LFSTK_fontDialogClass</text>
<text text-anchor="middle" x="386.468" y="-505.3698" font-family="Helvetica,sans-Serif" font-size="10.00" fill="#000000">::LFSTK_fontDialogClass</text>
</a>
</g>
</g>
<!-- Node16&#45;&gt;Node17 -->
<g id="edge18" class="edge">
<title>Node16&#45;&gt;Node17</title>
<path fill="none" stroke="#191970" d="M482.5564,-514.3698C471.98,-514.3698 461.1363,-514.3698 450.7192,-514.3698"/>
<polygon fill="#191970" stroke="#191970" points="482.592,-517.8699 492.592,-514.3698 482.592,-510.8699 482.592,-517.8699"/>
</g>
<!-- Node19 -->
<g id="node19" class="node">
<title>Node19</title>
<g id="a_node19"><a xlink:href="class_l_f_s_t_k__file_dialog_class_a553ce8e885b0d60cbf515b7b3d1e8b65.xhtml#a553ce8e885b0d60cbf515b7b3d1e8b65" target="_top" xlink:title=" ">
<polygon fill="none" stroke="#000000" points="0,-402.3698 0,-434.3698 124.339,-434.3698 124.339,-402.3698 0,-402.3698"/>
<text text-anchor="start" x="8" y="-421.3698" font-family="Helvetica,sans-Serif" font-size="10.00" fill="#000000">LFSTK_fileDialogClass</text>
<text text-anchor="middle" x="62.1695" y="-409.3698" font-family="Helvetica,sans-Serif" font-size="10.00" fill="#000000">::LFSTK_fileDialogClass</text>
</a>
</g>
</g>
<!-- Node18&#45;&gt;Node19 -->
<g id="edge20" class="edge">
<title>Node18&#45;&gt;Node19</title>
<path fill="none" stroke="#191970" d="M484.2187,-465.6915C405.1038,-467.1315 272.5637,-465.9331 160.339,-447.3698 142.9812,-444.4986 124.3671,-439.5111 108.0644,-434.4735"/>
<polygon fill="#191970" stroke="#191970" points="484.6179,-469.1843 494.5452,-465.483 484.4765,-462.1857 484.6179,-469.1843"/>
</g>
<!-- Node20 -->
<g id="node20" class="node">
<title>Node20</title>
<g id="a_node20"><a xlink:href="class_l_f_s_t_k__file_dialog_class_aa8804989d381def9acb2c99d47d6dc3d.xhtml#aa8804989d381def9acb2c99d47d6dc3d" target="_top" xlink:title=" ">
<polygon fill="none" stroke="#000000" points="325.9675,-405.3698 325.9675,-437.3698 446.9685,-437.3698 446.9685,-405.3698 325.9675,-405.3698"/>
<text text-anchor="start" x="333.9675" y="-424.3698" font-family="Helvetica,sans-Serif" font-size="10.00" fill="#000000">LFSTK_fileDialogClass</text>
<text text-anchor="middle" x="386.468" y="-412.3698" font-family="Helvetica,sans-Serif" font-size="10.00" fill="#000000">::LFSTK_setWorkingDir</text>
</a>
</g>
</g>
<!-- Node18&#45;&gt;Node20 -->
<g id="edge21" class="edge">
<title>Node18&#45;&gt;Node20</title>
<path fill="none" stroke="#191970" d="M484.6469,-445.9776C472.2344,-442.8665 459.3874,-439.6465 447.2401,-436.6018"/>
<polygon fill="#191970" stroke="#191970" points="483.9357,-449.4076 494.4866,-448.4439 485.6376,-442.6176 483.9357,-449.4076"/>
</g>
<!-- Node21 -->
<g id="node21" class="node">
<title>Node21</title>
<g id="a_node21"><a xlink:href="class_l_f_s_t_k__file_dialog_class_aacf1d4b61cbb5b40d06f591ea96f9ea7.xhtml#aacf1d4b61cbb5b40d06f591ea96f9ea7" target="_top" xlink:title=" ">
<polygon fill="none" stroke="#000000" points="160.339,-405.3698 160.339,-437.3698 286.348,-437.3698 286.348,-405.3698 160.339,-405.3698"/>
<text text-anchor="start" x="168.339" y="-424.3698" font-family="Helvetica,sans-Serif" font-size="10.00" fill="#000000">LFSTK_fileDialogClass</text>
<text text-anchor="middle" x="223.3435" y="-412.3698" font-family="Helvetica,sans-Serif" font-size="10.00" fill="#000000">::LFSTK_showFileDialog</text>
</a>
</g>
</g>
<!-- Node20&#45;&gt;Node21 -->
<g id="edge22" class="edge">
<title>Node20&#45;&gt;Node21</title>
<path fill="none" stroke="#191970" d="M315.7259,-421.3698C306.0347,-421.3698 296.1361,-421.3698 286.5904,-421.3698"/>
<polygon fill="#191970" stroke="#191970" points="315.7265,-424.8699 325.7265,-421.3698 315.7264,-417.8699 315.7265,-424.8699"/>
</g>
<!-- Node22 -->
<g id="node22" class="node">
<title>Node22</title>
<g id="a_node22"><a xlink:href="class_l_f_s_t_k__file_dialog_class_a789cade9437906181e31a243c85d52e5.xhtml#a789cade9437906181e31a243c85d52e5" target="_top" xlink:title=" ">
<polygon fill="none" stroke="#000000" points="163.953,-354.3698 163.953,-386.3698 282.734,-386.3698 282.734,-354.3698 163.953,-354.3698"/>
<text text-anchor="start" x="171.953" y="-373.3698" font-family="Helvetica,sans-Serif" font-size="10.00" fill="#000000">LFSTK_fileDialogClass</text>
<text text-anchor="middle" x="223.3435" y="-361.3698" font-family="Helvetica,sans-Serif" font-size="10.00" fill="#000000">::select</text>
</a>
</g>
</g>
<!-- Node20&#45;&gt;Node22 -->
<g id="edge23" class="edge">
<title>Node20&#45;&gt;Node22</title>
<path fill="none" stroke="#191970" d="M325.2052,-402.2163C308.5411,-397.0063 290.6696,-391.4189 274.6213,-386.4015"/>
<polygon fill="#191970" stroke="#191970" points="324.2656,-405.5895 334.8544,-405.233 326.3544,-398.9084 324.2656,-405.5895"/>
</g>
<!-- Node22&#45;&gt;Node19 -->
<g id="edge24" class="edge">
<title>Node22&#45;&gt;Node19</title>
<path fill="none" stroke="#191970" d="M159.442,-389.4006C145.1046,-393.6704 130.0303,-398.1598 116.1436,-402.2955"/>
<polygon fill="#191970" stroke="#191970" points="160.6415,-392.6953 169.2265,-386.4866 158.6435,-385.9865 160.6415,-392.6953"/>
</g>
<!-- Node25 -->
<g id="node25" class="node">
<title>Node25</title>
<g id="a_node25"><a xlink:href="class_l_f_s_t_k__scroll_bar_class_a3da4281c24ac345ba32a4636ce2af38b.xhtml#a3da4281c24ac345ba32a4636ce2af38b" target="_top" xlink:title=" ">
<polygon fill="none" stroke="#000000" points="663.879,-243.3698 663.879,-275.3698 785.991,-275.3698 785.991,-243.3698 663.879,-243.3698"/>
<text text-anchor="start" x="671.879" y="-262.3698" font-family="Helvetica,sans-Serif" font-size="10.00" fill="#000000">LFSTK_scrollBarClass</text>
<text text-anchor="middle" x="724.935" y="-250.3698" font-family="Helvetica,sans-Serif" font-size="10.00" fill="#000000">::LFSTK_scrollBarClass</text>
</a>
</g>
</g>
<!-- Node24&#45;&gt;Node25 -->
<g id="edge27" class="edge">
<title>Node24&#45;&gt;Node25</title>
<path fill="none" stroke="#191970" d="M833.8832,-291.3622C815.9998,-286.1108 796.7761,-280.4658 779.53,-275.4015"/>
<polygon fill="#191970" stroke="#191970" points="833.0785,-294.7737 843.6595,-294.233 835.0508,-288.0572 833.0785,-294.7737"/>
</g>
<!-- Node26 -->
<g id="node26" class="node">
<title>Node26</title>
<g id="a_node26"><a xlink:href="class_l_f_s_t_k__scroll_bar_class_a690ed010fb6760b5ee112df392076df5.xhtml#a690ed010fb6760b5ee112df392076df5" target="_top" xlink:title=" ">
<polygon fill="none" stroke="#000000" points="666.658,-294.3698 666.658,-326.3698 783.212,-326.3698 783.212,-294.3698 666.658,-294.3698"/>
<text text-anchor="start" x="674.658" y="-313.3698" font-family="Helvetica,sans-Serif" font-size="10.00" fill="#000000">LFSTK_scrollBarClass</text>
<text text-anchor="middle" x="724.935" y="-301.3698" font-family="Helvetica,sans-Serif" font-size="10.00" fill="#000000">::LFSTK_scrollByLine</text>
</a>
</g>
</g>
<!-- Node24&#45;&gt;Node26 -->
<g id="edge28" class="edge">
<title>Node24&#45;&gt;Node26</title>
<path fill="none" stroke="#191970" d="M830.2536,-310.3698C814.7563,-310.3698 798.4356,-310.3698 783.3918,-310.3698"/>
<polygon fill="#191970" stroke="#191970" points="830.297,-313.8699 840.2969,-310.3698 830.2969,-306.8699 830.297,-313.8699"/>
</g>
<!-- Node27 -->
<g id="node27" class="node">
<title>Node27</title>
<g id="a_node27"><a xlink:href="class_l_f_s_t_k__list_gadget_class_afd92ab070d0d68863589669cb73404cf.xhtml#afd92ab070d0d68863589669cb73404cf" target="_top" xlink:title=" ">
<polygon fill="none" stroke="#000000" points="492.696,-345.3698 492.696,-377.3698 615.378,-377.3698 615.378,-345.3698 492.696,-345.3698"/>
<text text-anchor="start" x="500.696" y="-364.3698" font-family="Helvetica,sans-Serif" font-size="10.00" fill="#000000">LFSTK_listGadgetClass</text>
<text text-anchor="middle" x="554.037" y="-352.3698" font-family="Helvetica,sans-Serif" font-size="10.00" fill="#000000">::keyRelease</text>
</a>
</g>
</g>
<!-- Node26&#45;&gt;Node27 -->
<g id="edge29" class="edge">
<title>Node26&#45;&gt;Node27</title>
<path fill="none" stroke="#191970" d="M661.2419,-329.3773C643.6447,-334.6287 624.7286,-340.2737 607.7584,-345.338"/>
<polygon fill="#191970" stroke="#191970" points="662.2803,-332.72 670.8618,-326.5065 660.2785,-326.0123 662.2803,-332.72"/>
</g>
<!-- Node28 -->
<g id="node28" class="node">
<title>Node28</title>
<g id="a_node28"><a xlink:href="class_l_f_s_t_k__list_gadget_class_ad54eba5a5dc2bac69eeb6a1e40b563d7.xhtml#ad54eba5a5dc2bac69eeb6a1e40b563d7" target="_top" xlink:title=" ">
<polygon fill="none" stroke="#000000" points="492.696,-243.3698 492.696,-275.3698 615.378,-275.3698 615.378,-243.3698 492.696,-243.3698"/>
<text text-anchor="start" x="500.696" y="-262.3698" font-family="Helvetica,sans-Serif" font-size="10.00" fill="#000000">LFSTK_listGadgetClass</text>
<text text-anchor="middle" x="554.037" y="-250.3698" font-family="Helvetica,sans-Serif" font-size="10.00" fill="#000000">::mouseUp</text>
</a>
</g>
</g>
<!-- Node26&#45;&gt;Node28 -->
<g id="edge30" class="edge">
<title>Node26&#45;&gt;Node28</title>
<path fill="none" stroke="#191970" d="M661.2419,-291.3622C643.6447,-286.1108 624.7286,-280.4658 607.7584,-275.4015"/>
<polygon fill="#191970" stroke="#191970" points="660.2785,-294.7272 670.8618,-294.233 662.2803,-288.0195 660.2785,-294.7272"/>
</g>
<!-- Node29 -->
<g id="node29" class="node">
<title>Node29</title>
<g id="a_node29"><a xlink:href="class_l_f_s_t_k__list_gadget_class_ad9b006620b5e9712da9b0ee3ead405de.xhtml#ad9b006620b5e9712da9b0ee3ead405de" target="_top" xlink:title=" ">
<polygon fill="none" stroke="#000000" points="492.696,-192.3698 492.696,-224.3698 615.378,-224.3698 615.378,-192.3698 492.696,-192.3698"/>
<text text-anchor="start" x="500.696" y="-211.3698" font-family="Helvetica,sans-Serif" font-size="10.00" fill="#000000">LFSTK_listGadgetClass</text>
<text text-anchor="middle" x="554.037" y="-199.3698" font-family="Helvetica,sans-Serif" font-size="10.00" fill="#000000">::select</text>
</a>
</g>
</g>
<!-- Node26&#45;&gt;Node29 -->
<g id="edge31" class="edge">
<title>Node26&#45;&gt;Node29</title>
<path fill="none" stroke="#191970" d="M663.0199,-289.2506C661.1069,-288.0232 659.2556,-286.7305 657.486,-285.3698 635.4922,-268.4568 643.3697,-251.425 621.486,-234.3698 616.6357,-230.5896 611.1711,-227.304 605.505,-224.4621"/>
<polygon fill="#191970" stroke="#191970" points="661.3196,-292.31 671.7403,-294.2229 664.7869,-286.2291 661.3196,-292.31"/>
</g>
<!-- Node31 -->
<g id="node31" class="node">
<title>Node31</title>
<g id="a_node31"><a xlink:href="class_l_f_s_t_k__list_gadget_class_acf5ccc1d522f0d8a3b23e392b7ce30a5.xhtml#acf5ccc1d522f0d8a3b23e392b7ce30a5" target="_top" xlink:title=" ">
<polygon fill="none" stroke="#000000" points="492.696,-294.3698 492.696,-326.3698 615.378,-326.3698 615.378,-294.3698 492.696,-294.3698"/>
<text text-anchor="start" x="500.696" y="-313.3698" font-family="Helvetica,sans-Serif" font-size="10.00" fill="#000000">LFSTK_listGadgetClass</text>
<text text-anchor="middle" x="554.037" y="-301.3698" font-family="Helvetica,sans-Serif" font-size="10.00" fill="#000000">::selectKey</text>
</a>
</g>
</g>
<!-- Node26&#45;&gt;Node31 -->
<g id="edge33" class="edge">
<title>Node26&#45;&gt;Node31</title>
<path fill="none" stroke="#191970" d="M656.4212,-310.3698C642.9308,-310.3698 628.8537,-310.3698 615.6087,-310.3698"/>
<polygon fill="#191970" stroke="#191970" points="656.5996,-313.8699 666.5996,-310.3698 656.5996,-306.8699 656.5996,-313.8699"/>
</g>
<!-- Node30 -->
<g id="node30" class="node">
<title>Node30</title>
<g id="a_node30"><a xlink:href="class_l_f_s_t_k__list_gadget_class_ae3518016f28ec3cd261ad927c5691826.xhtml#ae3518016f28ec3cd261ad927c5691826" target="_top" xlink:title=" ">
<polygon fill="none" stroke="#000000" points="322.348,-243.3698 322.348,-275.3698 450.588,-275.3698 450.588,-243.3698 322.348,-243.3698"/>
<text text-anchor="start" x="330.348" y="-262.3698" font-family="Helvetica,sans-Serif" font-size="10.00" fill="#000000">LFSTK_listGadgetClass</text>
<text text-anchor="middle" x="386.468" y="-250.3698" font-family="Helvetica,sans-Serif" font-size="10.00" fill="#000000">::LFSTK_listGadgetClass</text>
</a>
</g>
</g>
<!-- Node29&#45;&gt;Node30 -->
<g id="edge32" class="edge">
<title>Node29&#45;&gt;Node30</title>
<path fill="none" stroke="#191970" d="M491.105,-227.5232C473.9868,-232.7332 455.6285,-238.3206 439.143,-243.338"/>
<polygon fill="#191970" stroke="#191970" points="492.4695,-230.7666 501.0171,-224.5065 490.4313,-224.0698 492.4695,-230.7666"/>
</g>
<!-- Node31&#45;&gt;Node30 -->
<g id="edge34" class="edge">
<title>Node31&#45;&gt;Node30</title>
<path fill="none" stroke="#191970" d="M491.105,-291.2163C473.9868,-286.0063 455.6285,-280.4189 439.143,-275.4015"/>
<polygon fill="#191970" stroke="#191970" points="490.4313,-294.6697 501.0171,-294.233 492.4695,-287.973 490.4313,-294.6697"/>
</g>
<!-- Node33 -->
<g id="node33" class="node">
<title>Node33</title>
<g id="a_node33"><a xlink:href="class_l_f_s_t_k__scroll_bar_class_a1aa54518e56118cc5f92890b7269c3d1.xhtml#a1aa54518e56118cc5f92890b7269c3d1" target="_top" xlink:title=" ">
<polygon fill="none" stroke="#000000" points="666.6485,-345.3698 666.6485,-377.3698 783.2215,-377.3698 783.2215,-345.3698 666.6485,-345.3698"/>
<text text-anchor="start" x="674.6485" y="-364.3698" font-family="Helvetica,sans-Serif" font-size="10.00" fill="#000000">LFSTK_scrollBarClass</text>
<text text-anchor="middle" x="724.935" y="-352.3698" font-family="Helvetica,sans-Serif" font-size="10.00" fill="#000000">::LFSTK_scrollByPage</text>
</a>
</g>
</g>
<!-- Node32&#45;&gt;Node33 -->
<g id="edge37" class="edge">
<title>Node32&#45;&gt;Node33</title>
<path fill="none" stroke="#191970" d="M830.2536,-361.3698C814.7563,-361.3698 798.4356,-361.3698 783.3918,-361.3698"/>
<polygon fill="#191970" stroke="#191970" points="830.297,-364.8699 840.2969,-361.3698 830.2969,-357.8699 830.297,-364.8699"/>
</g>
<!-- Node33&#45;&gt;Node27 -->
<g id="edge38" class="edge">
<title>Node33&#45;&gt;Node27</title>
<path fill="none" stroke="#191970" d="M656.4212,-361.3698C642.9308,-361.3698 628.8537,-361.3698 615.6087,-361.3698"/>
<polygon fill="#191970" stroke="#191970" points="656.5996,-364.8699 666.5996,-361.3698 656.5996,-357.8699 656.5996,-364.8699"/>
</g>
<!-- Node33&#45;&gt;Node31 -->
<g id="edge39" class="edge">
<title>Node33&#45;&gt;Node31</title>
<path fill="none" stroke="#191970" d="M661.2419,-342.3622C643.6447,-337.1108 624.7286,-331.4658 607.7584,-326.4015"/>
<polygon fill="#191970" stroke="#191970" points="660.2785,-345.7272 670.8618,-345.233 662.2803,-339.0195 660.2785,-345.7272"/>
</g>
</g>
</svg>
