<?xml version="1.0" encoding="UTF-8" standalone="no"?>
<!DOCTYPE svg PUBLIC "-//W3C//DTD SVG 1.1//EN"
 "http://www.w3.org/Graphics/SVG/1.1/DTD/svg11.dtd">
<!-- Generated by graphviz version 2.40.1 (20161225.0304)
 -->
<!-- Title: LFSTK_windowClass::LFSTK_moveWindow Pages: 1 -->
<svg width="899pt" height="252pt"
 viewBox="0.00 0.00 899.11 252.00" xmlns="http://www.w3.org/2000/svg" xmlns:xlink="http://www.w3.org/1999/xlink">
<g id="graph0" class="graph" transform="scale(1 1) rotate(0) translate(4 248)">
<title>LFSTK_windowClass::LFSTK_moveWindow</title>
<!-- Node1 -->
<g id="node1" class="node">
<title>Node1</title>
<g id="a_node1"><a xlink:title=" ">
<polygon fill="#bfbfbf" stroke="#000000" points="0,-95.5 0,-127.5 116.563,-127.5 116.563,-95.5 0,-95.5"/>
<text text-anchor="start" x="8" y="-114.5" font-family="Helvetica,sans-Serif" font-size="10.00" fill="#000000">LFSTK_windowClass::</text>
<text text-anchor="middle" x="58.2815" y="-102.5" font-family="Helvetica,sans-Serif" font-size="10.00" fill="#000000">LFSTK_moveWindow</text>
</a>
</g>
</g>
<!-- Node2 -->
<g id="node2" class="node">
<title>Node2</title>
<g id="a_node2"><a xlink:href="class_l_f_s_t_k__window_class_ac3b5b99b3a018cce7c631df39db76be1.xhtml#ac3b5b99b3a018cce7c631df39db76be1" target="_top" xlink:title=" ">
<polygon fill="none" stroke="#000000" points="152.563,-121.5 152.563,-153.5 269.126,-153.5 269.126,-121.5 152.563,-121.5"/>
<text text-anchor="start" x="160.563" y="-140.5" font-family="Helvetica,sans-Serif" font-size="10.00" fill="#000000">LFSTK_windowClass::</text>
<text text-anchor="middle" x="210.8445" y="-128.5" font-family="Helvetica,sans-Serif" font-size="10.00" fill="#000000">LFSTK_clearWindow</text>
</a>
</g>
</g>
<!-- Node1&#45;&gt;Node2 -->
<g id="edge1" class="edge">
<title>Node1&#45;&gt;Node2</title>
<path fill="none" stroke="#191970" d="M116.83,-121.4779C125.2252,-122.9086 133.9237,-124.3911 142.4876,-125.8505"/>
<polygon fill="#191970" stroke="#191970" points="142.0068,-129.319 152.4527,-127.5488 143.1828,-122.4184 142.0068,-129.319"/>
</g>
<!-- Node12 -->
<g id="node12" class="node">
<title>Node12</title>
<g id="a_node12"><a xlink:href="class_l_f_s_t_k__window_class_ac8c342109a0f8599f550475cef048745.xhtml#ac8c342109a0f8599f550475cef048745" target="_top" xlink:title=" ">
<polygon fill="none" stroke="#000000" points="152.563,-70.5 152.563,-102.5 269.126,-102.5 269.126,-70.5 152.563,-70.5"/>
<text text-anchor="start" x="160.563" y="-89.5" font-family="Helvetica,sans-Serif" font-size="10.00" fill="#000000">LFSTK_windowClass::</text>
<text text-anchor="middle" x="210.8445" y="-77.5" font-family="Helvetica,sans-Serif" font-size="10.00" fill="#000000">setWindowGeom</text>
</a>
</g>
</g>
<!-- Node1&#45;&gt;Node12 -->
<g id="edge12" class="edge">
<title>Node1&#45;&gt;Node12</title>
<path fill="none" stroke="#191970" d="M116.83,-101.9058C125.2252,-100.5302 133.9237,-99.1048 142.4876,-97.7014"/>
<polygon fill="#191970" stroke="#191970" points="143.1503,-101.1396 152.4527,-96.0685 142.0183,-94.2317 143.1503,-101.1396"/>
</g>
<!-- Node3 -->
<g id="node3" class="node">
<title>Node3</title>
<g id="a_node3"><a xlink:href="class_l_f_s_t_k__gadget_class_aa5b5f301fe9b0a4d7679f786da7462ba.xhtml#aa5b5f301fe9b0a4d7679f786da7462ba" target="_top" xlink:title=" ">
<polygon fill="none" stroke="#000000" points="305.126,-121.5 305.126,-153.5 418.929,-153.5 418.929,-121.5 305.126,-121.5"/>
<text text-anchor="start" x="313.126" y="-140.5" font-family="Helvetica,sans-Serif" font-size="10.00" fill="#000000">LFSTK_gadgetClass::</text>
<text text-anchor="middle" x="362.0275" y="-128.5" font-family="Helvetica,sans-Serif" font-size="10.00" fill="#000000">LFSTK_clearWindow</text>
</a>
</g>
</g>
<!-- Node2&#45;&gt;Node3 -->
<g id="edge2" class="edge">
<title>Node2&#45;&gt;Node3</title>
<path fill="none" stroke="#191970" d="M269.2958,-137.5C277.566,-137.5 286.1251,-137.5 294.5484,-137.5"/>
<polygon fill="#191970" stroke="#191970" points="294.7269,-141.0001 304.7269,-137.5 294.7268,-134.0001 294.7269,-141.0001"/>
</g>
<!-- Node4 -->
<g id="node4" class="node">
<title>Node4</title>
<g id="a_node4"><a xlink:href="class_l_f_s_t_k__gadget_class_a66b92f213e5a7e75da3f707b511342ea.xhtml#a66b92f213e5a7e75da3f707b511342ea" target="_top" xlink:title=" ">
<polygon fill="none" stroke="#000000" points="454.929,-121.5 454.929,-153.5 568.732,-153.5 568.732,-121.5 454.929,-121.5"/>
<text text-anchor="start" x="462.929" y="-140.5" font-family="Helvetica,sans-Serif" font-size="10.00" fill="#000000">LFSTK_gadgetClass::</text>
<text text-anchor="middle" x="511.8305" y="-128.5" font-family="Helvetica,sans-Serif" font-size="10.00" fill="#000000">drawGagetDetails</text>
</a>
</g>
</g>
<!-- Node3&#45;&gt;Node4 -->
<g id="edge3" class="edge">
<title>Node3&#45;&gt;Node4</title>
<path fill="none" stroke="#191970" d="M419.0889,-137.5C427.5279,-137.5 436.2876,-137.5 444.9049,-137.5"/>
<polygon fill="#191970" stroke="#191970" points="444.9278,-141.0001 454.9277,-137.5 444.9277,-134.0001 444.9278,-141.0001"/>
</g>
<!-- Node5 -->
<g id="node5" class="node">
<title>Node5</title>
<g id="a_node5"><a xlink:href="class_l_f_s_t_k__gadget_class_a37d96aab3c59cb97fca1720441e3fc8e.xhtml#a37d96aab3c59cb97fca1720441e3fc8e" target="_top" xlink:title=" ">
<polygon fill="none" stroke="#000000" points="604.732,-211.5 604.732,-243.5 718.535,-243.5 718.535,-211.5 604.732,-211.5"/>
<text text-anchor="start" x="612.732" y="-230.5" font-family="Helvetica,sans-Serif" font-size="10.00" fill="#000000">LFSTK_gadgetClass::</text>
<text text-anchor="middle" x="661.6335" y="-218.5" font-family="Helvetica,sans-Serif" font-size="10.00" fill="#000000">clearBox</text>
</a>
</g>
</g>
<!-- Node4&#45;&gt;Node5 -->
<g id="edge4" class="edge">
<title>Node4&#45;&gt;Node5</title>
<path fill="none" stroke="#191970" d="M536.393,-153.7326C554.9614,-165.8483 581.1904,-182.6328 604.732,-196.5 610.3297,-199.7973 616.2976,-203.1846 622.1837,-206.4533"/>
<polygon fill="#191970" stroke="#191970" points="620.8514,-209.7148 631.3011,-211.4625 624.2221,-203.5797 620.8514,-209.7148"/>
</g>
<!-- Node6 -->
<g id="node6" class="node">
<title>Node6</title>
<g id="a_node6"><a xlink:href="class_l_f_s_t_k__gadget_class_ab76db165a19af248b5e94e95492dc879.xhtml#ab76db165a19af248b5e94e95492dc879" target="_top" xlink:title=" ">
<polygon fill="none" stroke="#000000" points="765.9215,-128.5 765.9215,-160.5 879.7245,-160.5 879.7245,-128.5 765.9215,-128.5"/>
<text text-anchor="start" x="773.9215" y="-147.5" font-family="Helvetica,sans-Serif" font-size="10.00" fill="#000000">LFSTK_gadgetClass::</text>
<text text-anchor="middle" x="822.823" y="-135.5" font-family="Helvetica,sans-Serif" font-size="10.00" fill="#000000">drawBevel</text>
</a>
</g>
</g>
<!-- Node4&#45;&gt;Node6 -->
<g id="edge5" class="edge">
<title>Node4&#45;&gt;Node6</title>
<path fill="none" stroke="#191970" d="M559.5213,-153.5327C573.8828,-157.6275 589.7985,-161.4497 604.732,-163.5 654.841,-170.3797 668.1611,-168.0513 718.535,-163.5 730.5634,-162.4132 743.278,-160.6351 755.5367,-158.5914"/>
<polygon fill="#191970" stroke="#191970" points="756.4502,-161.9851 765.7017,-156.8217 755.2495,-155.0889 756.4502,-161.9851"/>
</g>
<!-- Node7 -->
<g id="node7" class="node">
<title>Node7</title>
<g id="a_node7"><a xlink:href="class_l_f_s_t_k__gadget_class_af5386ffc4699273f6c53a920fc8b2f1d.xhtml#af5386ffc4699273f6c53a920fc8b2f1d" target="_top" xlink:title=" ">
<polygon fill="none" stroke="#000000" points="604.732,-121.5 604.732,-153.5 718.535,-153.5 718.535,-121.5 604.732,-121.5"/>
<text text-anchor="start" x="612.732" y="-140.5" font-family="Helvetica,sans-Serif" font-size="10.00" fill="#000000">LFSTK_gadgetClass::</text>
<text text-anchor="middle" x="661.6335" y="-128.5" font-family="Helvetica,sans-Serif" font-size="10.00" fill="#000000">drawImage</text>
</a>
</g>
</g>
<!-- Node4&#45;&gt;Node7 -->
<g id="edge6" class="edge">
<title>Node4&#45;&gt;Node7</title>
<path fill="none" stroke="#191970" d="M568.8919,-137.5C577.3309,-137.5 586.0906,-137.5 594.7079,-137.5"/>
<polygon fill="#191970" stroke="#191970" points="594.7308,-141.0001 604.7307,-137.5 594.7307,-134.0001 594.7308,-141.0001"/>
</g>
<!-- Node8 -->
<g id="node8" class="node">
<title>Node8</title>
<g id="a_node8"><a xlink:href="class_l_f_s_t_k__gadget_class_af77235e4dc604470c9d62f101238225b.xhtml#af77235e4dc604470c9d62f101238225b" target="_top" xlink:title=" ">
<polygon fill="none" stroke="#000000" points="604.732,-70.5 604.732,-102.5 718.535,-102.5 718.535,-70.5 604.732,-70.5"/>
<text text-anchor="start" x="612.732" y="-89.5" font-family="Helvetica,sans-Serif" font-size="10.00" fill="#000000">LFSTK_gadgetClass::</text>
<text text-anchor="middle" x="661.6335" y="-77.5" font-family="Helvetica,sans-Serif" font-size="10.00" fill="#000000">drawIndicator</text>
</a>
</g>
</g>
<!-- Node4&#45;&gt;Node8 -->
<g id="edge7" class="edge">
<title>Node4&#45;&gt;Node8</title>
<path fill="none" stroke="#191970" d="M559.2291,-121.3633C573.7141,-116.4319 589.7927,-110.958 604.835,-105.8369"/>
<polygon fill="#191970" stroke="#191970" points="606.2048,-109.0679 614.5432,-102.5317 603.9488,-102.4414 606.2048,-109.0679"/>
</g>
<!-- Node9 -->
<g id="node9" class="node">
<title>Node9</title>
<g id="a_node9"><a xlink:href="class_l_f_s_t_k__gadget_class_a7f44f781b167d66c5d6f4cc862a7e2db.xhtml#a7f44f781b167d66c5d6f4cc862a7e2db" target="_top" xlink:title=" ">
<polygon fill="none" stroke="#000000" points="604.732,-19.5 604.732,-51.5 718.535,-51.5 718.535,-19.5 604.732,-19.5"/>
<text text-anchor="start" x="612.732" y="-38.5" font-family="Helvetica,sans-Serif" font-size="10.00" fill="#000000">LFSTK_gadgetClass::</text>
<text text-anchor="middle" x="661.6335" y="-26.5" font-family="Helvetica,sans-Serif" font-size="10.00" fill="#000000">drawLabel</text>
</a>
</g>
</g>
<!-- Node4&#45;&gt;Node9 -->
<g id="edge9" class="edge">
<title>Node4&#45;&gt;Node9</title>
<path fill="none" stroke="#191970" d="M528.2,-121.4985C545.9575,-104.748 575.6757,-78.4356 604.732,-60.5 607.0619,-59.0618 609.4889,-57.6631 611.971,-56.3102"/>
<polygon fill="#191970" stroke="#191970" points="613.8187,-59.2963 621.1242,-51.623 610.628,-53.0658 613.8187,-59.2963"/>
</g>
<!-- Node8&#45;&gt;Node6 -->
<g id="edge8" class="edge">
<title>Node8&#45;&gt;Node6</title>
<path fill="none" stroke="#191970" d="M706.1059,-102.5023C725.4933,-109.4784 748.3969,-117.7196 768.7578,-125.046"/>
<polygon fill="#191970" stroke="#191970" points="767.6217,-128.3568 778.2162,-128.4493 769.9918,-121.7703 767.6217,-128.3568"/>
</g>
<!-- Node10 -->
<g id="node10" class="node">
<title>Node10</title>
<g id="a_node10"><a xlink:href="class_l_f_s_t_k__lib_ab2f14a3414f7db863682d1e2fa0cfb75.xhtml#ab2f14a3414f7db863682d1e2fa0cfb75" target="_top" xlink:title=" ">
<polygon fill="none" stroke="#000000" points="754.535,-51.5 754.535,-71.5 891.111,-71.5 891.111,-51.5 754.535,-51.5"/>
<text text-anchor="middle" x="822.823" y="-58.5" font-family="Helvetica,sans-Serif" font-size="10.00" fill="#000000">LFSTK_lib::bestFontColour</text>
</a>
</g>
</g>
<!-- Node9&#45;&gt;Node10 -->
<g id="edge10" class="edge">
<title>Node9&#45;&gt;Node10</title>
<path fill="none" stroke="#191970" d="M718.9167,-44.7398C729.2028,-46.399 740.0432,-48.1475 750.6847,-49.864"/>
<polygon fill="#191970" stroke="#191970" points="750.3721,-53.3588 760.8019,-51.4959 751.4869,-46.4481 750.3721,-53.3588"/>
</g>
<!-- Node11 -->
<g id="node11" class="node">
<title>Node11</title>
<g id="a_node11"><a xlink:href="class_l_f_s_t_k__gadget_class_a091281ba03eaeb31bc7507c74b9b4f2f.xhtml#a091281ba03eaeb31bc7507c74b9b4f2f" target="_top" xlink:title=" ">
<polygon fill="none" stroke="#000000" points="765.367,-.5 765.367,-32.5 880.279,-32.5 880.279,-.5 765.367,-.5"/>
<text text-anchor="start" x="773.367" y="-19.5" font-family="Helvetica,sans-Serif" font-size="10.00" fill="#000000">LFSTK_gadgetClass::</text>
<text text-anchor="middle" x="822.823" y="-7.5" font-family="Helvetica,sans-Serif" font-size="10.00" fill="#000000">LFSTK_getTextHeight</text>
</a>
</g>
</g>
<!-- Node9&#45;&gt;Node11 -->
<g id="edge11" class="edge">
<title>Node9&#45;&gt;Node11</title>
<path fill="none" stroke="#191970" d="M718.9167,-28.7478C730.6521,-27.3645 743.1089,-25.8962 755.1687,-24.4747"/>
<polygon fill="#191970" stroke="#191970" points="755.6596,-27.9411 765.1811,-23.2945 754.8401,-20.9892 755.6596,-27.9411"/>
</g>
</g>
</svg>
