<?xml version="1.0" encoding="UTF-8" standalone="no"?>
<!DOCTYPE svg PUBLIC "-//W3C//DTD SVG 1.1//EN"
 "http://www.w3.org/Graphics/SVG/1.1/DTD/svg11.dtd">
<!-- Generated by graphviz version 2.40.1 (20161225.0304)
 -->
<!-- Title: LFSTK_windowClass::LFSTK_handleWindowEvents Pages: 1 -->
<!--zoomable 590 -->
<svg id="main" version="1.1" xmlns="http://www.w3.org/2000/svg" xmlns:xlink="http://www.w3.org/1999/xlink" xml:space="preserve" onload="init(evt)">
<style type="text/css"><![CDATA[
.edge:hover path { stroke: red; }
.edge:hover polygon { stroke: red; fill: red; }
]]></style>
<script type="text/javascript"><![CDATA[
var edges = document.getElementsByTagName('g');
if (edges && edges.length) {
  for (var i=0;i<edges.length;i++) {
    if (edges[i].id.substr(0,4)=='edge') {
      edges[i].setAttribute('class','edge');
    }
  }
}
]]></script>
        <defs>
                <circle id="rim" cx="0" cy="0" r="7"/>
                <circle id="rim2" cx="0" cy="0" r="3.5"/>
                <g id="zoomPlus">
                        <use xlink:href="#rim" fill="#404040">
                                <set attributeName="fill" to="#808080" begin="zoomplus.mouseover" end="zoomplus.mouseout"/>
                        </use>
                        <path d="M-4,0h8M0,-4v8" fill="none" stroke="white" stroke-width="1.5" pointer-events="none"/>
                </g>
                <g id="zoomMin">
                        <use xlink:href="#rim" fill="#404040">
                                <set attributeName="fill" to="#808080" begin="zoomminus.mouseover" end="zoomminus.mouseout"/>
                        </use>
                        <path d="M-4,0h8" fill="none" stroke="white" stroke-width="1.5" pointer-events="none"/>
                </g>
                <g id="dirArrow">
                        <path fill="none" stroke="white" stroke-width="1.5" d="M0,-3.0v7 M-2.5,-0.5L0,-3.0L2.5,-0.5"/>
                </g>
               <g id="resetDef">
                       <use xlink:href="#rim2" fill="#404040">
                               <set attributeName="fill" to="#808080" begin="reset.mouseover" end="reset.mouseout"/>
                       </use>
               </g>
        </defs>

<script type="text/javascript">
var viewWidth = 1142;
var viewHeight = 590;
var sectionId = 'dynsection-0';
</script>
<script xlink:href="svgpan.js"/>
<svg id="graph" class="graph">
<g id="viewport">
<title>LFSTK_windowClass::LFSTK_handleWindowEvents</title>
<!-- Node1 -->
<g id="node1" class="node">
<title>Node1</title>
<g id="a_node1"><a xlink:title=" ">
<polygon fill="#bfbfbf" stroke="#000000" points="0,-339.5 0,-371.5 148.808,-371.5 148.808,-339.5 0,-339.5"/>
<text text-anchor="start" x="8" y="-358.5" font-family="Helvetica,sans-Serif" font-size="10.00" fill="#000000">LFSTK_windowClass::</text>
<text text-anchor="middle" x="74.404" y="-346.5" font-family="Helvetica,sans-Serif" font-size="10.00" fill="#000000">LFSTK_handleWindowEvents</text>
</a>
</g>
</g>
<!-- Node2 -->
<g id="node2" class="node">
<title>Node2</title>
<g id="a_node2"><a xlink:href="class_l_f_s_t_k__window_class_ac3b5b99b3a018cce7c631df39db76be1.xhtml#ac3b5b99b3a018cce7c631df39db76be1" target="_top" xlink:title=" ">
<polygon fill="none" stroke="#000000" points="350.1525,-459.5 350.1525,-491.5 466.7155,-491.5 466.7155,-459.5 350.1525,-459.5"/>
<text text-anchor="start" x="358.1525" y="-478.5" font-family="Helvetica,sans-Serif" font-size="10.00" fill="#000000">LFSTK_windowClass::</text>
<text text-anchor="middle" x="408.434" y="-466.5" font-family="Helvetica,sans-Serif" font-size="10.00" fill="#000000">LFSTK_clearWindow</text>
</a>
</g>
</g>
<!-- Node1&#45;&gt;Node2 -->
<g id="edge1" class="edge">
<title>Node1&#45;&gt;Node2</title>
<path fill="none" stroke="#191970" d="M87.8343,-371.5505C106.9226,-393.1266 144.1274,-430.8142 184.808,-448.5 233.8202,-469.808 294.2337,-476.0604 339.9076,-477.2594"/>
<polygon fill="#191970" stroke="#191970" points="339.9423,-480.7606 350.0063,-477.449 340.0738,-473.7618 339.9423,-480.7606"/>
</g>
<!-- Node12 -->
<g id="node12" class="node">
<title>Node12</title>
<g id="a_node12"><a xlink:href="class_l_f_s_t_k__window_class_a0d85c225b59176302c8b25d090e08ad7.xhtml#a0d85c225b59176302c8b25d090e08ad7" target="_top" xlink:title=" ">
<polygon fill="none" stroke="#000000" points="350.1525,-306.5 350.1525,-338.5 466.7155,-338.5 466.7155,-306.5 350.1525,-306.5"/>
<text text-anchor="start" x="358.1525" y="-325.5" font-family="Helvetica,sans-Serif" font-size="10.00" fill="#000000">LFSTK_windowClass::</text>
<text text-anchor="middle" x="408.434" y="-313.5" font-family="Helvetica,sans-Serif" font-size="10.00" fill="#000000">LFSTK_getDnDAtom</text>
</a>
</g>
</g>
<!-- Node1&#45;&gt;Node12 -->
<g id="edge12" class="edge">
<title>Node1&#45;&gt;Node12</title>
<path fill="none" stroke="#191970" d="M148.9511,-348.1352C206.0602,-342.4932 284.2324,-334.7703 339.8116,-329.2794"/>
<polygon fill="#191970" stroke="#191970" points="340.309,-332.7474 349.9164,-328.2812 339.6207,-325.7814 340.309,-332.7474"/>
</g>
<!-- Node13 -->
<g id="node13" class="node">
<title>Node13</title>
<g id="a_node13"><a xlink:href="class_l_f_s_t_k__window_class_a2cef240ff812e56a57ccb6a087edb8cd.xhtml#a2cef240ff812e56a57ccb6a087edb8cd" target="_top" xlink:title=" ">
<polygon fill="none" stroke="#000000" points="184.808,-153.5 184.808,-185.5 301.371,-185.5 301.371,-153.5 184.808,-153.5"/>
<text text-anchor="start" x="192.808" y="-172.5" font-family="Helvetica,sans-Serif" font-size="10.00" fill="#000000">LFSTK_windowClass::</text>
<text text-anchor="middle" x="243.0895" y="-160.5" font-family="Helvetica,sans-Serif" font-size="10.00" fill="#000000">LFSTK_handleDnD</text>
</a>
</g>
</g>
<!-- Node1&#45;&gt;Node13 -->
<g id="edge13" class="edge">
<title>Node1&#45;&gt;Node13</title>
<path fill="none" stroke="#191970" d="M89.0786,-339.3191C118.9373,-306.3957 186.8705,-231.4896 221.6713,-193.1166"/>
<polygon fill="#191970" stroke="#191970" points="224.4436,-195.2698 228.5689,-185.511 219.2584,-190.5672 224.4436,-195.2698"/>
</g>
<!-- Node24 -->
<g id="node24" class="node">
<title>Node24</title>
<g id="a_node24"><a xlink:href="class_l_f_s_t_k__window_class_abec54e421d2e094da2214abfccebd361.xhtml#abec54e421d2e094da2214abfccebd361" target="_top" xlink:title=" ">
<polygon fill="none" stroke="#000000" points="184.808,-406.5 184.808,-438.5 301.371,-438.5 301.371,-406.5 184.808,-406.5"/>
<text text-anchor="start" x="192.808" y="-425.5" font-family="Helvetica,sans-Serif" font-size="10.00" fill="#000000">LFSTK_windowClass::</text>
<text text-anchor="middle" x="243.0895" y="-413.5" font-family="Helvetica,sans-Serif" font-size="10.00" fill="#000000">LFSTK_resizeWindow</text>
</a>
</g>
</g>
<!-- Node1&#45;&gt;Node24 -->
<g id="edge25" class="edge">
<title>Node1&#45;&gt;Node24</title>
<path fill="none" stroke="#191970" d="M114.8084,-371.5482C138.4031,-380.9197 168.3627,-392.8193 193.3941,-402.7615"/>
<polygon fill="#191970" stroke="#191970" points="192.1371,-406.0282 202.7228,-406.4668 194.7211,-399.5226 192.1371,-406.0282"/>
</g>
<!-- Node25 -->
<g id="node25" class="node">
<title>Node25</title>
<g id="a_node25"><a xlink:href="class_l_f_s_t_k__lib_aa5e46eec51c9f1f2a86ef7e22d6cba5b.xhtml#aa5e46eec51c9f1f2a86ef7e22d6cba5b" target="_top" xlink:title=" ">
<polygon fill="none" stroke="#000000" points="337.371,-357.5 337.371,-389.5 479.497,-389.5 479.497,-357.5 337.371,-357.5"/>
<text text-anchor="start" x="345.371" y="-376.5" font-family="Helvetica,sans-Serif" font-size="10.00" fill="#000000">LFSTK_lib::LFSTK_setCairo</text>
<text text-anchor="middle" x="408.434" y="-364.5" font-family="Helvetica,sans-Serif" font-size="10.00" fill="#000000">Surface</text>
</a>
</g>
</g>
<!-- Node1&#45;&gt;Node25 -->
<g id="edge29" class="edge">
<title>Node1&#45;&gt;Node25</title>
<path fill="none" stroke="#191970" d="M148.9511,-359.5171C201.7871,-362.3643 272.6521,-366.1831 326.9745,-369.1104"/>
<polygon fill="#191970" stroke="#191970" points="327.0884,-372.6215 337.2622,-369.6647 327.4651,-365.6316 327.0884,-372.6215"/>
</g>
<!-- Node27 -->
<g id="node27" class="node">
<title>Node27</title>
<g id="a_node27"><a xlink:href="class_l_f_s_t_k__window_class_add088894ef8d87ac2d446e6d0b4920a5.xhtml#add088894ef8d87ac2d446e6d0b4920a5" target="_top" xlink:title=" ">
<polygon fill="none" stroke="#000000" points="184.808,-275.5 184.808,-307.5 301.371,-307.5 301.371,-275.5 184.808,-275.5"/>
<text text-anchor="start" x="192.808" y="-294.5" font-family="Helvetica,sans-Serif" font-size="10.00" fill="#000000">LFSTK_windowClass::</text>
<text text-anchor="middle" x="243.0895" y="-282.5" font-family="Helvetica,sans-Serif" font-size="10.00" fill="#000000">sendUTF8</text>
</a>
</g>
</g>
<!-- Node1&#45;&gt;Node27 -->
<g id="edge30" class="edge">
<title>Node1&#45;&gt;Node27</title>
<path fill="none" stroke="#191970" d="M116.9705,-339.3501C139.5312,-330.7905 167.4271,-320.2066 191.2424,-311.171"/>
<polygon fill="#191970" stroke="#191970" points="192.721,-314.3535 200.8291,-307.5338 190.2378,-307.8088 192.721,-314.3535"/>
</g>
<!-- Node3 -->
<g id="node3" class="node">
<title>Node3</title>
<g id="a_node3"><a xlink:href="class_l_f_s_t_k__gadget_class_aa5b5f301fe9b0a4d7679f786da7462ba.xhtml#aa5b5f301fe9b0a4d7679f786da7462ba" target="_top" xlink:title=" ">
<polygon fill="none" stroke="#000000" points="530.498,-459.5 530.498,-491.5 644.301,-491.5 644.301,-459.5 530.498,-459.5"/>
<text text-anchor="start" x="538.498" y="-478.5" font-family="Helvetica,sans-Serif" font-size="10.00" fill="#000000">LFSTK_gadgetClass::</text>
<text text-anchor="middle" x="587.3995" y="-466.5" font-family="Helvetica,sans-Serif" font-size="10.00" fill="#000000">LFSTK_clearWindow</text>
</a>
</g>
</g>
<!-- Node2&#45;&gt;Node3 -->
<g id="edge2" class="edge">
<title>Node2&#45;&gt;Node3</title>
<path fill="none" stroke="#191970" d="M467.034,-475.5C484.0773,-475.5 502.8242,-475.5 520.345,-475.5"/>
<polygon fill="#191970" stroke="#191970" points="520.4971,-479.0001 530.497,-475.5 520.497,-472.0001 520.4971,-479.0001"/>
</g>
<!-- Node4 -->
<g id="node4" class="node">
<title>Node4</title>
<g id="a_node4"><a xlink:href="class_l_f_s_t_k__gadget_class_a66b92f213e5a7e75da3f707b511342ea.xhtml#a66b92f213e5a7e75da3f707b511342ea" target="_top" xlink:title=" ">
<polygon fill="none" stroke="#000000" points="696.682,-459.5 696.682,-491.5 810.485,-491.5 810.485,-459.5 696.682,-459.5"/>
<text text-anchor="start" x="704.682" y="-478.5" font-family="Helvetica,sans-Serif" font-size="10.00" fill="#000000">LFSTK_gadgetClass::</text>
<text text-anchor="middle" x="753.5835" y="-466.5" font-family="Helvetica,sans-Serif" font-size="10.00" fill="#000000">drawGagetDetails</text>
</a>
</g>
</g>
<!-- Node3&#45;&gt;Node4 -->
<g id="edge3" class="edge">
<title>Node3&#45;&gt;Node4</title>
<path fill="none" stroke="#191970" d="M644.5906,-475.5C657.983,-475.5 672.3727,-475.5 686.1647,-475.5"/>
<polygon fill="#191970" stroke="#191970" points="686.5686,-479.0001 696.5686,-475.5 686.5686,-472.0001 686.5686,-479.0001"/>
</g>
<!-- Node5 -->
<g id="node5" class="node">
<title>Node5</title>
<g id="a_node5"><a xlink:href="class_l_f_s_t_k__gadget_class_a37d96aab3c59cb97fca1720441e3fc8e.xhtml#a37d96aab3c59cb97fca1720441e3fc8e" target="_top" xlink:title=" ">
<polygon fill="none" stroke="#000000" points="847.865,-549.5 847.865,-581.5 961.668,-581.5 961.668,-549.5 847.865,-549.5"/>
<text text-anchor="start" x="855.865" y="-568.5" font-family="Helvetica,sans-Serif" font-size="10.00" fill="#000000">LFSTK_gadgetClass::</text>
<text text-anchor="middle" x="904.7665" y="-556.5" font-family="Helvetica,sans-Serif" font-size="10.00" fill="#000000">clearBox</text>
</a>
</g>
</g>
<!-- Node4&#45;&gt;Node5 -->
<g id="edge4" class="edge">
<title>Node4&#45;&gt;Node5</title>
<path fill="none" stroke="#191970" d="M778.5421,-491.6929C797.4024,-503.7884 824.0272,-520.5649 847.865,-534.5 853.4736,-537.7787 859.4475,-541.1557 865.3363,-544.4198"/>
<polygon fill="#191970" stroke="#191970" points="864.0053,-547.6818 874.4556,-549.4258 867.3738,-541.5455 864.0053,-547.6818"/>
</g>
<!-- Node6 -->
<g id="node6" class="node">
<title>Node6</title>
<g id="a_node6"><a xlink:href="class_l_f_s_t_k__gadget_class_ab76db165a19af248b5e94e95492dc879.xhtml#ab76db165a19af248b5e94e95492dc879" target="_top" xlink:title=" ">
<polygon fill="none" stroke="#000000" points="1009.0545,-481.5 1009.0545,-513.5 1122.8575,-513.5 1122.8575,-481.5 1009.0545,-481.5"/>
<text text-anchor="start" x="1017.0545" y="-500.5" font-family="Helvetica,sans-Serif" font-size="10.00" fill="#000000">LFSTK_gadgetClass::</text>
<text text-anchor="middle" x="1065.956" y="-488.5" font-family="Helvetica,sans-Serif" font-size="10.00" fill="#000000">drawBevel</text>
</a>
</g>
</g>
<!-- Node4&#45;&gt;Node6 -->
<g id="edge5" class="edge">
<title>Node4&#45;&gt;Node6</title>
<path fill="none" stroke="#191970" d="M801.998,-491.5334C816.5732,-495.6282 832.7217,-499.4502 847.865,-501.5 898.0671,-508.2953 955.3559,-506.8964 998.6163,-504.0117"/>
<polygon fill="#191970" stroke="#191970" points="999.0124,-507.4924 1008.7393,-503.2927 998.5164,-500.51 999.0124,-507.4924"/>
</g>
<!-- Node7 -->
<g id="node7" class="node">
<title>Node7</title>
<g id="a_node7"><a xlink:href="class_l_f_s_t_k__gadget_class_af5386ffc4699273f6c53a920fc8b2f1d.xhtml#af5386ffc4699273f6c53a920fc8b2f1d" target="_top" xlink:title=" ">
<polygon fill="none" stroke="#000000" points="847.865,-408.5 847.865,-440.5 961.668,-440.5 961.668,-408.5 847.865,-408.5"/>
<text text-anchor="start" x="855.865" y="-427.5" font-family="Helvetica,sans-Serif" font-size="10.00" fill="#000000">LFSTK_gadgetClass::</text>
<text text-anchor="middle" x="904.7665" y="-415.5" font-family="Helvetica,sans-Serif" font-size="10.00" fill="#000000">drawImage</text>
</a>
</g>
</g>
<!-- Node4&#45;&gt;Node7 -->
<g id="edge6" class="edge">
<title>Node4&#45;&gt;Node7</title>
<path fill="none" stroke="#191970" d="M801.4187,-459.3633C816.0372,-454.4319 832.2639,-448.958 847.4448,-443.8369"/>
<polygon fill="#191970" stroke="#191970" points="848.8858,-447.0446 857.2424,-440.5317 846.6483,-440.4118 848.8858,-447.0446"/>
</g>
<!-- Node8 -->
<g id="node8" class="node">
<title>Node8</title>
<g id="a_node8"><a xlink:href="class_l_f_s_t_k__gadget_class_af77235e4dc604470c9d62f101238225b.xhtml#af77235e4dc604470c9d62f101238225b" target="_top" xlink:title=" ">
<polygon fill="none" stroke="#000000" points="847.865,-459.5 847.865,-491.5 961.668,-491.5 961.668,-459.5 847.865,-459.5"/>
<text text-anchor="start" x="855.865" y="-478.5" font-family="Helvetica,sans-Serif" font-size="10.00" fill="#000000">LFSTK_gadgetClass::</text>
<text text-anchor="middle" x="904.7665" y="-466.5" font-family="Helvetica,sans-Serif" font-size="10.00" fill="#000000">drawIndicator</text>
</a>
</g>
</g>
<!-- Node4&#45;&gt;Node8 -->
<g id="edge7" class="edge">
<title>Node4&#45;&gt;Node8</title>
<path fill="none" stroke="#191970" d="M810.7393,-475.5C819.5486,-475.5 828.7136,-475.5 837.715,-475.5"/>
<polygon fill="#191970" stroke="#191970" points="837.7807,-479.0001 847.7807,-475.5 837.7807,-472.0001 837.7807,-479.0001"/>
</g>
<!-- Node9 -->
<g id="node9" class="node">
<title>Node9</title>
<g id="a_node9"><a xlink:href="class_l_f_s_t_k__gadget_class_a7f44f781b167d66c5d6f4cc862a7e2db.xhtml#a7f44f781b167d66c5d6f4cc862a7e2db" target="_top" xlink:title=" ">
<polygon fill="none" stroke="#000000" points="847.865,-357.5 847.865,-389.5 961.668,-389.5 961.668,-357.5 847.865,-357.5"/>
<text text-anchor="start" x="855.865" y="-376.5" font-family="Helvetica,sans-Serif" font-size="10.00" fill="#000000">LFSTK_gadgetClass::</text>
<text text-anchor="middle" x="904.7665" y="-364.5" font-family="Helvetica,sans-Serif" font-size="10.00" fill="#000000">drawLabel</text>
</a>
</g>
</g>
<!-- Node4&#45;&gt;Node9 -->
<g id="edge9" class="edge">
<title>Node4&#45;&gt;Node9</title>
<path fill="none" stroke="#191970" d="M771.002,-459.221C789.2036,-442.7662 819.0705,-417.294 847.865,-399.5 850.8187,-397.6747 853.922,-395.8999 857.0916,-394.1913"/>
<polygon fill="#191970" stroke="#191970" points="858.8232,-397.2369 866.1301,-389.5649 855.6337,-391.0057 858.8232,-397.2369"/>
</g>
<!-- Node8&#45;&gt;Node6 -->
<g id="edge8" class="edge">
<title>Node8&#45;&gt;Node6</title>
<path fill="none" stroke="#191970" d="M962.0497,-483.3183C973.9265,-484.9393 986.5421,-486.6612 998.7375,-488.3257"/>
<polygon fill="#191970" stroke="#191970" points="998.4757,-491.8223 1008.8572,-489.7069 999.4224,-484.8866 998.4757,-491.8223"/>
</g>
<!-- Node10 -->
<g id="node10" class="node">
<title>Node10</title>
<g id="a_node10"><a xlink:href="class_l_f_s_t_k__lib_ab2f14a3414f7db863682d1e2fa0cfb75.xhtml#ab2f14a3414f7db863682d1e2fa0cfb75" target="_top" xlink:title=" ">
<polygon fill="none" stroke="#000000" points="997.668,-386.5 997.668,-406.5 1134.244,-406.5 1134.244,-386.5 997.668,-386.5"/>
<text text-anchor="middle" x="1065.956" y="-393.5" font-family="Helvetica,sans-Serif" font-size="10.00" fill="#000000">LFSTK_lib::bestFontColour</text>
</a>
</g>
</g>
<!-- Node9&#45;&gt;Node10 -->
<g id="edge10" class="edge">
<title>Node9&#45;&gt;Node10</title>
<path fill="none" stroke="#191970" d="M962.0497,-381.6737C970.3097,-382.8523 978.9271,-384.0819 987.512,-385.3069"/>
<polygon fill="#191970" stroke="#191970" points="987.1573,-388.7917 997.5515,-386.7394 988.1462,-381.8618 987.1573,-388.7917"/>
</g>
<!-- Node11 -->
<g id="node11" class="node">
<title>Node11</title>
<g id="a_node11"><a xlink:href="class_l_f_s_t_k__gadget_class_a091281ba03eaeb31bc7507c74b9b4f2f.xhtml#a091281ba03eaeb31bc7507c74b9b4f2f" target="_top" xlink:title=" ">
<polygon fill="none" stroke="#000000" points="1008.5,-335.5 1008.5,-367.5 1123.412,-367.5 1123.412,-335.5 1008.5,-335.5"/>
<text text-anchor="start" x="1016.5" y="-354.5" font-family="Helvetica,sans-Serif" font-size="10.00" fill="#000000">LFSTK_gadgetClass::</text>
<text text-anchor="middle" x="1065.956" y="-342.5" font-family="Helvetica,sans-Serif" font-size="10.00" fill="#000000">LFSTK_getTextHeight</text>
</a>
</g>
</g>
<!-- Node9&#45;&gt;Node11 -->
<g id="edge11" class="edge">
<title>Node9&#45;&gt;Node11</title>
<path fill="none" stroke="#191970" d="M962.0497,-365.6817C973.7851,-364.08 986.2419,-362.3798 998.3017,-360.7338"/>
<polygon fill="#191970" stroke="#191970" points="998.8793,-364.1875 1008.3141,-359.3673 997.9326,-357.2518 998.8793,-364.1875"/>
</g>
<!-- Node14 -->
<g id="node14" class="node">
<title>Node14</title>
<g id="a_node14"><a xlink:href="class_l_f_s_t_k__gadget_class_a5a73fbb58bdb779f2898d6fb3946f88f.xhtml#a5a73fbb58bdb779f2898d6fb3946f88f" target="_top" xlink:title=" ">
<polygon fill="none" stroke="#000000" points="351.5325,-255.5 351.5325,-287.5 465.3355,-287.5 465.3355,-255.5 351.5325,-255.5"/>
<text text-anchor="start" x="359.5325" y="-274.5" font-family="Helvetica,sans-Serif" font-size="10.00" fill="#000000">LFSTK_gadgetClass::</text>
<text text-anchor="middle" x="408.434" y="-262.5" font-family="Helvetica,sans-Serif" font-size="10.00" fill="#000000">LFSTK_dropData</text>
</a>
</g>
</g>
<!-- Node13&#45;&gt;Node14 -->
<g id="edge14" class="edge">
<title>Node13&#45;&gt;Node14</title>
<path fill="none" stroke="#191970" d="M259.1576,-185.6122C276.9558,-202.7042 307.149,-229.5331 337.371,-246.5 340.37,-248.1836 343.5026,-249.7852 346.7099,-251.3037"/>
<polygon fill="#191970" stroke="#191970" points="345.3357,-254.5229 355.8972,-255.3628 348.1646,-248.12 345.3357,-254.5229"/>
</g>
<!-- Node15 -->
<g id="node15" class="node">
<title>Node15</title>
<g id="a_node15"><a xlink:href="class_l_f_s_t_k__window_class_a0e58784df7f862be4f5d425abbd28260.xhtml#a0e58784df7f862be4f5d425abbd28260" target="_top" xlink:title=" ">
<polygon fill="none" stroke="#000000" points="350.1525,-204.5 350.1525,-236.5 466.7155,-236.5 466.7155,-204.5 350.1525,-204.5"/>
<text text-anchor="start" x="358.1525" y="-223.5" font-family="Helvetica,sans-Serif" font-size="10.00" fill="#000000">LFSTK_windowClass::</text>
<text text-anchor="middle" x="408.434" y="-211.5" font-family="Helvetica,sans-Serif" font-size="10.00" fill="#000000">LFSTK_dropData</text>
</a>
</g>
</g>
<!-- Node13&#45;&gt;Node15 -->
<g id="edge15" class="edge">
<title>Node13&#45;&gt;Node15</title>
<path fill="none" stroke="#191970" d="M295.4055,-185.6367C311.6978,-190.662 329.8167,-196.2507 346.6904,-201.4554"/>
<polygon fill="#191970" stroke="#191970" points="345.8709,-204.8653 356.4583,-204.4683 347.9342,-198.1762 345.8709,-204.8653"/>
</g>
<!-- Node17 -->
<g id="node17" class="node">
<title>Node17</title>
<g id="a_node17"><a xlink:href="class_l_f_s_t_k__window_class_af3af0d986d119a7362bdfc6dbfb3814f.xhtml#af3af0d986d119a7362bdfc6dbfb3814f" target="_top" xlink:title=" ">
<polygon fill="none" stroke="#000000" points="343.1935,-153.5 343.1935,-185.5 473.6745,-185.5 473.6745,-153.5 343.1935,-153.5"/>
<text text-anchor="start" x="351.1935" y="-172.5" font-family="Helvetica,sans-Serif" font-size="10.00" fill="#000000">LFSTK_windowClass::</text>
<text text-anchor="middle" x="408.434" y="-160.5" font-family="Helvetica,sans-Serif" font-size="10.00" fill="#000000">LFSTK_findGadgetByPos</text>
</a>
</g>
</g>
<!-- Node13&#45;&gt;Node17 -->
<g id="edge17" class="edge">
<title>Node13&#45;&gt;Node17</title>
<path fill="none" stroke="#191970" d="M301.3838,-169.5C311.6002,-169.5 322.3622,-169.5 332.9649,-169.5"/>
<polygon fill="#191970" stroke="#191970" points="333.0586,-173.0001 343.0586,-169.5 333.0585,-166.0001 333.0586,-173.0001"/>
</g>
<!-- Node19 -->
<g id="node19" class="node">
<title>Node19</title>
<g id="a_node19"><a xlink:href="class_l_f_s_t_k__window_class_a6bf9f2a3b003d8247f6b4244fac4d8a6.xhtml#a6bf9f2a3b003d8247f6b4244fac4d8a6" target="_top" xlink:title=" ">
<polygon fill="none" stroke="#000000" points="350.1525,-102.5 350.1525,-134.5 466.7155,-134.5 466.7155,-102.5 350.1525,-102.5"/>
<text text-anchor="start" x="358.1525" y="-121.5" font-family="Helvetica,sans-Serif" font-size="10.00" fill="#000000">LFSTK_windowClass::</text>
<text text-anchor="middle" x="408.434" y="-109.5" font-family="Helvetica,sans-Serif" font-size="10.00" fill="#000000">pickTargetFromAtoms</text>
</a>
</g>
</g>
<!-- Node13&#45;&gt;Node19 -->
<g id="edge19" class="edge">
<title>Node13&#45;&gt;Node19</title>
<path fill="none" stroke="#191970" d="M295.4055,-153.3633C311.6978,-148.338 329.8167,-142.7493 346.6904,-137.5446"/>
<polygon fill="#191970" stroke="#191970" points="347.9342,-140.8238 356.4583,-134.5317 345.8709,-134.1347 347.9342,-140.8238"/>
</g>
<!-- Node22 -->
<g id="node22" class="node">
<title>Node22</title>
<g id="a_node22"><a xlink:href="class_l_f_s_t_k__window_class_a851244a723058a6e0166fdbd50c16a6a.xhtml#a851244a723058a6e0166fdbd50c16a6a" target="_top" xlink:title=" ">
<polygon fill="none" stroke="#000000" points="348.488,-51.5 348.488,-83.5 468.38,-83.5 468.38,-51.5 348.488,-51.5"/>
<text text-anchor="start" x="356.488" y="-70.5" font-family="Helvetica,sans-Serif" font-size="10.00" fill="#000000">LFSTK_windowClass::</text>
<text text-anchor="middle" x="408.434" y="-58.5" font-family="Helvetica,sans-Serif" font-size="10.00" fill="#000000">pickTargetFromTargets</text>
</a>
</g>
</g>
<!-- Node13&#45;&gt;Node22 -->
<g id="edge22" class="edge">
<title>Node13&#45;&gt;Node22</title>
<path fill="none" stroke="#191970" d="M259.1576,-153.3878C276.9558,-136.2958 307.149,-109.4669 337.371,-92.5 340.37,-90.8164 343.5026,-89.2148 346.7099,-87.6963"/>
<polygon fill="#191970" stroke="#191970" points="348.1646,-90.88 355.8972,-83.6372 345.3357,-84.4771 348.1646,-90.88"/>
</g>
<!-- Node23 -->
<g id="node23" class="node">
<title>Node23</title>
<g id="a_node23"><a xlink:href="class_l_f_s_t_k__window_class_a3cd028bfe046d77c234aa397f12dd4b8.xhtml#a3cd028bfe046d77c234aa397f12dd4b8" target="_top" xlink:title=" ">
<polygon fill="none" stroke="#000000" points="350.1525,-.5 350.1525,-32.5 466.7155,-32.5 466.7155,-.5 350.1525,-.5"/>
<text text-anchor="start" x="358.1525" y="-19.5" font-family="Helvetica,sans-Serif" font-size="10.00" fill="#000000">LFSTK_windowClass::</text>
<text text-anchor="middle" x="408.434" y="-7.5" font-family="Helvetica,sans-Serif" font-size="10.00" fill="#000000">readProperty</text>
</a>
</g>
</g>
<!-- Node13&#45;&gt;Node23 -->
<g id="edge24" class="edge">
<title>Node13&#45;&gt;Node23</title>
<path fill="none" stroke="#191970" d="M250.9036,-153.3075C264.7001,-126.3494 295.8846,-72.2025 337.371,-41.5 339.2074,-40.1409 341.1242,-38.8509 343.1016,-37.6269"/>
<polygon fill="#191970" stroke="#191970" points="345.0281,-40.5617 352.1005,-32.673 341.6523,-34.4295 345.0281,-40.5617"/>
</g>
<!-- Node16 -->
<g id="node16" class="node">
<title>Node16</title>
<g id="a_node16"><a xlink:href="class_l_f_s_t_k__lib_ac5fce97c4bbf2a3c4e500bdc22c994a9.xhtml#ac5fce97c4bbf2a3c4e500bdc22c994a9" target="_top" xlink:title=" ">
<polygon fill="none" stroke="#000000" points="515.497,-210.5 515.497,-230.5 659.302,-230.5 659.302,-210.5 515.497,-210.5"/>
<text text-anchor="middle" x="587.3995" y="-217.5" font-family="Helvetica,sans-Serif" font-size="10.00" fill="#000000">LFSTK_lib::LFSTK_oneLiner</text>
</a>
</g>
</g>
<!-- Node15&#45;&gt;Node16 -->
<g id="edge16" class="edge">
<title>Node15&#45;&gt;Node16</title>
<path fill="none" stroke="#191970" d="M467.034,-220.5C479.1801,-220.5 492.1915,-220.5 505.0077,-220.5"/>
<polygon fill="#191970" stroke="#191970" points="505.224,-224.0001 515.2239,-220.5 505.2239,-217.0001 505.224,-224.0001"/>
</g>
<!-- Node18 -->
<g id="node18" class="node">
<title>Node18</title>
<g id="a_node18"><a xlink:href="class_l_f_s_t_k__gadget_class_a280fd2cd10bf4f67f11e9a7d43766bc5.xhtml#a280fd2cd10bf4f67f11e9a7d43766bc5" target="_top" xlink:title=" ">
<polygon fill="none" stroke="#000000" points="526.054,-153.5 526.054,-185.5 648.745,-185.5 648.745,-153.5 526.054,-153.5"/>
<text text-anchor="start" x="534.054" y="-172.5" font-family="Helvetica,sans-Serif" font-size="10.00" fill="#000000">LFSTK_gadgetClass::</text>
<text text-anchor="middle" x="587.3995" y="-160.5" font-family="Helvetica,sans-Serif" font-size="10.00" fill="#000000">LFSTK_getGlobalGeom</text>
</a>
</g>
</g>
<!-- Node17&#45;&gt;Node18 -->
<g id="edge18" class="edge">
<title>Node17&#45;&gt;Node18</title>
<path fill="none" stroke="#191970" d="M473.8043,-169.5C487.3311,-169.5 501.6522,-169.5 515.4004,-169.5"/>
<polygon fill="#191970" stroke="#191970" points="515.7794,-173.0001 525.7794,-169.5 515.7794,-166.0001 515.7794,-173.0001"/>
</g>
<!-- Node20 -->
<g id="node20" class="node">
<title>Node20</title>
<g id="a_node20"><a xlink:href="class_l_f_s_t_k__window_class_a75904179205b7c0dd78d5e9b6994bd63.xhtml#a75904179205b7c0dd78d5e9b6994bd63" target="_top" xlink:title=" ">
<polygon fill="none" stroke="#000000" points="529.118,-77.5 529.118,-109.5 645.681,-109.5 645.681,-77.5 529.118,-77.5"/>
<text text-anchor="start" x="537.118" y="-96.5" font-family="Helvetica,sans-Serif" font-size="10.00" fill="#000000">LFSTK_windowClass::</text>
<text text-anchor="middle" x="587.3995" y="-84.5" font-family="Helvetica,sans-Serif" font-size="10.00" fill="#000000">pickTargetFromList</text>
</a>
</g>
</g>
<!-- Node19&#45;&gt;Node20 -->
<g id="edge20" class="edge">
<title>Node19&#45;&gt;Node20</title>
<path fill="none" stroke="#191970" d="M467.034,-110.3141C483.6512,-107.9928 501.888,-105.4453 519.0286,-103.0508"/>
<polygon fill="#191970" stroke="#191970" points="519.5541,-106.5115 528.9736,-101.6616 518.5856,-99.5788 519.5541,-106.5115"/>
</g>
<!-- Node21 -->
<g id="node21" class="node">
<title>Node21</title>
<g id="a_node21"><a xlink:href="class_l_f_s_t_k__window_class_a4de9ac1387e659aa1c14fa947061a6e8.xhtml#a4de9ac1387e659aa1c14fa947061a6e8" target="_top" xlink:title=" ">
<polygon fill="none" stroke="#000000" points="695.302,-77.5 695.302,-109.5 811.865,-109.5 811.865,-77.5 695.302,-77.5"/>
<text text-anchor="start" x="703.302" y="-96.5" font-family="Helvetica,sans-Serif" font-size="10.00" fill="#000000">LFSTK_windowClass::</text>
<text text-anchor="middle" x="753.5835" y="-84.5" font-family="Helvetica,sans-Serif" font-size="10.00" fill="#000000">getAtomName</text>
</a>
</g>
</g>
<!-- Node20&#45;&gt;Node21 -->
<g id="edge21" class="edge">
<title>Node20&#45;&gt;Node21</title>
<path fill="none" stroke="#191970" d="M645.9898,-93.5C658.5987,-93.5 672.0342,-93.5 684.9851,-93.5"/>
<polygon fill="#191970" stroke="#191970" points="685.2425,-97.0001 695.2424,-93.5 685.2424,-90.0001 685.2425,-97.0001"/>
</g>
<!-- Node22&#45;&gt;Node20 -->
<g id="edge23" class="edge">
<title>Node22&#45;&gt;Node20</title>
<path fill="none" stroke="#191970" d="M468.5248,-76.23C484.6705,-78.5756 502.2525,-81.1299 518.8215,-83.537"/>
<polygon fill="#191970" stroke="#191970" points="518.5859,-87.0395 528.9853,-85.0136 519.5924,-80.1122 518.5859,-87.0395"/>
</g>
<!-- Node24&#45;&gt;Node2 -->
<g id="edge26" class="edge">
<title>Node24&#45;&gt;Node2</title>
<path fill="none" stroke="#191970" d="M293.147,-438.5456C310.6305,-444.1498 330.4316,-450.4969 348.6285,-456.3298"/>
<polygon fill="#191970" stroke="#191970" points="347.6704,-459.698 358.2615,-459.4176 349.8072,-453.0321 347.6704,-459.698"/>
</g>
<!-- Node24&#45;&gt;Node25 -->
<g id="edge27" class="edge">
<title>Node24&#45;&gt;Node25</title>
<path fill="none" stroke="#191970" d="M297.2295,-406.4556C312.3605,-401.9715 328.9449,-397.0567 344.5808,-392.4229"/>
<polygon fill="#191970" stroke="#191970" points="345.5791,-395.7777 354.1724,-389.5805 343.59,-389.0662 345.5791,-395.7777"/>
</g>
<!-- Node26 -->
<g id="node26" class="node">
<title>Node26</title>
<g id="a_node26"><a xlink:href="class_l_f_s_t_k__window_class_ac8c342109a0f8599f550475cef048745.xhtml#ac8c342109a0f8599f550475cef048745" target="_top" xlink:title=" ">
<polygon fill="none" stroke="#000000" points="350.1525,-408.5 350.1525,-440.5 466.7155,-440.5 466.7155,-408.5 350.1525,-408.5"/>
<text text-anchor="start" x="358.1525" y="-427.5" font-family="Helvetica,sans-Serif" font-size="10.00" fill="#000000">LFSTK_windowClass::</text>
<text text-anchor="middle" x="408.434" y="-415.5" font-family="Helvetica,sans-Serif" font-size="10.00" fill="#000000">setWindowGeom</text>
</a>
</g>
</g>
<!-- Node24&#45;&gt;Node26 -->
<g id="edge28" class="edge">
<title>Node24&#45;&gt;Node26</title>
<path fill="none" stroke="#191970" d="M301.3838,-423.2051C313.8556,-423.356 327.1404,-423.5167 339.956,-423.6717"/>
<polygon fill="#191970" stroke="#191970" points="340.0672,-427.1732 350.1088,-423.7945 340.1519,-420.1737 340.0672,-427.1732"/>
</g>
<!-- Node27&#45;&gt;Node12 -->
<g id="edge31" class="edge">
<title>Node27&#45;&gt;Node12</title>
<path fill="none" stroke="#191970" d="M301.3838,-302.4294C313.8556,-304.7678 327.1404,-307.2585 339.956,-309.6612"/>
<polygon fill="#191970" stroke="#191970" points="339.6351,-313.162 350.1088,-311.5648 340.9251,-306.2819 339.6351,-313.162"/>
</g>
</g>
</svg>
        <g id="navigator" transform="translate(0 0)" fill="#404254">
                <rect fill="#f2f5e9" fill-opacity="0.5" stroke="#606060" stroke-width=".5" x="0" y="0" width="60" height="60"/>
                <use id="zoomplus" xlink:href="#zoomPlus" x="17" y="9" onmousedown="handleZoom(evt,'in')"/>
                <use id="zoomminus" xlink:href="#zoomMin" x="42" y="9" onmousedown="handleZoom(evt,'out')"/>
                <use id="reset" xlink:href="#resetDef" x="30" y="36" onmousedown="handleReset()"/>
                <g id="arrowUp" xlink:href="#dirArrow" transform="translate(30 24)" onmousedown="handlePan(0,-1)">
                  <use xlink:href="#rim" fill="#404040">
                        <set attributeName="fill" to="#808080" begin="arrowUp.mouseover" end="arrowUp.mouseout"/>
                  </use>
                  <path fill="none" stroke="white" stroke-width="1.5" d="M0,-3.0v7 M-2.5,-0.5L0,-3.0L2.5,-0.5"/>
                </g>
                <g id="arrowRight" xlink:href="#dirArrow" transform="rotate(90) translate(36 -43)" onmousedown="handlePan(1,0)">
                  <use xlink:href="#rim" fill="#404040">
                        <set attributeName="fill" to="#808080" begin="arrowRight.mouseover" end="arrowRight.mouseout"/>
                  </use>
                  <path fill="none" stroke="white" stroke-width="1.5" d="M0,-3.0v7 M-2.5,-0.5L0,-3.0L2.5,-0.5"/>
                </g>
                <g id="arrowDown" xlink:href="#dirArrow" transform="rotate(180) translate(-30 -48)" onmousedown="handlePan(0,1)">
                  <use xlink:href="#rim" fill="#404040">
                        <set attributeName="fill" to="#808080" begin="arrowDown.mouseover" end="arrowDown.mouseout"/>
                  </use>
                  <path fill="none" stroke="white" stroke-width="1.5" d="M0,-3.0v7 M-2.5,-0.5L0,-3.0L2.5,-0.5"/>
                </g>
                <g id="arrowLeft" xlink:href="#dirArrow" transform="rotate(270) translate(-36 17)" onmousedown="handlePan(-1,0)">
                  <use xlink:href="#rim" fill="#404040">
                        <set attributeName="fill" to="#808080" begin="arrowLeft.mouseover" end="arrowLeft.mouseout"/>
                  </use>
                  <path fill="none" stroke="white" stroke-width="1.5" d="M0,-3.0v7 M-2.5,-0.5L0,-3.0L2.5,-0.5"/>
                </g>
        </g>
        <svg viewBox="0 0 15 15" width="100%" height="30px" preserveAspectRatio="xMaxYMin meet">
         <g id="arrow_out" transform="scale(0.3 0.3)">
          <a xlink:href="class_l_f_s_t_k__window_class_a10d93c702923f9d1528b43fc5010b858_a10d93c702923f9d1528b43fc5010b858_cgraph_org.svg" target="_base">
           <rect id="button" ry="5" rx="5" y="6" x="6" height="38" width="38"
                fill="#f2f5e9" fill-opacity="0.5" stroke="#606060" stroke-width="1.0"/>
           <path id="arrow"
             d="M 11.500037,31.436501 C 11.940474,20.09759 22.043105,11.32322 32.158766,21.979434 L 37.068811,17.246167 C 37.068811,17.246167 37.088388,32 37.088388,32 L 22.160133,31.978069 C 22.160133,31.978069 26.997745,27.140456 26.997745,27.140456 C 18.528582,18.264221 13.291696,25.230495 11.500037,31.436501 z"
             style="fill:#404040;"/>
          </a>
         </g>
        </svg>
</svg>
