<?xml version="1.0" encoding="UTF-8" standalone="no"?>
<!DOCTYPE svg PUBLIC "-//W3C//DTD SVG 1.1//EN"
 "http://www.w3.org/Graphics/SVG/1.1/DTD/svg11.dtd">
<!-- Generated by graphviz version 2.40.1 (20161225.0304)
 -->
<!-- Title: LFSTK_gadgetClass::LFSTK_setImageFromSurface Pages: 1 -->
<svg width="986pt" height="194pt"
 viewBox="0.00 0.00 985.75 194.00" xmlns="http://www.w3.org/2000/svg" xmlns:xlink="http://www.w3.org/1999/xlink">
<g id="graph0" class="graph" transform="scale(1 1) rotate(0) translate(4 190)">
<title>LFSTK_gadgetClass::LFSTK_setImageFromSurface</title>
<!-- Node1 -->
<g id="node1" class="node">
<title>Node1</title>
<g id="a_node1"><a xlink:title=" ">
<polygon fill="#bfbfbf" stroke="#000000" points="826.177,-76.5 826.177,-108.5 977.754,-108.5 977.754,-76.5 826.177,-76.5"/>
<text text-anchor="start" x="834.177" y="-95.5" font-family="Helvetica,sans-Serif" font-size="10.00" fill="#000000">LFSTK_gadgetClass::</text>
<text text-anchor="middle" x="901.9655" y="-83.5" font-family="Helvetica,sans-Serif" font-size="10.00" fill="#000000">LFSTK_setImageFromSurface</text>
</a>
</g>
</g>
<!-- Node2 -->
<g id="node2" class="node">
<title>Node2</title>
<g id="a_node2"><a xlink:href="class_l_f_s_t_k__menu_class_a063a1196c3267ebac0f6e2f118ad4647.xhtml#a063a1196c3267ebac0f6e2f118ad4647" target="_top" xlink:title=" ">
<polygon fill="none" stroke="#000000" points="650.827,-127.5 650.827,-159.5 790.177,-159.5 790.177,-127.5 650.827,-127.5"/>
<text text-anchor="start" x="658.827" y="-146.5" font-family="Helvetica,sans-Serif" font-size="10.00" fill="#000000">LFSTK_menuClass::LFSTK</text>
<text text-anchor="middle" x="720.502" y="-134.5" font-family="Helvetica,sans-Serif" font-size="10.00" fill="#000000">_addMainMenus</text>
</a>
</g>
</g>
<!-- Node1&#45;&gt;Node2 -->
<g id="edge1" class="edge">
<title>Node1&#45;&gt;Node2</title>
<path fill="none" stroke="#191970" d="M834.8534,-111.3617C816.0217,-116.6544 795.7308,-122.3571 777.5447,-127.4683"/>
<polygon fill="#191970" stroke="#191970" points="835.8693,-114.7119 844.5493,-108.6367 833.9753,-107.973 835.8693,-114.7119"/>
</g>
<!-- Node3 -->
<g id="node3" class="node">
<title>Node3</title>
<g id="a_node3"><a xlink:href="class_l_f_s_t_k__list_gadget_class_abc8e7de85afdd0ddd7639668e579cd4e.xhtml#abc8e7de85afdd0ddd7639668e579cd4e" target="_top" xlink:title=" ">
<polygon fill="none" stroke="#000000" points="659.161,-76.5 659.161,-108.5 781.843,-108.5 781.843,-76.5 659.161,-76.5"/>
<text text-anchor="start" x="667.161" y="-95.5" font-family="Helvetica,sans-Serif" font-size="10.00" fill="#000000">LFSTK_listGadgetClass</text>
<text text-anchor="middle" x="720.502" y="-83.5" font-family="Helvetica,sans-Serif" font-size="10.00" fill="#000000">::LFSTK_setList</text>
</a>
</g>
</g>
<!-- Node1&#45;&gt;Node3 -->
<g id="edge2" class="edge">
<title>Node1&#45;&gt;Node3</title>
<path fill="none" stroke="#191970" d="M816.029,-92.5C804.5633,-92.5 792.9952,-92.5 782.0599,-92.5"/>
<polygon fill="#191970" stroke="#191970" points="816.0601,-96.0001 826.0601,-92.5 816.06,-89.0001 816.0601,-96.0001"/>
</g>
<!-- Node12 -->
<g id="node12" class="node">
<title>Node12</title>
<g id="a_node12"><a xlink:href="class_l_f_s_t_k__list_gadget_class_a14695831a2f9362b99cdda134f551d83.xhtml#a14695831a2f9362b99cdda134f551d83" target="_top" xlink:title=" ">
<polygon fill="none" stroke="#000000" points="659.161,-25.5 659.161,-57.5 781.843,-57.5 781.843,-25.5 659.161,-25.5"/>
<text text-anchor="start" x="667.161" y="-44.5" font-family="Helvetica,sans-Serif" font-size="10.00" fill="#000000">LFSTK_listGadgetClass</text>
<text text-anchor="middle" x="720.502" y="-32.5" font-family="Helvetica,sans-Serif" font-size="10.00" fill="#000000">::scrollCB</text>
</a>
</g>
</g>
<!-- Node1&#45;&gt;Node12 -->
<g id="edge12" class="edge">
<title>Node1&#45;&gt;Node12</title>
<path fill="none" stroke="#191970" d="M834.8534,-73.6383C816.0217,-68.3456 795.7308,-62.6429 777.5447,-57.5317"/>
<polygon fill="#191970" stroke="#191970" points="833.9753,-77.027 844.5493,-76.3633 835.8693,-70.2881 833.9753,-77.027"/>
</g>
<!-- Node4 -->
<g id="node4" class="node">
<title>Node4</title>
<g id="a_node4"><a xlink:href="class_l_f_s_t_k__font_dialog_class_af866eb2b1ba8178c9cf3e751716fcc8e.xhtml#af866eb2b1ba8178c9cf3e751716fcc8e" target="_top" xlink:title=" ">
<polygon fill="none" stroke="#000000" points="489.3665,-153.5 489.3665,-185.5 612.0475,-185.5 612.0475,-153.5 489.3665,-153.5"/>
<text text-anchor="start" x="497.3665" y="-172.5" font-family="Helvetica,sans-Serif" font-size="10.00" fill="#000000">LFSTK_fontDialogClass</text>
<text text-anchor="middle" x="550.707" y="-160.5" font-family="Helvetica,sans-Serif" font-size="10.00" fill="#000000">::buildDialog</text>
</a>
</g>
</g>
<!-- Node3&#45;&gt;Node4 -->
<g id="edge3" class="edge">
<title>Node3&#45;&gt;Node4</title>
<path fill="none" stroke="#191970" d="M662.9597,-112.5555C658.7951,-114.4367 654.71,-116.4223 650.827,-118.5 633.4251,-127.8115 632.1604,-135.0616 614.827,-144.5 608.9507,-147.6997 602.5771,-150.6959 596.2048,-153.4244"/>
<polygon fill="#191970" stroke="#191970" points="664.3466,-115.769 672.1557,-108.6088 661.5859,-109.3364 664.3466,-115.769"/>
</g>
<!-- Node6 -->
<g id="node6" class="node">
<title>Node6</title>
<g id="a_node6"><a xlink:href="class_l_f_s_t_k__file_dialog_class_a0a6b4f1db71031bf35a7636b736e8698.xhtml#a0a6b4f1db71031bf35a7636b736e8698" target="_top" xlink:title=" ">
<polygon fill="none" stroke="#000000" points="491.3165,-102.5 491.3165,-134.5 610.0975,-134.5 610.0975,-102.5 491.3165,-102.5"/>
<text text-anchor="start" x="499.3165" y="-121.5" font-family="Helvetica,sans-Serif" font-size="10.00" fill="#000000">LFSTK_fileDialogClass</text>
<text text-anchor="middle" x="550.707" y="-109.5" font-family="Helvetica,sans-Serif" font-size="10.00" fill="#000000">::getFileList</text>
</a>
</g>
</g>
<!-- Node3&#45;&gt;Node6 -->
<g id="edge5" class="edge">
<title>Node3&#45;&gt;Node6</title>
<path fill="none" stroke="#191970" d="M648.569,-103.5148C635.7731,-105.4742 622.5749,-107.4952 610.1741,-109.3941"/>
<polygon fill="#191970" stroke="#191970" points="649.3668,-106.9335 658.7218,-101.9601 648.3072,-100.0142 649.3668,-106.9335"/>
</g>
<!-- Node11 -->
<g id="node11" class="node">
<title>Node11</title>
<g id="a_node11"><a xlink:href="class_l_f_s_t_k__list_gadget_class_addcdb5ba330fd8dd36beb94ea2081dd3.xhtml#addcdb5ba330fd8dd36beb94ea2081dd3" target="_top" xlink:title=" ">
<polygon fill="none" stroke="#000000" points="487.4275,-51.5 487.4275,-83.5 613.9865,-83.5 613.9865,-51.5 487.4275,-51.5"/>
<text text-anchor="start" x="495.4275" y="-70.5" font-family="Helvetica,sans-Serif" font-size="10.00" fill="#000000">LFSTK_listGadgetClass</text>
<text text-anchor="middle" x="550.707" y="-58.5" font-family="Helvetica,sans-Serif" font-size="10.00" fill="#000000">::LFSTK_setListFromFile</text>
</a>
</g>
</g>
<!-- Node3&#45;&gt;Node11 -->
<g id="edge11" class="edge">
<title>Node3&#45;&gt;Node11</title>
<path fill="none" stroke="#191970" d="M648.7328,-81.933C637.2449,-80.2415 625.4284,-78.5017 614.1521,-76.8414"/>
<polygon fill="#191970" stroke="#191970" points="648.3186,-85.4096 658.7218,-83.4037 649.3383,-78.4843 648.3186,-85.4096"/>
</g>
<!-- Node5 -->
<g id="node5" class="node">
<title>Node5</title>
<g id="a_node5"><a xlink:href="class_l_f_s_t_k__font_dialog_class_ab7b6a4bca99713646ab6ac77dc34827c.xhtml#ab7b6a4bca99713646ab6ac77dc34827c" target="_top" xlink:title=" ">
<polygon fill="none" stroke="#000000" points="322.348,-153.5 322.348,-185.5 450.587,-185.5 450.587,-153.5 322.348,-153.5"/>
<text text-anchor="start" x="330.348" y="-172.5" font-family="Helvetica,sans-Serif" font-size="10.00" fill="#000000">LFSTK_fontDialogClass</text>
<text text-anchor="middle" x="386.4675" y="-160.5" font-family="Helvetica,sans-Serif" font-size="10.00" fill="#000000">::LFSTK_fontDialogClass</text>
</a>
</g>
</g>
<!-- Node4&#45;&gt;Node5 -->
<g id="edge4" class="edge">
<title>Node4&#45;&gt;Node5</title>
<path fill="none" stroke="#191970" d="M478.9527,-169.5C469.5278,-169.5 459.9179,-169.5 450.6301,-169.5"/>
<polygon fill="#191970" stroke="#191970" points="479.083,-173.0001 489.083,-169.5 479.083,-166.0001 479.083,-173.0001"/>
</g>
<!-- Node7 -->
<g id="node7" class="node">
<title>Node7</title>
<g id="a_node7"><a xlink:href="class_l_f_s_t_k__file_dialog_class_a553ce8e885b0d60cbf515b7b3d1e8b65.xhtml#a553ce8e885b0d60cbf515b7b3d1e8b65" target="_top" xlink:title=" ">
<polygon fill="none" stroke="#000000" points="0,-57.5 0,-89.5 124.339,-89.5 124.339,-57.5 0,-57.5"/>
<text text-anchor="start" x="8" y="-76.5" font-family="Helvetica,sans-Serif" font-size="10.00" fill="#000000">LFSTK_fileDialogClass</text>
<text text-anchor="middle" x="62.1695" y="-64.5" font-family="Helvetica,sans-Serif" font-size="10.00" fill="#000000">::LFSTK_fileDialogClass</text>
</a>
</g>
</g>
<!-- Node6&#45;&gt;Node7 -->
<g id="edge6" class="edge">
<title>Node6&#45;&gt;Node7</title>
<path fill="none" stroke="#191970" d="M480.8,-120.7831C402.2761,-122.1581 271.2926,-120.8728 160.339,-102.5 142.9817,-99.6258 124.3678,-94.6376 108.065,-89.6003"/>
<polygon fill="#191970" stroke="#191970" points="481.1231,-124.2776 491.0529,-120.5831 480.9865,-117.2789 481.1231,-124.2776"/>
</g>
<!-- Node8 -->
<g id="node8" class="node">
<title>Node8</title>
<g id="a_node8"><a xlink:href="class_l_f_s_t_k__file_dialog_class_aa8804989d381def9acb2c99d47d6dc3d.xhtml#aa8804989d381def9acb2c99d47d6dc3d" target="_top" xlink:title=" ">
<polygon fill="none" stroke="#000000" points="325.967,-60.5 325.967,-92.5 446.968,-92.5 446.968,-60.5 325.967,-60.5"/>
<text text-anchor="start" x="333.967" y="-79.5" font-family="Helvetica,sans-Serif" font-size="10.00" fill="#000000">LFSTK_fileDialogClass</text>
<text text-anchor="middle" x="386.4675" y="-67.5" font-family="Helvetica,sans-Serif" font-size="10.00" fill="#000000">::LFSTK_setWorkingDir</text>
</a>
</g>
</g>
<!-- Node6&#45;&gt;Node8 -->
<g id="edge7" class="edge">
<title>Node6&#45;&gt;Node8</title>
<path fill="none" stroke="#191970" d="M481.0945,-100.6984C469.7609,-97.8001 458.1018,-94.8186 447.0083,-91.9817"/>
<polygon fill="#191970" stroke="#191970" points="480.3928,-104.1315 490.9482,-103.2182 482.1271,-97.3498 480.3928,-104.1315"/>
</g>
<!-- Node9 -->
<g id="node9" class="node">
<title>Node9</title>
<g id="a_node9"><a xlink:href="class_l_f_s_t_k__file_dialog_class_aacf1d4b61cbb5b40d06f591ea96f9ea7.xhtml#aacf1d4b61cbb5b40d06f591ea96f9ea7" target="_top" xlink:title=" ">
<polygon fill="none" stroke="#000000" points="160.339,-60.5 160.339,-92.5 286.348,-92.5 286.348,-60.5 160.339,-60.5"/>
<text text-anchor="start" x="168.339" y="-79.5" font-family="Helvetica,sans-Serif" font-size="10.00" fill="#000000">LFSTK_fileDialogClass</text>
<text text-anchor="middle" x="223.3435" y="-67.5" font-family="Helvetica,sans-Serif" font-size="10.00" fill="#000000">::LFSTK_showFileDialog</text>
</a>
</g>
</g>
<!-- Node8&#45;&gt;Node9 -->
<g id="edge8" class="edge">
<title>Node8&#45;&gt;Node9</title>
<path fill="none" stroke="#191970" d="M315.7256,-76.5C306.0345,-76.5 296.1359,-76.5 286.5902,-76.5"/>
<polygon fill="#191970" stroke="#191970" points="315.7262,-80.0001 325.7261,-76.5 315.7261,-73.0001 315.7262,-80.0001"/>
</g>
<!-- Node10 -->
<g id="node10" class="node">
<title>Node10</title>
<g id="a_node10"><a xlink:href="class_l_f_s_t_k__file_dialog_class_a789cade9437906181e31a243c85d52e5.xhtml#a789cade9437906181e31a243c85d52e5" target="_top" xlink:title=" ">
<polygon fill="none" stroke="#000000" points="163.953,-9.5 163.953,-41.5 282.734,-41.5 282.734,-9.5 163.953,-9.5"/>
<text text-anchor="start" x="171.953" y="-28.5" font-family="Helvetica,sans-Serif" font-size="10.00" fill="#000000">LFSTK_fileDialogClass</text>
<text text-anchor="middle" x="223.3435" y="-16.5" font-family="Helvetica,sans-Serif" font-size="10.00" fill="#000000">::select</text>
</a>
</g>
</g>
<!-- Node8&#45;&gt;Node10 -->
<g id="edge9" class="edge">
<title>Node8&#45;&gt;Node10</title>
<path fill="none" stroke="#191970" d="M325.2049,-57.3465C308.5408,-52.1366 290.6694,-46.5492 274.6212,-41.5317"/>
<polygon fill="#191970" stroke="#191970" points="324.2652,-60.7197 334.854,-60.3633 326.3541,-54.0387 324.2652,-60.7197"/>
</g>
<!-- Node10&#45;&gt;Node7 -->
<g id="edge10" class="edge">
<title>Node10&#45;&gt;Node7</title>
<path fill="none" stroke="#191970" d="M159.442,-44.5308C145.1046,-48.8007 130.0303,-53.29 116.1436,-57.4257"/>
<polygon fill="#191970" stroke="#191970" points="160.6415,-47.8256 169.2265,-41.6168 158.6435,-41.1168 160.6415,-47.8256"/>
</g>
<!-- Node13 -->
<g id="node13" class="node">
<title>Node13</title>
<g id="a_node13"><a xlink:href="class_l_f_s_t_k__list_gadget_class_ae3518016f28ec3cd261ad927c5691826.xhtml#ae3518016f28ec3cd261ad927c5691826" target="_top" xlink:title=" ">
<polygon fill="none" stroke="#000000" points="486.587,-.5 486.587,-32.5 614.827,-32.5 614.827,-.5 486.587,-.5"/>
<text text-anchor="start" x="494.587" y="-19.5" font-family="Helvetica,sans-Serif" font-size="10.00" fill="#000000">LFSTK_listGadgetClass</text>
<text text-anchor="middle" x="550.707" y="-7.5" font-family="Helvetica,sans-Serif" font-size="10.00" fill="#000000">::LFSTK_listGadgetClass</text>
</a>
</g>
</g>
<!-- Node12&#45;&gt;Node13 -->
<g id="edge13" class="edge">
<title>Node12&#45;&gt;Node13</title>
<path fill="none" stroke="#191970" d="M648.5895,-30.9119C637.4379,-29.2699 625.9803,-27.583 615.0108,-25.9679"/>
<polygon fill="#191970" stroke="#191970" points="648.3186,-34.4096 658.7218,-32.4037 649.3383,-27.4843 648.3186,-34.4096"/>
</g>
</g>
</svg>
