<?xml version="1.0" encoding="UTF-8" standalone="no"?>
<!DOCTYPE svg PUBLIC "-//W3C//DTD SVG 1.1//EN"
 "http://www.w3.org/Graphics/SVG/1.1/DTD/svg11.dtd">
<!-- Generated by graphviz version 2.40.1 (20161225.0304)
 -->
<!-- Title: LFSTK_multiLineEditClass::LFSTK_setBuffer Pages: 1 -->
<svg width="485pt" height="92pt"
 viewBox="0.00 0.00 484.69 92.00" xmlns="http://www.w3.org/2000/svg" xmlns:xlink="http://www.w3.org/1999/xlink">
<g id="graph0" class="graph" transform="scale(1 1) rotate(0) translate(4 88)">
<title>LFSTK_multiLineEditClass::LFSTK_setBuffer</title>
<!-- Node1 -->
<g id="node1" class="node">
<title>Node1</title>
<g id="a_node1"><a xlink:title=" ">
<polygon fill="#bfbfbf" stroke="#000000" points="0,-25.5 0,-57.5 134.898,-57.5 134.898,-25.5 0,-25.5"/>
<text text-anchor="start" x="8" y="-44.5" font-family="Helvetica,sans-Serif" font-size="10.00" fill="#000000">LFSTK_multiLineEditClass</text>
<text text-anchor="middle" x="67.449" y="-32.5" font-family="Helvetica,sans-Serif" font-size="10.00" fill="#000000">::LFSTK_setBuffer</text>
</a>
</g>
</g>
<!-- Node2 -->
<g id="node2" class="node">
<title>Node2</title>
<g id="a_node2"><a xlink:href="class_l_f_s_t_k__multi_line_edit_class_aada0749d2c064f7a8f2af14ab82f08a5.xhtml#aada0749d2c064f7a8f2af14ab82f08a5" target="_top" xlink:title=" ">
<polygon fill="none" stroke="#000000" points="170.898,-25.5 170.898,-57.5 305.796,-57.5 305.796,-25.5 170.898,-25.5"/>
<text text-anchor="start" x="178.898" y="-44.5" font-family="Helvetica,sans-Serif" font-size="10.00" fill="#000000">LFSTK_multiLineEditClass</text>
<text text-anchor="middle" x="238.347" y="-32.5" font-family="Helvetica,sans-Serif" font-size="10.00" fill="#000000">::LFSTK_clearWindow</text>
</a>
</g>
</g>
<!-- Node1&#45;&gt;Node2 -->
<g id="edge1" class="edge">
<title>Node1&#45;&gt;Node2</title>
<path fill="none" stroke="#191970" d="M134.9924,-41.5C143.4418,-41.5 152.1357,-41.5 160.7233,-41.5"/>
<polygon fill="#191970" stroke="#191970" points="160.7346,-45.0001 170.7346,-41.5 160.7345,-38.0001 160.7346,-45.0001"/>
</g>
<!-- Node3 -->
<g id="node3" class="node">
<title>Node3</title>
<g id="a_node3"><a xlink:href="class_l_f_s_t_k__gadget_class_ab76db165a19af248b5e94e95492dc879.xhtml#ab76db165a19af248b5e94e95492dc879" target="_top" xlink:title=" ">
<polygon fill="none" stroke="#000000" points="352.3435,-51.5 352.3435,-83.5 466.1465,-83.5 466.1465,-51.5 352.3435,-51.5"/>
<text text-anchor="start" x="360.3435" y="-70.5" font-family="Helvetica,sans-Serif" font-size="10.00" fill="#000000">LFSTK_gadgetClass::</text>
<text text-anchor="middle" x="409.245" y="-58.5" font-family="Helvetica,sans-Serif" font-size="10.00" fill="#000000">drawBevel</text>
</a>
</g>
</g>
<!-- Node2&#45;&gt;Node3 -->
<g id="edge2" class="edge">
<title>Node2&#45;&gt;Node3</title>
<path fill="none" stroke="#191970" d="M305.8904,-51.7759C317.8443,-53.5945 330.2877,-55.4876 342.227,-57.3041"/>
<polygon fill="#191970" stroke="#191970" points="341.703,-60.7645 352.1157,-58.8085 342.7559,-53.8442 341.703,-60.7645"/>
</g>
<!-- Node4 -->
<g id="node4" class="node">
<title>Node4</title>
<g id="a_node4"><a xlink:href="class_l_f_s_t_k__multi_line_edit_class_a48999ac31ea05c85d68ef2c5fc513c0e.xhtml#a48999ac31ea05c85d68ef2c5fc513c0e" target="_top" xlink:title=" ">
<polygon fill="none" stroke="#000000" points="341.796,-.5 341.796,-32.5 476.694,-32.5 476.694,-.5 341.796,-.5"/>
<text text-anchor="start" x="349.796" y="-19.5" font-family="Helvetica,sans-Serif" font-size="10.00" fill="#000000">LFSTK_multiLineEditClass</text>
<text text-anchor="middle" x="409.245" y="-7.5" font-family="Helvetica,sans-Serif" font-size="10.00" fill="#000000">::drawText</text>
</a>
</g>
</g>
<!-- Node2&#45;&gt;Node4 -->
<g id="edge3" class="edge">
<title>Node2&#45;&gt;Node4</title>
<path fill="none" stroke="#191970" d="M305.8904,-31.6193C314.3398,-30.3833 323.0337,-29.1115 331.6213,-27.8553"/>
<polygon fill="#191970" stroke="#191970" points="332.2445,-31.3014 341.6326,-26.3908 331.2312,-24.3752 332.2445,-31.3014"/>
</g>
</g>
</svg>
