<?xml version="1.0" encoding="UTF-8" standalone="no"?>
<!DOCTYPE svg PUBLIC "-//W3C//DTD SVG 1.1//EN"
 "http://www.w3.org/Graphics/SVG/1.1/DTD/svg11.dtd">
<!-- Generated by graphviz version 2.40.1 (20161225.0304)
 -->
<!-- Title: LFSTK_listGadgetClass Pages: 1 -->
<!--zoomable 463 -->
<svg id="main" version="1.1" xmlns="http://www.w3.org/2000/svg" xmlns:xlink="http://www.w3.org/1999/xlink" xml:space="preserve" onload="init(evt)">
<style type="text/css"><![CDATA[
.edge:hover path { stroke: red; }
.edge:hover polygon { stroke: red; fill: red; }
]]></style>
<script type="text/javascript"><![CDATA[
var edges = document.getElementsByTagName('g');
if (edges && edges.length) {
  for (var i=0;i<edges.length;i++) {
    if (edges[i].id.substr(0,4)=='edge') {
      edges[i].setAttribute('class','edge');
    }
  }
}
]]></script>
        <defs>
                <circle id="rim" cx="0" cy="0" r="7"/>
                <circle id="rim2" cx="0" cy="0" r="3.5"/>
                <g id="zoomPlus">
                        <use xlink:href="#rim" fill="#404040">
                                <set attributeName="fill" to="#808080" begin="zoomplus.mouseover" end="zoomplus.mouseout"/>
                        </use>
                        <path d="M-4,0h8M0,-4v8" fill="none" stroke="white" stroke-width="1.5" pointer-events="none"/>
                </g>
                <g id="zoomMin">
                        <use xlink:href="#rim" fill="#404040">
                                <set attributeName="fill" to="#808080" begin="zoomminus.mouseover" end="zoomminus.mouseout"/>
                        </use>
                        <path d="M-4,0h8" fill="none" stroke="white" stroke-width="1.5" pointer-events="none"/>
                </g>
                <g id="dirArrow">
                        <path fill="none" stroke="white" stroke-width="1.5" d="M0,-3.0v7 M-2.5,-0.5L0,-3.0L2.5,-0.5"/>
                </g>
               <g id="resetDef">
                       <use xlink:href="#rim2" fill="#404040">
                               <set attributeName="fill" to="#808080" begin="reset.mouseover" end="reset.mouseout"/>
                       </use>
               </g>
        </defs>

<script type="text/javascript">
var viewWidth = 1468;
var viewHeight = 463;
var sectionId = 'dynsection-1';
</script>
<script xlink:href="svgpan.js"/>
<svg id="graph" class="graph">
<g id="viewport">
<title>LFSTK_listGadgetClass</title>
<!-- Node1 -->
<g id="node1" class="node">
<title>Node1</title>
<g id="a_node1"><a xlink:title="List class for LFSToolKit.">
<polygon fill="#bfbfbf" stroke="#000000" points="1198.335,-354.5 1198.335,-374.5 1321.017,-374.5 1321.017,-354.5 1198.335,-354.5"/>
<text text-anchor="middle" x="1259.676" y="-361.5" font-family="Helvetica,sans-Serif" font-size="10.00" fill="#000000">LFSTK_listGadgetClass</text>
</a>
</g>
</g>
<!-- Node18 -->
<g id="node18" class="node">
<title>Node18</title>
<g id="a_node18"><a xlink:href="structlist_data.xhtml" target="_top" xlink:title=" ">
<polygon fill="none" stroke="#000000" points="1410.357,-354.5 1410.357,-374.5 1459.69,-374.5 1459.69,-354.5 1410.357,-354.5"/>
<text text-anchor="middle" x="1435.0235" y="-361.5" font-family="Helvetica,sans-Serif" font-size="10.00" fill="#000000">listData</text>
</a>
</g>
</g>
<!-- Node1&#45;&gt;Node18 -->
<g id="edge26" class="edge">
<title>Node1&#45;&gt;Node18</title>
<path fill="none" stroke="#9a32cd" stroke-dasharray="5,2" d="M1331.6698,-364.5C1359.6111,-364.5 1389.7486,-364.5 1410.2275,-364.5"/>
<polygon fill="#9a32cd" stroke="#9a32cd" points="1331.497,-361.0001 1321.497,-364.5 1331.4969,-368.0001 1331.497,-361.0001"/>
<text text-anchor="middle" x="1365.687" y="-367.5" font-family="Helvetica,sans-Serif" font-size="10.00" fill="#000000"> mainObject</text>
</g>
<!-- Node2 -->
<g id="node2" class="node">
<title>Node2</title>
<g id="a_node2"><a xlink:href="class_l_f_s_t_k__gadget_class.xhtml" target="_top" xlink:title="Base class for LFSToolKit gadgets.">
<polygon fill="none" stroke="#000000" points="556.694,-304.5 556.694,-324.5 664.939,-324.5 664.939,-304.5 556.694,-304.5"/>
<text text-anchor="middle" x="610.8165" y="-311.5" font-family="Helvetica,sans-Serif" font-size="10.00" fill="#000000">LFSTK_gadgetClass</text>
</a>
</g>
</g>
<!-- Node2&#45;&gt;Node1 -->
<g id="edge1" class="edge">
<title>Node2&#45;&gt;Node1</title>
<path fill="none" stroke="#191970" d="M675.2418,-321.7689C677.8408,-322.0233 680.4143,-322.2681 682.939,-322.5 870.3872,-339.7152 1092.6389,-354.2434 1198.1574,-360.7857"/>
<polygon fill="#191970" stroke="#191970" points="675.4414,-318.2713 665.1401,-320.748 674.7375,-325.2359 675.4414,-318.2713"/>
</g>
<!-- Node7 -->
<g id="node7" class="node">
<title>Node7</title>
<g id="a_node7"><a xlink:href="class_l_f_s_t_k__window_class.xhtml" target="_top" xlink:title="Window class for LFSToolKit.">
<polygon fill="none" stroke="#000000" points="795.6945,-130.5 795.6945,-150.5 906.6995,-150.5 906.6995,-130.5 795.6945,-130.5"/>
<text text-anchor="middle" x="851.197" y="-137.5" font-family="Helvetica,sans-Serif" font-size="10.00" fill="#000000">LFSTK_windowClass</text>
</a>
</g>
</g>
<!-- Node2&#45;&gt;Node7 -->
<g id="edge10" class="edge">
<title>Node2&#45;&gt;Node7</title>
<path fill="none" stroke="#9a32cd" stroke-dasharray="5,2" d="M626.5195,-296.5182C640.2514,-281.6244 661.3287,-260.6776 682.939,-246.5 716.8711,-224.2386 732.235,-231.6774 766.854,-210.5 796.0728,-192.6261 825.9006,-165.2804 841.0356,-150.6193"/>
<polygon fill="#9a32cd" stroke="#9a32cd" points="623.7898,-294.319 619.6897,-304.0883 628.9871,-299.0081 623.7898,-294.319"/>
<text text-anchor="middle" x="724.8965" y="-261.5" font-family="Helvetica,sans-Serif" font-size="10.00" fill="#000000"> dropGadget</text>
<text text-anchor="middle" x="724.8965" y="-249.5" font-family="Helvetica,sans-Serif" font-size="10.00" fill="#000000">popupFromGadget</text>
</g>
<!-- Node12 -->
<g id="node12" class="node">
<title>Node12</title>
<g id="a_node12"><a xlink:href="structmapped_listener.xhtml" target="_top" xlink:title=" ">
<polygon fill="none" stroke="#000000" points="807.3535,-281.5 807.3535,-301.5 895.0405,-301.5 895.0405,-281.5 807.3535,-281.5"/>
<text text-anchor="middle" x="851.197" y="-288.5" font-family="Helvetica,sans-Serif" font-size="10.00" fill="#000000">mappedListener</text>
</a>
</g>
</g>
<!-- Node2&#45;&gt;Node12 -->
<g id="edge16" class="edge">
<title>Node2&#45;&gt;Node12</title>
<path fill="none" stroke="#9a32cd" stroke-dasharray="5,2" d="M675.1389,-308.3455C716.8933,-304.3504 770.2175,-299.2482 807.1851,-295.7111"/>
<polygon fill="#9a32cd" stroke="#9a32cd" points="674.6834,-304.873 665.0623,-309.3097 675.3502,-311.8412 674.6834,-304.873"/>
<text text-anchor="middle" x="724.8965" y="-309.5" font-family="Helvetica,sans-Serif" font-size="10.00" fill="#000000"> gadget</text>
</g>
<!-- Node14 -->
<g id="node14" class="node">
<title>Node14</title>
<g id="a_node14"><a xlink:href="class_l_f_s_t_k__scroll_bar_class.xhtml" target="_top" xlink:title="Scrollbar class for LFSToolKit.">
<polygon fill="none" stroke="#000000" points="1000.771,-418.5 1000.771,-438.5 1117.325,-438.5 1117.325,-418.5 1000.771,-418.5"/>
<text text-anchor="middle" x="1059.048" y="-425.5" font-family="Helvetica,sans-Serif" font-size="10.00" fill="#000000">LFSTK_scrollBarClass</text>
</a>
</g>
</g>
<!-- Node2&#45;&gt;Node14 -->
<g id="edge20" class="edge">
<title>Node2&#45;&gt;Node14</title>
<path fill="none" stroke="#191970" d="M626.2552,-332.3295C639.8251,-346.9591 660.813,-367.1986 682.939,-379.5 785.0761,-436.2852 819.833,-436.116 935.54,-452.5 956.3242,-455.443 962.0228,-455.6871 982.771,-452.5 1000.1975,-449.8231 1019.1061,-443.8956 1033.7374,-438.6015"/>
<polygon fill="#191970" stroke="#191970" points="628.8174,-329.9445 619.5195,-324.8652 623.6205,-334.6341 628.8174,-329.9445"/>
</g>
<!-- Node15 -->
<g id="node15" class="node">
<title>Node15</title>
<g id="a_node15"><a xlink:href="class_l_f_s_t_k__button_class.xhtml" target="_top" xlink:title="Basic button class for LFSToolKit.">
<polygon fill="none" stroke="#000000" points="798.4645,-377.5 798.4645,-397.5 903.9295,-397.5 903.9295,-377.5 798.4645,-377.5"/>
<text text-anchor="middle" x="851.197" y="-384.5" font-family="Helvetica,sans-Serif" font-size="10.00" fill="#000000">LFSTK_buttonClass</text>
</a>
</g>
</g>
<!-- Node2&#45;&gt;Node15 -->
<g id="edge22" class="edge">
<title>Node2&#45;&gt;Node15</title>
<path fill="none" stroke="#191970" d="M634.0413,-330.3161C647.7288,-338.9563 665.6953,-349.1581 682.939,-355.5 720.335,-369.2536 764.6825,-377.3765 798.4582,-381.995"/>
<polygon fill="#191970" stroke="#191970" points="635.6043,-327.158 625.3105,-324.6505 631.7938,-333.03 635.6043,-327.158"/>
</g>
<!-- Node3 -->
<g id="node3" class="node">
<title>Node3</title>
<g id="a_node3"><a xlink:href="structgadget_struct.xhtml" target="_top" xlink:title=" ">
<polygon fill="none" stroke="#000000" points="348.2335,-304.5 348.2335,-324.5 420.9225,-324.5 420.9225,-304.5 348.2335,-304.5"/>
<text text-anchor="middle" x="384.578" y="-311.5" font-family="Helvetica,sans-Serif" font-size="10.00" fill="#000000">gadgetStruct</text>
</a>
</g>
</g>
<!-- Node3&#45;&gt;Node2 -->
<g id="edge2" class="edge">
<title>Node3&#45;&gt;Node2</title>
<path fill="none" stroke="#9a32cd" stroke-dasharray="5,2" d="M431.2574,-314.5C467.6281,-314.5 518.1933,-314.5 556.3996,-314.5"/>
<polygon fill="#9a32cd" stroke="#9a32cd" points="430.9272,-311.0001 420.9271,-314.5 430.9271,-318.0001 430.9272,-311.0001"/>
<text text-anchor="middle" x="490.0825" y="-317.5" font-family="Helvetica,sans-Serif" font-size="10.00" fill="#000000"> gadgetDetails</text>
</g>
<!-- Node4 -->
<g id="node4" class="node">
<title>Node4</title>
<g id="a_node4"><a xlink:href="structgeometry_struct.xhtml" target="_top" xlink:title=" ">
<polygon fill="none" stroke="#000000" points="158.11,-304.5 158.11,-324.5 241.898,-324.5 241.898,-304.5 158.11,-304.5"/>
<text text-anchor="middle" x="200.004" y="-311.5" font-family="Helvetica,sans-Serif" font-size="10.00" fill="#000000">geometryStruct</text>
</a>
</g>
</g>
<!-- Node4&#45;&gt;Node2 -->
<g id="edge6" class="edge">
<title>Node4&#45;&gt;Node2</title>
<path fill="none" stroke="#9a32cd" stroke-dasharray="5,2" d="M225.2388,-329.2928C235.6124,-334.5648 247.9733,-339.8503 259.898,-342.5 372.3605,-367.4897 509.4651,-340.4972 573.9476,-324.5254"/>
<polygon fill="#9a32cd" stroke="#9a32cd" points="226.8086,-326.1633 216.3403,-324.5311 223.5059,-332.3352 226.8086,-326.1633"/>
<text text-anchor="middle" x="384.578" y="-355.5" font-family="Helvetica,sans-Serif" font-size="10.00" fill="#000000"> gadgetGeom</text>
</g>
<!-- Node4&#45;&gt;Node3 -->
<g id="edge3" class="edge">
<title>Node4&#45;&gt;Node3</title>
<path fill="none" stroke="#9a32cd" stroke-dasharray="5,2" d="M252.4051,-314.5C282.9489,-314.5 320.7103,-314.5 348.0398,-314.5"/>
<polygon fill="#9a32cd" stroke="#9a32cd" points="252.349,-311.0001 242.349,-314.5 252.349,-318.0001 252.349,-311.0001"/>
<text text-anchor="middle" x="293.7915" y="-329.5" font-family="Helvetica,sans-Serif" font-size="10.00" fill="#000000"> indicatorGeom</text>
<text text-anchor="middle" x="293.7915" y="-317.5" font-family="Helvetica,sans-Serif" font-size="10.00" fill="#000000">gadgetGeom</text>
</g>
<!-- Node4&#45;&gt;Node7 -->
<g id="edge8" class="edge">
<title>Node4&#45;&gt;Node7</title>
<path fill="none" stroke="#9a32cd" stroke-dasharray="5,2" d="M231.6656,-300.3188C260.8866,-287.5581 305.6769,-268.8209 345.685,-255.5 492.7686,-206.5279 531.1839,-198.158 682.939,-166.5 720.2655,-158.7132 762.6982,-152.1721 795.613,-147.5985"/>
<polygon fill="#9a32cd" stroke="#9a32cd" points="230.1275,-297.1717 222.3821,-304.4008 232.9451,-303.5796 230.1275,-297.1717"/>
<text text-anchor="middle" x="490.0825" y="-227.5" font-family="Helvetica,sans-Serif" font-size="10.00" fill="#000000"> windowGeom</text>
</g>
<!-- Node5 -->
<g id="node5" class="node">
<title>Node5</title>
<g id="a_node5"><a xlink:href="structcolour_struct.xhtml" target="_top" xlink:title=" ">
<polygon fill="none" stroke="#000000" points="165.334,-162.5 165.334,-182.5 234.674,-182.5 234.674,-162.5 165.334,-162.5"/>
<text text-anchor="middle" x="200.004" y="-169.5" font-family="Helvetica,sans-Serif" font-size="10.00" fill="#000000">colourStruct</text>
</a>
</g>
</g>
<!-- Node5&#45;&gt;Node2 -->
<g id="edge18" class="edge">
<title>Node5&#45;&gt;Node2</title>
<path fill="none" stroke="#9a32cd" stroke-dasharray="5,2" d="M244.8243,-164.1168C313.5285,-153.7406 446.5812,-143.6442 538.694,-199.5 579.1983,-224.0612 600.5596,-280.9477 607.8687,-304.2575"/>
<polygon fill="#9a32cd" stroke="#9a32cd" points="244.0967,-160.6883 234.7666,-165.7082 245.1907,-167.6023 244.0967,-160.6883"/>
<text text-anchor="middle" x="384.578" y="-187.5" font-family="Helvetica,sans-Serif" font-size="10.00" fill="#000000"> labelBGColour</text>
<text text-anchor="middle" x="384.578" y="-175.5" font-family="Helvetica,sans-Serif" font-size="10.00" fill="#000000">colourNames</text>
<text text-anchor="middle" x="384.578" y="-163.5" font-family="Helvetica,sans-Serif" font-size="10.00" fill="#000000">fontColourNames</text>
</g>
<!-- Node5&#45;&gt;Node3 -->
<g id="edge4" class="edge">
<title>Node5&#45;&gt;Node3</title>
<path fill="none" stroke="#9a32cd" stroke-dasharray="5,2" d="M217.5523,-189.8355C243.831,-215.1867 295.68,-262.8952 345.685,-295.5 350.5951,-298.7015 356.1237,-301.716 361.4381,-304.3601"/>
<polygon fill="#9a32cd" stroke="#9a32cd" points="219.8557,-187.1933 210.2481,-182.7272 214.9736,-192.2098 219.8557,-187.1933"/>
<text text-anchor="middle" x="293.7915" y="-283.5" font-family="Helvetica,sans-Serif" font-size="10.00" fill="#000000"> colour</text>
</g>
<!-- Node5&#45;&gt;Node7 -->
<g id="edge12" class="edge">
<title>Node5&#45;&gt;Node7</title>
<path fill="none" stroke="#9a32cd" stroke-dasharray="5,2" d="M234.3268,-159.1083C242.5804,-156.4296 251.4545,-153.9854 259.898,-152.5 445.1352,-119.9129 494.8812,-144.5035 682.939,-141.5 720.4716,-140.9006 762.7188,-140.6509 795.4909,-140.551"/>
<polygon fill="#9a32cd" stroke="#9a32cd" points="232.954,-155.8792 224.6375,-162.4432 235.2322,-162.4981 232.954,-155.8792"/>
<text text-anchor="middle" x="490.0825" y="-142.5" font-family="Helvetica,sans-Serif" font-size="10.00" fill="#000000"> windowColourNames</text>
</g>
<!-- Node6 -->
<g id="node6" class="node">
<title>Node6</title>
<g id="a_node6"><a xlink:href="structcairo_color.xhtml" target="_top" xlink:title=" ">
<polygon fill="none" stroke="#000000" points="0,-162.5 0,-182.5 61.551,-182.5 61.551,-162.5 0,-162.5"/>
<text text-anchor="middle" x="30.7755" y="-169.5" font-family="Helvetica,sans-Serif" font-size="10.00" fill="#000000">cairoColor</text>
</a>
</g>
</g>
<!-- Node6&#45;&gt;Node5 -->
<g id="edge5" class="edge">
<title>Node6&#45;&gt;Node5</title>
<path fill="none" stroke="#9a32cd" stroke-dasharray="5,2" d="M71.878,-172.5C100.4045,-172.5 137.9959,-172.5 165.0744,-172.5"/>
<polygon fill="#9a32cd" stroke="#9a32cd" points="71.8146,-169.0001 61.8146,-172.5 71.8146,-176.0001 71.8146,-169.0001"/>
<text text-anchor="middle" x="109.8305" y="-175.5" font-family="Helvetica,sans-Serif" font-size="10.00" fill="#000000"> RGBAColour</text>
</g>
<!-- Node7&#45;&gt;Node2 -->
<g id="edge7" class="edge">
<title>Node7&#45;&gt;Node2</title>
<path fill="none" stroke="#9a32cd" stroke-dasharray="5,2" d="M804.3799,-153.2707C754.6457,-166.8413 683.0948,-186.3785 682.939,-186.5 677.6337,-190.6368 632.0784,-274.9094 616.2268,-304.4087"/>
<polygon fill="#9a32cd" stroke="#9a32cd" points="805.5918,-156.5681 814.3179,-150.5592 803.7492,-149.8149 805.5918,-156.5681"/>
<text text-anchor="middle" x="724.8965" y="-201.5" font-family="Helvetica,sans-Serif" font-size="10.00" fill="#000000"> contextWC</text>
<text text-anchor="middle" x="724.8965" y="-189.5" font-family="Helvetica,sans-Serif" font-size="10.00" fill="#000000">wc</text>
</g>
<!-- Node8 -->
<g id="node8" class="node">
<title>Node8</title>
<g id="a_node8"><a xlink:href="structmonitor_struct.xhtml" target="_top" xlink:title=" ">
<polygon fill="none" stroke="#000000" points="573.0925,-78.5 573.0925,-98.5 648.5405,-98.5 648.5405,-78.5 573.0925,-78.5"/>
<text text-anchor="middle" x="610.8165" y="-85.5" font-family="Helvetica,sans-Serif" font-size="10.00" fill="#000000">monitorStruct</text>
</a>
</g>
</g>
<!-- Node8&#45;&gt;Node7 -->
<g id="edge9" class="edge">
<title>Node8&#45;&gt;Node7</title>
<path fill="none" stroke="#9a32cd" stroke-dasharray="5,2" d="M658.749,-83.8671C690.8597,-82.7807 733.2455,-85.3576 766.854,-101.5 777.3395,-106.5362 774.9531,-114.3941 784.854,-120.5 791.4072,-124.5413 798.8302,-127.812 806.2786,-130.4448"/>
<polygon fill="#9a32cd" stroke="#9a32cd" points="658.5344,-80.3732 648.7086,-84.3359 658.861,-87.3655 658.5344,-80.3732"/>
<text text-anchor="middle" x="724.8965" y="-104.5" font-family="Helvetica,sans-Serif" font-size="10.00" fill="#000000"> monitors</text>
</g>
<!-- Node9 -->
<g id="node9" class="node">
<title>Node9</title>
<g id="a_node9"><a xlink:href="structdrop_data_struct.xhtml" target="_top" xlink:title=" ">
<polygon fill="none" stroke="#000000" points="569.198,-39.5 569.198,-59.5 652.435,-59.5 652.435,-39.5 569.198,-39.5"/>
<text text-anchor="middle" x="610.8165" y="-46.5" font-family="Helvetica,sans-Serif" font-size="10.00" fill="#000000">dropDataStruct</text>
</a>
</g>
</g>
<!-- Node9&#45;&gt;Node7 -->
<g id="edge11" class="edge">
<title>Node9&#45;&gt;Node7</title>
<path fill="none" stroke="#9a32cd" stroke-dasharray="5,2" d="M662.5432,-42.7373C695.7855,-41.28 737.9933,-45.192 766.854,-68.5 785.8806,-83.866 767.2144,-103.5598 784.854,-120.5 789.1056,-124.583 794.1602,-127.8357 799.5546,-130.4264"/>
<polygon fill="#9a32cd" stroke="#9a32cd" points="662.3079,-39.245 652.5392,-43.3464 662.7334,-46.2321 662.3079,-39.245"/>
<text text-anchor="middle" x="724.8965" y="-71.5" font-family="Helvetica,sans-Serif" font-size="10.00" fill="#000000"> droppedData</text>
</g>
<!-- Node10 -->
<g id="node10" class="node">
<title>Node10</title>
<g id="a_node10"><a xlink:href="class_l_f_s_t_k__lib.xhtml" target="_top" xlink:title="Library of useful routines for LFSToolKit.">
<polygon fill="none" stroke="#000000" points="579.481,-.5 579.481,-20.5 642.152,-20.5 642.152,-.5 579.481,-.5"/>
<text text-anchor="middle" x="610.8165" y="-7.5" font-family="Helvetica,sans-Serif" font-size="10.00" fill="#000000">LFSTK_lib</text>
</a>
</g>
</g>
<!-- Node10&#45;&gt;Node7 -->
<g id="edge13" class="edge">
<title>Node10&#45;&gt;Node7</title>
<path fill="none" stroke="#9a32cd" stroke-dasharray="5,2" d="M652.3792,-2.7113C687.3823,1.2818 736.4723,.4686 766.854,-27.5 797.8281,-56.014 756.6348,-89.2571 784.854,-120.5 788.5632,-124.6066 793.0814,-127.8832 797.9982,-130.4954"/>
<polygon fill="#9a32cd" stroke="#9a32cd" points="651.9167,.7581 642.4568,-4.0128 652.8271,-6.1825 651.9167,.7581"/>
<text text-anchor="middle" x="724.8965" y="-30.5" font-family="Helvetica,sans-Serif" font-size="10.00" fill="#000000"> globalLib</text>
</g>
<!-- Node11 -->
<g id="node11" class="node">
<title>Node11</title>
<g id="a_node11"><a xlink:href="structargs.xhtml" target="_top" xlink:title=" ">
<polygon fill="none" stroke="#000000" points="366.8545,-.5 366.8545,-20.5 402.3015,-20.5 402.3015,-.5 366.8545,-.5"/>
<text text-anchor="middle" x="384.578" y="-7.5" font-family="Helvetica,sans-Serif" font-size="10.00" fill="#000000">args</text>
</a>
</g>
</g>
<!-- Node11&#45;&gt;Node10 -->
<g id="edge14" class="edge">
<title>Node11&#45;&gt;Node10</title>
<path fill="none" stroke="#9a32cd" stroke-dasharray="5,2" d="M412.4724,-10.5C454.7896,-10.5 534.9648,-10.5 579.3218,-10.5"/>
<polygon fill="#9a32cd" stroke="#9a32cd" points="412.3306,-7.0001 402.3306,-10.5 412.3305,-14.0001 412.3306,-7.0001"/>
<text text-anchor="middle" x="490.0825" y="-13.5" font-family="Helvetica,sans-Serif" font-size="10.00" fill="#000000"> lfsToolKitGlobals</text>
</g>
<!-- Node12&#45;&gt;Node2 -->
<g id="edge15" class="edge">
<title>Node12&#45;&gt;Node2</title>
<path fill="none" stroke="#9a32cd" stroke-dasharray="5,2" d="M797.1006,-280.2471C763.8114,-275.2174 720.4773,-272.0954 682.939,-280.5 662.5413,-285.0669 641.1139,-296.0754 626.9683,-304.3376"/>
<polygon fill="#9a32cd" stroke="#9a32cd" points="796.6619,-283.7215 807.0917,-281.8586 797.7767,-276.8108 796.6619,-283.7215"/>
<text text-anchor="middle" x="724.8965" y="-283.5" font-family="Helvetica,sans-Serif" font-size="10.00" fill="#000000"> ml</text>
</g>
<!-- Node13 -->
<g id="node13" class="node">
<title>Node13</title>
<g id="a_node13"><a xlink:href="structbutton_c_b.xhtml" target="_top" xlink:title=" ">
<polygon fill="none" stroke="#000000" points="355.737,-265.5 355.737,-285.5 413.419,-285.5 413.419,-265.5 355.737,-265.5"/>
<text text-anchor="middle" x="384.578" y="-272.5" font-family="Helvetica,sans-Serif" font-size="10.00" fill="#000000">buttonCB</text>
</a>
</g>
</g>
<!-- Node13&#45;&gt;Node2 -->
<g id="edge17" class="edge">
<title>Node13&#45;&gt;Node2</title>
<path fill="none" stroke="#9a32cd" stroke-dasharray="5,2" d="M423.6927,-280.5655C454.9199,-284.7952 499.7399,-291.2816 538.694,-298.5 548.1522,-300.2527 558.2589,-302.3517 567.8222,-304.4436"/>
<polygon fill="#9a32cd" stroke="#9a32cd" points="424.0281,-277.0792 413.6518,-279.2198 423.0982,-284.0172 424.0281,-277.0792"/>
<text text-anchor="middle" x="490.0825" y="-301.5" font-family="Helvetica,sans-Serif" font-size="10.00" fill="#000000"> callback</text>
</g>
<!-- Node14&#45;&gt;Node1 -->
<g id="edge19" class="edge">
<title>Node14&#45;&gt;Node1</title>
<path fill="none" stroke="#9a32cd" stroke-dasharray="5,2" d="M1125.991,-416.3245C1143.8628,-412.3374 1163.0159,-407.3878 1180.335,-401.5 1201.9198,-394.1621 1225.4495,-382.7204 1241.2343,-374.5032"/>
<polygon fill="#9a32cd" stroke="#9a32cd" points="1125.2473,-412.9043 1116.2138,-418.4403 1126.7279,-419.7459 1125.2473,-412.9043"/>
<text text-anchor="middle" x="1157.83" y="-416.5" font-family="Helvetica,sans-Serif" font-size="10.00" fill="#000000"> scrollBar</text>
</g>
<!-- Node15&#45;&gt;Node1 -->
<g id="edge27" class="edge">
<title>Node15&#45;&gt;Node1</title>
<path fill="none" stroke="#9a32cd" stroke-dasharray="5,2" d="M914.2575,-383.9493C991.5179,-379.599 1121.5524,-372.2772 1198.1201,-367.966"/>
<polygon fill="#9a32cd" stroke="#9a32cd" points="913.9671,-380.46 904.1797,-384.5167 914.3607,-387.4489 913.9671,-380.46"/>
<text text-anchor="middle" x="1059.048" y="-381.5" font-family="Helvetica,sans-Serif" font-size="10.00" fill="#000000"> labels</text>
</g>
<!-- Node15&#45;&gt;Node14 -->
<g id="edge21" class="edge">
<title>Node15&#45;&gt;Node14</title>
<path fill="none" stroke="#9a32cd" stroke-dasharray="5,2" d="M912.1251,-399.5185C942.588,-405.5275 979.0348,-412.7169 1008.0065,-418.4317"/>
<polygon fill="#9a32cd" stroke="#9a32cd" points="912.5314,-396.0312 902.0431,-397.5297 911.1767,-402.8989 912.5314,-396.0312"/>
<text text-anchor="middle" x="959.1555" y="-439.5" font-family="Helvetica,sans-Serif" font-size="10.00" fill="#000000"> upLeft</text>
<text text-anchor="middle" x="959.1555" y="-427.5" font-family="Helvetica,sans-Serif" font-size="10.00" fill="#000000">downRight</text>
<text text-anchor="middle" x="959.1555" y="-415.5" font-family="Helvetica,sans-Serif" font-size="10.00" fill="#000000">thumb</text>
</g>
<!-- Node16 -->
<g id="node16" class="node">
<title>Node16</title>
<g id="a_node16"><a xlink:href="structlist_label_struct.xhtml" target="_top" xlink:title=" ">
<polygon fill="none" stroke="#000000" points="1019.6545,-198.5 1019.6545,-218.5 1098.4415,-218.5 1098.4415,-198.5 1019.6545,-198.5"/>
<text text-anchor="middle" x="1059.048" y="-205.5" font-family="Helvetica,sans-Serif" font-size="10.00" fill="#000000">listLabelStruct</text>
</a>
</g>
</g>
<!-- Node16&#45;&gt;Node1 -->
<g id="edge23" class="edge">
<title>Node16&#45;&gt;Node1</title>
<path fill="none" stroke="#9a32cd" stroke-dasharray="5,2" d="M1080.2987,-225.0237C1121.8939,-257.3664 1212.9433,-328.1626 1246.7246,-354.4295"/>
<polygon fill="#9a32cd" stroke="#9a32cd" points="1082.2546,-222.1109 1072.2118,-218.7356 1077.9577,-227.637 1082.2546,-222.1109"/>
<text text-anchor="middle" x="1157.83" y="-302.5" font-family="Helvetica,sans-Serif" font-size="10.00" fill="#000000"> labelData</text>
</g>
<!-- Node17 -->
<g id="node17" class="node">
<title>Node17</title>
<g id="a_node17"><a xlink:href="unionlist_label_struct_1_1image_data.xhtml" target="_top" xlink:title=" ">
<polygon fill="none" stroke="#000000" points="784.854,-91.5 784.854,-111.5 917.54,-111.5 917.54,-91.5 784.854,-91.5"/>
<text text-anchor="middle" x="851.197" y="-98.5" font-family="Helvetica,sans-Serif" font-size="10.00" fill="#000000">listLabelStruct::imageData</text>
</a>
</g>
</g>
<!-- Node17&#45;&gt;Node16 -->
<g id="edge24" class="edge">
<title>Node17&#45;&gt;Node16</title>
<path fill="none" stroke="#9a32cd" stroke-dasharray="5,2" d="M902.68,-114.6997C907.7704,-116.463 912.8019,-118.3975 917.54,-120.5 967.7832,-142.7949 1021.3953,-180.4699 1045.6994,-198.4142"/>
<polygon fill="#9a32cd" stroke="#9a32cd" points="903.4719,-111.2771 892.8798,-111.5208 901.312,-117.9356 903.4719,-111.2771"/>
<text text-anchor="middle" x="959.1555" y="-158.5" font-family="Helvetica,sans-Serif" font-size="10.00" fill="#000000"> data</text>
</g>
<!-- Node18&#45;&gt;Node1 -->
<g id="edge25" class="edge">
<title>Node18&#45;&gt;Node1</title>
<path fill="none" stroke="#9a32cd" stroke-dasharray="5,2" d="M1403.4,-351.2285C1399.7289,-350.1124 1395.9961,-349.1599 1392.357,-348.5 1359.7109,-342.5801 1322.1365,-348.2663 1295.3262,-354.4395"/>
<polygon fill="#9a32cd" stroke="#9a32cd" points="1402.2714,-354.5415 1412.866,-354.4769 1404.5435,-347.9205 1402.2714,-354.5415"/>
<text text-anchor="middle" x="1365.687" y="-351.5" font-family="Helvetica,sans-Serif" font-size="10.00" fill="#000000"> data</text>
</g>
</g>
</svg>
        <g id="navigator" transform="translate(0 0)" fill="#404254">
                <rect fill="#f2f5e9" fill-opacity="0.5" stroke="#606060" stroke-width=".5" x="0" y="0" width="60" height="60"/>
                <use id="zoomplus" xlink:href="#zoomPlus" x="17" y="9" onmousedown="handleZoom(evt,'in')"/>
                <use id="zoomminus" xlink:href="#zoomMin" x="42" y="9" onmousedown="handleZoom(evt,'out')"/>
                <use id="reset" xlink:href="#resetDef" x="30" y="36" onmousedown="handleReset()"/>
                <g id="arrowUp" xlink:href="#dirArrow" transform="translate(30 24)" onmousedown="handlePan(0,-1)">
                  <use xlink:href="#rim" fill="#404040">
                        <set attributeName="fill" to="#808080" begin="arrowUp.mouseover" end="arrowUp.mouseout"/>
                  </use>
                  <path fill="none" stroke="white" stroke-width="1.5" d="M0,-3.0v7 M-2.5,-0.5L0,-3.0L2.5,-0.5"/>
                </g>
                <g id="arrowRight" xlink:href="#dirArrow" transform="rotate(90) translate(36 -43)" onmousedown="handlePan(1,0)">
                  <use xlink:href="#rim" fill="#404040">
                        <set attributeName="fill" to="#808080" begin="arrowRight.mouseover" end="arrowRight.mouseout"/>
                  </use>
                  <path fill="none" stroke="white" stroke-width="1.5" d="M0,-3.0v7 M-2.5,-0.5L0,-3.0L2.5,-0.5"/>
                </g>
                <g id="arrowDown" xlink:href="#dirArrow" transform="rotate(180) translate(-30 -48)" onmousedown="handlePan(0,1)">
                  <use xlink:href="#rim" fill="#404040">
                        <set attributeName="fill" to="#808080" begin="arrowDown.mouseover" end="arrowDown.mouseout"/>
                  </use>
                  <path fill="none" stroke="white" stroke-width="1.5" d="M0,-3.0v7 M-2.5,-0.5L0,-3.0L2.5,-0.5"/>
                </g>
                <g id="arrowLeft" xlink:href="#dirArrow" transform="rotate(270) translate(-36 17)" onmousedown="handlePan(-1,0)">
                  <use xlink:href="#rim" fill="#404040">
                        <set attributeName="fill" to="#808080" begin="arrowLeft.mouseover" end="arrowLeft.mouseout"/>
                  </use>
                  <path fill="none" stroke="white" stroke-width="1.5" d="M0,-3.0v7 M-2.5,-0.5L0,-3.0L2.5,-0.5"/>
                </g>
        </g>
        <svg viewBox="0 0 15 15" width="100%" height="30px" preserveAspectRatio="xMaxYMin meet">
         <g id="arrow_out" transform="scale(0.3 0.3)">
          <a xlink:href="class_l_f_s_t_k__list_gadget_class__coll__graph_org.svg" target="_base">
           <rect id="button" ry="5" rx="5" y="6" x="6" height="38" width="38"
                fill="#f2f5e9" fill-opacity="0.5" stroke="#606060" stroke-width="1.0"/>
           <path id="arrow"
             d="M 11.500037,31.436501 C 11.940474,20.09759 22.043105,11.32322 32.158766,21.979434 L 37.068811,17.246167 C 37.068811,17.246167 37.088388,32 37.088388,32 L 22.160133,31.978069 C 22.160133,31.978069 26.997745,27.140456 26.997745,27.140456 C 18.528582,18.264221 13.291696,25.230495 11.500037,31.436501 z"
             style="fill:#404040;"/>
          </a>
         </g>
        </svg>
</svg>
