<?xml version="1.0" encoding="UTF-8" standalone="no"?>
<!DOCTYPE svg PUBLIC "-//W3C//DTD SVG 1.1//EN"
 "http://www.w3.org/Graphics/SVG/1.1/DTD/svg11.dtd">
<!-- Generated by graphviz version 2.40.1 (20161225.0304)
 -->
<!-- Title: LFSTK_fileDialogClass Pages: 1 -->
<svg width="1659pt" height="569pt"
 viewBox="0.00 0.00 1659.14 568.97" xmlns="http://www.w3.org/2000/svg" xmlns:xlink="http://www.w3.org/1999/xlink">
<g id="graph0" class="graph" transform="scale(1 1) rotate(0) translate(4 564.9699)">
<title>LFSTK_fileDialogClass</title>
<!-- Node1 -->
<g id="node1" class="node">
<title>Node1</title>
<g id="a_node1"><a xlink:title="File dialog class for LFSToolKit.">
<polygon fill="#bfbfbf" stroke="#000000" points="1532.364,-230.9699 1532.364,-250.9699 1651.145,-250.9699 1651.145,-230.9699 1532.364,-230.9699"/>
<text text-anchor="middle" x="1591.7545" y="-237.9699" font-family="Helvetica,sans-Serif" font-size="10.00" fill="#000000">LFSTK_fileDialogClass</text>
</a>
</g>
</g>
<!-- Node2 -->
<g id="node2" class="node">
<title>Node2</title>
<g id="a_node2"><a xlink:href="class_l_f_s_t_k__image_class.xhtml" target="_top" xlink:title="Image class for LFSToolKit.">
<polygon fill="none" stroke="#000000" points="935.54,-262.9699 935.54,-282.9699 1040.436,-282.9699 1040.436,-262.9699 935.54,-262.9699"/>
<text text-anchor="middle" x="987.988" y="-269.9699" font-family="Helvetica,sans-Serif" font-size="10.00" fill="#000000">LFSTK_imageClass</text>
</a>
</g>
</g>
<!-- Node2&#45;&gt;Node1 -->
<g id="edge1" class="edge">
<title>Node2&#45;&gt;Node1</title>
<path fill="none" stroke="#9a32cd" stroke-dasharray="5,2" d="M1050.7371,-269.6442C1167.7627,-263.4417 1417.8,-250.1896 1532.2875,-244.1217"/>
<polygon fill="#9a32cd" stroke="#9a32cd" points="1050.3128,-266.1616 1040.5121,-270.1861 1050.6834,-273.1518 1050.3128,-266.1616"/>
<text text-anchor="middle" x="1242.383" y="-264.9699" font-family="Helvetica,sans-Serif" font-size="10.00" fill="#000000"> tux</text>
</g>
<!-- Node3 -->
<g id="node3" class="node">
<title>Node3</title>
<g id="a_node3"><a xlink:href="class_l_f_s_t_k__gadget_class.xhtml" target="_top" xlink:title="Base class for LFSToolKit gadgets.">
<polygon fill="none" stroke="#000000" points="556.694,-318.9699 556.694,-338.9699 664.939,-338.9699 664.939,-318.9699 556.694,-318.9699"/>
<text text-anchor="middle" x="610.8165" y="-325.9699" font-family="Helvetica,sans-Serif" font-size="10.00" fill="#000000">LFSTK_gadgetClass</text>
</a>
</g>
</g>
<!-- Node3&#45;&gt;Node2 -->
<g id="edge2" class="edge">
<title>Node3&#45;&gt;Node2</title>
<path fill="none" stroke="#191970" d="M675.3096,-319.3944C748.7408,-308.4918 867.3103,-290.8873 935.3874,-280.7797"/>
<polygon fill="#191970" stroke="#191970" points="674.6352,-315.9561 665.2577,-320.8868 675.6633,-322.8801 674.6352,-315.9561"/>
</g>
<!-- Node8 -->
<g id="node8" class="node">
<title>Node8</title>
<g id="a_node8"><a xlink:href="class_l_f_s_t_k__window_class.xhtml" target="_top" xlink:title="Window class for LFSToolKit.">
<polygon fill="none" stroke="#000000" points="795.6945,-161.9699 795.6945,-181.9699 906.6995,-181.9699 906.6995,-161.9699 795.6945,-161.9699"/>
<text text-anchor="middle" x="851.197" y="-168.9699" font-family="Helvetica,sans-Serif" font-size="10.00" fill="#000000">LFSTK_windowClass</text>
</a>
</g>
</g>
<!-- Node3&#45;&gt;Node8 -->
<g id="edge11" class="edge">
<title>Node3&#45;&gt;Node8</title>
<path fill="none" stroke="#9a32cd" stroke-dasharray="5,2" d="M619.2427,-309.4074C630.3492,-286.042 652.1497,-247.5405 682.939,-226.9699 714.7351,-205.7267 730.4728,-219.7459 766.854,-207.9699 789.1204,-200.7626 813.6254,-189.9623 830.4563,-182.0717"/>
<polygon fill="#9a32cd" stroke="#9a32cd" points="615.9797,-308.1275 615.02,-318.6788 622.3501,-311.0289 615.9797,-308.1275"/>
<text text-anchor="middle" x="724.8965" y="-241.9699" font-family="Helvetica,sans-Serif" font-size="10.00" fill="#000000"> dropGadget</text>
<text text-anchor="middle" x="724.8965" y="-229.9699" font-family="Helvetica,sans-Serif" font-size="10.00" fill="#000000">popupFromGadget</text>
</g>
<!-- Node13 -->
<g id="node13" class="node">
<title>Node13</title>
<g id="a_node13"><a xlink:href="structmapped_listener.xhtml" target="_top" xlink:title=" ">
<polygon fill="none" stroke="#000000" points="807.3535,-419.9699 807.3535,-439.9699 895.0405,-439.9699 895.0405,-419.9699 807.3535,-419.9699"/>
<text text-anchor="middle" x="851.197" y="-426.9699" font-family="Helvetica,sans-Serif" font-size="10.00" fill="#000000">mappedListener</text>
</a>
</g>
</g>
<!-- Node3&#45;&gt;Node13 -->
<g id="edge17" class="edge">
<title>Node3&#45;&gt;Node13</title>
<path fill="none" stroke="#9a32cd" stroke-dasharray="5,2" d="M632.2657,-345.1684C646.1113,-354.9718 664.8551,-367.0654 682.939,-374.9699 718.2675,-390.4121 730.1912,-385.0366 766.854,-396.9699 767.6063,-397.2147 800.7719,-410.2039 825.2835,-419.8105"/>
<polygon fill="#9a32cd" stroke="#9a32cd" points="634.0808,-342.1612 623.9307,-339.1238 629.9713,-347.828 634.0808,-342.1612"/>
<text text-anchor="middle" x="724.8965" y="-399.9699" font-family="Helvetica,sans-Serif" font-size="10.00" fill="#000000"> gadget</text>
</g>
<!-- Node15 -->
<g id="node15" class="node">
<title>Node15</title>
<g id="a_node15"><a xlink:href="class_l_f_s_t_k__label_class.xhtml" target="_top" xlink:title="Label class for LFSToolKit gadgets.">
<polygon fill="none" stroke="#000000" points="1192.99,-295.9699 1192.99,-315.9699 1291.776,-315.9699 1291.776,-295.9699 1192.99,-295.9699"/>
<text text-anchor="middle" x="1242.383" y="-302.9699" font-family="Helvetica,sans-Serif" font-size="10.00" fill="#000000">LFSTK_labelClass</text>
</a>
</g>
</g>
<!-- Node3&#45;&gt;Node15 -->
<g id="edge22" class="edge">
<title>Node3&#45;&gt;Node15</title>
<path fill="none" stroke="#191970" d="M675.1063,-328.5984C703.269,-328.3187 736.7051,-327.8286 766.854,-326.9699 922.3562,-322.5408 1106.2993,-313.27 1192.7686,-308.6732"/>
<polygon fill="#191970" stroke="#191970" points="674.9521,-325.0995 664.985,-328.6922 675.0171,-332.0992 674.9521,-325.0995"/>
</g>
<!-- Node16 -->
<g id="node16" class="node">
<title>Node16</title>
<g id="a_node16"><a xlink:href="class_l_f_s_t_k__line_edit_class.xhtml" target="_top" xlink:title="Line edit class for LFSToolKit.">
<polygon fill="none" stroke="#000000" points="795.9705,-122.9699 795.9705,-142.9699 906.4235,-142.9699 906.4235,-122.9699 795.9705,-122.9699"/>
<text text-anchor="middle" x="851.197" y="-129.9699" font-family="Helvetica,sans-Serif" font-size="10.00" fill="#000000">LFSTK_lineEditClass</text>
</a>
</g>
</g>
<!-- Node3&#45;&gt;Node16 -->
<g id="edge24" class="edge">
<title>Node3&#45;&gt;Node16</title>
<path fill="none" stroke="#191970" d="M619.0703,-309.3991C630.4653,-284.1923 653.0442,-240.1601 682.939,-210.9699 685.2795,-208.6846 781.8434,-153.2493 784.854,-151.9699 792.9034,-148.5491 801.7567,-145.5343 810.3009,-142.9721"/>
<polygon fill="#191970" stroke="#191970" points="615.8208,-308.0943 615.0074,-318.6578 622.2308,-310.9071 615.8208,-308.0943"/>
</g>
<!-- Node18 -->
<g id="node18" class="node">
<title>Node18</title>
<g id="a_node18"><a xlink:href="class_l_f_s_t_k__button_class.xhtml" target="_top" xlink:title="Basic button class for LFSToolKit.">
<polygon fill="none" stroke="#000000" points="798.4645,-373.9699 798.4645,-393.9699 903.9295,-393.9699 903.9295,-373.9699 798.4645,-373.9699"/>
<text text-anchor="middle" x="851.197" y="-380.9699" font-family="Helvetica,sans-Serif" font-size="10.00" fill="#000000">LFSTK_buttonClass</text>
</a>
</g>
</g>
<!-- Node3&#45;&gt;Node18 -->
<g id="edge28" class="edge">
<title>Node3&#45;&gt;Node18</title>
<path fill="none" stroke="#191970" d="M649.3024,-342.1901C660.1082,-345.6427 671.9174,-349.1753 682.939,-351.9699 721.1294,-361.6533 764.8609,-369.8853 798.1669,-375.5742"/>
<polygon fill="#191970" stroke="#191970" points="650.3046,-338.8356 639.7122,-339.0654 648.1359,-345.4912 650.3046,-338.8356"/>
</g>
<!-- Node19 -->
<g id="node19" class="node">
<title>Node19</title>
<g id="a_node19"><a xlink:href="class_l_f_s_t_k__list_gadget_class.xhtml" target="_top" xlink:title="List class for LFSToolKit.">
<polygon fill="none" stroke="#000000" points="1309.776,-460.9699 1309.776,-480.9699 1432.458,-480.9699 1432.458,-460.9699 1309.776,-460.9699"/>
<text text-anchor="middle" x="1371.117" y="-467.9699" font-family="Helvetica,sans-Serif" font-size="10.00" fill="#000000">LFSTK_listGadgetClass</text>
</a>
</g>
</g>
<!-- Node3&#45;&gt;Node19 -->
<g id="edge30" class="edge">
<title>Node3&#45;&gt;Node19</title>
<path fill="none" stroke="#191970" d="M616.2619,-348.9129C625.0822,-376.8929 645.4129,-426.8504 682.939,-448.9699 787.7836,-510.7698 1161.2339,-488.176 1309.6537,-476.3444"/>
<polygon fill="#191970" stroke="#191970" points="619.537,-347.6454 613.3446,-339.0487 612.8244,-349.6307 619.537,-347.6454"/>
</g>
<!-- Node20 -->
<g id="node20" class="node">
<title>Node20</title>
<g id="a_node20"><a xlink:href="class_l_f_s_t_k__scroll_bar_class.xhtml" target="_top" xlink:title="Scrollbar class for LFSToolKit.">
<polygon fill="none" stroke="#000000" points="1058.436,-499.9699 1058.436,-519.9699 1174.99,-519.9699 1174.99,-499.9699 1058.436,-499.9699"/>
<text text-anchor="middle" x="1116.713" y="-506.9699" font-family="Helvetica,sans-Serif" font-size="10.00" fill="#000000">LFSTK_scrollBarClass</text>
</a>
</g>
</g>
<!-- Node3&#45;&gt;Node20 -->
<g id="edge32" class="edge">
<title>Node3&#45;&gt;Node20</title>
<path fill="none" stroke="#191970" d="M613.4585,-349.273C619.1724,-384.0013 636.1785,-454.1355 682.939,-485.9699 742.4018,-526.452 954.0823,-519.9311 1058.1267,-513.977"/>
<polygon fill="#191970" stroke="#191970" points="616.9133,-348.7096 611.9767,-339.3351 609.9898,-349.742 616.9133,-348.7096"/>
</g>
<!-- Node4 -->
<g id="node4" class="node">
<title>Node4</title>
<g id="a_node4"><a xlink:href="structgadget_struct.xhtml" target="_top" xlink:title=" ">
<polygon fill="none" stroke="#000000" points="348.2335,-247.9699 348.2335,-267.9699 420.9225,-267.9699 420.9225,-247.9699 348.2335,-247.9699"/>
<text text-anchor="middle" x="384.578" y="-254.9699" font-family="Helvetica,sans-Serif" font-size="10.00" fill="#000000">gadgetStruct</text>
</a>
</g>
</g>
<!-- Node4&#45;&gt;Node3 -->
<g id="edge3" class="edge">
<title>Node4&#45;&gt;Node3</title>
<path fill="none" stroke="#9a32cd" stroke-dasharray="5,2" d="M431.1626,-258.6737C462.4932,-260.4916 504.2106,-265.563 538.694,-278.9699 562.5507,-288.2453 586.1561,-306.8799 599.5657,-318.5952"/>
<polygon fill="#9a32cd" stroke="#9a32cd" points="431.1202,-255.1675 420.9611,-258.1745 430.778,-262.1591 431.1202,-255.1675"/>
<text text-anchor="middle" x="490.0825" y="-281.9699" font-family="Helvetica,sans-Serif" font-size="10.00" fill="#000000"> gadgetDetails</text>
</g>
<!-- Node5 -->
<g id="node5" class="node">
<title>Node5</title>
<g id="a_node5"><a xlink:href="structgeometry_struct.xhtml" target="_top" xlink:title=" ">
<polygon fill="none" stroke="#000000" points="158.11,-247.9699 158.11,-267.9699 241.898,-267.9699 241.898,-247.9699 158.11,-247.9699"/>
<text text-anchor="middle" x="200.004" y="-254.9699" font-family="Helvetica,sans-Serif" font-size="10.00" fill="#000000">geometryStruct</text>
</a>
</g>
</g>
<!-- Node5&#45;&gt;Node3 -->
<g id="edge7" class="edge">
<title>Node5&#45;&gt;Node3</title>
<path fill="none" stroke="#9a32cd" stroke-dasharray="5,2" d="M226.868,-272.7351C236.9554,-277.6825 248.6947,-282.753 259.898,-285.9699 314.2473,-301.5757 472.1413,-316.992 556.379,-324.4076"/>
<polygon fill="#9a32cd" stroke="#9a32cd" points="228.2723,-269.5224 217.7742,-268.094 225.0902,-275.7573 228.2723,-269.5224"/>
<text text-anchor="middle" x="384.578" y="-314.9699" font-family="Helvetica,sans-Serif" font-size="10.00" fill="#000000"> gadgetGeom</text>
</g>
<!-- Node5&#45;&gt;Node4 -->
<g id="edge4" class="edge">
<title>Node5&#45;&gt;Node4</title>
<path fill="none" stroke="#9a32cd" stroke-dasharray="5,2" d="M252.4051,-257.9699C282.9489,-257.9699 320.7103,-257.9699 348.0398,-257.9699"/>
<polygon fill="#9a32cd" stroke="#9a32cd" points="252.349,-254.47 242.349,-257.9699 252.349,-261.47 252.349,-254.47"/>
<text text-anchor="middle" x="293.7915" y="-272.9699" font-family="Helvetica,sans-Serif" font-size="10.00" fill="#000000"> indicatorGeom</text>
<text text-anchor="middle" x="293.7915" y="-260.9699" font-family="Helvetica,sans-Serif" font-size="10.00" fill="#000000">gadgetGeom</text>
</g>
<!-- Node5&#45;&gt;Node8 -->
<g id="edge9" class="edge">
<title>Node5&#45;&gt;Node8</title>
<path fill="none" stroke="#9a32cd" stroke-dasharray="5,2" d="M252.3387,-250.6999C280.0743,-246.8686 314.7222,-242.1165 345.685,-237.9699 509.0713,-216.0889 702.2919,-191.1118 795.453,-179.1256"/>
<polygon fill="#9a32cd" stroke="#9a32cd" points="251.4955,-247.2831 242.0692,-252.12 252.4544,-254.2171 251.4955,-247.2831"/>
<text text-anchor="middle" x="490.0825" y="-227.9699" font-family="Helvetica,sans-Serif" font-size="10.00" fill="#000000"> windowGeom</text>
</g>
<!-- Node6 -->
<g id="node6" class="node">
<title>Node6</title>
<g id="a_node6"><a xlink:href="structcolour_struct.xhtml" target="_top" xlink:title=" ">
<polygon fill="none" stroke="#000000" points="165.334,-101.9699 165.334,-121.9699 234.674,-121.9699 234.674,-101.9699 165.334,-101.9699"/>
<text text-anchor="middle" x="200.004" y="-108.9699" font-family="Helvetica,sans-Serif" font-size="10.00" fill="#000000">colourStruct</text>
</a>
</g>
</g>
<!-- Node6&#45;&gt;Node3 -->
<g id="edge19" class="edge">
<title>Node6&#45;&gt;Node3</title>
<path fill="none" stroke="#9a32cd" stroke-dasharray="5,2" d="M245.1399,-116.2138C326.4475,-124.6474 493.2955,-145.7968 538.694,-180.9699 585.4657,-217.2069 603.7542,-291.6078 609.0417,-318.7618"/>
<polygon fill="#9a32cd" stroke="#9a32cd" points="245.0271,-112.6844 234.7243,-115.1547 244.3188,-119.6485 245.0271,-112.6844"/>
<text text-anchor="middle" x="384.578" y="-168.9699" font-family="Helvetica,sans-Serif" font-size="10.00" fill="#000000"> labelBGColour</text>
<text text-anchor="middle" x="384.578" y="-156.9699" font-family="Helvetica,sans-Serif" font-size="10.00" fill="#000000">colourNames</text>
<text text-anchor="middle" x="384.578" y="-144.9699" font-family="Helvetica,sans-Serif" font-size="10.00" fill="#000000">fontColourNames</text>
</g>
<!-- Node6&#45;&gt;Node4 -->
<g id="edge5" class="edge">
<title>Node6&#45;&gt;Node4</title>
<path fill="none" stroke="#9a32cd" stroke-dasharray="5,2" d="M217.5836,-129.523C229.2432,-140.8812 245.0721,-155.7703 259.898,-167.9699 297.6222,-199.0116 345.1243,-231.6635 369.1478,-247.7612"/>
<polygon fill="#9a32cd" stroke="#9a32cd" points="219.8245,-126.8178 210.2411,-122.3001 214.9155,-131.808 219.8245,-126.8178"/>
<text text-anchor="middle" x="293.7915" y="-221.9699" font-family="Helvetica,sans-Serif" font-size="10.00" fill="#000000"> colour</text>
</g>
<!-- Node6&#45;&gt;Node8 -->
<g id="edge13" class="edge">
<title>Node6&#45;&gt;Node8</title>
<path fill="none" stroke="#9a32cd" stroke-dasharray="5,2" d="M244.9512,-102.6164C273.6283,-97.1335 311.6691,-90.7531 345.685,-87.9699 439.0179,-80.3334 694.0901,-43.0228 766.854,-101.9699 785.206,-116.8371 767.7186,-135.7155 784.854,-151.9699 789.1306,-156.0266 794.2007,-159.2632 799.6037,-161.8448"/>
<polygon fill="#9a32cd" stroke="#9a32cd" points="243.9805,-99.2396 234.8345,-104.5874 245.3192,-106.1104 243.9805,-99.2396"/>
<text text-anchor="middle" x="490.0825" y="-81.9699" font-family="Helvetica,sans-Serif" font-size="10.00" fill="#000000"> windowColourNames</text>
</g>
<!-- Node6&#45;&gt;Node16 -->
<g id="edge25" class="edge">
<title>Node6&#45;&gt;Node16</title>
<path fill="none" stroke="#9a32cd" stroke-dasharray="5,2" d="M213.9976,-93.6631C224.9976,-80.6661 241.4988,-63.9842 259.898,-54.9699 422.5517,24.7191 483.8676,-5.5308 664.939,-9.9699 710.2754,-11.0813 727.0474,6.7571 766.854,-14.9699 811.5024,-39.3396 838.2036,-98.72 847.4816,-122.6868"/>
<polygon fill="#9a32cd" stroke="#9a32cd" points="211.1787,-91.5824 207.5988,-101.5542 216.6158,-95.9913 211.1787,-91.5824"/>
<text text-anchor="middle" x="490.0825" y="-6.9699" font-family="Helvetica,sans-Serif" font-size="10.00" fill="#000000"> cursorColour</text>
</g>
<!-- Node7 -->
<g id="node7" class="node">
<title>Node7</title>
<g id="a_node7"><a xlink:href="structcairo_color.xhtml" target="_top" xlink:title=" ">
<polygon fill="none" stroke="#000000" points="0,-101.9699 0,-121.9699 61.551,-121.9699 61.551,-101.9699 0,-101.9699"/>
<text text-anchor="middle" x="30.7755" y="-108.9699" font-family="Helvetica,sans-Serif" font-size="10.00" fill="#000000">cairoColor</text>
</a>
</g>
</g>
<!-- Node7&#45;&gt;Node6 -->
<g id="edge6" class="edge">
<title>Node7&#45;&gt;Node6</title>
<path fill="none" stroke="#9a32cd" stroke-dasharray="5,2" d="M71.878,-111.9699C100.4045,-111.9699 137.9959,-111.9699 165.0744,-111.9699"/>
<polygon fill="#9a32cd" stroke="#9a32cd" points="71.8146,-108.47 61.8146,-111.9699 71.8146,-115.47 71.8146,-108.47"/>
<text text-anchor="middle" x="109.8305" y="-114.9699" font-family="Helvetica,sans-Serif" font-size="10.00" fill="#000000"> RGBAColour</text>
</g>
<!-- Node8&#45;&gt;Node1 -->
<g id="edge20" class="edge">
<title>Node8&#45;&gt;Node1</title>
<path fill="none" stroke="#9a32cd" stroke-dasharray="5,2" d="M917.2053,-178.1201C1059.9198,-191.4172 1395.3348,-222.6689 1532.1098,-235.4126"/>
<polygon fill="#9a32cd" stroke="#9a32cd" points="917.1408,-174.599 906.8592,-177.1561 916.4913,-181.5688 917.1408,-174.599"/>
<text text-anchor="middle" x="1242.383" y="-227.9699" font-family="Helvetica,sans-Serif" font-size="10.00" fill="#000000"> dialog</text>
<text text-anchor="middle" x="1242.383" y="-215.9699" font-family="Helvetica,sans-Serif" font-size="10.00" fill="#000000">wc</text>
</g>
<!-- Node8&#45;&gt;Node3 -->
<g id="edge8" class="edge">
<title>Node8&#45;&gt;Node3</title>
<path fill="none" stroke="#9a32cd" stroke-dasharray="5,2" d="M837.6319,-189.9449C822.4215,-208.8591 796.0335,-238.1679 766.854,-254.9699 733.3416,-274.2668 717.9019,-261.4457 682.939,-277.9699 659.6458,-288.9788 635.8644,-307.5024 622.267,-318.9365"/>
<polygon fill="#9a32cd" stroke="#9a32cd" points="840.3909,-192.0984 843.8038,-182.0683 834.881,-187.7809 840.3909,-192.0984"/>
<text text-anchor="middle" x="724.8965" y="-292.9699" font-family="Helvetica,sans-Serif" font-size="10.00" fill="#000000"> contextWC</text>
<text text-anchor="middle" x="724.8965" y="-280.9699" font-family="Helvetica,sans-Serif" font-size="10.00" fill="#000000">wc</text>
</g>
<!-- Node9 -->
<g id="node9" class="node">
<title>Node9</title>
<g id="a_node9"><a xlink:href="structmonitor_struct.xhtml" target="_top" xlink:title=" ">
<polygon fill="none" stroke="#000000" points="573.0925,-19.9699 573.0925,-39.9699 648.5405,-39.9699 648.5405,-19.9699 573.0925,-19.9699"/>
<text text-anchor="middle" x="610.8165" y="-26.9699" font-family="Helvetica,sans-Serif" font-size="10.00" fill="#000000">monitorStruct</text>
</a>
</g>
</g>
<!-- Node9&#45;&gt;Node8 -->
<g id="edge10" class="edge">
<title>Node9&#45;&gt;Node8</title>
<path fill="none" stroke="#9a32cd" stroke-dasharray="5,2" d="M659.0037,-19.8615C693.3982,-15.6545 738.4262,-16.7441 766.854,-42.9699 802.9429,-76.2633 752.4473,-115.0827 784.854,-151.9699 788.4269,-156.0368 792.7937,-159.2919 797.5648,-161.895"/>
<polygon fill="#9a32cd" stroke="#9a32cd" points="658.1139,-16.4523 648.701,-21.3152 659.092,-23.3836 658.1139,-16.4523"/>
<text text-anchor="middle" x="724.8965" y="-45.9699" font-family="Helvetica,sans-Serif" font-size="10.00" fill="#000000"> monitors</text>
</g>
<!-- Node10 -->
<g id="node10" class="node">
<title>Node10</title>
<g id="a_node10"><a xlink:href="structdrop_data_struct.xhtml" target="_top" xlink:title=" ">
<polygon fill="none" stroke="#000000" points="569.198,-136.9699 569.198,-156.9699 652.435,-156.9699 652.435,-136.9699 569.198,-136.9699"/>
<text text-anchor="middle" x="610.8165" y="-143.9699" font-family="Helvetica,sans-Serif" font-size="10.00" fill="#000000">dropDataStruct</text>
</a>
</g>
</g>
<!-- Node10&#45;&gt;Node8 -->
<g id="edge12" class="edge">
<title>Node10&#45;&gt;Node8</title>
<path fill="none" stroke="#9a32cd" stroke-dasharray="5,2" d="M663.1333,-146.1592C669.7992,-146.081 676.5292,-146.0143 682.939,-145.9699 720.2337,-145.7114 730.04,-139.9958 766.854,-145.9699 775.1779,-147.3207 776.8162,-149.4193 784.854,-151.9699 795.2884,-155.281 806.6876,-158.7653 817.0472,-161.8812"/>
<polygon fill="#9a32cd" stroke="#9a32cd" points="662.7214,-142.664 652.7664,-146.29 662.8098,-149.6634 662.7214,-142.664"/>
<text text-anchor="middle" x="724.8965" y="-148.9699" font-family="Helvetica,sans-Serif" font-size="10.00" fill="#000000"> droppedData</text>
</g>
<!-- Node11 -->
<g id="node11" class="node">
<title>Node11</title>
<g id="a_node11"><a xlink:href="class_l_f_s_t_k__lib.xhtml" target="_top" xlink:title="Library of useful routines for LFSToolKit.">
<polygon fill="none" stroke="#000000" points="579.481,-97.9699 579.481,-117.9699 642.152,-117.9699 642.152,-97.9699 579.481,-97.9699"/>
<text text-anchor="middle" x="610.8165" y="-104.9699" font-family="Helvetica,sans-Serif" font-size="10.00" fill="#000000">LFSTK_lib</text>
</a>
</g>
</g>
<!-- Node11&#45;&gt;Node8 -->
<g id="edge14" class="edge">
<title>Node11&#45;&gt;Node8</title>
<path fill="none" stroke="#9a32cd" stroke-dasharray="5,2" d="M652.6677,-104.7716C685.8095,-104.1651 732.1419,-107.7531 766.854,-127.9699 778.3757,-134.6803 773.9257,-144.3311 784.854,-151.9699 790.6714,-156.0362 797.3312,-159.2905 804.1361,-161.8911"/>
<polygon fill="#9a32cd" stroke="#9a32cd" points="652.2852,-101.2819 642.4023,-105.1001 652.5092,-108.2783 652.2852,-101.2819"/>
<text text-anchor="middle" x="724.8965" y="-130.9699" font-family="Helvetica,sans-Serif" font-size="10.00" fill="#000000"> globalLib</text>
</g>
<!-- Node12 -->
<g id="node12" class="node">
<title>Node12</title>
<g id="a_node12"><a xlink:href="structargs.xhtml" target="_top" xlink:title=" ">
<polygon fill="none" stroke="#000000" points="366.8545,-97.9699 366.8545,-117.9699 402.3015,-117.9699 402.3015,-97.9699 366.8545,-97.9699"/>
<text text-anchor="middle" x="384.578" y="-104.9699" font-family="Helvetica,sans-Serif" font-size="10.00" fill="#000000">args</text>
</a>
</g>
</g>
<!-- Node12&#45;&gt;Node11 -->
<g id="edge15" class="edge">
<title>Node12&#45;&gt;Node11</title>
<path fill="none" stroke="#9a32cd" stroke-dasharray="5,2" d="M412.4724,-107.9699C454.7896,-107.9699 534.9648,-107.9699 579.3218,-107.9699"/>
<polygon fill="#9a32cd" stroke="#9a32cd" points="412.3306,-104.47 402.3306,-107.9699 412.3305,-111.47 412.3306,-104.47"/>
<text text-anchor="middle" x="490.0825" y="-110.9699" font-family="Helvetica,sans-Serif" font-size="10.00" fill="#000000"> lfsToolKitGlobals</text>
</g>
<!-- Node13&#45;&gt;Node3 -->
<g id="edge16" class="edge">
<title>Node13&#45;&gt;Node3</title>
<path fill="none" stroke="#9a32cd" stroke-dasharray="5,2" d="M796.854,-434.0109C762.3866,-434.2688 717.8716,-430.2001 682.939,-411.9699 650.6144,-395.1007 626.3768,-357.2011 616.1525,-339.0427"/>
<polygon fill="#9a32cd" stroke="#9a32cd" points="797.2789,-437.5031 807.2065,-433.8028 797.1382,-430.5046 797.2789,-437.5031"/>
<text text-anchor="middle" x="724.8965" y="-435.9699" font-family="Helvetica,sans-Serif" font-size="10.00" fill="#000000"> ml</text>
</g>
<!-- Node14 -->
<g id="node14" class="node">
<title>Node14</title>
<g id="a_node14"><a xlink:href="structbutton_c_b.xhtml" target="_top" xlink:title=" ">
<polygon fill="none" stroke="#000000" points="355.737,-335.9699 355.737,-355.9699 413.419,-355.9699 413.419,-335.9699 355.737,-335.9699"/>
<text text-anchor="middle" x="384.578" y="-342.9699" font-family="Helvetica,sans-Serif" font-size="10.00" fill="#000000">buttonCB</text>
</a>
</g>
</g>
<!-- Node14&#45;&gt;Node3 -->
<g id="edge18" class="edge">
<title>Node14&#45;&gt;Node3</title>
<path fill="none" stroke="#9a32cd" stroke-dasharray="5,2" d="M423.9696,-343.0099C460.5841,-340.2586 515.458,-336.1353 556.2769,-333.0681"/>
<polygon fill="#9a32cd" stroke="#9a32cd" points="423.4012,-339.5427 413.6916,-343.7822 423.9257,-346.523 423.4012,-339.5427"/>
<text text-anchor="middle" x="490.0825" y="-344.9699" font-family="Helvetica,sans-Serif" font-size="10.00" fill="#000000"> callback</text>
</g>
<!-- Node15&#45;&gt;Node1 -->
<g id="edge21" class="edge">
<title>Node15&#45;&gt;Node1</title>
<path fill="none" stroke="#9a32cd" stroke-dasharray="5,2" d="M1301.9395,-294.8895C1368.1501,-282.5711 1474.1418,-262.8515 1537.9394,-250.9821"/>
<polygon fill="#9a32cd" stroke="#9a32cd" points="1301.2595,-291.4559 1292.0684,-296.726 1302.5399,-298.3378 1301.2595,-291.4559"/>
<text text-anchor="middle" x="1371.117" y="-332.9699" font-family="Helvetica,sans-Serif" font-size="10.00" fill="#000000"> previewSize</text>
<text text-anchor="middle" x="1371.117" y="-320.9699" font-family="Helvetica,sans-Serif" font-size="10.00" fill="#000000">previewFileName</text>
<text text-anchor="middle" x="1371.117" y="-308.9699" font-family="Helvetica,sans-Serif" font-size="10.00" fill="#000000">previewMode</text>
<text text-anchor="middle" x="1371.117" y="-296.9699" font-family="Helvetica,sans-Serif" font-size="10.00" fill="#000000">previewMimeType</text>
</g>
<!-- Node16&#45;&gt;Node1 -->
<g id="edge23" class="edge">
<title>Node16&#45;&gt;Node1</title>
<path fill="none" stroke="#9a32cd" stroke-dasharray="5,2" d="M916.5498,-140.0911C1035.8417,-153.5213 1296.6544,-184.879 1514.364,-224.9699 1524.214,-226.7838 1534.7393,-228.8642 1544.7539,-230.9116"/>
<polygon fill="#9a32cd" stroke="#9a32cd" points="916.8121,-136.5987 906.4844,-138.9628 916.0322,-143.5551 916.8121,-136.5987"/>
<text text-anchor="middle" x="1242.383" y="-191.9699" font-family="Helvetica,sans-Serif" font-size="10.00" fill="#000000"> dirEdit</text>
</g>
<!-- Node17 -->
<g id="node17" class="node">
<title>Node17</title>
<g id="a_node17"><a xlink:href="class_l_f_s_t_k__find_class.xhtml" target="_top" xlink:title="Find files etc.">
<polygon fill="none" stroke="#000000" points="1324.2235,-106.9699 1324.2235,-126.9699 1418.0105,-126.9699 1418.0105,-106.9699 1324.2235,-106.9699"/>
<text text-anchor="middle" x="1371.117" y="-113.9699" font-family="Helvetica,sans-Serif" font-size="10.00" fill="#000000">LFSTK_findClass</text>
</a>
</g>
</g>
<!-- Node17&#45;&gt;Node1 -->
<g id="edge26" class="edge">
<title>Node17&#45;&gt;Node1</title>
<path fill="none" stroke="#9a32cd" stroke-dasharray="5,2" d="M1428.6405,-111.3287C1456.2516,-111.2266 1488.8028,-115.1225 1514.364,-129.9699 1554.992,-153.5689 1579.3742,-208.0435 1588.0972,-230.7469"/>
<polygon fill="#9a32cd" stroke="#9a32cd" points="1428.2479,-107.8362 1418.325,-111.5491 1428.3975,-114.8346 1428.2479,-107.8362"/>
<text text-anchor="middle" x="1482.411" y="-132.9699" font-family="Helvetica,sans-Serif" font-size="10.00" fill="#000000"> fc</text>
</g>
<!-- Node18&#45;&gt;Node1 -->
<g id="edge27" class="edge">
<title>Node18&#45;&gt;Node1</title>
<path fill="none" stroke="#9a32cd" stroke-dasharray="5,2" d="M914.2234,-383.9008C1044.2439,-383.1003 1337.953,-377.7112 1432.458,-345.9699 1494.9427,-324.9832 1556.5402,-273.1766 1580.8727,-251.1469"/>
<polygon fill="#9a32cd" stroke="#9a32cd" points="914.0082,-380.4018 904.0274,-383.9562 914.0463,-387.4017 914.0082,-380.4018"/>
<text text-anchor="middle" x="1242.383" y="-402.9699" font-family="Helvetica,sans-Serif" font-size="10.00" fill="#000000"> buttonHidden</text>
<text text-anchor="middle" x="1242.383" y="-390.9699" font-family="Helvetica,sans-Serif" font-size="10.00" fill="#000000">buttonCancel</text>
<text text-anchor="middle" x="1242.383" y="-378.9699" font-family="Helvetica,sans-Serif" font-size="10.00" fill="#000000">buttonApply</text>
</g>
<!-- Node18&#45;&gt;Node19 -->
<g id="edge38" class="edge">
<title>Node18&#45;&gt;Node19</title>
<path fill="none" stroke="#9a32cd" stroke-dasharray="5,2" d="M914.3942,-392.3788C951.217,-397.4301 998.5139,-404.1785 1040.436,-410.9699 1139.3578,-426.9953 1254.3877,-448.5242 1319.3867,-460.9588"/>
<polygon fill="#9a32cd" stroke="#9a32cd" points="914.6808,-388.8855 904.2992,-391.0004 913.7338,-395.8212 914.6808,-388.8855"/>
<text text-anchor="middle" x="1116.713" y="-435.9699" font-family="Helvetica,sans-Serif" font-size="10.00" fill="#000000"> labels</text>
</g>
<!-- Node18&#45;&gt;Node20 -->
<g id="edge33" class="edge">
<title>Node18&#45;&gt;Node20</title>
<path fill="none" stroke="#9a32cd" stroke-dasharray="5,2" d="M891.4404,-397.504C930.4672,-411.234 990.8801,-434.1035 1040.436,-459.9699 1063.4566,-471.9858 1088.2861,-489.1263 1103.1593,-499.8943"/>
<polygon fill="#9a32cd" stroke="#9a32cd" points="892.108,-394.0304 881.5132,-394.0465 889.8056,-400.6409 892.108,-394.0304"/>
<text text-anchor="middle" x="987.988" y="-486.9699" font-family="Helvetica,sans-Serif" font-size="10.00" fill="#000000"> upLeft</text>
<text text-anchor="middle" x="987.988" y="-474.9699" font-family="Helvetica,sans-Serif" font-size="10.00" fill="#000000">downRight</text>
<text text-anchor="middle" x="987.988" y="-462.9699" font-family="Helvetica,sans-Serif" font-size="10.00" fill="#000000">thumb</text>
</g>
<!-- Node19&#45;&gt;Node1 -->
<g id="edge29" class="edge">
<title>Node19&#45;&gt;Node1</title>
<path fill="none" stroke="#9a32cd" stroke-dasharray="5,2" d="M1401.9343,-456.263C1433.195,-440.1753 1481.5266,-411.9573 1514.364,-376.9699 1551.9182,-336.9568 1578.392,-275.4131 1587.8897,-251.2297"/>
<polygon fill="#9a32cd" stroke="#9a32cd" points="1400.17,-453.2328 1392.8168,-460.8604 1403.3217,-459.4832 1400.17,-453.2328"/>
<text text-anchor="middle" x="1482.411" y="-428.9699" font-family="Helvetica,sans-Serif" font-size="10.00" fill="#000000"> fileListGadget</text>
</g>
<!-- Node23 -->
<g id="node23" class="node">
<title>Node23</title>
<g id="a_node23"><a xlink:href="structlist_data.xhtml" target="_top" xlink:title=" ">
<polygon fill="none" stroke="#000000" points="1567.088,-459.9699 1567.088,-479.9699 1616.421,-479.9699 1616.421,-459.9699 1567.088,-459.9699"/>
<text text-anchor="middle" x="1591.7545" y="-466.9699" font-family="Helvetica,sans-Serif" font-size="10.00" fill="#000000">listData</text>
</a>
</g>
</g>
<!-- Node19&#45;&gt;Node23 -->
<g id="edge37" class="edge">
<title>Node19&#45;&gt;Node23</title>
<path fill="none" stroke="#9a32cd" stroke-dasharray="5,2" d="M1442.6595,-470.6456C1485.3595,-470.4521 1536.9399,-470.2183 1566.8801,-470.0826"/>
<polygon fill="#9a32cd" stroke="#9a32cd" points="1442.5608,-467.146 1432.5768,-470.6913 1442.5926,-474.1459 1442.5608,-467.146"/>
<text text-anchor="middle" x="1482.411" y="-472.9699" font-family="Helvetica,sans-Serif" font-size="10.00" fill="#000000"> mainObject</text>
</g>
<!-- Node20&#45;&gt;Node19 -->
<g id="edge31" class="edge">
<title>Node20&#45;&gt;Node19</title>
<path fill="none" stroke="#9a32cd" stroke-dasharray="5,2" d="M1185.3832,-500.6943C1217.7044,-496.1927 1256.7592,-490.5581 1291.776,-484.9699 1299.511,-483.7355 1307.6585,-482.3712 1315.668,-480.993"/>
<polygon fill="#9a32cd" stroke="#9a32cd" points="1184.5642,-497.2743 1175.1396,-502.1146 1185.5256,-504.208 1184.5642,-497.2743"/>
<text text-anchor="middle" x="1242.383" y="-501.9699" font-family="Helvetica,sans-Serif" font-size="10.00" fill="#000000"> scrollBar</text>
</g>
<!-- Node21 -->
<g id="node21" class="node">
<title>Node21</title>
<g id="a_node21"><a xlink:href="structlist_label_struct.xhtml" target="_top" xlink:title=" ">
<polygon fill="none" stroke="#000000" points="1077.3195,-538.9699 1077.3195,-558.9699 1156.1065,-558.9699 1156.1065,-538.9699 1077.3195,-538.9699"/>
<text text-anchor="middle" x="1116.713" y="-545.9699" font-family="Helvetica,sans-Serif" font-size="10.00" fill="#000000">listLabelStruct</text>
</a>
</g>
</g>
<!-- Node21&#45;&gt;Node19 -->
<g id="edge34" class="edge">
<title>Node21&#45;&gt;Node19</title>
<path fill="none" stroke="#9a32cd" stroke-dasharray="5,2" d="M1166.4108,-543.5506C1202.0778,-538.6517 1250.8651,-529.8612 1291.776,-514.9699 1315.6054,-506.2962 1340.843,-491.1294 1356.2926,-481.0672"/>
<polygon fill="#9a32cd" stroke="#9a32cd" points="1165.7089,-540.1127 1156.2522,-544.8897 1166.6238,-547.0527 1165.7089,-540.1127"/>
<text text-anchor="middle" x="1242.383" y="-541.9699" font-family="Helvetica,sans-Serif" font-size="10.00" fill="#000000"> labelData</text>
</g>
<!-- Node22 -->
<g id="node22" class="node">
<title>Node22</title>
<g id="a_node22"><a xlink:href="unionlist_label_struct_1_1image_data.xhtml" target="_top" xlink:title=" ">
<polygon fill="none" stroke="#000000" points="784.854,-538.9699 784.854,-558.9699 917.54,-558.9699 917.54,-538.9699 784.854,-538.9699"/>
<text text-anchor="middle" x="851.197" y="-545.9699" font-family="Helvetica,sans-Serif" font-size="10.00" fill="#000000">listLabelStruct::imageData</text>
</a>
</g>
</g>
<!-- Node22&#45;&gt;Node21 -->
<g id="edge35" class="edge">
<title>Node22&#45;&gt;Node21</title>
<path fill="none" stroke="#9a32cd" stroke-dasharray="5,2" d="M928.0743,-548.9699C976.899,-548.9699 1038.0587,-548.9699 1077.2621,-548.9699"/>
<polygon fill="#9a32cd" stroke="#9a32cd" points="927.8552,-545.47 917.8552,-548.9699 927.8551,-552.47 927.8552,-545.47"/>
<text text-anchor="middle" x="987.988" y="-551.9699" font-family="Helvetica,sans-Serif" font-size="10.00" fill="#000000"> data</text>
</g>
<!-- Node23&#45;&gt;Node19 -->
<g id="edge36" class="edge">
<title>Node23&#45;&gt;Node19</title>
<path fill="none" stroke="#9a32cd" stroke-dasharray="5,2" d="M1556.7687,-461.161C1543.5709,-458.2554 1528.3647,-455.402 1514.364,-453.9699 1486.1088,-451.0797 1478.7026,-450.9779 1450.458,-453.9699 1437.1497,-455.3796 1422.7926,-458.0842 1409.9977,-460.9284"/>
<polygon fill="#9a32cd" stroke="#9a32cd" points="1556.3316,-464.6516 1566.861,-463.4764 1557.8969,-457.8289 1556.3316,-464.6516"/>
<text text-anchor="middle" x="1482.411" y="-456.9699" font-family="Helvetica,sans-Serif" font-size="10.00" fill="#000000"> data</text>
</g>
</g>
</svg>
