<?xml version="1.0" encoding="UTF-8" standalone="no"?>
<!DOCTYPE svg PUBLIC "-//W3C//DTD SVG 1.1//EN"
 "http://www.w3.org/Graphics/SVG/1.1/DTD/svg11.dtd">
<!-- Generated by graphviz version 2.40.1 (20161225.0304)
 -->
<!-- Title: LFSTK_multiLineEditClass::LFSTK_clearWindow Pages: 1 -->
<!--zoomable 403 -->
<svg id="main" version="1.1" xmlns="http://www.w3.org/2000/svg" xmlns:xlink="http://www.w3.org/1999/xlink" xml:space="preserve" onload="init(evt)">
<style type="text/css"><![CDATA[
.edge:hover path { stroke: red; }
.edge:hover polygon { stroke: red; fill: red; }
]]></style>
<script type="text/javascript"><![CDATA[
var edges = document.getElementsByTagName('g');
if (edges && edges.length) {
  for (var i=0;i<edges.length;i++) {
    if (edges[i].id.substr(0,4)=='edge') {
      edges[i].setAttribute('class','edge');
    }
  }
}
]]></script>
        <defs>
                <circle id="rim" cx="0" cy="0" r="7"/>
                <circle id="rim2" cx="0" cy="0" r="3.5"/>
                <g id="zoomPlus">
                        <use xlink:href="#rim" fill="#404040">
                                <set attributeName="fill" to="#808080" begin="zoomplus.mouseover" end="zoomplus.mouseout"/>
                        </use>
                        <path d="M-4,0h8M0,-4v8" fill="none" stroke="white" stroke-width="1.5" pointer-events="none"/>
                </g>
                <g id="zoomMin">
                        <use xlink:href="#rim" fill="#404040">
                                <set attributeName="fill" to="#808080" begin="zoomminus.mouseover" end="zoomminus.mouseout"/>
                        </use>
                        <path d="M-4,0h8" fill="none" stroke="white" stroke-width="1.5" pointer-events="none"/>
                </g>
                <g id="dirArrow">
                        <path fill="none" stroke="white" stroke-width="1.5" d="M0,-3.0v7 M-2.5,-0.5L0,-3.0L2.5,-0.5"/>
                </g>
               <g id="resetDef">
                       <use xlink:href="#rim2" fill="#404040">
                               <set attributeName="fill" to="#808080" begin="reset.mouseover" end="reset.mouseout"/>
                       </use>
               </g>
        </defs>

<script type="text/javascript">
var viewWidth = 832;
var viewHeight = 403;
var sectionId = 'dynsection-1';
</script>
<script xlink:href="svgpan.js"/>
<svg id="graph" class="graph">
<g id="viewport">
<title>LFSTK_multiLineEditClass::LFSTK_clearWindow</title>
<!-- Node1 -->
<g id="node1" class="node">
<title>Node1</title>
<g id="a_node1"><a xlink:title=" ">
<polygon fill="#bfbfbf" stroke="#000000" points="689.15,-191.1413 689.15,-223.1413 824.048,-223.1413 824.048,-191.1413 689.15,-191.1413"/>
<text text-anchor="start" x="697.15" y="-210.1413" font-family="Helvetica,sans-Serif" font-size="10.00" fill="#000000">LFSTK_multiLineEditClass</text>
<text text-anchor="middle" x="756.599" y="-198.1413" font-family="Helvetica,sans-Serif" font-size="10.00" fill="#000000">::LFSTK_clearWindow</text>
</a>
</g>
</g>
<!-- Node2 -->
<g id="node2" class="node">
<title>Node2</title>
<g id="a_node2"><a xlink:href="class_l_f_s_t_k__multi_line_edit_class_ac4155f83eae3374ea97007bd36b7985a.xhtml#ac4155f83eae3374ea97007bd36b7985a" target="_top" xlink:title=" ">
<polygon fill="none" stroke="#000000" points="170.898,-25.1413 170.898,-57.1413 305.796,-57.1413 305.796,-25.1413 170.898,-25.1413"/>
<text text-anchor="start" x="178.898" y="-44.1413" font-family="Helvetica,sans-Serif" font-size="10.00" fill="#000000">LFSTK_multiLineEditClass</text>
<text text-anchor="middle" x="238.347" y="-32.1413" font-family="Helvetica,sans-Serif" font-size="10.00" fill="#000000">::getClip</text>
</a>
</g>
</g>
<!-- Node1&#45;&gt;Node2 -->
<g id="edge1" class="edge">
<title>Node1&#45;&gt;Node2</title>
<path fill="none" stroke="#191970" d="M745.5973,-181.4037C729.985,-148.0247 698.2061,-90.3892 653.15,-59.1413 538.3109,20.5035 480.4927,2.0212 341.796,-15.1413 325.2555,-17.1881 307.5592,-21.0092 291.564,-25.1041"/>
<polygon fill="#191970" stroke="#191970" points="742.6,-183.2686 749.9202,-190.9279 748.9742,-180.3754 742.6,-183.2686"/>
</g>
<!-- Node3 -->
<g id="node3" class="node">
<title>Node3</title>
<g id="a_node3"><a xlink:href="class_l_f_s_t_k__multi_line_edit_class_afabfc40cf51898aa669d7aaf16660899.xhtml#afabfc40cf51898aa669d7aaf16660899" target="_top" xlink:title=" ">
<polygon fill="none" stroke="#000000" points="0,-217.1413 0,-249.1413 134.898,-249.1413 134.898,-217.1413 0,-217.1413"/>
<text text-anchor="start" x="8" y="-236.1413" font-family="Helvetica,sans-Serif" font-size="10.00" fill="#000000">LFSTK_multiLineEditClass</text>
<text text-anchor="middle" x="67.449" y="-224.1413" font-family="Helvetica,sans-Serif" font-size="10.00" fill="#000000">::keyRelease</text>
</a>
</g>
</g>
<!-- Node1&#45;&gt;Node3 -->
<g id="edge4" class="edge">
<title>Node1&#45;&gt;Node3</title>
<path fill="none" stroke="#191970" d="M746.1874,-233.0389C731.227,-266.2937 700.1665,-322.5243 653.15,-346.1413 460.7138,-442.8046 371.6096,-377.182 170.898,-299.1413 139.526,-286.9433 107.473,-264.6614 87.5298,-249.3895"/>
<polygon fill="#191970" stroke="#191970" points="749.5486,-234.0849 750.3133,-223.5176 743.1257,-231.3016 749.5486,-234.0849"/>
</g>
<!-- Node4 -->
<g id="node4" class="node">
<title>Node4</title>
<g id="a_node4"><a xlink:href="class_l_f_s_t_k__multi_line_edit_class_a98abb42ca4d8eb5cf5ea213f77ffd823.xhtml#a98abb42ca4d8eb5cf5ea213f77ffd823" target="_top" xlink:title=" ">
<polygon fill="none" stroke="#000000" points="344.575,-268.1413 344.575,-300.1413 479.473,-300.1413 479.473,-268.1413 344.575,-268.1413"/>
<text text-anchor="start" x="352.575" y="-287.1413" font-family="Helvetica,sans-Serif" font-size="10.00" fill="#000000">LFSTK_multiLineEditClass</text>
<text text-anchor="middle" x="412.024" y="-275.1413" font-family="Helvetica,sans-Serif" font-size="10.00" fill="#000000">::gotFocus</text>
</a>
</g>
</g>
<!-- Node1&#45;&gt;Node4 -->
<g id="edge3" class="edge">
<title>Node1&#45;&gt;Node4</title>
<path fill="none" stroke="#191970" d="M687.4341,-225.7125C676.0055,-228.6317 664.2629,-231.5407 653.15,-234.1413 594.7667,-247.8041 527.9823,-261.5036 479.5251,-271.0988"/>
<polygon fill="#191970" stroke="#191970" points="688.5623,-229.0362 697.3729,-223.152 686.8159,-222.2575 688.5623,-229.0362"/>
</g>
<!-- Node5 -->
<g id="node5" class="node">
<title>Node5</title>
<g id="a_node5"><a xlink:href="class_l_f_s_t_k__multi_line_edit_class_ab126e1f84f4135bb9a12ed6ebb3bd23a.xhtml#ab126e1f84f4135bb9a12ed6ebb3bd23a" target="_top" xlink:title=" ">
<polygon fill="none" stroke="#000000" points="518.252,-304.1413 518.252,-336.1413 653.15,-336.1413 653.15,-304.1413 518.252,-304.1413"/>
<text text-anchor="start" x="526.252" y="-323.1413" font-family="Helvetica,sans-Serif" font-size="10.00" fill="#000000">LFSTK_multiLineEditClass</text>
<text text-anchor="middle" x="585.701" y="-311.1413" font-family="Helvetica,sans-Serif" font-size="10.00" fill="#000000">::LFSTK_setBuffer</text>
</a>
</g>
</g>
<!-- Node1&#45;&gt;Node5 -->
<g id="edge5" class="edge">
<title>Node1&#45;&gt;Node5</title>
<path fill="none" stroke="#191970" d="M729.1883,-229.8086C708.8431,-246.1298 680.0769,-268.171 653.15,-285.1413 642.4355,-291.894 630.2719,-298.504 619.2527,-304.1288"/>
<polygon fill="#191970" stroke="#191970" points="731.5172,-232.4265 737.0912,-223.4165 727.115,-226.984 731.5172,-232.4265"/>
</g>
<!-- Node6 -->
<g id="node6" class="node">
<title>Node6</title>
<g id="a_node6"><a xlink:href="class_l_f_s_t_k__multi_line_edit_class_a7e92ac74c2a5d709dc5911d291b6ed90.xhtml#a7e92ac74c2a5d709dc5911d291b6ed90" target="_top" xlink:title=" ">
<polygon fill="none" stroke="#000000" points="344.575,-217.1413 344.575,-249.1413 479.473,-249.1413 479.473,-217.1413 344.575,-217.1413"/>
<text text-anchor="start" x="352.575" y="-236.1413" font-family="Helvetica,sans-Serif" font-size="10.00" fill="#000000">LFSTK_multiLineEditClass</text>
<text text-anchor="middle" x="412.024" y="-224.1413" font-family="Helvetica,sans-Serif" font-size="10.00" fill="#000000">::LFSTK_setFocus</text>
</a>
</g>
</g>
<!-- Node1&#45;&gt;Node6 -->
<g id="edge7" class="edge">
<title>Node1&#45;&gt;Node6</title>
<path fill="none" stroke="#191970" d="M678.7572,-213.0149C618.7939,-217.5394 536.7407,-223.7308 479.535,-228.0472"/>
<polygon fill="#191970" stroke="#191970" points="679.2249,-216.4896 688.9332,-212.2471 678.6982,-209.5095 679.2249,-216.4896"/>
</g>
<!-- Node7 -->
<g id="node7" class="node">
<title>Node7</title>
<g id="a_node7"><a xlink:href="class_l_f_s_t_k__multi_line_edit_class_ae50305eb44baa381e0c7ce5c2e86a22e.xhtml#ae50305eb44baa381e0c7ce5c2e86a22e" target="_top" xlink:title=" ">
<polygon fill="none" stroke="#000000" points="344.575,-76.1413 344.575,-108.1413 479.473,-108.1413 479.473,-76.1413 344.575,-76.1413"/>
<text text-anchor="start" x="352.575" y="-95.1413" font-family="Helvetica,sans-Serif" font-size="10.00" fill="#000000">LFSTK_multiLineEditClass</text>
<text text-anchor="middle" x="412.024" y="-83.1413" font-family="Helvetica,sans-Serif" font-size="10.00" fill="#000000">::LFSTK_setFormatedText</text>
</a>
</g>
</g>
<!-- Node1&#45;&gt;Node7 -->
<g id="edge8" class="edge">
<title>Node1&#45;&gt;Node7</title>
<path fill="none" stroke="#191970" d="M717.9237,-186.3181C698.8016,-176.5767 675.1564,-165.3435 653.15,-157.1413 595.8668,-135.791 528.5367,-118.241 479.6043,-106.7818"/>
<polygon fill="#191970" stroke="#191970" points="716.429,-189.4853 726.9206,-190.9607 719.639,-183.2647 716.429,-189.4853"/>
</g>
<!-- Node9 -->
<g id="node9" class="node">
<title>Node9</title>
<g id="a_node9"><a xlink:href="class_l_f_s_t_k__multi_line_edit_class_a051e7185aee5e4994ffca22270335b96.xhtml#a051e7185aee5e4994ffca22270335b96" target="_top" xlink:title=" ">
<polygon fill="none" stroke="#000000" points="344.575,-25.1413 344.575,-57.1413 479.473,-57.1413 479.473,-25.1413 344.575,-25.1413"/>
<text text-anchor="start" x="352.575" y="-44.1413" font-family="Helvetica,sans-Serif" font-size="10.00" fill="#000000">LFSTK_multiLineEditClass</text>
<text text-anchor="middle" x="412.024" y="-32.1413" font-family="Helvetica,sans-Serif" font-size="10.00" fill="#000000">::lostFocus</text>
</a>
</g>
</g>
<!-- Node1&#45;&gt;Node9 -->
<g id="edge11" class="edge">
<title>Node1&#45;&gt;Node9</title>
<path fill="none" stroke="#191970" d="M736.3594,-183.4979C716.9903,-162.2595 685.9429,-131.6515 653.15,-113.1413 598.7442,-82.4316 529.8821,-63.5644 479.6901,-52.8917"/>
<polygon fill="#191970" stroke="#191970" points="733.9145,-186.0144 743.1902,-191.1342 739.1318,-181.3475 733.9145,-186.0144"/>
</g>
<!-- Node10 -->
<g id="node10" class="node">
<title>Node10</title>
<g id="a_node10"><a xlink:href="class_l_f_s_t_k__multi_line_edit_class_ae1de86c1df295bbe1bcb63b2f98fbb4d.xhtml#ae1de86c1df295bbe1bcb63b2f98fbb4d" target="_top" xlink:title=" ">
<polygon fill="none" stroke="#000000" points="518.252,-166.1413 518.252,-198.1413 653.15,-198.1413 653.15,-166.1413 518.252,-166.1413"/>
<text text-anchor="start" x="526.252" y="-185.1413" font-family="Helvetica,sans-Serif" font-size="10.00" fill="#000000">LFSTK_multiLineEditClass</text>
<text text-anchor="middle" x="585.701" y="-173.1413" font-family="Helvetica,sans-Serif" font-size="10.00" fill="#000000">::setDisplayLines</text>
</a>
</g>
</g>
<!-- Node1&#45;&gt;Node10 -->
<g id="edge12" class="edge">
<title>Node1&#45;&gt;Node10</title>
<path fill="none" stroke="#191970" d="M679.0455,-195.7963C670.4584,-194.5401 661.7641,-193.2683 653.3134,-192.0321"/>
<polygon fill="#191970" stroke="#191970" points="678.6543,-199.2763 689.0556,-197.2607 679.6675,-192.35 678.6543,-199.2763"/>
</g>
<!-- Node2&#45;&gt;Node3 -->
<g id="edge2" class="edge">
<title>Node2&#45;&gt;Node3</title>
<path fill="none" stroke="#191970" d="M175.7728,-62.4981C174.0868,-63.6529 172.4568,-64.8664 170.898,-66.1413 119.1555,-108.4626 86.0038,-183.8717 73.3062,-216.895"/>
<polygon fill="#191970" stroke="#191970" points="177.8263,-65.3477 184.6004,-57.2014 174.2247,-59.3453 177.8263,-65.3477"/>
</g>
<!-- Node5&#45;&gt;Node3 -->
<g id="edge6" class="edge">
<title>Node5&#45;&gt;Node3</title>
<path fill="none" stroke="#191970" d="M507.9539,-321.5417C459.82,-321.2765 396.8951,-318.8807 341.796,-310.1413 259.2237,-297.0444 166.1105,-267.6824 112.3592,-249.2381"/>
<polygon fill="#191970" stroke="#191970" points="507.9836,-325.0417 517.9926,-321.5675 508.0016,-318.0417 507.9836,-325.0417"/>
</g>
<!-- Node7&#45;&gt;Node2 -->
<g id="edge9" class="edge">
<title>Node7&#45;&gt;Node2</title>
<path fill="none" stroke="#191970" d="M347.2952,-73.1338C329.4118,-67.8824 310.1881,-62.2374 292.942,-57.1731"/>
<polygon fill="#191970" stroke="#191970" points="346.4905,-76.5452 357.0715,-76.0046 348.4628,-69.8288 346.4905,-76.5452"/>
</g>
<!-- Node8 -->
<g id="node8" class="node">
<title>Node8</title>
<g id="a_node8"><a xlink:href="class_l_f_s_t_k__multi_line_edit_class_a67d883fd9590a202e35805e040604226.xhtml#a67d883fd9590a202e35805e040604226" target="_top" xlink:title=" ">
<polygon fill="none" stroke="#000000" points="170.898,-76.1413 170.898,-108.1413 305.796,-108.1413 305.796,-76.1413 170.898,-76.1413"/>
<text text-anchor="start" x="178.898" y="-95.1413" font-family="Helvetica,sans-Serif" font-size="10.00" fill="#000000">LFSTK_multiLineEditClass</text>
<text text-anchor="middle" x="238.347" y="-83.1413" font-family="Helvetica,sans-Serif" font-size="10.00" fill="#000000">::LFSTK_dropData</text>
</a>
</g>
</g>
<!-- Node7&#45;&gt;Node8 -->
<g id="edge10" class="edge">
<title>Node7&#45;&gt;Node8</title>
<path fill="none" stroke="#191970" d="M334.1843,-92.1413C324.7175,-92.1413 315.1064,-92.1413 305.8078,-92.1413"/>
<polygon fill="#191970" stroke="#191970" points="334.3787,-95.6414 344.3786,-92.1413 334.3786,-88.6414 334.3787,-95.6414"/>
</g>
<!-- Node10&#45;&gt;Node3 -->
<g id="edge14" class="edge">
<title>Node10&#45;&gt;Node3</title>
<path fill="none" stroke="#191970" d="M520.1596,-163.8341C507.6684,-161.0493 494.6299,-158.6157 482.252,-157.1413 420.2653,-149.7576 403.6519,-148.732 341.796,-157.1413 258.5419,-168.4598 164.8784,-198.2603 111.3438,-217.0052"/>
<polygon fill="#191970" stroke="#191970" points="519.504,-167.2749 530.0369,-166.1311 521.0896,-160.4569 519.504,-167.2749"/>
</g>
<!-- Node10&#45;&gt;Node4 -->
<g id="edge13" class="edge">
<title>Node10&#45;&gt;Node4</title>
<path fill="none" stroke="#191970" d="M559.641,-204.9904C539.563,-221.7087 510.5386,-244.0199 482.252,-259.1413 476.2029,-262.375 469.6484,-265.3413 463.0571,-268.0124"/>
<polygon fill="#191970" stroke="#191970" points="562.0243,-207.5589 567.4051,-198.4321 557.5072,-202.2113 562.0243,-207.5589"/>
</g>
<!-- Node10&#45;&gt;Node6 -->
<g id="edge16" class="edge">
<title>Node10&#45;&gt;Node6</title>
<path fill="none" stroke="#191970" d="M520.9722,-201.1488C503.0888,-206.4003 483.8651,-212.0453 466.619,-217.1096"/>
<polygon fill="#191970" stroke="#191970" points="522.1398,-204.4538 530.7485,-198.278 520.1675,-197.7374 522.1398,-204.4538"/>
</g>
<!-- Node10&#45;&gt;Node7 -->
<g id="edge17" class="edge">
<title>Node10&#45;&gt;Node7</title>
<path fill="none" stroke="#191970" d="M550.6382,-160.9518C530.8334,-149.2866 505.466,-134.846 482.252,-123.1413 472.0178,-117.9812 460.7341,-112.7895 450.2612,-108.1699"/>
<polygon fill="#191970" stroke="#191970" points="548.9314,-164.0087 559.3186,-166.0963 552.5004,-157.9868 548.9314,-164.0087"/>
</g>
<!-- Node10&#45;&gt;Node9 -->
<g id="edge18" class="edge">
<title>Node10&#45;&gt;Node9</title>
<path fill="none" stroke="#191970" d="M569.3471,-157.3932C550.9795,-131.3548 518.901,-90.8001 482.252,-66.1413 477.3127,-62.818 471.881,-59.8818 466.2933,-57.3009"/>
<polygon fill="#191970" stroke="#191970" points="566.6935,-159.7098 575.2571,-165.948 572.4528,-155.731 566.6935,-159.7098"/>
</g>
<!-- Node11 -->
<g id="node11" class="node">
<title>Node11</title>
<g id="a_node11"><a xlink:href="class_l_f_s_t_k__multi_line_edit_class_a3319d21c84b3437e69bb87dc77531322.xhtml#a3319d21c84b3437e69bb87dc77531322" target="_top" xlink:title=" ">
<polygon fill="none" stroke="#000000" points="341.796,-166.1413 341.796,-198.1413 482.252,-198.1413 482.252,-166.1413 341.796,-166.1413"/>
<text text-anchor="start" x="349.796" y="-185.1413" font-family="Helvetica,sans-Serif" font-size="10.00" fill="#000000">LFSTK_multiLineEditClass</text>
<text text-anchor="middle" x="412.024" y="-173.1413" font-family="Helvetica,sans-Serif" font-size="10.00" fill="#000000">::LFSTK_multiLineEditClass</text>
</a>
</g>
</g>
<!-- Node10&#45;&gt;Node11 -->
<g id="edge15" class="edge">
<title>Node10&#45;&gt;Node11</title>
<path fill="none" stroke="#191970" d="M507.7954,-182.1413C499.3192,-182.1413 490.7282,-182.1413 482.3502,-182.1413"/>
<polygon fill="#191970" stroke="#191970" points="508.0557,-185.6414 518.0556,-182.1413 508.0556,-178.6414 508.0557,-185.6414"/>
</g>
</g>
</svg>
        <g id="navigator" transform="translate(0 0)" fill="#404254">
                <rect fill="#f2f5e9" fill-opacity="0.5" stroke="#606060" stroke-width=".5" x="0" y="0" width="60" height="60"/>
                <use id="zoomplus" xlink:href="#zoomPlus" x="17" y="9" onmousedown="handleZoom(evt,'in')"/>
                <use id="zoomminus" xlink:href="#zoomMin" x="42" y="9" onmousedown="handleZoom(evt,'out')"/>
                <use id="reset" xlink:href="#resetDef" x="30" y="36" onmousedown="handleReset()"/>
                <g id="arrowUp" xlink:href="#dirArrow" transform="translate(30 24)" onmousedown="handlePan(0,-1)">
                  <use xlink:href="#rim" fill="#404040">
                        <set attributeName="fill" to="#808080" begin="arrowUp.mouseover" end="arrowUp.mouseout"/>
                  </use>
                  <path fill="none" stroke="white" stroke-width="1.5" d="M0,-3.0v7 M-2.5,-0.5L0,-3.0L2.5,-0.5"/>
                </g>
                <g id="arrowRight" xlink:href="#dirArrow" transform="rotate(90) translate(36 -43)" onmousedown="handlePan(1,0)">
                  <use xlink:href="#rim" fill="#404040">
                        <set attributeName="fill" to="#808080" begin="arrowRight.mouseover" end="arrowRight.mouseout"/>
                  </use>
                  <path fill="none" stroke="white" stroke-width="1.5" d="M0,-3.0v7 M-2.5,-0.5L0,-3.0L2.5,-0.5"/>
                </g>
                <g id="arrowDown" xlink:href="#dirArrow" transform="rotate(180) translate(-30 -48)" onmousedown="handlePan(0,1)">
                  <use xlink:href="#rim" fill="#404040">
                        <set attributeName="fill" to="#808080" begin="arrowDown.mouseover" end="arrowDown.mouseout"/>
                  </use>
                  <path fill="none" stroke="white" stroke-width="1.5" d="M0,-3.0v7 M-2.5,-0.5L0,-3.0L2.5,-0.5"/>
                </g>
                <g id="arrowLeft" xlink:href="#dirArrow" transform="rotate(270) translate(-36 17)" onmousedown="handlePan(-1,0)">
                  <use xlink:href="#rim" fill="#404040">
                        <set attributeName="fill" to="#808080" begin="arrowLeft.mouseover" end="arrowLeft.mouseout"/>
                  </use>
                  <path fill="none" stroke="white" stroke-width="1.5" d="M0,-3.0v7 M-2.5,-0.5L0,-3.0L2.5,-0.5"/>
                </g>
        </g>
        <svg viewBox="0 0 15 15" width="100%" height="30px" preserveAspectRatio="xMaxYMin meet">
         <g id="arrow_out" transform="scale(0.3 0.3)">
          <a xlink:href="class_l_f_s_t_k__multi_line_edit_class_aada0749d2c064f7a8f2af14ab82f08a5_aada0749d2c064f7a8f2af14ab82f08a5_icgraph_org.svg" target="_base">
           <rect id="button" ry="5" rx="5" y="6" x="6" height="38" width="38"
                fill="#f2f5e9" fill-opacity="0.5" stroke="#606060" stroke-width="1.0"/>
           <path id="arrow"
             d="M 11.500037,31.436501 C 11.940474,20.09759 22.043105,11.32322 32.158766,21.979434 L 37.068811,17.246167 C 37.068811,17.246167 37.088388,32 37.088388,32 L 22.160133,31.978069 C 22.160133,31.978069 26.997745,27.140456 26.997745,27.140456 C 18.528582,18.264221 13.291696,25.230495 11.500037,31.436501 z"
             style="fill:#404040;"/>
          </a>
         </g>
        </svg>
</svg>
