<?xml version="1.0" encoding="UTF-8" standalone="no"?>
<!DOCTYPE svg PUBLIC "-//W3C//DTD SVG 1.1//EN"
 "http://www.w3.org/Graphics/SVG/1.1/DTD/svg11.dtd">
<!-- Generated by graphviz version 2.40.1 (20161225.0304)
 -->
<!-- Title: LFSTK_windowClass::loadGlobalColours Pages: 1 -->
<svg width="318pt" height="245pt"
 viewBox="0.00 0.00 318.24 245.00" xmlns="http://www.w3.org/2000/svg" xmlns:xlink="http://www.w3.org/1999/xlink">
<g id="graph0" class="graph" transform="scale(1 1) rotate(0) translate(4 241)">
<title>LFSTK_windowClass::loadGlobalColours</title>
<!-- Node1 -->
<g id="node1" class="node">
<title>Node1</title>
<g id="a_node1"><a xlink:title=" ">
<polygon fill="#bfbfbf" stroke="#000000" points="0,-102.5 0,-134.5 116.563,-134.5 116.563,-102.5 0,-102.5"/>
<text text-anchor="start" x="8" y="-121.5" font-family="Helvetica,sans-Serif" font-size="10.00" fill="#000000">LFSTK_windowClass::</text>
<text text-anchor="middle" x="58.2815" y="-109.5" font-family="Helvetica,sans-Serif" font-size="10.00" fill="#000000">loadGlobalColours</text>
</a>
</g>
</g>
<!-- Node2 -->
<g id="node2" class="node">
<title>Node2</title>
<g id="a_node2"><a xlink:href="class_l_f_s_t_k__lib_a24d88a5207e8355d10b788238d981fe6.xhtml#a24d88a5207e8355d10b788238d981fe6" target="_top" xlink:title=" ">
<polygon fill="none" stroke="#000000" points="161.718,-204.5 161.718,-236.5 301.084,-236.5 301.084,-204.5 161.718,-204.5"/>
<text text-anchor="start" x="169.718" y="-223.5" font-family="Helvetica,sans-Serif" font-size="10.00" fill="#000000">LFSTK_lib::LFSTK_getAuto</text>
<text text-anchor="middle" x="231.401" y="-211.5" font-family="Helvetica,sans-Serif" font-size="10.00" fill="#000000">LabelColour</text>
</a>
</g>
</g>
<!-- Node1&#45;&gt;Node2 -->
<g id="edge1" class="edge">
<title>Node1&#45;&gt;Node2</title>
<path fill="none" stroke="#191970" d="M74.2484,-134.7957C91.9602,-152.0446 122.08,-179.0066 152.563,-195.5 155.8504,-197.2787 159.2845,-198.9542 162.8013,-200.529"/>
<polygon fill="#191970" stroke="#191970" points="161.6828,-203.8545 172.2601,-204.4645 164.3718,-197.3916 161.6828,-203.8545"/>
</g>
<!-- Node3 -->
<g id="node3" class="node">
<title>Node3</title>
<g id="a_node3"><a xlink:href="class_l_f_s_t_k__lib_a46aa104681d600dd4eb24549e813b5cc.xhtml#a46aa104681d600dd4eb24549e813b5cc" target="_top" xlink:title=" ">
<polygon fill="none" stroke="#000000" points="157.554,-153.5 157.554,-185.5 305.248,-185.5 305.248,-153.5 157.554,-153.5"/>
<text text-anchor="start" x="165.554" y="-172.5" font-family="Helvetica,sans-Serif" font-size="10.00" fill="#000000">LFSTK_lib::LFSTK_getGlobal</text>
<text text-anchor="middle" x="231.401" y="-160.5" font-family="Helvetica,sans-Serif" font-size="10.00" fill="#000000">String</text>
</a>
</g>
</g>
<!-- Node1&#45;&gt;Node3 -->
<g id="edge2" class="edge">
<title>Node1&#45;&gt;Node3</title>
<path fill="none" stroke="#191970" d="M113.0576,-134.6367C130.2754,-139.709 149.4416,-145.3552 167.249,-150.6012"/>
<polygon fill="#191970" stroke="#191970" points="166.3997,-153.9997 176.9812,-153.4683 168.3779,-147.285 166.3997,-153.9997"/>
</g>
<!-- Node4 -->
<g id="node4" class="node">
<title>Node4</title>
<g id="a_node4"><a xlink:href="class_l_f_s_t_k__window_class_a3a14b82ac1628b75173c5cb37d20926b.xhtml#a3a14b82ac1628b75173c5cb37d20926b" target="_top" xlink:title=" ">
<polygon fill="none" stroke="#000000" points="160.337,-102.5 160.337,-134.5 302.465,-134.5 302.465,-102.5 160.337,-102.5"/>
<text text-anchor="start" x="168.337" y="-121.5" font-family="Helvetica,sans-Serif" font-size="10.00" fill="#000000">LFSTK_windowClass::</text>
<text text-anchor="middle" x="231.401" y="-109.5" font-family="Helvetica,sans-Serif" font-size="10.00" fill="#000000">LFSTK_setFontColourName</text>
</a>
</g>
</g>
<!-- Node1&#45;&gt;Node4 -->
<g id="edge3" class="edge">
<title>Node1&#45;&gt;Node4</title>
<path fill="none" stroke="#191970" d="M116.8919,-118.5C127.5563,-118.5 138.8549,-118.5 150.0374,-118.5"/>
<polygon fill="#191970" stroke="#191970" points="150.2529,-122.0001 160.2529,-118.5 150.2528,-115.0001 150.2529,-122.0001"/>
</g>
<!-- Node5 -->
<g id="node5" class="node">
<title>Node5</title>
<g id="a_node5"><a xlink:href="class_l_f_s_t_k__window_class_a9d54e326ce33b8806f19c9353269e6a8.xhtml#a9d54e326ce33b8806f19c9353269e6a8" target="_top" xlink:title=" ">
<polygon fill="none" stroke="#000000" points="173.1195,-51.5 173.1195,-83.5 289.6825,-83.5 289.6825,-51.5 173.1195,-51.5"/>
<text text-anchor="start" x="181.1195" y="-70.5" font-family="Helvetica,sans-Serif" font-size="10.00" fill="#000000">LFSTK_windowClass::</text>
<text text-anchor="middle" x="231.401" y="-58.5" font-family="Helvetica,sans-Serif" font-size="10.00" fill="#000000">LFSTK_setFontString</text>
</a>
</g>
</g>
<!-- Node1&#45;&gt;Node5 -->
<g id="edge4" class="edge">
<title>Node1&#45;&gt;Node5</title>
<path fill="none" stroke="#191970" d="M113.0576,-102.3633C130.2754,-97.291 149.4416,-91.6448 167.249,-86.3988"/>
<polygon fill="#191970" stroke="#191970" points="168.3779,-89.715 176.9812,-83.5317 166.3997,-83.0003 168.3779,-89.715"/>
</g>
<!-- Node6 -->
<g id="node6" class="node">
<title>Node6</title>
<g id="a_node6"><a xlink:href="class_l_f_s_t_k__window_class_a612850c5641e44aea8a2c0b11ad8cd1b.xhtml#a612850c5641e44aea8a2c0b11ad8cd1b" target="_top" xlink:title=" ">
<polygon fill="none" stroke="#000000" points="152.563,-.5 152.563,-32.5 310.239,-32.5 310.239,-.5 152.563,-.5"/>
<text text-anchor="start" x="160.563" y="-19.5" font-family="Helvetica,sans-Serif" font-size="10.00" fill="#000000">LFSTK_windowClass::</text>
<text text-anchor="middle" x="231.401" y="-7.5" font-family="Helvetica,sans-Serif" font-size="10.00" fill="#000000">LFSTK_setWindowColourName</text>
</a>
</g>
</g>
<!-- Node1&#45;&gt;Node6 -->
<g id="edge5" class="edge">
<title>Node1&#45;&gt;Node6</title>
<path fill="none" stroke="#191970" d="M74.3258,-102.4957C92.1036,-85.5391 122.2796,-58.9851 152.563,-42.5 156.5148,-40.3488 160.6751,-38.3357 164.9345,-36.4588"/>
<polygon fill="#191970" stroke="#191970" points="166.4632,-39.6144 174.3744,-32.5672 163.7952,-33.1428 166.4632,-39.6144"/>
</g>
</g>
</svg>
