<?xml version="1.0" encoding="UTF-8" standalone="no"?>
<!DOCTYPE svg PUBLIC "-//W3C//DTD SVG 1.1//EN"
 "http://www.w3.org/Graphics/SVG/1.1/DTD/svg11.dtd">
<!-- Generated by graphviz version 2.40.1 (20161225.0304)
 -->
<!-- Title: LFSTK_multiLineEditClass::setDisplayLines Pages: 1 -->
<svg width="661pt" height="284pt"
 viewBox="0.00 0.00 661.15 284.00" xmlns="http://www.w3.org/2000/svg" xmlns:xlink="http://www.w3.org/1999/xlink">
<g id="graph0" class="graph" transform="scale(1 1) rotate(0) translate(4 280)">
<title>LFSTK_multiLineEditClass::setDisplayLines</title>
<!-- Node1 -->
<g id="node1" class="node">
<title>Node1</title>
<g id="a_node1"><a xlink:title=" ">
<polygon fill="#bfbfbf" stroke="#000000" points="518.252,-127.5 518.252,-159.5 653.15,-159.5 653.15,-127.5 518.252,-127.5"/>
<text text-anchor="start" x="526.252" y="-146.5" font-family="Helvetica,sans-Serif" font-size="10.00" fill="#000000">LFSTK_multiLineEditClass</text>
<text text-anchor="middle" x="585.701" y="-134.5" font-family="Helvetica,sans-Serif" font-size="10.00" fill="#000000">::setDisplayLines</text>
</a>
</g>
</g>
<!-- Node2 -->
<g id="node2" class="node">
<title>Node2</title>
<g id="a_node2"><a xlink:href="class_l_f_s_t_k__multi_line_edit_class_a98abb42ca4d8eb5cf5ea213f77ffd823.xhtml#a98abb42ca4d8eb5cf5ea213f77ffd823" target="_top" xlink:title=" ">
<polygon fill="none" stroke="#000000" points="344.575,-243.5 344.575,-275.5 479.473,-275.5 479.473,-243.5 344.575,-243.5"/>
<text text-anchor="start" x="352.575" y="-262.5" font-family="Helvetica,sans-Serif" font-size="10.00" fill="#000000">LFSTK_multiLineEditClass</text>
<text text-anchor="middle" x="412.024" y="-250.5" font-family="Helvetica,sans-Serif" font-size="10.00" fill="#000000">::gotFocus</text>
</a>
</g>
</g>
<!-- Node1&#45;&gt;Node2 -->
<g id="edge1" class="edge">
<title>Node1&#45;&gt;Node2</title>
<path fill="none" stroke="#191970" d="M561.4109,-166.7045C541.3161,-185.0723 511.4365,-210.5364 482.252,-228.5 473.2857,-234.0189 463.1655,-239.0837 453.4574,-243.4492"/>
<polygon fill="#191970" stroke="#191970" points="563.9101,-169.1605 568.8715,-159.7991 559.1552,-164.0232 563.9101,-169.1605"/>
</g>
<!-- Node3 -->
<g id="node3" class="node">
<title>Node3</title>
<g id="a_node3"><a xlink:href="class_l_f_s_t_k__multi_line_edit_class_afabfc40cf51898aa669d7aaf16660899.xhtml#afabfc40cf51898aa669d7aaf16660899" target="_top" xlink:title=" ">
<polygon fill="none" stroke="#000000" points="0,-163.5 0,-195.5 134.898,-195.5 134.898,-163.5 0,-163.5"/>
<text text-anchor="start" x="8" y="-182.5" font-family="Helvetica,sans-Serif" font-size="10.00" fill="#000000">LFSTK_multiLineEditClass</text>
<text text-anchor="middle" x="67.449" y="-170.5" font-family="Helvetica,sans-Serif" font-size="10.00" fill="#000000">::keyRelease</text>
</a>
</g>
</g>
<!-- Node1&#45;&gt;Node3 -->
<g id="edge2" class="edge">
<title>Node1&#45;&gt;Node3</title>
<path fill="none" stroke="#191970" d="M553.3074,-164.72C533.6386,-176.3153 507.5238,-189.5057 482.252,-195.5 362.518,-223.8999 217.9703,-207.2967 134.9771,-193.0894"/>
<polygon fill="#191970" stroke="#191970" points="555.125,-167.7111 561.8646,-159.5363 551.4981,-161.724 555.125,-167.7111"/>
</g>
<!-- Node4 -->
<g id="node4" class="node">
<title>Node4</title>
<g id="a_node4"><a xlink:href="class_l_f_s_t_k__multi_line_edit_class_a3319d21c84b3437e69bb87dc77531322.xhtml#a3319d21c84b3437e69bb87dc77531322" target="_top" xlink:title=" ">
<polygon fill="none" stroke="#000000" points="341.796,-153.5 341.796,-185.5 482.252,-185.5 482.252,-153.5 341.796,-153.5"/>
<text text-anchor="start" x="349.796" y="-172.5" font-family="Helvetica,sans-Serif" font-size="10.00" fill="#000000">LFSTK_multiLineEditClass</text>
<text text-anchor="middle" x="412.024" y="-160.5" font-family="Helvetica,sans-Serif" font-size="10.00" fill="#000000">::LFSTK_multiLineEditClass</text>
</a>
</g>
</g>
<!-- Node1&#45;&gt;Node4 -->
<g id="edge3" class="edge">
<title>Node1&#45;&gt;Node4</title>
<path fill="none" stroke="#191970" d="M508.0748,-155.1209C499.508,-156.4034 490.8203,-157.7039 482.3502,-158.9719"/>
<polygon fill="#191970" stroke="#191970" points="508.684,-158.5688 518.0556,-153.6267 507.6476,-151.6459 508.684,-158.5688"/>
</g>
<!-- Node5 -->
<g id="node5" class="node">
<title>Node5</title>
<g id="a_node5"><a xlink:href="class_l_f_s_t_k__multi_line_edit_class_a7e92ac74c2a5d709dc5911d291b6ed90.xhtml#a7e92ac74c2a5d709dc5911d291b6ed90" target="_top" xlink:title=" ">
<polygon fill="none" stroke="#000000" points="344.575,-102.5 344.575,-134.5 479.473,-134.5 479.473,-102.5 344.575,-102.5"/>
<text text-anchor="start" x="352.575" y="-121.5" font-family="Helvetica,sans-Serif" font-size="10.00" fill="#000000">LFSTK_multiLineEditClass</text>
<text text-anchor="middle" x="412.024" y="-109.5" font-family="Helvetica,sans-Serif" font-size="10.00" fill="#000000">::LFSTK_setFocus</text>
</a>
</g>
</g>
<!-- Node1&#45;&gt;Node5 -->
<g id="edge4" class="edge">
<title>Node1&#45;&gt;Node5</title>
<path fill="none" stroke="#191970" d="M507.8613,-132.2953C498.3945,-130.9326 488.7834,-129.5492 479.4848,-128.2107"/>
<polygon fill="#191970" stroke="#191970" points="507.6589,-135.8022 518.0556,-133.7628 508.6563,-128.8736 507.6589,-135.8022"/>
</g>
<!-- Node6 -->
<g id="node6" class="node">
<title>Node6</title>
<g id="a_node6"><a xlink:href="class_l_f_s_t_k__multi_line_edit_class_ae50305eb44baa381e0c7ce5c2e86a22e.xhtml#ae50305eb44baa381e0c7ce5c2e86a22e" target="_top" xlink:title=" ">
<polygon fill="none" stroke="#000000" points="344.575,-51.5 344.575,-83.5 479.473,-83.5 479.473,-51.5 344.575,-51.5"/>
<text text-anchor="start" x="352.575" y="-70.5" font-family="Helvetica,sans-Serif" font-size="10.00" fill="#000000">LFSTK_multiLineEditClass</text>
<text text-anchor="middle" x="412.024" y="-58.5" font-family="Helvetica,sans-Serif" font-size="10.00" fill="#000000">::LFSTK_setFormatedText</text>
</a>
</g>
</g>
<!-- Node1&#45;&gt;Node6 -->
<g id="edge5" class="edge">
<title>Node1&#45;&gt;Node6</title>
<path fill="none" stroke="#191970" d="M545.4104,-122.9188C526.4415,-113.5161 503.3882,-102.4961 482.252,-93.5 474.237,-90.0886 465.607,-86.682 457.2329,-83.5113"/>
<polygon fill="#191970" stroke="#191970" points="543.8574,-126.0554 554.368,-127.3888 546.9831,-119.7919 543.8574,-126.0554"/>
</g>
<!-- Node9 -->
<g id="node9" class="node">
<title>Node9</title>
<g id="a_node9"><a xlink:href="class_l_f_s_t_k__multi_line_edit_class_a051e7185aee5e4994ffca22270335b96.xhtml#a051e7185aee5e4994ffca22270335b96" target="_top" xlink:title=" ">
<polygon fill="none" stroke="#000000" points="344.575,-.5 344.575,-32.5 479.473,-32.5 479.473,-.5 344.575,-.5"/>
<text text-anchor="start" x="352.575" y="-19.5" font-family="Helvetica,sans-Serif" font-size="10.00" fill="#000000">LFSTK_multiLineEditClass</text>
<text text-anchor="middle" x="412.024" y="-7.5" font-family="Helvetica,sans-Serif" font-size="10.00" fill="#000000">::lostFocus</text>
</a>
</g>
</g>
<!-- Node1&#45;&gt;Node9 -->
<g id="edge9" class="edge">
<title>Node1&#45;&gt;Node9</title>
<path fill="none" stroke="#191970" d="M566.5391,-119.2541C547.362,-96.411 515.9352,-62.6257 482.252,-41.5 476.9893,-38.1993 471.2312,-35.2575 465.3485,-32.656"/>
<polygon fill="#191970" stroke="#191970" points="563.9704,-121.6406 573.0316,-127.1312 569.3721,-117.1884 563.9704,-121.6406"/>
</g>
<!-- Node7 -->
<g id="node7" class="node">
<title>Node7</title>
<g id="a_node7"><a xlink:href="class_l_f_s_t_k__multi_line_edit_class_ac4155f83eae3374ea97007bd36b7985a.xhtml#ac4155f83eae3374ea97007bd36b7985a" target="_top" xlink:title=" ">
<polygon fill="none" stroke="#000000" points="170.898,-128.5 170.898,-160.5 305.796,-160.5 305.796,-128.5 170.898,-128.5"/>
<text text-anchor="start" x="178.898" y="-147.5" font-family="Helvetica,sans-Serif" font-size="10.00" fill="#000000">LFSTK_multiLineEditClass</text>
<text text-anchor="middle" x="238.347" y="-135.5" font-family="Helvetica,sans-Serif" font-size="10.00" fill="#000000">::getClip</text>
</a>
</g>
</g>
<!-- Node6&#45;&gt;Node7 -->
<g id="edge6" class="edge">
<title>Node6&#45;&gt;Node7</title>
<path fill="none" stroke="#191970" d="M357.0785,-87.2179C351.8845,-89.2689 346.7224,-91.3805 341.796,-93.5 316.7806,-104.2627 289.148,-117.9836 268.739,-128.482"/>
<polygon fill="#191970" stroke="#191970" points="358.356,-90.4765 366.4182,-83.6025 355.829,-83.9485 358.356,-90.4765"/>
</g>
<!-- Node8 -->
<g id="node8" class="node">
<title>Node8</title>
<g id="a_node8"><a xlink:href="class_l_f_s_t_k__multi_line_edit_class_a67d883fd9590a202e35805e040604226.xhtml#a67d883fd9590a202e35805e040604226" target="_top" xlink:title=" ">
<polygon fill="none" stroke="#000000" points="170.898,-51.5 170.898,-83.5 305.796,-83.5 305.796,-51.5 170.898,-51.5"/>
<text text-anchor="start" x="178.898" y="-70.5" font-family="Helvetica,sans-Serif" font-size="10.00" fill="#000000">LFSTK_multiLineEditClass</text>
<text text-anchor="middle" x="238.347" y="-58.5" font-family="Helvetica,sans-Serif" font-size="10.00" fill="#000000">::LFSTK_dropData</text>
</a>
</g>
</g>
<!-- Node6&#45;&gt;Node8 -->
<g id="edge8" class="edge">
<title>Node6&#45;&gt;Node8</title>
<path fill="none" stroke="#191970" d="M334.1843,-67.5C324.7175,-67.5 315.1064,-67.5 305.8078,-67.5"/>
<polygon fill="#191970" stroke="#191970" points="334.3787,-71.0001 344.3786,-67.5 334.3786,-64.0001 334.3787,-71.0001"/>
</g>
<!-- Node7&#45;&gt;Node3 -->
<g id="edge7" class="edge">
<title>Node7&#45;&gt;Node3</title>
<path fill="none" stroke="#191970" d="M160.7935,-160.383C152.2064,-162.1416 143.5121,-163.9222 135.0614,-165.6529"/>
<polygon fill="#191970" stroke="#191970" points="161.7092,-163.7682 170.8036,-158.3329 160.3047,-156.9105 161.7092,-163.7682"/>
</g>
</g>
</svg>
