<?xml version="1.0" encoding="UTF-8" standalone="no"?>
<!DOCTYPE svg PUBLIC "-//W3C//DTD SVG 1.1//EN"
 "http://www.w3.org/Graphics/SVG/1.1/DTD/svg11.dtd">
<!-- Generated by graphviz version 2.40.1 (20161225.0304)
 -->
<!-- Title: LFSTK_windowClass::setWindowGeom Pages: 1 -->
<!--zoomable 551 -->
<svg id="main" version="1.1" xmlns="http://www.w3.org/2000/svg" xmlns:xlink="http://www.w3.org/1999/xlink" xml:space="preserve" onload="init(evt)">
<style type="text/css"><![CDATA[
.edge:hover path { stroke: red; }
.edge:hover polygon { stroke: red; fill: red; }
]]></style>
<script type="text/javascript"><![CDATA[
var edges = document.getElementsByTagName('g');
if (edges && edges.length) {
  for (var i=0;i<edges.length;i++) {
    if (edges[i].id.substr(0,4)=='edge') {
      edges[i].setAttribute('class','edge');
    }
  }
}
]]></script>
        <defs>
                <circle id="rim" cx="0" cy="0" r="7"/>
                <circle id="rim2" cx="0" cy="0" r="3.5"/>
                <g id="zoomPlus">
                        <use xlink:href="#rim" fill="#404040">
                                <set attributeName="fill" to="#808080" begin="zoomplus.mouseover" end="zoomplus.mouseout"/>
                        </use>
                        <path d="M-4,0h8M0,-4v8" fill="none" stroke="white" stroke-width="1.5" pointer-events="none"/>
                </g>
                <g id="zoomMin">
                        <use xlink:href="#rim" fill="#404040">
                                <set attributeName="fill" to="#808080" begin="zoomminus.mouseover" end="zoomminus.mouseout"/>
                        </use>
                        <path d="M-4,0h8" fill="none" stroke="white" stroke-width="1.5" pointer-events="none"/>
                </g>
                <g id="dirArrow">
                        <path fill="none" stroke="white" stroke-width="1.5" d="M0,-3.0v7 M-2.5,-0.5L0,-3.0L2.5,-0.5"/>
                </g>
               <g id="resetDef">
                       <use xlink:href="#rim2" fill="#404040">
                               <set attributeName="fill" to="#808080" begin="reset.mouseover" end="reset.mouseout"/>
                       </use>
               </g>
        </defs>

<script type="text/javascript">
var viewWidth = 854;
var viewHeight = 551;
var sectionId = 'dynsection-0';
</script>
<script xlink:href="svgpan.js"/>
<svg id="graph" class="graph">
<g id="viewport">
<title>LFSTK_windowClass::setWindowGeom</title>
<!-- Node1 -->
<g id="node1" class="node">
<title>Node1</title>
<g id="a_node1"><a xlink:title=" ">
<polygon fill="#bfbfbf" stroke="#000000" points="729.199,-153.5 729.199,-185.5 845.762,-185.5 845.762,-153.5 729.199,-153.5"/>
<text text-anchor="start" x="737.199" y="-172.5" font-family="Helvetica,sans-Serif" font-size="10.00" fill="#000000">LFSTK_windowClass::</text>
<text text-anchor="middle" x="787.4805" y="-160.5" font-family="Helvetica,sans-Serif" font-size="10.00" fill="#000000">setWindowGeom</text>
</a>
</g>
</g>
<!-- Node2 -->
<g id="node2" class="node">
<title>Node2</title>
<g id="a_node2"><a xlink:href="class_l_f_s_t_k__window_class_a933b11647301f675ebdbcba313ed03ab.xhtml#a933b11647301f675ebdbcba313ed03ab" target="_top" xlink:title=" ">
<polygon fill="none" stroke="#000000" points="568.028,-230.5 568.028,-262.5 684.591,-262.5 684.591,-230.5 568.028,-230.5"/>
<text text-anchor="start" x="576.028" y="-249.5" font-family="Helvetica,sans-Serif" font-size="10.00" fill="#000000">LFSTK_windowClass::</text>
<text text-anchor="middle" x="626.3095" y="-237.5" font-family="Helvetica,sans-Serif" font-size="10.00" fill="#000000">LFSTK_moveWindow</text>
</a>
</g>
</g>
<!-- Node1&#45;&gt;Node2 -->
<g id="edge1" class="edge">
<title>Node1&#45;&gt;Node2</title>
<path fill="none" stroke="#191970" d="M750.7472,-190.7567C733.5295,-200.359 712.5801,-211.5341 693.199,-220.5 685.7358,-223.9525 677.6749,-227.353 669.8205,-230.4988"/>
<polygon fill="#191970" stroke="#191970" points="752.8972,-193.5629 759.895,-185.6079 749.4637,-187.4627 752.8972,-193.5629"/>
</g>
<!-- Node17 -->
<g id="node17" class="node">
<title>Node17</title>
<g id="a_node17"><a xlink:href="class_l_f_s_t_k__gadget_class_a2f244820798818156e97d5cbbc8f497d.xhtml#a2f244820798818156e97d5cbbc8f497d" target="_top" xlink:title=" ">
<polygon fill="none" stroke="#000000" points="568.8625,-179.5 568.8625,-211.5 683.7565,-211.5 683.7565,-179.5 568.8625,-179.5"/>
<text text-anchor="start" x="576.8625" y="-198.5" font-family="Helvetica,sans-Serif" font-size="10.00" fill="#000000">LFSTK_gadgetClass::</text>
<text text-anchor="middle" x="626.3095" y="-186.5" font-family="Helvetica,sans-Serif" font-size="10.00" fill="#000000">LFSTK_resizeWindow</text>
</a>
</g>
</g>
<!-- Node1&#45;&gt;Node17 -->
<g id="edge16" class="edge">
<title>Node1&#45;&gt;Node17</title>
<path fill="none" stroke="#191970" d="M718.7299,-180.5908C707.1003,-182.4669 695.1347,-184.3972 683.8302,-186.2208"/>
<polygon fill="#191970" stroke="#191970" points="719.5232,-184.0082 728.8381,-178.9601 718.4083,-177.0975 719.5232,-184.0082"/>
</g>
<!-- Node18 -->
<g id="node18" class="node">
<title>Node18</title>
<g id="a_node18"><a xlink:href="class_l_f_s_t_k__window_class_abec54e421d2e094da2214abfccebd361.xhtml#abec54e421d2e094da2214abfccebd361" target="_top" xlink:title=" ">
<polygon fill="none" stroke="#000000" points="568.028,-281.5 568.028,-313.5 684.591,-313.5 684.591,-281.5 568.028,-281.5"/>
<text text-anchor="start" x="576.028" y="-300.5" font-family="Helvetica,sans-Serif" font-size="10.00" fill="#000000">LFSTK_windowClass::</text>
<text text-anchor="middle" x="626.3095" y="-288.5" font-family="Helvetica,sans-Serif" font-size="10.00" fill="#000000">LFSTK_resizeWindow</text>
</a>
</g>
</g>
<!-- Node1&#45;&gt;Node18 -->
<g id="edge17" class="edge">
<title>Node1&#45;&gt;Node18</title>
<path fill="none" stroke="#191970" d="M770.5142,-193.8786C753.3622,-216.9326 724.916,-251.0971 693.199,-272.5 688.2663,-275.8286 682.8318,-278.7879 677.2571,-281.3994"/>
<polygon fill="#191970" stroke="#191970" points="773.459,-195.7803 776.5182,-185.6367 767.8011,-191.6587 773.459,-195.7803"/>
</g>
<!-- Node24 -->
<g id="node24" class="node">
<title>Node24</title>
<g id="a_node24"><a xlink:href="class_l_f_s_t_k__window_class_a66ca01b66ccc729d2cb8bad8ea5cc709.xhtml#a66ca01b66ccc729d2cb8bad8ea5cc709" target="_top" xlink:title=" ">
<polygon fill="none" stroke="#000000" points="568.028,-128.5 568.028,-160.5 684.591,-160.5 684.591,-128.5 568.028,-128.5"/>
<text text-anchor="start" x="576.028" y="-147.5" font-family="Helvetica,sans-Serif" font-size="10.00" fill="#000000">LFSTK_windowClass::</text>
<text text-anchor="middle" x="626.3095" y="-135.5" font-family="Helvetica,sans-Serif" font-size="10.00" fill="#000000">LFSTK_windowClass</text>
</a>
</g>
</g>
<!-- Node1&#45;&gt;Node24 -->
<g id="edge27" class="edge">
<title>Node1&#45;&gt;Node24</title>
<path fill="none" stroke="#191970" d="M718.9179,-158.8649C707.506,-157.0948 695.7651,-155.2736 684.6383,-153.5477"/>
<polygon fill="#191970" stroke="#191970" points="718.4198,-162.3294 728.8381,-160.4037 719.4928,-155.4122 718.4198,-162.3294"/>
</g>
<!-- Node25 -->
<g id="node25" class="node">
<title>Node25</title>
<g id="a_node25"><a xlink:href="class_l_f_s_t_k__tool_window_class_a230084a0461e204e39cea42ad1f10301.xhtml#a230084a0461e204e39cea42ad1f10301" target="_top" xlink:title=" ">
<polygon fill="none" stroke="#000000" points="559.42,-77.5 559.42,-109.5 693.199,-109.5 693.199,-77.5 559.42,-77.5"/>
<text text-anchor="start" x="567.42" y="-96.5" font-family="Helvetica,sans-Serif" font-size="10.00" fill="#000000">LFSTK_toolWindowClass</text>
<text text-anchor="middle" x="626.3095" y="-84.5" font-family="Helvetica,sans-Serif" font-size="10.00" fill="#000000">::windowClassInitCommon</text>
</a>
</g>
</g>
<!-- Node1&#45;&gt;Node25 -->
<g id="edge28" class="edge">
<title>Node1&#45;&gt;Node25</title>
<path fill="none" stroke="#191970" d="M750.8002,-148.1276C733.5936,-138.5012 712.6382,-127.3393 693.199,-118.5 686.4277,-115.421 679.1562,-112.412 671.9907,-109.6094"/>
<polygon fill="#191970" stroke="#191970" points="749.5124,-151.4201 759.9403,-153.2932 752.9565,-145.3259 749.5124,-151.4201"/>
</g>
<!-- Node27 -->
<g id="node27" class="node">
<title>Node27</title>
<g id="a_node27"><a xlink:href="class_l_f_s_t_k__window_class_a7d01ee5bb6c3fef9aa9b55323c04f90c.xhtml#a7d01ee5bb6c3fef9aa9b55323c04f90c" target="_top" xlink:title=" ">
<polygon fill="none" stroke="#000000" points="562.199,-26.5 562.199,-58.5 690.42,-58.5 690.42,-26.5 562.199,-26.5"/>
<text text-anchor="start" x="570.199" y="-45.5" font-family="Helvetica,sans-Serif" font-size="10.00" fill="#000000">LFSTK_windowClass::</text>
<text text-anchor="middle" x="626.3095" y="-33.5" font-family="Helvetica,sans-Serif" font-size="10.00" fill="#000000">windowClassInitCommon</text>
</a>
</g>
</g>
<!-- Node1&#45;&gt;Node27 -->
<g id="edge30" class="edge">
<title>Node1&#45;&gt;Node27</title>
<path fill="none" stroke="#191970" d="M770.1725,-144.9804C752.9536,-122.1622 724.6229,-88.5942 693.199,-67.5 688.2582,-64.1834 682.8187,-61.2316 677.2411,-58.6244"/>
<polygon fill="#191970" stroke="#191970" points="767.4527,-147.1891 776.211,-153.1509 773.0821,-143.0286 767.4527,-147.1891"/>
</g>
<!-- Node3 -->
<g id="node3" class="node">
<title>Node3</title>
<g id="a_node3"><a xlink:href="class_l_f_s_t_k__gadget_class_a2a450a6784d5743e14340cc8ebd05d15.xhtml#a2a450a6784d5743e14340cc8ebd05d15" target="_top" xlink:title=" ">
<polygon fill="none" stroke="#000000" points="392.1145,-280.5 392.1145,-312.5 505.9175,-312.5 505.9175,-280.5 392.1145,-280.5"/>
<text text-anchor="start" x="400.1145" y="-299.5" font-family="Helvetica,sans-Serif" font-size="10.00" fill="#000000">LFSTK_gadgetClass::</text>
<text text-anchor="middle" x="449.016" y="-287.5" font-family="Helvetica,sans-Serif" font-size="10.00" fill="#000000">LFSTK_doPopUp</text>
</a>
</g>
</g>
<!-- Node2&#45;&gt;Node3 -->
<g id="edge2" class="edge">
<title>Node2&#45;&gt;Node3</title>
<path fill="none" stroke="#191970" d="M559.5809,-265.3187C541.9367,-270.2947 523.0564,-275.6193 505.9817,-280.4346"/>
<polygon fill="#191970" stroke="#191970" points="560.5623,-268.6785 569.2368,-262.5955 558.6622,-261.9413 560.5623,-268.6785"/>
</g>
<!-- Node15 -->
<g id="node15" class="node">
<title>Node15</title>
<g id="a_node15"><a xlink:href="class_l_f_s_t_k__menu_class_ab847d4847ed01a7ff90c717a2cdb6dc5.xhtml#ab847d4847ed01a7ff90c717a2cdb6dc5" target="_top" xlink:title=" ">
<polygon fill="none" stroke="#000000" points="188.4155,-234.5 188.4155,-266.5 327.7655,-266.5 327.7655,-234.5 188.4155,-234.5"/>
<text text-anchor="start" x="196.4155" y="-253.5" font-family="Helvetica,sans-Serif" font-size="10.00" fill="#000000">LFSTK_menuClass::LFSTK</text>
<text text-anchor="middle" x="258.0905" y="-241.5" font-family="Helvetica,sans-Serif" font-size="10.00" fill="#000000">_showMenu</text>
</a>
</g>
</g>
<!-- Node2&#45;&gt;Node15 -->
<g id="edge14" class="edge">
<title>Node2&#45;&gt;Node15</title>
<path fill="none" stroke="#191970" d="M557.73,-247.245C492.1455,-247.9574 393.7385,-249.0264 327.7851,-249.7429"/>
<polygon fill="#191970" stroke="#191970" points="558.0027,-250.7423 567.9641,-247.1338 557.9266,-243.7427 558.0027,-250.7423"/>
</g>
<!-- Node16 -->
<g id="node16" class="node">
<title>Node16</title>
<g id="a_node16"><a xlink:href="class_l_f_s_t_k__menu_item_class_ad2460aa76c71cb7ea548041e1ff858cf.xhtml#ad2460aa76c71cb7ea548041e1ff858cf" target="_top" xlink:title=" ">
<polygon fill="none" stroke="#000000" points="197.029,-81.5 197.029,-113.5 319.152,-113.5 319.152,-81.5 197.029,-81.5"/>
<text text-anchor="start" x="205.029" y="-100.5" font-family="Helvetica,sans-Serif" font-size="10.00" fill="#000000">LFSTK_menuItemClass</text>
<text text-anchor="middle" x="258.0905" y="-88.5" font-family="Helvetica,sans-Serif" font-size="10.00" fill="#000000">::mouseEnter</text>
</a>
</g>
</g>
<!-- Node2&#45;&gt;Node16 -->
<g id="edge15" class="edge">
<title>Node2&#45;&gt;Node16</title>
<path fill="none" stroke="#191970" d="M566.7812,-225.4543C564.2237,-223.9031 561.7553,-222.2531 559.42,-220.5 538.377,-204.7032 545.1653,-188.3151 523.42,-173.5 490.2554,-150.905 386.901,-125.3417 319.4047,-110.3675"/>
<polygon fill="#191970" stroke="#191970" points="565.3016,-228.6341 575.7561,-230.3532 568.6555,-222.4898 565.3016,-228.6341"/>
</g>
<!-- Node4 -->
<g id="node4" class="node">
<title>Node4</title>
<g id="a_node4"><a xlink:href="class_l_f_s_t_k__lib_af01ab10da12946856ae6bc2a23414cf8.xhtml#af01ab10da12946856ae6bc2a23414cf8" target="_top" xlink:title=" ">
<polygon fill="none" stroke="#000000" points="177.569,-286.5 177.569,-306.5 338.612,-306.5 338.612,-286.5 177.569,-286.5"/>
<text text-anchor="middle" x="258.0905" y="-293.5" font-family="Helvetica,sans-Serif" font-size="10.00" fill="#000000">LFSTK_lib::LFSTK_gadgetEvent</text>
</a>
</g>
</g>
<!-- Node3&#45;&gt;Node4 -->
<g id="edge3" class="edge">
<title>Node3&#45;&gt;Node4</title>
<path fill="none" stroke="#191970" d="M381.6014,-296.5C367.7671,-296.5 353.0704,-296.5 338.8223,-296.5"/>
<polygon fill="#191970" stroke="#191970" points="381.9907,-300.0001 391.9907,-296.5 381.9906,-293.0001 381.9907,-300.0001"/>
</g>
<!-- Node5 -->
<g id="node5" class="node">
<title>Node5</title>
<g id="a_node5"><a xlink:href="class_l_f_s_t_k__button_class_a2b46d2136069e61fc8c8ee88519b2a8f.xhtml#a2b46d2136069e61fc8c8ee88519b2a8f" target="_top" xlink:title=" ">
<polygon fill="none" stroke="#000000" points="15.273,-459.5 15.273,-491.5 126.296,-491.5 126.296,-459.5 15.273,-459.5"/>
<text text-anchor="start" x="23.273" y="-478.5" font-family="Helvetica,sans-Serif" font-size="10.00" fill="#000000">LFSTK_buttonClass::</text>
<text text-anchor="middle" x="70.7845" y="-466.5" font-family="Helvetica,sans-Serif" font-size="10.00" fill="#000000">LFSTK_buttonClass</text>
</a>
</g>
</g>
<!-- Node4&#45;&gt;Node5 -->
<g id="edge4" class="edge">
<title>Node4&#45;&gt;Node5</title>
<path fill="none" stroke="#191970" d="M248.453,-315.6602C231.2726,-347.968 192.3416,-413.3808 141.569,-450.5 136.9397,-453.8844 131.8107,-456.8439 126.4905,-459.4247"/>
<polygon fill="#191970" stroke="#191970" points="251.5702,-317.2518 253.0756,-306.7644 245.3588,-314.024 251.5702,-317.2518"/>
</g>
<!-- Node6 -->
<g id="node6" class="node">
<title>Node6</title>
<g id="a_node6"><a xlink:href="class_l_f_s_t_k__font_dialog_class_ab7b6a4bca99713646ab6ac77dc34827c.xhtml#ab7b6a4bca99713646ab6ac77dc34827c" target="_top" xlink:title=" ">
<polygon fill="none" stroke="#000000" points="6.665,-510.5 6.665,-542.5 134.904,-542.5 134.904,-510.5 6.665,-510.5"/>
<text text-anchor="start" x="14.665" y="-529.5" font-family="Helvetica,sans-Serif" font-size="10.00" fill="#000000">LFSTK_fontDialogClass</text>
<text text-anchor="middle" x="70.7845" y="-517.5" font-family="Helvetica,sans-Serif" font-size="10.00" fill="#000000">::LFSTK_fontDialogClass</text>
</a>
</g>
</g>
<!-- Node4&#45;&gt;Node6 -->
<g id="edge5" class="edge">
<title>Node4&#45;&gt;Node6</title>
<path fill="none" stroke="#191970" d="M252.1203,-316.2427C238.8796,-356.7752 203.2472,-449.8937 141.569,-501.5 137.4708,-504.929 132.8697,-507.9008 128.0319,-510.4741"/>
<polygon fill="#191970" stroke="#191970" points="255.4588,-317.2934 255.1361,-306.7035 248.7844,-315.1833 255.4588,-317.2934"/>
</g>
<!-- Node7 -->
<g id="node7" class="node">
<title>Node7</title>
<g id="a_node7"><a xlink:href="class_l_f_s_t_k__image_class_aff24b6452cb0a5d821b81770aa8f58d5.xhtml#aff24b6452cb0a5d821b81770aa8f58d5" target="_top" xlink:title=" ">
<polygon fill="none" stroke="#000000" points="0,-408.5 0,-440.5 141.569,-440.5 141.569,-408.5 0,-408.5"/>
<text text-anchor="start" x="8" y="-427.5" font-family="Helvetica,sans-Serif" font-size="10.00" fill="#000000">LFSTK_imageClass::LFSTK</text>
<text text-anchor="middle" x="70.7845" y="-415.5" font-family="Helvetica,sans-Serif" font-size="10.00" fill="#000000">_imageClass</text>
</a>
</g>
</g>
<!-- Node4&#45;&gt;Node7 -->
<g id="edge6" class="edge">
<title>Node4&#45;&gt;Node7</title>
<path fill="none" stroke="#191970" d="M242.229,-314.2299C221.1925,-336.805 181.9868,-375.7264 141.569,-399.5 135.9521,-402.8038 129.8292,-405.7707 123.612,-408.4064"/>
<polygon fill="#191970" stroke="#191970" points="244.9456,-316.446 249.1258,-306.7106 239.787,-311.7143 244.9456,-316.446"/>
</g>
<!-- Node8 -->
<g id="node8" class="node">
<title>Node8</title>
<g id="a_node8"><a xlink:href="class_l_f_s_t_k__label_class_a6085feaa122a3d1060351c659889628c.xhtml#a6085feaa122a3d1060351c659889628c" target="_top" xlink:title=" ">
<polygon fill="none" stroke="#000000" points="3.055,-357.5 3.055,-389.5 138.514,-389.5 138.514,-357.5 3.055,-357.5"/>
<text text-anchor="start" x="11.055" y="-376.5" font-family="Helvetica,sans-Serif" font-size="10.00" fill="#000000">LFSTK_labelClass::LFSTK</text>
<text text-anchor="middle" x="70.7845" y="-364.5" font-family="Helvetica,sans-Serif" font-size="10.00" fill="#000000">_labelClass</text>
</a>
</g>
</g>
<!-- Node4&#45;&gt;Node8 -->
<g id="edge7" class="edge">
<title>Node4&#45;&gt;Node8</title>
<path fill="none" stroke="#191970" d="M227.4663,-310.9755C204.1317,-321.8073 171.0945,-336.7199 141.569,-348.5 133.9428,-351.5427 125.7833,-354.6019 117.8148,-357.4851"/>
<polygon fill="#191970" stroke="#191970" points="229.2524,-314.0045 236.8343,-306.6042 226.2923,-307.6611 229.2524,-314.0045"/>
</g>
<!-- Node9 -->
<g id="node9" class="node">
<title>Node9</title>
<g id="a_node9"><a xlink:href="class_l_f_s_t_k__line_edit_class_af610951625203a6d75bce118b2b94386.xhtml#af610951625203a6d75bce118b2b94386" target="_top" xlink:title=" ">
<polygon fill="none" stroke="#000000" points="12.779,-306.5 12.779,-338.5 128.79,-338.5 128.79,-306.5 12.779,-306.5"/>
<text text-anchor="start" x="20.779" y="-325.5" font-family="Helvetica,sans-Serif" font-size="10.00" fill="#000000">LFSTK_lineEditClass</text>
<text text-anchor="middle" x="70.7845" y="-313.5" font-family="Helvetica,sans-Serif" font-size="10.00" fill="#000000">::LFSTK_lineEditClass</text>
</a>
</g>
</g>
<!-- Node4&#45;&gt;Node9 -->
<g id="edge8" class="edge">
<title>Node4&#45;&gt;Node9</title>
<path fill="none" stroke="#191970" d="M175.6746,-307.9402C159.9287,-310.1259 143.7527,-312.3713 128.962,-314.4244"/>
<polygon fill="#191970" stroke="#191970" points="176.5173,-311.3569 185.941,-306.5151 175.5548,-304.4233 176.5173,-311.3569"/>
</g>
<!-- Node10 -->
<g id="node10" class="node">
<title>Node10</title>
<g id="a_node10"><a xlink:href="class_l_f_s_t_k__list_gadget_class_ae3518016f28ec3cd261ad927c5691826.xhtml#ae3518016f28ec3cd261ad927c5691826" target="_top" xlink:title=" ">
<polygon fill="none" stroke="#000000" points="6.6645,-255.5 6.6645,-287.5 134.9045,-287.5 134.9045,-255.5 6.6645,-255.5"/>
<text text-anchor="start" x="14.6645" y="-274.5" font-family="Helvetica,sans-Serif" font-size="10.00" fill="#000000">LFSTK_listGadgetClass</text>
<text text-anchor="middle" x="70.7845" y="-262.5" font-family="Helvetica,sans-Serif" font-size="10.00" fill="#000000">::LFSTK_listGadgetClass</text>
</a>
</g>
</g>
<!-- Node4&#45;&gt;Node10 -->
<g id="edge9" class="edge">
<title>Node4&#45;&gt;Node10</title>
<path fill="none" stroke="#191970" d="M172.8571,-285.1238C160.1499,-283.4277 147.2343,-281.7039 135.0562,-280.0784"/>
<polygon fill="#191970" stroke="#191970" points="172.6101,-288.6218 182.9852,-286.4756 173.5362,-281.6833 172.6101,-288.6218"/>
</g>
<!-- Node11 -->
<g id="node11" class="node">
<title>Node11</title>
<g id="a_node11"><a xlink:href="class_l_f_s_t_k__menu_item_class_a382a9775dff59f06606ef0b3f43382cc.xhtml#a382a9775dff59f06606ef0b3f43382cc" target="_top" xlink:title=" ">
<polygon fill="none" stroke="#000000" points="6.944,-204.5 6.944,-236.5 134.625,-236.5 134.625,-204.5 6.944,-204.5"/>
<text text-anchor="start" x="14.944" y="-223.5" font-family="Helvetica,sans-Serif" font-size="10.00" fill="#000000">LFSTK_menuItemClass</text>
<text text-anchor="middle" x="70.7845" y="-211.5" font-family="Helvetica,sans-Serif" font-size="10.00" fill="#000000">::LFSTK_menuItemClass</text>
</a>
</g>
</g>
<!-- Node4&#45;&gt;Node11 -->
<g id="edge10" class="edge">
<title>Node4&#45;&gt;Node11</title>
<path fill="none" stroke="#191970" d="M193.3018,-283.1878C187.8641,-281.241 182.5477,-279.0233 177.569,-276.5 158.9915,-267.0844 159.6083,-256.9096 141.569,-246.5 135.219,-242.8357 128.26,-239.5304 121.2623,-236.6024"/>
<polygon fill="#191970" stroke="#191970" points="192.5818,-286.6343 203.1742,-286.4068 194.7518,-279.9791 192.5818,-286.6343"/>
</g>
<!-- Node12 -->
<g id="node12" class="node">
<title>Node12</title>
<g id="a_node12"><a xlink:href="class_l_f_s_t_k__multi_line_edit_class_a3319d21c84b3437e69bb87dc77531322.xhtml#a3319d21c84b3437e69bb87dc77531322" target="_top" xlink:title=" ">
<polygon fill="none" stroke="#000000" points=".5565,-153.5 .5565,-185.5 141.0125,-185.5 141.0125,-153.5 .5565,-153.5"/>
<text text-anchor="start" x="8.5565" y="-172.5" font-family="Helvetica,sans-Serif" font-size="10.00" fill="#000000">LFSTK_multiLineEditClass</text>
<text text-anchor="middle" x="70.7845" y="-160.5" font-family="Helvetica,sans-Serif" font-size="10.00" fill="#000000">::LFSTK_multiLineEditClass</text>
</a>
</g>
</g>
<!-- Node4&#45;&gt;Node12 -->
<g id="edge11" class="edge">
<title>Node4&#45;&gt;Node12</title>
<path fill="none" stroke="#191970" d="M184.814,-281.7239C182.269,-280.1504 179.8407,-278.4145 177.569,-276.5 147.134,-250.8503 170.7375,-221.5813 141.569,-194.5 137.9396,-191.1303 133.828,-188.2102 129.4574,-185.6803"/>
<polygon fill="#191970" stroke="#191970" points="183.3772,-284.9226 193.858,-286.4723 186.6312,-278.7249 183.3772,-284.9226"/>
</g>
<!-- Node13 -->
<g id="node13" class="node">
<title>Node13</title>
<g id="a_node13"><a xlink:href="class_l_f_s_t_k__scroll_bar_class_a3da4281c24ac345ba32a4636ce2af38b.xhtml#a3da4281c24ac345ba32a4636ce2af38b" target="_top" xlink:title=" ">
<polygon fill="none" stroke="#000000" points="9.7285,-102.5 9.7285,-134.5 131.8405,-134.5 131.8405,-102.5 9.7285,-102.5"/>
<text text-anchor="start" x="17.7285" y="-121.5" font-family="Helvetica,sans-Serif" font-size="10.00" fill="#000000">LFSTK_scrollBarClass</text>
<text text-anchor="middle" x="70.7845" y="-109.5" font-family="Helvetica,sans-Serif" font-size="10.00" fill="#000000">::LFSTK_scrollBarClass</text>
</a>
</g>
</g>
<!-- Node4&#45;&gt;Node13 -->
<g id="edge12" class="edge">
<title>Node4&#45;&gt;Node13</title>
<path fill="none" stroke="#191970" d="M182.9014,-281.0408C181.0258,-279.6481 179.2413,-278.1377 177.569,-276.5 133.8171,-233.6526 183.2134,-188.3985 141.569,-143.5 138.3784,-140.06 134.6853,-137.0932 130.6942,-134.5344"/>
<polygon fill="#191970" stroke="#191970" points="181.2932,-284.1608 191.6439,-286.4222 184.9626,-278.1996 181.2932,-284.1608"/>
</g>
<!-- Node14 -->
<g id="node14" class="node">
<title>Node14</title>
<g id="a_node14"><a xlink:href="class_l_f_s_t_k__toggle_button_class_a4cc0929a4d4113b9b40a3bdc54898ab7.xhtml#a4cc0929a4d4113b9b40a3bdc54898ab7" target="_top" xlink:title=" ">
<polygon fill="none" stroke="#000000" points="1.101,-51.5 1.101,-83.5 140.468,-83.5 140.468,-51.5 1.101,-51.5"/>
<text text-anchor="start" x="9.101" y="-70.5" font-family="Helvetica,sans-Serif" font-size="10.00" fill="#000000">LFSTK_toggleButtonClass</text>
<text text-anchor="middle" x="70.7845" y="-58.5" font-family="Helvetica,sans-Serif" font-size="10.00" fill="#000000">::LFSTK_toggleButtonClass</text>
</a>
</g>
</g>
<!-- Node4&#45;&gt;Node14 -->
<g id="edge13" class="edge">
<title>Node4&#45;&gt;Node14</title>
<path fill="none" stroke="#191970" d="M182.0739,-280.6583C180.49,-279.3712 178.9835,-277.9874 177.569,-276.5 120.1456,-216.1165 196.0272,-155.5707 141.569,-92.5 138.5879,-89.0474 135.0988,-86.0716 131.2964,-83.5067"/>
<polygon fill="#191970" stroke="#191970" points="180.3081,-283.6875 190.5707,-286.32 184.1897,-277.8622 180.3081,-283.6875"/>
</g>
<!-- Node18&#45;&gt;Node3 -->
<g id="edge20" class="edge">
<title>Node18&#45;&gt;Node3</title>
<path fill="none" stroke="#191970" d="M557.3411,-297.111C540.3496,-297.0152 522.3423,-296.9136 505.9903,-296.8214"/>
<polygon fill="#191970" stroke="#191970" points="557.746,-300.6132 567.7656,-297.1698 557.7856,-293.6133 557.746,-300.6132"/>
</g>
<!-- Node19 -->
<g id="node19" class="node">
<title>Node19</title>
<g id="a_node19"><a xlink:href="class_l_f_s_t_k__font_dialog_class_af866eb2b1ba8178c9cf3e751716fcc8e.xhtml#af866eb2b1ba8178c9cf3e751716fcc8e" target="_top" xlink:title=" ">
<polygon fill="none" stroke="#000000" points="387.6755,-433.5 387.6755,-465.5 510.3565,-465.5 510.3565,-433.5 387.6755,-433.5"/>
<text text-anchor="start" x="395.6755" y="-452.5" font-family="Helvetica,sans-Serif" font-size="10.00" fill="#000000">LFSTK_fontDialogClass</text>
<text text-anchor="middle" x="449.016" y="-440.5" font-family="Helvetica,sans-Serif" font-size="10.00" fill="#000000">::buildDialog</text>
</a>
</g>
</g>
<!-- Node18&#45;&gt;Node19 -->
<g id="edge18" class="edge">
<title>Node18&#45;&gt;Node19</title>
<path fill="none" stroke="#191970" d="M599.612,-320.3887C563.365,-351.4645 499.4853,-406.2309 467.8531,-433.3503"/>
<polygon fill="#191970" stroke="#191970" points="602.0222,-322.9326 607.336,-313.7667 597.466,-317.6183 602.0222,-322.9326"/>
</g>
<!-- Node20 -->
<g id="node20" class="node">
<title>Node20</title>
<g id="a_node20"><a xlink:href="class_l_f_s_t_k__window_class_a10d93c702923f9d1528b43fc5010b858.xhtml#a10d93c702923f9d1528b43fc5010b858" target="_top" xlink:title=" ">
<polygon fill="none" stroke="#000000" points="374.612,-183.5 374.612,-215.5 523.42,-215.5 523.42,-183.5 374.612,-183.5"/>
<text text-anchor="start" x="382.612" y="-202.5" font-family="Helvetica,sans-Serif" font-size="10.00" fill="#000000">LFSTK_windowClass::</text>
<text text-anchor="middle" x="449.016" y="-190.5" font-family="Helvetica,sans-Serif" font-size="10.00" fill="#000000">LFSTK_handleWindowEvents</text>
</a>
</g>
</g>
<!-- Node18&#45;&gt;Node20 -->
<g id="edge21" class="edge">
<title>Node18&#45;&gt;Node20</title>
<path fill="none" stroke="#191970" d="M569.8086,-277.4392C566.2553,-275.8535 562.7654,-274.2033 559.42,-272.5 526.6568,-255.8185 491.721,-231.4732 470.1265,-215.5601"/>
<polygon fill="#191970" stroke="#191970" points="568.735,-280.7859 579.3072,-281.4786 571.4744,-274.3442 568.735,-280.7859"/>
</g>
<!-- Node19&#45;&gt;Node6 -->
<g id="edge19" class="edge">
<title>Node19&#45;&gt;Node6</title>
<path fill="none" stroke="#191970" d="M377.3726,-464.0851C307.5792,-478.2936 202.4425,-499.6972 135.2183,-513.3826"/>
<polygon fill="#191970" stroke="#191970" points="378.304,-467.4674 387.4048,-462.0428 376.9075,-460.6081 378.304,-467.4674"/>
</g>
<!-- Node20&#45;&gt;Node15 -->
<g id="edge25" class="edge">
<title>Node20&#45;&gt;Node15</title>
<path fill="none" stroke="#191970" d="M379.2047,-218.148C359.2205,-223.4862 337.6164,-229.2571 318.264,-234.4264"/>
<polygon fill="#191970" stroke="#191970" points="380.1101,-221.5289 388.868,-215.5667 378.3035,-214.7661 380.1101,-221.5289"/>
</g>
<!-- Node20&#45;&gt;Node16 -->
<g id="edge26" class="edge">
<title>Node20&#45;&gt;Node16</title>
<path fill="none" stroke="#191970" d="M400.8952,-178.9098C391.7937,-174.1044 382.6242,-168.5875 374.612,-162.5 355.5677,-148.0306 358.7545,-135.3968 338.612,-122.5 332.6949,-118.7114 326.1658,-115.4646 319.4624,-112.6896"/>
<polygon fill="#191970" stroke="#191970" points="399.4246,-182.0882 409.9286,-183.4729 402.5808,-175.84 399.4246,-182.0882"/>
</g>
<!-- Node21 -->
<g id="node21" class="node">
<title>Node21</title>
<g id="a_node21"><a xlink:href="class_l_f_s_t_k__font_dialog_class_a14c5f93b43c729a1bcb8bebe141415f2.xhtml#a14c5f93b43c729a1bcb8bebe141415f2" target="_top" xlink:title=" ">
<polygon fill="none" stroke="#000000" points="196.75,-183.5 196.75,-215.5 319.431,-215.5 319.431,-183.5 196.75,-183.5"/>
<text text-anchor="start" x="204.75" y="-202.5" font-family="Helvetica,sans-Serif" font-size="10.00" fill="#000000">LFSTK_fontDialogClass</text>
<text text-anchor="middle" x="258.0905" y="-190.5" font-family="Helvetica,sans-Serif" font-size="10.00" fill="#000000">::LFSTK_showDialog</text>
</a>
</g>
</g>
<!-- Node20&#45;&gt;Node21 -->
<g id="edge22" class="edge">
<title>Node20&#45;&gt;Node21</title>
<path fill="none" stroke="#191970" d="M364.1088,-199.5C349.1672,-199.5 333.8765,-199.5 319.7248,-199.5"/>
<polygon fill="#191970" stroke="#191970" points="364.379,-203.0001 374.3789,-199.5 364.3789,-196.0001 364.379,-203.0001"/>
</g>
<!-- Node22 -->
<g id="node22" class="node">
<title>Node22</title>
<g id="a_node22"><a xlink:href="class_l_f_s_t_k__file_dialog_class_af77972b8a46616ba4c7bec555b2b0a14.xhtml#af77972b8a46616ba4c7bec555b2b0a14" target="_top" xlink:title=" ">
<polygon fill="none" stroke="#000000" points="195.086,-132.5 195.086,-164.5 321.095,-164.5 321.095,-132.5 195.086,-132.5"/>
<text text-anchor="start" x="203.086" y="-151.5" font-family="Helvetica,sans-Serif" font-size="10.00" fill="#000000">LFSTK_fileDialogClass</text>
<text text-anchor="middle" x="258.0905" y="-139.5" font-family="Helvetica,sans-Serif" font-size="10.00" fill="#000000">::LFSTK_showFileDialog</text>
</a>
</g>
</g>
<!-- Node20&#45;&gt;Node22 -->
<g id="edge23" class="edge">
<title>Node20&#45;&gt;Node22</title>
<path fill="none" stroke="#191970" d="M379.2047,-180.852C359.2205,-175.5138 337.6164,-169.7429 318.264,-164.5736"/>
<polygon fill="#191970" stroke="#191970" points="378.3035,-184.2339 388.868,-183.4333 380.1101,-177.4711 378.3035,-184.2339"/>
</g>
<!-- Node23 -->
<g id="node23" class="node">
<title>Node23</title>
<g id="a_node23"><a xlink:href="class_l_f_s_t_k__file_dialog_class_aacf1d4b61cbb5b40d06f591ea96f9ea7.xhtml#aacf1d4b61cbb5b40d06f591ea96f9ea7" target="_top" xlink:title=" ">
<polygon fill="none" stroke="#000000" points="7.78,-.5 7.78,-32.5 133.789,-32.5 133.789,-.5 7.78,-.5"/>
<text text-anchor="start" x="15.78" y="-19.5" font-family="Helvetica,sans-Serif" font-size="10.00" fill="#000000">LFSTK_fileDialogClass</text>
<text text-anchor="middle" x="70.7845" y="-7.5" font-family="Helvetica,sans-Serif" font-size="10.00" fill="#000000">::LFSTK_showFileDialog</text>
</a>
</g>
</g>
<!-- Node22&#45;&gt;Node23 -->
<g id="edge24" class="edge">
<title>Node22&#45;&gt;Node23</title>
<path fill="none" stroke="#191970" d="M186.106,-129.0085C183.0835,-127.0435 180.216,-124.8806 177.569,-122.5 148.277,-96.1566 170.5003,-68.2391 141.569,-41.5 137.932,-38.1386 133.815,-35.2242 129.4408,-32.6983"/>
<polygon fill="#191970" stroke="#191970" points="184.5543,-132.1521 194.9798,-134.0391 188.0065,-126.0626 184.5543,-132.1521"/>
</g>
<!-- Node26 -->
<g id="node26" class="node">
<title>Node26</title>
<g id="a_node26"><a xlink:href="class_l_f_s_t_k__tool_window_class_ad9d85cbc29eafc7793e12bcc9c268bf5.xhtml#ad9d85cbc29eafc7793e12bcc9c268bf5" target="_top" xlink:title=" ">
<polygon fill="none" stroke="#000000" points="381.5665,-77.5 381.5665,-109.5 516.4655,-109.5 516.4655,-77.5 381.5665,-77.5"/>
<text text-anchor="start" x="389.5665" y="-96.5" font-family="Helvetica,sans-Serif" font-size="10.00" fill="#000000">LFSTK_toolWindowClass</text>
<text text-anchor="middle" x="449.016" y="-84.5" font-family="Helvetica,sans-Serif" font-size="10.00" fill="#000000">::LFSTK_toolWindowClass</text>
</a>
</g>
</g>
<!-- Node25&#45;&gt;Node26 -->
<g id="edge29" class="edge">
<title>Node25&#45;&gt;Node26</title>
<path fill="none" stroke="#191970" d="M549.0533,-93.5C538.2892,-93.5 527.2974,-93.5 516.7268,-93.5"/>
<polygon fill="#191970" stroke="#191970" points="549.2825,-97.0001 559.2824,-93.5 549.2824,-90.0001 549.2825,-97.0001"/>
</g>
<!-- Node28 -->
<g id="node28" class="node">
<title>Node28</title>
<g id="a_node28"><a xlink:href="class_l_f_s_t_k__window_class_afcd2c5e43ab2a1110d5b4e54b24ce47a.xhtml#afcd2c5e43ab2a1110d5b4e54b24ce47a" target="_top" xlink:title=" ">
<polygon fill="none" stroke="#000000" points="390.7345,-26.5 390.7345,-58.5 507.2975,-58.5 507.2975,-26.5 390.7345,-26.5"/>
<text text-anchor="start" x="398.7345" y="-45.5" font-family="Helvetica,sans-Serif" font-size="10.00" fill="#000000">LFSTK_windowClass::</text>
<text text-anchor="middle" x="449.016" y="-33.5" font-family="Helvetica,sans-Serif" font-size="10.00" fill="#000000">LFSTK_windowClass</text>
</a>
</g>
</g>
<!-- Node27&#45;&gt;Node28 -->
<g id="edge31" class="edge">
<title>Node27&#45;&gt;Node28</title>
<path fill="none" stroke="#191970" d="M551.8886,-42.5C537.0518,-42.5 521.6691,-42.5 507.4619,-42.5"/>
<polygon fill="#191970" stroke="#191970" points="552.0518,-46.0001 562.0518,-42.5 552.0518,-39.0001 552.0518,-46.0001"/>
</g>
</g>
</svg>
        <g id="navigator" transform="translate(0 0)" fill="#404254">
                <rect fill="#f2f5e9" fill-opacity="0.5" stroke="#606060" stroke-width=".5" x="0" y="0" width="60" height="60"/>
                <use id="zoomplus" xlink:href="#zoomPlus" x="17" y="9" onmousedown="handleZoom(evt,'in')"/>
                <use id="zoomminus" xlink:href="#zoomMin" x="42" y="9" onmousedown="handleZoom(evt,'out')"/>
                <use id="reset" xlink:href="#resetDef" x="30" y="36" onmousedown="handleReset()"/>
                <g id="arrowUp" xlink:href="#dirArrow" transform="translate(30 24)" onmousedown="handlePan(0,-1)">
                  <use xlink:href="#rim" fill="#404040">
                        <set attributeName="fill" to="#808080" begin="arrowUp.mouseover" end="arrowUp.mouseout"/>
                  </use>
                  <path fill="none" stroke="white" stroke-width="1.5" d="M0,-3.0v7 M-2.5,-0.5L0,-3.0L2.5,-0.5"/>
                </g>
                <g id="arrowRight" xlink:href="#dirArrow" transform="rotate(90) translate(36 -43)" onmousedown="handlePan(1,0)">
                  <use xlink:href="#rim" fill="#404040">
                        <set attributeName="fill" to="#808080" begin="arrowRight.mouseover" end="arrowRight.mouseout"/>
                  </use>
                  <path fill="none" stroke="white" stroke-width="1.5" d="M0,-3.0v7 M-2.5,-0.5L0,-3.0L2.5,-0.5"/>
                </g>
                <g id="arrowDown" xlink:href="#dirArrow" transform="rotate(180) translate(-30 -48)" onmousedown="handlePan(0,1)">
                  <use xlink:href="#rim" fill="#404040">
                        <set attributeName="fill" to="#808080" begin="arrowDown.mouseover" end="arrowDown.mouseout"/>
                  </use>
                  <path fill="none" stroke="white" stroke-width="1.5" d="M0,-3.0v7 M-2.5,-0.5L0,-3.0L2.5,-0.5"/>
                </g>
                <g id="arrowLeft" xlink:href="#dirArrow" transform="rotate(270) translate(-36 17)" onmousedown="handlePan(-1,0)">
                  <use xlink:href="#rim" fill="#404040">
                        <set attributeName="fill" to="#808080" begin="arrowLeft.mouseover" end="arrowLeft.mouseout"/>
                  </use>
                  <path fill="none" stroke="white" stroke-width="1.5" d="M0,-3.0v7 M-2.5,-0.5L0,-3.0L2.5,-0.5"/>
                </g>
        </g>
        <svg viewBox="0 0 15 15" width="100%" height="30px" preserveAspectRatio="xMaxYMin meet">
         <g id="arrow_out" transform="scale(0.3 0.3)">
          <a xlink:href="class_l_f_s_t_k__window_class_ac8c342109a0f8599f550475cef048745_ac8c342109a0f8599f550475cef048745_icgraph_org.svg" target="_base">
           <rect id="button" ry="5" rx="5" y="6" x="6" height="38" width="38"
                fill="#f2f5e9" fill-opacity="0.5" stroke="#606060" stroke-width="1.0"/>
           <path id="arrow"
             d="M 11.500037,31.436501 C 11.940474,20.09759 22.043105,11.32322 32.158766,21.979434 L 37.068811,17.246167 C 37.068811,17.246167 37.088388,32 37.088388,32 L 22.160133,31.978069 C 22.160133,31.978069 26.997745,27.140456 26.997745,27.140456 C 18.528582,18.264221 13.291696,25.230495 11.500037,31.436501 z"
             style="fill:#404040;"/>
          </a>
         </g>
        </svg>
</svg>
