<?xml version="1.0" encoding="UTF-8" standalone="no"?>
<!DOCTYPE svg PUBLIC "-//W3C//DTD SVG 1.1//EN"
 "http://www.w3.org/Graphics/SVG/1.1/DTD/svg11.dtd">
<!-- Generated by graphviz version 2.40.1 (20161225.0304)
 -->
<!-- Title: LFSTK_gadgetClass::LFSTK_setCallBack Pages: 1 -->
<!--zoomable 500 -->
<svg id="main" version="1.1" xmlns="http://www.w3.org/2000/svg" xmlns:xlink="http://www.w3.org/1999/xlink" xml:space="preserve" onload="init(evt)">
<style type="text/css"><![CDATA[
.edge:hover path { stroke: red; }
.edge:hover polygon { stroke: red; fill: red; }
]]></style>
<script type="text/javascript"><![CDATA[
var edges = document.getElementsByTagName('g');
if (edges && edges.length) {
  for (var i=0;i<edges.length;i++) {
    if (edges[i].id.substr(0,4)=='edge') {
      edges[i].setAttribute('class','edge');
    }
  }
}
]]></script>
        <defs>
                <circle id="rim" cx="0" cy="0" r="7"/>
                <circle id="rim2" cx="0" cy="0" r="3.5"/>
                <g id="zoomPlus">
                        <use xlink:href="#rim" fill="#404040">
                                <set attributeName="fill" to="#808080" begin="zoomplus.mouseover" end="zoomplus.mouseout"/>
                        </use>
                        <path d="M-4,0h8M0,-4v8" fill="none" stroke="white" stroke-width="1.5" pointer-events="none"/>
                </g>
                <g id="zoomMin">
                        <use xlink:href="#rim" fill="#404040">
                                <set attributeName="fill" to="#808080" begin="zoomminus.mouseover" end="zoomminus.mouseout"/>
                        </use>
                        <path d="M-4,0h8" fill="none" stroke="white" stroke-width="1.5" pointer-events="none"/>
                </g>
                <g id="dirArrow">
                        <path fill="none" stroke="white" stroke-width="1.5" d="M0,-3.0v7 M-2.5,-0.5L0,-3.0L2.5,-0.5"/>
                </g>
               <g id="resetDef">
                       <use xlink:href="#rim2" fill="#404040">
                               <set attributeName="fill" to="#808080" begin="reset.mouseover" end="reset.mouseout"/>
                       </use>
               </g>
        </defs>

<script type="text/javascript">
var viewWidth = 475;
var viewHeight = 500;
var sectionId = 'dynsection-0';
</script>
<script xlink:href="svgpan.js"/>
<svg id="graph" class="graph">
<g id="viewport">
<title>LFSTK_gadgetClass::LFSTK_setCallBack</title>
<!-- Node1 -->
<g id="node1" class="node">
<title>Node1</title>
<g id="a_node1"><a xlink:title=" ">
<polygon fill="#bfbfbf" stroke="#000000" points="352.919,-328.5 352.919,-360.5 466.722,-360.5 466.722,-328.5 352.919,-328.5"/>
<text text-anchor="start" x="360.919" y="-347.5" font-family="Helvetica,sans-Serif" font-size="10.00" fill="#000000">LFSTK_gadgetClass::</text>
<text text-anchor="middle" x="409.8205" y="-335.5" font-family="Helvetica,sans-Serif" font-size="10.00" fill="#000000">LFSTK_setCallBack</text>
</a>
</g>
</g>
<!-- Node2 -->
<g id="node2" class="node">
<title>Node2</title>
<g id="a_node2"><a xlink:href="class_l_f_s_t_k__font_dialog_class_af866eb2b1ba8178c9cf3e751716fcc8e.xhtml#af866eb2b1ba8178c9cf3e751716fcc8e" target="_top" xlink:title=" ">
<polygon fill="none" stroke="#000000" points="185.9035,-452.5 185.9035,-484.5 308.5845,-484.5 308.5845,-452.5 185.9035,-452.5"/>
<text text-anchor="start" x="193.9035" y="-471.5" font-family="Helvetica,sans-Serif" font-size="10.00" fill="#000000">LFSTK_fontDialogClass</text>
<text text-anchor="middle" x="247.244" y="-459.5" font-family="Helvetica,sans-Serif" font-size="10.00" fill="#000000">::buildDialog</text>
</a>
</g>
</g>
<!-- Node1&#45;&gt;Node2 -->
<g id="edge1" class="edge">
<title>Node1&#45;&gt;Node2</title>
<path fill="none" stroke="#191970" d="M387.5835,-368.0709C369.5757,-386.393 343.0003,-411.7593 316.919,-430.5 305.7296,-438.5401 292.6504,-446.0972 280.8651,-452.3219"/>
<polygon fill="#191970" stroke="#191970" points="390.2952,-370.3025 394.7502,-360.6897 385.273,-365.4262 390.2952,-370.3025"/>
</g>
<!-- Node4 -->
<g id="node4" class="node">
<title>Node4</title>
<g id="a_node4"><a xlink:href="class_l_f_s_t_k__menu_class_a063a1196c3267ebac0f6e2f118ad4647.xhtml#a063a1196c3267ebac0f6e2f118ad4647" target="_top" xlink:title=" ">
<polygon fill="none" stroke="#000000" points="177.569,-255.5 177.569,-287.5 316.919,-287.5 316.919,-255.5 177.569,-255.5"/>
<text text-anchor="start" x="185.569" y="-274.5" font-family="Helvetica,sans-Serif" font-size="10.00" fill="#000000">LFSTK_menuClass::LFSTK</text>
<text text-anchor="middle" x="247.244" y="-262.5" font-family="Helvetica,sans-Serif" font-size="10.00" fill="#000000">_addMainMenus</text>
</a>
</g>
</g>
<!-- Node1&#45;&gt;Node4 -->
<g id="edge3" class="edge">
<title>Node1&#45;&gt;Node4</title>
<path fill="none" stroke="#191970" d="M372.1206,-323.5799C355.4488,-314.7064 335.457,-304.5726 316.919,-296.5 309.8494,-293.4214 302.2662,-290.4126 294.7987,-287.61"/>
<polygon fill="#191970" stroke="#191970" points="370.5456,-326.7068 381.0108,-328.3588 373.86,-320.5412 370.5456,-326.7068"/>
</g>
<!-- Node5 -->
<g id="node5" class="node">
<title>Node5</title>
<g id="a_node5"><a xlink:href="class_l_f_s_t_k__file_dialog_class_a553ce8e885b0d60cbf515b7b3d1e8b65.xhtml#a553ce8e885b0d60cbf515b7b3d1e8b65" target="_top" xlink:title=" ">
<polygon fill="none" stroke="#000000" points="185.0745,-204.5 185.0745,-236.5 309.4135,-236.5 309.4135,-204.5 185.0745,-204.5"/>
<text text-anchor="start" x="193.0745" y="-223.5" font-family="Helvetica,sans-Serif" font-size="10.00" fill="#000000">LFSTK_fileDialogClass</text>
<text text-anchor="middle" x="247.244" y="-211.5" font-family="Helvetica,sans-Serif" font-size="10.00" fill="#000000">::LFSTK_fileDialogClass</text>
</a>
</g>
</g>
<!-- Node1&#45;&gt;Node5 -->
<g id="edge4" class="edge">
<title>Node1&#45;&gt;Node5</title>
<path fill="none" stroke="#191970" d="M392.2347,-319.9517C375.2093,-297.766 347.5351,-265.5952 316.919,-245.5 311.8694,-242.1856 306.3254,-239.2456 300.6388,-236.6541"/>
<polygon fill="#191970" stroke="#191970" points="389.6303,-322.3124 398.4337,-328.2073 395.228,-318.1091 389.6303,-322.3124"/>
</g>
<!-- Node6 -->
<g id="node6" class="node">
<title>Node6</title>
<g id="a_node6"><a xlink:href="class_l_f_s_t_k__list_gadget_class_ae3518016f28ec3cd261ad927c5691826.xhtml#ae3518016f28ec3cd261ad927c5691826" target="_top" xlink:title=" ">
<polygon fill="none" stroke="#000000" points="6.6645,-408.5 6.6645,-440.5 134.9045,-440.5 134.9045,-408.5 6.6645,-408.5"/>
<text text-anchor="start" x="14.6645" y="-427.5" font-family="Helvetica,sans-Serif" font-size="10.00" fill="#000000">LFSTK_listGadgetClass</text>
<text text-anchor="middle" x="70.7845" y="-415.5" font-family="Helvetica,sans-Serif" font-size="10.00" fill="#000000">::LFSTK_listGadgetClass</text>
</a>
</g>
</g>
<!-- Node1&#45;&gt;Node6 -->
<g id="edge5" class="edge">
<title>Node1&#45;&gt;Node6</title>
<path fill="none" stroke="#191970" d="M351.5124,-363.6609C340.0993,-367.139 328.1782,-370.5837 316.919,-373.5 255.6633,-389.366 184.835,-403.6204 134.9298,-412.9988"/>
<polygon fill="#191970" stroke="#191970" points="352.8627,-366.9069 361.3819,-360.6082 350.7942,-360.2195 352.8627,-366.9069"/>
</g>
<!-- Node7 -->
<g id="node7" class="node">
<title>Node7</title>
<g id="a_node7"><a xlink:href="class_l_f_s_t_k__scroll_bar_class_a3da4281c24ac345ba32a4636ce2af38b.xhtml#a3da4281c24ac345ba32a4636ce2af38b" target="_top" xlink:title=" ">
<polygon fill="none" stroke="#000000" points="9.7285,-357.5 9.7285,-389.5 131.8405,-389.5 131.8405,-357.5 9.7285,-357.5"/>
<text text-anchor="start" x="17.7285" y="-376.5" font-family="Helvetica,sans-Serif" font-size="10.00" fill="#000000">LFSTK_scrollBarClass</text>
<text text-anchor="middle" x="70.7845" y="-364.5" font-family="Helvetica,sans-Serif" font-size="10.00" fill="#000000">::LFSTK_scrollBarClass</text>
</a>
</g>
</g>
<!-- Node1&#45;&gt;Node7 -->
<g id="edge6" class="edge">
<title>Node1&#45;&gt;Node7</title>
<path fill="none" stroke="#191970" d="M342.716,-350.2399C281.3326,-355.4904 191.2924,-363.1922 131.8758,-368.2745"/>
<polygon fill="#191970" stroke="#191970" points="343.0257,-353.7263 352.691,-349.3867 342.4291,-346.7517 343.0257,-353.7263"/>
</g>
<!-- Node8 -->
<g id="node8" class="node">
<title>Node8</title>
<g id="a_node8"><a xlink:href="class_l_f_s_t_k__gadget_class_a13d0e1c40a4feae0531c0ce9188bcd62.xhtml#a13d0e1c40a4feae0531c0ce9188bcd62" target="_top" xlink:title=" ">
<polygon fill="none" stroke="#000000" points="190.3425,-306.5 190.3425,-338.5 304.1455,-338.5 304.1455,-306.5 190.3425,-306.5"/>
<text text-anchor="start" x="198.3425" y="-325.5" font-family="Helvetica,sans-Serif" font-size="10.00" fill="#000000">LFSTK_gadgetClass::</text>
<text text-anchor="middle" x="247.244" y="-313.5" font-family="Helvetica,sans-Serif" font-size="10.00" fill="#000000">LFSTK_setCommon</text>
</a>
</g>
</g>
<!-- Node1&#45;&gt;Node8 -->
<g id="edge7" class="edge">
<title>Node1&#45;&gt;Node8</title>
<path fill="none" stroke="#191970" d="M342.4607,-335.3848C329.7848,-333.6695 316.6431,-331.8911 304.3186,-330.2234"/>
<polygon fill="#191970" stroke="#191970" points="342.1231,-338.8709 352.5021,-336.7436 343.0618,-331.9342 342.1231,-338.8709"/>
</g>
<!-- Node3 -->
<g id="node3" class="node">
<title>Node3</title>
<g id="a_node3"><a xlink:href="class_l_f_s_t_k__font_dialog_class_ab7b6a4bca99713646ab6ac77dc34827c.xhtml#ab7b6a4bca99713646ab6ac77dc34827c" target="_top" xlink:title=" ">
<polygon fill="none" stroke="#000000" points="6.665,-459.5 6.665,-491.5 134.904,-491.5 134.904,-459.5 6.665,-459.5"/>
<text text-anchor="start" x="14.665" y="-478.5" font-family="Helvetica,sans-Serif" font-size="10.00" fill="#000000">LFSTK_fontDialogClass</text>
<text text-anchor="middle" x="70.7845" y="-466.5" font-family="Helvetica,sans-Serif" font-size="10.00" fill="#000000">::LFSTK_fontDialogClass</text>
</a>
</g>
</g>
<!-- Node2&#45;&gt;Node3 -->
<g id="edge2" class="edge">
<title>Node2&#45;&gt;Node3</title>
<path fill="none" stroke="#191970" d="M175.451,-471.348C162.1147,-471.877 148.2589,-472.4267 135.1614,-472.9462"/>
<polygon fill="#191970" stroke="#191970" points="175.6737,-474.842 185.527,-470.9483 175.3961,-467.8475 175.6737,-474.842"/>
</g>
<!-- Node8&#45;&gt;Node3 -->
<g id="edge9" class="edge">
<title>Node8&#45;&gt;Node3</title>
<path fill="none" stroke="#191970" d="M232.6712,-347.2672C214.6496,-375.8971 181.4224,-422.6411 141.569,-450.5 136.7622,-453.8601 131.4581,-456.8115 125.9801,-459.3938"/>
<polygon fill="#191970" stroke="#191970" points="235.7115,-349.0049 237.9771,-338.6551 229.7518,-345.333 235.7115,-349.0049"/>
</g>
<!-- Node8&#45;&gt;Node6 -->
<g id="edge13" class="edge">
<title>Node8&#45;&gt;Node6</title>
<path fill="none" stroke="#191970" d="M220.071,-345.2116C199.4885,-361.6056 169.993,-383.421 141.569,-398.5 134.7456,-402.1198 127.3076,-405.4522 119.9006,-408.4372"/>
<polygon fill="#191970" stroke="#191970" points="222.4613,-347.7802 228.0448,-338.776 218.0649,-342.333 222.4613,-347.7802"/>
</g>
<!-- Node8&#45;&gt;Node7 -->
<g id="edge16" class="edge">
<title>Node8&#45;&gt;Node7</title>
<path fill="none" stroke="#191970" d="M181.7305,-341.4346C163.4891,-346.7067 143.8577,-352.3805 126.2542,-357.4683"/>
<polygon fill="#191970" stroke="#191970" points="182.7761,-344.7757 191.4111,-338.6367 180.8325,-338.0509 182.7761,-344.7757"/>
</g>
<!-- Node9 -->
<g id="node9" class="node">
<title>Node9</title>
<g id="a_node9"><a xlink:href="class_l_f_s_t_k__button_class_a2b46d2136069e61fc8c8ee88519b2a8f.xhtml#a2b46d2136069e61fc8c8ee88519b2a8f" target="_top" xlink:title=" ">
<polygon fill="none" stroke="#000000" points="15.273,-204.5 15.273,-236.5 126.296,-236.5 126.296,-204.5 15.273,-204.5"/>
<text text-anchor="start" x="23.273" y="-223.5" font-family="Helvetica,sans-Serif" font-size="10.00" fill="#000000">LFSTK_buttonClass::</text>
<text text-anchor="middle" x="70.7845" y="-211.5" font-family="Helvetica,sans-Serif" font-size="10.00" fill="#000000">LFSTK_buttonClass</text>
</a>
</g>
</g>
<!-- Node8&#45;&gt;Node9 -->
<g id="edge8" class="edge">
<title>Node8&#45;&gt;Node9</title>
<path fill="none" stroke="#191970" d="M184.8317,-301.4933C182.3046,-299.9359 179.8699,-298.2734 177.569,-296.5 155.5938,-279.5628 163.6928,-262.2427 141.569,-245.5 136.9963,-242.0395 131.9045,-239.0301 126.607,-236.4188"/>
<polygon fill="#191970" stroke="#191970" points="183.2728,-304.6305 193.7202,-306.392 186.6516,-298.4999 183.2728,-304.6305"/>
</g>
<!-- Node10 -->
<g id="node10" class="node">
<title>Node10</title>
<g id="a_node10"><a xlink:href="class_l_f_s_t_k__image_class_aff24b6452cb0a5d821b81770aa8f58d5.xhtml#aff24b6452cb0a5d821b81770aa8f58d5" target="_top" xlink:title=" ">
<polygon fill="none" stroke="#000000" points="0,-153.5 0,-185.5 141.569,-185.5 141.569,-153.5 0,-153.5"/>
<text text-anchor="start" x="8" y="-172.5" font-family="Helvetica,sans-Serif" font-size="10.00" fill="#000000">LFSTK_imageClass::LFSTK</text>
<text text-anchor="middle" x="70.7845" y="-160.5" font-family="Helvetica,sans-Serif" font-size="10.00" fill="#000000">_imageClass</text>
</a>
</g>
</g>
<!-- Node8&#45;&gt;Node10 -->
<g id="edge10" class="edge">
<title>Node8&#45;&gt;Node10</title>
<path fill="none" stroke="#191970" d="M182.0929,-300.6162C180.5074,-299.3213 178.994,-297.9507 177.569,-296.5 143.8805,-262.2043 175.5588,-228.4971 141.569,-194.5 138.1596,-191.0898 134.257,-188.1432 130.0752,-185.5973"/>
<polygon fill="#191970" stroke="#191970" points="180.3344,-303.656 190.5461,-306.4797 184.3241,-297.9042 180.3344,-303.656"/>
</g>
<!-- Node11 -->
<g id="node11" class="node">
<title>Node11</title>
<g id="a_node11"><a xlink:href="class_l_f_s_t_k__label_class_a6085feaa122a3d1060351c659889628c.xhtml#a6085feaa122a3d1060351c659889628c" target="_top" xlink:title=" ">
<polygon fill="none" stroke="#000000" points="3.055,-102.5 3.055,-134.5 138.514,-134.5 138.514,-102.5 3.055,-102.5"/>
<text text-anchor="start" x="11.055" y="-121.5" font-family="Helvetica,sans-Serif" font-size="10.00" fill="#000000">LFSTK_labelClass::LFSTK</text>
<text text-anchor="middle" x="70.7845" y="-109.5" font-family="Helvetica,sans-Serif" font-size="10.00" fill="#000000">_labelClass</text>
</a>
</g>
</g>
<!-- Node8&#45;&gt;Node11 -->
<g id="edge11" class="edge">
<title>Node8&#45;&gt;Node11</title>
<path fill="none" stroke="#191970" d="M181.8801,-300.8142C180.3562,-299.4619 178.9135,-298.0256 177.569,-296.5 131.3823,-244.0902 188.2164,-195.5002 141.569,-143.5 138.523,-140.1045 134.9868,-137.1701 131.1514,-134.6343"/>
<polygon fill="#191970" stroke="#191970" points="179.9767,-303.7598 190.0959,-306.8986 184.1427,-298.1344 179.9767,-303.7598"/>
</g>
<!-- Node12 -->
<g id="node12" class="node">
<title>Node12</title>
<g id="a_node12"><a xlink:href="class_l_f_s_t_k__line_edit_class_af610951625203a6d75bce118b2b94386.xhtml#af610951625203a6d75bce118b2b94386" target="_top" xlink:title=" ">
<polygon fill="none" stroke="#000000" points="12.779,-51.5 12.779,-83.5 128.79,-83.5 128.79,-51.5 12.779,-51.5"/>
<text text-anchor="start" x="20.779" y="-70.5" font-family="Helvetica,sans-Serif" font-size="10.00" fill="#000000">LFSTK_lineEditClass</text>
<text text-anchor="middle" x="70.7845" y="-58.5" font-family="Helvetica,sans-Serif" font-size="10.00" fill="#000000">::LFSTK_lineEditClass</text>
</a>
</g>
</g>
<!-- Node8&#45;&gt;Node12 -->
<g id="edge12" class="edge">
<title>Node8&#45;&gt;Node12</title>
<path fill="none" stroke="#191970" d="M181.8716,-301.0112C180.3414,-299.6019 178.9009,-298.1002 177.569,-296.5 118.67,-225.7374 201.0901,-162.7401 141.569,-92.5 138.0302,-88.3239 133.7473,-84.8452 129.0597,-81.9474"/>
<polygon fill="#191970" stroke="#191970" points="180.1,-304.0604 190.1822,-307.3162 184.3309,-298.4837 180.1,-304.0604"/>
</g>
<!-- Node13 -->
<g id="node13" class="node">
<title>Node13</title>
<g id="a_node13"><a xlink:href="class_l_f_s_t_k__menu_item_class_a382a9775dff59f06606ef0b3f43382cc.xhtml#a382a9775dff59f06606ef0b3f43382cc" target="_top" xlink:title=" ">
<polygon fill="none" stroke="#000000" points="6.944,-.5 6.944,-32.5 134.625,-32.5 134.625,-.5 6.944,-.5"/>
<text text-anchor="start" x="14.944" y="-19.5" font-family="Helvetica,sans-Serif" font-size="10.00" fill="#000000">LFSTK_menuItemClass</text>
<text text-anchor="middle" x="70.7845" y="-7.5" font-family="Helvetica,sans-Serif" font-size="10.00" fill="#000000">::LFSTK_menuItemClass</text>
</a>
</g>
</g>
<!-- Node8&#45;&gt;Node13 -->
<g id="edge14" class="edge">
<title>Node8&#45;&gt;Node13</title>
<path fill="none" stroke="#191970" d="M181.7986,-301.071C180.2894,-299.6444 178.8731,-298.1228 177.569,-296.5 105.8714,-207.2817 214.0511,-130.0821 141.569,-41.5 138.7629,-38.0706 135.4535,-35.1111 131.8242,-32.5572"/>
<polygon fill="#191970" stroke="#191970" points="179.9785,-304.0882 190.0286,-307.4418 184.2634,-298.5528 179.9785,-304.0882"/>
</g>
<!-- Node14 -->
<g id="node14" class="node">
<title>Node14</title>
<g id="a_node14"><a xlink:href="class_l_f_s_t_k__multi_line_edit_class_a3319d21c84b3437e69bb87dc77531322.xhtml#a3319d21c84b3437e69bb87dc77531322" target="_top" xlink:title=" ">
<polygon fill="none" stroke="#000000" points=".5565,-306.5 .5565,-338.5 141.0125,-338.5 141.0125,-306.5 .5565,-306.5"/>
<text text-anchor="start" x="8.5565" y="-325.5" font-family="Helvetica,sans-Serif" font-size="10.00" fill="#000000">LFSTK_multiLineEditClass</text>
<text text-anchor="middle" x="70.7845" y="-313.5" font-family="Helvetica,sans-Serif" font-size="10.00" fill="#000000">::LFSTK_multiLineEditClass</text>
</a>
</g>
</g>
<!-- Node8&#45;&gt;Node14 -->
<g id="edge15" class="edge">
<title>Node8&#45;&gt;Node14</title>
<path fill="none" stroke="#191970" d="M179.9064,-322.5C167.1882,-322.5 153.8554,-322.5 141.0498,-322.5"/>
<polygon fill="#191970" stroke="#191970" points="179.9527,-326.0001 189.9527,-322.5 179.9526,-319.0001 179.9527,-326.0001"/>
</g>
<!-- Node15 -->
<g id="node15" class="node">
<title>Node15</title>
<g id="a_node15"><a xlink:href="class_l_f_s_t_k__toggle_button_class_a4cc0929a4d4113b9b40a3bdc54898ab7.xhtml#a4cc0929a4d4113b9b40a3bdc54898ab7" target="_top" xlink:title=" ">
<polygon fill="none" stroke="#000000" points="1.101,-255.5 1.101,-287.5 140.468,-287.5 140.468,-255.5 1.101,-255.5"/>
<text text-anchor="start" x="9.101" y="-274.5" font-family="Helvetica,sans-Serif" font-size="10.00" fill="#000000">LFSTK_toggleButtonClass</text>
<text text-anchor="middle" x="70.7845" y="-262.5" font-family="Helvetica,sans-Serif" font-size="10.00" fill="#000000">::LFSTK_toggleButtonClass</text>
</a>
</g>
</g>
<!-- Node8&#45;&gt;Node15 -->
<g id="edge17" class="edge">
<title>Node8&#45;&gt;Node15</title>
<path fill="none" stroke="#191970" d="M181.7305,-303.5654C163.4891,-298.2933 143.8577,-292.6195 126.2542,-287.5317"/>
<polygon fill="#191970" stroke="#191970" points="180.8325,-306.9491 191.4111,-306.3633 182.7761,-300.2243 180.8325,-306.9491"/>
</g>
</g>
</svg>
        <g id="navigator" transform="translate(0 0)" fill="#404254">
                <rect fill="#f2f5e9" fill-opacity="0.5" stroke="#606060" stroke-width=".5" x="0" y="0" width="60" height="60"/>
                <use id="zoomplus" xlink:href="#zoomPlus" x="17" y="9" onmousedown="handleZoom(evt,'in')"/>
                <use id="zoomminus" xlink:href="#zoomMin" x="42" y="9" onmousedown="handleZoom(evt,'out')"/>
                <use id="reset" xlink:href="#resetDef" x="30" y="36" onmousedown="handleReset()"/>
                <g id="arrowUp" xlink:href="#dirArrow" transform="translate(30 24)" onmousedown="handlePan(0,-1)">
                  <use xlink:href="#rim" fill="#404040">
                        <set attributeName="fill" to="#808080" begin="arrowUp.mouseover" end="arrowUp.mouseout"/>
                  </use>
                  <path fill="none" stroke="white" stroke-width="1.5" d="M0,-3.0v7 M-2.5,-0.5L0,-3.0L2.5,-0.5"/>
                </g>
                <g id="arrowRight" xlink:href="#dirArrow" transform="rotate(90) translate(36 -43)" onmousedown="handlePan(1,0)">
                  <use xlink:href="#rim" fill="#404040">
                        <set attributeName="fill" to="#808080" begin="arrowRight.mouseover" end="arrowRight.mouseout"/>
                  </use>
                  <path fill="none" stroke="white" stroke-width="1.5" d="M0,-3.0v7 M-2.5,-0.5L0,-3.0L2.5,-0.5"/>
                </g>
                <g id="arrowDown" xlink:href="#dirArrow" transform="rotate(180) translate(-30 -48)" onmousedown="handlePan(0,1)">
                  <use xlink:href="#rim" fill="#404040">
                        <set attributeName="fill" to="#808080" begin="arrowDown.mouseover" end="arrowDown.mouseout"/>
                  </use>
                  <path fill="none" stroke="white" stroke-width="1.5" d="M0,-3.0v7 M-2.5,-0.5L0,-3.0L2.5,-0.5"/>
                </g>
                <g id="arrowLeft" xlink:href="#dirArrow" transform="rotate(270) translate(-36 17)" onmousedown="handlePan(-1,0)">
                  <use xlink:href="#rim" fill="#404040">
                        <set attributeName="fill" to="#808080" begin="arrowLeft.mouseover" end="arrowLeft.mouseout"/>
                  </use>
                  <path fill="none" stroke="white" stroke-width="1.5" d="M0,-3.0v7 M-2.5,-0.5L0,-3.0L2.5,-0.5"/>
                </g>
        </g>
        <svg viewBox="0 0 15 15" width="100%" height="30px" preserveAspectRatio="xMaxYMin meet">
         <g id="arrow_out" transform="scale(0.3 0.3)">
          <a xlink:href="class_l_f_s_t_k__gadget_class_aced9a8cea74d44e3da0faa45ea8ec85c_aced9a8cea74d44e3da0faa45ea8ec85c_icgraph_org.svg" target="_base">
           <rect id="button" ry="5" rx="5" y="6" x="6" height="38" width="38"
                fill="#f2f5e9" fill-opacity="0.5" stroke="#606060" stroke-width="1.0"/>
           <path id="arrow"
             d="M 11.500037,31.436501 C 11.940474,20.09759 22.043105,11.32322 32.158766,21.979434 L 37.068811,17.246167 C 37.068811,17.246167 37.088388,32 37.088388,32 L 22.160133,31.978069 C 22.160133,31.978069 26.997745,27.140456 26.997745,27.140456 C 18.528582,18.264221 13.291696,25.230495 11.500037,31.436501 z"
             style="fill:#404040;"/>
          </a>
         </g>
        </svg>
</svg>
