<?xml version="1.0" encoding="UTF-8" standalone="no"?>
<!DOCTYPE svg PUBLIC "-//W3C//DTD SVG 1.1//EN"
 "http://www.w3.org/Graphics/SVG/1.1/DTD/svg11.dtd">
<!-- Generated by graphviz version 2.40.1 (20161225.0304)
 -->
<!-- Title: LFSTK_windowClass::LFSTK_clearWindow Pages: 1 -->
<svg width="747pt" height="252pt"
 viewBox="0.00 0.00 746.55 252.00" xmlns="http://www.w3.org/2000/svg" xmlns:xlink="http://www.w3.org/1999/xlink">
<g id="graph0" class="graph" transform="scale(1 1) rotate(0) translate(4 248)">
<title>LFSTK_windowClass::LFSTK_clearWindow</title>
<!-- Node1 -->
<g id="node1" class="node">
<title>Node1</title>
<g id="a_node1"><a xlink:title=" ">
<polygon fill="#bfbfbf" stroke="#000000" points="0,-121.5 0,-153.5 116.563,-153.5 116.563,-121.5 0,-121.5"/>
<text text-anchor="start" x="8" y="-140.5" font-family="Helvetica,sans-Serif" font-size="10.00" fill="#000000">LFSTK_windowClass::</text>
<text text-anchor="middle" x="58.2815" y="-128.5" font-family="Helvetica,sans-Serif" font-size="10.00" fill="#000000">LFSTK_clearWindow</text>
</a>
</g>
</g>
<!-- Node2 -->
<g id="node2" class="node">
<title>Node2</title>
<g id="a_node2"><a xlink:href="class_l_f_s_t_k__gadget_class_aa5b5f301fe9b0a4d7679f786da7462ba.xhtml#aa5b5f301fe9b0a4d7679f786da7462ba" target="_top" xlink:title=" ">
<polygon fill="none" stroke="#000000" points="152.563,-121.5 152.563,-153.5 266.366,-153.5 266.366,-121.5 152.563,-121.5"/>
<text text-anchor="start" x="160.563" y="-140.5" font-family="Helvetica,sans-Serif" font-size="10.00" fill="#000000">LFSTK_gadgetClass::</text>
<text text-anchor="middle" x="209.4645" y="-128.5" font-family="Helvetica,sans-Serif" font-size="10.00" fill="#000000">LFSTK_clearWindow</text>
</a>
</g>
</g>
<!-- Node1&#45;&gt;Node2 -->
<g id="edge1" class="edge">
<title>Node1&#45;&gt;Node2</title>
<path fill="none" stroke="#191970" d="M116.7328,-137.5C125.003,-137.5 133.5621,-137.5 141.9854,-137.5"/>
<polygon fill="#191970" stroke="#191970" points="142.1639,-141.0001 152.1639,-137.5 142.1638,-134.0001 142.1639,-141.0001"/>
</g>
<!-- Node3 -->
<g id="node3" class="node">
<title>Node3</title>
<g id="a_node3"><a xlink:href="class_l_f_s_t_k__gadget_class_a66b92f213e5a7e75da3f707b511342ea.xhtml#a66b92f213e5a7e75da3f707b511342ea" target="_top" xlink:title=" ">
<polygon fill="none" stroke="#000000" points="302.366,-121.5 302.366,-153.5 416.169,-153.5 416.169,-121.5 302.366,-121.5"/>
<text text-anchor="start" x="310.366" y="-140.5" font-family="Helvetica,sans-Serif" font-size="10.00" fill="#000000">LFSTK_gadgetClass::</text>
<text text-anchor="middle" x="359.2675" y="-128.5" font-family="Helvetica,sans-Serif" font-size="10.00" fill="#000000">drawGagetDetails</text>
</a>
</g>
</g>
<!-- Node2&#45;&gt;Node3 -->
<g id="edge2" class="edge">
<title>Node2&#45;&gt;Node3</title>
<path fill="none" stroke="#191970" d="M266.5259,-137.5C274.9649,-137.5 283.7246,-137.5 292.3419,-137.5"/>
<polygon fill="#191970" stroke="#191970" points="292.3648,-141.0001 302.3647,-137.5 292.3647,-134.0001 292.3648,-141.0001"/>
</g>
<!-- Node4 -->
<g id="node4" class="node">
<title>Node4</title>
<g id="a_node4"><a xlink:href="class_l_f_s_t_k__gadget_class_a37d96aab3c59cb97fca1720441e3fc8e.xhtml#a37d96aab3c59cb97fca1720441e3fc8e" target="_top" xlink:title=" ">
<polygon fill="none" stroke="#000000" points="452.169,-211.5 452.169,-243.5 565.972,-243.5 565.972,-211.5 452.169,-211.5"/>
<text text-anchor="start" x="460.169" y="-230.5" font-family="Helvetica,sans-Serif" font-size="10.00" fill="#000000">LFSTK_gadgetClass::</text>
<text text-anchor="middle" x="509.0705" y="-218.5" font-family="Helvetica,sans-Serif" font-size="10.00" fill="#000000">clearBox</text>
</a>
</g>
</g>
<!-- Node3&#45;&gt;Node4 -->
<g id="edge3" class="edge">
<title>Node3&#45;&gt;Node4</title>
<path fill="none" stroke="#191970" d="M383.83,-153.7326C402.3984,-165.8483 428.6274,-182.6328 452.169,-196.5 457.7667,-199.7973 463.7346,-203.1846 469.6207,-206.4533"/>
<polygon fill="#191970" stroke="#191970" points="468.2884,-209.7148 478.7381,-211.4625 471.6591,-203.5797 468.2884,-209.7148"/>
</g>
<!-- Node5 -->
<g id="node5" class="node">
<title>Node5</title>
<g id="a_node5"><a xlink:href="class_l_f_s_t_k__gadget_class_ab76db165a19af248b5e94e95492dc879.xhtml#ab76db165a19af248b5e94e95492dc879" target="_top" xlink:title=" ">
<polygon fill="none" stroke="#000000" points="613.3585,-128.5 613.3585,-160.5 727.1615,-160.5 727.1615,-128.5 613.3585,-128.5"/>
<text text-anchor="start" x="621.3585" y="-147.5" font-family="Helvetica,sans-Serif" font-size="10.00" fill="#000000">LFSTK_gadgetClass::</text>
<text text-anchor="middle" x="670.26" y="-135.5" font-family="Helvetica,sans-Serif" font-size="10.00" fill="#000000">drawBevel</text>
</a>
</g>
</g>
<!-- Node3&#45;&gt;Node5 -->
<g id="edge4" class="edge">
<title>Node3&#45;&gt;Node5</title>
<path fill="none" stroke="#191970" d="M406.9583,-153.5327C421.3198,-157.6275 437.2355,-161.4497 452.169,-163.5 502.278,-170.3797 515.5981,-168.0513 565.972,-163.5 578.0004,-162.4132 590.715,-160.6351 602.9737,-158.5914"/>
<polygon fill="#191970" stroke="#191970" points="603.8872,-161.9851 613.1387,-156.8217 602.6865,-155.0889 603.8872,-161.9851"/>
</g>
<!-- Node6 -->
<g id="node6" class="node">
<title>Node6</title>
<g id="a_node6"><a xlink:href="class_l_f_s_t_k__gadget_class_af5386ffc4699273f6c53a920fc8b2f1d.xhtml#af5386ffc4699273f6c53a920fc8b2f1d" target="_top" xlink:title=" ">
<polygon fill="none" stroke="#000000" points="452.169,-121.5 452.169,-153.5 565.972,-153.5 565.972,-121.5 452.169,-121.5"/>
<text text-anchor="start" x="460.169" y="-140.5" font-family="Helvetica,sans-Serif" font-size="10.00" fill="#000000">LFSTK_gadgetClass::</text>
<text text-anchor="middle" x="509.0705" y="-128.5" font-family="Helvetica,sans-Serif" font-size="10.00" fill="#000000">drawImage</text>
</a>
</g>
</g>
<!-- Node3&#45;&gt;Node6 -->
<g id="edge5" class="edge">
<title>Node3&#45;&gt;Node6</title>
<path fill="none" stroke="#191970" d="M416.3289,-137.5C424.7679,-137.5 433.5276,-137.5 442.1449,-137.5"/>
<polygon fill="#191970" stroke="#191970" points="442.1678,-141.0001 452.1677,-137.5 442.1677,-134.0001 442.1678,-141.0001"/>
</g>
<!-- Node7 -->
<g id="node7" class="node">
<title>Node7</title>
<g id="a_node7"><a xlink:href="class_l_f_s_t_k__gadget_class_af77235e4dc604470c9d62f101238225b.xhtml#af77235e4dc604470c9d62f101238225b" target="_top" xlink:title=" ">
<polygon fill="none" stroke="#000000" points="452.169,-70.5 452.169,-102.5 565.972,-102.5 565.972,-70.5 452.169,-70.5"/>
<text text-anchor="start" x="460.169" y="-89.5" font-family="Helvetica,sans-Serif" font-size="10.00" fill="#000000">LFSTK_gadgetClass::</text>
<text text-anchor="middle" x="509.0705" y="-77.5" font-family="Helvetica,sans-Serif" font-size="10.00" fill="#000000">drawIndicator</text>
</a>
</g>
</g>
<!-- Node3&#45;&gt;Node7 -->
<g id="edge6" class="edge">
<title>Node3&#45;&gt;Node7</title>
<path fill="none" stroke="#191970" d="M406.6661,-121.3633C421.1511,-116.4319 437.2297,-110.958 452.272,-105.8369"/>
<polygon fill="#191970" stroke="#191970" points="453.6418,-109.0679 461.9802,-102.5317 451.3858,-102.4414 453.6418,-109.0679"/>
</g>
<!-- Node8 -->
<g id="node8" class="node">
<title>Node8</title>
<g id="a_node8"><a xlink:href="class_l_f_s_t_k__gadget_class_a7f44f781b167d66c5d6f4cc862a7e2db.xhtml#a7f44f781b167d66c5d6f4cc862a7e2db" target="_top" xlink:title=" ">
<polygon fill="none" stroke="#000000" points="452.169,-19.5 452.169,-51.5 565.972,-51.5 565.972,-19.5 452.169,-19.5"/>
<text text-anchor="start" x="460.169" y="-38.5" font-family="Helvetica,sans-Serif" font-size="10.00" fill="#000000">LFSTK_gadgetClass::</text>
<text text-anchor="middle" x="509.0705" y="-26.5" font-family="Helvetica,sans-Serif" font-size="10.00" fill="#000000">drawLabel</text>
</a>
</g>
</g>
<!-- Node3&#45;&gt;Node8 -->
<g id="edge8" class="edge">
<title>Node3&#45;&gt;Node8</title>
<path fill="none" stroke="#191970" d="M375.637,-121.4985C393.3945,-104.748 423.1127,-78.4356 452.169,-60.5 454.4989,-59.0618 456.9259,-57.6631 459.408,-56.3102"/>
<polygon fill="#191970" stroke="#191970" points="461.2557,-59.2963 468.5612,-51.623 458.065,-53.0658 461.2557,-59.2963"/>
</g>
<!-- Node7&#45;&gt;Node5 -->
<g id="edge7" class="edge">
<title>Node7&#45;&gt;Node5</title>
<path fill="none" stroke="#191970" d="M553.5429,-102.5023C572.9303,-109.4784 595.8339,-117.7196 616.1948,-125.046"/>
<polygon fill="#191970" stroke="#191970" points="615.0587,-128.3568 625.6532,-128.4493 617.4288,-121.7703 615.0587,-128.3568"/>
</g>
<!-- Node9 -->
<g id="node9" class="node">
<title>Node9</title>
<g id="a_node9"><a xlink:href="class_l_f_s_t_k__lib_ab2f14a3414f7db863682d1e2fa0cfb75.xhtml#ab2f14a3414f7db863682d1e2fa0cfb75" target="_top" xlink:title=" ">
<polygon fill="none" stroke="#000000" points="601.972,-51.5 601.972,-71.5 738.548,-71.5 738.548,-51.5 601.972,-51.5"/>
<text text-anchor="middle" x="670.26" y="-58.5" font-family="Helvetica,sans-Serif" font-size="10.00" fill="#000000">LFSTK_lib::bestFontColour</text>
</a>
</g>
</g>
<!-- Node8&#45;&gt;Node9 -->
<g id="edge9" class="edge">
<title>Node8&#45;&gt;Node9</title>
<path fill="none" stroke="#191970" d="M566.3537,-44.7398C576.6398,-46.399 587.4802,-48.1475 598.1217,-49.864"/>
<polygon fill="#191970" stroke="#191970" points="597.8091,-53.3588 608.2389,-51.4959 598.9239,-46.4481 597.8091,-53.3588"/>
</g>
<!-- Node10 -->
<g id="node10" class="node">
<title>Node10</title>
<g id="a_node10"><a xlink:href="class_l_f_s_t_k__gadget_class_a091281ba03eaeb31bc7507c74b9b4f2f.xhtml#a091281ba03eaeb31bc7507c74b9b4f2f" target="_top" xlink:title=" ">
<polygon fill="none" stroke="#000000" points="612.804,-.5 612.804,-32.5 727.716,-32.5 727.716,-.5 612.804,-.5"/>
<text text-anchor="start" x="620.804" y="-19.5" font-family="Helvetica,sans-Serif" font-size="10.00" fill="#000000">LFSTK_gadgetClass::</text>
<text text-anchor="middle" x="670.26" y="-7.5" font-family="Helvetica,sans-Serif" font-size="10.00" fill="#000000">LFSTK_getTextHeight</text>
</a>
</g>
</g>
<!-- Node8&#45;&gt;Node10 -->
<g id="edge10" class="edge">
<title>Node8&#45;&gt;Node10</title>
<path fill="none" stroke="#191970" d="M566.3537,-28.7478C578.0891,-27.3645 590.5459,-25.8962 602.6057,-24.4747"/>
<polygon fill="#191970" stroke="#191970" points="603.0966,-27.9411 612.6181,-23.2945 602.2771,-20.9892 603.0966,-27.9411"/>
</g>
</g>
</svg>
