<?xml version="1.0" encoding="UTF-8" standalone="no"?>
<!DOCTYPE svg PUBLIC "-//W3C//DTD SVG 1.1//EN"
 "http://www.w3.org/Graphics/SVG/1.1/DTD/svg11.dtd">
<!-- Generated by graphviz version 2.40.1 (20161225.0304)
 -->
<!-- Title: LFSTK_gadgetClass::initGadget Pages: 1 -->
<svg width="449pt" height="500pt"
 viewBox="0.00 0.00 449.18 500.00" xmlns="http://www.w3.org/2000/svg" xmlns:xlink="http://www.w3.org/1999/xlink">
<g id="graph0" class="graph" transform="scale(1 1) rotate(0) translate(4 496)">
<title>LFSTK_gadgetClass::initGadget</title>
<!-- Node1 -->
<g id="node1" class="node">
<title>Node1</title>
<g id="a_node1"><a xlink:title=" ">
<polygon fill="#bfbfbf" stroke="#000000" points="327.372,-229.5 327.372,-261.5 441.175,-261.5 441.175,-229.5 327.372,-229.5"/>
<text text-anchor="start" x="335.372" y="-248.5" font-family="Helvetica,sans-Serif" font-size="10.00" fill="#000000">LFSTK_gadgetClass::</text>
<text text-anchor="middle" x="384.2735" y="-236.5" font-family="Helvetica,sans-Serif" font-size="10.00" fill="#000000">initGadget</text>
</a>
</g>
</g>
<!-- Node2 -->
<g id="node2" class="node">
<title>Node2</title>
<g id="a_node2"><a xlink:href="class_l_f_s_t_k__gadget_class_a13d0e1c40a4feae0531c0ce9188bcd62.xhtml#a13d0e1c40a4feae0531c0ce9188bcd62" target="_top" xlink:title=" ">
<polygon fill="none" stroke="#000000" points="177.569,-229.5 177.569,-261.5 291.372,-261.5 291.372,-229.5 177.569,-229.5"/>
<text text-anchor="start" x="185.569" y="-248.5" font-family="Helvetica,sans-Serif" font-size="10.00" fill="#000000">LFSTK_gadgetClass::</text>
<text text-anchor="middle" x="234.4705" y="-236.5" font-family="Helvetica,sans-Serif" font-size="10.00" fill="#000000">LFSTK_setCommon</text>
</a>
</g>
</g>
<!-- Node1&#45;&gt;Node2 -->
<g id="edge1" class="edge">
<title>Node1&#45;&gt;Node2</title>
<path fill="none" stroke="#191970" d="M317.1859,-245.5C308.5668,-245.5 299.8082,-245.5 291.3733,-245.5"/>
<polygon fill="#191970" stroke="#191970" points="317.2121,-249.0001 327.2121,-245.5 317.212,-242.0001 317.2121,-249.0001"/>
</g>
<!-- Node3 -->
<g id="node3" class="node">
<title>Node3</title>
<g id="a_node3"><a xlink:href="class_l_f_s_t_k__button_class_a2b46d2136069e61fc8c8ee88519b2a8f.xhtml#a2b46d2136069e61fc8c8ee88519b2a8f" target="_top" xlink:title=" ">
<polygon fill="none" stroke="#000000" points="15.273,-459.5 15.273,-491.5 126.296,-491.5 126.296,-459.5 15.273,-459.5"/>
<text text-anchor="start" x="23.273" y="-478.5" font-family="Helvetica,sans-Serif" font-size="10.00" fill="#000000">LFSTK_buttonClass::</text>
<text text-anchor="middle" x="70.7845" y="-466.5" font-family="Helvetica,sans-Serif" font-size="10.00" fill="#000000">LFSTK_buttonClass</text>
</a>
</g>
</g>
<!-- Node2&#45;&gt;Node3 -->
<g id="edge2" class="edge">
<title>Node2&#45;&gt;Node3</title>
<path fill="none" stroke="#191970" d="M229.547,-271.6056C220.0783,-314.7825 195.3173,-401.1854 141.569,-450.5 137.1515,-454.5531 132.0361,-457.9568 126.6162,-460.8136"/>
<polygon fill="#191970" stroke="#191970" points="233.0165,-272.1128 231.6332,-261.6087 226.1641,-270.6828 233.0165,-272.1128"/>
</g>
<!-- Node4 -->
<g id="node4" class="node">
<title>Node4</title>
<g id="a_node4"><a xlink:href="class_l_f_s_t_k__font_dialog_class_ab7b6a4bca99713646ab6ac77dc34827c.xhtml#ab7b6a4bca99713646ab6ac77dc34827c" target="_top" xlink:title=" ">
<polygon fill="none" stroke="#000000" points="6.665,-408.5 6.665,-440.5 134.904,-440.5 134.904,-408.5 6.665,-408.5"/>
<text text-anchor="start" x="14.665" y="-427.5" font-family="Helvetica,sans-Serif" font-size="10.00" fill="#000000">LFSTK_fontDialogClass</text>
<text text-anchor="middle" x="70.7845" y="-415.5" font-family="Helvetica,sans-Serif" font-size="10.00" fill="#000000">::LFSTK_fontDialogClass</text>
</a>
</g>
</g>
<!-- Node2&#45;&gt;Node4 -->
<g id="edge3" class="edge">
<title>Node2&#45;&gt;Node4</title>
<path fill="none" stroke="#191970" d="M225.1548,-271.6836C211.7576,-305.756 183.9058,-365.0007 141.569,-399.5 137.4267,-402.8755 132.7955,-405.811 127.9385,-408.361"/>
<polygon fill="#191970" stroke="#191970" points="228.5646,-272.5638 228.8485,-261.9728 222.0219,-270.0752 228.5646,-272.5638"/>
</g>
<!-- Node5 -->
<g id="node5" class="node">
<title>Node5</title>
<g id="a_node5"><a xlink:href="class_l_f_s_t_k__image_class_aff24b6452cb0a5d821b81770aa8f58d5.xhtml#aff24b6452cb0a5d821b81770aa8f58d5" target="_top" xlink:title=" ">
<polygon fill="none" stroke="#000000" points="0,-357.5 0,-389.5 141.569,-389.5 141.569,-357.5 0,-357.5"/>
<text text-anchor="start" x="8" y="-376.5" font-family="Helvetica,sans-Serif" font-size="10.00" fill="#000000">LFSTK_imageClass::LFSTK</text>
<text text-anchor="middle" x="70.7845" y="-364.5" font-family="Helvetica,sans-Serif" font-size="10.00" fill="#000000">_imageClass</text>
</a>
</g>
</g>
<!-- Node2&#45;&gt;Node5 -->
<g id="edge4" class="edge">
<title>Node2&#45;&gt;Node5</title>
<path fill="none" stroke="#191970" d="M217.9149,-270.0167C201.1339,-293.1727 173.1898,-327.4102 141.569,-348.5 136.5814,-351.8265 131.1008,-354.7648 125.4653,-357.3469"/>
<polygon fill="#191970" stroke="#191970" points="220.8575,-271.9177 223.7842,-261.7351 215.1464,-267.8701 220.8575,-271.9177"/>
</g>
<!-- Node6 -->
<g id="node6" class="node">
<title>Node6</title>
<g id="a_node6"><a xlink:href="class_l_f_s_t_k__label_class_a6085feaa122a3d1060351c659889628c.xhtml#a6085feaa122a3d1060351c659889628c" target="_top" xlink:title=" ">
<polygon fill="none" stroke="#000000" points="3.055,-306.5 3.055,-338.5 138.514,-338.5 138.514,-306.5 3.055,-306.5"/>
<text text-anchor="start" x="11.055" y="-325.5" font-family="Helvetica,sans-Serif" font-size="10.00" fill="#000000">LFSTK_labelClass::LFSTK</text>
<text text-anchor="middle" x="70.7845" y="-313.5" font-family="Helvetica,sans-Serif" font-size="10.00" fill="#000000">_labelClass</text>
</a>
</g>
</g>
<!-- Node2&#45;&gt;Node6 -->
<g id="edge5" class="edge">
<title>Node2&#45;&gt;Node6</title>
<path fill="none" stroke="#191970" d="M199.5959,-266.8867C182.4714,-276.9017 161.319,-288.5639 141.569,-297.5 134.6821,-300.6161 127.2823,-303.6034 119.9557,-306.3604"/>
<polygon fill="#191970" stroke="#191970" points="201.8387,-269.6263 208.6607,-261.5201 198.2726,-263.6028 201.8387,-269.6263"/>
</g>
<!-- Node7 -->
<g id="node7" class="node">
<title>Node7</title>
<g id="a_node7"><a xlink:href="class_l_f_s_t_k__line_edit_class_af610951625203a6d75bce118b2b94386.xhtml#af610951625203a6d75bce118b2b94386" target="_top" xlink:title=" ">
<polygon fill="none" stroke="#000000" points="12.779,-255.5 12.779,-287.5 128.79,-287.5 128.79,-255.5 12.779,-255.5"/>
<text text-anchor="start" x="20.779" y="-274.5" font-family="Helvetica,sans-Serif" font-size="10.00" fill="#000000">LFSTK_lineEditClass</text>
<text text-anchor="middle" x="70.7845" y="-262.5" font-family="Helvetica,sans-Serif" font-size="10.00" fill="#000000">::LFSTK_lineEditClass</text>
</a>
</g>
</g>
<!-- Node2&#45;&gt;Node7 -->
<g id="edge6" class="edge">
<title>Node2&#45;&gt;Node7</title>
<path fill="none" stroke="#191970" d="M167.1507,-256.1931C154.434,-258.2131 141.2341,-260.3097 128.8325,-262.2796"/>
<polygon fill="#191970" stroke="#191970" points="167.894,-259.619 177.2211,-254.5935 166.7958,-252.7057 167.894,-259.619"/>
</g>
<!-- Node8 -->
<g id="node8" class="node">
<title>Node8</title>
<g id="a_node8"><a xlink:href="class_l_f_s_t_k__list_gadget_class_ae3518016f28ec3cd261ad927c5691826.xhtml#ae3518016f28ec3cd261ad927c5691826" target="_top" xlink:title=" ">
<polygon fill="none" stroke="#000000" points="6.6645,-204.5 6.6645,-236.5 134.9045,-236.5 134.9045,-204.5 6.6645,-204.5"/>
<text text-anchor="start" x="14.6645" y="-223.5" font-family="Helvetica,sans-Serif" font-size="10.00" fill="#000000">LFSTK_listGadgetClass</text>
<text text-anchor="middle" x="70.7845" y="-211.5" font-family="Helvetica,sans-Serif" font-size="10.00" fill="#000000">::LFSTK_listGadgetClass</text>
</a>
</g>
</g>
<!-- Node2&#45;&gt;Node8 -->
<g id="edge7" class="edge">
<title>Node2&#45;&gt;Node8</title>
<path fill="none" stroke="#191970" d="M167.1551,-235.2188C156.5227,-233.5949 145.5523,-231.9194 134.9931,-230.3067"/>
<polygon fill="#191970" stroke="#191970" points="166.8073,-238.7062 177.2211,-236.7562 167.8642,-231.7864 166.8073,-238.7062"/>
</g>
<!-- Node9 -->
<g id="node9" class="node">
<title>Node9</title>
<g id="a_node9"><a xlink:href="class_l_f_s_t_k__menu_item_class_a382a9775dff59f06606ef0b3f43382cc.xhtml#a382a9775dff59f06606ef0b3f43382cc" target="_top" xlink:title=" ">
<polygon fill="none" stroke="#000000" points="6.944,-153.5 6.944,-185.5 134.625,-185.5 134.625,-153.5 6.944,-153.5"/>
<text text-anchor="start" x="14.944" y="-172.5" font-family="Helvetica,sans-Serif" font-size="10.00" fill="#000000">LFSTK_menuItemClass</text>
<text text-anchor="middle" x="70.7845" y="-160.5" font-family="Helvetica,sans-Serif" font-size="10.00" fill="#000000">::LFSTK_menuItemClass</text>
</a>
</g>
</g>
<!-- Node2&#45;&gt;Node9 -->
<g id="edge8" class="edge">
<title>Node2&#45;&gt;Node9</title>
<path fill="none" stroke="#191970" d="M197.9634,-224.3012C181.0819,-214.9037 160.5946,-204.0621 141.569,-195.5 133.9283,-192.0615 125.684,-188.7172 117.6153,-185.635"/>
<polygon fill="#191970" stroke="#191970" points="196.5072,-227.4978 206.9389,-229.3498 199.939,-221.3967 196.5072,-227.4978"/>
</g>
<!-- Node10 -->
<g id="node10" class="node">
<title>Node10</title>
<g id="a_node10"><a xlink:href="class_l_f_s_t_k__multi_line_edit_class_a3319d21c84b3437e69bb87dc77531322.xhtml#a3319d21c84b3437e69bb87dc77531322" target="_top" xlink:title=" ">
<polygon fill="none" stroke="#000000" points=".5565,-102.5 .5565,-134.5 141.0125,-134.5 141.0125,-102.5 .5565,-102.5"/>
<text text-anchor="start" x="8.5565" y="-121.5" font-family="Helvetica,sans-Serif" font-size="10.00" fill="#000000">LFSTK_multiLineEditClass</text>
<text text-anchor="middle" x="70.7845" y="-109.5" font-family="Helvetica,sans-Serif" font-size="10.00" fill="#000000">::LFSTK_multiLineEditClass</text>
</a>
</g>
</g>
<!-- Node2&#45;&gt;Node10 -->
<g id="edge9" class="edge">
<title>Node2&#45;&gt;Node10</title>
<path fill="none" stroke="#191970" d="M217.4677,-221.1772C200.5383,-198.5513 172.6485,-165.2904 141.569,-144.5 135.9106,-140.7148 129.6304,-137.3947 123.2144,-134.5067"/>
<polygon fill="#191970" stroke="#191970" points="214.6702,-223.2811 223.4032,-229.28 220.3172,-219.1445 214.6702,-223.2811"/>
</g>
<!-- Node11 -->
<g id="node11" class="node">
<title>Node11</title>
<g id="a_node11"><a xlink:href="class_l_f_s_t_k__scroll_bar_class_a3da4281c24ac345ba32a4636ce2af38b.xhtml#a3da4281c24ac345ba32a4636ce2af38b" target="_top" xlink:title=" ">
<polygon fill="none" stroke="#000000" points="9.7285,-51.5 9.7285,-83.5 131.8405,-83.5 131.8405,-51.5 9.7285,-51.5"/>
<text text-anchor="start" x="17.7285" y="-70.5" font-family="Helvetica,sans-Serif" font-size="10.00" fill="#000000">LFSTK_scrollBarClass</text>
<text text-anchor="middle" x="70.7845" y="-58.5" font-family="Helvetica,sans-Serif" font-size="10.00" fill="#000000">::LFSTK_scrollBarClass</text>
</a>
</g>
</g>
<!-- Node2&#45;&gt;Node11 -->
<g id="edge10" class="edge">
<title>Node2&#45;&gt;Node11</title>
<path fill="none" stroke="#191970" d="M224.9991,-219.7349C211.43,-186.1916 183.3885,-127.8118 141.569,-93.5 136.9133,-89.6801 131.6453,-86.3935 126.1353,-83.5719"/>
<polygon fill="#191970" stroke="#191970" points="221.8374,-221.2597 228.7448,-229.2934 228.3549,-218.7057 221.8374,-221.2597"/>
</g>
<!-- Node12 -->
<g id="node12" class="node">
<title>Node12</title>
<g id="a_node12"><a xlink:href="class_l_f_s_t_k__toggle_button_class_a4cc0929a4d4113b9b40a3bdc54898ab7.xhtml#a4cc0929a4d4113b9b40a3bdc54898ab7" target="_top" xlink:title=" ">
<polygon fill="none" stroke="#000000" points="1.101,-.5 1.101,-32.5 140.468,-32.5 140.468,-.5 1.101,-.5"/>
<text text-anchor="start" x="9.101" y="-19.5" font-family="Helvetica,sans-Serif" font-size="10.00" fill="#000000">LFSTK_toggleButtonClass</text>
<text text-anchor="middle" x="70.7845" y="-7.5" font-family="Helvetica,sans-Serif" font-size="10.00" fill="#000000">::LFSTK_toggleButtonClass</text>
</a>
</g>
</g>
<!-- Node2&#45;&gt;Node12 -->
<g id="edge11" class="edge">
<title>Node2&#45;&gt;Node12</title>
<path fill="none" stroke="#191970" d="M229.332,-219.402C219.6021,-176.6433 194.5356,-91.5287 141.569,-42.5 137.4378,-38.6759 132.6973,-35.4029 127.6688,-32.6038"/>
<polygon fill="#191970" stroke="#191970" points="225.9415,-220.2824 231.4829,-229.3125 232.7822,-218.7976 225.9415,-220.2824"/>
</g>
</g>
</svg>
