<?xml version="1.0" encoding="UTF-8" standalone="no"?>
<!DOCTYPE svg PUBLIC "-//W3C//DTD SVG 1.1//EN"
 "http://www.w3.org/Graphics/SVG/1.1/DTD/svg11.dtd">
<!-- Generated by graphviz version 2.40.1 (20161225.0304)
 -->
<!-- Title: LFSTK_lineEditClass::LFSTK_clearWindow Pages: 1 -->
<svg width="942pt" height="503pt"
 viewBox="0.00 0.00 941.85 503.00" xmlns="http://www.w3.org/2000/svg" xmlns:xlink="http://www.w3.org/1999/xlink">
<g id="graph0" class="graph" transform="scale(1 1) rotate(0) translate(4 499)">
<title>LFSTK_lineEditClass::LFSTK_clearWindow</title>
<!-- Node1 -->
<g id="node1" class="node">
<title>Node1</title>
<g id="a_node1"><a xlink:title=" ">
<polygon fill="#bfbfbf" stroke="#000000" points="818.395,-217.5 818.395,-249.5 933.847,-249.5 933.847,-217.5 818.395,-217.5"/>
<text text-anchor="start" x="826.395" y="-236.5" font-family="Helvetica,sans-Serif" font-size="10.00" fill="#000000">LFSTK_lineEditClass</text>
<text text-anchor="middle" x="876.121" y="-224.5" font-family="Helvetica,sans-Serif" font-size="10.00" fill="#000000">::LFSTK_clearWindow</text>
</a>
</g>
</g>
<!-- Node2 -->
<g id="node2" class="node">
<title>Node2</title>
<g id="a_node2"><a xlink:href="class_l_f_s_t_k__font_dialog_class_ac2b51914d426e9ff7ba57211d5639514.xhtml#ac2b51914d426e9ff7ba57211d5639514" target="_top" xlink:title=" ">
<polygon fill="none" stroke="#000000" points="654.155,-423.5 654.155,-455.5 776.836,-455.5 776.836,-423.5 654.155,-423.5"/>
<text text-anchor="start" x="662.155" y="-442.5" font-family="Helvetica,sans-Serif" font-size="10.00" fill="#000000">LFSTK_fontDialogClass</text>
<text text-anchor="middle" x="715.4955" y="-430.5" font-family="Helvetica,sans-Serif" font-size="10.00" fill="#000000">::buildFontString</text>
</a>
</g>
</g>
<!-- Node1&#45;&gt;Node2 -->
<g id="edge1" class="edge">
<title>Node1&#45;&gt;Node2</title>
<path fill="none" stroke="#191970" d="M868.1877,-259.3105C855.5409,-296.6459 827.5282,-365.9019 782.395,-408.5 776.1578,-414.3869 768.603,-419.3157 760.8475,-423.3848"/>
<polygon fill="#191970" stroke="#191970" points="871.5571,-260.268 871.3487,-249.6752 864.9058,-258.0859 871.5571,-260.268"/>
</g>
<!-- Node9 -->
<g id="node9" class="node">
<title>Node9</title>
<g id="a_node9"><a xlink:href="class_l_f_s_t_k__line_edit_class_a99cb0a4e5b4a6701e1f5399ae6b1f78d.xhtml#a99cb0a4e5b4a6701e1f5399ae6b1f78d" target="_top" xlink:title=" ">
<polygon fill="none" stroke="#000000" points="494.365,-333.5 494.365,-365.5 604.818,-365.5 604.818,-333.5 494.365,-333.5"/>
<text text-anchor="start" x="502.365" y="-352.5" font-family="Helvetica,sans-Serif" font-size="10.00" fill="#000000">LFSTK_lineEditClass</text>
<text text-anchor="middle" x="549.5915" y="-340.5" font-family="Helvetica,sans-Serif" font-size="10.00" fill="#000000">::getClip</text>
</a>
</g>
</g>
<!-- Node1&#45;&gt;Node9 -->
<g id="edge8" class="edge">
<title>Node1&#45;&gt;Node9</title>
<path fill="none" stroke="#191970" d="M861.8237,-258.1129C845.933,-282.8517 817.7825,-319.6607 782.395,-336.5 726.4692,-363.1125 654.2364,-362.5582 605.1649,-357.8042"/>
<polygon fill="#191970" stroke="#191970" points="864.8062,-259.9445 867.1142,-249.6041 858.8616,-256.2483 864.8062,-259.9445"/>
</g>
<!-- Node10 -->
<g id="node10" class="node">
<title>Node10</title>
<g id="a_node10"><a xlink:href="class_l_f_s_t_k__line_edit_class_a499c645100977efb8a63ec1695b41e2b.xhtml#a499c645100977efb8a63ec1695b41e2b" target="_top" xlink:title=" ">
<polygon fill="none" stroke="#000000" points="332.356,-333.5 332.356,-365.5 442.809,-365.5 442.809,-333.5 332.356,-333.5"/>
<text text-anchor="start" x="340.356" y="-352.5" font-family="Helvetica,sans-Serif" font-size="10.00" fill="#000000">LFSTK_lineEditClass</text>
<text text-anchor="middle" x="387.5825" y="-340.5" font-family="Helvetica,sans-Serif" font-size="10.00" fill="#000000">::keyRelease</text>
</a>
</g>
</g>
<!-- Node1&#45;&gt;Node10 -->
<g id="edge11" class="edge">
<title>Node1&#45;&gt;Node10</title>
<path fill="none" stroke="#191970" d="M865.5016,-259.0096C851.4047,-289.2778 823.4164,-338.5267 782.395,-361.5 670.9585,-423.9081 512.6914,-389.1558 434.7207,-365.5856"/>
<polygon fill="#191970" stroke="#191970" points="868.8508,-260.0946 869.7485,-249.5378 862.4635,-257.2306 868.8508,-260.0946"/>
</g>
<!-- Node11 -->
<g id="node11" class="node">
<title>Node11</title>
<g id="a_node11"><a xlink:href="class_l_f_s_t_k__line_edit_class_a9e8f25104e1ac24b9cbb57b363a247d9.xhtml#a9e8f25104e1ac24b9cbb57b363a247d9" target="_top" xlink:title=" ">
<polygon fill="none" stroke="#000000" points="660.269,-294.5 660.269,-326.5 770.722,-326.5 770.722,-294.5 660.269,-294.5"/>
<text text-anchor="start" x="668.269" y="-313.5" font-family="Helvetica,sans-Serif" font-size="10.00" fill="#000000">LFSTK_lineEditClass</text>
<text text-anchor="middle" x="715.4955" y="-301.5" font-family="Helvetica,sans-Serif" font-size="10.00" fill="#000000">::gotFocus</text>
</a>
</g>
</g>
<!-- Node1&#45;&gt;Node11 -->
<g id="edge10" class="edge">
<title>Node1&#45;&gt;Node11</title>
<path fill="none" stroke="#191970" d="M840.9465,-254.6481C823.6299,-264.635 802.2531,-276.3427 782.395,-285.5 775.6393,-288.6153 768.3755,-291.6436 761.2127,-294.4545"/>
<polygon fill="#191970" stroke="#191970" points="842.7238,-257.6634 849.6023,-249.6051 839.1999,-251.6151 842.7238,-257.6634"/>
</g>
<!-- Node12 -->
<g id="node12" class="node">
<title>Node12</title>
<g id="a_node12"><a xlink:href="class_l_f_s_t_k__line_edit_class_a8755e35dd1aabd5696d4a94b85c64026.xhtml#a8755e35dd1aabd5696d4a94b85c64026" target="_top" xlink:title=" ">
<polygon fill="none" stroke="#000000" points="655.2695,-243.5 655.2695,-275.5 775.7215,-275.5 775.7215,-243.5 655.2695,-243.5"/>
<text text-anchor="start" x="663.2695" y="-262.5" font-family="Helvetica,sans-Serif" font-size="10.00" fill="#000000">LFSTK_lineEditClass</text>
<text text-anchor="middle" x="715.4955" y="-250.5" font-family="Helvetica,sans-Serif" font-size="10.00" fill="#000000">::LFSTK_resizeWindow</text>
</a>
</g>
</g>
<!-- Node1&#45;&gt;Node12 -->
<g id="edge12" class="edge">
<title>Node1&#45;&gt;Node12</title>
<path fill="none" stroke="#191970" d="M808.0008,-244.5264C797.3134,-246.2564 786.3312,-248.034 775.835,-249.733"/>
<polygon fill="#191970" stroke="#191970" points="808.8193,-247.9396 818.1315,-242.8866 807.7007,-241.0295 808.8193,-247.9396"/>
</g>
<!-- Node13 -->
<g id="node13" class="node">
<title>Node13</title>
<g id="a_node13"><a xlink:href="class_l_f_s_t_k__line_edit_class_acc05157418af7626402b30b0129e8899.xhtml#acc05157418af7626402b30b0129e8899" target="_top" xlink:title=" ">
<polygon fill="none" stroke="#000000" points="660.269,-141.5 660.269,-173.5 770.722,-173.5 770.722,-141.5 660.269,-141.5"/>
<text text-anchor="start" x="668.269" y="-160.5" font-family="Helvetica,sans-Serif" font-size="10.00" fill="#000000">LFSTK_lineEditClass</text>
<text text-anchor="middle" x="715.4955" y="-148.5" font-family="Helvetica,sans-Serif" font-size="10.00" fill="#000000">::LFSTK_setBuffer</text>
</a>
</g>
</g>
<!-- Node1&#45;&gt;Node13 -->
<g id="edge13" class="edge">
<title>Node1&#45;&gt;Node13</title>
<path fill="none" stroke="#191970" d="M838.8153,-212.2799C821.8383,-202.9674 801.3451,-192.1994 782.395,-183.5 774.9208,-180.0688 766.8539,-176.6787 758.9966,-173.5365"/>
<polygon fill="#191970" stroke="#191970" points="837.4087,-215.5017 847.853,-217.2814 840.7982,-209.377 837.4087,-215.5017"/>
</g>
<!-- Node20 -->
<g id="node20" class="node">
<title>Node20</title>
<g id="a_node20"><a xlink:href="class_l_f_s_t_k__line_edit_class_a0ebe556ea8567d5ef0999017b77f57fd.xhtml#a0ebe556ea8567d5ef0999017b77f57fd" target="_top" xlink:title=" ">
<polygon fill="none" stroke="#000000" points="660.269,-51.5 660.269,-83.5 770.722,-83.5 770.722,-51.5 660.269,-51.5"/>
<text text-anchor="start" x="668.269" y="-70.5" font-family="Helvetica,sans-Serif" font-size="10.00" fill="#000000">LFSTK_lineEditClass</text>
<text text-anchor="middle" x="715.4955" y="-58.5" font-family="Helvetica,sans-Serif" font-size="10.00" fill="#000000">::LFSTK_setFocus</text>
</a>
</g>
</g>
<!-- Node1&#45;&gt;Node20 -->
<g id="edge23" class="edge">
<title>Node1&#45;&gt;Node20</title>
<path fill="none" stroke="#191970" d="M863.7683,-208.0225C848.2989,-178.3664 819.2882,-129.5071 782.395,-98.5 775.4374,-92.6524 767.1932,-87.6639 758.9112,-83.5078"/>
<polygon fill="#191970" stroke="#191970" points="860.8307,-209.9668 868.4871,-217.29 867.0686,-206.7905 860.8307,-209.9668"/>
</g>
<!-- Node21 -->
<g id="node21" class="node">
<title>Node21</title>
<g id="a_node21"><a xlink:href="class_l_f_s_t_k__line_edit_class_a3577cc5df4ad211347e890e2124a7484.xhtml#a3577cc5df4ad211347e890e2124a7484" target="_top" xlink:title=" ">
<polygon fill="none" stroke="#000000" points="494.365,-.5 494.365,-32.5 604.818,-32.5 604.818,-.5 494.365,-.5"/>
<text text-anchor="start" x="502.365" y="-19.5" font-family="Helvetica,sans-Serif" font-size="10.00" fill="#000000">LFSTK_lineEditClass</text>
<text text-anchor="middle" x="549.5915" y="-7.5" font-family="Helvetica,sans-Serif" font-size="10.00" fill="#000000">::mouseDown</text>
</a>
</g>
</g>
<!-- Node1&#45;&gt;Node21 -->
<g id="edge29" class="edge">
<title>Node1&#45;&gt;Node21</title>
<path fill="none" stroke="#191970" d="M859.5713,-208.8407C842.7542,-185.6284 814.6429,-151.5223 782.395,-131.5 729.7721,-98.8272 701.4661,-124.7712 648.596,-92.5 628.7385,-80.3792 630.7213,-69.0845 612.596,-54.5 602.5444,-46.412 590.6172,-38.7911 579.859,-32.5276"/>
<polygon fill="#191970" stroke="#191970" points="856.817,-211.0078 865.4487,-217.1515 862.5323,-206.966 856.817,-211.0078"/>
</g>
<!-- Node22 -->
<g id="node22" class="node">
<title>Node22</title>
<g id="a_node22"><a xlink:href="class_l_f_s_t_k__line_edit_class_af08b0261f456ab5926d5837f752c2005.xhtml#af08b0261f456ab5926d5837f752c2005" target="_top" xlink:title=" ">
<polygon fill="none" stroke="#000000" points="648.596,-192.5 648.596,-224.5 782.395,-224.5 782.395,-192.5 648.596,-192.5"/>
<text text-anchor="start" x="656.596" y="-211.5" font-family="Helvetica,sans-Serif" font-size="10.00" fill="#000000">LFSTK_lineEditClass</text>
<text text-anchor="middle" x="715.4955" y="-199.5" font-family="Helvetica,sans-Serif" font-size="10.00" fill="#000000">::LFSTK_setFormatedText</text>
</a>
</g>
</g>
<!-- Node1&#45;&gt;Node22 -->
<g id="edge25" class="edge">
<title>Node1&#45;&gt;Node22</title>
<path fill="none" stroke="#191970" d="M808.2146,-222.9309C799.6714,-221.6013 790.9362,-220.2417 782.4085,-218.9144"/>
<polygon fill="#191970" stroke="#191970" points="807.7122,-226.3948 818.1315,-224.4744 808.7888,-219.4781 807.7122,-226.3948"/>
</g>
<!-- Node24 -->
<g id="node24" class="node">
<title>Node24</title>
<g id="a_node24"><a xlink:href="class_l_f_s_t_k__line_edit_class_a64bf9278baec262c97147ba099e4aa6c.xhtml#a64bf9278baec262c97147ba099e4aa6c" target="_top" xlink:title=" ">
<polygon fill="none" stroke="#000000" points="660.269,-.5 660.269,-32.5 770.722,-32.5 770.722,-.5 660.269,-.5"/>
<text text-anchor="start" x="668.269" y="-19.5" font-family="Helvetica,sans-Serif" font-size="10.00" fill="#000000">LFSTK_lineEditClass</text>
<text text-anchor="middle" x="715.4955" y="-7.5" font-family="Helvetica,sans-Serif" font-size="10.00" fill="#000000">::lostFocus</text>
</a>
</g>
</g>
<!-- Node1&#45;&gt;Node24 -->
<g id="edge28" class="edge">
<title>Node1&#45;&gt;Node24</title>
<path fill="none" stroke="#191970" d="M870.1192,-207.6627C859.3653,-166.8755 833.0493,-87.4876 782.395,-41.5 778.6312,-38.0829 774.357,-35.1191 769.8324,-32.5511"/>
<polygon fill="#191970" stroke="#191970" points="866.7341,-208.5528 872.5796,-217.3891 873.5203,-206.8362 866.7341,-208.5528"/>
</g>
<!-- Node3 -->
<g id="node3" class="node">
<title>Node3</title>
<g id="a_node3"><a xlink:href="class_l_f_s_t_k__font_dialog_class_a552f817a8f926c4cb1e423ce244c0a76.xhtml#a552f817a8f926c4cb1e423ce244c0a76" target="_top" xlink:title=" ">
<polygon fill="none" stroke="#000000" points="488.251,-423.5 488.251,-455.5 610.932,-455.5 610.932,-423.5 488.251,-423.5"/>
<text text-anchor="start" x="496.251" y="-442.5" font-family="Helvetica,sans-Serif" font-size="10.00" fill="#000000">LFSTK_fontDialogClass</text>
<text text-anchor="middle" x="549.5915" y="-430.5" font-family="Helvetica,sans-Serif" font-size="10.00" fill="#000000">::LFSTK_getFontData</text>
</a>
</g>
</g>
<!-- Node2&#45;&gt;Node3 -->
<g id="edge2" class="edge">
<title>Node2&#45;&gt;Node3</title>
<path fill="none" stroke="#191970" d="M643.4862,-439.5C632.7077,-439.5 621.6783,-439.5 611.1433,-439.5"/>
<polygon fill="#191970" stroke="#191970" points="643.719,-443.0001 653.719,-439.5 643.7189,-436.0001 643.719,-443.0001"/>
</g>
<!-- Node4 -->
<g id="node4" class="node">
<title>Node4</title>
<g id="a_node4"><a xlink:href="_l_f_s_t_k_font_dialog_8cpp_aafd549c8125eb6d28fe5be736bce5806.xhtml#aafd549c8125eb6d28fe5be736bce5806" target="_top" xlink:title=" ">
<polygon fill="none" stroke="#000000" points="359.5795,-474.5 359.5795,-494.5 415.5855,-494.5 415.5855,-474.5 359.5795,-474.5"/>
<text text-anchor="middle" x="387.5825" y="-481.5" font-family="Helvetica,sans-Serif" font-size="10.00" fill="#000000">checkCB</text>
</a>
</g>
</g>
<!-- Node3&#45;&gt;Node4 -->
<g id="edge3" class="edge">
<title>Node3&#45;&gt;Node4</title>
<path fill="none" stroke="#191970" d="M481.7546,-458.3425C458.6114,-464.7708 433.9947,-471.6084 415.7358,-476.6801"/>
<polygon fill="#191970" stroke="#191970" points="482.8616,-461.6676 491.5601,-455.6189 480.9882,-454.923 482.8616,-461.6676"/>
</g>
<!-- Node5 -->
<g id="node5" class="node">
<title>Node5</title>
<g id="a_node5"><a xlink:href="class_l_f_s_t_k__font_dialog_class_a14c5f93b43c729a1bcb8bebe141415f2.xhtml#a14c5f93b43c729a1bcb8bebe141415f2" target="_top" xlink:title=" ">
<polygon fill="none" stroke="#000000" points="326.242,-423.5 326.242,-455.5 448.923,-455.5 448.923,-423.5 326.242,-423.5"/>
<text text-anchor="start" x="334.242" y="-442.5" font-family="Helvetica,sans-Serif" font-size="10.00" fill="#000000">LFSTK_fontDialogClass</text>
<text text-anchor="middle" x="387.5825" y="-430.5" font-family="Helvetica,sans-Serif" font-size="10.00" fill="#000000">::LFSTK_showDialog</text>
</a>
</g>
</g>
<!-- Node3&#45;&gt;Node5 -->
<g id="edge4" class="edge">
<title>Node3&#45;&gt;Node5</title>
<path fill="none" stroke="#191970" d="M477.6452,-439.5C468.1282,-439.5 458.4422,-439.5 449.1217,-439.5"/>
<polygon fill="#191970" stroke="#191970" points="477.8807,-443.0001 487.8807,-439.5 477.8806,-436.0001 477.8807,-443.0001"/>
</g>
<!-- Node6 -->
<g id="node6" class="node">
<title>Node6</title>
<g id="a_node6"><a xlink:href="_l_f_s_t_k_font_dialog_8cpp_a5c76f9930f86875dfa22fb71e9b6adcb.xhtml#a5c76f9930f86875dfa22fb71e9b6adcb" target="_top" xlink:title=" ">
<polygon fill="none" stroke="#000000" points="366.5245,-384.5 366.5245,-404.5 408.6405,-404.5 408.6405,-384.5 366.5245,-384.5"/>
<text text-anchor="middle" x="387.5825" y="-391.5" font-family="Helvetica,sans-Serif" font-size="10.00" fill="#000000">select</text>
</a>
</g>
</g>
<!-- Node3&#45;&gt;Node6 -->
<g id="edge5" class="edge">
<title>Node3&#45;&gt;Node6</title>
<path fill="none" stroke="#191970" d="M481.6717,-420.6344C455.5719,-413.3849 427.6107,-405.6183 409.015,-400.4532"/>
<polygon fill="#191970" stroke="#191970" points="480.9882,-424.077 491.5601,-423.3811 482.8616,-417.3324 480.9882,-424.077"/>
</g>
<!-- Node7 -->
<g id="node7" class="node">
<title>Node7</title>
<g id="a_node7"><a xlink:href="class_l_f_s_t_k__font_dialog_class_af866eb2b1ba8178c9cf3e751716fcc8e.xhtml#af866eb2b1ba8178c9cf3e751716fcc8e" target="_top" xlink:title=" ">
<polygon fill="none" stroke="#000000" points="165.068,-378.5 165.068,-410.5 287.749,-410.5 287.749,-378.5 165.068,-378.5"/>
<text text-anchor="start" x="173.068" y="-397.5" font-family="Helvetica,sans-Serif" font-size="10.00" fill="#000000">LFSTK_fontDialogClass</text>
<text text-anchor="middle" x="226.4085" y="-385.5" font-family="Helvetica,sans-Serif" font-size="10.00" fill="#000000">::buildDialog</text>
</a>
</g>
</g>
<!-- Node6&#45;&gt;Node7 -->
<g id="edge6" class="edge">
<title>Node6&#45;&gt;Node7</title>
<path fill="none" stroke="#191970" d="M356.4,-394.5C336.9423,-394.5 311.2277,-394.5 287.8084,-394.5"/>
<polygon fill="#191970" stroke="#191970" points="356.5118,-398.0001 366.5118,-394.5 356.5118,-391.0001 356.5118,-398.0001"/>
</g>
<!-- Node8 -->
<g id="node8" class="node">
<title>Node8</title>
<g id="a_node8"><a xlink:href="class_l_f_s_t_k__font_dialog_class_ab7b6a4bca99713646ab6ac77dc34827c.xhtml#ab7b6a4bca99713646ab6ac77dc34827c" target="_top" xlink:title=" ">
<polygon fill="none" stroke="#000000" points="0,-378.5 0,-410.5 128.239,-410.5 128.239,-378.5 0,-378.5"/>
<text text-anchor="start" x="8" y="-397.5" font-family="Helvetica,sans-Serif" font-size="10.00" fill="#000000">LFSTK_fontDialogClass</text>
<text text-anchor="middle" x="64.1195" y="-385.5" font-family="Helvetica,sans-Serif" font-size="10.00" fill="#000000">::LFSTK_fontDialogClass</text>
</a>
</g>
</g>
<!-- Node7&#45;&gt;Node8 -->
<g id="edge7" class="edge">
<title>Node7&#45;&gt;Node8</title>
<path fill="none" stroke="#191970" d="M154.7843,-394.5C145.9547,-394.5 136.9726,-394.5 128.2641,-394.5"/>
<polygon fill="#191970" stroke="#191970" points="155.054,-398.0001 165.054,-394.5 155.054,-391.0001 155.054,-398.0001"/>
</g>
<!-- Node9&#45;&gt;Node10 -->
<g id="edge9" class="edge">
<title>Node9&#45;&gt;Node10</title>
<path fill="none" stroke="#191970" d="M484.0081,-349.5C470.3727,-349.5 456.132,-349.5 442.9093,-349.5"/>
<polygon fill="#191970" stroke="#191970" points="484.2904,-353.0001 494.2903,-349.5 484.2903,-346.0001 484.2904,-353.0001"/>
</g>
<!-- Node13&#45;&gt;Node10 -->
<g id="edge14" class="edge">
<title>Node13&#45;&gt;Node10</title>
<path fill="none" stroke="#191970" d="M655.7206,-178.5284C653.24,-180.082 650.851,-181.7375 648.596,-183.5 626.7358,-200.5854 635.0449,-218.1959 612.596,-234.5 565.1613,-268.9506 538.6567,-246.5622 486.587,-273.5 455.0241,-289.8288 423.2697,-316.4268 404.5225,-333.4352"/>
<polygon fill="#191970" stroke="#191970" points="657.4386,-181.5778 664.4468,-173.6319 654.0131,-175.4732 657.4386,-181.5778"/>
</g>
<!-- Node14 -->
<g id="node14" class="node">
<title>Node14</title>
<g id="a_node14"><a xlink:href="class_l_f_s_t_k__line_edit_class_af610951625203a6d75bce118b2b94386.xhtml#af610951625203a6d75bce118b2b94386" target="_top" xlink:title=" ">
<polygon fill="none" stroke="#000000" points="491.586,-192.5 491.586,-224.5 607.597,-224.5 607.597,-192.5 491.586,-192.5"/>
<text text-anchor="start" x="499.586" y="-211.5" font-family="Helvetica,sans-Serif" font-size="10.00" fill="#000000">LFSTK_lineEditClass</text>
<text text-anchor="middle" x="549.5915" y="-199.5" font-family="Helvetica,sans-Serif" font-size="10.00" fill="#000000">::LFSTK_lineEditClass</text>
</a>
</g>
</g>
<!-- Node13&#45;&gt;Node14 -->
<g id="edge15" class="edge">
<title>Node13&#45;&gt;Node14</title>
<path fill="none" stroke="#191970" d="M653.1888,-176.6535C636.2407,-181.8634 618.0648,-187.4508 601.7431,-192.4683"/>
<polygon fill="#191970" stroke="#191970" points="654.4723,-179.9206 663.0024,-173.6367 652.4154,-173.2297 654.4723,-179.9206"/>
</g>
<!-- Node15 -->
<g id="node15" class="node">
<title>Node15</title>
<g id="a_node15"><a xlink:href="class_l_f_s_t_k__file_dialog_class_aa8804989d381def9acb2c99d47d6dc3d.xhtml#aa8804989d381def9acb2c99d47d6dc3d" target="_top" xlink:title=" ">
<polygon fill="none" stroke="#000000" points="489.091,-90.5 489.091,-122.5 610.092,-122.5 610.092,-90.5 489.091,-90.5"/>
<text text-anchor="start" x="497.091" y="-109.5" font-family="Helvetica,sans-Serif" font-size="10.00" fill="#000000">LFSTK_fileDialogClass</text>
<text text-anchor="middle" x="549.5915" y="-97.5" font-family="Helvetica,sans-Serif" font-size="10.00" fill="#000000">::LFSTK_setWorkingDir</text>
</a>
</g>
</g>
<!-- Node13&#45;&gt;Node15 -->
<g id="edge16" class="edge">
<title>Node13&#45;&gt;Node15</title>
<path fill="none" stroke="#191970" d="M653.1888,-138.3465C636.2407,-133.1366 618.0648,-127.5492 601.7431,-122.5317"/>
<polygon fill="#191970" stroke="#191970" points="652.4154,-141.7703 663.0024,-141.3633 654.4723,-135.0794 652.4154,-141.7703"/>
</g>
<!-- Node17 -->
<g id="node17" class="node">
<title>Node17</title>
<g id="a_node17"><a xlink:href="class_l_f_s_t_k__file_dialog_class_a789cade9437906181e31a243c85d52e5.xhtml#a789cade9437906181e31a243c85d52e5" target="_top" xlink:title=" ">
<polygon fill="none" stroke="#000000" points="328.192,-57.5 328.192,-89.5 446.973,-89.5 446.973,-57.5 328.192,-57.5"/>
<text text-anchor="start" x="336.192" y="-76.5" font-family="Helvetica,sans-Serif" font-size="10.00" fill="#000000">LFSTK_fileDialogClass</text>
<text text-anchor="middle" x="387.5825" y="-64.5" font-family="Helvetica,sans-Serif" font-size="10.00" fill="#000000">::select</text>
</a>
</g>
</g>
<!-- Node13&#45;&gt;Node17 -->
<g id="edge22" class="edge">
<title>Node13&#45;&gt;Node17</title>
<path fill="none" stroke="#191970" d="M663.6578,-136.5526C658.354,-133.5208 653.2228,-130.1681 648.596,-126.5 628.2526,-110.3717 635.7547,-92.2325 612.596,-80.5 561.3447,-54.5354 494.7592,-56.0814 447.3489,-62.1051"/>
<polygon fill="#191970" stroke="#191970" points="662.2149,-139.7493 672.688,-141.351 665.4997,-133.5678 662.2149,-139.7493"/>
</g>
<!-- Node19 -->
<g id="node19" class="node">
<title>Node19</title>
<g id="a_node19"><a xlink:href="class_l_f_s_t_k__file_dialog_class_af77972b8a46616ba4c7bec555b2b0a14.xhtml#af77972b8a46616ba4c7bec555b2b0a14" target="_top" xlink:title=" ">
<polygon fill="none" stroke="#000000" points="486.587,-141.5 486.587,-173.5 612.596,-173.5 612.596,-141.5 486.587,-141.5"/>
<text text-anchor="start" x="494.587" y="-160.5" font-family="Helvetica,sans-Serif" font-size="10.00" fill="#000000">LFSTK_fileDialogClass</text>
<text text-anchor="middle" x="549.5915" y="-148.5" font-family="Helvetica,sans-Serif" font-size="10.00" fill="#000000">::LFSTK_showFileDialog</text>
</a>
</g>
</g>
<!-- Node13&#45;&gt;Node19 -->
<g id="edge20" class="edge">
<title>Node13&#45;&gt;Node19</title>
<path fill="none" stroke="#191970" d="M650.053,-157.5C637.73,-157.5 624.8668,-157.5 612.6195,-157.5"/>
<polygon fill="#191970" stroke="#191970" points="650.2519,-161.0001 660.2519,-157.5 650.2518,-154.0001 650.2519,-161.0001"/>
</g>
<!-- Node16 -->
<g id="node16" class="node">
<title>Node16</title>
<g id="a_node16"><a xlink:href="class_l_f_s_t_k__file_dialog_class_aacf1d4b61cbb5b40d06f591ea96f9ea7.xhtml#aacf1d4b61cbb5b40d06f591ea96f9ea7" target="_top" xlink:title=" ">
<polygon fill="none" stroke="#000000" points="324.578,-119.5 324.578,-151.5 450.587,-151.5 450.587,-119.5 324.578,-119.5"/>
<text text-anchor="start" x="332.578" y="-138.5" font-family="Helvetica,sans-Serif" font-size="10.00" fill="#000000">LFSTK_fileDialogClass</text>
<text text-anchor="middle" x="387.5825" y="-126.5" font-family="Helvetica,sans-Serif" font-size="10.00" fill="#000000">::LFSTK_showFileDialog</text>
</a>
</g>
</g>
<!-- Node15&#45;&gt;Node16 -->
<g id="edge17" class="edge">
<title>Node15&#45;&gt;Node16</title>
<path fill="none" stroke="#191970" d="M478.7386,-119.1828C469.3734,-120.8592 459.8243,-122.5686 450.6026,-124.2192"/>
<polygon fill="#191970" stroke="#191970" points="479.5776,-122.5884 488.8044,-117.381 478.3441,-115.6979 479.5776,-122.5884"/>
</g>
<!-- Node15&#45;&gt;Node17 -->
<g id="edge18" class="edge">
<title>Node15&#45;&gt;Node17</title>
<path fill="none" stroke="#191970" d="M478.7687,-92.0739C468.2012,-89.9214 457.3988,-87.7211 447.0964,-85.6225"/>
<polygon fill="#191970" stroke="#191970" points="478.307,-95.5517 488.8044,-94.1181 479.7042,-88.6925 478.307,-95.5517"/>
</g>
<!-- Node18 -->
<g id="node18" class="node">
<title>Node18</title>
<g id="a_node18"><a xlink:href="class_l_f_s_t_k__file_dialog_class_a553ce8e885b0d60cbf515b7b3d1e8b65.xhtml#a553ce8e885b0d60cbf515b7b3d1e8b65" target="_top" xlink:title=" ">
<polygon fill="none" stroke="#000000" points="164.239,-57.5 164.239,-89.5 288.578,-89.5 288.578,-57.5 164.239,-57.5"/>
<text text-anchor="start" x="172.239" y="-76.5" font-family="Helvetica,sans-Serif" font-size="10.00" fill="#000000">LFSTK_fileDialogClass</text>
<text text-anchor="middle" x="226.4085" y="-64.5" font-family="Helvetica,sans-Serif" font-size="10.00" fill="#000000">::LFSTK_fileDialogClass</text>
</a>
</g>
</g>
<!-- Node17&#45;&gt;Node18 -->
<g id="edge19" class="edge">
<title>Node17&#45;&gt;Node18</title>
<path fill="none" stroke="#191970" d="M317.9794,-73.5C308.2402,-73.5 298.283,-73.5 288.691,-73.5"/>
<polygon fill="#191970" stroke="#191970" points="318.0252,-77.0001 328.0252,-73.5 318.0251,-70.0001 318.0252,-77.0001"/>
</g>
<!-- Node19&#45;&gt;Node16 -->
<g id="edge21" class="edge">
<title>Node19&#45;&gt;Node16</title>
<path fill="none" stroke="#191970" d="M476.4937,-147.5737C467.9111,-146.4082 459.2089,-145.2265 450.7776,-144.0816"/>
<polygon fill="#191970" stroke="#191970" points="476.1106,-151.0537 486.4907,-148.9312 477.0526,-144.1174 476.1106,-151.0537"/>
</g>
<!-- Node20&#45;&gt;Node21 -->
<g id="edge24" class="edge">
<title>Node20&#45;&gt;Node21</title>
<path fill="none" stroke="#191970" d="M653.1888,-48.3465C636.2407,-43.1366 618.0648,-37.5492 601.7431,-32.5317"/>
<polygon fill="#191970" stroke="#191970" points="652.4154,-51.7703 663.0024,-51.3633 654.4723,-45.0794 652.4154,-51.7703"/>
</g>
<!-- Node22&#45;&gt;Node9 -->
<g id="edge26" class="edge">
<title>Node22&#45;&gt;Node9</title>
<path fill="none" stroke="#191970" d="M653.23,-230.3913C651.6075,-231.6851 650.057,-233.0533 648.596,-234.5 617.9836,-264.813 643.1012,-294.079 612.596,-324.5 609.1796,-327.907 605.2415,-330.8639 601.0363,-333.4275"/>
<polygon fill="#191970" stroke="#191970" points="655.5593,-233.04 661.8608,-224.5229 651.6233,-227.2514 655.5593,-233.04"/>
</g>
<!-- Node23 -->
<g id="node23" class="node">
<title>Node23</title>
<g id="a_node23"><a xlink:href="class_l_f_s_t_k__line_edit_class_aaa873ae80c4c84c1c48249e593b0c9fc.xhtml#aaa873ae80c4c84c1c48249e593b0c9fc" target="_top" xlink:title=" ">
<polygon fill="none" stroke="#000000" points="494.365,-282.5 494.365,-314.5 604.818,-314.5 604.818,-282.5 494.365,-282.5"/>
<text text-anchor="start" x="502.365" y="-301.5" font-family="Helvetica,sans-Serif" font-size="10.00" fill="#000000">LFSTK_lineEditClass</text>
<text text-anchor="middle" x="549.5915" y="-289.5" font-family="Helvetica,sans-Serif" font-size="10.00" fill="#000000">::LFSTK_dropData</text>
</a>
</g>
</g>
<!-- Node22&#45;&gt;Node23 -->
<g id="edge27" class="edge">
<title>Node22&#45;&gt;Node23</title>
<path fill="none" stroke="#191970" d="M658.4732,-228.9412C655.064,-230.6887 651.7441,-232.5424 648.596,-234.5 630.1639,-245.9616 630.5149,-255.2516 612.596,-267.5 604.5447,-273.0034 595.3727,-278.0946 586.5667,-282.4937"/>
<polygon fill="#191970" stroke="#191970" points="660.1303,-232.0286 667.6497,-224.5648 657.117,-225.7104 660.1303,-232.0286"/>
</g>
</g>
</svg>
