<?xml version="1.0" encoding="UTF-8" standalone="no"?>
<!DOCTYPE svg PUBLIC "-//W3C//DTD SVG 1.1//EN"
 "http://www.w3.org/Graphics/SVG/1.1/DTD/svg11.dtd">
<!-- Generated by graphviz version 2.40.1 (20161225.0304)
 -->
<!-- Title: LFSTK_scrollBarClass Pages: 1 -->
<svg width="755pt" height="437pt"
 viewBox="0.00 0.00 754.74 437.00" xmlns="http://www.w3.org/2000/svg" xmlns:xlink="http://www.w3.org/1999/xlink">
<g id="graph0" class="graph" transform="scale(1 1) rotate(0) translate(4 433)">
<title>LFSTK_scrollBarClass</title>
<!-- Node1 -->
<g id="node1" class="node">
<title>Node1</title>
<g id="a_node1"><a xlink:title="Scrollbar class for LFSToolKit.">
<polygon fill="#bfbfbf" stroke="#000000" points="464.7343,-.5 464.7343,-20.5 581.2883,-20.5 581.2883,-.5 464.7343,-.5"/>
<text text-anchor="middle" x="523.0113" y="-7.5" font-family="Helvetica,sans-Serif" font-size="10.00" fill="#000000">LFSTK_scrollBarClass</text>
</a>
</g>
</g>
<!-- Node2 -->
<g id="node2" class="node">
<title>Node2</title>
<g id="a_node2"><a xlink:href="class_l_f_s_t_k__gadget_class.xhtml" target="_top" xlink:title="Base class for LFSToolKit gadgets.">
<polygon fill="none" stroke="#000000" points="449.8888,-174.5 449.8888,-194.5 558.1338,-194.5 558.1338,-174.5 449.8888,-174.5"/>
<text text-anchor="middle" x="504.0113" y="-181.5" font-family="Helvetica,sans-Serif" font-size="10.00" fill="#000000">LFSTK_gadgetClass</text>
</a>
</g>
</g>
<!-- Node2&#45;&gt;Node1 -->
<g id="edge1" class="edge">
<title>Node2&#45;&gt;Node1</title>
<path fill="none" stroke="#191970" d="M506.2254,-164.2243C510.3022,-126.8894 518.8577,-48.5387 521.9047,-20.635"/>
<polygon fill="#191970" stroke="#191970" points="502.7213,-164.0721 505.115,-174.3929 509.6799,-164.832 502.7213,-164.0721"/>
</g>
<!-- Node7 -->
<g id="node7" class="node">
<title>Node7</title>
<g id="a_node7"><a xlink:href="class_l_f_s_t_k__window_class.xhtml" target="_top" xlink:title="Window class for LFSToolKit.">
<polygon fill="none" stroke="#000000" points="186.5088,-93.5 186.5088,-113.5 297.5138,-113.5 297.5138,-93.5 186.5088,-93.5"/>
<text text-anchor="middle" x="242.0113" y="-100.5" font-family="Helvetica,sans-Serif" font-size="10.00" fill="#000000">LFSTK_windowClass</text>
</a>
</g>
</g>
<!-- Node2&#45;&gt;Node7 -->
<g id="edge10" class="edge">
<title>Node2&#45;&gt;Node7</title>
<path fill="none" stroke="#9a32cd" stroke-dasharray="5,2" d="M439.7602,-178.8303C398.1584,-174.244 348.4406,-166.7656 330.0963,-156 318.3428,-149.1022 321.8988,-140.1969 311.0113,-132 300.5535,-124.1265 287.6074,-118.0295 275.7642,-113.5328"/>
<polygon fill="#9a32cd" stroke="#9a32cd" points="439.5486,-182.3275 449.863,-179.906 440.2898,-175.3668 439.5486,-182.3275"/>
<text text-anchor="middle" x="372.9688" y="-147" font-family="Helvetica,sans-Serif" font-size="10.00" fill="#000000"> dropGadget</text>
<text text-anchor="middle" x="372.9688" y="-135" font-family="Helvetica,sans-Serif" font-size="10.00" fill="#000000">popupFromGadget</text>
</g>
<!-- Node12 -->
<g id="node12" class="node">
<title>Node12</title>
<g id="a_node12"><a xlink:href="structmapped_listener.xhtml" target="_top" xlink:title=" ">
<polygon fill="none" stroke="#000000" points="535.1678,-93.5 535.1678,-113.5 622.8548,-113.5 622.8548,-93.5 535.1678,-93.5"/>
<text text-anchor="middle" x="579.0113" y="-100.5" font-family="Helvetica,sans-Serif" font-size="10.00" fill="#000000">mappedListener</text>
</a>
</g>
</g>
<!-- Node2&#45;&gt;Node12 -->
<g id="edge16" class="edge">
<title>Node2&#45;&gt;Node12</title>
<path fill="none" stroke="#9a32cd" stroke-dasharray="5,2" d="M539.1639,-169.4065C545.3085,-165.6648 551.2481,-161.2044 556.0113,-156 567.1638,-143.8147 573.5238,-125.3575 576.6172,-113.8858"/>
<polygon fill="#9a32cd" stroke="#9a32cd" points="537.2025,-166.4908 530.1276,-174.3774 540.5764,-172.6241 537.2025,-166.4908"/>
<text text-anchor="middle" x="587.6878" y="-141" font-family="Helvetica,sans-Serif" font-size="10.00" fill="#000000"> gadget</text>
</g>
<!-- Node14 -->
<g id="node14" class="node">
<title>Node14</title>
<g id="a_node14"><a xlink:href="class_l_f_s_t_k__button_class.xhtml" target="_top" xlink:title="Basic button class for LFSToolKit.">
<polygon fill="none" stroke="#000000" points="641.2788,-93.5 641.2788,-113.5 746.7438,-113.5 746.7438,-93.5 641.2788,-93.5"/>
<text text-anchor="middle" x="694.0113" y="-100.5" font-family="Helvetica,sans-Serif" font-size="10.00" fill="#000000">LFSTK_buttonClass</text>
</a>
</g>
</g>
<!-- Node2&#45;&gt;Node14 -->
<g id="edge20" class="edge">
<title>Node2&#45;&gt;Node14</title>
<path fill="none" stroke="#191970" d="M561.5056,-171.8329C576.9097,-167.6112 593.3494,-162.3338 608.0113,-156 635.1501,-144.2763 663.9366,-125.1517 680.368,-113.507"/>
<polygon fill="#191970" stroke="#191970" points="560.3384,-168.521 551.5615,-174.4552 562.1234,-175.2896 560.3384,-168.521"/>
</g>
<!-- Node3 -->
<g id="node3" class="node">
<title>Node3</title>
<g id="a_node3"><a xlink:href="structgadget_struct.xhtml" target="_top" xlink:title=" ">
<polygon fill="none" stroke="#000000" points="358.6668,-251 358.6668,-271 431.3558,-271 431.3558,-251 358.6668,-251"/>
<text text-anchor="middle" x="395.0113" y="-258" font-family="Helvetica,sans-Serif" font-size="10.00" fill="#000000">gadgetStruct</text>
</a>
</g>
</g>
<!-- Node3&#45;&gt;Node2 -->
<g id="edge2" class="edge">
<title>Node3&#45;&gt;Node2</title>
<path fill="none" stroke="#9a32cd" stroke-dasharray="5,2" d="M403.0414,-241.4231C407.8855,-231.7163 414.9134,-220.4972 424.1043,-213 434.1479,-204.8073 446.7287,-198.8794 458.9155,-194.6273"/>
<polygon fill="#9a32cd" stroke="#9a32cd" points="399.7433,-240.2205 398.7848,-250.7719 406.114,-243.1212 399.7433,-240.2205"/>
<text text-anchor="middle" x="456.9648" y="-216" font-family="Helvetica,sans-Serif" font-size="10.00" fill="#000000"> gadgetDetails</text>
</g>
<!-- Node4 -->
<g id="node4" class="node">
<title>Node4</title>
<g id="a_node4"><a xlink:href="structgeometry_struct.xhtml" target="_top" xlink:title=" ">
<polygon fill="none" stroke="#000000" points="145.1173,-339.5 145.1173,-359.5 228.9053,-359.5 228.9053,-339.5 145.1173,-339.5"/>
<text text-anchor="middle" x="187.0113" y="-346.5" font-family="Helvetica,sans-Serif" font-size="10.00" fill="#000000">geometryStruct</text>
</a>
</g>
</g>
<!-- Node4&#45;&gt;Node2 -->
<g id="edge6" class="edge">
<title>Node4&#45;&gt;Node2</title>
<path fill="none" stroke="#9a32cd" stroke-dasharray="5,2" d="M194.3516,-329.8574C206.9366,-299.1904 235.7376,-240.5973 281.0113,-213 308.4642,-196.2657 392.9405,-189.2667 449.6749,-186.4032"/>
<polygon fill="#9a32cd" stroke="#9a32cd" points="190.9842,-328.8565 190.576,-339.4435 197.4972,-331.4218 190.9842,-328.8565"/>
<text text-anchor="middle" x="276.3008" y="-258" font-family="Helvetica,sans-Serif" font-size="10.00" fill="#000000"> gadgetGeom</text>
</g>
<!-- Node4&#45;&gt;Node3 -->
<g id="edge3" class="edge">
<title>Node4&#45;&gt;Node3</title>
<path fill="none" stroke="#9a32cd" stroke-dasharray="5,2" d="M220.1721,-335.3907C262.4171,-317.4163 334.3804,-286.7973 371.4294,-271.0337"/>
<polygon fill="#9a32cd" stroke="#9a32cd" points="218.703,-332.2121 210.8716,-339.3479 221.4436,-338.6533 218.703,-332.2121"/>
<text text-anchor="middle" x="343.9048" y="-312" font-family="Helvetica,sans-Serif" font-size="10.00" fill="#000000"> indicatorGeom</text>
<text text-anchor="middle" x="343.9048" y="-300" font-family="Helvetica,sans-Serif" font-size="10.00" fill="#000000">gadgetGeom</text>
</g>
<!-- Node4&#45;&gt;Node7 -->
<g id="edge8" class="edge">
<title>Node4&#45;&gt;Node7</title>
<path fill="none" stroke="#9a32cd" stroke-dasharray="5,2" d="M151.1226,-335.4939C87.9538,-308.6146 -32.6484,-246.0314 9.0113,-174 27.7513,-141.5978 46.8391,-144.8063 82.0113,-132 115.5494,-119.7887 155.0104,-112.6866 186.3517,-108.6261"/>
<polygon fill="#9a32cd" stroke="#9a32cd" points="150.1571,-338.8832 160.7341,-339.4973 152.8486,-332.4213 150.1571,-338.8832"/>
<text text-anchor="middle" x="35.6808" y="-216" font-family="Helvetica,sans-Serif" font-size="10.00" fill="#000000"> windowGeom</text>
</g>
<!-- Node5 -->
<g id="node5" class="node">
<title>Node5</title>
<g id="a_node5"><a xlink:href="structcolour_struct.xhtml" target="_top" xlink:title=" ">
<polygon fill="none" stroke="#000000" points="360.3413,-339.5 360.3413,-359.5 429.6813,-359.5 429.6813,-339.5 360.3413,-339.5"/>
<text text-anchor="middle" x="395.0113" y="-346.5" font-family="Helvetica,sans-Serif" font-size="10.00" fill="#000000">colourStruct</text>
</a>
</g>
</g>
<!-- Node5&#45;&gt;Node2 -->
<g id="edge18" class="edge">
<title>Node5&#45;&gt;Node2</title>
<path fill="none" stroke="#9a32cd" stroke-dasharray="5,2" d="M417.0734,-332.7976C421.2684,-329.1397 425.4537,-325.1214 429.0113,-321 461.736,-283.0903 465.6142,-269.7931 488.0113,-225 493.0153,-214.9924 497.5811,-203.0198 500.5429,-194.6991"/>
<polygon fill="#9a32cd" stroke="#9a32cd" points="414.6491,-330.26 409.1568,-339.3201 419.1003,-335.6626 414.6491,-330.26"/>
<text text-anchor="middle" x="517.9043" y="-270" font-family="Helvetica,sans-Serif" font-size="10.00" fill="#000000"> labelBGColour</text>
<text text-anchor="middle" x="517.9043" y="-258" font-family="Helvetica,sans-Serif" font-size="10.00" fill="#000000">colourNames</text>
<text text-anchor="middle" x="517.9043" y="-246" font-family="Helvetica,sans-Serif" font-size="10.00" fill="#000000">fontColourNames</text>
</g>
<!-- Node5&#45;&gt;Node3 -->
<g id="edge4" class="edge">
<title>Node5&#45;&gt;Node3</title>
<path fill="none" stroke="#9a32cd" stroke-dasharray="5,2" d="M395.0113,-329.1978C395.0113,-311.0125 395.0113,-285.1048 395.0113,-271.0337"/>
<polygon fill="#9a32cd" stroke="#9a32cd" points="391.5114,-329.3479 395.0113,-339.3479 398.5114,-329.348 391.5114,-329.3479"/>
<text text-anchor="middle" x="410.0133" y="-306" font-family="Helvetica,sans-Serif" font-size="10.00" fill="#000000"> colour</text>
</g>
<!-- Node5&#45;&gt;Node7 -->
<g id="edge12" class="edge">
<title>Node5&#45;&gt;Node7</title>
<path fill="none" stroke="#9a32cd" stroke-dasharray="5,2" d="M380.5752,-331.5217C362.4721,-308.2007 331.5411,-265.6739 312.7883,-225 294.7793,-185.9391 311.6354,-166.5468 286.0113,-132 280.3725,-124.3976 272.0535,-118.2685 264.1626,-113.6704"/>
<polygon fill="#9a32cd" stroke="#9a32cd" points="377.8989,-333.7806 386.8331,-339.4754 383.4003,-329.4521 377.8989,-333.7806"/>
<text text-anchor="middle" x="361.6228" y="-216" font-family="Helvetica,sans-Serif" font-size="10.00" fill="#000000"> windowColourNames</text>
</g>
<!-- Node6 -->
<g id="node6" class="node">
<title>Node6</title>
<g id="a_node6"><a xlink:href="structcairo_color.xhtml" target="_top" xlink:title=" ">
<polygon fill="none" stroke="#000000" points="364.2358,-408.5 364.2358,-428.5 425.7868,-428.5 425.7868,-408.5 364.2358,-408.5"/>
<text text-anchor="middle" x="395.0113" y="-415.5" font-family="Helvetica,sans-Serif" font-size="10.00" fill="#000000">cairoColor</text>
</a>
</g>
</g>
<!-- Node6&#45;&gt;Node5 -->
<g id="edge5" class="edge">
<title>Node6&#45;&gt;Node5</title>
<path fill="none" stroke="#9a32cd" stroke-dasharray="5,2" d="M395.0113,-398.2177C395.0113,-385.5684 395.0113,-369.8285 395.0113,-359.723"/>
<polygon fill="#9a32cd" stroke="#9a32cd" points="391.5114,-398.3188 395.0113,-408.3188 398.5114,-398.3188 391.5114,-398.3188"/>
<text text-anchor="middle" x="425.2908" y="-381" font-family="Helvetica,sans-Serif" font-size="10.00" fill="#000000"> RGBAColour</text>
</g>
<!-- Node7&#45;&gt;Node2 -->
<g id="edge7" class="edge">
<title>Node7&#45;&gt;Node2</title>
<path fill="none" stroke="#9a32cd" stroke-dasharray="5,2" d="M307.9628,-109.833C349.6555,-114.663 399.1156,-122.1611 418.0113,-132 431.2052,-138.87 429.1742,-147.4395 441.3393,-156 451.8965,-163.4289 464.7003,-169.6621 475.9762,-174.3862"/>
<polygon fill="#9a32cd" stroke="#9a32cd" points="308.1584,-106.3331 297.8297,-108.6929 307.3757,-113.2892 308.1584,-106.3331"/>
<text text-anchor="middle" x="467.8473" y="-147" font-family="Helvetica,sans-Serif" font-size="10.00" fill="#000000"> contextWC</text>
<text text-anchor="middle" x="467.8473" y="-135" font-family="Helvetica,sans-Serif" font-size="10.00" fill="#000000">wc</text>
</g>
<!-- Node8 -->
<g id="node8" class="node">
<title>Node8</title>
<g id="a_node8"><a xlink:href="structmonitor_struct.xhtml" target="_top" xlink:title=" ">
<polygon fill="none" stroke="#000000" points="18.2873,-174.5 18.2873,-194.5 93.7353,-194.5 93.7353,-174.5 18.2873,-174.5"/>
<text text-anchor="middle" x="56.0113" y="-181.5" font-family="Helvetica,sans-Serif" font-size="10.00" fill="#000000">monitorStruct</text>
</a>
</g>
</g>
<!-- Node8&#45;&gt;Node7 -->
<g id="edge9" class="edge">
<title>Node8&#45;&gt;Node7</title>
<path fill="none" stroke="#9a32cd" stroke-dasharray="5,2" d="M72.2254,-166.9045C83.8607,-155.314 100.501,-140.7202 117.8993,-132 139.0473,-121.4005 164.199,-114.6826 186.313,-110.4533"/>
<polygon fill="#9a32cd" stroke="#9a32cd" points="69.4664,-164.7223 65.0219,-174.3399 74.4939,-169.593 69.4664,-164.7223"/>
<text text-anchor="middle" x="138.5673" y="-141" font-family="Helvetica,sans-Serif" font-size="10.00" fill="#000000"> monitors</text>
</g>
<!-- Node9 -->
<g id="node9" class="node">
<title>Node9</title>
<g id="a_node9"><a xlink:href="structdrop_data_struct.xhtml" target="_top" xlink:title=" ">
<polygon fill="none" stroke="#000000" points="111.3928,-174.5 111.3928,-194.5 194.6298,-194.5 194.6298,-174.5 111.3928,-174.5"/>
<text text-anchor="middle" x="153.0113" y="-181.5" font-family="Helvetica,sans-Serif" font-size="10.00" fill="#000000">dropDataStruct</text>
</a>
</g>
</g>
<!-- Node9&#45;&gt;Node7 -->
<g id="edge11" class="edge">
<title>Node9&#45;&gt;Node7</title>
<path fill="none" stroke="#9a32cd" stroke-dasharray="5,2" d="M158.8123,-164.8468C162.846,-154.0136 169.1831,-140.981 178.4333,-132 186.7648,-123.911 197.7884,-117.881 208.3133,-113.5032"/>
<polygon fill="#9a32cd" stroke="#9a32cd" points="155.4848,-163.7615 155.6309,-174.3553 162.1231,-165.9826 155.4848,-163.7615"/>
<text text-anchor="middle" x="209.3003" y="-141" font-family="Helvetica,sans-Serif" font-size="10.00" fill="#000000"> droppedData</text>
</g>
<!-- Node10 -->
<g id="node10" class="node">
<title>Node10</title>
<g id="a_node10"><a xlink:href="class_l_f_s_t_k__lib.xhtml" target="_top" xlink:title="Library of useful routines for LFSToolKit.">
<polygon fill="none" stroke="#000000" points="212.6758,-174.5 212.6758,-194.5 275.3468,-194.5 275.3468,-174.5 212.6758,-174.5"/>
<text text-anchor="middle" x="244.0113" y="-181.5" font-family="Helvetica,sans-Serif" font-size="10.00" fill="#000000">LFSTK_lib</text>
</a>
</g>
</g>
<!-- Node10&#45;&gt;Node7 -->
<g id="edge13" class="edge">
<title>Node10&#45;&gt;Node7</title>
<path fill="none" stroke="#9a32cd" stroke-dasharray="5,2" d="M243.4397,-164.2989C243.3642,-161.511 243.2895,-158.6844 243.2213,-156 242.8466,-141.2352 242.4616,-124.1334 242.2294,-113.5649"/>
<polygon fill="#9a32cd" stroke="#9a32cd" points="239.946,-164.5772 243.7221,-174.4762 246.9433,-164.383 239.946,-164.5772"/>
<text text-anchor="middle" x="265.4063" y="-141" font-family="Helvetica,sans-Serif" font-size="10.00" fill="#000000"> globalLib</text>
</g>
<!-- Node11 -->
<g id="node11" class="node">
<title>Node11</title>
<g id="a_node11"><a xlink:href="structargs.xhtml" target="_top" xlink:title=" ">
<polygon fill="none" stroke="#000000" points="76.2878,-251 76.2878,-271 111.7348,-271 111.7348,-251 76.2878,-251"/>
<text text-anchor="middle" x="94.0113" y="-258" font-family="Helvetica,sans-Serif" font-size="10.00" fill="#000000">args</text>
</a>
</g>
</g>
<!-- Node11&#45;&gt;Node10 -->
<g id="edge14" class="edge">
<title>Node11&#45;&gt;Node10</title>
<path fill="none" stroke="#9a32cd" stroke-dasharray="5,2" d="M89.093,-240.94C87.9932,-231.4101 88.7071,-220.4933 95.2273,-213 111.3117,-194.5152 180.0485,-200.1161 204.0113,-195 206.8199,-194.4004 209.7274,-193.7318 212.6343,-193.0304"/>
<polygon fill="#9a32cd" stroke="#9a32cd" points="85.6628,-241.6399 90.8926,-250.8539 92.5502,-240.3896 85.6628,-241.6399"/>
<text text-anchor="middle" x="134.9033" y="-216" font-family="Helvetica,sans-Serif" font-size="10.00" fill="#000000"> lfsToolKitGlobals</text>
</g>
<!-- Node12&#45;&gt;Node2 -->
<g id="edge15" class="edge">
<title>Node12&#45;&gt;Node2</title>
<path fill="none" stroke="#9a32cd" stroke-dasharray="5,2" d="M556.0122,-120.0076C551.3991,-123.7342 546.731,-127.8287 542.6843,-132 529.7572,-145.3256 517.5215,-163.1238 510.3967,-174.1953"/>
<polygon fill="#9a32cd" stroke="#9a32cd" points="558.3306,-122.6395 564.1102,-113.7599 554.0547,-117.0972 558.3306,-122.6395"/>
<text text-anchor="middle" x="549.6748" y="-141" font-family="Helvetica,sans-Serif" font-size="10.00" fill="#000000"> ml</text>
</g>
<!-- Node13 -->
<g id="node13" class="node">
<title>Node13</title>
<g id="a_node13"><a xlink:href="structbutton_c_b.xhtml" target="_top" xlink:title=" ">
<polygon fill="none" stroke="#000000" points="598.1703,-251 598.1703,-271 655.8523,-271 655.8523,-251 598.1703,-251"/>
<text text-anchor="middle" x="627.0113" y="-258" font-family="Helvetica,sans-Serif" font-size="10.00" fill="#000000">buttonCB</text>
</a>
</g>
</g>
<!-- Node13&#45;&gt;Node2 -->
<g id="edge17" class="edge">
<title>Node13&#45;&gt;Node2</title>
<path fill="none" stroke="#9a32cd" stroke-dasharray="5,2" d="M602.2043,-245.5712C577.7185,-230.3422 540.9999,-207.5051 520.0954,-194.5035"/>
<polygon fill="#9a32cd" stroke="#9a32cd" points="600.5911,-248.6896 610.9312,-250.999 604.2881,-242.7455 600.5911,-248.6896"/>
<text text-anchor="middle" x="585.4583" y="-216" font-family="Helvetica,sans-Serif" font-size="10.00" fill="#000000"> callback</text>
</g>
<!-- Node14&#45;&gt;Node1 -->
<g id="edge19" class="edge">
<title>Node14&#45;&gt;Node1</title>
<path fill="none" stroke="#9a32cd" stroke-dasharray="5,2" d="M666.1722,-88.3594C631.0641,-69.2655 571.6655,-36.961 541.6139,-20.6172"/>
<polygon fill="#9a32cd" stroke="#9a32cd" points="664.9288,-91.6673 675.3858,-93.3703 668.2732,-85.5179 664.9288,-91.6673"/>
<text text-anchor="middle" x="661.6268" y="-66" font-family="Helvetica,sans-Serif" font-size="10.00" fill="#000000"> upLeft</text>
<text text-anchor="middle" x="661.6268" y="-54" font-family="Helvetica,sans-Serif" font-size="10.00" fill="#000000">downRight</text>
<text text-anchor="middle" x="661.6268" y="-42" font-family="Helvetica,sans-Serif" font-size="10.00" fill="#000000">thumb</text>
</g>
</g>
</svg>
