<?xml version="1.0" encoding="UTF-8" standalone="no"?>
<!DOCTYPE svg PUBLIC "-//W3C//DTD SVG 1.1//EN"
 "http://www.w3.org/Graphics/SVG/1.1/DTD/svg11.dtd">
<!-- Generated by graphviz version 2.40.1 (20161225.0304)
 -->
<!-- Title: LFSTK_windowClass::LFSTK_reloadGlobals Pages: 1 -->
<!--zoomable 386 -->
<svg id="main" version="1.1" xmlns="http://www.w3.org/2000/svg" xmlns:xlink="http://www.w3.org/1999/xlink" xml:space="preserve" onload="init(evt)">
<style type="text/css"><![CDATA[
.edge:hover path { stroke: red; }
.edge:hover polygon { stroke: red; fill: red; }
]]></style>
<script type="text/javascript"><![CDATA[
var edges = document.getElementsByTagName('g');
if (edges && edges.length) {
  for (var i=0;i<edges.length;i++) {
    if (edges[i].id.substr(0,4)=='edge') {
      edges[i].setAttribute('class','edge');
    }
  }
}
]]></script>
        <defs>
                <circle id="rim" cx="0" cy="0" r="7"/>
                <circle id="rim2" cx="0" cy="0" r="3.5"/>
                <g id="zoomPlus">
                        <use xlink:href="#rim" fill="#404040">
                                <set attributeName="fill" to="#808080" begin="zoomplus.mouseover" end="zoomplus.mouseout"/>
                        </use>
                        <path d="M-4,0h8M0,-4v8" fill="none" stroke="white" stroke-width="1.5" pointer-events="none"/>
                </g>
                <g id="zoomMin">
                        <use xlink:href="#rim" fill="#404040">
                                <set attributeName="fill" to="#808080" begin="zoomminus.mouseover" end="zoomminus.mouseout"/>
                        </use>
                        <path d="M-4,0h8" fill="none" stroke="white" stroke-width="1.5" pointer-events="none"/>
                </g>
                <g id="dirArrow">
                        <path fill="none" stroke="white" stroke-width="1.5" d="M0,-3.0v7 M-2.5,-0.5L0,-3.0L2.5,-0.5"/>
                </g>
               <g id="resetDef">
                       <use xlink:href="#rim2" fill="#404040">
                               <set attributeName="fill" to="#808080" begin="reset.mouseover" end="reset.mouseout"/>
                       </use>
               </g>
        </defs>

<script type="text/javascript">
var viewWidth = 979;
var viewHeight = 386;
var sectionId = 'dynsection-0';
</script>
<script xlink:href="svgpan.js"/>
<svg id="graph" class="graph">
<g id="viewport">
<title>LFSTK_windowClass::LFSTK_reloadGlobals</title>
<!-- Node1 -->
<g id="node1" class="node">
<title>Node1</title>
<g id="a_node1"><a xlink:title=" ">
<polygon fill="#bfbfbf" stroke="#000000" points="0,-184.5 0,-216.5 116.563,-216.5 116.563,-184.5 0,-184.5"/>
<text text-anchor="start" x="8" y="-203.5" font-family="Helvetica,sans-Serif" font-size="10.00" fill="#000000">LFSTK_windowClass::</text>
<text text-anchor="middle" x="58.2815" y="-191.5" font-family="Helvetica,sans-Serif" font-size="10.00" fill="#000000">LFSTK_reloadGlobals</text>
</a>
</g>
</g>
<!-- Node2 -->
<g id="node2" class="node">
<title>Node2</title>
<g id="a_node2"><a xlink:href="class_l_f_s_t_k__window_class_ac3b5b99b3a018cce7c631df39db76be1.xhtml#ac3b5b99b3a018cce7c631df39db76be1" target="_top" xlink:title=" ">
<polygon fill="none" stroke="#000000" points="170.349,-253.5 170.349,-285.5 286.912,-285.5 286.912,-253.5 170.349,-253.5"/>
<text text-anchor="start" x="178.349" y="-272.5" font-family="Helvetica,sans-Serif" font-size="10.00" fill="#000000">LFSTK_windowClass::</text>
<text text-anchor="middle" x="228.6305" y="-260.5" font-family="Helvetica,sans-Serif" font-size="10.00" fill="#000000">LFSTK_clearWindow</text>
</a>
</g>
</g>
<!-- Node1&#45;&gt;Node2 -->
<g id="edge1" class="edge">
<title>Node1&#45;&gt;Node2</title>
<path fill="none" stroke="#191970" d="M92.4876,-216.5101C110.2644,-224.6332 132.4284,-234.4561 152.563,-242.5 158.7708,-244.98 165.3063,-247.4733 171.8319,-249.8888"/>
<polygon fill="#191970" stroke="#191970" points="170.7523,-253.2206 181.3462,-253.3615 173.1524,-246.6449 170.7523,-253.2206"/>
</g>
<!-- Node12 -->
<g id="node12" class="node">
<title>Node12</title>
<g id="a_node12"><a xlink:href="class_l_f_s_t_k__lib_a9841f84eb7d1b7572e24edb73fb41ff1.xhtml#a9841f84eb7d1b7572e24edb73fb41ff1" target="_top" xlink:title=" ">
<polygon fill="none" stroke="#000000" points="152.563,-213.5 152.563,-233.5 304.698,-233.5 304.698,-213.5 152.563,-213.5"/>
<text text-anchor="middle" x="228.6305" y="-220.5" font-family="Helvetica,sans-Serif" font-size="10.00" fill="#000000">LFSTK_lib::LFSTK_getTKArgs</text>
</a>
</g>
</g>
<!-- Node1&#45;&gt;Node12 -->
<g id="edge12" class="edge">
<title>Node1&#45;&gt;Node12</title>
<path fill="none" stroke="#191970" d="M116.906,-208.4153C125.8114,-209.6177 135.147,-210.8781 144.4665,-212.1364"/>
<polygon fill="#191970" stroke="#191970" points="144.1733,-215.6285 154.5517,-213.4981 145.1099,-208.6915 144.1733,-215.6285"/>
</g>
<!-- Node13 -->
<g id="node13" class="node">
<title>Node13</title>
<g id="a_node13"><a xlink:href="class_l_f_s_t_k__lib_a146f9877d176f908c95cbebdeadec4ac.xhtml#a146f9877d176f908c95cbebdeadec4ac" target="_top" xlink:title=" ">
<polygon fill="none" stroke="#000000" points="156.4525,-162.5 156.4525,-194.5 300.8085,-194.5 300.8085,-162.5 156.4525,-162.5"/>
<text text-anchor="start" x="164.4525" y="-181.5" font-family="Helvetica,sans-Serif" font-size="10.00" fill="#000000">LFSTK_lib::LFSTK_loadVars</text>
<text text-anchor="middle" x="228.6305" y="-169.5" font-family="Helvetica,sans-Serif" font-size="10.00" fill="#000000">FromFile</text>
</a>
</g>
</g>
<!-- Node1&#45;&gt;Node13 -->
<g id="edge13" class="edge">
<title>Node1&#45;&gt;Node13</title>
<path fill="none" stroke="#191970" d="M116.906,-192.9288C126.4339,-191.6983 136.4544,-190.4042 146.4206,-189.1171"/>
<polygon fill="#191970" stroke="#191970" points="146.8793,-192.5871 156.3486,-187.835 145.9826,-185.6447 146.8793,-192.5871"/>
</g>
<!-- Node14 -->
<g id="node14" class="node">
<title>Node14</title>
<g id="a_node14"><a xlink:href="class_l_f_s_t_k__window_class_aa1cdaa019a010bb17387dd39b6165303.xhtml#aa1cdaa019a010bb17387dd39b6165303" target="_top" xlink:title=" ">
<polygon fill="none" stroke="#000000" points="170.349,-108.5 170.349,-140.5 286.912,-140.5 286.912,-108.5 170.349,-108.5"/>
<text text-anchor="start" x="178.349" y="-127.5" font-family="Helvetica,sans-Serif" font-size="10.00" fill="#000000">LFSTK_windowClass::</text>
<text text-anchor="middle" x="228.6305" y="-115.5" font-family="Helvetica,sans-Serif" font-size="10.00" fill="#000000">loadGlobalColours</text>
</a>
</g>
</g>
<!-- Node1&#45;&gt;Node14 -->
<g id="edge14" class="edge">
<title>Node1&#45;&gt;Node14</title>
<path fill="none" stroke="#191970" d="M87.5748,-184.4552C105.9726,-174.663 130.3448,-162.2045 152.563,-152.5 159.1238,-149.6344 166.0812,-146.8019 173.0183,-144.1025"/>
<polygon fill="#191970" stroke="#191970" points="174.3307,-147.348 182.4264,-140.5135 171.8357,-140.8077 174.3307,-147.348"/>
</g>
<!-- Node3 -->
<g id="node3" class="node">
<title>Node3</title>
<g id="a_node3"><a xlink:href="class_l_f_s_t_k__gadget_class_aa5b5f301fe9b0a4d7679f786da7462ba.xhtml#aa5b5f301fe9b0a4d7679f786da7462ba" target="_top" xlink:title=" ">
<polygon fill="none" stroke="#000000" points="362.6345,-255.5 362.6345,-287.5 476.4375,-287.5 476.4375,-255.5 362.6345,-255.5"/>
<text text-anchor="start" x="370.6345" y="-274.5" font-family="Helvetica,sans-Serif" font-size="10.00" fill="#000000">LFSTK_gadgetClass::</text>
<text text-anchor="middle" x="419.536" y="-262.5" font-family="Helvetica,sans-Serif" font-size="10.00" fill="#000000">LFSTK_clearWindow</text>
</a>
</g>
</g>
<!-- Node2&#45;&gt;Node3 -->
<g id="edge2" class="edge">
<title>Node2&#45;&gt;Node3</title>
<path fill="none" stroke="#191970" d="M286.9458,-270.1109C307.5826,-270.3271 330.9632,-270.5721 352.2821,-270.7954"/>
<polygon fill="#191970" stroke="#191970" points="352.5249,-274.2981 362.5611,-270.9031 352.5983,-267.2984 352.5249,-274.2981"/>
</g>
<!-- Node4 -->
<g id="node4" class="node">
<title>Node4</title>
<g id="a_node4"><a xlink:href="class_l_f_s_t_k__gadget_class_a66b92f213e5a7e75da3f707b511342ea.xhtml#a66b92f213e5a7e75da3f707b511342ea" target="_top" xlink:title=" ">
<polygon fill="none" stroke="#000000" points="534.374,-255.5 534.374,-287.5 648.177,-287.5 648.177,-255.5 534.374,-255.5"/>
<text text-anchor="start" x="542.374" y="-274.5" font-family="Helvetica,sans-Serif" font-size="10.00" fill="#000000">LFSTK_gadgetClass::</text>
<text text-anchor="middle" x="591.2755" y="-262.5" font-family="Helvetica,sans-Serif" font-size="10.00" fill="#000000">drawGagetDetails</text>
</a>
</g>
</g>
<!-- Node3&#45;&gt;Node4 -->
<g id="edge3" class="edge">
<title>Node3&#45;&gt;Node4</title>
<path fill="none" stroke="#191970" d="M476.7228,-271.5C491.931,-271.5 508.4953,-271.5 524.1808,-271.5"/>
<polygon fill="#191970" stroke="#191970" points="524.3385,-275.0001 534.3385,-271.5 524.3384,-268.0001 524.3385,-275.0001"/>
</g>
<!-- Node5 -->
<g id="node5" class="node">
<title>Node5</title>
<g id="a_node5"><a xlink:href="class_l_f_s_t_k__gadget_class_a37d96aab3c59cb97fca1720441e3fc8e.xhtml#a37d96aab3c59cb97fca1720441e3fc8e" target="_top" xlink:title=" ">
<polygon fill="none" stroke="#000000" points="684.177,-345.5 684.177,-377.5 797.98,-377.5 797.98,-345.5 684.177,-345.5"/>
<text text-anchor="start" x="692.177" y="-364.5" font-family="Helvetica,sans-Serif" font-size="10.00" fill="#000000">LFSTK_gadgetClass::</text>
<text text-anchor="middle" x="741.0785" y="-352.5" font-family="Helvetica,sans-Serif" font-size="10.00" fill="#000000">clearBox</text>
</a>
</g>
</g>
<!-- Node4&#45;&gt;Node5 -->
<g id="edge4" class="edge">
<title>Node4&#45;&gt;Node5</title>
<path fill="none" stroke="#191970" d="M615.838,-287.7326C634.4064,-299.8483 660.6354,-316.6328 684.177,-330.5 689.7747,-333.7973 695.7426,-337.1846 701.6287,-340.4533"/>
<polygon fill="#191970" stroke="#191970" points="700.2964,-343.7148 710.7461,-345.4625 703.6671,-337.5797 700.2964,-343.7148"/>
</g>
<!-- Node6 -->
<g id="node6" class="node">
<title>Node6</title>
<g id="a_node6"><a xlink:href="class_l_f_s_t_k__gadget_class_ab76db165a19af248b5e94e95492dc879.xhtml#ab76db165a19af248b5e94e95492dc879" target="_top" xlink:title=" ">
<polygon fill="none" stroke="#000000" points="845.3665,-262.5 845.3665,-294.5 959.1695,-294.5 959.1695,-262.5 845.3665,-262.5"/>
<text text-anchor="start" x="853.3665" y="-281.5" font-family="Helvetica,sans-Serif" font-size="10.00" fill="#000000">LFSTK_gadgetClass::</text>
<text text-anchor="middle" x="902.268" y="-269.5" font-family="Helvetica,sans-Serif" font-size="10.00" fill="#000000">drawBevel</text>
</a>
</g>
</g>
<!-- Node4&#45;&gt;Node6 -->
<g id="edge5" class="edge">
<title>Node4&#45;&gt;Node6</title>
<path fill="none" stroke="#191970" d="M638.9663,-287.5327C653.3278,-291.6275 669.2435,-295.4497 684.177,-297.5 734.286,-304.3797 747.6061,-302.0513 797.98,-297.5 810.0084,-296.4132 822.723,-294.6351 834.9817,-292.5914"/>
<polygon fill="#191970" stroke="#191970" points="835.8952,-295.9851 845.1467,-290.8217 834.6945,-289.0889 835.8952,-295.9851"/>
</g>
<!-- Node7 -->
<g id="node7" class="node">
<title>Node7</title>
<g id="a_node7"><a xlink:href="class_l_f_s_t_k__gadget_class_af5386ffc4699273f6c53a920fc8b2f1d.xhtml#af5386ffc4699273f6c53a920fc8b2f1d" target="_top" xlink:title=" ">
<polygon fill="none" stroke="#000000" points="684.177,-255.5 684.177,-287.5 797.98,-287.5 797.98,-255.5 684.177,-255.5"/>
<text text-anchor="start" x="692.177" y="-274.5" font-family="Helvetica,sans-Serif" font-size="10.00" fill="#000000">LFSTK_gadgetClass::</text>
<text text-anchor="middle" x="741.0785" y="-262.5" font-family="Helvetica,sans-Serif" font-size="10.00" fill="#000000">drawImage</text>
</a>
</g>
</g>
<!-- Node4&#45;&gt;Node7 -->
<g id="edge6" class="edge">
<title>Node4&#45;&gt;Node7</title>
<path fill="none" stroke="#191970" d="M648.3369,-271.5C656.7759,-271.5 665.5356,-271.5 674.1529,-271.5"/>
<polygon fill="#191970" stroke="#191970" points="674.1758,-275.0001 684.1757,-271.5 674.1757,-268.0001 674.1758,-275.0001"/>
</g>
<!-- Node8 -->
<g id="node8" class="node">
<title>Node8</title>
<g id="a_node8"><a xlink:href="class_l_f_s_t_k__gadget_class_af77235e4dc604470c9d62f101238225b.xhtml#af77235e4dc604470c9d62f101238225b" target="_top" xlink:title=" ">
<polygon fill="none" stroke="#000000" points="684.177,-204.5 684.177,-236.5 797.98,-236.5 797.98,-204.5 684.177,-204.5"/>
<text text-anchor="start" x="692.177" y="-223.5" font-family="Helvetica,sans-Serif" font-size="10.00" fill="#000000">LFSTK_gadgetClass::</text>
<text text-anchor="middle" x="741.0785" y="-211.5" font-family="Helvetica,sans-Serif" font-size="10.00" fill="#000000">drawIndicator</text>
</a>
</g>
</g>
<!-- Node4&#45;&gt;Node8 -->
<g id="edge7" class="edge">
<title>Node4&#45;&gt;Node8</title>
<path fill="none" stroke="#191970" d="M638.6741,-255.3633C653.1591,-250.4319 669.2377,-244.958 684.28,-239.8369"/>
<polygon fill="#191970" stroke="#191970" points="685.6498,-243.0679 693.9882,-236.5317 683.3938,-236.4414 685.6498,-243.0679"/>
</g>
<!-- Node9 -->
<g id="node9" class="node">
<title>Node9</title>
<g id="a_node9"><a xlink:href="class_l_f_s_t_k__gadget_class_a7f44f781b167d66c5d6f4cc862a7e2db.xhtml#a7f44f781b167d66c5d6f4cc862a7e2db" target="_top" xlink:title=" ">
<polygon fill="none" stroke="#000000" points="684.177,-153.5 684.177,-185.5 797.98,-185.5 797.98,-153.5 684.177,-153.5"/>
<text text-anchor="start" x="692.177" y="-172.5" font-family="Helvetica,sans-Serif" font-size="10.00" fill="#000000">LFSTK_gadgetClass::</text>
<text text-anchor="middle" x="741.0785" y="-160.5" font-family="Helvetica,sans-Serif" font-size="10.00" fill="#000000">drawLabel</text>
</a>
</g>
</g>
<!-- Node4&#45;&gt;Node9 -->
<g id="edge9" class="edge">
<title>Node4&#45;&gt;Node9</title>
<path fill="none" stroke="#191970" d="M607.645,-255.4985C625.4025,-238.748 655.1207,-212.4356 684.177,-194.5 686.5069,-193.0618 688.9339,-191.6631 691.416,-190.3102"/>
<polygon fill="#191970" stroke="#191970" points="693.2637,-193.2963 700.5692,-185.623 690.073,-187.0658 693.2637,-193.2963"/>
</g>
<!-- Node8&#45;&gt;Node6 -->
<g id="edge8" class="edge">
<title>Node8&#45;&gt;Node6</title>
<path fill="none" stroke="#191970" d="M785.5509,-236.5023C804.9383,-243.4784 827.8419,-251.7196 848.2028,-259.046"/>
<polygon fill="#191970" stroke="#191970" points="847.0667,-262.3568 857.6612,-262.4493 849.4368,-255.7703 847.0667,-262.3568"/>
</g>
<!-- Node10 -->
<g id="node10" class="node">
<title>Node10</title>
<g id="a_node10"><a xlink:href="class_l_f_s_t_k__lib_ab2f14a3414f7db863682d1e2fa0cfb75.xhtml#ab2f14a3414f7db863682d1e2fa0cfb75" target="_top" xlink:title=" ">
<polygon fill="none" stroke="#000000" points="833.98,-185.5 833.98,-205.5 970.556,-205.5 970.556,-185.5 833.98,-185.5"/>
<text text-anchor="middle" x="902.268" y="-192.5" font-family="Helvetica,sans-Serif" font-size="10.00" fill="#000000">LFSTK_lib::bestFontColour</text>
</a>
</g>
</g>
<!-- Node9&#45;&gt;Node10 -->
<g id="edge10" class="edge">
<title>Node9&#45;&gt;Node10</title>
<path fill="none" stroke="#191970" d="M798.3617,-178.7398C808.6478,-180.399 819.4882,-182.1475 830.1297,-183.864"/>
<polygon fill="#191970" stroke="#191970" points="829.8171,-187.3588 840.2469,-185.4959 830.9319,-180.4481 829.8171,-187.3588"/>
</g>
<!-- Node11 -->
<g id="node11" class="node">
<title>Node11</title>
<g id="a_node11"><a xlink:href="class_l_f_s_t_k__gadget_class_a091281ba03eaeb31bc7507c74b9b4f2f.xhtml#a091281ba03eaeb31bc7507c74b9b4f2f" target="_top" xlink:title=" ">
<polygon fill="none" stroke="#000000" points="844.812,-134.5 844.812,-166.5 959.724,-166.5 959.724,-134.5 844.812,-134.5"/>
<text text-anchor="start" x="852.812" y="-153.5" font-family="Helvetica,sans-Serif" font-size="10.00" fill="#000000">LFSTK_gadgetClass::</text>
<text text-anchor="middle" x="902.268" y="-141.5" font-family="Helvetica,sans-Serif" font-size="10.00" fill="#000000">LFSTK_getTextHeight</text>
</a>
</g>
</g>
<!-- Node9&#45;&gt;Node11 -->
<g id="edge11" class="edge">
<title>Node9&#45;&gt;Node11</title>
<path fill="none" stroke="#191970" d="M798.3617,-162.7478C810.0971,-161.3645 822.5539,-159.8962 834.6137,-158.4747"/>
<polygon fill="#191970" stroke="#191970" points="835.1046,-161.9411 844.6261,-157.2945 834.2851,-154.9892 835.1046,-161.9411"/>
</g>
<!-- Node15 -->
<g id="node15" class="node">
<title>Node15</title>
<g id="a_node15"><a xlink:href="class_l_f_s_t_k__lib_a24d88a5207e8355d10b788238d981fe6.xhtml#a24d88a5207e8355d10b788238d981fe6" target="_top" xlink:title=" ">
<polygon fill="none" stroke="#000000" points="349.853,-204.5 349.853,-236.5 489.219,-236.5 489.219,-204.5 349.853,-204.5"/>
<text text-anchor="start" x="357.853" y="-223.5" font-family="Helvetica,sans-Serif" font-size="10.00" fill="#000000">LFSTK_lib::LFSTK_getAuto</text>
<text text-anchor="middle" x="419.536" y="-211.5" font-family="Helvetica,sans-Serif" font-size="10.00" fill="#000000">LabelColour</text>
</a>
</g>
</g>
<!-- Node14&#45;&gt;Node15 -->
<g id="edge15" class="edge">
<title>Node14&#45;&gt;Node15</title>
<path fill="none" stroke="#191970" d="M283.1243,-140.6544C290.6871,-143.9941 298.1116,-147.9217 304.698,-152.5 324.8855,-166.5325 320.2739,-180.8142 340.698,-194.5 343.5995,-196.4443 346.6582,-198.2534 349.8183,-199.9356"/>
<polygon fill="#191970" stroke="#191970" points="348.4196,-203.1469 358.9463,-204.3471 351.4656,-196.8444 348.4196,-203.1469"/>
</g>
<!-- Node16 -->
<g id="node16" class="node">
<title>Node16</title>
<g id="a_node16"><a xlink:href="class_l_f_s_t_k__lib_a46aa104681d600dd4eb24549e813b5cc.xhtml#a46aa104681d600dd4eb24549e813b5cc" target="_top" xlink:title=" ">
<polygon fill="none" stroke="#000000" points="345.689,-153.5 345.689,-185.5 493.383,-185.5 493.383,-153.5 345.689,-153.5"/>
<text text-anchor="start" x="353.689" y="-172.5" font-family="Helvetica,sans-Serif" font-size="10.00" fill="#000000">LFSTK_lib::LFSTK_getGlobal</text>
<text text-anchor="middle" x="419.536" y="-160.5" font-family="Helvetica,sans-Serif" font-size="10.00" fill="#000000">String</text>
</a>
</g>
</g>
<!-- Node14&#45;&gt;Node16 -->
<g id="edge16" class="edge">
<title>Node14&#45;&gt;Node16</title>
<path fill="none" stroke="#191970" d="M286.9458,-138.246C304.2339,-142.3211 323.4477,-146.8502 341.7618,-151.1672"/>
<polygon fill="#191970" stroke="#191970" points="340.9963,-154.5826 351.5326,-153.4703 342.6024,-147.7693 340.9963,-154.5826"/>
</g>
<!-- Node17 -->
<g id="node17" class="node">
<title>Node17</title>
<g id="a_node17"><a xlink:href="class_l_f_s_t_k__window_class_a3a14b82ac1628b75173c5cb37d20926b.xhtml#a3a14b82ac1628b75173c5cb37d20926b" target="_top" xlink:title=" ">
<polygon fill="none" stroke="#000000" points="348.472,-102.5 348.472,-134.5 490.6,-134.5 490.6,-102.5 348.472,-102.5"/>
<text text-anchor="start" x="356.472" y="-121.5" font-family="Helvetica,sans-Serif" font-size="10.00" fill="#000000">LFSTK_windowClass::</text>
<text text-anchor="middle" x="419.536" y="-109.5" font-family="Helvetica,sans-Serif" font-size="10.00" fill="#000000">LFSTK_setFontColourName</text>
</a>
</g>
</g>
<!-- Node14&#45;&gt;Node17 -->
<g id="edge17" class="edge">
<title>Node14&#45;&gt;Node17</title>
<path fill="none" stroke="#191970" d="M286.9458,-122.6672C303.17,-122.1573 321.09,-121.5941 338.3709,-121.051"/>
<polygon fill="#191970" stroke="#191970" points="338.569,-124.5466 348.4541,-120.734 338.349,-117.55 338.569,-124.5466"/>
</g>
<!-- Node18 -->
<g id="node18" class="node">
<title>Node18</title>
<g id="a_node18"><a xlink:href="class_l_f_s_t_k__window_class_a9d54e326ce33b8806f19c9353269e6a8.xhtml#a9d54e326ce33b8806f19c9353269e6a8" target="_top" xlink:title=" ">
<polygon fill="none" stroke="#000000" points="361.2545,-51.5 361.2545,-83.5 477.8175,-83.5 477.8175,-51.5 361.2545,-51.5"/>
<text text-anchor="start" x="369.2545" y="-70.5" font-family="Helvetica,sans-Serif" font-size="10.00" fill="#000000">LFSTK_windowClass::</text>
<text text-anchor="middle" x="419.536" y="-58.5" font-family="Helvetica,sans-Serif" font-size="10.00" fill="#000000">LFSTK_setFontString</text>
</a>
</g>
</g>
<!-- Node14&#45;&gt;Node18 -->
<g id="edge18" class="edge">
<title>Node14&#45;&gt;Node18</title>
<path fill="none" stroke="#191970" d="M282.3164,-108.4706C305.2885,-101.6117 332.2809,-93.5524 356.2201,-86.4047"/>
<polygon fill="#191970" stroke="#191970" points="357.342,-89.7225 365.9227,-83.5077 355.3393,-83.015 357.342,-89.7225"/>
</g>
<!-- Node19 -->
<g id="node19" class="node">
<title>Node19</title>
<g id="a_node19"><a xlink:href="class_l_f_s_t_k__window_class_a612850c5641e44aea8a2c0b11ad8cd1b.xhtml#a612850c5641e44aea8a2c0b11ad8cd1b" target="_top" xlink:title=" ">
<polygon fill="none" stroke="#000000" points="340.698,-.5 340.698,-32.5 498.374,-32.5 498.374,-.5 340.698,-.5"/>
<text text-anchor="start" x="348.698" y="-19.5" font-family="Helvetica,sans-Serif" font-size="10.00" fill="#000000">LFSTK_windowClass::</text>
<text text-anchor="middle" x="419.536" y="-7.5" font-family="Helvetica,sans-Serif" font-size="10.00" fill="#000000">LFSTK_setWindowColourName</text>
</a>
</g>
</g>
<!-- Node14&#45;&gt;Node19 -->
<g id="edge19" class="edge">
<title>Node14&#45;&gt;Node19</title>
<path fill="none" stroke="#191970" d="M246.4129,-108.3792C267.5317,-89.9663 304.4756,-60.0035 340.698,-41.5 344.2644,-39.6782 347.9895,-37.9566 351.7963,-36.335"/>
<polygon fill="#191970" stroke="#191970" points="353.3925,-39.4665 361.3837,-32.5101 350.7986,-32.9648 353.3925,-39.4665"/>
</g>
</g>
</svg>
        <g id="navigator" transform="translate(0 0)" fill="#404254">
                <rect fill="#f2f5e9" fill-opacity="0.5" stroke="#606060" stroke-width=".5" x="0" y="0" width="60" height="60"/>
                <use id="zoomplus" xlink:href="#zoomPlus" x="17" y="9" onmousedown="handleZoom(evt,'in')"/>
                <use id="zoomminus" xlink:href="#zoomMin" x="42" y="9" onmousedown="handleZoom(evt,'out')"/>
                <use id="reset" xlink:href="#resetDef" x="30" y="36" onmousedown="handleReset()"/>
                <g id="arrowUp" xlink:href="#dirArrow" transform="translate(30 24)" onmousedown="handlePan(0,-1)">
                  <use xlink:href="#rim" fill="#404040">
                        <set attributeName="fill" to="#808080" begin="arrowUp.mouseover" end="arrowUp.mouseout"/>
                  </use>
                  <path fill="none" stroke="white" stroke-width="1.5" d="M0,-3.0v7 M-2.5,-0.5L0,-3.0L2.5,-0.5"/>
                </g>
                <g id="arrowRight" xlink:href="#dirArrow" transform="rotate(90) translate(36 -43)" onmousedown="handlePan(1,0)">
                  <use xlink:href="#rim" fill="#404040">
                        <set attributeName="fill" to="#808080" begin="arrowRight.mouseover" end="arrowRight.mouseout"/>
                  </use>
                  <path fill="none" stroke="white" stroke-width="1.5" d="M0,-3.0v7 M-2.5,-0.5L0,-3.0L2.5,-0.5"/>
                </g>
                <g id="arrowDown" xlink:href="#dirArrow" transform="rotate(180) translate(-30 -48)" onmousedown="handlePan(0,1)">
                  <use xlink:href="#rim" fill="#404040">
                        <set attributeName="fill" to="#808080" begin="arrowDown.mouseover" end="arrowDown.mouseout"/>
                  </use>
                  <path fill="none" stroke="white" stroke-width="1.5" d="M0,-3.0v7 M-2.5,-0.5L0,-3.0L2.5,-0.5"/>
                </g>
                <g id="arrowLeft" xlink:href="#dirArrow" transform="rotate(270) translate(-36 17)" onmousedown="handlePan(-1,0)">
                  <use xlink:href="#rim" fill="#404040">
                        <set attributeName="fill" to="#808080" begin="arrowLeft.mouseover" end="arrowLeft.mouseout"/>
                  </use>
                  <path fill="none" stroke="white" stroke-width="1.5" d="M0,-3.0v7 M-2.5,-0.5L0,-3.0L2.5,-0.5"/>
                </g>
        </g>
        <svg viewBox="0 0 15 15" width="100%" height="30px" preserveAspectRatio="xMaxYMin meet">
         <g id="arrow_out" transform="scale(0.3 0.3)">
          <a xlink:href="class_l_f_s_t_k__window_class_a22d62c1b464c98923d43cd3851362856_a22d62c1b464c98923d43cd3851362856_cgraph_org.svg" target="_base">
           <rect id="button" ry="5" rx="5" y="6" x="6" height="38" width="38"
                fill="#f2f5e9" fill-opacity="0.5" stroke="#606060" stroke-width="1.0"/>
           <path id="arrow"
             d="M 11.500037,31.436501 C 11.940474,20.09759 22.043105,11.32322 32.158766,21.979434 L 37.068811,17.246167 C 37.068811,17.246167 37.088388,32 37.088388,32 L 22.160133,31.978069 C 22.160133,31.978069 26.997745,27.140456 26.997745,27.140456 C 18.528582,18.264221 13.291696,25.230495 11.500037,31.436501 z"
             style="fill:#404040;"/>
          </a>
         </g>
        </svg>
</svg>
