<?xml version="1.0" encoding="UTF-8" standalone="no"?>
<!DOCTYPE svg PUBLIC "-//W3C//DTD SVG 1.1//EN"
 "http://www.w3.org/Graphics/SVG/1.1/DTD/svg11.dtd">
<!-- Generated by graphviz version 2.40.1 (20161225.0304)
 -->
<!-- Title: LFSTK_listGadgetClass::LFSTK_setList Pages: 1 -->
<svg width="780pt" height="185pt"
 viewBox="0.00 0.00 779.83 185.00" xmlns="http://www.w3.org/2000/svg" xmlns:xlink="http://www.w3.org/1999/xlink">
<g id="graph0" class="graph" transform="scale(1 1) rotate(0) translate(4 181)">
<title>LFSTK_listGadgetClass::LFSTK_setList</title>
<!-- Node1 -->
<g id="node1" class="node">
<title>Node1</title>
<g id="a_node1"><a xlink:title=" ">
<polygon fill="#bfbfbf" stroke="#000000" points="649.146,-93.5 649.146,-125.5 771.828,-125.5 771.828,-93.5 649.146,-93.5"/>
<text text-anchor="start" x="657.146" y="-112.5" font-family="Helvetica,sans-Serif" font-size="10.00" fill="#000000">LFSTK_listGadgetClass</text>
<text text-anchor="middle" x="710.487" y="-100.5" font-family="Helvetica,sans-Serif" font-size="10.00" fill="#000000">::LFSTK_setList</text>
</a>
</g>
</g>
<!-- Node2 -->
<g id="node2" class="node">
<title>Node2</title>
<g id="a_node2"><a xlink:href="class_l_f_s_t_k__font_dialog_class_af866eb2b1ba8178c9cf3e751716fcc8e.xhtml#af866eb2b1ba8178c9cf3e751716fcc8e" target="_top" xlink:title=" ">
<polygon fill="none" stroke="#000000" points="488.526,-144.5 488.526,-176.5 611.207,-176.5 611.207,-144.5 488.526,-144.5"/>
<text text-anchor="start" x="496.526" y="-163.5" font-family="Helvetica,sans-Serif" font-size="10.00" fill="#000000">LFSTK_fontDialogClass</text>
<text text-anchor="middle" x="549.8665" y="-151.5" font-family="Helvetica,sans-Serif" font-size="10.00" fill="#000000">::buildDialog</text>
</a>
</g>
</g>
<!-- Node1&#45;&gt;Node2 -->
<g id="edge1" class="edge">
<title>Node1&#45;&gt;Node2</title>
<path fill="none" stroke="#191970" d="M649.7042,-128.7997C633.4275,-133.9678 616.0115,-139.4977 600.3572,-144.4683"/>
<polygon fill="#191970" stroke="#191970" points="651.1938,-131.999 659.6657,-125.6367 649.0754,-125.3272 651.1938,-131.999"/>
</g>
<!-- Node4 -->
<g id="node4" class="node">
<title>Node4</title>
<g id="a_node4"><a xlink:href="class_l_f_s_t_k__file_dialog_class_a0a6b4f1db71031bf35a7636b736e8698.xhtml#a0a6b4f1db71031bf35a7636b736e8698" target="_top" xlink:title=" ">
<polygon fill="none" stroke="#000000" points="490.476,-93.5 490.476,-125.5 609.257,-125.5 609.257,-93.5 490.476,-93.5"/>
<text text-anchor="start" x="498.476" y="-112.5" font-family="Helvetica,sans-Serif" font-size="10.00" fill="#000000">LFSTK_fileDialogClass</text>
<text text-anchor="middle" x="549.8665" y="-100.5" font-family="Helvetica,sans-Serif" font-size="10.00" fill="#000000">::getFileList</text>
</a>
</g>
</g>
<!-- Node1&#45;&gt;Node4 -->
<g id="edge3" class="edge">
<title>Node1&#45;&gt;Node4</title>
<path fill="none" stroke="#191970" d="M638.7449,-109.5C628.9685,-109.5 619.0208,-109.5 609.4902,-109.5"/>
<polygon fill="#191970" stroke="#191970" points="638.8463,-113.0001 648.8463,-109.5 638.8463,-106.0001 638.8463,-113.0001"/>
</g>
<!-- Node9 -->
<g id="node9" class="node">
<title>Node9</title>
<g id="a_node9"><a xlink:href="class_l_f_s_t_k__list_gadget_class_addcdb5ba330fd8dd36beb94ea2081dd3.xhtml#addcdb5ba330fd8dd36beb94ea2081dd3" target="_top" xlink:title=" ">
<polygon fill="none" stroke="#000000" points="486.587,-42.5 486.587,-74.5 613.146,-74.5 613.146,-42.5 486.587,-42.5"/>
<text text-anchor="start" x="494.587" y="-61.5" font-family="Helvetica,sans-Serif" font-size="10.00" fill="#000000">LFSTK_listGadgetClass</text>
<text text-anchor="middle" x="549.8665" y="-49.5" font-family="Helvetica,sans-Serif" font-size="10.00" fill="#000000">::LFSTK_setListFromFile</text>
</a>
</g>
</g>
<!-- Node1&#45;&gt;Node9 -->
<g id="edge9" class="edge">
<title>Node1&#45;&gt;Node9</title>
<path fill="none" stroke="#191970" d="M649.7042,-90.2003C633.4275,-85.0322 616.0115,-79.5023 600.3572,-74.5317"/>
<polygon fill="#191970" stroke="#191970" points="649.0754,-93.6728 659.6657,-93.3633 651.1938,-87.001 649.0754,-93.6728"/>
</g>
<!-- Node3 -->
<g id="node3" class="node">
<title>Node3</title>
<g id="a_node3"><a xlink:href="class_l_f_s_t_k__font_dialog_class_ab7b6a4bca99713646ab6ac77dc34827c.xhtml#ab7b6a4bca99713646ab6ac77dc34827c" target="_top" xlink:title=" ">
<polygon fill="none" stroke="#000000" points="322.348,-144.5 322.348,-176.5 450.587,-176.5 450.587,-144.5 322.348,-144.5"/>
<text text-anchor="start" x="330.348" y="-163.5" font-family="Helvetica,sans-Serif" font-size="10.00" fill="#000000">LFSTK_fontDialogClass</text>
<text text-anchor="middle" x="386.4675" y="-151.5" font-family="Helvetica,sans-Serif" font-size="10.00" fill="#000000">::LFSTK_fontDialogClass</text>
</a>
</g>
</g>
<!-- Node2&#45;&gt;Node3 -->
<g id="edge2" class="edge">
<title>Node2&#45;&gt;Node3</title>
<path fill="none" stroke="#191970" d="M477.9666,-160.5C468.9154,-160.5 459.7015,-160.5 450.7778,-160.5"/>
<polygon fill="#191970" stroke="#191970" points="478.0924,-164.0001 488.0923,-160.5 478.0923,-157.0001 478.0924,-164.0001"/>
</g>
<!-- Node5 -->
<g id="node5" class="node">
<title>Node5</title>
<g id="a_node5"><a xlink:href="class_l_f_s_t_k__file_dialog_class_a553ce8e885b0d60cbf515b7b3d1e8b65.xhtml#a553ce8e885b0d60cbf515b7b3d1e8b65" target="_top" xlink:title=" ">
<polygon fill="none" stroke="#000000" points="0,-48.5 0,-80.5 124.339,-80.5 124.339,-48.5 0,-48.5"/>
<text text-anchor="start" x="8" y="-67.5" font-family="Helvetica,sans-Serif" font-size="10.00" fill="#000000">LFSTK_fileDialogClass</text>
<text text-anchor="middle" x="62.1695" y="-55.5" font-family="Helvetica,sans-Serif" font-size="10.00" fill="#000000">::LFSTK_fileDialogClass</text>
</a>
</g>
</g>
<!-- Node4&#45;&gt;Node5 -->
<g id="edge4" class="edge">
<title>Node4&#45;&gt;Node5</title>
<path fill="none" stroke="#191970" d="M480.1099,-111.7702C401.7549,-113.1337 271.0533,-111.8382 160.339,-93.5 142.9818,-90.625 124.3679,-85.6367 108.0651,-80.5995"/>
<polygon fill="#191970" stroke="#191970" points="480.4105,-115.2651 490.3407,-111.5718 480.2747,-108.2665 480.4105,-115.2651"/>
</g>
<!-- Node6 -->
<g id="node6" class="node">
<title>Node6</title>
<g id="a_node6"><a xlink:href="class_l_f_s_t_k__file_dialog_class_aa8804989d381def9acb2c99d47d6dc3d.xhtml#aa8804989d381def9acb2c99d47d6dc3d" target="_top" xlink:title=" ">
<polygon fill="none" stroke="#000000" points="325.967,-51.5 325.967,-83.5 446.968,-83.5 446.968,-51.5 325.967,-51.5"/>
<text text-anchor="start" x="333.967" y="-70.5" font-family="Helvetica,sans-Serif" font-size="10.00" fill="#000000">LFSTK_fileDialogClass</text>
<text text-anchor="middle" x="386.4675" y="-58.5" font-family="Helvetica,sans-Serif" font-size="10.00" fill="#000000">::LFSTK_setWorkingDir</text>
</a>
</g>
</g>
<!-- Node4&#45;&gt;Node6 -->
<g id="edge5" class="edge">
<title>Node4&#45;&gt;Node6</title>
<path fill="none" stroke="#191970" d="M480.6738,-91.7147C469.4717,-88.8353 457.9482,-85.8734 446.973,-83.0523"/>
<polygon fill="#191970" stroke="#191970" points="479.857,-95.1185 490.4135,-94.2182 481.5997,-88.3389 479.857,-95.1185"/>
</g>
<!-- Node7 -->
<g id="node7" class="node">
<title>Node7</title>
<g id="a_node7"><a xlink:href="class_l_f_s_t_k__file_dialog_class_aacf1d4b61cbb5b40d06f591ea96f9ea7.xhtml#aacf1d4b61cbb5b40d06f591ea96f9ea7" target="_top" xlink:title=" ">
<polygon fill="none" stroke="#000000" points="160.339,-51.5 160.339,-83.5 286.348,-83.5 286.348,-51.5 160.339,-51.5"/>
<text text-anchor="start" x="168.339" y="-70.5" font-family="Helvetica,sans-Serif" font-size="10.00" fill="#000000">LFSTK_fileDialogClass</text>
<text text-anchor="middle" x="223.3435" y="-58.5" font-family="Helvetica,sans-Serif" font-size="10.00" fill="#000000">::LFSTK_showFileDialog</text>
</a>
</g>
</g>
<!-- Node6&#45;&gt;Node7 -->
<g id="edge6" class="edge">
<title>Node6&#45;&gt;Node7</title>
<path fill="none" stroke="#191970" d="M315.7256,-67.5C306.0345,-67.5 296.1359,-67.5 286.5902,-67.5"/>
<polygon fill="#191970" stroke="#191970" points="315.7262,-71.0001 325.7261,-67.5 315.7261,-64.0001 315.7262,-71.0001"/>
</g>
<!-- Node8 -->
<g id="node8" class="node">
<title>Node8</title>
<g id="a_node8"><a xlink:href="class_l_f_s_t_k__file_dialog_class_a789cade9437906181e31a243c85d52e5.xhtml#a789cade9437906181e31a243c85d52e5" target="_top" xlink:title=" ">
<polygon fill="none" stroke="#000000" points="163.953,-.5 163.953,-32.5 282.734,-32.5 282.734,-.5 163.953,-.5"/>
<text text-anchor="start" x="171.953" y="-19.5" font-family="Helvetica,sans-Serif" font-size="10.00" fill="#000000">LFSTK_fileDialogClass</text>
<text text-anchor="middle" x="223.3435" y="-7.5" font-family="Helvetica,sans-Serif" font-size="10.00" fill="#000000">::select</text>
</a>
</g>
</g>
<!-- Node6&#45;&gt;Node8 -->
<g id="edge7" class="edge">
<title>Node6&#45;&gt;Node8</title>
<path fill="none" stroke="#191970" d="M325.2049,-48.3465C308.5408,-43.1366 290.6694,-37.5492 274.6212,-32.5317"/>
<polygon fill="#191970" stroke="#191970" points="324.2652,-51.7197 334.854,-51.3633 326.3541,-45.0387 324.2652,-51.7197"/>
</g>
<!-- Node8&#45;&gt;Node5 -->
<g id="edge8" class="edge">
<title>Node8&#45;&gt;Node5</title>
<path fill="none" stroke="#191970" d="M159.442,-35.5308C145.1046,-39.8007 130.0303,-44.29 116.1436,-48.4257"/>
<polygon fill="#191970" stroke="#191970" points="160.6415,-38.8256 169.2265,-32.6168 158.6435,-32.1168 160.6415,-38.8256"/>
</g>
</g>
</svg>
