<?xml version="1.0" encoding="UTF-8" standalone="no"?>
<!DOCTYPE svg PUBLIC "-//W3C//DTD SVG 1.1//EN"
 "http://www.w3.org/Graphics/SVG/1.1/DTD/svg11.dtd">
<!-- Generated by graphviz version 2.40.1 (20161225.0304)
 -->
<!-- Title: LFSTK_gadgetClass::LFSTK_resizeWindow Pages: 1 -->
<svg width="748pt" height="252pt"
 viewBox="0.00 0.00 747.64 252.00" xmlns="http://www.w3.org/2000/svg" xmlns:xlink="http://www.w3.org/1999/xlink">
<g id="graph0" class="graph" transform="scale(1 1) rotate(0) translate(4 248)">
<title>LFSTK_gadgetClass::LFSTK_resizeWindow</title>
<!-- Node1 -->
<g id="node1" class="node">
<title>Node1</title>
<g id="a_node1"><a xlink:title=" ">
<polygon fill="#bfbfbf" stroke="#000000" points="0,-95.5 0,-127.5 114.894,-127.5 114.894,-95.5 0,-95.5"/>
<text text-anchor="start" x="8" y="-114.5" font-family="Helvetica,sans-Serif" font-size="10.00" fill="#000000">LFSTK_gadgetClass::</text>
<text text-anchor="middle" x="57.447" y="-102.5" font-family="Helvetica,sans-Serif" font-size="10.00" fill="#000000">LFSTK_resizeWindow</text>
</a>
</g>
</g>
<!-- Node2 -->
<g id="node2" class="node">
<title>Node2</title>
<g id="a_node2"><a xlink:href="class_l_f_s_t_k__gadget_class_aa5b5f301fe9b0a4d7679f786da7462ba.xhtml#aa5b5f301fe9b0a4d7679f786da7462ba" target="_top" xlink:title=" ">
<polygon fill="none" stroke="#000000" points="152.274,-121.5 152.274,-153.5 266.077,-153.5 266.077,-121.5 152.274,-121.5"/>
<text text-anchor="start" x="160.274" y="-140.5" font-family="Helvetica,sans-Serif" font-size="10.00" fill="#000000">LFSTK_gadgetClass::</text>
<text text-anchor="middle" x="209.1755" y="-128.5" font-family="Helvetica,sans-Serif" font-size="10.00" fill="#000000">LFSTK_clearWindow</text>
</a>
</g>
</g>
<!-- Node1&#45;&gt;Node2 -->
<g id="edge1" class="edge">
<title>Node1&#45;&gt;Node2</title>
<path fill="none" stroke="#191970" d="M115.2419,-121.4037C124.0039,-122.9051 133.1074,-124.4651 142.0468,-125.9969"/>
<polygon fill="#191970" stroke="#191970" points="141.5957,-129.4705 152.0432,-127.7099 142.778,-122.5711 141.5957,-129.4705"/>
</g>
<!-- Node11 -->
<g id="node11" class="node">
<title>Node11</title>
<g id="a_node11"><a xlink:href="class_l_f_s_t_k__window_class_ac8c342109a0f8599f550475cef048745.xhtml#ac8c342109a0f8599f550475cef048745" target="_top" xlink:title=" ">
<polygon fill="none" stroke="#000000" points="150.894,-70.5 150.894,-102.5 267.457,-102.5 267.457,-70.5 150.894,-70.5"/>
<text text-anchor="start" x="158.894" y="-89.5" font-family="Helvetica,sans-Serif" font-size="10.00" fill="#000000">LFSTK_windowClass::</text>
<text text-anchor="middle" x="209.1755" y="-77.5" font-family="Helvetica,sans-Serif" font-size="10.00" fill="#000000">setWindowGeom</text>
</a>
</g>
</g>
<!-- Node1&#45;&gt;Node11 -->
<g id="edge11" class="edge">
<title>Node1&#45;&gt;Node11</title>
<path fill="none" stroke="#191970" d="M115.2419,-101.9773C123.6087,-100.5987 132.2869,-99.1688 140.8363,-97.7601"/>
<polygon fill="#191970" stroke="#191970" points="141.4892,-101.1998 150.7871,-96.1205 140.3511,-94.2929 141.4892,-101.1998"/>
</g>
<!-- Node3 -->
<g id="node3" class="node">
<title>Node3</title>
<g id="a_node3"><a xlink:href="class_l_f_s_t_k__gadget_class_a66b92f213e5a7e75da3f707b511342ea.xhtml#a66b92f213e5a7e75da3f707b511342ea" target="_top" xlink:title=" ">
<polygon fill="none" stroke="#000000" points="303.457,-121.5 303.457,-153.5 417.26,-153.5 417.26,-121.5 303.457,-121.5"/>
<text text-anchor="start" x="311.457" y="-140.5" font-family="Helvetica,sans-Serif" font-size="10.00" fill="#000000">LFSTK_gadgetClass::</text>
<text text-anchor="middle" x="360.3585" y="-128.5" font-family="Helvetica,sans-Serif" font-size="10.00" fill="#000000">drawGagetDetails</text>
</a>
</g>
</g>
<!-- Node2&#45;&gt;Node3 -->
<g id="edge2" class="edge">
<title>Node2&#45;&gt;Node3</title>
<path fill="none" stroke="#191970" d="M266.3313,-137.5C275.1406,-137.5 284.3056,-137.5 293.307,-137.5"/>
<polygon fill="#191970" stroke="#191970" points="293.3727,-141.0001 303.3727,-137.5 293.3727,-134.0001 293.3727,-141.0001"/>
</g>
<!-- Node4 -->
<g id="node4" class="node">
<title>Node4</title>
<g id="a_node4"><a xlink:href="class_l_f_s_t_k__gadget_class_a37d96aab3c59cb97fca1720441e3fc8e.xhtml#a37d96aab3c59cb97fca1720441e3fc8e" target="_top" xlink:title=" ">
<polygon fill="none" stroke="#000000" points="453.26,-211.5 453.26,-243.5 567.063,-243.5 567.063,-211.5 453.26,-211.5"/>
<text text-anchor="start" x="461.26" y="-230.5" font-family="Helvetica,sans-Serif" font-size="10.00" fill="#000000">LFSTK_gadgetClass::</text>
<text text-anchor="middle" x="510.1615" y="-218.5" font-family="Helvetica,sans-Serif" font-size="10.00" fill="#000000">clearBox</text>
</a>
</g>
</g>
<!-- Node3&#45;&gt;Node4 -->
<g id="edge3" class="edge">
<title>Node3&#45;&gt;Node4</title>
<path fill="none" stroke="#191970" d="M384.921,-153.7326C403.4894,-165.8483 429.7184,-182.6328 453.26,-196.5 458.8577,-199.7973 464.8256,-203.1846 470.7117,-206.4533"/>
<polygon fill="#191970" stroke="#191970" points="469.3794,-209.7148 479.8291,-211.4625 472.7501,-203.5797 469.3794,-209.7148"/>
</g>
<!-- Node5 -->
<g id="node5" class="node">
<title>Node5</title>
<g id="a_node5"><a xlink:href="class_l_f_s_t_k__gadget_class_ab76db165a19af248b5e94e95492dc879.xhtml#ab76db165a19af248b5e94e95492dc879" target="_top" xlink:title=" ">
<polygon fill="none" stroke="#000000" points="614.4495,-128.5 614.4495,-160.5 728.2525,-160.5 728.2525,-128.5 614.4495,-128.5"/>
<text text-anchor="start" x="622.4495" y="-147.5" font-family="Helvetica,sans-Serif" font-size="10.00" fill="#000000">LFSTK_gadgetClass::</text>
<text text-anchor="middle" x="671.351" y="-135.5" font-family="Helvetica,sans-Serif" font-size="10.00" fill="#000000">drawBevel</text>
</a>
</g>
</g>
<!-- Node3&#45;&gt;Node5 -->
<g id="edge4" class="edge">
<title>Node3&#45;&gt;Node5</title>
<path fill="none" stroke="#191970" d="M408.0493,-153.5327C422.4108,-157.6275 438.3265,-161.4497 453.26,-163.5 503.369,-170.3797 516.6891,-168.0513 567.063,-163.5 579.0914,-162.4132 591.806,-160.6351 604.0647,-158.5914"/>
<polygon fill="#191970" stroke="#191970" points="604.9782,-161.9851 614.2297,-156.8217 603.7775,-155.0889 604.9782,-161.9851"/>
</g>
<!-- Node6 -->
<g id="node6" class="node">
<title>Node6</title>
<g id="a_node6"><a xlink:href="class_l_f_s_t_k__gadget_class_af5386ffc4699273f6c53a920fc8b2f1d.xhtml#af5386ffc4699273f6c53a920fc8b2f1d" target="_top" xlink:title=" ">
<polygon fill="none" stroke="#000000" points="453.26,-121.5 453.26,-153.5 567.063,-153.5 567.063,-121.5 453.26,-121.5"/>
<text text-anchor="start" x="461.26" y="-140.5" font-family="Helvetica,sans-Serif" font-size="10.00" fill="#000000">LFSTK_gadgetClass::</text>
<text text-anchor="middle" x="510.1615" y="-128.5" font-family="Helvetica,sans-Serif" font-size="10.00" fill="#000000">drawImage</text>
</a>
</g>
</g>
<!-- Node3&#45;&gt;Node6 -->
<g id="edge5" class="edge">
<title>Node3&#45;&gt;Node6</title>
<path fill="none" stroke="#191970" d="M417.4199,-137.5C425.8589,-137.5 434.6186,-137.5 443.2359,-137.5"/>
<polygon fill="#191970" stroke="#191970" points="443.2588,-141.0001 453.2587,-137.5 443.2587,-134.0001 443.2588,-141.0001"/>
</g>
<!-- Node7 -->
<g id="node7" class="node">
<title>Node7</title>
<g id="a_node7"><a xlink:href="class_l_f_s_t_k__gadget_class_af77235e4dc604470c9d62f101238225b.xhtml#af77235e4dc604470c9d62f101238225b" target="_top" xlink:title=" ">
<polygon fill="none" stroke="#000000" points="453.26,-70.5 453.26,-102.5 567.063,-102.5 567.063,-70.5 453.26,-70.5"/>
<text text-anchor="start" x="461.26" y="-89.5" font-family="Helvetica,sans-Serif" font-size="10.00" fill="#000000">LFSTK_gadgetClass::</text>
<text text-anchor="middle" x="510.1615" y="-77.5" font-family="Helvetica,sans-Serif" font-size="10.00" fill="#000000">drawIndicator</text>
</a>
</g>
</g>
<!-- Node3&#45;&gt;Node7 -->
<g id="edge6" class="edge">
<title>Node3&#45;&gt;Node7</title>
<path fill="none" stroke="#191970" d="M407.7571,-121.3633C422.2421,-116.4319 438.3207,-110.958 453.363,-105.8369"/>
<polygon fill="#191970" stroke="#191970" points="454.7328,-109.0679 463.0712,-102.5317 452.4768,-102.4414 454.7328,-109.0679"/>
</g>
<!-- Node8 -->
<g id="node8" class="node">
<title>Node8</title>
<g id="a_node8"><a xlink:href="class_l_f_s_t_k__gadget_class_a7f44f781b167d66c5d6f4cc862a7e2db.xhtml#a7f44f781b167d66c5d6f4cc862a7e2db" target="_top" xlink:title=" ">
<polygon fill="none" stroke="#000000" points="453.26,-19.5 453.26,-51.5 567.063,-51.5 567.063,-19.5 453.26,-19.5"/>
<text text-anchor="start" x="461.26" y="-38.5" font-family="Helvetica,sans-Serif" font-size="10.00" fill="#000000">LFSTK_gadgetClass::</text>
<text text-anchor="middle" x="510.1615" y="-26.5" font-family="Helvetica,sans-Serif" font-size="10.00" fill="#000000">drawLabel</text>
</a>
</g>
</g>
<!-- Node3&#45;&gt;Node8 -->
<g id="edge8" class="edge">
<title>Node3&#45;&gt;Node8</title>
<path fill="none" stroke="#191970" d="M376.728,-121.4985C394.4855,-104.748 424.2037,-78.4356 453.26,-60.5 455.5899,-59.0618 458.0169,-57.6631 460.499,-56.3102"/>
<polygon fill="#191970" stroke="#191970" points="462.3467,-59.2963 469.6522,-51.623 459.156,-53.0658 462.3467,-59.2963"/>
</g>
<!-- Node7&#45;&gt;Node5 -->
<g id="edge7" class="edge">
<title>Node7&#45;&gt;Node5</title>
<path fill="none" stroke="#191970" d="M554.6339,-102.5023C574.0213,-109.4784 596.9249,-117.7196 617.2858,-125.046"/>
<polygon fill="#191970" stroke="#191970" points="616.1497,-128.3568 626.7442,-128.4493 618.5198,-121.7703 616.1497,-128.3568"/>
</g>
<!-- Node9 -->
<g id="node9" class="node">
<title>Node9</title>
<g id="a_node9"><a xlink:href="class_l_f_s_t_k__lib_ab2f14a3414f7db863682d1e2fa0cfb75.xhtml#ab2f14a3414f7db863682d1e2fa0cfb75" target="_top" xlink:title=" ">
<polygon fill="none" stroke="#000000" points="603.063,-51.5 603.063,-71.5 739.639,-71.5 739.639,-51.5 603.063,-51.5"/>
<text text-anchor="middle" x="671.351" y="-58.5" font-family="Helvetica,sans-Serif" font-size="10.00" fill="#000000">LFSTK_lib::bestFontColour</text>
</a>
</g>
</g>
<!-- Node8&#45;&gt;Node9 -->
<g id="edge9" class="edge">
<title>Node8&#45;&gt;Node9</title>
<path fill="none" stroke="#191970" d="M567.4447,-44.7398C577.7308,-46.399 588.5712,-48.1475 599.2127,-49.864"/>
<polygon fill="#191970" stroke="#191970" points="598.9001,-53.3588 609.3299,-51.4959 600.0149,-46.4481 598.9001,-53.3588"/>
</g>
<!-- Node10 -->
<g id="node10" class="node">
<title>Node10</title>
<g id="a_node10"><a xlink:href="class_l_f_s_t_k__gadget_class_a091281ba03eaeb31bc7507c74b9b4f2f.xhtml#a091281ba03eaeb31bc7507c74b9b4f2f" target="_top" xlink:title=" ">
<polygon fill="none" stroke="#000000" points="613.895,-.5 613.895,-32.5 728.807,-32.5 728.807,-.5 613.895,-.5"/>
<text text-anchor="start" x="621.895" y="-19.5" font-family="Helvetica,sans-Serif" font-size="10.00" fill="#000000">LFSTK_gadgetClass::</text>
<text text-anchor="middle" x="671.351" y="-7.5" font-family="Helvetica,sans-Serif" font-size="10.00" fill="#000000">LFSTK_getTextHeight</text>
</a>
</g>
</g>
<!-- Node8&#45;&gt;Node10 -->
<g id="edge10" class="edge">
<title>Node8&#45;&gt;Node10</title>
<path fill="none" stroke="#191970" d="M567.4447,-28.7478C579.1801,-27.3645 591.6369,-25.8962 603.6967,-24.4747"/>
<polygon fill="#191970" stroke="#191970" points="604.1876,-27.9411 613.7091,-23.2945 603.3681,-20.9892 604.1876,-27.9411"/>
</g>
</g>
</svg>
