<?xml version="1.0" encoding="UTF-8" standalone="no"?>
<!DOCTYPE svg PUBLIC "-//W3C//DTD SVG 1.1//EN"
 "http://www.w3.org/Graphics/SVG/1.1/DTD/svg11.dtd">
<!-- Generated by graphviz version 2.40.1 (20161225.0304)
 -->
<!-- Title: LFSTK_lineEditClass::keyRelease Pages: 1 -->
<!--zoomable 202 -->
<svg id="main" version="1.1" xmlns="http://www.w3.org/2000/svg" xmlns:xlink="http://www.w3.org/1999/xlink" xml:space="preserve" onload="init(evt)">
<style type="text/css"><![CDATA[
.edge:hover path { stroke: red; }
.edge:hover polygon { stroke: red; fill: red; }
]]></style>
<script type="text/javascript"><![CDATA[
var edges = document.getElementsByTagName('g');
if (edges && edges.length) {
  for (var i=0;i<edges.length;i++) {
    if (edges[i].id.substr(0,4)=='edge') {
      edges[i].setAttribute('class','edge');
    }
  }
}
]]></script>
        <defs>
                <circle id="rim" cx="0" cy="0" r="7"/>
                <circle id="rim2" cx="0" cy="0" r="3.5"/>
                <g id="zoomPlus">
                        <use xlink:href="#rim" fill="#404040">
                                <set attributeName="fill" to="#808080" begin="zoomplus.mouseover" end="zoomplus.mouseout"/>
                        </use>
                        <path d="M-4,0h8M0,-4v8" fill="none" stroke="white" stroke-width="1.5" pointer-events="none"/>
                </g>
                <g id="zoomMin">
                        <use xlink:href="#rim" fill="#404040">
                                <set attributeName="fill" to="#808080" begin="zoomminus.mouseover" end="zoomminus.mouseout"/>
                        </use>
                        <path d="M-4,0h8" fill="none" stroke="white" stroke-width="1.5" pointer-events="none"/>
                </g>
                <g id="dirArrow">
                        <path fill="none" stroke="white" stroke-width="1.5" d="M0,-3.0v7 M-2.5,-0.5L0,-3.0L2.5,-0.5"/>
                </g>
               <g id="resetDef">
                       <use xlink:href="#rim2" fill="#404040">
                               <set attributeName="fill" to="#808080" begin="reset.mouseover" end="reset.mouseout"/>
                       </use>
               </g>
        </defs>

<script type="text/javascript">
var viewWidth = 904;
var viewHeight = 202;
var sectionId = 'dynsection-0';
</script>
<script xlink:href="svgpan.js"/>
<svg id="graph" class="graph">
<g id="viewport">
<title>LFSTK_lineEditClass::keyRelease</title>
<!-- Node1 -->
<g id="node1" class="node">
<title>Node1</title>
<g id="a_node1"><a xlink:title=" ">
<polygon fill="#bfbfbf" stroke="#000000" points="0,-65.4876 0,-97.4876 110.453,-97.4876 110.453,-65.4876 0,-65.4876"/>
<text text-anchor="start" x="8" y="-84.4876" font-family="Helvetica,sans-Serif" font-size="10.00" fill="#000000">LFSTK_lineEditClass</text>
<text text-anchor="middle" x="55.2265" y="-72.4876" font-family="Helvetica,sans-Serif" font-size="10.00" fill="#000000">::keyRelease</text>
</a>
</g>
</g>
<!-- Node2 -->
<g id="node2" class="node">
<title>Node2</title>
<g id="a_node2"><a xlink:href="class_l_f_s_t_k__line_edit_class_a99cb0a4e5b4a6701e1f5399ae6b1f78d.xhtml#a99cb0a4e5b4a6701e1f5399ae6b1f78d" target="_top" xlink:title=" ">
<polygon fill="none" stroke="#000000" points="146.453,-113.4876 146.453,-145.4876 256.906,-145.4876 256.906,-113.4876 146.453,-113.4876"/>
<text text-anchor="start" x="154.453" y="-132.4876" font-family="Helvetica,sans-Serif" font-size="10.00" fill="#000000">LFSTK_lineEditClass</text>
<text text-anchor="middle" x="201.6795" y="-120.4876" font-family="Helvetica,sans-Serif" font-size="10.00" fill="#000000">::getClip</text>
</a>
</g>
</g>
<!-- Node1&#45;&gt;Node2 -->
<g id="edge1" class="edge">
<title>Node1&#45;&gt;Node2</title>
<path fill="none" stroke="#191970" d="M104.4006,-97.6044C116.7173,-101.6412 130.0553,-106.0127 142.791,-110.1869"/>
<polygon fill="#191970" stroke="#191970" points="141.7931,-113.5429 152.3859,-113.3316 143.9733,-106.8911 141.7931,-113.5429"/>
</g>
<!-- Node3 -->
<g id="node3" class="node">
<title>Node3</title>
<g id="a_node3"><a xlink:href="class_l_f_s_t_k__line_edit_class_adbcfa08279eec28c5f4e2c33a056d396.xhtml#adbcfa08279eec28c5f4e2c33a056d396" target="_top" xlink:title=" ">
<polygon fill="none" stroke="#000000" points="462.705,-120.4876 462.705,-152.4876 578.157,-152.4876 578.157,-120.4876 462.705,-120.4876"/>
<text text-anchor="start" x="470.705" y="-139.4876" font-family="Helvetica,sans-Serif" font-size="10.00" fill="#000000">LFSTK_lineEditClass</text>
<text text-anchor="middle" x="520.431" y="-127.4876" font-family="Helvetica,sans-Serif" font-size="10.00" fill="#000000">::LFSTK_clearWindow</text>
</a>
</g>
</g>
<!-- Node1&#45;&gt;Node3 -->
<g id="edge10" class="edge">
<title>Node1&#45;&gt;Node3</title>
<path fill="none" stroke="#191970" d="M69.6054,-97.5075C86.2516,-114.9148 115.387,-142.0363 146.453,-155.4876 261.0455,-205.1049 304.2509,-199.948 426.705,-175.4876 445.1977,-171.7936 464.6054,-164.3744 480.9326,-156.9892"/>
<polygon fill="#191970" stroke="#191970" points="482.5844,-160.0806 490.1596,-152.6734 479.6186,-153.7399 482.5844,-160.0806"/>
</g>
<!-- Node8 -->
<g id="node8" class="node">
<title>Node8</title>
<g id="a_node8"><a xlink:href="class_l_f_s_t_k__window_class_a0d85c225b59176302c8b25d090e08ad7.xhtml#a0d85c225b59176302c8b25d090e08ad7" target="_top" xlink:title=" ">
<polygon fill="none" stroke="#000000" points="301.524,-65.4876 301.524,-97.4876 418.087,-97.4876 418.087,-65.4876 301.524,-65.4876"/>
<text text-anchor="start" x="309.524" y="-84.4876" font-family="Helvetica,sans-Serif" font-size="10.00" fill="#000000">LFSTK_windowClass::</text>
<text text-anchor="middle" x="359.8055" y="-72.4876" font-family="Helvetica,sans-Serif" font-size="10.00" fill="#000000">LFSTK_getDnDAtom</text>
</a>
</g>
</g>
<!-- Node1&#45;&gt;Node8 -->
<g id="edge11" class="edge">
<title>Node1&#45;&gt;Node8</title>
<path fill="none" stroke="#191970" d="M110.7368,-81.4876C161.4327,-81.4876 236.5601,-81.4876 291.0397,-81.4876"/>
<polygon fill="#191970" stroke="#191970" points="291.3039,-84.9877 301.3039,-81.4876 291.3038,-77.9877 291.3039,-84.9877"/>
</g>
<!-- Node10 -->
<g id="node10" class="node">
<title>Node10</title>
<g id="a_node10"><a xlink:href="class_l_f_s_t_k__line_edit_class_acc05157418af7626402b30b0129e8899.xhtml#acc05157418af7626402b30b0129e8899" target="_top" xlink:title=" ">
<polygon fill="none" stroke="#000000" points="304.579,-14.4876 304.579,-46.4876 415.032,-46.4876 415.032,-14.4876 304.579,-14.4876"/>
<text text-anchor="start" x="312.579" y="-33.4876" font-family="Helvetica,sans-Serif" font-size="10.00" fill="#000000">LFSTK_lineEditClass</text>
<text text-anchor="middle" x="359.8055" y="-21.4876" font-family="Helvetica,sans-Serif" font-size="10.00" fill="#000000">::LFSTK_setBuffer</text>
</a>
</g>
</g>
<!-- Node1&#45;&gt;Node10 -->
<g id="edge12" class="edge">
<title>Node1&#45;&gt;Node10</title>
<path fill="none" stroke="#191970" d="M110.7368,-72.1927C162.5073,-63.524 239.7559,-50.5892 294.4758,-41.4266"/>
<polygon fill="#191970" stroke="#191970" points="295.1352,-44.8651 304.4198,-39.7616 293.9791,-37.9612 295.1352,-44.8651"/>
</g>
<!-- Node11 -->
<g id="node11" class="node">
<title>Node11</title>
<g id="a_node11"><a xlink:href="class_l_f_s_t_k__line_edit_class_aeae7e32d645d01ae18149c3f472d6f3e.xhtml#aeae7e32d645d01ae18149c3f472d6f3e" target="_top" xlink:title=" ">
<polygon fill="none" stroke="#000000" points="465.2045,-6.4876 465.2045,-38.4876 575.6575,-38.4876 575.6575,-6.4876 465.2045,-6.4876"/>
<text text-anchor="start" x="473.2045" y="-25.4876" font-family="Helvetica,sans-Serif" font-size="10.00" fill="#000000">LFSTK_lineEditClass</text>
<text text-anchor="middle" x="520.431" y="-13.4876" font-family="Helvetica,sans-Serif" font-size="10.00" fill="#000000">::setOffsetcurs</text>
</a>
</g>
</g>
<!-- Node1&#45;&gt;Node11 -->
<g id="edge17" class="edge">
<title>Node1&#45;&gt;Node11</title>
<path fill="none" stroke="#191970" d="M92.1346,-65.3553C108.591,-58.4655 128.319,-50.6173 146.453,-44.4876 265.6463,-4.1973 301.452,7.4309 426.705,-4.4876 436.0091,-5.3729 445.7633,-6.742 455.3177,-8.3386"/>
<polygon fill="#191970" stroke="#191970" points="454.7192,-11.787 465.1747,-10.0741 455.9331,-4.893 454.7192,-11.787"/>
</g>
<!-- Node2&#45;&gt;Node3 -->
<g id="edge2" class="edge">
<title>Node2&#45;&gt;Node3</title>
<path fill="none" stroke="#191970" d="M242.814,-145.5238C258.2701,-150.7575 276.155,-155.8891 292.906,-158.4876 351.6694,-167.603 367.6335,-165.3275 426.705,-158.4876 435.1182,-157.5134 443.8729,-156.063 452.5043,-154.3629"/>
<polygon fill="#191970" stroke="#191970" points="453.4782,-157.7352 462.5523,-152.2662 452.0482,-150.8828 453.4782,-157.7352"/>
</g>
<!-- Node2&#45;&gt;Node8 -->
<g id="edge7" class="edge">
<title>Node2&#45;&gt;Node8</title>
<path fill="none" stroke="#191970" d="M254.7731,-113.3707C268.4051,-109.2327 283.1958,-104.7428 297.2571,-100.4745"/>
<polygon fill="#191970" stroke="#191970" points="298.2999,-103.8157 306.8521,-97.5619 296.2666,-97.1175 298.2999,-103.8157"/>
</g>
<!-- Node9 -->
<g id="node9" class="node">
<title>Node9</title>
<g id="a_node9"><a xlink:href="class_l_f_s_t_k__line_edit_class_af08b0261f456ab5926d5837f752c2005.xhtml#af08b0261f456ab5926d5837f752c2005" target="_top" xlink:title=" ">
<polygon fill="none" stroke="#000000" points="292.906,-116.4876 292.906,-148.4876 426.705,-148.4876 426.705,-116.4876 292.906,-116.4876"/>
<text text-anchor="start" x="300.906" y="-135.4876" font-family="Helvetica,sans-Serif" font-size="10.00" fill="#000000">LFSTK_lineEditClass</text>
<text text-anchor="middle" x="359.8055" y="-123.4876" font-family="Helvetica,sans-Serif" font-size="10.00" fill="#000000">::LFSTK_setFormatedText</text>
</a>
</g>
</g>
<!-- Node2&#45;&gt;Node9 -->
<g id="edge8" class="edge">
<title>Node2&#45;&gt;Node9</title>
<path fill="none" stroke="#191970" d="M256.9843,-130.5368C265.3059,-130.6947 274.0146,-130.8599 282.692,-131.0246"/>
<polygon fill="#191970" stroke="#191970" points="282.7743,-134.5266 292.839,-131.2171 282.9072,-127.5279 282.7743,-134.5266"/>
</g>
<!-- Node4 -->
<g id="node4" class="node">
<title>Node4</title>
<g id="a_node4"><a xlink:href="class_l_f_s_t_k__gadget_class_ab76db165a19af248b5e94e95492dc879.xhtml#ab76db165a19af248b5e94e95492dc879" target="_top" xlink:title=" ">
<polygon fill="none" stroke="#000000" points="614.157,-124.4876 614.157,-156.4876 727.96,-156.4876 727.96,-124.4876 614.157,-124.4876"/>
<text text-anchor="start" x="622.157" y="-143.4876" font-family="Helvetica,sans-Serif" font-size="10.00" fill="#000000">LFSTK_gadgetClass::</text>
<text text-anchor="middle" x="671.0585" y="-131.4876" font-family="Helvetica,sans-Serif" font-size="10.00" fill="#000000">drawBevel</text>
</a>
</g>
</g>
<!-- Node3&#45;&gt;Node4 -->
<g id="edge3" class="edge">
<title>Node3&#45;&gt;Node4</title>
<path fill="none" stroke="#191970" d="M578.2367,-138.0226C586.7043,-138.2475 595.4844,-138.4807 604.116,-138.7099"/>
<polygon fill="#191970" stroke="#191970" points="604.0635,-142.2096 614.153,-138.9764 604.2494,-135.2121 604.0635,-142.2096"/>
</g>
<!-- Node5 -->
<g id="node5" class="node">
<title>Node5</title>
<g id="a_node5"><a xlink:href="class_l_f_s_t_k__line_edit_class_a24da1f04ceb3b05ed9b25988e2cb5130.xhtml#a24da1f04ceb3b05ed9b25988e2cb5130" target="_top" xlink:title=" ">
<polygon fill="none" stroke="#000000" points="615.832,-73.4876 615.832,-105.4876 726.285,-105.4876 726.285,-73.4876 615.832,-73.4876"/>
<text text-anchor="start" x="623.832" y="-92.4876" font-family="Helvetica,sans-Serif" font-size="10.00" fill="#000000">LFSTK_lineEditClass</text>
<text text-anchor="middle" x="671.0585" y="-80.4876" font-family="Helvetica,sans-Serif" font-size="10.00" fill="#000000">::drawLabel</text>
</a>
</g>
</g>
<!-- Node3&#45;&gt;Node5 -->
<g id="edge4" class="edge">
<title>Node3&#45;&gt;Node5</title>
<path fill="none" stroke="#191970" d="M571.8472,-120.4443C584.1396,-116.6087 597.3797,-112.4774 610.0579,-108.5215"/>
<polygon fill="#191970" stroke="#191970" points="611.115,-111.8581 619.6185,-105.5383 609.0299,-105.1759 611.115,-111.8581"/>
</g>
<!-- Node6 -->
<g id="node6" class="node">
<title>Node6</title>
<g id="a_node6"><a xlink:href="class_l_f_s_t_k__gadget_class_ac233a3c3e0900ff66adb74102a56f09f.xhtml#ac233a3c3e0900ff66adb74102a56f09f" target="_top" xlink:title=" ">
<polygon fill="none" stroke="#000000" points="763.96,-65.4876 763.96,-97.4876 896.089,-97.4876 896.089,-65.4876 763.96,-65.4876"/>
<text text-anchor="start" x="771.96" y="-84.4876" font-family="Helvetica,sans-Serif" font-size="10.00" fill="#000000">LFSTK_gadgetClass::</text>
<text text-anchor="middle" x="830.0245" y="-72.4876" font-family="Helvetica,sans-Serif" font-size="10.00" fill="#000000">LFSTK_getTextRealWidth</text>
</a>
</g>
</g>
<!-- Node5&#45;&gt;Node6 -->
<g id="edge5" class="edge">
<title>Node5&#45;&gt;Node6</title>
<path fill="none" stroke="#191970" d="M726.6571,-86.6896C735.374,-86.2509 744.5135,-85.7909 753.5996,-85.3337"/>
<polygon fill="#191970" stroke="#191970" points="753.9986,-88.8181 763.81,-84.8198 753.6467,-81.827 753.9986,-88.8181"/>
</g>
<!-- Node7 -->
<g id="node7" class="node">
<title>Node7</title>
<g id="a_node7"><a xlink:href="class_l_f_s_t_k__gadget_class_a23bc2dc7b8200df4dc74f1f68460eca2.xhtml#a23bc2dc7b8200df4dc74f1f68460eca2" target="_top" xlink:title=" ">
<polygon fill="none" stroke="#000000" points="773.123,-6.4876 773.123,-38.4876 886.926,-38.4876 886.926,-6.4876 773.123,-6.4876"/>
<text text-anchor="start" x="781.123" y="-25.4876" font-family="Helvetica,sans-Serif" font-size="10.00" fill="#000000">LFSTK_gadgetClass::</text>
<text text-anchor="middle" x="830.0245" y="-13.4876" font-family="Helvetica,sans-Serif" font-size="10.00" fill="#000000">LFSTK_getTextWidth</text>
</a>
</g>
</g>
<!-- Node5&#45;&gt;Node7 -->
<g id="edge6" class="edge">
<title>Node5&#45;&gt;Node7</title>
<path fill="none" stroke="#191970" d="M709.1348,-73.4394C731.1741,-64.1504 759.1063,-52.3777 782.5679,-42.4893"/>
<polygon fill="#191970" stroke="#191970" points="784.1281,-45.6299 791.9837,-38.5208 781.4094,-39.1794 784.1281,-45.6299"/>
</g>
<!-- Node9&#45;&gt;Node3 -->
<g id="edge9" class="edge">
<title>Node9&#45;&gt;Node3</title>
<path fill="none" stroke="#191970" d="M426.9945,-134.1607C435.4287,-134.3708 444.0615,-134.5858 452.5069,-134.7961"/>
<polygon fill="#191970" stroke="#191970" points="452.6056,-138.2995 462.6897,-135.0497 452.78,-131.3017 452.6056,-138.2995"/>
</g>
<!-- Node10&#45;&gt;Node3 -->
<g id="edge13" class="edge">
<title>Node10&#45;&gt;Node3</title>
<path fill="none" stroke="#191970" d="M407.1794,-46.5901C413.9094,-49.5344 420.6079,-52.8443 426.705,-56.4876 453.2187,-72.3308 479.637,-95.7485 497.6346,-113.1581"/>
<polygon fill="#191970" stroke="#191970" points="495.2237,-115.6962 504.808,-120.212 500.1317,-110.705 495.2237,-115.6962"/>
</g>
<!-- Node10&#45;&gt;Node11 -->
<g id="edge14" class="edge">
<title>Node10&#45;&gt;Node11</title>
<path fill="none" stroke="#191970" d="M415.0837,-27.7344C427.9558,-27.0933 441.7812,-26.4047 455.0438,-25.7442"/>
<polygon fill="#191970" stroke="#191970" points="455.2374,-29.239 465.0509,-25.2458 454.8892,-22.2476 455.2374,-29.239"/>
</g>
<!-- Node11&#45;&gt;Node6 -->
<g id="edge15" class="edge">
<title>Node11&#45;&gt;Node6</title>
<path fill="none" stroke="#191970" d="M575.7801,-33.0356C625.3918,-42.4902 698.6375,-56.4488 753.7844,-66.9583"/>
<polygon fill="#191970" stroke="#191970" points="753.3827,-70.4447 763.8612,-68.8787 754.6932,-63.5684 753.3827,-70.4447"/>
</g>
<!-- Node11&#45;&gt;Node7 -->
<g id="edge16" class="edge">
<title>Node11&#45;&gt;Node7</title>
<path fill="none" stroke="#191970" d="M575.7801,-22.4876C628.1753,-22.4876 706.9308,-22.4876 762.8883,-22.4876"/>
<polygon fill="#191970" stroke="#191970" points="763.06,-25.9877 773.06,-22.4876 763.06,-18.9877 763.06,-25.9877"/>
</g>
</g>
</svg>
        <g id="navigator" transform="translate(0 0)" fill="#404254">
                <rect fill="#f2f5e9" fill-opacity="0.5" stroke="#606060" stroke-width=".5" x="0" y="0" width="60" height="60"/>
                <use id="zoomplus" xlink:href="#zoomPlus" x="17" y="9" onmousedown="handleZoom(evt,'in')"/>
                <use id="zoomminus" xlink:href="#zoomMin" x="42" y="9" onmousedown="handleZoom(evt,'out')"/>
                <use id="reset" xlink:href="#resetDef" x="30" y="36" onmousedown="handleReset()"/>
                <g id="arrowUp" xlink:href="#dirArrow" transform="translate(30 24)" onmousedown="handlePan(0,-1)">
                  <use xlink:href="#rim" fill="#404040">
                        <set attributeName="fill" to="#808080" begin="arrowUp.mouseover" end="arrowUp.mouseout"/>
                  </use>
                  <path fill="none" stroke="white" stroke-width="1.5" d="M0,-3.0v7 M-2.5,-0.5L0,-3.0L2.5,-0.5"/>
                </g>
                <g id="arrowRight" xlink:href="#dirArrow" transform="rotate(90) translate(36 -43)" onmousedown="handlePan(1,0)">
                  <use xlink:href="#rim" fill="#404040">
                        <set attributeName="fill" to="#808080" begin="arrowRight.mouseover" end="arrowRight.mouseout"/>
                  </use>
                  <path fill="none" stroke="white" stroke-width="1.5" d="M0,-3.0v7 M-2.5,-0.5L0,-3.0L2.5,-0.5"/>
                </g>
                <g id="arrowDown" xlink:href="#dirArrow" transform="rotate(180) translate(-30 -48)" onmousedown="handlePan(0,1)">
                  <use xlink:href="#rim" fill="#404040">
                        <set attributeName="fill" to="#808080" begin="arrowDown.mouseover" end="arrowDown.mouseout"/>
                  </use>
                  <path fill="none" stroke="white" stroke-width="1.5" d="M0,-3.0v7 M-2.5,-0.5L0,-3.0L2.5,-0.5"/>
                </g>
                <g id="arrowLeft" xlink:href="#dirArrow" transform="rotate(270) translate(-36 17)" onmousedown="handlePan(-1,0)">
                  <use xlink:href="#rim" fill="#404040">
                        <set attributeName="fill" to="#808080" begin="arrowLeft.mouseover" end="arrowLeft.mouseout"/>
                  </use>
                  <path fill="none" stroke="white" stroke-width="1.5" d="M0,-3.0v7 M-2.5,-0.5L0,-3.0L2.5,-0.5"/>
                </g>
        </g>
        <svg viewBox="0 0 15 15" width="100%" height="30px" preserveAspectRatio="xMaxYMin meet">
         <g id="arrow_out" transform="scale(0.3 0.3)">
          <a xlink:href="class_l_f_s_t_k__line_edit_class_a499c645100977efb8a63ec1695b41e2b_a499c645100977efb8a63ec1695b41e2b_cgraph_org.svg" target="_base">
           <rect id="button" ry="5" rx="5" y="6" x="6" height="38" width="38"
                fill="#f2f5e9" fill-opacity="0.5" stroke="#606060" stroke-width="1.0"/>
           <path id="arrow"
             d="M 11.500037,31.436501 C 11.940474,20.09759 22.043105,11.32322 32.158766,21.979434 L 37.068811,17.246167 C 37.068811,17.246167 37.088388,32 37.088388,32 L 22.160133,31.978069 C 22.160133,31.978069 26.997745,27.140456 26.997745,27.140456 C 18.528582,18.264221 13.291696,25.230495 11.500037,31.436501 z"
             style="fill:#404040;"/>
          </a>
         </g>
        </svg>
</svg>
