<?xml version="1.0" encoding="UTF-8" standalone="no"?>
<!DOCTYPE svg PUBLIC "-//W3C//DTD SVG 1.1//EN"
 "http://www.w3.org/Graphics/SVG/1.1/DTD/svg11.dtd">
<!-- Generated by graphviz version 2.40.1 (20161225.0304)
 -->
<!-- Title: LFSTK_lib::LFSTK_getUseTheme Pages: 1 -->
<svg width="522pt" height="347pt"
 viewBox="0.00 0.00 521.96 347.00" xmlns="http://www.w3.org/2000/svg" xmlns:xlink="http://www.w3.org/1999/xlink">
<g id="graph0" class="graph" transform="scale(1 1) rotate(0) translate(4 343)">
<title>LFSTK_lib::LFSTK_getUseTheme</title>
<!-- Node1 -->
<g id="node1" class="node">
<title>Node1</title>
<g id="a_node1"><a xlink:title=" ">
<polygon fill="#bfbfbf" stroke="#000000" points="346.266,-159.5 346.266,-179.5 513.959,-179.5 513.959,-159.5 346.266,-159.5"/>
<text text-anchor="middle" x="430.1125" y="-166.5" font-family="Helvetica,sans-Serif" font-size="10.00" fill="#000000">LFSTK_lib::LFSTK_getUseTheme</text>
</a>
</g>
</g>
<!-- Node2 -->
<g id="node2" class="node">
<title>Node2</title>
<g id="a_node2"><a xlink:href="class_l_f_s_t_k__button_class_a2b46d2136069e61fc8c8ee88519b2a8f.xhtml#a2b46d2136069e61fc8c8ee88519b2a8f" target="_top" xlink:title=" ">
<polygon fill="none" stroke="#000000" points="185.071,-306.5 185.071,-338.5 296.094,-338.5 296.094,-306.5 185.071,-306.5"/>
<text text-anchor="start" x="193.071" y="-325.5" font-family="Helvetica,sans-Serif" font-size="10.00" fill="#000000">LFSTK_buttonClass::</text>
<text text-anchor="middle" x="240.5825" y="-313.5" font-family="Helvetica,sans-Serif" font-size="10.00" fill="#000000">LFSTK_buttonClass</text>
</a>
</g>
</g>
<!-- Node1&#45;&gt;Node2 -->
<g id="edge1" class="edge">
<title>Node1&#45;&gt;Node2</title>
<path fill="none" stroke="#191970" d="M417.2973,-188.0093C397.3765,-215.5077 356.4376,-267.1592 310.266,-297.5 305.2176,-300.8175 299.6741,-303.7594 293.9875,-306.352"/>
<polygon fill="#191970" stroke="#191970" points="420.2808,-189.8531 423.2245,-179.6754 414.5764,-185.796 420.2808,-189.8531"/>
</g>
<!-- Node3 -->
<g id="node3" class="node">
<title>Node3</title>
<g id="a_node3"><a xlink:href="class_l_f_s_t_k__font_dialog_class_ab7b6a4bca99713646ab6ac77dc34827c.xhtml#ab7b6a4bca99713646ab6ac77dc34827c" target="_top" xlink:title=" ">
<polygon fill="none" stroke="#000000" points="176.463,-255.5 176.463,-287.5 304.702,-287.5 304.702,-255.5 176.463,-255.5"/>
<text text-anchor="start" x="184.463" y="-274.5" font-family="Helvetica,sans-Serif" font-size="10.00" fill="#000000">LFSTK_fontDialogClass</text>
<text text-anchor="middle" x="240.5825" y="-262.5" font-family="Helvetica,sans-Serif" font-size="10.00" fill="#000000">::LFSTK_fontDialogClass</text>
</a>
</g>
</g>
<!-- Node1&#45;&gt;Node3 -->
<g id="edge2" class="edge">
<title>Node1&#45;&gt;Node3</title>
<path fill="none" stroke="#191970" d="M408.5386,-185.5007C385.2006,-202.2887 346.4618,-228.6673 310.266,-246.5 303.8095,-249.681 296.8432,-252.6665 289.8992,-255.39"/>
<polygon fill="#191970" stroke="#191970" points="410.661,-188.285 416.6916,-179.574 406.545,-182.6229 410.661,-188.285"/>
</g>
<!-- Node4 -->
<g id="node4" class="node">
<title>Node4</title>
<g id="a_node4"><a xlink:href="class_l_f_s_t_k__label_class_a6085feaa122a3d1060351c659889628c.xhtml#a6085feaa122a3d1060351c659889628c" target="_top" xlink:title=" ">
<polygon fill="none" stroke="#000000" points="172.853,-204.5 172.853,-236.5 308.312,-236.5 308.312,-204.5 172.853,-204.5"/>
<text text-anchor="start" x="180.853" y="-223.5" font-family="Helvetica,sans-Serif" font-size="10.00" fill="#000000">LFSTK_labelClass::LFSTK</text>
<text text-anchor="middle" x="240.5825" y="-211.5" font-family="Helvetica,sans-Serif" font-size="10.00" fill="#000000">_labelClass</text>
</a>
</g>
</g>
<!-- Node1&#45;&gt;Node4 -->
<g id="edge3" class="edge">
<title>Node1&#45;&gt;Node4</title>
<path fill="none" stroke="#191970" d="M382.7157,-182.2538C357.7617,-188.9686 326.9087,-197.2708 300.3315,-204.4223"/>
<polygon fill="#191970" stroke="#191970" points="383.9204,-185.5542 392.6675,-179.576 382.1015,-178.7947 383.9204,-185.5542"/>
</g>
<!-- Node5 -->
<g id="node5" class="node">
<title>Node5</title>
<g id="a_node5"><a xlink:href="class_l_f_s_t_k__menu_item_class_a382a9775dff59f06606ef0b3f43382cc.xhtml#a382a9775dff59f06606ef0b3f43382cc" target="_top" xlink:title=" ">
<polygon fill="none" stroke="#000000" points="176.742,-153.5 176.742,-185.5 304.423,-185.5 304.423,-153.5 176.742,-153.5"/>
<text text-anchor="start" x="184.742" y="-172.5" font-family="Helvetica,sans-Serif" font-size="10.00" fill="#000000">LFSTK_menuItemClass</text>
<text text-anchor="middle" x="240.5825" y="-160.5" font-family="Helvetica,sans-Serif" font-size="10.00" fill="#000000">::LFSTK_menuItemClass</text>
</a>
</g>
</g>
<!-- Node1&#45;&gt;Node5 -->
<g id="edge4" class="edge">
<title>Node1&#45;&gt;Node5</title>
<path fill="none" stroke="#191970" d="M335.9723,-169.5C325.3308,-169.5 314.6788,-169.5 304.5531,-169.5"/>
<polygon fill="#191970" stroke="#191970" points="336.1542,-173.0001 346.1542,-169.5 336.1542,-166.0001 336.1542,-173.0001"/>
</g>
<!-- Node6 -->
<g id="node6" class="node">
<title>Node6</title>
<g id="a_node6"><a xlink:href="class_l_f_s_t_k__toggle_button_class_a4cc0929a4d4113b9b40a3bdc54898ab7.xhtml#a4cc0929a4d4113b9b40a3bdc54898ab7" target="_top" xlink:title=" ">
<polygon fill="none" stroke="#000000" points="170.899,-102.5 170.899,-134.5 310.266,-134.5 310.266,-102.5 170.899,-102.5"/>
<text text-anchor="start" x="178.899" y="-121.5" font-family="Helvetica,sans-Serif" font-size="10.00" fill="#000000">LFSTK_toggleButtonClass</text>
<text text-anchor="middle" x="240.5825" y="-109.5" font-family="Helvetica,sans-Serif" font-size="10.00" fill="#000000">::LFSTK_toggleButtonClass</text>
</a>
</g>
</g>
<!-- Node1&#45;&gt;Node6 -->
<g id="edge5" class="edge">
<title>Node1&#45;&gt;Node6</title>
<path fill="none" stroke="#191970" d="M382.7157,-156.7462C357.7617,-150.0314 326.9087,-141.7292 300.3315,-134.5777"/>
<polygon fill="#191970" stroke="#191970" points="382.1015,-160.2053 392.6675,-159.424 383.9204,-153.4458 382.1015,-160.2053"/>
</g>
<!-- Node7 -->
<g id="node7" class="node">
<title>Node7</title>
<g id="a_node7"><a xlink:href="class_l_f_s_t_k__tool_window_class_a230084a0461e204e39cea42ad1f10301.xhtml#a230084a0461e204e39cea42ad1f10301" target="_top" xlink:title=" ">
<polygon fill="none" stroke="#000000" points="173.693,-51.5 173.693,-83.5 307.472,-83.5 307.472,-51.5 173.693,-51.5"/>
<text text-anchor="start" x="181.693" y="-70.5" font-family="Helvetica,sans-Serif" font-size="10.00" fill="#000000">LFSTK_toolWindowClass</text>
<text text-anchor="middle" x="240.5825" y="-58.5" font-family="Helvetica,sans-Serif" font-size="10.00" fill="#000000">::windowClassInitCommon</text>
</a>
</g>
</g>
<!-- Node1&#45;&gt;Node7 -->
<g id="edge6" class="edge">
<title>Node1&#45;&gt;Node7</title>
<path fill="none" stroke="#191970" d="M408.078,-153.5502C384.6363,-137.0623 346.0694,-111.2893 310.266,-93.5 303.0965,-89.9377 295.3124,-86.5759 287.632,-83.5264"/>
<polygon fill="#191970" stroke="#191970" points="406.1048,-156.4417 416.2845,-159.3788 410.1583,-150.7347 406.1048,-156.4417"/>
</g>
<!-- Node9 -->
<g id="node9" class="node">
<title>Node9</title>
<g id="a_node9"><a xlink:href="class_l_f_s_t_k__window_class_a7d01ee5bb6c3fef9aa9b55323c04f90c.xhtml#a7d01ee5bb6c3fef9aa9b55323c04f90c" target="_top" xlink:title=" ">
<polygon fill="none" stroke="#000000" points="176.472,-.5 176.472,-32.5 304.693,-32.5 304.693,-.5 176.472,-.5"/>
<text text-anchor="start" x="184.472" y="-19.5" font-family="Helvetica,sans-Serif" font-size="10.00" fill="#000000">LFSTK_windowClass::</text>
<text text-anchor="middle" x="240.5825" y="-7.5" font-family="Helvetica,sans-Serif" font-size="10.00" fill="#000000">windowClassInitCommon</text>
</a>
</g>
</g>
<!-- Node1&#45;&gt;Node9 -->
<g id="edge8" class="edge">
<title>Node1&#45;&gt;Node9</title>
<path fill="none" stroke="#191970" d="M417.2148,-151.2145C397.1876,-124.0331 356.1132,-72.9154 310.266,-42.5 304.6708,-38.7881 298.4735,-35.5114 292.1496,-32.6463"/>
<polygon fill="#191970" stroke="#191970" points="414.4775,-153.402 423.1763,-159.4504 420.1479,-149.2976 414.4775,-153.402"/>
</g>
<!-- Node8 -->
<g id="node8" class="node">
<title>Node8</title>
<g id="a_node8"><a xlink:href="class_l_f_s_t_k__tool_window_class_ad9d85cbc29eafc7793e12bcc9c268bf5.xhtml#ad9d85cbc29eafc7793e12bcc9c268bf5" target="_top" xlink:title=" ">
<polygon fill="none" stroke="#000000" points="0,-51.5 0,-83.5 134.899,-83.5 134.899,-51.5 0,-51.5"/>
<text text-anchor="start" x="8" y="-70.5" font-family="Helvetica,sans-Serif" font-size="10.00" fill="#000000">LFSTK_toolWindowClass</text>
<text text-anchor="middle" x="67.4495" y="-58.5" font-family="Helvetica,sans-Serif" font-size="10.00" fill="#000000">::LFSTK_toolWindowClass</text>
</a>
</g>
</g>
<!-- Node7&#45;&gt;Node8 -->
<g id="edge7" class="edge">
<title>Node7&#45;&gt;Node8</title>
<path fill="none" stroke="#191970" d="M163.4565,-67.5C153.9921,-67.5 144.3754,-67.5 135.0661,-67.5"/>
<polygon fill="#191970" stroke="#191970" points="163.6448,-71.0001 173.6448,-67.5 163.6447,-64.0001 163.6448,-71.0001"/>
</g>
<!-- Node10 -->
<g id="node10" class="node">
<title>Node10</title>
<g id="a_node10"><a xlink:href="class_l_f_s_t_k__window_class_afcd2c5e43ab2a1110d5b4e54b24ce47a.xhtml#afcd2c5e43ab2a1110d5b4e54b24ce47a" target="_top" xlink:title=" ">
<polygon fill="none" stroke="#000000" points="9.168,-.5 9.168,-32.5 125.731,-32.5 125.731,-.5 9.168,-.5"/>
<text text-anchor="start" x="17.168" y="-19.5" font-family="Helvetica,sans-Serif" font-size="10.00" fill="#000000">LFSTK_windowClass::</text>
<text text-anchor="middle" x="67.4495" y="-7.5" font-family="Helvetica,sans-Serif" font-size="10.00" fill="#000000">LFSTK_windowClass</text>
</a>
</g>
</g>
<!-- Node9&#45;&gt;Node10 -->
<g id="edge9" class="edge">
<title>Node9&#45;&gt;Node10</title>
<path fill="none" stroke="#191970" d="M165.9767,-16.5C152.5924,-16.5 138.8191,-16.5 125.9701,-16.5"/>
<polygon fill="#191970" stroke="#191970" points="166.1142,-20.0001 176.1142,-16.5 166.1141,-13.0001 166.1142,-20.0001"/>
</g>
</g>
</svg>
