<?xml version="1.0" encoding="UTF-8" standalone="no"?>
<!DOCTYPE svg PUBLIC "-//W3C//DTD SVG 1.1//EN"
 "http://www.w3.org/Graphics/SVG/1.1/DTD/svg11.dtd">
<!-- Generated by graphviz version 2.40.1 (20161225.0304)
 -->
<!-- Title: LFSTK_fontDialogClass::LFSTK_getFontData Pages: 1 -->
<svg width="798pt" height="270pt"
 viewBox="0.00 0.00 797.65 270.00" xmlns="http://www.w3.org/2000/svg" xmlns:xlink="http://www.w3.org/1999/xlink">
<g id="graph0" class="graph" transform="scale(1 1) rotate(0) translate(4 266)">
<title>LFSTK_fontDialogClass::LFSTK_getFontData</title>
<!-- Node1 -->
<g id="node1" class="node">
<title>Node1</title>
<g id="a_node1"><a xlink:title=" ">
<polygon fill="#bfbfbf" stroke="#000000" points="0,-102.5 0,-134.5 122.681,-134.5 122.681,-102.5 0,-102.5"/>
<text text-anchor="start" x="8" y="-121.5" font-family="Helvetica,sans-Serif" font-size="10.00" fill="#000000">LFSTK_fontDialogClass</text>
<text text-anchor="middle" x="61.3405" y="-109.5" font-family="Helvetica,sans-Serif" font-size="10.00" fill="#000000">::LFSTK_getFontData</text>
</a>
</g>
</g>
<!-- Node2 -->
<g id="node2" class="node">
<title>Node2</title>
<g id="a_node2"><a xlink:href="class_l_f_s_t_k__font_dialog_class_ac2b51914d426e9ff7ba57211d5639514.xhtml#ac2b51914d426e9ff7ba57211d5639514" target="_top" xlink:title=" ">
<polygon fill="none" stroke="#000000" points="158.681,-102.5 158.681,-134.5 281.362,-134.5 281.362,-102.5 158.681,-102.5"/>
<text text-anchor="start" x="166.681" y="-121.5" font-family="Helvetica,sans-Serif" font-size="10.00" fill="#000000">LFSTK_fontDialogClass</text>
<text text-anchor="middle" x="220.0215" y="-109.5" font-family="Helvetica,sans-Serif" font-size="10.00" fill="#000000">::buildFontString</text>
</a>
</g>
</g>
<!-- Node1&#45;&gt;Node2 -->
<g id="edge1" class="edge">
<title>Node1&#45;&gt;Node2</title>
<path fill="none" stroke="#191970" d="M122.6907,-118.5C131.1531,-118.5 139.9036,-118.5 148.5292,-118.5"/>
<polygon fill="#191970" stroke="#191970" points="148.5729,-122.0001 158.5728,-118.5 148.5728,-115.0001 148.5729,-122.0001"/>
</g>
<!-- Node3 -->
<g id="node3" class="node">
<title>Node3</title>
<g id="a_node3"><a xlink:href="class_l_f_s_t_k__line_edit_class_adbcfa08279eec28c5f4e2c33a056d396.xhtml#adbcfa08279eec28c5f4e2c33a056d396" target="_top" xlink:title=" ">
<polygon fill="none" stroke="#000000" points="336.8135,-204.5 336.8135,-236.5 452.2655,-236.5 452.2655,-204.5 336.8135,-204.5"/>
<text text-anchor="start" x="344.8135" y="-223.5" font-family="Helvetica,sans-Serif" font-size="10.00" fill="#000000">LFSTK_lineEditClass</text>
<text text-anchor="middle" x="394.5395" y="-211.5" font-family="Helvetica,sans-Serif" font-size="10.00" fill="#000000">::LFSTK_clearWindow</text>
</a>
</g>
</g>
<!-- Node2&#45;&gt;Node3 -->
<g id="edge2" class="edge">
<title>Node2&#45;&gt;Node3</title>
<path fill="none" stroke="#191970" d="M236.6278,-134.7272C255.018,-151.9175 286.2032,-178.8299 317.362,-195.5 320.6607,-197.2648 324.1058,-198.9326 327.6313,-200.5044"/>
<polygon fill="#191970" stroke="#191970" points="326.5288,-203.8363 337.1063,-204.4418 329.215,-197.3722 326.5288,-203.8363"/>
</g>
<!-- Node8 -->
<g id="node8" class="node">
<title>Node8</title>
<g id="a_node8"><a xlink:href="class_l_f_s_t_k__line_edit_class_adfaad6bd5ec8f4ecc3be7a6358693786.xhtml#adfaad6bd5ec8f4ecc3be7a6358693786" target="_top" xlink:title=" ">
<polygon fill="none" stroke="#000000" points="339.313,-153.5 339.313,-185.5 449.766,-185.5 449.766,-153.5 339.313,-153.5"/>
<text text-anchor="start" x="347.313" y="-172.5" font-family="Helvetica,sans-Serif" font-size="10.00" fill="#000000">LFSTK_lineEditClass</text>
<text text-anchor="middle" x="394.5395" y="-160.5" font-family="Helvetica,sans-Serif" font-size="10.00" fill="#000000">::LFSTK_getCStr</text>
</a>
</g>
</g>
<!-- Node2&#45;&gt;Node8 -->
<g id="edge7" class="edge">
<title>Node2&#45;&gt;Node8</title>
<path fill="none" stroke="#191970" d="M275.2401,-134.6367C292.597,-139.709 311.918,-145.3552 329.8693,-150.6012"/>
<polygon fill="#191970" stroke="#191970" points="329.0998,-154.0227 339.6801,-153.4683 331.0634,-147.3037 329.0998,-154.0227"/>
</g>
<!-- Node9 -->
<g id="node9" class="node">
<title>Node9</title>
<g id="a_node9"><a xlink:href="class_l_f_s_t_k__list_gadget_class_adca4f8facb3b38e8eb94cd5164c8c415.xhtml#adca4f8facb3b38e8eb94cd5164c8c415" target="_top" xlink:title=" ">
<polygon fill="none" stroke="#000000" points="324.307,-102.5 324.307,-134.5 464.772,-134.5 464.772,-102.5 324.307,-102.5"/>
<text text-anchor="start" x="332.307" y="-121.5" font-family="Helvetica,sans-Serif" font-size="10.00" fill="#000000">LFSTK_listGadgetClass</text>
<text text-anchor="middle" x="394.5395" y="-109.5" font-family="Helvetica,sans-Serif" font-size="10.00" fill="#000000">::LFSTK_getCurrentListItem</text>
</a>
</g>
</g>
<!-- Node2&#45;&gt;Node9 -->
<g id="edge8" class="edge">
<title>Node2&#45;&gt;Node9</title>
<path fill="none" stroke="#191970" d="M281.55,-118.5C291.9615,-118.5 302.9096,-118.5 313.725,-118.5"/>
<polygon fill="#191970" stroke="#191970" points="314.0319,-122.0001 324.0319,-118.5 314.0319,-115.0001 314.0319,-122.0001"/>
</g>
<!-- Node10 -->
<g id="node10" class="node">
<title>Node10</title>
<g id="a_node10"><a xlink:href="class_l_f_s_t_k__toggle_button_class_a8a076e5b5871885e04cd5f91b9607c26.xhtml#a8a076e5b5871885e04cd5f91b9607c26" target="_top" xlink:title=" ">
<polygon fill="none" stroke="#000000" points="327.635,-51.5 327.635,-83.5 461.444,-83.5 461.444,-51.5 327.635,-51.5"/>
<text text-anchor="start" x="335.635" y="-70.5" font-family="Helvetica,sans-Serif" font-size="10.00" fill="#000000">LFSTK_toggleButtonClass</text>
<text text-anchor="middle" x="394.5395" y="-58.5" font-family="Helvetica,sans-Serif" font-size="10.00" fill="#000000">::LFSTK_getValue</text>
</a>
</g>
</g>
<!-- Node2&#45;&gt;Node10 -->
<g id="edge9" class="edge">
<title>Node2&#45;&gt;Node10</title>
<path fill="none" stroke="#191970" d="M275.2401,-102.3633C292.597,-97.291 311.918,-91.6448 329.8693,-86.3988"/>
<polygon fill="#191970" stroke="#191970" points="331.0634,-89.6963 339.6801,-83.5317 329.0998,-82.9773 331.0634,-89.6963"/>
</g>
<!-- Node11 -->
<g id="node11" class="node">
<title>Node11</title>
<g id="a_node11"><a xlink:href="class_l_f_s_t_k__gadget_class_a68d08536cf6845c8c2b60a9c5f855478.xhtml#a68d08536cf6845c8c2b60a9c5f855478" target="_top" xlink:title=" ">
<polygon fill="none" stroke="#000000" points="317.362,-.5 317.362,-32.5 471.717,-32.5 471.717,-.5 317.362,-.5"/>
<text text-anchor="start" x="325.362" y="-19.5" font-family="Helvetica,sans-Serif" font-size="10.00" fill="#000000">LFSTK_gadgetClass::</text>
<text text-anchor="middle" x="394.5395" y="-7.5" font-family="Helvetica,sans-Serif" font-size="10.00" fill="#000000">LFSTK_setCairoFontDataParts</text>
</a>
</g>
</g>
<!-- Node2&#45;&gt;Node11 -->
<g id="edge10" class="edge">
<title>Node2&#45;&gt;Node11</title>
<path fill="none" stroke="#191970" d="M237.0442,-102.2571C255.5423,-85.3489 286.5914,-59.0681 317.362,-42.5 321.3204,-40.3687 325.4861,-38.3657 329.7465,-36.492"/>
<polygon fill="#191970" stroke="#191970" points="331.2733,-39.6483 339.1811,-32.5973 328.6022,-33.178 331.2733,-39.6483"/>
</g>
<!-- Node4 -->
<g id="node4" class="node">
<title>Node4</title>
<g id="a_node4"><a xlink:href="class_l_f_s_t_k__gadget_class_ab76db165a19af248b5e94e95492dc879.xhtml#ab76db165a19af248b5e94e95492dc879" target="_top" xlink:title=" ">
<polygon fill="none" stroke="#000000" points="507.717,-229.5 507.717,-261.5 621.52,-261.5 621.52,-229.5 507.717,-229.5"/>
<text text-anchor="start" x="515.717" y="-248.5" font-family="Helvetica,sans-Serif" font-size="10.00" fill="#000000">LFSTK_gadgetClass::</text>
<text text-anchor="middle" x="564.6185" y="-236.5" font-family="Helvetica,sans-Serif" font-size="10.00" fill="#000000">drawBevel</text>
</a>
</g>
</g>
<!-- Node3&#45;&gt;Node4 -->
<g id="edge3" class="edge">
<title>Node3&#45;&gt;Node4</title>
<path fill="none" stroke="#191970" d="M452.5953,-229.0337C467.0602,-231.1598 482.687,-233.4568 497.5468,-235.6411"/>
<polygon fill="#191970" stroke="#191970" points="497.2854,-239.1402 507.6881,-237.1318 498.3035,-232.2146 497.2854,-239.1402"/>
</g>
<!-- Node5 -->
<g id="node5" class="node">
<title>Node5</title>
<g id="a_node5"><a xlink:href="class_l_f_s_t_k__line_edit_class_a24da1f04ceb3b05ed9b25988e2cb5130.xhtml#a24da1f04ceb3b05ed9b25988e2cb5130" target="_top" xlink:title=" ">
<polygon fill="none" stroke="#000000" points="509.392,-178.5 509.392,-210.5 619.845,-210.5 619.845,-178.5 509.392,-178.5"/>
<text text-anchor="start" x="517.392" y="-197.5" font-family="Helvetica,sans-Serif" font-size="10.00" fill="#000000">LFSTK_lineEditClass</text>
<text text-anchor="middle" x="564.6185" y="-185.5" font-family="Helvetica,sans-Serif" font-size="10.00" fill="#000000">::drawLabel</text>
</a>
</g>
</g>
<!-- Node3&#45;&gt;Node5 -->
<g id="edge4" class="edge">
<title>Node3&#45;&gt;Node5</title>
<path fill="none" stroke="#191970" d="M452.5953,-211.625C467.5939,-209.3322 483.8419,-206.8483 499.1886,-204.5023"/>
<polygon fill="#191970" stroke="#191970" points="499.7651,-207.9549 509.1213,-202.9839 498.7072,-201.0353 499.7651,-207.9549"/>
</g>
<!-- Node6 -->
<g id="node6" class="node">
<title>Node6</title>
<g id="a_node6"><a xlink:href="class_l_f_s_t_k__gadget_class_ac233a3c3e0900ff66adb74102a56f09f.xhtml#ac233a3c3e0900ff66adb74102a56f09f" target="_top" xlink:title=" ">
<polygon fill="none" stroke="#000000" points="657.52,-204.5 657.52,-236.5 789.649,-236.5 789.649,-204.5 657.52,-204.5"/>
<text text-anchor="start" x="665.52" y="-223.5" font-family="Helvetica,sans-Serif" font-size="10.00" fill="#000000">LFSTK_gadgetClass::</text>
<text text-anchor="middle" x="723.5845" y="-211.5" font-family="Helvetica,sans-Serif" font-size="10.00" fill="#000000">LFSTK_getTextRealWidth</text>
</a>
</g>
</g>
<!-- Node5&#45;&gt;Node6 -->
<g id="edge5" class="edge">
<title>Node5&#45;&gt;Node6</title>
<path fill="none" stroke="#191970" d="M620.2171,-203.5935C629.0278,-205.0346 638.2701,-206.5462 647.4526,-208.0481"/>
<polygon fill="#191970" stroke="#191970" points="646.9362,-211.5101 657.37,-209.6702 648.0661,-204.6018 646.9362,-211.5101"/>
</g>
<!-- Node7 -->
<g id="node7" class="node">
<title>Node7</title>
<g id="a_node7"><a xlink:href="class_l_f_s_t_k__gadget_class_a23bc2dc7b8200df4dc74f1f68460eca2.xhtml#a23bc2dc7b8200df4dc74f1f68460eca2" target="_top" xlink:title=" ">
<polygon fill="none" stroke="#000000" points="666.683,-153.5 666.683,-185.5 780.486,-185.5 780.486,-153.5 666.683,-153.5"/>
<text text-anchor="start" x="674.683" y="-172.5" font-family="Helvetica,sans-Serif" font-size="10.00" fill="#000000">LFSTK_gadgetClass::</text>
<text text-anchor="middle" x="723.5845" y="-160.5" font-family="Helvetica,sans-Serif" font-size="10.00" fill="#000000">LFSTK_getTextWidth</text>
</a>
</g>
</g>
<!-- Node5&#45;&gt;Node7 -->
<g id="edge6" class="edge">
<title>Node5&#45;&gt;Node7</title>
<path fill="none" stroke="#191970" d="M620.2171,-185.7562C631.9684,-183.9081 644.4875,-181.9393 656.6086,-180.033"/>
<polygon fill="#191970" stroke="#191970" points="657.3364,-183.4617 666.6712,-178.4506 656.2488,-176.5467 657.3364,-183.4617"/>
</g>
</g>
</svg>
