<?xml version="1.0" encoding="UTF-8" standalone="no"?>
<!DOCTYPE svg PUBLIC "-//W3C//DTD SVG 1.1//EN"
 "http://www.w3.org/Graphics/SVG/1.1/DTD/svg11.dtd">
<!-- Generated by graphviz version 2.40.1 (20161225.0304)
 -->
<!-- Title: LFSTK_windowClass Pages: 1 -->
<!--zoomable 344 -->
<svg id="main" version="1.1" xmlns="http://www.w3.org/2000/svg" xmlns:xlink="http://www.w3.org/1999/xlink" xml:space="preserve" onload="init(evt)">
<style type="text/css"><![CDATA[
.edge:hover path { stroke: red; }
.edge:hover polygon { stroke: red; fill: red; }
]]></style>
<script type="text/javascript"><![CDATA[
var edges = document.getElementsByTagName('g');
if (edges && edges.length) {
  for (var i=0;i<edges.length;i++) {
    if (edges[i].id.substr(0,4)=='edge') {
      edges[i].setAttribute('class','edge');
    }
  }
}
]]></script>
        <defs>
                <circle id="rim" cx="0" cy="0" r="7"/>
                <circle id="rim2" cx="0" cy="0" r="3.5"/>
                <g id="zoomPlus">
                        <use xlink:href="#rim" fill="#404040">
                                <set attributeName="fill" to="#808080" begin="zoomplus.mouseover" end="zoomplus.mouseout"/>
                        </use>
                        <path d="M-4,0h8M0,-4v8" fill="none" stroke="white" stroke-width="1.5" pointer-events="none"/>
                </g>
                <g id="zoomMin">
                        <use xlink:href="#rim" fill="#404040">
                                <set attributeName="fill" to="#808080" begin="zoomminus.mouseover" end="zoomminus.mouseout"/>
                        </use>
                        <path d="M-4,0h8" fill="none" stroke="white" stroke-width="1.5" pointer-events="none"/>
                </g>
                <g id="dirArrow">
                        <path fill="none" stroke="white" stroke-width="1.5" d="M0,-3.0v7 M-2.5,-0.5L0,-3.0L2.5,-0.5"/>
                </g>
               <g id="resetDef">
                       <use xlink:href="#rim2" fill="#404040">
                               <set attributeName="fill" to="#808080" begin="reset.mouseover" end="reset.mouseout"/>
                       </use>
               </g>
        </defs>

<script type="text/javascript">
var viewWidth = 674;
var viewHeight = 344;
var sectionId = 'dynsection-1';
</script>
<script xlink:href="svgpan.js"/>
<svg id="graph" class="graph">
<g id="viewport">
<title>LFSTK_windowClass</title>
<!-- Node1 -->
<g id="node1" class="node">
<title>Node1</title>
<g id="a_node1"><a xlink:title="Window class for LFSToolKit.">
<polygon fill="#bfbfbf" stroke="#000000" points="359.3915,-158 359.3915,-178 470.3965,-178 470.3965,-158 359.3915,-158"/>
<text text-anchor="middle" x="414.894" y="-165" font-family="Helvetica,sans-Serif" font-size="10.00" fill="#000000">LFSTK_windowClass</text>
</a>
</g>
</g>
<!-- Node4 -->
<g id="node4" class="node">
<title>Node4</title>
<g id="a_node4"><a xlink:href="class_l_f_s_t_k__gadget_class.xhtml" target="_top" xlink:title="Base class for LFSToolKit gadgets.">
<polygon fill="none" stroke="#000000" points="230.7715,-69.5 230.7715,-89.5 339.0165,-89.5 339.0165,-69.5 230.7715,-69.5"/>
<text text-anchor="middle" x="284.894" y="-76.5" font-family="Helvetica,sans-Serif" font-size="10.00" fill="#000000">LFSTK_gadgetClass</text>
</a>
</g>
</g>
<!-- Node1&#45;&gt;Node4 -->
<g id="edge9" class="edge">
<title>Node1&#45;&gt;Node4</title>
<path fill="none" stroke="#9a32cd" stroke-dasharray="5,2" d="M363.8093,-155.233C340.4144,-148.5404 315.9642,-140.0738 307.222,-132 294.9978,-120.7105 289.202,-101.6286 286.6619,-89.8438"/>
<polygon fill="#9a32cd" stroke="#9a32cd" points="363.1503,-158.6824 373.7223,-157.9864 365.0237,-151.9378 363.1503,-158.6824"/>
<text text-anchor="middle" x="333.73" y="-123" font-family="Helvetica,sans-Serif" font-size="10.00" fill="#000000"> contextWC</text>
<text text-anchor="middle" x="333.73" y="-111" font-family="Helvetica,sans-Serif" font-size="10.00" fill="#000000">wc</text>
</g>
<!-- Node2 -->
<g id="node2" class="node">
<title>Node2</title>
<g id="a_node2"><a xlink:href="structgeometry_struct.xhtml" target="_top" xlink:title=" ">
<polygon fill="none" stroke="#000000" points="0,-246.5 0,-266.5 83.788,-266.5 83.788,-246.5 0,-246.5"/>
<text text-anchor="middle" x="41.894" y="-253.5" font-family="Helvetica,sans-Serif" font-size="10.00" fill="#000000">geometryStruct</text>
</a>
</g>
</g>
<!-- Node2&#45;&gt;Node1 -->
<g id="edge1" class="edge">
<title>Node2&#45;&gt;Node1</title>
<path fill="none" stroke="#9a32cd" stroke-dasharray="5,2" d="M93.8157,-246.9219C115.7447,-242.224 141.3674,-235.8661 163.894,-228 187.416,-219.7863 190.6756,-211.108 214.555,-204 271.0249,-187.1911 288.1,-197.4564 345.894,-186 356.9448,-183.8094 368.8579,-180.9017 379.6239,-178.0636"/>
<polygon fill="#9a32cd" stroke="#9a32cd" points="93.0997,-243.4958 84.0245,-248.963 94.5283,-250.3485 93.0997,-243.4958"/>
<text text-anchor="middle" x="246.5635" y="-213" font-family="Helvetica,sans-Serif" font-size="10.00" fill="#000000"> windowGeom</text>
</g>
<!-- Node2&#45;&gt;Node4 -->
<g id="edge8" class="edge">
<title>Node2&#45;&gt;Node4</title>
<path fill="none" stroke="#9a32cd" stroke-dasharray="5,2" d="M31.7315,-237.1575C21.2084,-214.1567 8.7023,-175.6603 27.315,-150 51.1006,-117.2082 162.4364,-96.3343 230.7126,-86.3874"/>
<polygon fill="#9a32cd" stroke="#9a32cd" points="28.6393,-238.8019 36.1657,-246.2588 34.9322,-235.736 28.6393,-238.8019"/>
<text text-anchor="middle" x="58.1835" y="-165" font-family="Helvetica,sans-Serif" font-size="10.00" fill="#000000"> gadgetGeom</text>
</g>
<!-- Node5 -->
<g id="node5" class="node">
<title>Node5</title>
<g id="a_node5"><a xlink:href="structgadget_struct.xhtml" target="_top" xlink:title=" ">
<polygon fill="none" stroke="#000000" points="96.5495,-158 96.5495,-178 169.2385,-178 169.2385,-158 96.5495,-158"/>
<text text-anchor="middle" x="132.894" y="-165" font-family="Helvetica,sans-Serif" font-size="10.00" fill="#000000">gadgetStruct</text>
</a>
</g>
</g>
<!-- Node2&#45;&gt;Node5 -->
<g id="edge5" class="edge">
<title>Node2&#45;&gt;Node5</title>
<path fill="none" stroke="#9a32cd" stroke-dasharray="5,2" d="M37.3677,-236.2266C36.1857,-225.7361 36.7065,-213.2305 43.107,-204 49.6144,-194.6153 74.548,-185.0417 96.4933,-178.1285"/>
<polygon fill="#9a32cd" stroke="#9a32cd" points="33.9356,-236.9237 39.0407,-246.2075 40.8393,-235.7664 33.9356,-236.9237"/>
<text text-anchor="middle" x="77.7875" y="-219" font-family="Helvetica,sans-Serif" font-size="10.00" fill="#000000"> indicatorGeom</text>
<text text-anchor="middle" x="77.7875" y="-207" font-family="Helvetica,sans-Serif" font-size="10.00" fill="#000000">gadgetGeom</text>
</g>
<!-- Node3 -->
<g id="node3" class="node">
<title>Node3</title>
<g id="a_node3"><a xlink:href="structmonitor_struct.xhtml" target="_top" xlink:title=" ">
<polygon fill="none" stroke="#000000" points="362.17,-246.5 362.17,-266.5 437.618,-266.5 437.618,-246.5 362.17,-246.5"/>
<text text-anchor="middle" x="399.894" y="-253.5" font-family="Helvetica,sans-Serif" font-size="10.00" fill="#000000">monitorStruct</text>
</a>
</g>
</g>
<!-- Node3&#45;&gt;Node1 -->
<g id="edge2" class="edge">
<title>Node3&#45;&gt;Node1</title>
<path fill="none" stroke="#9a32cd" stroke-dasharray="5,2" d="M403.2915,-236.4547C406.3758,-218.2572 410.7972,-192.1712 413.1934,-178.0337"/>
<polygon fill="#9a32cd" stroke="#9a32cd" points="399.8351,-235.9036 401.6147,-246.3479 406.7366,-237.0734 399.8351,-235.9036"/>
<text text-anchor="middle" x="429.45" y="-213" font-family="Helvetica,sans-Serif" font-size="10.00" fill="#000000"> monitors</text>
</g>
<!-- Node4&#45;&gt;Node1 -->
<g id="edge3" class="edge">
<title>Node4&#45;&gt;Node1</title>
<path fill="none" stroke="#9a32cd" stroke-dasharray="5,2" d="M333.6814,-93.009C343.8132,-96.9739 354.0783,-101.9233 362.894,-108 382.6418,-121.6122 399.5676,-144.4388 408.3846,-157.6655"/>
<polygon fill="#9a32cd" stroke="#9a32cd" points="334.6541,-89.6383 324.0601,-89.5046 332.2584,-96.2156 334.6541,-89.6383"/>
<text text-anchor="middle" x="430.8515" y="-123" font-family="Helvetica,sans-Serif" font-size="10.00" fill="#000000"> dropGadget</text>
<text text-anchor="middle" x="430.8515" y="-111" font-family="Helvetica,sans-Serif" font-size="10.00" fill="#000000">popupFromGadget</text>
</g>
<!-- Node8 -->
<g id="node8" class="node">
<title>Node8</title>
<g id="a_node8"><a xlink:href="structmapped_listener.xhtml" target="_top" xlink:title=" ">
<polygon fill="none" stroke="#000000" points="241.0505,-.5 241.0505,-20.5 328.7375,-20.5 328.7375,-.5 241.0505,-.5"/>
<text text-anchor="middle" x="284.894" y="-7.5" font-family="Helvetica,sans-Serif" font-size="10.00" fill="#000000">mappedListener</text>
</a>
</g>
</g>
<!-- Node4&#45;&gt;Node8 -->
<g id="edge11" class="edge">
<title>Node4&#45;&gt;Node8</title>
<path fill="none" stroke="#9a32cd" stroke-dasharray="5,2" d="M261.5913,-62.6521C258.3206,-59.1893 255.4336,-55.278 253.541,-51 248.4326,-39.4529 258.638,-28.2549 268.7401,-20.5715"/>
<polygon fill="#9a32cd" stroke="#9a32cd" points="259.3676,-65.3604 269.1269,-69.4844 264.0695,-60.1746 259.3676,-65.3604"/>
<text text-anchor="middle" x="270.5705" y="-42" font-family="Helvetica,sans-Serif" font-size="10.00" fill="#000000"> gadget</text>
</g>
<!-- Node5&#45;&gt;Node4 -->
<g id="edge4" class="edge">
<title>Node5&#45;&gt;Node4</title>
<path fill="none" stroke="#9a32cd" stroke-dasharray="5,2" d="M144.9666,-149.4592C154.5757,-136.1006 169.1716,-118.6239 185.987,-108 199.4326,-99.5051 215.4837,-93.4722 230.7035,-89.2161"/>
<polygon fill="#9a32cd" stroke="#9a32cd" points="141.933,-147.6933 139.1448,-157.9147 147.6986,-151.6631 141.933,-147.6933"/>
<text text-anchor="middle" x="218.8475" y="-117" font-family="Helvetica,sans-Serif" font-size="10.00" fill="#000000"> gadgetDetails</text>
</g>
<!-- Node6 -->
<g id="node6" class="node">
<title>Node6</title>
<g id="a_node6"><a xlink:href="structcolour_struct.xhtml" target="_top" xlink:title=" ">
<polygon fill="none" stroke="#000000" points="229.224,-246.5 229.224,-266.5 298.564,-266.5 298.564,-246.5 229.224,-246.5"/>
<text text-anchor="middle" x="263.894" y="-253.5" font-family="Helvetica,sans-Serif" font-size="10.00" fill="#000000">colourStruct</text>
</a>
</g>
</g>
<!-- Node6&#45;&gt;Node1 -->
<g id="edge15" class="edge">
<title>Node6&#45;&gt;Node1</title>
<path fill="none" stroke="#9a32cd" stroke-dasharray="5,2" d="M274.3089,-237.4422C281.2909,-226.272 291.4359,-212.6928 303.671,-204 315.4594,-195.6246 348.5863,-185.4188 375.6434,-178.0155"/>
<polygon fill="#9a32cd" stroke="#9a32cd" points="271.2699,-235.7055 269.2115,-246.0985 277.3018,-239.2575 271.2699,-235.7055"/>
<text text-anchor="middle" x="352.5055" y="-213" font-family="Helvetica,sans-Serif" font-size="10.00" fill="#000000"> windowColourNames</text>
</g>
<!-- Node6&#45;&gt;Node4 -->
<g id="edge13" class="edge">
<title>Node6&#45;&gt;Node4</title>
<path fill="none" stroke="#9a32cd" stroke-dasharray="5,2" d="M264.8338,-236.3171C265.9772,-214.8509 268.2496,-179.9335 272.108,-150 274.8751,-128.5333 279.7875,-103.6787 282.6506,-89.9586"/>
<polygon fill="#9a32cd" stroke="#9a32cd" points="261.3294,-236.3178 264.324,-246.4806 268.3206,-236.6685 261.3294,-236.3178"/>
<text text-anchor="middle" x="311.787" y="-177" font-family="Helvetica,sans-Serif" font-size="10.00" fill="#000000"> labelBGColour</text>
<text text-anchor="middle" x="311.787" y="-165" font-family="Helvetica,sans-Serif" font-size="10.00" fill="#000000">colourNames</text>
<text text-anchor="middle" x="311.787" y="-153" font-family="Helvetica,sans-Serif" font-size="10.00" fill="#000000">fontColourNames</text>
</g>
<!-- Node6&#45;&gt;Node5 -->
<g id="edge6" class="edge">
<title>Node6&#45;&gt;Node5</title>
<path fill="none" stroke="#9a32cd" stroke-dasharray="5,2" d="M218.9811,-252.5327C185.8093,-248.5707 144.6314,-241.1267 133.89,-228 122.4101,-213.9708 126.0756,-191.294 129.6016,-178.2061"/>
<polygon fill="#9a32cd" stroke="#9a32cd" points="218.6486,-256.0173 228.9762,-253.6529 219.4283,-249.0608 218.6486,-256.0173"/>
<text text-anchor="middle" x="148.896" y="-213" font-family="Helvetica,sans-Serif" font-size="10.00" fill="#000000"> colour</text>
</g>
<!-- Node7 -->
<g id="node7" class="node">
<title>Node7</title>
<g id="a_node7"><a xlink:href="structcairo_color.xhtml" target="_top" xlink:title=" ">
<polygon fill="none" stroke="#000000" points="233.1185,-315.5 233.1185,-335.5 294.6695,-335.5 294.6695,-315.5 233.1185,-315.5"/>
<text text-anchor="middle" x="263.894" y="-322.5" font-family="Helvetica,sans-Serif" font-size="10.00" fill="#000000">cairoColor</text>
</a>
</g>
</g>
<!-- Node7&#45;&gt;Node6 -->
<g id="edge7" class="edge">
<title>Node7&#45;&gt;Node6</title>
<path fill="none" stroke="#9a32cd" stroke-dasharray="5,2" d="M263.894,-305.2177C263.894,-292.5684 263.894,-276.8285 263.894,-266.723"/>
<polygon fill="#9a32cd" stroke="#9a32cd" points="260.3941,-305.3188 263.894,-315.3188 267.3941,-305.3188 260.3941,-305.3188"/>
<text text-anchor="middle" x="294.1735" y="-288" font-family="Helvetica,sans-Serif" font-size="10.00" fill="#000000"> RGBAColour</text>
</g>
<!-- Node8&#45;&gt;Node4 -->
<g id="edge10" class="edge">
<title>Node8&#45;&gt;Node4</title>
<path fill="none" stroke="#9a32cd" stroke-dasharray="5,2" d="M289.9084,-30.7419C290.967,-37.2008 291.5825,-44.3876 290.894,-51 290.2551,-57.1356 288.8625,-63.8959 287.5797,-69.292"/>
<polygon fill="#9a32cd" stroke="#9a32cd" points="293.3042,-29.8789 287.8606,-20.7895 286.4479,-31.2897 293.3042,-29.8789"/>
<text text-anchor="middle" x="298.5575" y="-42" font-family="Helvetica,sans-Serif" font-size="10.00" fill="#000000"> ml</text>
</g>
<!-- Node9 -->
<g id="node9" class="node">
<title>Node9</title>
<g id="a_node9"><a xlink:href="structbutton_c_b.xhtml" target="_top" xlink:title=" ">
<polygon fill="none" stroke="#000000" points="488.053,-158 488.053,-178 545.735,-178 545.735,-158 488.053,-158"/>
<text text-anchor="middle" x="516.894" y="-165" font-family="Helvetica,sans-Serif" font-size="10.00" fill="#000000">buttonCB</text>
</a>
</g>
</g>
<!-- Node9&#45;&gt;Node4 -->
<g id="edge12" class="edge">
<title>Node9&#45;&gt;Node4</title>
<path fill="none" stroke="#9a32cd" stroke-dasharray="5,2" d="M508.851,-148.06C502.3093,-134.5108 491.7228,-117.4021 476.894,-108 454.624,-93.8798 387.8279,-86.3727 339.2686,-82.6701"/>
<polygon fill="#9a32cd" stroke="#9a32cd" points="505.8061,-149.8264 513.0684,-157.5407 512.2019,-146.9813 505.8061,-149.8264"/>
<text text-anchor="middle" x="519.341" y="-117" font-family="Helvetica,sans-Serif" font-size="10.00" fill="#000000"> callback</text>
</g>
<!-- Node10 -->
<g id="node10" class="node">
<title>Node10</title>
<g id="a_node10"><a xlink:href="structdrop_data_struct.xhtml" target="_top" xlink:title=" ">
<polygon fill="none" stroke="#000000" points="455.2755,-246.5 455.2755,-266.5 538.5125,-266.5 538.5125,-246.5 455.2755,-246.5"/>
<text text-anchor="middle" x="496.894" y="-253.5" font-family="Helvetica,sans-Serif" font-size="10.00" fill="#000000">dropDataStruct</text>
</a>
</g>
</g>
<!-- Node10&#45;&gt;Node1 -->
<g id="edge14" class="edge">
<title>Node10&#45;&gt;Node1</title>
<path fill="none" stroke="#9a32cd" stroke-dasharray="5,2" d="M483.1754,-238.5111C475.0084,-228.1249 464.2475,-214.985 453.894,-204 445.2988,-194.8805 434.8291,-185.2903 426.9024,-178.3033"/>
<polygon fill="#9a32cd" stroke="#9a32cd" points="480.4638,-240.7258 489.3598,-246.4801 485.9939,-236.4341 480.4638,-240.7258"/>
<text text-anchor="middle" x="505.183" y="-213" font-family="Helvetica,sans-Serif" font-size="10.00" fill="#000000"> droppedData</text>
</g>
<!-- Node11 -->
<g id="node11" class="node">
<title>Node11</title>
<g id="a_node11"><a xlink:href="class_l_f_s_t_k__lib.xhtml" target="_top" xlink:title="Library of useful routines for LFSToolKit.">
<polygon fill="none" stroke="#000000" points="556.5585,-246.5 556.5585,-266.5 619.2295,-266.5 619.2295,-246.5 556.5585,-246.5"/>
<text text-anchor="middle" x="587.894" y="-253.5" font-family="Helvetica,sans-Serif" font-size="10.00" fill="#000000">LFSTK_lib</text>
</a>
</g>
</g>
<!-- Node11&#45;&gt;Node1 -->
<g id="edge16" class="edge">
<title>Node11&#45;&gt;Node1</title>
<path fill="none" stroke="#9a32cd" stroke-dasharray="5,2" d="M575.1889,-238.0742C566.4749,-226.7289 553.9712,-212.7334 539.894,-204 537.921,-202.776 486.8703,-188.2604 450.629,-178.0404"/>
<polygon fill="#9a32cd" stroke="#9a32cd" points="572.5917,-240.4517 581.3227,-246.4535 578.2401,-236.3169 572.5917,-240.4517"/>
<text text-anchor="middle" x="588.289" y="-213" font-family="Helvetica,sans-Serif" font-size="10.00" fill="#000000"> globalLib</text>
</g>
<!-- Node12 -->
<g id="node12" class="node">
<title>Node12</title>
<g id="a_node12"><a xlink:href="structargs.xhtml" target="_top" xlink:title=" ">
<polygon fill="none" stroke="#000000" points="570.1705,-315.5 570.1705,-335.5 605.6175,-335.5 605.6175,-315.5 570.1705,-315.5"/>
<text text-anchor="middle" x="587.894" y="-322.5" font-family="Helvetica,sans-Serif" font-size="10.00" fill="#000000">args</text>
</a>
</g>
</g>
<!-- Node12&#45;&gt;Node11 -->
<g id="edge17" class="edge">
<title>Node12&#45;&gt;Node11</title>
<path fill="none" stroke="#9a32cd" stroke-dasharray="5,2" d="M587.894,-305.2177C587.894,-292.5684 587.894,-276.8285 587.894,-266.723"/>
<polygon fill="#9a32cd" stroke="#9a32cd" points="584.3941,-305.3188 587.894,-315.3188 591.3941,-305.3188 584.3941,-305.3188"/>
<text text-anchor="middle" x="626.786" y="-288" font-family="Helvetica,sans-Serif" font-size="10.00" fill="#000000"> lfsToolKitGlobals</text>
</g>
</g>
</svg>
        <g id="navigator" transform="translate(0 0)" fill="#404254">
                <rect fill="#f2f5e9" fill-opacity="0.5" stroke="#606060" stroke-width=".5" x="0" y="0" width="60" height="60"/>
                <use id="zoomplus" xlink:href="#zoomPlus" x="17" y="9" onmousedown="handleZoom(evt,'in')"/>
                <use id="zoomminus" xlink:href="#zoomMin" x="42" y="9" onmousedown="handleZoom(evt,'out')"/>
                <use id="reset" xlink:href="#resetDef" x="30" y="36" onmousedown="handleReset()"/>
                <g id="arrowUp" xlink:href="#dirArrow" transform="translate(30 24)" onmousedown="handlePan(0,-1)">
                  <use xlink:href="#rim" fill="#404040">
                        <set attributeName="fill" to="#808080" begin="arrowUp.mouseover" end="arrowUp.mouseout"/>
                  </use>
                  <path fill="none" stroke="white" stroke-width="1.5" d="M0,-3.0v7 M-2.5,-0.5L0,-3.0L2.5,-0.5"/>
                </g>
                <g id="arrowRight" xlink:href="#dirArrow" transform="rotate(90) translate(36 -43)" onmousedown="handlePan(1,0)">
                  <use xlink:href="#rim" fill="#404040">
                        <set attributeName="fill" to="#808080" begin="arrowRight.mouseover" end="arrowRight.mouseout"/>
                  </use>
                  <path fill="none" stroke="white" stroke-width="1.5" d="M0,-3.0v7 M-2.5,-0.5L0,-3.0L2.5,-0.5"/>
                </g>
                <g id="arrowDown" xlink:href="#dirArrow" transform="rotate(180) translate(-30 -48)" onmousedown="handlePan(0,1)">
                  <use xlink:href="#rim" fill="#404040">
                        <set attributeName="fill" to="#808080" begin="arrowDown.mouseover" end="arrowDown.mouseout"/>
                  </use>
                  <path fill="none" stroke="white" stroke-width="1.5" d="M0,-3.0v7 M-2.5,-0.5L0,-3.0L2.5,-0.5"/>
                </g>
                <g id="arrowLeft" xlink:href="#dirArrow" transform="rotate(270) translate(-36 17)" onmousedown="handlePan(-1,0)">
                  <use xlink:href="#rim" fill="#404040">
                        <set attributeName="fill" to="#808080" begin="arrowLeft.mouseover" end="arrowLeft.mouseout"/>
                  </use>
                  <path fill="none" stroke="white" stroke-width="1.5" d="M0,-3.0v7 M-2.5,-0.5L0,-3.0L2.5,-0.5"/>
                </g>
        </g>
        <svg viewBox="0 0 15 15" width="100%" height="30px" preserveAspectRatio="xMaxYMin meet">
         <g id="arrow_out" transform="scale(0.3 0.3)">
          <a xlink:href="class_l_f_s_t_k__window_class__coll__graph_org.svg" target="_base">
           <rect id="button" ry="5" rx="5" y="6" x="6" height="38" width="38"
                fill="#f2f5e9" fill-opacity="0.5" stroke="#606060" stroke-width="1.0"/>
           <path id="arrow"
             d="M 11.500037,31.436501 C 11.940474,20.09759 22.043105,11.32322 32.158766,21.979434 L 37.068811,17.246167 C 37.068811,17.246167 37.088388,32 37.088388,32 L 22.160133,31.978069 C 22.160133,31.978069 26.997745,27.140456 26.997745,27.140456 C 18.528582,18.264221 13.291696,25.230495 11.500037,31.436501 z"
             style="fill:#404040;"/>
          </a>
         </g>
        </svg>
</svg>
