<?xml version="1.0" encoding="UTF-8" standalone="no"?>
<!DOCTYPE svg PUBLIC "-//W3C//DTD SVG 1.1//EN"
 "http://www.w3.org/Graphics/SVG/1.1/DTD/svg11.dtd">
<!-- Generated by graphviz version 2.40.1 (20161225.0304)
 -->
<!-- Title: LFSTK_gadgetClass::LFSTK_getTextWidth Pages: 1 -->
<svg width="1305pt" height="926pt"
 viewBox="0.00 0.00 1305.34 926.00" xmlns="http://www.w3.org/2000/svg" xmlns:xlink="http://www.w3.org/1999/xlink">
<g id="graph0" class="graph" transform="scale(1 1) rotate(0) translate(4 922)">
<title>LFSTK_gadgetClass::LFSTK_getTextWidth</title>
<!-- Node1 -->
<g id="node1" class="node">
<title>Node1</title>
<g id="a_node1"><a xlink:title=" ">
<polygon fill="#bfbfbf" stroke="#000000" points="1183.541,-220.5 1183.541,-252.5 1297.344,-252.5 1297.344,-220.5 1183.541,-220.5"/>
<text text-anchor="start" x="1191.541" y="-239.5" font-family="Helvetica,sans-Serif" font-size="10.00" fill="#000000">LFSTK_gadgetClass::</text>
<text text-anchor="middle" x="1240.4425" y="-227.5" font-family="Helvetica,sans-Serif" font-size="10.00" fill="#000000">LFSTK_getTextWidth</text>
</a>
</g>
</g>
<!-- Node2 -->
<g id="node2" class="node">
<title>Node2</title>
<g id="a_node2"><a xlink:href="class_l_f_s_t_k__line_edit_class_a24da1f04ceb3b05ed9b25988e2cb5130.xhtml#a24da1f04ceb3b05ed9b25988e2cb5130" target="_top" xlink:title=" ">
<polygon fill="none" stroke="#000000" points="1016.526,-498.5 1016.526,-530.5 1126.979,-530.5 1126.979,-498.5 1016.526,-498.5"/>
<text text-anchor="start" x="1024.526" y="-517.5" font-family="Helvetica,sans-Serif" font-size="10.00" fill="#000000">LFSTK_lineEditClass</text>
<text text-anchor="middle" x="1071.7525" y="-505.5" font-family="Helvetica,sans-Serif" font-size="10.00" fill="#000000">::drawLabel</text>
</a>
</g>
</g>
<!-- Node1&#45;&gt;Node2 -->
<g id="edge1" class="edge">
<title>Node1&#45;&gt;Node2</title>
<path fill="none" stroke="#191970" d="M1225.4475,-261.2117C1191.5659,-317.0483 1109.8547,-451.7079 1081.5782,-498.3074"/>
<polygon fill="#191970" stroke="#191970" points="1228.4484,-263.013 1230.6439,-252.6481 1222.464,-259.3816 1228.4484,-263.013"/>
</g>
<!-- Node27 -->
<g id="node27" class="node">
<title>Node27</title>
<g id="a_node27"><a xlink:href="class_l_f_s_t_k__gadget_class_a5cef46cb93c76a87220f82242fc1ffc3.xhtml#a5cef46cb93c76a87220f82242fc1ffc3" target="_top" xlink:title=" ">
<polygon fill="none" stroke="#000000" points="1002.908,-198.5 1002.908,-230.5 1140.597,-230.5 1140.597,-198.5 1002.908,-198.5"/>
<text text-anchor="start" x="1010.908" y="-217.5" font-family="Helvetica,sans-Serif" font-size="10.00" fill="#000000">LFSTK_gadgetClass::</text>
<text text-anchor="middle" x="1071.7525" y="-205.5" font-family="Helvetica,sans-Serif" font-size="10.00" fill="#000000">LFSTK_setImageFromPath</text>
</a>
</g>
</g>
<!-- Node1&#45;&gt;Node27 -->
<g id="edge32" class="edge">
<title>Node1&#45;&gt;Node27</title>
<path fill="none" stroke="#191970" d="M1173.2364,-227.7352C1162.56,-226.3428 1151.501,-224.9005 1140.7834,-223.5028"/>
<polygon fill="#191970" stroke="#191970" points="1172.9631,-231.2291 1183.3318,-229.0518 1173.8684,-224.2879 1172.9631,-231.2291"/>
</g>
<!-- Node37 -->
<g id="node37" class="node">
<title>Node37</title>
<g id="a_node37"><a xlink:href="class_l_f_s_t_k__gadget_class_adfe8ab99af9a2a92df3620bf0f7f55cd.xhtml#adfe8ab99af9a2a92df3620bf0f7f55cd" target="_top" xlink:title=" ">
<polygon fill="none" stroke="#000000" points="995.964,-125.5 995.964,-157.5 1147.541,-157.5 1147.541,-125.5 995.964,-125.5"/>
<text text-anchor="start" x="1003.964" y="-144.5" font-family="Helvetica,sans-Serif" font-size="10.00" fill="#000000">LFSTK_gadgetClass::</text>
<text text-anchor="middle" x="1071.7525" y="-132.5" font-family="Helvetica,sans-Serif" font-size="10.00" fill="#000000">LFSTK_setImageFromSurface</text>
</a>
</g>
</g>
<!-- Node1&#45;&gt;Node37 -->
<g id="edge46" class="edge">
<title>Node1&#45;&gt;Node37</title>
<path fill="none" stroke="#191970" d="M1203.0235,-215.427C1171.9793,-197.9441 1128.4947,-173.4551 1100.2268,-157.5357"/>
<polygon fill="#191970" stroke="#191970" points="1201.3958,-218.5271 1211.8265,-220.3845 1204.8307,-212.4278 1201.3958,-218.5271"/>
</g>
<!-- Node38 -->
<g id="node38" class="node">
<title>Node38</title>
<g id="a_node38"><a xlink:href="class_l_f_s_t_k__line_edit_class_aeae7e32d645d01ae18149c3f472d6f3e.xhtml#aeae7e32d645d01ae18149c3f472d6f3e" target="_top" xlink:title=" ">
<polygon fill="none" stroke="#000000" points="833.953,-365.5 833.953,-397.5 944.406,-397.5 944.406,-365.5 833.953,-365.5"/>
<text text-anchor="start" x="841.953" y="-384.5" font-family="Helvetica,sans-Serif" font-size="10.00" fill="#000000">LFSTK_lineEditClass</text>
<text text-anchor="middle" x="889.1795" y="-372.5" font-family="Helvetica,sans-Serif" font-size="10.00" fill="#000000">::setOffsetcurs</text>
</a>
</g>
</g>
<!-- Node1&#45;&gt;Node38 -->
<g id="edge50" class="edge">
<title>Node1&#45;&gt;Node38</title>
<path fill="none" stroke="#191970" d="M1191.9824,-256.5042C1121.614,-285.5519 992.5289,-338.8378 928.0192,-365.4671"/>
<polygon fill="#191970" stroke="#191970" points="1193.6012,-259.6225 1201.5091,-252.5716 1190.9302,-253.1521 1193.6012,-259.6225"/>
</g>
<!-- Node3 -->
<g id="node3" class="node">
<title>Node3</title>
<g id="a_node3"><a xlink:href="class_l_f_s_t_k__line_edit_class_adbcfa08279eec28c5f4e2c33a056d396.xhtml#adbcfa08279eec28c5f4e2c33a056d396" target="_top" xlink:title=" ">
<polygon fill="none" stroke="#000000" points="831.4535,-639.5 831.4535,-671.5 946.9055,-671.5 946.9055,-639.5 831.4535,-639.5"/>
<text text-anchor="start" x="839.4535" y="-658.5" font-family="Helvetica,sans-Serif" font-size="10.00" fill="#000000">LFSTK_lineEditClass</text>
<text text-anchor="middle" x="889.1795" y="-646.5" font-family="Helvetica,sans-Serif" font-size="10.00" fill="#000000">::LFSTK_clearWindow</text>
</a>
</g>
</g>
<!-- Node2&#45;&gt;Node3 -->
<g id="edge2" class="edge">
<title>Node2&#45;&gt;Node3</title>
<path fill="none" stroke="#191970" d="M1042.4347,-537.1419C1005.4324,-565.7186 942.6987,-614.1675 910.1591,-639.2976"/>
<polygon fill="#191970" stroke="#191970" points="1045.0339,-539.5569 1050.8091,-530.6745 1040.7552,-534.0168 1045.0339,-539.5569"/>
</g>
<!-- Node4 -->
<g id="node4" class="node">
<title>Node4</title>
<g id="a_node4"><a xlink:href="class_l_f_s_t_k__font_dialog_class_ac2b51914d426e9ff7ba57211d5639514.xhtml#ac2b51914d426e9ff7ba57211d5639514" target="_top" xlink:title=" ">
<polygon fill="none" stroke="#000000" points="654.155,-882.5 654.155,-914.5 776.836,-914.5 776.836,-882.5 654.155,-882.5"/>
<text text-anchor="start" x="662.155" y="-901.5" font-family="Helvetica,sans-Serif" font-size="10.00" fill="#000000">LFSTK_fontDialogClass</text>
<text text-anchor="middle" x="715.4955" y="-889.5" font-family="Helvetica,sans-Serif" font-size="10.00" fill="#000000">::buildFontString</text>
</a>
</g>
</g>
<!-- Node3&#45;&gt;Node4 -->
<g id="edge3" class="edge">
<title>Node3&#45;&gt;Node4</title>
<path fill="none" stroke="#191970" d="M882.2682,-681.3447C869.4051,-724.9807 837.9299,-813.7508 782.395,-867.5 776.3242,-873.3756 768.937,-878.2821 761.3157,-882.3287"/>
<polygon fill="#191970" stroke="#191970" points="885.6943,-682.0931 885.0735,-671.5165 878.9632,-680.1718 885.6943,-682.0931"/>
</g>
<!-- Node11 -->
<g id="node11" class="node">
<title>Node11</title>
<g id="a_node11"><a xlink:href="class_l_f_s_t_k__line_edit_class_a99cb0a4e5b4a6701e1f5399ae6b1f78d.xhtml#a99cb0a4e5b4a6701e1f5399ae6b1f78d" target="_top" xlink:title=" ">
<polygon fill="none" stroke="#000000" points="494.365,-550.5 494.365,-582.5 604.818,-582.5 604.818,-550.5 494.365,-550.5"/>
<text text-anchor="start" x="502.365" y="-569.5" font-family="Helvetica,sans-Serif" font-size="10.00" fill="#000000">LFSTK_lineEditClass</text>
<text text-anchor="middle" x="549.5915" y="-557.5" font-family="Helvetica,sans-Serif" font-size="10.00" fill="#000000">::getClip</text>
</a>
</g>
</g>
<!-- Node3&#45;&gt;Node11 -->
<g id="edge10" class="edge">
<title>Node3&#45;&gt;Node11</title>
<path fill="none" stroke="#191970" d="M865.726,-632.3819C845.5068,-614.0913 814.5644,-589.8114 782.395,-578.5 724.3621,-558.0945 653.171,-557.6901 604.9058,-560.7292"/>
<polygon fill="#191970" stroke="#191970" points="863.4772,-635.0699 873.1889,-639.3048 868.2379,-629.938 863.4772,-635.0699"/>
</g>
<!-- Node12 -->
<g id="node12" class="node">
<title>Node12</title>
<g id="a_node12"><a xlink:href="class_l_f_s_t_k__line_edit_class_a499c645100977efb8a63ec1695b41e2b.xhtml#a499c645100977efb8a63ec1695b41e2b" target="_top" xlink:title=" ">
<polygon fill="none" stroke="#000000" points="332.356,-486.5 332.356,-518.5 442.809,-518.5 442.809,-486.5 332.356,-486.5"/>
<text text-anchor="start" x="340.356" y="-505.5" font-family="Helvetica,sans-Serif" font-size="10.00" fill="#000000">LFSTK_lineEditClass</text>
<text text-anchor="middle" x="387.5825" y="-493.5" font-family="Helvetica,sans-Serif" font-size="10.00" fill="#000000">::keyRelease</text>
</a>
</g>
</g>
<!-- Node3&#45;&gt;Node12 -->
<g id="edge13" class="edge">
<title>Node3&#45;&gt;Node12</title>
<path fill="none" stroke="#191970" d="M870.9939,-631.3467C851.771,-607.7635 819.1817,-572.9544 782.395,-555.5 670.552,-502.433 522.0879,-497.6648 442.8958,-499.5974"/>
<polygon fill="#191970" stroke="#191970" points="868.492,-633.8239 877.4543,-639.4744 873.9718,-629.4682 868.492,-633.8239"/>
</g>
<!-- Node13 -->
<g id="node13" class="node">
<title>Node13</title>
<g id="a_node13"><a xlink:href="class_l_f_s_t_k__line_edit_class_a9e8f25104e1ac24b9cbb57b363a247d9.xhtml#a9e8f25104e1ac24b9cbb57b363a247d9" target="_top" xlink:title=" ">
<polygon fill="none" stroke="#000000" points="660.269,-639.5 660.269,-671.5 770.722,-671.5 770.722,-639.5 660.269,-639.5"/>
<text text-anchor="start" x="668.269" y="-658.5" font-family="Helvetica,sans-Serif" font-size="10.00" fill="#000000">LFSTK_lineEditClass</text>
<text text-anchor="middle" x="715.4955" y="-646.5" font-family="Helvetica,sans-Serif" font-size="10.00" fill="#000000">::gotFocus</text>
</a>
</g>
</g>
<!-- Node3&#45;&gt;Node13 -->
<g id="edge12" class="edge">
<title>Node3&#45;&gt;Node13</title>
<path fill="none" stroke="#191970" d="M821.0979,-655.5C804.4005,-655.5 786.7315,-655.5 770.7224,-655.5"/>
<polygon fill="#191970" stroke="#191970" points="821.3453,-659.0001 831.3452,-655.5 821.3452,-652.0001 821.3453,-659.0001"/>
</g>
<!-- Node14 -->
<g id="node14" class="node">
<title>Node14</title>
<g id="a_node14"><a xlink:href="class_l_f_s_t_k__line_edit_class_a8755e35dd1aabd5696d4a94b85c64026.xhtml#a8755e35dd1aabd5696d4a94b85c64026" target="_top" xlink:title=" ">
<polygon fill="none" stroke="#000000" points="655.2695,-588.5 655.2695,-620.5 775.7215,-620.5 775.7215,-588.5 655.2695,-588.5"/>
<text text-anchor="start" x="663.2695" y="-607.5" font-family="Helvetica,sans-Serif" font-size="10.00" fill="#000000">LFSTK_lineEditClass</text>
<text text-anchor="middle" x="715.4955" y="-595.5" font-family="Helvetica,sans-Serif" font-size="10.00" fill="#000000">::LFSTK_resizeWindow</text>
</a>
</g>
</g>
<!-- Node3&#45;&gt;Node14 -->
<g id="edge14" class="edge">
<title>Node3&#45;&gt;Node14</title>
<path fill="none" stroke="#191970" d="M824.4481,-636.4925C806.564,-631.241 787.3395,-625.596 770.0927,-620.5317"/>
<polygon fill="#191970" stroke="#191970" points="823.6438,-639.904 834.2248,-639.3633 825.616,-633.1876 823.6438,-639.904"/>
</g>
<!-- Node15 -->
<g id="node15" class="node">
<title>Node15</title>
<g id="a_node15"><a xlink:href="class_l_f_s_t_k__line_edit_class_acc05157418af7626402b30b0129e8899.xhtml#acc05157418af7626402b30b0129e8899" target="_top" xlink:title=" ">
<polygon fill="none" stroke="#000000" points="660.269,-365.5 660.269,-397.5 770.722,-397.5 770.722,-365.5 660.269,-365.5"/>
<text text-anchor="start" x="668.269" y="-384.5" font-family="Helvetica,sans-Serif" font-size="10.00" fill="#000000">LFSTK_lineEditClass</text>
<text text-anchor="middle" x="715.4955" y="-372.5" font-family="Helvetica,sans-Serif" font-size="10.00" fill="#000000">::LFSTK_setBuffer</text>
</a>
</g>
</g>
<!-- Node3&#45;&gt;Node15 -->
<g id="edge15" class="edge">
<title>Node3&#45;&gt;Node15</title>
<path fill="none" stroke="#191970" d="M873.4613,-630.7033C838.4786,-575.5154 754.9811,-443.7916 725.7859,-397.7339"/>
<polygon fill="#191970" stroke="#191970" points="870.5249,-632.6084 878.8349,-639.1806 876.4372,-628.8606 870.5249,-632.6084"/>
</g>
<!-- Node22 -->
<g id="node22" class="node">
<title>Node22</title>
<g id="a_node22"><a xlink:href="class_l_f_s_t_k__line_edit_class_a0ebe556ea8567d5ef0999017b77f57fd.xhtml#a0ebe556ea8567d5ef0999017b77f57fd" target="_top" xlink:title=" ">
<polygon fill="none" stroke="#000000" points="660.269,-792.5 660.269,-824.5 770.722,-824.5 770.722,-792.5 660.269,-792.5"/>
<text text-anchor="start" x="668.269" y="-811.5" font-family="Helvetica,sans-Serif" font-size="10.00" fill="#000000">LFSTK_lineEditClass</text>
<text text-anchor="middle" x="715.4955" y="-799.5" font-family="Helvetica,sans-Serif" font-size="10.00" fill="#000000">::LFSTK_setFocus</text>
</a>
</g>
</g>
<!-- Node3&#45;&gt;Node22 -->
<g id="edge25" class="edge">
<title>Node3&#45;&gt;Node22</title>
<path fill="none" stroke="#191970" d="M873.897,-680.3016C855.3742,-708.5316 821.7118,-754.3621 782.395,-782.5 777.1258,-786.271 771.2369,-789.5828 765.1975,-792.4664"/>
<polygon fill="#191970" stroke="#191970" points="876.8999,-682.1029 879.3669,-671.7993 871.013,-678.3155 876.8999,-682.1029"/>
</g>
<!-- Node23 -->
<g id="node23" class="node">
<title>Node23</title>
<g id="a_node23"><a xlink:href="class_l_f_s_t_k__line_edit_class_a3577cc5df4ad211347e890e2124a7484.xhtml#a3577cc5df4ad211347e890e2124a7484" target="_top" xlink:title=" ">
<polygon fill="none" stroke="#000000" points="494.365,-802.5 494.365,-834.5 604.818,-834.5 604.818,-802.5 494.365,-802.5"/>
<text text-anchor="start" x="502.365" y="-821.5" font-family="Helvetica,sans-Serif" font-size="10.00" fill="#000000">LFSTK_lineEditClass</text>
<text text-anchor="middle" x="549.5915" y="-809.5" font-family="Helvetica,sans-Serif" font-size="10.00" fill="#000000">::mouseDown</text>
</a>
</g>
</g>
<!-- Node3&#45;&gt;Node23 -->
<g id="edge31" class="edge">
<title>Node3&#45;&gt;Node23</title>
<path fill="none" stroke="#191970" d="M882.5086,-681.6042C870.4205,-722.7656 840.578,-801.46 782.395,-834.5 722.8584,-868.3087 640.4715,-850.5064 591.3502,-834.5018"/>
<polygon fill="#191970" stroke="#191970" points="885.9381,-682.3368 885.2687,-671.7631 879.1982,-680.4464 885.9381,-682.3368"/>
</g>
<!-- Node24 -->
<g id="node24" class="node">
<title>Node24</title>
<g id="a_node24"><a xlink:href="class_l_f_s_t_k__line_edit_class_af08b0261f456ab5926d5837f752c2005.xhtml#af08b0261f456ab5926d5837f752c2005" target="_top" xlink:title=" ">
<polygon fill="none" stroke="#000000" points="648.596,-741.5 648.596,-773.5 782.395,-773.5 782.395,-741.5 648.596,-741.5"/>
<text text-anchor="start" x="656.596" y="-760.5" font-family="Helvetica,sans-Serif" font-size="10.00" fill="#000000">LFSTK_lineEditClass</text>
<text text-anchor="middle" x="715.4955" y="-748.5" font-family="Helvetica,sans-Serif" font-size="10.00" fill="#000000">::LFSTK_setFormatedText</text>
</a>
</g>
</g>
<!-- Node3&#45;&gt;Node24 -->
<g id="edge27" class="edge">
<title>Node3&#45;&gt;Node24</title>
<path fill="none" stroke="#191970" d="M861.5994,-678.034C840.7396,-694.3388 810.9112,-716.1205 782.395,-731.5 775.8145,-735.049 768.6438,-738.3626 761.5209,-741.3563"/>
<polygon fill="#191970" stroke="#191970" points="864.0132,-680.5873 869.6838,-671.6377 859.6698,-675.0977 864.0132,-680.5873"/>
</g>
<!-- Node26 -->
<g id="node26" class="node">
<title>Node26</title>
<g id="a_node26"><a xlink:href="class_l_f_s_t_k__line_edit_class_a64bf9278baec262c97147ba099e4aa6c.xhtml#a64bf9278baec262c97147ba099e4aa6c" target="_top" xlink:title=" ">
<polygon fill="none" stroke="#000000" points="660.269,-690.5 660.269,-722.5 770.722,-722.5 770.722,-690.5 660.269,-690.5"/>
<text text-anchor="start" x="668.269" y="-709.5" font-family="Helvetica,sans-Serif" font-size="10.00" fill="#000000">LFSTK_lineEditClass</text>
<text text-anchor="middle" x="715.4955" y="-697.5" font-family="Helvetica,sans-Serif" font-size="10.00" fill="#000000">::lostFocus</text>
</a>
</g>
</g>
<!-- Node3&#45;&gt;Node26 -->
<g id="edge30" class="edge">
<title>Node3&#45;&gt;Node26</title>
<path fill="none" stroke="#191970" d="M824.4481,-674.5075C806.564,-679.759 787.3395,-685.404 770.0927,-690.4683"/>
<polygon fill="#191970" stroke="#191970" points="825.616,-677.8124 834.2248,-671.6367 823.6438,-671.096 825.616,-677.8124"/>
</g>
<!-- Node5 -->
<g id="node5" class="node">
<title>Node5</title>
<g id="a_node5"><a xlink:href="class_l_f_s_t_k__font_dialog_class_a552f817a8f926c4cb1e423ce244c0a76.xhtml#a552f817a8f926c4cb1e423ce244c0a76" target="_top" xlink:title=" ">
<polygon fill="none" stroke="#000000" points="488.251,-872.5 488.251,-904.5 610.932,-904.5 610.932,-872.5 488.251,-872.5"/>
<text text-anchor="start" x="496.251" y="-891.5" font-family="Helvetica,sans-Serif" font-size="10.00" fill="#000000">LFSTK_fontDialogClass</text>
<text text-anchor="middle" x="549.5915" y="-879.5" font-family="Helvetica,sans-Serif" font-size="10.00" fill="#000000">::LFSTK_getFontData</text>
</a>
</g>
</g>
<!-- Node4&#45;&gt;Node5 -->
<g id="edge4" class="edge">
<title>Node4&#45;&gt;Node5</title>
<path fill="none" stroke="#191970" d="M643.4862,-894.1596C632.7077,-893.5099 621.6783,-892.8451 611.1433,-892.2101"/>
<polygon fill="#191970" stroke="#191970" points="643.5265,-897.6683 653.719,-894.7764 643.9477,-890.681 643.5265,-897.6683"/>
</g>
<!-- Node6 -->
<g id="node6" class="node">
<title>Node6</title>
<g id="a_node6"><a xlink:href="_l_f_s_t_k_font_dialog_8cpp_aafd549c8125eb6d28fe5be736bce5806.xhtml#aafd549c8125eb6d28fe5be736bce5806" target="_top" xlink:title=" ">
<polygon fill="none" stroke="#000000" points="359.5795,-858.5 359.5795,-878.5 415.5855,-878.5 415.5855,-858.5 359.5795,-858.5"/>
<text text-anchor="middle" x="387.5825" y="-865.5" font-family="Helvetica,sans-Serif" font-size="10.00" fill="#000000">checkCB</text>
</a>
</g>
</g>
<!-- Node5&#45;&gt;Node6 -->
<g id="edge5" class="edge">
<title>Node5&#45;&gt;Node6</title>
<path fill="none" stroke="#191970" d="M477.8634,-879.6452C455.8678,-876.9298 432.9478,-874.1003 415.7054,-871.9718"/>
<polygon fill="#191970" stroke="#191970" points="477.5272,-883.1301 487.8807,-880.8818 478.3849,-876.1829 477.5272,-883.1301"/>
</g>
<!-- Node7 -->
<g id="node7" class="node">
<title>Node7</title>
<g id="a_node7"><a xlink:href="class_l_f_s_t_k__font_dialog_class_a14c5f93b43c729a1bcb8bebe141415f2.xhtml#a14c5f93b43c729a1bcb8bebe141415f2" target="_top" xlink:title=" ">
<polygon fill="none" stroke="#000000" points="326.242,-807.5 326.242,-839.5 448.923,-839.5 448.923,-807.5 326.242,-807.5"/>
<text text-anchor="start" x="334.242" y="-826.5" font-family="Helvetica,sans-Serif" font-size="10.00" fill="#000000">LFSTK_fontDialogClass</text>
<text text-anchor="middle" x="387.5825" y="-814.5" font-family="Helvetica,sans-Serif" font-size="10.00" fill="#000000">::LFSTK_showDialog</text>
</a>
</g>
</g>
<!-- Node5&#45;&gt;Node7 -->
<g id="edge6" class="edge">
<title>Node5&#45;&gt;Node7</title>
<path fill="none" stroke="#191970" d="M500.2057,-868.6858C476.9854,-859.3696 449.6536,-848.4037 427.7305,-839.6079"/>
<polygon fill="#191970" stroke="#191970" points="498.9601,-871.9572 509.5443,-872.4326 501.5667,-865.4606 498.9601,-871.9572"/>
</g>
<!-- Node8 -->
<g id="node8" class="node">
<title>Node8</title>
<g id="a_node8"><a xlink:href="_l_f_s_t_k_font_dialog_8cpp_a5c76f9930f86875dfa22fb71e9b6adcb.xhtml#a5c76f9930f86875dfa22fb71e9b6adcb" target="_top" xlink:title=" ">
<polygon fill="none" stroke="#000000" points="366.5245,-897.5 366.5245,-917.5 408.6405,-917.5 408.6405,-897.5 366.5245,-897.5"/>
<text text-anchor="middle" x="387.5825" y="-904.5" font-family="Helvetica,sans-Serif" font-size="10.00" fill="#000000">select</text>
</a>
</g>
</g>
<!-- Node5&#45;&gt;Node8 -->
<g id="edge7" class="edge">
<title>Node5&#45;&gt;Node8</title>
<path fill="none" stroke="#191970" d="M477.6281,-896.9397C452.6015,-899.8747 426.4091,-902.9465 408.7675,-905.0155"/>
<polygon fill="#191970" stroke="#191970" points="478.3565,-900.3783 487.8807,-895.7373 477.541,-893.426 478.3565,-900.3783"/>
</g>
<!-- Node9 -->
<g id="node9" class="node">
<title>Node9</title>
<g id="a_node9"><a xlink:href="class_l_f_s_t_k__font_dialog_class_af866eb2b1ba8178c9cf3e751716fcc8e.xhtml#af866eb2b1ba8178c9cf3e751716fcc8e" target="_top" xlink:title=" ">
<polygon fill="none" stroke="#000000" points="165.068,-541.5 165.068,-573.5 287.749,-573.5 287.749,-541.5 165.068,-541.5"/>
<text text-anchor="start" x="173.068" y="-560.5" font-family="Helvetica,sans-Serif" font-size="10.00" fill="#000000">LFSTK_fontDialogClass</text>
<text text-anchor="middle" x="226.4085" y="-548.5" font-family="Helvetica,sans-Serif" font-size="10.00" fill="#000000">::buildDialog</text>
</a>
</g>
</g>
<!-- Node8&#45;&gt;Node9 -->
<g id="edge8" class="edge">
<title>Node8&#45;&gt;Node9</title>
<path fill="none" stroke="#191970" d="M356.2301,-904.275C344.9592,-901.6469 332.9706,-896.931 324.578,-888.5 278.3799,-842.0902 239.528,-633.7736 229.1369,-573.7391"/>
<polygon fill="#191970" stroke="#191970" points="355.7827,-907.7519 366.2555,-906.1483 357.0685,-900.871 355.7827,-907.7519"/>
</g>
<!-- Node10 -->
<g id="node10" class="node">
<title>Node10</title>
<g id="a_node10"><a xlink:href="class_l_f_s_t_k__font_dialog_class_ab7b6a4bca99713646ab6ac77dc34827c.xhtml#ab7b6a4bca99713646ab6ac77dc34827c" target="_top" xlink:title=" ">
<polygon fill="none" stroke="#000000" points="0,-541.5 0,-573.5 128.239,-573.5 128.239,-541.5 0,-541.5"/>
<text text-anchor="start" x="8" y="-560.5" font-family="Helvetica,sans-Serif" font-size="10.00" fill="#000000">LFSTK_fontDialogClass</text>
<text text-anchor="middle" x="64.1195" y="-548.5" font-family="Helvetica,sans-Serif" font-size="10.00" fill="#000000">::LFSTK_fontDialogClass</text>
</a>
</g>
</g>
<!-- Node9&#45;&gt;Node10 -->
<g id="edge9" class="edge">
<title>Node9&#45;&gt;Node10</title>
<path fill="none" stroke="#191970" d="M154.7843,-557.5C145.9547,-557.5 136.9726,-557.5 128.2641,-557.5"/>
<polygon fill="#191970" stroke="#191970" points="155.054,-561.0001 165.054,-557.5 155.054,-554.0001 155.054,-561.0001"/>
</g>
<!-- Node11&#45;&gt;Node12 -->
<g id="edge11" class="edge">
<title>Node11&#45;&gt;Node12</title>
<path fill="none" stroke="#191970" d="M499.18,-546.5854C476.3396,-537.5626 449.6953,-527.037 428.1702,-518.5338"/>
<polygon fill="#191970" stroke="#191970" points="498.1232,-549.9311 508.7098,-550.3501 500.6951,-543.4207 498.1232,-549.9311"/>
</g>
<!-- Node15&#45;&gt;Node12 -->
<g id="edge16" class="edge">
<title>Node15&#45;&gt;Node12</title>
<path fill="none" stroke="#191970" d="M670.0125,-401.8106C652.2232,-409.5272 631.5709,-418.2081 612.596,-425.5 579.9326,-438.0523 491.8793,-467.7385 436.1037,-486.3669"/>
<polygon fill="#191970" stroke="#191970" points="671.8073,-404.8461 679.572,-397.6378 669.0069,-398.4307 671.8073,-404.8461"/>
</g>
<!-- Node16 -->
<g id="node16" class="node">
<title>Node16</title>
<g id="a_node16"><a xlink:href="class_l_f_s_t_k__line_edit_class_af610951625203a6d75bce118b2b94386.xhtml#af610951625203a6d75bce118b2b94386" target="_top" xlink:title=" ">
<polygon fill="none" stroke="#000000" points="491.586,-384.5 491.586,-416.5 607.597,-416.5 607.597,-384.5 491.586,-384.5"/>
<text text-anchor="start" x="499.586" y="-403.5" font-family="Helvetica,sans-Serif" font-size="10.00" fill="#000000">LFSTK_lineEditClass</text>
<text text-anchor="middle" x="549.5915" y="-391.5" font-family="Helvetica,sans-Serif" font-size="10.00" fill="#000000">::LFSTK_lineEditClass</text>
</a>
</g>
</g>
<!-- Node15&#45;&gt;Node16 -->
<g id="edge17" class="edge">
<title>Node15&#45;&gt;Node16</title>
<path fill="none" stroke="#191970" d="M650.1921,-388.9788C636.1721,-390.5844 621.4469,-392.2708 607.7204,-393.8428"/>
<polygon fill="#191970" stroke="#191970" points="650.7151,-392.4419 660.2519,-387.8267 649.9185,-385.4873 650.7151,-392.4419"/>
</g>
<!-- Node17 -->
<g id="node17" class="node">
<title>Node17</title>
<g id="a_node17"><a xlink:href="class_l_f_s_t_k__file_dialog_class_aa8804989d381def9acb2c99d47d6dc3d.xhtml#aa8804989d381def9acb2c99d47d6dc3d" target="_top" xlink:title=" ">
<polygon fill="none" stroke="#000000" points="489.091,-243.5 489.091,-275.5 610.092,-275.5 610.092,-243.5 489.091,-243.5"/>
<text text-anchor="start" x="497.091" y="-262.5" font-family="Helvetica,sans-Serif" font-size="10.00" fill="#000000">LFSTK_fileDialogClass</text>
<text text-anchor="middle" x="549.5915" y="-250.5" font-family="Helvetica,sans-Serif" font-size="10.00" fill="#000000">::LFSTK_setWorkingDir</text>
</a>
</g>
</g>
<!-- Node15&#45;&gt;Node17 -->
<g id="edge18" class="edge">
<title>Node15&#45;&gt;Node17</title>
<path fill="none" stroke="#191970" d="M692.7564,-358.1526C672.8274,-338.5161 642.4542,-310.521 612.596,-290.5 604.4959,-285.0686 595.3056,-280.0045 586.4975,-275.6085"/>
<polygon fill="#191970" stroke="#191970" points="690.3073,-360.6532 699.8601,-365.2351 695.2497,-355.696 690.3073,-360.6532"/>
</g>
<!-- Node19 -->
<g id="node19" class="node">
<title>Node19</title>
<g id="a_node19"><a xlink:href="class_l_f_s_t_k__file_dialog_class_a789cade9437906181e31a243c85d52e5.xhtml#a789cade9437906181e31a243c85d52e5" target="_top" xlink:title=" ">
<polygon fill="none" stroke="#000000" points="328.192,-218.5 328.192,-250.5 446.973,-250.5 446.973,-218.5 328.192,-218.5"/>
<text text-anchor="start" x="336.192" y="-237.5" font-family="Helvetica,sans-Serif" font-size="10.00" fill="#000000">LFSTK_fileDialogClass</text>
<text text-anchor="middle" x="387.5825" y="-225.5" font-family="Helvetica,sans-Serif" font-size="10.00" fill="#000000">::select</text>
</a>
</g>
</g>
<!-- Node15&#45;&gt;Node19 -->
<g id="edge24" class="edge">
<title>Node15&#45;&gt;Node19</title>
<path fill="none" stroke="#191970" d="M681.8846,-360.1417C662.2182,-348.2652 636.6051,-333.8413 612.596,-323.5 558.7532,-300.3086 540.9446,-306.4577 486.587,-284.5 462.3053,-274.6914 435.8812,-261.1931 416.4439,-250.6937"/>
<polygon fill="#191970" stroke="#191970" points="680.1177,-363.1637 690.4749,-365.3953 683.7699,-357.192 680.1177,-363.1637"/>
</g>
<!-- Node21 -->
<g id="node21" class="node">
<title>Node21</title>
<g id="a_node21"><a xlink:href="class_l_f_s_t_k__file_dialog_class_af77972b8a46616ba4c7bec555b2b0a14.xhtml#af77972b8a46616ba4c7bec555b2b0a14" target="_top" xlink:title=" ">
<polygon fill="none" stroke="#000000" points="486.587,-333.5 486.587,-365.5 612.596,-365.5 612.596,-333.5 486.587,-333.5"/>
<text text-anchor="start" x="494.587" y="-352.5" font-family="Helvetica,sans-Serif" font-size="10.00" fill="#000000">LFSTK_fileDialogClass</text>
<text text-anchor="middle" x="549.5915" y="-340.5" font-family="Helvetica,sans-Serif" font-size="10.00" fill="#000000">::LFSTK_showFileDialog</text>
</a>
</g>
</g>
<!-- Node15&#45;&gt;Node21 -->
<g id="edge22" class="edge">
<title>Node15&#45;&gt;Node21</title>
<path fill="none" stroke="#191970" d="M650.4225,-368.9485C637.9873,-366.55 624.9893,-364.0429 612.6195,-361.657"/>
<polygon fill="#191970" stroke="#191970" points="649.77,-372.3871 660.2519,-370.8445 651.0958,-365.5138 649.77,-372.3871"/>
</g>
<!-- Node18 -->
<g id="node18" class="node">
<title>Node18</title>
<g id="a_node18"><a xlink:href="class_l_f_s_t_k__file_dialog_class_aacf1d4b61cbb5b40d06f591ea96f9ea7.xhtml#aacf1d4b61cbb5b40d06f591ea96f9ea7" target="_top" xlink:title=" ">
<polygon fill="none" stroke="#000000" points="324.578,-301.5 324.578,-333.5 450.587,-333.5 450.587,-301.5 324.578,-301.5"/>
<text text-anchor="start" x="332.578" y="-320.5" font-family="Helvetica,sans-Serif" font-size="10.00" fill="#000000">LFSTK_fileDialogClass</text>
<text text-anchor="middle" x="387.5825" y="-308.5" font-family="Helvetica,sans-Serif" font-size="10.00" fill="#000000">::LFSTK_showFileDialog</text>
</a>
</g>
</g>
<!-- Node17&#45;&gt;Node18 -->
<g id="edge19" class="edge">
<title>Node17&#45;&gt;Node18</title>
<path fill="none" stroke="#191970" d="M495.3932,-278.9032C474.9406,-286.2254 451.9184,-294.4674 432.4161,-301.4493"/>
<polygon fill="#191970" stroke="#191970" points="496.6578,-282.1681 504.893,-275.5023 494.2984,-275.5777 496.6578,-282.1681"/>
</g>
<!-- Node17&#45;&gt;Node19 -->
<g id="edge20" class="edge">
<title>Node17&#45;&gt;Node19</title>
<path fill="none" stroke="#191970" d="M478.7687,-248.5712C468.2012,-246.9405 457.3988,-245.2735 447.0964,-243.6837"/>
<polygon fill="#191970" stroke="#191970" points="478.3876,-252.0537 488.8044,-250.1198 479.4552,-245.1356 478.3876,-252.0537"/>
</g>
<!-- Node20 -->
<g id="node20" class="node">
<title>Node20</title>
<g id="a_node20"><a xlink:href="class_l_f_s_t_k__file_dialog_class_a553ce8e885b0d60cbf515b7b3d1e8b65.xhtml#a553ce8e885b0d60cbf515b7b3d1e8b65" target="_top" xlink:title=" ">
<polygon fill="none" stroke="#000000" points="164.239,-173.5 164.239,-205.5 288.578,-205.5 288.578,-173.5 164.239,-173.5"/>
<text text-anchor="start" x="172.239" y="-192.5" font-family="Helvetica,sans-Serif" font-size="10.00" fill="#000000">LFSTK_fileDialogClass</text>
<text text-anchor="middle" x="226.4085" y="-180.5" font-family="Helvetica,sans-Serif" font-size="10.00" fill="#000000">::LFSTK_fileDialogClass</text>
</a>
</g>
</g>
<!-- Node19&#45;&gt;Node20 -->
<g id="edge21" class="edge">
<title>Node19&#45;&gt;Node20</title>
<path fill="none" stroke="#191970" d="M319.8694,-215.5944C307.8487,-212.2382 295.4356,-208.7725 283.7377,-205.5064"/>
<polygon fill="#191970" stroke="#191970" points="319.2774,-219.0629 329.8502,-218.3811 321.1598,-212.3208 319.2774,-219.0629"/>
</g>
<!-- Node21&#45;&gt;Node18 -->
<g id="edge23" class="edge">
<title>Node21&#45;&gt;Node18</title>
<path fill="none" stroke="#191970" d="M476.4937,-335.0617C467.9111,-333.3665 459.2089,-331.6476 450.7776,-329.9823"/>
<polygon fill="#191970" stroke="#191970" points="476.002,-338.5322 486.4907,-337.0363 477.3585,-331.6648 476.002,-338.5322"/>
</g>
<!-- Node22&#45;&gt;Node23 -->
<g id="edge26" class="edge">
<title>Node22&#45;&gt;Node23</title>
<path fill="none" stroke="#191970" d="M650.053,-812.4446C635.101,-813.3458 619.3539,-814.295 604.8766,-815.1676"/>
<polygon fill="#191970" stroke="#191970" points="650.4806,-815.9253 660.2519,-811.8299 650.0594,-808.938 650.4806,-815.9253"/>
</g>
<!-- Node24&#45;&gt;Node11 -->
<g id="edge28" class="edge">
<title>Node24&#45;&gt;Node11</title>
<path fill="none" stroke="#191970" d="M654.792,-736.1672C652.6307,-734.7057 650.5549,-733.1517 648.596,-731.5 598.6655,-689.4 567.2572,-615.374 555.2004,-582.7365"/>
<polygon fill="#191970" stroke="#191970" points="653.1051,-739.2364 663.4857,-741.3561 656.6927,-733.2256 653.1051,-739.2364"/>
</g>
<!-- Node25 -->
<g id="node25" class="node">
<title>Node25</title>
<g id="a_node25"><a xlink:href="class_l_f_s_t_k__line_edit_class_aaa873ae80c4c84c1c48249e593b0c9fc.xhtml#aaa873ae80c4c84c1c48249e593b0c9fc" target="_top" xlink:title=" ">
<polygon fill="none" stroke="#000000" points="494.365,-741.5 494.365,-773.5 604.818,-773.5 604.818,-741.5 494.365,-741.5"/>
<text text-anchor="start" x="502.365" y="-760.5" font-family="Helvetica,sans-Serif" font-size="10.00" fill="#000000">LFSTK_lineEditClass</text>
<text text-anchor="middle" x="549.5915" y="-748.5" font-family="Helvetica,sans-Serif" font-size="10.00" fill="#000000">::LFSTK_dropData</text>
</a>
</g>
</g>
<!-- Node24&#45;&gt;Node25 -->
<g id="edge29" class="edge">
<title>Node24&#45;&gt;Node25</title>
<path fill="none" stroke="#191970" d="M638.2266,-757.5C626.9775,-757.5 615.5884,-757.5 604.8919,-757.5"/>
<polygon fill="#191970" stroke="#191970" points="638.4942,-761.0001 648.4942,-757.5 638.4942,-754.0001 638.4942,-761.0001"/>
</g>
<!-- Node28 -->
<g id="node28" class="node">
<title>Node28</title>
<g id="a_node28"><a xlink:href="class_l_f_s_t_k__menu_class_a063a1196c3267ebac0f6e2f118ad4647.xhtml#a063a1196c3267ebac0f6e2f118ad4647" target="_top" xlink:title=" ">
<polygon fill="none" stroke="#000000" points="819.5045,-153.5 819.5045,-185.5 958.8545,-185.5 958.8545,-153.5 819.5045,-153.5"/>
<text text-anchor="start" x="827.5045" y="-172.5" font-family="Helvetica,sans-Serif" font-size="10.00" fill="#000000">LFSTK_menuClass::LFSTK</text>
<text text-anchor="middle" x="889.1795" y="-160.5" font-family="Helvetica,sans-Serif" font-size="10.00" fill="#000000">_addMainMenus</text>
</a>
</g>
</g>
<!-- Node27&#45;&gt;Node28 -->
<g id="edge33" class="edge">
<title>Node27&#45;&gt;Node28</title>
<path fill="none" stroke="#191970" d="M996.5205,-195.9571C982.5071,-192.5031 967.9724,-188.9206 954.2942,-185.5493"/>
<polygon fill="#191970" stroke="#191970" points="996.0656,-199.4496 1006.6127,-198.4445 997.7409,-192.653 996.0656,-199.4496"/>
</g>
<!-- Node29 -->
<g id="node29" class="node">
<title>Node29</title>
<g id="a_node29"><a xlink:href="class_l_f_s_t_k__image_class_aff24b6452cb0a5d821b81770aa8f58d5.xhtml#aff24b6452cb0a5d821b81770aa8f58d5" target="_top" xlink:title=" ">
<polygon fill="none" stroke="#000000" points="818.395,-294.5 818.395,-326.5 959.964,-326.5 959.964,-294.5 818.395,-294.5"/>
<text text-anchor="start" x="826.395" y="-313.5" font-family="Helvetica,sans-Serif" font-size="10.00" fill="#000000">LFSTK_imageClass::LFSTK</text>
<text text-anchor="middle" x="889.1795" y="-301.5" font-family="Helvetica,sans-Serif" font-size="10.00" fill="#000000">_imageClass</text>
</a>
</g>
</g>
<!-- Node27&#45;&gt;Node29 -->
<g id="edge34" class="edge">
<title>Node27&#45;&gt;Node29</title>
<path fill="none" stroke="#191970" d="M1040.4754,-236.5458C1018.6015,-251.3408 988.3366,-270.5933 959.964,-284.5 952.6755,-288.0724 944.7656,-291.4394 936.9626,-294.4911"/>
<polygon fill="#191970" stroke="#191970" points="1042.7318,-239.243 1049.0119,-230.7101 1038.7813,-233.4643 1042.7318,-239.243"/>
</g>
<!-- Node30 -->
<g id="node30" class="node">
<title>Node30</title>
<g id="a_node30"><a xlink:href="class_l_f_s_t_k__scroll_bar_class_a3da4281c24ac345ba32a4636ce2af38b.xhtml#a3da4281c24ac345ba32a4636ce2af38b" target="_top" xlink:title=" ">
<polygon fill="none" stroke="#000000" points="828.1235,-243.5 828.1235,-275.5 950.2355,-275.5 950.2355,-243.5 828.1235,-243.5"/>
<text text-anchor="start" x="836.1235" y="-262.5" font-family="Helvetica,sans-Serif" font-size="10.00" fill="#000000">LFSTK_scrollBarClass</text>
<text text-anchor="middle" x="889.1795" y="-250.5" font-family="Helvetica,sans-Serif" font-size="10.00" fill="#000000">::LFSTK_scrollBarClass</text>
</a>
</g>
</g>
<!-- Node27&#45;&gt;Node30 -->
<g id="edge35" class="edge">
<title>Node27&#45;&gt;Node30</title>
<path fill="none" stroke="#191970" d="M996.6016,-233.0229C981.1996,-236.8192 965.1645,-240.7715 950.3262,-244.4288"/>
<polygon fill="#191970" stroke="#191970" points="997.7409,-236.347 1006.6127,-230.5555 996.0656,-229.5504 997.7409,-236.347"/>
</g>
<!-- Node31 -->
<g id="node31" class="node">
<title>Node31</title>
<g id="a_node31"><a xlink:href="class_l_f_s_t_k__list_gadget_class_abc8e7de85afdd0ddd7639668e579cd4e.xhtml#abc8e7de85afdd0ddd7639668e579cd4e" target="_top" xlink:title=" ">
<polygon fill="none" stroke="#000000" points="827.8385,-102.5 827.8385,-134.5 950.5205,-134.5 950.5205,-102.5 827.8385,-102.5"/>
<text text-anchor="start" x="835.8385" y="-121.5" font-family="Helvetica,sans-Serif" font-size="10.00" fill="#000000">LFSTK_listGadgetClass</text>
<text text-anchor="middle" x="889.1795" y="-109.5" font-family="Helvetica,sans-Serif" font-size="10.00" fill="#000000">::LFSTK_setList</text>
</a>
</g>
</g>
<!-- Node27&#45;&gt;Node31 -->
<g id="edge36" class="edge">
<title>Node27&#45;&gt;Node31</title>
<path fill="none" stroke="#191970" d="M1037.4728,-192.8294C1024.4661,-184.5964 1009.5241,-175.1258 995.964,-166.5 979.9438,-156.3094 977.0272,-151.8272 959.964,-143.5 953.405,-140.2991 946.3283,-137.3022 939.2745,-134.5734"/>
<polygon fill="#191970" stroke="#191970" points="1035.8057,-195.9163 1046.1276,-198.3059 1039.5487,-190.0011 1035.8057,-195.9163"/>
</g>
<!-- Node34 -->
<g id="node34" class="node">
<title>Node34</title>
<g id="a_node34"><a xlink:href="class_l_f_s_t_k__list_gadget_class_a14695831a2f9362b99cdda134f551d83.xhtml#a14695831a2f9362b99cdda134f551d83" target="_top" xlink:title=" ">
<polygon fill="none" stroke="#000000" points="827.8385,-51.5 827.8385,-83.5 950.5205,-83.5 950.5205,-51.5 827.8385,-51.5"/>
<text text-anchor="start" x="835.8385" y="-70.5" font-family="Helvetica,sans-Serif" font-size="10.00" fill="#000000">LFSTK_listGadgetClass</text>
<text text-anchor="middle" x="889.1795" y="-58.5" font-family="Helvetica,sans-Serif" font-size="10.00" fill="#000000">::scrollCB</text>
</a>
</g>
</g>
<!-- Node27&#45;&gt;Node34 -->
<g id="edge42" class="edge">
<title>Node27&#45;&gt;Node34</title>
<path fill="none" stroke="#191970" d="M1028.9684,-193.1247C1017.245,-185.8342 1005.2286,-176.8628 995.964,-166.5 971.5873,-139.2336 987.2484,-116.8566 959.964,-92.5 956.1722,-89.1151 951.8929,-86.1813 947.3627,-83.6398"/>
<polygon fill="#191970" stroke="#191970" points="1027.4375,-196.2857 1037.8258,-198.3674 1031.003,-190.2618 1027.4375,-196.2857"/>
</g>
<!-- Node36 -->
<g id="node36" class="node">
<title>Node36</title>
<g id="a_node36"><a xlink:href="class_l_f_s_t_k__file_dialog_class_ac7703591352d5105def9c5293fbeed62.xhtml#ac7703591352d5105def9c5293fbeed62" target="_top" xlink:title=" ">
<polygon fill="none" stroke="#000000" points="490.201,-192.5 490.201,-224.5 608.982,-224.5 608.982,-192.5 490.201,-192.5"/>
<text text-anchor="start" x="498.201" y="-211.5" font-family="Helvetica,sans-Serif" font-size="10.00" fill="#000000">LFSTK_fileDialogClass</text>
<text text-anchor="middle" x="549.5915" y="-199.5" font-family="Helvetica,sans-Serif" font-size="10.00" fill="#000000">::setPreviewData</text>
</a>
</g>
</g>
<!-- Node27&#45;&gt;Node36 -->
<g id="edge44" class="edge">
<title>Node27&#45;&gt;Node36</title>
<path fill="none" stroke="#191970" d="M992.4281,-213.5885C887.1049,-212.3783 703.4542,-210.268 609.1748,-209.1847"/>
<polygon fill="#191970" stroke="#191970" points="992.6435,-217.0911 1002.683,-213.7063 992.7239,-210.0916 992.6435,-217.0911"/>
</g>
<!-- Node31&#45;&gt;Node9 -->
<g id="edge37" class="edge">
<title>Node31&#45;&gt;Node9</title>
<path fill="none" stroke="#191970" d="M817.772,-136.2459C805.9941,-138.8765 793.8823,-141.4034 782.395,-143.5 681.3076,-161.9502 401.2966,-140.1382 324.578,-208.5 272.8866,-254.5608 237.5391,-479.2 228.6199,-541.4689"/>
<polygon fill="#191970" stroke="#191970" points="818.5908,-139.6492 827.5658,-134.019 817.0387,-132.8234 818.5908,-139.6492"/>
</g>
<!-- Node32 -->
<g id="node32" class="node">
<title>Node32</title>
<g id="a_node32"><a xlink:href="class_l_f_s_t_k__file_dialog_class_a0a6b4f1db71031bf35a7636b736e8698.xhtml#a0a6b4f1db71031bf35a7636b736e8698" target="_top" xlink:title=" ">
<polygon fill="none" stroke="#000000" points="656.105,-102.5 656.105,-134.5 774.886,-134.5 774.886,-102.5 656.105,-102.5"/>
<text text-anchor="start" x="664.105" y="-121.5" font-family="Helvetica,sans-Serif" font-size="10.00" fill="#000000">LFSTK_fileDialogClass</text>
<text text-anchor="middle" x="715.4955" y="-109.5" font-family="Helvetica,sans-Serif" font-size="10.00" fill="#000000">::getFileList</text>
</a>
</g>
</g>
<!-- Node31&#45;&gt;Node32 -->
<g id="edge38" class="edge">
<title>Node31&#45;&gt;Node32</title>
<path fill="none" stroke="#191970" d="M817.3181,-118.5C803.2336,-118.5 788.6069,-118.5 774.981,-118.5"/>
<polygon fill="#191970" stroke="#191970" points="817.456,-122.0001 827.456,-118.5 817.4559,-115.0001 817.456,-122.0001"/>
</g>
<!-- Node33 -->
<g id="node33" class="node">
<title>Node33</title>
<g id="a_node33"><a xlink:href="class_l_f_s_t_k__list_gadget_class_addcdb5ba330fd8dd36beb94ea2081dd3.xhtml#addcdb5ba330fd8dd36beb94ea2081dd3" target="_top" xlink:title=" ">
<polygon fill="none" stroke="#000000" points="652.216,-51.5 652.216,-83.5 778.775,-83.5 778.775,-51.5 652.216,-51.5"/>
<text text-anchor="start" x="660.216" y="-70.5" font-family="Helvetica,sans-Serif" font-size="10.00" fill="#000000">LFSTK_listGadgetClass</text>
<text text-anchor="middle" x="715.4955" y="-58.5" font-family="Helvetica,sans-Serif" font-size="10.00" fill="#000000">::LFSTK_setListFromFile</text>
</a>
</g>
</g>
<!-- Node31&#45;&gt;Node33 -->
<g id="edge41" class="edge">
<title>Node31&#45;&gt;Node33</title>
<path fill="none" stroke="#191970" d="M824.4481,-99.4925C806.564,-94.241 787.3395,-88.596 770.0927,-83.5317"/>
<polygon fill="#191970" stroke="#191970" points="823.6438,-102.904 834.2248,-102.3633 825.616,-96.1876 823.6438,-102.904"/>
</g>
<!-- Node32&#45;&gt;Node17 -->
<g id="edge40" class="edge">
<title>Node32&#45;&gt;Node17</title>
<path fill="none" stroke="#191970" d="M698.666,-143.1044C680.1302,-168.6378 648.1927,-208.2948 612.596,-233.5 607.3811,-237.1926 601.5629,-240.4842 595.6279,-243.3797"/>
<polygon fill="#191970" stroke="#191970" points="701.6954,-144.8841 704.6474,-134.7088 695.9943,-140.8223 701.6954,-144.8841"/>
</g>
<!-- Node32&#45;&gt;Node20 -->
<g id="edge39" class="edge">
<title>Node32&#45;&gt;Node20</title>
<path fill="none" stroke="#191970" d="M645.697,-117.6212C566.7138,-118.0975 434.7256,-123.3577 324.578,-149.5 301.8369,-154.8973 277.4988,-164.7839 258.7451,-173.3771"/>
<polygon fill="#191970" stroke="#191970" points="646.0207,-121.1202 656.0082,-117.5846 645.9958,-114.1203 646.0207,-121.1202"/>
</g>
<!-- Node35 -->
<g id="node35" class="node">
<title>Node35</title>
<g id="a_node35"><a xlink:href="class_l_f_s_t_k__list_gadget_class_ae3518016f28ec3cd261ad927c5691826.xhtml#ae3518016f28ec3cd261ad927c5691826" target="_top" xlink:title=" ">
<polygon fill="none" stroke="#000000" points="651.3755,-.5 651.3755,-32.5 779.6155,-32.5 779.6155,-.5 651.3755,-.5"/>
<text text-anchor="start" x="659.3755" y="-19.5" font-family="Helvetica,sans-Serif" font-size="10.00" fill="#000000">LFSTK_listGadgetClass</text>
<text text-anchor="middle" x="715.4955" y="-7.5" font-family="Helvetica,sans-Serif" font-size="10.00" fill="#000000">::LFSTK_listGadgetClass</text>
</a>
</g>
</g>
<!-- Node34&#45;&gt;Node35 -->
<g id="edge43" class="edge">
<title>Node34&#45;&gt;Node35</title>
<path fill="none" stroke="#191970" d="M824.4481,-48.4925C806.564,-43.241 787.3395,-37.596 770.0927,-32.5317"/>
<polygon fill="#191970" stroke="#191970" points="823.6438,-51.904 834.2248,-51.3633 825.616,-45.1876 823.6438,-51.904"/>
</g>
<!-- Node36&#45;&gt;Node19 -->
<g id="edge45" class="edge">
<title>Node36&#45;&gt;Node19</title>
<path fill="none" stroke="#191970" d="M480.149,-219.6445C469.1045,-221.4169 457.7674,-223.2364 446.9816,-224.9673"/>
<polygon fill="#191970" stroke="#191970" points="480.8662,-223.0742 490.1853,-218.0338 479.757,-216.1627 480.8662,-223.0742"/>
</g>
<!-- Node37&#45;&gt;Node28 -->
<g id="edge47" class="edge">
<title>Node37&#45;&gt;Node28</title>
<path fill="none" stroke="#191970" d="M985.7983,-154.6822C976.7985,-156.0625 967.7293,-157.4533 958.9423,-158.801"/>
<polygon fill="#191970" stroke="#191970" points="986.5574,-158.1068 995.9112,-153.1313 985.4962,-151.1877 986.5574,-158.1068"/>
</g>
<!-- Node37&#45;&gt;Node31 -->
<g id="edge48" class="edge">
<title>Node37&#45;&gt;Node31</title>
<path fill="none" stroke="#191970" d="M985.9446,-130.6902C974.0233,-129.1884 961.9769,-127.6708 950.6226,-126.2404"/>
<polygon fill="#191970" stroke="#191970" points="985.5521,-134.1683 995.9112,-131.9457 986.4271,-127.2232 985.5521,-134.1683"/>
</g>
<!-- Node37&#45;&gt;Node34 -->
<g id="edge49" class="edge">
<title>Node37&#45;&gt;Node34</title>
<path fill="none" stroke="#191970" d="M1027.437,-121.1794C1007.0357,-112.0564 982.4214,-101.3737 959.964,-92.5 952.3278,-89.4826 944.1632,-86.4363 936.1927,-83.5581"/>
<polygon fill="#191970" stroke="#191970" points="1026.2317,-124.4749 1036.7876,-125.3831 1029.102,-118.0904 1026.2317,-124.4749"/>
</g>
<!-- Node38&#45;&gt;Node12 -->
<g id="edge51" class="edge">
<title>Node38&#45;&gt;Node12</title>
<path fill="none" stroke="#191970" d="M829.6654,-400.6107C773.9642,-418.0435 688.2222,-443.7211 612.596,-461.5 555.1944,-474.9945 488.6727,-486.6294 442.9267,-494.0213"/>
<polygon fill="#191970" stroke="#191970" points="830.8738,-403.8998 839.365,-397.5633 828.7756,-397.2216 830.8738,-403.8998"/>
</g>
<!-- Node38&#45;&gt;Node15 -->
<g id="edge52" class="edge">
<title>Node38&#45;&gt;Node15</title>
<path fill="none" stroke="#191970" d="M823.6912,-381.5C806.335,-381.5 787.7656,-381.5 770.9968,-381.5"/>
<polygon fill="#191970" stroke="#191970" points="823.7473,-385.0001 833.7473,-381.5 823.7472,-378.0001 823.7473,-385.0001"/>
</g>
</g>
</svg>
