<?xml version="1.0" encoding="UTF-8" standalone="no"?>
<!DOCTYPE svg PUBLIC "-//W3C//DTD SVG 1.1//EN"
 "http://www.w3.org/Graphics/SVG/1.1/DTD/svg11.dtd">
<!-- Generated by graphviz version 2.40.1 (20161225.0304)
 -->
<!-- Title: LFSTK_lineEditClass::LFSTK_setBuffer Pages: 1 -->
<svg width="588pt" height="143pt"
 viewBox="0.00 0.00 587.84 143.00" xmlns="http://www.w3.org/2000/svg" xmlns:xlink="http://www.w3.org/1999/xlink">
<g id="graph0" class="graph" transform="scale(1 1) rotate(0) translate(4 139)">
<title>LFSTK_lineEditClass::LFSTK_setBuffer</title>
<!-- Node1 -->
<g id="node1" class="node">
<title>Node1</title>
<g id="a_node1"><a xlink:title=" ">
<polygon fill="#bfbfbf" stroke="#000000" points="0,-25.5 0,-57.5 110.453,-57.5 110.453,-25.5 0,-25.5"/>
<text text-anchor="start" x="8" y="-44.5" font-family="Helvetica,sans-Serif" font-size="10.00" fill="#000000">LFSTK_lineEditClass</text>
<text text-anchor="middle" x="55.2265" y="-32.5" font-family="Helvetica,sans-Serif" font-size="10.00" fill="#000000">::LFSTK_setBuffer</text>
</a>
</g>
</g>
<!-- Node2 -->
<g id="node2" class="node">
<title>Node2</title>
<g id="a_node2"><a xlink:href="class_l_f_s_t_k__line_edit_class_adbcfa08279eec28c5f4e2c33a056d396.xhtml#adbcfa08279eec28c5f4e2c33a056d396" target="_top" xlink:title=" ">
<polygon fill="none" stroke="#000000" points="146.453,-51.5 146.453,-83.5 261.905,-83.5 261.905,-51.5 146.453,-51.5"/>
<text text-anchor="start" x="154.453" y="-70.5" font-family="Helvetica,sans-Serif" font-size="10.00" fill="#000000">LFSTK_lineEditClass</text>
<text text-anchor="middle" x="204.179" y="-58.5" font-family="Helvetica,sans-Serif" font-size="10.00" fill="#000000">::LFSTK_clearWindow</text>
</a>
</g>
</g>
<!-- Node1&#45;&gt;Node2 -->
<g id="edge1" class="edge">
<title>Node1&#45;&gt;Node2</title>
<path fill="none" stroke="#191970" d="M110.6909,-51.1814C119.014,-52.6342 127.6765,-54.1463 136.2236,-55.6382"/>
<polygon fill="#191970" stroke="#191970" points="135.724,-59.1039 146.1769,-57.3756 136.9277,-52.2081 135.724,-59.1039"/>
</g>
<!-- Node7 -->
<g id="node7" class="node">
<title>Node7</title>
<g id="a_node7"><a xlink:href="class_l_f_s_t_k__line_edit_class_aeae7e32d645d01ae18149c3f472d6f3e.xhtml#aeae7e32d645d01ae18149c3f472d6f3e" target="_top" xlink:title=" ">
<polygon fill="none" stroke="#000000" points="299.58,-.5 299.58,-32.5 410.033,-32.5 410.033,-.5 299.58,-.5"/>
<text text-anchor="start" x="307.58" y="-19.5" font-family="Helvetica,sans-Serif" font-size="10.00" fill="#000000">LFSTK_lineEditClass</text>
<text text-anchor="middle" x="354.8065" y="-7.5" font-family="Helvetica,sans-Serif" font-size="10.00" fill="#000000">::setOffsetcurs</text>
</a>
</g>
</g>
<!-- Node1&#45;&gt;Node7 -->
<g id="edge6" class="edge">
<title>Node1&#45;&gt;Node7</title>
<path fill="none" stroke="#191970" d="M110.5232,-36.8855C161.1105,-32.664 236.0009,-26.4143 289.5116,-21.9489"/>
<polygon fill="#191970" stroke="#191970" points="289.9048,-25.4283 299.5791,-21.1087 289.3226,-18.4526 289.9048,-25.4283"/>
</g>
<!-- Node3 -->
<g id="node3" class="node">
<title>Node3</title>
<g id="a_node3"><a xlink:href="class_l_f_s_t_k__gadget_class_ab76db165a19af248b5e94e95492dc879.xhtml#ab76db165a19af248b5e94e95492dc879" target="_top" xlink:title=" ">
<polygon fill="none" stroke="#000000" points="297.905,-51.5 297.905,-83.5 411.708,-83.5 411.708,-51.5 297.905,-51.5"/>
<text text-anchor="start" x="305.905" y="-70.5" font-family="Helvetica,sans-Serif" font-size="10.00" fill="#000000">LFSTK_gadgetClass::</text>
<text text-anchor="middle" x="354.8065" y="-58.5" font-family="Helvetica,sans-Serif" font-size="10.00" fill="#000000">drawBevel</text>
</a>
</g>
</g>
<!-- Node2&#45;&gt;Node3 -->
<g id="edge2" class="edge">
<title>Node2&#45;&gt;Node3</title>
<path fill="none" stroke="#191970" d="M261.9847,-67.5C270.4523,-67.5 279.2324,-67.5 287.864,-67.5"/>
<polygon fill="#191970" stroke="#191970" points="287.901,-71.0001 297.901,-67.5 287.9009,-64.0001 287.901,-71.0001"/>
</g>
<!-- Node4 -->
<g id="node4" class="node">
<title>Node4</title>
<g id="a_node4"><a xlink:href="class_l_f_s_t_k__line_edit_class_a24da1f04ceb3b05ed9b25988e2cb5130.xhtml#a24da1f04ceb3b05ed9b25988e2cb5130" target="_top" xlink:title=" ">
<polygon fill="none" stroke="#000000" points="299.58,-102.5 299.58,-134.5 410.033,-134.5 410.033,-102.5 299.58,-102.5"/>
<text text-anchor="start" x="307.58" y="-121.5" font-family="Helvetica,sans-Serif" font-size="10.00" fill="#000000">LFSTK_lineEditClass</text>
<text text-anchor="middle" x="354.8065" y="-109.5" font-family="Helvetica,sans-Serif" font-size="10.00" fill="#000000">::drawLabel</text>
</a>
</g>
</g>
<!-- Node2&#45;&gt;Node4 -->
<g id="edge3" class="edge">
<title>Node2&#45;&gt;Node4</title>
<path fill="none" stroke="#191970" d="M251.8385,-83.6367C266.4032,-88.5681 282.5703,-94.042 297.6954,-99.1631"/>
<polygon fill="#191970" stroke="#191970" points="296.8628,-102.5763 307.4571,-102.4683 299.1077,-95.9461 296.8628,-102.5763"/>
</g>
<!-- Node5 -->
<g id="node5" class="node">
<title>Node5</title>
<g id="a_node5"><a xlink:href="class_l_f_s_t_k__gadget_class_ac233a3c3e0900ff66adb74102a56f09f.xhtml#ac233a3c3e0900ff66adb74102a56f09f" target="_top" xlink:title=" ">
<polygon fill="none" stroke="#000000" points="447.708,-89.5 447.708,-121.5 579.837,-121.5 579.837,-89.5 447.708,-89.5"/>
<text text-anchor="start" x="455.708" y="-108.5" font-family="Helvetica,sans-Serif" font-size="10.00" fill="#000000">LFSTK_gadgetClass::</text>
<text text-anchor="middle" x="513.7725" y="-96.5" font-family="Helvetica,sans-Serif" font-size="10.00" fill="#000000">LFSTK_getTextRealWidth</text>
</a>
</g>
</g>
<!-- Node4&#45;&gt;Node5 -->
<g id="edge4" class="edge">
<title>Node4&#45;&gt;Node5</title>
<path fill="none" stroke="#191970" d="M410.4051,-113.9532C419.122,-113.2404 428.2615,-112.493 437.3476,-111.7499"/>
<polygon fill="#191970" stroke="#191970" points="437.8766,-115.2184 447.558,-110.9149 437.306,-108.2417 437.8766,-115.2184"/>
</g>
<!-- Node6 -->
<g id="node6" class="node">
<title>Node6</title>
<g id="a_node6"><a xlink:href="class_l_f_s_t_k__gadget_class_a23bc2dc7b8200df4dc74f1f68460eca2.xhtml#a23bc2dc7b8200df4dc74f1f68460eca2" target="_top" xlink:title=" ">
<polygon fill="none" stroke="#000000" points="456.871,-25.5 456.871,-57.5 570.674,-57.5 570.674,-25.5 456.871,-25.5"/>
<text text-anchor="start" x="464.871" y="-44.5" font-family="Helvetica,sans-Serif" font-size="10.00" fill="#000000">LFSTK_gadgetClass::</text>
<text text-anchor="middle" x="513.7725" y="-32.5" font-family="Helvetica,sans-Serif" font-size="10.00" fill="#000000">LFSTK_getTextWidth</text>
</a>
</g>
</g>
<!-- Node4&#45;&gt;Node6 -->
<g id="edge5" class="edge">
<title>Node4&#45;&gt;Node6</title>
<path fill="none" stroke="#191970" d="M392.2866,-102.3971C398.7912,-99.4988 405.4677,-96.4576 411.708,-93.5 432.5567,-83.6189 455.4705,-72.0141 474.2958,-62.2773"/>
<polygon fill="#191970" stroke="#191970" points="475.9199,-65.3778 483.1819,-57.6632 472.694,-59.1653 475.9199,-65.3778"/>
</g>
<!-- Node7&#45;&gt;Node5 -->
<g id="edge7" class="edge">
<title>Node7&#45;&gt;Node5</title>
<path fill="none" stroke="#191970" d="M394.2176,-32.5115C400.1814,-35.306 406.1824,-38.3383 411.708,-41.5 428.8384,-51.302 431.1317,-56.7876 447.708,-67.5 456.6348,-73.2689 466.4641,-79.1589 475.7506,-84.526"/>
<polygon fill="#191970" stroke="#191970" points="474.0215,-87.5691 484.4407,-89.4905 477.4939,-81.491 474.0215,-87.5691"/>
</g>
<!-- Node7&#45;&gt;Node6 -->
<g id="edge8" class="edge">
<title>Node7&#45;&gt;Node6</title>
<path fill="none" stroke="#191970" d="M410.4051,-25.2438C422.1564,-27.0919 434.6755,-29.0607 446.7966,-30.967"/>
<polygon fill="#191970" stroke="#191970" points="446.4368,-34.4533 456.8592,-32.5494 447.5244,-27.5383 446.4368,-34.4533"/>
</g>
</g>
</svg>
