<?xml version="1.0" encoding="UTF-8" standalone="no"?>
<!DOCTYPE svg PUBLIC "-//W3C//DTD SVG 1.1//EN"
 "http://www.w3.org/Graphics/SVG/1.1/DTD/svg11.dtd">
<!-- Generated by graphviz version 2.40.1 (20161225.0304)
 -->
<!-- Title: LFSTK_windowClass::LFSTK_windowClass Pages: 1 -->
<!--zoomable 527 -->
<svg id="main" version="1.1" xmlns="http://www.w3.org/2000/svg" xmlns:xlink="http://www.w3.org/1999/xlink" xml:space="preserve" onload="init(evt)">
<style type="text/css"><![CDATA[
.edge:hover path { stroke: red; }
.edge:hover polygon { stroke: red; fill: red; }
]]></style>
<script type="text/javascript"><![CDATA[
var edges = document.getElementsByTagName('g');
if (edges && edges.length) {
  for (var i=0;i<edges.length;i++) {
    if (edges[i].id.substr(0,4)=='edge') {
      edges[i].setAttribute('class','edge');
    }
  }
}
]]></script>
        <defs>
                <circle id="rim" cx="0" cy="0" r="7"/>
                <circle id="rim2" cx="0" cy="0" r="3.5"/>
                <g id="zoomPlus">
                        <use xlink:href="#rim" fill="#404040">
                                <set attributeName="fill" to="#808080" begin="zoomplus.mouseover" end="zoomplus.mouseout"/>
                        </use>
                        <path d="M-4,0h8M0,-4v8" fill="none" stroke="white" stroke-width="1.5" pointer-events="none"/>
                </g>
                <g id="zoomMin">
                        <use xlink:href="#rim" fill="#404040">
                                <set attributeName="fill" to="#808080" begin="zoomminus.mouseover" end="zoomminus.mouseout"/>
                        </use>
                        <path d="M-4,0h8" fill="none" stroke="white" stroke-width="1.5" pointer-events="none"/>
                </g>
                <g id="dirArrow">
                        <path fill="none" stroke="white" stroke-width="1.5" d="M0,-3.0v7 M-2.5,-0.5L0,-3.0L2.5,-0.5"/>
                </g>
               <g id="resetDef">
                       <use xlink:href="#rim2" fill="#404040">
                               <set attributeName="fill" to="#808080" begin="reset.mouseover" end="reset.mouseout"/>
                       </use>
               </g>
        </defs>

<script type="text/javascript">
var viewWidth = 857;
var viewHeight = 527;
var sectionId = 'dynsection-0';
</script>
<script xlink:href="svgpan.js"/>
<svg id="graph" class="graph">
<g id="viewport">
<title>LFSTK_windowClass::LFSTK_windowClass</title>
<!-- Node1 -->
<g id="node1" class="node">
<title>Node1</title>
<g id="a_node1"><a xlink:title=" ">
<polygon fill="#bfbfbf" stroke="#000000" points="0,-229.5 0,-261.5 116.563,-261.5 116.563,-229.5 0,-229.5"/>
<text text-anchor="start" x="8" y="-248.5" font-family="Helvetica,sans-Serif" font-size="10.00" fill="#000000">LFSTK_windowClass::</text>
<text text-anchor="middle" x="58.2815" y="-236.5" font-family="Helvetica,sans-Serif" font-size="10.00" fill="#000000">LFSTK_windowClass</text>
</a>
</g>
</g>
<!-- Node2 -->
<g id="node2" class="node">
<title>Node2</title>
<g id="a_node2"><a xlink:href="class_l_f_s_t_k__window_class_a7d01ee5bb6c3fef9aa9b55323c04f90c.xhtml#a7d01ee5bb6c3fef9aa9b55323c04f90c" target="_top" xlink:title=" ">
<polygon fill="none" stroke="#000000" points="152.563,-229.5 152.563,-261.5 280.784,-261.5 280.784,-229.5 152.563,-229.5"/>
<text text-anchor="start" x="160.563" y="-248.5" font-family="Helvetica,sans-Serif" font-size="10.00" fill="#000000">LFSTK_windowClass::</text>
<text text-anchor="middle" x="216.6735" y="-236.5" font-family="Helvetica,sans-Serif" font-size="10.00" fill="#000000">windowClassInitCommon</text>
</a>
</g>
</g>
<!-- Node1&#45;&gt;Node2 -->
<g id="edge1" class="edge">
<title>Node1&#45;&gt;Node2</title>
<path fill="none" stroke="#191970" d="M116.8108,-245.5C125.1717,-245.5 133.8629,-245.5 142.4751,-245.5"/>
<polygon fill="#191970" stroke="#191970" points="142.5241,-249.0001 152.5241,-245.5 142.5241,-242.0001 142.5241,-249.0001"/>
</g>
<!-- Node3 -->
<g id="node3" class="node">
<title>Node3</title>
<g id="a_node3"><a xlink:href="class_l_f_s_t_k__window_class_a36491159cf4fdc3c5d0909b2195af9ab.xhtml#a36491159cf4fdc3c5d0909b2195af9ab" target="_top" xlink:title=" ">
<polygon fill="none" stroke="#000000" points="342.349,-384.5 342.349,-416.5 458.912,-416.5 458.912,-384.5 342.349,-384.5"/>
<text text-anchor="start" x="350.349" y="-403.5" font-family="Helvetica,sans-Serif" font-size="10.00" fill="#000000">LFSTK_windowClass::</text>
<text text-anchor="middle" x="400.6305" y="-391.5" font-family="Helvetica,sans-Serif" font-size="10.00" fill="#000000">initWindow</text>
</a>
</g>
</g>
<!-- Node2&#45;&gt;Node3 -->
<g id="edge2" class="edge">
<title>Node2&#45;&gt;Node3</title>
<path fill="none" stroke="#191970" d="M225.6598,-261.5096C241.0779,-287.6233 274.9856,-339.4786 316.784,-369.5 322.3737,-373.5147 328.5426,-377.0688 334.9225,-380.2012"/>
<polygon fill="#191970" stroke="#191970" points="333.8253,-383.5468 344.3777,-384.4936 336.7189,-377.1729 333.8253,-383.5468"/>
</g>
<!-- Node6 -->
<g id="node6" class="node">
<title>Node6</title>
<g id="a_node6"><a xlink:href="class_l_f_s_t_k__lib_a46aa104681d600dd4eb24549e813b5cc.xhtml#a46aa104681d600dd4eb24549e813b5cc" target="_top" xlink:title=" ">
<polygon fill="none" stroke="#000000" points="691.936,-486.5 691.936,-518.5 839.63,-518.5 839.63,-486.5 691.936,-486.5"/>
<text text-anchor="start" x="699.936" y="-505.5" font-family="Helvetica,sans-Serif" font-size="10.00" fill="#000000">LFSTK_lib::LFSTK_getGlobal</text>
<text text-anchor="middle" x="765.783" y="-493.5" font-family="Helvetica,sans-Serif" font-size="10.00" fill="#000000">String</text>
</a>
</g>
</g>
<!-- Node2&#45;&gt;Node6 -->
<g id="edge9" class="edge">
<title>Node2&#45;&gt;Node6</title>
<path fill="none" stroke="#191970" d="M220.5377,-261.732C230.047,-297.8559 258.1911,-384.9676 316.784,-426.5 425.1777,-503.3327 584.7491,-512.0418 681.5959,-508.9578"/>
<polygon fill="#191970" stroke="#191970" points="681.7726,-512.4538 691.6372,-508.5886 681.5153,-505.4585 681.7726,-512.4538"/>
</g>
<!-- Node8 -->
<g id="node8" class="node">
<title>Node8</title>
<g id="a_node8"><a xlink:href="class_l_f_s_t_k__window_class_a9d54e326ce33b8806f19c9353269e6a8.xhtml#a9d54e326ce33b8806f19c9353269e6a8" target="_top" xlink:title=" ">
<polygon fill="none" stroke="#000000" points="707.5015,-282.5 707.5015,-314.5 824.0645,-314.5 824.0645,-282.5 707.5015,-282.5"/>
<text text-anchor="start" x="715.5015" y="-301.5" font-family="Helvetica,sans-Serif" font-size="10.00" fill="#000000">LFSTK_windowClass::</text>
<text text-anchor="middle" x="765.783" y="-289.5" font-family="Helvetica,sans-Serif" font-size="10.00" fill="#000000">LFSTK_setFontString</text>
</a>
</g>
</g>
<!-- Node2&#45;&gt;Node8 -->
<g id="edge13" class="edge">
<title>Node2&#45;&gt;Node8</title>
<path fill="none" stroke="#191970" d="M228.312,-261.8668C244.9945,-283.7464 278.0074,-321.5099 316.784,-336.5 384.2903,-362.5964 588.7733,-331.1174 696.9596,-311.6586"/>
<polygon fill="#191970" stroke="#191970" points="697.9061,-315.0441 707.1208,-309.8153 696.6566,-308.1565 697.9061,-315.0441"/>
</g>
<!-- Node10 -->
<g id="node10" class="node">
<title>Node10</title>
<g id="a_node10"><a xlink:href="class_l_f_s_t_k__lib_afb350ab1bd8980ed130637b75244d7b2.xhtml#afb350ab1bd8980ed130637b75244d7b2" target="_top" xlink:title=" ">
<polygon fill="none" stroke="#000000" points="316.784,-306.5 316.784,-326.5 484.477,-326.5 484.477,-306.5 316.784,-306.5"/>
<text text-anchor="middle" x="400.6305" y="-313.5" font-family="Helvetica,sans-Serif" font-size="10.00" fill="#000000">LFSTK_lib::LFSTK_getUseTheme</text>
</a>
</g>
</g>
<!-- Node2&#45;&gt;Node10 -->
<g id="edge10" class="edge">
<title>Node2&#45;&gt;Node10</title>
<path fill="none" stroke="#191970" d="M243.0129,-261.5633C262.723,-272.9853 290.6684,-287.9388 316.784,-297.5 323.1875,-299.8444 329.976,-301.9572 336.808,-303.8463"/>
<polygon fill="#191970" stroke="#191970" points="336.2494,-307.3176 346.8091,-306.455 338.0163,-300.5443 336.2494,-307.3176"/>
</g>
<!-- Node11 -->
<g id="node11" class="node">
<title>Node11</title>
<g id="a_node11"><a xlink:href="class_l_f_s_t_k__lib_aa5e46eec51c9f1f2a86ef7e22d6cba5b.xhtml#aa5e46eec51c9f1f2a86ef7e22d6cba5b" target="_top" xlink:title=" ">
<polygon fill="none" stroke="#000000" points="329.5675,-255.5 329.5675,-287.5 471.6935,-287.5 471.6935,-255.5 329.5675,-255.5"/>
<text text-anchor="start" x="337.5675" y="-274.5" font-family="Helvetica,sans-Serif" font-size="10.00" fill="#000000">LFSTK_lib::LFSTK_setCairo</text>
<text text-anchor="middle" x="400.6305" y="-262.5" font-family="Helvetica,sans-Serif" font-size="10.00" fill="#000000">Surface</text>
</a>
</g>
</g>
<!-- Node2&#45;&gt;Node11 -->
<g id="edge11" class="edge">
<title>Node2&#45;&gt;Node11</title>
<path fill="none" stroke="#191970" d="M281.0127,-254.5935C293.3576,-256.3383 306.4347,-258.1866 319.2348,-259.9957"/>
<polygon fill="#191970" stroke="#191970" points="319.0301,-263.5015 329.4215,-261.4355 320.0098,-256.5704 319.0301,-263.5015"/>
</g>
<!-- Node12 -->
<g id="node12" class="node">
<title>Node12</title>
<g id="a_node12"><a xlink:href="class_l_f_s_t_k__window_class_aa7d21cd46a0ac218de3fddc2483a58bb.xhtml#aa7d21cd46a0ac218de3fddc2483a58bb" target="_top" xlink:title=" ">
<polygon fill="none" stroke="#000000" points="342.349,-204.5 342.349,-236.5 458.912,-236.5 458.912,-204.5 342.349,-204.5"/>
<text text-anchor="start" x="350.349" y="-223.5" font-family="Helvetica,sans-Serif" font-size="10.00" fill="#000000">LFSTK_windowClass::</text>
<text text-anchor="middle" x="400.6305" y="-211.5" font-family="Helvetica,sans-Serif" font-size="10.00" fill="#000000">LFSTK_setDecorated</text>
</a>
</g>
</g>
<!-- Node2&#45;&gt;Node12 -->
<g id="edge12" class="edge">
<title>Node2&#45;&gt;Node12</title>
<path fill="none" stroke="#191970" d="M281.0127,-236.7562C297.4866,-234.5174 315.2645,-232.1014 331.9478,-229.8341"/>
<polygon fill="#191970" stroke="#191970" points="332.735,-233.2593 342.1726,-228.4445 331.7923,-226.3231 332.735,-233.2593"/>
</g>
<!-- Node13 -->
<g id="node13" class="node">
<title>Node13</title>
<g id="a_node13"><a xlink:href="class_l_f_s_t_k__window_class_a636fbd200e6a7f105c67443254872aed.xhtml#a636fbd200e6a7f105c67443254872aed" target="_top" xlink:title=" ">
<polygon fill="none" stroke="#000000" points="342.349,-153.5 342.349,-185.5 458.912,-185.5 458.912,-153.5 342.349,-153.5"/>
<text text-anchor="start" x="350.349" y="-172.5" font-family="Helvetica,sans-Serif" font-size="10.00" fill="#000000">LFSTK_windowClass::</text>
<text text-anchor="middle" x="400.6305" y="-160.5" font-family="Helvetica,sans-Serif" font-size="10.00" fill="#000000">LFSTK_setTile</text>
</a>
</g>
</g>
<!-- Node2&#45;&gt;Node13 -->
<g id="edge14" class="edge">
<title>Node2&#45;&gt;Node13</title>
<path fill="none" stroke="#191970" d="M244.9446,-229.3536C264.6527,-218.5352 291.7911,-204.4961 316.784,-194.5 321.8085,-192.4904 327.0582,-190.556 332.3733,-188.7148"/>
<polygon fill="#191970" stroke="#191970" points="333.6017,-191.9946 341.9765,-185.505 331.3827,-185.3556 333.6017,-191.9946"/>
</g>
<!-- Node16 -->
<g id="node16" class="node">
<title>Node16</title>
<g id="a_node16"><a xlink:href="class_l_f_s_t_k__window_class_a8038fef8334f815d5ed841ceffb00601.xhtml#a8038fef8334f815d5ed841ceffb00601" target="_top" xlink:title=" ">
<polygon fill="none" stroke="#000000" points="338.734,-102.5 338.734,-134.5 462.527,-134.5 462.527,-102.5 338.734,-102.5"/>
<text text-anchor="start" x="346.734" y="-121.5" font-family="Helvetica,sans-Serif" font-size="10.00" fill="#000000">LFSTK_windowClass::</text>
<text text-anchor="middle" x="400.6305" y="-109.5" font-family="Helvetica,sans-Serif" font-size="10.00" fill="#000000">LFSTK_setWindowType</text>
</a>
</g>
</g>
<!-- Node2&#45;&gt;Node16 -->
<g id="edge17" class="edge">
<title>Node2&#45;&gt;Node16</title>
<path fill="none" stroke="#191970" d="M228.3554,-229.2108C245.3317,-206.7023 278.9536,-166.293 316.784,-143.5 320.6954,-141.1434 324.8444,-138.9955 329.1213,-137.0398"/>
<polygon fill="#191970" stroke="#191970" points="330.769,-140.1446 338.6458,-133.059 328.0696,-133.686 330.769,-140.1446"/>
</g>
<!-- Node17 -->
<g id="node17" class="node">
<title>Node17</title>
<g id="a_node17"><a xlink:href="class_l_f_s_t_k__window_class_a734d0f96ac656bd7b03e26da1c1db28c.xhtml#a734d0f96ac656bd7b03e26da1c1db28c" target="_top" xlink:title=" ">
<polygon fill="none" stroke="#000000" points="342.349,-51.5 342.349,-83.5 458.912,-83.5 458.912,-51.5 342.349,-51.5"/>
<text text-anchor="start" x="350.349" y="-70.5" font-family="Helvetica,sans-Serif" font-size="10.00" fill="#000000">LFSTK_windowClass::</text>
<text text-anchor="middle" x="400.6305" y="-58.5" font-family="Helvetica,sans-Serif" font-size="10.00" fill="#000000">loadMonitorData</text>
</a>
</g>
</g>
<!-- Node2&#45;&gt;Node17 -->
<g id="edge18" class="edge">
<title>Node2&#45;&gt;Node17</title>
<path fill="none" stroke="#191970" d="M222.7572,-229.4007C235.3773,-198.1924 267.4106,-129.3053 316.784,-92.5 321.6212,-88.8941 326.9757,-85.8054 332.5706,-83.1601"/>
<polygon fill="#191970" stroke="#191970" points="334.3105,-86.2249 342.1645,-79.1139 331.5903,-79.7751 334.3105,-86.2249"/>
</g>
<!-- Node18 -->
<g id="node18" class="node">
<title>Node18</title>
<g id="a_node18"><a xlink:href="class_l_f_s_t_k__window_class_ac8c342109a0f8599f550475cef048745.xhtml#ac8c342109a0f8599f550475cef048745" target="_top" xlink:title=" ">
<polygon fill="none" stroke="#000000" points="342.349,-.5 342.349,-32.5 458.912,-32.5 458.912,-.5 342.349,-.5"/>
<text text-anchor="start" x="350.349" y="-19.5" font-family="Helvetica,sans-Serif" font-size="10.00" fill="#000000">LFSTK_windowClass::</text>
<text text-anchor="middle" x="400.6305" y="-7.5" font-family="Helvetica,sans-Serif" font-size="10.00" fill="#000000">setWindowGeom</text>
</a>
</g>
</g>
<!-- Node2&#45;&gt;Node18 -->
<g id="edge19" class="edge">
<title>Node2&#45;&gt;Node18</title>
<path fill="none" stroke="#191970" d="M219.9717,-229.2558C228.6522,-190.7107 255.7937,-93.099 316.784,-41.5 321.5785,-37.4438 327.0112,-34.0457 332.751,-31.1989"/>
<polygon fill="#191970" stroke="#191970" points="334.2166,-34.3781 341.9758,-27.1639 331.4113,-27.9648 334.2166,-34.3781"/>
</g>
<!-- Node4 -->
<g id="node4" class="node">
<title>Node4</title>
<g id="a_node4"><a xlink:href="class_l_f_s_t_k__window_class_aa1cdaa019a010bb17387dd39b6165303.xhtml#aa1cdaa019a010bb17387dd39b6165303" target="_top" xlink:title=" ">
<polygon fill="none" stroke="#000000" points="525.48,-384.5 525.48,-416.5 642.043,-416.5 642.043,-384.5 525.48,-384.5"/>
<text text-anchor="start" x="533.48" y="-403.5" font-family="Helvetica,sans-Serif" font-size="10.00" fill="#000000">LFSTK_windowClass::</text>
<text text-anchor="middle" x="583.7615" y="-391.5" font-family="Helvetica,sans-Serif" font-size="10.00" fill="#000000">loadGlobalColours</text>
</a>
</g>
</g>
<!-- Node3&#45;&gt;Node4 -->
<g id="edge3" class="edge">
<title>Node3&#45;&gt;Node4</title>
<path fill="none" stroke="#191970" d="M459.0778,-400.5C476.9187,-400.5 496.6982,-400.5 515.1486,-400.5"/>
<polygon fill="#191970" stroke="#191970" points="515.2414,-404.0001 525.2413,-400.5 515.2413,-397.0001 515.2414,-404.0001"/>
</g>
<!-- Node5 -->
<g id="node5" class="node">
<title>Node5</title>
<g id="a_node5"><a xlink:href="class_l_f_s_t_k__lib_a24d88a5207e8355d10b788238d981fe6.xhtml#a24d88a5207e8355d10b788238d981fe6" target="_top" xlink:title=" ">
<polygon fill="none" stroke="#000000" points="696.1,-435.5 696.1,-467.5 835.466,-467.5 835.466,-435.5 696.1,-435.5"/>
<text text-anchor="start" x="704.1" y="-454.5" font-family="Helvetica,sans-Serif" font-size="10.00" fill="#000000">LFSTK_lib::LFSTK_getAuto</text>
<text text-anchor="middle" x="765.783" y="-442.5" font-family="Helvetica,sans-Serif" font-size="10.00" fill="#000000">LabelColour</text>
</a>
</g>
</g>
<!-- Node4&#45;&gt;Node5 -->
<g id="edge4" class="edge">
<title>Node4&#45;&gt;Node5</title>
<path fill="none" stroke="#191970" d="M641.3542,-416.6367C659.625,-421.756 679.9825,-427.4598 698.852,-432.7468"/>
<polygon fill="#191970" stroke="#191970" points="697.9914,-436.1404 708.5649,-435.4683 699.8801,-429.4 697.9914,-436.1404"/>
</g>
<!-- Node4&#45;&gt;Node6 -->
<g id="edge5" class="edge">
<title>Node4&#45;&gt;Node6</title>
<path fill="none" stroke="#191970" d="M600.3552,-416.5131C619.0642,-433.7751 651.0643,-460.9901 683.046,-477.5 686.5461,-479.3068 690.1983,-481.006 693.9346,-482.6005"/>
<polygon fill="#191970" stroke="#191970" points="692.7712,-485.9045 703.3567,-486.3505 695.3598,-479.4007 692.7712,-485.9045"/>
</g>
<!-- Node7 -->
<g id="node7" class="node">
<title>Node7</title>
<g id="a_node7"><a xlink:href="class_l_f_s_t_k__window_class_a3a14b82ac1628b75173c5cb37d20926b.xhtml#a3a14b82ac1628b75173c5cb37d20926b" target="_top" xlink:title=" ">
<polygon fill="none" stroke="#000000" points="694.719,-384.5 694.719,-416.5 836.847,-416.5 836.847,-384.5 694.719,-384.5"/>
<text text-anchor="start" x="702.719" y="-403.5" font-family="Helvetica,sans-Serif" font-size="10.00" fill="#000000">LFSTK_windowClass::</text>
<text text-anchor="middle" x="765.783" y="-391.5" font-family="Helvetica,sans-Serif" font-size="10.00" fill="#000000">LFSTK_setFontColourName</text>
</a>
</g>
</g>
<!-- Node4&#45;&gt;Node7 -->
<g id="edge6" class="edge">
<title>Node4&#45;&gt;Node7</title>
<path fill="none" stroke="#191970" d="M642.1053,-400.5C655.5771,-400.5 670.15,-400.5 684.4041,-400.5"/>
<polygon fill="#191970" stroke="#191970" points="684.7067,-404.0001 694.7067,-400.5 684.7067,-397.0001 684.7067,-404.0001"/>
</g>
<!-- Node4&#45;&gt;Node8 -->
<g id="edge7" class="edge">
<title>Node4&#45;&gt;Node8</title>
<path fill="none" stroke="#191970" d="M623.5289,-384.3599C631.7145,-380.1422 639.9824,-375.1629 647.046,-369.5 667.0294,-353.4793 661.9109,-338.9675 683.046,-324.5 687.6275,-321.3638 692.6058,-318.5917 697.7716,-316.1437"/>
<polygon fill="#191970" stroke="#191970" points="699.4222,-319.2439 707.2271,-312.0791 696.6577,-312.8129 699.4222,-319.2439"/>
</g>
<!-- Node9 -->
<g id="node9" class="node">
<title>Node9</title>
<g id="a_node9"><a xlink:href="class_l_f_s_t_k__window_class_a612850c5641e44aea8a2c0b11ad8cd1b.xhtml#a612850c5641e44aea8a2c0b11ad8cd1b" target="_top" xlink:title=" ">
<polygon fill="none" stroke="#000000" points="686.945,-333.5 686.945,-365.5 844.621,-365.5 844.621,-333.5 686.945,-333.5"/>
<text text-anchor="start" x="694.945" y="-352.5" font-family="Helvetica,sans-Serif" font-size="10.00" fill="#000000">LFSTK_windowClass::</text>
<text text-anchor="middle" x="765.783" y="-340.5" font-family="Helvetica,sans-Serif" font-size="10.00" fill="#000000">LFSTK_setWindowColourName</text>
</a>
</g>
</g>
<!-- Node4&#45;&gt;Node9 -->
<g id="edge8" class="edge">
<title>Node4&#45;&gt;Node9</title>
<path fill="none" stroke="#191970" d="M641.3542,-384.3633C659.625,-379.244 679.9825,-373.5402 698.852,-368.2532"/>
<polygon fill="#191970" stroke="#191970" points="699.8801,-371.6 708.5649,-365.5317 697.9914,-364.8596 699.8801,-371.6"/>
</g>
<!-- Node14 -->
<g id="node14" class="node">
<title>Node14</title>
<g id="a_node14"><a xlink:href="class_l_f_s_t_k__lib_ad794f7ab3a4ca5a03adbb0472fa93788.xhtml#ad794f7ab3a4ca5a03adbb0472fa93788" target="_top" xlink:title=" ">
<polygon fill="none" stroke="#000000" points="520.477,-147.5 520.477,-191.5 647.046,-191.5 647.046,-147.5 520.477,-147.5"/>
<text text-anchor="start" x="528.477" y="-178.5" font-family="Helvetica,sans-Serif" font-size="10.00" fill="#000000">LFSTK_lib::LFSTK_cairo</text>
<text text-anchor="start" x="528.477" y="-166.5" font-family="Helvetica,sans-Serif" font-size="10.00" fill="#000000">_image_surface_create</text>
<text text-anchor="middle" x="583.7615" y="-154.5" font-family="Helvetica,sans-Serif" font-size="10.00" fill="#000000">_from_jpeg</text>
</a>
</g>
</g>
<!-- Node13&#45;&gt;Node14 -->
<g id="edge15" class="edge">
<title>Node13&#45;&gt;Node14</title>
<path fill="none" stroke="#191970" d="M459.0778,-169.5C475.2013,-169.5 492.9082,-169.5 509.7865,-169.5"/>
<polygon fill="#191970" stroke="#191970" points="510.167,-173.0001 520.1669,-169.5 510.1669,-166.0001 510.167,-173.0001"/>
</g>
<!-- Node15 -->
<g id="node15" class="node">
<title>Node15</title>
<g id="a_node15"><a xlink:href="class_l_f_s_t_k__lib_a6beac3954823730f63c32a97949db52a.xhtml#a6beac3954823730f63c32a97949db52a" target="_top" xlink:title=" ">
<polygon fill="none" stroke="#000000" points="683.046,-153.5 683.046,-185.5 848.52,-185.5 848.52,-153.5 683.046,-153.5"/>
<text text-anchor="start" x="691.046" y="-172.5" font-family="Helvetica,sans-Serif" font-size="10.00" fill="#000000">LFSTK_lib::cairo_image</text>
<text text-anchor="middle" x="765.783" y="-160.5" font-family="Helvetica,sans-Serif" font-size="10.00" fill="#000000">_surface_create_from_jpeg_mem</text>
</a>
</g>
</g>
<!-- Node14&#45;&gt;Node15 -->
<g id="edge16" class="edge">
<title>Node14&#45;&gt;Node15</title>
<path fill="none" stroke="#191970" d="M647.1683,-169.5C655.4276,-169.5 664.0219,-169.5 672.6417,-169.5"/>
<polygon fill="#191970" stroke="#191970" points="672.7538,-173.0001 682.7538,-169.5 672.7537,-166.0001 672.7538,-173.0001"/>
</g>
</g>
</svg>
        <g id="navigator" transform="translate(0 0)" fill="#404254">
                <rect fill="#f2f5e9" fill-opacity="0.5" stroke="#606060" stroke-width=".5" x="0" y="0" width="60" height="60"/>
                <use id="zoomplus" xlink:href="#zoomPlus" x="17" y="9" onmousedown="handleZoom(evt,'in')"/>
                <use id="zoomminus" xlink:href="#zoomMin" x="42" y="9" onmousedown="handleZoom(evt,'out')"/>
                <use id="reset" xlink:href="#resetDef" x="30" y="36" onmousedown="handleReset()"/>
                <g id="arrowUp" xlink:href="#dirArrow" transform="translate(30 24)" onmousedown="handlePan(0,-1)">
                  <use xlink:href="#rim" fill="#404040">
                        <set attributeName="fill" to="#808080" begin="arrowUp.mouseover" end="arrowUp.mouseout"/>
                  </use>
                  <path fill="none" stroke="white" stroke-width="1.5" d="M0,-3.0v7 M-2.5,-0.5L0,-3.0L2.5,-0.5"/>
                </g>
                <g id="arrowRight" xlink:href="#dirArrow" transform="rotate(90) translate(36 -43)" onmousedown="handlePan(1,0)">
                  <use xlink:href="#rim" fill="#404040">
                        <set attributeName="fill" to="#808080" begin="arrowRight.mouseover" end="arrowRight.mouseout"/>
                  </use>
                  <path fill="none" stroke="white" stroke-width="1.5" d="M0,-3.0v7 M-2.5,-0.5L0,-3.0L2.5,-0.5"/>
                </g>
                <g id="arrowDown" xlink:href="#dirArrow" transform="rotate(180) translate(-30 -48)" onmousedown="handlePan(0,1)">
                  <use xlink:href="#rim" fill="#404040">
                        <set attributeName="fill" to="#808080" begin="arrowDown.mouseover" end="arrowDown.mouseout"/>
                  </use>
                  <path fill="none" stroke="white" stroke-width="1.5" d="M0,-3.0v7 M-2.5,-0.5L0,-3.0L2.5,-0.5"/>
                </g>
                <g id="arrowLeft" xlink:href="#dirArrow" transform="rotate(270) translate(-36 17)" onmousedown="handlePan(-1,0)">
                  <use xlink:href="#rim" fill="#404040">
                        <set attributeName="fill" to="#808080" begin="arrowLeft.mouseover" end="arrowLeft.mouseout"/>
                  </use>
                  <path fill="none" stroke="white" stroke-width="1.5" d="M0,-3.0v7 M-2.5,-0.5L0,-3.0L2.5,-0.5"/>
                </g>
        </g>
        <svg viewBox="0 0 15 15" width="100%" height="30px" preserveAspectRatio="xMaxYMin meet">
         <g id="arrow_out" transform="scale(0.3 0.3)">
          <a xlink:href="class_l_f_s_t_k__window_class_a44ac87492e69a53d19ec6f1c8bfba0c1_a44ac87492e69a53d19ec6f1c8bfba0c1_cgraph_org.svg" target="_base">
           <rect id="button" ry="5" rx="5" y="6" x="6" height="38" width="38"
                fill="#f2f5e9" fill-opacity="0.5" stroke="#606060" stroke-width="1.0"/>
           <path id="arrow"
             d="M 11.500037,31.436501 C 11.940474,20.09759 22.043105,11.32322 32.158766,21.979434 L 37.068811,17.246167 C 37.068811,17.246167 37.088388,32 37.088388,32 L 22.160133,31.978069 C 22.160133,31.978069 26.997745,27.140456 26.997745,27.140456 C 18.528582,18.264221 13.291696,25.230495 11.500037,31.436501 z"
             style="fill:#404040;"/>
          </a>
         </g>
        </svg>
</svg>
