<?xml version="1.0" encoding="UTF-8" standalone="no"?>
<!DOCTYPE svg PUBLIC "-//W3C//DTD SVG 1.1//EN"
 "http://www.w3.org/Graphics/SVG/1.1/DTD/svg11.dtd">
<!-- Generated by graphviz version 2.40.1 (20161225.0304)
 -->
<!-- Title: LFSTK_gadgetClass::LFSTK_setImageFromPath Pages: 1 -->
<svg width="974pt" height="282pt"
 viewBox="0.00 0.00 974.08 282.19" xmlns="http://www.w3.org/2000/svg" xmlns:xlink="http://www.w3.org/1999/xlink">
<g id="graph0" class="graph" transform="scale(1 1) rotate(0) translate(4 278.1855)">
<title>LFSTK_gadgetClass::LFSTK_setImageFromPath</title>
<!-- Node1 -->
<g id="node1" class="node">
<title>Node1</title>
<g id="a_node1"><a xlink:title=" ">
<polygon fill="#bfbfbf" stroke="#000000" points="828.396,-113.6855 828.396,-145.6855 966.085,-145.6855 966.085,-113.6855 828.396,-113.6855"/>
<text text-anchor="start" x="836.396" y="-132.6855" font-family="Helvetica,sans-Serif" font-size="10.00" fill="#000000">LFSTK_gadgetClass::</text>
<text text-anchor="middle" x="897.2405" y="-120.6855" font-family="Helvetica,sans-Serif" font-size="10.00" fill="#000000">LFSTK_setImageFromPath</text>
</a>
</g>
</g>
<!-- Node2 -->
<g id="node2" class="node">
<title>Node2</title>
<g id="a_node2"><a xlink:href="class_l_f_s_t_k__menu_class_a063a1196c3267ebac0f6e2f118ad4647.xhtml#a063a1196c3267ebac0f6e2f118ad4647" target="_top" xlink:title=" ">
<polygon fill="none" stroke="#000000" points="651.9365,-241.6855 651.9365,-273.6855 791.2865,-273.6855 791.2865,-241.6855 651.9365,-241.6855"/>
<text text-anchor="start" x="659.9365" y="-260.6855" font-family="Helvetica,sans-Serif" font-size="10.00" fill="#000000">LFSTK_menuClass::LFSTK</text>
<text text-anchor="middle" x="721.6115" y="-248.6855" font-family="Helvetica,sans-Serif" font-size="10.00" fill="#000000">_addMainMenus</text>
</a>
</g>
</g>
<!-- Node1&#45;&gt;Node2 -->
<g id="edge1" class="edge">
<title>Node1&#45;&gt;Node2</title>
<path fill="none" stroke="#191970" d="M878.1417,-153.794C858.7326,-176.8762 826.7112,-211.2663 792.396,-232.6855 787.0892,-235.9979 781.2839,-238.9471 775.3536,-241.5529"/>
<polygon fill="#191970" stroke="#191970" points="881.0353,-155.7865 884.7027,-145.8466 875.6372,-151.33 881.0353,-155.7865"/>
</g>
<!-- Node3 -->
<g id="node3" class="node">
<title>Node3</title>
<g id="a_node3"><a xlink:href="class_l_f_s_t_k__image_class_aff24b6452cb0a5d821b81770aa8f58d5.xhtml#aff24b6452cb0a5d821b81770aa8f58d5" target="_top" xlink:title=" ">
<polygon fill="none" stroke="#000000" points="650.827,-190.6855 650.827,-222.6855 792.396,-222.6855 792.396,-190.6855 650.827,-190.6855"/>
<text text-anchor="start" x="658.827" y="-209.6855" font-family="Helvetica,sans-Serif" font-size="10.00" fill="#000000">LFSTK_imageClass::LFSTK</text>
<text text-anchor="middle" x="721.6115" y="-197.6855" font-family="Helvetica,sans-Serif" font-size="10.00" fill="#000000">_imageClass</text>
</a>
</g>
</g>
<!-- Node1&#45;&gt;Node3 -->
<g id="edge2" class="edge">
<title>Node1&#45;&gt;Node3</title>
<path fill="none" stroke="#191970" d="M858.4978,-150.3006C838.9408,-160.3461 814.6909,-172.2602 792.396,-181.6855 785.0734,-184.7811 777.2215,-187.8209 769.5082,-190.6558"/>
<polygon fill="#191970" stroke="#191970" points="860.1393,-153.3921 867.4101,-145.6858 856.9206,-147.176 860.1393,-153.3921"/>
</g>
<!-- Node4 -->
<g id="node4" class="node">
<title>Node4</title>
<g id="a_node4"><a xlink:href="class_l_f_s_t_k__scroll_bar_class_a3da4281c24ac345ba32a4636ce2af38b.xhtml#a3da4281c24ac345ba32a4636ce2af38b" target="_top" xlink:title=" ">
<polygon fill="none" stroke="#000000" points="660.5555,-139.6855 660.5555,-171.6855 782.6675,-171.6855 782.6675,-139.6855 660.5555,-139.6855"/>
<text text-anchor="start" x="668.5555" y="-158.6855" font-family="Helvetica,sans-Serif" font-size="10.00" fill="#000000">LFSTK_scrollBarClass</text>
<text text-anchor="middle" x="721.6115" y="-146.6855" font-family="Helvetica,sans-Serif" font-size="10.00" fill="#000000">::LFSTK_scrollBarClass</text>
</a>
</g>
</g>
<!-- Node1&#45;&gt;Node4 -->
<g id="edge3" class="edge">
<title>Node1&#45;&gt;Node4</title>
<path fill="none" stroke="#191970" d="M818.4018,-141.3567C806.4953,-143.1193 794.3665,-144.9149 782.9031,-146.6119"/>
<polygon fill="#191970" stroke="#191970" points="818.9517,-144.8135 828.3313,-139.8867 817.9266,-137.889 818.9517,-144.8135"/>
</g>
<!-- Node5 -->
<g id="node5" class="node">
<title>Node5</title>
<g id="a_node5"><a xlink:href="class_l_f_s_t_k__list_gadget_class_abc8e7de85afdd0ddd7639668e579cd4e.xhtml#abc8e7de85afdd0ddd7639668e579cd4e" target="_top" xlink:title=" ">
<polygon fill="none" stroke="#000000" points="660.2705,-88.6855 660.2705,-120.6855 782.9525,-120.6855 782.9525,-88.6855 660.2705,-88.6855"/>
<text text-anchor="start" x="668.2705" y="-107.6855" font-family="Helvetica,sans-Serif" font-size="10.00" fill="#000000">LFSTK_listGadgetClass</text>
<text text-anchor="middle" x="721.6115" y="-95.6855" font-family="Helvetica,sans-Serif" font-size="10.00" fill="#000000">::LFSTK_setList</text>
</a>
</g>
</g>
<!-- Node1&#45;&gt;Node5 -->
<g id="edge4" class="edge">
<title>Node1&#45;&gt;Node5</title>
<path fill="none" stroke="#191970" d="M818.1109,-118.4217C806.3956,-116.7541 794.4721,-115.0569 783.1855,-113.4502"/>
<polygon fill="#191970" stroke="#191970" points="817.9379,-121.9323 828.3313,-119.8766 818.9244,-115.0022 817.9379,-121.9323"/>
</g>
<!-- Node14 -->
<g id="node14" class="node">
<title>Node14</title>
<g id="a_node14"><a xlink:href="class_l_f_s_t_k__list_gadget_class_a14695831a2f9362b99cdda134f551d83.xhtml#a14695831a2f9362b99cdda134f551d83" target="_top" xlink:title=" ">
<polygon fill="none" stroke="#000000" points="660.2705,-37.6855 660.2705,-69.6855 782.9525,-69.6855 782.9525,-37.6855 660.2705,-37.6855"/>
<text text-anchor="start" x="668.2705" y="-56.6855" font-family="Helvetica,sans-Serif" font-size="10.00" fill="#000000">LFSTK_listGadgetClass</text>
<text text-anchor="middle" x="721.6115" y="-44.6855" font-family="Helvetica,sans-Serif" font-size="10.00" fill="#000000">::scrollCB</text>
</a>
</g>
</g>
<!-- Node1&#45;&gt;Node14 -->
<g id="edge14" class="edge">
<title>Node1&#45;&gt;Node14</title>
<path fill="none" stroke="#191970" d="M856.3897,-109.1181C837.1613,-99.7183 813.7989,-88.6967 792.396,-79.6855 784.3118,-76.2818 775.6107,-72.8788 767.1693,-69.7093"/>
<polygon fill="#191970" stroke="#191970" points="854.9524,-112.3116 865.4702,-113.5864 858.043,-106.0308 854.9524,-112.3116"/>
</g>
<!-- Node16 -->
<g id="node16" class="node">
<title>Node16</title>
<g id="a_node16"><a xlink:href="class_l_f_s_t_k__file_dialog_class_ac7703591352d5105def9c5293fbeed62.xhtml#ac7703591352d5105def9c5293fbeed62" target="_top" xlink:title=" ">
<polygon fill="none" stroke="#000000" points="327.077,-18.6855 327.077,-50.6855 445.858,-50.6855 445.858,-18.6855 327.077,-18.6855"/>
<text text-anchor="start" x="335.077" y="-37.6855" font-family="Helvetica,sans-Serif" font-size="10.00" fill="#000000">LFSTK_fileDialogClass</text>
<text text-anchor="middle" x="386.4675" y="-25.6855" font-family="Helvetica,sans-Serif" font-size="10.00" fill="#000000">::setPreviewData</text>
</a>
</g>
</g>
<!-- Node1&#45;&gt;Node16 -->
<g id="edge16" class="edge">
<title>Node1&#45;&gt;Node16</title>
<path fill="none" stroke="#191970" d="M880.8448,-105.3943C862.5837,-80.7398 830.5568,-44.0763 792.396,-28.6855 676.8628,17.9109 527.3614,-2.6959 445.8709,-19.9199"/>
<polygon fill="#191970" stroke="#191970" points="878.037,-107.4848 886.7173,-113.5595 883.7199,-103.3975 878.037,-107.4848"/>
</g>
<!-- Node6 -->
<g id="node6" class="node">
<title>Node6</title>
<g id="a_node6"><a xlink:href="class_l_f_s_t_k__font_dialog_class_af866eb2b1ba8178c9cf3e751716fcc8e.xhtml#af866eb2b1ba8178c9cf3e751716fcc8e" target="_top" xlink:title=" ">
<polygon fill="none" stroke="#000000" points="489.3665,-190.6855 489.3665,-222.6855 612.0475,-222.6855 612.0475,-190.6855 489.3665,-190.6855"/>
<text text-anchor="start" x="497.3665" y="-209.6855" font-family="Helvetica,sans-Serif" font-size="10.00" fill="#000000">LFSTK_fontDialogClass</text>
<text text-anchor="middle" x="550.707" y="-197.6855" font-family="Helvetica,sans-Serif" font-size="10.00" fill="#000000">::buildDialog</text>
</a>
</g>
</g>
<!-- Node5&#45;&gt;Node6 -->
<g id="edge5" class="edge">
<title>Node5&#45;&gt;Node6</title>
<path fill="none" stroke="#191970" d="M658.2058,-125.6452C655.6383,-127.2153 653.1647,-128.8933 650.827,-130.6855 628.8083,-147.5661 636.6779,-164.5882 614.827,-181.6855 610.4984,-185.0724 605.6552,-188.0493 600.6219,-190.6542"/>
<polygon fill="#191970" stroke="#191970" points="660.1369,-128.5786 667.2361,-120.714 656.782,-122.4349 660.1369,-128.5786"/>
</g>
<!-- Node8 -->
<g id="node8" class="node">
<title>Node8</title>
<g id="a_node8"><a xlink:href="class_l_f_s_t_k__file_dialog_class_a0a6b4f1db71031bf35a7636b736e8698.xhtml#a0a6b4f1db71031bf35a7636b736e8698" target="_top" xlink:title=" ">
<polygon fill="none" stroke="#000000" points="491.3165,-139.6855 491.3165,-171.6855 610.0975,-171.6855 610.0975,-139.6855 491.3165,-139.6855"/>
<text text-anchor="start" x="499.3165" y="-158.6855" font-family="Helvetica,sans-Serif" font-size="10.00" fill="#000000">LFSTK_fileDialogClass</text>
<text text-anchor="middle" x="550.707" y="-146.6855" font-family="Helvetica,sans-Serif" font-size="10.00" fill="#000000">::getFileList</text>
</a>
</g>
</g>
<!-- Node5&#45;&gt;Node8 -->
<g id="edge7" class="edge">
<title>Node5&#45;&gt;Node8</title>
<path fill="none" stroke="#191970" d="M657.916,-123.693C640.3181,-128.9444 621.4013,-134.5894 604.4305,-139.6537"/>
<polygon fill="#191970" stroke="#191970" points="658.9547,-127.0356 667.5362,-120.8222 656.9529,-120.3279 658.9547,-127.0356"/>
</g>
<!-- Node13 -->
<g id="node13" class="node">
<title>Node13</title>
<g id="a_node13"><a xlink:href="class_l_f_s_t_k__list_gadget_class_addcdb5ba330fd8dd36beb94ea2081dd3.xhtml#addcdb5ba330fd8dd36beb94ea2081dd3" target="_top" xlink:title=" ">
<polygon fill="none" stroke="#000000" points="487.4275,-88.6855 487.4275,-120.6855 613.9865,-120.6855 613.9865,-88.6855 487.4275,-88.6855"/>
<text text-anchor="start" x="495.4275" y="-107.6855" font-family="Helvetica,sans-Serif" font-size="10.00" fill="#000000">LFSTK_listGadgetClass</text>
<text text-anchor="middle" x="550.707" y="-95.6855" font-family="Helvetica,sans-Serif" font-size="10.00" fill="#000000">::LFSTK_setListFromFile</text>
</a>
</g>
</g>
<!-- Node5&#45;&gt;Node13 -->
<g id="edge13" class="edge">
<title>Node5&#45;&gt;Node13</title>
<path fill="none" stroke="#191970" d="M649.6352,-104.6855C637.8118,-104.6855 625.6352,-104.6855 614.042,-104.6855"/>
<polygon fill="#191970" stroke="#191970" points="649.9111,-108.1856 659.9111,-104.6855 649.911,-101.1856 649.9111,-108.1856"/>
</g>
<!-- Node7 -->
<g id="node7" class="node">
<title>Node7</title>
<g id="a_node7"><a xlink:href="class_l_f_s_t_k__font_dialog_class_ab7b6a4bca99713646ab6ac77dc34827c.xhtml#ab7b6a4bca99713646ab6ac77dc34827c" target="_top" xlink:title=" ">
<polygon fill="none" stroke="#000000" points="322.348,-190.6855 322.348,-222.6855 450.587,-222.6855 450.587,-190.6855 322.348,-190.6855"/>
<text text-anchor="start" x="330.348" y="-209.6855" font-family="Helvetica,sans-Serif" font-size="10.00" fill="#000000">LFSTK_fontDialogClass</text>
<text text-anchor="middle" x="386.4675" y="-197.6855" font-family="Helvetica,sans-Serif" font-size="10.00" fill="#000000">::LFSTK_fontDialogClass</text>
</a>
</g>
</g>
<!-- Node6&#45;&gt;Node7 -->
<g id="edge6" class="edge">
<title>Node6&#45;&gt;Node7</title>
<path fill="none" stroke="#191970" d="M478.9527,-206.6855C469.5278,-206.6855 459.9179,-206.6855 450.6301,-206.6855"/>
<polygon fill="#191970" stroke="#191970" points="479.083,-210.1856 489.083,-206.6855 479.083,-203.1856 479.083,-210.1856"/>
</g>
<!-- Node9 -->
<g id="node9" class="node">
<title>Node9</title>
<g id="a_node9"><a xlink:href="class_l_f_s_t_k__file_dialog_class_a553ce8e885b0d60cbf515b7b3d1e8b65.xhtml#a553ce8e885b0d60cbf515b7b3d1e8b65" target="_top" xlink:title=" ">
<polygon fill="none" stroke="#000000" points="0,-91.6855 0,-123.6855 124.339,-123.6855 124.339,-91.6855 0,-91.6855"/>
<text text-anchor="start" x="8" y="-110.6855" font-family="Helvetica,sans-Serif" font-size="10.00" fill="#000000">LFSTK_fileDialogClass</text>
<text text-anchor="middle" x="62.1695" y="-98.6855" font-family="Helvetica,sans-Serif" font-size="10.00" fill="#000000">::LFSTK_fileDialogClass</text>
</a>
</g>
</g>
<!-- Node8&#45;&gt;Node9 -->
<g id="edge8" class="edge">
<title>Node8&#45;&gt;Node9</title>
<path fill="none" stroke="#191970" d="M480.7877,-157.2746C402.2528,-157.9063 271.2595,-155.4901 160.339,-136.6855 142.9928,-133.7447 124.3814,-128.7415 108.0776,-123.7107"/>
<polygon fill="#191970" stroke="#191970" points="481.0775,-160.772 491.0421,-157.1723 481.0076,-153.7723 481.0775,-160.772"/>
</g>
<!-- Node10 -->
<g id="node10" class="node">
<title>Node10</title>
<g id="a_node10"><a xlink:href="class_l_f_s_t_k__file_dialog_class_aa8804989d381def9acb2c99d47d6dc3d.xhtml#aa8804989d381def9acb2c99d47d6dc3d" target="_top" xlink:title=" ">
<polygon fill="none" stroke="#000000" points="325.967,-94.6855 325.967,-126.6855 446.968,-126.6855 446.968,-94.6855 325.967,-94.6855"/>
<text text-anchor="start" x="333.967" y="-113.6855" font-family="Helvetica,sans-Serif" font-size="10.00" fill="#000000">LFSTK_fileDialogClass</text>
<text text-anchor="middle" x="386.4675" y="-101.6855" font-family="Helvetica,sans-Serif" font-size="10.00" fill="#000000">::LFSTK_setWorkingDir</text>
</a>
</g>
</g>
<!-- Node8&#45;&gt;Node10 -->
<g id="edge9" class="edge">
<title>Node8&#45;&gt;Node10</title>
<path fill="none" stroke="#191970" d="M482.0734,-136.8805C469.7097,-133.493 456.9267,-129.9906 444.8871,-126.6919"/>
<polygon fill="#191970" stroke="#191970" points="481.3072,-140.2996 491.8767,-139.5665 483.157,-133.5484 481.3072,-140.2996"/>
</g>
<!-- Node11 -->
<g id="node11" class="node">
<title>Node11</title>
<g id="a_node11"><a xlink:href="class_l_f_s_t_k__file_dialog_class_aacf1d4b61cbb5b40d06f591ea96f9ea7.xhtml#aacf1d4b61cbb5b40d06f591ea96f9ea7" target="_top" xlink:title=" ">
<polygon fill="none" stroke="#000000" points="160.339,-94.6855 160.339,-126.6855 286.348,-126.6855 286.348,-94.6855 160.339,-94.6855"/>
<text text-anchor="start" x="168.339" y="-113.6855" font-family="Helvetica,sans-Serif" font-size="10.00" fill="#000000">LFSTK_fileDialogClass</text>
<text text-anchor="middle" x="223.3435" y="-101.6855" font-family="Helvetica,sans-Serif" font-size="10.00" fill="#000000">::LFSTK_showFileDialog</text>
</a>
</g>
</g>
<!-- Node10&#45;&gt;Node11 -->
<g id="edge10" class="edge">
<title>Node10&#45;&gt;Node11</title>
<path fill="none" stroke="#191970" d="M315.7256,-110.6855C306.0345,-110.6855 296.1359,-110.6855 286.5902,-110.6855"/>
<polygon fill="#191970" stroke="#191970" points="315.7262,-114.1856 325.7261,-110.6855 315.7261,-107.1856 315.7262,-114.1856"/>
</g>
<!-- Node12 -->
<g id="node12" class="node">
<title>Node12</title>
<g id="a_node12"><a xlink:href="class_l_f_s_t_k__file_dialog_class_a789cade9437906181e31a243c85d52e5.xhtml#a789cade9437906181e31a243c85d52e5" target="_top" xlink:title=" ">
<polygon fill="none" stroke="#000000" points="163.953,-43.6855 163.953,-75.6855 282.734,-75.6855 282.734,-43.6855 163.953,-43.6855"/>
<text text-anchor="start" x="171.953" y="-62.6855" font-family="Helvetica,sans-Serif" font-size="10.00" fill="#000000">LFSTK_fileDialogClass</text>
<text text-anchor="middle" x="223.3435" y="-50.6855" font-family="Helvetica,sans-Serif" font-size="10.00" fill="#000000">::select</text>
</a>
</g>
</g>
<!-- Node10&#45;&gt;Node12 -->
<g id="edge11" class="edge">
<title>Node10&#45;&gt;Node12</title>
<path fill="none" stroke="#191970" d="M325.2049,-91.532C308.5408,-86.322 290.6694,-80.7346 274.6212,-75.7172"/>
<polygon fill="#191970" stroke="#191970" points="324.2652,-94.9052 334.854,-94.5488 326.3541,-88.2241 324.2652,-94.9052"/>
</g>
<!-- Node12&#45;&gt;Node9 -->
<g id="edge12" class="edge">
<title>Node12&#45;&gt;Node9</title>
<path fill="none" stroke="#191970" d="M159.442,-78.7163C145.1046,-82.9862 130.0303,-87.4755 116.1436,-91.6112"/>
<polygon fill="#191970" stroke="#191970" points="160.6415,-82.011 169.2265,-75.8023 158.6435,-75.3022 160.6415,-82.011"/>
</g>
<!-- Node15 -->
<g id="node15" class="node">
<title>Node15</title>
<g id="a_node15"><a xlink:href="class_l_f_s_t_k__list_gadget_class_ae3518016f28ec3cd261ad927c5691826.xhtml#ae3518016f28ec3cd261ad927c5691826" target="_top" xlink:title=" ">
<polygon fill="none" stroke="#000000" points="486.587,-37.6855 486.587,-69.6855 614.827,-69.6855 614.827,-37.6855 486.587,-37.6855"/>
<text text-anchor="start" x="494.587" y="-56.6855" font-family="Helvetica,sans-Serif" font-size="10.00" fill="#000000">LFSTK_listGadgetClass</text>
<text text-anchor="middle" x="550.707" y="-44.6855" font-family="Helvetica,sans-Serif" font-size="10.00" fill="#000000">::LFSTK_listGadgetClass</text>
</a>
</g>
</g>
<!-- Node14&#45;&gt;Node15 -->
<g id="edge15" class="edge">
<title>Node14&#45;&gt;Node15</title>
<path fill="none" stroke="#191970" d="M649.835,-53.6855C638.2428,-53.6855 626.306,-53.6855 614.9078,-53.6855"/>
<polygon fill="#191970" stroke="#191970" points="649.9111,-57.1856 659.9111,-53.6855 649.911,-50.1856 649.9111,-57.1856"/>
</g>
<!-- Node16&#45;&gt;Node12 -->
<g id="edge17" class="edge">
<title>Node16&#45;&gt;Node12</title>
<path fill="none" stroke="#191970" d="M316.4816,-45.4114C305.2887,-47.1267 293.799,-48.8876 282.8787,-50.5612"/>
<polygon fill="#191970" stroke="#191970" points="317.2981,-48.8272 326.6524,-43.8526 316.2376,-41.908 317.2981,-48.8272"/>
</g>
</g>
</svg>
