<?xml version="1.0" encoding="UTF-8" standalone="no"?>
<!DOCTYPE svg PUBLIC "-//W3C//DTD SVG 1.1//EN"
 "http://www.w3.org/Graphics/SVG/1.1/DTD/svg11.dtd">
<!-- Generated by graphviz version 2.40.1 (20161225.0304)
 -->
<!-- Title: LFSTK_findClass::LFSTK_sortByType Pages: 1 -->
<svg width="401pt" height="41pt"
 viewBox="0.00 0.00 400.81 41.00" xmlns="http://www.w3.org/2000/svg" xmlns:xlink="http://www.w3.org/1999/xlink">
<g id="graph0" class="graph" transform="scale(1 1) rotate(0) translate(4 37)">
<title>LFSTK_findClass::LFSTK_sortByType</title>
<!-- Node1 -->
<g id="node1" class="node">
<title>Node1</title>
<g id="a_node1"><a xlink:title=" ">
<polygon fill="#bfbfbf" stroke="#000000" points="0,-.5 0,-32.5 130.46,-32.5 130.46,-.5 0,-.5"/>
<text text-anchor="start" x="8" y="-19.5" font-family="Helvetica,sans-Serif" font-size="10.00" fill="#000000">LFSTK_findClass::LFSTK</text>
<text text-anchor="middle" x="65.23" y="-7.5" font-family="Helvetica,sans-Serif" font-size="10.00" fill="#000000">_sortByType</text>
</a>
</g>
</g>
<!-- Node2 -->
<g id="node2" class="node">
<title>Node2</title>
<g id="a_node2"><a xlink:href="_l_f_s_t_k_find_class_8cpp_aa35b9e309f9f421a0d5f975f82e3267e.xhtml#aa35b9e309f9f421a0d5f975f82e3267e" target="_top" xlink:title=" ">
<polygon fill="none" stroke="#000000" points="166.46,-6.5 166.46,-26.5 226.352,-26.5 226.352,-6.5 166.46,-6.5"/>
<text text-anchor="middle" x="196.406" y="-13.5" font-family="Helvetica,sans-Serif" font-size="10.00" fill="#000000">sortDataT</text>
</a>
</g>
</g>
<!-- Node1&#45;&gt;Node2 -->
<g id="edge1" class="edge">
<title>Node1&#45;&gt;Node2</title>
<path fill="none" stroke="#191970" d="M130.818,-16.5C139.4578,-16.5 148.0977,-16.5 156.1379,-16.5"/>
<polygon fill="#191970" stroke="#191970" points="156.3116,-20.0001 166.3116,-16.5 156.3115,-13.0001 156.3116,-20.0001"/>
</g>
<!-- Node3 -->
<g id="node3" class="node">
<title>Node3</title>
<g id="a_node3"><a xlink:href="class_l_f_s_t_k__find_class_a34a08ade9e47801d87f5ab53f9b1a055.xhtml#a34a08ade9e47801d87f5ab53f9b1a055" target="_top" xlink:title=" ">
<polygon fill="none" stroke="#000000" points="262.352,-.5 262.352,-32.5 392.812,-32.5 392.812,-.5 262.352,-.5"/>
<text text-anchor="start" x="270.352" y="-19.5" font-family="Helvetica,sans-Serif" font-size="10.00" fill="#000000">LFSTK_findClass::LFSTK</text>
<text text-anchor="middle" x="327.582" y="-7.5" font-family="Helvetica,sans-Serif" font-size="10.00" fill="#000000">_getSort</text>
</a>
</g>
</g>
<!-- Node2&#45;&gt;Node3 -->
<g id="edge2" class="edge">
<title>Node2&#45;&gt;Node3</title>
<path fill="none" stroke="#191970" d="M226.5004,-16.5C234.3043,-16.5 243.0676,-16.5 252.0867,-16.5"/>
<polygon fill="#191970" stroke="#191970" points="252.3408,-20.0001 262.3408,-16.5 252.3407,-13.0001 252.3408,-20.0001"/>
</g>
</g>
</svg>
