<?xml version="1.0" encoding="UTF-8" standalone="no"?>
<!DOCTYPE svg PUBLIC "-//W3C//DTD SVG 1.1//EN"
 "http://www.w3.org/Graphics/SVG/1.1/DTD/svg11.dtd">
<!-- Generated by graphviz version 2.40.1 (20161225.0304)
 -->
<!-- Title: LFSTK_gadgetClass::LFSTK_setActive Pages: 1 -->
<svg width="943pt" height="593pt"
 viewBox="0.00 0.00 942.96 593.35" xmlns="http://www.w3.org/2000/svg" xmlns:xlink="http://www.w3.org/1999/xlink">
<g id="graph0" class="graph" transform="scale(1 1) rotate(0) translate(4 589.3466)">
<title>LFSTK_gadgetClass::LFSTK_setActive</title>
<!-- Node1 -->
<g id="node1" class="node">
<title>Node1</title>
<g id="a_node1"><a xlink:title=" ">
<polygon fill="#bfbfbf" stroke="#000000" points="821.158,-229.5 821.158,-261.5 934.961,-261.5 934.961,-229.5 821.158,-229.5"/>
<text text-anchor="start" x="829.158" y="-248.5" font-family="Helvetica,sans-Serif" font-size="10.00" fill="#000000">LFSTK_gadgetClass::</text>
<text text-anchor="middle" x="878.0595" y="-236.5" font-family="Helvetica,sans-Serif" font-size="10.00" fill="#000000">LFSTK_setActive</text>
</a>
</g>
</g>
<!-- Node2 -->
<g id="node2" class="node">
<title>Node2</title>
<g id="a_node2"><a xlink:href="class_l_f_s_t_k__gadget_class_af7a3a7b33909c6560b1cf27033548c46.xhtml#af7a3a7b33909c6560b1cf27033548c46" target="_top" xlink:title=" ">
<polygon fill="none" stroke="#000000" points="666.9155,-229.5 666.9155,-261.5 780.7185,-261.5 780.7185,-229.5 666.9155,-229.5"/>
<text text-anchor="start" x="674.9155" y="-248.5" font-family="Helvetica,sans-Serif" font-size="10.00" fill="#000000">LFSTK_gadgetClass::</text>
<text text-anchor="middle" x="723.817" y="-236.5" font-family="Helvetica,sans-Serif" font-size="10.00" fill="#000000">initGadget</text>
</a>
</g>
</g>
<!-- Node1&#45;&gt;Node2 -->
<g id="edge1" class="edge">
<title>Node1&#45;&gt;Node2</title>
<path fill="none" stroke="#191970" d="M810.7702,-245.5C800.7876,-245.5 790.5816,-245.5 780.8361,-245.5"/>
<polygon fill="#191970" stroke="#191970" points="811.0635,-249.0001 821.0635,-245.5 811.0635,-242.0001 811.0635,-249.0001"/>
</g>
<!-- Node9 -->
<g id="node9" class="node">
<title>Node9</title>
<g id="a_node9"><a xlink:href="class_l_f_s_t_k__list_gadget_class_ae3518016f28ec3cd261ad927c5691826.xhtml#ae3518016f28ec3cd261ad927c5691826" target="_top" xlink:title=" ">
<polygon fill="none" stroke="#000000" points="329.0125,-.5 329.0125,-32.5 457.2525,-32.5 457.2525,-.5 329.0125,-.5"/>
<text text-anchor="start" x="337.0125" y="-19.5" font-family="Helvetica,sans-Serif" font-size="10.00" fill="#000000">LFSTK_listGadgetClass</text>
<text text-anchor="middle" x="393.1325" y="-7.5" font-family="Helvetica,sans-Serif" font-size="10.00" fill="#000000">::LFSTK_listGadgetClass</text>
</a>
</g>
</g>
<!-- Node1&#45;&gt;Node9 -->
<g id="edge13" class="edge">
<title>Node1&#45;&gt;Node9</title>
<path fill="none" stroke="#191970" d="M839.2695,-224.4636C766.7814,-185.5894 605.301,-101.0436 463.917,-41.5 456.5902,-38.4143 448.736,-35.3797 441.0219,-32.547"/>
<polygon fill="#191970" stroke="#191970" points="838.0198,-227.7654 848.4851,-229.4171 841.334,-221.5997 838.0198,-227.7654"/>
</g>
<!-- Node14 -->
<g id="node14" class="node">
<title>Node14</title>
<g id="a_node14"><a xlink:href="class_l_f_s_t_k__list_gadget_class_a7b9a3f3a749e622fdd46da8f72da2002.xhtml#a7b9a3f3a749e622fdd46da8f72da2002" target="_top" xlink:title=" ">
<polygon fill="none" stroke="#000000" points="662.476,-471.5 662.476,-503.5 785.158,-503.5 785.158,-471.5 662.476,-471.5"/>
<text text-anchor="start" x="670.476" y="-490.5" font-family="Helvetica,sans-Serif" font-size="10.00" fill="#000000">LFSTK_listGadgetClass</text>
<text text-anchor="middle" x="723.817" y="-478.5" font-family="Helvetica,sans-Serif" font-size="10.00" fill="#000000">::LFSTK_updateList</text>
</a>
</g>
</g>
<!-- Node1&#45;&gt;Node14 -->
<g id="edge14" class="edge">
<title>Node1&#45;&gt;Node14</title>
<path fill="none" stroke="#191970" d="M862.2723,-270.2694C830.6974,-319.8091 760.5343,-429.8921 734.1317,-471.3167"/>
<polygon fill="#191970" stroke="#191970" points="865.2764,-272.0681 867.6997,-261.7541 859.3734,-268.3057 865.2764,-272.0681"/>
</g>
<!-- Node3 -->
<g id="node3" class="node">
<title>Node3</title>
<g id="a_node3"><a xlink:href="class_l_f_s_t_k__gadget_class_a13d0e1c40a4feae0531c0ce9188bcd62.xhtml#a13d0e1c40a4feae0531c0ce9188bcd62" target="_top" xlink:title=" ">
<polygon fill="none" stroke="#000000" points="506.295,-229.5 506.295,-261.5 620.098,-261.5 620.098,-229.5 506.295,-229.5"/>
<text text-anchor="start" x="514.295" y="-248.5" font-family="Helvetica,sans-Serif" font-size="10.00" fill="#000000">LFSTK_gadgetClass::</text>
<text text-anchor="middle" x="563.1965" y="-236.5" font-family="Helvetica,sans-Serif" font-size="10.00" fill="#000000">LFSTK_setCommon</text>
</a>
</g>
</g>
<!-- Node2&#45;&gt;Node3 -->
<g id="edge2" class="edge">
<title>Node2&#45;&gt;Node3</title>
<path fill="none" stroke="#191970" d="M656.7077,-245.5C644.6248,-245.5 632.1321,-245.5 620.3642,-245.5"/>
<polygon fill="#191970" stroke="#191970" points="656.736,-249.0001 666.736,-245.5 656.7359,-242.0001 656.736,-249.0001"/>
</g>
<!-- Node4 -->
<g id="node4" class="node">
<title>Node4</title>
<g id="a_node4"><a xlink:href="class_l_f_s_t_k__button_class_a2b46d2136069e61fc8c8ee88519b2a8f.xhtml#a2b46d2136069e61fc8c8ee88519b2a8f" target="_top" xlink:title=" ">
<polygon fill="none" stroke="#000000" points="337.621,-204.5 337.621,-236.5 448.644,-236.5 448.644,-204.5 337.621,-204.5"/>
<text text-anchor="start" x="345.621" y="-223.5" font-family="Helvetica,sans-Serif" font-size="10.00" fill="#000000">LFSTK_buttonClass::</text>
<text text-anchor="middle" x="393.1325" y="-211.5" font-family="Helvetica,sans-Serif" font-size="10.00" fill="#000000">LFSTK_buttonClass</text>
</a>
</g>
</g>
<!-- Node3&#45;&gt;Node4 -->
<g id="edge3" class="edge">
<title>Node3&#45;&gt;Node4</title>
<path fill="none" stroke="#191970" d="M495.992,-235.6207C480.3995,-233.3286 463.9696,-230.9133 448.9291,-228.7023"/>
<polygon fill="#191970" stroke="#191970" points="495.6918,-239.1141 506.0946,-237.1058 496.71,-232.1885 495.6918,-239.1141"/>
</g>
<!-- Node5 -->
<g id="node5" class="node">
<title>Node5</title>
<g id="a_node5"><a xlink:href="class_l_f_s_t_k__font_dialog_class_ab7b6a4bca99713646ab6ac77dc34827c.xhtml#ab7b6a4bca99713646ab6ac77dc34827c" target="_top" xlink:title=" ">
<polygon fill="none" stroke="#000000" points="329.013,-459.5 329.013,-491.5 457.252,-491.5 457.252,-459.5 329.013,-459.5"/>
<text text-anchor="start" x="337.013" y="-478.5" font-family="Helvetica,sans-Serif" font-size="10.00" fill="#000000">LFSTK_fontDialogClass</text>
<text text-anchor="middle" x="393.1325" y="-466.5" font-family="Helvetica,sans-Serif" font-size="10.00" fill="#000000">::LFSTK_fontDialogClass</text>
</a>
</g>
</g>
<!-- Node3&#45;&gt;Node5 -->
<g id="edge4" class="edge">
<title>Node3&#45;&gt;Node5</title>
<path fill="none" stroke="#191970" d="M557.2174,-271.746C546.1143,-314.7434 518.3316,-400.3168 463.917,-449.5 459.6436,-453.3626 454.7481,-456.6655 449.5706,-459.487"/>
<polygon fill="#191970" stroke="#191970" points="560.6789,-272.3282 559.6869,-261.7799 553.8844,-270.6445 560.6789,-272.3282"/>
</g>
<!-- Node6 -->
<g id="node6" class="node">
<title>Node6</title>
<g id="a_node6"><a xlink:href="class_l_f_s_t_k__image_class_aff24b6452cb0a5d821b81770aa8f58d5.xhtml#aff24b6452cb0a5d821b81770aa8f58d5" target="_top" xlink:title=" ">
<polygon fill="none" stroke="#000000" points="322.348,-153.5 322.348,-185.5 463.917,-185.5 463.917,-153.5 322.348,-153.5"/>
<text text-anchor="start" x="330.348" y="-172.5" font-family="Helvetica,sans-Serif" font-size="10.00" fill="#000000">LFSTK_imageClass::LFSTK</text>
<text text-anchor="middle" x="393.1325" y="-160.5" font-family="Helvetica,sans-Serif" font-size="10.00" fill="#000000">_imageClass</text>
</a>
</g>
</g>
<!-- Node3&#45;&gt;Node6 -->
<g id="edge5" class="edge">
<title>Node3&#45;&gt;Node6</title>
<path fill="none" stroke="#191970" d="M525.6806,-224.7089C507.3392,-214.9382 484.7716,-203.4905 463.917,-194.5 456.7361,-191.4043 449.033,-188.3864 441.4468,-185.5799"/>
<polygon fill="#191970" stroke="#191970" points="524.1213,-227.8443 534.5863,-229.4976 527.4364,-221.6791 524.1213,-227.8443"/>
</g>
<!-- Node7 -->
<g id="node7" class="node">
<title>Node7</title>
<g id="a_node7"><a xlink:href="class_l_f_s_t_k__label_class_a6085feaa122a3d1060351c659889628c.xhtml#a6085feaa122a3d1060351c659889628c" target="_top" xlink:title=" ">
<polygon fill="none" stroke="#000000" points="325.403,-102.5 325.403,-134.5 460.862,-134.5 460.862,-102.5 325.403,-102.5"/>
<text text-anchor="start" x="333.403" y="-121.5" font-family="Helvetica,sans-Serif" font-size="10.00" fill="#000000">LFSTK_labelClass::LFSTK</text>
<text text-anchor="middle" x="393.1325" y="-109.5" font-family="Helvetica,sans-Serif" font-size="10.00" fill="#000000">_labelClass</text>
</a>
</g>
</g>
<!-- Node3&#45;&gt;Node7 -->
<g id="edge6" class="edge">
<title>Node3&#45;&gt;Node7</title>
<path fill="none" stroke="#191970" d="M545.0907,-221.2816C526.852,-198.395 496.771,-164.5218 463.917,-143.5 458.6476,-140.1283 452.8657,-137.1421 446.9487,-134.5154"/>
<polygon fill="#191970" stroke="#191970" points="542.5685,-223.7385 551.482,-229.4655 548.0854,-219.4299 542.5685,-223.7385"/>
</g>
<!-- Node8 -->
<g id="node8" class="node">
<title>Node8</title>
<g id="a_node8"><a xlink:href="class_l_f_s_t_k__line_edit_class_af610951625203a6d75bce118b2b94386.xhtml#af610951625203a6d75bce118b2b94386" target="_top" xlink:title=" ">
<polygon fill="none" stroke="#000000" points="335.127,-51.5 335.127,-83.5 451.138,-83.5 451.138,-51.5 335.127,-51.5"/>
<text text-anchor="start" x="343.127" y="-70.5" font-family="Helvetica,sans-Serif" font-size="10.00" fill="#000000">LFSTK_lineEditClass</text>
<text text-anchor="middle" x="393.1325" y="-58.5" font-family="Helvetica,sans-Serif" font-size="10.00" fill="#000000">::LFSTK_lineEditClass</text>
</a>
</g>
</g>
<!-- Node3&#45;&gt;Node8 -->
<g id="edge7" class="edge">
<title>Node3&#45;&gt;Node8</title>
<path fill="none" stroke="#191970" d="M549.4543,-220.2245C528.0373,-181.6153 486.7879,-110.5214 463.917,-92.5 459.6175,-89.1122 454.8235,-86.1631 449.8131,-83.5999"/>
<polygon fill="#191970" stroke="#191970" points="546.5572,-222.2192 554.4488,-229.2884 552.6881,-218.8409 546.5572,-222.2192"/>
</g>
<!-- Node3&#45;&gt;Node9 -->
<g id="edge8" class="edge">
<title>Node3&#45;&gt;Node9</title>
<path fill="none" stroke="#191970" d="M547.3042,-220.4904C533.7495,-198.5793 514.2396,-165.6184 499.917,-135.5 480.7045,-95.0988 495.963,-72.716 463.917,-41.5 460.4628,-38.1352 456.5284,-35.2209 452.3248,-32.697"/>
<polygon fill="#191970" stroke="#191970" points="544.4531,-222.5328 552.7163,-229.1638 550.3918,-218.8271 544.4531,-222.5328"/>
</g>
<!-- Node10 -->
<g id="node10" class="node">
<title>Node10</title>
<g id="a_node10"><a xlink:href="class_l_f_s_t_k__menu_item_class_a382a9775dff59f06606ef0b3f43382cc.xhtml#a382a9775dff59f06606ef0b3f43382cc" target="_top" xlink:title=" ">
<polygon fill="none" stroke="#000000" points="329.292,-408.5 329.292,-440.5 456.973,-440.5 456.973,-408.5 329.292,-408.5"/>
<text text-anchor="start" x="337.292" y="-427.5" font-family="Helvetica,sans-Serif" font-size="10.00" fill="#000000">LFSTK_menuItemClass</text>
<text text-anchor="middle" x="393.1325" y="-415.5" font-family="Helvetica,sans-Serif" font-size="10.00" fill="#000000">::LFSTK_menuItemClass</text>
</a>
</g>
</g>
<!-- Node3&#45;&gt;Node10 -->
<g id="edge9" class="edge">
<title>Node3&#45;&gt;Node10</title>
<path fill="none" stroke="#191970" d="M552.6521,-271.4312C537.6845,-305.1914 507.2033,-363.9513 463.917,-398.5 459.1079,-402.3384 453.6787,-405.6437 448.0192,-408.4824"/>
<polygon fill="#191970" stroke="#191970" points="556.0543,-272.3799 556.7962,-261.811 549.6254,-269.6105 556.0543,-272.3799"/>
</g>
<!-- Node11 -->
<g id="node11" class="node">
<title>Node11</title>
<g id="a_node11"><a xlink:href="class_l_f_s_t_k__multi_line_edit_class_a3319d21c84b3437e69bb87dc77531322.xhtml#a3319d21c84b3437e69bb87dc77531322" target="_top" xlink:title=" ">
<polygon fill="none" stroke="#000000" points="322.9045,-357.5 322.9045,-389.5 463.3605,-389.5 463.3605,-357.5 322.9045,-357.5"/>
<text text-anchor="start" x="330.9045" y="-376.5" font-family="Helvetica,sans-Serif" font-size="10.00" fill="#000000">LFSTK_multiLineEditClass</text>
<text text-anchor="middle" x="393.1325" y="-364.5" font-family="Helvetica,sans-Serif" font-size="10.00" fill="#000000">::LFSTK_multiLineEditClass</text>
</a>
</g>
</g>
<!-- Node3&#45;&gt;Node11 -->
<g id="edge10" class="edge">
<title>Node3&#45;&gt;Node11</title>
<path fill="none" stroke="#191970" d="M544.9645,-269.7127C526.6762,-292.5315 496.5984,-326.2994 463.917,-347.5 458.2057,-351.2049 451.8941,-354.4775 445.4617,-357.3404"/>
<polygon fill="#191970" stroke="#191970" points="547.7215,-271.8689 551.1518,-261.8448 542.219,-267.5418 547.7215,-271.8689"/>
</g>
<!-- Node12 -->
<g id="node12" class="node">
<title>Node12</title>
<g id="a_node12"><a xlink:href="class_l_f_s_t_k__scroll_bar_class_a3da4281c24ac345ba32a4636ce2af38b.xhtml#a3da4281c24ac345ba32a4636ce2af38b" target="_top" xlink:title=" ">
<polygon fill="none" stroke="#000000" points="332.0765,-306.5 332.0765,-338.5 454.1885,-338.5 454.1885,-306.5 332.0765,-306.5"/>
<text text-anchor="start" x="340.0765" y="-325.5" font-family="Helvetica,sans-Serif" font-size="10.00" fill="#000000">LFSTK_scrollBarClass</text>
<text text-anchor="middle" x="393.1325" y="-313.5" font-family="Helvetica,sans-Serif" font-size="10.00" fill="#000000">::LFSTK_scrollBarClass</text>
</a>
</g>
</g>
<!-- Node3&#45;&gt;Node12 -->
<g id="edge11" class="edge">
<title>Node3&#45;&gt;Node12</title>
<path fill="none" stroke="#191970" d="M525.2281,-266.3899C506.9486,-276.0878 484.5631,-287.4459 463.917,-296.5 456.1238,-299.9176 447.7247,-303.2759 439.5299,-306.3846"/>
<polygon fill="#191970" stroke="#191970" points="526.9473,-269.4396 534.1133,-261.6359 523.6448,-263.2676 526.9473,-269.4396"/>
</g>
<!-- Node13 -->
<g id="node13" class="node">
<title>Node13</title>
<g id="a_node13"><a xlink:href="class_l_f_s_t_k__toggle_button_class_a4cc0929a4d4113b9b40a3bdc54898ab7.xhtml#a4cc0929a4d4113b9b40a3bdc54898ab7" target="_top" xlink:title=" ">
<polygon fill="none" stroke="#000000" points="323.449,-255.5 323.449,-287.5 462.816,-287.5 462.816,-255.5 323.449,-255.5"/>
<text text-anchor="start" x="331.449" y="-274.5" font-family="Helvetica,sans-Serif" font-size="10.00" fill="#000000">LFSTK_toggleButtonClass</text>
<text text-anchor="middle" x="393.1325" y="-262.5" font-family="Helvetica,sans-Serif" font-size="10.00" fill="#000000">::LFSTK_toggleButtonClass</text>
</a>
</g>
</g>
<!-- Node3&#45;&gt;Node13 -->
<g id="edge12" class="edge">
<title>Node3&#45;&gt;Node13</title>
<path fill="none" stroke="#191970" d="M495.8987,-255.7887C485.1119,-257.4379 473.9266,-259.1479 463.0796,-260.8062"/>
<polygon fill="#191970" stroke="#191970" points="496.7384,-259.2011 506.0946,-254.23 495.6804,-252.2815 496.7384,-259.2011"/>
</g>
<!-- Node15 -->
<g id="node15" class="node">
<title>Node15</title>
<g id="a_node15"><a xlink:href="class_l_f_s_t_k__font_dialog_class_af866eb2b1ba8178c9cf3e751716fcc8e.xhtml#af866eb2b1ba8178c9cf3e751716fcc8e" target="_top" xlink:title=" ">
<polygon fill="none" stroke="#000000" points="501.856,-446.5 501.856,-478.5 624.537,-478.5 624.537,-446.5 501.856,-446.5"/>
<text text-anchor="start" x="509.856" y="-465.5" font-family="Helvetica,sans-Serif" font-size="10.00" fill="#000000">LFSTK_fontDialogClass</text>
<text text-anchor="middle" x="563.1965" y="-453.5" font-family="Helvetica,sans-Serif" font-size="10.00" fill="#000000">::buildDialog</text>
</a>
</g>
</g>
<!-- Node14&#45;&gt;Node15 -->
<g id="edge15" class="edge">
<title>Node14&#45;&gt;Node15</title>
<path fill="none" stroke="#191970" d="M652.2694,-476.3639C643.0619,-474.9308 633.6989,-473.4734 624.6723,-472.0685"/>
<polygon fill="#191970" stroke="#191970" points="651.7569,-479.8262 662.1763,-477.9058 652.8336,-472.9095 651.7569,-479.8262"/>
</g>
<!-- Node16 -->
<g id="node16" class="node">
<title>Node16</title>
<g id="a_node16"><a xlink:href="class_l_f_s_t_k__file_dialog_class_a0a6b4f1db71031bf35a7636b736e8698.xhtml#a0a6b4f1db71031bf35a7636b736e8698" target="_top" xlink:title=" ">
<polygon fill="none" stroke="#000000" points="503.806,-548.5 503.806,-580.5 622.587,-580.5 622.587,-548.5 503.806,-548.5"/>
<text text-anchor="start" x="511.806" y="-567.5" font-family="Helvetica,sans-Serif" font-size="10.00" fill="#000000">LFSTK_fileDialogClass</text>
<text text-anchor="middle" x="563.1965" y="-555.5" font-family="Helvetica,sans-Serif" font-size="10.00" fill="#000000">::getFileList</text>
</a>
</g>
</g>
<!-- Node14&#45;&gt;Node16 -->
<g id="edge17" class="edge">
<title>Node14&#45;&gt;Node16</title>
<path fill="none" stroke="#191970" d="M685.8367,-508.4445C668.0097,-518.0042 646.3548,-529.2329 626.476,-538.5 619.2635,-541.8623 611.4919,-545.2456 603.9478,-548.4085"/>
<polygon fill="#191970" stroke="#191970" points="687.6431,-511.4468 694.7804,-503.6167 684.318,-505.2869 687.6431,-511.4468"/>
</g>
<!-- Node21 -->
<g id="node21" class="node">
<title>Node21</title>
<g id="a_node21"><a xlink:href="class_l_f_s_t_k__list_gadget_class_addcdb5ba330fd8dd36beb94ea2081dd3.xhtml#addcdb5ba330fd8dd36beb94ea2081dd3" target="_top" xlink:title=" ">
<polygon fill="none" stroke="#000000" points="499.917,-497.5 499.917,-529.5 626.476,-529.5 626.476,-497.5 499.917,-497.5"/>
<text text-anchor="start" x="507.917" y="-516.5" font-family="Helvetica,sans-Serif" font-size="10.00" fill="#000000">LFSTK_listGadgetClass</text>
<text text-anchor="middle" x="563.1965" y="-504.5" font-family="Helvetica,sans-Serif" font-size="10.00" fill="#000000">::LFSTK_setListFromFile</text>
</a>
</g>
</g>
<!-- Node14&#45;&gt;Node21 -->
<g id="edge23" class="edge">
<title>Node14&#45;&gt;Node21</title>
<path fill="none" stroke="#191970" d="M652.2145,-499.0905C643.6561,-500.4758 634.9642,-501.8828 626.5339,-503.2474"/>
<polygon fill="#191970" stroke="#191970" points="652.8641,-502.531 662.1763,-497.4779 651.7455,-495.6209 652.8641,-502.531"/>
</g>
<!-- Node15&#45;&gt;Node5 -->
<g id="edge16" class="edge">
<title>Node15&#45;&gt;Node5</title>
<path fill="none" stroke="#191970" d="M491.4919,-467.9812C480.1425,-468.8488 468.4683,-469.7412 457.3052,-470.5945"/>
<polygon fill="#191970" stroke="#191970" points="492.0954,-471.4454 501.7995,-467.1933 491.5618,-464.4658 492.0954,-471.4454"/>
</g>
<!-- Node17 -->
<g id="node17" class="node">
<title>Node17</title>
<g id="a_node17"><a xlink:href="class_l_f_s_t_k__file_dialog_class_a553ce8e885b0d60cbf515b7b3d1e8b65.xhtml#a553ce8e885b0d60cbf515b7b3d1e8b65" target="_top" xlink:title=" ">
<polygon fill="none" stroke="#000000" points="0,-532.5 0,-564.5 124.339,-564.5 124.339,-532.5 0,-532.5"/>
<text text-anchor="start" x="8" y="-551.5" font-family="Helvetica,sans-Serif" font-size="10.00" fill="#000000">LFSTK_fileDialogClass</text>
<text text-anchor="middle" x="62.1695" y="-539.5" font-family="Helvetica,sans-Serif" font-size="10.00" fill="#000000">::LFSTK_fileDialogClass</text>
</a>
</g>
</g>
<!-- Node16&#45;&gt;Node17 -->
<g id="edge18" class="edge">
<title>Node16&#45;&gt;Node17</title>
<path fill="none" stroke="#191970" d="M493.4363,-573.6549C412.8013,-582.603 276.3033,-592.7144 160.339,-576.5 143.1378,-574.0949 124.72,-569.4279 108.5377,-564.5833"/>
<polygon fill="#191970" stroke="#191970" points="493.9289,-577.1215 503.47,-572.5153 493.1389,-570.1662 493.9289,-577.1215"/>
</g>
<!-- Node18 -->
<g id="node18" class="node">
<title>Node18</title>
<g id="a_node18"><a xlink:href="class_l_f_s_t_k__file_dialog_class_aa8804989d381def9acb2c99d47d6dc3d.xhtml#aa8804989d381def9acb2c99d47d6dc3d" target="_top" xlink:title=" ">
<polygon fill="none" stroke="#000000" points="332.632,-535.5 332.632,-567.5 453.633,-567.5 453.633,-535.5 332.632,-535.5"/>
<text text-anchor="start" x="340.632" y="-554.5" font-family="Helvetica,sans-Serif" font-size="10.00" fill="#000000">LFSTK_fileDialogClass</text>
<text text-anchor="middle" x="393.1325" y="-542.5" font-family="Helvetica,sans-Serif" font-size="10.00" fill="#000000">::LFSTK_setWorkingDir</text>
</a>
</g>
</g>
<!-- Node16&#45;&gt;Node18 -->
<g id="edge19" class="edge">
<title>Node16&#45;&gt;Node18</title>
<path fill="none" stroke="#191970" d="M493.7058,-559.188C480.453,-558.1749 466.6788,-557.122 453.7306,-556.1322"/>
<polygon fill="#191970" stroke="#191970" points="493.4787,-562.6808 503.7164,-559.9532 494.0123,-555.7011 493.4787,-562.6808"/>
</g>
<!-- Node19 -->
<g id="node19" class="node">
<title>Node19</title>
<g id="a_node19"><a xlink:href="class_l_f_s_t_k__file_dialog_class_aacf1d4b61cbb5b40d06f591ea96f9ea7.xhtml#aacf1d4b61cbb5b40d06f591ea96f9ea7" target="_top" xlink:title=" ">
<polygon fill="none" stroke="#000000" points="160.339,-535.5 160.339,-567.5 286.348,-567.5 286.348,-535.5 160.339,-535.5"/>
<text text-anchor="start" x="168.339" y="-554.5" font-family="Helvetica,sans-Serif" font-size="10.00" fill="#000000">LFSTK_fileDialogClass</text>
<text text-anchor="middle" x="223.3435" y="-542.5" font-family="Helvetica,sans-Serif" font-size="10.00" fill="#000000">::LFSTK_showFileDialog</text>
</a>
</g>
</g>
<!-- Node18&#45;&gt;Node19 -->
<g id="edge20" class="edge">
<title>Node18&#45;&gt;Node19</title>
<path fill="none" stroke="#191970" d="M322.0837,-551.5C310.3081,-551.5 298.1673,-551.5 286.6006,-551.5"/>
<polygon fill="#191970" stroke="#191970" points="322.3144,-555.0001 332.3143,-551.5 322.3143,-548.0001 322.3144,-555.0001"/>
</g>
<!-- Node20 -->
<g id="node20" class="node">
<title>Node20</title>
<g id="a_node20"><a xlink:href="class_l_f_s_t_k__file_dialog_class_a789cade9437906181e31a243c85d52e5.xhtml#a789cade9437906181e31a243c85d52e5" target="_top" xlink:title=" ">
<polygon fill="none" stroke="#000000" points="163.953,-484.5 163.953,-516.5 282.734,-516.5 282.734,-484.5 163.953,-484.5"/>
<text text-anchor="start" x="171.953" y="-503.5" font-family="Helvetica,sans-Serif" font-size="10.00" fill="#000000">LFSTK_fileDialogClass</text>
<text text-anchor="middle" x="223.3435" y="-491.5" font-family="Helvetica,sans-Serif" font-size="10.00" fill="#000000">::select</text>
</a>
</g>
</g>
<!-- Node18&#45;&gt;Node20 -->
<g id="edge21" class="edge">
<title>Node18&#45;&gt;Node20</title>
<path fill="none" stroke="#191970" d="M329.3668,-532.3465C312.0218,-527.1366 293.4203,-521.5492 276.7163,-516.5317"/>
<polygon fill="#191970" stroke="#191970" points="328.826,-535.8385 339.4102,-535.3633 330.8398,-529.1344 328.826,-535.8385"/>
</g>
<!-- Node20&#45;&gt;Node17 -->
<g id="edge22" class="edge">
<title>Node20&#45;&gt;Node17</title>
<path fill="none" stroke="#191970" d="M159.442,-519.5308C145.1046,-523.8007 130.0303,-528.29 116.1436,-532.4257"/>
<polygon fill="#191970" stroke="#191970" points="160.6415,-522.8256 169.2265,-516.6168 158.6435,-516.1168 160.6415,-522.8256"/>
</g>
</g>
</svg>
