<?xml version="1.0" encoding="UTF-8" standalone="no"?>
<!DOCTYPE svg PUBLIC "-//W3C//DTD SVG 1.1//EN"
 "http://www.w3.org/Graphics/SVG/1.1/DTD/svg11.dtd">
<!-- Generated by graphviz version 2.40.1 (20161225.0304)
 -->
<!-- Title: LFSTK_multiLineEditClass::setDisplayLines Pages: 1 -->
<svg width="485pt" height="117pt"
 viewBox="0.00 0.00 484.69 117.00" xmlns="http://www.w3.org/2000/svg" xmlns:xlink="http://www.w3.org/1999/xlink">
<g id="graph0" class="graph" transform="scale(1 1) rotate(0) translate(4 113)">
<title>LFSTK_multiLineEditClass::setDisplayLines</title>
<!-- Node1 -->
<g id="node1" class="node">
<title>Node1</title>
<g id="a_node1"><a xlink:title=" ">
<polygon fill="#bfbfbf" stroke="#000000" points="0,-25.5 0,-57.5 134.898,-57.5 134.898,-25.5 0,-25.5"/>
<text text-anchor="start" x="8" y="-44.5" font-family="Helvetica,sans-Serif" font-size="10.00" fill="#000000">LFSTK_multiLineEditClass</text>
<text text-anchor="middle" x="67.449" y="-32.5" font-family="Helvetica,sans-Serif" font-size="10.00" fill="#000000">::setDisplayLines</text>
</a>
</g>
</g>
<!-- Node2 -->
<g id="node2" class="node">
<title>Node2</title>
<g id="a_node2"><a xlink:href="class_l_f_s_t_k__multi_line_edit_class_aada0749d2c064f7a8f2af14ab82f08a5.xhtml#aada0749d2c064f7a8f2af14ab82f08a5" target="_top" xlink:title=" ">
<polygon fill="none" stroke="#000000" points="170.898,-51.5 170.898,-83.5 305.796,-83.5 305.796,-51.5 170.898,-51.5"/>
<text text-anchor="start" x="178.898" y="-70.5" font-family="Helvetica,sans-Serif" font-size="10.00" fill="#000000">LFSTK_multiLineEditClass</text>
<text text-anchor="middle" x="238.347" y="-58.5" font-family="Helvetica,sans-Serif" font-size="10.00" fill="#000000">::LFSTK_clearWindow</text>
</a>
</g>
</g>
<!-- Node1&#45;&gt;Node2 -->
<g id="edge1" class="edge">
<title>Node1&#45;&gt;Node2</title>
<path fill="none" stroke="#191970" d="M134.9924,-51.7759C143.4418,-53.0614 152.1357,-54.384 160.7233,-55.6905"/>
<polygon fill="#191970" stroke="#191970" points="160.3219,-59.1696 170.7346,-57.2136 161.3748,-52.2493 160.3219,-59.1696"/>
</g>
<!-- Node5 -->
<g id="node5" class="node">
<title>Node5</title>
<g id="a_node5"><a xlink:href="class_l_f_s_t_k__gadget_class_a71d34233c5db545e92d37c0e3139459b.xhtml#a71d34233c5db545e92d37c0e3139459b" target="_top" xlink:title=" ">
<polygon fill="none" stroke="#000000" points="181.4455,-.5 181.4455,-32.5 295.2485,-32.5 295.2485,-.5 181.4455,-.5"/>
<text text-anchor="start" x="189.4455" y="-19.5" font-family="Helvetica,sans-Serif" font-size="10.00" fill="#000000">LFSTK_gadgetClass::</text>
<text text-anchor="middle" x="238.347" y="-7.5" font-family="Helvetica,sans-Serif" font-size="10.00" fill="#000000">LFSTK_getGeom</text>
</a>
</g>
</g>
<!-- Node1&#45;&gt;Node5 -->
<g id="edge4" class="edge">
<title>Node1&#45;&gt;Node5</title>
<path fill="none" stroke="#191970" d="M134.9924,-31.6193C146.8268,-29.8881 159.1409,-28.0868 170.9707,-26.3562"/>
<polygon fill="#191970" stroke="#191970" points="171.8296,-29.7679 181.2177,-24.8572 170.8164,-22.8416 171.8296,-29.7679"/>
</g>
<!-- Node3 -->
<g id="node3" class="node">
<title>Node3</title>
<g id="a_node3"><a xlink:href="class_l_f_s_t_k__gadget_class_ab76db165a19af248b5e94e95492dc879.xhtml#ab76db165a19af248b5e94e95492dc879" target="_top" xlink:title=" ">
<polygon fill="none" stroke="#000000" points="352.3435,-76.5 352.3435,-108.5 466.1465,-108.5 466.1465,-76.5 352.3435,-76.5"/>
<text text-anchor="start" x="360.3435" y="-95.5" font-family="Helvetica,sans-Serif" font-size="10.00" fill="#000000">LFSTK_gadgetClass::</text>
<text text-anchor="middle" x="409.245" y="-83.5" font-family="Helvetica,sans-Serif" font-size="10.00" fill="#000000">drawBevel</text>
</a>
</g>
</g>
<!-- Node2&#45;&gt;Node3 -->
<g id="edge2" class="edge">
<title>Node2&#45;&gt;Node3</title>
<path fill="none" stroke="#191970" d="M305.8904,-77.3807C317.7248,-79.1119 330.0389,-80.9132 341.8687,-82.6438"/>
<polygon fill="#191970" stroke="#191970" points="341.7144,-86.1584 352.1157,-84.1428 342.7276,-79.2321 341.7144,-86.1584"/>
</g>
<!-- Node4 -->
<g id="node4" class="node">
<title>Node4</title>
<g id="a_node4"><a xlink:href="class_l_f_s_t_k__multi_line_edit_class_a48999ac31ea05c85d68ef2c5fc513c0e.xhtml#a48999ac31ea05c85d68ef2c5fc513c0e" target="_top" xlink:title=" ">
<polygon fill="none" stroke="#000000" points="341.796,-25.5 341.796,-57.5 476.694,-57.5 476.694,-25.5 341.796,-25.5"/>
<text text-anchor="start" x="349.796" y="-44.5" font-family="Helvetica,sans-Serif" font-size="10.00" fill="#000000">LFSTK_multiLineEditClass</text>
<text text-anchor="middle" x="409.245" y="-32.5" font-family="Helvetica,sans-Serif" font-size="10.00" fill="#000000">::drawText</text>
</a>
</g>
</g>
<!-- Node2&#45;&gt;Node4 -->
<g id="edge3" class="edge">
<title>Node2&#45;&gt;Node4</title>
<path fill="none" stroke="#191970" d="M305.8904,-57.2241C314.3398,-55.9386 323.0337,-54.616 331.6213,-53.3095"/>
<polygon fill="#191970" stroke="#191970" points="332.2728,-56.7507 341.6326,-51.7864 331.2199,-49.8304 332.2728,-56.7507"/>
</g>
</g>
</svg>
