<?xml version="1.0" encoding="UTF-8" standalone="no"?>
<!DOCTYPE svg PUBLIC "-//W3C//DTD SVG 1.1//EN"
 "http://www.w3.org/Graphics/SVG/1.1/DTD/svg11.dtd">
<!-- Generated by graphviz version 2.40.1 (20161225.0304)
 -->
<!-- Title: LFSTK_windowClass::initWindow Pages: 1 -->
<svg width="465pt" height="143pt"
 viewBox="0.00 0.00 465.24 143.00" xmlns="http://www.w3.org/2000/svg" xmlns:xlink="http://www.w3.org/1999/xlink">
<g id="graph0" class="graph" transform="scale(1 1) rotate(0) translate(4 139)">
<title>LFSTK_windowClass::initWindow</title>
<!-- Node1 -->
<g id="node1" class="node">
<title>Node1</title>
<g id="a_node1"><a xlink:title=" ">
<polygon fill="#bfbfbf" stroke="#000000" points="340.678,-51.5 340.678,-83.5 457.241,-83.5 457.241,-51.5 340.678,-51.5"/>
<text text-anchor="start" x="348.678" y="-70.5" font-family="Helvetica,sans-Serif" font-size="10.00" fill="#000000">LFSTK_windowClass::</text>
<text text-anchor="middle" x="398.9595" y="-58.5" font-family="Helvetica,sans-Serif" font-size="10.00" fill="#000000">initWindow</text>
</a>
</g>
</g>
<!-- Node2 -->
<g id="node2" class="node">
<title>Node2</title>
<g id="a_node2"><a xlink:href="class_l_f_s_t_k__window_class_a66ca01b66ccc729d2cb8bad8ea5cc709.xhtml#a66ca01b66ccc729d2cb8bad8ea5cc709" target="_top" xlink:title=" ">
<polygon fill="none" stroke="#000000" points="179.507,-102.5 179.507,-134.5 296.07,-134.5 296.07,-102.5 179.507,-102.5"/>
<text text-anchor="start" x="187.507" y="-121.5" font-family="Helvetica,sans-Serif" font-size="10.00" fill="#000000">LFSTK_windowClass::</text>
<text text-anchor="middle" x="237.7885" y="-109.5" font-family="Helvetica,sans-Serif" font-size="10.00" fill="#000000">LFSTK_windowClass</text>
</a>
</g>
</g>
<!-- Node1&#45;&gt;Node2 -->
<g id="edge1" class="edge">
<title>Node1&#45;&gt;Node2</title>
<path fill="none" stroke="#191970" d="M337.9684,-86.7997C321.6359,-91.9678 304.1602,-97.4977 288.4523,-102.4683"/>
<polygon fill="#191970" stroke="#191970" points="339.4859,-89.9906 347.964,-83.6367 337.374,-83.3168 339.4859,-89.9906"/>
</g>
<!-- Node3 -->
<g id="node3" class="node">
<title>Node3</title>
<g id="a_node3"><a xlink:href="class_l_f_s_t_k__tool_window_class_a230084a0461e204e39cea42ad1f10301.xhtml#a230084a0461e204e39cea42ad1f10301" target="_top" xlink:title=" ">
<polygon fill="none" stroke="#000000" points="170.899,-51.5 170.899,-83.5 304.678,-83.5 304.678,-51.5 170.899,-51.5"/>
<text text-anchor="start" x="178.899" y="-70.5" font-family="Helvetica,sans-Serif" font-size="10.00" fill="#000000">LFSTK_toolWindowClass</text>
<text text-anchor="middle" x="237.7885" y="-58.5" font-family="Helvetica,sans-Serif" font-size="10.00" fill="#000000">::windowClassInitCommon</text>
</a>
</g>
</g>
<!-- Node1&#45;&gt;Node3 -->
<g id="edge2" class="edge">
<title>Node1&#45;&gt;Node3</title>
<path fill="none" stroke="#191970" d="M330.1894,-67.5C321.7947,-67.5 313.2252,-67.5 304.8559,-67.5"/>
<polygon fill="#191970" stroke="#191970" points="330.3172,-71.0001 340.3171,-67.5 330.3171,-64.0001 330.3172,-71.0001"/>
</g>
<!-- Node5 -->
<g id="node5" class="node">
<title>Node5</title>
<g id="a_node5"><a xlink:href="class_l_f_s_t_k__window_class_a7d01ee5bb6c3fef9aa9b55323c04f90c.xhtml#a7d01ee5bb6c3fef9aa9b55323c04f90c" target="_top" xlink:title=" ">
<polygon fill="none" stroke="#000000" points="173.678,-.5 173.678,-32.5 301.899,-32.5 301.899,-.5 173.678,-.5"/>
<text text-anchor="start" x="181.678" y="-19.5" font-family="Helvetica,sans-Serif" font-size="10.00" fill="#000000">LFSTK_windowClass::</text>
<text text-anchor="middle" x="237.7885" y="-7.5" font-family="Helvetica,sans-Serif" font-size="10.00" fill="#000000">windowClassInitCommon</text>
</a>
</g>
</g>
<!-- Node1&#45;&gt;Node5 -->
<g id="edge4" class="edge">
<title>Node1&#45;&gt;Node5</title>
<path fill="none" stroke="#191970" d="M337.9684,-48.2003C321.6359,-43.0322 304.1602,-37.5023 288.4523,-32.5317"/>
<polygon fill="#191970" stroke="#191970" points="337.374,-51.6832 347.964,-51.3633 339.4859,-45.0094 337.374,-51.6832"/>
</g>
<!-- Node4 -->
<g id="node4" class="node">
<title>Node4</title>
<g id="a_node4"><a xlink:href="class_l_f_s_t_k__tool_window_class_ad9d85cbc29eafc7793e12bcc9c268bf5.xhtml#ad9d85cbc29eafc7793e12bcc9c268bf5" target="_top" xlink:title=" ">
<polygon fill="none" stroke="#000000" points="0,-51.5 0,-83.5 134.899,-83.5 134.899,-51.5 0,-51.5"/>
<text text-anchor="start" x="8" y="-70.5" font-family="Helvetica,sans-Serif" font-size="10.00" fill="#000000">LFSTK_toolWindowClass</text>
<text text-anchor="middle" x="67.4495" y="-58.5" font-family="Helvetica,sans-Serif" font-size="10.00" fill="#000000">::LFSTK_toolWindowClass</text>
</a>
</g>
</g>
<!-- Node3&#45;&gt;Node4 -->
<g id="edge3" class="edge">
<title>Node3&#45;&gt;Node4</title>
<path fill="none" stroke="#191970" d="M160.2915,-67.5C151.8912,-67.5 143.3905,-67.5 135.1199,-67.5"/>
<polygon fill="#191970" stroke="#191970" points="160.4661,-71.0001 170.466,-67.5 160.466,-64.0001 160.4661,-71.0001"/>
</g>
<!-- Node6 -->
<g id="node6" class="node">
<title>Node6</title>
<g id="a_node6"><a xlink:href="class_l_f_s_t_k__window_class_afcd2c5e43ab2a1110d5b4e54b24ce47a.xhtml#afcd2c5e43ab2a1110d5b4e54b24ce47a" target="_top" xlink:title=" ">
<polygon fill="none" stroke="#000000" points="9.168,-.5 9.168,-32.5 125.731,-32.5 125.731,-.5 9.168,-.5"/>
<text text-anchor="start" x="17.168" y="-19.5" font-family="Helvetica,sans-Serif" font-size="10.00" fill="#000000">LFSTK_windowClass::</text>
<text text-anchor="middle" x="67.4495" y="-7.5" font-family="Helvetica,sans-Serif" font-size="10.00" fill="#000000">LFSTK_windowClass</text>
</a>
</g>
</g>
<!-- Node5&#45;&gt;Node6 -->
<g id="edge5" class="edge">
<title>Node5&#45;&gt;Node6</title>
<path fill="none" stroke="#191970" d="M163.3825,-16.5C150.7912,-16.5 137.8809,-16.5 125.7764,-16.5"/>
<polygon fill="#191970" stroke="#191970" points="163.3907,-20.0001 173.3906,-16.5 163.3906,-13.0001 163.3907,-20.0001"/>
</g>
</g>
</svg>
