<?xml version="1.0" encoding="UTF-8" standalone="no"?>
<!DOCTYPE svg PUBLIC "-//W3C//DTD SVG 1.1//EN"
 "http://www.w3.org/Graphics/SVG/1.1/DTD/svg11.dtd">
<!-- Generated by graphviz version 2.40.1 (20161225.0304)
 -->
<!-- Title: LFSTK_scrollBarClass::setState Pages: 1 -->
<svg width="1085pt" height="347pt"
 viewBox="0.00 0.00 1084.94 347.00" xmlns="http://www.w3.org/2000/svg" xmlns:xlink="http://www.w3.org/1999/xlink">
<g id="graph0" class="graph" transform="scale(1 1) rotate(0) translate(4 343)">
<title>LFSTK_scrollBarClass::setState</title>
<!-- Node1 -->
<g id="node1" class="node">
<title>Node1</title>
<g id="a_node1"><a xlink:title=" ">
<polygon fill="#bfbfbf" stroke="#000000" points="960.383,-178.5 960.383,-210.5 1076.937,-210.5 1076.937,-178.5 960.383,-178.5"/>
<text text-anchor="start" x="968.383" y="-197.5" font-family="Helvetica,sans-Serif" font-size="10.00" fill="#000000">LFSTK_scrollBarClass</text>
<text text-anchor="middle" x="1018.66" y="-185.5" font-family="Helvetica,sans-Serif" font-size="10.00" fill="#000000">::setState</text>
</a>
</g>
</g>
<!-- Node2 -->
<g id="node2" class="node">
<title>Node2</title>
<g id="a_node2"><a xlink:href="class_l_f_s_t_k__scroll_bar_class_a6a4b0d2c9217779bb3bc0b4c936130ce.xhtml#a6a4b0d2c9217779bb3bc0b4c936130ce" target="_top" xlink:title=" ">
<polygon fill="none" stroke="#000000" points="807.829,-255.5 807.829,-287.5 924.383,-287.5 924.383,-255.5 807.829,-255.5"/>
<text text-anchor="start" x="815.829" y="-274.5" font-family="Helvetica,sans-Serif" font-size="10.00" fill="#000000">LFSTK_scrollBarClass</text>
<text text-anchor="middle" x="866.106" y="-262.5" font-family="Helvetica,sans-Serif" font-size="10.00" fill="#000000">::LFSTK_clearWindow</text>
</a>
</g>
</g>
<!-- Node1&#45;&gt;Node2 -->
<g id="edge1" class="edge">
<title>Node1&#45;&gt;Node2</title>
<path fill="none" stroke="#191970" d="M967.5189,-215.2306C953.6648,-222.5426 938.5721,-230.5644 924.383,-237.5 911.9205,-243.5916 897.6083,-249.743 886.2861,-255.4927"/>
<polygon fill="#191970" stroke="#191970" points="969.2019,-218.3 976.4223,-210.5466 965.9427,-212.105 969.2019,-218.3"/>
</g>
<!-- Node3 -->
<g id="node3" class="node">
<title>Node3</title>
<g id="a_node3"><a xlink:href="class_l_f_s_t_k__scroll_bar_class_a955c2789a3ce6d849a3d00a3bf4911e7.xhtml#a955c2789a3ce6d849a3d00a3bf4911e7" target="_top" xlink:title=" ">
<polygon fill="none" stroke="#000000" points="807.829,-204.5 807.829,-236.5 924.383,-236.5 924.383,-204.5 807.829,-204.5"/>
<text text-anchor="start" x="815.829" y="-223.5" font-family="Helvetica,sans-Serif" font-size="10.00" fill="#000000">LFSTK_scrollBarClass</text>
<text text-anchor="middle" x="866.106" y="-211.5" font-family="Helvetica,sans-Serif" font-size="10.00" fill="#000000">::LFSTK_setValue</text>
</a>
</g>
</g>
<!-- Node1&#45;&gt;Node3 -->
<g id="edge3" class="edge">
<title>Node1&#45;&gt;Node3</title>
<path fill="none" stroke="#191970" d="M950.1472,-206.1767C941.5822,-207.6365 932.8853,-209.1187 924.4944,-210.5488"/>
<polygon fill="#191970" stroke="#191970" points="950.8451,-209.6083 960.1149,-204.4779 949.669,-202.7078 950.8451,-209.6083"/>
</g>
<!-- Node13 -->
<g id="node13" class="node">
<title>Node13</title>
<g id="a_node13"><a xlink:href="class_l_f_s_t_k__scroll_bar_class_aa1ce7f61248cfa6eeef3e8573e327d8f.xhtml#aa1ce7f61248cfa6eeef3e8573e327d8f" target="_top" xlink:title=" ">
<polygon fill="none" stroke="#000000" points="807.829,-102.5 807.829,-134.5 924.383,-134.5 924.383,-102.5 807.829,-102.5"/>
<text text-anchor="start" x="815.829" y="-121.5" font-family="Helvetica,sans-Serif" font-size="10.00" fill="#000000">LFSTK_scrollBarClass</text>
<text text-anchor="middle" x="866.106" y="-109.5" font-family="Helvetica,sans-Serif" font-size="10.00" fill="#000000">::lineUpDown</text>
</a>
</g>
</g>
<!-- Node1&#45;&gt;Node13 -->
<g id="edge14" class="edge">
<title>Node1&#45;&gt;Node13</title>
<path fill="none" stroke="#191970" d="M980.5331,-173.5224C963.4907,-164.3424 943.0709,-153.6113 924.383,-144.5 917.6114,-141.1985 910.3253,-137.8164 903.276,-134.6296"/>
<polygon fill="#191970" stroke="#191970" points="979.1609,-176.7595 989.6212,-178.4427 982.4936,-170.6037 979.1609,-176.7595"/>
</g>
<!-- Node21 -->
<g id="node21" class="node">
<title>Node21</title>
<g id="a_node21"><a xlink:href="class_l_f_s_t_k__scroll_bar_class_a72b11062708e9db06d05162734b5555b.xhtml#a72b11062708e9db06d05162734b5555b" target="_top" xlink:title=" ">
<polygon fill="none" stroke="#000000" points="807.829,-51.5 807.829,-83.5 924.383,-83.5 924.383,-51.5 807.829,-51.5"/>
<text text-anchor="start" x="815.829" y="-70.5" font-family="Helvetica,sans-Serif" font-size="10.00" fill="#000000">LFSTK_scrollBarClass</text>
<text text-anchor="middle" x="866.106" y="-58.5" font-family="Helvetica,sans-Serif" font-size="10.00" fill="#000000">::mouseUp</text>
</a>
</g>
</g>
<!-- Node1&#45;&gt;Node21 -->
<g id="edge23" class="edge">
<title>Node1&#45;&gt;Node21</title>
<path fill="none" stroke="#191970" d="M1001.1237,-170.3133C983.7401,-147.7358 955.2955,-114.3354 924.383,-92.5 919.7071,-89.1971 914.5263,-86.2045 909.2386,-83.5325"/>
<polygon fill="#191970" stroke="#191970" points="998.4055,-172.5215 1007.2267,-178.3897 1003.9903,-168.3013 998.4055,-172.5215"/>
</g>
<!-- Node22 -->
<g id="node22" class="node">
<title>Node22</title>
<g id="a_node22"><a xlink:href="class_l_f_s_t_k__scroll_bar_class_a04c7fd897a3f2e5d496962cc7d80d4e3.xhtml#a04c7fd897a3f2e5d496962cc7d80d4e3" target="_top" xlink:title=" ">
<polygon fill="none" stroke="#000000" points="807.829,-153.5 807.829,-185.5 924.383,-185.5 924.383,-153.5 807.829,-153.5"/>
<text text-anchor="start" x="815.829" y="-172.5" font-family="Helvetica,sans-Serif" font-size="10.00" fill="#000000">LFSTK_scrollBarClass</text>
<text text-anchor="middle" x="866.106" y="-160.5" font-family="Helvetica,sans-Serif" font-size="10.00" fill="#000000">::pageUpDown</text>
</a>
</g>
</g>
<!-- Node1&#45;&gt;Node22 -->
<g id="edge24" class="edge">
<title>Node1&#45;&gt;Node22</title>
<path fill="none" stroke="#191970" d="M950.1472,-183.2724C941.5822,-181.8688 932.8853,-180.4435 924.4944,-179.0685"/>
<polygon fill="#191970" stroke="#191970" points="949.6805,-186.7425 960.1149,-184.9058 950.8126,-179.8346 949.6805,-186.7425"/>
</g>
<!-- Node2&#45;&gt;Node1 -->
<g id="edge2" class="edge">
<title>Node2&#45;&gt;Node1</title>
<path fill="none" stroke="#191970" d="M933.1423,-251.1352C958.9435,-238.0565 985.9608,-222.4345 1002.5675,-210.5159"/>
<polygon fill="#191970" stroke="#191970" points="931.4773,-248.0544 924.0859,-255.645 934.5976,-254.3205 931.4773,-248.0544"/>
</g>
<!-- Node4 -->
<g id="node4" class="node">
<title>Node4</title>
<g id="a_node4"><a xlink:href="class_l_f_s_t_k__list_gadget_class_a7b9a3f3a749e622fdd46da8f72da2002.xhtml#a7b9a3f3a749e622fdd46da8f72da2002" target="_top" xlink:title=" ">
<polygon fill="none" stroke="#000000" points="649.147,-229.5 649.147,-261.5 771.829,-261.5 771.829,-229.5 649.147,-229.5"/>
<text text-anchor="start" x="657.147" y="-248.5" font-family="Helvetica,sans-Serif" font-size="10.00" fill="#000000">LFSTK_listGadgetClass</text>
<text text-anchor="middle" x="710.488" y="-236.5" font-family="Helvetica,sans-Serif" font-size="10.00" fill="#000000">::LFSTK_updateList</text>
</a>
</g>
</g>
<!-- Node3&#45;&gt;Node4 -->
<g id="edge4" class="edge">
<title>Node3&#45;&gt;Node4</title>
<path fill="none" stroke="#191970" d="M797.7713,-231.478C789.2169,-232.8522 780.5074,-234.2514 772.0648,-235.6077"/>
<polygon fill="#191970" stroke="#191970" points="798.3986,-234.9221 807.7169,-229.8802 797.2883,-228.0108 798.3986,-234.9221"/>
</g>
<!-- Node5 -->
<g id="node5" class="node">
<title>Node5</title>
<g id="a_node5"><a xlink:href="class_l_f_s_t_k__font_dialog_class_af866eb2b1ba8178c9cf3e751716fcc8e.xhtml#af866eb2b1ba8178c9cf3e751716fcc8e" target="_top" xlink:title=" ">
<polygon fill="none" stroke="#000000" points="488.527,-306.5 488.527,-338.5 611.208,-338.5 611.208,-306.5 488.527,-306.5"/>
<text text-anchor="start" x="496.527" y="-325.5" font-family="Helvetica,sans-Serif" font-size="10.00" fill="#000000">LFSTK_fontDialogClass</text>
<text text-anchor="middle" x="549.8675" y="-313.5" font-family="Helvetica,sans-Serif" font-size="10.00" fill="#000000">::buildDialog</text>
</a>
</g>
</g>
<!-- Node4&#45;&gt;Node5 -->
<g id="edge5" class="edge">
<title>Node4&#45;&gt;Node5</title>
<path fill="none" stroke="#191970" d="M673.397,-266.6015C655.4447,-276.4812 633.4324,-288.112 613.147,-297.5 606.5006,-300.5759 599.3619,-303.6283 592.3592,-306.4881"/>
<polygon fill="#191970" stroke="#191970" points="675.3376,-269.5276 682.3842,-261.6159 671.9418,-263.4064 675.3376,-269.5276"/>
</g>
<!-- Node7 -->
<g id="node7" class="node">
<title>Node7</title>
<g id="a_node7"><a xlink:href="class_l_f_s_t_k__file_dialog_class_a0a6b4f1db71031bf35a7636b736e8698.xhtml#a0a6b4f1db71031bf35a7636b736e8698" target="_top" xlink:title=" ">
<polygon fill="none" stroke="#000000" points="490.477,-255.5 490.477,-287.5 609.258,-287.5 609.258,-255.5 490.477,-255.5"/>
<text text-anchor="start" x="498.477" y="-274.5" font-family="Helvetica,sans-Serif" font-size="10.00" fill="#000000">LFSTK_fileDialogClass</text>
<text text-anchor="middle" x="549.8675" y="-262.5" font-family="Helvetica,sans-Serif" font-size="10.00" fill="#000000">::getFileList</text>
</a>
</g>
</g>
<!-- Node4&#45;&gt;Node7 -->
<g id="edge7" class="edge">
<title>Node4&#45;&gt;Node7</title>
<path fill="none" stroke="#191970" d="M638.7459,-257.1131C628.9695,-258.6956 619.0218,-260.3058 609.4912,-261.8486"/>
<polygon fill="#191970" stroke="#191970" points="639.5351,-260.531 648.8473,-255.4779 638.4165,-253.6209 639.5351,-260.531"/>
</g>
<!-- Node12 -->
<g id="node12" class="node">
<title>Node12</title>
<g id="a_node12"><a xlink:href="class_l_f_s_t_k__list_gadget_class_addcdb5ba330fd8dd36beb94ea2081dd3.xhtml#addcdb5ba330fd8dd36beb94ea2081dd3" target="_top" xlink:title=" ">
<polygon fill="none" stroke="#000000" points="486.588,-204.5 486.588,-236.5 613.147,-236.5 613.147,-204.5 486.588,-204.5"/>
<text text-anchor="start" x="494.588" y="-223.5" font-family="Helvetica,sans-Serif" font-size="10.00" fill="#000000">LFSTK_listGadgetClass</text>
<text text-anchor="middle" x="549.8675" y="-211.5" font-family="Helvetica,sans-Serif" font-size="10.00" fill="#000000">::LFSTK_setListFromFile</text>
</a>
</g>
</g>
<!-- Node4&#45;&gt;Node12 -->
<g id="edge13" class="edge">
<title>Node4&#45;&gt;Node12</title>
<path fill="none" stroke="#191970" d="M638.8855,-234.3553C630.3271,-233.0232 621.6352,-231.6704 613.2049,-230.3582"/>
<polygon fill="#191970" stroke="#191970" points="638.4279,-237.8262 648.8473,-235.9058 639.5046,-230.9095 638.4279,-237.8262"/>
</g>
<!-- Node6 -->
<g id="node6" class="node">
<title>Node6</title>
<g id="a_node6"><a xlink:href="class_l_f_s_t_k__font_dialog_class_ab7b6a4bca99713646ab6ac77dc34827c.xhtml#ab7b6a4bca99713646ab6ac77dc34827c" target="_top" xlink:title=" ">
<polygon fill="none" stroke="#000000" points="322.3485,-306.5 322.3485,-338.5 450.5875,-338.5 450.5875,-306.5 322.3485,-306.5"/>
<text text-anchor="start" x="330.3485" y="-325.5" font-family="Helvetica,sans-Serif" font-size="10.00" fill="#000000">LFSTK_fontDialogClass</text>
<text text-anchor="middle" x="386.468" y="-313.5" font-family="Helvetica,sans-Serif" font-size="10.00" fill="#000000">::LFSTK_fontDialogClass</text>
</a>
</g>
</g>
<!-- Node5&#45;&gt;Node6 -->
<g id="edge6" class="edge">
<title>Node5&#45;&gt;Node6</title>
<path fill="none" stroke="#191970" d="M477.9674,-322.5C468.9162,-322.5 459.7022,-322.5 450.7784,-322.5"/>
<polygon fill="#191970" stroke="#191970" points="478.0932,-326.0001 488.0932,-322.5 478.0931,-319.0001 478.0932,-326.0001"/>
</g>
<!-- Node8 -->
<g id="node8" class="node">
<title>Node8</title>
<g id="a_node8"><a xlink:href="class_l_f_s_t_k__file_dialog_class_a553ce8e885b0d60cbf515b7b3d1e8b65.xhtml#a553ce8e885b0d60cbf515b7b3d1e8b65" target="_top" xlink:title=" ">
<polygon fill="none" stroke="#000000" points="0,-258.5 0,-290.5 124.339,-290.5 124.339,-258.5 0,-258.5"/>
<text text-anchor="start" x="8" y="-277.5" font-family="Helvetica,sans-Serif" font-size="10.00" fill="#000000">LFSTK_fileDialogClass</text>
<text text-anchor="middle" x="62.1695" y="-265.5" font-family="Helvetica,sans-Serif" font-size="10.00" fill="#000000">::LFSTK_fileDialogClass</text>
</a>
</g>
</g>
<!-- Node7&#45;&gt;Node8 -->
<g id="edge8" class="edge">
<title>Node7&#45;&gt;Node8</title>
<path fill="none" stroke="#191970" d="M486.6458,-253.1115C474.7632,-250.3612 462.3703,-247.9607 450.588,-246.5 322.5685,-230.6292 288.0958,-228.6367 160.339,-246.5 143.1378,-248.9051 124.72,-253.5721 108.5377,-258.4167"/>
<polygon fill="#191970" stroke="#191970" points="485.94,-256.5417 496.4826,-255.4912 487.586,-249.7379 485.94,-256.5417"/>
</g>
<!-- Node9 -->
<g id="node9" class="node">
<title>Node9</title>
<g id="a_node9"><a xlink:href="class_l_f_s_t_k__file_dialog_class_aa8804989d381def9acb2c99d47d6dc3d.xhtml#aa8804989d381def9acb2c99d47d6dc3d" target="_top" xlink:title=" ">
<polygon fill="none" stroke="#000000" points="325.9675,-255.5 325.9675,-287.5 446.9685,-287.5 446.9685,-255.5 325.9675,-255.5"/>
<text text-anchor="start" x="333.9675" y="-274.5" font-family="Helvetica,sans-Serif" font-size="10.00" fill="#000000">LFSTK_fileDialogClass</text>
<text text-anchor="middle" x="386.468" y="-262.5" font-family="Helvetica,sans-Serif" font-size="10.00" fill="#000000">::LFSTK_setWorkingDir</text>
</a>
</g>
</g>
<!-- Node7&#45;&gt;Node9 -->
<g id="edge9" class="edge">
<title>Node7&#45;&gt;Node9</title>
<path fill="none" stroke="#191970" d="M480.335,-271.5C469.2397,-271.5 457.8381,-271.5 446.9737,-271.5"/>
<polygon fill="#191970" stroke="#191970" points="480.4143,-275.0001 490.4143,-271.5 480.4143,-268.0001 480.4143,-275.0001"/>
</g>
<!-- Node10 -->
<g id="node10" class="node">
<title>Node10</title>
<g id="a_node10"><a xlink:href="class_l_f_s_t_k__file_dialog_class_aacf1d4b61cbb5b40d06f591ea96f9ea7.xhtml#aacf1d4b61cbb5b40d06f591ea96f9ea7" target="_top" xlink:title=" ">
<polygon fill="none" stroke="#000000" points="160.339,-255.5 160.339,-287.5 286.348,-287.5 286.348,-255.5 160.339,-255.5"/>
<text text-anchor="start" x="168.339" y="-274.5" font-family="Helvetica,sans-Serif" font-size="10.00" fill="#000000">LFSTK_fileDialogClass</text>
<text text-anchor="middle" x="223.3435" y="-262.5" font-family="Helvetica,sans-Serif" font-size="10.00" fill="#000000">::LFSTK_showFileDialog</text>
</a>
</g>
</g>
<!-- Node9&#45;&gt;Node10 -->
<g id="edge10" class="edge">
<title>Node9&#45;&gt;Node10</title>
<path fill="none" stroke="#191970" d="M315.7259,-271.5C306.0347,-271.5 296.1361,-271.5 286.5904,-271.5"/>
<polygon fill="#191970" stroke="#191970" points="315.7265,-275.0001 325.7265,-271.5 315.7264,-268.0001 315.7265,-275.0001"/>
</g>
<!-- Node11 -->
<g id="node11" class="node">
<title>Node11</title>
<g id="a_node11"><a xlink:href="class_l_f_s_t_k__file_dialog_class_a789cade9437906181e31a243c85d52e5.xhtml#a789cade9437906181e31a243c85d52e5" target="_top" xlink:title=" ">
<polygon fill="none" stroke="#000000" points="163.953,-306.5 163.953,-338.5 282.734,-338.5 282.734,-306.5 163.953,-306.5"/>
<text text-anchor="start" x="171.953" y="-325.5" font-family="Helvetica,sans-Serif" font-size="10.00" fill="#000000">LFSTK_fileDialogClass</text>
<text text-anchor="middle" x="223.3435" y="-313.5" font-family="Helvetica,sans-Serif" font-size="10.00" fill="#000000">::select</text>
</a>
</g>
</g>
<!-- Node9&#45;&gt;Node11 -->
<g id="edge11" class="edge">
<title>Node9&#45;&gt;Node11</title>
<path fill="none" stroke="#191970" d="M325.2052,-290.6535C308.5411,-295.8634 290.6696,-301.4508 274.6213,-306.4683"/>
<polygon fill="#191970" stroke="#191970" points="326.3544,-293.9613 334.8544,-287.6367 324.2656,-287.2803 326.3544,-293.9613"/>
</g>
<!-- Node11&#45;&gt;Node8 -->
<g id="edge12" class="edge">
<title>Node11&#45;&gt;Node8</title>
<path fill="none" stroke="#191970" d="M159.442,-303.4692C145.1046,-299.1993 130.0303,-294.71 116.1436,-290.5743"/>
<polygon fill="#191970" stroke="#191970" points="158.6435,-306.8832 169.2265,-306.3832 160.6415,-300.1744 158.6435,-306.8832"/>
</g>
<!-- Node14 -->
<g id="node14" class="node">
<title>Node14</title>
<g id="a_node14"><a xlink:href="class_l_f_s_t_k__scroll_bar_class_a3da4281c24ac345ba32a4636ce2af38b.xhtml#a3da4281c24ac345ba32a4636ce2af38b" target="_top" xlink:title=" ">
<polygon fill="none" stroke="#000000" points="649.432,-102.5 649.432,-134.5 771.544,-134.5 771.544,-102.5 649.432,-102.5"/>
<text text-anchor="start" x="657.432" y="-121.5" font-family="Helvetica,sans-Serif" font-size="10.00" fill="#000000">LFSTK_scrollBarClass</text>
<text text-anchor="middle" x="710.488" y="-109.5" font-family="Helvetica,sans-Serif" font-size="10.00" fill="#000000">::LFSTK_scrollBarClass</text>
</a>
</g>
</g>
<!-- Node13&#45;&gt;Node14 -->
<g id="edge15" class="edge">
<title>Node13&#45;&gt;Node14</title>
<path fill="none" stroke="#191970" d="M797.6969,-118.5C789.0782,-118.5 780.3034,-118.5 771.8039,-118.5"/>
<polygon fill="#191970" stroke="#191970" points="797.7169,-122.0001 807.7169,-118.5 797.7168,-115.0001 797.7169,-122.0001"/>
</g>
<!-- Node15 -->
<g id="node15" class="node">
<title>Node15</title>
<g id="a_node15"><a xlink:href="class_l_f_s_t_k__scroll_bar_class_a690ed010fb6760b5ee112df392076df5.xhtml#a690ed010fb6760b5ee112df392076df5" target="_top" xlink:title=" ">
<polygon fill="none" stroke="#000000" points="652.211,-51.5 652.211,-83.5 768.765,-83.5 768.765,-51.5 652.211,-51.5"/>
<text text-anchor="start" x="660.211" y="-70.5" font-family="Helvetica,sans-Serif" font-size="10.00" fill="#000000">LFSTK_scrollBarClass</text>
<text text-anchor="middle" x="710.488" y="-58.5" font-family="Helvetica,sans-Serif" font-size="10.00" fill="#000000">::LFSTK_scrollByLine</text>
</a>
</g>
</g>
<!-- Node13&#45;&gt;Node15 -->
<g id="edge16" class="edge">
<title>Node13&#45;&gt;Node15</title>
<path fill="none" stroke="#191970" d="M807.2163,-99.2003C791.4465,-94.0322 774.5729,-88.5023 759.4062,-83.5317"/>
<polygon fill="#191970" stroke="#191970" points="806.2748,-102.5749 816.8675,-102.3633 808.4548,-95.923 806.2748,-102.5749"/>
</g>
<!-- Node16 -->
<g id="node16" class="node">
<title>Node16</title>
<g id="a_node16"><a xlink:href="class_l_f_s_t_k__list_gadget_class_afd92ab070d0d68863589669cb73404cf.xhtml#afd92ab070d0d68863589669cb73404cf" target="_top" xlink:title=" ">
<polygon fill="none" stroke="#000000" points="488.5265,-153.5 488.5265,-185.5 611.2085,-185.5 611.2085,-153.5 488.5265,-153.5"/>
<text text-anchor="start" x="496.5265" y="-172.5" font-family="Helvetica,sans-Serif" font-size="10.00" fill="#000000">LFSTK_listGadgetClass</text>
<text text-anchor="middle" x="549.8675" y="-160.5" font-family="Helvetica,sans-Serif" font-size="10.00" fill="#000000">::keyRelease</text>
</a>
</g>
</g>
<!-- Node15&#45;&gt;Node16 -->
<g id="edge17" class="edge">
<title>Node15&#45;&gt;Node16</title>
<path fill="none" stroke="#191970" d="M654.0915,-88.8616C652.382,-90.0194 650.728,-91.2316 649.147,-92.5 627.2218,-110.0901 635.1664,-127.0281 613.147,-144.5 608.8905,-147.8774 604.1206,-150.8483 599.1591,-153.4496"/>
<polygon fill="#191970" stroke="#191970" points="656.2369,-91.6567 663.0205,-83.5183 652.6424,-85.65 656.2369,-91.6567"/>
</g>
<!-- Node17 -->
<g id="node17" class="node">
<title>Node17</title>
<g id="a_node17"><a xlink:href="class_l_f_s_t_k__list_gadget_class_ad54eba5a5dc2bac69eeb6a1e40b563d7.xhtml#ad54eba5a5dc2bac69eeb6a1e40b563d7" target="_top" xlink:title=" ">
<polygon fill="none" stroke="#000000" points="488.5265,-.5 488.5265,-32.5 611.2085,-32.5 611.2085,-.5 488.5265,-.5"/>
<text text-anchor="start" x="496.5265" y="-19.5" font-family="Helvetica,sans-Serif" font-size="10.00" fill="#000000">LFSTK_listGadgetClass</text>
<text text-anchor="middle" x="549.8675" y="-7.5" font-family="Helvetica,sans-Serif" font-size="10.00" fill="#000000">::mouseUp</text>
</a>
</g>
</g>
<!-- Node15&#45;&gt;Node17 -->
<g id="edge18" class="edge">
<title>Node15&#45;&gt;Node17</title>
<path fill="none" stroke="#191970" d="M649.7052,-48.2003C633.4285,-43.0322 616.0125,-37.5023 600.3582,-32.5317"/>
<polygon fill="#191970" stroke="#191970" points="649.0764,-51.6728 659.6667,-51.3633 651.1948,-45.001 649.0764,-51.6728"/>
</g>
<!-- Node18 -->
<g id="node18" class="node">
<title>Node18</title>
<g id="a_node18"><a xlink:href="class_l_f_s_t_k__list_gadget_class_ad9b006620b5e9712da9b0ee3ead405de.xhtml#ad9b006620b5e9712da9b0ee3ead405de" target="_top" xlink:title=" ">
<polygon fill="none" stroke="#000000" points="488.5265,-51.5 488.5265,-83.5 611.2085,-83.5 611.2085,-51.5 488.5265,-51.5"/>
<text text-anchor="start" x="496.5265" y="-70.5" font-family="Helvetica,sans-Serif" font-size="10.00" fill="#000000">LFSTK_listGadgetClass</text>
<text text-anchor="middle" x="549.8675" y="-58.5" font-family="Helvetica,sans-Serif" font-size="10.00" fill="#000000">::select</text>
</a>
</g>
</g>
<!-- Node15&#45;&gt;Node18 -->
<g id="edge19" class="edge">
<title>Node15&#45;&gt;Node18</title>
<path fill="none" stroke="#191970" d="M641.9528,-67.5C631.7481,-67.5 621.2841,-67.5 611.2393,-67.5"/>
<polygon fill="#191970" stroke="#191970" points="642.046,-71.0001 652.0459,-67.5 642.0459,-64.0001 642.046,-71.0001"/>
</g>
<!-- Node20 -->
<g id="node20" class="node">
<title>Node20</title>
<g id="a_node20"><a xlink:href="class_l_f_s_t_k__list_gadget_class_acf5ccc1d522f0d8a3b23e392b7ce30a5.xhtml#acf5ccc1d522f0d8a3b23e392b7ce30a5" target="_top" xlink:title=" ">
<polygon fill="none" stroke="#000000" points="488.5265,-102.5 488.5265,-134.5 611.2085,-134.5 611.2085,-102.5 488.5265,-102.5"/>
<text text-anchor="start" x="496.5265" y="-121.5" font-family="Helvetica,sans-Serif" font-size="10.00" fill="#000000">LFSTK_listGadgetClass</text>
<text text-anchor="middle" x="549.8675" y="-109.5" font-family="Helvetica,sans-Serif" font-size="10.00" fill="#000000">::selectKey</text>
</a>
</g>
</g>
<!-- Node15&#45;&gt;Node20 -->
<g id="edge21" class="edge">
<title>Node15&#45;&gt;Node20</title>
<path fill="none" stroke="#191970" d="M649.7052,-86.7997C633.4285,-91.9678 616.0125,-97.4977 600.3582,-102.4683"/>
<polygon fill="#191970" stroke="#191970" points="651.1948,-89.999 659.6667,-83.6367 649.0764,-83.3272 651.1948,-89.999"/>
</g>
<!-- Node19 -->
<g id="node19" class="node">
<title>Node19</title>
<g id="a_node19"><a xlink:href="class_l_f_s_t_k__list_gadget_class_ae3518016f28ec3cd261ad927c5691826.xhtml#ae3518016f28ec3cd261ad927c5691826" target="_top" xlink:title=" ">
<polygon fill="none" stroke="#000000" points="322.348,-77.5 322.348,-109.5 450.588,-109.5 450.588,-77.5 322.348,-77.5"/>
<text text-anchor="start" x="330.348" y="-96.5" font-family="Helvetica,sans-Serif" font-size="10.00" fill="#000000">LFSTK_listGadgetClass</text>
<text text-anchor="middle" x="386.468" y="-84.5" font-family="Helvetica,sans-Serif" font-size="10.00" fill="#000000">::LFSTK_listGadgetClass</text>
</a>
</g>
</g>
<!-- Node18&#45;&gt;Node19 -->
<g id="edge20" class="edge">
<title>Node18&#45;&gt;Node19</title>
<path fill="none" stroke="#191970" d="M477.9674,-78.9407C468.9162,-80.3809 459.7022,-81.847 450.7784,-83.267"/>
<polygon fill="#191970" stroke="#191970" points="478.7674,-82.3575 488.0932,-77.3295 477.6674,-75.4445 478.7674,-82.3575"/>
</g>
<!-- Node20&#45;&gt;Node19 -->
<g id="edge22" class="edge">
<title>Node20&#45;&gt;Node19</title>
<path fill="none" stroke="#191970" d="M477.9674,-107.4993C468.9162,-106.1145 459.7022,-104.7048 450.7784,-103.3394"/>
<polygon fill="#191970" stroke="#191970" points="477.6788,-110.9958 488.0932,-109.0486 478.7375,-104.0764 477.6788,-110.9958"/>
</g>
<!-- Node23 -->
<g id="node23" class="node">
<title>Node23</title>
<g id="a_node23"><a xlink:href="class_l_f_s_t_k__scroll_bar_class_a1aa54518e56118cc5f92890b7269c3d1.xhtml#a1aa54518e56118cc5f92890b7269c3d1" target="_top" xlink:title=" ">
<polygon fill="none" stroke="#000000" points="652.2015,-153.5 652.2015,-185.5 768.7745,-185.5 768.7745,-153.5 652.2015,-153.5"/>
<text text-anchor="start" x="660.2015" y="-172.5" font-family="Helvetica,sans-Serif" font-size="10.00" fill="#000000">LFSTK_scrollBarClass</text>
<text text-anchor="middle" x="710.488" y="-160.5" font-family="Helvetica,sans-Serif" font-size="10.00" fill="#000000">::LFSTK_scrollByPage</text>
</a>
</g>
</g>
<!-- Node22&#45;&gt;Node23 -->
<g id="edge25" class="edge">
<title>Node22&#45;&gt;Node23</title>
<path fill="none" stroke="#191970" d="M797.4861,-169.5C787.965,-169.5 778.2578,-169.5 768.9455,-169.5"/>
<polygon fill="#191970" stroke="#191970" points="797.7169,-173.0001 807.7169,-169.5 797.7168,-166.0001 797.7169,-173.0001"/>
</g>
<!-- Node23&#45;&gt;Node16 -->
<g id="edge26" class="edge">
<title>Node23&#45;&gt;Node16</title>
<path fill="none" stroke="#191970" d="M641.9528,-169.5C631.7481,-169.5 621.2841,-169.5 611.2393,-169.5"/>
<polygon fill="#191970" stroke="#191970" points="642.046,-173.0001 652.0459,-169.5 642.0459,-166.0001 642.046,-173.0001"/>
</g>
<!-- Node23&#45;&gt;Node20 -->
<g id="edge27" class="edge">
<title>Node23&#45;&gt;Node20</title>
<path fill="none" stroke="#191970" d="M649.7052,-150.2003C633.4285,-145.0322 616.0125,-139.5023 600.3582,-134.5317"/>
<polygon fill="#191970" stroke="#191970" points="649.0764,-153.6728 659.6667,-153.3633 651.1948,-147.001 649.0764,-153.6728"/>
</g>
</g>
</svg>
