<?xml version="1.0" encoding="UTF-8" standalone="no"?>
<!DOCTYPE svg PUBLIC "-//W3C//DTD SVG 1.1//EN"
 "http://www.w3.org/Graphics/SVG/1.1/DTD/svg11.dtd">
<!-- Generated by graphviz version 2.40.1 (20161225.0304)
 -->
<!-- Title: LFSTK_windowClass::windowClassInitCommon Pages: 1 -->
<!--zoomable 527 -->
<svg id="main" version="1.1" xmlns="http://www.w3.org/2000/svg" xmlns:xlink="http://www.w3.org/1999/xlink" xml:space="preserve" onload="init(evt)">
<style type="text/css"><![CDATA[
.edge:hover path { stroke: red; }
.edge:hover polygon { stroke: red; fill: red; }
]]></style>
<script type="text/javascript"><![CDATA[
var edges = document.getElementsByTagName('g');
if (edges && edges.length) {
  for (var i=0;i<edges.length;i++) {
    if (edges[i].id.substr(0,4)=='edge') {
      edges[i].setAttribute('class','edge');
    }
  }
}
]]></script>
        <defs>
                <circle id="rim" cx="0" cy="0" r="7"/>
                <circle id="rim2" cx="0" cy="0" r="3.5"/>
                <g id="zoomPlus">
                        <use xlink:href="#rim" fill="#404040">
                                <set attributeName="fill" to="#808080" begin="zoomplus.mouseover" end="zoomplus.mouseout"/>
                        </use>
                        <path d="M-4,0h8M0,-4v8" fill="none" stroke="white" stroke-width="1.5" pointer-events="none"/>
                </g>
                <g id="zoomMin">
                        <use xlink:href="#rim" fill="#404040">
                                <set attributeName="fill" to="#808080" begin="zoomminus.mouseover" end="zoomminus.mouseout"/>
                        </use>
                        <path d="M-4,0h8" fill="none" stroke="white" stroke-width="1.5" pointer-events="none"/>
                </g>
                <g id="dirArrow">
                        <path fill="none" stroke="white" stroke-width="1.5" d="M0,-3.0v7 M-2.5,-0.5L0,-3.0L2.5,-0.5"/>
                </g>
               <g id="resetDef">
                       <use xlink:href="#rim2" fill="#404040">
                               <set attributeName="fill" to="#808080" begin="reset.mouseover" end="reset.mouseout"/>
                       </use>
               </g>
        </defs>

<script type="text/javascript">
var viewWidth = 704;
var viewHeight = 527;
var sectionId = 'dynsection-0';
</script>
<script xlink:href="svgpan.js"/>
<svg id="graph" class="graph">
<g id="viewport">
<title>LFSTK_windowClass::windowClassInitCommon</title>
<!-- Node1 -->
<g id="node1" class="node">
<title>Node1</title>
<g id="a_node1"><a xlink:title=" ">
<polygon fill="#bfbfbf" stroke="#000000" points="0,-229.5 0,-261.5 128.221,-261.5 128.221,-229.5 0,-229.5"/>
<text text-anchor="start" x="8" y="-248.5" font-family="Helvetica,sans-Serif" font-size="10.00" fill="#000000">LFSTK_windowClass::</text>
<text text-anchor="middle" x="64.1105" y="-236.5" font-family="Helvetica,sans-Serif" font-size="10.00" fill="#000000">windowClassInitCommon</text>
</a>
</g>
</g>
<!-- Node2 -->
<g id="node2" class="node">
<title>Node2</title>
<g id="a_node2"><a xlink:href="class_l_f_s_t_k__window_class_a36491159cf4fdc3c5d0909b2195af9ab.xhtml#a36491159cf4fdc3c5d0909b2195af9ab" target="_top" xlink:title=" ">
<polygon fill="none" stroke="#000000" points="189.786,-384.5 189.786,-416.5 306.349,-416.5 306.349,-384.5 189.786,-384.5"/>
<text text-anchor="start" x="197.786" y="-403.5" font-family="Helvetica,sans-Serif" font-size="10.00" fill="#000000">LFSTK_windowClass::</text>
<text text-anchor="middle" x="248.0675" y="-391.5" font-family="Helvetica,sans-Serif" font-size="10.00" fill="#000000">initWindow</text>
</a>
</g>
</g>
<!-- Node1&#45;&gt;Node2 -->
<g id="edge1" class="edge">
<title>Node1&#45;&gt;Node2</title>
<path fill="none" stroke="#191970" d="M73.0968,-261.5096C88.5149,-287.6233 122.4226,-339.4786 164.221,-369.5 169.8107,-373.5147 175.9796,-377.0688 182.3595,-380.2012"/>
<polygon fill="#191970" stroke="#191970" points="181.2623,-383.5468 191.8147,-384.4936 184.1559,-377.1729 181.2623,-383.5468"/>
</g>
<!-- Node5 -->
<g id="node5" class="node">
<title>Node5</title>
<g id="a_node5"><a xlink:href="class_l_f_s_t_k__lib_a46aa104681d600dd4eb24549e813b5cc.xhtml#a46aa104681d600dd4eb24549e813b5cc" target="_top" xlink:title=" ">
<polygon fill="none" stroke="#000000" points="539.373,-486.5 539.373,-518.5 687.067,-518.5 687.067,-486.5 539.373,-486.5"/>
<text text-anchor="start" x="547.373" y="-505.5" font-family="Helvetica,sans-Serif" font-size="10.00" fill="#000000">LFSTK_lib::LFSTK_getGlobal</text>
<text text-anchor="middle" x="613.22" y="-493.5" font-family="Helvetica,sans-Serif" font-size="10.00" fill="#000000">String</text>
</a>
</g>
</g>
<!-- Node1&#45;&gt;Node5 -->
<g id="edge8" class="edge">
<title>Node1&#45;&gt;Node5</title>
<path fill="none" stroke="#191970" d="M67.9747,-261.732C77.484,-297.8559 105.6281,-384.9676 164.221,-426.5 272.6147,-503.3327 432.1861,-512.0418 529.0329,-508.9578"/>
<polygon fill="#191970" stroke="#191970" points="529.2096,-512.4538 539.0742,-508.5886 528.9523,-505.4585 529.2096,-512.4538"/>
</g>
<!-- Node7 -->
<g id="node7" class="node">
<title>Node7</title>
<g id="a_node7"><a xlink:href="class_l_f_s_t_k__window_class_a9d54e326ce33b8806f19c9353269e6a8.xhtml#a9d54e326ce33b8806f19c9353269e6a8" target="_top" xlink:title=" ">
<polygon fill="none" stroke="#000000" points="554.9385,-282.5 554.9385,-314.5 671.5015,-314.5 671.5015,-282.5 554.9385,-282.5"/>
<text text-anchor="start" x="562.9385" y="-301.5" font-family="Helvetica,sans-Serif" font-size="10.00" fill="#000000">LFSTK_windowClass::</text>
<text text-anchor="middle" x="613.22" y="-289.5" font-family="Helvetica,sans-Serif" font-size="10.00" fill="#000000">LFSTK_setFontString</text>
</a>
</g>
</g>
<!-- Node1&#45;&gt;Node7 -->
<g id="edge12" class="edge">
<title>Node1&#45;&gt;Node7</title>
<path fill="none" stroke="#191970" d="M75.749,-261.8668C92.4315,-283.7464 125.4444,-321.5099 164.221,-336.5 231.7273,-362.5964 436.2103,-331.1174 544.3966,-311.6586"/>
<polygon fill="#191970" stroke="#191970" points="545.3431,-315.0441 554.5578,-309.8153 544.0936,-308.1565 545.3431,-315.0441"/>
</g>
<!-- Node9 -->
<g id="node9" class="node">
<title>Node9</title>
<g id="a_node9"><a xlink:href="class_l_f_s_t_k__lib_afb350ab1bd8980ed130637b75244d7b2.xhtml#afb350ab1bd8980ed130637b75244d7b2" target="_top" xlink:title=" ">
<polygon fill="none" stroke="#000000" points="164.221,-306.5 164.221,-326.5 331.914,-326.5 331.914,-306.5 164.221,-306.5"/>
<text text-anchor="middle" x="248.0675" y="-313.5" font-family="Helvetica,sans-Serif" font-size="10.00" fill="#000000">LFSTK_lib::LFSTK_getUseTheme</text>
</a>
</g>
</g>
<!-- Node1&#45;&gt;Node9 -->
<g id="edge9" class="edge">
<title>Node1&#45;&gt;Node9</title>
<path fill="none" stroke="#191970" d="M90.4499,-261.5633C110.16,-272.9853 138.1054,-287.9388 164.221,-297.5 170.6245,-299.8444 177.413,-301.9572 184.245,-303.8463"/>
<polygon fill="#191970" stroke="#191970" points="183.6864,-307.3176 194.2461,-306.455 185.4533,-300.5443 183.6864,-307.3176"/>
</g>
<!-- Node10 -->
<g id="node10" class="node">
<title>Node10</title>
<g id="a_node10"><a xlink:href="class_l_f_s_t_k__lib_aa5e46eec51c9f1f2a86ef7e22d6cba5b.xhtml#aa5e46eec51c9f1f2a86ef7e22d6cba5b" target="_top" xlink:title=" ">
<polygon fill="none" stroke="#000000" points="177.0045,-255.5 177.0045,-287.5 319.1305,-287.5 319.1305,-255.5 177.0045,-255.5"/>
<text text-anchor="start" x="185.0045" y="-274.5" font-family="Helvetica,sans-Serif" font-size="10.00" fill="#000000">LFSTK_lib::LFSTK_setCairo</text>
<text text-anchor="middle" x="248.0675" y="-262.5" font-family="Helvetica,sans-Serif" font-size="10.00" fill="#000000">Surface</text>
</a>
</g>
</g>
<!-- Node1&#45;&gt;Node10 -->
<g id="edge10" class="edge">
<title>Node1&#45;&gt;Node10</title>
<path fill="none" stroke="#191970" d="M128.4497,-254.5935C140.7946,-256.3383 153.8717,-258.1866 166.6718,-259.9957"/>
<polygon fill="#191970" stroke="#191970" points="166.4671,-263.5015 176.8585,-261.4355 167.4468,-256.5704 166.4671,-263.5015"/>
</g>
<!-- Node11 -->
<g id="node11" class="node">
<title>Node11</title>
<g id="a_node11"><a xlink:href="class_l_f_s_t_k__window_class_aa7d21cd46a0ac218de3fddc2483a58bb.xhtml#aa7d21cd46a0ac218de3fddc2483a58bb" target="_top" xlink:title=" ">
<polygon fill="none" stroke="#000000" points="189.786,-204.5 189.786,-236.5 306.349,-236.5 306.349,-204.5 189.786,-204.5"/>
<text text-anchor="start" x="197.786" y="-223.5" font-family="Helvetica,sans-Serif" font-size="10.00" fill="#000000">LFSTK_windowClass::</text>
<text text-anchor="middle" x="248.0675" y="-211.5" font-family="Helvetica,sans-Serif" font-size="10.00" fill="#000000">LFSTK_setDecorated</text>
</a>
</g>
</g>
<!-- Node1&#45;&gt;Node11 -->
<g id="edge11" class="edge">
<title>Node1&#45;&gt;Node11</title>
<path fill="none" stroke="#191970" d="M128.4497,-236.7562C144.9236,-234.5174 162.7015,-232.1014 179.3848,-229.8341"/>
<polygon fill="#191970" stroke="#191970" points="180.172,-233.2593 189.6096,-228.4445 179.2293,-226.3231 180.172,-233.2593"/>
</g>
<!-- Node12 -->
<g id="node12" class="node">
<title>Node12</title>
<g id="a_node12"><a xlink:href="class_l_f_s_t_k__window_class_a636fbd200e6a7f105c67443254872aed.xhtml#a636fbd200e6a7f105c67443254872aed" target="_top" xlink:title=" ">
<polygon fill="none" stroke="#000000" points="189.786,-153.5 189.786,-185.5 306.349,-185.5 306.349,-153.5 189.786,-153.5"/>
<text text-anchor="start" x="197.786" y="-172.5" font-family="Helvetica,sans-Serif" font-size="10.00" fill="#000000">LFSTK_windowClass::</text>
<text text-anchor="middle" x="248.0675" y="-160.5" font-family="Helvetica,sans-Serif" font-size="10.00" fill="#000000">LFSTK_setTile</text>
</a>
</g>
</g>
<!-- Node1&#45;&gt;Node12 -->
<g id="edge13" class="edge">
<title>Node1&#45;&gt;Node12</title>
<path fill="none" stroke="#191970" d="M92.3816,-229.3536C112.0897,-218.5352 139.2281,-204.4961 164.221,-194.5 169.2455,-192.4904 174.4952,-190.556 179.8103,-188.7148"/>
<polygon fill="#191970" stroke="#191970" points="181.0387,-191.9946 189.4135,-185.505 178.8197,-185.3556 181.0387,-191.9946"/>
</g>
<!-- Node15 -->
<g id="node15" class="node">
<title>Node15</title>
<g id="a_node15"><a xlink:href="class_l_f_s_t_k__window_class_a8038fef8334f815d5ed841ceffb00601.xhtml#a8038fef8334f815d5ed841ceffb00601" target="_top" xlink:title=" ">
<polygon fill="none" stroke="#000000" points="186.171,-102.5 186.171,-134.5 309.964,-134.5 309.964,-102.5 186.171,-102.5"/>
<text text-anchor="start" x="194.171" y="-121.5" font-family="Helvetica,sans-Serif" font-size="10.00" fill="#000000">LFSTK_windowClass::</text>
<text text-anchor="middle" x="248.0675" y="-109.5" font-family="Helvetica,sans-Serif" font-size="10.00" fill="#000000">LFSTK_setWindowType</text>
</a>
</g>
</g>
<!-- Node1&#45;&gt;Node15 -->
<g id="edge16" class="edge">
<title>Node1&#45;&gt;Node15</title>
<path fill="none" stroke="#191970" d="M75.7924,-229.2108C92.7687,-206.7023 126.3906,-166.293 164.221,-143.5 168.1324,-141.1434 172.2814,-138.9955 176.5583,-137.0398"/>
<polygon fill="#191970" stroke="#191970" points="178.206,-140.1446 186.0828,-133.059 175.5066,-133.686 178.206,-140.1446"/>
</g>
<!-- Node16 -->
<g id="node16" class="node">
<title>Node16</title>
<g id="a_node16"><a xlink:href="class_l_f_s_t_k__window_class_a734d0f96ac656bd7b03e26da1c1db28c.xhtml#a734d0f96ac656bd7b03e26da1c1db28c" target="_top" xlink:title=" ">
<polygon fill="none" stroke="#000000" points="189.786,-51.5 189.786,-83.5 306.349,-83.5 306.349,-51.5 189.786,-51.5"/>
<text text-anchor="start" x="197.786" y="-70.5" font-family="Helvetica,sans-Serif" font-size="10.00" fill="#000000">LFSTK_windowClass::</text>
<text text-anchor="middle" x="248.0675" y="-58.5" font-family="Helvetica,sans-Serif" font-size="10.00" fill="#000000">loadMonitorData</text>
</a>
</g>
</g>
<!-- Node1&#45;&gt;Node16 -->
<g id="edge17" class="edge">
<title>Node1&#45;&gt;Node16</title>
<path fill="none" stroke="#191970" d="M70.1942,-229.4007C82.8143,-198.1924 114.8476,-129.3053 164.221,-92.5 169.0582,-88.8941 174.4127,-85.8054 180.0076,-83.1601"/>
<polygon fill="#191970" stroke="#191970" points="181.7475,-86.2249 189.6015,-79.1139 179.0273,-79.7751 181.7475,-86.2249"/>
</g>
<!-- Node17 -->
<g id="node17" class="node">
<title>Node17</title>
<g id="a_node17"><a xlink:href="class_l_f_s_t_k__window_class_ac8c342109a0f8599f550475cef048745.xhtml#ac8c342109a0f8599f550475cef048745" target="_top" xlink:title=" ">
<polygon fill="none" stroke="#000000" points="189.786,-.5 189.786,-32.5 306.349,-32.5 306.349,-.5 189.786,-.5"/>
<text text-anchor="start" x="197.786" y="-19.5" font-family="Helvetica,sans-Serif" font-size="10.00" fill="#000000">LFSTK_windowClass::</text>
<text text-anchor="middle" x="248.0675" y="-7.5" font-family="Helvetica,sans-Serif" font-size="10.00" fill="#000000">setWindowGeom</text>
</a>
</g>
</g>
<!-- Node1&#45;&gt;Node17 -->
<g id="edge18" class="edge">
<title>Node1&#45;&gt;Node17</title>
<path fill="none" stroke="#191970" d="M67.4087,-229.2558C76.0892,-190.7107 103.2307,-93.099 164.221,-41.5 169.0155,-37.4438 174.4482,-34.0457 180.188,-31.1989"/>
<polygon fill="#191970" stroke="#191970" points="181.6536,-34.3781 189.4128,-27.1639 178.8483,-27.9648 181.6536,-34.3781"/>
</g>
<!-- Node3 -->
<g id="node3" class="node">
<title>Node3</title>
<g id="a_node3"><a xlink:href="class_l_f_s_t_k__window_class_aa1cdaa019a010bb17387dd39b6165303.xhtml#aa1cdaa019a010bb17387dd39b6165303" target="_top" xlink:title=" ">
<polygon fill="none" stroke="#000000" points="372.917,-384.5 372.917,-416.5 489.48,-416.5 489.48,-384.5 372.917,-384.5"/>
<text text-anchor="start" x="380.917" y="-403.5" font-family="Helvetica,sans-Serif" font-size="10.00" fill="#000000">LFSTK_windowClass::</text>
<text text-anchor="middle" x="431.1985" y="-391.5" font-family="Helvetica,sans-Serif" font-size="10.00" fill="#000000">loadGlobalColours</text>
</a>
</g>
</g>
<!-- Node2&#45;&gt;Node3 -->
<g id="edge2" class="edge">
<title>Node2&#45;&gt;Node3</title>
<path fill="none" stroke="#191970" d="M306.5148,-400.5C324.3557,-400.5 344.1352,-400.5 362.5856,-400.5"/>
<polygon fill="#191970" stroke="#191970" points="362.6784,-404.0001 372.6783,-400.5 362.6783,-397.0001 362.6784,-404.0001"/>
</g>
<!-- Node4 -->
<g id="node4" class="node">
<title>Node4</title>
<g id="a_node4"><a xlink:href="class_l_f_s_t_k__lib_a24d88a5207e8355d10b788238d981fe6.xhtml#a24d88a5207e8355d10b788238d981fe6" target="_top" xlink:title=" ">
<polygon fill="none" stroke="#000000" points="543.537,-435.5 543.537,-467.5 682.903,-467.5 682.903,-435.5 543.537,-435.5"/>
<text text-anchor="start" x="551.537" y="-454.5" font-family="Helvetica,sans-Serif" font-size="10.00" fill="#000000">LFSTK_lib::LFSTK_getAuto</text>
<text text-anchor="middle" x="613.22" y="-442.5" font-family="Helvetica,sans-Serif" font-size="10.00" fill="#000000">LabelColour</text>
</a>
</g>
</g>
<!-- Node3&#45;&gt;Node4 -->
<g id="edge3" class="edge">
<title>Node3&#45;&gt;Node4</title>
<path fill="none" stroke="#191970" d="M488.7912,-416.6367C507.062,-421.756 527.4195,-427.4598 546.289,-432.7468"/>
<polygon fill="#191970" stroke="#191970" points="545.4284,-436.1404 556.0019,-435.4683 547.3171,-429.4 545.4284,-436.1404"/>
</g>
<!-- Node3&#45;&gt;Node5 -->
<g id="edge4" class="edge">
<title>Node3&#45;&gt;Node5</title>
<path fill="none" stroke="#191970" d="M447.7922,-416.5131C466.5012,-433.7751 498.5013,-460.9901 530.483,-477.5 533.9831,-479.3068 537.6353,-481.006 541.3716,-482.6005"/>
<polygon fill="#191970" stroke="#191970" points="540.2082,-485.9045 550.7937,-486.3505 542.7968,-479.4007 540.2082,-485.9045"/>
</g>
<!-- Node6 -->
<g id="node6" class="node">
<title>Node6</title>
<g id="a_node6"><a xlink:href="class_l_f_s_t_k__window_class_a3a14b82ac1628b75173c5cb37d20926b.xhtml#a3a14b82ac1628b75173c5cb37d20926b" target="_top" xlink:title=" ">
<polygon fill="none" stroke="#000000" points="542.156,-384.5 542.156,-416.5 684.284,-416.5 684.284,-384.5 542.156,-384.5"/>
<text text-anchor="start" x="550.156" y="-403.5" font-family="Helvetica,sans-Serif" font-size="10.00" fill="#000000">LFSTK_windowClass::</text>
<text text-anchor="middle" x="613.22" y="-391.5" font-family="Helvetica,sans-Serif" font-size="10.00" fill="#000000">LFSTK_setFontColourName</text>
</a>
</g>
</g>
<!-- Node3&#45;&gt;Node6 -->
<g id="edge5" class="edge">
<title>Node3&#45;&gt;Node6</title>
<path fill="none" stroke="#191970" d="M489.5423,-400.5C503.0141,-400.5 517.587,-400.5 531.8411,-400.5"/>
<polygon fill="#191970" stroke="#191970" points="532.1437,-404.0001 542.1437,-400.5 532.1437,-397.0001 532.1437,-404.0001"/>
</g>
<!-- Node3&#45;&gt;Node7 -->
<g id="edge6" class="edge">
<title>Node3&#45;&gt;Node7</title>
<path fill="none" stroke="#191970" d="M470.9659,-384.3599C479.1515,-380.1422 487.4194,-375.1629 494.483,-369.5 514.4664,-353.4793 509.3479,-338.9675 530.483,-324.5 535.0645,-321.3638 540.0428,-318.5917 545.2086,-316.1437"/>
<polygon fill="#191970" stroke="#191970" points="546.8592,-319.2439 554.6641,-312.0791 544.0947,-312.8129 546.8592,-319.2439"/>
</g>
<!-- Node8 -->
<g id="node8" class="node">
<title>Node8</title>
<g id="a_node8"><a xlink:href="class_l_f_s_t_k__window_class_a612850c5641e44aea8a2c0b11ad8cd1b.xhtml#a612850c5641e44aea8a2c0b11ad8cd1b" target="_top" xlink:title=" ">
<polygon fill="none" stroke="#000000" points="534.382,-333.5 534.382,-365.5 692.058,-365.5 692.058,-333.5 534.382,-333.5"/>
<text text-anchor="start" x="542.382" y="-352.5" font-family="Helvetica,sans-Serif" font-size="10.00" fill="#000000">LFSTK_windowClass::</text>
<text text-anchor="middle" x="613.22" y="-340.5" font-family="Helvetica,sans-Serif" font-size="10.00" fill="#000000">LFSTK_setWindowColourName</text>
</a>
</g>
</g>
<!-- Node3&#45;&gt;Node8 -->
<g id="edge7" class="edge">
<title>Node3&#45;&gt;Node8</title>
<path fill="none" stroke="#191970" d="M488.7912,-384.3633C507.062,-379.244 527.4195,-373.5402 546.289,-368.2532"/>
<polygon fill="#191970" stroke="#191970" points="547.3171,-371.6 556.0019,-365.5317 545.4284,-364.8596 547.3171,-371.6"/>
</g>
<!-- Node13 -->
<g id="node13" class="node">
<title>Node13</title>
<g id="a_node13"><a xlink:href="class_l_f_s_t_k__lib_ad794f7ab3a4ca5a03adbb0472fa93788.xhtml#ad794f7ab3a4ca5a03adbb0472fa93788" target="_top" xlink:title=" ">
<polygon fill="none" stroke="#000000" points="367.914,-147.5 367.914,-191.5 494.483,-191.5 494.483,-147.5 367.914,-147.5"/>
<text text-anchor="start" x="375.914" y="-178.5" font-family="Helvetica,sans-Serif" font-size="10.00" fill="#000000">LFSTK_lib::LFSTK_cairo</text>
<text text-anchor="start" x="375.914" y="-166.5" font-family="Helvetica,sans-Serif" font-size="10.00" fill="#000000">_image_surface_create</text>
<text text-anchor="middle" x="431.1985" y="-154.5" font-family="Helvetica,sans-Serif" font-size="10.00" fill="#000000">_from_jpeg</text>
</a>
</g>
</g>
<!-- Node12&#45;&gt;Node13 -->
<g id="edge14" class="edge">
<title>Node12&#45;&gt;Node13</title>
<path fill="none" stroke="#191970" d="M306.5148,-169.5C322.6383,-169.5 340.3452,-169.5 357.2235,-169.5"/>
<polygon fill="#191970" stroke="#191970" points="357.604,-173.0001 367.6039,-169.5 357.6039,-166.0001 357.604,-173.0001"/>
</g>
<!-- Node14 -->
<g id="node14" class="node">
<title>Node14</title>
<g id="a_node14"><a xlink:href="class_l_f_s_t_k__lib_a6beac3954823730f63c32a97949db52a.xhtml#a6beac3954823730f63c32a97949db52a" target="_top" xlink:title=" ">
<polygon fill="none" stroke="#000000" points="530.483,-153.5 530.483,-185.5 695.957,-185.5 695.957,-153.5 530.483,-153.5"/>
<text text-anchor="start" x="538.483" y="-172.5" font-family="Helvetica,sans-Serif" font-size="10.00" fill="#000000">LFSTK_lib::cairo_image</text>
<text text-anchor="middle" x="613.22" y="-160.5" font-family="Helvetica,sans-Serif" font-size="10.00" fill="#000000">_surface_create_from_jpeg_mem</text>
</a>
</g>
</g>
<!-- Node13&#45;&gt;Node14 -->
<g id="edge15" class="edge">
<title>Node13&#45;&gt;Node14</title>
<path fill="none" stroke="#191970" d="M494.6053,-169.5C502.8646,-169.5 511.4589,-169.5 520.0787,-169.5"/>
<polygon fill="#191970" stroke="#191970" points="520.1908,-173.0001 530.1908,-169.5 520.1907,-166.0001 520.1908,-173.0001"/>
</g>
</g>
</svg>
        <g id="navigator" transform="translate(0 0)" fill="#404254">
                <rect fill="#f2f5e9" fill-opacity="0.5" stroke="#606060" stroke-width=".5" x="0" y="0" width="60" height="60"/>
                <use id="zoomplus" xlink:href="#zoomPlus" x="17" y="9" onmousedown="handleZoom(evt,'in')"/>
                <use id="zoomminus" xlink:href="#zoomMin" x="42" y="9" onmousedown="handleZoom(evt,'out')"/>
                <use id="reset" xlink:href="#resetDef" x="30" y="36" onmousedown="handleReset()"/>
                <g id="arrowUp" xlink:href="#dirArrow" transform="translate(30 24)" onmousedown="handlePan(0,-1)">
                  <use xlink:href="#rim" fill="#404040">
                        <set attributeName="fill" to="#808080" begin="arrowUp.mouseover" end="arrowUp.mouseout"/>
                  </use>
                  <path fill="none" stroke="white" stroke-width="1.5" d="M0,-3.0v7 M-2.5,-0.5L0,-3.0L2.5,-0.5"/>
                </g>
                <g id="arrowRight" xlink:href="#dirArrow" transform="rotate(90) translate(36 -43)" onmousedown="handlePan(1,0)">
                  <use xlink:href="#rim" fill="#404040">
                        <set attributeName="fill" to="#808080" begin="arrowRight.mouseover" end="arrowRight.mouseout"/>
                  </use>
                  <path fill="none" stroke="white" stroke-width="1.5" d="M0,-3.0v7 M-2.5,-0.5L0,-3.0L2.5,-0.5"/>
                </g>
                <g id="arrowDown" xlink:href="#dirArrow" transform="rotate(180) translate(-30 -48)" onmousedown="handlePan(0,1)">
                  <use xlink:href="#rim" fill="#404040">
                        <set attributeName="fill" to="#808080" begin="arrowDown.mouseover" end="arrowDown.mouseout"/>
                  </use>
                  <path fill="none" stroke="white" stroke-width="1.5" d="M0,-3.0v7 M-2.5,-0.5L0,-3.0L2.5,-0.5"/>
                </g>
                <g id="arrowLeft" xlink:href="#dirArrow" transform="rotate(270) translate(-36 17)" onmousedown="handlePan(-1,0)">
                  <use xlink:href="#rim" fill="#404040">
                        <set attributeName="fill" to="#808080" begin="arrowLeft.mouseover" end="arrowLeft.mouseout"/>
                  </use>
                  <path fill="none" stroke="white" stroke-width="1.5" d="M0,-3.0v7 M-2.5,-0.5L0,-3.0L2.5,-0.5"/>
                </g>
        </g>
        <svg viewBox="0 0 15 15" width="100%" height="30px" preserveAspectRatio="xMaxYMin meet">
         <g id="arrow_out" transform="scale(0.3 0.3)">
          <a xlink:href="class_l_f_s_t_k__window_class_a7d01ee5bb6c3fef9aa9b55323c04f90c_a7d01ee5bb6c3fef9aa9b55323c04f90c_cgraph_org.svg" target="_base">
           <rect id="button" ry="5" rx="5" y="6" x="6" height="38" width="38"
                fill="#f2f5e9" fill-opacity="0.5" stroke="#606060" stroke-width="1.0"/>
           <path id="arrow"
             d="M 11.500037,31.436501 C 11.940474,20.09759 22.043105,11.32322 32.158766,21.979434 L 37.068811,17.246167 C 37.068811,17.246167 37.088388,32 37.088388,32 L 22.160133,31.978069 C 22.160133,31.978069 26.997745,27.140456 26.997745,27.140456 C 18.528582,18.264221 13.291696,25.230495 11.500037,31.436501 z"
             style="fill:#404040;"/>
          </a>
         </g>
        </svg>
</svg>
