<?xml version="1.0" encoding="UTF-8" standalone="no"?>
<!DOCTYPE svg PUBLIC "-//W3C//DTD SVG 1.1//EN"
 "http://www.w3.org/Graphics/SVG/1.1/DTD/svg11.dtd">
<!-- Generated by graphviz version 2.40.1 (20161225.0304)
 -->
<!-- Title: LFSTK_windowClass::LFSTK_setKeepAbove Pages: 1 -->
<svg width="450pt" height="92pt"
 viewBox="0.00 0.00 449.72 92.00" xmlns="http://www.w3.org/2000/svg" xmlns:xlink="http://www.w3.org/1999/xlink">
<g id="graph0" class="graph" transform="scale(1 1) rotate(0) translate(4 88)">
<title>LFSTK_windowClass::LFSTK_setKeepAbove</title>
<!-- Node1 -->
<g id="node1" class="node">
<title>Node1</title>
<g id="a_node1"><a xlink:title=" ">
<polygon fill="#bfbfbf" stroke="#000000" points="324.018,-25.5 324.018,-57.5 441.722,-57.5 441.722,-25.5 324.018,-25.5"/>
<text text-anchor="start" x="332.018" y="-44.5" font-family="Helvetica,sans-Serif" font-size="10.00" fill="#000000">LFSTK_windowClass::</text>
<text text-anchor="middle" x="382.87" y="-32.5" font-family="Helvetica,sans-Serif" font-size="10.00" fill="#000000">LFSTK_setKeepAbove</text>
</a>
</g>
</g>
<!-- Node2 -->
<g id="node2" class="node">
<title>Node2</title>
<g id="a_node2"><a xlink:href="class_l_f_s_t_k__font_dialog_class_a14c5f93b43c729a1bcb8bebe141415f2.xhtml#a14c5f93b43c729a1bcb8bebe141415f2" target="_top" xlink:title=" ">
<polygon fill="none" stroke="#000000" points="163.673,-51.5 163.673,-83.5 286.354,-83.5 286.354,-51.5 163.673,-51.5"/>
<text text-anchor="start" x="171.673" y="-70.5" font-family="Helvetica,sans-Serif" font-size="10.00" fill="#000000">LFSTK_fontDialogClass</text>
<text text-anchor="middle" x="225.0135" y="-58.5" font-family="Helvetica,sans-Serif" font-size="10.00" fill="#000000">::LFSTK_showDialog</text>
</a>
</g>
</g>
<!-- Node1&#45;&gt;Node2 -->
<g id="edge1" class="edge">
<title>Node1&#45;&gt;Node2</title>
<path fill="none" stroke="#191970" d="M313.5418,-52.9188C304.51,-54.4064 295.308,-55.922 286.4183,-57.3862"/>
<polygon fill="#191970" stroke="#191970" points="314.3427,-56.3341 323.6409,-51.2554 313.2051,-49.4272 314.3427,-56.3341"/>
</g>
<!-- Node3 -->
<g id="node3" class="node">
<title>Node3</title>
<g id="a_node3"><a xlink:href="class_l_f_s_t_k__file_dialog_class_af77972b8a46616ba4c7bec555b2b0a14.xhtml#af77972b8a46616ba4c7bec555b2b0a14" target="_top" xlink:title=" ">
<polygon fill="none" stroke="#000000" points="162.009,-.5 162.009,-32.5 288.018,-32.5 288.018,-.5 162.009,-.5"/>
<text text-anchor="start" x="170.009" y="-19.5" font-family="Helvetica,sans-Serif" font-size="10.00" fill="#000000">LFSTK_fileDialogClass</text>
<text text-anchor="middle" x="225.0135" y="-7.5" font-family="Helvetica,sans-Serif" font-size="10.00" fill="#000000">::LFSTK_showFileDialog</text>
</a>
</g>
</g>
<!-- Node1&#45;&gt;Node3 -->
<g id="edge2" class="edge">
<title>Node1&#45;&gt;Node3</title>
<path fill="none" stroke="#191970" d="M313.502,-30.5141C305.109,-29.1849 296.5697,-27.8325 288.2712,-26.5182"/>
<polygon fill="#191970" stroke="#191970" points="313.2165,-34.0124 323.6409,-32.1198 314.3116,-27.0986 313.2165,-34.0124"/>
</g>
<!-- Node4 -->
<g id="node4" class="node">
<title>Node4</title>
<g id="a_node4"><a xlink:href="class_l_f_s_t_k__file_dialog_class_aacf1d4b61cbb5b40d06f591ea96f9ea7.xhtml#aacf1d4b61cbb5b40d06f591ea96f9ea7" target="_top" xlink:title=" ">
<polygon fill="none" stroke="#000000" points="0,-.5 0,-32.5 126.009,-32.5 126.009,-.5 0,-.5"/>
<text text-anchor="start" x="8" y="-19.5" font-family="Helvetica,sans-Serif" font-size="10.00" fill="#000000">LFSTK_fileDialogClass</text>
<text text-anchor="middle" x="63.0045" y="-7.5" font-family="Helvetica,sans-Serif" font-size="10.00" fill="#000000">::LFSTK_showFileDialog</text>
</a>
</g>
</g>
<!-- Node3&#45;&gt;Node4 -->
<g id="edge3" class="edge">
<title>Node3&#45;&gt;Node4</title>
<path fill="none" stroke="#191970" d="M151.6358,-16.5C143.144,-16.5 134.5393,-16.5 126.1996,-16.5"/>
<polygon fill="#191970" stroke="#191970" points="151.9127,-20.0001 161.9127,-16.5 151.9127,-13.0001 151.9127,-20.0001"/>
</g>
</g>
</svg>
