<?xml version="1.0" encoding="UTF-8" standalone="no"?>
<!DOCTYPE svg PUBLIC "-//W3C//DTD SVG 1.1//EN"
 "http://www.w3.org/Graphics/SVG/1.1/DTD/svg11.dtd">
<!-- Generated by graphviz version 2.40.1 (20161225.0304)
 -->
<!-- Title: LFSTK_fileDialogClass Pages: 1 -->
<!--zoomable 535 -->
<svg id="main" version="1.1" xmlns="http://www.w3.org/2000/svg" xmlns:xlink="http://www.w3.org/1999/xlink" xml:space="preserve" onload="init(evt)">
<style type="text/css"><![CDATA[
.edge:hover path { stroke: red; }
.edge:hover polygon { stroke: red; fill: red; }
]]></style>
<script type="text/javascript"><![CDATA[
var edges = document.getElementsByTagName('g');
if (edges && edges.length) {
  for (var i=0;i<edges.length;i++) {
    if (edges[i].id.substr(0,4)=='edge') {
      edges[i].setAttribute('class','edge');
    }
  }
}
]]></script>
        <defs>
                <circle id="rim" cx="0" cy="0" r="7"/>
                <circle id="rim2" cx="0" cy="0" r="3.5"/>
                <g id="zoomPlus">
                        <use xlink:href="#rim" fill="#404040">
                                <set attributeName="fill" to="#808080" begin="zoomplus.mouseover" end="zoomplus.mouseout"/>
                        </use>
                        <path d="M-4,0h8M0,-4v8" fill="none" stroke="white" stroke-width="1.5" pointer-events="none"/>
                </g>
                <g id="zoomMin">
                        <use xlink:href="#rim" fill="#404040">
                                <set attributeName="fill" to="#808080" begin="zoomminus.mouseover" end="zoomminus.mouseout"/>
                        </use>
                        <path d="M-4,0h8" fill="none" stroke="white" stroke-width="1.5" pointer-events="none"/>
                </g>
                <g id="dirArrow">
                        <path fill="none" stroke="white" stroke-width="1.5" d="M0,-3.0v7 M-2.5,-0.5L0,-3.0L2.5,-0.5"/>
                </g>
               <g id="resetDef">
                       <use xlink:href="#rim2" fill="#404040">
                               <set attributeName="fill" to="#808080" begin="reset.mouseover" end="reset.mouseout"/>
                       </use>
               </g>
        </defs>

<script type="text/javascript">
var viewWidth = 1637;
var viewHeight = 535;
var sectionId = 'dynsection-0';
</script>
<script xlink:href="svgpan.js"/>
<svg id="graph" class="graph">
<g id="viewport">
<title>LFSTK_fileDialogClass</title>
<!-- Node1 -->
<g id="node1" class="node">
<title>Node1</title>
<g id="a_node1"><a xlink:title="File dialog class for LFSToolKit.">
<polygon fill="#bfbfbf" stroke="#000000" points="1510.683,-320.5 1510.683,-340.5 1629.464,-340.5 1629.464,-320.5 1510.683,-320.5"/>
<text text-anchor="middle" x="1570.0735" y="-327.5" font-family="Helvetica,sans-Serif" font-size="10.00" fill="#000000">LFSTK_fileDialogClass</text>
</a>
</g>
</g>
<!-- Node2 -->
<g id="node2" class="node">
<title>Node2</title>
<g id="a_node2"><a xlink:href="class_l_f_s_t_k__image_class.xhtml" target="_top" xlink:title="Image class for LFSToolKit.">
<polygon fill="none" stroke="#000000" points="913.859,-283.5 913.859,-303.5 1018.755,-303.5 1018.755,-283.5 913.859,-283.5"/>
<text text-anchor="middle" x="966.307" y="-290.5" font-family="Helvetica,sans-Serif" font-size="10.00" fill="#000000">LFSTK_imageClass</text>
</a>
</g>
</g>
<!-- Node2&#45;&gt;Node1 -->
<g id="edge1" class="edge">
<title>Node2&#45;&gt;Node1</title>
<path fill="none" stroke="#9a32cd" stroke-dasharray="5,2" d="M1029.2121,-294.4989C1115.4124,-296.2209 1275.0301,-300.6724 1410.777,-311.5 1443.8156,-314.1353 1480.5593,-318.4261 1510.4246,-322.2638"/>
<polygon fill="#9a32cd" stroke="#9a32cd" points="1029.1364,-290.9968 1019.0704,-294.3022 1029.0006,-297.9955 1029.1364,-290.9968"/>
<text text-anchor="middle" x="1220.702" y="-304.5" font-family="Helvetica,sans-Serif" font-size="10.00" fill="#000000"> tux</text>
</g>
<!-- Node3 -->
<g id="node3" class="node">
<title>Node3</title>
<g id="a_node3"><a xlink:href="class_l_f_s_t_k__gadget_class.xhtml" target="_top" xlink:title="Base class for LFSToolKit gadgets.">
<polygon fill="none" stroke="#000000" points="556.694,-312.5 556.694,-332.5 664.939,-332.5 664.939,-312.5 556.694,-312.5"/>
<text text-anchor="middle" x="610.8165" y="-319.5" font-family="Helvetica,sans-Serif" font-size="10.00" fill="#000000">LFSTK_gadgetClass</text>
</a>
</g>
</g>
<!-- Node3&#45;&gt;Node2 -->
<g id="edge2" class="edge">
<title>Node3&#45;&gt;Node2</title>
<path fill="none" stroke="#191970" d="M675.4052,-317.231C743.7362,-311.6568 850.2585,-302.9669 913.6746,-297.7936"/>
<polygon fill="#191970" stroke="#191970" points="674.8771,-313.7624 665.1948,-318.064 675.4463,-320.7392 674.8771,-313.7624"/>
</g>
<!-- Node8 -->
<g id="node8" class="node">
<title>Node8</title>
<g id="a_node8"><a xlink:href="class_l_f_s_t_k__window_class.xhtml" target="_top" xlink:title="Window class for LFSToolKit.">
<polygon fill="none" stroke="#000000" points="784.854,-125.5 784.854,-145.5 895.859,-145.5 895.859,-125.5 784.854,-125.5"/>
<text text-anchor="middle" x="840.3565" y="-132.5" font-family="Helvetica,sans-Serif" font-size="10.00" fill="#000000">LFSTK_windowClass</text>
</a>
</g>
</g>
<!-- Node3&#45;&gt;Node8 -->
<g id="edge11" class="edge">
<title>Node3&#45;&gt;Node8</title>
<path fill="none" stroke="#9a32cd" stroke-dasharray="5,2" d="M621.2882,-303.5185C633.4765,-283.1874 655.485,-251.4338 682.939,-233.5 715.3147,-212.3513 733.5177,-230.0995 766.854,-210.5 795.9291,-193.4058 821.367,-161.8506 833.2406,-145.6623"/>
<polygon fill="#9a32cd" stroke="#9a32cd" points="618.233,-301.8101 616.2536,-312.2184 624.2917,-305.3163 618.233,-301.8101"/>
<text text-anchor="middle" x="724.8965" y="-248.5" font-family="Helvetica,sans-Serif" font-size="10.00" fill="#000000"> dropGadget</text>
<text text-anchor="middle" x="724.8965" y="-236.5" font-family="Helvetica,sans-Serif" font-size="10.00" fill="#000000">popupFromGadget</text>
</g>
<!-- Node13 -->
<g id="node13" class="node">
<title>Node13</title>
<g id="a_node13"><a xlink:href="structmapped_listener.xhtml" target="_top" xlink:title=" ">
<polygon fill="none" stroke="#000000" points="796.513,-334.5 796.513,-354.5 884.2,-354.5 884.2,-334.5 796.513,-334.5"/>
<text text-anchor="middle" x="840.3565" y="-341.5" font-family="Helvetica,sans-Serif" font-size="10.00" fill="#000000">mappedListener</text>
</a>
</g>
</g>
<!-- Node3&#45;&gt;Node13 -->
<g id="edge17" class="edge">
<title>Node3&#45;&gt;Node13</title>
<path fill="none" stroke="#9a32cd" stroke-dasharray="5,2" d="M650.0619,-335.3548C660.6219,-338.2692 672.1184,-340.9574 682.939,-342.5 720.9556,-347.9197 764.6591,-347.9928 796.3562,-346.9556"/>
<polygon fill="#9a32cd" stroke="#9a32cd" points="650.856,-331.941 640.277,-332.5213 648.9089,-338.6648 650.856,-331.941"/>
<text text-anchor="middle" x="724.8965" y="-349.5" font-family="Helvetica,sans-Serif" font-size="10.00" fill="#000000"> gadget</text>
</g>
<!-- Node15 -->
<g id="node15" class="node">
<title>Node15</title>
<g id="a_node15"><a xlink:href="class_l_f_s_t_k__label_class.xhtml" target="_top" xlink:title="Label class for LFSToolKit gadgets.">
<polygon fill="none" stroke="#000000" points="1171.309,-224.5 1171.309,-244.5 1270.095,-244.5 1270.095,-224.5 1171.309,-224.5"/>
<text text-anchor="middle" x="1220.702" y="-231.5" font-family="Helvetica,sans-Serif" font-size="10.00" fill="#000000">LFSTK_labelClass</text>
</a>
</g>
</g>
<!-- Node3&#45;&gt;Node15 -->
<g id="edge22" class="edge">
<title>Node3&#45;&gt;Node15</title>
<path fill="none" stroke="#191970" d="M660.1838,-310.1876C667.7786,-308.4895 675.5501,-306.8634 682.939,-305.5 861.4419,-272.5629 1076.004,-248.9743 1171.1314,-239.3288"/>
<polygon fill="#191970" stroke="#191970" points="659.3117,-306.7967 650.3483,-312.4453 660.8778,-313.6192 659.3117,-306.7967"/>
</g>
<!-- Node16 -->
<g id="node16" class="node">
<title>Node16</title>
<g id="a_node16"><a xlink:href="class_l_f_s_t_k__line_edit_class.xhtml" target="_top" xlink:title="Line edit class for LFSToolKit.">
<polygon fill="none" stroke="#000000" points="785.13,-381.5 785.13,-401.5 895.583,-401.5 895.583,-381.5 785.13,-381.5"/>
<text text-anchor="middle" x="840.3565" y="-388.5" font-family="Helvetica,sans-Serif" font-size="10.00" fill="#000000">LFSTK_lineEditClass</text>
</a>
</g>
</g>
<!-- Node3&#45;&gt;Node16 -->
<g id="edge24" class="edge">
<title>Node3&#45;&gt;Node16</title>
<path fill="none" stroke="#191970" d="M634.3421,-338.1088C648.0088,-346.5092 665.8558,-356.3747 682.939,-362.5 715.7681,-374.2711 754.2414,-381.4706 784.9351,-385.7518"/>
<polygon fill="#191970" stroke="#191970" points="635.9327,-334.9737 625.6092,-332.5912 632.1937,-340.8915 635.9327,-334.9737"/>
</g>
<!-- Node18 -->
<g id="node18" class="node">
<title>Node18</title>
<g id="a_node18"><a xlink:href="class_l_f_s_t_k__button_class.xhtml" target="_top" xlink:title="Basic button class for LFSToolKit.">
<polygon fill="none" stroke="#000000" points="787.624,-422.5 787.624,-442.5 893.089,-442.5 893.089,-422.5 787.624,-422.5"/>
<text text-anchor="middle" x="840.3565" y="-429.5" font-family="Helvetica,sans-Serif" font-size="10.00" fill="#000000">LFSTK_buttonClass</text>
</a>
</g>
</g>
<!-- Node3&#45;&gt;Node18 -->
<g id="edge28" class="edge">
<title>Node3&#45;&gt;Node18</title>
<path fill="none" stroke="#191970" d="M626.7706,-340.1047C640.4312,-354.2092 661.2774,-373.5516 682.939,-385.5 715.5303,-403.4772 755.8005,-415.3395 787.4514,-422.6497"/>
<polygon fill="#191970" stroke="#191970" points="629.0112,-337.3788 619.606,-332.501 623.9165,-342.1793 629.0112,-337.3788"/>
</g>
<!-- Node19 -->
<g id="node19" class="node">
<title>Node19</title>
<g id="a_node19"><a xlink:href="class_l_f_s_t_k__list_gadget_class.xhtml" target="_top" xlink:title="List class for LFSToolKit.">
<polygon fill="none" stroke="#000000" points="1288.095,-481.5 1288.095,-501.5 1410.777,-501.5 1410.777,-481.5 1288.095,-481.5"/>
<text text-anchor="middle" x="1349.436" y="-488.5" font-family="Helvetica,sans-Serif" font-size="10.00" fill="#000000">LFSTK_listGadgetClass</text>
</a>
</g>
</g>
<!-- Node3&#45;&gt;Node19 -->
<g id="edge30" class="edge">
<title>Node3&#45;&gt;Node19</title>
<path fill="none" stroke="#191970" d="M617.1814,-342.3117C627.1138,-370.417 648.7794,-421.9468 682.939,-453.5 719.4443,-487.2199 737.1644,-485.5226 784.854,-499.5 942.1314,-545.5965 989.5233,-520.4404 1153.309,-514.5 1205.2273,-512.617 1218.601,-516.3862 1270.095,-509.5 1283.8149,-507.6653 1298.6575,-504.5974 1311.7528,-501.5095"/>
<polygon fill="#191970" stroke="#191970" points="620.4742,-341.1233 613.9476,-332.7774 613.8451,-343.3718 620.4742,-341.1233"/>
</g>
<!-- Node20 -->
<g id="node20" class="node">
<title>Node20</title>
<g id="a_node20"><a xlink:href="class_l_f_s_t_k__scroll_bar_class.xhtml" target="_top" xlink:title="Scrollbar class for LFSToolKit.">
<polygon fill="none" stroke="#000000" points="1036.755,-484.5 1036.755,-504.5 1153.309,-504.5 1153.309,-484.5 1036.755,-484.5"/>
<text text-anchor="middle" x="1095.032" y="-491.5" font-family="Helvetica,sans-Serif" font-size="10.00" fill="#000000">LFSTK_scrollBarClass</text>
</a>
</g>
</g>
<!-- Node3&#45;&gt;Node20 -->
<g id="edge32" class="edge">
<title>Node3&#45;&gt;Node20</title>
<path fill="none" stroke="#191970" d="M621.2899,-341.3004C633.61,-361.8637 655.8572,-394.5457 682.939,-414.5 771.3601,-479.6501 805.8431,-482.6159 913.859,-502.5 954.4219,-509.967 1000.9124,-507.6972 1036.6424,-503.7002"/>
<polygon fill="#191970" stroke="#191970" points="624.2519,-339.4313 616.2036,-332.541 618.1984,-342.9464 624.2519,-339.4313"/>
</g>
<!-- Node4 -->
<g id="node4" class="node">
<title>Node4</title>
<g id="a_node4"><a xlink:href="structgadget_struct.xhtml" target="_top" xlink:title=" ">
<polygon fill="none" stroke="#000000" points="348.2335,-309.5 348.2335,-329.5 420.9225,-329.5 420.9225,-309.5 348.2335,-309.5"/>
<text text-anchor="middle" x="384.578" y="-316.5" font-family="Helvetica,sans-Serif" font-size="10.00" fill="#000000">gadgetStruct</text>
</a>
</g>
</g>
<!-- Node4&#45;&gt;Node3 -->
<g id="edge3" class="edge">
<title>Node4&#45;&gt;Node3</title>
<path fill="none" stroke="#9a32cd" stroke-dasharray="5,2" d="M431.2574,-320.119C467.6281,-320.6013 518.1933,-321.2718 556.3996,-321.7784"/>
<polygon fill="#9a32cd" stroke="#9a32cd" points="430.9727,-316.615 420.9271,-319.982 430.8798,-323.6144 430.9727,-316.615"/>
<text text-anchor="middle" x="490.0825" y="-324.5" font-family="Helvetica,sans-Serif" font-size="10.00" fill="#000000"> gadgetDetails</text>
</g>
<!-- Node5 -->
<g id="node5" class="node">
<title>Node5</title>
<g id="a_node5"><a xlink:href="structgeometry_struct.xhtml" target="_top" xlink:title=" ">
<polygon fill="none" stroke="#000000" points="158.11,-183.5 158.11,-203.5 241.898,-203.5 241.898,-183.5 158.11,-183.5"/>
<text text-anchor="middle" x="200.004" y="-190.5" font-family="Helvetica,sans-Serif" font-size="10.00" fill="#000000">geometryStruct</text>
</a>
</g>
</g>
<!-- Node5&#45;&gt;Node3 -->
<g id="edge7" class="edge">
<title>Node5&#45;&gt;Node3</title>
<path fill="none" stroke="#9a32cd" stroke-dasharray="5,2" d="M252.0723,-202.8977C319.7774,-216.1093 440.931,-243.1626 538.694,-283.5 558.5635,-291.6982 580.0858,-303.7938 594.3981,-312.3368"/>
<polygon fill="#9a32cd" stroke="#9a32cd" points="252.5599,-199.4274 242.0784,-200.9726 251.2358,-206.301 252.5599,-199.4274"/>
<text text-anchor="middle" x="384.578" y="-247.5" font-family="Helvetica,sans-Serif" font-size="10.00" fill="#000000"> gadgetGeom</text>
</g>
<!-- Node5&#45;&gt;Node4 -->
<g id="edge4" class="edge">
<title>Node5&#45;&gt;Node4</title>
<path fill="none" stroke="#9a32cd" stroke-dasharray="5,2" d="M220.3896,-210.3008C247.8404,-232.4891 298.6801,-272.0703 345.685,-300.5 350.8292,-303.6113 356.5564,-306.6336 361.9999,-309.3185"/>
<polygon fill="#9a32cd" stroke="#9a32cd" points="222.2987,-207.3419 212.3334,-203.7442 217.8801,-212.7711 222.2987,-207.3419"/>
<text text-anchor="middle" x="293.7915" y="-301.5" font-family="Helvetica,sans-Serif" font-size="10.00" fill="#000000"> indicatorGeom</text>
<text text-anchor="middle" x="293.7915" y="-289.5" font-family="Helvetica,sans-Serif" font-size="10.00" fill="#000000">gadgetGeom</text>
</g>
<!-- Node5&#45;&gt;Node8 -->
<g id="edge9" class="edge">
<title>Node5&#45;&gt;Node8</title>
<path fill="none" stroke="#9a32cd" stroke-dasharray="5,2" d="M229.9345,-179.101C290.1094,-151.0437 430.7701,-89.9259 556.694,-68.5 604.1213,-60.4303 617.1514,-62.9492 664.939,-68.5 711.1628,-73.8692 723.6442,-75.2263 766.854,-92.5 788.6812,-101.2257 811.7491,-115.7 826.0965,-125.4161"/>
<polygon fill="#9a32cd" stroke="#9a32cd" points="228.2096,-176.0444 220.6494,-183.467 231.1882,-182.3791 228.2096,-176.0444"/>
<text text-anchor="middle" x="490.0825" y="-99.5" font-family="Helvetica,sans-Serif" font-size="10.00" fill="#000000"> windowGeom</text>
</g>
<!-- Node6 -->
<g id="node6" class="node">
<title>Node6</title>
<g id="a_node6"><a xlink:href="structcolour_struct.xhtml" target="_top" xlink:title=" ">
<polygon fill="none" stroke="#000000" points="165.334,-333.5 165.334,-353.5 234.674,-353.5 234.674,-333.5 165.334,-333.5"/>
<text text-anchor="middle" x="200.004" y="-340.5" font-family="Helvetica,sans-Serif" font-size="10.00" fill="#000000">colourStruct</text>
</a>
</g>
</g>
<!-- Node6&#45;&gt;Node3 -->
<g id="edge19" class="edge">
<title>Node6&#45;&gt;Node3</title>
<path fill="none" stroke="#9a32cd" stroke-dasharray="5,2" d="M244.9845,-349.3282C250.0085,-349.8091 255.0577,-350.2181 259.898,-350.5 383.7321,-357.7119 415.7504,-353.9853 538.694,-337.5 548.0741,-336.2422 558.0576,-334.4583 567.512,-332.5574"/>
<polygon fill="#9a32cd" stroke="#9a32cd" points="245.0927,-345.8205 234.782,-348.2579 244.3622,-352.7823 245.0927,-345.8205"/>
<text text-anchor="middle" x="384.578" y="-380.5" font-family="Helvetica,sans-Serif" font-size="10.00" fill="#000000"> labelBGColour</text>
<text text-anchor="middle" x="384.578" y="-368.5" font-family="Helvetica,sans-Serif" font-size="10.00" fill="#000000">colourNames</text>
<text text-anchor="middle" x="384.578" y="-356.5" font-family="Helvetica,sans-Serif" font-size="10.00" fill="#000000">fontColourNames</text>
</g>
<!-- Node6&#45;&gt;Node4 -->
<g id="edge5" class="edge">
<title>Node6&#45;&gt;Node4</title>
<path fill="none" stroke="#9a32cd" stroke-dasharray="5,2" d="M245.0389,-337.6441C276.7086,-333.5262 318.5448,-328.0862 348.1225,-324.2403"/>
<polygon fill="#9a32cd" stroke="#9a32cd" points="244.1861,-334.2255 234.721,-338.9858 245.0888,-341.167 244.1861,-334.2255"/>
<text text-anchor="middle" x="293.7915" y="-337.5" font-family="Helvetica,sans-Serif" font-size="10.00" fill="#000000"> colour</text>
</g>
<!-- Node6&#45;&gt;Node8 -->
<g id="edge13" class="edge">
<title>Node6&#45;&gt;Node8</title>
<path fill="none" stroke="#9a32cd" stroke-dasharray="5,2" d="M206.6051,-323.924C215.1967,-301.635 232.4426,-265.9332 259.898,-247.5 321.1334,-206.3874 350.98,-233.1045 423.471,-219.5 539.1518,-197.7901 567.5376,-189.6488 682.939,-166.5 718.3058,-159.4056 758.1735,-151.5561 788.9383,-145.5308"/>
<polygon fill="#9a32cd" stroke="#9a32cd" points="203.2938,-322.7885 203.1681,-333.3826 209.873,-325.1792 203.2938,-322.7885"/>
<text text-anchor="middle" x="490.0825" y="-219.5" font-family="Helvetica,sans-Serif" font-size="10.00" fill="#000000"> windowColourNames</text>
</g>
<!-- Node6&#45;&gt;Node16 -->
<g id="edge25" class="edge">
<title>Node6&#45;&gt;Node16</title>
<path fill="none" stroke="#9a32cd" stroke-dasharray="5,2" d="M230.7847,-357.564C259.7329,-369.9387 304.6391,-386.971 345.685,-393.5 503.4407,-418.5935 693.0913,-406.1672 785.0114,-397.4954"/>
<polygon fill="#9a32cd" stroke="#9a32cd" points="232.1737,-354.3515 221.6078,-353.5679 229.3789,-360.7694 232.1737,-354.3515"/>
<text text-anchor="middle" x="490.0825" y="-410.5" font-family="Helvetica,sans-Serif" font-size="10.00" fill="#000000"> cursorColour</text>
</g>
<!-- Node7 -->
<g id="node7" class="node">
<title>Node7</title>
<g id="a_node7"><a xlink:href="structcairo_color.xhtml" target="_top" xlink:title=" ">
<polygon fill="none" stroke="#000000" points="0,-333.5 0,-353.5 61.551,-353.5 61.551,-333.5 0,-333.5"/>
<text text-anchor="middle" x="30.7755" y="-340.5" font-family="Helvetica,sans-Serif" font-size="10.00" fill="#000000">cairoColor</text>
</a>
</g>
</g>
<!-- Node7&#45;&gt;Node6 -->
<g id="edge6" class="edge">
<title>Node7&#45;&gt;Node6</title>
<path fill="none" stroke="#9a32cd" stroke-dasharray="5,2" d="M71.878,-343.5C100.4045,-343.5 137.9959,-343.5 165.0744,-343.5"/>
<polygon fill="#9a32cd" stroke="#9a32cd" points="71.8146,-340.0001 61.8146,-343.5 71.8146,-347.0001 71.8146,-340.0001"/>
<text text-anchor="middle" x="109.8305" y="-346.5" font-family="Helvetica,sans-Serif" font-size="10.00" fill="#000000"> RGBAColour</text>
</g>
<!-- Node8&#45;&gt;Node1 -->
<g id="edge20" class="edge">
<title>Node8&#45;&gt;Node1</title>
<path fill="none" stroke="#9a32cd" stroke-dasharray="5,2" d="M906.3567,-129.3523C1030.7497,-121.017 1304.2974,-118.438 1492.683,-232.5 1528.8457,-254.3955 1554.82,-299.7957 1565.1451,-320.1885"/>
<polygon fill="#9a32cd" stroke="#9a32cd" points="905.9537,-125.8719 896.2246,-130.0664 906.4459,-132.8546 905.9537,-125.8719"/>
<text text-anchor="middle" x="1220.702" y="-165.5" font-family="Helvetica,sans-Serif" font-size="10.00" fill="#000000"> dialog</text>
<text text-anchor="middle" x="1220.702" y="-153.5" font-family="Helvetica,sans-Serif" font-size="10.00" fill="#000000">wc</text>
</g>
<!-- Node8&#45;&gt;Node3 -->
<g id="edge8" class="edge">
<title>Node8&#45;&gt;Node3</title>
<path fill="none" stroke="#9a32cd" stroke-dasharray="5,2" d="M806.2768,-149.2666C793.9487,-154.0377 779.8617,-159.2508 766.854,-163.5 730.0946,-175.5082 713.1212,-162.3238 682.939,-186.5 640.3865,-220.5849 619.8536,-286.7083 613.2678,-312.1646"/>
<polygon fill="#9a32cd" stroke="#9a32cd" points="807.6983,-152.4687 815.7323,-145.5618 805.1446,-145.9512 807.6983,-152.4687"/>
<text text-anchor="middle" x="724.8965" y="-201.5" font-family="Helvetica,sans-Serif" font-size="10.00" fill="#000000"> contextWC</text>
<text text-anchor="middle" x="724.8965" y="-189.5" font-family="Helvetica,sans-Serif" font-size="10.00" fill="#000000">wc</text>
</g>
<!-- Node9 -->
<g id="node9" class="node">
<title>Node9</title>
<g id="a_node9"><a xlink:href="structmonitor_struct.xhtml" target="_top" xlink:title=" ">
<polygon fill="none" stroke="#000000" points="573.0925,-117.5 573.0925,-137.5 648.5405,-137.5 648.5405,-117.5 573.0925,-117.5"/>
<text text-anchor="middle" x="610.8165" y="-124.5" font-family="Helvetica,sans-Serif" font-size="10.00" fill="#000000">monitorStruct</text>
</a>
</g>
</g>
<!-- Node9&#45;&gt;Node8 -->
<g id="edge10" class="edge">
<title>Node9&#45;&gt;Node8</title>
<path fill="none" stroke="#9a32cd" stroke-dasharray="5,2" d="M658.7581,-125.5268C689.6478,-124.6668 730.6561,-124.2921 766.854,-126.5 772.6285,-126.8522 778.6441,-127.3587 784.6376,-127.9543"/>
<polygon fill="#9a32cd" stroke="#9a32cd" points="658.5805,-122.0305 648.692,-125.834 658.7941,-129.0272 658.5805,-122.0305"/>
<text text-anchor="middle" x="724.8965" y="-129.5" font-family="Helvetica,sans-Serif" font-size="10.00" fill="#000000"> monitors</text>
</g>
<!-- Node10 -->
<g id="node10" class="node">
<title>Node10</title>
<g id="a_node10"><a xlink:href="structdrop_data_struct.xhtml" target="_top" xlink:title=" ">
<polygon fill="none" stroke="#000000" points="569.198,-78.5 569.198,-98.5 652.435,-98.5 652.435,-78.5 569.198,-78.5"/>
<text text-anchor="middle" x="610.8165" y="-85.5" font-family="Helvetica,sans-Serif" font-size="10.00" fill="#000000">dropDataStruct</text>
</a>
</g>
</g>
<!-- Node10&#45;&gt;Node8 -->
<g id="edge12" class="edge">
<title>Node10&#45;&gt;Node8</title>
<path fill="none" stroke="#9a32cd" stroke-dasharray="5,2" d="M662.6668,-92.7729C693.2695,-95.9634 732.5975,-101.2298 766.854,-109.5 783.5642,-113.5342 801.7844,-119.9645 815.9038,-125.4207"/>
<polygon fill="#9a32cd" stroke="#9a32cd" points="662.9418,-89.283 652.6428,-91.7691 662.2443,-96.2481 662.9418,-89.283"/>
<text text-anchor="middle" x="724.8965" y="-112.5" font-family="Helvetica,sans-Serif" font-size="10.00" fill="#000000"> droppedData</text>
</g>
<!-- Node11 -->
<g id="node11" class="node">
<title>Node11</title>
<g id="a_node11"><a xlink:href="class_l_f_s_t_k__lib.xhtml" target="_top" xlink:title="Library of useful routines for LFSToolKit.">
<polygon fill="none" stroke="#000000" points="579.481,-.5 579.481,-20.5 642.152,-20.5 642.152,-.5 579.481,-.5"/>
<text text-anchor="middle" x="610.8165" y="-7.5" font-family="Helvetica,sans-Serif" font-size="10.00" fill="#000000">LFSTK_lib</text>
</a>
</g>
</g>
<!-- Node11&#45;&gt;Node8 -->
<g id="edge14" class="edge">
<title>Node11&#45;&gt;Node8</title>
<path fill="none" stroke="#9a32cd" stroke-dasharray="5,2" d="M652.5514,-4.4824C685.8215,-1.8096 732.3851,-2.9986 766.854,-23.5 806.8326,-47.2785 829.207,-102.2625 837.0828,-125.1801"/>
<polygon fill="#9a32cd" stroke="#9a32cd" points="651.8707,-1.0314 642.2488,-5.4663 652.5362,-7.9997 651.8707,-1.0314"/>
<text text-anchor="middle" x="724.8965" y="-26.5" font-family="Helvetica,sans-Serif" font-size="10.00" fill="#000000"> globalLib</text>
</g>
<!-- Node12 -->
<g id="node12" class="node">
<title>Node12</title>
<g id="a_node12"><a xlink:href="structargs.xhtml" target="_top" xlink:title=" ">
<polygon fill="none" stroke="#000000" points="366.8545,-.5 366.8545,-20.5 402.3015,-20.5 402.3015,-.5 366.8545,-.5"/>
<text text-anchor="middle" x="384.578" y="-7.5" font-family="Helvetica,sans-Serif" font-size="10.00" fill="#000000">args</text>
</a>
</g>
</g>
<!-- Node12&#45;&gt;Node11 -->
<g id="edge15" class="edge">
<title>Node12&#45;&gt;Node11</title>
<path fill="none" stroke="#9a32cd" stroke-dasharray="5,2" d="M412.4724,-10.5C454.7896,-10.5 534.9648,-10.5 579.3218,-10.5"/>
<polygon fill="#9a32cd" stroke="#9a32cd" points="412.3306,-7.0001 402.3306,-10.5 412.3305,-14.0001 412.3306,-7.0001"/>
<text text-anchor="middle" x="490.0825" y="-13.5" font-family="Helvetica,sans-Serif" font-size="10.00" fill="#000000"> lfsToolKitGlobals</text>
</g>
<!-- Node13&#45;&gt;Node3 -->
<g id="edge16" class="edge">
<title>Node13&#45;&gt;Node3</title>
<path fill="none" stroke="#9a32cd" stroke-dasharray="5,2" d="M786.1226,-333.3043C779.6492,-332.2248 773.1172,-331.2534 766.854,-330.5 733.1899,-326.4504 695.1987,-324.4481 665.1322,-323.4593"/>
<polygon fill="#9a32cd" stroke="#9a32cd" points="785.7452,-336.7915 796.1998,-335.074 786.9559,-329.897 785.7452,-336.7915"/>
<text text-anchor="middle" x="724.8965" y="-333.5" font-family="Helvetica,sans-Serif" font-size="10.00" fill="#000000"> ml</text>
</g>
<!-- Node14 -->
<g id="node14" class="node">
<title>Node14</title>
<g id="a_node14"><a xlink:href="structbutton_c_b.xhtml" target="_top" xlink:title=" ">
<polygon fill="none" stroke="#000000" points="355.737,-270.5 355.737,-290.5 413.419,-290.5 413.419,-270.5 355.737,-270.5"/>
<text text-anchor="middle" x="384.578" y="-277.5" font-family="Helvetica,sans-Serif" font-size="10.00" fill="#000000">buttonCB</text>
</a>
</g>
</g>
<!-- Node14&#45;&gt;Node3 -->
<g id="edge18" class="edge">
<title>Node14&#45;&gt;Node3</title>
<path fill="none" stroke="#9a32cd" stroke-dasharray="5,2" d="M423.4873,-285.1093C454.7725,-289.1025 499.7702,-295.4935 538.694,-303.5 550.8696,-306.0045 564.0558,-309.3025 575.7823,-312.4467"/>
<polygon fill="#9a32cd" stroke="#9a32cd" points="423.7896,-281.6198 413.4318,-283.8481 422.9184,-288.5654 423.7896,-281.6198"/>
<text text-anchor="middle" x="490.0825" y="-306.5" font-family="Helvetica,sans-Serif" font-size="10.00" fill="#000000"> callback</text>
</g>
<!-- Node15&#45;&gt;Node1 -->
<g id="edge21" class="edge">
<title>Node15&#45;&gt;Node1</title>
<path fill="none" stroke="#9a32cd" stroke-dasharray="5,2" d="M1280.8331,-224.1812C1318.7604,-219.7979 1368.4073,-217.9996 1410.777,-229.5 1473.6661,-246.57 1535.0393,-298.1321 1559.2518,-320.2471"/>
<polygon fill="#9a32cd" stroke="#9a32cd" points="1279.951,-220.7641 1270.4621,-225.4771 1280.819,-227.7101 1279.951,-220.7641"/>
<text text-anchor="middle" x="1349.436" y="-268.5" font-family="Helvetica,sans-Serif" font-size="10.00" fill="#000000"> previewSize</text>
<text text-anchor="middle" x="1349.436" y="-256.5" font-family="Helvetica,sans-Serif" font-size="10.00" fill="#000000">previewFileName</text>
<text text-anchor="middle" x="1349.436" y="-244.5" font-family="Helvetica,sans-Serif" font-size="10.00" fill="#000000">previewMode</text>
<text text-anchor="middle" x="1349.436" y="-232.5" font-family="Helvetica,sans-Serif" font-size="10.00" fill="#000000">previewMimeType</text>
</g>
<!-- Node16&#45;&gt;Node1 -->
<g id="edge23" class="edge">
<title>Node16&#45;&gt;Node1</title>
<path fill="none" stroke="#9a32cd" stroke-dasharray="5,2" d="M906.289,-388.0868C1048.6086,-380.5337 1380.768,-361.8575 1492.683,-346.5 1503.8289,-344.9705 1515.7748,-342.7792 1526.8645,-340.5071"/>
<polygon fill="#9a32cd" stroke="#9a32cd" points="905.7686,-384.6093 895.9674,-388.6327 906.1384,-391.5996 905.7686,-384.6093"/>
<text text-anchor="middle" x="1220.702" y="-375.5" font-family="Helvetica,sans-Serif" font-size="10.00" fill="#000000"> dirEdit</text>
</g>
<!-- Node17 -->
<g id="node17" class="node">
<title>Node17</title>
<g id="a_node17"><a xlink:href="class_l_f_s_t_k__find_class.xhtml" target="_top" xlink:title="Find files etc.">
<polygon fill="none" stroke="#000000" points="1302.5425,-320.5 1302.5425,-340.5 1396.3295,-340.5 1396.3295,-320.5 1302.5425,-320.5"/>
<text text-anchor="middle" x="1349.436" y="-327.5" font-family="Helvetica,sans-Serif" font-size="10.00" fill="#000000">LFSTK_findClass</text>
</a>
</g>
</g>
<!-- Node17&#45;&gt;Node1 -->
<g id="edge26" class="edge">
<title>Node17&#45;&gt;Node1</title>
<path fill="none" stroke="#9a32cd" stroke-dasharray="5,2" d="M1406.5619,-330.5C1438.4637,-330.5 1478.1674,-330.5 1510.4618,-330.5"/>
<polygon fill="#9a32cd" stroke="#9a32cd" points="1406.4977,-327.0001 1396.4977,-330.5 1406.4976,-334.0001 1406.4977,-327.0001"/>
<text text-anchor="middle" x="1460.73" y="-333.5" font-family="Helvetica,sans-Serif" font-size="10.00" fill="#000000"> fc</text>
</g>
<!-- Node18&#45;&gt;Node1 -->
<g id="edge27" class="edge">
<title>Node18&#45;&gt;Node1</title>
<path fill="none" stroke="#9a32cd" stroke-dasharray="5,2" d="M903.6126,-426.3414C1008.8953,-416.005 1226.7082,-394.2542 1410.777,-373.5 1447.2191,-369.3911 1457.2642,-373.0086 1492.683,-363.5 1513.1379,-358.0087 1535.2494,-348.151 1550.5785,-340.635"/>
<polygon fill="#9a32cd" stroke="#9a32cd" points="903.0854,-422.8763 893.4747,-427.3356 903.7686,-429.8429 903.0854,-422.8763"/>
<text text-anchor="middle" x="1220.702" y="-425.5" font-family="Helvetica,sans-Serif" font-size="10.00" fill="#000000"> buttonHidden</text>
<text text-anchor="middle" x="1220.702" y="-413.5" font-family="Helvetica,sans-Serif" font-size="10.00" fill="#000000">buttonCancel</text>
<text text-anchor="middle" x="1220.702" y="-401.5" font-family="Helvetica,sans-Serif" font-size="10.00" fill="#000000">buttonApply</text>
</g>
<!-- Node18&#45;&gt;Node19 -->
<g id="edge36" class="edge">
<title>Node18&#45;&gt;Node19</title>
<path fill="none" stroke="#9a32cd" stroke-dasharray="5,2" d="M903.4147,-436.7172C937.5847,-439.1866 980.5237,-442.587 1018.755,-446.5 1112.993,-456.1454 1221.742,-471.8259 1288.0267,-481.8982"/>
<polygon fill="#9a32cd" stroke="#9a32cd" points="903.3305,-433.2024 893.1066,-435.9812 902.8319,-440.1846 903.3305,-433.2024"/>
<text text-anchor="middle" x="1095.032" y="-464.5" font-family="Helvetica,sans-Serif" font-size="10.00" fill="#000000"> labels</text>
</g>
<!-- Node18&#45;&gt;Node20 -->
<g id="edge33" class="edge">
<title>Node18&#45;&gt;Node20</title>
<path fill="none" stroke="#9a32cd" stroke-dasharray="5,2" d="M903.1083,-441.8803C937.5624,-447.6736 980.8656,-456.011 1018.755,-466.5 1036.4288,-471.3927 1055.8225,-478.5367 1070.6317,-484.3838"/>
<polygon fill="#9a32cd" stroke="#9a32cd" points="903.6144,-438.4165 893.1776,-440.2394 902.4732,-445.3229 903.6144,-438.4165"/>
<text text-anchor="middle" x="966.307" y="-493.5" font-family="Helvetica,sans-Serif" font-size="10.00" fill="#000000"> upLeft</text>
<text text-anchor="middle" x="966.307" y="-481.5" font-family="Helvetica,sans-Serif" font-size="10.00" fill="#000000">downRight</text>
<text text-anchor="middle" x="966.307" y="-469.5" font-family="Helvetica,sans-Serif" font-size="10.00" fill="#000000">thumb</text>
</g>
<!-- Node19&#45;&gt;Node1 -->
<g id="edge29" class="edge">
<title>Node19&#45;&gt;Node1</title>
<path fill="none" stroke="#9a32cd" stroke-dasharray="5,2" d="M1387.7002,-477.8289C1418.0366,-465.8547 1460.5281,-446.4706 1492.683,-421.5 1523.8053,-397.3313 1551.3604,-358.9113 1563.4999,-340.7075"/>
<polygon fill="#9a32cd" stroke="#9a32cd" points="1386.3756,-474.5884 1378.3063,-481.454 1388.8958,-481.119 1386.3756,-474.5884"/>
<text text-anchor="middle" x="1460.73" y="-462.5" font-family="Helvetica,sans-Serif" font-size="10.00" fill="#000000"> fileListGadget</text>
</g>
<!-- Node21 -->
<g id="node21" class="node">
<title>Node21</title>
<g id="a_node21"><a xlink:href="structlist_data.xhtml" target="_top" xlink:title=" ">
<polygon fill="none" stroke="#000000" points="1545.407,-495.5 1545.407,-515.5 1594.74,-515.5 1594.74,-495.5 1545.407,-495.5"/>
<text text-anchor="middle" x="1570.0735" y="-502.5" font-family="Helvetica,sans-Serif" font-size="10.00" fill="#000000">listData</text>
</a>
</g>
</g>
<!-- Node19&#45;&gt;Node21 -->
<g id="edge35" class="edge">
<title>Node19&#45;&gt;Node21</title>
<path fill="none" stroke="#9a32cd" stroke-dasharray="5,2" d="M1420.9706,-484.6554C1443.9367,-483.619 1469.4416,-483.6888 1492.683,-486.5 1510.5382,-488.6597 1530.2161,-493.5256 1545.2613,-497.7922"/>
<polygon fill="#9a32cd" stroke="#9a32cd" points="1420.7593,-481.1616 1410.9573,-485.1829 1421.1276,-488.1519 1420.7593,-481.1616"/>
<text text-anchor="middle" x="1460.73" y="-489.5" font-family="Helvetica,sans-Serif" font-size="10.00" fill="#000000"> mainObject</text>
</g>
<!-- Node20&#45;&gt;Node19 -->
<g id="edge31" class="edge">
<title>Node20&#45;&gt;Node19</title>
<path fill="none" stroke="#9a32cd" stroke-dasharray="5,2" d="M1163.5399,-493.6921C1202.2561,-493.2356 1250.2638,-492.6695 1287.7936,-492.2269"/>
<polygon fill="#9a32cd" stroke="#9a32cd" points="1163.3554,-490.194 1153.3974,-493.8117 1163.438,-497.1935 1163.3554,-490.194"/>
<text text-anchor="middle" x="1220.702" y="-496.5" font-family="Helvetica,sans-Serif" font-size="10.00" fill="#000000"> scrollBar</text>
</g>
<!-- Node21&#45;&gt;Node19 -->
<g id="edge34" class="edge">
<title>Node21&#45;&gt;Node19</title>
<path fill="none" stroke="#9a32cd" stroke-dasharray="5,2" d="M1534.974,-505.4516C1506.3539,-505.1849 1464.9013,-504.2812 1428.777,-501.5 1422.9632,-501.0524 1416.9214,-500.4825 1410.883,-499.8425"/>
<polygon fill="#9a32cd" stroke="#9a32cd" points="1535.252,-508.9536 1545.2768,-505.5252 1535.3021,-501.9538 1535.252,-508.9536"/>
<text text-anchor="middle" x="1460.73" y="-507.5" font-family="Helvetica,sans-Serif" font-size="10.00" fill="#000000"> data</text>
</g>
</g>
</svg>
        <g id="navigator" transform="translate(0 0)" fill="#404254">
                <rect fill="#f2f5e9" fill-opacity="0.5" stroke="#606060" stroke-width=".5" x="0" y="0" width="60" height="60"/>
                <use id="zoomplus" xlink:href="#zoomPlus" x="17" y="9" onmousedown="handleZoom(evt,'in')"/>
                <use id="zoomminus" xlink:href="#zoomMin" x="42" y="9" onmousedown="handleZoom(evt,'out')"/>
                <use id="reset" xlink:href="#resetDef" x="30" y="36" onmousedown="handleReset()"/>
                <g id="arrowUp" xlink:href="#dirArrow" transform="translate(30 24)" onmousedown="handlePan(0,-1)">
                  <use xlink:href="#rim" fill="#404040">
                        <set attributeName="fill" to="#808080" begin="arrowUp.mouseover" end="arrowUp.mouseout"/>
                  </use>
                  <path fill="none" stroke="white" stroke-width="1.5" d="M0,-3.0v7 M-2.5,-0.5L0,-3.0L2.5,-0.5"/>
                </g>
                <g id="arrowRight" xlink:href="#dirArrow" transform="rotate(90) translate(36 -43)" onmousedown="handlePan(1,0)">
                  <use xlink:href="#rim" fill="#404040">
                        <set attributeName="fill" to="#808080" begin="arrowRight.mouseover" end="arrowRight.mouseout"/>
                  </use>
                  <path fill="none" stroke="white" stroke-width="1.5" d="M0,-3.0v7 M-2.5,-0.5L0,-3.0L2.5,-0.5"/>
                </g>
                <g id="arrowDown" xlink:href="#dirArrow" transform="rotate(180) translate(-30 -48)" onmousedown="handlePan(0,1)">
                  <use xlink:href="#rim" fill="#404040">
                        <set attributeName="fill" to="#808080" begin="arrowDown.mouseover" end="arrowDown.mouseout"/>
                  </use>
                  <path fill="none" stroke="white" stroke-width="1.5" d="M0,-3.0v7 M-2.5,-0.5L0,-3.0L2.5,-0.5"/>
                </g>
                <g id="arrowLeft" xlink:href="#dirArrow" transform="rotate(270) translate(-36 17)" onmousedown="handlePan(-1,0)">
                  <use xlink:href="#rim" fill="#404040">
                        <set attributeName="fill" to="#808080" begin="arrowLeft.mouseover" end="arrowLeft.mouseout"/>
                  </use>
                  <path fill="none" stroke="white" stroke-width="1.5" d="M0,-3.0v7 M-2.5,-0.5L0,-3.0L2.5,-0.5"/>
                </g>
        </g>
        <svg viewBox="0 0 15 15" width="100%" height="30px" preserveAspectRatio="xMaxYMin meet">
         <g id="arrow_out" transform="scale(0.3 0.3)">
          <a xlink:href="class_l_f_s_t_k__file_dialog_class__coll__graph_org.svg" target="_base">
           <rect id="button" ry="5" rx="5" y="6" x="6" height="38" width="38"
                fill="#f2f5e9" fill-opacity="0.5" stroke="#606060" stroke-width="1.0"/>
           <path id="arrow"
             d="M 11.500037,31.436501 C 11.940474,20.09759 22.043105,11.32322 32.158766,21.979434 L 37.068811,17.246167 C 37.068811,17.246167 37.088388,32 37.088388,32 L 22.160133,31.978069 C 22.160133,31.978069 26.997745,27.140456 26.997745,27.140456 C 18.528582,18.264221 13.291696,25.230495 11.500037,31.436501 z"
             style="fill:#404040;"/>
          </a>
         </g>
        </svg>
</svg>
