<?xml version="1.0" encoding="UTF-8" standalone="no"?>
<!DOCTYPE svg PUBLIC "-//W3C//DTD SVG 1.1//EN"
 "http://www.w3.org/Graphics/SVG/1.1/DTD/svg11.dtd">
<!-- Generated by graphviz version 2.40.1 (20161225.0304)
 -->
<!-- Title: LFSTK_lineEditClass::LFSTK_dropData Pages: 1 -->
<svg width="768pt" height="130pt"
 viewBox="0.00 0.00 767.64 130.00" xmlns="http://www.w3.org/2000/svg" xmlns:xlink="http://www.w3.org/1999/xlink">
<g id="graph0" class="graph" transform="scale(1 1) rotate(0) translate(4 126)">
<title>LFSTK_lineEditClass::LFSTK_dropData</title>
<!-- Node1 -->
<g id="node1" class="node">
<title>Node1</title>
<g id="a_node1"><a xlink:title=" ">
<polygon fill="#bfbfbf" stroke="#000000" points="0,-72.5 0,-104.5 110.453,-104.5 110.453,-72.5 0,-72.5"/>
<text text-anchor="start" x="8" y="-91.5" font-family="Helvetica,sans-Serif" font-size="10.00" fill="#000000">LFSTK_lineEditClass</text>
<text text-anchor="middle" x="55.2265" y="-79.5" font-family="Helvetica,sans-Serif" font-size="10.00" fill="#000000">::LFSTK_dropData</text>
</a>
</g>
</g>
<!-- Node2 -->
<g id="node2" class="node">
<title>Node2</title>
<g id="a_node2"><a xlink:href="class_l_f_s_t_k__lib_ac5fce97c4bbf2a3c4e500bdc22c994a9.xhtml#ac5fce97c4bbf2a3c4e500bdc22c994a9" target="_top" xlink:title=" ">
<polygon fill="none" stroke="#000000" points="146.453,-101.5 146.453,-121.5 290.258,-121.5 290.258,-101.5 146.453,-101.5"/>
<text text-anchor="middle" x="218.3555" y="-108.5" font-family="Helvetica,sans-Serif" font-size="10.00" fill="#000000">LFSTK_lib::LFSTK_oneLiner</text>
</a>
</g>
</g>
<!-- Node1&#45;&gt;Node2 -->
<g id="edge1" class="edge">
<title>Node1&#45;&gt;Node2</title>
<path fill="none" stroke="#191970" d="M110.4545,-96.2868C119.0507,-97.4987 128.084,-98.7724 137.1121,-100.0453"/>
<polygon fill="#191970" stroke="#191970" points="136.8886,-103.5483 147.2793,-101.4788 137.8659,-96.6168 136.8886,-103.5483"/>
</g>
<!-- Node3 -->
<g id="node3" class="node">
<title>Node3</title>
<g id="a_node3"><a xlink:href="class_l_f_s_t_k__line_edit_class_af08b0261f456ab5926d5837f752c2005.xhtml#af08b0261f456ab5926d5837f752c2005" target="_top" xlink:title=" ">
<polygon fill="none" stroke="#000000" points="151.456,-50.5 151.456,-82.5 285.255,-82.5 285.255,-50.5 151.456,-50.5"/>
<text text-anchor="start" x="159.456" y="-69.5" font-family="Helvetica,sans-Serif" font-size="10.00" fill="#000000">LFSTK_lineEditClass</text>
<text text-anchor="middle" x="218.3555" y="-57.5" font-family="Helvetica,sans-Serif" font-size="10.00" fill="#000000">::LFSTK_setFormatedText</text>
</a>
</g>
</g>
<!-- Node1&#45;&gt;Node3 -->
<g id="edge2" class="edge">
<title>Node1&#45;&gt;Node3</title>
<path fill="none" stroke="#191970" d="M110.4545,-81.0518C120.401,-79.7104 130.9329,-78.29 141.3647,-76.8832"/>
<polygon fill="#191970" stroke="#191970" points="141.8708,-80.3467 151.3132,-75.5415 140.9351,-73.4095 141.8708,-80.3467"/>
</g>
<!-- Node4 -->
<g id="node4" class="node">
<title>Node4</title>
<g id="a_node4"><a xlink:href="class_l_f_s_t_k__line_edit_class_adbcfa08279eec28c5f4e2c33a056d396.xhtml#adbcfa08279eec28c5f4e2c33a056d396" target="_top" xlink:title=" ">
<polygon fill="none" stroke="#000000" points="326.258,-50.5 326.258,-82.5 441.71,-82.5 441.71,-50.5 326.258,-50.5"/>
<text text-anchor="start" x="334.258" y="-69.5" font-family="Helvetica,sans-Serif" font-size="10.00" fill="#000000">LFSTK_lineEditClass</text>
<text text-anchor="middle" x="383.984" y="-57.5" font-family="Helvetica,sans-Serif" font-size="10.00" fill="#000000">::LFSTK_clearWindow</text>
</a>
</g>
</g>
<!-- Node3&#45;&gt;Node4 -->
<g id="edge3" class="edge">
<title>Node3&#45;&gt;Node4</title>
<path fill="none" stroke="#191970" d="M285.723,-66.5C295.6936,-66.5 305.9739,-66.5 315.9579,-66.5"/>
<polygon fill="#191970" stroke="#191970" points="316.2296,-70.0001 326.2296,-66.5 316.2296,-63.0001 316.2296,-70.0001"/>
</g>
<!-- Node5 -->
<g id="node5" class="node">
<title>Node5</title>
<g id="a_node5"><a xlink:href="class_l_f_s_t_k__gadget_class_ab76db165a19af248b5e94e95492dc879.xhtml#ab76db165a19af248b5e94e95492dc879" target="_top" xlink:title=" ">
<polygon fill="none" stroke="#000000" points="477.71,-76.5 477.71,-108.5 591.513,-108.5 591.513,-76.5 477.71,-76.5"/>
<text text-anchor="start" x="485.71" y="-95.5" font-family="Helvetica,sans-Serif" font-size="10.00" fill="#000000">LFSTK_gadgetClass::</text>
<text text-anchor="middle" x="534.6115" y="-83.5" font-family="Helvetica,sans-Serif" font-size="10.00" fill="#000000">drawBevel</text>
</a>
</g>
</g>
<!-- Node4&#45;&gt;Node5 -->
<g id="edge4" class="edge">
<title>Node4&#45;&gt;Node5</title>
<path fill="none" stroke="#191970" d="M441.7897,-76.4779C450.2573,-77.9395 459.0374,-79.4551 467.669,-80.945"/>
<polygon fill="#191970" stroke="#191970" points="467.2563,-84.4254 477.706,-82.6775 468.447,-77.5274 467.2563,-84.4254"/>
</g>
<!-- Node6 -->
<g id="node6" class="node">
<title>Node6</title>
<g id="a_node6"><a xlink:href="class_l_f_s_t_k__line_edit_class_a24da1f04ceb3b05ed9b25988e2cb5130.xhtml#a24da1f04ceb3b05ed9b25988e2cb5130" target="_top" xlink:title=" ">
<polygon fill="none" stroke="#000000" points="479.385,-25.5 479.385,-57.5 589.838,-57.5 589.838,-25.5 479.385,-25.5"/>
<text text-anchor="start" x="487.385" y="-44.5" font-family="Helvetica,sans-Serif" font-size="10.00" fill="#000000">LFSTK_lineEditClass</text>
<text text-anchor="middle" x="534.6115" y="-32.5" font-family="Helvetica,sans-Serif" font-size="10.00" fill="#000000">::drawLabel</text>
</a>
</g>
</g>
<!-- Node4&#45;&gt;Node6 -->
<g id="edge5" class="edge">
<title>Node4&#45;&gt;Node6</title>
<path fill="none" stroke="#191970" d="M441.7897,-56.9058C450.711,-55.4252 459.9792,-53.8869 469.0552,-52.3805"/>
<polygon fill="#191970" stroke="#191970" points="469.8998,-55.7883 479.1918,-50.6981 468.7537,-48.8828 469.8998,-55.7883"/>
</g>
<!-- Node7 -->
<g id="node7" class="node">
<title>Node7</title>
<g id="a_node7"><a xlink:href="class_l_f_s_t_k__gadget_class_ac233a3c3e0900ff66adb74102a56f09f.xhtml#ac233a3c3e0900ff66adb74102a56f09f" target="_top" xlink:title=" ">
<polygon fill="none" stroke="#000000" points="627.513,-51.5 627.513,-83.5 759.642,-83.5 759.642,-51.5 627.513,-51.5"/>
<text text-anchor="start" x="635.513" y="-70.5" font-family="Helvetica,sans-Serif" font-size="10.00" fill="#000000">LFSTK_gadgetClass::</text>
<text text-anchor="middle" x="693.5775" y="-58.5" font-family="Helvetica,sans-Serif" font-size="10.00" fill="#000000">LFSTK_getTextRealWidth</text>
</a>
</g>
</g>
<!-- Node6&#45;&gt;Node7 -->
<g id="edge6" class="edge">
<title>Node6&#45;&gt;Node7</title>
<path fill="none" stroke="#191970" d="M590.2101,-50.5935C599.0208,-52.0346 608.2631,-53.5462 617.4456,-55.0481"/>
<polygon fill="#191970" stroke="#191970" points="616.9292,-58.5101 627.363,-56.6702 618.0591,-51.6018 616.9292,-58.5101"/>
</g>
<!-- Node8 -->
<g id="node8" class="node">
<title>Node8</title>
<g id="a_node8"><a xlink:href="class_l_f_s_t_k__gadget_class_a23bc2dc7b8200df4dc74f1f68460eca2.xhtml#a23bc2dc7b8200df4dc74f1f68460eca2" target="_top" xlink:title=" ">
<polygon fill="none" stroke="#000000" points="636.676,-.5 636.676,-32.5 750.479,-32.5 750.479,-.5 636.676,-.5"/>
<text text-anchor="start" x="644.676" y="-19.5" font-family="Helvetica,sans-Serif" font-size="10.00" fill="#000000">LFSTK_gadgetClass::</text>
<text text-anchor="middle" x="693.5775" y="-7.5" font-family="Helvetica,sans-Serif" font-size="10.00" fill="#000000">LFSTK_getTextWidth</text>
</a>
</g>
</g>
<!-- Node6&#45;&gt;Node8 -->
<g id="edge7" class="edge">
<title>Node6&#45;&gt;Node8</title>
<path fill="none" stroke="#191970" d="M590.2101,-32.7562C601.9614,-30.9081 614.4805,-28.9393 626.6016,-27.033"/>
<polygon fill="#191970" stroke="#191970" points="627.3294,-30.4617 636.6642,-25.4506 626.2418,-23.5467 627.3294,-30.4617"/>
</g>
</g>
</svg>
