<?xml version="1.0" encoding="UTF-8" standalone="no"?>
<!DOCTYPE svg PUBLIC "-//W3C//DTD SVG 1.1//EN"
 "http://www.w3.org/Graphics/SVG/1.1/DTD/svg11.dtd">
<!-- Generated by graphviz version 2.40.1 (20161225.0304)
 -->
<!-- Title: LFSTK_buttonClass::LFSTK_setStyle Pages: 1 -->
<svg width="448pt" height="92pt"
 viewBox="0.00 0.00 447.50 92.00" xmlns="http://www.w3.org/2000/svg" xmlns:xlink="http://www.w3.org/1999/xlink">
<g id="graph0" class="graph" transform="scale(1 1) rotate(0) translate(4 88)">
<title>LFSTK_buttonClass::LFSTK_setStyle</title>
<!-- Node1 -->
<g id="node1" class="node">
<title>Node1</title>
<g id="a_node1"><a xlink:title=" ">
<polygon fill="#bfbfbf" stroke="#000000" points="328.479,-25.5 328.479,-57.5 439.502,-57.5 439.502,-25.5 328.479,-25.5"/>
<text text-anchor="start" x="336.479" y="-44.5" font-family="Helvetica,sans-Serif" font-size="10.00" fill="#000000">LFSTK_buttonClass::</text>
<text text-anchor="middle" x="383.9905" y="-32.5" font-family="Helvetica,sans-Serif" font-size="10.00" fill="#000000">LFSTK_setStyle</text>
</a>
</g>
</g>
<!-- Node2 -->
<g id="node2" class="node">
<title>Node2</title>
<g id="a_node2"><a xlink:href="class_l_f_s_t_k__font_dialog_class_af866eb2b1ba8178c9cf3e751716fcc8e.xhtml#af866eb2b1ba8178c9cf3e751716fcc8e" target="_top" xlink:title=" ">
<polygon fill="none" stroke="#000000" points="167.0185,-51.5 167.0185,-83.5 289.6995,-83.5 289.6995,-51.5 167.0185,-51.5"/>
<text text-anchor="start" x="175.0185" y="-70.5" font-family="Helvetica,sans-Serif" font-size="10.00" fill="#000000">LFSTK_fontDialogClass</text>
<text text-anchor="middle" x="228.359" y="-58.5" font-family="Helvetica,sans-Serif" font-size="10.00" fill="#000000">::buildDialog</text>
</a>
</g>
</g>
<!-- Node1&#45;&gt;Node2 -->
<g id="edge1" class="edge">
<title>Node1&#45;&gt;Node2</title>
<path fill="none" stroke="#191970" d="M318.1568,-52.4983C308.7499,-54.0698 299.1036,-55.6813 289.7858,-57.238"/>
<polygon fill="#191970" stroke="#191970" points="318.957,-55.9132 328.2435,-50.8132 317.8035,-49.0089 318.957,-55.9132"/>
</g>
<!-- Node4 -->
<g id="node4" class="node">
<title>Node4</title>
<g id="a_node4"><a xlink:href="class_l_f_s_t_k__list_gadget_class_ae3518016f28ec3cd261ad927c5691826.xhtml#ae3518016f28ec3cd261ad927c5691826" target="_top" xlink:title=" ">
<polygon fill="none" stroke="#000000" points="164.239,-.5 164.239,-32.5 292.479,-32.5 292.479,-.5 164.239,-.5"/>
<text text-anchor="start" x="172.239" y="-19.5" font-family="Helvetica,sans-Serif" font-size="10.00" fill="#000000">LFSTK_listGadgetClass</text>
<text text-anchor="middle" x="228.359" y="-7.5" font-family="Helvetica,sans-Serif" font-size="10.00" fill="#000000">::LFSTK_listGadgetClass</text>
</a>
</g>
</g>
<!-- Node1&#45;&gt;Node4 -->
<g id="edge3" class="edge">
<title>Node1&#45;&gt;Node4</title>
<path fill="none" stroke="#191970" d="M318.1106,-30.9173C309.7038,-29.5669 301.1065,-28.1859 292.724,-26.8393"/>
<polygon fill="#191970" stroke="#191970" points="317.815,-34.4146 328.2435,-32.545 318.9253,-27.5032 317.815,-34.4146"/>
</g>
<!-- Node3 -->
<g id="node3" class="node">
<title>Node3</title>
<g id="a_node3"><a xlink:href="class_l_f_s_t_k__font_dialog_class_ab7b6a4bca99713646ab6ac77dc34827c.xhtml#ab7b6a4bca99713646ab6ac77dc34827c" target="_top" xlink:title=" ">
<polygon fill="none" stroke="#000000" points="0,-51.5 0,-83.5 128.239,-83.5 128.239,-51.5 0,-51.5"/>
<text text-anchor="start" x="8" y="-70.5" font-family="Helvetica,sans-Serif" font-size="10.00" fill="#000000">LFSTK_fontDialogClass</text>
<text text-anchor="middle" x="64.1195" y="-58.5" font-family="Helvetica,sans-Serif" font-size="10.00" fill="#000000">::LFSTK_fontDialogClass</text>
</a>
</g>
</g>
<!-- Node2&#45;&gt;Node3 -->
<g id="edge2" class="edge">
<title>Node2&#45;&gt;Node3</title>
<path fill="none" stroke="#191970" d="M156.6047,-67.5C147.1798,-67.5 137.5699,-67.5 128.2821,-67.5"/>
<polygon fill="#191970" stroke="#191970" points="156.735,-71.0001 166.735,-67.5 156.735,-64.0001 156.735,-71.0001"/>
</g>
</g>
</svg>
