<?xml version="1.0" encoding="UTF-8" standalone="no"?>
<!DOCTYPE svg PUBLIC "-//W3C//DTD SVG 1.1//EN"
 "http://www.w3.org/Graphics/SVG/1.1/DTD/svg11.dtd">
<!-- Generated by graphviz version 2.40.1 (20161225.0304)
 -->
<!-- Title: LFSTK_lib::LFSTK_loadVarsFromFile Pages: 1 -->
<svg width="628pt" height="80pt"
 viewBox="0.00 0.00 627.84 80.00" xmlns="http://www.w3.org/2000/svg" xmlns:xlink="http://www.w3.org/1999/xlink">
<g id="graph0" class="graph" transform="scale(1 1) rotate(0) translate(4 76)">
<title>LFSTK_lib::LFSTK_loadVarsFromFile</title>
<!-- Node1 -->
<g id="node1" class="node">
<title>Node1</title>
<g id="a_node1"><a xlink:title=" ">
<polygon fill="#bfbfbf" stroke="#000000" points="475.483,-22.5 475.483,-54.5 619.839,-54.5 619.839,-22.5 475.483,-22.5"/>
<text text-anchor="start" x="483.483" y="-41.5" font-family="Helvetica,sans-Serif" font-size="10.00" fill="#000000">LFSTK_lib::LFSTK_loadVars</text>
<text text-anchor="middle" x="547.661" y="-29.5" font-family="Helvetica,sans-Serif" font-size="10.00" fill="#000000">FromFile</text>
</a>
</g>
</g>
<!-- Node2 -->
<g id="node2" class="node">
<title>Node2</title>
<g id="a_node2"><a xlink:href="class_l_f_s_t_k__lib_aa9084a2e0ce0eb12388b4d319b5ef672.xhtml#aa9084a2e0ce0eb12388b4d319b5ef672" target="_top" xlink:title=" ">
<polygon fill="none" stroke="#000000" points="323.7515,-51.5 323.7515,-71.5 438.6515,-71.5 438.6515,-51.5 323.7515,-51.5"/>
<text text-anchor="middle" x="381.2015" y="-58.5" font-family="Helvetica,sans-Serif" font-size="10.00" fill="#000000">LFSTK_lib::LFSTK_lib</text>
</a>
</g>
</g>
<!-- Node1&#45;&gt;Node2 -->
<g id="edge1" class="edge">
<title>Node1&#45;&gt;Node2</title>
<path fill="none" stroke="#191970" d="M465.0959,-49.9082C456.1822,-51.1398 447.2583,-52.3728 438.7333,-53.5507"/>
<polygon fill="#191970" stroke="#191970" points="465.7069,-53.3571 475.1337,-48.5212 464.7487,-46.423 465.7069,-53.3571"/>
</g>
<!-- Node3 -->
<g id="node3" class="node">
<title>Node3</title>
<g id="a_node3"><a xlink:href="class_l_f_s_t_k__window_class_a22d62c1b464c98923d43cd3851362856.xhtml#a22d62c1b464c98923d43cd3851362856" target="_top" xlink:title=" ">
<polygon fill="none" stroke="#000000" points="322.92,-.5 322.92,-32.5 439.483,-32.5 439.483,-.5 322.92,-.5"/>
<text text-anchor="start" x="330.92" y="-19.5" font-family="Helvetica,sans-Serif" font-size="10.00" fill="#000000">LFSTK_windowClass::</text>
<text text-anchor="middle" x="381.2015" y="-7.5" font-family="Helvetica,sans-Serif" font-size="10.00" fill="#000000">LFSTK_reloadGlobals</text>
</a>
</g>
</g>
<!-- Node1&#45;&gt;Node3 -->
<g id="edge2" class="edge">
<title>Node1&#45;&gt;Node3</title>
<path fill="none" stroke="#191970" d="M465.0318,-27.5794C456.4042,-26.4391 447.768,-25.2977 439.494,-24.2042"/>
<polygon fill="#191970" stroke="#191970" points="464.7613,-31.074 475.1337,-28.9145 465.6785,-24.1343 464.7613,-31.074"/>
</g>
<!-- Node4 -->
<g id="node4" class="node">
<title>Node4</title>
<g id="a_node4"><a xlink:href="class_l_f_s_t_k__font_dialog_class_af866eb2b1ba8178c9cf3e751716fcc8e.xhtml#af866eb2b1ba8178c9cf3e751716fcc8e" target="_top" xlink:title=" ">
<polygon fill="none" stroke="#000000" points="164.239,-.5 164.239,-32.5 286.92,-32.5 286.92,-.5 164.239,-.5"/>
<text text-anchor="start" x="172.239" y="-19.5" font-family="Helvetica,sans-Serif" font-size="10.00" fill="#000000">LFSTK_fontDialogClass</text>
<text text-anchor="middle" x="225.5795" y="-7.5" font-family="Helvetica,sans-Serif" font-size="10.00" fill="#000000">::buildDialog</text>
</a>
</g>
</g>
<!-- Node3&#45;&gt;Node4 -->
<g id="edge3" class="edge">
<title>Node3&#45;&gt;Node4</title>
<path fill="none" stroke="#191970" d="M312.586,-16.5C304.1211,-16.5 295.509,-16.5 287.1579,-16.5"/>
<polygon fill="#191970" stroke="#191970" points="312.8109,-20.0001 322.8109,-16.5 312.8108,-13.0001 312.8109,-20.0001"/>
</g>
<!-- Node5 -->
<g id="node5" class="node">
<title>Node5</title>
<g id="a_node5"><a xlink:href="class_l_f_s_t_k__font_dialog_class_ab7b6a4bca99713646ab6ac77dc34827c.xhtml#ab7b6a4bca99713646ab6ac77dc34827c" target="_top" xlink:title=" ">
<polygon fill="none" stroke="#000000" points="0,-.5 0,-32.5 128.239,-32.5 128.239,-.5 0,-.5"/>
<text text-anchor="start" x="8" y="-19.5" font-family="Helvetica,sans-Serif" font-size="10.00" fill="#000000">LFSTK_fontDialogClass</text>
<text text-anchor="middle" x="64.1195" y="-7.5" font-family="Helvetica,sans-Serif" font-size="10.00" fill="#000000">::LFSTK_fontDialogClass</text>
</a>
</g>
</g>
<!-- Node4&#45;&gt;Node5 -->
<g id="edge4" class="edge">
<title>Node4&#45;&gt;Node5</title>
<path fill="none" stroke="#191970" d="M153.8365,-16.5C145.3653,-16.5 136.7604,-16.5 128.4012,-16.5"/>
<polygon fill="#191970" stroke="#191970" points="154.0778,-20.0001 164.0778,-16.5 154.0778,-13.0001 154.0778,-20.0001"/>
</g>
</g>
</svg>
