<?xml version="1.0" encoding="UTF-8" standalone="no"?>
<!DOCTYPE svg PUBLIC "-//W3C//DTD SVG 1.1//EN"
 "http://www.w3.org/Graphics/SVG/1.1/DTD/svg11.dtd">
<!-- Generated by graphviz version 2.40.1 (20161225.0304)
 -->
<!-- Title: LFSTK_gadgetClass::LFSTK_setLabel Pages: 1 -->
<svg width="761pt" height="252pt"
 viewBox="0.00 0.00 761.00 252.00" xmlns="http://www.w3.org/2000/svg" xmlns:xlink="http://www.w3.org/1999/xlink">
<g id="graph0" class="graph" transform="scale(1 1) rotate(0) translate(4 248)">
<title>LFSTK_gadgetClass::LFSTK_setLabel</title>
<!-- Node1 -->
<g id="node1" class="node">
<title>Node1</title>
<g id="a_node1"><a xlink:title=" ">
<polygon fill="#bfbfbf" stroke="#000000" points="0,-95.5 0,-127.5 113.803,-127.5 113.803,-95.5 0,-95.5"/>
<text text-anchor="start" x="8" y="-114.5" font-family="Helvetica,sans-Serif" font-size="10.00" fill="#000000">LFSTK_gadgetClass::</text>
<text text-anchor="middle" x="56.9015" y="-102.5" font-family="Helvetica,sans-Serif" font-size="10.00" fill="#000000">LFSTK_setLabel</text>
</a>
</g>
</g>
<!-- Node2 -->
<g id="node2" class="node">
<title>Node2</title>
<g id="a_node2"><a xlink:href="class_l_f_s_t_k__gadget_class_aa5b5f301fe9b0a4d7679f786da7462ba.xhtml#aa5b5f301fe9b0a4d7679f786da7462ba" target="_top" xlink:title=" ">
<polygon fill="none" stroke="#000000" points="158.411,-121.5 158.411,-153.5 272.214,-153.5 272.214,-121.5 158.411,-121.5"/>
<text text-anchor="start" x="166.411" y="-140.5" font-family="Helvetica,sans-Serif" font-size="10.00" fill="#000000">LFSTK_gadgetClass::</text>
<text text-anchor="middle" x="215.3125" y="-128.5" font-family="Helvetica,sans-Serif" font-size="10.00" fill="#000000">LFSTK_clearWindow</text>
</a>
</g>
</g>
<!-- Node1&#45;&gt;Node2 -->
<g id="edge1" class="edge">
<title>Node1&#45;&gt;Node2</title>
<path fill="none" stroke="#191970" d="M114.0915,-120.8866C125.1957,-122.7091 136.9269,-124.6346 148.3134,-126.5034"/>
<polygon fill="#191970" stroke="#191970" points="147.7716,-129.9613 158.2064,-128.1272 148.9054,-123.0537 147.7716,-129.9613"/>
</g>
<!-- Node11 -->
<g id="node11" class="node">
<title>Node11</title>
<g id="a_node11"><a xlink:href="class_l_f_s_t_k__gadget_class_a6ba306176db18f16e2a034c875f53de0.xhtml#a6ba306176db18f16e2a034c875f53de0" target="_top" xlink:title=" ">
<polygon fill="none" stroke="#000000" points="149.803,-70.5 149.803,-102.5 280.822,-102.5 280.822,-70.5 149.803,-70.5"/>
<text text-anchor="start" x="157.803" y="-89.5" font-family="Helvetica,sans-Serif" font-size="10.00" fill="#000000">LFSTK_gadgetClass::</text>
<text text-anchor="middle" x="215.3125" y="-77.5" font-family="Helvetica,sans-Serif" font-size="10.00" fill="#000000">LFSTK_setCairoFontData</text>
</a>
</g>
</g>
<!-- Node1&#45;&gt;Node11 -->
<g id="edge11" class="edge">
<title>Node1&#45;&gt;Node11</title>
<path fill="none" stroke="#191970" d="M114.0915,-102.4744C122.3722,-101.1676 131.0016,-99.8057 139.5768,-98.4524"/>
<polygon fill="#191970" stroke="#191970" points="140.262,-101.8877 149.5941,-96.8715 139.1707,-94.9733 140.262,-101.8877"/>
</g>
<!-- Node3 -->
<g id="node3" class="node">
<title>Node3</title>
<g id="a_node3"><a xlink:href="class_l_f_s_t_k__gadget_class_a66b92f213e5a7e75da3f707b511342ea.xhtml#a66b92f213e5a7e75da3f707b511342ea" target="_top" xlink:title=" ">
<polygon fill="none" stroke="#000000" points="316.822,-121.5 316.822,-153.5 430.625,-153.5 430.625,-121.5 316.822,-121.5"/>
<text text-anchor="start" x="324.822" y="-140.5" font-family="Helvetica,sans-Serif" font-size="10.00" fill="#000000">LFSTK_gadgetClass::</text>
<text text-anchor="middle" x="373.7235" y="-128.5" font-family="Helvetica,sans-Serif" font-size="10.00" fill="#000000">drawGagetDetails</text>
</a>
</g>
</g>
<!-- Node2&#45;&gt;Node3 -->
<g id="edge2" class="edge">
<title>Node2&#45;&gt;Node3</title>
<path fill="none" stroke="#191970" d="M272.5025,-137.5C283.4945,-137.5 295.101,-137.5 306.3792,-137.5"/>
<polygon fill="#191970" stroke="#191970" points="306.6175,-141.0001 316.6174,-137.5 306.6174,-134.0001 306.6175,-141.0001"/>
</g>
<!-- Node4 -->
<g id="node4" class="node">
<title>Node4</title>
<g id="a_node4"><a xlink:href="class_l_f_s_t_k__gadget_class_a37d96aab3c59cb97fca1720441e3fc8e.xhtml#a37d96aab3c59cb97fca1720441e3fc8e" target="_top" xlink:title=" ">
<polygon fill="none" stroke="#000000" points="466.625,-211.5 466.625,-243.5 580.428,-243.5 580.428,-211.5 466.625,-211.5"/>
<text text-anchor="start" x="474.625" y="-230.5" font-family="Helvetica,sans-Serif" font-size="10.00" fill="#000000">LFSTK_gadgetClass::</text>
<text text-anchor="middle" x="523.5265" y="-218.5" font-family="Helvetica,sans-Serif" font-size="10.00" fill="#000000">clearBox</text>
</a>
</g>
</g>
<!-- Node3&#45;&gt;Node4 -->
<g id="edge3" class="edge">
<title>Node3&#45;&gt;Node4</title>
<path fill="none" stroke="#191970" d="M398.286,-153.7326C416.8544,-165.8483 443.0834,-182.6328 466.625,-196.5 472.2227,-199.7973 478.1906,-203.1846 484.0767,-206.4533"/>
<polygon fill="#191970" stroke="#191970" points="482.7444,-209.7148 493.1941,-211.4625 486.1151,-203.5797 482.7444,-209.7148"/>
</g>
<!-- Node5 -->
<g id="node5" class="node">
<title>Node5</title>
<g id="a_node5"><a xlink:href="class_l_f_s_t_k__gadget_class_ab76db165a19af248b5e94e95492dc879.xhtml#ab76db165a19af248b5e94e95492dc879" target="_top" xlink:title=" ">
<polygon fill="none" stroke="#000000" points="627.8145,-128.5 627.8145,-160.5 741.6175,-160.5 741.6175,-128.5 627.8145,-128.5"/>
<text text-anchor="start" x="635.8145" y="-147.5" font-family="Helvetica,sans-Serif" font-size="10.00" fill="#000000">LFSTK_gadgetClass::</text>
<text text-anchor="middle" x="684.716" y="-135.5" font-family="Helvetica,sans-Serif" font-size="10.00" fill="#000000">drawBevel</text>
</a>
</g>
</g>
<!-- Node3&#45;&gt;Node5 -->
<g id="edge4" class="edge">
<title>Node3&#45;&gt;Node5</title>
<path fill="none" stroke="#191970" d="M421.4143,-153.5327C435.7758,-157.6275 451.6915,-161.4497 466.625,-163.5 516.734,-170.3797 530.0541,-168.0513 580.428,-163.5 592.4564,-162.4132 605.171,-160.6351 617.4297,-158.5914"/>
<polygon fill="#191970" stroke="#191970" points="618.3432,-161.9851 627.5947,-156.8217 617.1425,-155.0889 618.3432,-161.9851"/>
</g>
<!-- Node6 -->
<g id="node6" class="node">
<title>Node6</title>
<g id="a_node6"><a xlink:href="class_l_f_s_t_k__gadget_class_af5386ffc4699273f6c53a920fc8b2f1d.xhtml#af5386ffc4699273f6c53a920fc8b2f1d" target="_top" xlink:title=" ">
<polygon fill="none" stroke="#000000" points="466.625,-121.5 466.625,-153.5 580.428,-153.5 580.428,-121.5 466.625,-121.5"/>
<text text-anchor="start" x="474.625" y="-140.5" font-family="Helvetica,sans-Serif" font-size="10.00" fill="#000000">LFSTK_gadgetClass::</text>
<text text-anchor="middle" x="523.5265" y="-128.5" font-family="Helvetica,sans-Serif" font-size="10.00" fill="#000000">drawImage</text>
</a>
</g>
</g>
<!-- Node3&#45;&gt;Node6 -->
<g id="edge5" class="edge">
<title>Node3&#45;&gt;Node6</title>
<path fill="none" stroke="#191970" d="M430.7849,-137.5C439.2239,-137.5 447.9836,-137.5 456.6009,-137.5"/>
<polygon fill="#191970" stroke="#191970" points="456.6238,-141.0001 466.6237,-137.5 456.6237,-134.0001 456.6238,-141.0001"/>
</g>
<!-- Node7 -->
<g id="node7" class="node">
<title>Node7</title>
<g id="a_node7"><a xlink:href="class_l_f_s_t_k__gadget_class_af77235e4dc604470c9d62f101238225b.xhtml#af77235e4dc604470c9d62f101238225b" target="_top" xlink:title=" ">
<polygon fill="none" stroke="#000000" points="466.625,-70.5 466.625,-102.5 580.428,-102.5 580.428,-70.5 466.625,-70.5"/>
<text text-anchor="start" x="474.625" y="-89.5" font-family="Helvetica,sans-Serif" font-size="10.00" fill="#000000">LFSTK_gadgetClass::</text>
<text text-anchor="middle" x="523.5265" y="-77.5" font-family="Helvetica,sans-Serif" font-size="10.00" fill="#000000">drawIndicator</text>
</a>
</g>
</g>
<!-- Node3&#45;&gt;Node7 -->
<g id="edge6" class="edge">
<title>Node3&#45;&gt;Node7</title>
<path fill="none" stroke="#191970" d="M421.1221,-121.3633C435.6071,-116.4319 451.6857,-110.958 466.728,-105.8369"/>
<polygon fill="#191970" stroke="#191970" points="468.0978,-109.0679 476.4362,-102.5317 465.8418,-102.4414 468.0978,-109.0679"/>
</g>
<!-- Node8 -->
<g id="node8" class="node">
<title>Node8</title>
<g id="a_node8"><a xlink:href="class_l_f_s_t_k__gadget_class_a7f44f781b167d66c5d6f4cc862a7e2db.xhtml#a7f44f781b167d66c5d6f4cc862a7e2db" target="_top" xlink:title=" ">
<polygon fill="none" stroke="#000000" points="466.625,-19.5 466.625,-51.5 580.428,-51.5 580.428,-19.5 466.625,-19.5"/>
<text text-anchor="start" x="474.625" y="-38.5" font-family="Helvetica,sans-Serif" font-size="10.00" fill="#000000">LFSTK_gadgetClass::</text>
<text text-anchor="middle" x="523.5265" y="-26.5" font-family="Helvetica,sans-Serif" font-size="10.00" fill="#000000">drawLabel</text>
</a>
</g>
</g>
<!-- Node3&#45;&gt;Node8 -->
<g id="edge8" class="edge">
<title>Node3&#45;&gt;Node8</title>
<path fill="none" stroke="#191970" d="M390.093,-121.4985C407.8505,-104.748 437.5687,-78.4356 466.625,-60.5 468.9549,-59.0618 471.3819,-57.6631 473.864,-56.3102"/>
<polygon fill="#191970" stroke="#191970" points="475.7117,-59.2963 483.0172,-51.623 472.521,-53.0658 475.7117,-59.2963"/>
</g>
<!-- Node7&#45;&gt;Node5 -->
<g id="edge7" class="edge">
<title>Node7&#45;&gt;Node5</title>
<path fill="none" stroke="#191970" d="M567.9989,-102.5023C587.3863,-109.4784 610.2899,-117.7196 630.6508,-125.046"/>
<polygon fill="#191970" stroke="#191970" points="629.5147,-128.3568 640.1092,-128.4493 631.8848,-121.7703 629.5147,-128.3568"/>
</g>
<!-- Node9 -->
<g id="node9" class="node">
<title>Node9</title>
<g id="a_node9"><a xlink:href="class_l_f_s_t_k__lib_ab2f14a3414f7db863682d1e2fa0cfb75.xhtml#ab2f14a3414f7db863682d1e2fa0cfb75" target="_top" xlink:title=" ">
<polygon fill="none" stroke="#000000" points="616.428,-51.5 616.428,-71.5 753.004,-71.5 753.004,-51.5 616.428,-51.5"/>
<text text-anchor="middle" x="684.716" y="-58.5" font-family="Helvetica,sans-Serif" font-size="10.00" fill="#000000">LFSTK_lib::bestFontColour</text>
</a>
</g>
</g>
<!-- Node8&#45;&gt;Node9 -->
<g id="edge9" class="edge">
<title>Node8&#45;&gt;Node9</title>
<path fill="none" stroke="#191970" d="M580.8097,-44.7398C591.0958,-46.399 601.9362,-48.1475 612.5777,-49.864"/>
<polygon fill="#191970" stroke="#191970" points="612.2651,-53.3588 622.6949,-51.4959 613.3799,-46.4481 612.2651,-53.3588"/>
</g>
<!-- Node10 -->
<g id="node10" class="node">
<title>Node10</title>
<g id="a_node10"><a xlink:href="class_l_f_s_t_k__gadget_class_a091281ba03eaeb31bc7507c74b9b4f2f.xhtml#a091281ba03eaeb31bc7507c74b9b4f2f" target="_top" xlink:title=" ">
<polygon fill="none" stroke="#000000" points="627.26,-.5 627.26,-32.5 742.172,-32.5 742.172,-.5 627.26,-.5"/>
<text text-anchor="start" x="635.26" y="-19.5" font-family="Helvetica,sans-Serif" font-size="10.00" fill="#000000">LFSTK_gadgetClass::</text>
<text text-anchor="middle" x="684.716" y="-7.5" font-family="Helvetica,sans-Serif" font-size="10.00" fill="#000000">LFSTK_getTextHeight</text>
</a>
</g>
</g>
<!-- Node8&#45;&gt;Node10 -->
<g id="edge10" class="edge">
<title>Node8&#45;&gt;Node10</title>
<path fill="none" stroke="#191970" d="M580.8097,-28.7478C592.5451,-27.3645 605.0019,-25.8962 617.0617,-24.4747"/>
<polygon fill="#191970" stroke="#191970" points="617.5526,-27.9411 627.0741,-23.2945 616.7331,-20.9892 617.5526,-27.9411"/>
</g>
</g>
</svg>
