<?xml version="1.0" encoding="UTF-8" standalone="no"?>
<!DOCTYPE svg PUBLIC "-//W3C//DTD SVG 1.1//EN"
 "http://www.w3.org/Graphics/SVG/1.1/DTD/svg11.dtd">
<!-- Generated by graphviz version 2.40.1 (20161225.0304)
 -->
<!-- Title: LFSTK_lineEditClass::LFSTK_clearWindow Pages: 1 -->
<svg width="441pt" height="117pt"
 viewBox="0.00 0.00 441.38 117.00" xmlns="http://www.w3.org/2000/svg" xmlns:xlink="http://www.w3.org/1999/xlink">
<g id="graph0" class="graph" transform="scale(1 1) rotate(0) translate(4 113)">
<title>LFSTK_lineEditClass::LFSTK_clearWindow</title>
<!-- Node1 -->
<g id="node1" class="node">
<title>Node1</title>
<g id="a_node1"><a xlink:title=" ">
<polygon fill="#bfbfbf" stroke="#000000" points="0,-50.5 0,-82.5 115.452,-82.5 115.452,-50.5 0,-50.5"/>
<text text-anchor="start" x="8" y="-69.5" font-family="Helvetica,sans-Serif" font-size="10.00" fill="#000000">LFSTK_lineEditClass</text>
<text text-anchor="middle" x="57.726" y="-57.5" font-family="Helvetica,sans-Serif" font-size="10.00" fill="#000000">::LFSTK_clearWindow</text>
</a>
</g>
</g>
<!-- Node2 -->
<g id="node2" class="node">
<title>Node2</title>
<g id="a_node2"><a xlink:href="class_l_f_s_t_k__gadget_class_ab76db165a19af248b5e94e95492dc879.xhtml#ab76db165a19af248b5e94e95492dc879" target="_top" xlink:title=" ">
<polygon fill="none" stroke="#000000" points="151.452,-76.5 151.452,-108.5 265.255,-108.5 265.255,-76.5 151.452,-76.5"/>
<text text-anchor="start" x="159.452" y="-95.5" font-family="Helvetica,sans-Serif" font-size="10.00" fill="#000000">LFSTK_gadgetClass::</text>
<text text-anchor="middle" x="208.3535" y="-83.5" font-family="Helvetica,sans-Serif" font-size="10.00" fill="#000000">drawBevel</text>
</a>
</g>
</g>
<!-- Node1&#45;&gt;Node2 -->
<g id="edge1" class="edge">
<title>Node1&#45;&gt;Node2</title>
<path fill="none" stroke="#191970" d="M115.5317,-76.4779C123.9993,-77.9395 132.7794,-79.4551 141.411,-80.945"/>
<polygon fill="#191970" stroke="#191970" points="140.9983,-84.4254 151.448,-82.6775 142.189,-77.5274 140.9983,-84.4254"/>
</g>
<!-- Node3 -->
<g id="node3" class="node">
<title>Node3</title>
<g id="a_node3"><a xlink:href="class_l_f_s_t_k__line_edit_class_a24da1f04ceb3b05ed9b25988e2cb5130.xhtml#a24da1f04ceb3b05ed9b25988e2cb5130" target="_top" xlink:title=" ">
<polygon fill="none" stroke="#000000" points="153.127,-25.5 153.127,-57.5 263.58,-57.5 263.58,-25.5 153.127,-25.5"/>
<text text-anchor="start" x="161.127" y="-44.5" font-family="Helvetica,sans-Serif" font-size="10.00" fill="#000000">LFSTK_lineEditClass</text>
<text text-anchor="middle" x="208.3535" y="-32.5" font-family="Helvetica,sans-Serif" font-size="10.00" fill="#000000">::drawLabel</text>
</a>
</g>
</g>
<!-- Node1&#45;&gt;Node3 -->
<g id="edge2" class="edge">
<title>Node1&#45;&gt;Node3</title>
<path fill="none" stroke="#191970" d="M115.5317,-56.9058C124.453,-55.4252 133.7212,-53.8869 142.7972,-52.3805"/>
<polygon fill="#191970" stroke="#191970" points="143.6418,-55.7883 152.9338,-50.6981 142.4957,-48.8828 143.6418,-55.7883"/>
</g>
<!-- Node4 -->
<g id="node4" class="node">
<title>Node4</title>
<g id="a_node4"><a xlink:href="class_l_f_s_t_k__gadget_class_ac233a3c3e0900ff66adb74102a56f09f.xhtml#ac233a3c3e0900ff66adb74102a56f09f" target="_top" xlink:title=" ">
<polygon fill="none" stroke="#000000" points="301.255,-51.5 301.255,-83.5 433.384,-83.5 433.384,-51.5 301.255,-51.5"/>
<text text-anchor="start" x="309.255" y="-70.5" font-family="Helvetica,sans-Serif" font-size="10.00" fill="#000000">LFSTK_gadgetClass::</text>
<text text-anchor="middle" x="367.3195" y="-58.5" font-family="Helvetica,sans-Serif" font-size="10.00" fill="#000000">LFSTK_getTextRealWidth</text>
</a>
</g>
</g>
<!-- Node3&#45;&gt;Node4 -->
<g id="edge3" class="edge">
<title>Node3&#45;&gt;Node4</title>
<path fill="none" stroke="#191970" d="M263.9521,-50.5935C272.7628,-52.0346 282.0051,-53.5462 291.1876,-55.0481"/>
<polygon fill="#191970" stroke="#191970" points="290.6712,-58.5101 301.105,-56.6702 291.8011,-51.6018 290.6712,-58.5101"/>
</g>
<!-- Node5 -->
<g id="node5" class="node">
<title>Node5</title>
<g id="a_node5"><a xlink:href="class_l_f_s_t_k__gadget_class_a23bc2dc7b8200df4dc74f1f68460eca2.xhtml#a23bc2dc7b8200df4dc74f1f68460eca2" target="_top" xlink:title=" ">
<polygon fill="none" stroke="#000000" points="310.418,-.5 310.418,-32.5 424.221,-32.5 424.221,-.5 310.418,-.5"/>
<text text-anchor="start" x="318.418" y="-19.5" font-family="Helvetica,sans-Serif" font-size="10.00" fill="#000000">LFSTK_gadgetClass::</text>
<text text-anchor="middle" x="367.3195" y="-7.5" font-family="Helvetica,sans-Serif" font-size="10.00" fill="#000000">LFSTK_getTextWidth</text>
</a>
</g>
</g>
<!-- Node3&#45;&gt;Node5 -->
<g id="edge4" class="edge">
<title>Node3&#45;&gt;Node5</title>
<path fill="none" stroke="#191970" d="M263.9521,-32.7562C275.7034,-30.9081 288.2225,-28.9393 300.3436,-27.033"/>
<polygon fill="#191970" stroke="#191970" points="301.0714,-30.4617 310.4062,-25.4506 299.9838,-23.5467 301.0714,-30.4617"/>
</g>
</g>
</svg>
