<?xml version="1.0" encoding="UTF-8" standalone="no"?>
<!DOCTYPE svg PUBLIC "-//W3C//DTD SVG 1.1//EN"
 "http://www.w3.org/Graphics/SVG/1.1/DTD/svg11.dtd">
<!-- Generated by graphviz version 2.40.1 (20161225.0304)
 -->
<!-- Title: LFSTK_menuClass Pages: 1 -->
<svg width="994pt" height="458pt"
 viewBox="0.00 0.00 994.30 457.50" xmlns="http://www.w3.org/2000/svg" xmlns:xlink="http://www.w3.org/1999/xlink">
<g id="graph0" class="graph" transform="scale(1 1) rotate(0) translate(4 453.5)">
<title>LFSTK_menuClass</title>
<!-- Node1 -->
<g id="node1" class="node">
<title>Node1</title>
<g id="a_node1"><a xlink:title="Menu class for LFSToolKit.">
<polygon fill="#bfbfbf" stroke="#000000" points="883.627,-94.5 883.627,-114.5 986.304,-114.5 986.304,-94.5 883.627,-94.5"/>
<text text-anchor="middle" x="934.9655" y="-101.5" font-family="Helvetica,sans-Serif" font-size="10.00" fill="#000000">LFSTK_menuClass</text>
</a>
</g>
</g>
<!-- Node2 -->
<g id="node2" class="node">
<title>Node2</title>
<g id="a_node2"><a xlink:href="class_l_f_s_t_k__window_class.xhtml" target="_top" xlink:title="Window class for LFSToolKit.">
<polygon fill="none" stroke="#000000" points="397.3535,-145.5 397.3535,-165.5 508.3585,-165.5 508.3585,-145.5 397.3535,-145.5"/>
<text text-anchor="middle" x="452.856" y="-152.5" font-family="Helvetica,sans-Serif" font-size="10.00" fill="#000000">LFSTK_windowClass</text>
</a>
</g>
</g>
<!-- Node2&#45;&gt;Node1 -->
<g id="edge1" class="edge">
<title>Node2&#45;&gt;Node1</title>
<path fill="none" stroke="#9a32cd" stroke-dasharray="5,2" d="M478.845,-140.3108C493.7758,-132.1734 513.132,-122.5968 531.366,-116.5 652.3639,-76.0424 805.3101,-87.0453 883.6218,-96.7868"/>
<polygon fill="#9a32cd" stroke="#9a32cd" points="476.7546,-137.4692 469.7287,-145.3994 480.1664,-143.5815 476.7546,-137.4692"/>
<text text-anchor="middle" x="697.9515" y="-95.5" font-family="Helvetica,sans-Serif" font-size="10.00" fill="#000000"> parentwc</text>
</g>
<!-- Node5 -->
<g id="node5" class="node">
<title>Node5</title>
<g id="a_node5"><a xlink:href="class_l_f_s_t_k__gadget_class.xhtml" target="_top" xlink:title="Base class for LFSToolKit gadgets.">
<polygon fill="none" stroke="#000000" points="643.829,-274.5 643.829,-294.5 752.074,-294.5 752.074,-274.5 643.829,-274.5"/>
<text text-anchor="middle" x="697.9515" y="-281.5" font-family="Helvetica,sans-Serif" font-size="10.00" fill="#000000">LFSTK_gadgetClass</text>
</a>
</g>
</g>
<!-- Node2&#45;&gt;Node5 -->
<g id="edge10" class="edge">
<title>Node2&#45;&gt;Node5</title>
<path fill="none" stroke="#9a32cd" stroke-dasharray="5,2" d="M505.462,-168.4334C539.4063,-178.7003 583.0708,-195.6861 615.281,-221.5 626.2482,-230.2893 622.9255,-237.9976 633.281,-247.5 645.4803,-258.6943 661.648,-267.9443 674.7658,-274.3957"/>
<polygon fill="#9a32cd" stroke="#9a32cd" points="506.2946,-165.0304 495.7144,-165.5874 504.3326,-171.7499 506.2946,-165.0304"/>
<text text-anchor="middle" x="573.3235" y="-236.5" font-family="Helvetica,sans-Serif" font-size="10.00" fill="#000000"> contextWC</text>
<text text-anchor="middle" x="573.3235" y="-224.5" font-family="Helvetica,sans-Serif" font-size="10.00" fill="#000000">wc</text>
</g>
<!-- Node14 -->
<g id="node14" class="node">
<title>Node14</title>
<g id="a_node14"><a xlink:href="class_l_f_s_t_k__tool_window_class.xhtml" target="_top" xlink:title="Tool window class for LFSToolKit.">
<polygon fill="none" stroke="#000000" points="633.281,-118.5 633.281,-138.5 762.622,-138.5 762.622,-118.5 633.281,-118.5"/>
<text text-anchor="middle" x="697.9515" y="-125.5" font-family="Helvetica,sans-Serif" font-size="10.00" fill="#000000">LFSTK_toolWindowClass</text>
</a>
</g>
</g>
<!-- Node2&#45;&gt;Node14 -->
<g id="edge20" class="edge">
<title>Node2&#45;&gt;Node14</title>
<path fill="none" stroke="#191970" d="M483.2641,-141.4079C497.5364,-135.5449 514.9795,-129.4297 531.366,-126.5 564.5355,-120.5697 602.0148,-120.4511 633.012,-122.0828"/>
<polygon fill="#191970" stroke="#191970" points="481.7667,-138.2414 473.9418,-145.3843 484.5132,-144.6801 481.7667,-138.2414"/>
</g>
<!-- Node3 -->
<g id="node3" class="node">
<title>Node3</title>
<g id="a_node3"><a xlink:href="structgeometry_struct.xhtml" target="_top" xlink:title=" ">
<polygon fill="none" stroke="#000000" points="175.335,-279.5 175.335,-299.5 259.123,-299.5 259.123,-279.5 175.335,-279.5"/>
<text text-anchor="middle" x="217.229" y="-286.5" font-family="Helvetica,sans-Serif" font-size="10.00" fill="#000000">geometryStruct</text>
</a>
</g>
</g>
<!-- Node3&#45;&gt;Node2 -->
<g id="edge2" class="edge">
<title>Node3&#45;&gt;Node2</title>
<path fill="none" stroke="#9a32cd" stroke-dasharray="5,2" d="M245.291,-274.3321C276.8462,-257.1903 329.5372,-228.3086 374.346,-202.5 395.9584,-190.0519 420.5905,-175.1948 436.4098,-165.5654"/>
<polygon fill="#9a32cd" stroke="#9a32cd" points="243.33,-271.414 236.2087,-279.2587 246.6677,-277.5671 243.33,-271.414"/>
<text text-anchor="middle" x="325.7345" y="-259.5" font-family="Helvetica,sans-Serif" font-size="10.00" fill="#000000"> windowGeom</text>
</g>
<!-- Node3&#45;&gt;Node5 -->
<g id="edge9" class="edge">
<title>Node3&#45;&gt;Node5</title>
<path fill="none" stroke="#9a32cd" stroke-dasharray="5,2" d="M269.6419,-288.9549C361.4751,-287.9997 550.5345,-286.0333 643.6691,-285.0646"/>
<polygon fill="#9a32cd" stroke="#9a32cd" points="269.4316,-285.4568 259.4686,-289.0607 269.5045,-292.4564 269.4316,-285.4568"/>
<text text-anchor="middle" x="452.856" y="-290.5" font-family="Helvetica,sans-Serif" font-size="10.00" fill="#000000"> gadgetGeom</text>
</g>
<!-- Node6 -->
<g id="node6" class="node">
<title>Node6</title>
<g id="a_node6"><a xlink:href="structgadget_struct.xhtml" target="_top" xlink:title=" ">
<polygon fill="none" stroke="#000000" points="416.5115,-320.5 416.5115,-340.5 489.2005,-340.5 489.2005,-320.5 416.5115,-320.5"/>
<text text-anchor="middle" x="452.856" y="-327.5" font-family="Helvetica,sans-Serif" font-size="10.00" fill="#000000">gadgetStruct</text>
</a>
</g>
</g>
<!-- Node3&#45;&gt;Node6 -->
<g id="edge6" class="edge">
<title>Node3&#45;&gt;Node6</title>
<path fill="none" stroke="#9a32cd" stroke-dasharray="5,2" d="M269.4665,-299.1338C272.0549,-299.5986 274.6181,-300.0562 277.123,-300.5 325.275,-309.0315 380.9296,-318.4595 416.4838,-324.4276"/>
<polygon fill="#9a32cd" stroke="#9a32cd" points="269.8915,-295.654 259.4283,-297.3188 268.646,-302.5423 269.8915,-295.654"/>
<text text-anchor="middle" x="325.7345" y="-331.5" font-family="Helvetica,sans-Serif" font-size="10.00" fill="#000000"> indicatorGeom</text>
<text text-anchor="middle" x="325.7345" y="-319.5" font-family="Helvetica,sans-Serif" font-size="10.00" fill="#000000">gadgetGeom</text>
</g>
<!-- Node4 -->
<g id="node4" class="node">
<title>Node4</title>
<g id="a_node4"><a xlink:href="structmonitor_struct.xhtml" target="_top" xlink:title=" ">
<polygon fill="none" stroke="#000000" points="179.505,-184.5 179.505,-204.5 254.953,-204.5 254.953,-184.5 179.505,-184.5"/>
<text text-anchor="middle" x="217.229" y="-191.5" font-family="Helvetica,sans-Serif" font-size="10.00" fill="#000000">monitorStruct</text>
</a>
</g>
</g>
<!-- Node4&#45;&gt;Node2 -->
<g id="edge3" class="edge">
<title>Node4&#45;&gt;Node2</title>
<path fill="none" stroke="#9a32cd" stroke-dasharray="5,2" d="M265.2548,-188.1758C296.4201,-183.8978 337.8717,-177.8812 374.346,-171.5 384.4857,-169.726 395.3234,-167.6407 405.6084,-165.5723"/>
<polygon fill="#9a32cd" stroke="#9a32cd" points="264.5385,-184.7409 255.1021,-189.5579 265.4828,-191.6769 264.5385,-184.7409"/>
<text text-anchor="middle" x="325.7345" y="-189.5" font-family="Helvetica,sans-Serif" font-size="10.00" fill="#000000"> monitors</text>
</g>
<!-- Node5&#45;&gt;Node2 -->
<g id="edge4" class="edge">
<title>Node5&#45;&gt;Node2</title>
<path fill="none" stroke="#9a32cd" stroke-dasharray="5,2" d="M659.6967,-269.7864C649.7065,-264.2199 639.8974,-256.8915 633.281,-247.5 607.0207,-210.2252 650.2366,-175.7766 615.281,-146.5 575.8757,-113.4965 510.405,-131.9687 475.8473,-145.4057"/>
<polygon fill="#9a32cd" stroke="#9a32cd" points="658.3331,-273.0189 668.836,-274.4117 661.494,-266.7732 658.3331,-273.0189"/>
<text text-anchor="middle" x="573.3235" y="-161.5" font-family="Helvetica,sans-Serif" font-size="10.00" fill="#000000"> dropGadget</text>
<text text-anchor="middle" x="573.3235" y="-149.5" font-family="Helvetica,sans-Serif" font-size="10.00" fill="#000000">popupFromGadget</text>
</g>
<!-- Node9 -->
<g id="node9" class="node">
<title>Node9</title>
<g id="a_node9"><a xlink:href="structmapped_listener.xhtml" target="_top" xlink:title=" ">
<polygon fill="none" stroke="#000000" points="891.122,-284.5 891.122,-304.5 978.809,-304.5 978.809,-284.5 891.122,-284.5"/>
<text text-anchor="middle" x="934.9655" y="-291.5" font-family="Helvetica,sans-Serif" font-size="10.00" fill="#000000">mappedListener</text>
</a>
</g>
</g>
<!-- Node5&#45;&gt;Node9 -->
<g id="edge12" class="edge">
<title>Node5&#45;&gt;Node9</title>
<path fill="none" stroke="#9a32cd" stroke-dasharray="5,2" d="M762.4703,-289.4739C768.6033,-289.8589 774.7291,-290.21 780.622,-290.5 817.8355,-292.3317 860.1403,-293.3535 891.0364,-293.905"/>
<polygon fill="#9a32cd" stroke="#9a32cd" points="762.3899,-285.9611 752.182,-288.7985 761.9313,-292.9461 762.3899,-285.9611"/>
<text text-anchor="middle" x="823.1245" y="-295.5" font-family="Helvetica,sans-Serif" font-size="10.00" fill="#000000"> gadget</text>
</g>
<!-- Node6&#45;&gt;Node5 -->
<g id="edge5" class="edge">
<title>Node6&#45;&gt;Node5</title>
<path fill="none" stroke="#9a32cd" stroke-dasharray="5,2" d="M499.6189,-324.5152C532.1879,-320.0511 576.5565,-313.3796 615.281,-305.5 630.5175,-302.3997 647.1628,-298.3098 661.4981,-294.5637"/>
<polygon fill="#9a32cd" stroke="#9a32cd" points="498.9222,-321.0774 489.4813,-325.8857 499.8601,-328.0143 498.9222,-321.0774"/>
<text text-anchor="middle" x="573.3235" y="-322.5" font-family="Helvetica,sans-Serif" font-size="10.00" fill="#000000"> gadgetDetails</text>
</g>
<!-- Node7 -->
<g id="node7" class="node">
<title>Node7</title>
<g id="a_node7"><a xlink:href="structcolour_struct.xhtml" target="_top" xlink:title=" ">
<polygon fill="none" stroke="#000000" points="182.559,-394.5 182.559,-414.5 251.899,-414.5 251.899,-394.5 182.559,-394.5"/>
<text text-anchor="middle" x="217.229" y="-401.5" font-family="Helvetica,sans-Serif" font-size="10.00" fill="#000000">colourStruct</text>
</a>
</g>
</g>
<!-- Node7&#45;&gt;Node2 -->
<g id="edge16" class="edge">
<title>Node7&#45;&gt;Node2</title>
<path fill="none" stroke="#9a32cd" stroke-dasharray="5,2" d="M239.29,-388.4978C250.2225,-381.1995 263.8909,-372.983 277.123,-367.5 318.1436,-350.5021 344.4173,-377.3007 374.346,-344.5 412.7713,-302.3874 367.1897,-268.658 392.346,-217.5 403.098,-195.6348 424.4733,-176.6147 438.7212,-165.5949"/>
<polygon fill="#9a32cd" stroke="#9a32cd" points="237.0697,-385.7772 230.8199,-394.3324 241.0406,-391.5419 237.0697,-385.7772"/>
<text text-anchor="middle" x="325.7345" y="-370.5" font-family="Helvetica,sans-Serif" font-size="10.00" fill="#000000"> windowColourNames</text>
</g>
<!-- Node7&#45;&gt;Node5 -->
<g id="edge14" class="edge">
<title>Node7&#45;&gt;Node5</title>
<path fill="none" stroke="#9a32cd" stroke-dasharray="5,2" d="M262.2839,-415.3539C267.2666,-416.2329 272.2861,-416.9811 277.123,-417.5 320.0867,-422.109 331.7157,-424.5557 374.346,-417.5 485.9419,-399.0299 512.9602,-383.7208 615.281,-335.5 640.6039,-323.5661 667.8467,-305.6649 683.872,-294.5532"/>
<polygon fill="#9a32cd" stroke="#9a32cd" points="262.6615,-411.8621 252.1785,-413.3974 261.3309,-418.7345 262.6615,-411.8621"/>
<text text-anchor="middle" x="452.856" y="-440.5" font-family="Helvetica,sans-Serif" font-size="10.00" fill="#000000"> labelBGColour</text>
<text text-anchor="middle" x="452.856" y="-428.5" font-family="Helvetica,sans-Serif" font-size="10.00" fill="#000000">colourNames</text>
<text text-anchor="middle" x="452.856" y="-416.5" font-family="Helvetica,sans-Serif" font-size="10.00" fill="#000000">fontColourNames</text>
</g>
<!-- Node7&#45;&gt;Node6 -->
<g id="edge7" class="edge">
<title>Node7&#45;&gt;Node6</title>
<path fill="none" stroke="#9a32cd" stroke-dasharray="5,2" d="M262.0344,-403.4878C294.1994,-401.515 338.088,-396.2329 374.346,-382.5 400.49,-372.5978 426.737,-352.7229 441.2844,-340.6163"/>
<polygon fill="#9a32cd" stroke="#9a32cd" points="261.8283,-399.9937 252.0278,-404.0186 262.1991,-406.9839 261.8283,-399.9937"/>
<text text-anchor="middle" x="325.7345" y="-404.5" font-family="Helvetica,sans-Serif" font-size="10.00" fill="#000000"> colour</text>
</g>
<!-- Node8 -->
<g id="node8" class="node">
<title>Node8</title>
<g id="a_node8"><a xlink:href="structcairo_color.xhtml" target="_top" xlink:title=" ">
<polygon fill="none" stroke="#000000" points="0,-394.5 0,-414.5 61.551,-414.5 61.551,-394.5 0,-394.5"/>
<text text-anchor="middle" x="30.7755" y="-401.5" font-family="Helvetica,sans-Serif" font-size="10.00" fill="#000000">cairoColor</text>
</a>
</g>
</g>
<!-- Node8&#45;&gt;Node7 -->
<g id="edge8" class="edge">
<title>Node8&#45;&gt;Node7</title>
<path fill="none" stroke="#9a32cd" stroke-dasharray="5,2" d="M71.8162,-404.5C104.899,-404.5 150.9162,-404.5 182.2645,-404.5"/>
<polygon fill="#9a32cd" stroke="#9a32cd" points="71.5645,-401.0001 61.5645,-404.5 71.5645,-408.0001 71.5645,-401.0001"/>
<text text-anchor="middle" x="118.443" y="-407.5" font-family="Helvetica,sans-Serif" font-size="10.00" fill="#000000"> RGBAColour</text>
</g>
<!-- Node9&#45;&gt;Node5 -->
<g id="edge11" class="edge">
<title>Node9&#45;&gt;Node5</title>
<path fill="none" stroke="#9a32cd" stroke-dasharray="5,2" d="M888.6653,-282.2911C881.0193,-280.7158 873.1377,-279.3553 865.627,-278.5 827.8578,-274.1989 785.0232,-275.842 752.1022,-278.4868"/>
<polygon fill="#9a32cd" stroke="#9a32cd" points="888.0116,-285.731 898.5301,-284.4614 889.5157,-278.8944 888.0116,-285.731"/>
<text text-anchor="middle" x="823.1245" y="-281.5" font-family="Helvetica,sans-Serif" font-size="10.00" fill="#000000"> ml</text>
</g>
<!-- Node10 -->
<g id="node10" class="node">
<title>Node10</title>
<g id="a_node10"><a xlink:href="structbutton_c_b.xhtml" target="_top" xlink:title=" ">
<polygon fill="none" stroke="#000000" points="424.015,-226.5 424.015,-246.5 481.697,-246.5 481.697,-226.5 424.015,-226.5"/>
<text text-anchor="middle" x="452.856" y="-233.5" font-family="Helvetica,sans-Serif" font-size="10.00" fill="#000000">buttonCB</text>
</a>
</g>
</g>
<!-- Node10&#45;&gt;Node1 -->
<g id="edge21" class="edge">
<title>Node10&#45;&gt;Node1</title>
<path fill="none" stroke="#9a32cd" stroke-dasharray="5,2" d="M492.0841,-234.1195C525.2097,-231.5847 573.747,-226.6349 615.281,-217.5 729.6295,-192.3505 756.4045,-177.6724 865.627,-135.5 882.1105,-129.1355 900.3357,-120.9402 913.963,-114.5746"/>
<polygon fill="#9a32cd" stroke="#9a32cd" points="491.6189,-230.644 481.899,-234.8599 492.1264,-237.6256 491.6189,-230.644"/>
<text text-anchor="middle" x="697.9515" y="-215.5" font-family="Helvetica,sans-Serif" font-size="10.00" fill="#000000"> callback</text>
</g>
<!-- Node10&#45;&gt;Node5 -->
<g id="edge13" class="edge">
<title>Node10&#45;&gt;Node5</title>
<path fill="none" stroke="#9a32cd" stroke-dasharray="5,2" d="M492.121,-242.9536C525.0814,-248.5043 573.3673,-256.9472 615.281,-265.5 628.556,-268.2089 642.9665,-271.4246 655.9819,-274.433"/>
<polygon fill="#9a32cd" stroke="#9a32cd" points="492.4262,-239.4561 481.9855,-241.2566 491.2702,-246.36 492.4262,-239.4561"/>
<text text-anchor="middle" x="573.3235" y="-268.5" font-family="Helvetica,sans-Serif" font-size="10.00" fill="#000000"> callback</text>
</g>
<!-- Node11 -->
<g id="node11" class="node">
<title>Node11</title>
<g id="a_node11"><a xlink:href="structdrop_data_struct.xhtml" target="_top" xlink:title=" ">
<polygon fill="none" stroke="#000000" points="175.6105,-145.5 175.6105,-165.5 258.8475,-165.5 258.8475,-145.5 175.6105,-145.5"/>
<text text-anchor="middle" x="217.229" y="-152.5" font-family="Helvetica,sans-Serif" font-size="10.00" fill="#000000">dropDataStruct</text>
</a>
</g>
</g>
<!-- Node11&#45;&gt;Node2 -->
<g id="edge15" class="edge">
<title>Node11&#45;&gt;Node2</title>
<path fill="none" stroke="#9a32cd" stroke-dasharray="5,2" d="M269.4005,-155.5C307.3097,-155.5 358.5373,-155.5 397.225,-155.5"/>
<polygon fill="#9a32cd" stroke="#9a32cd" points="269.0829,-152.0001 259.0829,-155.5 269.0828,-159.0001 269.0829,-152.0001"/>
<text text-anchor="middle" x="325.7345" y="-158.5" font-family="Helvetica,sans-Serif" font-size="10.00" fill="#000000"> droppedData</text>
</g>
<!-- Node12 -->
<g id="node12" class="node">
<title>Node12</title>
<g id="a_node12"><a xlink:href="class_l_f_s_t_k__lib.xhtml" target="_top" xlink:title="Library of useful routines for LFSToolKit.">
<polygon fill="none" stroke="#000000" points="185.8935,-106.5 185.8935,-126.5 248.5645,-126.5 248.5645,-106.5 185.8935,-106.5"/>
<text text-anchor="middle" x="217.229" y="-113.5" font-family="Helvetica,sans-Serif" font-size="10.00" fill="#000000">LFSTK_lib</text>
</a>
</g>
</g>
<!-- Node12&#45;&gt;Node2 -->
<g id="edge17" class="edge">
<title>Node12&#45;&gt;Node2</title>
<path fill="none" stroke="#9a32cd" stroke-dasharray="5,2" d="M258.8457,-121.949C290.5729,-126.2588 335.3099,-132.6706 374.346,-139.5 384.4857,-141.274 395.3234,-143.3593 405.6084,-145.4277"/>
<polygon fill="#9a32cd" stroke="#9a32cd" points="258.9896,-118.4369 248.6118,-120.5705 258.055,-125.3742 258.9896,-118.4369"/>
<text text-anchor="middle" x="325.7345" y="-142.5" font-family="Helvetica,sans-Serif" font-size="10.00" fill="#000000"> globalLib</text>
</g>
<!-- Node13 -->
<g id="node13" class="node">
<title>Node13</title>
<g id="a_node13"><a xlink:href="structargs.xhtml" target="_top" xlink:title=" ">
<polygon fill="none" stroke="#000000" points="13.052,-106.5 13.052,-126.5 48.499,-126.5 48.499,-106.5 13.052,-106.5"/>
<text text-anchor="middle" x="30.7755" y="-113.5" font-family="Helvetica,sans-Serif" font-size="10.00" fill="#000000">args</text>
</a>
</g>
</g>
<!-- Node13&#45;&gt;Node12 -->
<g id="edge18" class="edge">
<title>Node13&#45;&gt;Node12</title>
<path fill="none" stroke="#9a32cd" stroke-dasharray="5,2" d="M58.8512,-116.5C92.9534,-116.5 150.315,-116.5 185.8451,-116.5"/>
<polygon fill="#9a32cd" stroke="#9a32cd" points="58.6535,-113.0001 48.6534,-116.5 58.6534,-120.0001 58.6535,-113.0001"/>
<text text-anchor="middle" x="118.443" y="-119.5" font-family="Helvetica,sans-Serif" font-size="10.00" fill="#000000"> lfsToolKitGlobals</text>
</g>
<!-- Node14&#45;&gt;Node1 -->
<g id="edge19" class="edge">
<title>Node14&#45;&gt;Node1</title>
<path fill="none" stroke="#9a32cd" stroke-dasharray="5,2" d="M772.6981,-120.9312C808.725,-117.2831 851.0294,-112.9994 883.4092,-109.7206"/>
<polygon fill="#9a32cd" stroke="#9a32cd" points="772.3131,-117.4522 762.7166,-121.9419 773.0184,-124.4166 772.3131,-117.4522"/>
<text text-anchor="middle" x="823.1245" y="-122.5" font-family="Helvetica,sans-Serif" font-size="10.00" fill="#000000"> mainMenuWindow</text>
</g>
<!-- Node15 -->
<g id="node15" class="node">
<title>Node15</title>
<g id="a_node15"><a xlink:href="structmenu_struct.xhtml" target="_top" xlink:title=" ">
<polygon fill="none" stroke="#000000" points="664.391,-.5 664.391,-20.5 731.512,-20.5 731.512,-.5 664.391,-.5"/>
<text text-anchor="middle" x="697.9515" y="-7.5" font-family="Helvetica,sans-Serif" font-size="10.00" fill="#000000">menuStruct</text>
</a>
</g>
</g>
<!-- Node15&#45;&gt;Node1 -->
<g id="edge22" class="edge">
<title>Node15&#45;&gt;Node1</title>
<path fill="none" stroke="#9a32cd" stroke-dasharray="5,2" d="M741.4273,-20.4119C775.9539,-29.0619 825.0105,-43.1086 865.627,-61.5 886.0147,-70.7317 907.6488,-84.9476 921.2247,-94.4788"/>
<polygon fill="#9a32cd" stroke="#9a32cd" points="742.1959,-16.9967 731.6496,-18.0091 740.5254,-23.7944 742.1959,-16.9967"/>
<text text-anchor="middle" x="823.1245" y="-64.5" font-family="Helvetica,sans-Serif" font-size="10.00" fill="#000000"> mainMenu</text>
</g>
<!-- Node15&#45;&gt;Node15 -->
<g id="edge24" class="edge">
<title>Node15&#45;&gt;Node15</title>
<path fill="none" stroke="#9a32cd" stroke-dasharray="5,2" d="M675.0424,-30.4109C676.6921,-35.3307 684.3285,-39 697.9515,-39 719.7484,-39 726.2193,-29.6067 717.3643,-20.7271"/>
<polygon fill="#9a32cd" stroke="#9a32cd" points="678.4348,-31.3214 678.5387,-20.7271 671.8507,-28.9443 678.4348,-31.3214"/>
<text text-anchor="middle" x="697.9515" y="-42" font-family="Helvetica,sans-Serif" font-size="10.00" fill="#000000"> subMenus</text>
</g>
<!-- Node16 -->
<g id="node16" class="node">
<title>Node16</title>
<g id="a_node16"><a xlink:href="unionmenu_struct_1_1image_data.xhtml" target="_top" xlink:title=" ">
<polygon fill="none" stroke="#000000" points="392.346,-.5 392.346,-20.5 513.366,-20.5 513.366,-.5 392.346,-.5"/>
<text text-anchor="middle" x="452.856" y="-7.5" font-family="Helvetica,sans-Serif" font-size="10.00" fill="#000000">menuStruct::imageData</text>
</a>
</g>
</g>
<!-- Node16&#45;&gt;Node15 -->
<g id="edge23" class="edge">
<title>Node16&#45;&gt;Node15</title>
<path fill="none" stroke="#9a32cd" stroke-dasharray="5,2" d="M523.6937,-10.5C569.851,-10.5 627.9936,-10.5 664.0711,-10.5"/>
<polygon fill="#9a32cd" stroke="#9a32cd" points="523.4415,-7.0001 513.4414,-10.5 523.4414,-14.0001 523.4415,-7.0001"/>
<text text-anchor="middle" x="573.3235" y="-13.5" font-family="Helvetica,sans-Serif" font-size="10.00" fill="#000000"> data</text>
</g>
</g>
</svg>
