<?xml version="1.0" encoding="UTF-8" standalone="no"?>
<!DOCTYPE svg PUBLIC "-//W3C//DTD SVG 1.1//EN"
 "http://www.w3.org/Graphics/SVG/1.1/DTD/svg11.dtd">
<!-- Generated by graphviz version 2.40.1 (20161225.0304)
 -->
<!-- Title: LFSTK_windowClass::LFSTK_setFontString Pages: 1 -->
<svg width="770pt" height="194pt"
 viewBox="0.00 0.00 770.37 194.00" xmlns="http://www.w3.org/2000/svg" xmlns:xlink="http://www.w3.org/1999/xlink">
<g id="graph0" class="graph" transform="scale(1 1) rotate(0) translate(4 190)">
<title>LFSTK_windowClass::LFSTK_setFontString</title>
<!-- Node1 -->
<g id="node1" class="node">
<title>Node1</title>
<g id="a_node1"><a xlink:title=" ">
<polygon fill="#bfbfbf" stroke="#000000" points="645.804,-76.5 645.804,-108.5 762.367,-108.5 762.367,-76.5 645.804,-76.5"/>
<text text-anchor="start" x="653.804" y="-95.5" font-family="Helvetica,sans-Serif" font-size="10.00" fill="#000000">LFSTK_windowClass::</text>
<text text-anchor="middle" x="704.0855" y="-83.5" font-family="Helvetica,sans-Serif" font-size="10.00" fill="#000000">LFSTK_setFontString</text>
</a>
</g>
</g>
<!-- Node2 -->
<g id="node2" class="node">
<title>Node2</title>
<g id="a_node2"><a xlink:href="class_l_f_s_t_k__window_class_aa1cdaa019a010bb17387dd39b6165303.xhtml#aa1cdaa019a010bb17387dd39b6165303" target="_top" xlink:title=" ">
<polygon fill="none" stroke="#000000" points="493.241,-76.5 493.241,-108.5 609.804,-108.5 609.804,-76.5 493.241,-76.5"/>
<text text-anchor="start" x="501.241" y="-95.5" font-family="Helvetica,sans-Serif" font-size="10.00" fill="#000000">LFSTK_windowClass::</text>
<text text-anchor="middle" x="551.5225" y="-83.5" font-family="Helvetica,sans-Serif" font-size="10.00" fill="#000000">loadGlobalColours</text>
</a>
</g>
</g>
<!-- Node1&#45;&gt;Node2 -->
<g id="edge1" class="edge">
<title>Node1&#45;&gt;Node2</title>
<path fill="none" stroke="#191970" d="M635.2893,-92.5C626.8141,-92.5 618.2145,-92.5 609.9143,-92.5"/>
<polygon fill="#191970" stroke="#191970" points="635.537,-96.0001 645.537,-92.5 635.5369,-89.0001 635.537,-96.0001"/>
</g>
<!-- Node5 -->
<g id="node5" class="node">
<title>Node5</title>
<g id="a_node5"><a xlink:href="class_l_f_s_t_k__tool_window_class_a230084a0461e204e39cea42ad1f10301.xhtml#a230084a0461e204e39cea42ad1f10301" target="_top" xlink:title=" ">
<polygon fill="none" stroke="#000000" points="170.899,-153.5 170.899,-185.5 304.678,-185.5 304.678,-153.5 170.899,-153.5"/>
<text text-anchor="start" x="178.899" y="-172.5" font-family="Helvetica,sans-Serif" font-size="10.00" fill="#000000">LFSTK_toolWindowClass</text>
<text text-anchor="middle" x="237.7885" y="-160.5" font-family="Helvetica,sans-Serif" font-size="10.00" fill="#000000">::windowClassInitCommon</text>
</a>
</g>
</g>
<!-- Node1&#45;&gt;Node5 -->
<g id="edge11" class="edge">
<title>Node1&#45;&gt;Node5</title>
<path fill="none" stroke="#191970" d="M639.6363,-111.1953C629.6876,-113.8135 619.4998,-116.3426 609.804,-118.5 504.4899,-141.9332 379.8627,-156.383 304.9089,-163.671"/>
<polygon fill="#191970" stroke="#191970" points="640.725,-114.5271 649.4782,-108.5577 638.913,-107.7656 640.725,-114.5271"/>
</g>
<!-- Node7 -->
<g id="node7" class="node">
<title>Node7</title>
<g id="a_node7"><a xlink:href="class_l_f_s_t_k__window_class_a7d01ee5bb6c3fef9aa9b55323c04f90c.xhtml#a7d01ee5bb6c3fef9aa9b55323c04f90c" target="_top" xlink:title=" ">
<polygon fill="none" stroke="#000000" points="173.678,-.5 173.678,-32.5 301.899,-32.5 301.899,-.5 173.678,-.5"/>
<text text-anchor="start" x="181.678" y="-19.5" font-family="Helvetica,sans-Serif" font-size="10.00" fill="#000000">LFSTK_windowClass::</text>
<text text-anchor="middle" x="237.7885" y="-7.5" font-family="Helvetica,sans-Serif" font-size="10.00" fill="#000000">windowClassInitCommon</text>
</a>
</g>
</g>
<!-- Node1&#45;&gt;Node7 -->
<g id="edge12" class="edge">
<title>Node1&#45;&gt;Node7</title>
<path fill="none" stroke="#191970" d="M637.1102,-73.9449C627.9654,-71.6447 618.6751,-69.4279 609.804,-67.5 503.1013,-44.3107 376.7676,-29.6334 302.1718,-22.2569"/>
<polygon fill="#191970" stroke="#191970" points="636.3938,-77.3743 646.9494,-76.4637 638.1299,-70.593 636.3938,-77.3743"/>
</g>
<!-- Node3 -->
<g id="node3" class="node">
<title>Node3</title>
<g id="a_node3"><a xlink:href="class_l_f_s_t_k__window_class_a36491159cf4fdc3c5d0909b2195af9ab.xhtml#a36491159cf4fdc3c5d0909b2195af9ab" target="_top" xlink:title=" ">
<polygon fill="none" stroke="#000000" points="340.678,-102.5 340.678,-134.5 457.241,-134.5 457.241,-102.5 340.678,-102.5"/>
<text text-anchor="start" x="348.678" y="-121.5" font-family="Helvetica,sans-Serif" font-size="10.00" fill="#000000">LFSTK_windowClass::</text>
<text text-anchor="middle" x="398.9595" y="-109.5" font-family="Helvetica,sans-Serif" font-size="10.00" fill="#000000">initWindow</text>
</a>
</g>
</g>
<!-- Node2&#45;&gt;Node3 -->
<g id="edge2" class="edge">
<title>Node2&#45;&gt;Node3</title>
<path fill="none" stroke="#191970" d="M483.0057,-104.1767C474.4402,-105.6365 465.7427,-107.1187 457.3513,-108.5488"/>
<polygon fill="#191970" stroke="#191970" points="483.7041,-107.6083 492.974,-102.4779 482.5281,-100.7077 483.7041,-107.6083"/>
</g>
<!-- Node9 -->
<g id="node9" class="node">
<title>Node9</title>
<g id="a_node9"><a xlink:href="class_l_f_s_t_k__window_class_a22d62c1b464c98923d43cd3851362856.xhtml#a22d62c1b464c98923d43cd3851362856" target="_top" xlink:title=" ">
<polygon fill="none" stroke="#000000" points="340.678,-51.5 340.678,-83.5 457.241,-83.5 457.241,-51.5 340.678,-51.5"/>
<text text-anchor="start" x="348.678" y="-70.5" font-family="Helvetica,sans-Serif" font-size="10.00" fill="#000000">LFSTK_windowClass::</text>
<text text-anchor="middle" x="398.9595" y="-58.5" font-family="Helvetica,sans-Serif" font-size="10.00" fill="#000000">LFSTK_reloadGlobals</text>
</a>
</g>
</g>
<!-- Node2&#45;&gt;Node9 -->
<g id="edge8" class="edge">
<title>Node2&#45;&gt;Node9</title>
<path fill="none" stroke="#191970" d="M483.0057,-81.2724C474.4402,-79.8688 465.7427,-78.4435 457.3513,-77.0685"/>
<polygon fill="#191970" stroke="#191970" points="482.5396,-84.7426 492.974,-82.9058 483.6716,-77.8347 482.5396,-84.7426"/>
</g>
<!-- Node4 -->
<g id="node4" class="node">
<title>Node4</title>
<g id="a_node4"><a xlink:href="class_l_f_s_t_k__window_class_a66ca01b66ccc729d2cb8bad8ea5cc709.xhtml#a66ca01b66ccc729d2cb8bad8ea5cc709" target="_top" xlink:title=" ">
<polygon fill="none" stroke="#000000" points="179.507,-102.5 179.507,-134.5 296.07,-134.5 296.07,-102.5 179.507,-102.5"/>
<text text-anchor="start" x="187.507" y="-121.5" font-family="Helvetica,sans-Serif" font-size="10.00" fill="#000000">LFSTK_windowClass::</text>
<text text-anchor="middle" x="237.7885" y="-109.5" font-family="Helvetica,sans-Serif" font-size="10.00" fill="#000000">LFSTK_windowClass</text>
</a>
</g>
</g>
<!-- Node3&#45;&gt;Node4 -->
<g id="edge3" class="edge">
<title>Node3&#45;&gt;Node4</title>
<path fill="none" stroke="#191970" d="M330.051,-118.5C318.7479,-118.5 307.1317,-118.5 296.1173,-118.5"/>
<polygon fill="#191970" stroke="#191970" points="330.3172,-122.0001 340.3171,-118.5 330.3171,-115.0001 330.3172,-122.0001"/>
</g>
<!-- Node3&#45;&gt;Node5 -->
<g id="edge4" class="edge">
<title>Node3&#45;&gt;Node5</title>
<path fill="none" stroke="#191970" d="M337.9684,-137.7997C321.6359,-142.9678 304.1602,-148.4977 288.4523,-153.4683"/>
<polygon fill="#191970" stroke="#191970" points="339.4859,-140.9906 347.964,-134.6367 337.374,-134.3168 339.4859,-140.9906"/>
</g>
<!-- Node3&#45;&gt;Node7 -->
<g id="edge6" class="edge">
<title>Node3&#45;&gt;Node7</title>
<path fill="none" stroke="#191970" d="M345.4806,-97.1054C343.8192,-95.9556 342.2124,-94.7542 340.678,-93.5 318.9139,-75.711 326.8588,-58.7667 304.678,-41.5 300.3736,-38.1492 295.5729,-35.2118 290.5736,-32.6445"/>
<polygon fill="#191970" stroke="#191970" points="343.8063,-100.1844 354.1603,-102.4308 347.467,-94.2179 343.8063,-100.1844"/>
</g>
<!-- Node6 -->
<g id="node6" class="node">
<title>Node6</title>
<g id="a_node6"><a xlink:href="class_l_f_s_t_k__tool_window_class_ad9d85cbc29eafc7793e12bcc9c268bf5.xhtml#ad9d85cbc29eafc7793e12bcc9c268bf5" target="_top" xlink:title=" ">
<polygon fill="none" stroke="#000000" points="0,-153.5 0,-185.5 134.899,-185.5 134.899,-153.5 0,-153.5"/>
<text text-anchor="start" x="8" y="-172.5" font-family="Helvetica,sans-Serif" font-size="10.00" fill="#000000">LFSTK_toolWindowClass</text>
<text text-anchor="middle" x="67.4495" y="-160.5" font-family="Helvetica,sans-Serif" font-size="10.00" fill="#000000">::LFSTK_toolWindowClass</text>
</a>
</g>
</g>
<!-- Node5&#45;&gt;Node6 -->
<g id="edge5" class="edge">
<title>Node5&#45;&gt;Node6</title>
<path fill="none" stroke="#191970" d="M160.2915,-169.5C151.8912,-169.5 143.3905,-169.5 135.1199,-169.5"/>
<polygon fill="#191970" stroke="#191970" points="160.4661,-173.0001 170.466,-169.5 160.466,-166.0001 160.4661,-173.0001"/>
</g>
<!-- Node8 -->
<g id="node8" class="node">
<title>Node8</title>
<g id="a_node8"><a xlink:href="class_l_f_s_t_k__window_class_afcd2c5e43ab2a1110d5b4e54b24ce47a.xhtml#afcd2c5e43ab2a1110d5b4e54b24ce47a" target="_top" xlink:title=" ">
<polygon fill="none" stroke="#000000" points="9.168,-.5 9.168,-32.5 125.731,-32.5 125.731,-.5 9.168,-.5"/>
<text text-anchor="start" x="17.168" y="-19.5" font-family="Helvetica,sans-Serif" font-size="10.00" fill="#000000">LFSTK_windowClass::</text>
<text text-anchor="middle" x="67.4495" y="-7.5" font-family="Helvetica,sans-Serif" font-size="10.00" fill="#000000">LFSTK_windowClass</text>
</a>
</g>
</g>
<!-- Node7&#45;&gt;Node8 -->
<g id="edge7" class="edge">
<title>Node7&#45;&gt;Node8</title>
<path fill="none" stroke="#191970" d="M163.3825,-16.5C150.7912,-16.5 137.8809,-16.5 125.7764,-16.5"/>
<polygon fill="#191970" stroke="#191970" points="163.3907,-20.0001 173.3906,-16.5 163.3906,-13.0001 163.3907,-20.0001"/>
</g>
<!-- Node10 -->
<g id="node10" class="node">
<title>Node10</title>
<g id="a_node10"><a xlink:href="class_l_f_s_t_k__font_dialog_class_af866eb2b1ba8178c9cf3e751716fcc8e.xhtml#af866eb2b1ba8178c9cf3e751716fcc8e" target="_top" xlink:title=" ">
<polygon fill="none" stroke="#000000" points="176.448,-51.5 176.448,-83.5 299.129,-83.5 299.129,-51.5 176.448,-51.5"/>
<text text-anchor="start" x="184.448" y="-70.5" font-family="Helvetica,sans-Serif" font-size="10.00" fill="#000000">LFSTK_fontDialogClass</text>
<text text-anchor="middle" x="237.7885" y="-58.5" font-family="Helvetica,sans-Serif" font-size="10.00" fill="#000000">::buildDialog</text>
</a>
</g>
</g>
<!-- Node9&#45;&gt;Node10 -->
<g id="edge9" class="edge">
<title>Node9&#45;&gt;Node10</title>
<path fill="none" stroke="#191970" d="M330.1894,-67.5C319.9497,-67.5 309.4499,-67.5 299.3707,-67.5"/>
<polygon fill="#191970" stroke="#191970" points="330.3172,-71.0001 340.3171,-67.5 330.3171,-64.0001 330.3172,-71.0001"/>
</g>
<!-- Node11 -->
<g id="node11" class="node">
<title>Node11</title>
<g id="a_node11"><a xlink:href="class_l_f_s_t_k__font_dialog_class_ab7b6a4bca99713646ab6ac77dc34827c.xhtml#ab7b6a4bca99713646ab6ac77dc34827c" target="_top" xlink:title=" ">
<polygon fill="none" stroke="#000000" points="3.33,-51.5 3.33,-83.5 131.569,-83.5 131.569,-51.5 3.33,-51.5"/>
<text text-anchor="start" x="11.33" y="-70.5" font-family="Helvetica,sans-Serif" font-size="10.00" fill="#000000">LFSTK_fontDialogClass</text>
<text text-anchor="middle" x="67.4495" y="-58.5" font-family="Helvetica,sans-Serif" font-size="10.00" fill="#000000">::LFSTK_fontDialogClass</text>
</a>
</g>
</g>
<!-- Node10&#45;&gt;Node11 -->
<g id="edge10" class="edge">
<title>Node10&#45;&gt;Node11</title>
<path fill="none" stroke="#191970" d="M165.9679,-67.5C154.6002,-67.5 142.9071,-67.5 131.726,-67.5"/>
<polygon fill="#191970" stroke="#191970" points="166.2922,-71.0001 176.2922,-67.5 166.2922,-64.0001 166.2922,-71.0001"/>
</g>
</g>
</svg>
