<?xml version="1.0" encoding="UTF-8" standalone="no"?>
<!DOCTYPE svg PUBLIC "-//W3C//DTD SVG 1.1//EN"
 "http://www.w3.org/Graphics/SVG/1.1/DTD/svg11.dtd">
<!-- Generated by graphviz version 2.40.1 (20161225.0304)
 -->
<!-- Title: LFSTK_gadgetClass::LFSTK_gadgetOnMonitor Pages: 1 -->
<svg width="303pt" height="143pt"
 viewBox="0.00 0.00 303.27 143.00" xmlns="http://www.w3.org/2000/svg" xmlns:xlink="http://www.w3.org/1999/xlink">
<g id="graph0" class="graph" transform="scale(1 1) rotate(0) translate(4 139)">
<title>LFSTK_gadgetClass::LFSTK_gadgetOnMonitor</title>
<!-- Node1 -->
<g id="node1" class="node">
<title>Node1</title>
<g id="a_node1"><a xlink:title=" ">
<polygon fill="#bfbfbf" stroke="#000000" points="0,-51.5 0,-83.5 129.919,-83.5 129.919,-51.5 0,-51.5"/>
<text text-anchor="start" x="8" y="-70.5" font-family="Helvetica,sans-Serif" font-size="10.00" fill="#000000">LFSTK_gadgetClass::</text>
<text text-anchor="middle" x="64.9595" y="-58.5" font-family="Helvetica,sans-Serif" font-size="10.00" fill="#000000">LFSTK_gadgetOnMonitor</text>
</a>
</g>
</g>
<!-- Node2 -->
<g id="node2" class="node">
<title>Node2</title>
<g id="a_node2"><a xlink:href="class_l_f_s_t_k__window_class_a67d6a97176085afb3e3f4d03369b7f74.xhtml#a67d6a97176085afb3e3f4d03369b7f74" target="_top" xlink:title=" ">
<polygon fill="none" stroke="#000000" points="167.305,-102.5 167.305,-134.5 293.884,-134.5 293.884,-102.5 167.305,-102.5"/>
<text text-anchor="start" x="175.305" y="-121.5" font-family="Helvetica,sans-Serif" font-size="10.00" fill="#000000">LFSTK_windowClass::</text>
<text text-anchor="middle" x="230.5945" y="-109.5" font-family="Helvetica,sans-Serif" font-size="10.00" fill="#000000">LFSTK_getMonitorCount</text>
</a>
</g>
</g>
<!-- Node1&#45;&gt;Node2 -->
<g id="edge1" class="edge">
<title>Node1&#45;&gt;Node2</title>
<path fill="none" stroke="#191970" d="M117.3674,-83.6367C133.6884,-88.662 151.839,-94.2507 168.7424,-99.4554"/>
<polygon fill="#191970" stroke="#191970" points="167.9403,-102.8705 178.5275,-102.4683 170.0002,-96.1804 167.9403,-102.8705"/>
</g>
<!-- Node3 -->
<g id="node3" class="node">
<title>Node3</title>
<g id="a_node3"><a xlink:href="class_l_f_s_t_k__window_class_a8f4d5486a22776e7bf4f5c970b9a4d27.xhtml#a8f4d5486a22776e7bf4f5c970b9a4d27" target="_top" xlink:title=" ">
<polygon fill="none" stroke="#000000" points="172.313,-51.5 172.313,-83.5 288.876,-83.5 288.876,-51.5 172.313,-51.5"/>
<text text-anchor="start" x="180.313" y="-70.5" font-family="Helvetica,sans-Serif" font-size="10.00" fill="#000000">LFSTK_windowClass::</text>
<text text-anchor="middle" x="230.5945" y="-58.5" font-family="Helvetica,sans-Serif" font-size="10.00" fill="#000000">LFSTK_getMonitors</text>
</a>
</g>
</g>
<!-- Node1&#45;&gt;Node3 -->
<g id="edge2" class="edge">
<title>Node1&#45;&gt;Node3</title>
<path fill="none" stroke="#191970" d="M129.9474,-67.5C140.5245,-67.5 151.5088,-67.5 162.1653,-67.5"/>
<polygon fill="#191970" stroke="#191970" points="162.2579,-71.0001 172.2579,-67.5 162.2578,-64.0001 162.2579,-71.0001"/>
</g>
<!-- Node4 -->
<g id="node4" class="node">
<title>Node4</title>
<g id="a_node4"><a xlink:href="class_l_f_s_t_k__window_class_a271b99838780d293754e2b1459c5c8e6.xhtml#a271b99838780d293754e2b1459c5c8e6" target="_top" xlink:title=" ">
<polygon fill="none" stroke="#000000" points="165.919,-.5 165.919,-32.5 295.27,-32.5 295.27,-.5 165.919,-.5"/>
<text text-anchor="start" x="173.919" y="-19.5" font-family="Helvetica,sans-Serif" font-size="10.00" fill="#000000">LFSTK_windowClass::</text>
<text text-anchor="middle" x="230.5945" y="-7.5" font-family="Helvetica,sans-Serif" font-size="10.00" fill="#000000">LFSTK_getWindowGeom</text>
</a>
</g>
</g>
<!-- Node1&#45;&gt;Node4 -->
<g id="edge3" class="edge">
<title>Node1&#45;&gt;Node4</title>
<path fill="none" stroke="#191970" d="M117.3674,-51.3633C133.6884,-46.338 151.839,-40.7493 168.7424,-35.5446"/>
<polygon fill="#191970" stroke="#191970" points="170.0002,-38.8196 178.5275,-32.5317 167.9403,-32.1295 170.0002,-38.8196"/>
</g>
</g>
</svg>
