<?xml version="1.0" encoding="UTF-8" standalone="no"?>
<!DOCTYPE svg PUBLIC "-//W3C//DTD SVG 1.1//EN"
 "http://www.w3.org/Graphics/SVG/1.1/DTD/svg11.dtd">
<!-- Generated by graphviz version 2.40.1 (20161225.0304)
 -->
<!-- Title: LFSTK_gadgetClass::LFSTK_setImageFromPath Pages: 1 -->
<svg width="510pt" height="104pt"
 viewBox="0.00 0.00 509.73 104.00" xmlns="http://www.w3.org/2000/svg" xmlns:xlink="http://www.w3.org/1999/xlink">
<g id="graph0" class="graph" transform="scale(1 1) rotate(0) translate(4 100)">
<title>LFSTK_gadgetClass::LFSTK_setImageFromPath</title>
<!-- Node1 -->
<g id="node1" class="node">
<title>Node1</title>
<g id="a_node1"><a xlink:title=" ">
<polygon fill="#bfbfbf" stroke="#000000" points="0,-28.5 0,-60.5 137.689,-60.5 137.689,-28.5 0,-28.5"/>
<text text-anchor="start" x="8" y="-47.5" font-family="Helvetica,sans-Serif" font-size="10.00" fill="#000000">LFSTK_gadgetClass::</text>
<text text-anchor="middle" x="68.8445" y="-35.5" font-family="Helvetica,sans-Serif" font-size="10.00" fill="#000000">LFSTK_setImageFromPath</text>
</a>
</g>
</g>
<!-- Node2 -->
<g id="node2" class="node">
<title>Node2</title>
<g id="a_node2"><a xlink:href="class_l_f_s_t_k__lib_ad794f7ab3a4ca5a03adbb0472fa93788.xhtml#ad794f7ab3a4ca5a03adbb0472fa93788" target="_top" xlink:title=" ">
<polygon fill="none" stroke="#000000" points="173.689,-51.5 173.689,-95.5 300.258,-95.5 300.258,-51.5 173.689,-51.5"/>
<text text-anchor="start" x="181.689" y="-82.5" font-family="Helvetica,sans-Serif" font-size="10.00" fill="#000000">LFSTK_lib::LFSTK_cairo</text>
<text text-anchor="start" x="181.689" y="-70.5" font-family="Helvetica,sans-Serif" font-size="10.00" fill="#000000">_image_surface_create</text>
<text text-anchor="middle" x="236.9735" y="-58.5" font-family="Helvetica,sans-Serif" font-size="10.00" fill="#000000">_from_jpeg</text>
</a>
</g>
</g>
<!-- Node1&#45;&gt;Node2 -->
<g id="edge1" class="edge">
<title>Node1&#45;&gt;Node2</title>
<path fill="none" stroke="#191970" d="M137.7141,-56.3791C146.2527,-57.8519 155.0077,-59.362 163.6107,-60.8459"/>
<polygon fill="#191970" stroke="#191970" points="163.1685,-64.3212 173.618,-62.572 164.3584,-57.4231 163.1685,-64.3212"/>
</g>
<!-- Node4 -->
<g id="node4" class="node">
<title>Node4</title>
<g id="a_node4"><a xlink:href="class_l_f_s_t_k__gadget_class_a23bc2dc7b8200df4dc74f1f68460eca2.xhtml#a23bc2dc7b8200df4dc74f1f68460eca2" target="_top" xlink:title=" ">
<polygon fill="none" stroke="#000000" points="180.072,-.5 180.072,-32.5 293.875,-32.5 293.875,-.5 180.072,-.5"/>
<text text-anchor="start" x="188.072" y="-19.5" font-family="Helvetica,sans-Serif" font-size="10.00" fill="#000000">LFSTK_gadgetClass::</text>
<text text-anchor="middle" x="236.9735" y="-7.5" font-family="Helvetica,sans-Serif" font-size="10.00" fill="#000000">LFSTK_getTextWidth</text>
</a>
</g>
</g>
<!-- Node1&#45;&gt;Node4 -->
<g id="edge3" class="edge">
<title>Node1&#45;&gt;Node4</title>
<path fill="none" stroke="#191970" d="M137.7141,-33.0305C148.3661,-31.2566 159.3549,-29.4265 169.9652,-27.6595"/>
<polygon fill="#191970" stroke="#191970" points="170.7095,-31.0838 179.9986,-25.9885 169.5595,-24.1789 170.7095,-31.0838"/>
</g>
<!-- Node3 -->
<g id="node3" class="node">
<title>Node3</title>
<g id="a_node3"><a xlink:href="class_l_f_s_t_k__lib_a6beac3954823730f63c32a97949db52a.xhtml#a6beac3954823730f63c32a97949db52a" target="_top" xlink:title=" ">
<polygon fill="none" stroke="#000000" points="336.258,-57.5 336.258,-89.5 501.732,-89.5 501.732,-57.5 336.258,-57.5"/>
<text text-anchor="start" x="344.258" y="-76.5" font-family="Helvetica,sans-Serif" font-size="10.00" fill="#000000">LFSTK_lib::cairo_image</text>
<text text-anchor="middle" x="418.995" y="-64.5" font-family="Helvetica,sans-Serif" font-size="10.00" fill="#000000">_surface_create_from_jpeg_mem</text>
</a>
</g>
</g>
<!-- Node2&#45;&gt;Node3 -->
<g id="edge2" class="edge">
<title>Node2&#45;&gt;Node3</title>
<path fill="none" stroke="#191970" d="M300.3803,-73.5C308.6396,-73.5 317.2339,-73.5 325.8537,-73.5"/>
<polygon fill="#191970" stroke="#191970" points="325.9658,-77.0001 335.9658,-73.5 325.9657,-70.0001 325.9658,-77.0001"/>
</g>
</g>
</svg>
