<?xml version="1.0" encoding="UTF-8" standalone="no"?>
<!DOCTYPE svg PUBLIC "-//W3C//DTD SVG 1.1//EN"
 "http://www.w3.org/Graphics/SVG/1.1/DTD/svg11.dtd">
<!-- Generated by graphviz version 2.40.1 (20161225.0304)
 -->
<!-- Title: Graph Legend Pages: 1 -->
<svg width="511pt" height="164pt"
 viewBox="0.00 0.00 510.67 164.00" xmlns="http://www.w3.org/2000/svg" xmlns:xlink="http://www.w3.org/1999/xlink">
<g id="graph0" class="graph" transform="scale(1 1) rotate(0) translate(4 160)">
<title>Graph Legend</title>
<!-- Node9 -->
<g id="node1" class="node">
<title>Node9</title>
<polygon fill="#bfbfbf" stroke="#000000" points="293.4071,-20 238.6049,-20 238.6049,0 293.4071,0 293.4071,-20"/>
<text text-anchor="middle" x="266.006" y="-7" font-family="Helvetica,sans-Serif" font-size="10.00" fill="#000000">Inherited</text>
</g>
<!-- Node10 -->
<g id="node2" class="node">
<title>Node10</title>
<g id="a_node2"><a xlink:href="$classPublicBase.xhtml" xlink:title="PublicBase">
<polygon fill="none" stroke="#000000" points="66.018,-88 -.006,-88 -.006,-68 66.018,-68 66.018,-88"/>
<text text-anchor="middle" x="33.006" y="-75" font-family="Helvetica,sans-Serif" font-size="10.00" fill="#000000">PublicBase</text>
</a>
</g>
</g>
<!-- Node10&#45;&gt;Node9 -->
<g id="edge1" class="edge">
<title>Node10&#45;&gt;Node9</title>
<path fill="none" stroke="#191970" d="M76.0756,-65.4303C123.5251,-51.5824 198.411,-29.7273 238.5067,-18.0256"/>
<polygon fill="#191970" stroke="#191970" points="75.0082,-62.0958 66.3892,-68.2573 76.9693,-68.8154 75.0082,-62.0958"/>
</g>
<!-- Node11 -->
<g id="node3" class="node">
<title>Node11</title>
<g id="a_node3"><a xlink:href="$classTruncated.xhtml" xlink:title="Truncated">
<polygon fill="none" stroke="#ff0000" points="63.518,-156 2.494,-156 2.494,-136 63.518,-136 63.518,-156"/>
<text text-anchor="middle" x="33.006" y="-143" font-family="Helvetica,sans-Serif" font-size="10.00" fill="#000000">Truncated</text>
</a>
</g>
</g>
<!-- Node11&#45;&gt;Node10 -->
<g id="edge2" class="edge">
<title>Node11&#45;&gt;Node10</title>
<path fill="none" stroke="#191970" d="M33.006,-125.6329C33.006,-113.2328 33.006,-97.9332 33.006,-88.0748"/>
<polygon fill="#191970" stroke="#191970" points="29.5061,-125.9663 33.006,-135.9664 36.5061,-125.9664 29.5061,-125.9663"/>
</g>
<!-- Node13 -->
<g id="node4" class="node">
<title>Node13</title>
<g id="a_node4"><a xlink:href="$classProtectedBase.xhtml" xlink:title="ProtectedBase">
<polygon fill="none" stroke="#000000" points="165.5861,-88 84.4259,-88 84.4259,-68 165.5861,-68 165.5861,-88"/>
<text text-anchor="middle" x="125.006" y="-75" font-family="Helvetica,sans-Serif" font-size="10.00" fill="#000000">ProtectedBase</text>
</a>
</g>
</g>
<!-- Node13&#45;&gt;Node9 -->
<g id="edge3" class="edge">
<title>Node13&#45;&gt;Node9</title>
<path fill="none" stroke="#006400" d="M154.8444,-63.6099C181.9472,-50.539 221.2321,-31.5931 245.1156,-20.0748"/>
<polygon fill="#006400" stroke="#006400" points="153.2979,-60.4699 145.811,-67.9664 156.3387,-66.7749 153.2979,-60.4699"/>
</g>
<!-- Node14 -->
<g id="node5" class="node">
<title>Node14</title>
<g id="a_node5"><a xlink:href="$classPrivateBase.xhtml" xlink:title="PrivateBase">
<polygon fill="none" stroke="#000000" points="253.9071,-88 184.1049,-88 184.1049,-68 253.9071,-68 253.9071,-88"/>
<text text-anchor="middle" x="219.006" y="-75" font-family="Helvetica,sans-Serif" font-size="10.00" fill="#000000">PrivateBase</text>
</a>
</g>
</g>
<!-- Node14&#45;&gt;Node9 -->
<g id="edge4" class="edge">
<title>Node14&#45;&gt;Node9</title>
<path fill="none" stroke="#8b1a1a" d="M231.7878,-59.5072C240.565,-46.8082 251.881,-30.4362 259.0425,-20.0748"/>
<polygon fill="#8b1a1a" stroke="#8b1a1a" points="228.7477,-57.75 225.941,-67.9664 234.5061,-61.7301 228.7477,-57.75"/>
</g>
<!-- Node15 -->
<g id="node6" class="node">
<title>Node15</title>
<polygon fill="none" stroke="#bfbfbf" points="355.8052,-88 272.2068,-88 272.2068,-68 355.8052,-68 355.8052,-88"/>
<text text-anchor="middle" x="314.006" y="-75" font-family="Helvetica,sans-Serif" font-size="10.00" fill="#000000">Undocumented</text>
</g>
<!-- Node15&#45;&gt;Node9 -->
<g id="edge5" class="edge">
<title>Node15&#45;&gt;Node9</title>
<path fill="none" stroke="#191970" d="M300.9522,-59.5072C291.9883,-46.8082 280.4316,-30.4362 273.1176,-20.0748"/>
<polygon fill="#191970" stroke="#191970" points="298.2972,-61.8151 306.9234,-67.9664 304.016,-57.7783 298.2972,-61.8151"/>
</g>
<!-- Node16 -->
<g id="node7" class="node">
<title>Node16</title>
<g id="a_node7"><a xlink:href="$classTempl.xhtml" xlink:title="Templ&lt; int &gt;">
<polygon fill="none" stroke="#000000" points="445.5753,-88 374.4367,-88 374.4367,-68 445.5753,-68 445.5753,-88"/>
<text text-anchor="middle" x="410.006" y="-75" font-family="Helvetica,sans-Serif" font-size="10.00" fill="#000000">Templ&lt; int &gt;</text>
</a>
</g>
</g>
<!-- Node16&#45;&gt;Node9 -->
<g id="edge6" class="edge">
<title>Node16&#45;&gt;Node9</title>
<path fill="none" stroke="#191970" d="M379.5328,-63.6099C351.8533,-50.539 311.7325,-31.5931 287.3409,-20.0748"/>
<polygon fill="#191970" stroke="#191970" points="378.2213,-66.8611 388.7583,-67.9664 381.2103,-60.5314 378.2213,-66.8611"/>
</g>
<!-- Node17 -->
<g id="node8" class="node">
<title>Node17</title>
<g id="a_node8"><a xlink:href="$classTempl.xhtml" xlink:title="Templ&lt; T &gt;">
<polygon fill="none" stroke="#000000" points="443.6261,-156 376.3859,-156 376.3859,-136 443.6261,-136 443.6261,-156"/>
<text text-anchor="middle" x="410.006" y="-143" font-family="Helvetica,sans-Serif" font-size="10.00" fill="#000000">Templ&lt; T &gt;</text>
</a>
</g>
</g>
<!-- Node17&#45;&gt;Node16 -->
<g id="edge7" class="edge">
<title>Node17&#45;&gt;Node16</title>
<path fill="none" stroke="#ffa500" stroke-dasharray="5,2" d="M410.006,-125.6329C410.006,-113.2328 410.006,-97.9332 410.006,-88.0748"/>
<polygon fill="#ffa500" stroke="#ffa500" points="406.5061,-125.9663 410.006,-135.9664 413.5061,-125.9664 406.5061,-125.9663"/>
<text text-anchor="middle" x="423.9025" y="-109" font-family="Helvetica,sans-Serif" font-size="10.00" fill="#000000">&lt; int &gt;</text>
</g>
<!-- Node18 -->
<g id="node9" class="node">
<title>Node18</title>
<g id="a_node9"><a xlink:href="$classUsed.xhtml" xlink:title="Used">
<polygon fill="none" stroke="#000000" points="502.8445,-88 463.1675,-88 463.1675,-68 502.8445,-68 502.8445,-88"/>
<text text-anchor="middle" x="483.006" y="-75" font-family="Helvetica,sans-Serif" font-size="10.00" fill="#000000">Used</text>
</a>
</g>
</g>
<!-- Node18&#45;&gt;Node9 -->
<g id="edge8" class="edge">
<title>Node18&#45;&gt;Node9</title>
<path fill="none" stroke="#9a32cd" stroke-dasharray="5,2" d="M453.6022,-67.6196C391.4895,-47.137 328.8071,-28.3955 293.6745,-18.0638"/>
<polygon fill="#9a32cd" stroke="#9a32cd" points="452.5661,-70.9634 463.1595,-70.7868 454.7682,-64.3187 452.5661,-70.9634"/>
<text text-anchor="middle" x="428.287" y="-41" font-family="Helvetica,sans-Serif" font-size="10.00" fill="#000000">m_usedClass</text>
</g>
</g>
</svg>
