<?xml version="1.0" encoding="UTF-8" standalone="no"?>
<!DOCTYPE svg PUBLIC "-//W3C//DTD SVG 1.1//EN"
 "http://www.w3.org/Graphics/SVG/1.1/DTD/svg11.dtd">
<!-- Generated by graphviz version 2.40.1 (20161225.0304)
 -->
<!-- Title: Graphical Class Hierarchy Pages: 1 -->
<svg width="457pt" height="302pt"
 viewBox="0.00 0.00 456.95 302.00" xmlns="http://www.w3.org/2000/svg" xmlns:xlink="http://www.w3.org/1999/xlink">
<g id="graph0" class="graph" transform="scale(1 1) rotate(0) translate(4 298)">
<title>Graphical Class Hierarchy</title>
<!-- Node0 -->
<g id="node1" class="node">
<title>Node0</title>
<g id="a_node1"><a xlink:href="class_l_f_s_t_k__gadget_class.xhtml" target="_top" xlink:title="Base class for LFSToolKit gadgets.">
<polygon fill="none" stroke="#000000" points="0,-136.5 0,-156.5 108.245,-156.5 108.245,-136.5 0,-136.5"/>
<text text-anchor="middle" x="54.1225" y="-143.5" font-family="Helvetica,sans-Serif" font-size="10.00" fill="#000000">LFSTK_gadgetClass</text>
</a>
</g>
</g>
<!-- Node1 -->
<g id="node2" class="node">
<title>Node1</title>
<g id="a_node2"><a xlink:href="class_l_f_s_t_k__button_class.xhtml" target="_top" xlink:title="Basic button class for LFSToolKit.">
<polygon fill="none" stroke="#000000" points="158.417,-273.5 158.417,-293.5 263.882,-293.5 263.882,-273.5 158.417,-273.5"/>
<text text-anchor="middle" x="211.1495" y="-280.5" font-family="Helvetica,sans-Serif" font-size="10.00" fill="#000000">LFSTK_buttonClass</text>
</a>
</g>
</g>
<!-- Node0&#45;&gt;Node1 -->
<g id="edge1" class="edge">
<title>Node0&#45;&gt;Node1</title>
<path fill="none" stroke="#191970" d="M63.7151,-165.7884C77.7722,-192.0648 106.4536,-238.7769 144.245,-264.5 149.5354,-268.1009 155.5028,-271.0252 161.6403,-273.3987"/>
<polygon fill="#191970" stroke="#191970" points="66.7666,-164.0699 59.0551,-156.8047 60.5528,-167.2932 66.7666,-164.0699"/>
</g>
<!-- Node3 -->
<g id="node4" class="node">
<title>Node3</title>
<g id="a_node4"><a xlink:href="class_l_f_s_t_k__font_dialog_class.xhtml" target="_top" xlink:title="Font dialog class for LFSToolKit.">
<polygon fill="none" stroke="#000000" points="149.809,-234.5 149.809,-254.5 272.49,-254.5 272.49,-234.5 149.809,-234.5"/>
<text text-anchor="middle" x="211.1495" y="-241.5" font-family="Helvetica,sans-Serif" font-size="10.00" fill="#000000">LFSTK_fontDialogClass</text>
</a>
</g>
</g>
<!-- Node0&#45;&gt;Node3 -->
<g id="edge3" class="edge">
<title>Node0&#45;&gt;Node3</title>
<path fill="none" stroke="#191970" d="M69.6248,-164.0625C86.3539,-181.9803 114.6058,-209.3767 144.245,-225.5 150.8212,-229.0774 158.1364,-232.0364 165.4468,-234.4668"/>
<polygon fill="#191970" stroke="#191970" points="72.1129,-161.5968 62.7857,-156.5715 66.9433,-166.3165 72.1129,-161.5968"/>
</g>
<!-- Node4 -->
<g id="node5" class="node">
<title>Node4</title>
<g id="a_node5"><a xlink:href="class_l_f_s_t_k__image_class.xhtml" target="_top" xlink:title="Image class for LFSToolKit.">
<polygon fill="none" stroke="#000000" points="158.7015,-195.5 158.7015,-215.5 263.5975,-215.5 263.5975,-195.5 158.7015,-195.5"/>
<text text-anchor="middle" x="211.1495" y="-202.5" font-family="Helvetica,sans-Serif" font-size="10.00" fill="#000000">LFSTK_imageClass</text>
</a>
</g>
</g>
<!-- Node0&#45;&gt;Node4 -->
<g id="edge4" class="edge">
<title>Node0&#45;&gt;Node4</title>
<path fill="none" stroke="#191970" d="M83.6292,-160.8604C101.0227,-169.0051 123.6011,-179.0296 144.245,-186.5 153.2148,-189.7459 163.0198,-192.7978 172.2904,-195.4664"/>
<polygon fill="#191970" stroke="#191970" points="85.0805,-157.6751 74.5448,-156.5572 82.0838,-164.0013 85.0805,-157.6751"/>
</g>
<!-- Node5 -->
<g id="node6" class="node">
<title>Node5</title>
<g id="a_node6"><a xlink:href="class_l_f_s_t_k__label_class.xhtml" target="_top" xlink:title="Label class for LFSToolKit gadgets.">
<polygon fill="none" stroke="#000000" points="161.7565,-156.5 161.7565,-176.5 260.5425,-176.5 260.5425,-156.5 161.7565,-156.5"/>
<text text-anchor="middle" x="211.1495" y="-163.5" font-family="Helvetica,sans-Serif" font-size="10.00" fill="#000000">LFSTK_labelClass</text>
</a>
</g>
</g>
<!-- Node0&#45;&gt;Node5 -->
<g id="edge5" class="edge">
<title>Node0&#45;&gt;Node5</title>
<path fill="none" stroke="#191970" d="M118.8379,-154.7426C133.0852,-156.5572 147.9584,-158.4516 161.5006,-160.1764"/>
<polygon fill="#191970" stroke="#191970" points="118.9643,-151.2305 108.6022,-153.4389 118.0799,-158.1744 118.9643,-151.2305"/>
</g>
<!-- Node6 -->
<g id="node7" class="node">
<title>Node6</title>
<g id="a_node7"><a xlink:href="class_l_f_s_t_k__line_edit_class.xhtml" target="_top" xlink:title="Line edit class for LFSToolKit.">
<polygon fill="none" stroke="#000000" points="155.923,-117.5 155.923,-137.5 266.376,-137.5 266.376,-117.5 155.923,-117.5"/>
<text text-anchor="middle" x="211.1495" y="-124.5" font-family="Helvetica,sans-Serif" font-size="10.00" fill="#000000">LFSTK_lineEditClass</text>
</a>
</g>
</g>
<!-- Node0&#45;&gt;Node6 -->
<g id="edge6" class="edge">
<title>Node0&#45;&gt;Node6</title>
<path fill="none" stroke="#191970" d="M118.7652,-138.6783C131.0271,-137.1947 143.7551,-135.6546 155.7014,-134.2091"/>
<polygon fill="#191970" stroke="#191970" points="118.1094,-135.2321 108.6022,-139.908 118.9503,-142.1814 118.1094,-135.2321"/>
</g>
<!-- Node8 -->
<g id="node9" class="node">
<title>Node8</title>
<g id="a_node9"><a xlink:href="class_l_f_s_t_k__list_gadget_class.xhtml" target="_top" xlink:title="List class for LFSToolKit.">
<polygon fill="none" stroke="#000000" points="149.8085,-78.5 149.8085,-98.5 272.4905,-98.5 272.4905,-78.5 149.8085,-78.5"/>
<text text-anchor="middle" x="211.1495" y="-85.5" font-family="Helvetica,sans-Serif" font-size="10.00" fill="#000000">LFSTK_listGadgetClass</text>
</a>
</g>
</g>
<!-- Node0&#45;&gt;Node8 -->
<g id="edge8" class="edge">
<title>Node0&#45;&gt;Node8</title>
<path fill="none" stroke="#191970" d="M85.6064,-132.2342C102.7634,-124.7125 124.4734,-115.5999 144.245,-108.5 154.0575,-104.9764 164.8277,-101.5631 174.8047,-98.5837"/>
<polygon fill="#191970" stroke="#191970" points="83.8069,-129.2031 76.0798,-136.4518 86.6407,-135.6039 83.8069,-129.2031"/>
</g>
<!-- Node9 -->
<g id="node10" class="node">
<title>Node9</title>
<g id="a_node10"><a xlink:href="class_l_f_s_t_k__scroll_bar_class.xhtml" target="_top" xlink:title="Scrollbar class for LFSToolKit.">
<polygon fill="none" stroke="#000000" points="152.8725,-39.5 152.8725,-59.5 269.4265,-59.5 269.4265,-39.5 152.8725,-39.5"/>
<text text-anchor="middle" x="211.1495" y="-46.5" font-family="Helvetica,sans-Serif" font-size="10.00" fill="#000000">LFSTK_scrollBarClass</text>
</a>
</g>
</g>
<!-- Node0&#45;&gt;Node9 -->
<g id="edge9" class="edge">
<title>Node0&#45;&gt;Node9</title>
<path fill="none" stroke="#191970" d="M70.0299,-129.2025C86.9007,-111.8152 115.0949,-85.3778 144.245,-69.5 151.591,-65.4987 159.8374,-62.2014 167.9653,-59.5193"/>
<polygon fill="#191970" stroke="#191970" points="67.4625,-126.8233 63.1125,-136.4839 72.5375,-131.6445 67.4625,-126.8233"/>
</g>
<!-- Node10 -->
<g id="node11" class="node">
<title>Node10</title>
<g id="a_node11"><a xlink:href="class_l_f_s_t_k__toggle_button_class.xhtml" target="_top" xlink:title="Toglle button class for LFSToolKit.">
<polygon fill="none" stroke="#000000" points="144.245,-.5 144.245,-20.5 278.054,-20.5 278.054,-.5 144.245,-.5"/>
<text text-anchor="middle" x="211.1495" y="-7.5" font-family="Helvetica,sans-Serif" font-size="10.00" fill="#000000">LFSTK_toggleButtonClass</text>
</a>
</g>
</g>
<!-- Node0&#45;&gt;Node10 -->
<g id="edge10" class="edge">
<title>Node0&#45;&gt;Node10</title>
<path fill="none" stroke="#191970" d="M64.0379,-127.272C78.3177,-101.4667 107.0916,-55.9389 144.245,-30.5 150.1468,-26.459 156.882,-23.2183 163.7529,-20.6238"/>
<polygon fill="#191970" stroke="#191970" points="60.7771,-125.9465 59.1317,-136.4128 66.9449,-129.2569 60.7771,-125.9465"/>
</g>
<!-- Node2 -->
<g id="node3" class="node">
<title>Node2</title>
<g id="a_node3"><a xlink:href="class_l_f_s_t_k__menu_item_class.xhtml" target="_top" xlink:title="Menu item class for LFSToolKit.">
<polygon fill="none" stroke="#000000" points="320.4415,-273.5 320.4415,-293.5 442.5645,-293.5 442.5645,-273.5 320.4415,-273.5"/>
<text text-anchor="middle" x="381.503" y="-280.5" font-family="Helvetica,sans-Serif" font-size="10.00" fill="#000000">LFSTK_menuItemClass</text>
</a>
</g>
</g>
<!-- Node1&#45;&gt;Node2 -->
<g id="edge2" class="edge">
<title>Node1&#45;&gt;Node2</title>
<path fill="none" stroke="#191970" d="M274.3221,-283.5C289.3253,-283.5 305.3063,-283.5 320.2234,-283.5"/>
<polygon fill="#191970" stroke="#191970" points="274.1166,-280.0001 264.1166,-283.5 274.1166,-287.0001 274.1166,-280.0001"/>
</g>
<!-- Node7 -->
<g id="node8" class="node">
<title>Node7</title>
<g id="a_node8"><a xlink:href="class_l_f_s_t_k__multi_line_edit_class.xhtml" target="_top" xlink:title="Mult&#45;Line edit class for LFSToolKit.">
<polygon fill="none" stroke="#000000" points="314.054,-117.5 314.054,-137.5 448.952,-137.5 448.952,-117.5 314.054,-117.5"/>
<text text-anchor="middle" x="381.503" y="-124.5" font-family="Helvetica,sans-Serif" font-size="10.00" fill="#000000">LFSTK_multiLineEditClass</text>
</a>
</g>
</g>
<!-- Node6&#45;&gt;Node7 -->
<g id="edge7" class="edge">
<title>Node6&#45;&gt;Node7</title>
<path fill="none" stroke="#191970" d="M276.5878,-127.5C288.8365,-127.5 301.6615,-127.5 313.9722,-127.5"/>
<polygon fill="#191970" stroke="#191970" points="276.4584,-124.0001 266.4584,-127.5 276.4584,-131.0001 276.4584,-124.0001"/>
</g>
</g>
</svg>
