<?xml version="1.0" encoding="UTF-8" standalone="no"?>
<!DOCTYPE svg PUBLIC "-//W3C//DTD SVG 1.1//EN"
 "http://www.w3.org/Graphics/SVG/1.1/DTD/svg11.dtd">
<!-- Generated by graphviz version 2.40.1 (20161225.0304)
 -->
<!-- Title: gadgetStruct Pages: 1 -->
<svg width="205pt" height="179pt"
 viewBox="0.00 0.00 205.45 179.00" xmlns="http://www.w3.org/2000/svg" xmlns:xlink="http://www.w3.org/1999/xlink">
<g id="graph0" class="graph" transform="scale(1 1) rotate(0) translate(4 175)">
<title>gadgetStruct</title>
<!-- Node1 -->
<g id="node1" class="node">
<title>Node1</title>
<g id="a_node1"><a xlink:title=" ">
<polygon fill="#bfbfbf" stroke="#000000" points="50.5495,-.5 50.5495,-20.5 123.2385,-20.5 123.2385,-.5 50.5495,-.5"/>
<text text-anchor="middle" x="86.894" y="-7.5" font-family="Helvetica,sans-Serif" font-size="10.00" fill="#000000">gadgetStruct</text>
</a>
</g>
</g>
<!-- Node2 -->
<g id="node2" class="node">
<title>Node2</title>
<g id="a_node2"><a xlink:href="structgeometry_struct.xhtml" target="_top" xlink:title=" ">
<polygon fill="none" stroke="#000000" points="0,-81.5 0,-101.5 83.788,-101.5 83.788,-81.5 0,-81.5"/>
<text text-anchor="middle" x="41.894" y="-88.5" font-family="Helvetica,sans-Serif" font-size="10.00" fill="#000000">geometryStruct</text>
</a>
</g>
</g>
<!-- Node2&#45;&gt;Node1 -->
<g id="edge1" class="edge">
<title>Node2&#45;&gt;Node1</title>
<path fill="none" stroke="#9a32cd" stroke-dasharray="5,2" d="M39.0887,-71.3437C38.6174,-61.0448 39.6078,-48.6789 45.107,-39 49.5317,-31.2122 57.0643,-25.1059 64.5257,-20.5774"/>
<polygon fill="#9a32cd" stroke="#9a32cd" points="35.6205,-71.8492 40.0296,-81.483 42.5905,-71.2023 35.6205,-71.8492"/>
<text text-anchor="middle" x="79.7875" y="-54" font-family="Helvetica,sans-Serif" font-size="10.00" fill="#000000"> indicatorGeom</text>
<text text-anchor="middle" x="79.7875" y="-42" font-family="Helvetica,sans-Serif" font-size="10.00" fill="#000000">gadgetGeom</text>
</g>
<!-- Node3 -->
<g id="node3" class="node">
<title>Node3</title>
<g id="a_node3"><a xlink:href="structcolour_struct.xhtml" target="_top" xlink:title=" ">
<polygon fill="none" stroke="#000000" points="102.224,-81.5 102.224,-101.5 171.564,-101.5 171.564,-81.5 102.224,-81.5"/>
<text text-anchor="middle" x="136.894" y="-88.5" font-family="Helvetica,sans-Serif" font-size="10.00" fill="#000000">colourStruct</text>
</a>
</g>
</g>
<!-- Node3&#45;&gt;Node1 -->
<g id="edge2" class="edge">
<title>Node3&#45;&gt;Node1</title>
<path fill="none" stroke="#9a32cd" stroke-dasharray="5,2" d="M129.5644,-71.7184C125.3772,-61.5434 119.6215,-49.1756 112.894,-39 108.5354,-32.4075 102.6708,-25.8372 97.6147,-20.6694"/>
<polygon fill="#9a32cd" stroke="#9a32cd" points="126.4287,-73.3097 133.335,-81.3443 132.9465,-70.7566 126.4287,-73.3097"/>
<text text-anchor="middle" x="140.896" y="-48" font-family="Helvetica,sans-Serif" font-size="10.00" fill="#000000"> colour</text>
</g>
<!-- Node4 -->
<g id="node4" class="node">
<title>Node4</title>
<g id="a_node4"><a xlink:href="structcairo_color.xhtml" target="_top" xlink:title=" ">
<polygon fill="none" stroke="#000000" points="106.1185,-150.5 106.1185,-170.5 167.6695,-170.5 167.6695,-150.5 106.1185,-150.5"/>
<text text-anchor="middle" x="136.894" y="-157.5" font-family="Helvetica,sans-Serif" font-size="10.00" fill="#000000">cairoColor</text>
</a>
</g>
</g>
<!-- Node4&#45;&gt;Node3 -->
<g id="edge3" class="edge">
<title>Node4&#45;&gt;Node3</title>
<path fill="none" stroke="#9a32cd" stroke-dasharray="5,2" d="M136.894,-140.2177C136.894,-127.5684 136.894,-111.8285 136.894,-101.723"/>
<polygon fill="#9a32cd" stroke="#9a32cd" points="133.3941,-140.3188 136.894,-150.3188 140.3941,-140.3188 133.3941,-140.3188"/>
<text text-anchor="middle" x="167.1735" y="-123" font-family="Helvetica,sans-Serif" font-size="10.00" fill="#000000"> RGBAColour</text>
</g>
</g>
</svg>
