<?xml version="1.0" encoding="UTF-8" standalone="no"?>
<!DOCTYPE svg PUBLIC "-//W3C//DTD SVG 1.1//EN"
 "http://www.w3.org/Graphics/SVG/1.1/DTD/svg11.dtd">
<!-- Generated by graphviz version 2.40.1 (20161225.0304)
 -->
<!-- Title: mappedListener Pages: 1 -->
<svg width="856pt" height="344pt"
 viewBox="0.00 0.00 855.68 344.00" xmlns="http://www.w3.org/2000/svg" xmlns:xlink="http://www.w3.org/1999/xlink">
<g id="graph0" class="graph" transform="scale(1 1) rotate(0) translate(4 340)">
<title>mappedListener</title>
<!-- Node1 -->
<g id="node1" class="node">
<title>Node1</title>
<g id="a_node1"><a xlink:title=" ">
<polygon fill="#bfbfbf" stroke="#000000" points="310.0505,-158 310.0505,-178 397.7375,-178 397.7375,-158 310.0505,-158"/>
<text text-anchor="middle" x="353.894" y="-165" font-family="Helvetica,sans-Serif" font-size="10.00" fill="#000000">mappedListener</text>
</a>
</g>
</g>
<!-- Node2 -->
<g id="node2" class="node">
<title>Node2</title>
<g id="a_node2"><a xlink:href="class_l_f_s_t_k__gadget_class.xhtml" target="_top" xlink:title="Base class for LFSToolKit gadgets.">
<polygon fill="none" stroke="#000000" points="256.7715,-81.5 256.7715,-101.5 365.0165,-101.5 365.0165,-81.5 256.7715,-81.5"/>
<text text-anchor="middle" x="310.894" y="-88.5" font-family="Helvetica,sans-Serif" font-size="10.00" fill="#000000">LFSTK_gadgetClass</text>
</a>
</g>
</g>
<!-- Node1&#45;&gt;Node2 -->
<g id="edge15" class="edge">
<title>Node1&#45;&gt;Node2</title>
<path fill="none" stroke="#9a32cd" stroke-dasharray="5,2" d="M351.5198,-147.7893C349.8105,-138.8117 346.8856,-128.3997 341.894,-120 337.7111,-112.961 331.2546,-106.6261 325.3146,-101.7264"/>
<polygon fill="#9a32cd" stroke="#9a32cd" points="348.0795,-148.4453 353.0591,-157.7969 354.9981,-147.381 348.0795,-148.4453"/>
<text text-anchor="middle" x="353.5575" y="-123" font-family="Helvetica,sans-Serif" font-size="10.00" fill="#000000"> ml</text>
</g>
<!-- Node2&#45;&gt;Node1 -->
<g id="edge1" class="edge">
<title>Node2&#45;&gt;Node1</title>
<path fill="none" stroke="#9a32cd" stroke-dasharray="5,2" d="M305.8905,-111.5457C305.1773,-118.3269 305.5258,-125.7569 308.541,-132 313.8749,-143.0438 324.4251,-151.7375 334.0084,-157.8129"/>
<polygon fill="#9a32cd" stroke="#9a32cd" points="309.3383,-112.1478 307.6546,-101.6876 302.4478,-110.9147 309.3383,-112.1478"/>
<text text-anchor="middle" x="324.5705" y="-123" font-family="Helvetica,sans-Serif" font-size="10.00" fill="#000000"> gadget</text>
</g>
<!-- Node7 -->
<g id="node7" class="node">
<title>Node7</title>
<g id="a_node7"><a xlink:href="class_l_f_s_t_k__window_class.xhtml" target="_top" xlink:title="Window class for LFSToolKit.">
<polygon fill="none" stroke="#000000" points="460.3915,-.5 460.3915,-20.5 571.3965,-20.5 571.3965,-.5 460.3915,-.5"/>
<text text-anchor="middle" x="515.894" y="-7.5" font-family="Helvetica,sans-Serif" font-size="10.00" fill="#000000">LFSTK_windowClass</text>
</a>
</g>
</g>
<!-- Node2&#45;&gt;Node7 -->
<g id="edge10" class="edge">
<title>Node2&#45;&gt;Node7</title>
<path fill="none" stroke="#9a32cd" stroke-dasharray="5,2" d="M343.0023,-77.1716C352.6662,-72.7435 363.2608,-67.773 372.894,-63 393.2342,-52.9219 396.951,-47.5506 417.979,-39 436.0196,-31.6642 456.6347,-25.3706 474.281,-20.578"/>
<polygon fill="#9a32cd" stroke="#9a32cd" points="341.374,-74.0671 333.7188,-81.3916 344.2708,-80.4396 341.374,-74.0671"/>
<text text-anchor="middle" x="459.8515" y="-54" font-family="Helvetica,sans-Serif" font-size="10.00" fill="#000000"> dropGadget</text>
<text text-anchor="middle" x="459.8515" y="-42" font-family="Helvetica,sans-Serif" font-size="10.00" fill="#000000">popupFromGadget</text>
</g>
<!-- Node3 -->
<g id="node3" class="node">
<title>Node3</title>
<g id="a_node3"><a xlink:href="structgadget_struct.xhtml" target="_top" xlink:title=" ">
<polygon fill="none" stroke="#000000" points="415.5495,-158 415.5495,-178 488.2385,-178 488.2385,-158 415.5495,-158"/>
<text text-anchor="middle" x="451.894" y="-165" font-family="Helvetica,sans-Serif" font-size="10.00" fill="#000000">gadgetStruct</text>
</a>
</g>
</g>
<!-- Node3&#45;&gt;Node2 -->
<g id="edge2" class="edge">
<title>Node3&#45;&gt;Node2</title>
<path fill="none" stroke="#9a32cd" stroke-dasharray="5,2" d="M424.3576,-152.9254C407.0204,-143.4479 384.1651,-130.9786 363.894,-120 352.6864,-113.9301 340.1241,-107.1729 330.0437,-101.762"/>
<polygon fill="#9a32cd" stroke="#9a32cd" points="422.9172,-156.1268 433.3702,-157.8544 426.276,-149.9853 422.9172,-156.1268"/>
<text text-anchor="middle" x="416.8475" y="-123" font-family="Helvetica,sans-Serif" font-size="10.00" fill="#000000"> gadgetDetails</text>
</g>
<!-- Node4 -->
<g id="node4" class="node">
<title>Node4</title>
<g id="a_node4"><a xlink:href="structgeometry_struct.xhtml" target="_top" xlink:title=" ">
<polygon fill="none" stroke="#000000" points="0,-246.5 0,-266.5 83.788,-266.5 83.788,-246.5 0,-246.5"/>
<text text-anchor="middle" x="41.894" y="-253.5" font-family="Helvetica,sans-Serif" font-size="10.00" fill="#000000">geometryStruct</text>
</a>
</g>
</g>
<!-- Node4&#45;&gt;Node2 -->
<g id="edge6" class="edge">
<title>Node4&#45;&gt;Node2</title>
<path fill="none" stroke="#9a32cd" stroke-dasharray="5,2" d="M37.3605,-236.5085C33.3025,-213.1104 30.6517,-174.4586 50.315,-150 75.6984,-118.4264 187.8485,-102.6992 256.4806,-95.8965"/>
<polygon fill="#9a32cd" stroke="#9a32cd" points="33.9355,-237.2309 39.3113,-246.3606 40.8022,-235.8712 33.9355,-237.2309"/>
<text text-anchor="middle" x="81.1835" y="-165" font-family="Helvetica,sans-Serif" font-size="10.00" fill="#000000"> gadgetGeom</text>
</g>
<!-- Node4&#45;&gt;Node3 -->
<g id="edge3" class="edge">
<title>Node4&#45;&gt;Node3</title>
<path fill="none" stroke="#9a32cd" stroke-dasharray="5,2" d="M93.9304,-249.6241C165.4105,-239.4642 297.557,-218.1107 406.894,-186 414.3215,-183.8187 422.2222,-180.8804 429.2968,-178.0111"/>
<polygon fill="#9a32cd" stroke="#9a32cd" points="93.2504,-246.1851 83.8343,-251.0418 94.2239,-253.1171 93.2504,-246.1851"/>
<text text-anchor="middle" x="371.7875" y="-219" font-family="Helvetica,sans-Serif" font-size="10.00" fill="#000000"> indicatorGeom</text>
<text text-anchor="middle" x="371.7875" y="-207" font-family="Helvetica,sans-Serif" font-size="10.00" fill="#000000">gadgetGeom</text>
</g>
<!-- Node4&#45;&gt;Node7 -->
<g id="edge8" class="edge">
<title>Node4&#45;&gt;Node7</title>
<path fill="none" stroke="#9a32cd" stroke-dasharray="5,2" d="M29.3675,-237.8548C12.0452,-209.5123 -14.2234,-155.1748 12.555,-120 66.4545,-49.2 340.7064,-22.305 460.1621,-13.8383"/>
<polygon fill="#9a32cd" stroke="#9a32cd" points="26.4873,-239.8481 34.8096,-246.4049 32.3926,-236.0894 26.4873,-239.8481"/>
<text text-anchor="middle" x="44.5635" y="-123" font-family="Helvetica,sans-Serif" font-size="10.00" fill="#000000"> windowGeom</text>
</g>
<!-- Node5 -->
<g id="node5" class="node">
<title>Node5</title>
<g id="a_node5"><a xlink:href="structcolour_struct.xhtml" target="_top" xlink:title=" ">
<polygon fill="none" stroke="#000000" points="417.224,-246.5 417.224,-266.5 486.564,-266.5 486.564,-246.5 417.224,-246.5"/>
<text text-anchor="middle" x="451.894" y="-253.5" font-family="Helvetica,sans-Serif" font-size="10.00" fill="#000000">colourStruct</text>
</a>
</g>
</g>
<!-- Node5&#45;&gt;Node2 -->
<g id="edge17" class="edge">
<title>Node5&#45;&gt;Node2</title>
<path fill="none" stroke="#9a32cd" stroke-dasharray="5,2" d="M406.9524,-249.0901C346.7826,-238.1477 245.0435,-215.7127 223.108,-186 213.605,-173.1278 215.5569,-164.1061 223.108,-150 235.7274,-126.4258 262.5058,-110.7134 283.1885,-101.5631"/>
<polygon fill="#9a32cd" stroke="#9a32cd" points="406.4952,-252.5637 416.9542,-250.873 407.7236,-245.6723 406.4952,-252.5637"/>
<text text-anchor="middle" x="261.787" y="-177" font-family="Helvetica,sans-Serif" font-size="10.00" fill="#000000"> labelBGColour</text>
<text text-anchor="middle" x="261.787" y="-165" font-family="Helvetica,sans-Serif" font-size="10.00" fill="#000000">colourNames</text>
<text text-anchor="middle" x="261.787" y="-153" font-family="Helvetica,sans-Serif" font-size="10.00" fill="#000000">fontColourNames</text>
</g>
<!-- Node5&#45;&gt;Node3 -->
<g id="edge4" class="edge">
<title>Node5&#45;&gt;Node3</title>
<path fill="none" stroke="#9a32cd" stroke-dasharray="5,2" d="M451.894,-236.1978C451.894,-218.0125 451.894,-192.1048 451.894,-178.0337"/>
<polygon fill="#9a32cd" stroke="#9a32cd" points="448.3941,-236.3479 451.894,-246.3479 455.3941,-236.348 448.3941,-236.3479"/>
<text text-anchor="middle" x="466.896" y="-213" font-family="Helvetica,sans-Serif" font-size="10.00" fill="#000000"> colour</text>
</g>
<!-- Node5&#45;&gt;Node7 -->
<g id="edge12" class="edge">
<title>Node5&#45;&gt;Node7</title>
<path fill="none" stroke="#9a32cd" stroke-dasharray="5,2" d="M475.9032,-239.6922C479.6706,-236.1859 483.202,-232.2496 485.894,-228 529.5458,-159.0902 521.181,-53.4018 517.2613,-20.5776"/>
<polygon fill="#9a32cd" stroke="#9a32cd" points="473.4762,-237.1586 468.0323,-246.2478 477.9561,-242.5373 473.4762,-237.1586"/>
<text text-anchor="middle" x="566.5055" y="-123" font-family="Helvetica,sans-Serif" font-size="10.00" fill="#000000"> windowColourNames</text>
</g>
<!-- Node6 -->
<g id="node6" class="node">
<title>Node6</title>
<g id="a_node6"><a xlink:href="structcairo_color.xhtml" target="_top" xlink:title=" ">
<polygon fill="none" stroke="#000000" points="421.1185,-315.5 421.1185,-335.5 482.6695,-335.5 482.6695,-315.5 421.1185,-315.5"/>
<text text-anchor="middle" x="451.894" y="-322.5" font-family="Helvetica,sans-Serif" font-size="10.00" fill="#000000">cairoColor</text>
</a>
</g>
</g>
<!-- Node6&#45;&gt;Node5 -->
<g id="edge5" class="edge">
<title>Node6&#45;&gt;Node5</title>
<path fill="none" stroke="#9a32cd" stroke-dasharray="5,2" d="M451.894,-305.2177C451.894,-292.5684 451.894,-276.8285 451.894,-266.723"/>
<polygon fill="#9a32cd" stroke="#9a32cd" points="448.3941,-305.3188 451.894,-315.3188 455.3941,-305.3188 448.3941,-305.3188"/>
<text text-anchor="middle" x="482.1735" y="-288" font-family="Helvetica,sans-Serif" font-size="10.00" fill="#000000"> RGBAColour</text>
</g>
<!-- Node7&#45;&gt;Node2 -->
<g id="edge7" class="edge">
<title>Node7&#45;&gt;Node2</title>
<path fill="none" stroke="#9a32cd" stroke-dasharray="5,2" d="M450.2216,-16.3619C397.4505,-21.6846 330.619,-30.0514 321.222,-39 309.786,-49.8903 308.984,-69.4683 309.7358,-81.3933"/>
<polygon fill="#9a32cd" stroke="#9a32cd" points="450.6238,-19.8393 460.2304,-15.3713 449.9343,-12.8733 450.6238,-19.8393"/>
<text text-anchor="middle" x="346.73" y="-54" font-family="Helvetica,sans-Serif" font-size="10.00" fill="#000000"> contextWC</text>
<text text-anchor="middle" x="346.73" y="-42" font-family="Helvetica,sans-Serif" font-size="10.00" fill="#000000">wc</text>
</g>
<!-- Node8 -->
<g id="node8" class="node">
<title>Node8</title>
<g id="a_node8"><a xlink:href="structmonitor_struct.xhtml" target="_top" xlink:title=" ">
<polygon fill="none" stroke="#000000" points="544.17,-81.5 544.17,-101.5 619.618,-101.5 619.618,-81.5 544.17,-81.5"/>
<text text-anchor="middle" x="581.894" y="-88.5" font-family="Helvetica,sans-Serif" font-size="10.00" fill="#000000">monitorStruct</text>
</a>
</g>
</g>
<!-- Node8&#45;&gt;Node7 -->
<g id="edge9" class="edge">
<title>Node8&#45;&gt;Node7</title>
<path fill="none" stroke="#9a32cd" stroke-dasharray="5,2" d="M567.2085,-73.4769C553.9647,-57.2232 534.9616,-33.9011 524.1851,-20.6754"/>
<polygon fill="#9a32cd" stroke="#9a32cd" points="564.505,-75.6998 573.5351,-81.2413 569.9316,-71.2781 564.505,-75.6998"/>
<text text-anchor="middle" x="578.45" y="-48" font-family="Helvetica,sans-Serif" font-size="10.00" fill="#000000"> monitors</text>
</g>
<!-- Node9 -->
<g id="node9" class="node">
<title>Node9</title>
<g id="a_node9"><a xlink:href="structdrop_data_struct.xhtml" target="_top" xlink:title=" ">
<polygon fill="none" stroke="#000000" points="637.2755,-81.5 637.2755,-101.5 720.5125,-101.5 720.5125,-81.5 637.2755,-81.5"/>
<text text-anchor="middle" x="678.894" y="-88.5" font-family="Helvetica,sans-Serif" font-size="10.00" fill="#000000">dropDataStruct</text>
</a>
</g>
</g>
<!-- Node9&#45;&gt;Node7 -->
<g id="edge11" class="edge">
<title>Node9&#45;&gt;Node7</title>
<path fill="none" stroke="#9a32cd" stroke-dasharray="5,2" d="M658.7486,-75.1829C643.9802,-63.8362 623.0688,-49.0092 602.894,-39 587.6594,-31.4417 569.9612,-25.2228 554.5204,-20.544"/>
<polygon fill="#9a32cd" stroke="#9a32cd" points="656.6518,-77.9864 666.6821,-81.3987 660.969,-72.4762 656.6518,-77.9864"/>
<text text-anchor="middle" x="671.183" y="-48" font-family="Helvetica,sans-Serif" font-size="10.00" fill="#000000"> droppedData</text>
</g>
<!-- Node10 -->
<g id="node10" class="node">
<title>Node10</title>
<g id="a_node10"><a xlink:href="class_l_f_s_t_k__lib.xhtml" target="_top" xlink:title="Library of useful routines for LFSToolKit.">
<polygon fill="none" stroke="#000000" points="738.5585,-81.5 738.5585,-101.5 801.2295,-101.5 801.2295,-81.5 738.5585,-81.5"/>
<text text-anchor="middle" x="769.894" y="-88.5" font-family="Helvetica,sans-Serif" font-size="10.00" fill="#000000">LFSTK_lib</text>
</a>
</g>
</g>
<!-- Node10&#45;&gt;Node7 -->
<g id="edge13" class="edge">
<title>Node10&#45;&gt;Node7</title>
<path fill="none" stroke="#9a32cd" stroke-dasharray="5,2" d="M753.9876,-74.2381C741.9707,-62.3358 724.4256,-47.2301 705.894,-39 682.4975,-28.6093 618.8475,-20.4327 571.6286,-15.5508"/>
<polygon fill="#9a32cd" stroke="#9a32cd" points="751.5605,-76.7626 761.0409,-81.4926 756.5794,-71.883 751.5605,-76.7626"/>
<text text-anchor="middle" x="762.289" y="-48" font-family="Helvetica,sans-Serif" font-size="10.00" fill="#000000"> globalLib</text>
</g>
<!-- Node11 -->
<g id="node11" class="node">
<title>Node11</title>
<g id="a_node11"><a xlink:href="structargs.xhtml" target="_top" xlink:title=" ">
<polygon fill="none" stroke="#000000" points="752.1705,-158 752.1705,-178 787.6175,-178 787.6175,-158 752.1705,-158"/>
<text text-anchor="middle" x="769.894" y="-165" font-family="Helvetica,sans-Serif" font-size="10.00" fill="#000000">args</text>
</a>
</g>
</g>
<!-- Node11&#45;&gt;Node10 -->
<g id="edge14" class="edge">
<title>Node11&#45;&gt;Node10</title>
<path fill="none" stroke="#9a32cd" stroke-dasharray="5,2" d="M769.894,-147.7889C769.894,-132.974 769.894,-113.4763 769.894,-101.7477"/>
<polygon fill="#9a32cd" stroke="#9a32cd" points="766.3941,-147.9989 769.894,-157.999 773.3941,-147.999 766.3941,-147.9989"/>
<text text-anchor="middle" x="808.786" y="-123" font-family="Helvetica,sans-Serif" font-size="10.00" fill="#000000"> lfsToolKitGlobals</text>
</g>
<!-- Node12 -->
<g id="node12" class="node">
<title>Node12</title>
<g id="a_node12"><a xlink:href="structbutton_c_b.xhtml" target="_top" xlink:title=" ">
<polygon fill="none" stroke="#000000" points="120.053,-158 120.053,-178 177.735,-178 177.735,-158 120.053,-158"/>
<text text-anchor="middle" x="148.894" y="-165" font-family="Helvetica,sans-Serif" font-size="10.00" fill="#000000">buttonCB</text>
</a>
</g>
</g>
<!-- Node12&#45;&gt;Node2 -->
<g id="edge16" class="edge">
<title>Node12&#45;&gt;Node2</title>
<path fill="none" stroke="#9a32cd" stroke-dasharray="5,2" d="M149.1851,-147.5376C150.4101,-137.9082 153.5478,-127.0239 161,-120 174.7347,-107.0548 219.6233,-99.6906 256.727,-95.7052"/>
<polygon fill="#9a32cd" stroke="#9a32cd" points="145.6874,-147.3853 148.4867,-157.6036 152.6706,-147.8699 145.6874,-147.3853"/>
<text text-anchor="middle" x="180.341" y="-123" font-family="Helvetica,sans-Serif" font-size="10.00" fill="#000000"> callback</text>
</g>
</g>
</svg>
