<?xml version="1.0" encoding="UTF-8" standalone="no"?>
<!DOCTYPE svg PUBLIC "-//W3C//DTD SVG 1.1//EN"
 "http://www.w3.org/Graphics/SVG/1.1/DTD/svg11.dtd">
<!-- Generated by graphviz version 2.40.1 (20161225.0304)
 -->
<!-- Title: listData Pages: 1 -->
<!--zoomable 517 -->
<svg id="main" version="1.1" xmlns="http://www.w3.org/2000/svg" xmlns:xlink="http://www.w3.org/1999/xlink" xml:space="preserve" onload="init(evt)">
<style type="text/css"><![CDATA[
.edge:hover path { stroke: red; }
.edge:hover polygon { stroke: red; fill: red; }
]]></style>
<script type="text/javascript"><![CDATA[
var edges = document.getElementsByTagName('g');
if (edges && edges.length) {
  for (var i=0;i<edges.length;i++) {
    if (edges[i].id.substr(0,4)=='edge') {
      edges[i].setAttribute('class','edge');
    }
  }
}
]]></script>
        <defs>
                <circle id="rim" cx="0" cy="0" r="7"/>
                <circle id="rim2" cx="0" cy="0" r="3.5"/>
                <g id="zoomPlus">
                        <use xlink:href="#rim" fill="#404040">
                                <set attributeName="fill" to="#808080" begin="zoomplus.mouseover" end="zoomplus.mouseout"/>
                        </use>
                        <path d="M-4,0h8M0,-4v8" fill="none" stroke="white" stroke-width="1.5" pointer-events="none"/>
                </g>
                <g id="zoomMin">
                        <use xlink:href="#rim" fill="#404040">
                                <set attributeName="fill" to="#808080" begin="zoomminus.mouseover" end="zoomminus.mouseout"/>
                        </use>
                        <path d="M-4,0h8" fill="none" stroke="white" stroke-width="1.5" pointer-events="none"/>
                </g>
                <g id="dirArrow">
                        <path fill="none" stroke="white" stroke-width="1.5" d="M0,-3.0v7 M-2.5,-0.5L0,-3.0L2.5,-0.5"/>
                </g>
               <g id="resetDef">
                       <use xlink:href="#rim2" fill="#404040">
                               <set attributeName="fill" to="#808080" begin="reset.mouseover" end="reset.mouseout"/>
                       </use>
               </g>
        </defs>

<script type="text/javascript">
var viewWidth = 1337;
var viewHeight = 517;
var sectionId = 'dynsection-0';
</script>
<script xlink:href="svgpan.js"/>
<svg id="graph" class="graph">
<g id="viewport">
<title>listData</title>
<!-- Node1 -->
<g id="node1" class="node">
<title>Node1</title>
<g id="a_node1"><a xlink:title=" ">
<polygon fill="#bfbfbf" stroke="#000000" points="1034.3815,-483.5 1034.3815,-503.5 1083.7145,-503.5 1083.7145,-483.5 1034.3815,-483.5"/>
<text text-anchor="middle" x="1059.048" y="-490.5" font-family="Helvetica,sans-Serif" font-size="10.00" fill="#000000">listData</text>
</a>
</g>
</g>
<!-- Node2 -->
<g id="node2" class="node">
<title>Node2</title>
<g id="a_node2"><a xlink:href="class_l_f_s_t_k__list_gadget_class.xhtml" target="_top" xlink:title="List class for LFSToolKit.">
<polygon fill="none" stroke="#000000" points="1206.665,-410.5 1206.665,-430.5 1329.347,-430.5 1329.347,-410.5 1206.665,-410.5"/>
<text text-anchor="middle" x="1268.006" y="-417.5" font-family="Helvetica,sans-Serif" font-size="10.00" fill="#000000">LFSTK_listGadgetClass</text>
</a>
</g>
</g>
<!-- Node1&#45;&gt;Node2 -->
<g id="edge26" class="edge">
<title>Node1&#45;&gt;Node2</title>
<path fill="none" stroke="#9a32cd" stroke-dasharray="5,2" d="M1093.9792,-497.0349C1120.8053,-498.421 1158.2794,-497.4257 1188.665,-485.5 1218.833,-473.6597 1246.2074,-445.8018 1259.5124,-430.6857"/>
<polygon fill="#9a32cd" stroke="#9a32cd" points="1094.1074,-493.5359 1083.9006,-496.377 1093.6514,-500.521 1094.1074,-493.5359"/>
<text text-anchor="middle" x="1161.995" y="-499.5" font-family="Helvetica,sans-Serif" font-size="10.00" fill="#000000"> data</text>
</g>
<!-- Node2&#45;&gt;Node1 -->
<g id="edge1" class="edge">
<title>Node2&#45;&gt;Node1</title>
<path fill="none" stroke="#9a32cd" stroke-dasharray="5,2" d="M1233.8147,-434.3695C1219.8802,-439.8882 1203.5707,-446.1783 1188.665,-451.5 1152.5753,-464.3849 1110.2563,-477.7813 1084.0441,-485.8821"/>
<polygon fill="#9a32cd" stroke="#9a32cd" points="1235.4951,-437.4674 1243.4873,-430.5122 1232.9022,-430.9654 1235.4951,-437.4674"/>
<text text-anchor="middle" x="1161.995" y="-472.5" font-family="Helvetica,sans-Serif" font-size="10.00" fill="#000000"> mainObject</text>
</g>
<!-- Node3 -->
<g id="node3" class="node">
<title>Node3</title>
<g id="a_node3"><a xlink:href="class_l_f_s_t_k__gadget_class.xhtml" target="_top" xlink:title="Base class for LFSToolKit gadgets.">
<polygon fill="none" stroke="#000000" points="556.694,-313.5 556.694,-333.5 664.939,-333.5 664.939,-313.5 556.694,-313.5"/>
<text text-anchor="middle" x="610.8165" y="-320.5" font-family="Helvetica,sans-Serif" font-size="10.00" fill="#000000">LFSTK_gadgetClass</text>
</a>
</g>
</g>
<!-- Node3&#45;&gt;Node2 -->
<g id="edge2" class="edge">
<title>Node3&#45;&gt;Node2</title>
<path fill="none" stroke="#191970" d="M621.8949,-342.2699C634.2507,-361.4184 656.0763,-390.3997 682.939,-405.5 723.0349,-428.039 739.0606,-419.1807 784.854,-423.5 811.9809,-426.0587 1120.5772,-426.4631 1135.325,-426.5 1159.0316,-426.5593 1164.9752,-427.3945 1188.665,-426.5 1194.4627,-426.2811 1200.4936,-425.9725 1206.5251,-425.6096"/>
<polygon fill="#191970" stroke="#191970" points="624.7119,-340.1716 616.4646,-333.5209 618.7644,-343.8631 624.7119,-340.1716"/>
</g>
<!-- Node8 -->
<g id="node8" class="node">
<title>Node8</title>
<g id="a_node8"><a xlink:href="class_l_f_s_t_k__window_class.xhtml" target="_top" xlink:title="Window class for LFSToolKit.">
<polygon fill="none" stroke="#000000" points="795.6945,-117.5 795.6945,-137.5 906.6995,-137.5 906.6995,-117.5 795.6945,-117.5"/>
<text text-anchor="middle" x="851.197" y="-124.5" font-family="Helvetica,sans-Serif" font-size="10.00" fill="#000000">LFSTK_windowClass</text>
</a>
</g>
</g>
<!-- Node3&#45;&gt;Node8 -->
<g id="edge11" class="edge">
<title>Node3&#45;&gt;Node8</title>
<path fill="none" stroke="#9a32cd" stroke-dasharray="5,2" d="M643.9238,-309.4655C683.5702,-292.2678 747.1091,-263.345 766.854,-246.5 805.1904,-213.7939 834.891,-160.0282 846.2166,-137.7071"/>
<polygon fill="#9a32cd" stroke="#9a32cd" points="642.4395,-306.2939 634.6422,-313.467 645.2108,-312.722 642.4395,-306.2939"/>
<text text-anchor="middle" x="724.8965" y="-305.5" font-family="Helvetica,sans-Serif" font-size="10.00" fill="#000000"> dropGadget</text>
<text text-anchor="middle" x="724.8965" y="-293.5" font-family="Helvetica,sans-Serif" font-size="10.00" fill="#000000">popupFromGadget</text>
</g>
<!-- Node13 -->
<g id="node13" class="node">
<title>Node13</title>
<g id="a_node13"><a xlink:href="structmapped_listener.xhtml" target="_top" xlink:title=" ">
<polygon fill="none" stroke="#000000" points="807.3535,-350.5 807.3535,-370.5 895.0405,-370.5 895.0405,-350.5 807.3535,-350.5"/>
<text text-anchor="middle" x="851.197" y="-357.5" font-family="Helvetica,sans-Serif" font-size="10.00" fill="#000000">mappedListener</text>
</a>
</g>
</g>
<!-- Node3&#45;&gt;Node13 -->
<g id="edge17" class="edge">
<title>Node3&#45;&gt;Node13</title>
<path fill="none" stroke="#9a32cd" stroke-dasharray="5,2" d="M675.4096,-327.3888C703.6268,-329.6844 737.0217,-333.2102 766.854,-338.5 783.8404,-341.512 802.4238,-346.2041 817.8134,-350.4827"/>
<polygon fill="#9a32cd" stroke="#9a32cd" points="675.5061,-323.8858 665.2643,-326.5978 674.9619,-330.8646 675.5061,-323.8858"/>
<text text-anchor="middle" x="724.8965" y="-341.5" font-family="Helvetica,sans-Serif" font-size="10.00" fill="#000000"> gadget</text>
</g>
<!-- Node15 -->
<g id="node15" class="node">
<title>Node15</title>
<g id="a_node15"><a xlink:href="class_l_f_s_t_k__scroll_bar_class.xhtml" target="_top" xlink:title="Scrollbar class for LFSToolKit.">
<polygon fill="none" stroke="#000000" points="1000.771,-391.5 1000.771,-411.5 1117.325,-411.5 1117.325,-391.5 1000.771,-391.5"/>
<text text-anchor="middle" x="1059.048" y="-398.5" font-family="Helvetica,sans-Serif" font-size="10.00" fill="#000000">LFSTK_scrollBarClass</text>
</a>
</g>
</g>
<!-- Node3&#45;&gt;Node15 -->
<g id="edge21" class="edge">
<title>Node3&#45;&gt;Node15</title>
<path fill="none" stroke="#191970" d="M627.0084,-340.8211C640.5465,-354.0279 661.1054,-371.2987 682.939,-379.5 789.3279,-419.4629 924.5562,-415.3136 1000.4688,-408.522"/>
<polygon fill="#191970" stroke="#191970" points="629.4088,-338.2706 619.8922,-333.614 624.4278,-343.1889 629.4088,-338.2706"/>
</g>
<!-- Node16 -->
<g id="node16" class="node">
<title>Node16</title>
<g id="a_node16"><a xlink:href="class_l_f_s_t_k__button_class.xhtml" target="_top" xlink:title="Basic button class for LFSToolKit.">
<polygon fill="none" stroke="#000000" points="798.4645,-308.5 798.4645,-328.5 903.9295,-328.5 903.9295,-308.5 798.4645,-308.5"/>
<text text-anchor="middle" x="851.197" y="-315.5" font-family="Helvetica,sans-Serif" font-size="10.00" fill="#000000">LFSTK_buttonClass</text>
</a>
</g>
</g>
<!-- Node3&#45;&gt;Node16 -->
<g id="edge23" class="edge">
<title>Node3&#45;&gt;Node16</title>
<path fill="none" stroke="#191970" d="M675.2533,-321.6814C677.8491,-321.6182 680.4188,-321.5574 682.939,-321.5 721.4943,-320.6217 765.024,-319.8516 798.1477,-319.3115"/>
<polygon fill="#191970" stroke="#191970" points="675.0696,-318.1848 665.1609,-321.9354 675.2459,-325.1826 675.0696,-318.1848"/>
</g>
<!-- Node4 -->
<g id="node4" class="node">
<title>Node4</title>
<g id="a_node4"><a xlink:href="structgadget_struct.xhtml" target="_top" xlink:title=" ">
<polygon fill="none" stroke="#000000" points="348.2335,-266.5 348.2335,-286.5 420.9225,-286.5 420.9225,-266.5 348.2335,-266.5"/>
<text text-anchor="middle" x="384.578" y="-273.5" font-family="Helvetica,sans-Serif" font-size="10.00" fill="#000000">gadgetStruct</text>
</a>
</g>
</g>
<!-- Node4&#45;&gt;Node3 -->
<g id="edge3" class="edge">
<title>Node4&#45;&gt;Node3</title>
<path fill="none" stroke="#9a32cd" stroke-dasharray="5,2" d="M431.1398,-280.269C461.9654,-283.3921 503.1162,-288.7667 538.694,-297.5 555.1104,-301.5298 572.9886,-307.9601 586.8381,-313.4174"/>
<polygon fill="#9a32cd" stroke="#9a32cd" points="431.3961,-276.7775 421.1047,-279.2946 430.7195,-283.7447 431.3961,-276.7775"/>
<text text-anchor="middle" x="490.0825" y="-300.5" font-family="Helvetica,sans-Serif" font-size="10.00" fill="#000000"> gadgetDetails</text>
</g>
<!-- Node5 -->
<g id="node5" class="node">
<title>Node5</title>
<g id="a_node5"><a xlink:href="structgeometry_struct.xhtml" target="_top" xlink:title=" ">
<polygon fill="none" stroke="#000000" points="158.11,-266.5 158.11,-286.5 241.898,-286.5 241.898,-266.5 158.11,-266.5"/>
<text text-anchor="middle" x="200.004" y="-273.5" font-family="Helvetica,sans-Serif" font-size="10.00" fill="#000000">geometryStruct</text>
</a>
</g>
</g>
<!-- Node5&#45;&gt;Node3 -->
<g id="edge7" class="edge">
<title>Node5&#45;&gt;Node3</title>
<path fill="none" stroke="#9a32cd" stroke-dasharray="5,2" d="M226.0817,-291.3469C236.3047,-296.4487 248.339,-301.6014 259.898,-304.5 362.4278,-330.2108 486.903,-329.8237 556.6614,-326.887"/>
<polygon fill="#9a32cd" stroke="#9a32cd" points="227.3929,-288.0828 216.91,-286.5464 224.1468,-294.2846 227.3929,-288.0828"/>
<text text-anchor="middle" x="384.578" y="-330.5" font-family="Helvetica,sans-Serif" font-size="10.00" fill="#000000"> gadgetGeom</text>
</g>
<!-- Node5&#45;&gt;Node4 -->
<g id="edge4" class="edge">
<title>Node5&#45;&gt;Node4</title>
<path fill="none" stroke="#9a32cd" stroke-dasharray="5,2" d="M252.4051,-276.5C282.9489,-276.5 320.7103,-276.5 348.0398,-276.5"/>
<polygon fill="#9a32cd" stroke="#9a32cd" points="252.349,-273.0001 242.349,-276.5 252.349,-280.0001 252.349,-273.0001"/>
<text text-anchor="middle" x="293.7915" y="-291.5" font-family="Helvetica,sans-Serif" font-size="10.00" fill="#000000"> indicatorGeom</text>
<text text-anchor="middle" x="293.7915" y="-279.5" font-family="Helvetica,sans-Serif" font-size="10.00" fill="#000000">gadgetGeom</text>
</g>
<!-- Node5&#45;&gt;Node8 -->
<g id="edge9" class="edge">
<title>Node5&#45;&gt;Node8</title>
<path fill="none" stroke="#9a32cd" stroke-dasharray="5,2" d="M252.3123,-264.5313C377.2944,-235.934 691.4678,-164.0478 807.3639,-137.5295"/>
<polygon fill="#9a32cd" stroke="#9a32cd" points="251.1962,-261.1961 242.2288,-266.8385 252.7576,-268.0198 251.1962,-261.1961"/>
<text text-anchor="middle" x="490.0825" y="-224.5" font-family="Helvetica,sans-Serif" font-size="10.00" fill="#000000"> windowGeom</text>
</g>
<!-- Node6 -->
<g id="node6" class="node">
<title>Node6</title>
<g id="a_node6"><a xlink:href="structcolour_struct.xhtml" target="_top" xlink:title=" ">
<polygon fill="none" stroke="#000000" points="165.334,-163.5 165.334,-183.5 234.674,-183.5 234.674,-163.5 165.334,-163.5"/>
<text text-anchor="middle" x="200.004" y="-170.5" font-family="Helvetica,sans-Serif" font-size="10.00" fill="#000000">colourStruct</text>
</a>
</g>
</g>
<!-- Node6&#45;&gt;Node3 -->
<g id="edge19" class="edge">
<title>Node6&#45;&gt;Node3</title>
<path fill="none" stroke="#9a32cd" stroke-dasharray="5,2" d="M244.7629,-164.8222C313.6642,-153.9849 447.3052,-143.2028 538.694,-200.5 581.2696,-227.1933 601.6736,-288.895 608.2972,-313.2993"/>
<polygon fill="#9a32cd" stroke="#9a32cd" points="243.9767,-161.4045 234.6781,-166.4825 245.1139,-168.3115 243.9767,-161.4045"/>
<text text-anchor="middle" x="384.578" y="-188.5" font-family="Helvetica,sans-Serif" font-size="10.00" fill="#000000"> labelBGColour</text>
<text text-anchor="middle" x="384.578" y="-176.5" font-family="Helvetica,sans-Serif" font-size="10.00" fill="#000000">colourNames</text>
<text text-anchor="middle" x="384.578" y="-164.5" font-family="Helvetica,sans-Serif" font-size="10.00" fill="#000000">fontColourNames</text>
</g>
<!-- Node6&#45;&gt;Node4 -->
<g id="edge5" class="edge">
<title>Node6&#45;&gt;Node4</title>
<path fill="none" stroke="#9a32cd" stroke-dasharray="5,2" d="M227.046,-188.5906C265.2215,-209.8941 333.8874,-248.2125 366.471,-266.3955"/>
<polygon fill="#9a32cd" stroke="#9a32cd" points="228.4757,-185.3803 218.0378,-183.5636 225.0646,-191.493 228.4757,-185.3803"/>
<text text-anchor="middle" x="293.7915" y="-246.5" font-family="Helvetica,sans-Serif" font-size="10.00" fill="#000000"> colour</text>
</g>
<!-- Node6&#45;&gt;Node8 -->
<g id="edge13" class="edge">
<title>Node6&#45;&gt;Node8</title>
<path fill="none" stroke="#9a32cd" stroke-dasharray="5,2" d="M234.5718,-160.1447C242.7606,-157.4899 251.5448,-155.0469 259.898,-153.5 454.1424,-117.5286 690.1132,-120.9214 795.5921,-124.8419"/>
<polygon fill="#9a32cd" stroke="#9a32cd" points="233.2732,-156.8898 224.9475,-163.4421 235.5421,-163.512 233.2732,-156.8898"/>
<text text-anchor="middle" x="490.0825" y="-133.5" font-family="Helvetica,sans-Serif" font-size="10.00" fill="#000000"> windowColourNames</text>
</g>
<!-- Node7 -->
<g id="node7" class="node">
<title>Node7</title>
<g id="a_node7"><a xlink:href="structcairo_color.xhtml" target="_top" xlink:title=" ">
<polygon fill="none" stroke="#000000" points="0,-163.5 0,-183.5 61.551,-183.5 61.551,-163.5 0,-163.5"/>
<text text-anchor="middle" x="30.7755" y="-170.5" font-family="Helvetica,sans-Serif" font-size="10.00" fill="#000000">cairoColor</text>
</a>
</g>
</g>
<!-- Node7&#45;&gt;Node6 -->
<g id="edge6" class="edge">
<title>Node7&#45;&gt;Node6</title>
<path fill="none" stroke="#9a32cd" stroke-dasharray="5,2" d="M71.878,-173.5C100.4045,-173.5 137.9959,-173.5 165.0744,-173.5"/>
<polygon fill="#9a32cd" stroke="#9a32cd" points="71.8146,-170.0001 61.8146,-173.5 71.8146,-177.0001 71.8146,-170.0001"/>
<text text-anchor="middle" x="109.8305" y="-176.5" font-family="Helvetica,sans-Serif" font-size="10.00" fill="#000000"> RGBAColour</text>
</g>
<!-- Node8&#45;&gt;Node3 -->
<g id="edge8" class="edge">
<title>Node8&#45;&gt;Node3</title>
<path fill="none" stroke="#9a32cd" stroke-dasharray="5,2" d="M835.1767,-145.0449C819.3232,-161.3971 793.6108,-185.329 766.854,-199.5 732.68,-217.5994 714.6556,-200.3752 682.939,-222.5 648.3027,-246.6616 624.4263,-293.0301 615.1369,-313.4381"/>
<polygon fill="#9a32cd" stroke="#9a32cd" points="837.7949,-147.3702 842.1287,-137.7023 832.7118,-142.5575 837.7949,-147.3702"/>
<text text-anchor="middle" x="724.8965" y="-237.5" font-family="Helvetica,sans-Serif" font-size="10.00" fill="#000000"> contextWC</text>
<text text-anchor="middle" x="724.8965" y="-225.5" font-family="Helvetica,sans-Serif" font-size="10.00" fill="#000000">wc</text>
</g>
<!-- Node9 -->
<g id="node9" class="node">
<title>Node9</title>
<g id="a_node9"><a xlink:href="structmonitor_struct.xhtml" target="_top" xlink:title=" ">
<polygon fill="none" stroke="#000000" points="573.0925,-78.5 573.0925,-98.5 648.5405,-98.5 648.5405,-78.5 573.0925,-78.5"/>
<text text-anchor="middle" x="610.8165" y="-85.5" font-family="Helvetica,sans-Serif" font-size="10.00" fill="#000000">monitorStruct</text>
</a>
</g>
</g>
<!-- Node9&#45;&gt;Node8 -->
<g id="edge10" class="edge">
<title>Node9&#45;&gt;Node8</title>
<path fill="none" stroke="#9a32cd" stroke-dasharray="5,2" d="M658.7672,-89.8193C689.8209,-91.3294 731.0063,-94.5659 766.854,-101.5 786.2607,-105.2539 807.5256,-111.8265 823.8482,-117.4239"/>
<polygon fill="#9a32cd" stroke="#9a32cd" points="658.7919,-86.3171 648.6467,-89.3705 658.4818,-93.3102 658.7919,-86.3171"/>
<text text-anchor="middle" x="724.8965" y="-104.5" font-family="Helvetica,sans-Serif" font-size="10.00" fill="#000000"> monitors</text>
</g>
<!-- Node10 -->
<g id="node10" class="node">
<title>Node10</title>
<g id="a_node10"><a xlink:href="structdrop_data_struct.xhtml" target="_top" xlink:title=" ">
<polygon fill="none" stroke="#000000" points="569.198,-39.5 569.198,-59.5 652.435,-59.5 652.435,-39.5 569.198,-39.5"/>
<text text-anchor="middle" x="610.8165" y="-46.5" font-family="Helvetica,sans-Serif" font-size="10.00" fill="#000000">dropDataStruct</text>
</a>
</g>
</g>
<!-- Node10&#45;&gt;Node8 -->
<g id="edge12" class="edge">
<title>Node10&#45;&gt;Node8</title>
<path fill="none" stroke="#9a32cd" stroke-dasharray="5,2" d="M662.8017,-53.6069C693.7673,-57.2414 733.42,-64.0071 766.854,-76.5 793.9434,-86.6222 822.0235,-105.606 837.9806,-117.3401"/>
<polygon fill="#9a32cd" stroke="#9a32cd" points="662.9776,-50.1052 652.6548,-52.4907 662.2121,-57.0633 662.9776,-50.1052"/>
<text text-anchor="middle" x="724.8965" y="-79.5" font-family="Helvetica,sans-Serif" font-size="10.00" fill="#000000"> droppedData</text>
</g>
<!-- Node11 -->
<g id="node11" class="node">
<title>Node11</title>
<g id="a_node11"><a xlink:href="class_l_f_s_t_k__lib.xhtml" target="_top" xlink:title="Library of useful routines for LFSToolKit.">
<polygon fill="none" stroke="#000000" points="579.481,-.5 579.481,-20.5 642.152,-20.5 642.152,-.5 579.481,-.5"/>
<text text-anchor="middle" x="610.8165" y="-7.5" font-family="Helvetica,sans-Serif" font-size="10.00" fill="#000000">LFSTK_lib</text>
</a>
</g>
</g>
<!-- Node11&#45;&gt;Node8 -->
<g id="edge14" class="edge">
<title>Node11&#45;&gt;Node8</title>
<path fill="none" stroke="#9a32cd" stroke-dasharray="5,2" d="M652.4361,-11.7187C685.2558,-14.2269 731.2678,-21.2701 766.854,-40.5 802.2034,-59.602 831.7549,-98.6293 844.4826,-117.2164"/>
<polygon fill="#9a32cd" stroke="#9a32cd" points="652.4811,-8.2142 642.2739,-11.054 652.0241,-15.1993 652.4811,-8.2142"/>
<text text-anchor="middle" x="724.8965" y="-43.5" font-family="Helvetica,sans-Serif" font-size="10.00" fill="#000000"> globalLib</text>
</g>
<!-- Node12 -->
<g id="node12" class="node">
<title>Node12</title>
<g id="a_node12"><a xlink:href="structargs.xhtml" target="_top" xlink:title=" ">
<polygon fill="none" stroke="#000000" points="366.8545,-.5 366.8545,-20.5 402.3015,-20.5 402.3015,-.5 366.8545,-.5"/>
<text text-anchor="middle" x="384.578" y="-7.5" font-family="Helvetica,sans-Serif" font-size="10.00" fill="#000000">args</text>
</a>
</g>
</g>
<!-- Node12&#45;&gt;Node11 -->
<g id="edge15" class="edge">
<title>Node12&#45;&gt;Node11</title>
<path fill="none" stroke="#9a32cd" stroke-dasharray="5,2" d="M412.4724,-10.5C454.7896,-10.5 534.9648,-10.5 579.3218,-10.5"/>
<polygon fill="#9a32cd" stroke="#9a32cd" points="412.3306,-7.0001 402.3306,-10.5 412.3305,-14.0001 412.3306,-7.0001"/>
<text text-anchor="middle" x="490.0825" y="-13.5" font-family="Helvetica,sans-Serif" font-size="10.00" fill="#000000"> lfsToolKitGlobals</text>
</g>
<!-- Node13&#45;&gt;Node3 -->
<g id="edge16" class="edge">
<title>Node13&#45;&gt;Node3</title>
<path fill="none" stroke="#9a32cd" stroke-dasharray="5,2" d="M796.6498,-363.046C763.411,-363.414 720.2879,-361.769 682.939,-353.5 664.1372,-349.3373 644.0032,-340.5623 629.7997,-333.5725"/>
<polygon fill="#9a32cd" stroke="#9a32cd" points="797.138,-366.5381 807.0745,-362.8617 797.0141,-359.5392 797.138,-366.5381"/>
<text text-anchor="middle" x="724.8965" y="-366.5" font-family="Helvetica,sans-Serif" font-size="10.00" fill="#000000"> ml</text>
</g>
<!-- Node14 -->
<g id="node14" class="node">
<title>Node14</title>
<g id="a_node14"><a xlink:href="structbutton_c_b.xhtml" target="_top" xlink:title=" ">
<polygon fill="none" stroke="#000000" points="355.737,-354.5 355.737,-374.5 413.419,-374.5 413.419,-354.5 355.737,-354.5"/>
<text text-anchor="middle" x="384.578" y="-361.5" font-family="Helvetica,sans-Serif" font-size="10.00" fill="#000000">buttonCB</text>
</a>
</g>
</g>
<!-- Node14&#45;&gt;Node3 -->
<g id="edge18" class="edge">
<title>Node14&#45;&gt;Node3</title>
<path fill="none" stroke="#9a32cd" stroke-dasharray="5,2" d="M423.6021,-357.8662C454.7789,-352.5175 499.5752,-344.7228 538.694,-337.5 545.4672,-336.2494 552.592,-334.9035 559.6188,-333.5581"/>
<polygon fill="#9a32cd" stroke="#9a32cd" points="422.8452,-354.4448 413.5792,-359.582 424.0264,-361.3445 422.8452,-354.4448"/>
<text text-anchor="middle" x="490.0825" y="-357.5" font-family="Helvetica,sans-Serif" font-size="10.00" fill="#000000"> callback</text>
</g>
<!-- Node15&#45;&gt;Node2 -->
<g id="edge20" class="edge">
<title>Node15&#45;&gt;Node2</title>
<path fill="none" stroke="#9a32cd" stroke-dasharray="5,2" d="M1127.5013,-407.7243C1153.0102,-410.0437 1181.784,-412.6601 1206.6191,-414.9183"/>
<polygon fill="#9a32cd" stroke="#9a32cd" points="1127.8082,-404.2378 1117.5323,-406.8178 1127.1743,-411.2091 1127.8082,-404.2378"/>
<text text-anchor="middle" x="1161.995" y="-416.5" font-family="Helvetica,sans-Serif" font-size="10.00" fill="#000000"> scrollBar</text>
</g>
<!-- Node16&#45;&gt;Node2 -->
<g id="edge27" class="edge">
<title>Node16&#45;&gt;Node2</title>
<path fill="none" stroke="#9a32cd" stroke-dasharray="5,2" d="M914.1362,-323.1014C935.9795,-325.2517 960.5585,-328.2931 982.771,-332.5 1080.7881,-351.0639 1192.6781,-391.4676 1242.1553,-410.3694"/>
<polygon fill="#9a32cd" stroke="#9a32cd" points="914.2682,-319.5985 903.9842,-322.1457 913.6121,-326.5676 914.2682,-319.5985"/>
<text text-anchor="middle" x="1059.048" y="-369.5" font-family="Helvetica,sans-Serif" font-size="10.00" fill="#000000"> labels</text>
</g>
<!-- Node16&#45;&gt;Node15 -->
<g id="edge22" class="edge">
<title>Node16&#45;&gt;Node15</title>
<path fill="none" stroke="#9a32cd" stroke-dasharray="5,2" d="M914.0351,-330.4401C936.2663,-335.7759 961.117,-343.0384 982.771,-352.5 1006.7129,-362.9613 1031.6774,-380.4587 1046.2715,-391.4686"/>
<polygon fill="#9a32cd" stroke="#9a32cd" points="914.5577,-326.9685 904.026,-328.123 912.979,-333.7882 914.5577,-326.9685"/>
<text text-anchor="middle" x="959.1555" y="-379.5" font-family="Helvetica,sans-Serif" font-size="10.00" fill="#000000"> upLeft</text>
<text text-anchor="middle" x="959.1555" y="-367.5" font-family="Helvetica,sans-Serif" font-size="10.00" fill="#000000">downRight</text>
<text text-anchor="middle" x="959.1555" y="-355.5" font-family="Helvetica,sans-Serif" font-size="10.00" fill="#000000">thumb</text>
</g>
<!-- Node17 -->
<g id="node17" class="node">
<title>Node17</title>
<g id="a_node17"><a xlink:href="structlist_label_struct.xhtml" target="_top" xlink:title=" ">
<polygon fill="none" stroke="#000000" points="1019.6545,-261.5 1019.6545,-281.5 1098.4415,-281.5 1098.4415,-261.5 1019.6545,-261.5"/>
<text text-anchor="middle" x="1059.048" y="-268.5" font-family="Helvetica,sans-Serif" font-size="10.00" fill="#000000">listLabelStruct</text>
</a>
</g>
</g>
<!-- Node17&#45;&gt;Node2 -->
<g id="edge24" class="edge">
<title>Node17&#45;&gt;Node2</title>
<path fill="none" stroke="#9a32cd" stroke-dasharray="5,2" d="M1109.0104,-270.0299C1134.7022,-271.5196 1165.4132,-276.99 1188.665,-292.5 1233.0354,-322.097 1257.0728,-385.805 1265.0073,-410.4653"/>
<polygon fill="#9a32cd" stroke="#9a32cd" points="1108.8394,-266.5205 1098.7096,-269.625 1108.5644,-273.5151 1108.8394,-266.5205"/>
<text text-anchor="middle" x="1161.995" y="-295.5" font-family="Helvetica,sans-Serif" font-size="10.00" fill="#000000"> labelData</text>
</g>
<!-- Node18 -->
<g id="node18" class="node">
<title>Node18</title>
<g id="a_node18"><a xlink:href="unionlist_label_struct_1_1image_data.xhtml" target="_top" xlink:title=" ">
<polygon fill="none" stroke="#000000" points="784.854,-261.5 784.854,-281.5 917.54,-281.5 917.54,-261.5 784.854,-261.5"/>
<text text-anchor="middle" x="851.197" y="-268.5" font-family="Helvetica,sans-Serif" font-size="10.00" fill="#000000">listLabelStruct::imageData</text>
</a>
</g>
</g>
<!-- Node18&#45;&gt;Node17 -->
<g id="edge25" class="edge">
<title>Node18&#45;&gt;Node17</title>
<path fill="none" stroke="#9a32cd" stroke-dasharray="5,2" d="M928.1893,-271.5C959.2057,-271.5 993.6599,-271.5 1019.4262,-271.5"/>
<polygon fill="#9a32cd" stroke="#9a32cd" points="927.82,-268.0001 917.82,-271.5 927.82,-275.0001 927.82,-268.0001"/>
<text text-anchor="middle" x="959.1555" y="-274.5" font-family="Helvetica,sans-Serif" font-size="10.00" fill="#000000"> data</text>
</g>
</g>
</svg>
        <g id="navigator" transform="translate(0 0)" fill="#404254">
                <rect fill="#f2f5e9" fill-opacity="0.5" stroke="#606060" stroke-width=".5" x="0" y="0" width="60" height="60"/>
                <use id="zoomplus" xlink:href="#zoomPlus" x="17" y="9" onmousedown="handleZoom(evt,'in')"/>
                <use id="zoomminus" xlink:href="#zoomMin" x="42" y="9" onmousedown="handleZoom(evt,'out')"/>
                <use id="reset" xlink:href="#resetDef" x="30" y="36" onmousedown="handleReset()"/>
                <g id="arrowUp" xlink:href="#dirArrow" transform="translate(30 24)" onmousedown="handlePan(0,-1)">
                  <use xlink:href="#rim" fill="#404040">
                        <set attributeName="fill" to="#808080" begin="arrowUp.mouseover" end="arrowUp.mouseout"/>
                  </use>
                  <path fill="none" stroke="white" stroke-width="1.5" d="M0,-3.0v7 M-2.5,-0.5L0,-3.0L2.5,-0.5"/>
                </g>
                <g id="arrowRight" xlink:href="#dirArrow" transform="rotate(90) translate(36 -43)" onmousedown="handlePan(1,0)">
                  <use xlink:href="#rim" fill="#404040">
                        <set attributeName="fill" to="#808080" begin="arrowRight.mouseover" end="arrowRight.mouseout"/>
                  </use>
                  <path fill="none" stroke="white" stroke-width="1.5" d="M0,-3.0v7 M-2.5,-0.5L0,-3.0L2.5,-0.5"/>
                </g>
                <g id="arrowDown" xlink:href="#dirArrow" transform="rotate(180) translate(-30 -48)" onmousedown="handlePan(0,1)">
                  <use xlink:href="#rim" fill="#404040">
                        <set attributeName="fill" to="#808080" begin="arrowDown.mouseover" end="arrowDown.mouseout"/>
                  </use>
                  <path fill="none" stroke="white" stroke-width="1.5" d="M0,-3.0v7 M-2.5,-0.5L0,-3.0L2.5,-0.5"/>
                </g>
                <g id="arrowLeft" xlink:href="#dirArrow" transform="rotate(270) translate(-36 17)" onmousedown="handlePan(-1,0)">
                  <use xlink:href="#rim" fill="#404040">
                        <set attributeName="fill" to="#808080" begin="arrowLeft.mouseover" end="arrowLeft.mouseout"/>
                  </use>
                  <path fill="none" stroke="white" stroke-width="1.5" d="M0,-3.0v7 M-2.5,-0.5L0,-3.0L2.5,-0.5"/>
                </g>
        </g>
        <svg viewBox="0 0 15 15" width="100%" height="30px" preserveAspectRatio="xMaxYMin meet">
         <g id="arrow_out" transform="scale(0.3 0.3)">
          <a xlink:href="structlist_data__coll__graph_org.svg" target="_base">
           <rect id="button" ry="5" rx="5" y="6" x="6" height="38" width="38"
                fill="#f2f5e9" fill-opacity="0.5" stroke="#606060" stroke-width="1.0"/>
           <path id="arrow"
             d="M 11.500037,31.436501 C 11.940474,20.09759 22.043105,11.32322 32.158766,21.979434 L 37.068811,17.246167 C 37.068811,17.246167 37.088388,32 37.088388,32 L 22.160133,31.978069 C 22.160133,31.978069 26.997745,27.140456 26.997745,27.140456 C 18.528582,18.264221 13.291696,25.230495 11.500037,31.436501 z"
             style="fill:#404040;"/>
          </a>
         </g>
        </svg>
</svg>
