<?xml version="1.0" encoding="UTF-8" standalone="no"?>
<!DOCTYPE svg PUBLIC "-//W3C//DTD SVG 1.1//EN"
 "http://www.w3.org/Graphics/SVG/1.1/DTD/svg11.dtd">
<!-- Generated by graphviz version 2.40.1 (20161225.0304)
 -->
<!-- Title: listData Pages: 1 -->
<!--zoomable 506 -->
<svg id="main" version="1.1" xmlns="http://www.w3.org/2000/svg" xmlns:xlink="http://www.w3.org/1999/xlink" xml:space="preserve" onload="init(evt)">
<style type="text/css"><![CDATA[
.edge:hover path { stroke: red; }
.edge:hover polygon { stroke: red; fill: red; }
]]></style>
<script type="text/javascript"><![CDATA[
var edges = document.getElementsByTagName('g');
if (edges && edges.length) {
  for (var i=0;i<edges.length;i++) {
    if (edges[i].id.substr(0,4)=='edge') {
      edges[i].setAttribute('class','edge');
    }
  }
}
]]></script>
        <defs>
                <circle id="rim" cx="0" cy="0" r="7"/>
                <circle id="rim2" cx="0" cy="0" r="3.5"/>
                <g id="zoomPlus">
                        <use xlink:href="#rim" fill="#404040">
                                <set attributeName="fill" to="#808080" begin="zoomplus.mouseover" end="zoomplus.mouseout"/>
                        </use>
                        <path d="M-4,0h8M0,-4v8" fill="none" stroke="white" stroke-width="1.5" pointer-events="none"/>
                </g>
                <g id="zoomMin">
                        <use xlink:href="#rim" fill="#404040">
                                <set attributeName="fill" to="#808080" begin="zoomminus.mouseover" end="zoomminus.mouseout"/>
                        </use>
                        <path d="M-4,0h8" fill="none" stroke="white" stroke-width="1.5" pointer-events="none"/>
                </g>
                <g id="dirArrow">
                        <path fill="none" stroke="white" stroke-width="1.5" d="M0,-3.0v7 M-2.5,-0.5L0,-3.0L2.5,-0.5"/>
                </g>
               <g id="resetDef">
                       <use xlink:href="#rim2" fill="#404040">
                               <set attributeName="fill" to="#808080" begin="reset.mouseover" end="reset.mouseout"/>
                       </use>
               </g>
        </defs>

<script type="text/javascript">
var viewWidth = 985;
var viewHeight = 506;
var sectionId = 'dynsection-0';
</script>
<script xlink:href="svgpan.js"/>
<svg id="graph" class="graph">
<g id="viewport">
<title>listData</title>
<!-- Node1 -->
<g id="node1" class="node">
<title>Node1</title>
<g id="a_node1"><a xlink:title=" ">
<polygon fill="#bfbfbf" stroke="#000000" points="3.3899,-69.5 3.3899,-89.5 52.7229,-89.5 52.7229,-69.5 3.3899,-69.5"/>
<text text-anchor="middle" x="28.0564" y="-76.5" font-family="Helvetica,sans-Serif" font-size="10.00" fill="#000000">listData</text>
</a>
</g>
</g>
<!-- Node2 -->
<g id="node2" class="node">
<title>Node2</title>
<g id="a_node2"><a xlink:href="class_l_f_s_t_k__list_gadget_class.xhtml" target="_top" xlink:title="List class for LFSToolKit.">
<polygon fill="none" stroke="#000000" points="53.7154,-.5 53.7154,-20.5 176.3974,-20.5 176.3974,-.5 53.7154,-.5"/>
<text text-anchor="middle" x="115.0564" y="-7.5" font-family="Helvetica,sans-Serif" font-size="10.00" fill="#000000">LFSTK_listGadgetClass</text>
</a>
</g>
</g>
<!-- Node1&#45;&gt;Node2 -->
<g id="edge24" class="edge">
<title>Node1&#45;&gt;Node2</title>
<path fill="none" stroke="#9a32cd" stroke-dasharray="5,2" d="M48.4554,-63.1731C57.7124,-55.7776 68.8073,-46.9327 78.8214,-39 86.6008,-32.8376 95.3453,-25.9584 102.2948,-20.5026"/>
<polygon fill="#9a32cd" stroke="#9a32cd" points="46.1798,-60.5114 40.5546,-69.4896 50.5509,-65.9789 46.1798,-60.5114"/>
<text text-anchor="middle" x="90.1739" y="-42" font-family="Helvetica,sans-Serif" font-size="10.00" fill="#000000"> data</text>
</g>
<!-- Node2&#45;&gt;Node1 -->
<g id="edge1" class="edge">
<title>Node2&#45;&gt;Node1</title>
<path fill="none" stroke="#9a32cd" stroke-dasharray="5,2" d="M43.557,-21.4328C24.9454,-25.8041 8.4769,-31.5957 2.7164,-39 -4.923,-48.8195 5.0899,-61.0363 14.6915,-69.4699"/>
<polygon fill="#9a32cd" stroke="#9a32cd" points="44.4163,-24.8278 53.4397,-19.2754 42.9232,-17.9888 44.4163,-24.8278"/>
<text text-anchor="middle" x="29.7264" y="-42" font-family="Helvetica,sans-Serif" font-size="10.00" fill="#000000"> mainObject</text>
</g>
<!-- Node3 -->
<g id="node3" class="node">
<title>Node3</title>
<g id="a_node3"><a xlink:href="class_l_f_s_t_k__gadget_class.xhtml" target="_top" xlink:title="Base class for LFSToolKit gadgets.">
<polygon fill="none" stroke="#000000" points="306.9339,-243.5 306.9339,-263.5 415.1789,-263.5 415.1789,-243.5 306.9339,-243.5"/>
<text text-anchor="middle" x="361.0564" y="-250.5" font-family="Helvetica,sans-Serif" font-size="10.00" fill="#000000">LFSTK_gadgetClass</text>
</a>
</g>
</g>
<!-- Node3&#45;&gt;Node2 -->
<g id="edge2" class="edge">
<title>Node3&#45;&gt;Node2</title>
<path fill="none" stroke="#191970" d="M358.772,-233.021C353.4171,-194.9536 336.516,-113.1607 287.0564,-69 256.353,-41.586 212.2566,-26.9196 176.4004,-19.128"/>
<polygon fill="#191970" stroke="#191970" points="355.351,-233.8635 360.0865,-243.3411 362.2949,-232.979 355.351,-233.8635"/>
</g>
<!-- Node8 -->
<g id="node8" class="node">
<title>Node8</title>
<g id="a_node8"><a xlink:href="class_l_f_s_t_k__window_class.xhtml" target="_top" xlink:title="Window class for LFSToolKit.">
<polygon fill="none" stroke="#000000" points="604.5539,-162.5 604.5539,-182.5 715.5589,-182.5 715.5589,-162.5 604.5539,-162.5"/>
<text text-anchor="middle" x="660.0564" y="-169.5" font-family="Helvetica,sans-Serif" font-size="10.00" fill="#000000">LFSTK_windowClass</text>
</a>
</g>
</g>
<!-- Node3&#45;&gt;Node8 -->
<g id="edge11" class="edge">
<title>Node3&#45;&gt;Node8</title>
<path fill="none" stroke="#9a32cd" stroke-dasharray="5,2" d="M369.9456,-233.9202C376.3401,-220.7479 384.9014,-205.0706 391.1414,-201 408.5658,-189.6336 530.7777,-180.3443 604.3179,-175.7048"/>
<polygon fill="#9a32cd" stroke="#9a32cd" points="366.6369,-232.732 365.5524,-243.2712 372.9725,-235.7086 366.6369,-232.732"/>
<text text-anchor="middle" x="434.0139" y="-216" font-family="Helvetica,sans-Serif" font-size="10.00" fill="#000000"> dropGadget</text>
<text text-anchor="middle" x="434.0139" y="-204" font-family="Helvetica,sans-Serif" font-size="10.00" fill="#000000">popupFromGadget</text>
</g>
<!-- Node13 -->
<g id="node13" class="node">
<title>Node13</title>
<g id="a_node13"><a xlink:href="structmapped_listener.xhtml" target="_top" xlink:title=" ">
<polygon fill="none" stroke="#000000" points="245.2129,-162.5 245.2129,-182.5 332.8999,-182.5 332.8999,-162.5 245.2129,-162.5"/>
<text text-anchor="middle" x="289.0564" y="-169.5" font-family="Helvetica,sans-Serif" font-size="10.00" fill="#000000">mappedListener</text>
</a>
</g>
</g>
<!-- Node3&#45;&gt;Node13 -->
<g id="edge17" class="edge">
<title>Node3&#45;&gt;Node13</title>
<path fill="none" stroke="#9a32cd" stroke-dasharray="5,2" d="M306.5763,-240.4822C292.8605,-236.0608 280.8409,-230.7651 276.7034,-225 267.6408,-212.3721 275.5253,-194.0462 282.1893,-182.7217"/>
<polygon fill="#9a32cd" stroke="#9a32cd" points="305.6824,-243.8682 316.2668,-243.3986 307.6997,-237.1652 305.6824,-243.8682"/>
<text text-anchor="middle" x="293.7329" y="-210" font-family="Helvetica,sans-Serif" font-size="10.00" fill="#000000"> gadget</text>
</g>
<!-- Node15 -->
<g id="node15" class="node">
<title>Node15</title>
<g id="a_node15"><a xlink:href="class_l_f_s_t_k__scroll_bar_class.xhtml" target="_top" xlink:title="Scrollbar class for LFSToolKit.">
<polygon fill="none" stroke="#000000" points="161.7794,-69.5 161.7794,-89.5 278.3334,-89.5 278.3334,-69.5 161.7794,-69.5"/>
<text text-anchor="middle" x="220.0564" y="-76.5" font-family="Helvetica,sans-Serif" font-size="10.00" fill="#000000">LFSTK_scrollBarClass</text>
</a>
</g>
</g>
<!-- Node3&#45;&gt;Node15 -->
<g id="edge21" class="edge">
<title>Node3&#45;&gt;Node15</title>
<path fill="none" stroke="#191970" d="M299.5669,-240.1498C288.8617,-236.2701 278.2324,-231.3129 269.0564,-225 249.4987,-211.5445 245.512,-204.7749 236.0564,-183 222.1516,-150.9789 220.104,-108.7707 219.9493,-89.6679"/>
<polygon fill="#191970" stroke="#191970" points="298.7864,-243.5788 309.38,-243.4177 300.9982,-236.9373 298.7864,-243.5788"/>
</g>
<!-- Node16 -->
<g id="node16" class="node">
<title>Node16</title>
<g id="a_node16"><a xlink:href="class_l_f_s_t_k__button_class.xhtml" target="_top" xlink:title="Basic button class for LFSToolKit.">
<polygon fill="none" stroke="#000000" points="83.3239,-162.5 83.3239,-182.5 188.7889,-182.5 188.7889,-162.5 83.3239,-162.5"/>
<text text-anchor="middle" x="136.0564" y="-169.5" font-family="Helvetica,sans-Serif" font-size="10.00" fill="#000000">LFSTK_buttonClass</text>
</a>
</g>
</g>
<!-- Node3&#45;&gt;Node16 -->
<g id="edge23" class="edge">
<title>Node3&#45;&gt;Node16</title>
<path fill="none" stroke="#191970" d="M296.8871,-245.1146C260.803,-239.7769 219.7364,-232.48 203.0564,-225 180.1338,-214.7206 158.1097,-194.9421 145.8992,-182.8135"/>
<polygon fill="#191970" stroke="#191970" points="296.5095,-248.5964 306.9081,-246.5667 297.5134,-241.6688 296.5095,-248.5964"/>
</g>
<!-- Node4 -->
<g id="node4" class="node">
<title>Node4</title>
<g id="a_node4"><a xlink:href="structgadget_struct.xhtml" target="_top" xlink:title=" ">
<polygon fill="none" stroke="#000000" points="473.7119,-320 473.7119,-340 546.4009,-340 546.4009,-320 473.7119,-320"/>
<text text-anchor="middle" x="510.0564" y="-327" font-family="Helvetica,sans-Serif" font-size="10.00" fill="#000000">gadgetStruct</text>
</a>
</g>
</g>
<!-- Node4&#45;&gt;Node3 -->
<g id="edge3" class="edge">
<title>Node4&#45;&gt;Node3</title>
<path fill="none" stroke="#9a32cd" stroke-dasharray="5,2" d="M488.114,-313.7108C474.0102,-303.7181 455.0256,-291.1325 437.0564,-282 422.9866,-274.8493 406.681,-268.5003 392.789,-263.6203"/>
<polygon fill="#9a32cd" stroke="#9a32cd" points="486.4589,-316.8322 496.6176,-319.8407 490.5522,-311.1538 486.4589,-316.8322"/>
<text text-anchor="middle" x="489.0099" y="-285" font-family="Helvetica,sans-Serif" font-size="10.00" fill="#000000"> gadgetDetails</text>
</g>
<!-- Node5 -->
<g id="node5" class="node">
<title>Node5</title>
<g id="a_node5"><a xlink:href="structgeometry_struct.xhtml" target="_top" xlink:title=" ">
<polygon fill="none" stroke="#000000" points="433.1624,-408.5 433.1624,-428.5 516.9504,-428.5 516.9504,-408.5 433.1624,-408.5"/>
<text text-anchor="middle" x="475.0564" y="-415.5" font-family="Helvetica,sans-Serif" font-size="10.00" fill="#000000">geometryStruct</text>
</a>
</g>
</g>
<!-- Node5&#45;&gt;Node3 -->
<g id="edge7" class="edge">
<title>Node5&#45;&gt;Node3</title>
<path fill="none" stroke="#9a32cd" stroke-dasharray="5,2" d="M423.0474,-408.2545C389.7749,-398.7168 349.1125,-380.8225 328.4774,-348 310.9282,-320.0858 337.3745,-281.5522 352.1773,-263.5386"/>
<polygon fill="#9a32cd" stroke="#9a32cd" points="422.5403,-411.7422 433.1057,-410.9534 424.3545,-404.9813 422.5403,-411.7422"/>
<text text-anchor="middle" x="359.3459" y="-327" font-family="Helvetica,sans-Serif" font-size="10.00" fill="#000000"> gadgetGeom</text>
</g>
<!-- Node5&#45;&gt;Node4 -->
<g id="edge4" class="edge">
<title>Node5&#45;&gt;Node4</title>
<path fill="none" stroke="#9a32cd" stroke-dasharray="5,2" d="M472.199,-398.1526C471.6083,-388.123 472.1554,-376.0543 476.2694,-366 480.4893,-355.6871 489.1362,-346.5647 496.6256,-340.0833"/>
<polygon fill="#9a32cd" stroke="#9a32cd" points="468.7452,-398.7904 473.2199,-408.3939 475.7106,-398.096 468.7452,-398.7904"/>
<text text-anchor="middle" x="509.9499" y="-381" font-family="Helvetica,sans-Serif" font-size="10.00" fill="#000000"> indicatorGeom</text>
<text text-anchor="middle" x="509.9499" y="-369" font-family="Helvetica,sans-Serif" font-size="10.00" fill="#000000">gadgetGeom</text>
</g>
<!-- Node5&#45;&gt;Node8 -->
<g id="edge9" class="edge">
<title>Node5&#45;&gt;Node8</title>
<path fill="none" stroke="#9a32cd" stroke-dasharray="5,2" d="M527.0756,-409.8682C554.678,-404.6027 585.2742,-397.4645 597.0564,-390 657.4499,-351.7385 670.1049,-330.2188 697.0564,-264 707.6331,-238.0136 714.054,-225.8641 701.0564,-201 696.9602,-193.1639 689.6192,-187.0477 682.2696,-182.5249"/>
<polygon fill="#9a32cd" stroke="#9a32cd" points="526.2767,-406.4566 517.0821,-411.7206 527.5525,-413.3394 526.2767,-406.4566"/>
<text text-anchor="middle" x="720.7259" y="-285" font-family="Helvetica,sans-Serif" font-size="10.00" fill="#000000"> windowGeom</text>
</g>
<!-- Node6 -->
<g id="node6" class="node">
<title>Node6</title>
<g id="a_node6"><a xlink:href="structcolour_struct.xhtml" target="_top" xlink:title=" ">
<polygon fill="none" stroke="#000000" points="654.3864,-408.5 654.3864,-428.5 723.7264,-428.5 723.7264,-408.5 654.3864,-408.5"/>
<text text-anchor="middle" x="689.0564" y="-415.5" font-family="Helvetica,sans-Serif" font-size="10.00" fill="#000000">colourStruct</text>
</a>
</g>
</g>
<!-- Node6&#45;&gt;Node3 -->
<g id="edge19" class="edge">
<title>Node6&#45;&gt;Node3</title>
<path fill="none" stroke="#9a32cd" stroke-dasharray="5,2" d="M693.9752,-398.4073C699.9742,-368.4742 705.855,-312.4406 675.0564,-282 670.4942,-277.4908 504.1722,-264.2983 415.4906,-257.5611"/>
<polygon fill="#9a32cd" stroke="#9a32cd" points="690.4865,-397.974 691.7464,-408.4936 697.3217,-399.4844 690.4865,-397.974"/>
<text text-anchor="middle" x="736.9494" y="-339" font-family="Helvetica,sans-Serif" font-size="10.00" fill="#000000"> labelBGColour</text>
<text text-anchor="middle" x="736.9494" y="-327" font-family="Helvetica,sans-Serif" font-size="10.00" fill="#000000">colourNames</text>
<text text-anchor="middle" x="736.9494" y="-315" font-family="Helvetica,sans-Serif" font-size="10.00" fill="#000000">fontColourNames</text>
</g>
<!-- Node6&#45;&gt;Node4 -->
<g id="edge5" class="edge">
<title>Node6&#45;&gt;Node4</title>
<path fill="none" stroke="#9a32cd" stroke-dasharray="5,2" d="M659.3626,-403.819C622.8636,-385.7734 561.8984,-355.6314 530.3505,-340.0337"/>
<polygon fill="#9a32cd" stroke="#9a32cd" points="658.0074,-407.0533 668.5229,-408.3479 661.1099,-400.7784 658.0074,-407.0533"/>
<text text-anchor="middle" x="646.0584" y="-375" font-family="Helvetica,sans-Serif" font-size="10.00" fill="#000000"> colour</text>
</g>
<!-- Node6&#45;&gt;Node8 -->
<g id="edge13" class="edge">
<title>Node6&#45;&gt;Node8</title>
<path fill="none" stroke="#9a32cd" stroke-dasharray="5,2" d="M720.8729,-403.5084C741.9114,-391.6844 767.7948,-373.0102 780.0564,-348 787.0997,-333.6337 783.4171,-327.6431 780.0564,-312 768.6918,-259.0996 769.0094,-238.5535 730.0564,-201 721.5547,-192.8037 710.379,-186.8479 699.4603,-182.5703"/>
<polygon fill="#9a32cd" stroke="#9a32cd" points="719.0754,-400.5006 711.911,-408.3059 722.3791,-406.672 719.0754,-400.5006"/>
<text text-anchor="middle" x="824.6679" y="-285" font-family="Helvetica,sans-Serif" font-size="10.00" fill="#000000"> windowColourNames</text>
</g>
<!-- Node7 -->
<g id="node7" class="node">
<title>Node7</title>
<g id="a_node7"><a xlink:href="structcairo_color.xhtml" target="_top" xlink:title=" ">
<polygon fill="none" stroke="#000000" points="658.2809,-477.5 658.2809,-497.5 719.8319,-497.5 719.8319,-477.5 658.2809,-477.5"/>
<text text-anchor="middle" x="689.0564" y="-484.5" font-family="Helvetica,sans-Serif" font-size="10.00" fill="#000000">cairoColor</text>
</a>
</g>
</g>
<!-- Node7&#45;&gt;Node6 -->
<g id="edge6" class="edge">
<title>Node7&#45;&gt;Node6</title>
<path fill="none" stroke="#9a32cd" stroke-dasharray="5,2" d="M689.0564,-467.2177C689.0564,-454.5684 689.0564,-438.8285 689.0564,-428.723"/>
<polygon fill="#9a32cd" stroke="#9a32cd" points="685.5565,-467.3188 689.0564,-477.3188 692.5565,-467.3188 685.5565,-467.3188"/>
<text text-anchor="middle" x="719.3359" y="-450" font-family="Helvetica,sans-Serif" font-size="10.00" fill="#000000"> RGBAColour</text>
</g>
<!-- Node8&#45;&gt;Node3 -->
<g id="edge8" class="edge">
<title>Node8&#45;&gt;Node3</title>
<path fill="none" stroke="#9a32cd" stroke-dasharray="5,2" d="M594.1503,-178.9969C567.9422,-183.1587 537.9933,-189.9494 512.3844,-201 495.6248,-208.232 495.644,-217.3817 479.0564,-225 459.1385,-234.1479 435.9293,-240.5667 415.3902,-244.9641"/>
<polygon fill="#9a32cd" stroke="#9a32cd" points="594.9952,-182.4098 604.3705,-177.4748 593.964,-175.4862 594.9952,-182.4098"/>
<text text-anchor="middle" x="537.8924" y="-216" font-family="Helvetica,sans-Serif" font-size="10.00" fill="#000000"> contextWC</text>
<text text-anchor="middle" x="537.8924" y="-204" font-family="Helvetica,sans-Serif" font-size="10.00" fill="#000000">wc</text>
</g>
<!-- Node9 -->
<g id="node9" class="node">
<title>Node9</title>
<g id="a_node9"><a xlink:href="structmonitor_struct.xhtml" target="_top" xlink:title=" ">
<polygon fill="none" stroke="#000000" points="612.3324,-243.5 612.3324,-263.5 687.7804,-263.5 687.7804,-243.5 612.3324,-243.5"/>
<text text-anchor="middle" x="650.0564" y="-250.5" font-family="Helvetica,sans-Serif" font-size="10.00" fill="#000000">monitorStruct</text>
</a>
</g>
</g>
<!-- Node9&#45;&gt;Node8 -->
<g id="edge10" class="edge">
<title>Node9&#45;&gt;Node8</title>
<path fill="none" stroke="#9a32cd" stroke-dasharray="5,2" d="M652.563,-233.1972C654.5497,-217.1048 657.2423,-195.2944 658.8002,-182.6754"/>
<polygon fill="#9a32cd" stroke="#9a32cd" points="649.0747,-232.8878 651.3229,-243.2413 656.0219,-233.7455 649.0747,-232.8878"/>
<text text-anchor="middle" x="676.6124" y="-210" font-family="Helvetica,sans-Serif" font-size="10.00" fill="#000000"> monitors</text>
</g>
<!-- Node10 -->
<g id="node10" class="node">
<title>Node10</title>
<g id="a_node10"><a xlink:href="structdrop_data_struct.xhtml" target="_top" xlink:title=" ">
<polygon fill="none" stroke="#000000" points="511.4379,-243.5 511.4379,-263.5 594.6749,-263.5 594.6749,-243.5 511.4379,-243.5"/>
<text text-anchor="middle" x="553.0564" y="-250.5" font-family="Helvetica,sans-Serif" font-size="10.00" fill="#000000">dropDataStruct</text>
</a>
</g>
</g>
<!-- Node10&#45;&gt;Node8 -->
<g id="edge12" class="edge">
<title>Node10&#45;&gt;Node8</title>
<path fill="none" stroke="#9a32cd" stroke-dasharray="5,2" d="M562.2714,-234.3657C568.395,-223.3519 577.3522,-209.9622 588.4784,-201 598.4783,-192.9451 611.0439,-186.9235 622.8448,-182.5431"/>
<polygon fill="#9a32cd" stroke="#9a32cd" points="559.153,-232.7761 557.6361,-243.2618 565.3609,-236.0107 559.153,-232.7761"/>
<text text-anchor="middle" x="618.3454" y="-210" font-family="Helvetica,sans-Serif" font-size="10.00" fill="#000000"> droppedData</text>
</g>
<!-- Node11 -->
<g id="node11" class="node">
<title>Node11</title>
<g id="a_node11"><a xlink:href="class_l_f_s_t_k__lib.xhtml" target="_top" xlink:title="Library of useful routines for LFSToolKit.">
<polygon fill="none" stroke="#000000" points="852.7209,-243.5 852.7209,-263.5 915.3919,-263.5 915.3919,-243.5 852.7209,-243.5"/>
<text text-anchor="middle" x="884.0564" y="-250.5" font-family="Helvetica,sans-Serif" font-size="10.00" fill="#000000">LFSTK_lib</text>
</a>
</g>
</g>
<!-- Node11&#45;&gt;Node8 -->
<g id="edge14" class="edge">
<title>Node11&#45;&gt;Node8</title>
<path fill="none" stroke="#9a32cd" stroke-dasharray="5,2" d="M865.0851,-236.7936C850.6796,-225.0016 829.8615,-209.7928 809.0564,-201 779.5812,-188.543 744.5216,-181.4906 715.8178,-177.5188"/>
<polygon fill="#9a32cd" stroke="#9a32cd" points="862.8726,-239.5061 872.7773,-243.2674 867.38,-234.1504 862.8726,-239.5061"/>
<text text-anchor="middle" x="870.4514" y="-210" font-family="Helvetica,sans-Serif" font-size="10.00" fill="#000000"> globalLib</text>
</g>
<!-- Node12 -->
<g id="node12" class="node">
<title>Node12</title>
<g id="a_node12"><a xlink:href="structargs.xhtml" target="_top" xlink:title=" ">
<polygon fill="none" stroke="#000000" points="897.3329,-320 897.3329,-340 932.7799,-340 932.7799,-320 897.3329,-320"/>
<text text-anchor="middle" x="915.0564" y="-327" font-family="Helvetica,sans-Serif" font-size="10.00" fill="#000000">args</text>
</a>
</g>
</g>
<!-- Node12&#45;&gt;Node11 -->
<g id="edge15" class="edge">
<title>Node12&#45;&gt;Node11</title>
<path fill="none" stroke="#9a32cd" stroke-dasharray="5,2" d="M907.2172,-310.6549C901.1739,-295.7416 893.055,-275.7062 888.2091,-263.7477"/>
<polygon fill="#9a32cd" stroke="#9a32cd" points="904.0042,-312.0455 911.0037,-319.999 910.4918,-309.4165 904.0042,-312.0455"/>
<text text-anchor="middle" x="937.9484" y="-285" font-family="Helvetica,sans-Serif" font-size="10.00" fill="#000000"> lfsToolKitGlobals</text>
</g>
<!-- Node13&#45;&gt;Node3 -->
<g id="edge16" class="edge">
<title>Node13&#45;&gt;Node3</title>
<path fill="none" stroke="#9a32cd" stroke-dasharray="5,2" d="M303.9818,-190.5724C312.5427,-200.8027 323.5756,-213.7608 333.7294,-225 339.3357,-231.2056 345.8048,-237.9692 351.0411,-243.3495"/>
<polygon fill="#9a32cd" stroke="#9a32cd" points="306.5325,-188.1658 297.4455,-182.7181 301.1519,-192.6435 306.5325,-188.1658"/>
<text text-anchor="middle" x="340.7199" y="-210" font-family="Helvetica,sans-Serif" font-size="10.00" fill="#000000"> ml</text>
</g>
<!-- Node14 -->
<g id="node14" class="node">
<title>Node14</title>
<g id="a_node14"><a xlink:href="structbutton_c_b.xhtml" target="_top" xlink:title=" ">
<polygon fill="none" stroke="#000000" points="398.2154,-320 398.2154,-340 455.8974,-340 455.8974,-320 398.2154,-320"/>
<text text-anchor="middle" x="427.0564" y="-327" font-family="Helvetica,sans-Serif" font-size="10.00" fill="#000000">buttonCB</text>
</a>
</g>
</g>
<!-- Node14&#45;&gt;Node3 -->
<g id="edge18" class="edge">
<title>Node14&#45;&gt;Node3</title>
<path fill="none" stroke="#9a32cd" stroke-dasharray="5,2" d="M411.8309,-312.3522C398.8401,-297.2947 380.6116,-276.1662 369.8976,-263.7477"/>
<polygon fill="#9a32cd" stroke="#9a32cd" points="409.2457,-314.7137 418.4281,-319.999 414.5458,-310.141 409.2457,-314.7137"/>
<text text-anchor="middle" x="413.5034" y="-285" font-family="Helvetica,sans-Serif" font-size="10.00" fill="#000000"> callback</text>
</g>
<!-- Node15&#45;&gt;Node2 -->
<g id="edge20" class="edge">
<title>Node15&#45;&gt;Node2</title>
<path fill="none" stroke="#9a32cd" stroke-dasharray="5,2" d="M195.9607,-63.6657C175.8756,-50.4669 147.855,-32.0534 130.6131,-20.723"/>
<polygon fill="#9a32cd" stroke="#9a32cd" points="194.2841,-66.752 204.5633,-69.3188 198.1284,-60.902 194.2841,-66.752"/>
<text text-anchor="middle" x="194.8874" y="-42" font-family="Helvetica,sans-Serif" font-size="10.00" fill="#000000"> scrollBar</text>
</g>
<!-- Node16&#45;&gt;Node2 -->
<g id="edge25" class="edge">
<title>Node16&#45;&gt;Node2</title>
<path fill="none" stroke="#9a32cd" stroke-dasharray="5,2" d="M132.9523,-152.1379C130.4495,-135.4543 126.9071,-111.2223 124.1624,-90 120.9373,-65.0626 117.7207,-35.6467 116.1128,-20.5513"/>
<polygon fill="#9a32cd" stroke="#9a32cd" points="129.5409,-152.9878 134.4963,-162.3524 136.4623,-151.9415 129.5409,-152.9878"/>
<text text-anchor="middle" x="139.5034" y="-76.5" font-family="Helvetica,sans-Serif" font-size="10.00" fill="#000000"> labels</text>
</g>
<!-- Node16&#45;&gt;Node15 -->
<g id="edge22" class="edge">
<title>Node16&#45;&gt;Node15</title>
<path fill="none" stroke="#9a32cd" stroke-dasharray="5,2" d="M137.9087,-151.9933C140.1348,-138.1186 145.0358,-120.1713 155.8254,-108 163.1089,-99.7839 173.2099,-93.8222 183.2471,-89.5453"/>
<polygon fill="#9a32cd" stroke="#9a32cd" points="134.4181,-151.6991 136.6355,-162.0593 141.3628,-152.5776 134.4181,-151.6991"/>
<text text-anchor="middle" x="179.6719" y="-135" font-family="Helvetica,sans-Serif" font-size="10.00" fill="#000000"> upLeft</text>
<text text-anchor="middle" x="179.6719" y="-123" font-family="Helvetica,sans-Serif" font-size="10.00" fill="#000000">downRight</text>
<text text-anchor="middle" x="179.6719" y="-111" font-family="Helvetica,sans-Serif" font-size="10.00" fill="#000000">thumb</text>
</g>
</g>
</svg>
        <g id="navigator" transform="translate(0 0)" fill="#404254">
                <rect fill="#f2f5e9" fill-opacity="0.5" stroke="#606060" stroke-width=".5" x="0" y="0" width="60" height="60"/>
                <use id="zoomplus" xlink:href="#zoomPlus" x="17" y="9" onmousedown="handleZoom(evt,'in')"/>
                <use id="zoomminus" xlink:href="#zoomMin" x="42" y="9" onmousedown="handleZoom(evt,'out')"/>
                <use id="reset" xlink:href="#resetDef" x="30" y="36" onmousedown="handleReset()"/>
                <g id="arrowUp" xlink:href="#dirArrow" transform="translate(30 24)" onmousedown="handlePan(0,-1)">
                  <use xlink:href="#rim" fill="#404040">
                        <set attributeName="fill" to="#808080" begin="arrowUp.mouseover" end="arrowUp.mouseout"/>
                  </use>
                  <path fill="none" stroke="white" stroke-width="1.5" d="M0,-3.0v7 M-2.5,-0.5L0,-3.0L2.5,-0.5"/>
                </g>
                <g id="arrowRight" xlink:href="#dirArrow" transform="rotate(90) translate(36 -43)" onmousedown="handlePan(1,0)">
                  <use xlink:href="#rim" fill="#404040">
                        <set attributeName="fill" to="#808080" begin="arrowRight.mouseover" end="arrowRight.mouseout"/>
                  </use>
                  <path fill="none" stroke="white" stroke-width="1.5" d="M0,-3.0v7 M-2.5,-0.5L0,-3.0L2.5,-0.5"/>
                </g>
                <g id="arrowDown" xlink:href="#dirArrow" transform="rotate(180) translate(-30 -48)" onmousedown="handlePan(0,1)">
                  <use xlink:href="#rim" fill="#404040">
                        <set attributeName="fill" to="#808080" begin="arrowDown.mouseover" end="arrowDown.mouseout"/>
                  </use>
                  <path fill="none" stroke="white" stroke-width="1.5" d="M0,-3.0v7 M-2.5,-0.5L0,-3.0L2.5,-0.5"/>
                </g>
                <g id="arrowLeft" xlink:href="#dirArrow" transform="rotate(270) translate(-36 17)" onmousedown="handlePan(-1,0)">
                  <use xlink:href="#rim" fill="#404040">
                        <set attributeName="fill" to="#808080" begin="arrowLeft.mouseover" end="arrowLeft.mouseout"/>
                  </use>
                  <path fill="none" stroke="white" stroke-width="1.5" d="M0,-3.0v7 M-2.5,-0.5L0,-3.0L2.5,-0.5"/>
                </g>
        </g>
        <svg viewBox="0 0 15 15" width="100%" height="30px" preserveAspectRatio="xMaxYMin meet">
         <g id="arrow_out" transform="scale(0.3 0.3)">
          <a xlink:href="structlist_data__coll__graph_org.svg" target="_base">
           <rect id="button" ry="5" rx="5" y="6" x="6" height="38" width="38"
                fill="#f2f5e9" fill-opacity="0.5" stroke="#606060" stroke-width="1.0"/>
           <path id="arrow"
             d="M 11.500037,31.436501 C 11.940474,20.09759 22.043105,11.32322 32.158766,21.979434 L 37.068811,17.246167 C 37.068811,17.246167 37.088388,32 37.088388,32 L 22.160133,31.978069 C 22.160133,31.978069 26.997745,27.140456 26.997745,27.140456 C 18.528582,18.264221 13.291696,25.230495 11.500037,31.436501 z"
             style="fill:#404040;"/>
          </a>
         </g>
        </svg>
</svg>
