<?xml version="1.0" encoding="UTF-8" standalone="no"?>
<!DOCTYPE svg PUBLIC "-//W3C//DTD SVG 1.1//EN"
 "http://www.w3.org/Graphics/SVG/1.1/DTD/svg11.dtd">
<!-- Generated by graphviz version 2.40.1 (20161225.0304)
 -->
<!-- Title: menuStruct Pages: 1 -->
<svg width="169pt" height="98pt"
 viewBox="0.00 0.00 168.97 98.00" xmlns="http://www.w3.org/2000/svg" xmlns:xlink="http://www.w3.org/1999/xlink">
<g id="graph0" class="graph" transform="scale(1 1) rotate(0) translate(4 94)">
<title>menuStruct</title>
<!-- Node1 -->
<g id="node1" class="node">
<title>Node1</title>
<g id="a_node1"><a xlink:title=" ">
<polygon fill="#bfbfbf" stroke="#000000" points="26.9495,-.5 26.9495,-20.5 94.0705,-20.5 94.0705,-.5 26.9495,-.5"/>
<text text-anchor="middle" x="60.51" y="-7.5" font-family="Helvetica,sans-Serif" font-size="10.00" fill="#000000">menuStruct</text>
</a>
</g>
</g>
<!-- Node1&#45;&gt;Node1 -->
<g id="edge2" class="edge">
<title>Node1&#45;&gt;Node1</title>
<path fill="none" stroke="#9a32cd" stroke-dasharray="5,2" d="M104.2845,-15.833C109.021,-14.8094 112.0705,-13.0317 112.0705,-10.5 112.0705,-6.4492 104.2638,-4.3289 94.231,-4.139"/>
<polygon fill="#9a32cd" stroke="#9a32cd" points="103.8231,-12.3618 94.231,-16.861 104.5352,-19.3255 103.8231,-12.3618"/>
<text text-anchor="middle" x="136.522" y="-7.5" font-family="Helvetica,sans-Serif" font-size="10.00" fill="#000000"> subMenus</text>
</g>
<!-- Node2 -->
<g id="node2" class="node">
<title>Node2</title>
<g id="a_node2"><a xlink:href="unionmenu_struct_1_1image_data.xhtml" target="_top" xlink:title=" ">
<polygon fill="none" stroke="#000000" points="0,-69.5 0,-89.5 121.02,-89.5 121.02,-69.5 0,-69.5"/>
<text text-anchor="middle" x="60.51" y="-76.5" font-family="Helvetica,sans-Serif" font-size="10.00" fill="#000000">menuStruct::imageData</text>
</a>
</g>
</g>
<!-- Node2&#45;&gt;Node1 -->
<g id="edge1" class="edge">
<title>Node2&#45;&gt;Node1</title>
<path fill="none" stroke="#9a32cd" stroke-dasharray="5,2" d="M60.51,-59.2177C60.51,-46.5684 60.51,-30.8285 60.51,-20.723"/>
<polygon fill="#9a32cd" stroke="#9a32cd" points="57.0101,-59.3188 60.51,-69.3188 64.0101,-59.3188 57.0101,-59.3188"/>
<text text-anchor="middle" x="71.6275" y="-42" font-family="Helvetica,sans-Serif" font-size="10.00" fill="#000000"> data</text>
</g>
</g>
</svg>
