#define delodd_width 7
#define delodd_height 7
static unsigned char delodd_bits[] = {
   0x41, 0x22, 0x14, 0x08, 0x14, 0x22, 0x41};
