#define shadeodd_width 7
#define shadeodd_height 7
static unsigned char shadeodd_bits[] = {
   0x7f, 0x00, 0x7f, 0x3e, 0x1c, 0x08, 0x00 };
